<svg id="圖層_1" xmlns="http://www.w3.org/2000/svg" xmlns:xlink="http://www.w3.org/1999/xlink" viewBox="0 0 155.3 162.3" style="enable-background:new 0 0 155.3 162.3"><style>.st0{fill:url(#SVGID_1_)}.st1{fill:url(#SVGID_2_)}.st2{fill:url(#SVGID_3_)}.st3{fill:url(#SVGID_4_)}.st4{fill:url(#SVGID_5_)}.st5{fill:url(#SVGID_6_)}.st6{fill:#81d0ef}.st7{fill:url(#SVGID_7_)}.st8{fill:url(#SVGID_8_)}.st9{fill:#dd6b50}.st10{fill:#f4e3a5;stroke:#deb87d;stroke-width:.454;stroke-miterlimit:10}.st11{fill:#231815}.st12{fill:#3f210e}.st13{fill:#e6a952;stroke:#ba7f37;stroke-width:.2029;stroke-miterlimit:10}.st14{fill:#eaa593}.st15{fill:#e5a852}.st16{fill:#b25f1b}.st17{fill:none;stroke:#b25f1b;stroke-width:.3;stroke-linecap:round;stroke-miterlimit:10}.st18{fill:url(#SVGID_9_)}.st19{opacity:.67;fill:#fff}.st20{fill:url(#SVGID_10_)}.st21{fill:url(#SVGID_11_)}.st22{fill:url(#SVGID_12_)}.st23{fill:url(#SVGID_13_)}.st24{fill:#fff}.st25{fill:url(#SVGID_14_)}.st26{fill:url(#SVGID_15_)}.st27{fill:url(#SVGID_16_)}.st28{fill:url(#SVGID_17_)}.st29{fill:url(#SVGID_18_)}.st30{fill:url(#SVGID_19_)}.st31{fill:url(#SVGID_20_)}.st32{fill:url(#SVGID_21_)}.st33{fill:url(#SVGID_22_)}.st34{fill:url(#SVGID_23_)}.st35{fill:#65c9b6}</style><g id="領航員2_00000119822524472117063590000012349339628632629146_"><radialGradient id="SVGID_1_" cx="4002.2119" cy="-34.0663" r=".9659" gradientTransform="matrix(-0.9713 0.238 0.238 0.9713 3811.2454 -837.6004)" gradientUnits="userSpaceOnUse"><stop offset="58e-8" style="stop-color:#31577c"/><stop offset=".9962" style="stop-color:#7fd9ff"/></radialGradient><circle class="st0" cx="99.5" cy="60.6" r="8.9"/><linearGradient id="SVGID_2_" gradientUnits="userSpaceOnUse" x1="3793.4041" y1="37.2917" x2="3811.1392" y2="37.2917" gradientTransform="matrix(-0.9713 0.238 0.238 0.9713 3811.2454 -837.6004)"><stop offset="77e-8" style="stop-color:#3fe1ff"/><stop offset=".1885" style="stop-color:#42e1ff"/><stop offset=".3355" style="stop-color:#4ce3ff"/><stop offset=".4686" style="stop-color:#5de6ff"/><stop offset=".5934" style="stop-color:#74e9ff"/><stop offset=".7126" style="stop-color:#92eeff"/><stop offset=".8273" style="stop-color:#b7f4ff"/><stop offset=".9365" style="stop-color:#e2fbff"/><stop offset="1" style="stop-color:#fff"/></linearGradient><circle class="st1" cx="127" cy="103.6" r="8.9"/><linearGradient id="SVGID_3_" gradientUnits="userSpaceOnUse" x1="-1729.6663" y1="-2691.989" x2="-1704.8362" y2="-2691.989" gradientTransform="matrix(0.7416 0.6708 0.6708 -0.7416 3165.0193 -776.3275)"><stop offset="115e-8" style="stop-color:#008be9"/><stop offset=".9994" style="stop-color:#002cbf"/></linearGradient><path class="st2" d="M92.4 52.7c0 0-27.6 9.6-22.8 21.4 4.8 11.8 30.6-3.6 30.6-3.6s-3.1-2.6-5.5-8.1C92.5 57.2 92.4 52.7 92.4 52.7z"/><linearGradient id="SVGID_4_" gradientUnits="userSpaceOnUse" x1="-1745.5997" y1="-2892.3689" x2="-1726.7473" y2="-2892.3689" gradientTransform="matrix(0.7105 0.7036 0.7036 -0.7105 3377.5454 -778.3483)"><stop offset="115e-8" style="stop-color:#008be9"/><stop offset=".9994" style="stop-color:#002cbf"/></linearGradient><path class="st3" d="M100.9 49.8c0 0 3.6 3.3 5.5 7.9 2.5 6 1.9 9 1.9 9s13-6.2 10.4-13.1C116 46.1 100.9 49.8 100.9 49.8z"/><linearGradient id="SVGID_5_" gradientUnits="userSpaceOnUse" x1="3787.4329" y1="708.2086" x2="3813.3364" y2="557.4544" gradientTransform="matrix(-0.9963 8.480000e-002 8.480000e-002 0.9963 3752.9575 -869.9785)"><stop offset="0" style="stop-color:#def9ff"/><stop offset=".9962" style="stop-color:#009469"/></linearGradient><path class="st4" d="M3.3 62.3c3.5-3.7 16.7-4.1 21.3-1.9.2 9.6 2.1 30.8 14.8 50.1 3 4.6 6.9 8.7 10.9 12-5.1 5.1-15.3 12.4-20.8 11.9-5.2-.4-18.1-16.9-23.9-34.1C-.2 83.2-2.4 68.3 3.3 62.3z"/><linearGradient id="SVGID_6_" gradientUnits="userSpaceOnUse" x1="3795.1287" y1="598.9635" x2="3705.7805" y2="713.3506" gradientTransform="matrix(-0.9963 8.480000e-002 8.480000e-002 0.9963 3752.9575 -869.9785)"><stop offset="115e-8" style="stop-color:#008be9"/><stop offset=".9994" style="stop-color:#002cbf"/></linearGradient><path class="st5" d="M24.5 60.4c-.1-3.2.1-5.1.1-5.1l48.8 5.8c0 0-.4 15 12 25.7 10.1 8.8 19.2 4.8 22.5 8.7 9.8 11.5-19.8 34.8-32.3 37.5-5.8 1.2-16.2-2.8-25.3-10.4-4.1-3.4-7.9-7.4-10.9-12C26.6 91.2 24.7 69.9 24.5 60.4z"/><path class="st6" d="M30.3 51.9c3.9 9.1 11.3 11.9 13.8 12.5 3.8.9 7.2 1.9 17.8 2.9 5.1.5 14.5-3.2 19.5-10.6v0c.2-.3.4-.5.5-.8.3-.5.6-1 .9-1.5 1.9-3.4 3.3-7.2 4-11.2.2-1.2.4-2.5.4-3.7.1-.9.1-1.8.1-2.6.0-.2.0-.4.0-.6.0.0.0.0.0.1.0-.9.0-1.8-.1-2.8-1.1-12.4-8.1-22.8-18.1-28.6-4 .4-11-1.6-19.2 1.4C40.2 10 34.1 18.5 30.8 22.2c-.9 1.1-1.5 2-1.8 2.7C27.9 27.8 25.2 40 30.3 51.9z"/><g><linearGradient id="SVGID_7_" gradientUnits="userSpaceOnUse" x1="914.4734" y1="37.8643" x2="969.0037" y2="37.8643" gradientTransform="matrix(-1 0 0 1 995.1526 0)"><stop offset="0" style="stop-color:#f2d397"/><stop offset=".5331" style="stop-color:#f3d093"/><stop offset=".7526" style="stop-color:#f5cc8f"/><stop offset="1" style="stop-color:#f3b699"/></linearGradient><path class="st7" d="M35 22.9c.7.9 1.6 1.6 2.6 1.9.1.0.3.1.4.1.3.1.7.1 1 .1.1.0.2-.1.2-.2.0-.1-.1-.2-.2-.2-.3.0-.6.0-.9-.1-1.1-.2-2.2-.9-2.9-2-.8-1-1.2-2.4-1.2-3.6.1-2.7 1.7-5.3 4-6.6 1.8-1 6.7-1.7 9.7 1.6 1.6 1.7 1.8 3.8 1.5 5.3.0.0.0.0.0.0-.2 1.2-.8 2-.8 2.1.0.1.0.2.1.2.1.1.2.1.2.0.0.0.6-.8.8-2.2.1.0.2-.1.2-.1.0.0.0.0.0.0.0.0.0.0.0.0.1.0.2.0.2.0.0.0.0.0.0.0.0.0.0.0.0.0.0.0.0.0.0.0.2.0.4.0.6.0.0.0.0.0.0.0v0c5.7.3 13.9 2.2 15.5 2.5.0.0.0.0.0.0.1.0.2.0.3.1h0v0c.4.1.6.2 1 .2.0.0.1.0.1.0.0.0.1-.1.1-.1.4-2.2 1.8-3.3 1.9-3.3 3.2-2.9 7-1.4 9.3.7 2.5 2.3 2.4 6.4.7 8.6-1.8 2.2-4.1 2.4-4.2 2.4-.1.0-.1.0-.1.1.0.1.0.1.0.2 3.3 6.1 5.7 13 3.8 19.7-2.5 8.8-12 13.7-21.1 13.8-2.9.0-10.4-.6-17.3-3.2C34 58.5 27 53.6 26.3 46.8 25.5 38.4 27.7 29.3 35 22.9z"/><linearGradient id="SVGID_8_" gradientUnits="userSpaceOnUse" x1="916.0721" y1="55.2263" x2="967.9788" y2="55.2263" gradientTransform="matrix(-1 0 0 1 995.1526 0)"><stop offset="0" style="stop-color:#fdebd1"/><stop offset=".899" style="stop-color:#f9e8b4"/><stop offset="1" style="stop-color:#f8e8b0"/></linearGradient><path class="st8" d="M27.2 49.8c11.8-2.7 22.9-4 34.3-3.1 5.6.4 12 1.1 17.6 3.1C79 50 79 50.2 78.9 50.4c-2.8 8.9-12 13.7-21.1 13.8-2.9.0-10.5-.8-17.3-3.2C35.5 59.2 29.2 55 27.2 49.8z"/><path class="st9" d="M54.7 52.1c-.1.5-1 3.5.3 5.1.7.9 2.1 1.4 3.9 1.3 2 0 3.6-.6 4.7-1.8 1.5-1.7 1.6-4.2 1.6-4.7-.4.0-.8-.1-1.2-.2-1.6-.4-2.6-1.2-2.9-1.4C59.6 51.4 57.3 52.4 54.7 52.1z"/><path class="st10" d="M75.9 24.5c-.2-.2-.4-.3-.7-.4-.2-.1-.5-.1-.7.0-.7.2-1.3.8-1.7 1.4-.4.6-.7 1.1-.8 1.3.7.5 1.4 1.1 2 1.9.0.0.0.0.0.0.5-.3 1.1-.6 1.5-1 .5-.4.8-.9 1-1.4C76.6 25.7 76.3 25 75.9 24.5z"/><path class="st10" d="M45.7 19.7c-.4-1-1.3-1.7-2.2-1.8-1-.1-2 .5-2.3 1.5-.2.6-.1 1.4.2 2.1.2.4.6 1.2 1.1 1.2.3-.2 2.4-1.3 3.6-1.6C46.1 21 45.9 20.1 45.7 19.7z"/><path class="st11" d="M55.4 43.2c-5.6-2.6-11.2-1-11.2-1 0 0-.1.0-.1.0.0.0-.1.0-.1-.1.0-.1.0-.2.0-.2.5-.4 3.2-1.6 6-1.3 2.7.3 5.4 2.2 5.5 2.3.1.0.1.1.0.2C55.6 43.2 55.5 43.2 55.4 43.2z"/><path class="st12" d="M50.1 40.9c-1.6-.2-3.1.1-4.2.5 1.7-.3 4.5-.2 7.5.6.2.0.3.1.5.1C52.8 41.7 51.4 41.1 50.1 40.9z"/><path class="st11" d="M72.4 43.7c0 0-3.7-1-6.7.2.0.0-.1.0-.1.0.0.0-.1.0-.1-.1.0-.1.0-.1.0-.2.0.0 3-2.7 7-.3.1.0.1.1.0.2C72.6 43.7 72.5 43.8 72.4 43.7z"/><path class="st12" d="M66.5 43.4c1.9-.5 3.8-.3 5-.1C69.2 42.3 67.5 42.8 66.5 43.4z"/><path class="st13" d="M69.1 33.7c-1-.3-2 .2-2.1.8-.2.6.5 1.2 1.6 1.5 1 .3 2.1.0 2.3-.6C70.9 34.7 70.1 33.9 69.1 33.7z"/><path class="st13" d="M53.3 33.5c0-.3-.4-.7-1-1-.4-.2-.8-.3-1.3-.4-.7-.1-1.3-.1-1.8.0-.4.1-.7.3-.7.6.0.6 1.1 1.2 2.3 1.4C52.1 34.2 53.3 34 53.3 33.5z"/><path class="st14" d="M34.3 38.3c6.2 2.5 11.6 9.4 9.3 16-.8 2.3-2.8 4.2-5.1 5.7-5.8-2.5-11-6.8-12.1-13.3-.6-3.1-.5-5.9.0-8.5C28.8 37.3 31.6 37.3 34.3 38.3z"/><path class="st14" d="M71.8 50.9c1.3-3.9 4.2-7.2 7.7-8.9.3 2.4.3 5.3-.6 8.3-1.1 4-3.4 6.9-6.2 9.2C71.2 57.1 70.7 54.1 71.8 50.9z"/><g><path class="st15" d="M57.4 23.6c0-.1.0-.2-.1-.3-.1-.1-.2.0-.2.1.0.0-1.2 3-4 4.1.0.0.0.0.0.0-2.9.0-5-1.4-5.9-2.1 1.1.1 2.2-.2 2.7-1 .4-.5.5-.9.7-1.5.1-.4.2-.8.4-1.1.8-1.5 1.8-2.8 3.1-3.7 3.2-2.3 6.3-.2 6.3-.2.0.0.1.0.1.0.6-.2 1.2-.2 1.8.0.0.0.0.0.0-.1.0.0 1.5.2 2.6 2.5.0.0.0.0-.1.0.1.2.2.4.3.6 1 2 1.2 4.5-.1 6.3-.1.2-.3.4-.5.6.0.0-.1.1-.1.1.0-.4.0-1.4-.2-2.7.0.0.0.0.0.0.0-.8-.2-1.4-.2-1.4.0-.1-.1-.1-.2-.1-.1.1-.1.2-.1.3.0.0.2.5.2 1.3.0.0.0.0.0.0.0.0.0.0.0.0.0 1.2-.3 3-2.5 5.2.1-.3.1-.6.1-.8.4-.4.8-.9 1.1-1.4.1-.1.1-.2.0-.2-.1-.1-.1.0-.2.0-2.2 3.3-5.6 3.2-6.8 2.7.3-.1.6-.4.7-.4.0.0.0.0.0.0.8-.1 1.7-.4 2.5-1.1.1-.1.1-.2.1-.3.0-.1-.2-.1-.2.0-3.6 3.1-7.2.1-8.4-.9.1.0.1.0.2.0C54.8 28.6 57.3 23.8 57.4 23.6z"/><g><path class="st16" d="M64.4 28.4c0 0-.10000000000000853.0.0.0-.1.0-.2-.1-.2-.1.0.0.1-1.1-.2-2.9.0-.1.0-.2.1-.2.0.0.0.0.0.0.1.0.1.0.2.1.2 1.3.3 2.3.2 2.7.0.0.1-.1.1-.1.2-.2.4-.4.5-.6 1.3-1.8 1.1-4.4.1-6.3-.9-1.8-2.7-3.7-4.7-3 0 0-.1.0-.1.0.0.0-3.1-2.1-6.3.2-1.3.9-2.3 2.2-3.1 3.7-.2.3-.3.7-.4 1.1-.2.5-.3 1-.7 1.5-.6.8-1.6 1.1-2.7 1 .8.6 3 2 5.9 2.1.1.0.2.1.2.2.0.1.0.2-.1.2-4.1.0-6.5-2.5-6.6-2.6-.1-.1-.1-.1-.1-.2.0-.1.1-.1.2-.1 1.2.2 2.4-.2 2.9-.9.3-.4.5-.9.7-1.4.1-.4.3-.8.4-1.1.8-1.5 1.9-2.9 3.2-3.8 3.1-2.2 6.1-.5 6.6-.2 2.2-.8 4.1 1.4 5 3.2 1 2.1 1.2 4.8-.2 6.7-.2.2-.3.4-.5.6C64.6 28.2 64.5 28.3 64.4 28.4c0 0 0 0 0 0z"/><path class="st16" d="M61.2 31.2c-.1.0-.1.0-.1-.1.0-.1.0-.2.1-.3.0.0.1-.1.2-1.2.0-.1.1-.2.2-.2.1.0.1.1.1.2.0.3-.1.7-.1.9 3.8-3.6 2.4-6.4 2.3-6.5.0-.1.0-.2.1-.3.1-.1.2.0.2.1C64.1 23.9 65.7 27.5 61.2 31.2c0 0 0 0 0 0z"/><path class="st16" d="M55.3 30.5C52 30.4 49.7 28 49.7 28c-.1-.1-.1-.1-.1-.2.0-.1.1-.1.2-.1 4.3 1 7.3-4.3 7.3-4.3.0-.1.1-.1.2-.1.1.1.1.2.1.3-.1.2-2.6 5-6.9 4.6-.1.0-.1.0-.2.0 1.2 1 4.7 4 8.4.9.1-.1.2.0.2.0.0.1.0.2-.1.3C57.7 30.4 56.4 30.6 55.3 30.5z"/><path class="st16" d="M58.4 31.6c-1.8.2-3.2-.6-3.2-.6C55 31 55 30.9 55 30.8c0-.1.1-.1.2-.1.2.0.7-.3 1-.5.1-.1.2.0.3.0.1.1.1.2.0.3-.1.1-.4.3-.7.4 1.2.4 4.5.5 6.8-2.7.1-.1.1-.1.2.0.1.1.1.2.0.2C61.4 30.2 59.7 31.5 58.4 31.6z"/></g></g><path class="st16" d="M44.5 62.6c5.6 1.6 10.9 1.9 13.4 1.8 8.9-.3 19-4.4 21.3-14 1.7-7.1-.4-13.5-3.6-19.7.7-.1 2.6-.5 4.1-2.5 1.8-2.3 1.9-6.7-.8-9.1-2.3-2.1-6.3-3.7-9.7-.7.0.0-1.4 1.1-1.9 3.4-.6-.1-.9-.2-1.4-.4-.1.0-.2.0-.2.1.0.1.0.2.1.2.6.2.9.2 1.6.4.0.0.1.0.1.0.0.0.1-.1.1-.1.4-2.2 1.8-3.3 1.9-3.3 3.2-2.9 7-1.4 9.3.7 2.5 2.3 2.4 6.4.7 8.6-1.8 2.2-4.1 2.4-4.2 2.4-.1.0-.1.0-.1.1.0.1.0.1.0.2 3.3 6.1 5.7 13 3.8 19.7-2.5 8.8-12 13.7-21.1 13.8-2.9.0-10.4-.6-17.3-3.2-6.5-2.4-12.9-6.9-14.2-14.2-1.6-8.8 2.2-18.3 8.7-23.9.1-.1.1-.2.0-.2-.1-.1-.2-.1-.2.0-6.6 5.7-10.5 15.3-8.9 24.2 1.4 7.4 7.8 11.9 14.4 14.4C41.8 61.8 43.1 62.2 44.5 62.6z"/><path class="st16" d="M37.6 24.8c.1.0.3.1.4.1.3.1.7.1 1 .1.1.0.2-.1.2-.2.0-.1-.1-.2-.2-.2-.3.0-.6.0-.9-.1-1.1-.2-2.2-.9-2.9-2-.8-1-1.2-2.4-1.2-3.6.1-2.7 1.7-5.3 4-6.6 1.8-1 6.7-1.7 9.7 1.6 3 3.2.8 7.3.7 7.5.0.1.0.2.1.2.1.1.2.1.2.0.0.0 2.4-4.5-.8-7.9-3.1-3.4-8.2-2.7-10.1-1.6-2.4 1.3-4 4.1-4.1 6.9.0 1.2.5 2.7 1.3 3.8C35.7 23.8 36.6 24.5 37.6 24.8z"/><path class="st16" d="M49.2 19.5c0-.1.0-.2.1-.2.4-.2.7-.2.9-.1.1.1.2.2.2.2.0.1.0.2-.1.2-.1.0-.2.0-.2-.1.0.0-.2.0-.6.1.0.0-.1.0-.1.0C49.3 19.6 49.2 19.5 49.2 19.5zM50 19.4c0 0 0 0 0 0 0 0 0 0 0 0z"/><path class="st16" d="M73.8 29c0 0 0 0 0 0 0 0 0 0 0 0-.1-.1-.1-.1-.2-.1-.7-.8-1.3-1.4-2-1.9.0.0-.1-.1-.1-.1.0-.1.0-.2.9-1.6.5-.7 1.1-1.4 1.9-1.6.6-.1 1.2.0 1.7.5.5.6.8 1.4.6 2.1-.1.6-.5 1.1-1.1 1.6-.5.4-1 .7-1.6 1C74 29 73.9 29 73.8 29c0 0 0 0 0 0zM73.8 28.8c0 0 0 0 0 0 0 0 0 0 0 0zm0 0c0 0 0 0 0 0 0 0 0 0 0 0zM74.5 24.1c-.7.2-1.3.8-1.7 1.4-.4.6-.7 1.1-.8 1.3.7.5 1.4 1.1 2 1.9.0.0.0.0.0.0.5-.3 1.1-.6 1.5-1 .5-.4.8-.9 1-1.4.2-.6-.1-1.3-.5-1.8-.2-.2-.4-.3-.7-.4C75 24 74.7 24 74.5 24.1z"/><path class="st16" d="M41.1 21.6c-.3-.8-.4-1.7-.2-2.3.3-1.1 1.5-1.8 2.7-1.7 1.1.1 2.1.9 2.5 2 0 0 .5 1.4.3 1.7.0.1-.1.1-.2.1.0.0.0.0.0.0-1.3.3-3.6 1.6-3.7 1.6.0.0-.1.0-.1.0.0.0-.1.0-.1.0C41.7 22.9 41.2 22 41.1 21.6zM46.1 21.2c0-.2-.2-1-.3-1.4-.4-1-1.3-1.7-2.2-1.8-1-.1-2 .5-2.3 1.5-.2.6-.1 1.4.2 2.1.2.4.6 1.2 1.1 1.2C42.8 22.5 44.8 21.4 46.1 21.2z"/><path class="st12" d="M44 42.1c0-.1.0-.2.0-.2.5-.4 3.2-1.6 6-1.3 2.7.3 5.4 2.2 5.5 2.3.1.0.1.1.0.2.0.1-.1.1-.2.1-5.6-2.6-11.2-1-11.2-1 0 0-.1.0-.1.0C44.1 42.2 44 42.2 44 42.1zM53.8 42.2c-1-.5-2.4-1.1-3.7-1.3-1.6-.2-3.1.1-4.2.5 1.7-.3 4.5-.2 7.5.6C53.5 42.1 53.6 42.2 53.8 42.2z"/><path class="st12" d="M65.5 43.9c0-.1.0-.1.0-.2.0.0 3-2.7 7-.3.1.0.1.1.0.2.0.1-.1.1-.2.1.0.0-3.7-1-6.7.2C65.7 44 65.7 44 65.5 43.9 65.6 44 65.6 43.9 65.5 43.9zm1-.5c1.9-.5 3.8-.3 5-.1C69.2 42.3 67.5 42.8 66.5 43.4z"/><path class="st16" d="M64.1 51.7c.4.1.8.2 1.3.3.9.1 1.6-.1 2.1-.6.8-.7.8-1.7.8-1.7.0-.1-.1-.1-.2-.1-.1.0-.2.1-.2.2.0.0-.1.9-.7 1.5-.4.4-1.1.6-1.9.5-2.3-.2-3.8-1.4-4.1-1.6.0-.6.1-2.1.1-2.2.0-.1-.1-.2-.1-.2-.1.0-.2.1-.2.2.0.1-.1 1.7.0 2.2.0.0.0.1.1.1C61.2 50.3 62.3 51.2 64.1 51.7z"/><path class="st16" d="M53.8 51.9c.1.0.2.0.3.1 2.8.6 5.5-.5 7.2-1.7.1-.1.1-.1.1-.2.0-.1-.1-.1-.2.0-1.7 1.2-4.3 2.3-7 1.7-2.5-.6-2.6-1.9-2.6-1.9.0-.1-.1-.2-.2-.2-.1.0-.2.1-.2.1C51.3 49.8 51.3 51.2 53.8 51.9z"
			/><path class="st16" d="M56.8 58.5c.6.2 1.3.2 2.2.2 2.1.0 3.8-.6 4.9-1.9 1.8-2.1 1.7-5 1.7-5.1.0-.1-.1-.1-.2-.1-.1.0-.2.1-.2.2.0.0.1 2.9-1.6 4.9-1.1 1.2-2.7 1.8-4.7 1.8-1.9.0-3.2-.4-3.9-1.3-1.4-1.7-.3-5.1-.3-5.1.0-.1.0-.2-.1-.2-.1.0-.2.0-.2.1.0.1-1.2 3.6.3 5.4C55.3 57.9 56 58.3 56.8 58.5z"/><path class="st16" d="M66.7 34.4c.2-.8 1.3-1.4 2.5-1.1 1.2.3 2.1 1.2 1.9 2.1-.2.8-1.4 1.3-2.7.9C67.2 35.9 66.4 35.2 66.7 34.4zM66.9 34.4c-.2.6.5 1.2 1.6 1.5 1 .3 2.1.0 2.3-.6.1-.6-.7-1.4-1.7-1.6C68 33.4 67.1 33.8 66.9 34.4z"/><path class="st16" d="M48.2 32.6c0-.4.3-.7.9-.9.5-.1 1.2-.2 1.9.0 1.6.3 2.7 1.1 2.7 1.8-.1.7-1.3 1-2.8.8-.5-.1-1-.2-1.4-.4C48.7 33.6 48.1 33.1 48.2 32.6zM51 32.1c-.7-.1-1.3-.1-1.8.0-.4.1-.7.3-.7.6v0c0 .6 1.1 1.2 2.3 1.4 1.3.2 2.4-.1 2.4-.6.0-.3-.4-.7-1-1C51.9 32.3 51.5 32.2 51 32.1z"/><path class="st12" d="M61.4 45.6c-1.1.0-1.7.2-1.9.3.0.2.3.9 1.6 1.9.0.0.1.0.2.0.0.0.0.0.0.0.0.0.0.0.0.0.4.0 1.1-.3 1.8-1.8C63 45.8 62.5 45.6 61.4 45.6z"/><path class="st12" d="M60.9 48c0 0 0 0 0 0-1.8-1.4-1.7-2.2-1.7-2.3.0.0.0-.1.1-.1.0.0.6-.3 2.2-.3 1.5.0 2 .5 2 .5.0.0.0.1.0.2C62.5 48.2 61.2 48.1 60.9 48c0 0 0 0 0 0zM61.4 45.6c-1.1.0-1.7.2-1.9.3.0.2.3.9 1.6 1.9.2.1 1.2.2 2.1-1.8C63 45.8 62.5 45.6 61.4 45.6z"/><path class="st17" d="M58.6 47.8c-1.8-.5-2.7-.7-4.6-1.2"/><path class="st17" d="M58.6 48.9c-1.9.3-2.8.4-4.7.6"/><path class="st17" d="M63.2 48.2c1.6-.4 2.4-.6 4.1-1"/><path class="st17" d="M63.1 49.3c1.3.0 2 .1 3.4.1"/><path class="st12" d="M46.8 40.8c0 0-1.4-.1-2.5-.9.0.0.3.8 1.2 1.3.9.5.3.3.3.3.2.1.4.2.6.3.3-.2.4-.2.7-.4C47 41.1 46.9 41 46.8 40.8z"/><path class="st12" d="M71 43.1c0 0 1.4-.3 1.7-.9.0.0.0.4-.6 1.1-.6.7.0.2.0.2C71.6 43.3 71.4 43.2 71 43.1z"/><path class="st16" d="M49.4 19.6c0 0 .7-.1 2.5.1.1-.1.2-.2.3-.3.0.0-1.6-.3-2.7-.2C49.5 19.3 49.5 19.4 49.4 19.6z"/></g><linearGradient id="SVGID_9_" gradientUnits="userSpaceOnUse" x1="3726.9202" y1="563.2883" x2="3827.4666" y2="630.3193" gradientTransform="matrix(-0.9963 8.480000e-002 8.480000e-002 0.9963 3752.9575 -869.9785)"><stop offset="115e-8" style="stop-color:#008be9"/><stop offset=".9994" style="stop-color:#002cbf"/></linearGradient><path class="st18" d="M14.1 36.6c0-.8.0-1.6.1-2.4.0-.4.0-.7.1-1.1.1-.8.2-1.7.3-2.5.0.0.0-.1.0-.1.2-1 .4-2 .6-3 .2-.9.5-1.8.8-2.7.7-2.1 1.6-4 2.7-5.9.4-.8.9-1.5 1.4-2.3.5-.7 1-1.5 1.5-2.2.1-.1.1-.2.2-.2.6-.8 1.2-1.6 1.9-2.3.1.0.1-.1.2-.2.6-.6 1.3-1.3 1.9-1.9.6-.6 1.2-1.1 1.9-1.7C28 8 28.2 7.8 28.3 7.7c1.5-1.2 3-2.2 4.7-3.1.9-.5 1.9-1 2.8-1.4.7-.3 1.4-.6 2.1-.8.2-.1.4-.2.5-.2.0.0.0.0.0.0 2.9-1 5.9-1.7 9.1-2C55.4-.5 62.9 1.3 69.1 5 69.2 5 62 4.7 54 7.3c-51.2 16.6-22.3 77 27.6 50.4l-.2-1.1c-.1.2-.3.4-.4.5-.3.5-.6.9-1 1.4-.4.4-.7.9-1 1.3-.4.4-.7.9-1.1 1.3-.4.4-.8.8-1.2 1.2-.4.4-.8.8-1.2 1.2-.4.4-.7.7-1.1 1-.5.4-1 .8-1.5 1.2-.4.3-.9.7-1.4 1-1 .7-1.9 1.3-3 1.8-.4.3-.9.5-1.4.7-.5.3-1 .5-1.5.7-.9.4-1.9.8-2.8 1.1-1.2.4-2.5.8-3.8 1.1-.6.2-1.1.3-1.7.4-1.2.2-2.4.4-3.6.5C33.7 74.8 16 59.9 14.3 39.8 14.2 38.7 14.1 37.6 14.1 36.6z"/><path class="st19" d="M79.6 32.5c2 8.8 1.1 16.9 2.8 16.5 1.8-.4 4.8-9.7 2.9-18.6-2-8.8-8.2-13.8-10-13.4C73.5 17.4 77.6 23.6 79.6 32.5z"/><ellipse transform="matrix(-0.6555 0.7552 -0.7552 -0.6555 124.7137 -36.5366)" class="st19" cx="70.7" cy="10.2" rx="2" ry="3.2"/><ellipse transform="matrix(0.7189 0.6951 -0.6951 0.7189 59.5345 -39.6716)" class="st19" cx="78.8" cy="53.8" rx="2" ry="4"/><linearGradient id="SVGID_10_" gradientUnits="userSpaceOnUse" x1="3889.1362" y1="10.732" x2="3906.9612" y2="10.732" gradientTransform="matrix(-0.9713 0.238 0.238 0.9713 3811.2454 -837.6004)"><stop offset="77e-8" style="stop-color:#3fe1ff"/><stop offset=".1885" style="stop-color:#42e1ff"/><stop offset=".3355" style="stop-color:#4ce3ff"/><stop offset=".4686" style="stop-color:#5de6ff"/><stop offset=".5934" style="stop-color:#74e9ff"/><stop offset=".7126" style="stop-color:#92eeff"/><stop offset=".8273" style="stop-color:#b7f4ff"/><stop offset=".9365" style="stop-color:#e2fbff"/><stop offset="1" style="stop-color:#fff"/></linearGradient><circle class="st20" cx="27.6" cy="100.6" r="8.9"/><linearGradient id="SVGID_11_" gradientUnits="userSpaceOnUse" x1="3777.7468" y1="636.886" x2="3802.5779" y2="636.886" gradientTransform="matrix(-0.9963 8.480000e-002 8.480000e-002 0.9963 3752.9575 -869.9785)"><stop offset="115e-8" style="stop-color:#008be9"/><stop offset=".9994" style="stop-color:#002cbf"/></linearGradient><path class="st21" d="M37.5 101.3c0 0 11.8-26.7-.1-31.2C25.5 65.6 19.1 95 19.1 95s4-.5 9.7 1.5C34.2 98.3 37.5 101.3 37.5 101.3z"/><linearGradient id="SVGID_12_" gradientUnits="userSpaceOnUse" x1="3649.8989" y1="1251.9227" x2="3668.8411" y2="1251.9227" gradientTransform="matrix(-0.9968 -8.010000e-002 -8.010000e-002 0.9968 3773.0112 -846.2592)"><stop offset="115e-8" style="stop-color:#008be9"/><stop offset=".9994" style="stop-color:#002cbf"/></linearGradient><path class="st22" d="M34.7 107.5c0 0-4.9-.2-9.3-2.5-5.8-3-7.3-5.7-7.3-5.7s-5.9 13.2.5 16.8C25.4 120.1 34.7 107.5 34.7 107.5z"/><linearGradient id="SVGID_13_" gradientUnits="userSpaceOnUse" x1="3030.1929" y1="-2186.1499" x2="3044.3848" y2="-2188.5151" gradientTransform="matrix(-0.6172 0.7868 0.7868 0.6172 3607.1016 -920.4282)"><stop offset="115e-8" style="stop-color:#008be9"/><stop offset=".9994" style="stop-color:#002cbf"/></linearGradient><path class="st23" d="M15.1 114.4c0 0-1.2 1.8-3.7 2.1-2.3.3-5-1.8-6-.5-1 1.3-2.3 5-.9 6.3 2.6 2.5 6.3 1.1 6.3 1.1s-2.5 1.4-1.8 3.1c.7 1.8 4.8.4 7.6-3.3 2.8-3.6 3.2-5.6 3.2-5.6L15.1 114.4z"/><path class="st24" d="M19.1 118.9c.6.5 1.6.4 2.1-.3v0c.5-.6.4-1.6-.3-2.1l-4.4-3.4c-.6-.5-1.6-.4-2.1.3v0c-.5.6-.4 1.6.3 2.1L19.1 118.9z"/><linearGradient id="SVGID_14_" gradientUnits="userSpaceOnUse" x1="3685.2681" y1="604.1957" x2="3700.6396" y2="618.0061" gradientTransform="matrix(-0.9963 8.480000e-002 8.480000e-002 0.9963 3752.9575 -869.9785)"><stop offset="115e-8" style="stop-color:#008be9"/><stop offset=".9994" style="stop-color:#002cbf"/></linearGradient><path class="st25" d="M118.5 51.2c0 0 2.2-.1 3.8-1.9 1.5-1.7 1.2-5.2 2.8-5.4 1.6-.2 5.4.7 5.8 2.6.7 3.5-2.4 6-2.4 6s2.5-1.4 3.6.1c1.2 1.5-2.2 4.2-6.8 4.7-4.6.5-6.5-.3-6.5-.3L118.5 51.2z"/><path class="st24" d="M120.8 57.3c.1.8-.5 1.5-1.3 1.6v0c-.8.1-1.5-.5-1.6-1.3l-.6-5.5c-.1-.8.5-1.5 1.3-1.6v0c.8-.1 1.5.5 1.6 1.3L120.8 57.3z"/><linearGradient id="SVGID_15_" gradientUnits="userSpaceOnUse" x1="3708.343" y1="648.5849" x2="3719.0698" y2="672.7657" gradientTransform="matrix(-0.9963 8.480000e-002 8.480000e-002 0.9963 3752.9575 -869.9785)"><stop offset="115e-8" style="stop-color:#008be9"/><stop offset=".9994" style="stop-color:#002cbf"/></linearGradient><path class="st26" d="M92 100.5c.5-5.6 7.4-11.5 19.2-7.3 11.7 4.3 9.2.2 13.4.5 4.2.3 2.4 3.1 1.8 9.9-.6 6.8-3.3 9.4-3.3 9.4S91 110.2 92 100.5z"/><linearGradient id="SVGID_16_" gradientUnits="userSpaceOnUse" x1="3592.6548" y1="1078.8535" x2="3597.1023" y2="1106.8721" gradientTransform="matrix(-0.9993 -3.520000e-002 -3.520000e-002 0.9993 3767.978 -858.7983)"><stop offset="115e-8" style="stop-color:#008be9"/><stop offset=".9994" style="stop-color:#002cbf"/></linearGradient><path class="st27" d="M145.8 103.3c-.2-8.8-14.3-9.1-14.3-9.1s2.2 3.2 2.4 9.6c.2 6.5-2.5 9.6-2.5 9.6S146 111.9 145.8 103.3z"/><linearGradient id="SVGID_17_" gradientUnits="userSpaceOnUse" x1="922.0529" y1="-3394.0022" x2="938.6689" y2="-3394.0022" gradientTransform="matrix(-2.200000e-003 1 1 2.200000e-003 3546.478 -823.6904)"><stop offset="115e-8" style="stop-color:#008be9"/><stop offset=".9994" style="stop-color:#002cbf"/></linearGradient><path class="st28" d="M145.6 100.4l1.6-.6c0 0 1-3.7 3.5-5.9 2.5-2.2 4.5-3 4.5-3v13c0 2-1.6 3.6-3.6 3.6h-4.1l-1.9-.7V100.4z"/><path class="st24" d="M146.1 108.2c.8.0 1.4-.6 1.4-1.4v-6.3c0-.8-.6-1.4-1.4-1.4v0c-.8.0-1.4.6-1.4 1.4v6.3C144.7 107.6 145.3 108.2 146.1 108.2v0z"/><linearGradient id="SVGID_18_" gradientUnits="userSpaceOnUse" x1="3835.6675" y1="67.5319" x2="3853.4063" y2="67.5319" gradientTransform="matrix(-0.9713 0.238 0.238 0.9713 3811.2454 -837.6004)"><stop offset="77e-8" style="stop-color:#3fe1ff"/><stop offset=".1885" style="stop-color:#42e1ff"/><stop offset=".3355" style="stop-color:#4ce3ff"/><stop offset=".4686" style="stop-color:#5de6ff"/><stop offset=".5934" style="stop-color:#74e9ff"/><stop offset=".7126" style="stop-color:#92eeff"/><stop offset=".8273" style="stop-color:#b7f4ff"/><stop offset=".9365" style="stop-color:#e2fbff"/><stop offset="1" style="stop-color:#fff"/></linearGradient><circle class="st29" cx="93.1" cy="143" r="8.9"/><linearGradient id="SVGID_19_" gradientUnits="userSpaceOnUse" x1="3732.2566" y1="678.2853" x2="3761.5396" y2="697.2455" gradientTransform="matrix(-0.9963 8.480000e-002 8.480000e-002 0.9963 3752.9575 -869.9785)"><stop offset="115e-8" style="stop-color:#008be9"/><stop offset=".9994" style="stop-color:#002cbf"/></linearGradient><path class="st30" d="M67.7 119.5c-6.7 7.5 17 28.5 17 28.5s3.9-.3 8.5-5.3c4.6-5 4.7-8.8 4.7-8.8S74.2 112.3 67.7 119.5z"/><linearGradient id="SVGID_20_" gradientUnits="userSpaceOnUse" x1="3714.5625" y1="698.3851" x2="3744.6428" y2="721.5825" gradientTransform="matrix(-0.9963 8.480000e-002 8.480000e-002 0.9963 3752.9575 -869.9785)"><stop offset="115e-8" style="stop-color:#008be9"/><stop offset=".9994" style="stop-color:#002cbf"/></linearGradient><path class="st31" d="M107.9 154.7c-5.5 6.9-16.8-1.5-16.8-1.5s3.7-1.2 7.8-6.2c4.1-5 3.9-9.2 3.9-9.2S113.3 148 107.9 154.7z"/><linearGradient id="SVGID_21_" gradientUnits="userSpaceOnUse" x1="1385.9014" y1="-2575.3708" x2="1408.4171" y2="-2560.9609" gradientTransform="matrix(-0.3379 -1.0891 0.9585 -0.5107 3048.4097 364.1027)"><stop offset="115e-8" style="stop-color:#008be9"/><stop offset=".9994" style="stop-color:#002cbf"/></linearGradient><path class="st32" d="M110.1 151.4l1.7.1c0 0 2.7-3.6 6-5 3.3-1.3 5.5-1.2 5.5-1.2l-6.3 14.5c-1 2.2-3.2 3.2-5 2.3l-3.7-1.9-1.3-1.7L110.1 151.4z"/><path class="st24" d="M111.1 150.9c.6.5.7 1.3.3 2l-3.8 5c-.5.6-1.3.7-2 .3v0c-.6-.5-.7-1.3-.3-2l3.8-5C109.6 150.6 110.5 150.4 111.1 150.9v0z"/><linearGradient id="SVGID_22_" gradientUnits="userSpaceOnUse" x1="3848.0417" y1="8.2258" x2="3876.6277" y2="8.2258" gradientTransform="matrix(-0.9713 0.238 0.238 0.9713 3811.2454 -837.6004)"><stop offset="77e-8" style="stop-color:#bf000a"/><stop offset=".2029" style="stop-color:#be000d"/><stop offset=".3612" style="stop-color:#b90017"/><stop offset=".5045" style="stop-color:#b20028"/><stop offset=".6389" style="stop-color:#a8003f"/><stop offset=".7671" style="stop-color:#9b005d"/><stop offset=".8888" style="stop-color:#8b0082"/><stop offset="1" style="stop-color:#7900aa"/></linearGradient><path class="st33" d="M66.6 73.1c5.9.0 9.7 10.7 8.7 17.5.0.1.0.3-.1.7-.9 5.6-3 9.5-4.8 11.9-2.3.1-6.1.1-10.5-1.5-2.2-.8-6-2.2-9.1-5.9-3-3.5-6.1-9.8-3.8-13.5.5-.7 1.2-1.4 2.3-1.8 3.7-1.6 10 .5 10.6.7.2.1.4.1.6.1 1.4-.4.3-4.8 2.4-6.9C64.3 72.9 66.4 73.1 66.6 73.1z"/><linearGradient id="SVGID_23_" gradientUnits="userSpaceOnUse" x1="3709.9954" y1="-825.6332" x2="3710.1755" y2="-840.0428" gradientTransform="matrix(-0.8797 0.4755 0.4755 0.8797 3686.4277 -906.9666)"><stop offset="0" style="stop-color:#31577c"/><stop offset=".9962" style="stop-color:#381b6b"/></linearGradient><path class="st34" d="M23.7 124c.9 1.6 2.5 2.4 3.7 1.8 1.2-.6 1.4-2.4.5-4.1-.9-1.6-2.5-2.4-3.7-1.8C23 120.6 22.8 122.4 23.7 124z"/><ellipse transform="matrix(-0.9515 0.3075 -0.3075 -0.9515 153.5338 154.615)" class="st24" cx="64.6" cy="89.4" rx="2.4" ry="3.3"/><g><path class="st35" d="M64.5 91.2c-16.4 8.2-5.1 34.5-7 48.6-1.3 9.4-10.9 17.7-20.3 17.5-18.5-.5-30-25.7-12.4-36.3 1.6-1 2.8 1.7 1.2 2.6-9.7 5.9-8.7 16.9-2.1 24.8 8.3 9.9 24 6 29.4-6.2 5.5-12.6-11.2-43 9.9-53.6C65 87.8 66.1 90.4 64.5 91.2v0z"/></g></g></svg>