<svg id="圖層_1" xmlns="http://www.w3.org/2000/svg" xmlns:xlink="http://www.w3.org/1999/xlink" viewBox="0 0 73 73" style="enable-background:new 0 0 73 73"><style>.st0{fill:#162f7d}</style><path id="XMLID_41_" class="st0" d="M0 36.5c0-8.9.0-17.8.0-26.7C0 4.3 4.3.0 9.8.0c17.8.0 35.5.0 53.3.0 5.3.0 9.6 4.1 9.8 9.4.1 3.9.0 7.7.0 11.6.0 13.9.0 27.8.0 41.7.0 5.3-3.2 9.2-8.2 10.1C64.2 73 63.5 73 62.9 73c-4.8.0-9.6.0-14.4.0-.8.0-1.1-.2-1.1-1 0-8.1.1-16.1.0-24.2.0-.7.2-.9.9-.9 2.6.0 5.1.0 7.7.0 1.3.0 1.8-.4 2-1.7.4-2.6.7-5.3 1-8 .1-1.2-.6-1.9-1.9-1.9-2.9.0-5.8.0-8.7.0-.8.0-1-.2-1-1 .1-2.2.0-4.3.0-6.5.0-3.3 1.2-4.6 4.5-4.9 1.6-.1 3.1-.1 4.7-.1 1.6.0 2.1-.5 2.1-2 0-2.2.0-4.3.0-6.5.0-1-.4-1.7-1.4-1.6-3.3.0-6.7-.3-10 .2-6.1 1-10.2 5.3-10.9 11.4-.4 3.3-.2 6.6-.2 9.9.0.9-.3 1.1-1.1 1.1-1.7-.1-3.4.0-5.1.0-1.6.0-2.1.5-2.1 2 0 2.6.0 5.2.1 7.8.0 1.1.6 1.7 1.7 1.7 1.9.0 3.9.0 5.8.0.6.0.8.2.8.8.0 8.2.0 16.4.0 24.5.0.6-.2.8-.8.8-8.5.0-17.1.1-25.6.0C4.1 72.9.0 68.6.0 63 0 54.1.0 45.3.0 36.5"/></svg>