<svg id="圖層_1_拷貝" xmlns="http://www.w3.org/2000/svg" xmlns:xlink="http://www.w3.org/1999/xlink" viewBox="-207 360 179.4 121.9" style="enable-background:new -207 360 179.4 121.9"><style>.st0{fill:#fff}</style><g><path class="st0" d="M-172.3 408.6l1.2-6.4 5.1-1 2.1-11.5-5.1 1 1.9-10.3h4.9l1.9-10.6h-4.9l1.8-9.9h-13l-1.8 9.9h-5.9l-1.9 10.6h5.9l-2.3 12.8-6 1.1-2.1 11.5 6.1-1.2c-3.9 15.6-9.9 33.2-22 51.1h15.1c11.7-19.9 14-30.4 15.1-33C-175 419.2-173 412.2-172.3 408.6z"/><path class="st0" d="M-146.5 377.6l-1.3 6.9h-13.6c.4 5.1 1.3 10 2.7 14.8 1.3 4.4 3 8.7 5.1 12.8-5.7 5.3-11.7 10.3-17.9 15h18.5c2-1.6 4-3.2 5.9-4.9 1.4 1.7 2.9 3.3 4.6 4.9h17.5c-4.8-4.3-9.1-9-12.7-14.2 4-4.4 7.7-9.1 11-14 3.1-4.6 5.8-9.4 8.1-14.3H-134l1.3-6.9h16l1.9-10.7h-16l1.3-7h-13.8l-1.2 6.9h-14l-1.9 10.7H-146.5zM-137.6 393.9c-1.9 2.9-4 5.7-6.4 8.2-1.2-2.6-2.2-5.3-3.1-8.2h9.5z"/><path class="st0" d="M-52 377.9c.4-5.9 1-11.9 1.7-17.9h-8.6c-.6 6-1.2 11.9-1.6 17.9h-3l1.8-5.2h-8.8c-.6 1.8-1.2 3.5-1.8 5.2H-74c-.1-1.7-.2-3.4-.3-5.2h-9c0 1.8.0 3.5.0 5.2h-2.9l-1.6 9H-61c-.5 7.7-.5 15.4-.2 22.9-2.5 4.1-5.1 8.2-7.8 12.2l5.9-32.5h-23.8l-6.5 35.7h22.2l-1.3 1.9h9.2c1.1-1.6 2.1-3.1 3.2-4.7.2 1.6.4 3.1.8 4.7h8.5c-.9-5.8-1.5-11.8-1.8-17.9 3.4-6.9 6.4-14 9.1-21.2h-7.2c-.7 1.8-1.4 3.6-2.1 5.3l.3-6.4h23.2l1.6-9H-52zM-76.8 415.4h-5.8l.6-3.5h5.8L-76.8 415.4zM-74.5 402.7h-5.8l.6-3.5h5.8L-74.5 402.7z"/><path class="st0" d="M-42.3 361.1h-6.8c0 4.7-.1 9.4-.3 14.1h7.1C-42.1 370.5-42.1 365.8-42.3 361.1z"/><path class="st0" d="M-115.8 413l-1.8.3-1.9 10.2v.2l15.1-2.6-1.1 5.8h8.8l1.3-7.4 1.9-.3 1.9-10.4-1.9.4 6.8-37.8h1.6l1.8-10h-24.8l-1.8 10h1.7L-115.8 413zM-99.2 371.4h3.9l-1.2 6.4h-3.9L-99.2 371.4zm-3 16.5h3.9l-1.1 6.2h-3.9L-102.2 387.9zM-105.1 404.1h3.9l-1.2 6.6-4 .7L-105.1 404.1z"/><path class="st0" d="M-84 371.5h22.9l1.5-8h-6.2c-.1-1.2-.2-2.3-.3-3.5h-11.6c0 1.2.1 2.3.1 3.5h-4.9l-1.5 8z"/><path class="st0" d="M-151.7 438.7l.8-4.3v-.2h-11.7c.4-1.3.9-2.5 1.3-3.9h-5.8c-.5 1.3-.9 2.6-1.4 3.9h-9.3l-.8 4.5h8.2c-1.6 3.5-3.5 6.8-5.6 10.1-1.9 2.8-3.9 5.5-6.2 8h7c1.9-2.3 3.7-4.7 5.2-7.2 1.9-3.1 3.6-6.2 5.1-9.5.3 2.9.7 5.8 1.4 8.6.3 1.5.7 3 1.2 4.5.4 1.2.8 2.4 1.2 3.6h4.2 2.1c-2.2-5.8-3.9-11.8-4.9-18.1H-151.7z"/><path class="st0" d="M-121.6 430.9h-15.5L-137.9 435.4h15.5z"/><path class="st0" d="M-142 451.4-144.1 451.6-142.9 444.8H-140.8L-140.1 440.7H-142.2l1-5.5H-139L-138.3 431.2H-148V431.1L-148.7 435.1H-146.3l-1 5.5H-149.5L-150.2 444.7H-148L-149.3 452-151.8 452.2-152.5 456.1-142.7 455.3z"/><path class="st0" d="M-123.2 443.3l.8-4.6h-16.5v.1l-.8 4.6h2.6c-.7 2.6-1.7 5.3-2.8 7.8-.5 1.1-1.1 2.3-1.7 3.4-.4.7-.9 1.4-1.4 2h5.5c.5-.7.9-1.3 1.2-2 .6-1.1 1.1-2.1 1.5-3.2 1-2.6 1.9-5.3 2.6-8h1.1l-2.4 13.2h8.1l.8-4.5h-3l1.6-8.8H-123.2z"/><path class="st0" d="M-118.1 464.9c-1.2-2.3 2.1-6.6 8.2-11.3l4.5-22.7h-10.4l-6.7 33.5c-.3 1.3-.7 2.6-1.3 3.8-.5 1.1-1.2 2-2.2 2.9-1 .8-2.2 1.5-3.4 1.9-1.2.3-5.9 1-7.1 1.2l-1.3 7.7c2.7.0 7.3-.3 9.9-.8 1.5-.3 2.9-.7 4.3-1.2 1.2-.5 2.4-1.1 3.5-1.8 2.1-1.4 3.8-3.1 5.1-5.1 1.3-2.1 2-4.2 2.5-6.5C-115.4 466.6-117.4 466.1-118.1 464.9z"/><path class="st0" d="M-43.8 431.7c-2-.5-4-.8-6.1-.9h-17.2v.1l-.8 3.9c3.1-.2 5.3.2 6 1.5 1.3 2.3-2.2 6.7-8.6 11.6l-4.7 23.5h18.9c2.1.0 4.2-.3 6.3-.9 1.8-.5 3.5-1.3 5.1-2.4 1.5-1.1 2.7-2.5 3.6-4 .7-1.3 1.2-2.6 1.5-4 .4-2.2.2-4.2-.7-6-.5-.9-1.3-1.8-2.2-2.4-1-.7-2.1-1.2-3.4-1.6v-.2c2-.5 3.7-1.5 5.3-3 1.7-1.7 2.7-3.6 3.2-5.7.5-2.9-.1-5.3-2-7.2C-40.8 432.9-42.2 432.1-43.8 431.7zM-50.1 458.6c-.3 1.4-1.1 2.6-2.4 3.6-1.2.8-2.5 1.2-3.8 1.1h-6.9l1.9-9.4h6.4c1.4.0 2.6.4 3.6 1.3S-49.9 457.2-50.1 458.6zM-48.5 443c-.3 1.2-.9 2.1-1.9 3-1.2.9-2.5 1.3-3.9 1.3h-5.6l1.6-8.3h5.7c1.3.0 2.4.4 3.3 1.2C-48.6 440.9-48.4 441.9-48.5 443z"/><path class="st0" d="M-72.8 449.2c0-.1.0-.2.0-.3.9-.6 1.7-1.2 2.5-1.8 4.4-3.4 7.1-6.5 7.3-9 0-.4-.1-.8-.3-1.2-.8-1.4-2.4-1.7-4.2-1.7-.1.0-.3.0-.5.0-2.3.1-5.3.7-8.7 1.8-.1-.1-.2-.2-.3-.3-3-3-7.2-4.6-11.5-4.6-3.9.0-7.9 1.2-11.4 3.8-5.3 3.9-7.9 10-7.3 15.7.0.2.0.4.1.6-1 .7-2 1.4-2.9 2.1-4.2 3.3-6.8 6.3-7 8.7.0.4.1.8.3 1.2.8 1.4 2.4 1.7 4.2 1.7.1.0.1.0.2.0 3-.1 7.5-1.1 12.6-3 .1.0.1.1.2.1.1.1.3.1.4.2 5.7 2.9 13.2 2.3 19-2 4-3 6.5-7.2 7.2-11.5C-72.9 449.5-72.9 449.4-72.8 449.2zM-68.4 437.2c.3.0.6.0.9.0 1.6.0 2.3.5 2.4.7.1.1.1.2.1.3.2 1.1-1.6 3.2-4.7 5.9-.9.8-1.9 1.5-3 2.4-.1-2.8-1-5.4-2.6-7.8C-72.6 437.8-70.2 437.3-68.4 437.2zM-111.9 463.9c-.2.0-.4.0-.6.0-1.6.0-2.3-.5-2.4-.7-.1-.1-.1-.2-.1-.3-.2-1 1.5-3.1 4.4-5.6 1.1-1 2.4-2 3.9-3.1.5 1.7 1.3 3.4 2.5 4.9.7.9 1.5 1.7 2.4 2.4C-106 462.9-109.5 463.8-111.9 463.9z"/><path class="st0" d="M-35.5 406.7c0 4.6-2.5 8.4-5.7 8.4 3.1.0 5.7 3.8 5.7 8.4.0-4.6 2.5-8.4 5.7-8.4C-32.9 415.1-35.5 411.3-35.5 406.7z"/><path class="st0" d="M-144 461.8c0 3.7-2 6.7-4.5 6.7 2.5.0 4.5 3 4.5 6.7.0-3.7 2-6.7 4.5-6.7C-142 468.5-144 465.5-144 461.8z"/></g></svg>