<svg id="圖層_1" xmlns="http://www.w3.org/2000/svg" xmlns:xlink="http://www.w3.org/1999/xlink" viewBox="0 0 131.2 63.8" style="enable-background:new 0 0 131.2 63.8"><style>.st0{fill:#0ff}</style><g><path class="st0" d="M23.3 5H45.8 46V4.8 2.7 2.5H45.8 22.8 22.4 22.3L22.2 2.6 22 2.9.3 30.1H3.4L23.3 5z"/><path class="st0" d="M42.1 5h20.3c-.9-1.9-1.5-3.1-2.4-4.9H45.7L42.1 5V5z"/><path class="st0" d="M23 59H45.4 45.7V59.2 61.3 61.5H45.4 22.5 22.1 22L21.9 61.4 21.6 61.1.0 33.9H3.1L23 59z"/><path class="st0" d="M41.8 59h20.3c-.9 1.9-1.5 3.1-2.4 4.9h-14.3L41.8 59v0z"/><path class="st0" d="M107.8 4.9H85.4 85.2V4.7 2.6 2.4H85.4 108.3h.5H108.9V2.5L109.2 2.8 130.8 30H127.8l-20-25.1z"/><path class="st0" d="M89 4.9H68.7c.9-1.9 1.5-3.1 2.4-4.9h14.3L89 4.9v0z"/><path class="st0" d="M108.1 58.9H85.7 85.5V59.1 61.2 61.4H85.7h23H109.1 109.2V61.3L109.5 61 131.2 33.8H128.1l-20 25.1z"/><path class="st0" d="M89.3 58.9H69c.9 1.9 1.5 3.1 2.4 4.9h14.3L89.3 58.9v0z"/></g></svg>