<svg id="圖層_1" xmlns="http://www.w3.org/2000/svg" xmlns:xlink="http://www.w3.org/1999/xlink" viewBox="0 0 275.5 231.1" style="enable-background:new 0 0 275.5 231.1"><style>.st0{fill:#5d6d91}.st1{fill:#b6b6be}.st2{fill:#e7251f}.st3{opacity:.3}.st4{clip-path:url(#XMLID_265_);fill:#152040}.st5{fill:#fff}.st6{fill:#8d8ca5}.st7{fill:#e5e5e4}.st8{clip-path:url(#XMLID_266_);fill:#152040}.st9{fill:#738fae}.st10{clip-path:url(#XMLID_267_);fill:#152040}.st11{fill:#e0d1bf}.st12{clip-path:url(#XMLID_268_);fill:url(#XMLID_269_)}.st13{clip-path:url(#XMLID_270_);fill:url(#XMLID_271_)}.st14{fill:#5b6f93}.st15{fill:#99b4c3}.st16{fill:#b8cacb}.st17{opacity:.37}.st18{clip-path:url(#XMLID_272_);fill:#aadadc}.st19{clip-path:url(#XMLID_273_);fill:url(#XMLID_274_)}.st20{clip-path:url(#XMLID_275_);fill:url(#XMLID_276_)}.st21{fill:#d3684f}.st22{clip-path:url(#XMLID_277_);fill:url(#XMLID_278_)}.st23{fill:#eedea3}.st24{fill:none;stroke:#d9b47c;stroke-width:.454;stroke-miterlimit:10}.st25{fill:#231815}.st26{fill:#3e210e}.st27{fill:#c28b30}.st28{fill:none;stroke:#a87127;stroke-width:.259;stroke-miterlimit:10}.st29{clip-path:url(#XMLID_279_);fill:#e3a290}.st30{clip-path:url(#XMLID_280_);fill:#e3a290}.st31{fill:#ad5e22}.st32{fill:none;stroke:#ad5e22;stroke-width:.3;stroke-linecap:round;stroke-miterlimit:10}.st33{fill:#434e82}.st34{fill:#7a7b8d}.st35{fill:#f7dfd2}.st36{fill:#b0b7bb}.st37{opacity:.54}.st38{clip-path:url(#XMLID_281_);fill:#fff}.st39{opacity:.58}.st40{clip-path:url(#XMLID_282_);fill:#fffcf3}.st41{clip-path:url(#XMLID_283_);fill:#152040}.st42{fill:#ed7055}.st43{fill:#e3e2e2}.st44{opacity:.38}.st45{clip-path:url(#XMLID_284_)}.st46{clip-path:url(#XMLID_285_);fill:url(#XMLID_286_)}.st47{clip-path:url(#XMLID_287_);fill:url(#XMLID_288_)}.st48{clip-path:url(#XMLID_289_);fill:url(#XMLID_290_)}.st49{clip-path:url(#XMLID_291_);fill:url(#XMLID_292_)}.st50{clip-path:url(#XMLID_293_);fill:url(#XMLID_294_)}.st51{opacity:.39}.st52{clip-path:url(#XMLID_295_)}.st53{clip-path:url(#XMLID_296_);fill:url(#XMLID_297_)}.st54{clip-path:url(#XMLID_298_);fill:url(#XMLID_299_)}.st55{clip-path:url(#XMLID_300_);fill:url(#XMLID_301_)}.st56{opacity:.77}.st57{clip-path:url(#XMLID_302_)}.st58{clip-path:url(#XMLID_303_);fill:url(#XMLID_304_)}</style><path id="XMLID_263_" class="st0" d="M172.5 110.2c2.8-5.8 12.9-26.3 20.4-24.4 5.2 1.3 12.1 10.9 13.8 15.6 2.2 5.9 2 12.5 1.7 18.7-5.9 1.4-13.4 3.5-18.7 6C187.8 118.3 178.7 113.7 172.5 110.2"/><path id="XMLID_262_" class="st1" d="M90.1 149.3 94.8 173.7 108 177 84.5 182.6 64.8 150.2z"/><path id="XMLID_261_" class="st2" d="M78.6 171c4.9-1.5 10-2.5 15-3.8l1.3 6.5L108 177l-23.5 5.6-6.9-11.3C78 171.2 78.3 171.1 78.6 171"/><g id="XMLID_257_" class="st3"><g id="XMLID_258_"><defs><path id="XMLID_259_" d="M64.8 149.3h26.4v33.3H64.8z"/></defs><clipPath id="XMLID_265_"><use xlink:href="#XMLID_259_" style="overflow:visible"/></clipPath><path id="XMLID_260_" class="st4" d="M90.1 149.3l1.1 5.6c-2.1 1-4 2.4-5.8 4.1-4 3.8-4.6 10.2-1.9 14.9 1.6 2.7 3.3 5.3 5.1 7.8l-4.1 1-19.7-32.4L90.1 149.3z"/></g></g><path id="XMLID_256_" class="st5" d="M146.5 128.4c.2-.6.8-1 1.4-.8 2.1.8 3 3.1 4.4 4.7 1.5 1.8 3.4 3.4 5.6 4.1 3.7 1.2 9.4.0 11.6-3.4 2-3 1.4-7.1.6-10.4-.5-2.1-1.3-4.1-2-6.1-.6-1.8-1-3.7-1.7-5.5-.3-.9.8-1.3 1.4-.8 4.1 3.2 6.3 7.4 7.4 12.5 1 4.7.8 10.1-2.3 14-3.6 4.5-10.4 5.7-15.8 4.5-2.9-.7-5.4-2.6-7.3-4.9C148.3 134.4 145.7 131.1 146.5 128.4"/><path id="XMLID_255_" class="st6" d="M90.6 105.1c4.8-1 9.6-2.3 14-4.4 5-2.4 8.8-6.4 13.7-9.1 7.4-4.1 12.2-3.3 20.5-.9 9.9 2.9 32.6 12 25 26.3-7.9 14.8-27.9 22.6-42.8 27.6-18.4 6.1-34.7 11.5-53.7 10 0 0 .1.1.1.1.0-3.8-4.6-44.1-3.9-44.3 8.2-2.2 16.9-3.2 25.3-4.9C89.4 105.4 90 105.3 90.6 105.1"/><path id="XMLID_254_" class="st7" d="M26.6 85.3l16 25L53.8 110.7 67.3 154.6 36.6 146 20.7 107.2.0 110.3z"/><path id="XMLID_253_" class="st2" d="M25.7 108.8c-1 1.1-2 2.3-3 3.3l-2-4.9L0 110.3l26.6-25 8.2 12.9C31.7 101.6 28.7 105.2 25.7 108.8"/><g id="XMLID_249_" class="st3"><g id="XMLID_250_"><defs><path id="XMLID_251_" d="M0 91.6h67.3v63H0z"/></defs><clipPath id="XMLID_266_"><use xlink:href="#XMLID_251_" style="overflow:visible"/></clipPath><path id="XMLID_252_" class="st8" d="M19.9 91.6c1.5 4.3 3.4 8.6 5.2 12.8 1.7 3.9 3.6 7.6 6 11.1 3.8 5.7 7.9 11.4 12.8 16.1 3.4 3.3 7.4 6.2 11.2 9 1.3 1 2.7 1.9 4.2 2.5 1.7.8 3.3 1.5 5 2.2l2.8 9.2L36.6 146l-16-38.8L0 110.3 19.9 91.6z"/></g></g><path id="XMLID_248_" class="st9" d="M52.6 110.3c1.2.0 11.6-.8 11.7-.4 1.2 6.8 1.5 10.1 3.6 17.5.6 2 10.5 27.1 10.2 27.3-1.9 1-5.6.5-7.7.5-2.1.0-4.4-.4-6.4-1.1-4.2-1.5-6.5-5-8-9-3-7.7-4.3-16.7-4.3-24.9C51.6 116.7 52 113.5 52.6 110.3"/><g id="XMLID_244_" class="st3"><g id="XMLID_245_"><defs><path id="XMLID_246_" d="M55 106.6h110.4v48.7H55z"/></defs><clipPath id="XMLID_267_"><use xlink:href="#XMLID_246_" style="overflow:visible"/></clipPath><path id="XMLID_247_" class="st10" d="M79.1 143.2c4.8-.3 9.6-1.1 14.2-1.9 6.7-1.2 13.2-3.4 19.6-6 8.2-3.1 16.2-7 24-10.8 9.7-4.8 19.1-10.7 27.4-17.8 1.5 3.1 1.7 6.5-.4 10.4-7.9 14.8-27.9 22.6-42.8 27.6-14.9 4.9-28.3 9.4-42.9 10.1.0.0.0.0.0.0-1.9 1-5.6.5-7.7.5-2.1.0-4.4-.4-6.4-1.1-4.2-1.5-6.5-5-8-9-.4-.9-.7-1.9-1-2.9C62.8 144.1 71 144 79.1 143.2"/></g></g><path id="XMLID_243_" class="st0" d="M66.7 86.8c8.2-7.2 21.5-7.3 31.3-10.6 4.5 7.4 5.5 19.4 8.1 27.5-5.4 1.4-48.8 10-48.8 10C54.4 105.8 60.6 92.1 66.7 86.8"/><path id="XMLID_242_" class="st5" d="M84.8 97.6c3.8-3.9 8.9-6.8 14.3-8.1 5.6-1.4 11.3-1.1 16.9.1.7.1.4 1.1-.2 1.1-10.4 1.2-21.3 3.9-28.4 12.2-6.1 7.1-8.4 17-7.8 26.2.6 8.5 4.3 16.8 11 22.2 3.4 2.8 7.8 4.3 12.1 5.1 2.9.5 6.1-.6 8.9-1.4 5.3-1.6 10.5-4 15.1-7.3 3.4-2.4 3.6-3.4 2.9-7.3-.5-2.6-1.3-4.6 2.1-5.3 2.9-.6 5.4-1.1 6 2.2 1.2 6.8-5.5 12.9-10.5 16.2-6.4 4.3-14.5 7.7-22.3 8.4-4.1.4-8.6-1.2-12.2-2.9-4-1.8-7.5-4.7-10.2-8.1-5.8-7-8.4-16.1-8.4-25.1C74 115.6 77.7 105 84.8 97.6"/><path id="XMLID_241_" class="st1" d="M114.5 114.7c9.9 3.6 9.9 15 13.5 23.3 7 16.1 22.6 22.7 39.2 21.9.2-1.5 2.2-9.1 4.3-9.1 3.7-.1 2.2 7.8 2.5 9.9 6.1-.1 12-4.5 12 5.2.0 4.4-2.2 7.8-5.6 10.3-13.5 10.3-35.1 3.5-49.7-1.1-21.9-6.9-37.6-21.3-37-45.3C93.8 120.4 105 111.2 114.5 114.7"/><path id="XMLID_240_" class="st11" d="M149.3 168.4c-8.4.2-12.8-13.3-1.2-8.7C152.8 161.5 157.5 168.2 149.3 168.4"/><path id="XMLID_239_" class="st2" d="M126.3 171c-.6.6-1.3 1.2-2 1.8-6.7-2.8-12.7-6.3-17.6-10.8.1-.1.3-.2.4-.3 5.6-4.6 11.2-9.2 16.8-13.8 2-1.6 4-3.1 6.1-4.7.2-.1.4-.1.6-.2 2.3 3.6 5 6.5 8.1 8.9C134.7 158.3 130.6 164.6 126.3 171"/><path id="XMLID_238_" class="st5" d="M143.3 127.3c-30.8-1.1-51.9-27.4-54.2-56.8-.7-8.6-.2-17.8 3.1-25.8 5.2-12.8 16-24.2 28.5-30.1 14.4-6.8 31.4-8.6 46.4-2.4 21.9 9.1 37.8 31.4 39 55.3C207.7 103.3 177.8 128.5 143.3 127.3"/><g id="XMLID_235_"><defs><path id="XMLID_236_" d="M138.3 25.5c-12.5 5.9-23.3 17.4-28.5 30.1-4.4 10.7-7.3 28.7-3.4 39.9 4.2 11.9 13.6 22.5 24.7 28.4 16.2 8.7 31.7 7 47.7-1.4 10.3-5.4 18.1-13.8 22.9-24.4 2.1-4.6 3.5-9.4 4.4-14.3 5.4-31.6-17.9-63-47.9-63C151.8 20.9 145.1 22.3 138.3 25.5"/></defs><clipPath id="XMLID_268_"><use xlink:href="#XMLID_236_" style="overflow:visible"/></clipPath><linearGradient id="XMLID_269_" gradientUnits="userSpaceOnUse" x1="-783.1813" y1="2895.5085" x2="-782.1813" y2="2895.5085" gradientTransform="matrix(9.8599 -101.4152 101.4152 9.8599 -285774 -107851.7422)"><stop offset="0" style="stop-color:#3d90cd"/><stop offset="1" style="stop-color:#192549"/></linearGradient><path id="XMLID_237_" class="st12" d="M210.5 143.1 222.3 21.9 103.5 10.4 91.7 131.6z"/></g><g id="XMLID_230_"><defs><path id="XMLID_231_" d="M136.4 116.7c-2.6-1-5.2-2.2-7.6-3.7-4.4-2.6-8.6-5.8-11.5-9.9-1-1.4-7.9-16.9-6.9-17.1 8.4-1.9 16-6.6 16.9-16.4.8-8.5-.1-18.8-8.9-19.5 4.1-7.7 11.6-14.4 19.8-17.3 9.3-3.3 17.5.5 26.3 3.6 7 2.5 14.6.5 21.6 2.7 7.3 2.2 10.9 9.6 13.1 16.4 6.9 20.7-5.8 50.1-25.4 59.7-6.4 3.1-13.5 4.7-20.5 4.7C147.5 119.7 141.8 118.7 136.4 116.7M138.3 21.8c-12.5 5.9-23.3 17.3-28.5 30.1-4.4 10.7-7.3 28.7-3.4 39.9 4.2 11.9 13.6 22.5 24.7 28.4 16.2 8.7 31.7 7 47.7-1.4 10.3-5.4 18.1-13.8 22.9-24.4 2.1-4.6 3.5-9.4 4.4-14.3 5.4-31.6-17.9-63-47.9-63C151.8 17.1 145.1 18.6 138.3 21.8"/></defs><clipPath id="XMLID_270_"><use xlink:href="#XMLID_231_" style="overflow:visible"/></clipPath><linearGradient id="XMLID_271_" gradientUnits="userSpaceOnUse" x1="-784.8167" y1="2894.4307" x2="-783.8167" y2="2894.4307" gradientTransform="matrix(11.2683 -126.7688 126.7688 11.2683 -357927.2188 -131983.0938)"><stop offset="0" style="stop-color:#31648e"/><stop offset="1" style="stop-color:#192549"/></linearGradient><path id="XMLID_234_" class="st13" d="M210.7 138.5 221.4 18 103.3 7.5 92.6 128z"/></g><g id="XMLID_217_"><path id="XMLID_229_" class="st11" d="M121.2 67.4c-.6 5.9-3.9 10.4-9.7 11.9-12.5 3.4-18.2-11.5-13-21.2C105.3 45.7 122.4 55.2 121.2 67.4"/><path id="XMLID_228_" class="st14" d="M49.6 144.9c-1.1-4.9-5.9-10.8-8.4-12.8-4.5-3.5-10.6-4.8-14.5.2.0.0.0.0.0.0.0 6.9 3.1 12.9 9.2 16.3 2.5 1.4 5.4 2.5 8.2 2.9C48 152 50.5 148.8 49.6 144.9"/><path id="XMLID_227_" class="st15" d="M46.6 147.1c0-.2-.1-.3-.1-.3-.5-1.7-1.4-3.2-2.4-4.6-2.1-2.9-4.8-5.2-7.7-7.2-1.5-1-3-1.8-4.5-2.6-1.4-.7-3.1-1.6-4.7-1.3.0.0.0.0.0.0-.8 2.3-.4 5.7.4 8 .8 2.4 2.1 4.7 3.9 6.4 1.1 1 2.3 2 3.5 2.8 2.6 1.6 5.4 2.7 8.3 3.5 1.1.3 2.5.8 3.7.4C47.6 151.8 46.9 148.3 46.6 147.1"/><path id="XMLID_226_" class="st16" d="M40.1 144.7c0-.1.0-.1.0-.2-.2-.8-.7-1.5-1.2-2.2-1-1.4-2.3-2.5-3.7-3.4-.7-.5-1.4-.9-2.2-1.3-.7-.4-1.5-.8-2.2-.6.0.0.0.0.0.0-.4 1.1-.2 2.7.2 3.8.4 1.1 1 2.2 1.8 3.1.5.5 1.1.9 1.7 1.3 1.2.8 2.6 1.3 4 1.6.5.1 1.2.4 1.7.2C40.6 147 40.2 145.3 40.1 144.7"/><path id="XMLID_225_" class="st14" d="M35.4 137c-1 .6-4.7-1.2-3.5-2.3C33.1 133.6 36.6 136.4 35.4 137"/><path id="XMLID_224_" class="st14" d="M41.9 143.3c-1.2.1-3.9-3-2.3-3.5C41 139.3 43.2 143.2 41.9 143.3"/><path id="XMLID_223_" class="st14" d="M43.7 149.5c-.7-.5-2.6-2.5-.9-3 1-.3 2.6 1.9 2.4 2.8C45.1 150.3 44.3 150 43.7 149.5"
		/><path id="XMLID_222_" class="st14" d="M29.8 136.3c-.9.5-2.6-1.2-1.5-1.8C29.2 133.9 30.7 135.7 29.8 136.3"/><g id="XMLID_218_" class="st17"><g id="XMLID_219_"><defs><path id="XMLID_220_" d="M143.6 41.3h38.3V78H143.6z"/></defs><clipPath id="XMLID_272_"><use xlink:href="#XMLID_220_" style="overflow:visible"/></clipPath><path id="XMLID_221_" class="st18" d="M180.5 68.4c-12.9 30.5-56.9-20.3-26.4-26.6C168.2 38.8 187.2 52.4 180.5 68.4"/></g></g></g><g id="XMLID_214_"><defs><path id="XMLID_215_" d="M130.2 34.9c-4 2-7.4 6.3-8.2 11-.3 2 .3 4.5 1.7 6.3 1.4 1.8 3.4 2.9 5.5 3.3.5.1 1.1.2 1.6.2.2.0.3.1.3.3.0.1-.1.3-.3.3-.6.0-1.2-.1-1.7-.2-.3.0-.5-.1-.8-.2-1.9-.5-3.7-1.6-5-3.2-11.7 8.2-16.7 23.4-14.3 37 2 11.3 11.5 21.4 22.1 24.5 9.3 2.7 19.7 4.6 29.7 4.3 14.5-.6 28.4-6.6 33.3-21.6 3.6-10.9 2-23.8-4.4-32.9-.1-.1-.1-.2.0-.3.0-.1.1-.1.2-.2.0.0 4-.1 6.9-3.9 2.9-3.7 3-10.6-1.1-14.4-3.7-3.4-9.7-5.6-15.3-1.4.0.0-2.5 1.5-3.4 4.8.0.1-.1.1-.1.2-.1.0-.1.0-.2.0-.9-.4-1.4-.5-2.4-.9.0.1.0.2.1.3 1.8 9.9-4.7 14.1-4.8 14.1-.1.0-.1.1-.2.0.0.0-.1.0-.1-.1-.1-.1-.1-.2.0-.3.0.0 1.5-2.6.7-4.9-.3.7-.6 1.4-1.1 2.1-1.9 3-5.2 5-9.6 5.9.0.0-.1.0-.1.0.0.0-.1.0-.1-.1-.1-.1-.1-.1-.1-.2.0-.1.8-6.5-2.8-10.7.2 1.6.6 5.1 1.2 6.3.0.1.0.2-.1.3-.1.1-.2.1-.3.0-.1-.1-11.3-6.3-8.8-15.7-.1.0-.3.1-.7.3-.5 2.2-1.4 3.8-1.5 3.8-.1.1-.2.2-.4.1-.1-.1-.1-.2-.1-.4.1-.1 1-1.6 1.4-3.8.0.0.0.0.0-.1.6-2.5.5-5.9-1.8-8.6-2.2-2.5-5.1-3.3-7.8-3.3C134.6 33.3 131.9 34.1 130.2 34.9"/></defs><clipPath id="XMLID_273_"><use xlink:href="#XMLID_215_" style="overflow:visible"/></clipPath><linearGradient id="XMLID_274_" gradientUnits="userSpaceOnUse" x1="-795.9637" y1="2900.1763" x2="-794.9637" y2="2900.1763" gradientTransform="matrix(-84.37 -24.255 24.255 -84.37 -137302.4688 225470.3125)"><stop offset="0" style="stop-color:#e7d37e"/><stop offset=".208" style="stop-color:#e7d17b"/><stop offset=".3919" style="stop-color:#e6ce70"/><stop offset=".5667" style="stop-color:#e4c85e"/><stop offset=".7351" style="stop-color:#e1bf44"/><stop offset=".7526" style="stop-color:#e0be41"/><stop offset="1" style="stop-color:#dca921"/></linearGradient><path id="XMLID_216_" class="st19" d="M222.6 39.8 113.8 8.5 84 112.2 192.8 143.5z"/></g><g id="XMLID_211_"><defs><path id="XMLID_212_" d="M110.4 94.2c3 8.7 12.3 17.6 20.9 19.9 9.5 2.6 19.7 4.6 29.7 4.3 14.5-.6 29.1-5.9 33.3-21.6.1-.3.2-.7.2-1-2.9-1.6-13.1-7.1-27.5-8.2-4.3-.3-8.6-.5-13-.5C139.2 87.1 124.2 89.1 110.4 94.2"/></defs><clipPath id="XMLID_275_"><use xlink:href="#XMLID_212_" style="overflow:visible"/></clipPath><linearGradient id="XMLID_276_" gradientUnits="userSpaceOnUse" x1="-796.343" y1="2900.9788" x2="-795.343" y2="2900.9788" gradientTransform="matrix(-78.1537 -22.4679 22.4679 -78.1537 -127226.5078 208943.5625)"><stop offset="0" style="stop-color:#fbe9d0"/><stop offset=".5962" style="stop-color:#f7e6be"/><stop offset="1" style="stop-color:#f3e4af"/></linearGradient><path id="XMLID_213_" class="st20" d="M202.9 89.5 116.8 64.7 101.9 116.3 188.1 141.1z"/></g><g id="XMLID_209_"><path id="XMLID_210_" class="st21" d="M154.1 96.4c-.3.9-1.6 5.8 1.1 8.8 1.5 1.7 4.1 2.5 7.6 2.4 3.9-.1 6.8-1.2 8.7-3.1 2.6-2.8 2.5-6.7 2.5-7.7-.7-.1-1.4-.2-2.1-.4-2.8-.8-4.8-2.1-5.4-2.5C163.5 95.7 158.7 97.2 154.1 96.4"/></g><g id="XMLID_206_"><defs><path id="XMLID_207_" d="M157.5 37.3c-2.4.4-4.6 2-6.3 4.7.1.0.3.0.4.0.1.0.2.1.2.3.0.2-.1.3-.3.3-2.4-.2-2.7 1.9-2.7 2-2.6 8 5.4 13.8 7.7 15.3-.6-2-1-6.3-1-6.5.0-.1.0-.2.1-.3.1-.1.2.0.3.0 3.9 3.8 3.7 9.8 3.5 11.3 4.1-.9 7.1-2.8 8.9-5.6 2.9-4.5 1.7-10 1.7-10 0-.1.1-.3.2-.3.1.0.3.0.3.2.0.2.8 3.8-.5 7.7.1.0.1.1.1.1.8 1.7.3 3.5-.1 4.6 1.6-1.5 5.1-5.6 3.7-12.9-1.7-9.4-7.7-8.8-8-8.7-.1.0-.1.0-.2.0.0.0-3.1-2.4-6.8-2.4C158.5 37.1 158 37.2 157.5 37.3"/></defs><clipPath id="XMLID_277_"><use xlink:href="#XMLID_207_" style="overflow:visible"/></clipPath><linearGradient id="XMLID_278_" gradientUnits="userSpaceOnUse" x1="-806.74" y1="2923.5557" x2="-805.74" y2="2923.5557" gradientTransform="matrix(-25.8829 -7.4409 7.4409 -25.8829 -42460.7031 69721.9141)"><stop offset="0" style="stop-color:#c09e5e"/><stop offset=".2474" style="stop-color:#bd9437"/><stop offset=".4985" style="stop-color:#b58e32"/><stop offset=".9217" style="stop-color:#9e7d28"/><stop offset="1" style="stop-color:#997a27"/></linearGradient><path id="XMLID_208_" class="st22" d="M182.6 39.2 148.5 29.4 139 62.5 173.1 72.3z"/></g><g id="XMLID_115_"><path id="XMLID_205_" class="st23" d="M191.2 53.5c-.3-.3-.7-.6-1.1-.7-.4-.1-.8-.1-1.2.0-1.2.3-2.1 1.3-2.9 2.3-.7.9-1.2 1.8-1.4 2.1 1.2.8 2.2 1.8 3.3 3.2.0.0.0.0.0.0.9-.5 1.8-1 2.6-1.6.8-.7 1.4-1.5 1.6-2.3C192.3 55.5 191.9 54.2 191.2 53.5"/><path id="XMLID_204_" class="st24" d="M191.2 53.5c-.3-.3-.7-.6-1.1-.7-.4-.1-.8-.1-1.2.0-1.2.3-2.1 1.3-2.9 2.3-.7.9-1.2 1.8-1.4 2.1 1.2.8 2.2 1.8 3.3 3.2.0.0.0.0.0.0.9-.5 1.8-1 2.6-1.6.8-.7 1.4-1.5 1.6-2.3C192.3 55.5 191.9 54.2 191.2 53.5z"/><path id="XMLID_203_" class="st23" d="M141.8 46.9c-.5-1.6-1.8-2.8-3.3-2.8-1.6.0-3.3 1.2-3.9 2.8-.4 1-.3 2.4.1 3.6.2.7 1 1.9 1.6 2 .6-.3 3.9-2.4 5.9-3.2C142.3 48.9 142 47.5 141.8 46.9"/><path id="XMLID_202_" class="st24" d="M141.8 46.9c-.5-1.6-1.8-2.8-3.3-2.8-1.6.0-3.3 1.2-3.9 2.8-.4 1-.3 2.4.1 3.6.2.7 1 1.9 1.6 2 .6-.3 3.9-2.4 5.9-3.2C142.3 48.9 142 47.5 141.8 46.9z"/><path id="XMLID_201_" class="st25" d="M156.8 81.2c-8.9-4.7-18 0-18.1.1-.1.0-.1.0-.2.0-.1.0-.1-.1-.1-.1-.1-.1.0-.3.1-.4 1-.7 5.6-3.5 10-3.6 4.2-.1 8.4 3.4 8.6 3.5.1.1.1.2.0.4C157.1 81.2 157 81.3 156.8 81.2"/><path id="XMLID_200_" class="st26" d="M148.5 77.7c-2.5.1-4.9 1-6.8 1.9 2.8-.8 7.2-1.8 11.8-.4.3.1.5.2.8.3C152.7 78.6 150.6 77.7 148.5 77.7"/><path id="XMLID_199_" class="st25" d="M185 83.8c-.1.0-5.8-2.7-10.8-.6-.1.0-.1.0-.2.0-.1.0-.1-.1-.1-.1-.1-.1-.1-.3.0-.3.1-.1 5.3-5 11.4.6.1.1.1.2.0.3S185.1 83.8 185 83.8"/><path id="XMLID_198_" class="st26" d="M175.5 82.1c3.1-.8 6.3-.1 8.1.5C180.1 80.2 177.1 81.2 175.5 82.1"/><path id="XMLID_197_" class="st27" d="M180.1 66.2c-1.8-.5-3.5-.3-3.8.6-.2.9 1.1 2 2.8 2.6 1.8.5 3.5.3 3.8-.6C183.1 68 181.8 66.8 180.1 66.2"/><path id="XMLID_196_" class="st28" d="M180.1 66.2c-1.8-.5-3.5-.3-3.8.6-.2.9 1.1 2 2.8 2.6 1.8.5 3.5.3 3.8-.6C183.1 68 181.8 66.8 180.1 66.2z"/><path id="XMLID_195_" class="st27" d="M152.9 64.6c0-.5-.7-.9-1.6-1.2-.6-.1-1.2-.2-1.9-.1-.9.1-1.8.4-2.5.7-.6.3-.9.8-.9 1.1.0.8 1.6 1.3 3.5 1.2C151.3 66.2 152.9 65.4 152.9 64.6"/><path id="XMLID_194_" class="st28" d="M152.9 64.6c0-.5-.7-.9-1.6-1.2-.6-.1-1.2-.2-1.9-.1-.9.1-1.8.4-2.5.7-.6.3-.9.8-.9 1.1.0.8 1.6 1.3 3.5 1.2C151.3 66.2 152.9 65.4 152.9 64.6z"/><g id="XMLID_190_"><g id="XMLID_191_"><defs><path id="XMLID_192_" d="M108.7 75.3H136v37.4H108.7z"/></defs><clipPath id="XMLID_279_"><use xlink:href="#XMLID_192_" style="overflow:visible"/></clipPath><path id="XMLID_193_" class="st29" d="M122.9 76.1c11.4 3.3 14.8 15.1 12.1 25.6-1.2 4.7-3.8 8.5-7.3 11-8.7-3.7-17.1-13.7-18.6-23-.8-4.6-.5-8.7.2-12.8C113.5 75.1 118.3 74.7 122.9 76.1"/></g></g><g id="XMLID_186_"><g id="XMLID_187_"><defs><path id="XMLID_188_" d="M183.2 82.8h13.2v28.4H183.2z"/></defs><clipPath id="XMLID_280_"><use xlink:href="#XMLID_188_" style="overflow:visible"/></clipPath><path id="XMLID_189_" class="st30" d="M183.9 96.4c1.7-6.6 6.5-11.5 12.5-13.6.1 4.2-.8 8.9-2.2 14-1.8 6.8-5.8 11.1-9.2 14.3C183.4 106.9 182.5 101.8 183.9 96.4"/></g></g><path id="XMLID_185_" class="st31" d="M138.1 116.6c9.8 2.1 18.5 2.6 22.9 2.3 15.3-1 29.9-6.6 33.7-22 2.9-11.5 2.9-22-4.2-33 1.2-.1 4.3-.8 6.8-4.1 3-3.9 3.1-11.1-1.2-15.1-3.7-3.4-10.1-5.9-15.9-1.4-.1.0-2.5 1.5-3.5 4.8-1-.4-1.5-.6-2.5-.9-.1.0-.3.0-.3.2-.1.1.0.3.2.3 1.1.4 1.7.6 2.8 1 .1.0.1.0.2.0.1.0.1-.1.1-.2.9-3.3 3.4-4.8 3.4-4.8 5.6-4.2 11.5-2.1 15.3 1.4 4.1 3.8 4 10.6 1.1 14.4-2.9 3.8-6.9 3.9-6.9 3.9-.1.0-.2.1-.2.2.0.1.0.2.0.3 6.4 9.2 7.9 22 4.4 32.9-4.9 14.9-18.8 21-33.3 21.6-10 .4-20.4-1.6-29.7-4.3-10.6-3.1-20.1-13.2-22.1-24.5-2.4-13.7 2.7-29 14.4-37 .1-.1.2-.3.1-.4-.1-.1-.3-.1-.4.0-11.8 8.1-17 23.7-14.5 37.5 2.1 11.4 11.4 20.9 22.5 24.9C133.4 115.4 135.7 116.1 138.1 116.6"/><path id="XMLID_184_" class="st31" d="M128.4 55.9c.3.1.5.1.8.2.6.1 1.2.2 1.7.2.1.0.3-.1.3-.3.0-.1-.1-.3-.3-.3-.5.0-1.1-.1-1.6-.2-2-.4-4.1-1.5-5.5-3.3-1.4-1.8-2-4.3-1.7-6.3.7-4.7 4.2-9.1 8.2-11 3.2-1.6 10.6-3.4 15 1.6 4.3 5 .5 12.1.3 12.4-.1.1-.1.3.1.4.1.1.3.0.4-.1.0-.1 4.2-7.8-.4-13.1-4.6-5.2-12.3-3.3-15.6-1.7-4.1 2-7.7 6.5-8.5 11.4-.3 2.2.3 4.8 1.8 6.7C124.6 54.2 126.5 55.4 128.4 55.9"/><path id="XMLID_183_" class="st31" d="M169.5 62.3c.1.0.1.0.2.0.1.0 6.6-4.2 4.8-14.1-1.7-9.2-7.6-9.2-8.5-9.2-.6-.4-4.3-3-8.6-2.3-2.7.5-4.9 2.2-6.8 5.2-.1.1-.1.3.1.4.1.1.3.0.4-.1 1.8-2.9 3.9-4.5 6.4-5 4.3-.8 8.2 2.2 8.3 2.2.1.0.1.1.2.0.3.0 6.3-.7 8 8.7 1.3 7.4-2.1 11.4-3.7 12.9.4-1.1.9-3 .1-4.6-.1-.1-.2-.2-.3-.1-.1.1-.2.2-.1.4 1 2.3-.6 5.1-.6 5.1-.1.1.0.2.0.3C169.4 62.3 169.4 62.3 169.5 62.3"/><path id="XMLID_182_" class="st31" d="M159.2 65.1c0 0 .1.0.1.0 4.4-.9 7.7-2.9 9.6-5.9 3.1-4.7 1.8-10.2 1.8-10.4.0-.1-.2-.2-.3-.2-.1.0-.2.2-.2.3.0.1 1.2 5.5-1.7 10-1.8 2.8-4.8 4.7-8.9 5.6.1-1.5.4-7.5-3.5-11.3-.1-.1-.2-.1-.3.0-.1.1-.2.2-.1.3.0.2.4 4.4 1 6.5-2.4-1.5-10.3-7.4-7.7-15.3.0-.1.4-2.2 2.7-2 .1.0.3-.1.3-.3.0-.2-.1-.3-.2-.3-2.8-.2-3.3 2.5-3.3 2.5-3.1 9.7 8.5 16.2 8.6 16.3.1.1.2.0.3.0.1-.1.1-.2.1-.3-.5-1.1-1-4.6-1.2-6.3 3.6 4.2 2.8 10.6 2.8 10.7.0.1.0.2.1.2C159.1 65.1 159.1 65.1 159.2 65.1"/><path id="XMLID_179_" class="st31" d="M147.1 45.4c-.1-.1.0-.3.1-.4.6-.4 1-.6 1.3-.4.2.1.2.2.3.3.0.1.0.3-.2.4-.1.1-.2.0-.3-.1.0.0-.3.0-.9.4-.1.0-.1.1-.2.0C147.1 45.5 147.1 45.5 147.1 45.4M148.2 45c0 0 0 0 0 0 0 0 0 0 0 0"/><path id="XMLID_174_" class="st31" d="M187.7 61c0 0-.1.0-.1-.1.0.0.0.0.0.0-.1.0-.1-.1-.1-.1-1.1-1.4-2.1-2.4-3.3-3.2-.1.0-.1-.1-.1-.2.0-.1-.1-.4 1.6-2.6.8-1.1 1.8-2.2 3.2-2.5 1-.2 2 .1 2.8.9.9.9 1.3 2.3 1 3.5-.2.9-.9 1.8-1.8 2.6-.8.7-1.7 1.2-2.6 1.7C188 60.9 187.9 61 187.7 61zM187.7 60.7c0 0 0 0 0 0 0 0 0 0 0 0m0 0c0 0 0 0 0 0 0 0 0 0 0 0M188.9 52.7c-1.2.3-2.1 1.3-2.9 2.3-.7.9-1.2 1.8-1.4 2.1 1.2.8 2.2 1.8 3.3 3.2.0.0.0.0.0.0.9-.5 1.8-1 2.6-1.6.8-.7 1.4-1.5 1.6-2.3.3-1-.1-2.2-.8-3-.3-.3-.7-.6-1.1-.7C189.7 52.7 189.3 52.6 188.9 52.7"/><path id="XMLID_171_" class="st31" d="M134.2 50.7c-.5-1.4-.5-2.8-.1-4 .7-1.9 2.6-3.2 4.5-3.2 1.7.0 3.2 1.3 3.7 3.1.0.0.6 2.2.3 2.8-.1.1-.2.2-.2.2.0.0.0.0.0.0-2 .8-5.9 3.2-5.9 3.2.0.0-.1.0-.1.0-.1.0-.2.0-.2.0C135.2 52.7 134.4 51.4 134.2 50.7m8-1.5c.1-.4-.2-1.7-.4-2.4-.5-1.6-1.8-2.8-3.3-2.8-1.6.0-3.3 1.2-3.9 2.8-.4 1-.3 2.4.1 3.6.2.7 1 1.9 1.6 2C136.9 52.1 140.2 50 142.2 49.2"/><path id="XMLID_168_" class="st26" d="M138.4 81.1c-.1-.1.0-.3.1-.4 1-.7 5.6-3.5 10-3.6 4.2-.1 8.4 3.4 8.6 3.5.1.1.1.2.0.4-.1.1-.2.2-.4.1-8.9-4.7-18 0-18.1.1-.1.0-.1.0-.2.0C138.5 81.3 138.5 81.2 138.4 81.1M154.3 79.5c-1.6-.9-3.7-1.8-5.8-1.7-2.5.1-4.9 1-6.8 1.9 2.8-.8 7.2-1.8 11.8-.4C153.8 79.3 154 79.4 154.3 79.5"/><path id="XMLID_165_" class="st26" d="M173.9 83c-.1-.1-.1-.3.0-.3.1-.1 5.3-5 11.4.6.1.1.1.2.0.3-.1.1-.2.2-.3.1-.1.0-5.8-2.7-10.8-.6-.1.0-.1.0-.2.0C174 83.1 173.9 83.1 173.9 83M175.5 82.1c3.1-.8 6.3-.1 8.1.5C180.1 80.2 177.1 81.2 175.5 82.1"/><path id="XMLID_164_" class="st31" d="M171.9 96.5c.7.2 1.5.4 2.3.5 1.5.2 2.6-.1 3.4-.8 1.2-1.1 1.2-2.8 1.2-2.8.0-.2-.1-.3-.2-.3-.1.0-.3.1-.3.3.0.0.0 1.5-1 2.5-.7.6-1.7.8-3 .7-3.9-.5-6.9-2.5-7.4-2.9.0-1 .1-3.7.1-3.7.0-.2-.1-.3-.3-.3-.2.0-.3.1-.3.3.0.1-.1 3-.1 3.9.0.1.0.1.1.2C166.4 93.9 168.6 95.6 171.9 96.5"/><path id="XMLID_163_" class="st31" d="M152.5 96c.1.0.3.1.5.1 5 1.3 10.5-.3 13.7-2.3.1-.1.2-.3.1-.4-.1-.1-.3-.2-.4-.1-3.1 1.9-8.5 3.5-13.3 2.2-4.4-1.1-4.2-3.2-4.2-3.3.0-.1-.1-.3-.2-.3-.1.0-.3.1-.3.3C148.4 92.5 148.1 94.8 152.5 96"/><path id="XMLID_162_" class="st31" d="M158.7 107.8c1.2.3 2.6.4 4.1.4 4-.1 7.1-1.2 9-3.3 3.1-3.3 2.6-8 2.6-8.2.0-.1-.1-.3-.3-.2-.1.0-.3.1-.2.3.0.0.5 4.7-2.5 7.9-1.9 2-4.8 3-8.7 3.1-3.5.1-6.1-.7-7.6-2.4-2.9-3.3-1.1-8.9-1-9 .1-.1.0-.3-.2-.3-.1-.1-.3.0-.3.2-.1.2-1.9 6 1.1 9.4C155.7 106.6 157.1 107.4 158.7 107.8"
		/><path id="XMLID_159_" class="st31" d="M175.8 66.7c.3-1.2 2.3-1.6 4.4-1 2.1.6 3.5 2.1 3.2 3.3-.3 1.2-2.3 1.5-4.4.9C176.9 69.2 175.5 67.9 175.8 66.7M176.3 66.8c-.2.9 1.1 2 2.8 2.6 1.8.5 3.5.3 3.8-.6.2-.9-1.1-2.1-2.8-2.6C178.3 65.7 176.6 66 176.3 66.8"/><path id="XMLID_156_" class="st31" d="M145.5 65.3c0-.6.4-1.1 1.2-1.6.7-.4 1.7-.7 2.7-.8 2.2-.2 4 .6 4 1.7.0 1.1-1.7 2.1-3.9 2.3-.8.1-1.5.0-2.1-.1C146.3 66.6 145.5 66 145.5 65.3M149.4 63.4c-.9.1-1.8.4-2.5.7-.6.3-.9.8-.9 1.1.0.8 1.6 1.3 3.5 1.2 1.8-.2 3.4-.9 3.4-1.8.0-.5-.7-.9-1.6-1.2C150.7 63.3 150.1 63.3 149.4 63.4"/><path id="XMLID_155_" class="st26" d="M166.9 85.7c-1.9-.1-3 .2-3.4.3.0.4.4 1.5 2.7 3.4.1.0.2.1.4.1.0.0.0.0.0.0.0.0.0.0.0.0.7.0 2-.4 3.2-3.1C169.6 86.2 168.8 85.8 166.9 85.7"/><path id="XMLID_152_" class="st26" d="M165.9 89.9c0 0 0 0 0 0-3.3-2.6-3-4-3-4.2.0-.1.1-.2.2-.2.0.0 1.2-.6 3.8-.4 2.7.1 3.4 1 3.4 1.1.1.1.1.2.0.3C168.7 90.5 166.5 90.1 165.9 89.9c.09999999999999432.0.0.0.0.0M166.9 85.7c-1.9-.1-3 .2-3.4.3.0.4.4 1.5 2.7 3.4.3.1 2.1.5 3.7-3C169.6 86.2 168.8 85.8 166.9 85.7"/><path id="XMLID_151_" class="st32" d="M161.7 89.4c-3.3-.9-4.9-1.4-7.9-2.4"/><path id="XMLID_150_" class="st32" d="M161.6 91.3c-3.6.3-5.3.5-8.7.8"/><path id="XMLID_149_" class="st32" d="M170.1 90.5c2.8-.7 4.2-1 6.8-1.6"/><path id="XMLID_148_" class="st32" d="M169.9 92.4c2.4.1 3.6.2 5.9.4"/><path id="XMLID_147_" class="st33" d="M116.7 139c-5.3 10.8-24.4.6-14.4-10.5C109.9 120.1 121.3 129.6 116.7 139"/><path id="XMLID_146_" class="st2" d="M96.7 124.6c1.7 1 2.9 2.6 4.2 4.1 1.6 1.9 3.3 3.8 5 5.6 2 2.1 4 4.2 6.1 6.2-.9-2.1-1.8-4.3-2.6-6.5-1.3-3.4-3.4-8.5-2-12.1.2-.4.8-.6 1.1-.1.9 1.7 1.1 3.5 1.6 5.3.5 2.1 1.4 4.1 2.1 6.2 1.5 4 3.6 7.8 4.9 11.9.4 1.3-1.3 2.2-2.2 1.3-3.6-3.4-7.4-6.6-10.9-10.1-2.9-3-7.2-6.8-8.2-11C95.7 124.8 96.2 124.2 96.7 124.6"/><path id="XMLID_145_" class="st5" d="M118.9 69.7c-.1.9-.3 1.8-.6 2.5-2.5 6.5-10.7 7.3-15.9 3.8-6.8-4.5-5.5-13.1.2-18.3 5.2-4.7 12.9-2.5 15.6 3.7C119.1 63.6 119.3 66.9 118.9 69.7"/><path id="XMLID_144_" class="st34" d="M114.4 69.7c-.2.6-.4 1.1-.7 1.6-2.4 3.9-7.7 3.5-10.7.7-3.9-3.7-2.1-9.1 2.2-11.7 3.9-2.4 8.6-.2 9.6 4.2C115.2 65.8 115 68 114.4 69.7"/><path id="XMLID_143_" class="st35" d="M112.9 67.8c-.1.4-.2.8-.3 1.1-1.1 2.8-4.6 3.2-6.9 1.7-2.9-1.9-2.4-5.7.1-7.9 2.2-2 5.6-1.1 6.7 1.6C112.9 65.2 113 66.6 112.9 67.8"/><path id="XMLID_142_" class="st34" d="M146.7 3.5c10.5-1.2 22 2.1 30.3 8 3.9 2.8 11.2 11.4 9.5 16.6-4.2 5.4-31.4-.6-34.7-6.2-2.8-4.8-6.1-8.1-11.6-9.7-3.2-.9-6.1-.7-10.6-.7 2.1-2.7 9.6-6.3 10.5-6.5C142.2 4.3 144.5 3.8 146.7 3.5"/><path id="XMLID_141_" class="st36" d="M147.8 1c8.5-1 17.6.6 25 4.8 6.6 3.7 16.5 13.7 13.6 22.4-6.3 1.3-30.3-3.1-33.6-8.7-2.8-4.8-6.1-8.1-11.6-9.7-3.2-.9-7.2-.2-11.7 1.8 1.8-4.5 10.7-8.8 11.6-9C143.3 1.8 145.5 1.3 147.8 1"/><g id="XMLID_137_" class="st37"><g id="XMLID_138_"><defs><path id="XMLID_139_" d="M158.8 44.7h32.3V67H158.8z"/></defs><clipPath id="XMLID_281_"><use xlink:href="#XMLID_139_" style="overflow:visible"/></clipPath><path id="XMLID_140_" class="st38" d="M158.9 51.7c0-.2.1-.4.1-.6 4.1-14.8 37-1.2 31.3 11.5-2.5 5.7-12.9 4.6-17.5 3.4C167 64.6 157.3 59.5 158.9 51.7"/></g></g><path id="XMLID_136_" class="st2" d="M184 135.1c1.1 1.2 5.3.2 6.4-.8 2.1-1.9 2.6-9.1-1.2-9.2C185.7 125 181.5 132.4 184 135.1"/><path id="XMLID_135_" class="st2" d="M202.3 118.7c3.3-.7 11.1-3.4 13.1-.5 2.3 3.3 1.4 12.7-1.5 15.4-3 2.7-9.7 4.1-13.4 4.8-3.4.7-7.5 2.7-8.9-1.1-1.2-3.1-3.3-9.6-2.4-12.9C190.3 120.4 198.6 119.5 202.3 118.7"/><path id="XMLID_134_" class="st2" d="M157.4 172.3c1.3-4.2 2.7-8.3 4.1-12.5 1.9.1 3.8.1 5.8.0.2-1.5 2.2-9.1 4.3-9.1 3.7-.1 2.2 7.8 2.5 9.9 6.1-.1 12-4.5 12 5.2.0 4.4-2.2 7.8-5.6 10.3-7.1 5.4-16.4 6.1-25.7 4.9C155.5 178.1 156.5 175.2 157.4 172.3"/><g id="XMLID_130_" class="st39"><g id="XMLID_131_"><defs><path id="XMLID_132_" d="M106.4 91.6H194V126H106.4z"/></defs><clipPath id="XMLID_282_"><use xlink:href="#XMLID_132_" style="overflow:visible"/></clipPath><path id="XMLID_133_" class="st40" d="M107.4 92.3c7 4.6 14.5 7.7 22.3 10.9 5.7 2.4 11.7 4.4 17.8 5.3 6.3.9 12.8 2 19.3 2 6.3.0 12.4-1 18.6-1.9 3-.4 5.8-1 8.7-1.8-4.2 4.9-9.3 9-15.1 12.1-16.1 8.4-31.5 10.1-47.7 1.4-11.1-5.9-20.5-16.5-24.7-28.4.0-.1.0-.1-.1-.2C106.7 91.8 107 92.1 107.4 92.3"/></g></g><g id="XMLID_126_" class="st3"><g id="XMLID_127_"><defs><path id="XMLID_128_" d="M93.5 118.3h89.6v63.2H93.5z"/></defs><clipPath id="XMLID_283_"><use xlink:href="#XMLID_128_" style="overflow:visible"/></clipPath><path id="XMLID_129_" class="st41" d="M93.5 129.7c.1-4.2 2.5-8.4 5.9-11.4.4 1.2.8 2.4 1.2 3.6.1.5.2 1 .2 1.5.7 4.5 3.1 8.9 4.8 12.9.6 1.4 1.4 2.8 2.3 4.1 15.3 21.6 45.5 44.4 73.8 33.6.5-.2.9-.4 1.4-.5-.8 1-1.8 1.9-2.8 2.7-13.5 10.3-35.1 3.5-49.7-1.1C108.7 168.1 93 153.7 93.5 129.7"/></g></g><path id="XMLID_125_" class="st42" d="M131.3 158.1c-7.5 1.8-10-13.1-1-9.9C134.8 149.9 137.1 156.7 131.3 158.1"/><path id="XMLID_124_" class="st42" d="M169.3 172.8c-5.3-1-10.5-6.9-3.6-10.2 3.3-1.6 9.6-.5 12.7 1.3 7.5 4.5-2.2 8.4-6.7 9C170.9 173 170.1 173 169.3 172.8"/><path id="XMLID_123_" class="st42" d="M210.9 130.2c-3.7 2.9-15 7.1-18.3 1.3-3.7-6.4 9-11.2 13.7-11C211.9 120.7 216.1 126 210.9 130.2"/><path id="XMLID_122_" class="st43" d="M177 21.6c-4.6 4.6-15.1-.4-19.3-3.3-7.2-4.8-5.7-11.4 3.7-11.3C167.1 7.1 184.6 14 177 21.6"/><g id="XMLID_116_" class="st44"><g id="XMLID_117_"><defs><path id="XMLID_118_" d="M165 116h110.4v115.2H165z"/></defs><clipPath id="XMLID_284_"><use xlink:href="#XMLID_118_" style="overflow:visible"/></clipPath><g id="XMLID_119_" class="st45"><defs><path id="XMLID_120_" d="M192.6 216.4c7.5 1.4 15.3 1.5 22.8 3.3 4.5 1 8.8 2.7 12.9 4.8 5.2 2.8 10.4 6.5 16.3 6.6 2.6.1 5.2-.6 7.5-1.7 8-3.9 12-12.6 13.5-21.1 1.5-8.5 1-17.3 2.8-25.7 1.2-5.6 3.4-11 5.5-16.4 1.5-3.9 2.8-8.7-.1-11.9-1.4-1.5-3.4-2.2-5.2-3.3-3.7-2.2-6.2-6-8.6-9.5-5.2-7.4-11.1-14.5-18.7-19.5-7.7-5-17.5-7.6-26.3-5.2-12.1 3.3-19.4 14.7-29.7 21.5-5.2 3.4-11.6 6.1-14.4 11.5-2.6 5-1.3 11-1.6 16.6-.5 10.2-6.2 20.2-3.5 30.2 1.5 5.5 5.5 10.2 10.4 13.5C181 213.5 186.8 215.3 192.6 216.4"/></defs><clipPath id="XMLID_285_"><use xlink:href="#XMLID_120_" style="overflow:visible"/></clipPath><linearGradient id="XMLID_286_" gradientUnits="userSpaceOnUse" x1="-801.0219" y1="2887.4331" x2="-800.0219" y2="2887.4331" gradientTransform="matrix(-81.1986 58.3028 62.1571 78.9734 -244253.5469 -181186.5)"><stop offset="0" style="stop-color:#ad97c7"/><stop offset=".00383142" style="stop-color:#ad97c7"/><stop offset=".5326" style="stop-color:#634d9d"/><stop offset="1" style="stop-color:#755da6"/></linearGradient><path id="XMLID_121_" class="st46" d="M335.4 189.1 204.1 283.3 104.4 156.6 235.6 62.4z"/></g></g></g></g><g id="XMLID_112_"><defs><path id="XMLID_113_" d="M192.7 128.5c-1.2 1.6-1.5 3.6-2.2 5.5-1.5 3.9-4.6 6.9-7.6 9.9-6.2 6.3-12 13.1-15.4 21.3-3.4 8.1-4 17.8.2 25.6 5.6 10.7 18.3 15.4 27 23.8 4.4 4.2 8.3 9.7 14.2 11.3 5.4 1.4 11-.9 16.6-1.7 3.9-.6 7.9-.4 11.9-.3 6.4.2 12.7.5 18.4-2.2 5.1-2.4 8.9-7.1 11.1-12.3 2.2-5.2 2.9-11 2.8-16.6-.1-7.3-1.5-14.6-1.3-22 .1-4.4.9-8.8 2.1-13 1.7-5.4 4.3-11 3.3-16.5-.5-2.5-1.6-4.8-3.2-6.7-5.4-6.7-14.8-8.9-23.4-8.7-8.6.2-17.1 2.4-25.7 2.3-5.8.0-11.5-1.1-17.2-2-1.5-.2-3.1-.4-4.6-.4C196.9 125.8 194.3 126.4 192.7 128.5"/></defs><clipPath id="XMLID_287_"><use xlink:href="#XMLID_113_" style="overflow:visible"/></clipPath><linearGradient id="XMLID_288_" gradientUnits="userSpaceOnUse" x1="-791.3303" y1="2899.9412" x2="-790.3303" y2="2899.9412" gradientTransform="matrix(73.3196 64.9969 64.9969 -73.3196 -130286.0547 264199.5)"><stop offset="0" style="stop-color:#ad97c7"/><stop offset=".00383142" style="stop-color:#ad97c7"/><stop offset=".5326" style="stop-color:#634d9d"/><stop offset="1" style="stop-color:#755da6"/></linearGradient><path id="XMLID_114_" class="st47" d="M212.5 70.5 325.2 170.4 225.9 282.5 113.1 182.6z"/></g><g id="XMLID_109_"><defs><path id="XMLID_110_" d="M177.4 174.9c0 24.1 19.6 43.7 43.7 43.7 24.1.0 43.7-19.6 43.7-43.7.0-24.1-19.6-43.7-43.7-43.7C196.9 131.2 177.4 150.8 177.4 174.9"/></defs><clipPath id="XMLID_289_"><use xlink:href="#XMLID_110_" style="overflow:visible"/></clipPath><linearGradient id="XMLID_290_" gradientUnits="userSpaceOnUse" x1="-790.9996" y1="2900.6304" x2="-789.9996" y2="2900.6304" gradientTransform="matrix(71.1873 59.2256 59.2256 -71.1873 -115294.2109 253483.2031)"><stop offset="0" style="stop-color:#f6cb78"/><stop offset=".00383142" style="stop-color:#f6cb78"/><stop offset=".5326" style="stop-color:#c0add3"/><stop offset="1" style="stop-color:#d3c5e0"/></linearGradient><path id="XMLID_111_" class="st48" d="M213.1 88.3 307.7 167 229 261.5 134.4 182.8z"/></g><g id="XMLID_106_"><defs><path id="XMLID_107_" d="M182.1 184.5c.2.5.3.9.5 1.4.9 2.2 2.4 4.7 4.8 4.8 2.8.1 4.6-3 7.2-3.9 2.7-.9 5.6.6 7.6 2.5 2 2 3.6 4.5 5.8 6.3 4.2 3.4 10.5 3.6 14.9.5 2.4-1.7 4.1-4.3 6.7-5.6 3.4-1.8 7.7-1.2 11.2.6 2.3 1.2 4.4 2.9 6.9 3.6 9.6 2.7 10.9-12.8 10.9-19.1.0-22.3-17.6-40.4-39.3-40.4C195.6 135.1 173.3 160 182.1 184.5"/></defs><clipPath id="XMLID_291_"><use xlink:href="#XMLID_107_" style="overflow:visible"/></clipPath><linearGradient id="XMLID_292_" gradientUnits="userSpaceOnUse" x1="-790.996" y1="2899.0388" x2="-789.996" y2="2899.0388" gradientTransform="matrix(83.7951 69.2158 69.2158 -83.7951 -134197.5469 297812.25)"><stop offset="0" style="stop-color:#f1aa23"/><stop offset=".00383142" style="stop-color:#f1aa23"/><stop offset=".5326" style="stop-color:#ad97c7"/><stop offset="1" style="stop-color:#c3b0d5"/></linearGradient><path id="XMLID_108_" class="st49" d="M207.9 93.2 290.1 161.1 224 241.1 141.8 173.2z"/></g><g id="XMLID_104_"><path id="XMLID_105_" class="st5" d="M201.3 158.1c0 0 .4 4.3 2.4 6.3 1.9 2 5.1 2.1 5.1 2.1s-3 .5-5 2.1c-2.1 1.7-2.4 6.7-2.4 6.7s-.2-4.6-2.2-6.5c-1.8-1.8-5.3-2.2-5.3-2.2s3.5-.4 5.3-2.2C201.3 162.2 201.3 158.1 201.3 158.1"/></g><g id="XMLID_101_"><defs><path id="XMLID_102_" d="M247.7 174.3c-.6 4-1.5 7.9-3.4 11.5-5 10-15.6 15.7-25.6 20.5-.7.3-1.4.7-1.7 1.4-.5 1.3 1.1 2.5 2.4 2.8 2.6.7 5.4.3 8.1-.3 10.6-2.6 19.7-10.6 23.6-20.7 3.9-10.1 2.6-22.2-3.5-31.2C248.5 163.7 248.5 169.1 247.7 174.3"/></defs><clipPath id="XMLID_293_"><use xlink:href="#XMLID_102_" style="overflow:visible"/></clipPath><linearGradient id="XMLID_294_" gradientUnits="userSpaceOnUse" x1="-791.6529" y1="2900.8999" x2="-790.6529" y2="2900.8999" gradientTransform="matrix(65.9512 61.8676 61.8676 -65.9512 -127068.9531 240439.4844)"><stop offset="0" style="stop-color:#f1aa23"/><stop offset=".00383142" style="stop-color:#f1aa23"/><stop offset=".4806" style="stop-color:#ad97c7"/><stop offset="1" style="stop-color:#a68fc2"/></linearGradient><path id="XMLID_103_" class="st50" d="M234.6 139.2 281.5 183.2 237.1 230.5 190.2 186.5z"/></g><g id="XMLID_94_"><g id="XMLID_95_" class="st51"><g id="XMLID_96_"><defs><path id="XMLID_97_" d="M182.8 138.4h35.1v49H182.8z"/></defs><clipPath id="XMLID_295_"><use xlink:href="#XMLID_97_" style="overflow:visible"/></clipPath><g id="XMLID_98_" class="st52"><defs><path id="XMLID_99_" d="M185.3 187.4c0 0-7.8-18.4 4.5-34.5 13.3-17.5 28.2-14.3 28.2-14.3s-14 3.1-24.6 18.8C183.2 172.3 185.3 187.4 185.3 187.4"/></defs><clipPath id="XMLID_296_"><use xlink:href="#XMLID_99_" style="overflow:visible"/></clipPath><linearGradient id="XMLID_297_" gradientUnits="userSpaceOnUse" x1="-773.3658" y1="2886.6077" x2="-772.3658" y2="2886.6077" gradientTransform="matrix(28.1773 -47.4726 -47.4726 -28.1773 159010.5 44806.8477)"><stop offset="0" style="stop-color:#ccc"/><stop offset=".00383142" style="stop-color:#ccc"/><stop offset=".9962" style="stop-color:#fbf9fc"/><stop offset="1" style="stop-color:#fbf9fc"/></linearGradient><path id="XMLID_100_" class="st53" d="M154.7 173.9 188 117.7 240.7 149 207.4 205.2z"/></g></g></g></g><g id="XMLID_73_"><defs><path id="XMLID_74_" d="M220.5 168.7c-2.1 8.7 2 17.2 9 18.8 7 1.7 14.4-4.1 16.5-12.8 2.1-8.7-2-17.2-9-18.8-.8-.2-1.6-.3-2.5-.3C228.3 155.6 222.3 161 220.5 168.7"/></defs><clipPath id="XMLID_298_"><use xlink:href="#XMLID_74_" style="overflow:visible"/></clipPath><linearGradient id="XMLID_299_" gradientUnits="userSpaceOnUse" x1="-789.4697" y1="2913.0354" x2="-788.4697" y2="2913.0354" gradientTransform="matrix(34.5071 25.5759 25.5759 -34.5071 -47041.8711 120874)"><stop offset="0" style="stop-color:#af9ac8"/><stop offset=".9962" style="stop-color:#ced9a1"/><stop offset="1" style="stop-color:#ced9a1"/></linearGradient><path id="XMLID_75_" class="st54" d="M228.9 141.5 264.1 167.5 237.5 203.3 202.4 177.3z"/></g><g id="XMLID_71_"><path id="XMLID_72_" class="st5" d="M215.7 194.6c0 2.8-2.3 5.1-5.1 5.1-2.8.0-5.1-2.3-5.1-5.1.0-2.8 2.3-5.1 5.1-5.1C213.4 189.5 215.7 191.8 215.7 194.6"/></g><g id="XMLID_68_"><defs><path id="XMLID_69_" d="M238.3 153.1c0 6.9 2.3 12.5 5.1 12.5 2.8.0 5.1-5.6 5.1-12.5.0-6.9-2.3-12.5-5.1-12.5C240.6 140.6 238.3 146.2 238.3 153.1"/></defs><clipPath id="XMLID_300_"><use xlink:href="#XMLID_69_" style="overflow:visible"/></clipPath><linearGradient id="XMLID_301_" gradientUnits="userSpaceOnUse" x1="-762.3241" y1="2998.9468" x2="-761.3241" y2="2998.9468" gradientTransform="matrix(7.9631 3.8795 3.8795 -7.9631 -5327.8687 26987.9727)"><stop offset="0" style="stop-color:#af9ac8"/><stop offset=".9962" style="stop-color:#ced9a1"/><stop offset="1" style="stop-color:#ced9a1"/></linearGradient><path id="XMLID_70_" class="st55" d="M240.2 136.6 258.3 145.4 246.5 169.6 228.4 160.8z"/></g><path id="XMLID_67_" class="st5" d="M204 203.3c0 1.5-1.2 2.7-2.7 2.7s-2.7-1.2-2.7-2.7c0-1.5 1.2-2.7 2.7-2.7S204 201.9 204 203.3"
	/><g id="XMLID_61_" class="st56"><g id="XMLID_62_"><defs><path id="XMLID_63_" d="M205.2 169h20.9v18.4H205.2z"/></defs><clipPath id="XMLID_302_"><use xlink:href="#XMLID_63_" style="overflow:visible"/></clipPath><g id="XMLID_64_" class="st57"><defs><path id="XMLID_65_" d="M226.2 178.2c0 5.1-4.7 9.2-10.5 9.2-5.8.0-10.5-4.1-10.5-9.2.0-5.1 4.7-9.2 10.5-9.2C221.5 169 226.2 173.1 226.2 178.2"/></defs><clipPath id="XMLID_303_"><use xlink:href="#XMLID_65_" style="overflow:visible"/></clipPath><linearGradient id="XMLID_304_" gradientUnits="userSpaceOnUse" x1="-792.6528" y1="2900.3264" x2="-791.6528" y2="2900.3264" gradientTransform="matrix(62.2913 70.9257 70.9257 -62.2913 -156165.3906 237007.375)"><stop offset="0" style="stop-color:#f1aa23"/><stop offset=".00383142" style="stop-color:#f1aa23"/><stop offset=".4806" style="stop-color:#ad97c7"/><stop offset="1" style="stop-color:#7f68ac"/></linearGradient><path id="XMLID_66_" class="st58" d="M217.1 158.6 235.3 179.4 214.3 197.8 196.1 177z"/></g></g></g></svg>