<svg id="圖層_1" xmlns="http://www.w3.org/2000/svg" xmlns:xlink="http://www.w3.org/1999/xlink" viewBox="0 0 142.8 144.7" style="enable-background:new 0 0 142.8 144.7"><style>.st0{opacity:.8}.st1{clip-path:url(#XMLID_92_)}.st2{clip-path:url(#XMLID_93_);fill:url(#XMLID_94_)}.st3{clip-path:url(#XMLID_95_);fill:url(#XMLID_96_)}.st4{clip-path:url(#XMLID_97_);fill:url(#XMLID_98_)}.st5{clip-path:url(#XMLID_99_);fill:url(#XMLID_100_)}.st6{clip-path:url(#XMLID_101_);fill:url(#XMLID_102_)}.st7{opacity:.61;clip-path:url(#XMLID_92_)}.st8{clip-path:url(#XMLID_103_);fill:#d6edf7}.st9{clip-path:url(#XMLID_104_);fill:#d6edf7}.st10{opacity:.48;clip-path:url(#XMLID_92_)}.st11{clip-path:url(#XMLID_105_)}.st12{clip-path:url(#XMLID_106_);fill:url(#XMLID_107_)}.st13{opacity:.47;clip-path:url(#XMLID_92_)}.st14{clip-path:url(#XMLID_108_);fill:#95d5f1}.st15{clip-path:url(#XMLID_92_);fill:#fff}</style><g id="XMLID_3_" class="st0"><g id="XMLID_4_"><defs><path id="XMLID_5_" d="M0 0h142.8v145.3H0z"/></defs><clipPath id="XMLID_92_"><use xlink:href="#XMLID_5_" style="overflow:visible"/></clipPath><g id="XMLID_38_" class="st1"><defs><path id="XMLID_39_" d="M13.2 26.1c2.3-3.4 5.2-6.3 9.2-8.3C32.6 12.6 42.5 7 53.5 3.5c11-3.5 22.9-4.9 34.1-1.9 14.5 3.8 26.1 14.2 37.2 24.3 3.8 3.5 7.7 7 10.5 11.3 6.2 9.4 6.9 21.2 7.3 32.4.5 12.3.7 25.2-4.4 36.4-7.3 16.2-24.2 25.8-40.6 32.6-6.4 2.6-12.9 4.9-19.7 6-13.2 2.1-26.7-.8-39.1-5.5-8.4-3.2-16.7-7.3-22.6-14-3.5-3.9-6-8.6-8.1-13.4C1.1 96.1-1.4 78.6.7 61.6 1.8 53.2 4 44.9 7.4 37.1 9.1 33.2 10.9 29.4 13.2 26.1"/></defs><clipPath id="XMLID_93_"><use xlink:href="#XMLID_39_" style="overflow:visible"/></clipPath><linearGradient id="XMLID_94_" gradientUnits="userSpaceOnUse" x1="-889.5874" y1="2819.7151" x2="-888.5874" y2="2819.7151" gradientTransform="matrix(120.1535 179.7573 179.7573 -120.1535 -399965.0938 498693.25)"><stop offset="0" style="stop-color:#6f258a"/><stop offset=".4559" style="stop-color:#213b95"/><stop offset="1" style="stop-color:#4351a1"/></linearGradient><path id="XMLID_58_" class="st2" d="M98.6-68.1 211.6 101 43.3 213.5-69.8 44.4z"/></g><g id="XMLID_35_" class="st1"><defs><path id="XMLID_36_" d="M135.7 72c0 35.4-28.4 64.2-63.6 64.8-.4.0-.8.0-1.2.0-4.8.0-9.5-.5-14-1.5-8.4-1.8-16.1-5.3-23-10 0 0 0 0 0 0-5.9-4.1-11.1-9.1-15.3-14.9-2.7-3.7-5.1-7.7-7-12-1.5-3.3-2.7-6.7-3.6-10.2C6.8 83 6.1 77.6 6.1 72c0-7.6 1.3-14.8 3.7-21.6.8-2.2 1.7-4.4 2.7-6.5C23 22.2 45.2 7.2 70.9 7.2c5.1.0 10.1.6 14.9 1.7 2.9.7 5.7 1.6 8.5 2.6 8 3.1 15.2 7.7 21.3 13.5 2.1 2 4.1 4.2 6 6.5 4.1 5.1 7.4 10.8 9.8 17 .8 2 1.4 4 2 6C134.9 60.1 135.7 66 135.7 72"/></defs><clipPath id="XMLID_95_"><use xlink:href="#XMLID_36_" style="overflow:visible"/></clipPath><linearGradient id="XMLID_96_" gradientUnits="userSpaceOnUse" x1="-890.2048" y1="2819.8855" x2="-889.2048" y2="2819.8855" gradientTransform="matrix(139.9044 115.5627 115.5627 -139.9044 -201328.1719 497403.7188)"><stop offset="0" style="stop-color:#b76fab"/><stop offset=".4559" style="stop-color:#427abe"/><stop offset="1" style="stop-color:#bee4f5"/></linearGradient><path id="XMLID_37_" class="st3" d="M58.7-56.5 199.4 59.8 83.2 200.5-57.6 84.2z"/></g><g id="XMLID_32_" class="st1"><defs><path id="XMLID_33_" d="M94.3 11.5c-1 1.5-1.6 3.2-1.9 4.9-.8 4-.3 8.2-.6 12.3-.3 4.1-1.4 8.4-4.6 11.1-3.8 3.2-9.4 3-14.2 4.2-4.3 1.1-8.2 3.6-11.1 6.9C56.6 57 54.7 65.8 48.6 71c-4.4 3.8-10.6 5.2-16.2 3.8-5.6-1.5-10.3-5.9-12.2-11.3-.7-2-1-4-1.9-6-1.5-3.5-4.8-6.1-8.5-7.1.8-2.2 1.7-4.4 2.7-6.5.4.3.7.6 1 1 1.1 1.3 1.6 3 2.3 4.5 3.4 7.4 10.3 13.2 18.3 14.6 8 1.4 16.8-1.8 21.6-8.3 3.6-5 5.1-11.8 10-15.5 3.7-2.8 8.6-3.3 12.7-5.5 5.5-3 9.1-9.4 8.8-15.7-.2-3.4-1.4-6.7-1.3-10.1C88.8 9.6 91.6 10.5 94.3 11.5"/></defs><clipPath id="XMLID_97_"><use xlink:href="#XMLID_33_" style="overflow:visible"/></clipPath><linearGradient id="XMLID_98_" gradientUnits="userSpaceOnUse" x1="-890.107" y1="2818.7729" x2="-889.107" y2="2818.7729" gradientTransform="matrix(69.38 116.6845 116.6845 -69.38 -267114.75 299445.3125)"><stop offset="0" style="stop-color:#4e52a1"/><stop offset=".4559" style="stop-color:#3f67b1"/><stop offset="1" style="stop-color:#4f88c7"/></linearGradient><path id="XMLID_34_" class="st4" d="M72.2-28.2l51.7 86.9-92 54.7-51.7-86.9z"/></g><g id="XMLID_29_" class="st1"><defs><path id="XMLID_30_" d="M121.6 31.5c-.3 1.9-.8 3.8-1.4 5.7-.6 1.7-1.3 3.4-2.4 4.8-1.4 1.7-3.3 2.9-4.7 4.6-5.3 6.6.5 17.7-4.6 24.5-2.1 2.8-5.7 4.2-9.1 4.8-6.1 1.2-12.7.7-18 3.8-7.8 4.5-10 14.7-15.7 21.7-7.8 9.6-23.1 12.1-33.6 5.5-5.1-3.2-9.4-8.3-15.4-8.8-1.7-.1-3.3.1-5 .3-1.5-3.3-2.7-6.7-3.6-10.2 1.5.3 3 .9 4.3 1.4 9.2 3.6 17 10.5 26.8 12.5 8.8 1.8 18.4-1 24.8-7.2 8.3-8 11.8-21.3 22.4-26C90 67.3 94 67 97.6 65.3c9-4.2 7.7-11.8 12.3-19.3 1.2-2 2.8-3.8 3.9-5.9 2.5-4.6 2.6-9.9 1.8-15.1C117.7 27.1 119.7 29.2 121.6 31.5"/></defs><clipPath id="XMLID_99_"><use xlink:href="#XMLID_30_" style="overflow:visible"/></clipPath><linearGradient id="XMLID_100_" gradientUnits="userSpaceOnUse" x1="-890.107" y1="2818.7891" x2="-889.107" y2="2818.7891" gradientTransform="matrix(69.3801 116.6846 116.6846 -69.3801 -267118.9688 299447.9063)"><stop offset="0" style="stop-color:#4e52a1"/><stop offset=".4559" style="stop-color:#3f67b1"/><stop offset="1" style="stop-color:#4f88c7"/></linearGradient><path id="XMLID_31_" class="st5" d="M91.9-24.8 160.5 90.4l-122.7 73L-30.8 48.1z"/></g><g id="XMLID_26_" class="st1"><defs><path id="XMLID_27_" d="M131.6 90.4c-3.7 6.3-12.4 7.5-17.7 12.6-3.4 3.2-5.2 7.7-6.6 12.1-1.2 3.9-2.4 8.3-5.9 10.4-2.3 1.4-5.2 1.4-7.9 1.4-6.3.0-12.7-.1-19-.1-4.5.0-9.3.1-12.8 2.9-1.9 1.6-3.1 3.9-4.8 5.7-8.4-1.8-16.1-5.3-23-10 1.5.4 3.1.6 4.6.8 4.2.6 8.5 1.1 12.8.6 5.3-.6 10.2-2.7 15.4-3.8 6.3-1.2 12.7-.9 19-1.8 6.3-.9 12.9-3.4 16.4-8.7 2.9-4.4 3.3-10.4 7.1-14.2 3.4-3.5 9-4.4 12.4-7.9 4.1-4.2 3.9-10.8 4-16.7.1-4.6.6-9.3 1.4-13.8.7-4 1.9-8.1 4.2-11.2.8 2 1.4 4 2 6-.5.7-.9 1.3-1.3 2C126.6 66.8 137.5 80.5 131.6 90.4"/></defs><clipPath id="XMLID_101_"><use xlink:href="#XMLID_27_" style="overflow:visible"/></clipPath><linearGradient id="XMLID_102_" gradientUnits="userSpaceOnUse" x1="-890.107" y1="2818.8171" x2="-889.107" y2="2818.8171" gradientTransform="matrix(69.3802 116.6848 116.6848 -69.3802 -267117.25 299447.125)"><stop offset="0" style="stop-color:#4e52a1"/><stop offset=".4559" style="stop-color:#3f67b1"/><stop offset="1" style="stop-color:#4f88c7"/></linearGradient><path id="XMLID_28_" class="st6" d="M110.5 3.1 175.6 112.7 61 180.8-4.1 71.2z"/></g><g id="XMLID_22_" class="st7"><g id="XMLID_23_"><defs><path id="XMLID_24_" d="M86.2 20.4h23.5v16.3H86.2z"/></defs><clipPath id="XMLID_103_"><use xlink:href="#XMLID_24_" style="overflow:visible"/></clipPath><path id="XMLID_25_" class="st8" d="M95.3 35.4C89 32.9 85 27.9 86.5 24.1c1.5-3.8 7.8-4.8 14.1-2.3 6.3 2.5 10.3 7.5 8.8 11.2C108 36.8 101.6 37.8 95.3 35.4"/></g></g><g id="XMLID_18_" class="st7"><g id="XMLID_19_"><defs><path id="XMLID_20_" d="M65.7 13.3h13.9v10.8H65.7z"/></defs><clipPath id="XMLID_104_"><use xlink:href="#XMLID_20_" style="overflow:visible"/></clipPath><path id="XMLID_21_" class="st9" d="M70.8 23.5c-3.7-1.4-5.9-4.7-4.9-7.3 1-2.6 4.9-3.6 8.6-2.1 3.7 1.4 5.9 4.7 4.9 7.4C78.4 24 74.5 24.9 70.8 23.5"/></g></g><g id="XMLID_12_" class="st10"><g id="XMLID_13_"><defs><path id="XMLID_14_" d="M17.3 78.8h80.6v53.3H17.3z"/></defs><clipPath id="XMLID_105_"><use xlink:href="#XMLID_14_" style="overflow:visible"/></clipPath><g id="XMLID_15_" class="st11"><defs><path id="XMLID_16_" d="M65.1 132c12.5.3 25-7.1 30.2-18.5 2.4-5.3 3.6-12.8 1.9-18.6-1.7-5.7-7.8-5-12.4-4C70 94 56 85.3 42.4 81.4c-5-1.4-11-3.4-16.2-2.3-4.4 1-7.4 3.8-8.5 8.2-1.8 7.3 3.1 15.4 7.8 20.6C35.7 119.3 48.6 131.7 65.1 132"/></defs><clipPath id="XMLID_106_"><use xlink:href="#XMLID_16_" style="overflow:visible"/></clipPath><linearGradient id="XMLID_107_" gradientUnits="userSpaceOnUse" x1="-893.1502" y1="2821.4407" x2="-892.1502" y2="2821.4407" gradientTransform="matrix(80.6045 0 0 -80.6045 72009.2344 227525.8125)"><stop offset="0" style="stop-color:#b76fab"/><stop offset=".4559" style="stop-color:#427abe"/><stop offset="1" style="stop-color:#bee4f5"/></linearGradient><path id="XMLID_17_" class="st12" d="M15.9 78h82.9v54.3H15.9z"/></g></g></g><g id="XMLID_8_" class="st13"><g id="XMLID_9_"><defs><path id="XMLID_10_" d="M29.3 39h18.5v80.5H29.3z"/></defs><clipPath id="XMLID_108_"><use xlink:href="#XMLID_10_" style="overflow:visible"/></clipPath><path id="XMLID_11_" class="st14" d="M47.8 119.5C39 93.7 35.4 66.2 37.3 39c-5.9 13.2-9.1 27.8-7.7 42.2C31 95.6 37.1 109.7 47.8 119.5"/></g></g><path id="XMLID_7_" class="st15" d="M73.2 89.5c0 3.8-3.1 6.9-6.9 6.9-3.8.0-6.9-3.1-6.9-6.9.0-3.8 3.1-6.9 6.9-6.9C70.1 82.6 73.2 85.7 73.2 89.5"/><path id="XMLID_6_" class="st15" d="M83.7 61.3c0 0 .4 4.2 2.3 6.2 1.9 2 5 2 5 2s-3 .4-4.9 2.1c-2.1 1.7-2.4 6.5-2.4 6.5s-.2-4.5-2.2-6.4c-1.8-1.8-5.2-2.2-5.2-2.2s3.5-.4 5.2-2.1C83.7 65.3 83.7 61.3 83.7 61.3"/></g></g></svg>