<svg id="圖層_1" xmlns="http://www.w3.org/2000/svg" xmlns:xlink="http://www.w3.org/1999/xlink" viewBox="0 0 73 73" style="enable-background:new 0 0 73 73"><style>.st0{fill:#162f7d}</style><path class="st0" d="M62.2.0H10.8C4.8.0.0 4.8.0 10.8v51.5C0 68.2 4.8 73 10.8 73h51.5C68.2 73 73 68.2 73 62.2V10.8C73 4.8 68.2.0 62.2.0M65 58.5c0 1.3-1 2.3-2.3 2.3H51.4c-1.3.0-2.3-1-2.3-2.3v-9c0-1.3 1-2.3 2.3-2.3h3.5v-7.3H39v7.3h3.6c1.3.0 2.3 1 2.3 2.3v9c0 1.3-1 2.3-2.3 2.3H31.3c-1.3.0-2.3-1-2.3-2.3v-9c0-1.3 1-2.3 2.3-2.3h3.1v-7.3H18.5v7.3h3.3c1.3.0 2.3 1 2.3 2.3v9c0 1.3-1 2.3-2.3 2.3H10.5c-1.3.0-2.3-1-2.3-2.3v-9c0-1.3 1-2.3 2.3-2.3h3.4v-9.3-.7-.1c0-1.1.9-2 2-2h18.5v-3.6H20.7c-1.2.0-2.1-1-2.1-2.1V20c0-1.2 1-2.1 2.1-2.1h31.9c1.2.0 2.1 1 2.1 2.1v9.4c0 1.2-1 2.1-2.1 2.1H39v3.6h18.5c1 0 1.9.8 2 1.8h0v.2.7 9.3h3.2c1.3.0 2.3 1 2.3 2.3V58.5z"/></svg>