<svg xmlns="http://www.w3.org/2000/svg" xmlns:xlink="http://www.w3.org/1999/xlink" viewBox="0 0 169.9 187.8" style="enable-background:new 0 0 169.9 187.8"><style>.st0{fill:#fff}.st1{opacity:.8}.st2{opacity:.5;clip-path:url(#SVGID_2_)}.st3{clip-path:url(#SVGID_4_)}.st4{clip-path:url(#SVGID_6_);fill:url(#SVGID_7_)}.st5{clip-path:url(#SVGID_2_)}.st6{clip-path:url(#SVGID_9_);fill:url(#SVGID_10_)}.st7{clip-path:url(#SVGID_12_);fill:url(#SVGID_13_)}.st8{clip-path:url(#SVGID_15_);fill:url(#SVGID_16_)}.st9{clip-path:url(#SVGID_18_);fill:url(#SVGID_19_)}.st10{clip-path:url(#SVGID_21_);fill:url(#SVGID_22_)}.st11{clip-path:url(#SVGID_24_);fill:url(#SVGID_25_)}.st12{clip-path:url(#SVGID_2_);fill:#fff}.st13{fill:#1b1464}</style><g id="圖層_4"><path id="XMLID_180_" class="st0" d="M150.9 97.3c0 38.2-30.9 69.1-69.1 69.1-38.2.0-69.1-30.9-69.1-69.1s30.9-69.1 69.1-69.1C119.9 28.2 150.9 59.1 150.9 97.3"/></g><g id="圖層_2"><g class="st1"><g><defs><path id="SVGID_1_" d="M0 0h169.9v187.8H0z"/></defs><clipPath id="SVGID_2_"><use xlink:href="#SVGID_1_" style="overflow:visible"/></clipPath><g class="st2"><g><defs><path id="SVGID_3_" d="M0 0h169.9v187.8H0z"/></defs><clipPath id="SVGID_4_"><use xlink:href="#SVGID_3_" style="overflow:visible"/></clipPath><g class="st3"><defs><path id="SVGID_5_" d="M169.9 94.8c-5.9 3-8.9 9.8-9.8 16.4-.9 6.6-.2 13.3-1.1 19.8-1.5 11.1-8.1 21.8-18 26.9-4.3 2.2-9 3.4-13.5 5.1-5.4 2.1-10.6 5.1-15.1 8.8-2.1 1.7-4.1 3.8-4.7 6.4-1.1 5 5.3 9.8 9.8 7.3-3.5 4.1-14.3 1.6-21-1-6.7-2.6-38.8-19.9-60.1-4 1.7-8.5-1.4-17.6-7.2-24-4.4-4.8-10.6-7.5-15.8-11.2-5.3-3.7-9.5-9.4-11.8-15.6-2-5.6-2.3-11.9.2-17.3.1 6.5 6.3 6.5 6.4 2.2.1-6.4-5.2-11.7-6.1-18-.9-6.1 2.7-8.3 5.2-13 1.7-3.1 3.5-7.6 2.7-11.2-.3-1.6-1.7-4.5-3.9-3.9-2.8.7-2 6.2-1.8 8.1-3.9-8.1-2.5-18.4 3.5-25.2 8.3-9.5 25.3-12.2 29.5-25.3 1-3.2 1.4-10.7-5.1-10.5 7.3-2.8 9.8 4.7 15.5 7.6 6.2 3.2 13.8 1 19.1-3.6 5.2-4.6 9-10.7 14.7-14.8 6-4.4 13.9-6 21.2-4.4-5.4.1-12.4 1.8-12.9 7.2-.3 3.3 2.2 6.2 4.9 8 9.6 6.2 22.2 3.4 33.5 4.8 6.2.8 12.2 2.9 17.5 6.2 6.1 3.8 11.6 10.5 9.8 17.4-.3-6.4-7.6-8.1-11.2-4.5-4.3 4.4-4.5 11.8-.8 16.7 3.7 4.9 9.9 7.3 15.9 8.2C152.7 74.1 155.7 94 169.9 94.8"/></defs><clipPath id="SVGID_6_"><use xlink:href="#SVGID_5_" style="overflow:visible"/></clipPath><linearGradient id="SVGID_7_" gradientUnits="userSpaceOnUse" x1="-882.8123" y1="2847.7671" x2="-881.8123" y2="2847.7671" gradientTransform="matrix(190.7548 157.5657 157.5657 -190.7548 -280320.9375 682341.4375)"><stop offset="0" style="stop-color:#009a7a"/><stop offset=".9923" style="stop-color:#0066c4"/><stop offset="1" style="stop-color:#0066c4"/></linearGradient><path class="st4" d="M68.5-84.8 263.6 76.3 100.7 273.5-94.3 112.4z"/></g></g></g><g class="st5"><defs><path id="SVGID_8_" d="M150.9 97.3c0 38.2-30.9 69.1-69.1 69.1-38.2.0-69.1-30.9-69.1-69.1s30.9-69.1 69.1-69.1C119.9 28.2 150.9 59.1 150.9 97.3"/></defs><clipPath id="SVGID_9_"><use xlink:href="#SVGID_8_" style="overflow:visible"/></clipPath><linearGradient id="SVGID_10_" gradientUnits="userSpaceOnUse" x1="-885.0629" y1="2849.0552" x2="-884.0629" y2="2849.0552" gradientTransform="matrix(149.0979 123.1566 123.1566 -149.0979 -218910.9219 533825.9375)"><stop offset="0" style="stop-color:#bdfee3"/><stop offset=".9885" style="stop-color:#00deea"/><stop offset="1" style="stop-color:#00deea"/></linearGradient><path class="st6" d="M68.7-39.6 218.7 84.2 94.8 234.2-55.1 110.3z"/></g><g class="st5"><defs><path id="SVGID_11_" d="M135.9 66.3c10.3 20.3 11.8 45-3.4 63.1-12.8 15.3-31.7 21.7-51.1 15.2-6.7-2.3-13-5.8-19.7-7.9-4.3-1.4-8.8-2.2-13.1-3.5-11.9-3.8-22.4-12.4-27.7-23.8-7.3-15.5-2.3-32.4 5.9-46.4 4.2-7.2 9.9-13.4 16.6-18.4 13.8-10.3 31.4-14.6 48.4-12.3 7.6 1 15.3 2.5 21.6 7C122.6 46 130.5 55.5 135.9 66.3"/></defs><clipPath id="SVGID_12_"><use xlink:href="#SVGID_11_" style="overflow:visible"/></clipPath><linearGradient id="SVGID_13_" gradientUnits="userSpaceOnUse" x1="-887.2532" y1="2848.6091" x2="-886.2532" y2="2848.6091" gradientTransform="matrix(121.3642 123.3466 129.3684 -111.6548 -260817.0156 427531.6875)"><stop offset="0" style="stop-color:#00f4c6"/><stop offset=".9885" style="stop-color:#00bcd0"/><stop offset="1" style="stop-color:#00bcd0"/></linearGradient><path class="st7" d="M86.2-32.7 212.2 95.4 75.2 213.7-50.9 85.6z"/></g><g class="st5"><defs><path id="SVGID_14_" d="M58.3 47.1c-7.3.8-13.9 6-18.6 11.2C34.9 63.7 28.9 73.4 29.2 81c.2 6.9 6.1 12.1 12.9 10.2 8-2.2 14.1-8.7 19.3-15.3 3.7-4.7 7.2-9.8 8.4-15.7 1.7-7.6-3.8-13.9-11.4-13.2C58.4 47.1 58.3 47.1 58.3 47.1"/></defs><clipPath id="SVGID_15_"><use xlink:href="#SVGID_14_" style="overflow:visible"/></clipPath><linearGradient id="SVGID_16_" gradientUnits="userSpaceOnUse" x1="-886.1286" y1="2849.583" x2="-885.1286" y2="2849.583" gradientTransform="matrix(134.923 112.7775 112.7775 -134.923 -201805.1563 484441.25)"><stop offset="0" style="stop-color:#d9ffef"/><stop offset=".00383142" style="stop-color:#d9ffef"/><stop offset=".9847" style="stop-color:#44ffde"/><stop offset="1" style="stop-color:#44ffde"/></linearGradient><path class="st8" d="M46.4 25.4 94.5 65.6 54 114 6 73.9z"/></g><g class="st5"><defs><path id="SVGID_17_" d="M119.7 130.3c-2.9 2.2-6.3 3.9-10.1 5.1-9 2.9-19.1 2.5-27.8-1.2 13.6-5.5 24.8-24.6 30.7-37.5 6.5-14.1 9.3-30.2 6.1-45.4C138.8 70.2 142.9 113.1 119.7 130.3"/></defs><clipPath id="SVGID_18_"><use xlink:href="#SVGID_17_" style="overflow:visible"/></clipPath><linearGradient id="SVGID_19_" gradientUnits="userSpaceOnUse" x1="-886.6351" y1="2849.2236" x2="-885.6351" y2="2849.2236" gradientTransform="matrix(127.2548 116.4144 116.4144 -127.2548 -218837.875 465808.5938)"><stop offset="0" style="stop-color:#00e5bb"/><stop offset=".9885" style="stop-color:#00a1ba"/><stop offset="1" style="stop-color:#00a1ba"/></linearGradient><path class="st9" d="M109.7 20.9 186.3 91 115.1 168.8 38.5 98.7z"/></g><g class="st5"><defs><path id="SVGID_20_" d="M91.2 59.2c-2.1 3.6-6.1 5.3-8.8 3.7-2.8-1.6-3.3-5.9-1.1-9.5 2.1-3.6 6.1-5.3 8.8-3.7C92.9 51.3 93.4 55.6 91.2 59.2"/></defs><clipPath id="SVGID_21_"><use xlink:href="#SVGID_20_" style="overflow:visible"/></clipPath><linearGradient id="SVGID_22_" gradientUnits="userSpaceOnUse" x1="-901.9872" y1="2844.2561" x2="-900.9872" y2="2844.2561" gradientTransform="matrix(32.8813 78.1983 79.7024 -23.9288 -196960.2031 138623.9063)"><stop offset="0" style="stop-color:#d9ffef"/><stop offset=".00383142" style="stop-color:#d9ffef"/><stop offset=".9847" style="stop-color:#44ffde"/><stop offset="1" style="stop-color:#44ffde"/></linearGradient><path class="st10" d="M91.8 44.3 99.5 62.7 80.7 68.3 73 50z"/></g><g class="st5"><defs><path id="SVGID_23_" d="M28.5 134.4c0 0 18.8 27.3 52.6 27.9 33.8.5 52.1-25.6 52.1-25.6s-23 23.1-56.3 19.3C43.5 152.1 28.5 134.4 28.5 134.4"/></defs><clipPath id="SVGID_24_"><use xlink:href="#SVGID_23_" style="overflow:visible"/></clipPath><linearGradient id="SVGID_25_" gradientUnits="userSpaceOnUse" x1="-883.174" y1="2853.1296" x2="-882.174" y2="2853.1296" gradientTransform="matrix(165.3903 58.5018 58.5018 -165.3903 -20826.3516 523673.9063)"><stop offset="0" style="stop-color:#c5ffef"/><stop offset=".9885" style="stop-color:#81ffff"/><stop offset="1" style="stop-color:#81ffff"/></linearGradient><path class="st11" d="M40.2 101.5 142.1 137.5 121.5 195.7 19.6 159.6z"/></g><path class="st12" d="M75.2 61.7c0 3-2.4 5.4-5.4 5.4s-5.4-2.4-5.4-5.4c0-3 2.4-5.4 5.4-5.4S75.2 58.7 75.2 61.7"/><path class="st12" d="M66.9 138.8c-.6 2.9-5.8 4.3-11.6 3.1-5.8-1.2-10-4.5-9.4-7.5s5.8-4.3 11.6-3.1C63.3 132.6 67.5 135.9 66.9 138.8"/><path class="st12" d="M125.8 111.6c0 0 .8 8.1 4.5 12 3.6 3.8 9.7 4 9.7 4s-5.8.9-9.5 4c-4 3.3-4.6 12.6-4.6 12.6s-.4-8.7-4.2-12.4c-3.4-3.4-10-4.2-10-4.2s6.7-.8 10.1-4.1C125.8 119.3 125.8 111.6 125.8 111.6"/></g></g><path class="st13" d="M79.3 45.8 64.9 70.7c-.9 1.5.2 3.4 2 3.4h28.7c1.8.0 2.9-1.9 2-3.4L83.2 45.8C82.3 44.3 80.2 44.3 79.3 45.8"/><g id="XMLID_170_"><path id="XMLID_171_" class="st13" d="M68.9 96.3v4.6h-6.8V124h-5.3v-23.1H50v-4.6H68.9z"/><path id="XMLID_173_" class="st13" d="M93.9 109.8c0 9.6-4.9 14.6-11.8 14.6-7.3.0-11.4-6.1-11.4-14.1.0-8.3 4.6-14.4 11.8-14.4C90.2 95.8 93.9 102.4 93.9 109.8zM76.3 110.1c0 5.4 2.1 9.9 6 9.9 4 0 6-4.4 6-10 0-5.1-1.9-9.8-6-9.8C78.2 100.2 76.3 105 76.3 110.1z"/><path id="XMLID_176_" class="st13" d="M98 123.9V96.6c1.7-.3 4.1-.6 7.2-.6 3.5.0 6.1.7 7.9 2.2 1.7 1.4 2.7 3.6 2.7 6.2.0 7.6-6.3 9.3-10.5 9.3-.8.0-1.4.0-1.9-.1v10.4H98zM103.3 109.4c.5.1 1.1.1 1.9.1 3.3.0 5.3-1.9 5.3-4.9.0-3-1.9-4.5-4.8-4.5-1.1.0-1.8.1-2.3.2V109.4z"/></g></g></svg>