<?xml version="1.0" encoding="utf-8"?>
<!-- Generator: Adobe Illustrator 21.0.0, SVG Export Plug-In . SVG Version: 6.00 Build 0)  -->
<svg version="1.1" id="圖層_1" xmlns="http://www.w3.org/2000/svg" xmlns:xlink="http://www.w3.org/1999/xlink" x="0px" y="0px"
	 viewBox="0 0 822.9 601.4" style="enable-background:new 0 0 822.9 601.4;" xml:space="preserve">
<style type="text/css">
	.st0{fill:url(#SVGID_1_);}
	.st1{fill:#A7B3BD;}
	.st2{opacity:0.5;fill:#DEE6EE;}
	.st3{opacity:0.6;clip-path:url(#SVGID_3_);}
	.st4{fill:#C8D5E2;}
	.st5{fill:#A3372A;}
	.st6{fill:#D2503A;}
	.st7{fill:url(#SVGID_4_);}
	.st8{fill:#C9A990;}
	.st9{fill:#231815;}
	.st10{fill:#C78C38;}
	.st11{fill:#F0C455;}
	.st12{opacity:0.7;fill:url(#SVGID_5_);}
	.st13{opacity:0.7;fill:url(#SVGID_6_);}
	.st14{fill:url(#SVGID_7_);}
	.st15{fill:url(#SVGID_8_);}
	.st16{fill:url(#SVGID_9_);}
	.st17{fill:url(#SVGID_10_);}
	.st18{fill:url(#SVGID_11_);}
	.st19{fill:url(#SVGID_12_);}
	.st20{fill:#9A7138;}
	.st21{fill:#C69551;}
	.st22{opacity:0.6;fill:#BDB054;}
	.st23{fill:url(#SVGID_13_);}
	.st24{fill:url(#SVGID_14_);}
	.st25{fill:url(#SVGID_15_);}
	.st26{fill:url(#SVGID_16_);}
	.st27{fill:url(#SVGID_17_);}
	.st28{fill:url(#SVGID_18_);}
	.st29{fill:url(#SVGID_19_);}
	.st30{fill:url(#SVGID_20_);}
	.st31{fill:url(#SVGID_21_);}
	.st32{fill:#9B7B66;}
	.st33{fill:#A5AAB0;}
	.st34{fill:#DBB296;}
	.st35{fill:#58381F;}
	.st36{fill:url(#SVGID_22_);}
	.st37{opacity:0.5;fill:#A3842F;}
	.st38{opacity:0.61;fill:#58381F;}
	.st39{fill:#C6A668;}
	.st40{fill:#A4A626;}
	.st41{fill:url(#SVGID_23_);}
	.st42{opacity:0.6;fill:#D6D97E;}
	.st43{opacity:0.6;}
	.st44{fill:url(#SVGID_24_);}
	.st45{fill:url(#SVGID_25_);}
	.st46{fill:url(#SVGID_26_);}
	.st47{fill:url(#SVGID_27_);}
	.st48{opacity:0.5;}
	.st49{fill:url(#SVGID_28_);}
	.st50{fill:#9DA445;}
	.st51{fill:#B24422;}
	.st52{fill:url(#SVGID_29_);}
	.st53{fill:#FFFFFF;}
	.st54{fill:#886343;}
	.st55{fill:#6D4620;}
	.st56{opacity:0.4;fill:#D2503A;}
	.st57{fill:#F3B699;}
	.st58{fill:url(#SVGID_30_);}
	.st59{fill:url(#SVGID_31_);}
	.st60{fill:url(#SVGID_32_);}
	.st61{fill:url(#SVGID_33_);}
	.st62{fill:url(#SVGID_34_);}
	.st63{fill:#E1BE3F;}
	.st64{fill:#AB6C21;}
	.st65{opacity:0.6;fill:#E1BE3F;}
	.st66{fill:url(#SVGID_35_);}
	.st67{fill:#66411D;}
	.st68{fill:url(#SVGID_36_);}
	.st69{fill:#D9B974;}
	.st70{fill:#DCBF93;}
	.st71{fill:url(#SVGID_37_);}
	.st72{fill:url(#SVGID_38_);}
	.st73{fill:url(#SVGID_39_);}
	.st74{fill:url(#SVGID_40_);}
	.st75{fill:#8C5924;}
	.st76{fill:url(#SVGID_41_);}
	.st77{fill:url(#SVGID_42_);}
	.st78{fill:url(#SVGID_43_);}
	.st79{fill:url(#SVGID_44_);}
	.st80{fill:#F4E3A5;}
	.st81{fill:#DEB87D;}
	.st82{fill:url(#SVGID_45_);}
	.st83{fill:url(#SVGID_46_);}
	.st84{fill:#3F210F;}
	.st85{opacity:0.25;fill:#E1BE3F;}
	.st86{opacity:0.5;fill:#E1BE3F;}
	.st87{fill:#F8E5A9;}
	.st88{fill:#DDBC90;}
	.st89{opacity:0.4;fill:#E1BE3F;}
	.st90{fill:#875424;}
	.st91{fill:#3F210E;}
	.st92{fill:#C88E2C;}
	.st93{fill:#AC7327;}
	.st94{fill:#814323;}
	.st95{fill:#D7C6A6;}
	.st96{fill:url(#SVGID_47_);}
	.st97{fill:#4A1E0E;}
	.st98{fill:#3A1D13;}
	.st99{fill:url(#SVGID_48_);}
	.st100{fill:#EAA593;}
	.st101{fill:url(#SVGID_49_);}
	.st102{fill:url(#SVGID_50_);}
	.st103{fill:#2C2C2C;}
	.st104{fill:#767776;}
	.st105{fill:#B1B0B0;}
	.st106{fill:#D2D2D3;}
	.st107{fill:#5A5756;}
	.st108{opacity:0.8;fill:#2C2C2C;}
	.st109{fill:#151515;}
	.st110{fill:#383737;}
	.st111{fill:url(#SVGID_51_);}
	.st112{fill:#517F99;}
	.st113{fill:url(#SVGID_52_);}
	.st114{fill:url(#SVGID_53_);}
	.st115{fill:url(#SVGID_54_);}
	.st116{fill:url(#SVGID_55_);}
	.st117{fill:url(#SVGID_56_);}
	.st118{fill:#4E7392;}
	.st119{fill:#3B627C;}
	.st120{fill:#2C404B;}
	.st121{fill:#4E6673;}
	.st122{fill:url(#SVGID_57_);}
	.st123{opacity:0.6;fill:#D59543;}
	.st124{fill:url(#SVGID_58_);}
	.st125{fill:url(#SVGID_59_);}
	.st126{fill:#E5A852;}
	.st127{fill:#D6B092;}
	.st128{fill:url(#SVGID_60_);}
	.st129{opacity:0.8;fill:#D59543;}
	.st130{fill:url(#SVGID_61_);}
	.st131{fill:url(#SVGID_62_);}
	.st132{fill:url(#SVGID_63_);}
	.st133{fill:url(#SVGID_64_);}
	.st134{fill:url(#SVGID_65_);}
	.st135{fill:url(#SVGID_66_);}
	.st136{fill:url(#SVGID_67_);}
	.st137{fill:url(#SVGID_68_);}
	.st138{opacity:0.25;fill:#D59543;}
	.st139{opacity:0.5;fill:#D59543;}
	.st140{fill:#FAF4C2;}
	.st141{fill:#C9793C;}
	.st142{fill:#9E5929;}
	.st143{fill:url(#SVGID_69_);}
	.st144{fill:#883828;}
	.st145{fill:url(#SVGID_70_);}
	.st146{fill:url(#SVGID_71_);}
	.st147{fill:url(#SVGID_72_);}
	.st148{fill:#A75D35;}
	.st149{fill:#EED29C;}
	.st150{fill:#7D4320;}
</style>
<g>
	<g>
		<linearGradient id="SVGID_1_" gradientUnits="userSpaceOnUse" x1="276.3869" y1="316.7847" x2="380.3871" y2="316.7847">
			<stop  offset="0" style="stop-color:#F2D397"/>
			<stop  offset="0.5331" style="stop-color:#F3D093"/>
			<stop  offset="0.7526" style="stop-color:#F5CC8F"/>
			<stop  offset="1" style="stop-color:#F3B699"/>
		</linearGradient>
		<path class="st0" d="M376.8,359.2l-8.8-20c-0.6-8.8-9.1-20-13.9-25.6c20.2-25.5,36.7-38.7,36.7-38.7s8.8-2.7,9.3,3.9
			c0,0,3.8,18.3,0,33.7c-3.8,15.3-7.2,19.6-7.2,19.6S385.2,344.3,376.8,359.2z"/>
		<path class="st123" d="M376.7,359l-8.7-19.7c-0.2-3.4-1.7-7.3-3.6-11c9.7-19.1,18.8-32.7,18.8-32.7h18.6l-4.5,20.5
			C388.6,339,380.7,352.7,376.7,359z"/>
		<g>
			<path class="st64" d="M377.4,360.6l-1.3-3c6-11.6,11.6-21.6,15-25.5c0.5-0.5,1.2-0.6,1.8-0.1c0.5,0.5,0.6,1.2,0.1,1.8
				C389.5,337.7,383.6,348.3,377.4,360.6z"/>
			<path class="st64" d="M354.5,314.2c-1.2-1.4-2.2-2.6-2.9-3.3c19.6-24.3,36.5-36.6,36.5-36.6l2,0.9c0.2,0,0.4,0.1,0.5,0.2
				c0.2,0.3,0.2,0.7-0.1,0.9C390.2,276.7,374.2,289.6,354.5,314.2z"/>
		</g>
	</g>
	<g>
		
			<linearGradient id="SVGID_3_" gradientUnits="userSpaceOnUse" x1="3437.929" y1="316.7847" x2="3541.929" y2="316.7847" gradientTransform="matrix(-1 0 0 1 4056.4385 0)">
			<stop  offset="0" style="stop-color:#F2D397"/>
			<stop  offset="0.5331" style="stop-color:#F3D093"/>
			<stop  offset="0.7526" style="stop-color:#F5CC8F"/>
			<stop  offset="1" style="stop-color:#F3B699"/>
		</linearGradient>
		<path style="fill:url(#SVGID_3_);" d="M518.1,359.2l8.8-20c0.6-8.8,9.1-20,13.9-25.6c-20.2-25.5-36.7-38.7-36.7-38.7
			s-8.8-2.7-9.3,3.9c0,0-3.8,18.3,0,33.7c3.8,15.3,7.2,19.6,7.2,19.6S509.7,344.3,518.1,359.2z"/>
		<path class="st123" d="M518.2,359l8.7-19.7c0.2-3.4,1.7-7.3,3.6-11c-9.7-19.1-18.8-32.7-18.8-32.7h-18.6l4.5,20.5
			C506.3,339,514.2,352.7,518.2,359z"/>
		<g>
			<path class="st64" d="M517.5,360.6l1.3-3c-6-11.6-11.6-21.6-15-25.5c-0.5-0.5-1.2-0.6-1.8-0.1c-0.5,0.5-0.6,1.2-0.1,1.8
				C505.4,337.7,511.3,348.3,517.5,360.6z"/>
			<path class="st64" d="M540.4,314.2c1.2-1.4,2.2-2.6,2.9-3.3c-19.6-24.3-36.5-36.6-36.5-36.6l-2,0.9c-0.2,0-0.4,0.1-0.5,0.2
				c-0.2,0.3-0.2,0.7,0.1,0.9C504.7,276.7,520.7,289.6,540.4,314.2z"/>
		</g>
	</g>
	<g>
		<linearGradient id="SVGID_4_" gradientUnits="userSpaceOnUse" x1="529.0314" y1="460.3147" x2="599.8416" y2="460.3147">
			<stop  offset="0" style="stop-color:#F2D397"/>
			<stop  offset="0.5331" style="stop-color:#F3D093"/>
			<stop  offset="0.7526" style="stop-color:#F5CC8F"/>
			<stop  offset="1" style="stop-color:#F3B699"/>
		</linearGradient>
		<path class="st7" d="M594.6,490.4c-5.4,2-12.3-0.8-17-2.9c-21.3-10.8-30.9-33.8-34.9-51.4l-8.8-13.7L529,444l3.4,14.1l6,9.5
			c8.5,13.7,18.9,25,34.5,28.9c7.1,1.8,18.2,3,24.1-1.4C604.6,488.9,594.6,490.4,594.6,490.4z"/>
		<path class="st126" d="M599.6,497.9c-11.6-11.7-1.2-24.7,12.6-26.5c8.4-1.2,21.6-1.5,22.2-12.7
			C639.2,475.8,619.9,513.5,599.6,497.9z"/>
		<path class="st127" d="M633.4,473.7c-1.5,8.7-11.8,17.4-11.8,17.4c0.5-1.2,1.6-7.1,1.6-7.1c-5.7,15.4-27,7.7-27,7.7l-0.3,0.9
			c0.8,1.8,2,3.5,3.8,5.3c15,11.5,29.4-6,34-22.8L633.4,473.7z"/>
		<path class="st123" d="M542.1,458.1c0,0,6.8,25,20.3,33.7c0,0-12.3-5.1-24-21.1L542.1,458.1z"/>
		<path class="st64" d="M585.3,498.8c-5.3,0-10.3-1.1-12.5-1.6c-13.8-3.4-24.5-12.4-34.9-29.2c-0.2-0.3-0.1-0.7,0.2-0.9
			c0.3-0.2,0.7-0.1,0.9,0.2c10.2,16.5,20.7,25.3,34.1,28.6c7.9,2,18.2,2.7,23.5-1.3c0.3-0.2,0.7-0.2,0.9,0.1
			c0.2,0.3,0.2,0.7-0.1,0.9C594.2,498.1,589.6,498.8,585.3,498.8z"/>
		<path class="st64" d="M590.5,491.8c-4.9,0-10-2.2-13-3.6c-23.1-11.7-32-37.5-35.3-51.8c-0.1-0.3,0.1-0.7,0.5-0.8
			c0.3-0.1,0.7,0.1,0.8,0.5c3.2,14.1,12,39.5,34.6,51c3.8,1.7,11,4.8,16.4,2.8c0.3-0.1,0.7,0,0.8,0.4c0.1,0.3,0,0.7-0.4,0.8
			C593.4,491.6,592,491.8,590.5,491.8z"/>
		<path class="st75" d="M609.5,502.3c-3.5,0-6.9-1.3-10.3-3.8c0,0,0,0-0.1-0.1c-4.7-4.7-6.3-10.1-4.5-15.2
			c2.2-6.4,9.2-11.4,17.5-12.4c0.9-0.1,1.8-0.2,2.8-0.4c8.2-1,18.4-2.3,18.9-11.7c0-0.3,0.3-0.6,0.6-0.6c0.3,0,0.6,0.2,0.7,0.5
			c3.4,12.1-4.9,32.9-16.1,40.5C615.8,501.2,612.7,502.3,609.5,502.3z M600.1,497.4c5.9,4.5,12.1,4.7,18.2,0.6
			c9.9-6.7,17.4-24,16.2-35.8c-2.6,7.4-12.1,8.6-19.3,9.5c-1,0.1-1.9,0.2-2.8,0.4c-7.8,1-14.5,5.7-16.5,11.6
			C594.8,486.9,594.6,491.9,600.1,497.4z"/>
		<path class="st64" d="M545.4,439.4c0,0,6.7,28.6,27.5,44.7c0,0-15.7-6.8-26.6-35.5l-2.9-7.3L545.4,439.4z"/>
		<path class="st64" d="M539.6,473.5c0,0,15,19.2,28.1,22.2l-11.9-7.4c0,0-14.7-13.9-16.2-17.5V473.5z"/>
	</g>
	<g>
		<linearGradient id="SVGID_5_" gradientUnits="userSpaceOnUse" x1="349.9659" y1="491.0511" x2="544.2831" y2="491.0511">
			<stop  offset="0" style="stop-color:#F2D397"/>
			<stop  offset="0.5331" style="stop-color:#F3D093"/>
			<stop  offset="0.7526" style="stop-color:#F5CC8F"/>
			<stop  offset="1" style="stop-color:#F3B699"/>
		</linearGradient>
		<path style="fill:url(#SVGID_5_);" d="M445.2,458.1L445.2,458.1c0.2,0,0.4,0,0.6,0c-0.4,0-0.7,0-1.1,0l-0.1-3.6l-1-11.3
			l-39.9-23.6l-39.1-10.8l-12.1,5l-1,6.4l0.3,1.3c0.3,30.5,6.4,64.9,22.8,101.1l0,0.5c-7.3,4.8-16.9,13.5-17.6,26.6
			c-1.2,21.4,17.1,22.5,22,22.3l5-0.1c5.2,1.9,11.5,1.8,17.2-0.1l-0.3-0.5c3.5,1.8,7.8,2.4,12.4,2c0,0,19-0.4,25-8.3
			c6-7.9,6.2-15.5,7.3-39.3C446.6,501.8,445.2,458.1,445.2,458.1z"/>
		<path class="st129" d="M366.3,563c2.2-3,8.9-18.3,8.9-18.3c-5.5,12.4,0,19.9,0,19.9c3.8,3.3,11.6,0.5,11.6,0.5
			c-3-10.1,8.6-18.3,8.6-18.3c-7.8,11.5,0,19.3,0,19.3c34.5,6.5,48.3-14.8,48.3-14.8v0c-0.9,5.9-2.5,9.8-5.5,13.8
			c-6,7.9-25,8.3-25,8.3c-4.6,0.4-8.9-0.2-12.4-2l0.3,0.5c-5.7,1.9-12,1.9-17.2,0.1l-5,0.1c-3.5,0.2-13.9-0.3-19-8.5l-0.1-0.2
			c0-0.1-0.1-0.1-0.1-0.2C359.7,563.1,364.1,565.9,366.3,563z"/>
		<path class="st129" d="M423.3,455.2c5.6,2.3,16.9,2.8,21.9,2.9l0,0.2l0.1-0.1c0,0,0,0.7,0.1,2l0,0l0,0c0.3,8.9,1.2,44.7,0.2,65.4
			c-0.4,8.2-0.7,14.5-1.1,19.6C445,505.6,423.3,455.2,423.3,455.2z"/>
		<path class="st64" d="M445.9,458.1c0-0.3-0.3-0.6-0.6-0.6c0,0,0,0,0,0c-0.4,0-0.6,0.3-0.6,0.7c0,0,0,0,0,0l0,0l-2.9,0
			c0,0,3.4,47.1,2.8,73.5c-0.9,19-1.6,25.9-6.9,33c-5.7,7.6-24.3,8.1-24.5,8.1c-6.2,0.6-17.1-0.4-20-12.9
			c-2.3-9.9,7.3-18.1,7.4-18.2c0.3-0.2,0.3-0.6,0.1-0.9c-0.2-0.3-0.6-0.3-0.9-0.1c-0.3,0.2-4.8,4-7,9.7c0,0,0,0,0,0
			c0,0-7.4,12.4,5.2,21.6c-4.5,1-9.2,0.8-13.1-0.5c-0.1-0.2-0.3-0.3-0.5-0.3c0,0,0,0,0,0l-0.3,0c-0.9-0.3-1.7-0.7-2.5-1.1
			c-3.8-2.1-6.4-5.3-7.5-9.3c-3.6-13.2,5.6-20.7,6-21c0.3-0.2,0.3-0.6,0.1-0.9c-0.2-0.3-0.6-0.3-0.9-0.1c-0.1,0-3.6,2.9-5.7,8.2
			c0,0,0,0,0,0c0,0-0.1,0.3-0.3,0.9c0,0.1-0.1,0.2-0.1,0.2c-1.3,3.8-5,16.7,2.8,23.2c-3.6-0.3-9.3-1.4-13.3-5.5
			c-3.7-3.7-5.3-9.1-4.9-16c0.7-13.1,10.7-21.8,18-26.5L375,522c-16.9-37.5-22.6-72.9-22.6-103.3l-0.4-2.5l-0.6-3.8l-1.8-0.8l-1,3.9
			c0,4.9,0.2,9.9,0.6,14.9c0,0,0.4,49.6,21.3,90.5c-5.3,4.2-24.6,21.5-11.6,42.4c0,0,0,0,0,0c0,0.1,0.1,0.1,0.1,0.2
			c0,0,0-0.1-0.1-0.1c0.7,1.2,1.5,2.2,2.5,3.2c5.3,5.3,12.8,6,16.2,6c0,0,0,0,0,0c0,0,0,0,0,0l0,0c0.4,0,0.8,0,1.1,0l4.8-0.1
			c2.6,0.9,5.4,1.4,8.4,1.4c3,0,6.1-0.5,9.2-1.5c0.1,0,0.1-0.1,0.1-0.1c2.6,1.2,5.6,1.8,9,1.8c0.9,0,1.8,0,2.7-0.1
			c0.8,0,19.3-0.5,25.4-8.6c5.9-7.8,6.3-15.2,7.3-37.2l0.1-2.5C447.3,502.1,445.9,458.6,445.9,458.1z"/>
	</g>
	<g>
		<linearGradient id="SVGID_6_" gradientUnits="userSpaceOnUse" x1="350.2322" y1="491.0511" x2="544.0099" y2="491.0511">
			<stop  offset="0" style="stop-color:#F2D397"/>
			<stop  offset="0.5331" style="stop-color:#F3D093"/>
			<stop  offset="0.7526" style="stop-color:#F5CC8F"/>
			<stop  offset="1" style="stop-color:#F3B699"/>
		</linearGradient>
		<path style="fill:url(#SVGID_6_);" d="M520.2,522.8l0.3-0.3c16.9-37.3,22.8-72.6,22.8-103.7c-0.2,0.2-0.3,0.3-0.5,0.5l-0.9-5.6
			l-12.1-5l-39.1,10.8l-39.9,23.6l-1,11.3l-0.3,7.6l0.2,0.4c-0.3,11.5-1.1,43.9-0.1,63.2c1.2,23.8,1.3,31.4,7.3,39.3
			c6,7.9,25,8.3,25,8.3c4.6,0.4,8.9-0.2,12.4-2l-0.3,0.5c5.7,1.9,12,1.9,17.2,0.1l5,0.1c4.9,0.2,23.2-0.8,22-22.3
			C537.4,536.4,527.6,527.6,520.2,522.8z"/>
		<path class="st129" d="M528.7,563c-2.2-3-8.9-18.3-8.9-18.3c5.5,12.4,0,19.9,0,19.9c-3.8,3.3-11.6,0.5-11.6,0.5
			c3-10.1-8.6-18.3-8.6-18.3c7.8,11.5,0,19.3,0,19.3c-34.5,6.5-48.3-14.8-48.3-14.8v0c0.9,5.9,2.5,9.8,5.5,13.8c6,7.9,25,8.3,25,8.3
			c4.6,0.4,8.9-0.2,12.4-2l-0.3,0.5c5.7,1.9,12,1.9,17.2,0.1l5,0.1c3.5,0.2,13.9-0.3,19-8.5l0.1-0.2c0-0.1,0.1-0.1,0.1-0.2
			C535.3,563.1,530.9,565.9,528.7,563z"/>
		<path class="st129" d="M471.8,455.2c-5.6,2.3-16.9,2.8-21.9,2.9l0,0.2l-0.1-0.1c0,0,0,0.7-0.1,2l0,0l0,0
			c-0.3,8.9-1.2,44.7-0.2,65.4c0.4,8.2,0.7,14.5,1.1,19.6C450.1,505.6,471.8,455.2,471.8,455.2z"/>
		<path class="st64" d="M546.4,416l-0.2-1l-0.5-0.3h-0.9l-1.8,0.2l-0.3,2.5l-0.1,2c-0.1,30.3-5.8,65.4-22.6,102.5l-0.5,1.2
			c7.3,4.7,17.3,13.4,18,26.5c0.4,6.9-1.3,12.3-4.9,16c-4.1,4.1-9.7,5.2-13.3,5.5c7.7-6.4,4.2-19.1,2.8-23.1
			c-0.1-0.2-0.2-0.5-0.3-0.7c0,0,0-0.1-0.1-0.1c0-0.1-0.1-0.2-0.1-0.4c0,0,0,0,0,0c0,0,0,0,0,0c-2.1-5.2-5.7-8.1-5.7-8.1
			c-0.3-0.2-0.7-0.2-0.9,0.1c-0.2,0.3-0.2,0.7,0.1,0.9c0.4,0.3,9.6,7.8,6,21c-1.1,4-3.7,7.2-7.5,9.3c-0.8,0.4-1.6,0.8-2.5,1.1
			l-0.3,0c-0.2,0-0.4,0.1-0.5,0.3c-4,1.3-8.6,1.5-13.1,0.5c12.6-9.2,5.2-21.6,5.2-21.6v0c-2.2-5.7-6.7-9.5-7-9.7
			c-0.3-0.2-0.7-0.2-0.9,0.1c-0.2,0.3-0.2,0.7,0.1,0.9c0.1,0.1,9.7,8.3,7.4,18.2c-2.9,12.5-13.8,13.4-20.1,12.9
			c-0.2,0-18.7-0.5-24.5-8.1c-5.3-7.1-6-14-6.9-33c-0.6-26.4,2.8-73.4,2.8-73.4l-2.9,0c0-0.4-0.3-0.6-0.6-0.7c0,0,0,0,0,0
			c-0.3,0-0.6,0.3-0.6,0.6c0,0.4-1.4,44-0.2,67.5l0.1,2.5c1.1,22,1.4,29.4,7.3,37.2c6.1,8.1,24.7,8.6,25.4,8.6
			c0.9,0.1,1.9,0.1,2.8,0.1c3.4,0,6.5-0.6,9.1-1.8c0,0,0.1,0.1,0.1,0.1c3,1,6.1,1.5,9.2,1.5c2.9,0,5.8-0.5,8.4-1.4l4.8,0.1
			c0.3,0,0.7,0,1.1,0c3.4,0,11-0.7,16.2-6c0.9-0.9,1.7-2,2.4-3.2c0,0.1-0.1,0.1-0.1,0.1c0-0.1,0.1-0.1,0.1-0.2c0,0,0.1-0.1,0.1-0.1
			c12.9-20.9-6.3-38.2-11.6-42.4c21-40.9,21.3-90.5,21.3-90.5C546.2,425.5,546.4,420.7,546.4,416z"/>
	</g>
	<linearGradient id="SVGID_7_" gradientUnits="userSpaceOnUse" x1="350.2274" y1="458.1391" x2="544.0154" y2="458.1391">
		<stop  offset="0" style="stop-color:#EFD97F"/>
		<stop  offset="0.1491" style="stop-color:#EED778"/>
		<stop  offset="0.3636" style="stop-color:#EDD165"/>
		<stop  offset="0.6165" style="stop-color:#EBC846"/>
		<stop  offset="0.6947" style="stop-color:#EAC53B"/>
		<stop  offset="1" style="stop-color:#E5AD14"/>
	</linearGradient>
	<path class="st14" d="M447.2,458.1c0.1,0,0.2,0,0.3,0c0.1,0,0.2,0,0.2,0C447.6,458.1,447.4,458.1,447.2,458.1z"/>
	<g>
		<g>
			<linearGradient id="SVGID_8_" gradientUnits="userSpaceOnUse" x1="351.6804" y1="361.8572" x2="543.3512" y2="361.8572">
				<stop  offset="0" style="stop-color:#F2D397"/>
				<stop  offset="0.5331" style="stop-color:#F3D093"/>
				<stop  offset="0.7526" style="stop-color:#F5CC8F"/>
				<stop  offset="1" style="stop-color:#F3B699"/>
			</linearGradient>
			<path class="st15" d="M510.2,294.6L500,277.1l-42.7-11.6l-31.5,7.6l-25.5,4c0,0-11.1,10.6-15.5,17.5c0,0-33,50-33.1,123.4
				c4,2.6,26,16.9,34.8,19.6l8.3,5.5c0,0,8.4,7,36,13.6c0,0,5.8,1.3,15,1.5c0.5,0,0.9,0,1.4,0c0.2,0,0.3,0,0.5,0c0.7,0,1.4,0,2.1,0
				l0,0c15.5-0.3,38.2-4.2,58.7-20.5c0,0,29.2-13,34.8-18.8C543.4,345.2,510.2,294.6,510.2,294.6z"/>
			<g>
				<linearGradient id="SVGID_9_" gradientUnits="userSpaceOnUse" x1="381.3765" y1="358.0956" x2="512.9651" y2="358.0956">
					<stop  offset="0" style="stop-color:#FDEBD1"/>
					<stop  offset="0.899" style="stop-color:#F9E8B4"/>
					<stop  offset="1" style="stop-color:#F8E8B0"/>
				</linearGradient>
				<path class="st16" d="M488.4,281.1c16.3,32.6,30.6,69.3,22,106.3c-2.3,9.8-6.2,19.3-12.6,27.2c-12.3,15.3-31.7,20.6-50.6,20.6
					c-18.9,0-38.3-5.3-50.6-20.6c-6.3-7.9-10.3-17.4-12.6-27.2c-8.7-37,5.6-73.5,21.9-106.1c0,0,33.5,5.5,69.3,1.4L488.4,281.1z"/>
				<path class="st81" d="M447.2,435.8c-15.7,0-37.3-3.6-51.1-20.8c-5.9-7.3-10.1-16.5-12.7-27.4c-8.8-37.6,6.2-75,21.9-106.6
					l0.2-0.4l0.5,0.1c0.3,0.1,33.9,5.5,69.1,1.4l13.6-1.6l0.2,0.4c15.8,31.7,30.8,69.2,22,106.7c-2.5,10.9-6.8,20.1-12.7,27.4
					C484.5,432.1,462.9,435.8,447.2,435.8z M406.3,281.9c-15.6,31.3-30.3,68.3-21.6,105.3c2.5,10.7,6.7,19.7,12.4,26.9
					c13.5,16.8,34.7,20.4,50.1,20.4s36.6-3.5,50.1-20.4c5.7-7.2,9.9-16.2,12.4-26.9c8.7-37-6.1-74.1-21.7-105.5l-12.7,1.5
					C442.1,287.1,410.4,282.6,406.3,281.9z"/>
			</g>
		</g>
		<g>
			<path class="st80" d="M447.2,435.6c-15.6,0-37.2-3.6-50.9-20.8c-5.8-7.3-10.1-16.5-12.6-27.3c-8.8-37.5,6.2-74.8,21.9-106.4
				c0.1-0.2,0.4-0.3,0.6-0.2c0.2,0.1,0.3,0.4,0.2,0.6c-15.7,31.4-30.6,68.6-21.9,105.8c2.5,10.7,6.7,19.8,12.5,27
				c13.6,16.9,34.8,20.4,50.3,20.4c15.4,0,36.7-3.5,50.3-20.4c5.8-7.2,10-16.3,12.5-27c8.7-37.3-6.2-74.5-22-106
				c-0.1-0.2,0-0.5,0.2-0.6c0.2-0.1,0.5,0,0.6,0.2c15.8,31.7,30.8,69.1,22,106.6c-2.5,10.8-6.8,20-12.6,27.3
				C484.3,431.9,462.8,435.6,447.2,435.6z"/>
			<path class="st81" d="M447.2,436.2c-15.8,0-37.5-3.6-51.4-21c-5.9-7.4-10.2-16.6-12.8-27.6c-8.8-37.7,6.2-75.2,22-106.8
				c0.3-0.5,0.9-0.7,1.4-0.5c0.3,0.1,0.4,0.3,0.5,0.6c0.1,0.3,0.1,0.6-0.1,0.8c-15.7,31.3-30.5,68.4-21.8,105.4
				c2.5,10.6,6.6,19.6,12.4,26.7c13.4,16.7,34.5,20.2,49.8,20.2c15.3,0,36.4-3.5,49.8-20.2c5.7-7.1,9.9-16.1,12.4-26.7
				c8.7-37.1-6.2-74.2-21.9-105.6c-0.3-0.5,0-1.2,0.5-1.4c0.5-0.3,1.2,0,1.4,0.5c15.9,31.8,30.9,69.3,22.1,107
				c-2.6,10.9-6.9,20.2-12.8,27.6C484.7,432.5,462.9,436.2,447.2,436.2z"/>
		</g>
		<path class="st64" d="M447.5,458.8c-41.7,0-63-23-63.2-23.2c-0.2-0.3-0.2-0.7,0-0.9c0.3-0.2,0.7-0.2,0.9,0
			c0.2,0.2,21.2,22.8,62.3,22.8c41.1,0,62.1-22.6,62.3-22.8c0.2-0.3,0.6-0.3,0.9,0c0.3,0.2,0.3,0.6,0,0.9
			C510.5,435.8,489.2,458.8,447.5,458.8z"/>
		<path class="st64" d="M536.1,361.7c3.7,15.9,6.6,35.5,6.5,57.8l3.8-3.5c0.5-69.9-35.6-121.8-35.6-121.8c-0.2-0.3-0.6-0.4-0.9-0.2
			c-0.3,0.2-0.4,0.6-0.2,0.9C509.9,295.2,526.5,321,536.1,361.7z M512.3,296.8c-0.4-0.7-0.8-1.3-1-1.7
			C511.6,295.6,512,296.2,512.3,296.8z"/>
		<path class="st64" d="M348.6,415.5l2.7,2.6l1,0.7l0.1-0.1c0-21.9,2.9-41.3,6.6-57c9.5-40.7,26.2-66.5,26.4-66.8
			c0.2-0.3,0.1-0.7-0.2-0.9c-0.3-0.2-0.7-0.1-0.9,0.2c0,0-0.6,1-1.7,2.7c0.6-1,1.1-1.9,1.7-2.7C384.3,294.2,348.3,345.9,348.6,415.5
			z"/>
	</g>
	<g>
		<linearGradient id="SVGID_10_" gradientUnits="userSpaceOnUse" x1="335.4319" y1="105.2891" x2="518.7023" y2="198.4349">
			<stop  offset="0" style="stop-color:#F2D397"/>
			<stop  offset="0.5331" style="stop-color:#F3D093"/>
			<stop  offset="0.7526" style="stop-color:#F5CC8F"/>
			<stop  offset="1" style="stop-color:#F3B699"/>
		</linearGradient>
		<path class="st17" d="M548,128.7c-1.8-2.6-3.7-5-5.7-7.4c19.7-2.1,32.8-28.1,16.9-45.9c-27.4-27.4-57.8-2.8-56.7,16
			c-15.6-7-32.8-10.6-50.4-10.6c-21.1,0-42.2,4.5-61.2,13.5c4.8-18.9-27.4-47.7-56.2-18.9c-16.3,18.3-2,45.2,18.6,46
			c-0.7,0.7-1.4,1.5-2.1,2.3c-24.8,27.7-35,66.9-21.8,102.4c1.9,5.3,4.4,10.1,7.3,14.5c19.3,29.5,57.9,40.9,91.8,44.2
			c4.7,0.5,9.3,0.7,14,0.8c27.4,0.5,55.1-5.2,79.3-18.1c20.9-11.1,39.6-26.7,45.5-50.7C574.7,186.8,565.5,153.5,548,128.7z"/>
		<linearGradient id="SVGID_11_" gradientUnits="userSpaceOnUse" x1="340.5373" y1="98.8893" x2="373.9297" y2="98.8893">
			<stop  offset="0" style="stop-color:#FDEBD1"/>
			<stop  offset="0.899" style="stop-color:#F9E8B4"/>
			<stop  offset="1" style="stop-color:#F8E8B0"/>
		</linearGradient>
		<path class="st18" d="M360.7,114.4c-4.6-0.7-8.2-1.1-12-3.8c-3.8-2.7-6.9-6.7-7.8-11.3c-0.9-4.6,0.5-9.7,4-12.8
			c4.9-4.2,13.1-4.5,18.3-0.7c5.2,3.8,9,10.3,10.8,16.5c0,0-0.5,0.7-0.5,0.7L360.7,114.4z"/>
		<linearGradient id="SVGID_12_" gradientUnits="userSpaceOnUse" x1="519.9081" y1="98.8893" x2="553.3005" y2="98.8893">
			<stop  offset="0" style="stop-color:#FDEBD1"/>
			<stop  offset="0.899" style="stop-color:#F9E8B4"/>
			<stop  offset="1" style="stop-color:#F8E8B0"/>
		</linearGradient>
		<path class="st19" d="M533.2,114.4c4.6-0.7,8.2-1.1,12-3.8c3.8-2.7,6.9-6.7,7.8-11.3c0.9-4.6-0.5-9.7-4-12.8
			c-4.9-4.2-13.1-4.5-18.3-0.7s-9,10.3-10.8,16.5c0,0,0.5,0.7,0.5,0.7L533.2,114.4z"/>
		<linearGradient id="SVGID_13_" gradientUnits="userSpaceOnUse" x1="334.4268" y1="242.0655" x2="558.4102" y2="242.0655">
			<stop  offset="0" style="stop-color:#FDEBD1"/>
			<stop  offset="0.899" style="stop-color:#F9E8B4"/>
			<stop  offset="1" style="stop-color:#F8E8B0"/>
		</linearGradient>
		<path class="st23" d="M457.3,198.5h-21.7c-77.2,0-101.1,38.3-101.2,38.5c0.7,1.2,1.4,2.4,2.2,3.6c19.3,29.5,57.9,40.9,91.8,44.2
			c4.7,0.5,9.3,0.7,14,0.8c27.4,0.5,55.1-5.2,79.3-18.1c14.4-7.7,27.8-17.5,36.6-30.7C556.4,233.8,531.4,198.5,457.3,198.5z"/>
		<path class="st84" d="M444.3,195.3c0,0,6.6-0.1,9.6,0.4c3,0.6,5.7,1.8,3.4,5.3c-2.8,4.1-10.4,6.4-10.4,6.4s-7.6-2.3-10.4-6.4
			c-2.4-3.5,0.3-4.8,3.4-5.3c3-0.6,9.6-0.4,9.6-0.4"/>
		<path class="st138" d="M438.3,285.5c1.4,0.1,2.8,0.1,4.1,0.1c27.4,0.5,55.1-5.2,79.3-18.1c20.9-11.1,39.6-26.7,45.5-50.7
			c7.4-30-1.7-63.3-19.3-88.1c-1.8-2.6-3.7-5-5.7-7.4C542.2,121.3,603.4,266.3,438.3,285.5z"/>
		<path class="st139" d="M342.3,135c13.6-12.3,20.1-15,20.1-15c-32.2-1.3-30.2-40.4-30.1-41.6c-12.4,18.1,1.5,42.2,21,43
			c-0.7,0.7-1.4,1.5-2.1,2.3C348,127.3,345,131.1,342.3,135z"/>
		<path class="st138" d="M551.6,135c-13.6-12.3-20.1-15-20.1-15c32.2-1.3,30.2-40.4,30.1-41.6c11.6,15,0,41.9-19.5,42.6
			c0.7,0.7,1.4,1.5,2.1,2.3C547.4,126.9,548.9,131.1,551.6,135z"/>
		<path class="st140" d="M353.3,121.4c-0.7,0.7-1.4,1.5-2.1,2.3c-24.8,27.7-35,66.9-21.8,102.4c1.9,5.3,4.4,10.1,7.3,14.5
			c6.6,10.1,15.5,18.1,25.7,24.4l0,0C298.4,200.8,353.3,121.4,353.3,121.4z"/>
		<path class="st88" d="M363.2,86c-3.3-2.4-7.9-3.1-12.1-2.3l0,0c0,0,20.5,8.7,18.2,23.2l4.2-3.7c0,0,0.5-0.7,0.5-0.7
			C372.2,96.3,368.4,89.7,363.2,86z"/>
		<path class="st88" d="M530.8,86c3.3-2.4,7.9-3.1,12.1-2.3l0,0c0,0-20.5,8.7-18.2,23.2l-4.2-3.7c0,0-0.5-0.7-0.5-0.7
			C521.8,96.3,525.6,89.7,530.8,86z"/>
		<path class="st89" d="M409.3,228.2c0,0,17.1,8.5,35,0c0,0,0.9,0.9,5.2,0c0,0,16.2,8.5,34.5,0.1c0,0-22.1,8.4-35.9-4.2l-1.1-1.7
			l-0.9,1.4C446.1,223.8,433.2,236.2,409.3,228.2z"/>
		<path class="st89" d="M453.7,204.4c0,0-6.8,7-6.8,12.7c0,0-2.1-8.2-6.6-12.3l6.6,3.3L453.7,204.4z"/>
		<path class="st90" d="M425.3,231.7c-2.2,0-4.6-0.2-7.3-0.6c-15.7-2.4-16.7-10.2-16.7-10.5c0-0.4,0.2-0.7,0.6-0.7
			c0.4,0,0.7,0.2,0.7,0.6c0,0.1,1.1,7.1,15.7,9.4c15,2.3,22.5-2.7,28.2-7.5c0.3-0.2,0.7-0.2,0.9,0.1c0.2,0.3,0.2,0.7-0.1,0.9
			C442,227.8,435.7,231.7,425.3,231.7z"/>
		<path class="st64" d="M360.7,114.9C360.6,114.9,360.6,114.9,360.7,114.9l-1.3-0.2c-4-0.6-7.4-1.1-11-3.6c-4.2-2.9-7.1-7.1-8-11.5
			c-1-5,0.6-10.1,4.2-13.2c5-4.3,13.5-4.6,18.9-0.7c4.8,3.5,9,9.9,10.9,16.8c0,0.1,0,0.3-0.1,0.4c0,0.1-0.1,0.2-0.2,0.3
			c-0.1,0.2-0.2,0.3-0.3,0.4l0,0l-12.8,11.2C360.9,114.8,360.8,114.9,360.7,114.9z M354.5,83.7c-3.4,0-6.9,1.1-9.4,3.3
			c-3.3,2.8-4.8,7.7-3.9,12.3c0.9,4.2,3.6,8.2,7.6,11c3.4,2.4,6.6,2.9,10.6,3.5l1.1,0.2l12.6-11.1c0-0.1,0.1-0.2,0.2-0.3
			c0-0.1,0.1-0.1,0.1-0.2c-1.9-6.6-5.9-12.8-10.5-16.1C360.6,84.6,357.5,83.7,354.5,83.7z"/>
		<path class="st90" d="M468.5,231.7c-10.4,0-16.7-3.9-22-8.4c-0.3-0.2-0.3-0.6-0.1-0.9c0.2-0.3,0.6-0.3,0.9-0.1
			c5.8,4.8,13.2,9.8,28.2,7.5c14.6-2.2,15.7-9.3,15.7-9.4c0-0.3,0.4-0.6,0.7-0.6c0.3,0,0.6,0.4,0.6,0.7c0,0.3-1.1,8.1-16.7,10.5
			C473.1,231.6,470.7,231.7,468.5,231.7z"/>
		<path class="st64" d="M533.2,114.9c-0.1,0-0.2,0-0.3-0.1l-12.8-11.2l0,0c-0.1-0.1-0.2-0.2-0.3-0.4c-0.1-0.1-0.2-0.2-0.2-0.3
			c-0.1-0.1-0.1-0.3-0.1-0.4c1.9-6.8,6.1-13.3,10.9-16.8c5.4-3.9,13.8-3.6,18.9,0.7c3.5,3,5.2,8.2,4.2,13.2c-0.9,4.4-3.8,8.6-8,11.5
			c-3.6,2.5-7,3-11,3.6L533.2,114.9C533.2,114.9,533.2,114.9,533.2,114.9z M520.7,102.9l12.6,11.1l1.1-0.2c4-0.6,7.2-1.1,10.6-3.5
			c4-2.8,6.8-6.8,7.6-11c1-4.7-0.6-9.5-3.9-12.3c-4.7-4-12.7-4.4-17.8-0.7c-4.6,3.4-8.7,9.5-10.5,16.1c0,0.1,0.1,0.1,0.1,0.2
			C520.6,102.7,520.6,102.8,520.7,102.9z"/>
		<path class="st90" d="M446.9,223.5c-0.4,0-0.6-0.3-0.6-0.6v-14.4c0-0.3,0.3-0.6,0.6-0.6s0.6,0.3,0.6,0.6v14.4
			C447.6,223.2,447.3,223.5,446.9,223.5z"/>
		<path class="st90" d="M447.6,221.2c0,0,0.1,1.7,2,3h-0.3l-1.9-0.8l-0.3-0.7L447.6,221.2z"/>
		<path class="st90" d="M446.3,221.2c0,0-0.1,1.7-2,3h0.3l1.9-0.8l0.3-0.7L446.3,221.2z"/>
		<path class="st91" d="M436.3,208.6C436.3,208.6,436.3,208.6,436.3,208.6l-18-2.5c-0.2,0-0.4-0.2-0.4-0.5c0-0.2,0.2-0.4,0.5-0.4
			l17.9,2.5c0.2,0,0.4,0.2,0.4,0.5C436.7,208.4,436.6,208.6,436.3,208.6z"/>
		<path class="st91" d="M419.2,218.2c-0.2,0-0.4-0.1-0.4-0.3c-0.1-0.2,0.1-0.5,0.3-0.5l17.1-3.9c0.2-0.1,0.5,0.1,0.5,0.3
			c0.1,0.2-0.1,0.5-0.3,0.5L419.2,218.2C419.3,218.2,419.3,218.2,419.2,218.2z"/>
		<path class="st91" d="M457.5,208.6c-0.2,0-0.4-0.2-0.4-0.4c0-0.2,0.1-0.4,0.4-0.5l17.9-2.5c0.2,0,0.4,0.1,0.5,0.4
			c0,0.2-0.1,0.4-0.4,0.5L457.5,208.6C457.5,208.6,457.5,208.6,457.5,208.6z"/>
		<path class="st91" d="M474.6,218.2C474.6,218.2,474.5,218.2,474.6,218.2l-17.2-3.9c-0.2-0.1-0.4-0.3-0.3-0.5
			c0.1-0.2,0.3-0.4,0.5-0.3l17.1,3.9c0.2,0.1,0.4,0.3,0.3,0.5C475,218.1,474.8,218.2,474.6,218.2z"/>
		<path class="st64" d="M548.5,128.3c-1.4-2-2.9-3.9-4.4-5.8c3.2-0.5,5.7-1.3,5.7-1.3c0.4-0.2,0.7-0.3,1.1-0.5
			c7.8-3.8,13.8-10.2,16.1-18.4c2.5-7,1.8-14.9-1.2-21.6c-5.9-13.2-21.3-19.6-35.1-18.2c-2.6,0.3-5.1,0.8-7.6,1.6
			c-0.3,0.1-0.7,0.3-1,0.5c-0.5,0.2-1.1,0.4-1.6,0.7c-10.2,4.6-17.7,14.4-18.4,23.6c0,0-7-2.8-7-2.8c-7.8-3.1-16.6-4.4-24.9-5.4
			c-8.8-1.1-17.7-1.4-26.6-1.1c-0.3,0-0.5,0-0.8,0c-1.2,0.1-2.4,0.1-3.5,0.2c-8.4,0.6-16.7,2-24.9,4c-5.4,1.3-10.5,3.4-15.7,5.3
			c0,0-0.1,0-0.1,0c0,0,0,0,0,0c-2.3,0.9-5.3,2.2-6.6,2.8c0.7-7.5-3.5-16-10.8-22c0,0,0,0,0,0c0,0,0,0-0.1,0
			c-0.4-0.3-0.8-0.6-1.1-0.9c-0.2-0.2-0.4-0.3-0.4-0.4c-0.6-0.4-1.2-0.9-1.8-1.3c-1.2-0.8-2.5-1.6-3.9-2.2c-1.3-0.6-2.6-1.2-3.9-1.5
			c-1.9-0.6-3.9-0.9-6-1.1c-13.8-1.4-29.2,5-35.1,18.2c-1.7,3.9-2.7,8.1-2.7,12.3c0,0-0.6,10.1,6.1,18.7c1.6,2.1,3.1,3.6,3.9,4.4
			c1.6,1.6,6.5,5.1,11.4,6.5c-6.4,7.6-38,48.3-20.8,97.9c0,0-0.2-0.9-0.5-2.5c0.7,2.8,1.6,5.5,2.6,8.2c1.9,5.2,4.4,10.1,7.3,14.6
			c20.5,31.3,61.5,41.5,92.3,44.5c4.7,0.5,9.4,0.7,14.1,0.8c1.2,0,2.4,0,3.6,0c27.5,0,53.7-6.3,76.1-18.2
			c25.7-13.7,40.7-30.4,45.8-51.1C574.9,188.5,567.6,155.4,548.5,128.3z M560.2,225.9c-20.7,45.5-99.6,67.8-164.6,52.4
			c-22.5-6.2-45-17.5-58.4-38c-2.9-4.5-5.3-9.3-7.2-14.3c-12.5-33.8-4.2-72.8,21.7-101.8c0.6-0.7,1.2-1.4,1.9-2c0.2,0,0.4,0,0.6,0
			c3,0,6-0.5,9-1.6c0.3-0.1,0.5-0.5,0.4-0.8c-0.1-0.3-0.5-0.5-0.8-0.4c-11.1,4-22.7,0-29.6-10.2c-5.5-8.1-8.2-21.7,2-33.2
			c6.3-6.3,12.4-9.6,18-11.1c0.9-0.2,1.7-0.4,2.7-0.6c9-1.5,16.3,1.5,20,3.6c10.6,6,16.9,17.3,14.6,26.3c0,0,0,0,0,0.1
			c0,0.1,0,0.1,0,0.2c0,0,0,0.1,0,0.1c0,0,0,0.1,0,0.1c0,0.1,0.1,0.2,0.2,0.2c0,0,0,0,0,0c0,0,0.1,0.1,0.1,0.1c0,0,0.1,0,0.1,0
			c0,0,0,0,0.1,0c0.1,0,0.1,0,0.2-0.1c0,0,0,0,0.1,0c3.5-1.7,7.1-3.2,10.8-4.5c0,0,4.8-1.7,4.8-1.7c15.9-4.5,32.6-6.2,49.2-5.7
			c10,0.3,19.9,1.3,29.7,3.3c3.2,0.7,6.3,1.8,9.5,2.9c2.4,0.9,4.7,1.8,7,2.9c0.2,0.1,0.4,0.1,0.5,0c0,0,0,0,0,0
			c0.1,0,0.1-0.1,0.1-0.1c0,0,0-0.1,0.1-0.1c0,0,0,0,0.1-0.1c0-0.1,0-0.1,0-0.2c0,0,0-0.1,0-0.1c0,0,0,0,0,0
			c-0.6-9.4,7.1-20.1,17.7-24.8c12.5-5.6,26.3-2.2,37.9,9.3c10.3,11.5,7.5,25.1,2,33.2c-6.9,10.2-18.6,14.2-29.6,10.2
			c-0.3-0.1-0.7,0.1-0.8,0.4c-0.1,0.3,0.1,0.7,0.4,0.8c0.1,0.1,0.3,0.1,0.4,0.1c2.6,2.5,7.4,2.7,11.5,2.2
			C547.7,130.2,580.7,180.6,560.2,225.9z"/>
	</g>
	<g>
		<g>
			
				<ellipse transform="matrix(0.9988 -4.889762e-02 4.889762e-02 0.9988 -6.2296 24.6294)" class="st141" cx="500.3" cy="139.6" rx="12.4" ry="7.2"/>
			<path class="st142" d="M503.9,147.1c-1,0.2-2.1,0.3-3.2,0.4c-3.4,0.2-6.7-0.5-9.2-1.8c-2.6-1.4-4.1-3.3-4.2-5.5
				c-0.1-2.2,1.2-4.2,3.7-5.8c2.4-1.5,5.6-2.5,9-2.6c7.3-0.4,13.2,2.8,13.4,7.2l0,0C513.5,142.7,509.5,146,503.9,147.1z M497,133.4
				c-2.1,0.4-3.9,1.1-5.4,2.1c-2.1,1.3-3.2,3-3.1,4.7c0.1,1.7,1.3,3.2,3.5,4.4c2.3,1.2,5.4,1.8,8.6,1.6c6.5-0.3,11.6-3.5,11.5-7.2
				c-0.2-3.6-5.6-6.3-12.1-6C498.9,133.1,498,133.2,497,133.4z"/>
		</g>
		<g>
			<path class="st123" d="M522.6,164.6c-5.1-7.5-14.2-11.3-23.2-11.8c-17-1-22.9,10.4-22.9,10.4s0.4-0.7,1.5-1.7
				c-8.4,8.9-6,23.6-6,23.6s0.8-15.3,8.2-22.2s15.9-7.4,26.1-4.2c4.5,1.4,8.6,4.4,11.6,8.5l0.2-0.5c7.2,9.4,4.5,21.2,4.5,21.2
				s-0.2,0.7-0.2,0.7c-0.5,3.4-1.1,6.3-1.5,8.6c0,0,2.6,1.6,2.6,1.6c0,0,2.1-6.1,2.2-6.5c2.2-8.1,2.3-17.4-1.6-25.1
				C523.7,166.2,523.2,165.4,522.6,164.6z"/>
			<path class="st53" d="M492.3,157.1c0,0,10.8-2.6,18.5,3.5c7.7,6.1,15.3,15.6,9.8,36.5c0,0-18.8-4.4-24.8-4.5l-22.9-1.5
				C472.9,191.2,467,162.1,492.3,157.1z"/>
			
				<ellipse transform="matrix(0.9998 -2.218584e-02 2.218584e-02 0.9998 -3.7681 10.9545)" class="st94" cx="491.8" cy="175.3" rx="9.3" ry="12.6"/>
			<path class="st95" d="M473.7,173.3c0,0,37.7-0.8,48.4,5.5c0,0-2.5-25.5-30.6-21.6C491.4,157.3,478.4,160.1,473.7,173.3z"/>
			
				<linearGradient id="SVGID_14_" gradientUnits="userSpaceOnUse" x1="471.4223" y1="181.413" x2="511.1074" y2="181.413" gradientTransform="matrix(0.9998 -2.220000e-02 2.220000e-02 0.9998 -3.2345 5.6888)">
				<stop  offset="0" style="stop-color:#834D2F"/>
				<stop  offset="0.8098" style="stop-color:#663C29"/>
				<stop  offset="1" style="stop-color:#5E3728"/>
			</linearGradient>
			<path class="st24" d="M488.3,158c0,0-13.5,2.2-16.1,24c0,0,0.1,7,0.7,9.4l7.9,0.4c0,0,25.1,1.3,26.8,2.5
				C517.5,179.8,509.8,154.8,488.3,158z"/>
			<path class="st144" d="M511.4,175.2c-1.9-10.4-9.9-19.1-23.1-17.2c0,0-0.4,0.1-1.2,0.3c-2.3,1.1-5.3,2.9-8,5.6
				c-1.8,2.1-3.6,5-4.9,8.9C477.9,172.8,497.7,172.7,511.4,175.2z"/>
			<path class="st91" d="M507.7,194.9c-0.1,0-0.2,0-0.4-0.1c-0.3-0.2-0.4-0.5-0.2-0.8c5.5-8.1,5.5-20.1-0.1-28
				c-4.2-5.9-10.8-8.6-18.6-7.4c-0.3,0-0.7-0.2-0.7-0.5c-0.1-0.3,0.2-0.6,0.5-0.7c8.3-1.2,15.4,1.6,19.9,7.9
				c5.8,8.2,5.9,20.8,0.1,29.3C508.1,194.8,507.9,194.9,507.7,194.9z"/>
			<path class="st84" d="M472.4,191.4c0,0,24.2-1.5,46.8,4.7l-0.3,1.1C518.9,197.2,495.1,191.8,472.4,191.4z"/>
			<path class="st84" d="M521.6,197.7c16.8-51.3-59.1-59.1-48.6-6.3c-7-50.1,62.5-41.2,45.7,4.8
				C519.4,196.6,520.9,197.3,521.6,197.7z"/>
			<path class="st84" d="M523.1,198.7l-2.2-2.9l-2.4,0.2l-0.4,1C518.2,197,520.9,197.6,523.1,198.7z"/>
			
				<ellipse transform="matrix(0.9998 -2.218584e-02 2.218584e-02 0.9998 -3.7965 10.9848)" class="st98" cx="493.2" cy="176.6" rx="9.3" ry="12.6"/>
			
				<ellipse transform="matrix(0.9998 -2.218457e-02 2.218457e-02 0.9998 -3.615 10.8093)" class="st53" cx="485.4" cy="168.3" rx="6.3" ry="6.3"/>
		</g>
		<path class="st91" d="M512.1,160.1c0,0,5.1,0.5,9.8-1.9c0,0-2.4,7.1-5.8,7.7l-3.1-2.6L512.1,160.1z"/>
		<path class="st91" d="M516.3,164.7c0,0,2.9,1.4,7.3-0.8c0,0-2.8,5.3-4.9,5L516.3,164.7z"/>
	</g>
	<g>
		<g>
			
				<ellipse transform="matrix(4.889742e-02 -0.9988 0.9988 4.889742e-02 234.8432 525.9006)" class="st141" cx="393.6" cy="139.6" rx="7.2" ry="12.4"/>
			<path class="st142" d="M380.5,139L380.5,139c0.2-4.4,6.1-7.6,13.4-7.2c3.4,0.2,6.6,1.1,9,2.6c2.5,1.6,3.8,3.7,3.7,5.8
				c-0.1,2.2-1.6,4.1-4.2,5.5c-2.5,1.3-5.8,1.9-9.2,1.8c-1.1-0.1-2.2-0.2-3.2-0.4C384.3,146,380.3,142.7,380.5,139z M393.9,133.1
				c-6.5-0.3-11.9,2.4-12.1,6c-0.2,3.6,5,6.8,11.5,7.2c3.2,0.2,6.2-0.4,8.6-1.6c2.2-1.1,3.5-2.7,3.5-4.4c0.1-1.7-1-3.4-3.1-4.7
				c-1.5-1-3.4-1.7-5.4-2.1C395.9,133.2,394.9,133.1,393.9,133.1z"/>
		</g>
		<g>
			<path class="st123" d="M371.2,164.6c5.1-7.5,14.2-11.3,23.2-11.8c17-1,22.9,10.4,22.9,10.4s-0.4-0.7-1.5-1.7
				c8.4,8.9,6,23.6,6,23.6s-0.8-15.3-8.2-22.2s-15.9-7.4-26.1-4.2c-4.5,1.4-8.6,4.4-11.6,8.5l-0.2-0.5c-7.2,9.4-4.5,21.2-4.5,21.2
				s0.2,0.7,0.2,0.7c0.5,3.4,1.1,6.3,1.5,8.6c0,0-2.6,1.6-2.6,1.6c0,0-2.1-6.1-2.2-6.5c-2.2-8.1-2.3-17.4,1.6-25.1
				C370.2,166.2,370.7,165.4,371.2,164.6z"/>
			<path class="st53" d="M401.5,157.1c0,0-10.8-2.6-18.5,3.5c-7.7,6.1-15.3,15.6-9.8,36.5c0,0,18.8-4.4,24.8-4.5l22.9-1.5
				C420.9,191.2,426.8,162.1,401.5,157.1z"/>
			
				<ellipse transform="matrix(2.218584e-02 -0.9998 0.9998 2.218584e-02 217.8462 573.3295)" class="st94" cx="402" cy="175.3" rx="12.6" ry="9.3"/>
			<path class="st95" d="M420.2,173.3c0,0-37.7-0.8-48.4,5.5c0,0,2.5-25.5,30.6-21.6C402.4,157.3,415.4,160.1,420.2,173.3z"/>
			
				<linearGradient id="SVGID_15_" gradientUnits="userSpaceOnUse" x1="1511.699" y1="204.5118" x2="1551.3842" y2="204.5118" gradientTransform="matrix(-0.9998 -2.220000e-02 -2.220000e-02 0.9998 1937.6538 5.6888)">
				<stop  offset="0" style="stop-color:#834D2F"/>
				<stop  offset="0.8098" style="stop-color:#663C29"/>
				<stop  offset="1" style="stop-color:#5E3728"/>
			</linearGradient>
			<path class="st25" d="M405.5,158c0,0,13.5,2.2,16.1,24c0,0-0.1,7-0.7,9.4l-7.9,0.4c0,0-25.1,1.3-26.8,2.5
				C376.3,179.8,384,154.8,405.5,158z"/>
			<path class="st144" d="M382.4,175.2c1.9-10.4,9.9-19.1,23.1-17.2c0,0,0.4,0.1,1.2,0.3c2.3,1.1,5.3,2.9,8,5.6
				c1.8,2.1,3.6,5,4.9,8.9C415.9,172.8,396.1,172.7,382.4,175.2z"/>
			<path class="st91" d="M386.2,194.9c0.1,0,0.2,0,0.4-0.1c0.3-0.2,0.4-0.5,0.2-0.8c-5.5-8.1-5.5-20.1,0.1-28
				c4.2-5.9,10.8-8.6,18.6-7.4c0.3,0,0.7-0.2,0.7-0.5c0.1-0.3-0.2-0.6-0.5-0.7c-8.3-1.2-15.4,1.6-19.9,7.9
				c-5.8,8.2-5.9,20.8-0.1,29.3C385.8,194.8,386,194.9,386.2,194.9z"/>
			<path class="st84" d="M421.4,191.4c0,0-24.2-1.5-46.8,4.7l0.3,1.1C374.9,197.2,398.8,191.8,421.4,191.4z"/>
			<path class="st84" d="M372.3,197.7c-16.8-51.3,59.1-59.1,48.6-6.3c7-50.1-62.5-41.2-45.7,4.8C374.4,196.6,373,197.3,372.3,197.7z
				"/>
			<path class="st84" d="M370.7,198.7l2.2-2.9l2.4,0.2l0.4,1C375.7,197,373,197.6,370.7,198.7z"/>
			
				<ellipse transform="matrix(2.218584e-02 -0.9998 0.9998 2.218584e-02 215.2296 573.2494)" class="st98" cx="400.7" cy="176.6" rx="12.6" ry="9.3"/>
			
				<ellipse transform="matrix(2.218457e-02 -0.9998 0.9998 2.218457e-02 231.1066 572.9608)" class="st53" cx="408.5" cy="168.3" rx="6.3" ry="6.3"/>
		</g>
		<path class="st91" d="M381.8,160.1c0,0-5.1,0.5-9.8-1.9c0,0,2.4,7.1,5.8,7.7l3.1-2.6L381.8,160.1z"/>
		<path class="st91" d="M377.6,164.7c0,0-2.9,1.4-7.3-0.8c0,0,2.8,5.3,4.9,5L377.6,164.7z"/>
	</g>
	<ellipse class="st100" cx="363.9" cy="209.6" rx="18.2" ry="10.3"/>
	<ellipse class="st100" cx="528" cy="209.6" rx="18.2" ry="10.3"/>
	<g>
		<linearGradient id="SVGID_16_" gradientUnits="userSpaceOnUse" x1="390.9439" y1="98.3113" x2="504.7217" y2="96.5336">
			<stop  offset="0" style="stop-color:#C48E53"/>
			<stop  offset="0.535" style="stop-color:#C88044"/>
			<stop  offset="1" style="stop-color:#CA793D"/>
		</linearGradient>
		<path class="st26" d="M439.1,76c-0.5,0.6-1.1,1.1-1.6,1.7c-3.1,3.6-5.3,7.7-7,12.2c-0.9,2.6-1.6,5.2-2.1,7.9
			c-0.5,2.9-0.6,5.8-0.5,8.7c0.2,2.9,0.6,5.8,1.4,8.5c0.6,1.9,1.3,3.6,2.2,5.3c0.1,0.1,0.1,0.3,0.3,0.5c-0.2-0.1-0.3-0.1-0.3-0.2
			c-0.5-0.4-1.1-0.9-1.6-1.3c-0.2-0.2-0.3-0.4-0.2-0.6c0-0.1,0-0.2,0-0.3c-0.1,0-0.2,0-0.3,0c-0.3,0.2-0.4,0-0.6-0.1
			c-3-3.3-5.1-7.2-6.4-11.5c-0.6-2-0.6-4.2-0.5-6.3c0.1-1.7,0.2-3.4,0.3-5.1c0-0.1,0-0.2-0.1-0.3c-0.1,0.3-0.2,0.6-0.2,0.9
			c-0.2,1.9-0.5,3.8-0.6,5.7c-0.3,3.7,0.6,7.3,2.3,10.6c1.2,2.3,2.6,4.6,4.4,6.5c0.1,0.1,0.2,0.2,0.3,0.4c-0.5,0.1-1,0.3-1.4,0.4
			c-0.5,0.1-1.1,0.2-1.6,0.2c-3.6,0-6.4-1.5-8.3-4.7c-1.3-2.2-2-4.5-2.4-7c-0.4-2.3-0.4-4.6-0.1-6.9c0.4-3.2,1.3-6.3,2.5-9.4
			c0.8-1.9,1.6-3.7,2.5-5.5c0.2-0.3,0.4-0.6,0.6-1c0,0-0.1-0.1-0.1-0.1c-0.4,0.5-0.8,0.9-1.1,1.4c-1.8,3.1-3.1,6.3-4,9.7
			c-0.4,1.3-0.7,2.7-0.9,4c-0.4,2.1-0.5,4.3-0.2,6.5c0.2,1.8,0.5,3.6,1,5.3c0.6,1.7,1.4,3.4,2.5,4.9c1.4,1.8,3.3,2.9,5.5,3.4
			c1.7,0.4,3.4,0.3,5-0.1c0,0,0.1,0,0.2,0c-0.1,0.2-0.2,0.4-0.3,0.6c-1.4,2.5-3.6,4-6.2,5.1c-1.8,0.7-3.6,1.1-5.5,1.2
			c-2.3,0.1-4.4-0.5-6.5-1.5c-2.7-1.2-5.1-3-7-5.3c-0.2-0.2-0.4-0.5-0.5-0.8c-0.1-0.1-0.1-0.2-0.2-0.3c2.1-0.4,4.3-0.6,6.1-1.7
			c0,0,0-0.1,0-0.1c-0.2,0-0.5-0.1-0.7-0.1c-4.1-0.3-6.9-2.2-8.3-6.1c-0.6-1.5-0.7-3.1-0.6-4.8c0.3-3.3,1.4-6.2,2.8-9.2
			c0-0.1,0.1-0.1,0.1-0.2c0,0,0,0,0-0.2c-0.4,0.7-0.8,1.2-1.1,1.8c-0.9,1.9-1.7,3.8-2.2,5.8c-0.8,3.7-0.5,7.3,2,10.4
			c1.1,1.4,2.5,2.4,4.3,2.9c0.2,0,0.3,0.1,0.5,0.2c-0.5,0.1-1,0.2-1.5,0.2c-3,0.4-5.9,0-8.2-2.2c-1.8-1.6-2.9-3.7-3.2-6.1
			c-0.5-2.9,0-5.6,1-8.3c2.2-5.8,5.5-10.8,10-15.1c1.9-1.9,4-3.6,6.2-5.1c0.1-0.1,0.2-0.1,0.3-0.2c0,0,0.1,0,0.1,0.1
			c-0.1,0.1-0.2,0.3-0.2,0.4c-1.3,2-2.6,4-4,6.1c-0.3,0.4-0.5,0.9-0.5,1.4c0,0,0.1,0.1,0.1,0.1c0.1-0.2,0.3-0.3,0.4-0.5
			c1.3-1.8,2.5-3.7,3.8-5.4c3.8-5.1,8.3-9.5,13.7-12.9c2.8-1.7,5.8-3,8.9-3.8c1.2-0.3,2.3-0.6,3.5-0.8c-1.5,0.9-2.9,2.1-4.2,3.3
			c-1.3,1.2-2.7,2.3-3.8,3.7c0,0,0.1,0.1,0.1,0.1c0.2-0.1,0.4-0.2,0.6-0.4c1.1-0.9,2.1-1.8,3.2-2.7c2.3-1.8,4.7-3.4,7.5-4.3
			c1.4-0.5,2.8-0.8,4.2-1.1c2.4-0.5,4.9-0.6,7.4-0.6c3.9,0,7.6,0.9,11.2,2.4c2.5,1.1,4.7,2.7,6.9,4.4c3.2,2.5,6.2,5.3,8.8,8.5
			c1.8,2.2,3.3,4.5,4.7,7c0.1,0.1,0.2,0.3,0.3,0.4c-1.5-3.8-3.6-7.3-6.1-10.5c-2.5-3.2-5.5-6-8.9-8.3c0,0,0-0.1,0-0.1
			c0.4,0.1,0.8,0.1,1.1,0.2c4.3,1,8.5,2.5,12,5.4c1.8,1.5,3.4,3.3,5,5c2.8,3,4.8,6.5,6.5,10.2c1.5,3.2,2.6,6.6,3.5,10.1
			c0.5,1.8,1,3.6,1.5,5.4c1,3.1,3.1,5.4,6,6.9c1.7,0.9,3.6,1.2,5.5,0.4c0.6-0.2,1.1-0.6,1.6-1c0,0.1,0,0.2,0,0.2
			c-1.6,3.7-4.3,6.4-8,8c-1.2,0.5-2.5,0.6-3.8,0.7c-3.5,0.2-6.7-0.5-9.8-2.2c-0.2-0.1-0.4-0.3-0.7-0.4c-0.2-0.1-0.4-0.3-0.6-0.4
			c0.2-0.7,0.3-1.3,0.5-2c0.5-1.7,0.4-3.4,0.3-5.1c-0.2-2.3-1-4.3-2.4-6.1c-1-1.3-2.3-2.3-4-2.7c-0.2,0-0.3,0-0.6-0.1
			c0.2,0.3,0.4,0.6,0.6,0.8c0.8,1.2,1.1,2.5,0.8,3.9c-0.8,3.5-2.8,6-6.1,7.4c-2,0.9-4,0.7-5.9-0.2c-1-0.5-1.7-1.4-2.1-2.5
			c-1-2.6-2.5-4.9-4.9-6.5c-1.2-0.8-2.6-1.3-4.1-1.4c-0.5,0-1-0.1-1.5-0.1c-0.1,0-0.3,0.1-0.4,0.2c0,0.1,0.1,0.3,0.2,0.4
			c0.1,0.1,0.2,0.1,0.3,0.2c1.5,0.8,2.2,2.2,2.5,3.7c0.2,1,0.3,2-0.1,3c-0.5,1-0.9,2.1-2,2.6c-1.3,0.8-2.8,1.1-4.3,0.5
			c-1.1-0.4-1.9-1.3-2.3-2.4c-0.3-0.8-0.5-1.7-0.7-2.6c-0.1-0.6,0-1.2,0.1-1.8c0.4-1.6,0.8-3.2,1.2-4.8c0.1-0.5,0.4-1,0.6-1.5
			c-0.1,0-0.1,0-0.2-0.1c-0.3,0.5-0.6,1-0.8,1.6c-0.7,1.7-1.2,3.4-1.5,5.3c-0.2,1.1-0.1,2.2,0.2,3.2c0,0.1,0.1,0.3,0,0.4
			c-1-1.1-1.6-2.4-2-3.9c-0.1,0-0.1,0-0.2,0c0,0.3,0,0.5,0,0.8c0.7,2.8,2.1,5,4.7,6.4c1,0.5,2.1,0.6,3.2,0.5
			c0.9-0.1,1.8-0.3,2.5-0.9c2.1-1.6,3-3.6,2.5-6.1c-0.3-1.4-1-2.7-2-3.8c0-0.1-0.1-0.1-0.1-0.2c0,0,0-0.1,0-0.1
			c0.4,0.1,0.8,0.1,1.2,0.3c2.3,0.7,3.9,2.2,5.2,4.2c1.7,2.6,2.2,5.4,2.1,8.4c0,1.9-0.7,3.6-1.6,5.3c-1.8,3-4.2,5.4-7.2,7.1
			c-1.6,0.9-3.4,1.4-5.1,1.9c-1.6,0.5-3.4,0.5-5.1,0.4c-4.4-0.4-8.3-1.9-11.8-4.5c-1.3-1-2.3-2.3-3.2-3.7c-2.1-3.1-3.4-6.5-4.2-10.2
			c-0.6-2.6-0.9-5.2-0.8-7.9c0-2,0.3-4,0.5-6c0.5-4.1,1.8-8,3.5-11.8c1.5-3.4,3.5-6.5,5.9-9.4c0.2-0.3,0.4-0.5,0.6-0.8
			C439.2,76,439.2,76,439.1,76z"/>
		<linearGradient id="SVGID_17_" gradientUnits="userSpaceOnUse" x1="391.216" y1="115.7327" x2="504.9939" y2="113.9549">
			<stop  offset="0" style="stop-color:#C48E53"/>
			<stop  offset="0.535" style="stop-color:#C88044"/>
			<stop  offset="1" style="stop-color:#CA793D"/>
		</linearGradient>
		<path class="st27" d="M468.7,112.7c0.3,0.2,0.5,0.4,0.8,0.5c1.5,1.1,3.1,1.6,4.9,1.3c1.9-0.2,3.5-1.1,5-2.3c2-1.7,3.3-3.8,3.9-6.3
			c0.2-0.9,0.3-1.9,0.1-2.9c0-0.1,0-0.2,0-0.4c0.1,0,0.2,0.1,0.3,0.1c1.3,1,2.4,2.2,2.9,3.7c0.7,2,0.9,4.1,0.5,6.3
			c-0.2,1.2-0.3,2.4-0.7,3.6c-0.7,2.3-2,4.2-3.7,5.8c-2.2,1.9-4.7,3.1-7.6,3.6c-2.2,0.3-4.5,0.4-6.7-0.2c-0.8-0.2-1.6-0.6-2.4-0.9
			c-0.2-0.1-0.4-0.2-0.2-0.5c1.1-1.2,1.8-2.6,2.2-4.1c0.5-1.7,0.9-3.4,0.9-5.2c0-0.5,0-1.1-0.1-1.6
			C468.7,113.2,468.7,113,468.7,112.7z"/>
		<path class="st148" d="M498.6,120.6c-0.8,0.2-1.6,0.5-2.3,0.7c-2.5,0.7-5.1,0.9-7.7,0.9c-1.2,0-2.5,0-3.6-0.5
			c-0.1,0-0.2-0.1-0.3-0.1c0,0-0.1-0.1-0.1-0.1c1-1.4,1.9-2.9,2.4-4.5c3.4,2.7,7.3,3.9,11.7,3.4
			C498.6,120.5,498.6,120.5,498.6,120.6z"/>
		<path class="st148" d="M429.3,120.4c0.3,0.2,0.6,0.4,0.8,0.6c0.6,0.4,1.1,0.8,1.7,1.2c0.2,0.2,0.5,0.3,0.8,0.4
			c0.2,0.1,0.5,0.3,0.7,0.4c-2.1,1.4-4.3,1.9-6.7,1.4C427.7,123.2,428.7,122,429.3,120.4z"/>
		<path class="st127" d="M479.6,110.3c-2.7-1.8-9.5-7.1-10.2-15.2c0,0-2.9,6.5-2.7,12c0.6,0.9,1,1.9,1.4,2.9c0.4,1.1,1.1,2,2.1,2.5
			c1.9,0.9,3.9,1.1,5.9,0.2C477.5,112.1,478.7,111.3,479.6,110.3z"/>
		<g>
			<path class="st127" d="M426.7,117.5c0,0-8-1.2-11.5-6.6c0.4,1.5,1,3,1.8,4.4c1.8,3.2,4.6,4.7,8.3,4.7c0.5,0,1.1-0.1,1.6-0.2
				c0.5-0.1,0.9-0.2,1.4-0.4c-0.2-0.2-0.2-0.3-0.3-0.4C427.5,118.6,427.1,118.1,426.7,117.5z"/>
			<path class="st127" d="M413.8,107.2c0,0,0,0.1,0,0.2C413.8,107.3,413.8,107.2,413.8,107.2z"/>
			<path class="st127" d="M425.1,124.3L425.1,124.3c0,0-13.6,8.3-20.4-5.2c-0.9,0.2-1.8,0.3-2.8,0.5c0.1,0.2,0.1,0.3,0.2,0.3
				c0.2,0.3,0.3,0.5,0.5,0.8c1.9,2.3,4.2,4,7,5.3c2.1,1,4.2,1.6,6.5,1.5c1.9-0.1,3.7-0.6,5.5-1.2
				C422.9,125.8,424.1,125.2,425.1,124.3z"/>
			<polygon class="st127" points="429.9,94.3 429.9,94.3 429.9,94.3 			"/>
			<path class="st127" d="M436.9,125.8c3.5,2.6,7.4,4.2,11.8,4.5c1.7,0.1,3.4,0.1,5.1-0.4c1.7-0.6,3.5-1.1,5.1-1.9
				c3-1.7,5.4-4.1,7.2-7.1c0,0-23.9,17-36.5-9c0.8,3.6,2.1,7.1,4.2,10.2C434.6,123.5,435.6,124.8,436.9,125.8z"/>
			<path class="st127" d="M429.4,115c-0.7-2.4-1.1-4.8-1.3-7.2c-0.2-1.4-0.3-3.1-0.1-5.1c0.1-1.6,0.2-3.2,0.5-4.8
				c-1.6,4.1-3.6,11-2.8,16.3c0.9,1.5,2,2.9,3.2,4.3c0.2,0.2,0.3,0.4,0.6,0.1c0.1,0,0.2,0,0.3,0c0,0.1,0,0.2,0,0.3
				c-0.1,0.3,0,0.4,0.2,0.6c0.5,0.4,1.1,0.9,1.6,1.3c0.1,0.1,0.2,0.1,0.3,0.2c-0.1-0.2-0.2-0.4-0.3-0.5
				C430.7,118.7,429.9,116.9,429.4,115z"/>
		</g>
		<path class="st149" d="M431.1,69.5c1.3-1.2,2.7-2.3,4.2-3.3c-1.2,0.2-2.4,0.5-3.5,0.8c-3.2,0.8-6.2,2.1-8.9,3.8
			c-5.4,3.4-9.9,7.8-13.7,12.9c-0.9,1.2-1.8,2.5-2.6,3.7C418.9,72.2,431.1,69.5,431.1,69.5z"/>
		<path class="st149" d="M488.5,86.8c5.9,11.7,7.8,18.4,10.5,21.4c0,0,0.1,0.1,0.1,0.1c0,0,0,0,0,0c-1-1.1-1.8-2.5-2.3-4
			c-0.6-1.8-1-3.6-1.5-5.4c-0.9-3.4-2-6.8-3.5-10.1c-1.7-3.7-3.8-7.2-6.5-10.2c-1.6-1.7-3.2-3.5-5-5c-3.5-2.9-7.6-4.4-12-5.4
			c-0.4-0.1-0.8-0.1-1.1-0.2c0,0,0,0.1,0,0.1c1.2,0.8,2.4,1.8,3.6,2.7C470.7,71,481.7,73.4,488.5,86.8z"/>
		<path class="st149" d="M438.6,76.8c0,0-10,16.4-8.7,28.1c1,9.4,2.7,10.8,7.4,17.3c0,0-7-3.9-8.7-13.3
			C426.9,99.5,429.8,86.8,438.6,76.8z"/>
		<path class="st150" d="M512.1,104.2c0.4,1.7,0.3,3.3-0.2,4.9c-0.9,3-2.3,5.7-4.7,7.7c-1.6,1.4-3.4,2.3-5.4,3.1
			c-0.6,0.2-1.1,0.6-1.7,0.8c-2.8,1.4-5.8,2.3-9,2.5c-1.4,0.1-2.9,0.2-4.3,0.1c-1.1,0-2.1-0.2-3.2-0.4c-0.3,0-0.5,0-0.7,0.2
			c-2.5,2.2-5.4,3.5-8.7,3.9c-2.2,0.2-4.4,0.3-6.6-0.3c-0.9-0.3-1.9-0.6-2.8-1c-0.3-0.1-0.5-0.1-0.7,0.1c-2.7,2.3-5.7,4-9,5.1
			c-2,0.6-4.1,0.9-6.3,0.9c-3,0-5.8-0.8-8.4-2.1c-2.4-1.3-4.4-3-6.1-5c-0.2-0.2-0.3-0.3-0.6-0.1c-0.9,0.5-1.9,0.9-3,1
			c-1.1,0.1-2.1,0.2-3.2,0.3c-0.6,0-1.2-0.1-1.9-0.2c-0.2,0-0.4,0-0.5,0.1c-2.3,1.6-4.9,2.5-7.7,2.9c-2.8,0.4-5.5-0.1-8-1.2
			c-3.1-1.4-5.9-3.4-8.2-6c-0.3-0.4-0.6-0.9-0.9-1.3c-0.2-0.2-0.4-0.4-0.6-0.4c-4.3-0.6-7-3-8.4-7c-0.6-1.7-0.8-3.5-0.6-5.4
			c0.3-3.5,1.5-6.7,3.2-9.8c3.3-6.2,7.8-11.4,13.2-15.8c1.1-0.9,2.2-1.7,3.4-2.5c1.6-1,2.9-2.4,4.3-3.7c2.9-2.8,6-5.3,9.6-7.2
			c2.4-1.3,5-2.1,7.7-2.6c1.4-0.2,2.8-0.4,4.2-0.5c0.2,0,0.4,0,0.5,0c0.3,0.1,0.6,0,0.9-0.1c1.4-0.5,2.7-1.2,4.2-1.6
			c2.1-0.7,4.3-0.8,6.5-0.7c1.6,0.1,3.2,0.1,4.8,0.3c2.7,0.3,5.3,0.9,7.9,2c0.9,0.4,1.9,0.9,2.8,1.2c0.4,0.2,0.9,0.2,1.4,0.1
			c1.7-0.2,3.3,0.1,4.9,0.5c1.9,0.5,3.7,1,5.5,1.9c2.5,1.2,4.8,2.8,6.8,4.7c2.3,2.3,4.5,4.7,6.3,7.4c2,3.1,3.8,6.4,5,9.9
			c1.4,3.9,2.6,7.8,3.9,11.7c0.5,1.4,0.9,2.8,1.7,4c1.5,2.1,3.5,3.6,6.1,4.3c1.8,0.5,3.5-0.2,4.7-1.9c0.7-0.9,1.2-1.9,1.5-3
			C511.8,105.4,511.9,104.8,512.1,104.2z M439.1,76c0,0,0.1,0.1,0.1,0.1c-0.2,0.3-0.4,0.5-0.6,0.8c-2.4,2.9-4.4,6-5.9,9.4
			c-1.7,3.8-2.9,7.7-3.5,11.8c-0.3,2-0.5,4-0.5,6c-0.1,2.7,0.2,5.3,0.8,7.9c0.8,3.6,2.1,7.1,4.2,10.2c0.9,1.3,1.9,2.7,3.2,3.7
			c3.5,2.6,7.4,4.2,11.8,4.5c1.7,0.1,3.4,0.1,5.1-0.4c1.7-0.6,3.5-1.1,5.1-1.9c3-1.7,5.4-4.1,7.2-7.1c1-1.6,1.6-3.3,1.6-5.3
			c0.1-3-0.4-5.8-2.1-8.4c-1.3-1.9-2.9-3.5-5.2-4.2c-0.4-0.1-0.8-0.2-1.2-0.3c0,0,0,0.1,0,0.1c0,0.1,0.1,0.1,0.1,0.2
			c0.9,1.1,1.6,2.4,2,3.8c0.5,2.5-0.4,4.5-2.5,6.1c-0.7,0.6-1.6,0.8-2.5,0.9c-1.1,0.1-2.2,0.1-3.2-0.5c-2.6-1.4-4.1-3.6-4.7-6.4
			c-0.1-0.2,0-0.5,0-0.8c0.1,0,0.1,0,0.2,0c0.4,1.4,1,2.8,2,3.9c0-0.2,0-0.3,0-0.4c-0.3-1.1-0.4-2.1-0.2-3.2
			c0.3-1.8,0.8-3.6,1.5-5.3c0.2-0.5,0.5-1.1,0.8-1.6c0.1,0,0.1,0,0.2,0.1c-0.2,0.5-0.4,1-0.6,1.5c-0.4,1.6-0.9,3.2-1.2,4.8
			c-0.1,0.6-0.2,1.2-0.1,1.8c0.1,0.9,0.3,1.8,0.7,2.6c0.4,1.1,1.2,2,2.3,2.4c1.5,0.5,2.9,0.2,4.3-0.5c1-0.6,1.5-1.6,2-2.6
			c0.4-1,0.3-2,0.1-3c-0.3-1.6-1-2.9-2.5-3.7c-0.1-0.1-0.2-0.1-0.3-0.2c-0.1-0.1-0.2-0.3-0.2-0.4c0-0.1,0.2-0.2,0.4-0.2
			c0.5,0,1,0.1,1.5,0.1c1.5,0.1,2.9,0.6,4.1,1.4c2.4,1.6,3.9,3.8,4.9,6.5c0.4,1.1,1.1,2,2.1,2.5c1.9,0.9,3.9,1.1,5.9,0.2
			c3.3-1.4,5.3-4,6.1-7.4c0.3-1.4,0.1-2.7-0.8-3.9c-0.2-0.2-0.4-0.5-0.6-0.8c0.3,0,0.5,0,0.6,0.1c1.7,0.4,3,1.4,4,2.7
			c1.4,1.8,2.2,3.8,2.4,6.1c0.1,1.7,0.1,3.4-0.3,5.1c-0.2,0.7-0.4,1.4-0.5,2c0.2,0.1,0.4,0.3,0.6,0.4c0.2,0.1,0.4,0.3,0.7,0.4
			c3,1.7,6.3,2.4,9.8,2.2c1.3-0.1,2.6-0.2,3.8-0.7c3.7-1.6,6.4-4.3,8-8c0-0.1,0-0.2,0-0.2c-0.6,0.3-1.1,0.7-1.6,1
			c-1.9,0.8-3.7,0.5-5.5-0.4c-2.9-1.5-4.9-3.8-6-6.9c-0.6-1.8-1-3.6-1.5-5.4c-0.9-3.4-2-6.8-3.5-10.1c-1.7-3.7-3.8-7.2-6.5-10.2
			c-1.6-1.7-3.2-3.5-5-5c-3.5-2.9-7.6-4.4-12-5.4c-0.4-0.1-0.8-0.1-1.1-0.2c0,0,0,0.1,0,0.1c3.4,2.3,6.4,5,8.9,8.3
			c2.5,3.2,4.6,6.7,6.1,10.5c-0.1-0.1-0.2-0.2-0.3-0.4c-1.4-2.5-2.9-4.8-4.7-7c-2.6-3.2-5.6-5.9-8.8-8.5c-2.1-1.7-4.3-3.3-6.9-4.4
			c-3.6-1.6-7.3-2.4-11.2-2.4c-2.5,0-5,0-7.4,0.6c-1.4,0.3-2.8,0.6-4.2,1.1c-2.8,0.9-5.2,2.6-7.5,4.3c-1.1,0.8-2.1,1.8-3.2,2.7
			c-0.2,0.1-0.4,0.3-0.6,0.4c0,0-0.1-0.1-0.1-0.1c1.1-1.4,2.5-2.5,3.8-3.7c1.3-1.2,2.7-2.3,4.2-3.3c-1.2,0.2-2.4,0.5-3.5,0.8
			c-3.2,0.8-6.2,2.1-8.9,3.8c-5.4,3.4-9.9,7.8-13.7,12.9c-1.3,1.8-2.5,3.6-3.8,5.4c-0.1,0.2-0.3,0.3-0.4,0.5c0,0-0.1-0.1-0.1-0.1
			c0-0.5,0.2-1,0.5-1.4c1.3-2,2.6-4.1,4-6.1c0.1-0.1,0.2-0.3,0.2-0.4c0,0-0.1,0-0.1-0.1c-0.1,0.1-0.2,0.1-0.3,0.2
			c-2.2,1.5-4.3,3.3-6.2,5.1c-4.5,4.3-7.8,9.3-10,15.1c-1,2.7-1.5,5.5-1,8.3c0.4,2.4,1.4,4.4,3.2,6.1c2.4,2.1,5.2,2.5,8.2,2.2
			c0.5-0.1,1-0.2,1.5-0.2c-0.2-0.1-0.3-0.2-0.5-0.2c-1.8-0.4-3.2-1.4-4.3-2.9c-2.4-3.1-2.8-6.7-2-10.4c0.4-2,1.3-3.9,2.2-5.8
			c0.3-0.6,0.7-1.1,1.1-1.8c0,0.2,0,0.2,0,0.2c0,0.1,0,0.1-0.1,0.2c-1.4,2.9-2.5,5.9-2.8,9.2c-0.1,1.6,0,3.2,0.6,4.8
			c1.4,3.9,4.2,5.9,8.3,6.1c0.2,0,0.5,0.1,0.7,0.1c0,0,0,0.1,0,0.1c-1.9,1.1-4,1.3-6.1,1.7c0.1,0.2,0.1,0.3,0.2,0.3
			c0.2,0.3,0.3,0.5,0.5,0.8c1.9,2.3,4.2,4,7,5.3c2.1,1,4.2,1.6,6.5,1.5c1.9-0.1,3.7-0.6,5.5-1.2c2.6-1,4.8-2.5,6.2-5.1
			c0.1-0.2,0.2-0.4,0.3-0.6c-0.1,0-0.2,0-0.2,0c-1.7,0.4-3.3,0.5-5,0.1c-2.3-0.5-4.1-1.6-5.5-3.4c-1.1-1.5-1.9-3.1-2.5-4.9
			c-0.6-1.7-0.9-3.5-1-5.3c-0.2-2.2-0.1-4.3,0.2-6.5c0.2-1.4,0.6-2.7,0.9-4c0.9-3.4,2.2-6.7,4-9.7c0.3-0.5,0.7-0.9,1.1-1.4
			c0,0,0.1,0.1,0.1,0.1c-0.2,0.3-0.5,0.6-0.6,1c-0.9,1.8-1.7,3.6-2.5,5.5c-1.2,3-2.1,6.1-2.5,9.4c-0.3,2.3-0.3,4.6,0.1,6.9
			c0.4,2.5,1.1,4.8,2.4,7c1.8,3.2,4.6,4.7,8.3,4.7c0.5,0,1.1-0.1,1.6-0.2c0.5-0.1,0.9-0.2,1.4-0.4c-0.2-0.2-0.2-0.3-0.3-0.4
			c-1.8-1.9-3.2-4.2-4.4-6.5c-1.7-3.3-2.5-6.9-2.3-10.6c0.1-1.9,0.4-3.8,0.6-5.7c0-0.3,0.2-0.6,0.2-0.9c0.1,0.1,0.1,0.2,0.1,0.3
			c-0.1,1.7-0.2,3.4-0.3,5.1c-0.1,2.1,0,4.2,0.5,6.3c1.2,4.3,3.3,8.2,6.4,11.5c0.2,0.2,0.3,0.4,0.6,0.1c0.1,0,0.2,0,0.3,0
			c0,0.1,0,0.2,0,0.3c-0.1,0.3,0,0.4,0.2,0.6c0.5,0.4,1.1,0.9,1.6,1.3c0.1,0.1,0.2,0.1,0.3,0.2c-0.1-0.2-0.2-0.4-0.3-0.5
			c-0.9-1.7-1.6-3.5-2.2-5.3c-0.8-2.8-1.3-5.6-1.4-8.5c-0.2-2.9,0-5.9,0.5-8.7c0.4-2.7,1.1-5.3,2.1-7.9c1.6-4.5,3.9-8.6,7-12.2
			C438,77.1,438.6,76.5,439.1,76z M468.7,112.7c0,0.3,0,0.5,0,0.7c0,0.5,0.1,1.1,0.1,1.6c0,1.8-0.4,3.5-0.9,5.2
			c-0.4,1.5-1.1,2.9-2.2,4.1c-0.2,0.3-0.1,0.4,0.2,0.5c0.8,0.3,1.6,0.7,2.4,0.9c2.2,0.6,4.4,0.5,6.7,0.2c2.9-0.4,5.4-1.6,7.6-3.6
			c1.8-1.6,3.1-3.5,3.7-5.8c0.3-1.2,0.5-2.4,0.7-3.6c0.4-2.1,0.2-4.2-0.5-6.3c-0.5-1.6-1.6-2.8-2.9-3.7c-0.1,0-0.1-0.1-0.3-0.1
			c0,0.1,0,0.3,0,0.4c0.2,1,0.2,1.9-0.1,2.9c-0.6,2.5-1.9,4.7-3.9,6.3c-1.4,1.2-3.1,2-5,2.3c-1.8,0.2-3.5-0.3-4.9-1.3
			C469.2,113.1,469,112.9,468.7,112.7z M498.6,120.6c0-0.1,0-0.1,0-0.2c-4.4,0.5-8.2-0.7-11.7-3.4c-0.5,1.6-1.4,3.1-2.4,4.5
			c0.1,0.1,0.1,0.1,0.1,0.1c0.1,0,0.2,0.1,0.3,0.1c1.2,0.5,2.4,0.5,3.6,0.5c2.6-0.1,5.2-0.2,7.7-0.9
			C497,121.1,497.8,120.8,498.6,120.6z M429.3,120.4c-0.6,1.6-1.6,2.9-2.7,4.1c2.4,0.5,4.6,0,6.7-1.4c-0.3-0.2-0.5-0.3-0.7-0.4
			c-0.3-0.1-0.6-0.2-0.8-0.4c-0.6-0.4-1.1-0.8-1.7-1.2C429.9,120.8,429.6,120.6,429.3,120.4z"/>
	</g>
</g>
</svg>
