<?xml version="1.0" encoding="utf-8"?>
<!-- Generator: Adobe Illustrator 21.0.0, SVG Export Plug-In . SVG Version: 6.00 Build 0)  -->
<svg version="1.1" id="圖層_1" xmlns="http://www.w3.org/2000/svg" xmlns:xlink="http://www.w3.org/1999/xlink" x="0px" y="0px"
	 viewBox="0 0 338 293.8" style="enable-background:new 0 0 338 293.8;" xml:space="preserve">
<style type="text/css">
	.st0{fill:#3F210F;}
	.st1{fill:#FFFFFF;}
	.st2{fill:#814323;}
</style>
<g>
	<path class="st0" d="M191.8,0c3.1,1.6,4.8,4.1,6,7.2c1.2,3,1.4,6.1,0.7,9.4c0.6-0.2,0.9-0.3,1.3-0.5c3.4-1.5,7.1-2.1,10.8-2.5
		c10.6-1,21.1-0.2,31.5,2.1c1.7,0.4,3.5,0.9,5.2,1.5c0.6,0.2,1.1,0.5,1.9,1c-3.9,2.3-7.2,4.8-9.6,8.5c1.9,0.2,3.7,0.4,5.4,0.6
		c5.9,0.9,11.5,2.6,17,4.8c19.4,7.8,36.9,18.6,52.7,32.2c0.9,0.8,1.8,1.7,2.7,2.5c0.1,0.1,0.2,0.3,0.4,0.6c-0.3,0.4-0.6,0.8-1,1.1
		c-4,3.8-8.1,7.6-12.2,11.4c-0.9,0.8-1.8,1.7-2.7,2.5c0.2,0.3,0.4,0.5,0.5,0.7c6.3,7.2,11.3,15.4,15.6,23.9
		c7.8,15.4,13.2,31.7,16.9,48.6c1.4,6.1,2.4,12.3,2.7,18.6c0.2,4.2,0,8.4,0,12.6c0,0.3-0.1,0.7-0.2,1.2c-0.6-0.2-1.2-0.3-1.8-0.5
		c-4.1-1.5-8.3-2.8-12.6-3.6c-0.3-0.1-0.7-0.1-1.2-0.2c0.3,1.5,0.6,2.8,0.7,4.2c0.1,1.3,0.9,2.6-0.2,4.1c-0.8-0.8-1.4-1.6-2.2-2.3
		c-0.8-0.6-1.7-1.2-2.8-1.9c0.1,1.3,0.2,2.2,0.3,3.1c0.6,7.9-0.8,15.5-3.2,23c-3.8,11.8-9.8,22.6-17.3,32.5c-2.3,3-4.5,6-7.5,8.4
		c-1,0.8-2.1,1.6-3.6,2.2c0.6-3.3,0.4-6.3-0.1-9.5c-0.4,0.3-0.6,0.4-0.7,0.6c-6.7,6.7-14.2,12.3-22,17.5
		c-11,7.3-22.4,13.7-34.5,18.9c-3.1,1.3-6.2,2.3-9.4,3.5c-0.3,0.1-0.7,0.2-1,0.3c-1.5,0.3-1.9-0.1-1.6-1.6c0.4-2.5,0.8-5.1,1.1-7.6
		c0.3-2.4,0.2-4.8-0.3-7.3c-0.5,0.4-1,0.6-1.3,0.9c-8.6,6.5-17.8,11.9-27.4,16.9c-3.1,1.6-6.4,2.8-9.6,4.1c-0.6,0.2-1.4,0.2-2.1,0.1
		c-11.5-1.8-22.4-5.5-32.7-11c-3.9-2.1-7.9-4.2-11.8-6.3c-0.2-0.1-0.3-0.2-0.8-0.3c0.3,0.7,0.5,1.1,0.6,1.6c0.7,2.2,1.5,4.5,2.1,6.7
		c0.4,1.4,0,1.7-1.4,1.8c-0.4,0-0.7,0-1.1-0.1c-5-1.1-10-2-14.9-3.2c-3.4-0.8-6.9-1.8-10.2-3.1c-8.8-3.3-17.5-6.9-26-10.9
		c-12.2-5.8-22.6-13.9-31.1-24.4c-0.2-0.2-0.4-0.5-0.7-0.8c-3.9,4.2-6.8,9-9.7,14.1c-0.4-0.4-0.8-0.7-1.1-1c-2.6-3.2-5-6.7-6.9-10.4
		c-6.7-13-11.1-26.8-13.4-41.2c-1.3-8.5-1.8-16.9-1.4-25.5c0.2-5,0.7-9.9,1.6-14.8c0.1-0.4,0.1-0.8,0.2-1.4c-3.4,1-6.6,2.1-9.6,3.6
		s-5.9,3.2-9,4.9c-0.1-0.4-0.2-0.7-0.2-1c0.2-2.8,0.4-5.6,0.7-8.4c1-8.8,3.7-17.1,6.3-25.5c3.4-10.8,7.1-21.4,12-31.6
		c4.2-8.8,9-17.2,15.1-24.8c2.8-3.5,6-6.5,9.2-9.5c0.4-0.3,0.8-0.7,1.1-1.1c-5.7-1.2-10.9-4-16-7.1c-7-4.4-12.2-9.4-12.6-12.1
		c0.5,0,1-0.2,1.5-0.1c4.3,0.6,8.4-0.2,12.5-1.1c7-1.5,13.6-4.1,20.1-7.1c6.4-2.9,12.9-5.9,19.3-8.9c6.1-2.9,12.3-5.6,18.7-7.8
		c0.2-0.1,0.5-0.2,0.9-0.4c-5.3-4-8.6-9.2-10.7-15.6c1,0.5,1.7,0.8,2.3,1.2c6.5,4,13.6,6.2,21,7.5c3.9,0.7,7.8,0.7,11.7,0.2
		c5.1-0.6,10.3-1.4,15.4-2.1c4.9-0.6,9.8-1,14.7-0.3c1.1,0.2,2.2,0.2,3.6,0.3c-1.5-2.8-3.3-5.2-5.1-7.5c-1.7-2.4-3.7-4.5-6.3-6.3
		c0.9-0.6,1.8-0.7,2.7-0.8c6.2-0.5,12.3,0.3,18.2,2.4c9,3.3,17.2,7.9,24.6,14.1c0.6,0.5,1.2,1.1,1.9,1.8c3-2.6,5.3-5.7,7-9.2
		C191.3,7.7,192.1,4,191.8,0z M123.2,268.8c0.2,0,0.3,0,0.5,0.1c0.5,0.2,0.9,0.5,1.3,0.8c9.1,6.5,19.1,11.3,29.3,15.7
		c7.3,3.1,14.9,5.1,22.7,6.5c1.3,0.2,2.4,0.2,3.6-0.3c1.7-0.7,3.4-1.2,5-2.1c5.4-2.9,10.7-5.9,16-9c6.9-4,13.3-8.8,19.5-13.8
		c0.5-0.4,1-0.9,1.5-1.3c0.4-0.3,0.8-0.5,1.2-0.1s0.3,0.9-0.1,1.2c-0.3,0.3-0.5,0.6-0.8,0.9c-0.7,0.6-1.4,1.3-2.2,1.9
		c-0.8,0.5-1,1.2-0.9,2.1c0.3,3.6,0.2,7.2-0.3,10.8c-0.2,1.6-0.5,3.2-0.8,5c2.1-0.8,4-1.5,6-2.3c16.1-6.8,31.1-15.6,45.2-25.9
		c7.2-5.3,14-11,19.8-17.7c0.2-0.2,0.6-0.2,1.2-0.4c-0.4,0.9-0.6,1.5-0.9,2c-0.5,0.9-1.1,1.7-1.7,2.6c-0.4,0.6-0.5,1.1-0.5,1.8
		c0.2,2.3,0.2,4.6,0.3,6.9c0,0.1,0.1,0.2,0.3,0.5c1.4-1.4,2.7-2.8,4-4.2c11.5-13.2,19-28.4,22.6-45.5c1-4.9,1.5-9.8,1.1-14.9
		c-0.1-1.1-0.2-2.1-1-3c-0.1-0.1-0.1-0.4-0.2-0.8c1.5-0.1,2.7,0.6,3.8,1.1c1.2,0.6,2.3,1.4,3.6,2.3c-0.4-2-0.8-3.9-1.1-5.7
		c-0.1-0.6-0.5-0.8-1.1-0.9c-0.5-0.1-1.3-0.1-1.4-1c0.3-0.1,0.5-0.2,0.7-0.2c5.9,0.6,11.6,2.1,17.2,4.4c0.1-1,0.3-1.9,0.3-2.8
		c0.5-5.6-0.4-11.2-1.4-16.7c-1.8-10.4-4.6-20.5-7.8-30.5c-3.9-12-8.6-23.6-14.8-34.6c-5.3-9.4-11.4-18.2-19.7-25.2
		c-0.2-0.1-0.2-0.4-0.3-0.5c3.2,1.2,5.5,3.8,8.2,5.5c0.1-0.1,0.2-0.1,0.3-0.1c4.5-4.4,8.9-8.8,13.4-13.2c0.3-0.3,0.5-0.7,0.9-1.2
		c-0.3-0.2-0.5-0.3-0.6-0.4c-11-9.8-23.2-17.8-36.3-24.4c-5.9-2.9-11.9-5.5-18-7.9c-6.9-2.7-14-4.6-21.5-5.1
		c-0.9-0.1-1.8,0.1-2.8-0.6c2.8-4.2,6.5-7.4,10.7-10c-0.2-0.2-0.3-0.3-0.4-0.3c-0.5-0.2-1-0.3-1.5-0.4c-5.1-1.4-10.3-2.1-15.6-2.5
		c-7.4-0.5-14.7-0.3-21.9,1c-3.2,0.6-6.3,1.3-9.2,2.8c-0.4,0.2-1,0.2-1.6,0.3c0-0.4-0.1-0.6,0-0.8c0.1-0.5,0.2-1,0.3-1.5
		c1.5-5.4,0.2-10.1-3.3-14.4c-0.2-0.2-0.5-0.4-0.8-0.6c-0.3,5-0.9,7.6-2.8,11.2c-2.1,3.9-5.5,7.9-7.5,8.8c-0.6-0.5-1.1-1-1.7-1.5
		c-6.3-5.1-13.4-9.1-20.9-12.4c-4.4-1.9-9.1-3.3-13.9-3.8c-2.1-0.2-4.3-0.4-6.6-0.3c0.3,0.4,0.5,0.7,0.7,0.9
		c2.5,2.8,4.5,5.9,6.4,9.1c0.5,0.9,0.9,1.9,1.2,2.8c0.2,0.4,0.1,0.9,0.2,1.3c-0.3,0.1-0.4,0.2-0.6,0.2c-0.3,0-0.6-0.1-0.9-0.1
		c-3.5-0.6-7-0.9-10.6-0.5c-4.3,0.4-8.6,0.9-12.9,1.3c-3.2,0.3-6.5,0.5-9.6,1c-5,0.8-10,0.8-15-0.1c-5.6-1.1-11-2.6-15.9-5.4
		c-0.2-0.1-0.5-0.2-1.1-0.5c2.5,5.1,5.8,9.1,10.5,12.4c-2.7,1.1-5,2.2-7.4,3c-4.7,1.7-9.4,3.6-13.9,5.8c-5.6,2.7-11.3,5.4-17,8
		c-6.3,2.9-12.7,5.6-19.4,7.4c-4.8,1.3-9.5,2.5-14.5,2.4c-0.1,0-0.2,0.1-0.6,0.3c9.3,8.9,20.2,13.8,33,14.4
		c-0.9,0.7-1.8,1.1-2.6,1.7c-8,5.6-14.5,12.7-19.9,20.8c-4.1,6.2-7.4,12.9-10.4,19.7c-4.2,9.2-7.4,18.8-10.5,28.4
		c-2.9,8.9-5.5,17.8-6.9,27.1c-0.2,1.5-0.4,3.1-0.7,4.9c1.8-1.2,3.3-2.4,4.9-3.3c4.2-2.3,8.4-4.6,12.6-6.8c0.8-0.4,1.3-0.9,1.5-1.9
		c1.6-7,4.3-13.6,7.3-20c0.3-0.6,0.7-1.2,1-1.8c0.1,0,0.2,0.1,0.3,0.1c0,0.3,0,0.5-0.1,0.8c-0.5,1.2-1.1,2.4-1.6,3.7
		c-3.6,8.7-5.5,17.8-6.4,27.2c-0.9,8.5-1.2,17.1-0.7,25.7c0.4,6.8,1.3,13.6,2.9,20.2c3.4,13.5,9,26.2,16.1,38.2
		c0.1,0.2,0.3,0.4,0.4,0.5c2.7-4,5.4-7.8,8.1-11.7c-0.3-0.4-0.5-0.8-0.8-1.2c-1.2-1.8-2.4-3.7-3.6-5.5c-0.3-0.4-0.7-0.9-0.2-1.7
		c0.3,0.3,0.6,0.5,0.8,0.8c0.8,1.1,1.5,2.2,2.3,3.3c8.1,10.8,18.1,19.6,29.9,26.2c8.1,4.6,16.6,8.4,25.1,12.1
		c6,2.6,12.2,4.9,18.6,6.3c4.3,0.9,8.6,1.9,12.9,2.9c0.2,0,0.4-0.1,0.6-0.1c-0.7-3.5-2.1-6.6-4.2-9.4c-0.6-0.8-1.3-1.4-2-2.1
		c-0.9-0.8-1.9-1.6-2.8-2.4C123.6,269.8,123.1,269.5,123.2,268.8z"/>
	<g>
		<path class="st1" d="M179.4,172.5h-21.7c-77.2,0-101.1,38.3-101.2,38.5c0.7,1.2,1.4,2.4,2.2,3.6c19.3,29.5,57.9,40.9,91.8,44.2
			c4.7,0.5,9.3,0.7,14,0.8c27.4,0.5,55.1-5.2,79.3-18.1c14.4-7.7,27.8-17.5,36.6-30.7C278.5,207.8,253.5,172.5,179.4,172.5z"/>
		<path class="st0" d="M166.4,169.4c0,0,6.6-0.1,9.6,0.4c3,0.6,5.7,1.8,3.4,5.3c-2.8,4.1-10.4,6.4-10.4,6.4s-7.6-2.3-10.4-6.4
			c-2.4-3.5,0.3-4.8,3.4-5.3c3-0.6,9.6-0.4,9.6-0.4"/>
		<path class="st0" d="M214,194c-0.3,0-0.7,0.2-0.7,0.6c0,0.1-1,7.1-15.7,9.4c-14.8,2.3-22.3-2.6-28-7.3v-14.1
			c0-0.3-0.3-0.6-0.6-0.6c-0.4,0-0.6,0.3-0.6,0.6v14.1c-5.7,4.8-13.2,9.6-28,7.3c-14.6-2.2-15.7-9.3-15.7-9.4c0-0.3-0.4-0.6-0.7-0.6
			c-0.3,0-0.6,0.4-0.6,0.7s1.1,8.1,16.7,10.5c2.6,0.4,5,0.6,7.3,0.6c10.1,0,16.4-3.8,21.6-8c5.2,4.3,11.5,8,21.6,8
			c2.2,0,4.6-0.2,7.3-0.6c15.7-2.4,16.7-10.2,16.7-10.5C214.6,194.4,214.4,194,214,194z"/>
		<path class="st0" d="M169.6,195.2c0,0,0.1,1.7,2,3h-0.3l-1.9-0.8l-0.3-0.7L169.6,195.2z"/>
		<path class="st0" d="M168.4,195.2c0,0-0.1,1.7-2,3h0.3l1.9-0.8l0.3-0.7L168.4,195.2z"/>
		<path class="st0" d="M158.4,182.6L158.4,182.6l-18-2.5c-0.2,0-0.4-0.2-0.4-0.5c0-0.2,0.2-0.4,0.5-0.4l17.9,2.5
			c0.2,0,0.4,0.2,0.4,0.5C158.8,182.4,158.6,182.6,158.4,182.6z"/>
		<path class="st0" d="M141.3,192.3c-0.2,0-0.4-0.1-0.4-0.3c-0.1-0.2,0.1-0.5,0.3-0.5l17.1-3.9c0.2-0.1,0.5,0.1,0.5,0.3
			c0.1,0.2-0.1,0.5-0.3,0.5L141.3,192.3C141.4,192.3,141.3,192.3,141.3,192.3z"/>
		<path class="st0" d="M179.6,182.6c-0.2,0-0.4-0.2-0.4-0.4s0.1-0.4,0.4-0.5l17.9-2.5c0.2,0,0.4,0.1,0.5,0.4c0,0.2-0.1,0.4-0.4,0.5
			L179.6,182.6L179.6,182.6z"/>
		<path class="st0" d="M196.7,192.3C196.6,192.3,196.6,192.3,196.7,192.3l-17.2-3.9c-0.2-0.1-0.4-0.3-0.3-0.5
			c0.1-0.2,0.3-0.4,0.5-0.3l17.1,3.9c0.2,0.1,0.4,0.3,0.3,0.5C197,192.1,196.9,192.3,196.7,192.3z"/>
		<path class="st0" d="M226.2,120.3c-1,0.3-2.1,0.5-3.2,0.6c-3.4,0.4-6.7,0-9.3-1.1c-2.7-1.2-4.3-3-4.6-5.2s0.9-4.3,3.3-6.1
			c2.3-1.7,5.4-2.8,8.8-3.2c7.3-0.9,13.4,1.9,13.9,6.3l0,0C235.6,115.3,231.8,118.8,226.2,120.3z M218.5,107.1
			c-2,0.5-3.8,1.4-5.2,2.4c-2,1.5-3,3.2-2.8,4.9c0.2,1.7,1.6,3.2,3.8,4.1c2.4,1,5.5,1.4,8.6,1c6.5-0.8,11.4-4.3,10.9-7.9
			c-0.4-3.6-6-5.9-12.5-5.2C220.4,106.7,219.4,106.8,218.5,107.1z"/>
		
			<ellipse transform="matrix(0.9998 -2.218380e-02 2.218380e-02 0.9998 -3.2463 4.7775)" class="st2" cx="213.7" cy="148.7" rx="9.3" ry="12.6"/>
		<g>
			<path class="st0" d="M270.6,102.4c-1.4-2-2.9-3.9-4.4-5.8c3.2-0.5,5.7-1.3,5.7-1.3c0.4-0.2,0.7-0.3,1.1-0.5
				c7.8-3.8,13.8-10.2,16-18.5l0,0c2.5-7,1.8-14.9-1.2-21.6c-5.9-13.2-21.3-19.6-35.1-18.2c-2.6,0.3-5.1,0.8-7.6,1.6
				c-0.3,0.1-0.7,0.3-1,0.5c-0.5,0.2-1.1,0.4-1.6,0.7C232.2,43.9,224.7,53.7,224,63l-7-2.8c0,0-21.1-7.7-46.2-7.7
				s-50.2,10.8-50.2,10.8c-2.3,0.9-5.4,2.2-6.7,2.8c0.7-7.5-3.5-16-10.8-22l0,0c0,0,0,0-0.1,0c-0.4-0.3-0.8-0.6-1.1-0.9
				c-0.2-0.2-0.4-0.3-0.4-0.4c-0.6-0.4-1.2-0.9-1.8-1.3c-1.2-0.8-2.5-1.6-3.9-2.2c-1.3-0.6-2.6-1.2-3.9-1.5c-1.9-0.6-3.9-0.9-6-1.1
				c-13.8-1.4-29.2,5-35.1,18.2c-1.7,3.9-2.7,8.1-2.7,12.3l0,0c0,0-0.6,10.1,6.1,18.8l0,0c1.6,2.1,3.1,3.6,3.9,4.4
				c1.6,1.6,6.5,5.1,11.4,6.5c-6.4,7.6-38,48.3-20.8,97.9c0,0-0.2-0.9-0.5-2.5c0.7,2.8,1.6,5.5,2.6,8.2c1.9,5.2,4.4,10.1,7.3,14.6
				c20.5,31.3,61.5,41.5,92.3,44.5c4.7,0.5,9.4,0.7,14.1,0.8c1.2,0,2.4,0,3.6,0c27.5,0,53.7-6.3,76.1-18.2
				c25.7-13.7,40.7-30.4,45.8-51.1C297,162.6,289.7,129.4,270.6,102.4z M282.2,199.9c-20.7,45.5-99.6,67.8-164.6,52.4
				c-22.5-6.2-45-17.5-58.4-38c-2.9-4.5-5.3-9.3-7.2-14.3c-12.5-33.8-4.2-72.8,21.7-101.8c0.6-0.7,1.2-1.4,1.9-2c0.2,0,0.4,0,0.6,0
				c3,0,6-0.5,9-1.6c0.3-0.1,0.5-0.5,0.4-0.8s-0.5-0.5-0.8-0.4c-11.1,4-22.7,0-29.6-10.2c-5.5-8.1-8.2-21.7,2-33.2
				c6.3-6.3,12.4-9.6,18-11.1c0.9-0.2,1.7-0.4,2.7-0.6c9-1.5,16.3,1.5,20,3.6c10.6,6,16.9,17.3,14.6,26.3c0,0,0,0,0,0.1s0,0.1,0,0.2
				v0.1v0.1l0,0c0,0.1,0.1,0.2,0.2,0.2l0,0l0.1,0.1h0.1l0,0l0,0c0.1,0,0.1,0,0.2,0l0,0l0,0l0,0c3.5-1.7,7.1-3.2,10.8-4.5
				c0,0,21.1-8.5,46.9-8.5s46.3,7.3,46.3,7.3c2.4,0.9,4.7,1.8,7,2.9c0.2,0.1,0.4,0.1,0.5,0l0,0c0.1,0,0.1-0.1,0.1-0.1s0-0.1,0.1-0.1
				c0,0,0,0,0.1-0.1l0,0c0-0.1,0-0.1,0-0.2v-0.1l0,0c-0.6-9.4,7.1-20.1,17.7-24.8c12.5-5.6,26.3-2.2,37.9,9.3
				c10.3,11.5,7.5,25.1,2,33.2c-6.9,10.2-18.6,14.2-29.6,10.2c-0.3-0.1-0.7,0.1-0.8,0.4s0.1,0.7,0.4,0.8c0.1,0.1,0.3,0.1,0.4,0.1
				c2.6,2.5,7.4,2.7,11.5,2.2C269.8,104.3,302.8,154.7,282.2,199.9z"/>
			<path class="st0" d="M85.5,59.6c-5.4-3.9-13.8-3.6-18.9,0.7c-3.5,3-5.2,8.2-4.2,13.2c0.9,4.4,3.8,8.6,8,11.5c3.6,2.5,7,3,11,3.6
				l1.3,0.2c0,0,0,0,0.1,0s0.2,0,0.3-0.1l12.8-11.2l0,0c0.1-0.1,0.2-0.2,0.3-0.4c0.1-0.1,0.2-0.2,0.2-0.3c0.1-0.1,0.1-0.3,0.1-0.4
				C94.5,69.6,90.3,63.1,85.5,59.6z M95.4,76.7c-0.1,0.1-0.1,0.2-0.2,0.3L82.6,88l-1.1-0.2c-4-0.6-7.2-1.1-10.6-3.5
				c-4-2.8-6.8-6.8-7.6-11c-1-4.7,0.6-9.5,3.9-12.3c2.5-2.2,6-3.3,9.4-3.3c3,0,6,0.8,8.4,2.6c4.6,3.4,8.7,9.5,10.5,16.1
				C95.5,76.5,95.5,76.6,95.4,76.7z"/>
			<path class="st0" d="M255,88.8c0.1,0.1,0.2,0.1,0.3,0.1c0,0,0,0,0.1,0l1.3-0.2c4-0.6,7.4-1.1,11-3.6c4.2-2.9,7.1-7.1,8-11.5
				c1-5-0.6-10.1-4.2-13.2c-5-4.3-13.5-4.6-18.9-0.7c-4.8,3.5-9,9.9-10.9,16.8c0,0.1,0,0.3,0.1,0.4c0,0.1,0.1,0.2,0.2,0.3
				c0.1,0.2,0.2,0.4,0.3,0.4l0,0L255,88.8z M253,60.3c5.1-3.7,13.1-3.4,17.8,0.7c3.3,2.8,4.8,7.7,3.9,12.3c-0.9,4.2-3.6,8.2-7.6,11
				c-3.4,2.4-6.6,2.9-10.6,3.5l-1.1,0.2l-12.6-11.1c0-0.1-0.1-0.2-0.2-0.3c0-0.1-0.1-0.1-0.1-0.2C244.3,69.8,248.3,63.7,253,60.3z"
				/>
		</g>
		<path class="st0" d="M102.7,111.6L102.7,111.6c0.5-4.4,6.6-7.1,13.9-6.3c3.4,0.4,6.5,1.6,8.8,3.2c2.4,1.8,3.5,3.9,3.3,6.1
			c-0.3,2.2-1.9,4-4.6,5.2c-2.6,1.1-5.9,1.5-9.3,1.1c-1.1-0.1-2.2-0.3-3.2-0.6C106,118.8,102.2,115.3,102.7,111.6z M116.4,106.5
			c-6.5-0.8-12.1,1.6-12.5,5.2s4.5,7.2,10.9,7.9c3.2,0.4,6.3,0,8.6-1c2.3-1,3.6-2.5,3.8-4.1c0.2-1.7-0.8-3.4-2.8-4.9
			c-1.4-1.1-3.2-1.9-5.2-2.4C118.4,106.8,117.4,106.7,116.4,106.5z"/>
		
			<ellipse transform="matrix(2.218380e-02 -0.9998 0.9998 2.218380e-02 -27.3689 269.4015)" class="st2" cx="124" cy="148.7" rx="12.6" ry="9.3"/>
		<g>
			<path class="st0" d="M229.5,168.3c-0.1,0-0.2,0-0.4-0.1c-0.3-0.2-0.4-0.5-0.2-0.8c5.5-8.1,5.5-20.1-0.1-28
				c-4.2-5.9-10.8-8.6-18.6-7.4c-0.3,0-0.7-0.2-0.7-0.5c-0.1-0.3,0.2-0.6,0.5-0.7c8.3-1.2,15.4,1.6,19.9,7.9
				c5.8,8.2,5.9,20.8,0.1,29.3C230,168.2,229.8,168.3,229.5,168.3z"/>
			<path class="st0" d="M194.3,164.9c0,0,24.2-1.5,46.8,4.7l-0.3,1.1C240.8,170.6,217,165.2,194.3,164.9z"/>
			<path class="st0" d="M243.5,171.1c16.8-51.3-59.1-59.1-48.6-6.3c-7-50.1,62.5-41.2,45.7,4.8C241.3,170,242.7,170.8,243.5,171.1z"
				/>
			<path class="st0" d="M245,172.2l-2.2-2.9l-2.4,0.2l-0.4,1C240,170.4,242.8,171.1,245,172.2z"/>
			
				<ellipse transform="matrix(0.9998 -2.218380e-02 2.218380e-02 0.9998 -3.2748 4.8066)" class="st0" cx="215" cy="150" rx="9.3" ry="12.6"/>
			<path class="st0" d="M108.3,168.3c0.1,0,0.2,0,0.4-0.1c0.3-0.2,0.4-0.5,0.2-0.8c-5.5-8.1-5.5-20.1,0.1-28
				c4.2-5.9,10.8-8.6,18.6-7.4c0.3,0,0.7-0.2,0.7-0.5c0.1-0.3-0.2-0.6-0.5-0.7c-8.3-1.2-15.4,1.6-19.9,7.9
				c-5.8,8.2-5.9,20.8-0.1,29.3C107.8,168.2,108,168.3,108.3,168.3z"/>
			<path class="st0" d="M143.5,164.9c0,0-24.2-1.5-46.8,4.7l0.3,1.1C97,170.6,120.8,165.2,143.5,164.9z"/>
			<path class="st0" d="M94.3,171.1c-16.8-51.3,59.1-59.1,48.6-6.3c7-50.1-62.5-41.2-45.7,4.8C96.5,170,95.1,170.8,94.3,171.1z"/>
			<path class="st0" d="M92.8,172.2l2.2-2.9l2.4,0.2l0.4,1C97.8,170.4,95,171.1,92.8,172.2z"/>
			
				<ellipse transform="matrix(2.218380e-02 -0.9998 0.9998 2.218380e-02 -29.9391 269.3816)" class="st0" cx="122.7" cy="150" rx="12.6" ry="9.3"/>
		</g>
		
			<ellipse transform="matrix(2.219046e-02 -0.9998 0.9998 2.219046e-02 -28.6422 254.2592)" class="st1" cx="115.7" cy="141.8" rx="6.3" ry="6.3"/>
		
			<ellipse transform="matrix(0.9998 -2.219046e-02 2.219046e-02 0.9998 -3.0957 4.6352)" class="st1" cx="207.3" cy="141.8" rx="6.3" ry="6.3"/>
	</g>
</g>
<g>
	<path class="st0" d="M213.9,56.1c-0.3-2.2-0.7-4.4-1.3-6.5c-1.9-6.1-4.9-8.7-4.9-8.7l0,0c4.1,7.5,6.2,17.1,5,25.9
		c-1.2,9.1-5.7,16-12.6,19.6c0.7-0.8,1.4-1.8,2-2.8c1.2-2.3,2-4.2,1-6.7c0,0,0,0,0,0c0-0.4,0.1-0.7,0-1c0-0.4-0.3-0.6-0.7-0.6
		c-0.4,0-0.6,0.3-0.6,0.7c0.1,1.5-0.8,3.1-2.3,4.3c-1.1,0.8-2.4,1.4-3.7,2c-0.4,0.2-0.8,0.4-1.3,0.6c-4.1,2-7.1,4.6-8.8,7.7
		c-1.8,3.2-2.1,6.9-1,10c-3.3-1.5-6.7-5.1-8.2-8.1c0.2-2.3,0.7-4.6,1.6-6.7c0.1-0.3,0-0.7-0.3-0.8c-0.3-0.1-0.7,0-0.8,0.3
		c-1,2.3-1.5,4.7-1.7,7.2c0,0.1,0,0.2,0,0.2c-0.3,5,0.8,10.1,3.4,14.4c-7.8,1.5-16.6-0.1-25-4.7c-5.2-2.8-9.4-6.3-12.5-10.3
		c-3-3.9-5.6-11-6.5-16.1c2.1-3.2,2.3-5.7,2.3-5.7c0.2-0.3,0.1-0.7-0.3-0.9c-0.3-0.2-0.7-0.1-0.9,0.3c-2.4,4.4-5.1,7.7-8.1,9.9
		c-4.1,3-9.2,4.4-14.1,5.4c3.9-2.8,5.9-7.8,6.6-11.9c0.5-3.1,0.4-6.2,0.4-9.2c0-2.6-0.1-5.3,0.2-8c1-9,6.2-17.6,14-23.4l0,0
		c-7.7,5.4-10.6,9.7-11.2,10.9c-2.1,3.8-3.5,8-4,12.3c-0.3,2.7-0.3,5.5-0.2,8.1c0,3,0.1,6.1-0.4,9c-0.7,4.8-3.6,11-9.3,12.6
		c-0.2,0.1-0.3,0.2-0.4,0.4c-0.2,0.1-0.2,0.3-0.2,0.6c0.1,0.3,0.3,0.5,0.6,0.5c12.2-0.8,19-4.5,22.7-8.3c1,5.2,6.2,23,30.4,28.9
		c0,0,0,0-0.1,0c3.4,1,6.8,1.5,10.1,1.5c2.4,0,4.7-0.3,6.9-0.8c0.3-0.1,0.6-0.4,0.5-0.8c0-0.1-0.1-0.2-0.1-0.2c0,0,0,0,0,0
		c-2-3-3.2-6.5-3.6-10.2c1.7,1.6,5.8,5.3,9.5,5.6c0.1,0,0.2,0,0.3-0.1c0.3-0.2,0.4-0.6,0.2-0.9c-1.8-2.9-1.6-7,0.3-10.3
		c1.6-2.9,4.5-5.4,8.3-7.2c0.4-0.2,0.8-0.4,1.2-0.6c1.3-0.6,2.7-1.3,3.9-2.2c0.8-0.6,1.5-1.4,2-2.2c0,1.3-0.5,2.5-1.3,4
		c-1,2-2.6,3.6-4,4.8c0,0,0,0,0,0c-0.2,0.2-0.4,0.3-0.5,0.5c-0.3,0.2-0.3,0.6-0.1,0.9c0.1,0.2,0.3,0.2,0.5,0.2c0.1,0,0.3,0,0.4-0.1
		c0.1-0.1,0.2-0.2,0.3-0.3c0,0,0,0,0.1,0c9.1-3.3,15-11.1,16.5-22c0.5-3.5,0.5-7.2,0-10.8C213.9,56.1,213.9,56.1,213.9,56.1z"/>
</g>
</svg>
