<?xml version="1.0" encoding="utf-8"?>
<!-- Generator: Adobe Illustrator 21.0.0, SVG Export Plug-In . SVG Version: 6.00 Build 0)  -->
<svg version="1.1" id="圖層_1" xmlns="http://www.w3.org/2000/svg" xmlns:xlink="http://www.w3.org/1999/xlink" x="0px" y="0px"
	 viewBox="0 0 822.9 601.4" style="enable-background:new 0 0 822.9 601.4;" xml:space="preserve">
<style type="text/css">
	.st0{fill:url(#SVGID_1_);}
	.st1{opacity:0.6;fill:#D59543;enable-background:new    ;}
	.st2{fill:#AB6C21;}
	.st3{fill:url(#SVGID_2_);}
	.st4{fill:url(#SVGID_3_);}
	.st5{fill:#E5A852;}
	.st6{fill:#D6B092;}
	.st7{fill:#8C5924;}
	.st8{fill:url(#SVGID_4_);}
	.st9{opacity:0.8;fill:#D59543;enable-background:new    ;}
	.st10{fill:url(#SVGID_5_);}
	.st11{fill:url(#SVGID_6_);}
	.st12{fill:url(#SVGID_7_);}
	.st13{fill:url(#SVGID_8_);}
	.st14{fill:#DEB87D;}
	.st15{fill:#F4E3A5;}
</style>
<g>
	<g>
		
			<linearGradient id="SVGID_1_" gradientUnits="userSpaceOnUse" x1="276.3869" y1="285.2234" x2="380.3871" y2="285.2234" gradientTransform="matrix(1 0 0 -1 0 602)">
			<stop  offset="0" style="stop-color:#F2D397"/>
			<stop  offset="0.5331" style="stop-color:#F3D093"/>
			<stop  offset="0.7526" style="stop-color:#F5CC8F"/>
			<stop  offset="1" style="stop-color:#F3B699"/>
		</linearGradient>
		<path class="st0" d="M376.8,359.2l-8.8-20c-0.6-8.8-9.1-20-13.9-25.6c20.2-25.5,36.7-38.7,36.7-38.7s8.8-2.7,9.3,3.9
			c0,0,3.8,18.3,0,33.7c-3.8,15.3-7.2,19.6-7.2,19.6S385.2,344.3,376.8,359.2z"/>
		<path class="st1" d="M376.7,359l-8.7-19.7c-0.2-3.4-1.7-7.3-3.6-11c9.7-19.1,18.8-32.7,18.8-32.7h18.6l-4.5,20.5
			C388.6,339,380.7,352.7,376.7,359z"/>
		<g>
			<path class="st2" d="M377.4,360.6l-1.3-3c6-11.6,11.6-21.6,15-25.5c0.5-0.5,1.2-0.6,1.8-0.1c0.5,0.5,0.6,1.2,0.1,1.8
				C389.5,337.7,383.6,348.3,377.4,360.6z"/>
			<path class="st2" d="M354.5,314.2c-1.2-1.4-2.2-2.6-2.9-3.3c19.6-24.3,36.5-36.6,36.5-36.6l2,0.9c0.2,0,0.4,0.1,0.5,0.2
				c0.2,0.3,0.2,0.7-0.1,0.9C390.2,276.7,374.2,289.6,354.5,314.2z"/>
		</g>
	</g>
	<g>
		
			<linearGradient id="SVGID_2_" gradientUnits="userSpaceOnUse" x1="4149.9287" y1="285.2234" x2="4253.9287" y2="285.2234" gradientTransform="matrix(-1 0 0 -1 4768.4385 602)">
			<stop  offset="0" style="stop-color:#F2D397"/>
			<stop  offset="0.5331" style="stop-color:#F3D093"/>
			<stop  offset="0.7526" style="stop-color:#F5CC8F"/>
			<stop  offset="1" style="stop-color:#F3B699"/>
		</linearGradient>
		<path class="st3" d="M518.1,359.2l8.8-20c0.6-8.8,9.1-20,13.9-25.6c-20.2-25.5-36.7-38.7-36.7-38.7s-8.8-2.7-9.3,3.9
			c0,0-3.8,18.3,0,33.7c3.8,15.3,7.2,19.6,7.2,19.6S509.7,344.3,518.1,359.2z"/>
		<path class="st1" d="M518.2,359l8.7-19.7c0.2-3.4,1.7-7.3,3.6-11c-9.7-19.1-18.8-32.7-18.8-32.7h-18.6l4.5,20.5
			C506.3,339,514.2,352.7,518.2,359z"/>
		<g>
			<path class="st2" d="M517.5,360.6l1.3-3c-6-11.6-11.6-21.6-15-25.5c-0.5-0.5-1.2-0.6-1.8-0.1c-0.5,0.5-0.6,1.2-0.1,1.8
				C505.4,337.7,511.3,348.3,517.5,360.6z"/>
			<path class="st2" d="M540.4,314.2c1.2-1.4,2.2-2.6,2.9-3.3c-19.6-24.3-36.5-36.6-36.5-36.6l-2,0.9c-0.2,0-0.4,0.1-0.5,0.2
				c-0.2,0.3-0.2,0.7,0.1,0.9C504.7,276.7,520.7,289.6,540.4,314.2z"/>
		</g>
	</g>
	<g>
		
			<linearGradient id="SVGID_3_" gradientUnits="userSpaceOnUse" x1="529" y1="141.7372" x2="599.851" y2="141.7372" gradientTransform="matrix(1 0 0 -1 0 602)">
			<stop  offset="0" style="stop-color:#F2D397"/>
			<stop  offset="0.5331" style="stop-color:#F3D093"/>
			<stop  offset="0.7526" style="stop-color:#F5CC8F"/>
			<stop  offset="1" style="stop-color:#F3B699"/>
		</linearGradient>
		<path class="st4" d="M594.6,490.4c-5.4,2-12.3-0.8-17-2.9c-21.3-10.8-30.9-33.8-34.9-51.4l-8.8-13.7L529,444l3.4,14.1l6,9.5
			c8.5,13.7,18.9,25,34.5,28.9c7.1,1.8,18.2,3,24.1-1.4C604.6,488.9,594.6,490.4,594.6,490.4z"/>
		<path class="st5" d="M599.6,497.9c-11.6-11.7-1.2-24.7,12.6-26.5c8.4-1.2,21.6-1.5,22.2-12.7C639.2,475.8,619.9,513.5,599.6,497.9
			z"/>
		<path class="st6" d="M633.4,473.7c-1.5,8.7-11.8,17.4-11.8,17.4c0.5-1.2,1.6-7.1,1.6-7.1c-5.7,15.4-27,7.7-27,7.7l-0.3,0.9
			c0.8,1.8,2,3.5,3.8,5.3c15,11.5,29.4-6,34-22.8L633.4,473.7z"/>
		<path class="st1" d="M542.1,458.1c0,0,6.8,25,20.3,33.7c0,0-12.3-5.1-24-21.1L542.1,458.1z"/>
		<path class="st2" d="M585.3,498.8c-5.3,0-10.3-1.1-12.5-1.6c-13.8-3.4-24.5-12.4-34.9-29.2c-0.2-0.3-0.1-0.7,0.2-0.9
			c0.3-0.2,0.7-0.1,0.9,0.2c10.2,16.5,20.7,25.3,34.1,28.6c7.9,2,18.2,2.7,23.5-1.3c0.3-0.2,0.7-0.2,0.9,0.1
			c0.2,0.3,0.2,0.7-0.1,0.9C594.2,498.1,589.6,498.8,585.3,498.8z"/>
		<path class="st2" d="M590.5,491.8c-4.9,0-10-2.2-13-3.6c-23.1-11.7-32-37.5-35.3-51.8c-0.1-0.3,0.1-0.7,0.5-0.8
			c0.3-0.1,0.7,0.1,0.8,0.5c3.2,14.1,12,39.5,34.6,51c3.8,1.7,11,4.8,16.4,2.8c0.3-0.1,0.7,0,0.8,0.4c0.1,0.3,0,0.7-0.4,0.8
			C593.4,491.6,592,491.8,590.5,491.8z"/>
		<path class="st7" d="M609.5,502.3c-3.5,0-6.9-1.3-10.3-3.8c0,0,0,0-0.1-0.1c-4.7-4.7-6.3-10.1-4.5-15.2
			c2.2-6.4,9.2-11.4,17.5-12.4c0.9-0.1,1.8-0.2,2.8-0.4c8.2-1,18.4-2.3,18.9-11.7c0-0.3,0.3-0.6,0.6-0.6s0.6,0.2,0.7,0.5
			c3.4,12.1-4.9,32.9-16.1,40.5C615.8,501.2,612.7,502.3,609.5,502.3z M600.1,497.4c5.9,4.5,12.1,4.7,18.2,0.6
			c9.9-6.7,17.4-24,16.2-35.8c-2.6,7.4-12.1,8.6-19.3,9.5c-1,0.1-1.9,0.2-2.8,0.4c-7.8,1-14.5,5.7-16.5,11.6
			C594.8,486.9,594.6,491.9,600.1,497.4z"/>
		<path class="st2" d="M545.4,439.4c0,0,6.7,28.6,27.5,44.7c0,0-15.7-6.8-26.6-35.5l-2.9-7.3L545.4,439.4z"/>
		<path class="st2" d="M539.6,473.5c0,0,15,19.2,28.1,22.2l-11.9-7.4c0,0-14.7-13.9-16.2-17.5L539.6,473.5L539.6,473.5z"/>
	</g>
	<g>
		
			<linearGradient id="SVGID_4_" gradientUnits="userSpaceOnUse" x1="349.9659" y1="110.8908" x2="544.2831" y2="110.8908" gradientTransform="matrix(1 0 0 -1 0 602)">
			<stop  offset="0" style="stop-color:#F2D397"/>
			<stop  offset="0.5331" style="stop-color:#F3D093"/>
			<stop  offset="0.7526" style="stop-color:#F5CC8F"/>
			<stop  offset="1" style="stop-color:#F3B699"/>
		</linearGradient>
		<path class="st8" d="M445.2,458.1L445.2,458.1c0.2,0,0.4,0,0.6,0c-0.4,0-0.7,0-1.1,0l-0.1-3.6l-1-11.3l-39.9-23.6l-39.1-10.8
			l-12.1,5l-1,6.4l0.3,1.3c0.3,30.5,6.4,64.9,22.8,101.1v0.5c-7.3,4.8-16.9,13.5-17.6,26.6c-1.2,21.4,17.1,22.5,22,22.3l5-0.1
			c5.2,1.9,11.5,1.8,17.2-0.1l-0.3-0.5c3.5,1.8,7.8,2.4,12.4,2c0,0,19-0.4,25-8.3c6-7.9,6.2-15.5,7.3-39.3
			C446.6,501.8,445.2,458.1,445.2,458.1z"/>
		<path class="st9" d="M366.3,563c2.2-3,8.9-18.3,8.9-18.3c-5.5,12.4,0,19.9,0,19.9c3.8,3.3,11.6,0.5,11.6,0.5
			c-3-10.1,8.6-18.3,8.6-18.3c-7.8,11.5,0,19.3,0,19.3c34.5,6.5,48.3-14.8,48.3-14.8l0,0c-0.9,5.9-2.5,9.8-5.5,13.8
			c-6,7.9-25,8.3-25,8.3c-4.6,0.4-8.9-0.2-12.4-2l0.3,0.5c-5.7,1.9-12,1.9-17.2,0.1l-5,0.1c-3.5,0.2-13.9-0.3-19-8.5l-0.1-0.2
			c0-0.1-0.1-0.1-0.1-0.2C359.7,563.1,364.1,565.9,366.3,563z"/>
		<path class="st9" d="M423.3,455.2c5.6,2.3,16.9,2.8,21.9,2.9v0.2l0.1-0.1c0,0,0,0.7,0.1,2l0,0l0,0c0.3,8.9,1.2,44.7,0.2,65.4
			c-0.4,8.2-0.7,14.5-1.1,19.6C445,505.6,423.3,455.2,423.3,455.2z"/>
		<path class="st2" d="M445.9,458.1c0-0.3-0.3-0.6-0.6-0.6l0,0c-0.4,0-0.6,0.3-0.6,0.7l0,0l0,0h-2.9c0,0,3.4,47.1,2.8,73.5
			c-0.9,19-1.6,25.9-6.9,33c-5.7,7.6-24.3,8.1-24.5,8.1c-6.2,0.6-17.1-0.4-20-12.9c-2.3-9.9,7.3-18.1,7.4-18.2
			c0.3-0.2,0.3-0.6,0.1-0.9c-0.2-0.3-0.6-0.3-0.9-0.1s-4.8,4-7,9.7l0,0c0,0-7.4,12.4,5.2,21.6c-4.5,1-9.2,0.8-13.1-0.5
			c-0.1-0.2-0.3-0.3-0.5-0.3l0,0h-0.3c-0.9-0.3-1.7-0.7-2.5-1.1c-3.8-2.1-6.4-5.3-7.5-9.3c-3.6-13.2,5.6-20.7,6-21
			c0.3-0.2,0.3-0.6,0.1-0.9c-0.2-0.3-0.6-0.3-0.9-0.1c-0.1,0-3.6,2.9-5.7,8.2l0,0c0,0-0.1,0.3-0.3,0.9c0,0.1-0.1,0.2-0.1,0.2
			c-1.3,3.8-5,16.7,2.8,23.2c-3.6-0.3-9.3-1.4-13.3-5.5c-3.7-3.7-5.3-9.1-4.9-16c0.7-13.1,10.7-21.8,18-26.5L375,522
			c-16.9-37.5-22.6-72.9-22.6-103.3l-0.4-2.5l-0.6-3.8l-1.8-0.8l-1,3.9c0,4.9,0.2,9.9,0.6,14.9c0,0,0.4,49.6,21.3,90.5
			c-5.3,4.2-24.6,21.5-11.6,42.4l0,0c0,0.1,0.1,0.1,0.1,0.2c0,0,0-0.1-0.1-0.1c0.7,1.2,1.5,2.2,2.5,3.2c5.3,5.3,12.8,6,16.2,6l0,0
			l0,0l0,0c0.4,0,0.8,0,1.1,0l4.8-0.1c2.6,0.9,5.4,1.4,8.4,1.4s6.1-0.5,9.2-1.5c0.1,0,0.1-0.1,0.1-0.1c2.6,1.2,5.6,1.8,9,1.8
			c0.9,0,1.8,0,2.7-0.1c0.8,0,19.3-0.5,25.4-8.6c5.9-7.8,6.3-15.2,7.3-37.2l0.1-2.5C447.3,502.1,445.9,458.6,445.9,458.1z"/>
	</g>
	<g>
		
			<linearGradient id="SVGID_5_" gradientUnits="userSpaceOnUse" x1="350.2322" y1="110.9908" x2="544.0099" y2="110.9908" gradientTransform="matrix(1 0 0 -1 0 602)">
			<stop  offset="0" style="stop-color:#F2D397"/>
			<stop  offset="0.5331" style="stop-color:#F3D093"/>
			<stop  offset="0.7526" style="stop-color:#F5CC8F"/>
			<stop  offset="1" style="stop-color:#F3B699"/>
		</linearGradient>
		<path class="st10" d="M520.2,522.8l0.3-0.3c16.9-37.3,22.8-72.6,22.8-103.7c-0.2,0.2-0.3,0.3-0.5,0.5l-0.9-5.6l-12.1-5l-39.1,10.8
			l-39.9,23.6l-1,11.3l-0.3,7.6l0.2,0.4c-0.3,11.5-1.1,43.9-0.1,63.2c1.2,23.8,1.3,31.4,7.3,39.3c6,7.9,25,8.3,25,8.3
			c4.6,0.4,8.9-0.2,12.4-2l-0.3,0.5c5.7,1.9,12,1.9,17.2,0.1l5,0.1c4.9,0.2,23.2-0.8,22-22.3C537.4,536.4,527.6,527.6,520.2,522.8z"
			/>
		<path class="st9" d="M528.7,563c-2.2-3-8.9-18.3-8.9-18.3c5.5,12.4,0,19.9,0,19.9c-3.8,3.3-11.6,0.5-11.6,0.5
			c3-10.1-8.6-18.3-8.6-18.3c7.8,11.5,0,19.3,0,19.3c-34.5,6.5-48.3-14.8-48.3-14.8l0,0c0.9,5.9,2.5,9.8,5.5,13.8
			c6,7.9,25,8.3,25,8.3c4.6,0.4,8.9-0.2,12.4-2l-0.3,0.5c5.7,1.9,12,1.9,17.2,0.1l5,0.1c3.5,0.2,13.9-0.3,19-8.5l0.1-0.2
			c0-0.1,0.1-0.1,0.1-0.2C535.3,563.1,530.9,565.9,528.7,563z"/>
		<path class="st9" d="M471.8,455.2c-5.6,2.3-16.9,2.8-21.9,2.9v0.2l-0.1-0.1c0,0,0,0.7-0.1,2l0,0l0,0c-0.3,8.9-1.2,44.7-0.2,65.4
			c0.4,8.2,0.7,14.5,1.1,19.6C450.1,505.6,471.8,455.2,471.8,455.2z"/>
		<path class="st2" d="M546.4,416l-0.2-1l-0.5-0.3h-0.9l-1.8,0.2l-0.3,2.5l-0.1,2c-0.1,30.3-5.8,65.4-22.6,102.5l-0.5,1.2
			c7.3,4.7,17.3,13.4,18,26.5c0.4,6.9-1.3,12.3-4.9,16c-4.1,4.1-9.7,5.2-13.3,5.5c7.7-6.4,4.2-19.1,2.8-23.1
			c-0.1-0.2-0.2-0.5-0.3-0.7c0,0,0-0.1-0.1-0.1c0-0.1-0.1-0.2-0.1-0.4l0,0l0,0c-2.1-5.2-5.7-8.1-5.7-8.1c-0.3-0.2-0.7-0.2-0.9,0.1
			s-0.2,0.7,0.1,0.9c0.4,0.3,9.6,7.8,6,21c-1.1,4-3.7,7.2-7.5,9.3c-0.8,0.4-1.6,0.8-2.5,1.1h-0.3c-0.2,0-0.4,0.1-0.5,0.3
			c-4,1.3-8.6,1.5-13.1,0.5c12.6-9.2,5.2-21.6,5.2-21.6l0,0c-2.2-5.7-6.7-9.5-7-9.7s-0.7-0.2-0.9,0.1c-0.2,0.3-0.2,0.7,0.1,0.9
			c0.1,0.1,9.7,8.3,7.4,18.2c-2.9,12.5-13.8,13.4-20.1,12.9c-0.2,0-18.7-0.5-24.5-8.1c-5.3-7.1-6-14-6.9-33
			c-0.6-26.4,2.8-73.4,2.8-73.4h-2.9c0-0.4-0.3-0.6-0.6-0.7l0,0c-0.3,0-0.6,0.3-0.6,0.6c0,0.4-1.4,44-0.2,67.5l0.1,2.5
			c1.1,22,1.4,29.4,7.3,37.2c6.1,8.1,24.7,8.6,25.4,8.6c0.9,0.1,1.9,0.1,2.8,0.1c3.4,0,6.5-0.6,9.1-1.8l0.1,0.1c3,1,6.1,1.5,9.2,1.5
			c2.9,0,5.8-0.5,8.4-1.4l4.8,0.1c0.3,0,0.7,0,1.1,0c3.4,0,11-0.7,16.2-6c0.9-0.9,1.7-2,2.4-3.2c0,0.1-0.1,0.1-0.1,0.1
			c0-0.1,0.1-0.1,0.1-0.2l0.1-0.1c12.9-20.9-6.3-38.2-11.6-42.4c21-40.9,21.3-90.5,21.3-90.5C546.2,425.5,546.4,420.7,546.4,416z"/>
	</g>
	<g>
		<g>
			
				<linearGradient id="SVGID_6_" gradientUnits="userSpaceOnUse" x1="351.7" y1="240.15" x2="543.3002" y2="240.15" gradientTransform="matrix(1 0 0 -1 0 602)">
				<stop  offset="0" style="stop-color:#F2D397"/>
				<stop  offset="0.5331" style="stop-color:#F3D093"/>
				<stop  offset="0.7526" style="stop-color:#F5CC8F"/>
				<stop  offset="1" style="stop-color:#F3B699"/>
			</linearGradient>
			<path class="st11" d="M510.2,294.6L500,277.1l-42.7-11.6l-31.5,7.6l-25.5,4c0,0-11.1,10.6-15.5,17.5c0,0-33,50-33.1,123.4
				c4,2.6,26,16.9,34.8,19.6l8.3,5.5c0,0,8.4,7,36,13.6c0,0,5.8,1.3,15,1.5c0.5,0,0.9,0,1.4,0c0.2,0,0.3,0,0.5,0c0.7,0,1.4,0,2.1,0
				l0,0c15.5-0.3,38.2-4.2,58.7-20.5c0,0,29.2-13,34.8-18.8C543.4,345.2,510.2,294.6,510.2,294.6z"/>
			<g>
				
					<linearGradient id="SVGID_7_" gradientUnits="userSpaceOnUse" x1="381.3673" y1="243.85" x2="512.9822" y2="243.85" gradientTransform="matrix(1 0 0 -1 0 602)">
					<stop  offset="0" style="stop-color:#FDEBD1"/>
					<stop  offset="0.899" style="stop-color:#F9E8B4"/>
					<stop  offset="1" style="stop-color:#F8E8B0"/>
				</linearGradient>
				<path class="st12" d="M488.4,281.1c16.3,32.6,30.6,69.3,22,106.3c-2.3,9.8-6.2,19.3-12.6,27.2c-12.3,15.3-31.7,20.6-50.6,20.6
					s-38.3-5.3-50.6-20.6c-6.3-7.9-10.3-17.4-12.6-27.2c-8.7-37,5.6-73.5,21.9-106.1c0,0,33.5,5.5,69.3,1.4L488.4,281.1z"/>
				<path class="st14" d="M447.2,435.8c-15.7,0-37.3-3.6-51.1-20.8c-5.9-7.3-10.1-16.5-12.7-27.4c-8.8-37.6,6.2-75,21.9-106.6
					l0.2-0.4l0.5,0.1c0.3,0.1,33.9,5.5,69.1,1.4l13.6-1.6l0.2,0.4c15.8,31.7,30.8,69.2,22,106.7c-2.5,10.9-6.8,20.1-12.7,27.4
					C484.5,432.1,462.9,435.8,447.2,435.8z M406.3,281.9c-15.6,31.3-30.3,68.3-21.6,105.3c2.5,10.7,6.7,19.7,12.4,26.9
					c13.5,16.8,34.7,20.4,50.1,20.4s36.6-3.5,50.1-20.4c5.7-7.2,9.9-16.2,12.4-26.9c8.7-37-6.1-74.1-21.7-105.5l-12.7,1.5
					C442.1,287.1,410.4,282.6,406.3,281.9z"/>
			</g>
		</g>
		<g>
			<path class="st15" d="M447.2,435.6c-15.6,0-37.2-3.6-50.9-20.8c-5.8-7.3-10.1-16.5-12.6-27.3c-8.8-37.5,6.2-74.8,21.9-106.4
				c0.1-0.2,0.4-0.3,0.6-0.2c0.2,0.1,0.3,0.4,0.2,0.6c-15.7,31.4-30.6,68.6-21.9,105.8c2.5,10.7,6.7,19.8,12.5,27
				c13.6,16.9,34.8,20.4,50.3,20.4c15.4,0,36.7-3.5,50.3-20.4c5.8-7.2,10-16.3,12.5-27c8.7-37.3-6.2-74.5-22-106
				c-0.1-0.2,0-0.5,0.2-0.6s0.5,0,0.6,0.2c15.8,31.7,30.8,69.1,22,106.6c-2.5,10.8-6.8,20-12.6,27.3
				C484.3,431.9,462.8,435.6,447.2,435.6z"/>
			<path class="st14" d="M447.2,436.2c-15.8,0-37.5-3.6-51.4-21c-5.9-7.4-10.2-16.6-12.8-27.6c-8.8-37.7,6.2-75.2,22-106.8
				c0.3-0.5,0.9-0.7,1.4-0.5c0.3,0.1,0.4,0.3,0.5,0.6c0.1,0.3,0.1,0.6-0.1,0.8c-15.7,31.3-30.5,68.4-21.8,105.4
				c2.5,10.6,6.6,19.6,12.4,26.7c13.4,16.7,34.5,20.2,49.8,20.2s36.4-3.5,49.8-20.2c5.7-7.1,9.9-16.1,12.4-26.7
				c8.7-37.1-6.2-74.2-21.9-105.6c-0.3-0.5,0-1.2,0.5-1.4c0.5-0.3,1.2,0,1.4,0.5c15.9,31.8,30.9,69.3,22.1,107
				c-2.6,10.9-6.9,20.2-12.8,27.6C484.7,432.5,462.9,436.2,447.2,436.2z"/>
		</g>
		<path class="st2" d="M447.5,458.8c-41.7,0-63-23-63.2-23.2c-0.2-0.3-0.2-0.7,0-0.9c0.3-0.2,0.7-0.2,0.9,0
			c0.2,0.2,21.2,22.8,62.3,22.8s62.1-22.6,62.3-22.8c0.2-0.3,0.6-0.3,0.9,0c0.3,0.2,0.3,0.6,0,0.9
			C510.5,435.8,489.2,458.8,447.5,458.8z"/>
		<path class="st2" d="M536.1,361.7c3.7,15.9,6.6,35.5,6.5,57.8l3.8-3.5c0.5-69.9-35.6-121.8-35.6-121.8c-0.2-0.3-0.6-0.4-0.9-0.2
			c-0.3,0.2-0.4,0.6-0.2,0.9C509.9,295.2,526.5,321,536.1,361.7z M512.3,296.8c-0.4-0.7-0.8-1.3-1-1.7
			C511.6,295.6,512,296.2,512.3,296.8z"/>
		<path class="st2" d="M348.6,415.5l2.7,2.6l1,0.7l0.1-0.1c0-21.9,2.9-41.3,6.6-57c9.5-40.7,26.2-66.5,26.4-66.8
			c0.2-0.3,0.1-0.7-0.2-0.9c-0.3-0.2-0.7-0.1-0.9,0.2c0,0-0.6,1-1.7,2.7c0.6-1,1.1-1.9,1.7-2.7C384.3,294.2,348.3,345.9,348.6,415.5
			z"/>
	</g>
</g>
</svg>
