<?xml version="1.0" encoding="utf-8"?>
<!-- Generator: Adobe Illustrator 21.0.0, SVG Export Plug-In . SVG Version: 6.00 Build 0)  -->
<svg version="1.1" id="圖層_1" xmlns="http://www.w3.org/2000/svg" xmlns:xlink="http://www.w3.org/1999/xlink" x="0px" y="0px"
	 viewBox="0 0 822.9 601.4" style="enable-background:new 0 0 822.9 601.4;" xml:space="preserve">
<style type="text/css">
	.st0{fill:url(#SVGID_1_);}
	.st1{fill:#E1BE3F;}
	.st2{fill:#AB6C21;}
	.st3{opacity:0.6;fill:#E1BE3F;enable-background:new    ;}
	.st4{fill:url(#SVGID_2_);}
	.st5{fill:#5F5F5F;}
	.st6{fill:url(#SVGID_3_);}
	.st7{opacity:0.6;fill:url(#SVGID_4_);enable-background:new    ;}
	.st8{fill:url(#SVGID_5_);}
	.st9{fill:url(#SVGID_6_);}
	.st10{opacity:0.6;}
	.st11{fill:#E2BF40;}
	.st12{fill:#AC6D21;}
	.st13{fill:url(#SVGID_7_);}
	.st14{fill:#FFFFFF;}
	.st15{fill:#814323;}
	.st16{fill:#F4E3A5;}
	.st17{fill:#C88E2C;}
	.st18{fill:#AC7327;}
	.st19{fill:url(#SVGID_8_);}
	.st20{fill:url(#SVGID_9_);}
	.st21{fill:#EAA593;}
	.st22{fill:#3F210F;}
	.st23{opacity:0.25;fill:#E1BE3F;enable-background:new    ;}
	.st24{opacity:0.5;fill:#E1BE3F;enable-background:new    ;}
	.st25{fill:#F8E5A9;}
	.st26{fill:#DDBC90;}
	.st27{fill:#D7C6A6;}
	.st28{fill:url(#SVGID_10_);}
	.st29{fill:#4A1E0E;}
	.st30{opacity:0.4;fill:#E1BE3F;enable-background:new    ;}
	.st31{opacity:0.72;fill:#E1BE3F;enable-background:new    ;}
	.st32{fill:#875424;}
	.st33{fill:#3F210E;}
	.st34{fill:#3A1D13;}
	.st35{fill:url(#SVGID_11_);}
	.st36{fill:url(#SVGID_12_);}
	.st37{fill:#C58333;}
	.st38{fill:url(#SVGID_13_);}
	.st39{fill:url(#SVGID_14_);}
	.st40{fill:url(#SVGID_15_);}
	.st41{fill:url(#SVGID_16_);}
	.st42{fill:#FDEDD0;}
	.st43{fill:none;stroke:#FDEDD0;stroke-width:0.8715;stroke-linecap:round;stroke-linejoin:round;stroke-miterlimit:10;}
	.st44{fill:url(#SVGID_17_);}
	.st45{fill:url(#SVGID_18_);}
	.st46{opacity:0.8;fill:url(#SVGID_19_);enable-background:new    ;}
	.st47{opacity:0.6;fill:#5F5F5F;enable-background:new    ;}
	.st48{opacity:0.5;fill:url(#SVGID_20_);enable-background:new    ;}
	.st49{fill:url(#SVGID_21_);}
	.st50{fill:url(#SVGID_22_);}
	.st51{opacity:0.8;fill:#FFFFFF;enable-background:new    ;}
	.st52{opacity:0.5;fill:url(#SVGID_23_);enable-background:new    ;}
	.st53{fill:url(#SVGID_24_);}
	.st54{fill:url(#SVGID_25_);}
	.st55{fill:url(#SVGID_26_);}
	.st56{fill:url(#SVGID_27_);}
	.st57{opacity:0.6;fill:#E2BF40;enable-background:new    ;}
	.st58{fill:url(#SVGID_28_);}
	.st59{fill:url(#SVGID_29_);}
	.st60{fill:url(#SVGID_30_);}
</style>
<g>
	<g>
		<linearGradient id="SVGID_1_" gradientUnits="userSpaceOnUse" x1="523.4162" y1="335.2175" x2="597.9244" y2="335.2175">
			<stop  offset="0" style="stop-color:#EFD980"/>
			<stop  offset="0.2037" style="stop-color:#EFD87C"/>
			<stop  offset="0.3836" style="stop-color:#EED572"/>
			<stop  offset="0.5546" style="stop-color:#EDCF5F"/>
			<stop  offset="0.7191" style="stop-color:#EBC743"/>
			<stop  offset="0.7526" style="stop-color:#EBC63C"/>
			<stop  offset="1" style="stop-color:#E7AE17"/>
		</linearGradient>
		<path class="st0" d="M591.3,317.2l-12-8.8l-18-3.9c0,0-15.9,2.8-24,5.3c-6,1.8-11.3,6-13.8,8.1c6,12.4,12.4,29,17.3,47.7
			c27.6,3.5,54.1-26.5,54.1-26.5s2.5-6,2.8-8.8C598.3,327.5,591.3,317.2,591.3,317.2z"/>
		<path class="st12" d="M554.5,305.9l-0.7-1.4c-18,1.1-27.9,10.6-27.9,10.6c-0.7,0.4-0.7,1.1-0.4,1.8c0.4,0.4,0.7,0.7,1.1,0.7
			s0.4,0,0.7-0.4c14.1-8.8,26.2-9.2,26.5-9.2c0.7,0,1.1-0.4,1.1-1.1C554.9,306.3,554.5,306.3,554.5,305.9z"/>
		<path class="st12" d="M595.2,339.5C595.2,339.5,595.2,339.1,595.2,339.5c0.7-0.7,0.7-1.4,0-2.1c-0.4-0.4-1.1-0.4-1.8,0
			c-0.4,0.4-25.1,29-50.9,25.8l-3.2-0.4l1.4,3.9c0,0,1.8,0.4,2.5,0.4c0,0,0,0,0.4,0l0,0l0,0l0,0l0,0c1.8,0.4,6.4,0,7.1-0.4
			c2.5-0.4,4.9-0.7,7.8-1.4c5.7-1.8,10.6-4.2,15.5-7.1c5.7-3.5,11-7.8,15.9-12.4c0.4-0.4,6-6,5.7-6
			C595.5,340.2,595.2,339.8,595.2,339.5z"/>
	</g>
	<g>
		<linearGradient id="SVGID_2_" gradientUnits="userSpaceOnUse" x1="568.4268" y1="307.7843" x2="602.7474" y2="307.7843">
			<stop  offset="0" style="stop-color:#898989"/>
			<stop  offset="0.5212" style="stop-color:#DCDDDD"/>
			<stop  offset="1" style="stop-color:#9FA0A0"/>
		</linearGradient>
		<path class="st4" d="M602.2,291.1c-0.4,0.4-1.4,1.4-2.5,2.1c-0.4,0.4-0.4,0.7-0.4,1.1s0.4,0.7,0.7,1.1c1.4,0.7,1.8,1.1,1.8,1.4
			c0,0.4-1.1,1.4-1.8,1.8c-0.4,0.4-0.7,0.7-0.7,1.1c0,0.4,0,0.7,0.4,1.1c1.8,1.1,1.8,1.8,1.8,2.1c0,0.7-1.1,1.1-1.4,1.4
			c-0.4,0-0.7,0.4-0.7,1.1c0,0.4,0,0.7,0.4,1.1c1.4,1.1,1.8,1.8,1.8,2.1c0,0.4-0.7,1.1-1.4,1.1c-0.4,0-0.7,0.7-0.7,1.1
			c0,0.4,0.4,1.1,0.7,1.1c0.7,0.4,1.1,0.7,1.1,1.1c0,0.7-0.7,1.8-1.1,2.5c-0.4,0.4-0.4,0.7-0.4,1.1s0.4,0.7,0.7,0.7s0.7,0.4,1.1,0.7
			c0.4,0.4-0.4,1.4-0.4,1.8v0.4c-0.4,0.7-3.2,2.1-5.3,3.5c0,0,0,0-0.4,0c-8.8,7.4-19.8,0.4-20.1,0l0,0c-1.8-0.7-3.2-1.8-3.2-2.8
			c0-0.7,0.4-1.1,0.4-1.1c0.4-0.4,0.4-0.7,0.4-1.1s-0.4-0.7-0.7-0.7c-1.8-0.4-2.1-1.1-2.1-1.4c0-0.4,1.1-1.8,2.1-2.1
			c0.4-0.4,0.7-0.7,0.7-1.1s-0.4-0.7-0.7-1.1c-1.4-0.4-1.8-1.1-1.8-1.1c0-0.4,1.1-1.4,1.8-1.8c0.4-0.4,0.7-0.7,0.7-1.1
			s-0.4-0.7-0.7-1.1c-1.8-0.7-2.1-1.4-2.1-1.4c0-0.4,1.1-1.4,2.1-1.8c0.4-0.4,0.7-0.7,0.7-1.1s-0.4-1.1-0.7-1.1
			c-2.1-1.1-2.5-1.4-2.5-1.4c0-0.4,1.1-0.7,2.1-1.1c0.4,0,0.7-0.7,0.7-1.1v-1.1c0-0.4-0.4-1.1-0.7-1.1c-2.8-1.8-2.8-2.1-2.8-3.5
			c0-1.1-0.4-2.5-0.7-3.5c2.1,0.7,8.1,2.1,16.6,2.1c5.3,0,11-0.7,17.7-2.1C602.6,289.7,602.2,290.7,602.2,291.1z"/>
		<path class="st5" d="M586.3,328.5c-6.4,0-11.7-3.2-12.4-3.5c-2.8-1.1-4.2-2.8-4.6-4.2c0-0.7,0-1.4,0-1.8c-1.1-0.4-2.5-1.4-2.5-2.8
			c-0.4-1.4,0.7-2.5,1.4-3.2c-0.7-0.7-1.4-1.4-1.4-2.1c0-1.1,0.7-2.1,1.4-2.8c-1.1-0.7-1.8-1.4-1.8-2.8c0-1.1,0.7-2.1,1.8-2.8
			c-1.1-0.7-1.8-1.8-1.8-2.8c0-1.4,1.4-2.1,2.5-2.5c-1.8-1.1-2.1-2.1-2.1-4.2c0-1.4-0.7-4.2-1.1-5.3c-0.4-0.7,0-1.4,0.7-1.4
			c0.7-0.4,1.4,0,1.4,0.7c0,0.4,1.4,3.9,1.4,6c0,1.4,0,1.8,2.1,2.5c0.4,0,0.7,0.7,0.7,1.1v1.1c0,0.7-0.4,1.1-0.7,1.1
			c-1.1,0.4-2.1,0.7-2.1,1.1l0,0c0,0,0.4,0.7,2.5,1.4c0.4,0.4,0.7,0.7,0.7,1.1s-0.4,1.1-0.7,1.1c-1.1,0.4-2.1,1.4-2.1,1.8
			c0,0,0.4,0.7,2.1,1.4c0.4,0,0.7,0.7,0.7,1.1s-0.4,0.7-0.7,1.1c-0.7,0.4-1.8,1.4-1.8,1.8c0,0,0.4,0.7,1.8,1.1
			c0.4,0,0.7,0.7,0.7,1.1s0,0.7-0.7,1.1c-1.1,0.7-2.1,1.8-2.1,2.1c0,0.4,0.7,0.7,2.1,1.4c0.4,0,0.7,0.4,0.7,0.7c0,0.4,0,0.7-0.4,1.1
			c0,0-0.4,0.4-0.4,1.1c0,0.7,1.4,1.8,3.2,2.8l0,0c0.4,0.4,11.3,7.4,20.1,0c0,0,0,0,0.4,0c2.1-1.4,4.9-2.8,5.3-3.5v-0.4
			c0.4-0.4,0.7-1.4,0.4-1.8c0-0.4-0.7-0.7-1.1-0.7s-0.7-0.4-0.7-0.7c0-0.4,0-0.7,0.4-1.1c0.4-0.4,1.4-1.4,1.1-2.5
			c0-0.4-0.4-0.7-1.1-1.1c-0.4-0.4-0.7-0.7-0.7-1.1c0-0.4,0.4-1.1,0.7-1.1c0.4,0,1.4-0.7,1.4-1.1s-0.4-1.1-1.8-2.1
			c-0.4-0.4-0.7-0.7-0.4-1.1c0-0.4,0.4-0.7,0.7-1.1c0.4-0.4,1.4-0.7,1.4-1.4c0-0.4,0-0.7-1.8-2.1c-0.4-0.4-0.7-0.7-0.4-1.1
			c0-0.4,0.4-0.7,0.7-1.1c0.7-0.4,1.8-1.4,1.8-1.8s-0.4-0.7-1.8-1.4c-0.4,0-0.7-0.4-0.7-1.1c0-0.4,0-0.7,0.4-1.1
			c1.1-0.7,2.1-2.1,2.5-2.1c0-0.4,0.7-1.8,0.7-2.8c0.4-1.1,0.4-1.4,0.4-1.8c0.4-0.7,1.1-1.1,1.4-0.7c0.7,0.4,1.1,1.1,0.7,1.4
			c0,0-0.4,0.7-0.4,1.4c-0.4,2.1-0.7,3.2-1.1,3.5c-0.4,0.4-0.7,1.1-1.4,1.4c1.1,0.7,1.8,1.4,1.8,2.5c0,1.4-0.7,2.5-1.8,3.2
			c1.1,1.1,1.4,2.1,1.4,3.2c0,1.1-0.7,1.8-1.4,2.5c1.1,1.1,1.4,2.1,1.4,3.2c0,0.7-0.7,1.4-1.1,1.8c0.7,0.7,0.7,1.1,0.7,1.8
			c0.4,1.4-0.4,2.5-1.1,3.2c0.4,0.4,0.7,0.7,1.1,1.1c0.7,1.4,0,2.8-0.4,3.9v0.4c-0.4,1.1-3.5,3.2-6.4,4.6
			C593.4,327.5,589.9,328.5,586.3,328.5z"/>
		<linearGradient id="SVGID_3_" gradientUnits="userSpaceOnUse" x1="569.9573" y1="307.4309" x2="602.7474" y2="307.4309">
			<stop  offset="0" style="stop-color:#898989"/>
			<stop  offset="0.5212" style="stop-color:#DCDDDD"/>
			<stop  offset="1" style="stop-color:#9FA0A0"/>
		</linearGradient>
		<path style="opacity:0.8;fill:url(#SVGID_3_);enable-background:new    ;" d="M599.7,313c0,0-13.1,3.5-29.3,3.5h0.4
			c4.9,0.4,19.8,1.8,29,1.1c0,0-9.9,4.6-24.7,5.3l0,0c0.4,0.4,11.3,7.4,20.1,0c0,0,0,0,0.4,0c2.1-1.4,4.9-2.8,5.3-3.5V319
			c0.4-0.4,0.7-1.4,0.4-1.8c0-0.4-0.7-0.7-1.1-0.7s-0.7-0.4-0.7-0.7c0-0.4,0-0.7,0.4-1.1s1.4-1.4,1.1-2.5c0-0.4-0.4-0.7-1.1-1.1
			c-0.4-0.4-0.7-0.7-0.7-1.1c0-0.4,0.4-1.1,0.7-1.1s1.4-0.7,1.4-1.1s-0.4-1.1-1.8-2.1c-0.4-0.4-0.7-0.7-0.4-1.1
			c0-0.4,0.4-0.7,0.7-1.1c0.4-0.4,1.4-0.7,1.4-1.4c0-0.4,0-0.7-1.8-2.1c-0.4-0.4-0.7-0.7-0.4-1.1c0-0.4,0.4-0.7,0.7-1.1
			c0.7-0.4,1.8-1.4,1.8-1.8s-0.4-0.7-1.8-1.4c-0.4,0-0.7-0.4-0.7-1.1c0-0.4,0-0.7,0.4-1.1c1.1-0.7,2.1-2.1,2.5-2.1
			c0-0.4,0.4-1.4,0.7-2.1c-0.7,0.4-1.4,0.4-2.1,0.4c-3.5,2.1-11.7,4.6-30,5.7h0.4c0,0,0.4,0,0.4,0.4c5.3,0.4,16.3,1.4,28.3,1.1
			c0,0-12.4,3.9-28.6,4.6l0,0h0.4c6.7,0.4,23,1.1,28.3,0.7c0,0-13.4,4.6-29.3,4.2h0.4c4.9,0.4,18.4,1.8,29,1.1
			c0,0-19.8,3.9-29.7,3.5c0,0,0.4,0,0.4,0.4C576.1,311.6,595.2,314,599.7,313z"/>
		<path class="st47" d="M580.7,301c-4.9,0-8.5-0.4-8.5-0.4s-0.4,0-0.4-0.4c0,0,0-0.4,0.4-0.4c0,0,15.2,1.1,26.5-1.1
			c0,0,0.4,0,0.4,0.4c0,0,0,0.4-0.4,0.4C592.7,300.6,586,301,580.7,301z"/>
		<path class="st47" d="M573.6,296c-1.1,0-1.4,0-1.8,0c0,0-0.4,0-0.4-0.4c0-0.4,0-0.4,0.4-0.4l0,0c0.4,0,21.9,0,26.5-1.1
			c0,0,0.4,0,0.4,0.4c0,0,0,0.4-0.4,0.4C594.8,295.7,578.9,296,573.6,296z"/>
		<path class="st47" d="M581.4,307c-5.3,0-9.2-0.4-9.2-0.4s-0.4,0-0.4-0.4c0,0,0-0.4,0.4-0.4c0,0,17,1.1,26.5-1.4c0,0,0.4,0,0.4,0.4
			c0,0,0,0.4-0.4,0.4C593.7,306.6,587,307,581.4,307z"/>
		<path class="st47" d="M578.5,311.6c-3.5,0-6,0-6,0s-0.4,0-0.4-0.4c0,0,0-0.4,0.4-0.4s18.4,0.7,25.8-1.4c0,0,0.4,0,0.4,0.4
			c0,0,0,0.4-0.4,0.4C593.7,311.2,584.6,311.6,578.5,311.6z"/>
		<path class="st47" d="M580.7,317.6c-4.6,0-8.1,0-8.1-0.4c0,0-0.4,0-0.4-0.4c0,0,0-0.4,0.4-0.4s18.4,1.1,25.8-1.4h0.4v0.4
			C594.4,317.2,586.7,317.6,580.7,317.6z"/>
		<path class="st47" d="M585.3,322.9c-6,0-11.3-0.7-11.3-0.7s-0.4,0-0.4-0.4c0,0,0-0.4,0.4-0.4c0,0,15.5,2.1,23.7-0.7h0.4v0.4
			C594.1,322.5,589.5,322.9,585.3,322.9z"/>
		<linearGradient id="SVGID_4_" gradientUnits="userSpaceOnUse" x1="544.8343" y1="236.5172" x2="627.3725" y2="236.5172">
			<stop  offset="0" style="stop-color:#F2D397"/>
			<stop  offset="0.4319" style="stop-color:#F3D195"/>
			<stop  offset="0.7526" style="stop-color:#F5CC8F"/>
			<stop  offset="1" style="stop-color:#F3B699"/>
		</linearGradient>
		<path style="opacity:0.5;fill:url(#SVGID_4_);enable-background:new    ;" d="M585.6,184c-22.3,0-40.6,16.6-40.6,37.1
			c0,0.4-0.4,15.2,7.4,26.2c8.5,11.7,12,23.7,12,29v1.4c0,5.3,0.4,8.1,3.9,9.2c0.4,0,15.2,4.9,34.6,0c3.5-1.1,3.9-3.9,3.9-9.2v-1.4
			c0-5.3,3.5-17,12-29c7.4-10.2,7.4-24.4,7.4-25.8l0,0h1.1h-1.1C626.3,200.6,607.9,184,585.6,184z"/>
		<linearGradient id="SVGID_5_" gradientUnits="userSpaceOnUse" x1="542.4847" y1="236.3012" x2="628.5271" y2="236.3012">
			<stop  offset="0" style="stop-color:#F2D397"/>
			<stop  offset="0.4319" style="stop-color:#F3D195"/>
			<stop  offset="0.7526" style="stop-color:#F5CC8F"/>
			<stop  offset="1" style="stop-color:#F3B699"/>
		</linearGradient>
		<path class="st8" d="M585.3,291.1c-10.2,0-17-2.1-17.7-2.5c-5.3-1.4-5.7-6.7-5.7-11.3v-1.4c0-4.9-3.2-16.3-11.7-27.6
			s-7.8-26.9-7.8-27.6c0-21.6,19.4-39.2,43.1-39.2s43.1,17.7,43.1,39.2l0,0c0,1.8,0,16.3-7.8,27.2c-8.1,11.3-11.3,22.6-11.7,27.6
			v1.4c0,4.9,0,9.9-5.7,11.3C596.6,290.4,590.6,291.1,585.3,291.1z M585.6,184c-22.3,0-40.6,16.6-40.6,37.1c0,0.4-0.4,15.2,7.4,26.2
			c8.5,11.7,12,23.7,12,29v1.4c0,5.3,0.4,8.1,3.9,9.2c0.4,0,15.2,4.9,34.6,0c3.5-1.1,3.9-3.9,3.9-9.2v-1.4c0-5.3,3.5-17,12-29
			c7.4-10.2,7.4-24.4,7.4-25.8l0,0h1.1h-1.1C626.3,200.6,607.9,184,585.6,184z"/>
		<linearGradient id="SVGID_6_" gradientUnits="userSpaceOnUse" x1="563.2147" y1="258.3094" x2="607.9451" y2="258.3094">
			<stop  offset="0" style="stop-color:#F2D397"/>
			<stop  offset="0.4319" style="stop-color:#F3D195"/>
			<stop  offset="0.7526" style="stop-color:#F5CC8F"/>
			<stop  offset="1" style="stop-color:#F3B699"/>
		</linearGradient>
		<path class="st9" d="M607.9,226.8C607.9,226.4,607.9,226.4,607.9,226.8C607.5,226.4,607.5,226.4,607.9,226.8
			c-0.4-0.4-1.4,1.8-3.2,4.9c-3.2-1.1-6.7-1.1-9.9-0.7c-1.1,0-2.1,0.4-2.8,0.7c-1.4-0.7-4.2-0.4-5.3,0c-0.4,0-1.1,0-1.4,0.4
			c-1.8-1.8-5.7-1.4-7.4-0.7l0,0c-1.4-0.4-3.2,0-4.2,0c-2.1,0.4-3.9,1.1-6,1.4c-1.8-3.9-3.2-6.7-3.2-6.7s-0.4-0.4-0.4,0
			c0,0-0.4,0.4,0,0.4c0,0.4,13.8,27.6,15.5,30.7c1.4,2.8,1.8,5.3,1.8,6.4c-0.4,0-0.7,0.4-0.7,0.4l0,0l-0.7,7.8
			c-0.4,1.4-0.7,2.8-1.1,3.2s-0.4,5.3-0.4,14.8c0,0,0,0.4,0.4,0.4l0,0c0,0,0.4,0,0.4-0.4c0-5.3,0-13.8,0-14.5
			c0.4-0.4,1.1-2.5,1.1-3.2l0.7-7.8l0.4-0.4c0,0,0.4,0,0.4,1.1c0.4,2.5,1.4,6,2.1,7.4c0.4,0.7,0.7,0.7,0.7,1.1c0,0,0,0,0.4,1.4
			c0,2.5,0,14.1,0,14.5c0,0,0,0.4,0.4,0.4l0,0c0,0,0.4,0,0.4-0.4c0,0,0-12,0-14.5c0-1.4,0-1.8-0.4-1.8c0,0-0.4,0-0.7-0.7
			c-0.7-1.8-1.8-4.9-2.1-7.4c0-0.7-0.4-1.1-0.7-1.4c0-0.7,0-3.5-1.8-6.7c-1.4-2.1-7.8-15.2-12-23.7c1.8-0.4,3.5-1.1,5.7-1.4
			c0.4,0,1.4,0,2.5,0c0.4,0,0.4,0,0.7,0c-1.4,0.7-3.5,2.5-1.4,3.5c1.8,0.7,4.9-2.1,2.8-3.5c0.7-0.4,1.8-0.4,2.5-0.4
			c1.1,0,1.8,0,2.8,0.4c0.4,0,0.4,0.4,0.7,0.4c-0.7,0.4-1.4,0.4-1.8,0.7c-0.4,0.4-0.4,1.1,0.4,1.4c1.4,0.7,3.5-0.7,2.5-1.8
			c0.4,0,0.7,0,1.1,0c1.1-0.4,2.5-0.4,3.5-0.4c0.4,0,0.4,0,0.7,0l0,0l0,0c-0.7,0.4-2.1,0.7-2.1,1.8c0,2.1,3.2,1.1,3.5-0.4
			c0.4-0.4,0-1.1,0-1.1c0.4,0,0.7,0,1.1-0.4c3.5-0.7,7.8-0.7,11.3,0.4c-4.2,8.1-11.3,22.6-12.7,25.1c-1.8,3.2-1.8,6-1.8,6.7
			c-0.4,0.4-0.4,0.7-0.7,1.4c-0.4,2.1-1.4,5.7-2.1,7.4c-0.4,0.7-0.4,0.7-0.7,0.7c-0.4,0.4-0.4,0.4-0.4,1.8c0,2.5,0,14.1,0,14.5
			c0,0,0,0.4,0.4,0.4l0,0c0,0,0.4,0,0.4-0.4c0,0,0-11.7,0-14.5c0-1.4,0-1.4,0.4-1.4s0.4-0.4,0.7-1.1c0.7-1.8,1.8-5.3,2.1-7.4
			c0-1.1,0.4-1.1,0.4-1.1s0.4,0,0.4,0.4l0.7,7.8c0,0.7,0.7,2.8,1.1,3.2c0.4,0.7,0.4,9.2,0,14.5c0,0,0,0.4,0.4,0.4l0,0
			c0,0,0.4,0,0.4-0.4c0-9.5,0-14.5-0.4-14.8s-0.7-1.8-1.1-2.8l-0.7-7.8l0,0c0,0-0.4-0.4-0.7-0.4c0-1.1,0.4-3.5,1.8-6.4
			C594.1,254,607.9,226.8,607.9,226.8z M577.5,233.5c-0.4,0.4-1.1,1.4-1.8,1.1c-2.1-0.7,0.4-2.1,1.4-2.8
			C578.2,232.4,578.2,232.8,577.5,233.5z M584.6,233.8c-0.4,0-0.7,0.4-0.7,0c-0.7-0.4-0.7-0.7,0-1.1c0.4-0.4,0.7-0.4,1.1-0.4
			C584.9,232.8,584.9,233.5,584.6,233.8z M590.6,234.2c-0.4-0.4-0.4-0.7-0.7-1.4c0.4,0,0.7-0.4,1.1-0.4l0,0
			C591.6,233.5,591.3,233.8,590.6,234.2z"/>
		<path class="st51" d="M599.7,186.1c-4.6-1.4-9.2-2.5-14.1-2.5c-22.3,0-40.6,16.6-40.6,37.1c0,0.4-0.4,15.2,7.4,26.2
			c8.5,11.7,12,23.7,12,29v1.4c0,5.3,0.4,8.1,3.9,9.2c0,0,1.1,0.4,2.5,0.7c0-3.2-0.4-6.4-0.4-10.2c-0.7-15.2-7.1-23.7-7.1-23.7
			s-17-19.8-7.4-44.5C563,189.7,588.4,186.8,599.7,186.1z"/>
		<linearGradient id="SVGID_7_" gradientUnits="userSpaceOnUse" x1="582.4319" y1="252.4245" x2="627.4015" y2="252.4245">
			<stop  offset="0" style="stop-color:#F2D397"/>
			<stop  offset="0.4319" style="stop-color:#F3D195"/>
			<stop  offset="0.7526" style="stop-color:#F5CC8F"/>
			<stop  offset="1" style="stop-color:#F3B699"/>
		</linearGradient>
		<path style="opacity:0.5;fill:url(#SVGID_7_);enable-background:new    ;" d="M582.4,288.6c5.7,0.4,12.7-0.4,20.5-2.1
			c3.5-1.1,3.9-3.9,3.9-9.2v-1.4c0-5.3,3.5-17,12-29c7.4-10.2,7.4-24.4,7.4-25.8l0,0h1.1h-1.1c0-1.8,0-3.5-0.4-4.9
			c-2.8,13.4-9.2,37.5-23,44.5c0,0-3.5,1.1-3.2,12.4C599.7,272.7,601.9,285.4,582.4,288.6z"/>
		
			<ellipse transform="matrix(0.8844 -0.4668 0.4668 0.8844 -26.9477 309.4123)" class="st51" cx="611.1" cy="209.1" rx="4.9" ry="7.1"/>
	</g>
	<g>
		<path class="st12" d="M620.6,290c-0.4-2.5-1.4-4.2-2.8-6c-1.4-1.8-3.2-2.8-5.3-3.5c-1.8-0.7-3.9-1.4-6-1.8c-2.1-0.4-3.9-0.4-6-0.4
			s-3.9,0.4-6,0.7c-3.9,1.1-7.8,3.9-8.8,8.1c-0.4,1.8-0.7,3.9-0.4,6c0.4,2.1,1.4,3.9,2.5,5.7c0.7,1.1,1.8,1.8,2.8,2.5
			c-2.1,1.1-3.9,2.8-4.9,4.9c-0.7,1.4-1.1,3.2-0.7,4.6c0,1.4,0.7,3.2,1.4,4.2c0.7,1.1,1.4,2.1,2.5,2.8c-2.1,1.4-3.9,3.5-4.6,6
			c-1.1,2.8-0.7,6,0.7,8.8c1.4,2.5,3.9,4.6,6.4,6c2.5,1.4,5.7,2.1,8.5,2.1c2.8,0.4,5.7,0,8.5-0.7s5.7-2.1,7.8-4.6
			c1.1-1.4,1.8-2.8,2.1-4.2c0-0.4,0-0.7,0-1.1v-0.7c0-4.2-2.1-9.9-2.1-9.9c0.7-1.1,1.8-2.5,2.1-3.9c0.7-1.4,1.1-3.2,1.1-4.9
			c0.4-6.4-2.8-8.8-2.8-8.8l0,0c1.4-1.4,2.1-3.2,2.8-4.9c0.4-1.1,0.4-2.1,0.7-3.2c0-0.4,0-1.1,0-1.4
			C620.6,291.4,621,290.7,620.6,290z M615.7,329.6c0,0.4,0,0.7,0,0.7c-0.4,1.1-0.7,2.1-1.4,2.8c-1.4,1.8-3.5,3.2-6,3.9
			c-2.5,0.7-4.9,1.1-7.8,0.7c-2.8,0-4.9-0.7-7.4-1.8c-2.1-1.1-4.2-2.8-5.7-4.9c-1.4-2.1-1.8-4.6-1.1-7.1c0.7-2.1,2.5-3.9,4.2-5.3
			c0.4,0.4,1.1,0.7,1.8,1.1l0,0c10.6,8.1,20.1,2.5,20.1,2.5c0.7-0.4,1.4-1.1,2.1-1.8c0.4,1.8,0.7,3.9,1.1,5.7c0,0.7,0,1.4,0,1.8
			C615.7,329.2,615.7,329.6,615.7,329.6z M617.4,309.1c0,2.5-0.7,5.3-2.1,7.4c-1.4,2.1-3.5,3.9-5.7,4.9c-2.5,1.1-5.3,1.4-7.8,1.1
			s-5.3-1.4-7.4-2.8c-1.1-0.7-2.1-1.4-3.2-2.5c-1.1-1.1-1.8-1.8-2.5-2.8c-1.4-2.1-1.8-4.9-0.7-7.1c1.1-2.1,3.2-3.5,5.3-4.6
			c0,0,0,0,0.4,0c1.8,0.7,3.9,1.4,5.7,1.8c3.9,0.7,7.8,1.4,12,0.4c1.4-0.4,2.8-1.1,4.2-1.8C616.7,304.5,617.4,307,617.4,309.1z
			 M617.8,291.8c0,0.4,0,1.1,0,1.4c0,1.1-0.4,1.8-0.4,2.5c-0.4,1.8-1.1,3.2-2.5,4.2c-1.1,1.1-2.5,1.8-4.2,2.5c-3.5,1.1-7.1,0.7-11,0
			c-3.5-0.7-7.4-1.8-9.5-4.2c-1.1-1.4-2.1-2.8-2.5-4.6c-0.4-1.8,0-3.5,0.4-5.3c0.4-1.4,1.4-3.2,2.8-4.2c1.4-1.1,2.8-1.8,4.6-2.1
			c3.5-0.7,7.4-0.4,11,0c3.5,0.7,7.1,2.1,9.2,4.6c1.1,1.1,1.8,2.8,2.1,4.2c0,0.4,0,0.4,0,0.7C617.8,291.1,617.8,291.4,617.8,291.8z"
			/>
		<linearGradient id="SVGID_8_" gradientUnits="userSpaceOnUse" x1="586.1714" y1="328.6046" x2="615.585" y2="328.6046">
			<stop  offset="0" style="stop-color:#EFD980"/>
			<stop  offset="0.2037" style="stop-color:#EFD87C"/>
			<stop  offset="0.3836" style="stop-color:#EED572"/>
			<stop  offset="0.5546" style="stop-color:#EDCF5F"/>
			<stop  offset="0.7191" style="stop-color:#EBC743"/>
			<stop  offset="0.7526" style="stop-color:#EBC63C"/>
			<stop  offset="1" style="stop-color:#E7AE17"/>
		</linearGradient>
		<path class="st19" d="M615.7,328.9c0,0.4,0,0.7,0,1.1s0,0.7,0,0.7c-0.4,1.1-0.7,2.1-1.4,2.8c-1.4,1.8-3.5,3.2-6,3.9
			c-2.5,0.7-4.9,1.1-7.8,0.7c-2.8,0-4.9-0.7-7.4-1.8c-2.1-1.1-4.2-2.8-5.7-4.9s-1.8-4.6-1.1-7.1c0.7-2.1,2.5-3.9,4.2-5.3
			c0.4,0.4,1.1,0.7,1.8,1.1l0,0c10.6,8.1,20.1,2.5,20.1,2.5c0.7-0.4,1.4-1.1,2.1-1.8c0.4,1.8,0.7,3.9,1.1,5.7
			C615.7,327.5,615.7,328.2,615.7,328.9z"/>
		<linearGradient id="SVGID_9_" gradientUnits="userSpaceOnUse" x1="587.3168" y1="312.6992" x2="617.4409" y2="312.6992">
			<stop  offset="0" style="stop-color:#EFD980"/>
			<stop  offset="0.2037" style="stop-color:#EFD87C"/>
			<stop  offset="0.3836" style="stop-color:#EED572"/>
			<stop  offset="0.5546" style="stop-color:#EDCF5F"/>
			<stop  offset="0.7191" style="stop-color:#EBC743"/>
			<stop  offset="0.7526" style="stop-color:#EBC63C"/>
			<stop  offset="1" style="stop-color:#E7AE17"/>
		</linearGradient>
		<path class="st20" d="M617.4,309.1c0,2.5-0.7,5.3-2.1,7.4c-1.4,2.1-3.5,3.9-5.7,4.9c-2.5,1.1-5.3,1.4-7.8,1.1s-5.3-1.4-7.4-2.8
			c-1.1-0.7-2.1-1.4-3.2-2.5c-1.1-1.1-1.8-1.8-2.5-2.8c-1.4-2.1-1.8-4.9-0.7-7.1c1.1-2.1,3.2-3.5,5.3-4.6c0,0,0,0,0.4,0
			c1.8,0.7,3.9,1.4,5.7,1.8c3.9,0.7,7.8,1.4,12,0.4c1.4-0.4,2.8-1.1,4.2-1.8C616.7,304.5,617.4,307,617.4,309.1z"/>
		<linearGradient id="SVGID_10_" gradientUnits="userSpaceOnUse" x1="587.467" y1="292.2669" x2="617.6512" y2="292.2669">
			<stop  offset="0" style="stop-color:#EFD980"/>
			<stop  offset="0.2037" style="stop-color:#EFD87C"/>
			<stop  offset="0.3836" style="stop-color:#EED572"/>
			<stop  offset="0.5546" style="stop-color:#EDCF5F"/>
			<stop  offset="0.7191" style="stop-color:#EBC743"/>
			<stop  offset="0.7526" style="stop-color:#EBC63C"/>
			<stop  offset="1" style="stop-color:#E7AE17"/>
		</linearGradient>
		<path class="st28" d="M617.8,291.8c0,0.4,0,1.1,0,1.4c0,1.1-0.4,1.8-0.4,2.5c-0.4,1.8-1.1,3.2-2.5,4.2c-1.1,1.1-2.5,1.8-4.2,2.5
			c-3.5,1.1-7.1,0.7-11,0c-3.5-0.7-7.4-1.8-9.5-4.2c-1.1-1.4-2.1-2.8-2.5-4.6c-0.4-1.8,0-3.5,0.4-5.3c0.4-1.4,1.4-3.2,2.8-4.2
			c1.4-1.1,2.8-1.8,4.6-2.1c3.5-0.7,7.4-0.4,11,0c3.5,0.7,7.1,2.1,9.2,4.6c1.1,1.1,1.8,2.8,2.1,4.2c0,0.4,0,0.4,0,0.7
			C617.8,291.1,617.8,291.4,617.8,291.8z"/>
		<path class="st12" d="M580.7,302c-1.1-4.6-4.9-9.5-9.9-12c-3.5-2.1-7.1-2.5-9.9-1.1c-4.9,2.1-8.1,6.7-8.1,12.4
			c0,7.8,4.9,16.6,13.4,18.4c1.1,0,2.1,0.4,2.8,0.4c3.2,0,6-1.1,8.1-3.2C581,312.6,581.4,306.3,580.7,302z M576.1,315.5
			c-2.1,2.5-5.3,3.2-9.5,2.5c-1.4-0.4-2.8-0.7-4.2-1.8c-4.2-3.2-8.5-11.3-6.7-17.7c1.4-6.4,6.4-8.1,7.1-8.1c2.1-0.4,4.6,0,7.4,1.4
			c4.6,2.5,8.1,6.7,9.2,11C580,306.6,579.3,311.9,576.1,315.5z"/>
		<linearGradient id="SVGID_11_" gradientUnits="userSpaceOnUse" x1="555.1224" y1="304.2177" x2="579.3242" y2="304.2177">
			<stop  offset="0" style="stop-color:#EFD980"/>
			<stop  offset="0.2037" style="stop-color:#EFD87C"/>
			<stop  offset="0.3836" style="stop-color:#EED572"/>
			<stop  offset="0.5546" style="stop-color:#EDCF5F"/>
			<stop  offset="0.7191" style="stop-color:#EBC743"/>
			<stop  offset="0.7526" style="stop-color:#EBC63C"/>
			<stop  offset="1" style="stop-color:#E7AE17"/>
		</linearGradient>
		<path class="st35" d="M576.1,315.5c-2.1,2.5-5.3,3.2-9.5,2.5c-1.4-0.4-2.8-0.7-4.2-1.8c-4.2-3.2-8.5-11.3-6.7-17.7
			c1.4-6.4,6.4-8.1,7.1-8.1c2.1-0.4,4.6,0,7.4,1.4c4.6,2.5,8.1,6.7,9.2,11C580,306.6,579.3,311.9,576.1,315.5z"/>
		<path class="st57" d="M595.5,306.3c11.3,1.4,17.7-1.4,20.1-2.8c0,0,0-0.4-0.4-0.4c-1.4,0.7-2.8,1.4-4.2,1.8
			c-4.2,1.1-8.1,0.4-12-0.4c-1.8-0.4-3.9-1.1-5.7-1.8c0,0,0,0-0.4,0c-2.1,1.1-4.2,2.5-5.3,4.6s-0.7,4.9,0.7,7.1
			C587.4,307.3,595.5,306.3,595.5,306.3z"/>
		<path class="st57" d="M614.9,322.9c0-0.4-0.4-1.1-0.4-1.4c-0.7,0.7-1.4,1.1-2.1,1.8c0,0-9.2,5.7-20.1-2.5l0,0
			c-0.7-0.4-1.1-0.7-1.8-1.1c-2.1,1.4-3.5,3.2-4.2,5.3c-0.7,1.8-0.4,3.9,0.4,6c1.8-2.5,5.7-6,12.4-4.6
			C606.5,327.1,612.1,324.3,614.9,322.9z"/>
		<path class="st57" d="M555.2,304.2c0.7,4.9,3.9,9.9,7.1,12c1.4,0.7,2.8,1.4,4.2,1.8c3.9,0.7,7.1,0,9.5-2.5
			c1.4-1.4,2.1-3.2,2.8-4.9c-1.1,0.4-2.8,1.1-5.3,1.4C564.1,313.7,556.6,305.9,555.2,304.2z"/>
		<path class="st57" d="M606.5,281.5c-3.5-0.7-7.4-1.1-11,0c-1.8,0.4-3.5,1.1-4.6,2.1c-1.4,1.1-2.5,2.5-2.8,4.2s-0.7,3.5-0.4,5.3
			c0.4,1.8,1.1,3.2,2.5,4.6l0,0c0-2.1,0-4.6,0.7-7.4c2.1-8.5,17-8.8,17-8.8C607.2,281.9,606.8,281.9,606.5,281.5z"/>
	</g>
</g>
<g>
	<g>
		
			<linearGradient id="SVGID_12_" gradientUnits="userSpaceOnUse" x1="290.8533" y1="220.8027" x2="375.834" y2="220.8027" gradientTransform="matrix(1 0 0 -1 0 602)">
			<stop  offset="0" style="stop-color:#EFD97F"/>
			<stop  offset="0.1978" style="stop-color:#EFD87C"/>
			<stop  offset="0.3726" style="stop-color:#EED571"/>
			<stop  offset="0.5387" style="stop-color:#EDCF5F"/>
			<stop  offset="0.6984" style="stop-color:#EBC845"/>
			<stop  offset="0.7526" style="stop-color:#EAC53B"/>
			<stop  offset="1" style="stop-color:#E5AD14"/>
		</linearGradient>
		<path class="st36" d="M376,357.2l-8.1-18.3c0-0.4,0-1-0.2-1.5c0-0.2,0-0.4,0-0.4c0-0.4-0.2-0.8-0.2-1c0-0.2,0-0.4-0.2-0.6
			c-0.2-0.4-0.2-0.8-0.4-1.2c0-0.2,0-0.2-0.2-0.4c-0.2-0.6-0.4-1-0.6-1.7c0-0.2-0.2-0.2-0.2-0.4c-0.2-0.4-0.4-0.8-0.6-1.2
			c0-0.2-0.2-0.4-0.2-0.6c-0.2-0.4-0.4-0.8-0.6-1c0-0.2-0.2-0.4-0.2-0.6c-2.9-5.6-7.1-11-10-14.6c-0.2-0.2-0.2-0.2-0.4-0.4
			c-15.8,20-33.7,47.2-47.8,81.6c0,0-12.9,12.3-12.9,29.7c0,17.5,13.3,23.1,20.6,21.4l0,0c8.1,7.1,19.6,2.7,21.8-8.7v-0.2
			c0.4,0.2,1,0.6,1.7,0.8c4.8,2.5,11.2-0.6,13.3-5l0,0l0,0c0-0.2,0.2-0.4,0.2-0.6l-0.2-0.2l1.7-14.1h-0.4v-3.5l-0.6-2.5
			c0.2-0.6,0.6-1.5,0.8-2.3l0.6-1l0.8-2.5v-0.6c2.7-6.4,6.7-15.4,11.9-26c3.3-6.9,7.3-14.1,11.2-21L376,357.2z"/>
	</g>
	<path class="st1" d="M325.4,417.3c0,0-2.5,19.1,8.3,25.4l1.9-5.4C335.8,437.3,324.2,431.3,325.4,417.3z"/>
	<path class="st1" d="M306.9,423.4c0,0-5,12.7-1.2,21.8c0,0,3.3,1.2,8.3,0.8C314,446.1,305.4,441.7,306.9,423.4z"/>
	<path class="st2" d="M325.2,423.4c0,0-0.2,11.4,9.6,15.6l0.4-1.7C335.2,437.3,325,428.2,325.2,423.4z"/>
	<path class="st2" d="M306.1,430c0,0-0.6,10.6,5,16.2l3.5-0.2C314.6,446.1,306.9,438.8,306.1,430z"/>
	<path class="st3" d="M376,357.2l-8.1-18.3c0-0.4,0-1-0.2-1.5c0-0.2,0-0.4,0-0.4c0-0.4-0.2-0.8-0.2-1c0-0.2,0-0.4-0.2-0.6
		c-0.2-0.4-0.2-0.8-0.4-1.2c0-0.2,0-0.2-0.2-0.4c-0.2-0.6-0.4-1-0.6-1.7c0-0.2-0.2-0.2-0.2-0.4c-0.2-0.4-0.4-0.8-0.6-1.2
		c0-0.2-0.2-0.4-0.2-0.6c-0.2-0.4-0.4-0.8-0.6-1c0-0.2-0.2-0.4-0.2-0.6c0,0,0-0.2-0.2-0.2c-10.8,21.2-22.5,49.5-23.1,73.4
		c0,0,13.3,16.9,8.5,33.3c0.4-0.4,0.6-1,0.8-1.7l0,0l0,0c0-0.2,0.2-0.4,0.2-0.6l-0.2-0.2l1.7-14.1h-0.4v-3.5l-0.8-3.1l1.9-2.7l1-2.5
		l20-43.5c0,0,1-1.2,2.9-4.2L376,357.2z"/>
	<g>
		<path class="st2" d="M351.8,413.4l0.6-1.2l0,0c0.2-0.4,13.1-28.9,25-52l-1.2-2.9l0,0c-10.8,20.8-22.7,47-25.4,52.8
			c-0.4-1.2-0.8-1.7-0.8-1.7l0,0c-1-1.9-2.3-3.5-2.5-3.5c-0.2-0.2-0.6-0.2-0.8,0c-0.2,0.2-0.2,0.6,0,0.8c0.2,0.2,0.6,0.6,0.8,1
			c0,0,6.9,10.6,3.1,25.8l0,0c-0.8,2.3-2.9,4.2-5.4,5.2c-2.5,1-5.2,1-7.3,0c-8.5-4.2-13.1-13.3-11.2-22.3c0-0.4-0.2-0.6-0.4-0.8
			c-0.4,0-0.6,0.2-0.8,0.4c-1.9,8.7,2.1,17.7,9.8,22.5c-1.2,5.4-4.6,9.4-9.2,10.8c-4.4,1.2-8.9,0-12.5-3.5
			c-8.9-8.9-5.6-22.5-5.4-22.5c0-0.4-0.2-0.6-0.4-0.8c-0.4,0-0.6,0.2-0.8,0.4c0,0.2-3.5,14.4,5.8,23.7l0,0
			c-2.9,0.2-7.3-0.6-11.2-3.7c-3.3-2.7-7.3-7.9-7.3-17.3c0-16.9,12.7-29.1,12.7-29.3l0.2-0.2c13.9-34.3,32-61.4,47.6-81.1l-0.2-0.2
			c-1-1.2-2.1-2.3-2.7-3.1l0,0c-5.2,6.4-10.6,13.7-16,22.1l0,0c0,0-25.8,38.5-31.6,60.1c-7.1,9.2-20.2,30.2-7.7,46
			c1.2,1.9,2.7,3.3,4,4.4c0.4,0.4,1,0.8,1.7,1c0.2,0,0.2,0.2,0.2,0.2l0,0c2.9,1.9,6,2.7,9.2,2.7c0.8,0,1.7,0,2.3-0.2
			c2.7,2.3,5.8,3.3,8.9,3.3c1.2,0,2.5-0.2,3.7-0.6c5-1.5,8.5-5.6,10-11.4c0.2,0.2,0.6,0.4,0.8,0.4c1.2,0.6,2.7,0.8,4.2,0.8
			s2.7-0.2,4.2-0.8c2.7-1,4.8-3.1,5.8-5.4l0,0c0,0,0,0,0-0.2c0-0.2,0.2-0.2,0.2-0.4l0,0c0,0,1-2.7,1.5-7.1c0.2-1.7,0.2-3.7,0-5.8
			C352.9,417.3,352.3,415.1,351.8,413.4z"/>
	</g>
</g>
</svg>
