<?xml version="1.0" encoding="utf-8"?>
<!-- Generator: Adobe Illustrator 21.0.0, SVG Export Plug-In . SVG Version: 6.00 Build 0)  -->
<svg version="1.1" id="圖層_1" xmlns="http://www.w3.org/2000/svg" xmlns:xlink="http://www.w3.org/1999/xlink" x="0px" y="0px"
	 viewBox="0 0 109 149.4" style="enable-background:new 0 0 109 149.4;" xml:space="preserve">
<style type="text/css">
	.st0{fill:#888888;}
	.st1{fill:#DBDCDC;}
	.st2{fill:#73291B;}
	.st3{fill:url(#SVGID_1_);}
	.st4{fill:#AB6C21;}
	.st5{fill:url(#SVGID_2_);}
	.st6{opacity:0.6;}
	.st7{fill:#E1BE3F;}
	.st8{fill:#2D613A;}
	.st9{fill:#E2F0E3;}
	.st10{opacity:0.6;fill:#B9DCB9;enable-background:new    ;}
	.st11{fill:none;stroke:#FFFFFF;stroke-width:0.1965;stroke-linecap:round;stroke-miterlimit:10;}
	.st12{fill:url(#SVGID_3_);}
	.st13{fill:#C8C9CA;}
	.st14{fill:#E4CEA9;}
	.st15{fill:#CF361C;}
	.st16{fill:#C9A675;}
	.st17{fill:#B8761E;}
	.st18{fill:#8A2221;}
	.st19{fill:url(#SVGID_4_);}
	.st20{fill:url(#SVGID_5_);}
	.st21{fill:#3F210E;}
	.st22{fill:url(#SVGID_6_);}
	.st23{fill:url(#SVGID_7_);}
	.st24{fill:url(#SVGID_8_);}
	.st25{fill:url(#SVGID_9_);}
	.st26{fill:#5F5F5F;}
	.st27{fill:url(#SVGID_10_);}
	.st28{fill:url(#SVGID_11_);}
</style>
<g>
	<g>
		<path class="st0" d="M30.2,64.5l-0.4,0.1l-6-28.3c-0.2-0.6-0.5-1.2-0.7-1.4C23,35.1,23,35.8,23,36.5l6,28.2l-0.4,0.1l-6-28.3
			c-0.1-1.3,0-2,0.4-2.1s0.8,0.5,1.2,1.7L30.2,64.5z"/>
		<path class="st1" d="M23.1,36.5c-0.1-0.7,0-1.4,0.1-1.6c0.2,0.1,0.5,0.8,0.7,1.4l6,28L29,64.4L23.1,36.5z"/>
		<path class="st2" d="M35.1,91.3c-1.9,0.4-3.1,0.3-3.6-0.2c-0.2-0.2-0.3-0.5-0.2-0.6c-3.9-16.8-3.7-17-3.6-17.2
			c0.1-0.2,0.3-1.5,0.3-1.7l0,0v-0.1c-0.3-2.4-0.8-3.1-1-3.4c-0.8-0.8-0.9-1.8-0.8-2.2c0.1-0.3,0.4-0.8,0.5-0.9l0.1-0.1l5.3-1.1
			l0.1,0.1c0.2,0.1,0.7,0.4,0.8,0.6c0.2,0.3,0.6,1.3,0.1,2.3c-0.1,0.3-0.2,1.1,0.4,3.5c0,0.1,0,0.1,0,0.1c0.1,0.2,0.8,1.3,1,1.4
			s0.4,0.2,3.8,17.1c0.1,0.1,0.2,0.4,0,0.7C38.1,90.3,37,90.9,35.1,91.3z M28.2,73.6c0,0.9,2.2,10.5,3.6,16.8v0.1v0.1
			c0,0,0,0.1,0.1,0.2c0.2,0.2,0.8,0.5,3.1,0s2.7-1,2.8-1.3c0.1-0.1,0-0.2,0-0.2l0,0v-0.1c-1.2-6.3-3.2-16-3.6-16.8
			c-0.4-0.3-1.2-1.6-1.2-1.8v-0.1c-0.6-1.9-0.7-3.2-0.4-3.9c0.4-1-0.1-1.8-0.1-1.8c-0.1-0.1-0.3-0.3-0.5-0.4l-4.9,1
			c-0.2,0.2-0.3,0.5-0.3,0.6c0,0-0.1,0.9,0.7,1.6c0.5,0.5,0.9,1.7,1.2,3.7c0,0.1,0,0.1,0,0.1C28.6,71.7,28.5,73.1,28.2,73.6z
			 M34.3,72.4L34.3,72.4L34.3,72.4z M28.2,73.7L28.2,73.7L28.2,73.7z M34.2,72.3L34.2,72.3L34.2,72.3z"/>
		
			<linearGradient id="SVGID_1_" gradientUnits="userSpaceOnUse" x1="206.8609" y1="50.8245" x2="213.1868" y2="50.8245" gradientTransform="matrix(0.978 -0.2085 0.2085 0.978 -183.7243 71.9617)">
			<stop  offset="0" style="stop-color:#D65B49"/>
			<stop  offset="0.3349" style="stop-color:#D65947"/>
			<stop  offset="0.49" style="stop-color:#D55340"/>
			<stop  offset="0.6076" style="stop-color:#D34833"/>
			<stop  offset="0.7063" style="stop-color:#D03A21"/>
			<stop  offset="0.7249" style="stop-color:#CF361C"/>
		</linearGradient>
		<path class="st3" d="M37.8,89.2L37.8,89.2c0,0.1,0.1,0.1,0,0.3c-0.1,0.2-0.5,0.8-2.8,1.3s-2.9,0.2-3.1,0c-0.1-0.1-0.1-0.2-0.1-0.2
			v-0.1v-0.1c-1.5-6.3-3.6-15.9-3.6-16.8c0.3-0.5,0.4-1.9,0.4-2.1v-0.1c-0.3-2-0.7-3.2-1.2-3.7c-0.8-0.7-0.7-1.6-0.7-1.6
			c0-0.1,0.2-0.4,0.3-0.6l4.9-1c0.2,0.1,0.5,0.3,0.5,0.4c0,0,0.5,0.8,0.1,1.8c-0.3,0.7-0.1,2,0.4,3.9c0,0.1,0,0.1,0,0.1
			c0,0.2,0.8,1.4,1.2,1.8C34.6,73.2,36.5,82.8,37.8,89.2L37.8,89.2z"/>
	</g>
	<g>
		<path class="st4" d="M38.6,82.5c0.7-1,0.8-2.9,0.2-4.5c-0.3-0.7-0.6-1.3-1.1-1.7c0.1-0.7,0.5-3.5-1.9-5.6
			c-2.7-2.3-9.2-0.3-11.7,1.7c-2.3,1.9-1.4,5.3-1.2,6c-1.8,3.7,1,6.3,1.5,6.7c1.2,3.4,4,4.7,8.4,4c0.1,0,0.2,0,0.3,0
			c4.1-0.7,5.7-1.7,6.2-2.6c0.4-0.7,0.4-1.9,0.2-2.5C39.3,83.5,39.1,83,38.6,82.5z M37.7,81.9c-0.3-0.1-0.7-0.3-1.1-0.3
			c-1.7-0.3-6.6,1-6.8,1c-0.2,0-0.2,0.2-0.2,0.4c0,0.2,0.2,0.2,0.4,0.2c1.6-0.4,3.3-0.8,4.9-0.9c1-0.1,2.3,0,3,0.8
			c0.1,0.1,0.2,0.2,0.2,0.3c1,1.5,0,3.2-0.4,3.5c-0.9,0.7-2.3,1.4-4.7,1.8c-4.3,0.7-6.9-0.5-8-3.7c0-0.1-0.1-0.1-0.1-0.1
			c-0.1-0.1-3.2-2.5-1.3-6.1c0-0.1,0-0.2,0-0.2c-1.5-4.9,4.1-7.2,4.5-7.3c1.3-0.4,2.7-0.8,4-0.8c0,0,5,0.5,4.4,5.4l0,0l0,0
			c-0.2-0.1-0.4-0.1-0.6-0.1c-3.1-0.1-8.3,1.2-8.5,1.3c-0.2,0-0.3,0.2-0.2,0.4c0,0.2,0.2,0.3,0.4,0.2c0,0,0.8-0.2,1.8-0.4l0.6-0.1
			C29.6,77,29.4,77,29.4,77c0.7-0.1,0.6-0.1,0.6-0.1c1.5-0.3,5.5-0.9,7,0C38.9,78,37.7,81.9,37.7,81.9z"/>
		
			<linearGradient id="SVGID_2_" gradientUnits="userSpaceOnUse" x1="159.5593" y1="55.2174" x2="176.4264" y2="61.7577" gradientTransform="matrix(0.9886 -0.1509 0.1509 0.9886 -141.2883 47.8036)">
			<stop  offset="0" style="stop-color:#EFD97F"/>
			<stop  offset="0.1978" style="stop-color:#EFD87C"/>
			<stop  offset="0.3726" style="stop-color:#EED571"/>
			<stop  offset="0.5387" style="stop-color:#EDCF5F"/>
			<stop  offset="0.6984" style="stop-color:#EBC845"/>
			<stop  offset="0.7526" style="stop-color:#EAC53B"/>
			<stop  offset="1" style="stop-color:#E5AD14"/>
		</linearGradient>
		<path class="st5" d="M37.7,81.9c-0.3-0.1-0.7-0.3-1.1-0.3c-1.7-0.3-6.6,1-6.8,1c-0.2,0-0.2,0.2-0.2,0.4c0,0.2,0.2,0.2,0.4,0.2
			c1.6-0.4,3.3-0.8,4.9-0.9c1-0.1,2.3,0,3,0.8c0.1,0.1,0.2,0.2,0.2,0.3c1,1.5,0,3.2-0.4,3.5c-0.9,0.7-2.3,1.4-4.7,1.8
			c-4.3,0.7-6.9-0.5-8-3.7c0-0.1-0.1-0.1-0.1-0.1c-0.1-0.1-3.2-2.5-1.3-6.1c0-0.1,0-0.2,0-0.2c-1.5-4.9,4.1-7.2,4.5-7.3
			c1.3-0.4,2.7-0.8,4-0.8c0,0,5,0.5,4.4,5.4l0,0l0,0c-0.2-0.1-0.4-0.1-0.6-0.1c-3.1-0.1-8.3,1.2-8.5,1.3c-0.2,0-0.3,0.2-0.2,0.4
			c0,0.2,0.2,0.3,0.4,0.2c0,0,0.8-0.2,1.8-0.4l0.6-0.1C29.6,77,29.4,77,29.4,77c0.7-0.1,0.6-0.1,0.6-0.1c1.5-0.3,5.5-0.9,7,0
			C38.9,78,37.7,81.9,37.7,81.9z"/>
		<g class="st6">
			<path class="st7" d="M34.7,74.8c-0.3,0.4-0.7,0.7-1.1,0.9c0.8-0.1,1.6-0.1,2.3-0.1c0.2,0,0.4,0,0.6,0.1l0,0l0,0
				c0.3-2.8-1.3-4.2-2.6-4.8C33.9,70.8,35.7,73.8,34.7,74.8z"/>
			<path class="st7" d="M35.3,76.5c0.6,0.2,1,0.5,1.3,1.1c0.6,1.7,0.7,2.9-0.9,3.9c0.4,0,0.8,0,1,0c0.4,0.1,0.8,0.2,1.1,0.3
				c0,0,1.1-3.9-0.8-5C36.6,76.7,36,76.6,35.3,76.5z"/>
			<path class="st7" d="M38.1,83.3C38,83.2,38,83.1,37.9,83c-0.5-0.6-1.4-0.7-2.1-0.8c0.8,0.5,1.9,1.5,1.6,3c-0.3,1.2-0.8,2-1.2,2.5
				c0.7-0.3,1.2-0.6,1.6-0.9C38.1,86.5,39,84.8,38.1,83.3z"/>
		</g>
	</g>
</g>
<g>
	<g>
		<path class="st8" d="M28.6,142.2H4.7c-0.1,0-0.2-0.1-0.2-0.2v-36.4c0-0.1,0.1-0.2,0.1-0.2c0.1,0,0.2,0,0.2,0.1l23.8,36.4
			c0,0.1,0,0.1,0,0.2C28.7,142.1,28.7,142.2,28.6,142.2z M4.9,141.8h23.3L4.9,106.3V141.8z M18.7,135.5h-7.6c-0.1,0-0.2-0.1-0.2-0.2
			v-11.5c0-0.1,0.1-0.2,0.1-0.2c0.1,0,0.2,0,0.2,0.1l7.6,11.5c0,0.1,0,0.1,0,0.2C18.8,135.5,18.7,135.5,18.7,135.5z M11.3,135.1h7
			l-7-10.7C11.3,124.4,11.3,135.1,11.3,135.1z"/>
		<path class="st9" d="M4.9,106.3v35.5h23.3L4.9,106.3z M18.7,135.5h-7.6c-0.1,0-0.2-0.1-0.2-0.2v-11.5c0-0.1,0.1-0.2,0.1-0.2
			c0.1,0,0.2,0,0.2,0.1l7.6,11.5c0,0.1,0,0.1,0,0.2C18.8,135.5,18.7,135.5,18.7,135.5z"/>
		<path class="st10" d="M28,141.4h-0.2v-0.3l-0.3-0.4H27v-0.5h0.2l-0.1-0.2H27v-0.1l-0.2-0.3v0.4h-0.6v-0.5h0.5l-0.1-0.2h-0.4v-0.5
			l0,0l-0.2-0.4v0.2h-0.6v-0.5h0.4l-0.1-0.2h-0.3v-0.4l-0.2-0.3h-0.6v-0.5h0.3l-0.1-0.2h-0.1v-0.2l-0.2-0.3v0.5h-0.6V136h0.6
			l-0.1-0.2h-0.5V135H24l-0.3-0.5v0.3h-0.6v-0.5h0.5l-0.1-0.2h-0.3v-0.5l-0.2-0.3v0.1h-1v-0.5h0.3l-0.1-0.2H22v-0.3l-0.3-0.4h-0.5
			v-0.5h0.2l-0.1-0.2h-0.1v-0.1l-0.2-0.3v0.4h-0.6v-0.5h0.5l-0.1-0.2h-0.4v-0.5l0,0l-0.2-0.4v0.2h-0.6v-0.5H20l-0.1-0.2h-0.3v-0.4
			l-0.3-0.4h-0.5v-0.6h0.1l-0.3-0.5v0.3H18V127h0.4l-0.1-0.2H18v-0.4l-0.3-0.4h-0.6v-0.6h0.2l-0.1-0.2l0,0l0,0l-0.2-0.3v0.3h-0.6
			v-0.6h0.4l-0.1-0.2h-0.3v-0.5l-0.2-0.3h-0.6V123h0.2l-0.1-0.2h-0.1v-0.1l-0.2-0.3v0.4h-0.6v-0.6h0.5l-0.1-0.2h-0.3v-0.5l-0.2-0.3
			h-0.6v-0.6H14l-0.1-0.2h-0.1v-0.1l-0.2-0.3v0.4H13v-0.6h0.5l-0.1-0.2H13V119l-0.2-0.3l0,0h-0.6v-0.6h0.2l-0.1-0.2h-0.1v-0.2
			L12,117v0.5h-0.6v-0.6h0.5l-0.1-0.2h-0.4V116l-0.2-0.3v0.1h-0.6v-0.6h0.3l-0.1-0.2h-0.1v-0.2l-0.2-0.3v0.5H9.7v-0.6h0.5l-0.1-0.2
			H9.7v-0.6l0,0l-0.2-0.3v0.1H8.9v-0.6h0.3L9,112.5H8.9v-0.3L8.7,112v0.6H8.1V112h0.6l-0.1-0.2H8.1v-0.6l0,0l-0.2-0.4v0.2H7.2v-0.6
			h0.3l-0.1-0.2H7.2v-0.3L7,109.5v0.6H6.4v-0.6H7l-0.1-0.2H6.4v-0.6h0.1l-0.3-0.4v0.2H5.6v-0.6h0.3l-0.1-0.2H5.6v-0.3l-0.3-0.5H4.9
			v0.2h0.5v0.6H4.9v0.2h0.5v0.6H4.9v0.2h0.5v0.6H4.9v0.2h0.5v0.6H4.9v0.2h0.5v0.6H4.9v0.2h0.5v0.6H4.9v0.2h0.5v0.6H4.9v0.2h0.5v0.6
			H4.9v0.2h0.5v0.6H4.9v0.2h0.5v0.6H4.9v0.2h0.5v0.6H4.9v0.2h0.5v0.6H4.9v0.2h0.5v0.6H4.9v0.2h0.5v0.6H4.9v0.2h0.5v0.6H4.9v0.2h0.5
			v0.6H4.9v0.2h0.5v0.6H4.9v0.2h0.5v0.6H4.9v0.2h0.5v0.6H4.9v0.2h0.5v0.6H4.9v0.2h0.5v0.6H4.9v0.2h0.5v0.6H4.9v0.2h0.5v0.6H4.9v0.2
			h0.5v0.6H4.9v0.2h0.5v0.6H4.9v0.2h0.5v0.6H4.9v0.2h0.5v0.6H4.9v0.2h0.5v0.5H4.9v0.2h0.5v0.5H4.9v0.2h0.5v0.5H4.9v0.2h0.5v0.5H4.9
			v0.2h0.5v0.5H4.9v0.2h0.5v0.5H4.9v0.2h0.5v0.5H4.9v0.2h0.5v0.5H4.9v0.2h0.5v0.5H4.9v0.2h0.5v0.5H4.9v0.2h0.5v0.5H4.9v0.2h0.5v0.5
			H4.9v0.2h0.5v0.5H4.9v0.2h0.5v0.5H4.9v0.2h0.5v0.5H4.9v0.2h0.5v0.5H4.9v0.2h0.5v0.5H4.9v0.2h0.5v0.2h0.2v-0.2h0.6v0.2h0.2v-0.2H7
			v0.2h0.2v-0.2h0.6v0.2H8v-0.2h0.6v0.2h0.2v-0.2h0.6v0.2h0.2v-0.2h0.6v0.2h0.2v-0.2H11v0.2h0.2v-0.2H12v0.2h0.2v-0.2h0.6v0.2H13
			v-0.2h0.6v0.2h0.2v-0.2h0.6v0.2h0.2v-0.2h0.6v0.2h0.2v-0.2H16v0.2h0.2v-0.2h0.6v0.2H17v-0.2h0.6v0.2h0.2v-0.2h0.6v0.2h0.2v-0.2
			h0.6v0.2h0.2v-0.2H20v0.2h0.2v-0.2H21v0.2h0.2v-0.2h0.6v0.2H22v-0.2h0.6v0.2h0.2v-0.2h0.6v0.2h0.2v-0.2h0.6v0.2h0.2v-0.2H25v0.2
			h0.2v-0.2h0.6v0.2H26v-0.2h0.6v0.2h0.2v-0.2h0.6v0.2h0.2v-0.2h0.3L28,141.4z M6.2,141.4H5.6v-0.5h0.6V141.4z M6.2,140.7H5.6v-0.5
			h0.6V140.7z M6.2,139.9H5.6v-0.5h0.6V139.9z M6.2,139.2H5.6v-0.5h0.6V139.2z M6.2,138.5H5.6V138h0.6V138.5z M6.2,137.7H5.6v-0.5
			h0.6V137.7z M6.2,137H5.6v-0.5h0.6V137z M6.2,136.3H5.6v-0.5h0.6V136.3z M6.2,135.5H5.6V135h0.6V135.5z M6.2,134.8H5.6v-0.5h0.6
			V134.8z M6.2,134.1H5.6v-0.5h0.6V134.1z M6.2,133.4H5.6v-0.5h0.6V133.4z M6.2,132.6H5.6v-0.5h0.6V132.6z M6.2,131.9H5.6v-0.5h0.6
			V131.9z M6.2,131.2H5.6v-0.5h0.6V131.2z M6.2,130.4H5.6v-0.5h0.6V130.4z M6.2,129.7H5.6v-0.5h0.6V129.7z M6.2,129H5.6v-0.6h0.6
			V129z M6.2,128.1H5.6v-0.6h0.6V128.1z M6.2,127.3H5.6v-0.6h0.6V127.3z M6.2,126.5H5.6v-0.6h0.6V126.5z M6.2,125.7H5.6v-0.6h0.6
			V125.7z M6.2,124.9H5.6v-0.6h0.6V124.9z M6.2,124H5.6v-0.6h0.6V124z M6.2,123.2H5.6v-0.6h0.6V123.2z M6.2,122.4H5.6v-0.6h0.6
			V122.4z M6.2,121.6H5.6V121h0.6V121.6z M6.2,120.8H5.6v-0.6h0.6V120.8z M6.2,119.9H5.6v-0.6h0.6V119.9z M6.2,119.1H5.6v-0.6h0.6
			V119.1z M6.2,118.3H5.6v-0.6h0.6V118.3z M6.2,117.5H5.6v-0.6h0.6V117.5z M6.2,116.6H5.6V116h0.6V116.6z M6.2,115.8H5.6v-0.6h0.6
			V115.8z M6.2,115H5.6v-0.6h0.6V115z M6.2,114.2H5.6v-0.6h0.6V114.2z M6.2,113.4H5.6v-0.6h0.6V113.4z M6.2,112.5H5.6v-0.6h0.6
			V112.5z M6.2,111.7H5.6v-0.6h0.6V111.7z M6.2,110.9H5.6v-0.6h0.6V110.9z M6.2,110.1H5.6v-0.6h0.6V110.1z M6.2,109.3H5.6v-0.6h0.6
			V109.3z M7,141.4H6.4v-0.5H7V141.4z M7,140.7H6.4v-0.5H7V140.7z M7,139.9H6.4v-0.5H7V139.9z M7,139.2H6.4v-0.5H7V139.2z M7,138.5
			H6.4V138H7V138.5z M7,137.7H6.4v-0.5H7V137.7z M7,137H6.4v-0.5H7V137z M7,136.3H6.4v-0.5H7V136.3z M7,135.5H6.4V135H7V135.5z
			 M7,134.8H6.4v-0.5H7V134.8z M7,134.1H6.4v-0.5H7V134.1z M7,133.4H6.4v-0.5H7V133.4z M7,132.6H6.4v-0.5H7V132.6z M7,131.9H6.4
			v-0.5H7V131.9z M7,131.2H6.4v-0.5H7V131.2z M7,130.4H6.4v-0.5H7V130.4z M7,129.7H6.4v-0.5H7V129.7z M7,129H6.4v-0.6H7V129z
			 M7,128.1H6.4v-0.6H7V128.1z M7,127.3H6.4v-0.6H7V127.3z M7,126.5H6.4v-0.6H7V126.5z M7,125.7H6.4v-0.6H7V125.7z M7,124.9H6.4
			v-0.6H7V124.9z M7,124H6.4v-0.6H7V124z M7,123.2H6.4v-0.6H7V123.2z M7,122.4H6.4v-0.6H7V122.4z M7,121.6H6.4V121H7V121.6z
			 M7,120.8H6.4v-0.6H7V120.8z M7,119.9H6.4v-0.6H7V119.9z M7,119.1H6.4v-0.6H7V119.1z M7,118.3H6.4v-0.6H7V118.3z M7,117.5H6.4
			v-0.6H7V117.5z M7,116.6H6.4V116H7V116.6z M7,115.8H6.4v-0.6H7V115.8z M7,115H6.4v-0.6H7V115z M7,114.2H6.4v-0.6H7V114.2z
			 M7,113.4H6.4v-0.6H7V113.4z M7,112.5H6.4v-0.6H7V112.5z M7,111.7H6.4v-0.6H7V111.7z M7,110.9H6.4v-0.6H7V110.9z M7.9,141.4H7.2
			v-0.5h0.6v0.5H7.9z M7.9,140.7H7.2v-0.5h0.6v0.5H7.9z M7.9,139.9H7.2v-0.5h0.6v0.5H7.9z M7.9,139.2H7.2v-0.5h0.6v0.5H7.9z
			 M7.9,138.5H7.2V138h0.6v0.5H7.9z M7.9,137.7H7.2v-0.5h0.6v0.5H7.9z M7.9,137H7.2v-0.5h0.6v0.5H7.9z M7.9,136.3H7.2v-0.5h0.6v0.5
			H7.9z M7.9,135.5H7.2V135h0.6v0.5H7.9z M7.9,134.8H7.2v-0.5h0.6v0.5H7.9z M7.9,134.1H7.2v-0.5h0.6v0.5H7.9z M7.9,133.4H7.2v-0.5
			h0.6v0.5H7.9z M7.9,132.6H7.2v-0.5h0.6v0.5H7.9z M7.9,131.9H7.2v-0.5h0.6v0.5H7.9z M7.9,131.2H7.2v-0.5h0.6v0.5H7.9z M7.9,130.4
			H7.2v-0.5h0.6v0.5H7.9z M7.9,129.7H7.2v-0.5h0.6v0.5H7.9z M7.9,129H7.2v-0.6h0.6v0.6H7.9z M7.9,128.1H7.2v-0.6h0.6v0.6H7.9z
			 M7.9,127.3H7.2v-0.6h0.6v0.6H7.9z M7.9,126.5H7.2v-0.6h0.6v0.6H7.9z M7.9,125.7H7.2v-0.6h0.6v0.6H7.9z M7.9,124.9H7.2v-0.6h0.6
			v0.6H7.9z M7.9,124H7.2v-0.6h0.6v0.6H7.9z M7.9,123.2H7.2v-0.6h0.6v0.6H7.9z M7.9,122.4H7.2v-0.6h0.6v0.6H7.9z M7.9,121.6H7.2V121
			h0.6v0.6H7.9z M7.9,120.8H7.2v-0.6h0.6v0.6H7.9z M7.9,119.9H7.2v-0.6h0.6v0.6H7.9z M7.9,119.1H7.2v-0.6h0.6v0.6H7.9z M7.9,118.3
			H7.2v-0.6h0.6v0.6H7.9z M7.9,117.5H7.2v-0.6h0.6v0.6H7.9z M7.9,116.6H7.2V116h0.6v0.6H7.9z M7.9,115.8H7.2v-0.6h0.6v0.6H7.9z
			 M7.9,115H7.2v-0.6h0.6v0.6H7.9z M7.9,114.2H7.2v-0.6h0.6v0.6H7.9z M7.9,113.4H7.2v-0.6h0.6v0.6H7.9z M7.9,112.5H7.2v-0.6h0.6v0.6
			H7.9z M7.9,111.7H7.2v-0.6h0.6v0.6H7.9z M8.7,141.4H8.1v-0.5h0.6C8.7,140.9,8.7,141.4,8.7,141.4z M8.7,140.7H8.1v-0.5h0.6
			C8.7,140.2,8.7,140.7,8.7,140.7z M8.7,139.9H8.1v-0.5h0.6C8.7,139.4,8.7,139.9,8.7,139.9z M8.7,139.2H8.1v-0.5h0.6
			C8.7,138.7,8.7,139.2,8.7,139.2z M8.7,138.5H8.1V138h0.6C8.7,138,8.7,138.5,8.7,138.5z M8.7,137.7H8.1v-0.5h0.6
			C8.7,137.2,8.7,137.7,8.7,137.7z M8.7,137H8.1v-0.5h0.6C8.7,136.5,8.7,137,8.7,137z M8.7,136.3H8.1v-0.5h0.6
			C8.7,135.8,8.7,136.3,8.7,136.3z M8.7,135.5H8.1V135h0.6C8.7,135,8.7,135.5,8.7,135.5z M8.7,134.8H8.1v-0.5h0.6
			C8.7,134.3,8.7,134.8,8.7,134.8z M8.7,134.1H8.1v-0.5h0.6C8.7,133.6,8.7,134.1,8.7,134.1z M8.7,133.4H8.1v-0.5h0.6
			C8.7,132.9,8.7,133.4,8.7,133.4z M8.7,132.6H8.1v-0.5h0.6C8.7,132.1,8.7,132.6,8.7,132.6z M8.7,131.9H8.1v-0.5h0.6
			C8.7,131.4,8.7,131.9,8.7,131.9z M8.7,131.2H8.1v-0.5h0.6C8.7,130.7,8.7,131.2,8.7,131.2z M8.7,130.4H8.1v-0.5h0.6
			C8.7,129.9,8.7,130.4,8.7,130.4z M8.7,129.7H8.1v-0.5h0.6C8.7,129.2,8.7,129.7,8.7,129.7z M8.7,129H8.1v-0.6h0.6
			C8.7,128.4,8.7,129,8.7,129z M8.7,128.1H8.1v-0.6h0.6C8.7,127.5,8.7,128.1,8.7,128.1z M8.7,127.3H8.1v-0.6h0.6
			C8.7,126.7,8.7,127.3,8.7,127.3z M8.7,126.5H8.1v-0.6h0.6C8.7,125.9,8.7,126.5,8.7,126.5z M8.7,125.7H8.1v-0.6h0.6
			C8.7,125.1,8.7,125.7,8.7,125.7z M8.7,124.9H8.1v-0.6h0.6C8.7,124.3,8.7,124.9,8.7,124.9z M8.7,124H8.1v-0.6h0.6
			C8.7,123.4,8.7,124,8.7,124z M8.7,123.2H8.1v-0.6h0.6C8.7,122.6,8.7,123.2,8.7,123.2z M8.7,122.4H8.1v-0.6h0.6
			C8.7,121.8,8.7,122.4,8.7,122.4z M8.7,121.6H8.1V121h0.6C8.7,121,8.7,121.6,8.7,121.6z M8.7,120.8H8.1v-0.6h0.6
			C8.7,120.2,8.7,120.8,8.7,120.8z M8.7,119.9H8.1v-0.6h0.6C8.7,119.3,8.7,119.9,8.7,119.9z M8.7,119.1H8.1v-0.6h0.6
			C8.7,118.5,8.7,119.1,8.7,119.1z M8.7,118.3H8.1v-0.6h0.6C8.7,117.7,8.7,118.3,8.7,118.3z M8.7,117.5H8.1v-0.6h0.6
			C8.7,116.9,8.7,117.5,8.7,117.5z M8.7,116.6H8.1V116h0.6C8.7,116,8.7,116.6,8.7,116.6z M8.7,115.8H8.1v-0.6h0.6
			C8.7,115.2,8.7,115.8,8.7,115.8z M8.7,115H8.1v-0.6h0.6C8.7,114.4,8.7,115,8.7,115z M8.7,114.2H8.1v-0.6h0.6
			C8.7,113.6,8.7,114.2,8.7,114.2z M8.7,113.4H8.1v-0.6h0.6C8.7,112.8,8.7,113.4,8.7,113.4z M9.5,141.4H8.9v-0.5h0.6V141.4z
			 M9.5,140.7H8.9v-0.5h0.6V140.7z M9.5,139.9H8.9v-0.5h0.6V139.9z M9.5,139.2H8.9v-0.5h0.6V139.2z M9.5,138.5H8.9V138h0.6V138.5z
			 M9.5,137.7H8.9v-0.5h0.6V137.7z M9.5,137H8.9v-0.5h0.6V137z M9.5,136.3H8.9v-0.5h0.6V136.3z M9.5,135.5H8.9V135h0.6V135.5z
			 M9.5,134.8H8.9v-0.5h0.6V134.8z M9.5,134.1H8.9v-0.5h0.6V134.1z M9.5,133.4H8.9v-0.5h0.6V133.4z M9.5,132.6H8.9v-0.5h0.6V132.6z
			 M9.5,131.9H8.9v-0.5h0.6V131.9z M9.5,131.2H8.9v-0.5h0.6V131.2z M9.5,130.4H8.9v-0.5h0.6V130.4z M9.5,129.7H8.9v-0.5h0.6V129.7z
			 M9.5,129H8.9v-0.6h0.6V129z M9.5,128.1H8.9v-0.6h0.6V128.1z M9.5,127.3H8.9v-0.6h0.6V127.3z M9.5,126.5H8.9v-0.6h0.6V126.5z
			 M9.5,125.7H8.9v-0.6h0.6V125.7z M9.5,124.9H8.9v-0.6h0.6V124.9z M9.5,124H8.9v-0.6h0.6V124z M9.5,123.2H8.9v-0.6h0.6V123.2z
			 M9.5,122.4H8.9v-0.6h0.6V122.4z M9.5,121.6H8.9V121h0.6V121.6z M9.5,120.8H8.9v-0.6h0.6V120.8z M9.5,119.9H8.9v-0.6h0.6V119.9z
			 M9.5,119.1H8.9v-0.6h0.6V119.1z M9.5,118.3H8.9v-0.6h0.6V118.3z M9.5,117.5H8.9v-0.6h0.6V117.5z M9.5,116.6H8.9V116h0.6V116.6z
			 M9.5,115.8H8.9v-0.6h0.6V115.8z M9.5,115H8.9v-0.6h0.6V115z M9.5,114.2H8.9v-0.6h0.6V114.2z M10.3,141.4H9.7v-0.5h0.6V141.4z
			 M10.3,140.7H9.7v-0.5h0.6V140.7z M10.3,139.9H9.7v-0.5h0.6V139.9z M10.3,139.2H9.7v-0.5h0.6V139.2z M10.3,138.5H9.7V138h0.6
			V138.5z M10.3,137.7H9.7v-0.5h0.6V137.7z M10.3,137H9.7v-0.5h0.6V137z M10.3,136.3H9.7v-0.5h0.6V136.3z M10.3,135.5H9.7V135h0.6
			V135.5z M10.3,134.8H9.7v-0.5h0.6V134.8z M10.3,134.1H9.7v-0.5h0.6V134.1z M10.3,133.4H9.7v-0.5h0.6V133.4z M10.3,132.6H9.7v-0.5
			h0.6V132.6z M10.3,131.9H9.7v-0.5h0.6V131.9z M10.3,131.2H9.7v-0.5h0.6V131.2z M10.3,130.4H9.7v-0.5h0.6V130.4z M10.3,129.7H9.7
			v-0.5h0.6V129.7z M10.3,129H9.7v-0.6h0.6V129z M10.3,128.1H9.7v-0.6h0.6V128.1z M10.3,127.3H9.7v-0.6h0.6V127.3z M10.3,126.5H9.7
			v-0.6h0.6V126.5z M10.3,125.7H9.7v-0.6h0.6V125.7z M10.3,124.9H9.7v-0.6h0.6V124.9z M10.3,124H9.7v-0.6h0.6V124z M10.3,123.2H9.7
			v-0.6h0.6V123.2z M10.3,122.4H9.7v-0.6h0.6V122.4z M10.3,121.6H9.7V121h0.6V121.6z M10.3,120.8H9.7v-0.6h0.6V120.8z M10.3,119.9
			H9.7v-0.6h0.6V119.9z M10.3,119.1H9.7v-0.6h0.6V119.1z M10.3,118.3H9.7v-0.6h0.6V118.3z M10.3,117.5H9.7v-0.6h0.6V117.5z
			 M10.3,116.6H9.7V116h0.6V116.6z M10.3,115.8H9.7v-0.6h0.6V115.8z M17.9,127.5h0.6v0.6h-0.6V127.5z M17.9,128.3h0.6v0.6h-0.6
			V128.3z M17.9,129.2h0.6v0.5h-0.6V129.2z M17.9,129.9h0.6v0.5h-0.6V129.9z M17.9,130.6h0.6v0.5h-0.6V130.6z M17.9,131.4h0.6v0.5
			h-0.6V131.4z M17.9,132.1h0.6v0.5h-0.6V132.1z M17.9,132.8h0.6v0.5h-0.6V132.8z M17.1,125.9h0.6v0.6h-0.6V125.9z M17.1,126.7h0.6
			v0.6h-0.6V126.7z M17.1,127.5h0.6v0.6h-0.6V127.5z M17.1,128.3h0.6v0.6h-0.6V128.3z M17.1,129.2h0.6v0.5h-0.6V129.2z M17.1,129.9
			h0.6v0.5h-0.6V129.9z M17.1,130.6h0.6v0.5h-0.6V130.6z M17.1,131.4h0.6v0.5h-0.6V131.4z M16.3,125.1h0.6v0.6h-0.6V125.1z
			 M16.3,125.9h0.6v0.6h-0.6V125.9z M16.3,126.7h0.6v0.6h-0.6V126.7z M16.3,127.5h0.6v0.6h-0.6V127.5z M16.3,128.3h0.6v0.6h-0.6
			V128.3z M16.3,129.2h0.6v0.5h-0.6V129.2z M16.3,129.9h0.6v0.5h-0.6V129.9z M16.3,130.6h0.6v0.5h-0.6V130.6z M15.4,123.4H16v0.6
			h-0.6V123.4z M15.4,124.2H16v0.6h-0.6V124.2z M15.4,125.1H16v0.6h-0.6V125.1z M15.4,125.9H16v0.6h-0.6V125.9z M15.4,126.7H16v0.6
			h-0.6V126.7z M15.4,127.5H16v0.6h-0.6V127.5z M15.4,128.3H16v0.6h-0.6V128.3z M15.4,129.2H16v0.5h-0.6V129.2z M14.6,122.6h0.6v0.6
			h-0.6V122.6z M14.6,123.4h0.6v0.6h-0.6V123.4z M14.6,124.2h0.6v0.6h-0.6V124.2z M14.6,125.1h0.6v0.6h-0.6V125.1z M14.6,125.9h0.6
			v0.6h-0.6V125.9z M14.6,126.7h0.6v0.6h-0.6V126.7z M14.6,127.5h0.6v0.6h-0.6V127.5z M13.8,120.9h0.6v0.6h-0.6V120.9z M13.8,121.8
			h0.6v0.6h-0.6V121.8z M13.8,122.6h0.6v0.6h-0.6V122.6z M13.8,123.4h0.6v0.6h-0.6V123.4z M13.8,124.2h0.6v0.6h-0.6V124.2z
			 M13.8,125.1h0.6v0.6h-0.6V125.1z M13.8,125.9h0.6v0.6h-0.6V125.9z M13.8,126.7h0.6v0.6h-0.6V126.7z M13,120.1h0.6v0.6H13V120.1z
			 M13,120.9h0.6v0.6H13V120.9z M13,121.8h0.6v0.6H13V121.8z M13,122.6h0.6v0.6H13V122.6z M13,123.4h0.6v0.6H13V123.4z M13,124.2
			h0.6v0.6H13V124.2z M13,125.1h0.6v0.6H13V125.1z M12.2,118.5h0.6v0.6h-0.6V118.5z M12.2,119.3h0.6v0.6h-0.6V119.3z M12.2,120.1
			h0.6v0.6h-0.6V120.1z M12.2,120.9h0.6v0.6h-0.6V120.9z M12.2,121.8h0.6v0.6h-0.6V121.8z M12.2,122.6h0.6v0.6h-0.6V122.6z
			 M12.2,123.4h0.6v0.6h-0.6V123.4z M12.2,124.2h0.6v0.6h-0.6V124.2z M11.3,117.7H12v0.6h-0.6L11.3,117.7L11.3,117.7z M11.3,118.5
			H12v0.6h-0.6L11.3,118.5L11.3,118.5z M11.3,119.3H12v0.6h-0.6L11.3,119.3L11.3,119.3z M11.3,120.1H12v0.6h-0.6L11.3,120.1
			L11.3,120.1z M11.3,120.9H12v0.6h-0.6L11.3,120.9L11.3,120.9z M11.3,121.8H12v0.6h-0.6L11.3,121.8L11.3,121.8z M11.3,122.6H12v0.6
			h-0.6L11.3,122.6L11.3,122.6z M10.5,116h0.6v0.6h-0.6V116z M10.5,116.8h0.6v0.6h-0.6V116.8z M10.5,117.7h0.6v0.6h-0.6V117.7z
			 M10.5,118.5h0.6v0.6h-0.6V118.5z M10.5,119.3h0.6v0.6h-0.6V119.3z M10.5,120.1h0.6v0.6h-0.6V120.1z M10.5,120.9h0.6v0.6h-0.6
			V120.9z M10.5,121.8h0.6v0.6h-0.6V121.8z M10.5,122.6h0.6v0.6h-0.6V122.6z M11.1,141.4h-0.6v-0.5h0.6V141.4z M11.1,140.7h-0.6
			v-0.5h0.6V140.7z M11.1,139.9h-0.6v-0.5h0.6V139.9z M11.1,139.2h-0.6v-0.5h0.6V139.2z M11.1,138.5h-0.6V138h0.6V138.5z
			 M11.1,137.7h-0.6v-0.5h0.6V137.7z M11.1,137h-0.6v-0.5h0.6V137z M11.1,136.3h-0.6v-0.5h0.6V136.3z M12,141.4h-0.6v-0.5H12V141.4z
			 M12,140.7h-0.6v-0.5H12V140.7z M12,139.9h-0.6v-0.5H12V139.9z M12,139.2h-0.6v-0.5H12V139.2z M12,138.5h-0.6V138H12V138.5z
			 M12,137.7h-0.6v-0.5H12V137.7z M12,137h-0.6v-0.5H12V137z M12,136.3h-0.6v-0.5H12V136.3z M12.8,141.4h-0.6v-0.5h0.6V141.4z
			 M12.8,140.7h-0.6v-0.5h0.6V140.7z M12.8,139.9h-0.6v-0.5h0.6V139.9z M12.8,139.2h-0.6v-0.5h0.6V139.2z M12.8,138.5h-0.6V138h0.6
			V138.5z M12.8,137.7h-0.6v-0.5h0.6V137.7z M12.8,137h-0.6v-0.5h0.6V137z M12.8,136.3h-0.6v-0.5h0.6V136.3z M13.6,141.4H13v-0.5
			h0.6V141.4z M13.6,140.7H13v-0.5h0.6V140.7z M13.6,139.9H13v-0.5h0.6V139.9z M13.6,139.2H13v-0.5h0.6V139.2z M13.6,138.5H13V138
			h0.6V138.5z M13.6,137.7H13v-0.5h0.6V137.7z M13.6,137H13v-0.5h0.6V137z M13.6,136.3H13v-0.5h0.6V136.3z M14.4,141.4h-0.6v-0.5
			h0.6V141.4z M14.4,140.7h-0.6v-0.5h0.6V140.7z M14.4,139.9h-0.6v-0.5h0.6V139.9z M14.4,139.2h-0.6v-0.5h0.6V139.2z M14.4,138.5
			h-0.6V138h0.6V138.5z M14.4,137.7h-0.6v-0.5h0.6V137.7z M14.4,137h-0.6v-0.5h0.6V137z M14.4,136.3h-0.6v-0.5h0.6V136.3z
			 M15.3,141.4h-0.6v-0.5h0.6V141.4z M15.3,140.7h-0.6v-0.5h0.6V140.7z M15.3,139.9h-0.6v-0.5h0.6V139.9z M15.3,139.2h-0.6v-0.5h0.6
			V139.2z M15.3,138.5h-0.6V138h0.6V138.5z M15.3,137.7h-0.6v-0.5h0.6V137.7z M15.3,137h-0.6v-0.5h0.6V137z M15.3,136.3h-0.6v-0.5
			h0.6V136.3z M16.1,141.4h-0.6v-0.5h0.6V141.4z M16.1,140.7h-0.6v-0.5h0.6V140.7z M16.1,139.9h-0.6v-0.5h0.6V139.9z M16.1,139.2
			h-0.6v-0.5h0.6V139.2z M16.1,138.5h-0.6V138h0.6V138.5z M16.1,137.7h-0.6v-0.5h0.6V137.7z M16.1,137h-0.6v-0.5h0.6V137z
			 M16.1,136.3h-0.6v-0.5h0.6V136.3z M16.9,141.4h-0.6v-0.5h0.6V141.4z M16.9,140.7h-0.6v-0.5h0.6V140.7z M16.9,139.9h-0.6v-0.5h0.6
			V139.9z M16.9,139.2h-0.6v-0.5h0.6V139.2z M16.9,138.5h-0.6V138h0.6V138.5z M16.9,137.7h-0.6v-0.5h0.6V137.7z M16.9,137h-0.6v-0.5
			h0.6V137z M16.9,136.3h-0.6v-0.5h0.6V136.3z M17.7,141.4h-0.6v-0.5h0.6V141.4z M17.7,140.7h-0.6v-0.5h0.6V140.7z M17.7,139.9h-0.6
			v-0.5h0.6V139.9z M17.7,139.2h-0.6v-0.5h0.6V139.2z M17.7,138.5h-0.6V138h0.6V138.5z M17.7,137.7h-0.6v-0.5h0.6V137.7z M17.7,137
			h-0.6v-0.5h0.6V137z M17.7,136.3h-0.6v-0.5h0.6V136.3z M18.5,141.4h-0.6v-0.5h0.6V141.4z M18.5,140.7h-0.6v-0.5h0.6V140.7z
			 M18.5,139.9h-0.6v-0.5h0.6V139.9z M18.5,139.2h-0.6v-0.5h0.6V139.2z M18.5,138.5h-0.6V138h0.6V138.5z M18.5,137.7h-0.6v-0.5h0.6
			V137.7z M18.5,137h-0.6v-0.5h0.6V137z M18.5,136.3h-0.6v-0.5h0.6V136.3z M19.4,141.4h-0.6v-0.5h0.6V141.4z M19.4,140.7h-0.6v-0.5
			h0.6V140.7z M19.4,139.9h-0.6v-0.5h0.6V139.9z M19.4,139.2h-0.6v-0.5h0.6V139.2z M19.4,138.5h-0.6V138h0.6V138.5z M19.4,137.7
			h-0.6v-0.5h0.6V137.7z M19.4,137h-0.6v-0.5h0.6V137z M19.4,136.3h-0.6v-0.5h0.6V136.3z M19.4,135.5h-0.6l0,0c0,0,0,0-0.1,0h-0.1
			l0,0H18l0,0h-0.2l0,0h-0.6l0,0H17l0,0h-0.6l0,0h-0.2l0,0h-0.6l0,0h-0.2l0,0h-0.6l0,0h-0.2l0,0H14l0,0h-0.2l0,0H13l0,0h-0.2l0,0
			h-0.6l0,0H12l0,0h-0.6l0,0h-0.2l0,0h-0.6V135H11v-0.2h-0.4v-0.5H11v-0.2h-0.4v-0.5H11v-0.2h-0.4v-0.5H11v-0.2h-0.4v-0.5H11V132
			h-0.4v-0.5H11v-0.2h-0.4v-0.5H11v-0.2h-0.4v-0.5H11v-0.2h-0.4v-0.5H11V129h-0.4v-0.6H11v-0.2h-0.4v-0.6H11v-0.2h-0.4v-0.6H11v-0.2
			h-0.4V126H11v-0.2h-0.4v-0.6H11V125h-0.4v-0.6H11V124h-0.4v-0.6h0.6v0.2c0,0,0.1,0,0.1,0.1l0.1,0.1v-0.4H12v0.6h-0.5l0.1,0.2H12
			v0.5l0.2,0.3l0,0h0.6v0.6h-0.2l0.1,0.2h0.1v0.1l0.2,0.3v-0.4h0.6v0.6h-0.5l0.1,0.2h0.4v0.6l0.2,0.3l0,0h0.6v0.6h-0.2l0.1,0.2h0.1
			v0.2l0.2,0.3v-0.5h0.6v0.6h-0.5l0.1,0.2h0.4v0.5l0,0l0.2,0.4v-0.2H16v0.5h-0.4l0.1,0.2H16v0.4l0.2,0.3h0.6v0.5h-0.3l0.1,0.2h0.1
			v0.2l0.2,0.3v-0.5h0.6v0.5h-0.6l0.1,0.2h0.5v0.5h-0.1l0.3,0.5v-0.3h0.6v0.5h-0.5l0.1,0.2h0.3v0.5l0.2,0.3v0.2H19v0.5L19.4,135.5
			L19.4,135.5z M19.4,134.8h-0.6v-0.5h0.6V134.8z M19.4,134.1h-0.6v-0.5h0.6V134.1z M19.4,133.4h-0.6v-0.5h0.6V133.4z M19.4,132.6
			h-0.6v-0.5h0.6V132.6z M19.4,131.9h-0.6v-0.5h0.6V131.9z M19.4,131.2h-0.6v-0.5h0.6V131.2z M19.4,130.4h-0.6v-0.5h0.6V130.4z
			 M19.4,129.7h-0.6v-0.5h0.6V129.7z M19.4,129h-0.6v-0.6h0.6V129z M20.2,141.4h-0.6v-0.5h0.6V141.4z M20.2,140.7h-0.6v-0.5h0.6
			V140.7z M20.2,139.9h-0.6v-0.5h0.6V139.9z M20.2,139.2h-0.6v-0.5h0.6V139.2z M20.2,138.5h-0.6V138h0.6V138.5z M20.2,137.7h-0.6
			v-0.5h0.6V137.7z M20.2,137h-0.6v-0.5h0.6V137z M20.2,136.3h-0.6v-0.5h0.6V136.3z M20.2,135.5h-0.6V135h0.6V135.5z M20.2,134.8
			h-0.6v-0.5h0.6V134.8z M20.2,134.1h-0.6v-0.5h0.6V134.1z M20.2,133.4h-0.6v-0.5h0.6V133.4z M20.2,132.6h-0.6v-0.5h0.6V132.6z
			 M20.2,131.9h-0.6v-0.5h0.6V131.9z M20.2,131.2h-0.6v-0.5h0.6V131.2z M20.2,130.4h-0.6v-0.5h0.6V130.4z M21,141.4h-0.6v-0.5H21
			V141.4z M21,140.7h-0.6v-0.5H21V140.7z M21,139.9h-0.6v-0.5H21V139.9z M21,139.2h-0.6v-0.5H21V139.2z M21,138.5h-0.6V138H21V138.5
			z M21,137.7h-0.6v-0.5H21V137.7z M21,137h-0.6v-0.5H21V137z M21,136.3h-0.6v-0.5H21V136.3z M21,135.5h-0.6V135H21V135.5z
			 M21,134.8h-0.6v-0.5H21V134.8z M21,134.1h-0.6v-0.5H21V134.1z M21,133.4h-0.6v-0.5H21V133.4z M21,132.6h-0.6v-0.5H21V132.6z
			 M21,131.9h-0.6v-0.5H21V131.9z M21.8,141.4h-0.6v-0.5h0.6V141.4z M21.8,140.7h-0.6v-0.5h0.6V140.7z M21.8,139.9h-0.6v-0.5h0.6
			V139.9z M21.8,139.2h-0.6v-0.5h0.6V139.2z M21.8,138.5h-0.6V138h0.6V138.5z M21.8,137.7h-0.6v-0.5h0.6V137.7z M21.8,137h-0.6v-0.5
			h0.6V137z M21.8,136.3h-0.6v-0.5h0.6V136.3z M21.8,135.5h-0.6V135h0.6V135.5z M21.8,134.8h-0.6v-0.5h0.6V134.8z M21.8,134.1h-0.6
			v-0.5h0.6V134.1z M21.8,133.4h-0.6v-0.5h0.6V133.4z M21.8,132.6h-0.6v-0.5h0.6V132.6z M22.6,141.4H22v-0.5h0.6V141.4z M22.6,140.7
			H22v-0.5h0.6V140.7z M22.6,139.9H22v-0.5h0.6V139.9z M22.6,139.2H22v-0.5h0.6V139.2z M22.6,138.5H22V138h0.6V138.5z M22.6,137.7
			H22v-0.5h0.6V137.7z M22.6,137H22v-0.5h0.6V137z M22.6,136.3H22v-0.5h0.6V136.3z M22.6,135.5H22V135h0.6V135.5z M22.6,134.8H22
			v-0.5h0.6V134.8z M22.6,134.1H22v-0.5h0.6V134.1z M23.5,141.4h-0.6v-0.5h0.6V141.4z M23.5,140.7h-0.6v-0.5h0.6V140.7z M23.5,139.9
			h-0.6v-0.5h0.6V139.9z M23.5,139.2h-0.6v-0.5h0.6V139.2z M23.5,138.5h-0.6V138h0.6V138.5z M23.5,137.7h-0.6v-0.5h0.6V137.7z
			 M23.5,137h-0.6v-0.5h0.6V137z M23.5,136.3h-0.6v-0.5h0.6V136.3z M23.5,135.5h-0.6V135h0.6V135.5z M24.3,141.4h-0.6v-0.5h0.6
			V141.4z M24.3,140.7h-0.6v-0.5h0.6V140.7z M24.3,139.9h-0.6v-0.5h0.6V139.9z M24.3,139.2h-0.6v-0.5h0.6V139.2z M24.3,138.5h-0.6
			V138h0.6V138.5z M24.3,137.7h-0.6v-0.5h0.6V137.7z M24.3,137h-0.6v-0.5h0.6V137z M25.1,141.4h-0.6v-0.5h0.6V141.4z M25.1,140.7
			h-0.6v-0.5h0.6V140.7z M25.1,139.9h-0.6v-0.5h0.6V139.9z M25.1,139.2h-0.6v-0.5h0.6V139.2z M25.1,138.5h-0.6V138h0.6V138.5z
			 M25.1,137.7h-0.6v-0.5h0.6V137.7z M25.9,141.4h-0.6v-0.5h0.6V141.4z M25.9,140.7h-0.6v-0.5h0.6V140.7z M25.9,139.9h-0.6v-0.5h0.6
			V139.9z M25.9,139.2h-0.6v-0.5h0.6V139.2z M26.7,141.4h-0.6v-0.5h0.6V141.4z M26.7,140.7h-0.6v-0.5h0.6V140.7z M27.6,141.4H27
			v-0.5h0.6V141.4z"/>
		<line class="st11" x1="5.6" y1="107.8" x2="5.6" y2="141.4"/>
	</g>
	<g>
		
			<linearGradient id="SVGID_3_" gradientUnits="userSpaceOnUse" x1="60.7659" y1="120.0294" x2="63.8671" y2="120.0294" gradientTransform="matrix(0.9992 -4.010000e-02 4.010000e-02 0.9992 -44.6469 9.4742)">
			<stop  offset="0" style="stop-color:#F7BD71"/>
			<stop  offset="0.3034" style="stop-color:#F7BC6E"/>
			<stop  offset="0.5557" style="stop-color:#F5B763"/>
			<stop  offset="0.789" style="stop-color:#F3B052"/>
			<stop  offset="1" style="stop-color:#F0A63B"/>
		</linearGradient>
		<path class="st12" d="M20.5,113.7c0,0,0.1,0.1,0.2,0l0.3-0.2l0.4,0.3h0.1h0.3c0.1,0,0.1,0,0.1-0.1l0.3-0.5l0.4,0.5l0.1,0.1l0,0
			h0.1l0.3-0.3l0.4-0.2l1.1,26.7c-0.1,0.2-0.4,0.5-1.5,0.6c-1.1,0-1.5-0.3-1.6-0.4l-1.1-26.5L20.5,113.7z"/>
		<path class="st13" d="M21.4,140.5c0.3,0.2,0.7,0.3,1.6,0.3c0.8,0,1.3-0.2,1.5-0.4v0.4c-0.1,0.2-0.4,0.5-1.5,0.6
			c-1.1,0-1.5-0.3-1.6-0.4V140.5z"/>
		<path class="st14" d="M21.7,109.6l1.6,3.4l-0.5,0.3l0,0l-0.2,0.2l-0.4-0.5l-0.1-0.1c0,0-0.1,0-0.1,0.1l-0.3,0.6h-0.2l-0.4-0.4
			c0,0-0.1-0.1-0.2,0l-0.3,0.2l-0.3-0.2L21.7,109.6z"/>
		<path class="st15" d="M23.6,142.7h-1.1c-0.5,0-1-0.4-1-0.9v-0.5c0.3,0.2,0.7,0.3,1.6,0.3c0.8,0,1.3-0.2,1.5-0.4v0.5
			C24.6,142.2,24.2,142.7,23.6,142.7z"/>
		<path class="st16" d="M21.7,108.9c-0.1,0-0.1,0.1-0.2,0.1l-1.6,4l0.4,0.1l1.4-3.5l1.6,3.4h0.4l-1.9-3.9
			C21.9,109,21.8,108.9,21.7,108.9z"/>
		<path class="st17" d="M21.6,141.3c0.3,0.2,0.7,0.3,1.4,0.2c0.8,0,1.3-0.2,1.5-0.4c0.3-0.1,0.4-0.4,0.4-0.4L23.8,113v-0.1h-0.4
			l-0.5,0.3l0,0l-0.2,0.2l-0.4-0.5l-0.1-0.1c0,0-0.1,0-0.1,0.1l-0.3,0.6h-0.2l-0.4-0.4c0,0-0.1-0.1-0.2,0l-0.3,0.2l-0.3-0.2L20,113
			v0.1l1.1,27.8l0.4,0.3L21.6,141.3z M20.3,113.5l0.1,0.1c0,0,0.1,0.1,0.2,0l0.3-0.2l0.4,0.3h0.1h0.3c0.1,0,0.1,0,0.1-0.1l0.3-0.5
			l0.4,0.5l0.1,0.1l0,0h0.1l0.3-0.3l0.4-0.2l1.1,26.7c-0.1,0.2-0.4,0.5-1.5,0.6c-1.1,0-1.5-0.3-1.6-0.4L20.3,113.5z M21.4,140.5
			c0.3,0.2,0.7,0.3,1.6,0.3c0.8,0,1.3-0.2,1.5-0.4v0.4c-0.1,0.2-0.4,0.5-1.5,0.6c-1.1,0-1.5-0.3-1.6-0.4V140.5z"/>
		<g>
			<path class="st18" d="M21.5,141.3c0,0,0.1,0,0.1,0.1L21.5,141.3z"/>
			<path class="st18" d="M22.5,143.1h1.1c0.8,0,1.3-0.7,1.3-1.4v-0.9c0,0-0.1,0.2-0.4,0.4v0.5c0,0.5-0.4,1-0.9,1h-1.1
				c-0.5,0-1-0.4-1-0.9v-0.5l-0.4-0.3v0.9C21.1,142.6,21.8,143.2,22.5,143.1z"/>
		</g>
		<g class="st6">
			
				<linearGradient id="SVGID_4_" gradientUnits="userSpaceOnUse" x1="61.6345" y1="120.1966" x2="61.8317" y2="120.1966" gradientTransform="matrix(0.9992 -4.010000e-02 4.010000e-02 0.9992 -44.6469 9.4742)">
				<stop  offset="0" style="stop-color:#F7BD71"/>
				<stop  offset="0.3034" style="stop-color:#F7BC6E"/>
				<stop  offset="0.5557" style="stop-color:#F5B763"/>
				<stop  offset="0.789" style="stop-color:#F3B052"/>
				<stop  offset="1" style="stop-color:#F0A63B"/>
			</linearGradient>
			<path class="st19" d="M22.4,140.3C22.3,140.3,22.3,140.3,22.4,140.3L21.2,114c0-0.1,0-0.1,0.1-0.1s0.1,0,0.1,0.1l1.1,26.2
				C22.5,140.3,22.4,140.3,22.4,140.3L22.4,140.3z"/>
		</g>
		<g class="st6">
			
				<linearGradient id="SVGID_5_" gradientUnits="userSpaceOnUse" x1="62.6161" y1="120.2367" x2="62.8132" y2="120.2367" gradientTransform="matrix(0.9992 -4.010000e-02 4.010000e-02 0.9992 -44.6469 9.4742)">
				<stop  offset="0" style="stop-color:#F7BD71"/>
				<stop  offset="0.3034" style="stop-color:#F7BC6E"/>
				<stop  offset="0.5557" style="stop-color:#F5B763"/>
				<stop  offset="0.789" style="stop-color:#F3B052"/>
				<stop  offset="1" style="stop-color:#F0A63B"/>
			</linearGradient>
			<path class="st20" d="M23.4,140.3C23.3,140.3,23.3,140.3,23.4,140.3L22.2,114c0-0.1,0-0.1,0.1-0.1s0.1,0,0.1,0.1l1.1,26.2
				C23.5,140.3,23.4,140.3,23.4,140.3L23.4,140.3z"/>
		</g>
		<path class="st14" d="M21.7,109.6l1.6,3.4l-0.5,0.3l0,0l-0.2,0.2l-0.4-0.5l-0.1-0.1c0,0-0.1,0-0.1,0.1l-0.3,0.6h-0.2l-0.4-0.4
			c0,0-0.1-0.1-0.2,0l-0.3,0.2l-0.3-0.2L21.7,109.6z"/>
		<path class="st21" d="M22.2,110.5l-0.4-0.9l-0.3,0.9C21.6,110.6,21.8,110.6,22.2,110.5z"/>
		<path class="st21" d="M21.7,108.9c-0.1,0-0.1,0.1-0.2,0.1l-0.4,1.1l0.1,0.2c0,0,0.1,0.1,0.2,0.2l0.3-0.9l0.4,0.9
			c0.1,0,0.2-0.1,0.3-0.2l0,0l-0.6-1.2C21.9,109,21.8,108.9,21.7,108.9z"/>
	</g>
</g>
<g>
	<g>
		
			<linearGradient id="SVGID_6_" gradientUnits="userSpaceOnUse" x1="257.7206" y1="17.8961" x2="286.7397" y2="65.8541" gradientTransform="matrix(0.9745 -0.2242 0.2242 0.9745 -212.2212 105.1192)">
			<stop  offset="0" style="stop-color:#888888"/>
			<stop  offset="0.5212" style="stop-color:#DBDCDC"/>
			<stop  offset="1" style="stop-color:#9E9E9F"/>
		</linearGradient>
		<path class="st22" d="M59.3,64.4c-0.2-0.2-0.4-0.5-0.5-0.7c-0.2-0.3-0.5-0.5-0.8-0.7l0,0c0.1,0.4,0.3,0.9,0.5,1.5
			c0.3,0.9,0.6,1.8,0.8,2.4c0,0.1,0,0.1,0,0.2s-0.5,0.8-2.4,1.2c-1.9,0.4-2.6,0-2.7,0c-0.1,0-0.1-0.1-0.1-0.2
			c-0.1-0.5-0.2-1.5-0.4-2.5c-0.1-0.6-0.1-1.1-0.2-1.5l0,0c-0.2,0.3-0.3,0.6-0.4,1c-0.1,0.3-0.1,0.5-0.2,0.8c-0.4,1.8-0.9,4-0.1,5.4
			c0.2,0.2,1.6,0.5,2.7,0.7h0.1c0.1,0,0.3,0.1,0.3,0.2L61.1,95c0,0.1,0,0.2-0.1,0.2c-1,1-1.4,2.3-1.1,3.7c0.5,2.1,2.6,3.4,4.7,2.9
			c2.1-0.5,3.4-2.6,2.9-4.7c-0.3-1.3-1.3-2.4-2.6-2.8c-0.1-0.1-0.1-0.1-0.2-0.2l-5.2-22.8c0-0.1,0-0.2,0.1-0.3
			c1.1-0.8,2-1.6,2.2-1.8C61.8,67.7,60.4,65.9,59.3,64.4z M65.6,97.5c0.3,1.1-0.4,2.2-1.5,2.4c-1.1,0.3-2.2-0.4-2.4-1.5
			c-0.3-1.1,0.4-2.2,1.5-2.4C64.3,95.7,65.4,96.4,65.6,97.5z"/>
		
			<linearGradient id="SVGID_7_" gradientUnits="userSpaceOnUse" x1="263.4271" y1="28.0585" x2="279.4878" y2="54.6009" gradientTransform="matrix(0.9745 -0.2242 0.2242 0.9745 -212.2212 105.1192)">
			<stop  offset="0" style="stop-color:#888888"/>
			<stop  offset="0.5212" style="stop-color:#DBDCDC"/>
			<stop  offset="1" style="stop-color:#9E9E9F"/>
		</linearGradient>
		<path class="st23" d="M62.8,94.1L62.8,94.1c-0.6,0.1-1.2-0.2-1.3-0.8l-4.6-19.8c-0.1-0.6,0.2-1.2,0.8-1.3l0,0
			c0.6-0.1,1.2,0.2,1.3,0.8l4.6,19.8C63.8,93.3,63.4,93.9,62.8,94.1z"/>
		
			<linearGradient id="SVGID_8_" gradientUnits="userSpaceOnUse" x1="268.3179" y1="19.0172" x2="273.1546" y2="27.0106" gradientTransform="matrix(0.9745 -0.2242 0.2242 0.9745 -212.2212 105.1192)">
			<stop  offset="0" style="stop-color:#888888"/>
			<stop  offset="0.5212" style="stop-color:#DBDCDC"/>
			<stop  offset="1" style="stop-color:#9E9E9F"/>
		</linearGradient>
		<path class="st24" d="M53.5,65.1c0,1.2-0.2,2.7,0.1,3.4c0.5,1.3,5.9,0.1,5.9-1.3c0-0.8-0.9-2.7-1.6-4.2l0,0
			c0.1,0.4,0.3,0.9,0.5,1.5c0.3,0.9,0.6,1.8,0.8,2.4c0,0.1,0,0.1,0,0.2s-0.5,0.8-2.4,1.2c-1.9,0.4-2.6,0-2.7,0
			c-0.1,0-0.1-0.1-0.1-0.2c-0.1-0.5-0.2-1.5-0.4-2.5C53.6,65.4,53.6,65.3,53.5,65.1z"/>
		
			<linearGradient id="SVGID_9_" gradientUnits="userSpaceOnUse" x1="270.0472" y1="52.4281" x2="273.4649" y2="58.0763" gradientTransform="matrix(0.9745 -0.2242 0.2242 0.9745 -212.2212 105.1192)">
			<stop  offset="0" style="stop-color:#888888"/>
			<stop  offset="0.5212" style="stop-color:#DBDCDC"/>
			<stop  offset="1" style="stop-color:#9E9E9F"/>
		</linearGradient>
		<path class="st25" d="M66.3,97.2c-0.5-1.7-2.2-1.7-2.2-1.7L64,96c0.8,0.1,1.4,0.7,1.6,1.5c0.2,1-0.3,1.9-1.1,2.3l0.2,0.5
			C66,99.7,66.8,98.9,66.3,97.2z"/>
		<g>
			<path class="st26" d="M64.7,102.3c-2.4,0.5-4.8-0.9-5.3-3.3c-0.3-1.5,0.1-3,1.1-4l-5.2-22.4c-1.9-0.3-2.9-0.7-3.1-0.9
				c-0.8-1.5-0.3-3.9,0.1-5.8c0.1-0.3,0.1-0.6,0.2-0.8c0.1-0.4,0.2-0.8,0.5-1.2l0.2-0.3c0.1-0.1,0.3-0.2,0.4-0.2
				c0.2,0,0.3,0.2,0.3,0.3c0.1,0.4,0.2,1.1,0.3,1.8c0.1,0.9,0.2,1.8,0.3,2.3c0.2,0.1,0.9,0.2,2.2-0.1c1.3-0.3,1.8-0.7,2-0.9
				c-0.1-0.5-0.4-1.4-0.7-2.2c-0.2-0.7-0.4-1.3-0.6-1.7c0-0.2,0-0.3,0.1-0.5c0.1-0.1,0.3-0.1,0.5,0l0.3,0.2c0.4,0.2,0.7,0.5,0.9,0.8
				c0.2,0.2,0.3,0.4,0.5,0.7c1.2,1.5,2.7,3.4,2.6,5.2c0,0.1,0,0.5-2.2,2.1l5.2,22.5c1.4,0.5,2.4,1.7,2.8,3.1
				C68.5,99.4,67,101.7,64.7,102.3z M55.4,72L55.4,72c0.2,0,0.4,0,0.4,0.2L61,95c0,0.1,0,0.2-0.1,0.2c-1,1-1.4,2.3-1.1,3.7
				c0.5,2.1,2.6,3.4,4.7,2.9c2.1-0.5,3.4-2.6,2.9-4.7c-0.3-1.3-1.3-2.4-2.6-2.8c0-0.1,0-0.1-0.1-0.2l-5.2-22.8c0-0.1,0-0.2,0.1-0.3
				c1.1-0.8,2-1.6,2.2-1.8c0.1-1.6-1.4-3.4-2.5-4.8c-0.2-0.2-0.4-0.5-0.5-0.7l0,0c-0.2-0.3-0.5-0.5-0.8-0.7l0,0
				c0.1,0.4,0.3,0.9,0.5,1.5c0.3,0.9,0.6,1.8,0.8,2.4c0,0.1,0,0.1,0,0.2s-0.5,0.8-2.4,1.2c-1.9,0.4-2.6,0-2.7,0
				c-0.1,0-0.1-0.1-0.1-0.2c-0.1-0.5-0.2-1.5-0.4-2.5c-0.1-0.6-0.1-1.1-0.2-1.5l0,0c-0.2,0.3-0.3,0.6-0.4,1
				c-0.1,0.3-0.1,0.5-0.2,0.8c-0.4,1.8-0.9,4-0.1,5.4C52.9,71.5,54.2,71.8,55.4,72z M61.8,69.2L61.8,69.2L61.8,69.2z M64.2,100.4
				c-1.4,0.3-2.7-0.5-3-1.9s0.5-2.7,1.9-3s2.7,0.5,3,1.9C66.5,98.8,65.6,100.1,64.2,100.4z M63.2,96c-1.1,0.3-1.8,1.3-1.5,2.4
				s1.3,1.8,2.4,1.5c1.1-0.3,1.8-1.3,1.5-2.4C65.4,96.4,64.3,95.7,63.2,96z"/>
			<path class="st26" d="M63.1,95.5c-1.4,0.3-2.2,1.7-1.9,3c0.3,1.4,1.7,2.2,3,1.9c1.4-0.3,2.2-1.7,1.9-3
				C65.8,96,64.5,95.2,63.1,95.5z M64.1,99.9c-1.1,0.3-2.2-0.4-2.4-1.5c-0.3-1.1,0.4-2.2,1.5-2.4c1.1-0.3,2.2,0.4,2.4,1.5
				C65.9,98.6,65.2,99.7,64.1,99.9z"/>
		</g>
	</g>
	<g>
		<g>
			
				<linearGradient id="SVGID_10_" gradientUnits="userSpaceOnUse" x1="479.1383" y1="71.5622" x2="479.825" y2="71.9517" gradientTransform="matrix(-1 0 0 1 556.6242 2)">
				<stop  offset="0" style="stop-color:#EFD97F"/>
				<stop  offset="0.1978" style="stop-color:#EFD87C"/>
				<stop  offset="0.3726" style="stop-color:#EED571"/>
				<stop  offset="0.5387" style="stop-color:#EDCF5F"/>
				<stop  offset="0.6984" style="stop-color:#EBC845"/>
				<stop  offset="0.7526" style="stop-color:#EAC53B"/>
				<stop  offset="1" style="stop-color:#E5AD14"/>
			</linearGradient>
			<path class="st27" d="M77,73.8c0.2,0,0.4,0,0.5,0c0,0-0.3,0-0.7,0C76.9,73.9,77,73.8,77,73.8z"/>
			
				<linearGradient id="SVGID_11_" gradientUnits="userSpaceOnUse" x1="470.2465" y1="71.0482" x2="503.0388" y2="89.6458" gradientTransform="matrix(-1 0 0 1 556.6242 2)">
				<stop  offset="0" style="stop-color:#EFD97F"/>
				<stop  offset="0.1978" style="stop-color:#EFD87C"/>
				<stop  offset="0.3726" style="stop-color:#EED571"/>
				<stop  offset="0.5387" style="stop-color:#EDCF5F"/>
				<stop  offset="0.6984" style="stop-color:#EBC845"/>
				<stop  offset="0.7526" style="stop-color:#EAC53B"/>
				<stop  offset="1" style="stop-color:#E5AD14"/>
			</linearGradient>
			<path class="st28" d="M60,81.1c0.1,0,0.2-0.1,0.1-0.2c0-0.1-0.1-0.2-0.2-0.1c-0.1,0-0.2,0-0.3,0.1l0,0c0,0-3.2,0.5-4.9,2.6
				c-0.6-1-0.7-2-0.4-3c0.4-1.3,1.6-2.3,3.6-3c4.5-1.6,10.4,0,10.5,0s0.1,0,0.2-0.1c3-3,9-3.2,9-3.2h0.1l-0.1-0.3c0,0,1.1-1.3,3-1.6
				c0,0,1.3,1.7,2.3,3.8c0.1,0.2,0.1,0.3,0.2,0.5l0,0l0,0c0.3,0.7,0.4,1.4,0.6,2.1c0.6,2.7,0.3,6-1.4,8.3c-0.1,0.1-3,3.5-10.2,2.7
				c-0.1,0-0.1,0-0.2,0l0,0c-3.1-0.4-3.1-0.4-3.2-0.2c-0.9,1.6-3.2,2.4-4.8,2.9c-1.5,0.4-3.3,0.8-4.8,0.4c-0.9-0.2-1.7-0.9-2.1-1.9
				c-0.5-1-0.5-2.2,0-3.1c1-2.1,3.7-2.1,3.7-2.1c0.1,0,0.2-0.1,0.2-0.2s-0.1-0.2-0.2-0.2c-0.1,0-0.6,0-1.4,0.2l0,0
				c0,0-0.6,0.1-1.2,0.5l0,0c0,0-1.6,0.7-2,2.5c-0.2,0-0.3-0.1-0.5-0.2c-0.7-0.5-1-1.2-1.1-1.7c-0.2-1,0.1-2.2,0.7-2.9
				C56.1,82.5,57.7,81.7,60,81.1z"/>
		</g>
		<g class="st6">
			<path class="st7" d="M56.9,91c-0.4-0.8-0.5-1.7-0.2-2.5c0.4,1.5,1.4,4,4.6,3.9c3.6-0.1,5.3-1,5.9-1.3c-1,0.7-2.3,1.1-3.3,1.4
				c-1.5,0.4-3.3,0.8-4.8,0.4C58.1,92.6,57.4,91.9,56.9,91z"/>
			<path class="st7" d="M54.7,83.4c-0.6-1-0.7-2-0.4-3c0.2-0.7,0.7-1.4,1.5-1.9C55.6,79,55.2,80.2,56,81c0.4,0.4,0.9,0.5,1.4,0.4
				C56.4,81.9,55.4,82.5,54.7,83.4z"/>
			<path class="st7" d="M55.5,88.4c-0.7-0.5-1-1.2-1.1-1.7c-0.1-0.7,0-1.6,0.3-2.3c0.1,1.1,0.5,2.6,1.8,2.9l0,0
				c-0.2,0.3-0.4,0.7-0.5,1.2C55.8,88.6,55.7,88.5,55.5,88.4z"/>
			<path class="st7" d="M58.9,81L58.9,81l0.3-0.2C59.1,80.8,59,80.9,58.9,81z"/>
		</g>
		<path class="st7" d="M83.9,80.6c0.1,2.2-0.3,4.6-1.6,6.4c-0.1,0.1-3,3.5-10.2,2.7c-0.1,0-0.1,0-0.2,0l0,0c-0.3,0-0.6-0.1-0.8-0.1
			C82.3,89.6,83.9,80.8,83.9,80.6z"/>
		<path class="st4" d="M54.3,83.9c-0.7-0.9-2.7-5.2,2.7-7c4.6-1.5,9-0.7,10.7-0.2l0,0c2.5-2,7.1-2.7,8.7-2.9c0.2,0,0.4,0,0.5,0
			c-0.1,0-0.1,0-0.2,0c0.4,0,0.7,0,0.7,0c0.1,0,0.2,0.1,0.2,0.2s-0.1,0.2-0.2,0.2s-6.1,0.2-9,3.2c0,0-0.1,0.1-0.2,0.1s-6-1.6-10.5,0
			c-2,0.7-3.2,1.7-3.6,3c-0.3,0.9-0.1,2,0.4,3c1.7-2.1,4.9-2.6,4.9-2.6l0,0c0.1,0,0.2-0.1,0.3-0.1s0.2,0,0.2,0.1s0,0.2-0.1,0.2
			c-2.2,0.5-3.9,1.4-4.8,2.6c-0.6,0.8-0.9,1.9-0.7,2.9c0.1,0.5,0.4,1.3,1.1,1.7c0.1,0.1,0.3,0.2,0.5,0.2c0.4-1.8,2-2.5,2-2.5l0,0
			c0.7-0.4,1.2-0.5,1.2-0.5l0,0c0.7-0.2,1.3-0.2,1.4-0.2c0.1,0,0.2,0.1,0.2,0.2s-0.1,0.2-0.2,0.2c0,0-2.7,0-3.7,2.1
			c-0.4,0.9-0.4,2.1,0,3.1c0.4,0.9,1.2,1.6,2.1,1.9c1.5,0.4,3.3,0,4.8-0.4c1.7-0.5,4-1.3,4.8-2.9c0.1-0.2,0.1-0.2,3.2,0.2l0,0
			c0.1,0,0.1,0,0.2,0C79,90.5,82,87,82.1,87c1.6-2.3,1.9-5.5,1.4-8.3c-0.1-0.6-0.3-1.3-0.5-1.9c-0.3-0.7-1.2-3-2.8-4.8v-0.5h1
			c0,0,3.7,4.4,3.8,10.3l0,0c0.1,5.6-4.1,7.7-6.4,8.2c0,0,0,0,0.1,0c-0.3,0.1-0.6,0.2-0.9,0.2l0,0l0,0c-1.1,0.2-2.4,0.3-3.9,0.3
			c-0.2,0-0.9-0.1-2-0.2s-2.7-0.4-3.1-0.4c-0.5,0.9-1.4,1.6-2.4,2.1l0,0c-4.2,2.2-9.4,2.4-10.4-0.7l0,0c-0.2-0.7-0.3-1.3-0.3-1.9
			c-2.5-0.9-2.1-3.3-2.1-3.3C53.8,85.1,54,84.5,54.3,83.9z"/>
	</g>
</g>
</svg>
