<?xml version="1.0" encoding="utf-8"?>
<!-- Generator: Adobe Illustrator 21.0.0, SVG Export Plug-In . SVG Version: 6.00 Build 0)  -->
<svg version="1.1" id="圖層_1" xmlns="http://www.w3.org/2000/svg" xmlns:xlink="http://www.w3.org/1999/xlink" x="0px" y="0px"
	 viewBox="0 0 822.9 601.4" style="enable-background:new 0 0 822.9 601.4;" xml:space="preserve">
<style type="text/css">
	.st0{fill:url(#SVGID_1_);}
	.st1{fill:#E1BE3F;}
	.st2{fill:#AB6C21;}
	.st3{opacity:0.6;fill:#E1BE3F;enable-background:new    ;}
	.st4{fill:#888888;}
	.st5{fill:#456430;}
	.st6{fill:#709846;}
	.st7{fill:url(#SVGID_2_);}
	.st8{fill:url(#SVGID_3_);}
	.st9{opacity:0.8;}
	.st10{fill:#C8C9CA;}
	.st11{fill:url(#SVGID_4_);}
	.st12{opacity:0.6;fill:#709846;enable-background:new    ;}
	.st13{fill:#FFFFFF;}
	.st14{fill:#211714;}
	.st15{fill:url(#SVGID_5_);}
	.st16{fill:url(#SVGID_6_);}
	.st17{fill:url(#SVGID_7_);}
	.st18{fill:#BED26B;}
	.st19{fill:#F3E4A2;}
	.st20{fill:#8EA63A;}
	.st21{fill:none;stroke:#BED26B;stroke-width:0.9391;stroke-miterlimit:10;}
	.st22{opacity:0.6;fill:#DCCFB8;enable-background:new    ;}
	.st23{fill:url(#SVGID_8_);}
	.st24{fill:url(#SVGID_9_);}
	.st25{opacity:0.6;}
	.st26{fill:url(#SVGID_10_);}
	.st27{fill:url(#SVGID_11_);}
	.st28{fill:url(#SVGID_12_);}
	.st29{fill:#E2BF40;}
	.st30{fill:#AC6D21;}
	.st31{opacity:0.6;fill:#E2BF40;enable-background:new    ;}
	.st32{fill:#A46723;}
	.st33{fill:url(#SVGID_13_);}
	.st34{fill:url(#SVGID_14_);}
	.st35{fill:url(#SVGID_15_);}
	.st36{fill:url(#SVGID_16_);}
	.st37{fill:url(#SVGID_17_);}
	.st38{fill:url(#SVGID_18_);}
	.st39{fill:url(#SVGID_19_);}
	.st40{fill:url(#SVGID_20_);}
	.st41{fill:url(#SVGID_21_);}
	.st42{fill:url(#SVGID_22_);}
	.st43{fill:url(#SVGID_23_);}
	.st44{fill:url(#SVGID_24_);}
	.st45{fill:url(#SVGID_25_);}
	.st46{fill:url(#SVGID_26_);}
	.st47{fill:url(#SVGID_27_);}
	.st48{fill:url(#SVGID_28_);}
	.st49{fill:url(#SVGID_29_);}
	.st50{fill:url(#SVGID_30_);}
	.st51{fill:url(#SVGID_31_);}
	.st52{fill:url(#SVGID_32_);}
	.st53{fill:url(#SVGID_33_);}
	.st54{fill:url(#SVGID_34_);}
	.st55{fill:url(#SVGID_35_);}
	.st56{fill:url(#SVGID_36_);}
	.st57{fill:url(#SVGID_37_);}
	.st58{fill:url(#SVGID_38_);}
	.st59{fill:url(#SVGID_39_);}
	.st60{fill:url(#SVGID_40_);}
	.st61{fill:url(#SVGID_41_);}
	.st62{fill:url(#SVGID_42_);}
	.st63{fill:url(#SVGID_43_);}
	.st64{fill:url(#SVGID_44_);}
	.st65{fill:url(#SVGID_45_);}
	.st66{fill:url(#SVGID_46_);}
	.st67{fill:url(#SVGID_47_);}
	.st68{fill:url(#SVGID_48_);}
	.st69{fill:url(#SVGID_49_);}
	.st70{fill:url(#SVGID_50_);}
	.st71{fill:url(#SVGID_51_);}
	.st72{fill:url(#SVGID_52_);}
	.st73{fill:url(#SVGID_53_);}
	.st74{fill:url(#SVGID_54_);}
	.st75{fill:url(#SVGID_55_);}
	.st76{fill:url(#SVGID_56_);}
	.st77{fill:url(#SVGID_57_);}
	.st78{fill:url(#SVGID_58_);}
	.st79{fill:url(#SVGID_59_);}
	.st80{fill:url(#SVGID_60_);}
	.st81{fill:url(#SVGID_61_);}
	.st82{fill:url(#SVGID_62_);}
	.st83{fill:#3C3A39;}
	.st84{fill:url(#SVGID_63_);}
	.st85{fill:url(#SVGID_64_);}
	.st86{fill:url(#SVGID_65_);}
	.st87{fill:#532817;}
	.st88{fill:#48210E;}
	.st89{fill:url(#SVGID_66_);}
	.st90{fill:url(#SVGID_67_);}
	.st91{fill:#9F7433;}
	.st92{fill:#746766;}
	.st93{opacity:0.5;}
	.st94{fill:#2F2A28;}
	.st95{opacity:0.5;fill:#2F2A28;enable-background:new    ;}
	.st96{fill:#865C25;}
	.st97{fill:#755325;}
	.st98{fill:none;stroke:#746766;stroke-width:0.8195;stroke-linecap:round;stroke-miterlimit:10;}
	.st99{fill:url(#SVGID_68_);}
	.st100{fill:url(#SVGID_69_);}
	.st101{fill:url(#SVGID_70_);}
	.st102{fill:url(#SVGID_71_);}
	.st103{fill:url(#SVGID_72_);}
	.st104{fill:url(#SVGID_73_);}
	.st105{fill:url(#SVGID_74_);}
	.st106{fill:#D69644;}
	.st107{fill:url(#SVGID_75_);}
	.st108{fill:#898989;}
	.st109{fill:#C9CACA;}
	.st110{fill:url(#SVGID_76_);}
	.st111{fill:url(#SVGID_77_);}
	.st112{fill:url(#SVGID_78_);}
	.st113{fill:url(#SVGID_79_);}
	.st114{fill:url(#SVGID_80_);}
	.st115{fill:#FCE4B4;}
	.st116{opacity:0.5;fill:#DA9E36;enable-background:new    ;}
	.st117{fill:url(#SVGID_81_);}
	.st118{fill:url(#SVGID_82_);}
	.st119{fill:url(#SVGID_83_);}
	.st120{opacity:0.4;fill:#C49358;enable-background:new    ;}
	.st121{fill:url(#SVGID_84_);}
	.st122{fill:url(#SVGID_85_);}
	.st123{fill:url(#SVGID_86_);}
	.st124{fill:url(#SVGID_87_);}
	.st125{fill:url(#SVGID_88_);}
	.st126{fill:url(#SVGID_89_);}
	.st127{fill:#7D5223;}
	.st128{fill:url(#SVGID_90_);}
	.st129{opacity:0.5;fill:url(#SVGID_91_);enable-background:new    ;}
	.st130{fill:#CC7C5C;}
</style>
<g>
	<g>
		<g>
			<g>
				
					<linearGradient id="SVGID_1_" gradientUnits="userSpaceOnUse" x1="755.2451" y1="220.7099" x2="839.4308" y2="220.7099" gradientTransform="matrix(-1 0 0 -1 1358.0383 602)">
					<stop  offset="0" style="stop-color:#EFD980"/>
					<stop  offset="0.2037" style="stop-color:#EFD87C"/>
					<stop  offset="0.3836" style="stop-color:#EED572"/>
					<stop  offset="0.5546" style="stop-color:#EDCF5F"/>
					<stop  offset="0.7191" style="stop-color:#EBC743"/>
					<stop  offset="0.7526" style="stop-color:#EBC63C"/>
					<stop  offset="1" style="stop-color:#E7AE17"/>
				</linearGradient>
				<path class="st0" d="M518.3,357l7.9-18.3c0-0.4,0-1.1,0-1.4v-0.4c0-0.4,0-0.7,0.4-1.1v-0.4c0-0.4,0.4-0.7,0.4-1.1V334
					c0-0.4,0.4-1.1,0.7-1.4v-0.4c0-0.4,0.4-0.7,0.4-1.1s0-0.4,0.4-0.7c0-0.4,0.4-0.7,0.4-1.1c0-0.4,0.4-0.4,0.4-0.7
					c2.9-5.8,7.2-10.8,10.1-14.4l0.4-0.4c15.5,19.8,33.4,46.7,47.4,80.9c0,0,12.9,12.2,12.9,29.5c0,17.3-13.3,23-20.5,21.2l0,0
					c-8.3,6.8-19.4,2.9-21.6-8.6l0,0c-0.4,0.4-1.1,0.7-1.4,0.7c-4.7,2.5-11.1-0.7-13.3-5l0,0l0,0c0,0,0-0.4-0.4-0.4l0,0l-1.4-14h0.4
					v-3.6l0.7-2.5c-0.4-0.7-0.7-1.4-0.7-2.2l-0.7-1.1l-1.1-2.5v-0.7c-2.5-6.5-6.5-15.5-11.9-25.9c-3.2-6.8-7.2-14-11.1-20.8
					L518.3,357z"/>
			</g>
			<path class="st29" d="M568.7,416.6c0,0,2.5,19.1-8.3,25.2l-1.8-5.4C558.2,436.4,569.7,430.7,568.7,416.6z"/>
			<path class="st29" d="M587,422.4c0,0,5,12.6,1.4,21.6c0,0-3.2,1.4-8.3,1.1C579.8,445,588.4,440.7,587,422.4z"/>
			<path class="st30" d="M569,422.4c0,0,0,11.1-9.3,15.5l-0.4-1.8C558.9,436.4,569,427.4,569,422.4z"/>
			<path class="st30" d="M587.7,429.2c0,0,0.7,10.4-5,16.2l-3.6-0.4C579.4,445,587,437.8,587.7,429.2z"/>
			<path class="st31" d="M518.3,357l7.9-18.3c0-0.4,0-1.1,0-1.4v-0.4c0-0.4,0-0.7,0.4-1.1v-0.4c0-0.4,0.4-0.7,0.4-1.1V334
				c0-0.4,0.4-1.1,0.7-1.4v-0.4c0-0.4,0.4-0.7,0.4-1.1s0-0.4,0.4-0.7c0-0.4,0.4-0.7,0.4-1.1c0-0.4,0.4-0.4,0.4-0.7c0,0,0,0,0-0.4
				c10.8,21.2,22.3,48.9,22.6,72.6c0,0-13.3,16.9-8.3,33.1c-0.4-0.4-0.7-1.1-1.1-1.4l0,0l0,0c0,0,0-0.4-0.4-0.4l0,0l-1.4-14h0.4
				v-3.6l0.7-3.2l-1.8-2.5l-1.1-2.5L519,363.1c0,0-1.1-1.4-2.9-4.3L518.3,357z"/>
			<g>
				<path class="st30" d="M542.4,412.7l-0.7-1.1l0,0c-0.4-0.4-12.9-28.8-24.8-51.4l1.4-2.9l0,0c10.8,20.5,22.6,46.4,25.2,52.1
					c0.4-1.1,0.7-1.8,0.7-1.8l0,0c1.1-1.8,2.5-3.6,2.5-3.6c0.4-0.4,0.7-0.4,0.7,0c0.4,0.4,0.4,0.7,0,0.7c-0.4,0.4-0.4,0.7-0.7,1.1
					c0,0-6.8,10.4-3.2,25.5l0,0c0.7,2.2,2.9,4.3,5.4,5c2.5,1.1,5,1.1,7.2,0c8.3-4.3,12.9-13.3,11.1-21.9c0-0.4,0-0.7,0.4-0.7
					s0.7,0,0.7,0.4c1.8,8.6-2.2,17.6-9.7,22.3c1.1,5.4,4.7,9.3,9,10.8c4.3,1.4,9,0,12.6-3.6c8.6-8.6,5.4-22.3,5.4-22.3
					c0-0.4,0-0.7,0.4-0.7s0.7,0,0.7,0.4c0,0,3.6,14-5.8,23.4l0,0c2.9,0.4,7.2-0.4,11.1-3.6c3.2-2.5,7.2-7.9,7.2-17.3
					c0-16.9-12.6-28.8-12.6-29.1c0,0,0,0,0-0.4c-14-33.8-31.6-60.7-47.1-80.5c0,0,0,0,0.4-0.4c1.1-1.4,2.2-2.5,2.5-2.9l0,0
					c5,6.5,10.4,13.7,15.8,21.9l0,0c0,0,25.5,38.1,31.3,59.3c6.8,9,20.1,29.8,7.5,45.6c-1.1,1.8-2.5,3.2-4,4.3
					c-0.4,0.4-1.1,0.7-1.4,1.1h-0.4l0,0c-2.9,1.8-6.1,2.9-9,2.9c-0.7,0-1.4,0-2.2-0.4c-2.5,2.2-5.8,3.2-9,3.2c-1.1,0-2.5,0-3.6-0.4
					c-5-1.4-8.6-5.8-9.7-11.1c-0.4,0-0.7,0.4-0.7,0.4c-1.1,0.7-2.5,1.1-4,1.1s-2.9-0.4-4-0.7c-2.5-1.1-4.7-2.9-5.8-5.4l0,0
					c0,0,0,0,0-0.4v-0.4l0,0c0,0-1.1-2.5-1.4-6.8c0-1.8-0.4-3.6,0-5.8C541.3,416.6,541.7,414.5,542.4,412.7z"/>
			</g>
		</g>
	</g>
	<g>
		
			<linearGradient id="SVGID_2_" gradientUnits="userSpaceOnUse" x1="312.4704" y1="273.7273" x2="369.844" y2="273.7273" gradientTransform="matrix(1 0 0 -1 0 602)">
			<stop  offset="0" style="stop-color:#EFD980"/>
			<stop  offset="0.2037" style="stop-color:#EFD87C"/>
			<stop  offset="0.3836" style="stop-color:#EED572"/>
			<stop  offset="0.5546" style="stop-color:#EDCF5F"/>
			<stop  offset="0.7191" style="stop-color:#EBC743"/>
			<stop  offset="0.7526" style="stop-color:#EBC63C"/>
			<stop  offset="1" style="stop-color:#E7AE17"/>
		</linearGradient>
		<path class="st7" d="M336.3,304.8c-8.3-1.1-13.7,0-16.9,1.8l-2.5-9.7c-2.2,6.8-3.6,16.9-3.6,16.9l0,0c-0.7,1.8-0.7,2.9-0.7,2.9
			s-0.7,6.8,1.1,14c2.2,7.2,6.1,17.6,16.5,22.3c10.4,4.7,13.3,7.2,23.7,6.5c0.7,0,1.4,0,2.2,0c3.6-14.7,8.6-27.3,13.3-37.7
			C364,316,352.2,307.4,336.3,304.8z"/>
		<path class="st30" d="M357.2,359.1c0.4,0,0.7-0.7,0.7-1.1c0-0.4-0.7-0.7-1.1-0.7c-16.5,2.9-33.8-8.3-38.8-20.1
			c-4-9-3.6-15.8-3.6-18.7l-1.8-1.8l-0.7,1.1c0,0-4,19.1,10.8,31.6s30.6,12.6,34.1,11.9l0.7-2.2L357.2,359.1z M355.4,359.5
			L355.4,359.5L355.4,359.5L355.4,359.5z"/>
	</g>
	<g>
		
			<linearGradient id="SVGID_3_" gradientUnits="userSpaceOnUse" x1="316.3248" y1="310.0057" x2="382.7431" y2="310.0057" gradientTransform="matrix(1 0 0 -1 0 602)">
			<stop  offset="0" style="stop-color:#EFD980"/>
			<stop  offset="0.2037" style="stop-color:#EFD87C"/>
			<stop  offset="0.3836" style="stop-color:#EED572"/>
			<stop  offset="0.5546" style="stop-color:#EDCF5F"/>
			<stop  offset="0.7191" style="stop-color:#EBC743"/>
			<stop  offset="0.7526" style="stop-color:#EBC63C"/>
			<stop  offset="1" style="stop-color:#E7AE17"/>
		</linearGradient>
		<path class="st8" d="M317.3,291.2c0,0,6.1-24.1,27.7-29.1c21.6-5,34.1,10.4,37,17.3c0,0,4.3,12.6-6.8,19.4l-3.6,5.4
			c0,0-5,8.6-11.9,9.7c0,0-2.2,12.9-25.2,7.9c0,0-16.2-6.1-18.3-25.9L317.3,291.2z"/>
		<g class="st25">
			<path class="st29" d="M382.7,281.8c-0.7-2.9-2.2-5.8-4-7.9c0,2.9-0.7,8.6-7.5,11.5c0,0-2.5,18.3-14.4,16.9
				c0,0-6.8,18.3-24.8,17.6c0,0-0.4,0-0.4-0.4c20.8,11.5,27.7-5.8,27.7-5.8c10.8-1.8,14.7-14.7,14.7-14.7S385.9,292.3,382.7,281.8z"
				/>
		</g>
		<g>
			<path class="st30" d="M356.8,260.6c-10.8-1.4-20.1,4-24.8,7.5c0,0-2.2,1.8-3.2,2.9c0,0.4,0,0.4,0.4,0.7c0.4,0.4,0.7,0.4,1.1,0
				c0,0,12.2-11.9,26.6-9.7c3.6,0.7,7.2,1.8,10.1,3.2c1.1,0.7,12.9,6.8,14.7,18.7c0,0.4,0.4,3.6-0.7,6.1l0,0c0,0,0,0.4-0.4,0.4
				c-1.1,2.2-2.9,5-4.7,6.1l0,0c0-0.7,0-1.1,0-1.8c-1.1-13.3-15.1-21.9-15.8-22.3c-0.4-0.4-0.7,0-1.1,0.4c-0.4,0.4,0,0.7,0.4,1.1
				c0,0,5.4,3.2,9.7,8.6c0,0.4,7.9,12.2,1.8,21.6c0,0-4,5.4-9.7,8.3c0.4-13.3-14-21.2-14-21.2l0,0c-1.4-1.1-2.5-1.4-2.9-1.8
				s-0.7,0-1.1,0.4c-0.4,0.4,0,0.7,0.4,1.1c0,0,15.1,7.9,15.5,20.8c0,3.2-1.1,6.1-3.6,7.9c-5.4,4-15.1,2.9-16.9,2.2h-0.4
				c-14.7-5-18.7-15.8-19.4-24.4c0-0.4-0.4-0.7-0.7-0.7s-0.7,0.4-0.7,0.7c0.7,7.5,4,17.6,14.7,23.4l0,0c1.4,1.1,3.2,1.8,5.8,2.5l0,0
				h0.4c0.4,0,1.4,0.4,2.5,0.4c7.9,1.4,18,0,20.1-7.9c2.2-1.1,11.5-6.1,14.4-14.4c1.4-1.1,10.1-8.6,9.7-16.9
				C384.1,275.7,371.9,262.8,356.8,260.6z"/>
		</g>
		<path class="st30" d="M311.5,320.7c0,0,0.4-38.8,19.4-51.4v2.2c0,0-15.8,11.1-16.2,47.4l-1.8,3.2L311.5,320.7z"/>
	</g>
	<g>
		
			<linearGradient id="SVGID_4_" gradientUnits="userSpaceOnUse" x1="316.3248" y1="310.0057" x2="382.7431" y2="310.0057" gradientTransform="matrix(1 0 0 -1 0 602)">
			<stop  offset="0" style="stop-color:#F2D397"/>
			<stop  offset="0.4319" style="stop-color:#F3D195"/>
			<stop  offset="0.7526" style="stop-color:#F5CC8F"/>
			<stop  offset="1" style="stop-color:#F3B699"/>
		</linearGradient>
		<path class="st11" d="M317.3,291.2c0,0,6.1-24.1,27.7-29.1c21.6-5,34.1,10.4,37,17.3c0,0,4.3,12.6-6.8,19.4l-3.6,5.4
			c0,0-5,8.6-11.9,9.7c0,0-2.2,12.9-25.2,7.9c0,0-16.2-6.1-18.3-25.9L317.3,291.2z"/>
		<g>
			<path class="st106" d="M382.7,281.8c-0.7-2.9-2.2-5.8-4-7.9c0,2.9-0.7,8.6-7.5,11.5c0,0-2.5,18.3-14.4,16.9
				c0,0-6.8,18.3-24.8,17.6c0,0-0.4,0-0.4-0.4c20.8,11.5,27.7-5.8,27.7-5.8c10.8-1.8,14.7-14.7,14.7-14.7S385.9,292.3,382.7,281.8z"
				/>
		</g>
		<g>
			<path class="st30" d="M356.8,260.6c-10.8-1.4-20.1,4-24.8,7.5c0,0-2.2,1.8-3.2,2.9c0,0.4,0,0.4,0.4,0.7c0.4,0.4,0.7,0.4,1.1,0
				c0,0,12.2-11.9,26.6-9.7c3.6,0.7,7.2,1.8,10.1,3.2c1.1,0.7,12.9,6.8,14.7,18.7c0,0.4,0.4,3.6-0.7,6.1l0,0c0,0,0,0.4-0.4,0.4
				c-1.1,2.2-2.9,5-4.7,6.1l0,0c0-0.7,0-1.1,0-1.8c-1.1-13.3-15.1-21.9-15.8-22.3c-0.4-0.4-0.7,0-1.1,0.4c-0.4,0.4,0,0.7,0.4,1.1
				c0,0,5.4,3.2,9.7,8.6c0,0.4,7.9,12.2,1.8,21.6c0,0-4,5.4-9.7,8.3c0.4-13.3-14-21.2-14-21.2l0,0c-1.4-1.1-2.5-1.4-2.9-1.8
				s-0.7,0-1.1,0.4c-0.4,0.4,0,0.7,0.4,1.1c0,0,15.1,7.9,15.5,20.8c0,3.2-1.1,6.1-3.6,7.9c-5.4,4-15.1,2.9-16.9,2.2h-0.4
				c-14.7-5-18.7-15.8-19.4-24.4c0-0.4-0.4-0.7-0.7-0.7s-0.7,0.4-0.7,0.7c0.7,7.5,4,17.6,14.7,23.4l0,0c1.4,1.1,3.2,1.8,5.8,2.5l0,0
				h0.4c0.4,0,1.4,0.4,2.5,0.4c7.9,1.4,18,0,20.1-7.9c2.2-1.1,11.5-6.1,14.4-14.4c1.4-1.1,10.1-8.6,9.7-16.9
				C384.1,275.7,371.9,262.8,356.8,260.6z"/>
		</g>
		<path class="st30" d="M311.5,320.7c0,0,0.4-38.8,19.4-51.4v2.2c0,0-15.8,11.1-16.2,47.4l-1.8,3.2L311.5,320.7z"/>
	</g>
	<g>
		<g>
			
				<linearGradient id="SVGID_5_" gradientUnits="userSpaceOnUse" x1="536.3688" y1="221.7198" x2="600.9331" y2="155.3191" gradientTransform="matrix(1 0 0 -1 0 602)">
				<stop  offset="0" style="stop-color:#F7F8F8"/>
				<stop  offset="1" style="stop-color:#DCDDDD"/>
			</linearGradient>
			<path class="st15" d="M540.1,378.2c0,0,32.4-3.6,45.6,2.2l0.7,5.8l2.5,5.8c0,0,17.3,17.6,10.8,37.4
				c-6.5,19.8-20.5,17.6-20.5,17.6l-8.3,3.2c0,0-15.1-0.7-18-12.6l-11.9-1.4c0,0,1.4-23.7,1.1-30.9S540.1,378.2,540.1,378.2z"/>
			<path class="st108" d="M581.5,386.8L581.5,386.8c0.4,0,0.7-0.4,0.7-0.7s-0.4-0.7-0.7-0.7c-15.8-2.5-31.6-1.4-31.6-1.4
				c-0.4,0-0.7,0.4-0.7,0.7s0.4,0.7,0.7,0.7C550.6,385.4,566,384.3,581.5,386.8z"/>
			<g>
				<path class="st109" d="M570,386.8c-14-0.7-24.1-0.4-29.1,0c0,1.4,0.4,3.2,0.4,5C549.5,386.8,570,386.8,570,386.8z"/>
				<path class="st109" d="M571.1,450.1l8.3-3.2c0,0,2.5,0.4,5.8-0.7c-3.6-3.6-2.5-7.2-2.5-7.2c-17.3,10.1-18-8.6-18-8.6
					c-12.6,2.5-19.1-2.2-22.3-7.5c-0.4,6.8-0.7,13.3-0.7,13.3l11.9,1.4C556,449.7,571.1,450.1,571.1,450.1z"/>
			</g>
			<path class="st108" d="M602,419.2L602,419.2c0-16.5-12.6-28-12.6-28.4c0-1.4-1.4-4-2.2-5c0.7-4.7-0.7-6.1-1.1-6.5h-0.4
				c-19.8-4.7-39.5-2.5-46.4-1.8c0,0.4,0,1.1,0.4,1.4c6.5-1.1,25.2-2.9,44.2,1.4c0.4,0,2.2,1.1,1.8,5c0,0.4,0,0.4,0,0.7s0,0.4,0,0.7
				c1.1,1.4,2.2,3.6,2.2,4.3c0,0.7,0.7,1.8,2.5,4c0.4,0.4,0.7,0.7,0.7,1.1c2.5,4,4.7,7.9,6.5,11.9c2.5,5.8,2.9,12.6,1.8,18.7
				c-0.4,1.8-4.7,18-18.7,19.1c6.5-7.9,6.5-21.2,6.5-21.9c0-0.4-0.4-0.7-0.7-0.7l0,0c-0.4,0-0.7,0.4-0.7,0.7c0,0,0,6.1-1.8,12.2l0,0
				c-0.7,2.2-7.2,14.4-16.5,12.9c-9.3-1.8-11.5-9.7-11.5-9.7l0,0c3.6-1.1,6.5-2.9,8.6-5.4c5.8-7.9,2.5-19.4,2.2-20.1
				c0-0.4-0.7-0.7-1.1-0.4c-0.4,0-0.7,0.7-0.4,1.1c0,0,1.4,5,0.7,10.4c0,0.4-4,19.4-24.1,10.4l-0.4,3.2c2.9,1.8,7.2,2.2,7.5,2.2l0,0
				c1.1,0,2.5,0,3.6-0.4c4,9,12.9,11.1,13.3,11.1s0.4,0,0.7,0c1.4,0.4,2.9,0.4,4.7,0c2.5-0.4,4.7-1.4,6.8-2.9c0.4,0,0.7,0,0.7,0
				c7.2,0,12.9-2.9,17.3-9c1.4-2.2,2.9-4.7,3.6-7.5l0,0C602.3,425.3,602,419.2,602,419.2z"/>
			<path class="st109" d="M565.3,399.7c0,1.1,0,2.2,0,3.2c0,0.7,0.4,1.4,0.7,1.8s0.4,0.4,0.7,0.7c0.4,0,0.7,0.4,1.1,0.4
				c0.7,0,1.4-0.4,1.8-0.7c0.4-0.4,0.7-1.1,0.7-1.8c0-1.1,0-2.2,0-3.2c0-0.7-0.4-1.4-0.7-1.8c-0.4-0.4-0.4-0.4-0.7-0.7
				c-0.4,0-0.7-0.4-1.1-0.4c-0.7,0-1.4,0.4-1.8,0.7C565.7,398.7,565.3,399,565.3,399.7L565.3,399.7z"/>
			<path class="st109" d="M572.9,394.7c1.4,5.4,1.8,10.4,1.1,16.2c0,1.4,1.4,2.9,2.9,2.9c1.8,0,2.5-1.1,2.9-2.9
				c0.7-5.8,0.4-11.9-1.4-17.6c-0.4-1.4-1.8-2.5-3.2-1.8C573.2,391.8,572.5,393.3,572.9,394.7L572.9,394.7z"/>
			<path class="st109" d="M582.6,398.3c0.7,3.2,1.1,6.5,1.8,9.7c0,0.7,0.7,1.4,1.1,1.8c0.7,0.4,1.4,0.4,2.2,0.4
				c1.4-0.4,2.2-1.8,1.8-3.2c-0.7-3.2-1.1-6.5-1.8-9.7c0-0.7-0.7-1.4-1.1-1.8c-0.7-0.4-1.4-0.4-2.2-0.4
				C582.9,395.4,582.2,396.5,582.6,398.3L582.6,398.3z"/>
		</g>
		<g>
			
				<linearGradient id="SVGID_6_" gradientUnits="userSpaceOnUse" x1="318.8592" y1="328.9273" x2="376.1509" y2="287.6022" gradientTransform="matrix(1 0 0 -1 0 602)">
				<stop  offset="0" style="stop-color:#F7F8F8"/>
				<stop  offset="1" style="stop-color:#DCDDDD"/>
			</linearGradient>
			<path class="st16" d="M332.7,268.9c0,0,15.8-11.9,28-8.6c12.6,3.2,21.9,10.4,25.2,20.8s-8.6,18-8.6,18s-4.3,12.9-15.1,14.7
				c0,0-8.6,21.2-34.9,1.1l-6.1,6.8c0,0-14.4-9-11.5-26.6C312.6,277.5,327.7,268.9,332.7,268.9z"/>
			<g>
				<path class="st109" d="M321.2,322.1l6.1-6.8c1.1,0.7,2.2,1.4,3.2,2.2c-4-2.9-9-8.3-10.4-17.3c0,0-9,2.5-5,15.8
					C317.6,319.9,321.2,322.1,321.2,322.1z"/>
				<path class="st109" d="M385.9,281.1c-1.1-2.9-2.5-5.8-4.3-8.3c0,2.9-0.7,9-7.5,11.9c0,0-2.5,18.3-14.7,17.3
					c0,0-6.8,18.7-25.2,18c0,0-0.4,0-0.4-0.4c21.2,11.9,28-5.8,28-5.8c10.8-1.8,15.1-14.7,15.1-14.7S389.2,291.5,385.9,281.1z"/>
			</g>
			<path class="st109" d="M333.1,270.3c0,0-8.3,5-12.6,14.7c0,0-1.1-5.8,9.7-15.8"/>
			<path class="st108" d="M359.7,259.6c-11.1-1.8-20.5,4-25.2,7.5l0,0c0,0-18,2.9-23.7,19.4c-5.8,16.5,0,29.8,9.3,36.7l1.8-1.8
				c-9.3-7.9-14.7-22.6-7.5-36.3c4.7-9.3,12.6-13.3,16.9-14.7c0,0.4,0,0.7,0.4,0.7c0.4,0.4,0.7,0.4,1.1,0c0,0,12.6-11.9,27-9.7
				c3.6,0.7,7.2,1.8,10.4,3.2c1.1,0.7,13.3,6.8,14.7,19.1c0,0.4,0.4,3.6-0.7,6.1l0,0c0,0,0,0.4-0.4,0.4c-1.1,2.2-2.9,5-5,6.1l0,0
				c0-0.7,0-1.1,0-1.8c-1.1-13.3-15.5-22.3-16.2-22.6c-0.4-0.4-0.7,0-1.1,0.4c-0.4,0.4,0,0.7,0.4,1.1c0,0,5.4,3.2,9.7,8.6
				c0,0.4,7.9,12.2,1.8,21.9c0,0-4,5.4-9.7,8.6c0.4-13.3-14.4-21.6-14.4-21.6l0,0c-1.4-1.1-2.9-1.4-2.9-1.8c-0.4-0.4-0.7,0-1.1,0.4
				c-0.4,0.4,0,0.7,0.4,1.1c0,0,15.5,7.9,15.8,21.2c0,3.6-1.1,6.1-3.6,7.9c-5.4,4-15.5,2.9-17.3,2.5h-0.4
				c-14.7-5-19.1-16.2-19.8-24.8c0-0.4-0.4-0.7-0.7-0.7c-0.4,0-0.7,0.4-0.7,0.7c0.7,7.9,4,17.6,15.1,23.7l0,0
				c1.4,1.1,3.2,1.8,5.8,2.5l0,0h0.4c0.4,0,1.4,0.4,2.5,0.4c8.3,1.4,18.3,0,20.5-7.9c2.2-1.1,11.9-6.1,14.7-14.7
				c1.4-1.1,10.4-9,10.1-16.9C387.4,274.7,374.8,261.7,359.7,259.6z"/>
			<path class="st109" d="M343.5,270.7c1.4,0,2.9,0,4.3,0.4c-0.4,0-0.4,0-0.7,0c1.8,0.4,3.2,0.7,5,1.1c1.4,0.4,2.9-0.4,3.2-1.8
				c0.4-1.4-0.4-2.9-1.8-3.2c-3.2-1.1-6.5-1.4-10.1-1.4c-1.4,0-2.9,1.1-2.5,2.5C341,269.6,342.1,270.7,343.5,270.7L343.5,270.7z"/>
			<path class="st109" d="M343.2,277.5h0.4C343.5,277.5,343.2,277.5,343.2,277.5c0.4,0,1.1,0.4,1.8,0.7c-0.4,0-0.4,0-0.7-0.4
				c0.4,0.4,1.1,0.4,1.4,0.7s0.7,0.4,1.1,0.4s0.7,0,1.1,0c0.7,0,1.4-0.7,1.4-1.1c0.4-0.7,0.4-1.4,0.4-2.2c-0.4-0.7-0.7-1.1-1.1-1.4
				c-1.4-1.1-3.6-1.4-5.4-1.8c-0.4,0-0.7,0-1.1,0.4c-0.4,0-0.7,0.4-0.7,0.7c-0.4,0.4-0.7,1.1-0.7,1.8s0.4,1.4,0.7,1.8l0.4,0.4
				C342.1,277.5,342.8,277.5,343.2,277.5L343.2,277.5z"/>
			<path class="st109" d="M338.9,283.3c0.4,0,0.4,0,0.7,0C339.6,283.3,339.2,283.3,338.9,283.3c0.4,0,0.7,0,1.1,0.4
				c-0.4,0-0.4,0-0.7-0.4c0,0,0,0,0.4,0c0.4,0.4,0.7,0.4,1.1,0.4c0.4,0,0.7,0,1.1,0c0.4,0,0.7-0.4,0.7-0.4c0.4-0.4,0.4-0.4,0.7-0.7
				c0-0.4,0-0.4,0.4-0.7c0-0.4,0-1.1,0-1.4c0-0.4,0-0.4-0.4-0.7c-0.4-0.4-0.7-0.7-1.1-1.1c-0.4-0.4-1.1-0.4-1.8-0.7
				c-0.4,0-0.7,0-1.1,0c-0.4,0-0.4,0-0.7,0c-0.4,0-0.7,0-1.1,0.4c-0.4,0-0.7,0.4-0.7,0.7c-0.4,0.4-0.4,0.4-0.7,0.7
				c0,0.4-0.4,0.7-0.4,1.1c0,0.4,0,0.4,0,0.7s0.4,0.7,0.7,1.1l0.4,0.4C338.1,282.9,338.5,283.3,338.9,283.3L338.9,283.3z"/>
		</g>
	</g>
</g>
</svg>
