<?xml version="1.0" encoding="utf-8"?>
<!-- Generator: Adobe Illustrator 21.0.0, SVG Export Plug-In . SVG Version: 6.00 Build 0)  -->
<svg version="1.1" id="圖層_1" xmlns="http://www.w3.org/2000/svg" xmlns:xlink="http://www.w3.org/1999/xlink" x="0px" y="0px"
	 viewBox="0 0 822.9 601.4" style="enable-background:new 0 0 822.9 601.4;" xml:space="preserve">
<style type="text/css">
	.st0{fill:url(#SVGID_1_);}
	.st1{fill:#E1BE3F;}
	.st2{fill:#AB6C21;}
	.st3{opacity:0.6;fill:#E1BE3F;}
	.st4{fill:url(#SVGID_2_);}
	.st5{fill:#66411D;}
	.st6{fill:url(#SVGID_3_);}
	.st7{fill:#D9B974;}
	.st8{fill:#DCBF93;}
	.st9{fill:url(#SVGID_4_);}
	.st10{fill:url(#SVGID_5_);}
	.st11{fill:url(#SVGID_6_);}
	.st12{fill:url(#SVGID_7_);}
	.st13{fill:#8C5924;}
	.st14{fill:url(#SVGID_8_);}
	.st15{fill:url(#SVGID_9_);}
	.st16{fill:url(#SVGID_10_);}
	.st17{fill:url(#SVGID_11_);}
	.st18{fill:#F4E3A5;}
	.st19{fill:#DEB87D;}
	.st20{fill:url(#SVGID_12_);}
	.st21{fill:url(#SVGID_13_);}
	.st22{fill:#3F210F;}
	.st23{opacity:0.25;fill:#E1BE3F;}
	.st24{opacity:0.5;fill:#E1BE3F;}
	.st25{fill:#F8E5A9;}
	.st26{fill:#DDBC90;}
	.st27{opacity:0.4;fill:#E1BE3F;}
	.st28{fill:#875424;}
	.st29{fill:#3F210E;}
	.st30{fill:#C88E2C;}
	.st31{fill:#AC7327;}
	.st32{fill:#FFFFFF;}
	.st33{fill:#814323;}
	.st34{fill:#D7C6A6;}
	.st35{fill:url(#SVGID_14_);}
	.st36{fill:#4A1E0E;}
	.st37{fill:#3A1D13;}
	.st38{fill:url(#SVGID_15_);}
	.st39{fill:#EAA593;}
	.st40{fill:url(#SVGID_16_);}
	.st41{fill:url(#SVGID_17_);}
	.st42{fill:#D59543;}
	.st43{opacity:0.6;fill:#D59543;}
	.st44{fill:url(#SVGID_18_);}
	.st45{fill:url(#SVGID_19_);}
	.st46{fill:#211714;}
	.st47{fill:url(#SVGID_20_);}
	.st48{filter:url(#Adobe_OpacityMaskFilter);}
	.st49{mask:url(#SVGID_21_);}
	.st50{fill:url(#SVGID_22_);}
	.st51{fill:url(#SVGID_23_);}
	.st52{fill:#9E9E9F;}
	.st53{fill:#717071;}
	.st54{fill:#467334;}
	.st55{fill:url(#SVGID_24_);}
</style>
<g>
	<g>
		<g>
			
				<linearGradient id="SVGID_1_" gradientUnits="userSpaceOnUse" x1="1015.0013" y1="381.4819" x2="1100.0723" y2="381.4819" gradientTransform="matrix(-1 0 0 1 1618.9467 0)">
				<stop  offset="0" style="stop-color:#EFD97F"/>
				<stop  offset="0.1978" style="stop-color:#EFD87C"/>
				<stop  offset="0.3726" style="stop-color:#EED571"/>
				<stop  offset="0.5387" style="stop-color:#EDCF5F"/>
				<stop  offset="0.6984" style="stop-color:#EBC845"/>
				<stop  offset="0.7526" style="stop-color:#EAC53B"/>
				<stop  offset="1" style="stop-color:#E5AD14"/>
			</linearGradient>
			<path class="st0" d="M518.7,357.3l8.1-18.4c0-0.5,0.1-1,0.2-1.5c0-0.2,0.1-0.3,0.1-0.5c0.1-0.4,0.1-0.7,0.2-1.1
				c0-0.2,0.1-0.4,0.1-0.5c0.1-0.4,0.2-0.8,0.4-1.2c0-0.1,0.1-0.3,0.1-0.4c0.2-0.5,0.4-1.1,0.6-1.6c0.1-0.1,0.1-0.3,0.2-0.4
				c0.2-0.4,0.3-0.8,0.5-1.2c0.1-0.2,0.2-0.4,0.3-0.6c0.2-0.4,0.4-0.7,0.5-1.1c0.1-0.2,0.2-0.4,0.3-0.6c3-5.6,7.1-11,10.1-14.5
				c0.1-0.1,0.2-0.2,0.3-0.4c15.8,19.9,33.8,47.3,47.8,81.6c0,0,13,12.4,13,29.8c0,17.4-13.3,23.1-20.6,21.5l0,0
				c-8.2,7-19.6,2.7-21.9-8.7l-0.1-0.2c-0.5,0.3-1,0.6-1.6,0.9c-4.9,2.4-11.3-0.6-13.3-5l0,0l0,0c-0.1-0.2-0.2-0.3-0.2-0.5l0.2-0.1
				l-1.6-14.1l0.5-0.1v-3.6l0.7-2.5c-0.3-0.7-0.6-1.5-0.9-2.3l-0.7-1l-0.9-2.4l-0.1-0.7c-2.7-6.5-6.6-15.4-11.8-26
				c-3.4-7-7.4-14.3-11.2-21L518.7,357.3z"/>
		</g>
		<path class="st1" d="M569.3,417.4c0,0,2.5,19.1-8.3,25.4l-2-5.3C559,437.5,570.6,431.5,569.3,417.4z"/>
		<path class="st1" d="M587.9,423.4c0,0,5,12.8,1.3,21.9c0,0-3.4,1.3-8.4,0.9C580.9,446.2,589.4,441.8,587.9,423.4z"/>
		<path class="st2" d="M569.6,423.4c0,0,0.1,11.4-9.5,15.7l-0.4-1.7C559.7,437.4,569.8,428.3,569.6,423.4z"/>
		<path class="st2" d="M588.8,430.1c0,0,0.7,10.6-5,16.2l-3.5-0.3C580.3,446.1,587.9,439,588.8,430.1z"/>
		<path class="st3" d="M518.7,357.3l8.1-18.4c0-0.5,0.1-1,0.2-1.5c0-0.2,0.1-0.3,0.1-0.5c0.1-0.4,0.1-0.7,0.2-1.1
			c0-0.2,0.1-0.4,0.1-0.5c0.1-0.4,0.2-0.8,0.4-1.2c0-0.1,0.1-0.3,0.1-0.4c0.2-0.5,0.4-1.1,0.6-1.6c0.1-0.1,0.1-0.3,0.2-0.4
			c0.2-0.4,0.3-0.8,0.5-1.2c0.1-0.2,0.2-0.4,0.3-0.6c0.2-0.4,0.4-0.7,0.5-1.1c0.1-0.2,0.2-0.4,0.3-0.6c0-0.1,0.1-0.2,0.1-0.2
			c10.8,21.3,22.4,49.5,23.1,73.6c0,0-13.4,17-8.5,33.3c-0.4-0.5-0.7-1-0.9-1.6l0,0l0,0c-0.1-0.2-0.2-0.3-0.2-0.5l0.2-0.1l-1.6-14.1
			l0.5-0.1v-3.6l0.9-3.1L542,409l-1-2.5l-20-43.6c0,0-1.1-1.3-2.9-4.2L518.7,357.3z"/>
		<g>
			<path class="st2" d="M542.9,413.5l-0.5-1.1c0,0,0,0,0-0.1c-0.2-0.4-13.2-29-24.9-52l1.3-3l0,0c10.8,20.8,22.7,47,25.4,52.8
				c0.5-1.2,0.9-1.7,0.9-1.7l0,0c1.1-1.9,2.4-3.5,2.5-3.6c0.2-0.3,0.6-0.3,0.9-0.1c0.3,0.2,0.3,0.6,0.1,0.9
				c-0.2,0.3-0.5,0.6-0.9,1.1c0,0-7,10.6-3.1,25.8h0c0.8,2.2,2.8,4.2,5.4,5.3c2.5,1,5.1,1,7.2-0.1c8.5-4.3,13.1-13.4,11.2-22.3
				c-0.1-0.3,0.1-0.7,0.5-0.8c0.3-0.1,0.7,0.1,0.8,0.5c1.9,8.7-2.1,17.6-9.9,22.5c1.2,5.4,4.6,9.5,9.1,10.9c4.4,1.3,8.9,0,12.6-3.6
				c8.9-8.9,5.5-22.4,5.5-22.5c-0.1-0.3,0.1-0.7,0.5-0.8c0.3-0.1,0.7,0.1,0.8,0.5c0,0.1,3.6,14.3-5.8,23.8c0,0,0,0,0,0
				c3,0.3,7.3-0.5,11.2-3.7c3.3-2.7,7.3-7.9,7.3-17.4c0-17-12.6-29.2-12.8-29.3c-0.1-0.1-0.1-0.1-0.2-0.2
				c-14-34.3-32-61.5-47.7-81.3c0.1-0.1,0.1-0.2,0.2-0.2c1.1-1.3,2.1-2.4,2.7-3c0,0,0,0,0,0c5.2,6.5,10.7,13.8,16,22l0,0
				c0,0,25.9,38.6,31.6,60.1c7,9.1,20.2,30.1,7.6,46.1c-1.2,1.8-2.6,3.2-3.9,4.3c-0.5,0.4-1,0.8-1.6,1.1c-0.1,0.1-0.2,0.1-0.2,0.1
				c0,0,0.1,0,0.1-0.1c-2.9,1.8-6.1,2.8-9.2,2.8c-0.8,0-1.6-0.1-2.4-0.2c-2.7,2.2-5.8,3.4-8.9,3.4c-1.2,0-2.5-0.2-3.7-0.5
				c-4.9-1.5-8.6-5.7-9.9-11.4c-0.3,0.2-0.6,0.3-0.9,0.5c-1.2,0.6-2.6,0.9-4.1,0.9c-1.4,0-2.8-0.3-4.2-0.8c-2.7-1.1-4.8-3.1-5.9-5.4
				h0c0,0,0-0.1-0.1-0.2c-0.1-0.1-0.1-0.3-0.2-0.4l0,0c0,0-1.1-2.6-1.4-7c-0.2-1.8-0.2-3.7-0.1-5.9
				C541.9,417.4,542.4,415.2,542.9,413.5z"/>
		</g>
	</g>
</g>
<g>
	<g>
		<path class="st46" d="M318.1,267L318.1,267c0.2,0,0.3,0,0.5,0C318.4,267,318.2,267,318.1,267z"/>
		<g>
			
				<linearGradient id="SVGID_2_" gradientUnits="userSpaceOnUse" x1="1914.9663" y1="319.3323" x2="1808.811" y2="319.3323" gradientTransform="matrix(-1 0 0 1 2204.3684 0)">
				<stop  offset="0" style="stop-color:#EFD97F"/>
				<stop  offset="0.1978" style="stop-color:#EFD87C"/>
				<stop  offset="0.3726" style="stop-color:#EED571"/>
				<stop  offset="0.5387" style="stop-color:#EDCF5F"/>
				<stop  offset="0.6984" style="stop-color:#EBC845"/>
				<stop  offset="0.7526" style="stop-color:#EAC53B"/>
				<stop  offset="1" style="stop-color:#E5AD14"/>
			</linearGradient>
			<path class="st4" d="M297.6,277.8c1.5-2.7,3.7-4.5,5-5.4c10.2-6.7,18.5-4.6,18.5-4.6l-1-0.3c5.2,1.3,15.5,5.4,13.8,17.4
				c-8-4.1-23.6,4.5-24.3,4.9c-0.4,0.2-0.5,0.7-0.3,1c0.2,0.4,0.7,0.5,1,0.3c0.1-0.1,5.9-3.3,12.1-4.9l2-0.4c1.7-0.2,3.2,0,4,0.1
				c0.2,0,0.4,0.1,0.6,0.1c0,0,0,0,0,0v0c3.3,0.8,7.9,3,9.5,8.9c1.8,6.8-1.4,10.2-3.5,11.5c-0.5,0.3-1,0.6-1.5,0.8c0,0,0,0,0,0
				s0,0,0,0c-2.2,1.1-4.5,2.1-6.1,2.8l-0.3,0.1c-4,1.7-7,1.7-7,1.7c0,0,0,0,0,0c-0.4,0-0.7,0.3-0.8,0.7c0,0.4,0.3,0.8,0.7,0.8
				c0,0,0,0,0,0c0.3,0,3.4,0,7.6-1.8l0.3-0.1c4.2-1.7,8.5-3.7,11.1-6l0,0c0,0,12.3,14.8-10.3,23.5c-0.9,0.3-1.5,0.4-1.5,0.4
				c-0.4,0.1-0.7,0.5-0.6,0.9c0.1,0.3,0.4,0.6,0.7,0.6c0.1,0,0.1,0,0.2,0c0.8-0.2,19.2-4.5,17.4-16.8c-0.4-2.8-1-4.9-1.6-6.4
				c2.8,0.9,5.3,2.5,7.6,4.4c0,0.1,0.1,0.1,0.2,0.2c0,0,0.1,0.1,0.1,0.1c6.7,5.6,11.1,13.5,11.1,13.6c0.1,0.3,0.4,0.4,0.7,0.4
				c0.1,0,0.2,0,0.4-0.1c0.3-0.2,0.4-0.5,0.4-0.8l0,0c0,0,0.9,1.9,1.9,4c-3.5,8.7-7,18.7-9.9,29.7c-2.1,7-2.5,10.4-2.5,10.4
				c-22.2,7.4-39.5-14.8-46.2-25.3c-3.5-5.7-8.2-21.7-8.3-22c-1.9-7.5-2.9-13.1-3-13.2C295.8,308.8,291.3,289.7,297.6,277.8z"/>
		</g>
		<g>
			<path class="st1" d="M343.1,322c1.5-2.1,2.3-4.7,1.9-7.8c-0.4-2.8-1-4.9-1.6-6.4c2.8,0.9,5.3,2.5,7.6,4.4c0,0.1,0.1,0.1,0.2,0.2
				c0,0,0.1,0.1,0.1,0.1c3.7,3.1,6.6,6.8,8.6,9.6C353.5,320.6,347.1,321.3,343.1,322z"/>
			<path class="st1" d="M326.5,284c3-1.7,3-8.7,2.8-12c3.2,2.7,5.5,6.8,4.6,13C331.8,283.9,329.2,283.7,326.5,284z"/>
			<path class="st1" d="M335,306.6c-0.5,0.3-1,0.6-1.5,0.8c0,0,0,0,0,0s0,0,0,0c-1.7,0.9-3.4,1.6-4.9,2.3h0c5-2.6,8.4-10,10-14
				C340.1,302,337,305.2,335,306.6z"/>
			<path class="st1" d="M338.8,322.9c0-0.1,0.7-6.9-0.6-10.2c-0.8-1.9-3.9-2.7-6.3-2.9c2.8-1.3,5.4-2.7,7.2-4.2l0,0
				C339,305.6,346.7,314.8,338.8,322.9z"/>
		</g>
		<path class="st3" d="M364.6,327.1c0.3,0.7,0.7,1.5,1.1,2.4c-3.5,8.7-7,18.7-9.9,29.7c-2.1,7-2.5,10.4-2.5,10.4
			c-2.3,0.8-4.5,1.2-6.7,1.4C351.2,355.5,358.1,340,364.6,327.1z"/>
		<path class="st2" d="M363.8,325.3c-2-5.5-4.9-9.6-7.8-12.7c0,0-2.6-2.4-3.5-3.1c-6-4.6-11.7-5.6-11.7-5.6c0.4-0.6,0.7-1.2,0.8-1.8
			c0.1-0.5,0.1-1,0.2-1.5c0.2-0.8,0.4-1.7,0.3-2.8c0-0.8-0.6-2.8-0.6-2.8c-0.7-3.3-2.4-6.5-5.6-8.8c0.1-0.1,0.1-0.2,0.2-0.3
			c0.8-3.7,0.7-7.1-0.4-10.1c-0.5-1.5-1.5-2.8-1.5-2.8c-1-1.5-2.3-2.9-4-4c-7.4-5-19-4.5-27.7,1.3c-14.8,9.9-8.2,37.9-7.9,39.1
			c0,0,4.1,25.6,11.2,37.4v0c0.2,0.3,0.3,0.6,0.5,1c6.4,12.8,25.4,27.5,41.3,27.5c2.8,0,5.5-0.5,8.1-1.5c0.4-0.2,0.6-0.6,0.4-1
			c-0.2-0.4-0.6-0.6-1-0.4c-0.7,0.3-1.5,0.5-2.2,0.7l0.7-3.5c-22.2,7.4-39.5-14.8-46.2-25.3c-3.5-5.7-8.2-21.7-8.3-22
			c-1.9-7.5-2.9-13.1-3-13.2c-0.1-0.3-4.5-19.4,1.8-31.2c1.5-2.7,3.7-4.5,5-5.4c10.2-6.7,18.5-4.6,18.5-4.6l-1-0.3
			c5.2,1.3,15.5,5.4,13.8,17.4c-8-4.1-23.6,4.5-24.3,4.9c-0.4,0.2-0.5,0.7-0.3,1c0.2,0.4,0.7,0.5,1,0.3c0.1-0.1,5.9-3.3,12.1-4.9
			l2-0.4c-0.2,0-0.5,0.1-0.7,0.1c0.6-0.1,1.1-0.2,1.7-0.3c0,0,0,0,0.1,0l-1,0.2c1.7-0.2,3.2,0,4,0.1c0.2,0,0.4,0.1,0.6,0.1
			c0,0,0,0,0,0l0,0c3.3,0.8,7.9,3,9.5,8.9c1.8,6.8-1.4,10.2-3.5,11.5c-0.5,0.3-1,0.6-1.5,0.8c0,0,0,0,0,0s0,0,0,0
			c-2.2,1.1-4.5,2.1-6.1,2.8l-0.3,0.1c-4,1.7-7,1.7-7,1.7c0,0,0,0,0,0c-0.4,0-0.7,0.3-0.8,0.7c0,0.4,0.3,0.8,0.7,0.8c0,0,0,0,0,0
			c0.3,0,3.4,0,7.6-1.8l0.3-0.1c4.2-1.7,8.5-3.7,11.1-6l0,0c0,0,12.3,14.8-10.3,23.5c-0.9,0.3-1.5,0.4-1.5,0.4
			c-0.4,0.1-0.7,0.5-0.6,0.9c0.1,0.3,0.4,0.6,0.7,0.6c0.1,0,0.1,0,0.2,0c0.8-0.2,19.2-4.5,17.4-16.8c-0.4-2.8-1-4.9-1.6-6.4
			c2.8,0.9,5.3,2.5,7.6,4.4c0,0.1,0.1,0.1,0.2,0.2c0,0,0.1,0.1,0.1,0.1c6.7,5.6,11.1,13.5,11.1,13.6c0.1,0.3,0.4,0.4,0.7,0.4
			c0.1,0,0.2,0,0.4-0.1C363.8,326.1,364,325.7,363.8,325.3z M318.1,267L318.1,267c0.1,0,0.3,0,0.4,0C318.4,267,318.2,267,318.1,267z
			"/>
	</g>
	<defs>
		<filter id="Adobe_OpacityMaskFilter" filterUnits="userSpaceOnUse" x="311.7" y="221.7" width="61.3" height="100.2">
			<feColorMatrix  type="matrix" values="1 0 0 0 0  0 1 0 0 0  0 0 1 0 0  0 0 0 1 0"/>
		</filter>
	</defs>
	<mask maskUnits="userSpaceOnUse" x="311.7" y="221.7" width="61.3" height="100.2" id="SVGID_3_">
		<g class="st48">
			<path class="st32" d="M376.1,304.1l-7.2-67.8l-20.7-22.9L295.8,224l10.6,44.4c1.5-0.8,2.9-1.5,4.4-1.9c0,0,15.6-4.8,23.2,6.5
				c0,0,4.1,5,1.7,13.2c0,0,4.8,1.7,6.2,11.7c0,0-0.3,3.4-1.3,6.1c0,0,2.7,0.5,4,8.5c0,0,3.2,8.5-6.8,14.5l3.2,1.5l39.1-8
				L376.1,304.1z"/>
		</g>
	</mask>
	<g style="mask:url(#SVGID_3_);">
		
			<linearGradient id="SVGID_4_" gradientUnits="userSpaceOnUse" x1="496.3164" y1="200.3488" x2="429.2058" y2="205.4599" gradientTransform="matrix(0.991 -0.134 0.134 0.991 -157.9278 88.8721)">
			<stop  offset="0" style="stop-color:#FFFFFF"/>
			<stop  offset="0.1593" style="stop-color:#F3F3F3"/>
			<stop  offset="0.4454" style="stop-color:#D4D4D4"/>
			<stop  offset="0.8224" style="stop-color:#A2A2A2"/>
			<stop  offset="1" style="stop-color:#888888"/>
		</linearGradient>
		<path class="st9" d="M323.8,228.7c-0.4-1.6,0.5-3.3,2.1-3.8c0.9-0.3,1.8-0.6,2.8-0.8c1.1-0.3,2.2-0.5,3.2-0.8
			c1.6-0.3,3.2,0.7,3.6,2.3l1,3.7c-2,0.3-4,0.7-6.1,1.3c-2,0.5-3.8,1.1-5.6,1.8L323.8,228.7z"/>
		
			<linearGradient id="SVGID_5_" gradientUnits="userSpaceOnUse" x1="499.7378" y1="245.231" x2="432.6239" y2="250.3424" gradientTransform="matrix(0.991 -0.134 0.134 0.991 -157.9278 88.8721)">
			<stop  offset="0" style="stop-color:#FFFFFF"/>
			<stop  offset="0.1593" style="stop-color:#F3F3F3"/>
			<stop  offset="0.4454" style="stop-color:#D4D4D4"/>
			<stop  offset="0.8224" style="stop-color:#A2A2A2"/>
			<stop  offset="1" style="stop-color:#888888"/>
		</linearGradient>
		<path class="st10" d="M330.8,232c5.2-1.4,10.4-2,14.4-1.6c3.3,0.3,5.6,1.2,6.3,2.5c-0.1,0.2-0.1,0.4,0,0.6l18.9,70.5
			c-1.3-0.7-3.1-1.1-5.3-1.3c-4.2-0.4-9.5,0.2-14.9,1.7c-8.8,2.4-15.7,6.4-17.9,10.1l-18.9-70.8C312.5,240.6,319.4,235,330.8,232z"
			/>
		<path class="st52" d="M353.9,318.7c-11.3,3-20.1,1.7-20.9-1.3c-0.8-3.1,6.2-8.6,17.5-11.6c2.3-0.6,4.5-1.1,6.7-1.4
			c2.8-0.4,5.4-0.5,7.7-0.3c3,0.3,5.1,1,6,2.1l0.2,0.9c0.1,0.2,0.2,0.3,0.3,0.5C371.4,310.8,364.6,315.9,353.9,318.7z"/>
		<path class="st53" d="M357.6,311.7c-0.4-1.6-3.3-1.6-5.8-1c-2.5,0.7-5,2.1-4.6,3.7c0.3,1.3,2.2,1.5,4.2,1.3
			c0.5-0.1,1.1-0.2,1.6-0.3C355.6,314.8,358.1,313.3,357.6,311.7L357.6,311.7z M352.7,314c-2.4,0.6-3.8,0.3-4,0.1
			c0-0.3,1.2-1.3,3.5-1.9c0.5-0.1,1-0.2,1.4-0.3c1.4-0.2,2.4,0,2.6,0.2C356.1,312.4,354.9,313.4,352.7,314z"/>
		<polygon class="st53" points="328.5,241.9 331.3,241.1 332.1,244.1 335.6,243.2 334.8,240.2 337.7,239.4 336.7,236 333.9,236.7 
			333.1,233.9 329.6,234.8 330.4,237.7 327.5,238.4 		"/>
		<polygon class="st54" points="328.5,241.9 331.3,241.1 332.1,244.1 335.6,243.2 334.8,240.2 337.7,239.4 336.7,236 333.9,236.7 
			333.1,233.9 329.6,234.8 330.4,237.7 327.5,238.4 		"/>
		
			<linearGradient id="SVGID_6_" gradientUnits="userSpaceOnUse" x1="446.3263" y1="250.9681" x2="485.9907" y2="245.7462" gradientTransform="matrix(0.991 -0.134 0.134 0.991 -157.9278 88.8721)">
			<stop  offset="0" style="stop-color:#598A3B"/>
			<stop  offset="0.2099" style="stop-color:#659441"/>
			<stop  offset="0.5864" style="stop-color:#84AE51"/>
			<stop  offset="1" style="stop-color:#ADD067"/>
		</linearGradient>
		<path class="st11" d="M314.9,255.6c0,0,17.7-14.9,41.5-11.2l12.4,46.7c0,0-6-3.4-22.4,1.5c-16.5,4.9-18.9,10-18.9,10L314.9,255.6z
			"/>
		<path class="st54" d="M353.7,298.6l-1-3.6c-6.1,0.4-9.8,2.6-9.8,2.6l1,3.6C343.9,301.2,347.7,298.8,353.7,298.6z"/>
		<path class="st53" d="M372.6,304.9l-19.3-72c-0.1-0.5-0.5-1-0.8-1.4c-0.5-0.5-1.2-0.9-1.8-1.3c-0.7-0.4-1.4-0.6-2.1-0.8
			c-0.1,0-0.3-0.1-0.4-0.1c-0.9-0.2-1.9-0.4-2.9-0.5c-2.2-0.2-4.7-0.1-7.3,0.2l-1-3.9c-0.6-2.4-3-3.8-5.4-3.3
			c-1.1,0.2-2.2,0.5-3.3,0.8c-1,0.3-1.9,0.5-2.9,0.8c-2.4,0.8-3.7,3.2-3.1,5.6l1,3.9c-7.7,3.2-12.5,7.6-11.5,11.1l19.7,73.8
			c0.9,3.5,7.5,4.9,16,3.8c2.2-0.3,4.5-0.8,6.8-1.4c10.9-2.9,18.8-8.4,18.6-12.7C373,306.6,372.6,304.9,372.6,304.9z M325.8,224.9
			c0.9-0.3,1.8-0.6,2.8-0.8c1.1-0.3,2.2-0.5,3.2-0.8c1.6-0.3,3.2,0.7,3.6,2.3l1,3.7c-2,0.3-4,0.7-6.1,1.3c-2,0.5-3.8,1.1-5.6,1.8
			l-1-3.7C323.3,227.1,324.3,225.4,325.8,224.9z M332.2,314.4l-18.9-70.8c-0.8-3.1,6.2-8.6,17.5-11.6c5.2-1.4,10.4-2,14.4-1.6
			c2.5,0.2,4.5,0.8,5.5,1.6c0.6,0.9,0.8,1.4,0.8,1.4l18.9,70.5c-1.3-0.7-3.1-1.1-5.3-1.3c-4.2-0.4-9.5,0.2-14.9,1.7
			C341.3,306.7,334.4,310.7,332.2,314.4z M353.9,318.7c-11.3,3-20.1,1.7-20.9-1.3c-0.8-3.1,6.2-8.6,17.5-11.6
			c2.3-0.6,4.5-1.1,6.7-1.4c2.8-0.4,5.4-0.5,7.7-0.3c3,0.3,5.1,1,6,2.1l0.2,0.9c0,0,0.3,0.5,0,1.7
			C369.7,312,363.3,316.2,353.9,318.7z"/>
		<path class="st32" d="M331.2,275c2.5-7.6,5-15.2,7.4-22.7c0,0,0.1,0,0.1,0c0.1,0.3,0.1,0.7,0.2,1c0.5,3.1,1,6.2,1.5,9.3
			c0.2,1.1,0.3,2.2,0.5,3.3c0.1,0.8,0.5,1,1.3,0.8c2.7-0.7,5.4-1.4,8.1-2.1c0.1,0,0.2-0.1,0.4-0.1c-2.5,7.6-5,15.2-7.4,22.7
			c0,0-0.1,0-0.1,0c-0.1-0.9-0.3-1.7-0.4-2.6c-0.3-1.9-0.6-3.9-0.9-5.8c-0.3-1.7-0.5-3.4-0.8-5.1c-0.1-0.8-0.5-1.1-1.3-0.9
			c-2.7,0.7-5.3,1.4-8,2.1C331.6,274.9,331.5,274.9,331.2,275z"/>
	</g>
</g>
</svg>
