<?xml version="1.0" encoding="utf-8"?>
<!-- Generator: Adobe Illustrator 21.0.0, SVG Export Plug-In . SVG Version: 6.00 Build 0)  -->
<svg version="1.1" id="圖層_1" xmlns="http://www.w3.org/2000/svg" xmlns:xlink="http://www.w3.org/1999/xlink" x="0px" y="0px"
	 viewBox="0 0 822.9 601.4" style="enable-background:new 0 0 822.9 601.4;" xml:space="preserve">
<style type="text/css">
	.st0{fill:#73291B;}
	.st1{fill:url(#SVGID_1_);}
	.st2{fill:url(#SVGID_2_);}
	.st3{fill:url(#SVGID_3_);}
	.st4{fill:#FFFFFF;}
	.st5{fill:url(#SVGID_4_);}
	.st6{fill:url(#SVGID_5_);}
	.st7{fill:url(#SVGID_6_);}
	.st8{fill:url(#SVGID_7_);}
	.st9{fill:url(#SVGID_8_);}
	.st10{fill:url(#SVGID_9_);}
	.st11{fill:url(#SVGID_10_);}
	.st12{fill:url(#SVGID_11_);}
	.st13{fill:url(#SVGID_12_);}
	.st14{fill:#C8C9CA;}
	.st15{fill:#F4E3A5;}
	.st16{fill:#F3B699;}
	.st17{fill:url(#SVGID_13_);}
	.st18{fill:#E1BE3F;}
	.st19{fill:#AB6C21;}
	.st20{opacity:0.6;fill:#E1BE3F;enable-background:new    ;}
	.st21{fill:#888888;}
	.st22{fill:#456430;}
	.st23{fill:#709846;}
	.st24{fill:url(#SVGID_14_);}
	.st25{fill:url(#SVGID_15_);}
	.st26{opacity:0.8;}
	.st27{fill:url(#SVGID_16_);}
	.st28{opacity:0.6;fill:#709846;enable-background:new    ;}
	.st29{fill:#211714;}
	.st30{fill:url(#SVGID_17_);}
	.st31{fill:url(#SVGID_18_);}
	.st32{fill:url(#SVGID_19_);}
	.st33{fill:#BED26B;}
	.st34{fill:#F3E4A2;}
	.st35{fill:#8EA63A;}
	.st36{fill:none;stroke:#BED26B;stroke-width:0.9391;stroke-miterlimit:10;}
	.st37{opacity:0.6;fill:#DCCFB8;enable-background:new    ;}
	.st38{fill:url(#SVGID_20_);}
	.st39{fill:url(#SVGID_21_);}
	.st40{opacity:0.6;}
	.st41{fill:url(#SVGID_22_);}
	.st42{fill:url(#SVGID_23_);}
</style>
<g>
	<path class="st0" d="M351.2,498.9c0-0.8-1.7-17.1-10.4-20v-8.3c0-6.3-21.3-8.3-30.5-9.2c-3.3-1.3-6.7-2.1-9.6-2.5
		c-10-1.3-20,1.7-21.3,2.1c-17.5,0.8-38.4,3.8-38.4,9.6v32.6l-23.8-19.2c0-0.4,0-0.4,0-0.8c1.3-6.3,0.4-11.7-2.9-15
		c-2.1-2.5-5.4-3.3-9.6-3.3c-7.5,0-16.3,4.2-21.3,10c-6.3,7.5-8.8,19.6-2.5,26.7c2.5,2.9,5.8,4.2,10,4.2c2.1,0,4.6-0.4,6.7-1.3
		c3.3,2.9,25.5,23,43,38v20.9c0,7.5,25.9,11.7,50.1,11.7c24.2,0,50.1-4.2,50.1-11.7v-12.1c1.7-1.3,9.6-7.9,10.4-14.6
		C351.6,529.8,351.2,500.2,351.2,498.9z M339.1,470.6c0,0.8-1.7,2.1-4.2,2.9c-3.3-2.9-10.4-6.7-17.9-9.6
		C332.8,466,339.1,468.9,339.1,470.6z M300.2,461c9.6,1.3,25.5,8.8,32.1,13.4c-3.8,1.3-8.8,2.1-15,2.9c-11.7-11.7-24.2-15-31.7-15.9
		C289.8,460.5,295.2,460.1,300.2,461z M279.4,463L279.4,463L279.4,463c0.4,0,18.8-1.7,35.9,14.6c-7.1,0.8-15,1.3-24.6,1.3
		c-30,0-48.4-4.6-48.4-7.9C242.6,468.1,254.3,463.9,279.4,463z M182.5,500.6c-5.8-6.3-3.3-17.9,2.5-24.6c4.6-5.4,12.9-9.2,20-9.6
		c0,0,0,0,0.4,0c2.5,0,5.8,0.4,7.9,2.9c2.5,2.9,3.8,7.9,2.5,13.4c-1.3,5.4-4.2,10.4-7.9,13.8C200.1,503.5,188.4,506.9,182.5,500.6z
		 M208.8,498.1c3.3-2.9,6.3-7.5,7.5-12.1l37.6,30l0,0c0,0,15,9.2,15,28c0,10.4-2.1,13.4-3.3,14.2s-2.5,0-2.5,0
		c-1.3-0.8-5.8-4.2-20.5-16.7c-16.3-14.2-37.6-33-42.6-37.6C203,502.7,205.9,500.6,208.8,498.1z M290.6,573.6
		c-28.4,0-48.4-5-48.4-10V544c11.3,9.6,17.5,14.6,19.2,15.4c0,0,1.3,0.8,2.5,0.8c0.4,0,1.3,0,2.1-0.4c2.9-1.7,4.6-7.1,4.6-15.9
		c0-19.2-15-28.8-15.9-29.6l-12.1-10v-31.3c6.3,4.6,27.1,7.1,48.4,7.1c21.3,0,42.2-2.5,48.4-7.1v90.1
		C339.1,568.2,319,573.6,290.6,573.6z M349.1,536.9c-0.4,5-5.8,10-8.3,12.5V481c7.1,2.9,8.3,17.9,8.3,18.4
		C349.1,499.4,349.9,529.8,349.1,536.9z"/>
	<linearGradient id="SVGID_1_" gradientUnits="userSpaceOnUse" x1="316.5893" y1="468.6819" x2="338.9527" y2="468.6819">
		<stop  offset="0" style="stop-color:#D65B49"/>
		<stop  offset="1" style="stop-color:#CF361C"/>
	</linearGradient>
	<path class="st1" d="M339.1,470.6c0,0.8-1.7,2.1-4.2,2.9c-3.3-2.9-10.4-6.7-17.9-9.6C332.8,466,339.1,468.9,339.1,470.6z"/>
	<linearGradient id="SVGID_2_" gradientUnits="userSpaceOnUse" x1="285.9409" y1="468.8718" x2="332.4949" y2="468.8718">
		<stop  offset="0" style="stop-color:#D65B49"/>
		<stop  offset="1" style="stop-color:#CF361C"/>
	</linearGradient>
	<path class="st2" d="M300.2,461c9.6,1.3,25.5,8.8,32.1,13.4c-3.8,1.3-8.8,2.1-15,2.9c-11.7-11.7-24.2-15-31.7-15.9
		C289.8,460.5,295.2,460.1,300.2,461z"/>
	<linearGradient id="SVGID_3_" gradientUnits="userSpaceOnUse" x1="242.5312" y1="470.9533" x2="315.3168" y2="470.9533">
		<stop  offset="0" style="stop-color:#D65B49"/>
		<stop  offset="1" style="stop-color:#CF361C"/>
	</linearGradient>
	<path class="st3" d="M279.4,463L279.4,463L279.4,463c0.4,0,18.8-1.7,35.9,14.6c-7.1,0.8-15,1.3-24.6,1.3c-30,0-48.4-4.6-48.4-7.9
		C242.6,468.1,254.3,463.9,279.4,463z"/>
	<path class="st4" d="M182.5,500.6c-5.8-6.3-3.3-17.9,2.5-24.6c4.6-5.4,12.9-9.2,20-9.6c0,0,0,0,0.4,0c2.5,0,5.8,0.4,7.9,2.9
		c2.5,2.9,3.8,7.9,2.5,13.4c-1.3,5.4-4.2,10.4-7.9,13.8C200.1,503.5,188.4,506.9,182.5,500.6z"/>
	<linearGradient id="SVGID_4_" gradientUnits="userSpaceOnUse" x1="211.7092" y1="491.3759" x2="264.07" y2="552.1035">
		<stop  offset="0" style="stop-color:#D65B49"/>
		<stop  offset="1" style="stop-color:#CF361C"/>
	</linearGradient>
	<path class="st5" d="M208.8,498.1c3.3-2.9,6.3-7.5,7.5-12.1l37.6,30l0,0c0,0,15,9.2,15,28c0,10.4-2.1,13.4-3.3,14.2s-2.5,0-2.5,0
		c-1.3-0.8-5.8-4.2-20.5-16.7c-16.3-14.2-37.6-33-42.6-37.6C203,502.7,205.9,500.6,208.8,498.1z"/>
	<linearGradient id="SVGID_5_" gradientUnits="userSpaceOnUse" x1="240.0767" y1="476.7446" x2="343.7181" y2="562.8427">
		<stop  offset="0" style="stop-color:#D65B49"/>
		<stop  offset="1" style="stop-color:#CF361C"/>
	</linearGradient>
	<path class="st6" d="M290.6,573.6c-28.4,0-48.4-5-48.4-10V544c11.3,9.6,17.5,14.6,19.2,15.4c0,0,1.3,0.8,2.5,0.8
		c0.4,0,1.3,0,2.1-0.4c2.9-1.7,4.6-7.1,4.6-15.9c0-19.2-15-28.8-15.9-29.6l-12.1-10v-31.3c6.3,4.6,27.1,7.1,48.4,7.1
		c21.3,0,42.2-2.5,48.4-7.1v90.1C339.1,568.2,319,573.6,290.6,573.6z"/>
	<linearGradient id="SVGID_6_" gradientUnits="userSpaceOnUse" x1="345.264" y1="482.3288" x2="344.724" y2="544.6754">
		<stop  offset="0" style="stop-color:#D65B49"/>
		<stop  offset="1" style="stop-color:#CF361C"/>
	</linearGradient>
	<path class="st7" d="M349.1,536.9c-0.4,5-5.8,10-8.3,12.5V481c7.1,2.9,8.3,17.9,8.3,18.4C349.1,499.4,349.9,529.8,349.1,536.9z"/>
	<linearGradient id="SVGID_7_" gradientUnits="userSpaceOnUse" x1="286.379" y1="527.2724" x2="336.706" y2="569.0806">
		<stop  offset="0" style="stop-color:#D65B49"/>
		<stop  offset="1" style="stop-color:#CF361C"/>
	</linearGradient>
	<path class="st8" d="M339.1,563.6v-63.4c-0.4,0,0,5,0,5.4c0,4.6-0.4,8.8-1.3,13.4c-1.3,11.3-3.8,23-10,32.6
		c-6.7,10.9-19.6,13.8-31.7,15.9c-15,2.5-29.6,3.8-44.7,1.7c8.3,2.5,22.1,4.2,39.2,4.2C319,573.6,339.1,568.2,339.1,563.6z"/>
	<linearGradient id="SVGID_8_" gradientUnits="userSpaceOnUse" x1="344.8966" y1="489.5157" x2="344.415" y2="545.1653">
		<stop  offset="0" style="stop-color:#D65B49"/>
		<stop  offset="1" style="stop-color:#CF361C"/>
	</linearGradient>
	<path class="st9" d="M348.7,539c-2.9-2.9-2.9-10.9-2.9-10.9s0.4-11.7,0-25c-0.4-8.8-3.3-12.9-5-14.6v60.9
		C343.2,547.4,347.4,543.2,348.7,539z"/>
	<linearGradient id="SVGID_9_" gradientUnits="userSpaceOnUse" x1="285.7263" y1="465.5259" x2="285.6202" y2="477.78">
		<stop  offset="0" style="stop-color:#D65B49"/>
		<stop  offset="1" style="stop-color:#CF361C"/>
	</linearGradient>
	<path class="st10" d="M256,476c8.3,1.7,20,2.5,34.6,2.5c9.6,0,17.5-0.4,24.6-1.3c-7.1-6.7-14.2-10-20-12.1
		c5.4,2.5,11.3,6.3,13.8,10.4C308.6,475.6,273.5,477.7,256,476z"/>
	<linearGradient id="SVGID_10_" gradientUnits="userSpaceOnUse" x1="309.2623" y1="461.937" x2="309.1396" y2="476.131">
		<stop  offset="0" style="stop-color:#D65B49"/>
		<stop  offset="1" style="stop-color:#CF361C"/>
	</linearGradient>
	<path class="st11" d="M332.4,474.3c-1.3-0.8-2.5-1.7-4.2-2.5c-1.7,1.3-4.2,2.5-7.5,3.8c0,0-17.9-12.9-34.6-14.2
		c7.5,0.8,20,4.2,31.7,15.9C324,476.4,329,475.6,332.4,474.3z"/>
	<linearGradient id="SVGID_11_" gradientUnits="userSpaceOnUse" x1="329.7011" y1="470.3514" x2="338.9527" y2="470.3514">
		<stop  offset="0" style="stop-color:#D65B49"/>
		<stop  offset="1" style="stop-color:#CF361C"/>
	</linearGradient>
	<path class="st12" d="M334.5,473.9c2.9-0.8,4.2-2.1,4.2-2.9c0-1.3-2.1-2.5-7.5-4.2c0,1.3-0.8,2.5-1.7,3.8
		C331.5,471.8,333.2,472.6,334.5,473.9z"/>
	<linearGradient id="SVGID_12_" gradientUnits="userSpaceOnUse" x1="206.5452" y1="498.1113" x2="212.0832" y2="504.5344">
		<stop  offset="0" style="stop-color:#D65B49"/>
		<stop  offset="1" style="stop-color:#CF361C"/>
	</linearGradient>
	<path class="st13" d="M213.4,492.3c-1.3,2.1-2.9,4.2-4.6,5.8c-2.9,2.5-5.8,4.6-9.2,5.8c1.3,1.3,3.8,3.3,7.1,6.3
		c0.4-1.7,1.3-3.8,2.5-6.3C211.3,499.8,212.6,495.6,213.4,492.3z"/>
	<path class="st14" d="M207.6,496.9c3.8-3.3,6.7-8.8,7.9-13.8c1.3-5.4,0.4-10.4-2.5-13.4c0,0,7.1,14.2-7.1,26.7
		c-13.4,12.1-23.4,4.2-23.4,4.2C188.4,506.9,200.1,503.5,207.6,496.9z"/>
	<path class="st15" d="M279.4,463L279.4,463L279.4,463c-25,1.3-36.7,5.4-36.7,7.9v0.4l1.3,1.3c1.3-7.1,32.6-9.2,38.8-9.6
		C280.6,463,279.4,463,279.4,463z"/>
	<path class="st15" d="M332.4,474.3c-6.7-5-23-12.1-32.1-13.4c-3.8-0.4-7.1-0.4-10.4,0c1.7,0,12.9-0.4,23.4,5.8
		c8.3,5,12.1,7.9,14.6,9.2C329.5,475.2,331.1,474.7,332.4,474.3z"/>
	<path class="st16" d="M339.1,478.9v-5.4c-6.3,4.6-27.1,7.1-48.4,7.1c-16.7,0-33.4-1.7-43-4.6l0,0
		C248.1,476,291.5,491.8,339.1,478.9z"/>
	<circle class="st16" cx="197.6" cy="471" r="0.8"/>
	<circle class="st16" cx="201.3" cy="472.2" r="0.8"/>
	<circle class="st16" cx="205.5" cy="474.7" r="0.8"/>
	<circle class="st16" cx="210.5" cy="476.8" r="0.8"/>
	<circle class="st16" cx="205.9" cy="478.5" r="0.8"/>
	
		<ellipse transform="matrix(0.4247 -0.9053 0.9053 0.4247 -315.7053 456.2865)" class="st16" cx="201.2" cy="476.6" rx="0.8" ry="0.8"/>
	
		<ellipse transform="matrix(0.4246 -0.9054 0.9054 0.4246 -315.9091 450.7233)" class="st16" cx="196.6" cy="473.9" rx="0.8" ry="0.8"/>
	
		<ellipse transform="matrix(0.4246 -0.9054 0.9054 0.4246 -307.9337 452.4252)" class="st16" cx="202" cy="468.5" rx="0.8" ry="0.8"/>
	
		<ellipse transform="matrix(0.4246 -0.9054 0.9054 0.4246 -307.1938 456.6463)" class="st16" cx="205.7" cy="470" rx="0.8" ry="0.8"/>
	
		<ellipse transform="matrix(0.4246 -0.9054 0.9054 0.4246 -307.6518 461.3113)" class="st16" cx="209.1" cy="472.7" rx="0.8" ry="0.8"/>
	
		<ellipse transform="matrix(0.5462 -0.8377 0.8377 0.5462 -310.8542 375.859)" class="st16" cx="191.5" cy="474.8" rx="0.8" ry="0.8"/>
	
		<ellipse transform="matrix(0.6503 -0.7597 0.7597 0.6503 -294.675 315.2916)" class="st16" cx="195.1" cy="477.7" rx="0.8" ry="0.8"/>
	
		<ellipse transform="matrix(0.6503 -0.7597 0.7597 0.6503 -294.9591 319.6936)" class="st16" cx="199.8" cy="480.2" rx="0.8" ry="0.8"/>
	
		<ellipse transform="matrix(0.6503 -0.7596 0.7596 0.6503 -298.705 327.0456)" class="st16" cx="205.9" cy="488" rx="0.8" ry="0.8"/>
	
		<ellipse transform="matrix(0.6503 -0.7596 0.7596 0.6503 -295.3777 325.2352)" class="st16" cx="205.6" cy="483.5" rx="0.8" ry="0.8"/>
	
		<ellipse transform="matrix(0.6503 -0.7597 0.7597 0.6503 -297.618 321.2014)" class="st16" cx="200.1" cy="483.9" rx="0.8" ry="0.8"/>
	
		<ellipse transform="matrix(0.6503 -0.7597 0.7597 0.6503 -297.584 316.187)" class="st16" cx="194.6" cy="481.3" rx="0.8" ry="0.8"/>
	
		<ellipse transform="matrix(0.6503 -0.7597 0.7597 0.6503 -297.8079 311.8234)" class="st16" cx="189.8" cy="479.4" rx="0.8" ry="0.8"/>
	
		<ellipse transform="matrix(0.6503 -0.7597 0.7597 0.6503 -300.3316 308.7238)" class="st16" cx="185.2" cy="480.6" rx="0.8" ry="0.8"/>
	
		<ellipse transform="matrix(0.6503 -0.7597 0.7597 0.6503 -300.9716 313.2587)" class="st16" cx="189.8" cy="483.5" rx="0.8" ry="0.8"/>
	
		<ellipse transform="matrix(0.6503 -0.7597 0.7597 0.6503 -301.2498 318.2563)" class="st16" cx="195.1" cy="486.3" rx="0.8" ry="0.8"/>
	
		<ellipse transform="matrix(0.6503 -0.7597 0.7597 0.6503 -302.373 323.8009)" class="st16" cx="200.5" cy="490.3" rx="0.8" ry="0.8"/>
	
		<ellipse transform="matrix(0.6503 -0.7597 0.7597 0.6503 -304.7882 320.0399)" class="st16" cx="195.2" cy="491.1" rx="0.8" ry="0.8"/>
	
		<ellipse transform="matrix(0.6503 -0.7597 0.7597 0.6503 -304.4221 314.7325)" class="st16" cx="189.6" cy="488" rx="0.8" ry="0.8"/>
	
		<ellipse transform="matrix(0.6503 -0.7597 0.7597 0.6503 -305.6882 324.475)" class="st16" cx="199.6" cy="494.3" rx="0.8" ry="0.8"/>
	
		<ellipse transform="matrix(0.6503 -0.7597 0.7597 0.6503 -304.095 309.8631)" class="st16" cx="184.5" cy="485.2" rx="0.8" ry="0.8"/>
	
		<ellipse transform="matrix(0.6503 -0.7597 0.7597 0.6503 -307.3033 308.8092)" class="st16" cx="181.8" cy="488.2" rx="0.8" ry="0.8"/>
	
		<ellipse transform="matrix(0.6503 -0.7597 0.7597 0.6503 -307.9432 312.2333)" class="st16" cx="185.2" cy="490.6" rx="0.8" ry="0.8"/>
	
		<ellipse transform="matrix(0.6503 -0.7597 0.7597 0.6503 -308.9695 316.8726)" class="st16" cx="189.7" cy="494" rx="0.8" ry="0.8"/>
	
		<ellipse transform="matrix(0.6503 -0.7596 0.7596 0.6503 -309.3011 321.8398)" class="st16" cx="195" cy="496.9" rx="0.8" ry="0.8"/>
	
		<ellipse transform="matrix(0.6503 -0.7597 0.7597 0.6503 -311.7392 318.1761)" class="st16" cx="189.7" cy="497.7" rx="0.8" ry="0.8"/>
	
		<ellipse transform="matrix(0.6503 -0.7597 0.7597 0.6503 -311.8002 313.1347)" class="st16" cx="184.2" cy="495.2" rx="0.8" ry="0.8"/>
</g>
<g>
	<g>
		<g>
			
				<linearGradient id="SVGID_13_" gradientUnits="userSpaceOnUse" x1="1082.6859" y1="221.3028" x2="1167.6666" y2="221.3028" gradientTransform="matrix(-1 0 0 -1 1686.1643 602)">
				<stop  offset="0" style="stop-color:#EFD97F"/>
				<stop  offset="0.1978" style="stop-color:#EFD87C"/>
				<stop  offset="0.3726" style="stop-color:#EED571"/>
				<stop  offset="0.5387" style="stop-color:#EDCF5F"/>
				<stop  offset="0.6984" style="stop-color:#EBC845"/>
				<stop  offset="0.7526" style="stop-color:#EAC53B"/>
				<stop  offset="1" style="stop-color:#E5AD14"/>
			</linearGradient>
			<path class="st17" d="M518.3,356.7l8.1-18.3c0-0.4,0-1,0.2-1.5c0-0.2,0-0.4,0-0.4c0-0.4,0.2-0.8,0.2-1c0-0.2,0-0.4,0.2-0.6
				c0.2-0.4,0.2-0.8,0.4-1.2c0-0.2,0-0.2,0.2-0.4c0.2-0.6,0.4-1,0.6-1.7c0-0.2,0.2-0.2,0.2-0.4c0.2-0.4,0.4-0.8,0.6-1.2
				c0-0.2,0.2-0.4,0.2-0.6c0.2-0.4,0.4-0.8,0.6-1c0-0.2,0.2-0.4,0.2-0.6c2.9-5.6,7.1-11,10-14.6c0.2-0.2,0.2-0.2,0.4-0.4
				c15.8,20,33.7,47.2,47.8,81.6c0,0,12.9,12.3,12.9,29.7c0,17.5-13.3,23.1-20.6,21.4l0,0c-8.1,7.1-19.6,2.7-21.8-8.7v-0.2
				c-0.4,0.2-1,0.6-1.7,0.8c-4.8,2.5-11.2-0.6-13.3-5l0,0l0,0c0-0.2-0.2-0.4-0.2-0.6l0.2-0.2l-1.7-14.1h0.4v-3.5l0.6-2.5
				c-0.2-0.6-0.6-1.5-0.8-2.3l-0.6-1l-0.8-2.5v-0.6c-2.7-6.4-6.7-15.4-11.9-26c-3.3-6.9-7.3-14.1-11.2-21L518.3,356.7z"/>
		</g>
		<path class="st18" d="M568.8,416.8c0,0,2.5,19.1-8.3,25.4l-1.9-5.4C558.7,436.8,570.1,430.8,568.8,416.8z"/>
		<path class="st18" d="M587.6,422.9c0,0,5,12.7,1.2,21.8c0,0-3.3,1.2-8.3,0.8C580.5,445.6,589,441.2,587.6,422.9z"/>
		<path class="st19" d="M569.3,422.9c0,0,0.2,11.4-9.6,15.6l-0.4-1.7C559.3,436.8,569.3,427.7,569.3,422.9z"/>
		<path class="st19" d="M588.4,429.5c0,0,0.6,10.6-5,16.2l-3.5-0.2C579.9,445.6,587.4,438.3,588.4,429.5z"/>
		<path class="st20" d="M518.3,356.7l8.1-18.3c0-0.4,0-1,0.2-1.5c0-0.2,0-0.4,0-0.4c0-0.4,0.2-0.8,0.2-1c0-0.2,0-0.4,0.2-0.6
			c0.2-0.4,0.2-0.8,0.4-1.2c0-0.2,0-0.2,0.2-0.4c0.2-0.6,0.4-1,0.6-1.7c0-0.2,0.2-0.2,0.2-0.4c0.2-0.4,0.4-0.8,0.6-1.2
			c0-0.2,0.2-0.4,0.2-0.6c0.2-0.4,0.4-0.8,0.6-1c0-0.2,0.2-0.4,0.2-0.6c0,0,0-0.2,0.2-0.2c10.8,21.2,22.5,49.5,23.1,73.4
			c0,0-13.3,16.9-8.5,33.3c-0.4-0.4-0.6-1-0.8-1.7l0,0l0,0c0-0.2-0.2-0.4-0.2-0.6l0.2-0.2l-1.7-14.1h0.4v-3.5l0.8-3.1l-1.9-2.7
			l-1-2.5l-20-43.5c0,0-1-1.2-2.9-4.2L518.3,356.7z"/>
		<g>
			<path class="st19" d="M542.4,412.9l-0.6-1.2l0,0c-0.2-0.4-13.1-28.9-25-52l1.2-2.9l0,0c10.8,20.8,22.7,47,25.4,52.8
				c0.4-1.2,0.8-1.7,0.8-1.7l0,0c1-1.9,2.3-3.5,2.5-3.5c0.2-0.2,0.6-0.2,0.8,0c0.2,0.2,0.2,0.6,0,0.8c-0.2,0.2-0.6,0.6-0.8,1
				c0,0-6.9,10.6-3.1,25.8l0,0c0.8,2.3,2.9,4.2,5.4,5.2c2.5,1,5.2,1,7.3,0c8.5-4.2,13.1-13.3,11.2-22.3c0-0.4,0.2-0.6,0.4-0.8
				c0.4,0,0.6,0.2,0.8,0.4c1.9,8.7-2.1,17.7-9.8,22.5c1.2,5.4,4.6,9.4,9.2,10.8c4.4,1.2,8.9,0,12.5-3.5c8.9-8.9,5.6-22.5,5.4-22.5
				c0-0.4,0.2-0.6,0.4-0.8c0.4,0,0.6,0.2,0.8,0.4c0,0.2,3.5,14.4-5.8,23.7l0,0c2.9,0.2,7.3-0.6,11.2-3.7c3.3-2.7,7.3-7.9,7.3-17.3
				c0-16.9-12.7-29.1-12.7-29.3l-0.2-0.2c-13.9-34.3-32-61.4-47.6-81.1l0.2-0.2c1-1.2,2.1-2.3,2.7-3.1l0,0
				c5.2,6.4,10.6,13.7,16,22.1l0,0c0,0,25.8,38.5,31.6,60.1c7.1,9.2,20.2,30.2,7.7,46c-1.2,1.9-2.7,3.3-4,4.4c-0.4,0.4-1,0.8-1.7,1
				c-0.2,0-0.2,0.2-0.2,0.2l0,0c-2.9,1.9-6,2.7-9.2,2.7c-0.8,0-1.7,0-2.3-0.2c-2.7,2.3-5.8,3.3-8.9,3.3c-1.2,0-2.5-0.2-3.7-0.6
				c-5-1.5-8.5-5.6-10-11.4c-0.2,0.2-0.6,0.4-0.8,0.4c-1.2,0.6-2.7,0.8-4.2,0.8c-1.5,0-2.7-0.2-4.2-0.8c-2.7-1-4.8-3.1-5.8-5.4l0,0
				c0,0,0,0,0-0.2c0-0.2-0.2-0.2-0.2-0.4l0,0c0,0-1-2.7-1.5-7.1c-0.2-1.7-0.2-3.7,0-5.8C541.6,416.8,542,414.6,542.4,412.9z"/>
		</g>
	</g>
	<g>
		<g>
			
				<linearGradient id="SVGID_14_" gradientUnits="userSpaceOnUse" x1="291.0751" y1="221.1304" x2="376.0558" y2="221.1304" gradientTransform="matrix(1 0 0 -1 0 602)">
				<stop  offset="0" style="stop-color:#EFD97F"/>
				<stop  offset="0.1978" style="stop-color:#EFD87C"/>
				<stop  offset="0.3726" style="stop-color:#EED571"/>
				<stop  offset="0.5387" style="stop-color:#EDCF5F"/>
				<stop  offset="0.6984" style="stop-color:#EBC845"/>
				<stop  offset="0.7526" style="stop-color:#EAC53B"/>
				<stop  offset="1" style="stop-color:#E5AD14"/>
			</linearGradient>
			<path class="st24" d="M376.2,356.9l-8.1-18.3c0-0.4,0-1-0.2-1.5c0-0.2,0-0.4,0-0.4c0-0.4-0.2-0.8-0.2-1c0-0.2,0-0.4-0.2-0.6
				c-0.2-0.4-0.2-0.8-0.4-1.2c0-0.2,0-0.2-0.2-0.4c-0.2-0.6-0.4-1-0.6-1.7c0-0.2-0.2-0.2-0.2-0.4c-0.2-0.4-0.4-0.8-0.6-1.2
				c0-0.2-0.2-0.4-0.2-0.6c-0.2-0.4-0.4-0.8-0.6-1c0-0.2-0.2-0.4-0.2-0.6c-2.9-5.6-7.1-11-10-14.6c-0.2-0.2-0.2-0.2-0.4-0.4
				c-15.8,20-33.7,47.2-47.8,81.6c0,0-12.9,12.3-12.9,29.7c0,17.5,13.3,23.1,20.6,21.4l0,0c8.1,7.1,19.6,2.7,21.8-8.7v-0.2
				c0.4,0.2,1,0.6,1.7,0.8c4.8,2.5,11.2-0.6,13.3-5l0,0l0,0c0-0.2,0.2-0.4,0.2-0.6l-0.2-0.2l1.7-14.1h-0.4v-3.5l-0.6-2.5
				c0.2-0.6,0.6-1.5,0.8-2.3l0.6-1l0.8-2.5V405c2.7-6.4,6.7-15.4,11.9-26c3.3-6.9,7.3-14.1,11.2-21L376.2,356.9z"/>
		</g>
		<path class="st18" d="M325.6,417c0,0-2.5,19.1,8.3,25.4l1.9-5.4C336,437,324.4,431,325.6,417z"/>
		<path class="st18" d="M307.1,423.1c0,0-5,12.7-1.2,21.8c0,0,3.3,1.2,8.3,0.8C314.2,445.7,305.7,441.4,307.1,423.1z"/>
		<path class="st19" d="M325.4,423.1c0,0-0.2,11.4,9.6,15.6l0.4-1.7C335.4,437,325.2,427.8,325.4,423.1z"/>
		<path class="st19" d="M306.3,429.7c0,0-0.6,10.6,5,16.2l3.5-0.2C314.8,445.7,307.1,438.5,306.3,429.7z"/>
		<path class="st20" d="M376.2,356.9l-8.1-18.3c0-0.4,0-1-0.2-1.5c0-0.2,0-0.4,0-0.4c0-0.4-0.2-0.8-0.2-1c0-0.2,0-0.4-0.2-0.6
			c-0.2-0.4-0.2-0.8-0.4-1.2c0-0.2,0-0.2-0.2-0.4c-0.2-0.6-0.4-1-0.6-1.7c0-0.2-0.2-0.2-0.2-0.4c-0.2-0.4-0.4-0.8-0.6-1.2
			c0-0.2-0.2-0.4-0.2-0.6c-0.2-0.4-0.4-0.8-0.6-1c0-0.2-0.2-0.4-0.2-0.6c0,0,0-0.2-0.2-0.2c-10.8,21.2-22.5,49.5-23.1,73.4
			c0,0,13.3,16.9,8.5,33.3c0.4-0.4,0.6-1,0.8-1.7l0,0l0,0c0-0.2,0.2-0.4,0.2-0.6l-0.2-0.2l1.7-14.1h-0.4v-3.5l-0.8-3.1l1.9-2.7
			l1-2.5l20-43.5c0,0,1-1.2,2.9-4.2L376.2,356.9z"/>
		<g>
			<path class="st19" d="M352.1,413.1l0.6-1.2l0,0c0.2-0.4,13.1-28.9,25-52l-1.2-2.9l0,0c-10.8,20.8-22.7,47-25.4,52.8
				c-0.4-1.2-0.8-1.7-0.8-1.7l0,0c-1-1.9-2.3-3.5-2.5-3.5c-0.2-0.2-0.6-0.2-0.8,0c-0.2,0.2-0.2,0.6,0,0.8c0.2,0.2,0.6,0.6,0.8,1
				c0,0,6.9,10.6,3.1,25.8l0,0c-0.8,2.3-2.9,4.2-5.4,5.2c-2.5,1-5.2,1-7.3,0c-8.5-4.2-13.1-13.3-11.2-22.3c0-0.4-0.2-0.6-0.4-0.8
				c-0.4,0-0.6,0.2-0.8,0.4c-1.9,8.7,2.1,17.7,9.8,22.5c-1.2,5.4-4.6,9.4-9.2,10.8c-4.4,1.2-8.9,0-12.5-3.5
				c-8.9-8.9-5.6-22.5-5.4-22.5c0-0.4-0.2-0.6-0.4-0.8c-0.4,0-0.6,0.2-0.8,0.4c0,0.2-3.5,14.4,5.8,23.7l0,0
				c-2.9,0.2-7.3-0.6-11.2-3.7c-3.3-2.7-7.3-7.9-7.3-17.3c0-16.9,12.7-29.1,12.7-29.3l0.2-0.2c13.9-34.3,32-61.4,47.6-81.1l-0.2-0.2
				c-1-1.2-2.1-2.3-2.7-3.1l0,0c-5.2,6.4-10.6,13.7-16,22.1l0,0c0,0-25.8,38.5-31.6,60.1c-7.1,9.2-20.2,30.2-7.7,46
				c1.2,1.9,2.7,3.3,4,4.4c0.4,0.4,1,0.8,1.7,1c0.2,0,0.2,0.2,0.2,0.2l0,0c2.9,1.9,6,2.7,9.2,2.7c0.8,0,1.7,0,2.3-0.2
				c2.7,2.3,5.8,3.3,8.9,3.3c1.2,0,2.5-0.2,3.7-0.6c5-1.5,8.5-5.6,10-11.4c0.2,0.2,0.6,0.4,0.8,0.4c1.2,0.6,2.7,0.8,4.2,0.8
				c1.5,0,2.7-0.2,4.2-0.8c2.7-1,4.8-3.1,5.8-5.4l0,0c0,0,0,0,0-0.2c0-0.2,0.2-0.2,0.2-0.4l0,0c0,0,1-2.7,1.5-7.1
				c0.2-1.7,0.2-3.7,0-5.8C353.1,417,352.5,414.7,352.1,413.1z"/>
		</g>
	</g>
</g>
</svg>
