<?xml version="1.0" encoding="utf-8"?>
<!-- Generator: Adobe Illustrator 21.0.0, SVG Export Plug-In . SVG Version: 6.00 Build 0)  -->
<svg version="1.1" id="圖層_1" xmlns="http://www.w3.org/2000/svg" xmlns:xlink="http://www.w3.org/1999/xlink" x="0px" y="0px"
	 viewBox="0 0 822.9 601.4" style="enable-background:new 0 0 822.9 601.4;" xml:space="preserve">
<style type="text/css">
	.st0{fill:url(#SVGID_1_);}
	.st1{fill:#AB6C21;}
	.st2{fill:url(#SVGID_2_);}
	.st3{fill:url(#SVGID_3_);}
	.st4{fill:url(#SVGID_4_);}
	.st5{fill:url(#SVGID_5_);}
	.st6{opacity:0.6;fill:#E1BE3F;}
	.st7{fill:url(#SVGID_6_);}
	.st8{fill:url(#SVGID_7_);}
	.st9{fill:url(#SVGID_8_);}
	.st10{fill:url(#SVGID_9_);}
	.st11{fill:url(#SVGID_10_);}
	.st12{fill:#A8B8D1;}
	.st13{fill:url(#SVGID_11_);}
	.st14{fill:url(#SVGID_12_);}
	.st15{fill:url(#SVGID_13_);}
	.st16{fill:url(#SVGID_14_);}
	.st17{fill:url(#SVGID_15_);}
	.st18{fill:url(#SVGID_16_);}
	.st19{fill:url(#SVGID_17_);}
	.st20{fill:url(#SVGID_18_);}
	.st21{fill:url(#SVGID_19_);}
	.st22{fill:url(#SVGID_20_);}
	.st23{fill:url(#SVGID_21_);}
	.st24{fill:url(#SVGID_22_);}
	.st25{fill:url(#SVGID_23_);}
	.st26{fill:url(#SVGID_24_);}
	.st27{fill:url(#SVGID_25_);}
	.st28{fill:#FFFFFF;}
	.st29{fill:#B4B4B5;}
	.st30{fill:#D2503A;}
	.st31{opacity:0.8;fill:#E8E5CB;}
	.st32{fill:url(#SVGID_26_);}
	.st33{fill:#E1BE3F;}
	.st34{fill:url(#SVGID_27_);}
	.st35{fill:#66411D;}
	.st36{fill:url(#SVGID_28_);}
	.st37{fill:#D9B974;}
	.st38{fill:#DCBF93;}
	.st39{fill:url(#SVGID_29_);}
	.st40{fill:url(#SVGID_30_);}
	.st41{fill:url(#SVGID_31_);}
	.st42{fill:url(#SVGID_32_);}
	.st43{fill:#8C5924;}
	.st44{fill:url(#SVGID_33_);}
	.st45{fill:url(#SVGID_34_);}
	.st46{fill:url(#SVGID_35_);}
	.st47{fill:url(#SVGID_36_);}
	.st48{fill:#F4E3A5;}
	.st49{fill:#DEB87D;}
	.st50{fill:url(#SVGID_37_);}
	.st51{fill:url(#SVGID_38_);}
	.st52{fill:#3F210F;}
	.st53{opacity:0.25;fill:#E1BE3F;}
	.st54{opacity:0.5;fill:#E1BE3F;}
	.st55{fill:#F8E5A9;}
	.st56{fill:#DDBC90;}
	.st57{opacity:0.4;fill:#E1BE3F;}
	.st58{fill:#875424;}
	.st59{fill:#3F210E;}
	.st60{fill:#C88E2C;}
	.st61{fill:#AC7327;}
	.st62{fill:#814323;}
	.st63{fill:#D7C6A6;}
	.st64{fill:url(#SVGID_39_);}
	.st65{fill:#4A1E0E;}
	.st66{fill:#3A1D13;}
	.st67{fill:url(#SVGID_40_);}
	.st68{fill:#EAA593;}
	.st69{fill:url(#SVGID_41_);}
	.st70{fill:url(#SVGID_42_);}
	.st71{fill:#D59543;}
	.st72{opacity:0.6;fill:#D59543;}
	.st73{fill:url(#SVGID_43_);}
	.st74{fill:url(#SVGID_44_);}
</style>
<g>
	<g>
		<g>
			<linearGradient id="SVGID_1_" gradientUnits="userSpaceOnUse" x1="303.437" y1="346.4785" x2="375.6604" y2="346.4785">
				<stop  offset="0" style="stop-color:#EFD97F"/>
				<stop  offset="0.1978" style="stop-color:#EFD87C"/>
				<stop  offset="0.3726" style="stop-color:#EED571"/>
				<stop  offset="0.5387" style="stop-color:#EDCF5F"/>
				<stop  offset="0.6984" style="stop-color:#EBC845"/>
				<stop  offset="0.7526" style="stop-color:#EAC53B"/>
				<stop  offset="1" style="stop-color:#E5AD14"/>
			</linearGradient>
			<path class="st0" d="M367.5,325.4c-1.8-3.5-6.1-10.2-13.6-13.3l-8.4,10.7l-12.1,13.6l-16.9,14l-13.8,10.3c0,0,0.8,13.3,16.9,17.5
				c12.4,3.2,25.9,2.7,31.5,2.3C354.8,358.7,361.3,339.9,367.5,325.4z"/>
			<path class="st1" d="M354,379.3c-0.3-0.8-1.1-1.2-1.9-1c-0.1,0-9.3,2.8-27-0.3c-16.3-2.9-19.2-13.1-19.5-14.4l-0.5-0.5l-0.7,0
				l-1.3-0.3l-0.5,0.7c-0.1,0.2-0.1,0.4,0,0.7c0.1,0.5,2.8,13.5,22,16.9c6.6,1.2,12,1.6,16.3,1.6c7.8,0,11.8-1.2,12.1-1.3
				C353.8,380.9,354.2,380.1,354,379.3z"/>
			<path class="st1" d="M355.1,309.4L355.1,309.4l-3.2,1c0,0-15.4,17.9-18.5,22.7l0.7,0.3l3.3-0.3l2.9-1.4l14.7-18.3l1.1-1.4
				l0.3-1.6C356.6,310.3,356.2,308.8,355.1,309.4z"/>
		</g>
		<path class="st1" d="M328.8,359.6c0,0,0.5,5,4.9,5.4l-0.6,0.8l-4.1-1.5L328.8,359.6z"/>
		<g>
			<linearGradient id="SVGID_2_" gradientUnits="userSpaceOnUse" x1="339.4349" y1="329.8319" x2="342.1015" y2="363.6097">
				<stop  offset="0" style="stop-color:#EFD97F"/>
				<stop  offset="0.1978" style="stop-color:#EFD87C"/>
				<stop  offset="0.3726" style="stop-color:#EED571"/>
				<stop  offset="0.5387" style="stop-color:#EDCF5F"/>
				<stop  offset="0.6984" style="stop-color:#EBC845"/>
				<stop  offset="0.7526" style="stop-color:#EAC53B"/>
				<stop  offset="1" style="stop-color:#E5AD14"/>
			</linearGradient>
			<path class="st2" d="M353.5,343.7c0.9,6.2,0.3,13.1-1.4,15.1c-3.1,3.7-12.6,9.6-22.5,4.7c-0.5-2.1-3.5-14.6,1.5-23.7
				c1.1-2,2.3-3.6,3.7-4.7c4.9-4.1,11-2.7,15.1,0C351.6,336.1,352.9,339.3,353.5,343.7z"/>
			<linearGradient id="SVGID_3_" gradientUnits="userSpaceOnUse" x1="318.7907" y1="331.4554" x2="321.4574" y2="365.2331">
				<stop  offset="0" style="stop-color:#EFD97F"/>
				<stop  offset="0.1978" style="stop-color:#EFD87C"/>
				<stop  offset="0.3726" style="stop-color:#EED571"/>
				<stop  offset="0.5387" style="stop-color:#EDCF5F"/>
				<stop  offset="0.6984" style="stop-color:#EBC845"/>
				<stop  offset="0.7526" style="stop-color:#EAC53B"/>
				<stop  offset="1" style="stop-color:#E5AD14"/>
			</linearGradient>
			<path class="st3" d="M315,332.5c6.9-2.7,13.8,0,17.1,1.6c-2.5,2-4.9,5.4-5.9,10.8c-2.2,11,0.1,16.3,1.6,18.6
				c-16.6,2.9-18.3-2.4-19.3-5.6c-0.1-0.4-0.2-0.7-0.3-1c-0.8-2-1.6-11.7,1.3-18.5C310.7,335.4,312.6,333.4,315,332.5z"/>
			<linearGradient id="SVGID_4_" gradientUnits="userSpaceOnUse" x1="301.4421" y1="332.8313" x2="304.1088" y2="366.6091">
				<stop  offset="0" style="stop-color:#EFD97F"/>
				<stop  offset="0.1978" style="stop-color:#EFD87C"/>
				<stop  offset="0.3726" style="stop-color:#EED571"/>
				<stop  offset="0.5387" style="stop-color:#EDCF5F"/>
				<stop  offset="0.6984" style="stop-color:#EBC845"/>
				<stop  offset="0.7526" style="stop-color:#EAC53B"/>
				<stop  offset="1" style="stop-color:#E5AD14"/>
			</linearGradient>
			<path class="st4" d="M296,359c-2-1.8-3.1-5.6-2.9-10.2c0.2-5.8,2.3-11.1,5.2-13.3c4-3,9.9-2.9,12.9-2.6c-2.6,2.1-6,6.4-6.4,14.5
				c-0.4,7.8,1.1,12,3.4,14.5C305.4,362.2,299.7,362.3,296,359z"/>
			<g>
				<linearGradient id="SVGID_5_" gradientUnits="userSpaceOnUse" x1="291.6079" y1="333.6077" x2="294.2746" y2="367.3855">
					<stop  offset="0" style="stop-color:#EFD97F"/>
					<stop  offset="0.1978" style="stop-color:#EFD87C"/>
					<stop  offset="0.3726" style="stop-color:#EED571"/>
					<stop  offset="0.5387" style="stop-color:#EDCF5F"/>
					<stop  offset="0.6984" style="stop-color:#EBC845"/>
					<stop  offset="0.7526" style="stop-color:#EAC53B"/>
					<stop  offset="1" style="stop-color:#E5AD14"/>
				</linearGradient>
				<path class="st5" d="M299.7,333c-2.5,1.1-5.8,3.5-7.6,8.5c-1.1,2.8-1.7,6-1.6,9c-1.7-0.8-3.9-2.1-5.1-4.3
					c-1.1-1.9-1.3-4.2-0.6-6.8C287.1,330.8,290,331.3,299.7,333z"/>
				<path class="st6" d="M299.7,333c-5.6-1-8.9-1.5-11.2-0.1c0.4-0.1,4.6-0.9,6.6,1.4c0,0-8.5,6.7-4.6,16.1c-0.1-3,0.6-6.2,1.6-9
					C293.9,336.5,297.2,334.1,299.7,333z"/>
				<path class="st6" d="M298.3,335.6c-1.7,1.3-3.1,3.6-4,6.5l2-4.3c0,0,5-1.6,9-0.5c0,0-7,10.9,1.3,22.2l0,0
					c-1.3-2.6-2.1-6.4-1.8-12.1c0.5-8.1,3.8-12.4,6.4-14.5C308.2,332.7,302.4,332.6,298.3,335.6z"/>
				<path class="st6" d="M315,332.5c-2.4,1-4.3,3-5.6,6c0,0,7.7-4.9,18.1-1.6c0,0-5.8,8.9-2.2,15.8l0,0c0-2.2,0.3-4.8,0.9-7.7
					c1.1-5.5,3.4-8.8,5.9-10.8C328.9,332.5,321.9,329.8,315,332.5z"/>
				<path class="st6" d="M349.9,335c-4.1-2.7-10.2-4-15.1,0c-1,0.8-1.8,1.8-2.7,3c5.1-0.5,14.8-0.6,21.1,4.1
					C352.6,338.5,351.4,336,349.9,335z"/>
				<path class="st1" d="M302.6,363.4c0,0,2,0.2,3,0.2c0,0,0,0,0,0c0.1,0,0.1,0,0.2,0c1.8,0,3.2-0.2,3.9-0.3c1.4,1,2.9,1.6,4.4,2.1
					l0-0.1c1.4,0.4,3.2,0.6,5.3,0.6c2.6,0,5.7-0.3,9.5-1c2.9,1.4,5.8,2,8.5,2c7.3,0,13.4-4.2,15.9-7.1c2.2-2.6,2.7-10.3,1.8-16.3
					c-0.4-2.9-1.5-7.9-4.3-9.7c-2.4-1.5-5.4-2.7-8.5-2.8c0,0,0,0,0,0c0,0-4.5-0.6-8.8,2.1c-3-1.7-10.9-5.2-19-2.1
					c0,0-0.5,0.2-1.4,0.6c-1.3-0.2-5.8-0.8-10.3,0.3c-0.9-0.2-1.8-0.3-2.7-0.5c-5-0.9-8.5-1.5-11.2-0.5c0,0,0,0,0,0
					c0,0-5.6,1.5-6.9,8c-1.2,6.3,0,10.8,8.6,14.2c0.7,4,3,7.5,7.7,9.1l0,0C299.7,362.8,301.2,363.2,302.6,363.4z M334.8,335.1
					c4.9-4.1,11-2.7,15.1,0c1.7,1.1,3,4.2,3.6,8.7c0.9,6.2,0.3,13.1-1.4,15.1c-3.1,3.7-12.6,9.6-22.5,4.7
					c-0.5-2.1-3.5-14.6,1.5-23.7C332.2,337.9,333.4,336.3,334.8,335.1z M315,332.5c6.9-2.7,13.8,0,17.1,1.6c-2.5,2-4.9,5.4-5.9,10.8
					c-2.2,11,0.1,16.3,1.6,18.6c-16.6,2.9-18.3-2.4-19.3-5.6c-0.1-0.4-0.2-0.7-0.3-1c-0.8-2-1.6-11.7,1.3-18.5
					C310.7,335.4,312.6,333.4,315,332.5z M290.4,350.4c-1.7-0.8-3.9-2.1-5.1-4.3c-1.1-1.9-1.3-4.2-0.6-6.8c2.5-8.5,5.4-8.1,15-6.4
					c-2.5,1.1-5.8,3.5-7.6,8.5C291,344.2,290.3,347.4,290.4,350.4z M293.1,348.9c0.2-5.8,2.3-11.1,5.2-13.3c4-3,9.9-2.9,12.9-2.6
					c-2.6,2.1-6,6.4-6.4,14.5c-0.4,7.8,1.1,12,3.4,14.5c-2.8,0.3-8.6,0.3-12.2-2.9C294,357.3,292.9,353.5,293.1,348.9z"/>
			</g>
		</g>
	</g>
	<g>
		<linearGradient id="SVGID_6_" gradientUnits="userSpaceOnUse" x1="247.8018" y1="269.085" x2="410.4324" y2="269.085">
			<stop  offset="0" style="stop-color:#FFFFFF"/>
			<stop  offset="1" style="stop-color:#FFFCE4"/>
		</linearGradient>
		<path class="st7" d="M285.8,247.2l107.1,4.7l-0.6,13.4c0,0.4,0.3,0.8,0.7,0.8l9.5,0.4l-0.5,12c0,0.2,0.1,0.4,0.2,0.5
			c0.1,0.1,0.3,0.2,0.5,0.2l7.7,0.3l-0.5,11.3l-162.1-7.1C252,278.1,271.7,252.4,285.8,247.2z"/>
		<linearGradient id="SVGID_7_" gradientUnits="userSpaceOnUse" x1="263.8006" y1="282.9789" x2="337.5105" y2="282.9789">
			<stop  offset="0" style="stop-color:#FFFFFF"/>
			<stop  offset="1" style="stop-color:#D7DDE8"/>
		</linearGradient>
		<polygon class="st8" points="264.1,278.2 337.5,280.9 336.7,287.7 263.8,284.5 		"/>
		<linearGradient id="SVGID_8_" gradientUnits="userSpaceOnUse" x1="353.0125" y1="247.179" x2="388.5682" y2="247.179">
			<stop  offset="0" style="stop-color:#FFFFFF"/>
			<stop  offset="1" style="stop-color:#FFFCE4"/>
		</linearGradient>
		<polygon class="st9" points="353.2,244.1 388.6,245.7 388.4,250.2 353,248.7 		"/>
		<linearGradient id="SVGID_9_" gradientUnits="userSpaceOnUse" x1="292.4041" y1="244.7538" x2="338.6161" y2="244.7538">
			<stop  offset="0" style="stop-color:#FFFFFF"/>
			<stop  offset="1" style="stop-color:#FFFCE4"/>
		</linearGradient>
		<polygon class="st10" points="292.6,241.5 338.6,243.5 338.4,248 292.4,246 		"/>
		<linearGradient id="SVGID_10_" gradientUnits="userSpaceOnUse" x1="208.6717" y1="309.8211" x2="415.7928" y2="309.8211">
			<stop  offset="0" style="stop-color:#FFFFFF"/>
			<stop  offset="0.5929" style="stop-color:#FFFDF1"/>
			<stop  offset="1" style="stop-color:#FFFCE4"/>
		</linearGradient>
		<path class="st11" d="M413,333.7c-1.2,1.2-3.9,2.6-9.9,2.3l-164.2-7.2c-1.9-1.4-19.1-14.5-30.2-45.2l207.1,9.1l-1.7,38.7
			C414.1,331.4,414.1,332.6,413,333.7z"/>
		<path class="st12" d="M338.5,263.7C338.5,263.7,338.5,263.7,338.5,263.7l-55.1-2.4c-0.4,0-0.7-0.4-0.7-0.8l0.3-7.8
			c0-0.2,0.1-0.4,0.2-0.5c0.1-0.1,0.3-0.2,0.5-0.2l55.1,2.4c0.2,0,0.4,0.1,0.5,0.2c0.1,0.1,0.2,0.3,0.2,0.5l-0.3,7.8
			C339.2,263.4,338.9,263.7,338.5,263.7z M284.2,259.8l53.6,2.4l0.3-6.3l-53.6-2.4L284.2,259.8z"/>
		<path class="st12" d="M388.5,265.9C388.5,265.9,388.4,265.9,388.5,265.9l-41-1.8c-0.4,0-0.7-0.4-0.7-0.8l0.3-7.8
			c0-0.2,0.1-0.4,0.2-0.5c0.1-0.1,0.3-0.2,0.5-0.2l41,1.8c0.4,0,0.7,0.4,0.7,0.8l-0.3,7.8c0,0.2-0.1,0.4-0.2,0.5
			C388.8,265.8,388.7,265.9,388.5,265.9z M348.3,262.6l39.5,1.7l0.3-6.3l-39.5-1.7L348.3,262.6z"/>
		<path class="st12" d="M338,276.5C337.9,276.5,337.9,276.5,338,276.5l-64.4-2.8c-0.4,0-0.7-0.4-0.7-0.8l0.3-7.8
			c0-0.4,0.4-0.7,0.8-0.7l64.4,2.8c0.4,0,0.7,0.4,0.7,0.8l-0.3,7.8c0,0.2-0.1,0.4-0.2,0.5C338.3,276.4,338.1,276.5,338,276.5z
			 M274.4,272.2l62.9,2.8l0.3-6.3l-62.9-2.8L274.4,272.2z"/>
		<path class="st12" d="M396.6,279.1C396.6,279.1,396.5,279.1,396.6,279.1l-49.7-2.2c-0.2,0-0.4-0.1-0.5-0.2
			c-0.1-0.1-0.2-0.3-0.2-0.5l0.3-7.8c0-0.4,0.4-0.7,0.8-0.7l49.6,2.2c0.4,0,0.7,0.4,0.7,0.8l-0.3,7.8c0,0.2-0.1,0.4-0.2,0.5
			C396.9,279,396.7,279.1,396.6,279.1z M347.7,275.4l48.1,2.1l0.3-6.3l-48.1-2.1L347.7,275.4z"/>
		<linearGradient id="SVGID_11_" gradientUnits="userSpaceOnUse" x1="284.2361" y1="257.8715" x2="338.0711" y2="257.8715">
			<stop  offset="0" style="stop-color:#FFFFFF"/>
			<stop  offset="1" style="stop-color:#D7DDE8"/>
		</linearGradient>
		<polygon class="st13" points="284.2,259.8 337.8,262.2 338.1,255.9 284.5,253.6 		"/>
		<linearGradient id="SVGID_12_" gradientUnits="userSpaceOnUse" x1="348.2752" y1="260.3724" x2="388.0223" y2="260.3724">
			<stop  offset="0" style="stop-color:#FFFFFF"/>
			<stop  offset="1" style="stop-color:#D7DDE8"/>
		</linearGradient>
		<polygon class="st14" points="348.3,262.6 387.7,264.4 388,258.1 348.6,256.4 		"/>
		<linearGradient id="SVGID_13_" gradientUnits="userSpaceOnUse" x1="274.3514" y1="270.4325" x2="337.5105" y2="270.4325">
			<stop  offset="0" style="stop-color:#FFFFFF"/>
			<stop  offset="1" style="stop-color:#D7DDE8"/>
		</linearGradient>
		<polygon class="st15" points="274.4,272.2 337.2,274.9 337.5,268.7 274.6,265.9 		"/>
		<linearGradient id="SVGID_14_" gradientUnits="userSpaceOnUse" x1="347.7146" y1="273.328" x2="396.1209" y2="273.328">
			<stop  offset="0" style="stop-color:#FFFFFF"/>
			<stop  offset="1" style="stop-color:#D7DDE8"/>
		</linearGradient>
		<polygon class="st16" points="347.7,275.4 395.8,277.5 396.1,271.2 348,269.1 		"/>
		<path class="st12" d="M404.7,292.2C404.6,292.2,404.6,292.2,404.7,292.2l-58.3-2.6c-0.4,0-0.7-0.4-0.7-0.8l0.3-7.8
			c0-0.2,0.1-0.4,0.2-0.5c0.1-0.1,0.3-0.2,0.5-0.2l58.3,2.6c0.4,0,0.7,0.4,0.7,0.8l-0.3,7.8c0,0.2-0.1,0.4-0.2,0.5
			C405,292.1,404.8,292.2,404.7,292.2z M347.2,288.2l56.8,2.5l0.3-6.3l-56.8-2.5L347.2,288.2z"/>
		<path class="st12" d="M236.6,295.9C236.5,295.9,236.5,295.9,236.6,295.9l-8.7-0.4c-0.4,0-0.7-0.4-0.7-0.8l0.2-5.3
			c0-0.2,0.1-0.4,0.2-0.5c0.1-0.1,0.3-0.2,0.5-0.2l8.7,0.4c0.2,0,0.4,0.1,0.5,0.2c0.1,0.1,0.2,0.3,0.2,0.5l-0.2,5.3
			C237.3,295.6,237,295.9,236.6,295.9z M228.7,294.1l7.2,0.3l0.2-3.8l-7.2-0.3L228.7,294.1z"/>
		<path class="st12" d="M254.5,296.7C254.5,296.7,254.5,296.7,254.5,296.7l-8.7-0.4c-0.2,0-0.4-0.1-0.5-0.2
			c-0.1-0.1-0.2-0.3-0.2-0.5l0.2-5.3c0-0.4,0.4-0.8,0.8-0.7l8.7,0.4c0.2,0,0.4,0.1,0.5,0.2c0.1,0.1,0.2,0.3,0.2,0.5l-0.2,5.3
			C255.3,296.4,254.9,296.7,254.5,296.7z M246.7,294.9l7.2,0.3l0.2-3.8l-7.2-0.3L246.7,294.9z"/>
		<path class="st12" d="M272.5,297.5C272.5,297.5,272.5,297.5,272.5,297.5l-8.7-0.4c-0.4,0-0.7-0.4-0.7-0.8l0.2-5.3
			c0-0.2,0.1-0.4,0.2-0.5c0.1-0.1,0.3-0.2,0.5-0.2l8.7,0.4c0.4,0,0.7,0.4,0.7,0.8l-0.2,5.3c0,0.2-0.1,0.4-0.2,0.5
			C272.9,297.5,272.7,297.5,272.5,297.5z M264.6,295.7l7.2,0.3l0.2-3.8l-7.2-0.3L264.6,295.7z"/>
		<path class="st12" d="M290.5,298.3C290.5,298.3,290.5,298.3,290.5,298.3l-8.7-0.4c-0.4,0-0.7-0.4-0.7-0.8l0.2-5.3
			c0-0.2,0.1-0.4,0.2-0.5c0.1-0.1,0.3-0.2,0.5-0.2l8.7,0.4c0.4,0,0.7,0.4,0.7,0.8l-0.2,5.3c0,0.2-0.1,0.4-0.2,0.5
			C290.9,298.2,290.7,298.3,290.5,298.3z M282.6,296.5l7.2,0.3l0.2-3.8l-7.2-0.3L282.6,296.5z"/>
		<path class="st12" d="M308.5,299.1C308.5,299.1,308.5,299.1,308.5,299.1l-8.7-0.4c-0.2,0-0.4-0.1-0.5-0.2
			c-0.1-0.1-0.2-0.3-0.2-0.5l0.2-5.3c0-0.4,0.4-0.8,0.8-0.7l8.7,0.4c0.2,0,0.4,0.1,0.5,0.2c0.1,0.1,0.2,0.3,0.2,0.5l-0.2,5.3
			C309.2,298.8,308.9,299.1,308.5,299.1z M300.6,297.3l7.2,0.3l0.2-3.8l-7.2-0.3L300.6,297.3z"/>
		<path class="st12" d="M326.5,299.9C326.5,299.9,326.4,299.9,326.5,299.9l-8.7-0.4c-0.2,0-0.4-0.1-0.5-0.2
			c-0.1-0.1-0.2-0.3-0.2-0.5l0.2-5.3c0-0.4,0.4-0.7,0.8-0.7l8.7,0.4c0.4,0,0.7,0.4,0.7,0.8l-0.2,5.3c0,0.2-0.1,0.4-0.2,0.5
			C326.8,299.8,326.7,299.9,326.5,299.9z M318.6,298l7.2,0.3l0.2-3.8l-7.2-0.3L318.6,298z"/>
		<path class="st12" d="M344.5,300.7C344.4,300.7,344.4,300.7,344.5,300.7l-8.7-0.4c-0.4,0-0.7-0.4-0.7-0.8l0.2-5.3
			c0-0.2,0.1-0.4,0.2-0.5c0.1-0.1,0.3-0.2,0.5-0.2l8.7,0.4c0.4,0,0.7,0.4,0.7,0.8l-0.2,5.3c0,0.2-0.1,0.4-0.2,0.5
			C344.8,300.6,344.6,300.7,344.5,300.7z M336.6,298.8l7.2,0.3l0.2-3.8l-7.2-0.3L336.6,298.8z"/>
		<path class="st12" d="M362.4,301.5C362.4,301.5,362.4,301.5,362.4,301.5l-8.7-0.4c-0.4,0-0.7-0.4-0.7-0.8l0.2-5.3
			c0-0.2,0.1-0.4,0.2-0.5c0.1-0.1,0.3-0.2,0.5-0.2l8.7,0.4c0.2,0,0.4,0.1,0.5,0.2c0.1,0.1,0.2,0.3,0.2,0.5l-0.2,5.3
			C363.2,301.2,362.8,301.5,362.4,301.5z M354.6,299.6l7.2,0.3l0.2-3.8l-7.2-0.3L354.6,299.6z"/>
		<path class="st12" d="M380.4,302.3C380.4,302.3,380.4,302.3,380.4,302.3l-8.7-0.4c-0.2,0-0.4-0.1-0.5-0.2
			c-0.1-0.1-0.2-0.3-0.2-0.5l0.2-5.3c0-0.4,0.4-0.7,0.8-0.7l8.7,0.4c0.2,0,0.4,0.1,0.5,0.2c0.1,0.1,0.2,0.3,0.2,0.5l-0.2,5.3
			C381.1,301.9,380.8,302.3,380.4,302.3z M372.5,300.4l7.2,0.3l0.2-3.8l-7.2-0.3L372.5,300.4z"/>
		<path class="st12" d="M398.4,303C398.4,303,398.4,303,398.4,303l-8.7-0.4c-0.4,0-0.7-0.4-0.7-0.8l0.2-5.3c0-0.2,0.1-0.4,0.2-0.5
			s0.3-0.2,0.5-0.2l8.7,0.4c0.4,0,0.7,0.4,0.7,0.8l-0.2,5.3c0,0.2-0.1,0.4-0.2,0.5C398.8,303,398.6,303,398.4,303z M390.5,301.2
			l7.2,0.3l0.2-3.8l-7.2-0.3L390.5,301.2z"/>
		<linearGradient id="SVGID_15_" gradientUnits="userSpaceOnUse" x1="347.1552" y1="286.2835" x2="404.2186" y2="286.2835">
			<stop  offset="0" style="stop-color:#FFFFFF"/>
			<stop  offset="1" style="stop-color:#D7DDE8"/>
		</linearGradient>
		<polygon class="st17" points="347.4,281.9 404.2,284.4 403.9,290.7 347.2,288.2 		"/>
		<linearGradient id="SVGID_16_" gradientUnits="userSpaceOnUse" x1="228.6805" y1="292.3387" x2="236.0086" y2="292.3387">
			<stop  offset="0" style="stop-color:#FFFFFF"/>
			<stop  offset="1" style="stop-color:#D7DDE8"/>
		</linearGradient>
		<polygon class="st18" points="228.7,294.1 235.8,294.4 236,290.6 228.8,290.3 		"/>
		<linearGradient id="SVGID_17_" gradientUnits="userSpaceOnUse" x1="246.6629" y1="293.1278" x2="253.991" y2="293.1278">
			<stop  offset="0" style="stop-color:#FFFFFF"/>
			<stop  offset="1" style="stop-color:#D7DDE8"/>
		</linearGradient>
		<polygon class="st19" points="246.7,294.9 253.8,295.2 254,291.4 246.8,291.1 		"/>
		<linearGradient id="SVGID_18_" gradientUnits="userSpaceOnUse" x1="264.6463" y1="293.9169" x2="271.9734" y2="293.9169">
			<stop  offset="0" style="stop-color:#FFFFFF"/>
			<stop  offset="1" style="stop-color:#D7DDE8"/>
		</linearGradient>
		<polygon class="st20" points="264.6,295.7 271.8,296 272,292.2 264.8,291.8 		"/>
		<linearGradient id="SVGID_19_" gradientUnits="userSpaceOnUse" x1="282.6288" y1="294.706" x2="289.9559" y2="294.706">
			<stop  offset="0" style="stop-color:#FFFFFF"/>
			<stop  offset="1" style="stop-color:#D7DDE8"/>
		</linearGradient>
		<polygon class="st21" points="282.6,296.5 289.8,296.8 290,292.9 282.8,292.6 		"/>
		<linearGradient id="SVGID_20_" gradientUnits="userSpaceOnUse" x1="300.6111" y1="295.495" x2="307.9393" y2="295.495">
			<stop  offset="0" style="stop-color:#FFFFFF"/>
			<stop  offset="1" style="stop-color:#D7DDE8"/>
		</linearGradient>
		<polygon class="st22" points="300.6,297.3 307.8,297.6 307.9,293.7 300.8,293.4 		"/>
		<linearGradient id="SVGID_21_" gradientUnits="userSpaceOnUse" x1="318.5936" y1="296.2841" x2="325.9218" y2="296.2841">
			<stop  offset="0" style="stop-color:#FFFFFF"/>
			<stop  offset="1" style="stop-color:#D7DDE8"/>
		</linearGradient>
		<polygon class="st23" points="318.6,298 325.8,298.4 325.9,294.5 318.8,294.2 		"/>
		<linearGradient id="SVGID_22_" gradientUnits="userSpaceOnUse" x1="336.5771" y1="297.0732" x2="343.9041" y2="297.0732">
			<stop  offset="0" style="stop-color:#FFFFFF"/>
			<stop  offset="1" style="stop-color:#D7DDE8"/>
		</linearGradient>
		<polygon class="st24" points="336.6,298.8 343.7,299.1 343.9,295.3 336.7,295 		"/>
		<linearGradient id="SVGID_23_" gradientUnits="userSpaceOnUse" x1="354.5594" y1="297.8622" x2="361.8875" y2="297.8622">
			<stop  offset="0" style="stop-color:#FFFFFF"/>
			<stop  offset="1" style="stop-color:#D7DDE8"/>
		</linearGradient>
		<polygon class="st25" points="354.6,299.6 361.7,299.9 361.9,296.1 354.7,295.8 		"/>
		<linearGradient id="SVGID_24_" gradientUnits="userSpaceOnUse" x1="372.5418" y1="298.6512" x2="379.8699" y2="298.6512">
			<stop  offset="0" style="stop-color:#FFFFFF"/>
			<stop  offset="1" style="stop-color:#D7DDE8"/>
		</linearGradient>
		<polygon class="st26" points="372.5,300.4 379.7,300.7 379.9,296.9 372.7,296.6 		"/>
		<linearGradient id="SVGID_25_" gradientUnits="userSpaceOnUse" x1="390.5252" y1="299.4403" x2="397.8524" y2="299.4403">
			<stop  offset="0" style="stop-color:#FFFFFF"/>
			<stop  offset="1" style="stop-color:#D7DDE8"/>
		</linearGradient>
		<polygon class="st27" points="390.5,301.2 397.7,301.5 397.9,297.7 390.7,297.4 		"/>
		<g>
			<polygon class="st28" points="294.6,260.3 299.7,254.2 296,254.1 290.8,260.1 			"/>
			<polygon class="st28" points="335,255.8 328.4,255.5 323.2,261.5 329.9,261.8 			"/>
			<polygon class="st28" points="305.2,254.5 302.7,254.4 297.6,260.4 300.1,260.5 			"/>
		</g>
		<g>
			<polygon class="st28" points="284.2,272.6 289.3,266.6 285.5,266.4 280.4,272.5 			"/>
			<polygon class="st28" points="294.8,266.8 292.3,266.7 287.1,272.7 289.7,272.9 			"/>
			<polygon class="st28" points="324.6,268.1 317.9,267.8 312.8,273.9 319.4,274.2 			"/>
		</g>
		<g>
			<polygon class="st28" points="273.7,285 278.9,278.8 275.1,278.6 269.9,284.8 			"/>
			<polygon class="st28" points="314.4,280.1 307.7,279.8 302.4,286.2 309,286.5 			"/>
			<polygon class="st28" points="284.5,279 281.9,278.9 276.7,285.1 279.2,285.2 			"/>
		</g>
		<g>
			<polygon class="st28" points="387.8,262.5 388,259 383.6,264.2 386.3,264.3 			"/>
			<polygon class="st28" points="373.1,263.7 378.2,257.7 371.6,257.4 366.5,263.4 			"/>
		</g>
		<g>
			<polygon class="st28" points="362.7,276.1 367.8,270 361.2,269.7 356,275.8 			"/>
			<polygon class="st28" points="381,270.6 378.3,270.5 373.1,276.5 375.9,276.6 			"/>
		</g>
		<g>
			<polygon class="st28" points="357.4,282.3 350.7,282 347.2,286.1 347.2,288.2 352.2,288.4 			"/>
			<polygon class="st28" points="370.6,282.9 367.8,282.8 362.7,288.9 365.4,289 			"/>
		</g>
		<path class="st12" d="M337.4,289.2C337.4,289.2,337.4,289.2,337.4,289.2L263,286c-0.2,0-0.4-0.1-0.5-0.2c-0.1-0.1-0.2-0.3-0.2-0.5
			l0.3-7.8c0-0.4,0.4-0.8,0.8-0.7l74.4,3.3c0.4,0,0.7,0.4,0.7,0.8l-0.3,7.8c0,0.2-0.1,0.4-0.2,0.5
			C337.8,289.2,337.6,289.2,337.4,289.2z M263.8,284.5l72.9,3.2l0.3-6.3l-72.9-3.2L263.8,284.5z"/>
		<path class="st29" d="M417.3,292c0-0.2-0.1-0.4-0.2-0.5c-0.1-0.1-0.3-0.2-0.5-0.2l-5.2-0.2l0.5-12c0-0.2-0.1-0.4-0.2-0.5
			c-0.1-0.1-0.3-0.2-0.5-0.2l-7.7-0.3l0.5-12c0-0.2-0.1-0.4-0.2-0.5c-0.1-0.1-0.3-0.2-0.5-0.2l-9.5-0.4l0.6-13.4
			c0-0.4-0.3-0.8-0.7-0.8l-3.9-0.2l0.2-5.3c0-0.2-0.1-0.4-0.2-0.5c-0.1-0.1-0.3-0.2-0.5-0.2l-36.9-1.6c-0.4,0-0.8,0.3-0.8,0.7
			l-0.2,5.3l-11.6-0.5l0.2-5.3c0-0.2-0.1-0.4-0.2-0.5c-0.1-0.1-0.3-0.2-0.5-0.2l-47.5-2.1c-0.4,0-0.8,0.3-0.8,0.7l-0.2,5.3l-5.2-0.2
			c-0.1,0-0.2,0-0.3,0c-15.6,5.6-36.9,34.4-39.5,38l-38.4-1.7c-0.3,0-0.5,0.1-0.6,0.3c-0.1,0.2-0.2,0.5-0.1,0.7
			c11.8,33.6,31.1,47,31.3,47.1c0.1,0.1,0.2,0.1,0.4,0.1l164.4,7.2c0.5,0,1,0,1.5,0c4.5,0,7.7-0.9,9.5-2.8c1.6-1.6,1.5-3.4,1.5-3.4
			L417.3,292z M353.2,244.1l35.4,1.6l-0.2,4.6l-35.4-1.6L353.2,244.1z M292.6,241.5l46,2l-0.2,4.6l-46-2L292.6,241.5z M285.8,247.2
			l107.1,4.7l-0.6,13.4c0,0.4,0.3,0.8,0.7,0.8l9.5,0.4l-0.5,12c0,0.2,0.1,0.4,0.2,0.5c0.1,0.1,0.3,0.2,0.5,0.2l7.7,0.3l-0.5,11.3
			l-162.1-7.1C252,278.1,271.7,252.4,285.8,247.2z M413,333.7c-1.2,1.2-3.9,2.6-9.9,2.3l-164.2-7.2c-1.9-1.4-19.1-14.5-30.2-45.2
			l207.1,9.1l-1.7,38.7C414.1,331.4,414.1,332.6,413,333.7z"/>
		<path class="st30" d="M225.8,315.4c6.6,8.5,12.1,12.7,13.1,13.4l164.2,7.2c6,0.3,8.7-1.1,9.9-2.3c1.2-1.1,1.1-2.3,1.1-2.3l0.3-7.6
			L225.8,315.4z"/>
		<polygon class="st30" points="415.8,294.7 208.6,285.3 208.6,284.8 415.8,294.2 		"/>
		<path class="st31" d="M414.1,331.4l1-23c-4.6,8.4-72.7,17.4-110.8,23.3l98.8,4.3c6,0.3,8.7-1.1,9.9-2.3
			C414.1,332.6,414.1,331.4,414.1,331.4z"/>
	</g>
</g>
<g>
	<g>
		<g>
			<g>
				
					<linearGradient id="SVGID_26_" gradientUnits="userSpaceOnUse" x1="1015.0013" y1="381.4819" x2="1100.0723" y2="381.4819" gradientTransform="matrix(-1 0 0 1 1618.9467 0)">
					<stop  offset="0" style="stop-color:#EFD97F"/>
					<stop  offset="0.1978" style="stop-color:#EFD87C"/>
					<stop  offset="0.3726" style="stop-color:#EED571"/>
					<stop  offset="0.5387" style="stop-color:#EDCF5F"/>
					<stop  offset="0.6984" style="stop-color:#EBC845"/>
					<stop  offset="0.7526" style="stop-color:#EAC53B"/>
					<stop  offset="1" style="stop-color:#E5AD14"/>
				</linearGradient>
				<path class="st32" d="M518.7,357.3l8.1-18.4c0-0.5,0.1-1,0.2-1.5c0-0.2,0.1-0.3,0.1-0.5c0.1-0.4,0.1-0.7,0.2-1.1
					c0-0.2,0.1-0.4,0.1-0.5c0.1-0.4,0.2-0.8,0.4-1.2c0-0.1,0.1-0.3,0.1-0.4c0.2-0.5,0.4-1.1,0.6-1.6c0.1-0.1,0.1-0.3,0.2-0.4
					c0.2-0.4,0.3-0.8,0.5-1.2c0.1-0.2,0.2-0.4,0.3-0.6c0.2-0.4,0.4-0.7,0.5-1.1c0.1-0.2,0.2-0.4,0.3-0.6c3-5.6,7.1-11,10.1-14.5
					c0.1-0.1,0.2-0.2,0.3-0.4c15.8,19.9,33.8,47.3,47.8,81.6c0,0,13,12.4,13,29.8c0,17.4-13.3,23.1-20.6,21.5l0,0
					c-8.2,7-19.6,2.7-21.9-8.7l-0.1-0.2c-0.5,0.3-1,0.6-1.6,0.9c-4.9,2.4-11.3-0.6-13.3-5l0,0l0,0c-0.1-0.2-0.2-0.3-0.2-0.5l0.2-0.1
					l-1.6-14.1l0.5-0.1v-3.6l0.7-2.5c-0.3-0.7-0.6-1.5-0.9-2.3l-0.7-1l-0.9-2.4l-0.1-0.7c-2.7-6.5-6.6-15.4-11.8-26
					c-3.4-7-7.4-14.3-11.2-21L518.7,357.3z"/>
			</g>
			<path class="st33" d="M569.3,417.4c0,0,2.5,19.1-8.3,25.4l-2-5.3C559,437.5,570.6,431.5,569.3,417.4z"/>
			<path class="st33" d="M587.9,423.4c0,0,5,12.8,1.3,21.9c0,0-3.4,1.3-8.4,0.9C580.9,446.2,589.4,441.8,587.9,423.4z"/>
			<path class="st1" d="M569.6,423.4c0,0,0.1,11.4-9.5,15.7l-0.4-1.7C559.7,437.4,569.8,428.3,569.6,423.4z"/>
			<path class="st1" d="M588.8,430.1c0,0,0.7,10.6-5,16.2l-3.5-0.3C580.3,446.1,587.9,439,588.8,430.1z"/>
			<path class="st6" d="M518.7,357.3l8.1-18.4c0-0.5,0.1-1,0.2-1.5c0-0.2,0.1-0.3,0.1-0.5c0.1-0.4,0.1-0.7,0.2-1.1
				c0-0.2,0.1-0.4,0.1-0.5c0.1-0.4,0.2-0.8,0.4-1.2c0-0.1,0.1-0.3,0.1-0.4c0.2-0.5,0.4-1.1,0.6-1.6c0.1-0.1,0.1-0.3,0.2-0.4
				c0.2-0.4,0.3-0.8,0.5-1.2c0.1-0.2,0.2-0.4,0.3-0.6c0.2-0.4,0.4-0.7,0.5-1.1c0.1-0.2,0.2-0.4,0.3-0.6c0-0.1,0.1-0.2,0.1-0.2
				c10.8,21.3,22.4,49.5,23.1,73.6c0,0-13.4,17-8.5,33.3c-0.4-0.5-0.7-1-0.9-1.6l0,0l0,0c-0.1-0.2-0.2-0.3-0.2-0.5l0.2-0.1
				l-1.6-14.1l0.5-0.1v-3.6l0.9-3.1L542,409l-1-2.5l-20-43.6c0,0-1.1-1.3-2.9-4.2L518.7,357.3z"/>
			<g>
				<path class="st1" d="M542.9,413.5l-0.5-1.1c0,0,0,0,0-0.1c-0.2-0.4-13.2-29-24.9-52l1.3-3l0,0c10.8,20.8,22.7,47,25.4,52.8
					c0.5-1.2,0.9-1.7,0.9-1.7l0,0c1.1-1.9,2.4-3.5,2.5-3.6c0.2-0.3,0.6-0.3,0.9-0.1c0.3,0.2,0.3,0.6,0.1,0.9
					c-0.2,0.3-0.5,0.6-0.9,1.1c0,0-7,10.6-3.1,25.8h0c0.8,2.2,2.8,4.2,5.4,5.3c2.5,1,5.1,1,7.2-0.1c8.5-4.3,13.1-13.4,11.2-22.3
					c-0.1-0.3,0.1-0.7,0.5-0.8c0.3-0.1,0.7,0.1,0.8,0.5c1.9,8.7-2.1,17.6-9.9,22.5c1.2,5.4,4.6,9.5,9.1,10.9c4.4,1.3,8.9,0,12.6-3.6
					c8.9-8.9,5.5-22.4,5.5-22.5c-0.1-0.3,0.1-0.7,0.5-0.8c0.3-0.1,0.7,0.1,0.8,0.5c0,0.1,3.6,14.3-5.8,23.8c0,0,0,0,0,0
					c3,0.3,7.3-0.5,11.2-3.7c3.3-2.7,7.3-7.9,7.3-17.4c0-17-12.6-29.2-12.8-29.3c-0.1-0.1-0.1-0.1-0.2-0.2
					c-14-34.3-32-61.5-47.7-81.3c0.1-0.1,0.1-0.2,0.2-0.2c1.1-1.3,2.1-2.4,2.7-3c0,0,0,0,0,0c5.2,6.5,10.7,13.8,16,22l0,0
					c0,0,25.9,38.6,31.6,60.1c7,9.1,20.2,30.1,7.6,46.1c-1.2,1.8-2.6,3.2-3.9,4.3c-0.5,0.4-1,0.8-1.6,1.1c-0.1,0.1-0.2,0.1-0.2,0.1
					c0,0,0.1,0,0.1-0.1c-2.9,1.8-6.1,2.8-9.2,2.8c-0.8,0-1.6-0.1-2.4-0.2c-2.7,2.2-5.8,3.4-8.9,3.4c-1.2,0-2.5-0.2-3.7-0.5
					c-4.9-1.5-8.6-5.7-9.9-11.4c-0.3,0.2-0.6,0.3-0.9,0.5c-1.2,0.6-2.6,0.9-4.1,0.9c-1.4,0-2.8-0.3-4.2-0.8
					c-2.7-1.1-4.8-3.1-5.9-5.4h0c0,0,0-0.1-0.1-0.2c-0.1-0.1-0.1-0.3-0.2-0.4l0,0c0,0-1.1-2.6-1.4-7c-0.2-1.8-0.2-3.7-0.1-5.9
					C541.9,417.4,542.4,415.2,542.9,413.5z"/>
			</g>
		</g>
	</g>
</g>
</svg>
