<?xml version="1.0" encoding="utf-8"?>
<!-- Generator: Adobe Illustrator 21.0.0, SVG Export Plug-In . SVG Version: 6.00 Build 0)  -->
<svg version="1.1" id="圖層_1" xmlns="http://www.w3.org/2000/svg" xmlns:xlink="http://www.w3.org/1999/xlink" x="0px" y="0px"
	 viewBox="0 0 822.9 601.4" style="enable-background:new 0 0 822.9 601.4;" xml:space="preserve">
<style type="text/css">
	.st0{fill:url(#SVGID_1_);}
	.st1{fill:#F5CC8F;}
	.st2{fill:#D9A63F;}
	.st3{fill:#F8CE71;}
	.st4{fill:url(#SVGID_2_);}
	.st5{fill:#FFFFFF;}
	.st6{fill:url(#SVGID_3_);}
	.st7{fill:url(#SVGID_4_);}
	.st8{fill:#E1BE3F;}
	.st9{fill:#AB6C21;}
	.st10{opacity:0.6;fill:#E1BE3F;}
	.st11{fill:url(#SVGID_5_);}
	.st12{fill:#66411D;}
	.st13{fill:url(#SVGID_6_);}
	.st14{fill:#D9B974;}
	.st15{fill:#DCBF93;}
	.st16{fill:url(#SVGID_7_);}
	.st17{fill:url(#SVGID_8_);}
	.st18{fill:url(#SVGID_9_);}
	.st19{fill:url(#SVGID_10_);}
	.st20{fill:#8C5924;}
	.st21{fill:url(#SVGID_11_);}
	.st22{fill:url(#SVGID_12_);}
	.st23{fill:url(#SVGID_13_);}
	.st24{fill:url(#SVGID_14_);}
	.st25{fill:#F4E3A5;}
	.st26{fill:#DEB87D;}
	.st27{fill:url(#SVGID_15_);}
	.st28{fill:url(#SVGID_16_);}
	.st29{fill:#3F210F;}
	.st30{opacity:0.25;fill:#E1BE3F;}
	.st31{opacity:0.5;fill:#E1BE3F;}
	.st32{fill:#F8E5A9;}
	.st33{fill:#DDBC90;}
	.st34{opacity:0.4;fill:#E1BE3F;}
	.st35{fill:#875424;}
	.st36{fill:#3F210E;}
	.st37{fill:#C88E2C;}
	.st38{fill:#AC7327;}
	.st39{fill:#814323;}
	.st40{fill:#D7C6A6;}
	.st41{fill:url(#SVGID_17_);}
	.st42{fill:#4A1E0E;}
	.st43{fill:#3A1D13;}
	.st44{fill:url(#SVGID_18_);}
	.st45{fill:#EAA593;}
	.st46{fill:url(#SVGID_19_);}
	.st47{fill:url(#SVGID_20_);}
	.st48{fill:#D59543;}
	.st49{opacity:0.6;fill:#D59543;}
	.st50{fill:url(#SVGID_21_);}
	.st51{fill:url(#SVGID_22_);}
	.st52{fill:url(#SVGID_23_);}
</style>
<g>
	<linearGradient id="SVGID_1_" gradientUnits="userSpaceOnUse" x1="507.6612" y1="-1.3679" x2="499.781" y2="57.1925">
		<stop  offset="0" style="stop-color:#FFFFFF"/>
		<stop  offset="1" style="stop-color:#FAE9CE"/>
	</linearGradient>
	<path class="st0" d="M519.9,1.8c-13.9,3.4-23.2,9.4-27.7,17.9c-6.1,11.5-0.9,23.7-0.8,23.8l2.1,5.9l4-2.1c8.2-3.7,14.2-9.7,18-17.8
		c-4.7-1.2-10.8-1.6-10.9-1.6c-0.3,0-0.6-0.3-0.7-0.6c-0.1-0.3,0.1-0.7,0.3-0.8c2.8-1.7,9.3-2,13.2-2c0.3-0.9,0.6-1.9,0.8-2.8
		c-4.1-0.6-9.2,0-9.2,0.1c-0.4,0.1-0.8-0.2-0.9-0.6c-0.1-0.4,0.1-0.8,0.5-0.9c3.4-1.4,7.7-1.6,10.4-1.6
		C520.6,10.8,520.1,4.1,519.9,1.8z"/>
	<path class="st1" d="M493,51.2c-0.1,0-0.2,0-0.3-0.1c-0.2-0.1-0.4-0.3-0.5-0.5l-2.4-6.7c-0.2-0.5-5.5-12.9,0.9-25
		c4.8-9.1,14.8-15.4,29.7-18.9c0.2-0.1,0.5,0,0.7,0.1c0.2,0.1,0.3,0.3,0.4,0.5c0.1,0.4,1.2,8.7-0.9,18.8c-0.1,0.4-0.4,0.6-0.8,0.6
		c-0.2,0-0.5,0-0.8,0c0.2,0,0.4,0.1,0.6,0.1c0.2,0,0.4,0.2,0.5,0.3c0.1,0.2,0.2,0.4,0.1,0.6c-0.4,1.5-0.8,2.9-1.3,4.3
		c-0.1,0.3-0.4,0.6-0.8,0.5c-2.1,0-6.4,0-9.7,0.6c2.5,0.3,5.8,0.8,8.5,1.5c0.2,0.1,0.4,0.2,0.5,0.4c0.1,0.2,0.1,0.4,0,0.6
		c-4,8.9-10.4,15.4-19.2,19.4l-4.8,2.5C493.3,51.2,493.2,51.2,493,51.2z M519.9,1.8c-13.9,3.4-23.2,9.4-27.7,17.9
		c-6.1,11.5-0.9,23.7-0.8,23.8l2.1,5.9l4-2.1c8.2-3.7,14.2-9.7,18-17.8c-4.7-1.2-10.8-1.6-10.9-1.6c-0.3,0-0.6-0.3-0.7-0.6
		c-0.1-0.3,0.1-0.7,0.3-0.8c2.8-1.7,9.3-2,13.2-2c0.3-0.9,0.6-1.9,0.8-2.8c-4.1-0.6-9.2,0-9.2,0.1c-0.4,0.1-0.8-0.2-0.9-0.6
		c-0.1-0.4,0.1-0.8,0.5-0.9c3.4-1.4,7.7-1.6,10.4-1.6C520.6,10.8,520.1,4.1,519.9,1.8z"/>
	<path class="st1" d="M493.2,48.4C493.2,48.4,493.2,48.4,493.2,48.4c-0.2,0-0.3-0.2-0.3-0.3c6.2-34.8,24.9-45.2,25.1-45.3
		c0.1-0.1,0.3,0,0.4,0.1c0.1,0.1,0,0.3-0.1,0.4c-0.2,0.1-18.7,10.4-24.8,45C493.4,48.3,493.3,48.4,493.2,48.4z"/>
	<path d="M505,93.5c-5.4,0-8.9-1.9-9.5-2.3c-13.9-5.8-29.8-8.6-48.8-8.8c-17.2-0.2-32,2-45.3,6.5c-2,0.7-4,1.5-6,2.3
		c-1.1,0.7-15.8,8.7-33.5-10.4c-17.8-19.2-10.9-33.6-8.3-36.1c0.1-0.1,0.3-0.3,0.5-0.5c2-2.3,6.8-7.6,22.9,3.3
		c1,0.5,13.1,5.9,23.1-4.7c2.4-2.6,4.4-5.5,6.5-8.5c7-10.2,14.3-20.7,38.8-20.7c24.5,0,31.8,10.5,38.8,20.7c2.1,3.1,4.1,5.9,6.5,8.5
		c9.9,10.6,22.1,5.1,23.1,4.7c16.2-10.9,20.9-5.5,22.9-3.3c0.2,0.2,0.3,0.4,0.5,0.5c2.6,2.5,9.5,16.9-8.3,36.1
		C519.6,91,511.1,93.5,505,93.5z M445,81c0.6,0,1.2,0,1.8,0c19.2,0.2,35.4,3.1,49.5,8.9c0,0,0.1,0,0.1,0.1
		c0.6,0.4,14.2,8.7,31.6-10.1c19.1-20.7,8.5-34,8.3-34.1c-0.2-0.2-0.4-0.4-0.6-0.6c-1.9-2.2-5.9-6.7-21,3.5c0,0-0.1,0-0.1,0.1
		c-0.1,0.1-14,6.6-24.9-5c-2.5-2.7-4.6-5.7-6.7-8.7c-6.8-9.9-13.8-20.1-37.5-20.1c-23.7,0-30.7,10.2-37.5,20.1c-2,3-4.1,6-6.7,8.7
		c-10.9,11.6-24.8,5-24.9,5c0,0-0.1,0-0.1-0.1c-15.1-10.2-19.1-5.7-21-3.5c-0.2,0.2-0.4,0.5-0.6,0.6c-0.1,0.1-10.8,13.5,8.3,34.1
		c17.4,18.8,31,10.4,31.6,10.1c0,0,0.1,0,0.1-0.1c2-0.8,4-1.6,6.1-2.3C413.9,83.2,428.3,81,445,81z"/>
	<path class="st2" d="M385.2,58.4c-0.9,0-1.9,0-2.9-0.1c-0.4-0.1-9.7-1.4-15.6-7c-5.5-5.2-12.5-5.2-12.5-5.2c-0.4,0-0.8-0.3-0.8-0.7
		c0-0.4,0.3-0.7,0.7-0.7c0.3,0,7.6,0,13.6,5.7c5.5,5.3,14.6,6.6,14.7,6.6c10.3,0.9,18.5-3.1,24.5-11.9c0.3-0.4,0.5-0.7,0.6-0.8
		c0.2-0.2,0.7-1,1.4-2c2.7-4,8.4-12.3,14.5-17.2c7.7-6.3,21.5-5.9,22.1-5.9c0.5,0,14.3-0.4,22,5.9c6,4.9,11.7,13.2,14.5,17.2
		c0.7,1,1.2,1.7,1.4,2c0.1,0.1,0.3,0.4,0.6,0.8c6,8.8,14.3,12.8,24.6,11.9c0,0,9.1-1.3,14.6-6.6c5.9-5.7,13.2-5.6,13.6-5.7
		c0.4,0,0.7,0.3,0.7,0.7c0,0.4-0.3,0.7-0.8,0.7c0,0,0,0,0,0c0,0,0,0,0,0c-0.2,0-7.1,0.1-12.5,5.2c-5.9,5.6-15.1,6.9-15.5,7
		c-10.9,0.9-19.7-3.3-26-12.5c-0.2-0.3-0.4-0.5-0.5-0.7c-0.3-0.3-0.8-1-1.5-2.1c-2.7-3.9-8.3-12.1-14.2-16.9
		c-7.3-5.9-20.9-5.6-21-5.6c-0.2,0-13.9-0.3-21.1,5.6c-5.9,4.8-11.5,13-14.2,16.9c-0.7,1.1-1.2,1.8-1.5,2.1
		c-0.1,0.1-0.3,0.3-0.5,0.7C402.5,54.1,394.7,58.4,385.2,58.4z"/>
	<path class="st3" d="M376.3,48.7C376.3,48.7,376.4,48.8,376.3,48.7c0.2,0.1,14.1,6.7,25-4.9c2.5-2.7,4.6-5.7,6.7-8.7
		c6.8-9.9,13.8-20.1,37.5-20.1c23.7,0,30.7,10.2,37.5,20.1c2,3,4.1,6,6.7,8.7c10.9,11.6,24.8,5,24.9,5c0,0,0.1,0,0.1-0.1
		c14-9.5,18.4-6.3,20.5-4c-2.5,0.3-7.6,1.4-12,5.6c-5.5,5.3-14.6,6.6-14.6,6.6c-10.3,0.9-18.6-3.1-24.6-11.9
		c-0.3-0.4-0.5-0.7-0.6-0.8c-0.2-0.2-0.7-1-1.4-2c-2.7-4-8.4-12.3-14.5-17.2c-7.7-6.3-21.5-5.9-22-5.9c-0.6,0-14.4-0.4-22.1,5.9
		c-6,4.9-11.7,13.2-14.5,17.2c-0.7,1-1.2,1.7-1.4,2c-0.1,0.1-0.3,0.4-0.6,0.8c-6,8.8-14.3,12.8-24.5,11.9c-0.1,0-9.2-1.3-14.7-6.6
		c-4.4-4.2-9.5-5.3-12-5.6C357.9,42.5,362.3,39.3,376.3,48.7z"/>
	<linearGradient id="SVGID_2_" gradientUnits="userSpaceOnUse" x1="358.379" y1="56.3237" x2="541.7925" y2="56.3237">
		<stop  offset="0" style="stop-color:#231815"/>
		<stop  offset="1" style="stop-color:#3E3A39"/>
	</linearGradient>
	<path class="st4" d="M527.9,79.9c-17.4,18.8-31,10.4-31.6,10.1c0,0-0.1,0-0.1-0.1c-14.1-5.8-30.2-8.8-49.5-8.9c-0.6,0-1.2,0-1.8,0
		c-16.6,0-31.1,2.2-44,6.6c-2.1,0.7-4.1,1.5-6.1,2.3c0,0-0.1,0-0.1,0.1c-0.6,0.4-14.2,8.7-31.6-10.1c-17.8-19.2-9.8-32.1-8.5-33.9
		c1.5,0.1,7.4,0.7,12.2,5.2c5.9,5.6,15.1,6.9,15.6,7c1,0.1,1.9,0.1,2.9,0.1c9.6,0,17.3-4.3,23.1-12.7c0.2-0.3,0.4-0.5,0.5-0.7
		c0.3-0.3,0.8-1,1.5-2.1c2.7-3.9,8.3-12.1,14.2-16.9c7.2-5.9,20.9-5.6,21.1-5.6c0.1,0,13.8-0.3,21,5.6c5.9,4.8,11.5,13,14.2,16.9
		c0.7,1.1,1.2,1.8,1.5,2.1c0.1,0.1,0.3,0.3,0.5,0.7c6.3,9.2,15.1,13.5,26,12.5c0.4-0.1,9.6-1.4,15.5-7c4.8-4.6,10.7-5.2,12.1-5.2
		C537.7,47.8,545.7,60.7,527.9,79.9z"/>
	<g>
		<path class="st5" d="M432.6,65.2c0.1-1.9,0.8-4,2.5-5.7c2.4-2.5,4.9-4.9,7.5-7.2c1.8-1.6,4.5-1.6,6.2,0c2.6,2.4,5.2,4.8,7.6,7.3
			c1.9,2,2.7,4.5,2.2,7.2c-0.4,2.1-1.7,3.4-3.8,4.1c-2.1,0.6-3.9,0.2-5.5-1.3c-1.5-1.5-3.3-2-5.4-1.2c-0.7,0.3-1.3,0.7-1.9,1.2
			c-1.8,1.6-3.8,2-6.1,1.1C433.9,69.9,432.6,67.9,432.6,65.2z"/>
		<path class="st5" d="M462.7,42.6c0,1.1,0,2.2,0,3.3c0,1.9,0,3.8,0,5.7c0,1.8-0.9,3.1-2.6,4c-1.5,0.8-3.1,0.8-4.6-0.1
			c-2.7-1.7-2.7-5.6,0.2-7c2.5-1.2,4.2-3,5.9-4.9c0.3-0.3,0.6-0.6,0.9-0.9C462.5,42.6,462.6,42.6,462.7,42.6z"/>
		<path class="st5" d="M428.7,42.4c1.1,1.2,2,2.3,3.1,3.3c1,0.9,2.1,1.7,3.2,2.3c2,1.1,3.1,2.8,2.7,4.7c-0.4,1.9-2.1,3.3-4,3.4
			c-2.2,0.1-4.3-1.3-4.9-3.3c-0.1-0.3-0.2-0.7-0.2-1.1c0-2.9,0-5.9,0-8.8C428.7,42.8,428.7,42.7,428.7,42.4z"/>
		<path class="st5" d="M439.9,33.7c1,2.1,1.9,4.1,2.8,6.1c0.4,0.8,0.6,1.6,0.8,2.4c0.4,1.5-0.2,3-1.6,3.9c-1.3,0.9-3.1,0.9-4.5,0
			c-1.3-0.9-1.9-2.4-1.6-3.9C436.5,40.4,438.9,35,439.9,33.7z"/>
		<path class="st5" d="M451.6,33.7c1.5,2.9,3,5.7,3.8,8.7c0.4,1.4-0.4,2.9-1.6,3.7c-1.3,0.9-3.1,0.9-4.4,0c-1.3-0.8-2-2.4-1.7-3.7
			C448.1,40.7,450.4,35.7,451.6,33.7z"/>
	</g>
	<path class="st2" d="M354.5,46.1c0.1-0.2,0.2-0.3,0.2-0.3c0.2-0.2,0.4-0.4,0.6-0.6c1.9-2.2,5.9-6.7,21,3.5c0,0,0.1,0,0.1,0.1
		c0.1,0.1,14,6.6,24.9-5c2.5-2.7,4.6-5.7,6.7-8.7c6.8-9.9,13.8-20.1,37.5-20.1c23.7,0,30.7,10.2,37.5,20.1c2,3,4.1,6,6.7,8.7
		c10.9,11.6,24.8,5,24.9,5c0,0,0.1,0,0.1-0.1c15.1-10.2,19.1-5.7,21-3.5c0.2,0.2,0.4,0.5,0.6,0.6c0,0,0.1,0.1,0.2,0.2l1.9,0.1
		c-0.4-0.6-0.7-1-1-1.3c-0.1-0.1-0.3-0.3-0.5-0.5c-2-2.3-6.8-7.6-22.9,3.3c-1,0.5-13.1,5.9-23.1-4.7c-2.4-2.6-4.4-5.5-6.5-8.5
		c-7-10.2-14.3-20.7-38.8-20.7c-24.5,0-31.8,10.5-38.8,20.7c-2.1,3.1-4.1,5.9-6.5,8.5c-9.9,10.6-22.1,5.1-23.1,4.7
		c-16.2-10.9-20.9-5.5-22.9-3.3c-0.2,0.2-0.3,0.4-0.5,0.5c-0.3,0.3-0.7,0.7-1,1.3H354.5z"/>
	<linearGradient id="SVGID_3_" gradientUnits="userSpaceOnUse" x1="401.1909" y1="83.055" x2="534.6078" y2="83.055">
		<stop  offset="0" style="stop-color:#231815"/>
		<stop  offset="1" style="stop-color:#3E3A39"/>
	</linearGradient>
	<path class="st6" d="M478.5,79.6c-48.4-7.9-82.2,9.8-82.2,9.8l0,0c1.5-0.6,3-1.2,4.6-1.7c13-4.5,27.4-6.6,44-6.6c0.6,0,1.2,0,1.8,0
		c19.2,0.2,35.4,3.1,49.5,8.9c0,0,0.1,0,0.1,0.1c0.6,0.4,14.2,8.7,31.6-10.1c1.9-2.1,3.5-4.1,4.9-6C530,77.2,518.4,86.1,478.5,79.6z
		"/>
	<path class="st1" d="M505.7,16.4c-0.1,0-0.2-0.1-0.2-0.2c0-0.1,0-0.3,0.2-0.3c0.4-0.1,8.9-2.4,12.8-2.6c0.1,0,0.3,0.1,0.3,0.2
		c0,0.1-0.1,0.2-0.2,0.2C514.6,14,505.9,16.4,505.7,16.4C505.7,16.4,505.7,16.4,505.7,16.4z"/>
	<path class="st1" d="M509.8,11.4c-0.1,0-0.2-0.1-0.2-0.2c0-0.1,0-0.3,0.2-0.3c0.3-0.1,6.4-2,9.7-2l0,0c0.1,0,0.3,0.1,0.3,0.2
		c0,0.1-0.1,0.2-0.3,0.2C516.2,9.4,509.9,11.4,509.8,11.4C509.9,11.4,509.8,11.4,509.8,11.4z"/>
	<path class="st1" d="M499.5,26.5c-0.1,0-0.2,0-0.2-0.1c-1.3-2.2-5.5-6.3-5.5-6.4c-0.1-0.1-0.1-0.2,0-0.3c0.1-0.1,0.3-0.1,0.4,0
		c0.2,0.2,4.3,4.2,5.6,6.5c0.1,0.1,0,0.3-0.1,0.3C499.6,26.5,499.5,26.5,499.5,26.5z"/>
	<path class="st1" d="M498.1,29.8c-0.1,0-0.2-0.1-0.2-0.2c-0.7-1.8-4.1-5.7-4.1-5.7c-0.1-0.1-0.1-0.3,0-0.3c0.1-0.1,0.3-0.1,0.4,0
		c0.1,0.2,3.5,4,4.2,5.9C498.4,29.6,498.3,29.8,498.1,29.8C498.2,29.8,498.1,29.8,498.1,29.8z"/>
	<path class="st1" d="M494.7,40.4c-0.1,0-0.2-0.1-0.2-0.2c-1.2-3.4-4.3-8-4.4-8c-0.1-0.1,0-0.3,0.1-0.3c0.1-0.1,0.3,0,0.3,0.1
		c0,0,3.2,4.7,4.4,8.1C494.9,40.2,494.9,40.4,494.7,40.4C494.7,40.4,494.7,40.4,494.7,40.4z"/>
</g>
<g>
	<g>
		<g>
			<g>
				
					<linearGradient id="SVGID_4_" gradientUnits="userSpaceOnUse" x1="1015.0013" y1="381.4819" x2="1100.0723" y2="381.4819" gradientTransform="matrix(-1 0 0 1 1618.9467 0)">
					<stop  offset="0" style="stop-color:#EFD97F"/>
					<stop  offset="0.1978" style="stop-color:#EFD87C"/>
					<stop  offset="0.3726" style="stop-color:#EED571"/>
					<stop  offset="0.5387" style="stop-color:#EDCF5F"/>
					<stop  offset="0.6984" style="stop-color:#EBC845"/>
					<stop  offset="0.7526" style="stop-color:#EAC53B"/>
					<stop  offset="1" style="stop-color:#E5AD14"/>
				</linearGradient>
				<path class="st7" d="M518.7,357.3l8.1-18.4c0-0.5,0.1-1,0.2-1.5c0-0.2,0.1-0.3,0.1-0.5c0.1-0.4,0.1-0.7,0.2-1.1
					c0-0.2,0.1-0.4,0.1-0.5c0.1-0.4,0.2-0.8,0.4-1.2c0-0.1,0.1-0.3,0.1-0.4c0.2-0.5,0.4-1.1,0.6-1.6c0.1-0.1,0.1-0.3,0.2-0.4
					c0.2-0.4,0.3-0.8,0.5-1.2c0.1-0.2,0.2-0.4,0.3-0.6c0.2-0.4,0.4-0.7,0.5-1.1c0.1-0.2,0.2-0.4,0.3-0.6c3-5.6,7.1-11,10.1-14.5
					c0.1-0.1,0.2-0.2,0.3-0.4c15.8,19.9,33.8,47.3,47.8,81.6c0,0,13,12.4,13,29.8c0,17.4-13.3,23.1-20.6,21.5l0,0
					c-8.2,7-19.6,2.7-21.9-8.7l-0.1-0.2c-0.5,0.3-1,0.6-1.6,0.9c-4.9,2.4-11.3-0.6-13.3-5l0,0l0,0c-0.1-0.2-0.2-0.3-0.2-0.5l0.2-0.1
					l-1.6-14.1l0.5-0.1v-3.6l0.7-2.5c-0.3-0.7-0.6-1.5-0.9-2.3l-0.7-1l-0.9-2.4l-0.1-0.7c-2.7-6.5-6.6-15.4-11.8-26
					c-3.4-7-7.4-14.3-11.2-21L518.7,357.3z"/>
			</g>
			<path class="st8" d="M569.3,417.4c0,0,2.5,19.1-8.3,25.4l-2-5.3C559,437.5,570.6,431.5,569.3,417.4z"/>
			<path class="st8" d="M587.9,423.4c0,0,5,12.8,1.3,21.9c0,0-3.4,1.3-8.4,0.9C580.9,446.2,589.4,441.8,587.9,423.4z"/>
			<path class="st9" d="M569.6,423.4c0,0,0.1,11.4-9.5,15.7l-0.4-1.7C559.7,437.4,569.8,428.3,569.6,423.4z"/>
			<path class="st9" d="M588.8,430.1c0,0,0.7,10.6-5,16.2l-3.5-0.3C580.3,446.1,587.9,439,588.8,430.1z"/>
			<path class="st10" d="M518.7,357.3l8.1-18.4c0-0.5,0.1-1,0.2-1.5c0-0.2,0.1-0.3,0.1-0.5c0.1-0.4,0.1-0.7,0.2-1.1
				c0-0.2,0.1-0.4,0.1-0.5c0.1-0.4,0.2-0.8,0.4-1.2c0-0.1,0.1-0.3,0.1-0.4c0.2-0.5,0.4-1.1,0.6-1.6c0.1-0.1,0.1-0.3,0.2-0.4
				c0.2-0.4,0.3-0.8,0.5-1.2c0.1-0.2,0.2-0.4,0.3-0.6c0.2-0.4,0.4-0.7,0.5-1.1c0.1-0.2,0.2-0.4,0.3-0.6c0-0.1,0.1-0.2,0.1-0.2
				c10.8,21.3,22.4,49.5,23.1,73.6c0,0-13.4,17-8.5,33.3c-0.4-0.5-0.7-1-0.9-1.6l0,0l0,0c-0.1-0.2-0.2-0.3-0.2-0.5l0.2-0.1
				l-1.6-14.1l0.5-0.1v-3.6l0.9-3.1L542,409l-1-2.5l-20-43.6c0,0-1.1-1.3-2.9-4.2L518.7,357.3z"/>
			<g>
				<path class="st9" d="M542.9,413.5l-0.5-1.1c0,0,0,0,0-0.1c-0.2-0.4-13.2-29-24.9-52l1.3-3l0,0c10.8,20.8,22.7,47,25.4,52.8
					c0.5-1.2,0.9-1.7,0.9-1.7l0,0c1.1-1.9,2.4-3.5,2.5-3.6c0.2-0.3,0.6-0.3,0.9-0.1c0.3,0.2,0.3,0.6,0.1,0.9
					c-0.2,0.3-0.5,0.6-0.9,1.1c0,0-7,10.6-3.1,25.8h0c0.8,2.2,2.8,4.2,5.4,5.3c2.5,1,5.1,1,7.2-0.1c8.5-4.3,13.1-13.4,11.2-22.3
					c-0.1-0.3,0.1-0.7,0.5-0.8c0.3-0.1,0.7,0.1,0.8,0.5c1.9,8.7-2.1,17.6-9.9,22.5c1.2,5.4,4.6,9.5,9.1,10.9c4.4,1.3,8.9,0,12.6-3.6
					c8.9-8.9,5.5-22.4,5.5-22.5c-0.1-0.3,0.1-0.7,0.5-0.8c0.3-0.1,0.7,0.1,0.8,0.5c0,0.1,3.6,14.3-5.8,23.8c0,0,0,0,0,0
					c3,0.3,7.3-0.5,11.2-3.7c3.3-2.7,7.3-7.9,7.3-17.4c0-17-12.6-29.2-12.8-29.3c-0.1-0.1-0.1-0.1-0.2-0.2
					c-14-34.3-32-61.5-47.7-81.3c0.1-0.1,0.1-0.2,0.2-0.2c1.1-1.3,2.1-2.4,2.7-3c0,0,0,0,0,0c5.2,6.5,10.7,13.8,16,22l0,0
					c0,0,25.9,38.6,31.6,60.1c7,9.1,20.2,30.1,7.6,46.1c-1.2,1.8-2.6,3.2-3.9,4.3c-0.5,0.4-1,0.8-1.6,1.1c-0.1,0.1-0.2,0.1-0.2,0.1
					c0,0,0.1,0,0.1-0.1c-2.9,1.8-6.1,2.8-9.2,2.8c-0.8,0-1.6-0.1-2.4-0.2c-2.7,2.2-5.8,3.4-8.9,3.4c-1.2,0-2.5-0.2-3.7-0.5
					c-4.9-1.5-8.6-5.7-9.9-11.4c-0.3,0.2-0.6,0.3-0.9,0.5c-1.2,0.6-2.6,0.9-4.1,0.9c-1.4,0-2.8-0.3-4.2-0.8
					c-2.7-1.1-4.8-3.1-5.9-5.4h0c0,0,0-0.1-0.1-0.2c-0.1-0.1-0.1-0.3-0.2-0.4l0,0c0,0-1.1-2.6-1.4-7c-0.2-1.8-0.2-3.7-0.1-5.9
					C541.9,417.4,542.4,415.2,542.9,413.5z"/>
			</g>
		</g>
	</g>
	<g>
		<g>
			
				<linearGradient id="SVGID_5_" gradientUnits="userSpaceOnUse" x1="789.0013" y1="381.4819" x2="874.0723" y2="381.4819" gradientTransform="matrix(1 0 0 1 -498.1536 0)">
				<stop  offset="0" style="stop-color:#EFD97F"/>
				<stop  offset="0.1978" style="stop-color:#EFD87C"/>
				<stop  offset="0.3726" style="stop-color:#EED571"/>
				<stop  offset="0.5387" style="stop-color:#EDCF5F"/>
				<stop  offset="0.6984" style="stop-color:#EBC845"/>
				<stop  offset="0.7526" style="stop-color:#EAC53B"/>
				<stop  offset="1" style="stop-color:#E5AD14"/>
			</linearGradient>
			<path class="st11" d="M376.1,357.3l-8.1-18.4c0-0.5-0.1-1-0.2-1.5c0-0.2-0.1-0.3-0.1-0.5c-0.1-0.4-0.1-0.7-0.2-1.1
				c0-0.2-0.1-0.4-0.1-0.5c-0.1-0.4-0.2-0.8-0.4-1.2c0-0.1-0.1-0.3-0.1-0.4c-0.2-0.5-0.4-1.1-0.6-1.6c-0.1-0.1-0.1-0.3-0.2-0.4
				c-0.2-0.4-0.3-0.8-0.5-1.2c-0.1-0.2-0.2-0.4-0.3-0.6c-0.2-0.4-0.4-0.7-0.5-1.1c-0.1-0.2-0.2-0.4-0.3-0.6c-3-5.6-7.1-11-10.1-14.5
				c-0.1-0.1-0.2-0.2-0.3-0.4c-15.8,19.9-33.8,47.3-47.8,81.6c0,0-13,12.4-13,29.8c0,17.4,13.3,23.1,20.6,21.5l0,0
				c8.2,7,19.6,2.7,21.9-8.7l0.1-0.2c0.5,0.3,1,0.6,1.6,0.9c4.9,2.4,11.3-0.6,13.3-5l0,0l0,0c0.1-0.2,0.2-0.3,0.2-0.5l-0.2-0.1
				l1.6-14.1l-0.5-0.1v-3.6l-0.7-2.5c0.3-0.7,0.6-1.5,0.9-2.3l0.7-1l0.9-2.4l0.1-0.7c2.7-6.5,6.6-15.4,11.8-26
				c3.4-7,7.4-14.3,11.2-21L376.1,357.3z"/>
		</g>
		<path class="st8" d="M325.5,417.4c0,0-2.5,19.1,8.3,25.4l2-5.3C335.8,437.5,324.2,431.5,325.5,417.4z"/>
		<path class="st8" d="M306.9,423.4c0,0-5,12.8-1.3,21.9c0,0,3.4,1.3,8.4,0.9C313.9,446.2,305.3,441.8,306.9,423.4z"/>
		<path class="st9" d="M325.2,423.4c0,0-0.1,11.4,9.5,15.7l0.4-1.7C335.1,437.4,325,428.3,325.2,423.4z"/>
		<path class="st9" d="M306,430.1c0,0-0.7,10.6,5,16.2l3.5-0.3C314.5,446.1,306.9,439,306,430.1z"/>
		<path class="st10" d="M376.1,357.3l-8.1-18.4c0-0.5-0.1-1-0.2-1.5c0-0.2-0.1-0.3-0.1-0.5c-0.1-0.4-0.1-0.7-0.2-1.1
			c0-0.2-0.1-0.4-0.1-0.5c-0.1-0.4-0.2-0.8-0.4-1.2c0-0.1-0.1-0.3-0.1-0.4c-0.2-0.5-0.4-1.1-0.6-1.6c-0.1-0.1-0.1-0.3-0.2-0.4
			c-0.2-0.4-0.3-0.8-0.5-1.2c-0.1-0.2-0.2-0.4-0.3-0.6c-0.2-0.4-0.4-0.7-0.5-1.1c-0.1-0.2-0.2-0.4-0.3-0.6c0-0.1-0.1-0.2-0.1-0.2
			c-10.8,21.3-22.4,49.5-23.1,73.6c0,0,13.4,17,8.5,33.3c0.4-0.5,0.7-1,0.9-1.6l0,0l0,0c0.1-0.2,0.2-0.3,0.2-0.5l-0.2-0.1l1.6-14.1
			l-0.5-0.1v-3.6l-0.9-3.1l1.8-2.7l1-2.5l20-43.6c0,0,1.1-1.3,2.9-4.2L376.1,357.3z"/>
		<g>
			<path class="st9" d="M351.9,413.5l0.5-1.1c0,0,0,0,0-0.1c0.2-0.4,13.2-29,24.9-52l-1.3-3l0,0c-10.8,20.8-22.7,47-25.4,52.8
				c-0.5-1.2-0.9-1.7-0.9-1.7l0,0c-1.1-1.9-2.4-3.5-2.5-3.6c-0.2-0.3-0.6-0.3-0.9-0.1c-0.3,0.2-0.3,0.6-0.1,0.9
				c0.2,0.3,0.5,0.6,0.9,1.1c0,0,7,10.6,3.1,25.8h0c-0.8,2.2-2.8,4.2-5.4,5.3c-2.5,1-5.1,1-7.2-0.1c-8.5-4.3-13.1-13.4-11.2-22.3
				c0.1-0.3-0.1-0.7-0.5-0.8c-0.3-0.1-0.7,0.1-0.8,0.5c-1.9,8.7,2.1,17.6,9.9,22.5c-1.2,5.4-4.6,9.5-9.1,10.9
				c-4.4,1.3-8.9,0-12.6-3.6c-8.9-8.9-5.5-22.4-5.5-22.5c0.1-0.3-0.1-0.7-0.5-0.8c-0.3-0.1-0.7,0.1-0.8,0.5c0,0.1-3.6,14.3,5.8,23.8
				c0,0,0,0,0,0c-3,0.3-7.3-0.5-11.2-3.7c-3.3-2.7-7.3-7.9-7.3-17.4c0-17,12.6-29.2,12.8-29.3c0.1-0.1,0.1-0.1,0.2-0.2
				c14-34.3,32-61.5,47.7-81.3c-0.1-0.1-0.1-0.2-0.2-0.2c-1.1-1.3-2.1-2.4-2.7-3c0,0,0,0,0,0c-5.2,6.5-10.7,13.8-16,22l0,0
				c0,0-25.9,38.6-31.6,60.1c-7,9.1-20.2,30.1-7.6,46.1c1.2,1.8,2.6,3.2,3.9,4.3c0.5,0.4,1,0.8,1.6,1.1c0.1,0.1,0.2,0.1,0.2,0.1
				c0,0-0.1,0-0.1-0.1c2.9,1.8,6.1,2.8,9.2,2.8c0.8,0,1.6-0.1,2.4-0.2c2.7,2.2,5.8,3.4,8.9,3.4c1.2,0,2.5-0.2,3.7-0.5
				c4.9-1.5,8.6-5.7,9.9-11.4c0.3,0.2,0.6,0.3,0.9,0.5c1.2,0.6,2.6,0.9,4.1,0.9c1.4,0,2.8-0.3,4.2-0.8c2.7-1.1,4.8-3.1,5.9-5.4h0
				c0,0,0-0.1,0.1-0.2c0.1-0.1,0.1-0.3,0.2-0.4l0,0c0,0,1.1-2.6,1.4-7c0.2-1.8,0.2-3.7,0.1-5.9C352.9,417.4,352.4,415.2,351.9,413.5
				z"/>
		</g>
	</g>
</g>
</svg>
