<?xml version="1.0" encoding="utf-8"?>
<!-- Generator: Adobe Illustrator 21.0.0, SVG Export Plug-In . SVG Version: 6.00 Build 0)  -->
<svg version="1.1" id="圖層_1" xmlns="http://www.w3.org/2000/svg" xmlns:xlink="http://www.w3.org/1999/xlink" x="0px" y="0px"
	 viewBox="0 0 109 149.4" style="enable-background:new 0 0 109 149.4;" xml:space="preserve">
<style type="text/css">
	.st0{fill:#AB6C21;}
	.st1{fill:url(#SVGID_1_);}
	.st2{fill:#D6988B;}
	.st3{fill:url(#SVGID_2_);}
	.st4{opacity:0.5;fill:#D6988B;enable-background:new    ;}
	.st5{opacity:0.4;fill:#F3B699;enable-background:new    ;}
	.st6{fill:url(#SVGID_3_);}
	.st7{fill:url(#SVGID_4_);}
	.st8{fill:url(#SVGID_5_);}
	.st9{fill:url(#SVGID_6_);}
	.st10{opacity:0.6;fill:#E1BE3F;enable-background:new    ;}
	.st11{fill:url(#SVGID_7_);}
	.st12{fill:url(#SVGID_8_);}
	.st13{fill:url(#SVGID_9_);}
	.st14{fill:#4F2C14;}
	.st15{fill:#9E9E9F;}
	.st16{fill:url(#SVGID_10_);}
	.st17{opacity:0.6;}
	.st18{fill:#E1BE3F;}
	.st19{fill:#A53725;}
	.st20{fill:#DD563A;}
	.st21{fill:#5693AE;}
	.st22{fill:url(#SVGID_11_);}
	.st23{fill:url(#SVGID_12_);}
	.st24{fill:url(#SVGID_13_);}
	.st25{fill:url(#SVGID_14_);}
	.st26{fill:url(#SVGID_15_);}
	.st27{fill:url(#SVGID_16_);}
	.st28{fill:url(#SVGID_17_);}
	.st29{fill:url(#SVGID_18_);}
	.st30{fill:url(#SVGID_19_);}
	.st31{fill:url(#SVGID_20_);}
	.st32{fill:url(#SVGID_21_);}
	.st33{fill:url(#SVGID_22_);}
</style>
<path class="st0" d="M20.3,85c0,0,0.1,1.4,1.4,1.5l-0.2,0.2l-1.1-0.4L20.3,85z"/>
<g>
	<g>
		
			<linearGradient id="SVGID_1_" gradientUnits="userSpaceOnUse" x1="11.2303" y1="70.3745" x2="33.2903" y2="70.3745" gradientTransform="matrix(1 0 0 -1 0 152)">
			<stop  offset="0" style="stop-color:#EFD97F"/>
			<stop  offset="0.1978" style="stop-color:#EFD87C"/>
			<stop  offset="0.3726" style="stop-color:#EED571"/>
			<stop  offset="0.5387" style="stop-color:#EDCF5F"/>
			<stop  offset="0.6984" style="stop-color:#EBC845"/>
			<stop  offset="0.7526" style="stop-color:#EAC53B"/>
			<stop  offset="1" style="stop-color:#E5AD14"/>
		</linearGradient>
		<path class="st1" d="M30.9,72.2c-1.9-0.6-3-0.1-5.4-0.1l-2.4,3l-3.4,3.8l-4.8,3.9l-3.8,2.9c0,0,0.2,3.7,4.8,4.9
			c3.5,0.9,7.3,0.8,8.9,0.6C25.7,85,29.1,76.2,30.9,72.2z"/>
		<path class="st0" d="M25.5,90.8c-0.1-0.2-0.3-0.3-0.5-0.3c0,0-2.6,0.8-7.6-0.1c-4.6-0.8-5.4-3.7-5.5-4l-0.1-0.2h-0.2l-0.4-0.1
			L11,86.3c0,0.1,0,0.1,0,0.2c0,0.2,0.8,3.8,6.2,4.8c1.9,0.3,3.4,0.4,4.6,0.4c2.2,0,3.3-0.4,3.4-0.4C25.4,91.3,25.5,91,25.5,90.8z"
			/>
		<path class="st0" d="M25.8,71.3L25.8,71.3l-0.9,0.3c0,0-4.3,5-5.2,6.4l0.2,0.1l0.9-0.1l0.8-0.4l4.1-5.1l0.3-0.4l0.1-0.5
			C26.2,71.4,26.1,71,25.8,71.3z"/>
	</g>
	<g>
		<path class="st2" d="M25.2,75.9c0-1.6-2.7-3.5-3.7-4.2c0.3-0.1,0.5-0.2,0.6-0.4c0.1-0.1,0.1-0.2,0-0.3c-0.2-0.4-0.9-1.1-4.1-1.2
			c-1.4,0-2.3,0.2-2.7,0.7c-0.3,0.3-0.2,0.6-0.2,0.6v0.1c-1.9,0.2-6.7,1.1-6.7,4.4c0,0.7,0.3,1.3,0.8,1.9c1.8,1.7,6.2,2,9.3,2
			c1.6,0,2.9-0.1,3.2-0.1c1.2-0.1,2.2-0.5,2.8-1.2C25.3,77.2,25.2,75.9,25.2,75.9z M24.1,77.8c-0.5,0.6-1.4,1-2.5,1.1
			c-1,0.1-9.6,0.7-12.2-1.8c-0.5-0.4-0.7-1-0.7-1.6c0.1-3.7,7.1-4.1,7.1-4.1c0.1,0,0.2-0.1,0.2-0.2s0-0.2-0.1-0.2l-0.5-0.2
			c0-0.1,0.1-0.1,0.1-0.2c0.2-0.2,0.8-0.6,2.4-0.5c3.3,0.1,3.7,0.8,3.8,0.9c0,0.1-0.4,0.3-0.8,0.4c-0.1,0-0.1,0.1-0.2,0.2
			c0,0.1,0,0.2,0.1,0.2c1.1,0.7,3.9,2.7,3.9,4.1C24.8,75.9,24.8,77,24.1,77.8z"/>
		
			<linearGradient id="SVGID_2_" gradientUnits="userSpaceOnUse" x1="8.6713" y1="77.4406" x2="24.7186" y2="77.4406" gradientTransform="matrix(1 0 0 -1 0 152)">
			<stop  offset="0" style="stop-color:#FCEFD2"/>
			<stop  offset="1" style="stop-color:#F5B7A8"/>
		</linearGradient>
		<path class="st3" d="M24.1,77.8c-0.5,0.6-1.4,1-2.5,1.1c-1,0.1-9.6,0.7-12.2-1.8c-0.5-0.4-0.7-1-0.7-1.6c0.1-3.7,7.1-4.1,7.1-4.1
			c0.1,0,0.2-0.1,0.2-0.2s0-0.2-0.1-0.2l-0.5-0.2c0-0.1,0.1-0.1,0.1-0.2c0.2-0.2,0.8-0.6,2.4-0.5c3.3,0.1,3.7,0.8,3.8,0.9
			c0,0.1-0.4,0.3-0.8,0.4c-0.1,0-0.1,0.1-0.2,0.2c0,0.1,0,0.2,0.1,0.2c1.1,0.7,3.9,2.7,3.9,4.1C24.8,75.9,24.8,77,24.1,77.8z"/>
		<path class="st2" d="M18,76.8c-5.7,0-8.7-1.5-8.9-2v-0.1h0.1c0.1,0.3,5,3.1,15.2,1.3c0,0,0.1,0,0.1,0.1c0,0,0,0.1-0.1,0.1
			C22,76.7,19.8,76.8,18,76.8z"/>
		<path class="st4" d="M11.6,75h-0.1c-0.1-0.1,0-0.1,0-0.2c0,0,2.1-1.9,4.8-3c0.1,0,0.2,0,0.2,0.1s0,0.2-0.1,0.2
			C13.8,73.2,11.8,74.9,11.6,75C11.7,74.9,11.7,75,11.6,75z"/>
		<path class="st4" d="M16.7,75.9c-0.1,0-0.1-0.1-0.1-0.1c0-1.6,1.2-3.9,1.2-3.9c0-0.1,0.1-0.1,0.2-0.1s0.1,0.1,0.1,0.2
			c0,0-1.2,2.3-1.2,3.8C16.9,75.8,16.8,75.9,16.7,75.9z"/>
		<path class="st4" d="M22.7,76.3c-0.1,0-0.1,0-0.1-0.1c-1.2-2.7-3.3-4.3-3.4-4.3s-0.1-0.1,0-0.2c0-0.1,0.1-0.1,0.2,0
			c0,0,2.2,1.6,3.5,4.4C22.9,76.3,22.9,76.3,22.7,76.3C22.8,76.3,22.8,76.3,22.7,76.3z"/>
		<path class="st5" d="M24.8,75.9c0-1.1-1.6-2.5-2.9-3.4c0.9,1.1,2.3,3.4-0.2,4.9c-1.4,0.8-3.1,1.3-4.7,1.5c2.3,0.1,4.3-0.1,4.7-0.1
			c1.1-0.1,2-0.4,2.5-1.1C24.8,77,24.8,75.9,24.8,75.9z"/>
	</g>
	<g>
		
			<linearGradient id="SVGID_3_" gradientUnits="userSpaceOnUse" x1="21.4475" y1="75.0484" x2="22.1971" y2="65.553" gradientTransform="matrix(1 0 0 -1 0 152)">
			<stop  offset="0" style="stop-color:#EFD97F"/>
			<stop  offset="0.1978" style="stop-color:#EFD87C"/>
			<stop  offset="0.3726" style="stop-color:#EED571"/>
			<stop  offset="0.5387" style="stop-color:#EDCF5F"/>
			<stop  offset="0.6984" style="stop-color:#EBC845"/>
			<stop  offset="0.7526" style="stop-color:#EAC53B"/>
			<stop  offset="1" style="stop-color:#E5AD14"/>
		</linearGradient>
		<path class="st6" d="M25.4,80.8c0.3,1.7,0.1,3.7-0.4,4.2c-0.9,1-3.6,2.7-6.3,1.3c-0.2-0.6-1-4.1,0.4-6.7c0.3-0.6,0.7-1,1-1.3
			c1.4-1.1,3.1-0.8,4.2,0C24.8,78.8,25.2,79.7,25.4,80.8z"/>
		
			<linearGradient id="SVGID_4_" gradientUnits="userSpaceOnUse" x1="15.5532" y1="74.5847" x2="16.3029" y2="65.0893" gradientTransform="matrix(1 0 0 -1 0 152)">
			<stop  offset="0" style="stop-color:#EFD97F"/>
			<stop  offset="0.1978" style="stop-color:#EFD87C"/>
			<stop  offset="0.3726" style="stop-color:#EED571"/>
			<stop  offset="0.5387" style="stop-color:#EDCF5F"/>
			<stop  offset="0.6984" style="stop-color:#EBC845"/>
			<stop  offset="0.7526" style="stop-color:#EAC53B"/>
			<stop  offset="1" style="stop-color:#E5AD14"/>
		</linearGradient>
		<path class="st7" d="M14.5,77.7c1.9-0.8,3.9,0,4.8,0.5c-0.7,0.6-1.4,1.5-1.7,3c-0.6,3.1,0,4.6,0.4,5.2c-4.7,0.8-5.1-0.7-5.4-1.6
			c0-0.1-0.1-0.2-0.1-0.3c-0.2-0.6-0.4-3.3,0.4-5.2C13.3,78.5,13.8,77.9,14.5,77.7z"/>
		
			<linearGradient id="SVGID_5_" gradientUnits="userSpaceOnUse" x1="10.7307" y1="74.2022" x2="11.4804" y2="64.7068" gradientTransform="matrix(1 0 0 -1 0 152)">
			<stop  offset="0" style="stop-color:#EFD97F"/>
			<stop  offset="0.1978" style="stop-color:#EFD87C"/>
			<stop  offset="0.3726" style="stop-color:#EED571"/>
			<stop  offset="0.5387" style="stop-color:#EDCF5F"/>
			<stop  offset="0.6984" style="stop-color:#EBC845"/>
			<stop  offset="0.7526" style="stop-color:#EAC53B"/>
			<stop  offset="1" style="stop-color:#E5AD14"/>
		</linearGradient>
		<path class="st8" d="M9.2,85.2c-0.6-0.5-0.9-1.6-0.8-2.9c0.1-1.6,0.7-3.1,1.5-3.7c1.1-0.9,2.8-0.8,3.6-0.7
			c-0.7,0.6-1.7,1.8-1.8,4.1c-0.1,2.2,0.3,3.4,1,4.1C11.8,86,10.2,86,9.2,85.2z"/>
		<g>
			
				<linearGradient id="SVGID_6_" gradientUnits="userSpaceOnUse" x1="7.9113" y1="73.9798" x2="8.6609" y2="64.4844" gradientTransform="matrix(1 0 0 -1 0 152)">
				<stop  offset="0" style="stop-color:#EFD97F"/>
				<stop  offset="0.1978" style="stop-color:#EFD87C"/>
				<stop  offset="0.3726" style="stop-color:#EED571"/>
				<stop  offset="0.5387" style="stop-color:#EDCF5F"/>
				<stop  offset="0.6984" style="stop-color:#EBC845"/>
				<stop  offset="0.7526" style="stop-color:#EAC53B"/>
				<stop  offset="1" style="stop-color:#E5AD14"/>
			</linearGradient>
			<path class="st9" d="M10.2,77.8c-0.7,0.3-1.6,1-2.1,2.4c-0.3,0.8-0.5,1.7-0.5,2.5c-0.5-0.2-1.1-0.6-1.5-1.2
				c-0.3-0.5-0.4-1.2-0.2-1.9C6.7,77.3,7.5,77.3,10.2,77.8z"/>
			<path class="st10" d="M10.2,77.8c-1.6-0.3-2.5-0.4-3.1,0c0.1,0,1.3-0.3,1.8,0.4c0,0-2.4,1.9-1.3,4.5c0-0.8,0.2-1.7,0.5-2.5
				C8.6,78.8,9.5,78.2,10.2,77.8z"/>
			<path class="st10" d="M9.8,78.5c-0.5,0.4-0.9,1-1.1,1.8l0.6-1.2c0,0,1.4-0.4,2.5-0.1c0,0-2,3.1,0.4,6.2l0,0
				c-0.4-0.7-0.6-1.8-0.5-3.4c0.1-2.3,1.1-3.5,1.8-4.1C12.6,77.8,11,77.8,9.8,78.5z"/>
			<path class="st10" d="M14.5,77.7c-0.7,0.3-1.2,0.8-1.6,1.7c0,0,2.2-1.4,5.1-0.4c0,0-1.6,2.5-0.6,4.4l0,0c0-0.6,0.1-1.3,0.3-2.2
				c0.3-1.5,1-2.5,1.7-3C18.4,77.8,16.5,76.9,14.5,77.7z"/>
			<path class="st10" d="M24.3,78.4c-1.2-0.7-2.9-1.1-4.2,0c-0.3,0.2-0.5,0.5-0.7,0.8c1.4-0.1,4.2-0.2,5.9,1.1
				C25.1,79.4,24.7,78.7,24.3,78.4z"/>
			<path class="st0" d="M11,86.3c0,0,0.6,0.1,0.8,0.1l0,0c0,0,0,0,0.1,0c0.5,0,0.9-0.1,1.1-0.1c0.4,0.3,0.8,0.4,1.2,0.6l0,0
				c0.4,0.1,0.9,0.2,1.5,0.2c0.7,0,1.6-0.1,2.7-0.3c0.8,0.4,1.6,0.6,2.4,0.6c2,0,3.8-1.2,4.5-2c0.6-0.7,0.7-2.9,0.5-4.6
				c-0.1-0.8-0.4-2.2-1.2-2.7c-0.7-0.4-1.5-0.8-2.4-0.8l0,0c0,0-1.3-0.2-2.5,0.6c-0.9-0.5-3.1-1.5-5.3-0.6c0,0-0.2,0-0.4,0.2
				c-0.4-0.1-1.6-0.2-2.9,0.1c-0.3,0-0.5-0.1-0.8-0.1c-1.4-0.2-2.4-0.4-3.1-0.1l0,0c0,0-1.6,0.4-1.9,2.2c-0.3,1.8,0,3,2.4,4
				c0.2,1.1,0.8,2.1,2.2,2.6l0,0C10.2,86.3,10.6,86.3,11,86.3z M20.1,78.4c1.4-1.1,3.1-0.8,4.2,0c0.5,0.3,0.8,1.2,1,2.4
				c0.3,1.7,0.1,3.7-0.4,4.2c-0.9,1-3.6,2.7-6.3,1.3c-0.2-0.6-1-4.1,0.4-6.7C19.3,79.3,19.7,78.8,20.1,78.4z M14.5,77.7
				c1.9-0.8,3.9,0,4.8,0.5c-0.7,0.6-1.4,1.5-1.7,3c-0.6,3.1,0,4.6,0.4,5.2c-4.7,0.8-5.1-0.7-5.4-1.6c0-0.1-0.1-0.2-0.1-0.3
				c-0.2-0.6-0.4-3.3,0.4-5.2C13.3,78.5,13.8,77.9,14.5,77.7z M7.6,82.8c-0.5-0.2-1.1-0.6-1.5-1.2c-0.3-0.5-0.4-1.2-0.2-1.9
				c0.7-2.4,1.5-2.3,4.2-1.8c-0.7,0.3-1.6,1-2.1,2.4C7.8,81,7.6,81.8,7.6,82.8z M8.4,82.3c0.1-1.6,0.7-3.1,1.5-3.7
				c1.1-0.9,2.8-0.8,3.6-0.7c-0.7,0.6-1.7,1.8-1.8,4.1c-0.1,2.2,0.3,3.4,1,4.1c-0.8,0.1-2.4,0.1-3.4-0.8C8.6,84.7,8.3,83.5,8.4,82.3
				z"/>
		</g>
	</g>
</g>
<g>
	
		<linearGradient id="SVGID_7_" gradientUnits="userSpaceOnUse" x1="76.1" y1="76.915" x2="90.9644" y2="76.915" gradientTransform="matrix(1 0 0 -1 0 152)">
		<stop  offset="0" style="stop-color:#EFD97F"/>
		<stop  offset="0.1978" style="stop-color:#EFD87C"/>
		<stop  offset="0.3726" style="stop-color:#EED571"/>
		<stop  offset="0.5387" style="stop-color:#EDCF5F"/>
		<stop  offset="0.6984" style="stop-color:#EBC845"/>
		<stop  offset="0.7526" style="stop-color:#EAC53B"/>
		<stop  offset="1" style="stop-color:#E5AD14"/>
	</linearGradient>
	<path class="st11" d="M89.6,68.6c-0.8-1.7-8.4-1.3-10.6,0c-1.7,1-2.6,4.1-2.9,5.4c1,2.4,2.1,5.2,2.9,8.4l1.1,0.3l3.8-0.7l2.3-1.3
		l2.9-2.4l1.1-2.7l0.7-1.9C91,73.6,90.4,70.3,89.6,68.6z"/>
	<path class="st0" d="M78.6,82.6l0.2,0.6c1,0.2,5.4,0.2,9.5-3.3s3-8.7,3-8.7l-0.2-0.3l-0.5,0.5c0.1,0.8,0.1,2.7-0.9,5.1
		c-1.4,3.3-6.2,6.4-10.7,5.6c-0.2,0-0.3,0.1-0.3,0.2s0.1,0.3,0.2,0.3L78.6,82.6z M79.2,82.7L79.2,82.7
		C79.3,82.7,79.2,82.7,79.2,82.7L79.2,82.7z"/>
</g>
<linearGradient id="SVGID_8_" gradientUnits="userSpaceOnUse" x1="9.4186" y1="138.7883" x2="21.4605" y2="138.7883" gradientTransform="matrix(1 0 0 -1 0 152)">
	<stop  offset="0" style="stop-color:#8F5E29"/>
	<stop  offset="0.2337" style="stop-color:#8A5A27"/>
	<stop  offset="0.5069" style="stop-color:#7C5023"/>
	<stop  offset="0.7987" style="stop-color:#653F1C"/>
	<stop  offset="1" style="stop-color:#503015"/>
</linearGradient>
<path class="st12" d="M21,15.2c0.2,0.1,0.3,0.2,0.5,0.4c-0.2-0.8-0.3-1.6-0.5-2.2c-2.2-1.3-4.4-2.2-6.6-2.5c-1.5-0.2-3.1,0-4.7,0.5
	c-0.1,0-0.2,0.1-0.3,0.1c0.1,0,0.2,0,0.2,0c1.5-0.2,3.1-0.1,4.7,0.4l0.6,0.2c0.1,0,0.2,0.1,0.3,0.1l0.3,0.1l1.1,0.4
	c0.4,0.2,0.7,0.4,1.1,0.6l0.6,0.3c0.2,0.1,0.3,0.2,0.6,0.3l1.1,0.7c0.2,0.1,0.3,0.2,0.5,0.4L21,15.2z"/>
<linearGradient id="SVGID_9_" gradientUnits="userSpaceOnUse" x1="73.0076" y1="80.05" x2="94.3792" y2="80.05" gradientTransform="matrix(1 0 0 -1 0 152)">
	<stop  offset="0" style="stop-color:#8F5E29"/>
	<stop  offset="0.2337" style="stop-color:#8A5A27"/>
	<stop  offset="0.5069" style="stop-color:#7C5023"/>
	<stop  offset="0.7987" style="stop-color:#653F1C"/>
	<stop  offset="1" style="stop-color:#503015"/>
</linearGradient>
<path class="st13" d="M94.4,84.8L94.4,84.8l-0.2-0.3l-0.3-0.4l-0.6-0.9l-1.1-1.8c-0.8-1.2-1.5-2.3-2.3-3.5c-1.5-2.3-3.1-4.6-4.7-6.9
	c-3.2-4.5-6.4-8.9-9.8-13.2c-0.2,0.1-0.4,0.2-0.6,0.3c-0.6,0.3-1.2,0.6-1.7,0.9c0.1,0.1,0.1,0.1,0.2,0.2
	c6.5,8.7,12.7,17.6,18.6,26.7c0.2,0.1,0.5,0.2,0.8,0.2s0.6,0,0.8-0.1c0.2-0.1,0.5-0.3,0.6-0.5c0-0.1,0.1-0.1,0.1-0.2l0.1-0.2
	C94.3,85,94.3,85,94.4,84.8L94.4,84.8z"/>
<path class="st14" d="M21.1,15.9c0.3,0.2,0.7,0.5,0.9,0.7c-0.1-0.3-0.2-0.7-0.3-1c-0.2-0.1-0.3-0.2-0.4-0.4l-0.5-0.4
	c-0.2-0.1-0.3-0.3-0.5-0.4l-1-0.7c-0.2-0.1-0.3-0.2-0.5-0.3l-0.5-0.3c-0.4-0.2-0.7-0.4-1.1-0.6L16,12.1L15.7,12
	c-0.1,0-0.2-0.1-0.3-0.1l-0.5-0.2c-1.5-0.4-2.9-0.6-4.5-0.4c-0.1,0-0.2,0-0.2,0c0.1,0,0.2-0.1,0.3-0.1c1.5-0.5,3-0.7,4.5-0.5
	c2.2,0.2,4.3,1.2,6.4,2.5c-0.1-0.3-0.1-0.5-0.1-0.7c-2-1.3-4.1-2.2-6.2-2.4c-1.5-0.2-3,0-4.6,0.5c-1.4,0.5-2.6,1.2-3.9,2.3
	c-0.2,0.1-0.3,0.2-0.4,0.4l0,0l0,0c-0.1,0.1-0.1,0.2-0.1,0.4c0,0.1,0.1,0.1,0.1,0.1c0.1,0,0.1,0,0.1,0l0,0l0,0l0,0
	c0.2-0.2,0.4-0.3,0.5-0.5C7,13.2,7.1,13.1,7.3,13c0.1,0.1,0.3-0.1,0.4-0.1l0.5-0.3c0.4-0.1,0.7-0.3,1.1-0.4c0.2,0,0.4-0.1,0.5-0.1
	l0.5-0.1c1.5-0.2,2.9,0,4.3,0.4l0.5,0.2c0.1,0,0.2,0.1,0.3,0.1l0.3,0.1l1.1,0.4c0.3,0.2,0.7,0.4,1,0.6l0.5,0.3
	c0.2,0.1,0.3,0.2,0.5,0.3l1,0.7c0.2,0.1,0.3,0.2,0.5,0.4L21.1,15.9z"/>
<path class="st14" d="M94.9,84.6L94.9,84.6l-0.1-0.2l-0.1-0.2l-0.3-0.4l-0.5-0.9l-1.1-1.8c-0.8-1.2-1.5-2.3-2.3-3.5
	c-1.5-2.3-3.1-4.6-4.7-6.9c-3.1-4.5-6.4-8.8-9.8-13.1c-0.2,0.1-0.4,0.2-0.6,0.3c3.4,4.3,6.7,8.7,9.8,13.2c1.6,2.3,3.2,4.5,4.7,6.9
	c0.8,1.2,1.5,2.3,2.3,3.5l1.1,1.8l0.6,0.9l0.3,0.4l0.1,0.2l0.1,0.1l0,0c-0.1,0.1-0.1,0.2-0.1,0.3l-0.1,0.2c0,0.1-0.1,0.1-0.1,0.2
	c-0.1,0.2-0.4,0.4-0.6,0.5s-0.5,0.1-0.8,0.1s-0.5-0.1-0.8-0.2c-5.9-9.1-12-18-18.7-26.5c-0.1-0.1-0.1-0.1-0.2-0.2
	c-0.2,0.1-0.4,0.2-0.6,0.3c0.1,0.1,0.2,0.2,0.3,0.3c6.7,8.5,12.9,17.4,18.8,26.5l0,0l0.1,0.1c0.3,0.2,0.7,0.3,1,0.3
	c0.4,0,0.7,0,1.1-0.1c0.3-0.1,0.6-0.4,0.8-0.7c0.1-0.1,0.1-0.1,0.1-0.2l0.1-0.2c0.1-0.2,0.1-0.4,0.2-0.6
	C94.9,84.7,94.9,84.7,94.9,84.6z"/>
<path class="st15" d="M6.1,26C6,26,6,25.9,6,25.9V13.7c0-0.1,0.1-0.1,0.1-0.1c0.1,0,0.1,0.1,0.1,0.1v12.2C6.2,26,6.1,26,6.1,26z"/>
<g>
	
		<linearGradient id="SVGID_10_" gradientUnits="userSpaceOnUse" x1="-71.3684" y1="37.3876" x2="-55.5757" y2="31.264" gradientTransform="matrix(-0.872 0.4895 -0.4895 -0.872 43.3402 131.0742)">
		<stop  offset="0" style="stop-color:#EFD97F"/>
		<stop  offset="0.1978" style="stop-color:#EFD87C"/>
		<stop  offset="0.3726" style="stop-color:#EED571"/>
		<stop  offset="0.5387" style="stop-color:#EDCF5F"/>
		<stop  offset="0.6984" style="stop-color:#EBC845"/>
		<stop  offset="0.7526" style="stop-color:#EAC53B"/>
		<stop  offset="1" style="stop-color:#E5AD14"/>
	</linearGradient>
	<path class="st16" d="M79.9,73.8c0.1-0.3,0.3-0.6,0.6-0.9c1.1-1.2,5.5-3.1,5.6-3.2s0.3,0,0.4,0.1s0,0.3-0.1,0.4
		c-1.4,0.6-2.9,1.3-4.2,2.1c-0.8,0.5-1.7,1.3-1.8,2.3c0,0.1,0,0.2,0,0.3c0.2,1.6,1.8,2.4,2.3,2.4c1,0,2.5-0.3,4.5-1.4
		c3.6-1.9,4.8-4.3,3.8-7.3c0-0.1,0-0.1,0-0.2c0-0.2,0.9-3.7-2.5-5.3c-0.1,0-0.1-0.1-0.1-0.2c-1.7-4.5-7.2-2.9-7.5-2.8
		c-1.2,0.4-2.4,1-3.4,1.7c0,0-3.3,3.2-0.2,6.5l0,0l0,0c0.1-0.2,0.3-0.3,0.4-0.4c2.2-1.8,6.8-3.9,7-3.9c0.1-0.1,0.3,0,0.4,0.1
		s0,0.3-0.1,0.4c0,0-0.7,0.3-1.6,0.8l-0.5,0.3c0.3-0.1,0.5-0.2,0.5-0.2c-0.6,0.3-0.5,0.2-0.5,0.2c-1.3,0.7-4.6,2.5-5.2,4.1
		C76.9,71.6,79.9,73.8,79.9,73.8z"/>
	<g>
		<path class="st0" d="M79.9,76.4c0.2,0.5,0.9,1.4,1.6,1.7c0.9,0.4,2.6,0.2,6.1-1.7c0.1,0,0.1-0.1,0.2-0.1c3.6-2,4.9-4.6,3.9-7.8
			c0.1-0.6,0.7-4.1-2.7-5.8c-0.2-0.6-1.5-3.7-4.3-3.8c-3,0-8.9,2.2-9.6,5.5c-0.6,2.9,1.3,4.8,1.8,5.3c-0.1,0.6-0.1,1.2,0.1,1.9
			c0.5,1.6,1.6,2.9,2.8,3.2C79.6,75.4,79.7,75.9,79.9,76.4z M77.6,69.7c0.6-1.5,3.9-3.4,5.2-4.1c0,0-0.1,0,0.5-0.2
			c0,0-0.2,0.1-0.5,0.2l0.5-0.3c0.9-0.5,1.6-0.7,1.6-0.8c0.1-0.1,0.2-0.2,0.1-0.4c-0.1-0.1-0.2-0.2-0.4-0.1c-0.2,0.1-4.8,2.1-7,3.9
			c-0.2,0.1-0.3,0.3-0.4,0.4l0,0l0,0c-3.2-3.3,0.2-6.5,0.2-6.5c1-0.7,2.2-1.3,3.4-1.7c0.4-0.1,5.8-1.7,7.5,2.8
			c0,0.1,0.1,0.1,0.1,0.2c3.5,1.6,2.6,5.1,2.5,5.3c0,0.1,0,0.1,0,0.2c1,3-0.2,5.4-3.8,7.3c-2,1.1-3.4,1.4-4.5,1.4
			c-0.5,0-2.2-0.7-2.3-2.4c0-0.1,0-0.2,0-0.3c0.1-1,1-1.8,1.8-2.3c1.3-0.9,2.8-1.5,4.2-2.1c0.1-0.1,0.2-0.2,0.1-0.4
			c-0.1-0.1-0.2-0.2-0.4-0.1c-0.2,0.1-4.5,2-5.6,3.2c-0.3,0.3-0.5,0.6-0.6,0.9C79.9,73.8,76.9,71.6,77.6,69.7z"/>
		<g class="st17">
			<path class="st18" d="M78.1,66.8c0.5,0.1,0.9,0.1,1.3,0c-0.6,0.4-1.3,0.8-1.7,1.2c-0.2,0.1-0.3,0.3-0.4,0.4l0,0l0,0
				c-1.9-1.9-1.5-3.8-0.9-5.1C76.4,63.4,76.8,66.6,78.1,66.8z"/>
			<path class="st18" d="M78.6,68.4c-0.3,0.5-0.5,1-0.3,1.5c0.5,1.6,1.1,2.6,3,2.4c-0.3,0.2-0.6,0.4-0.7,0.6
				c-0.3,0.3-0.5,0.6-0.6,0.9c0,0-3.1-2.2-2.3-4.1C77.8,69.3,78.2,68.8,78.6,68.4z"/>
			<path class="st18" d="M80.5,75c0-0.1,0-0.2,0-0.3c0.1-0.7,0.6-1.3,1.1-1.8c-0.3,0.8-0.6,2.2,0.5,3.1c0.9,0.7,1.7,1,2.3,1.2
				c-0.7,0.2-1.2,0.3-1.7,0.3C82.3,77.4,80.7,76.7,80.5,75z"/>
		</g>
	</g>
</g>
<path class="st19" d="M6.2,25.7L6.2,25.7H6c-1.5,0.1-2.7,1.3-2.7,2.8s1.2,2.8,2.7,2.8h0.1h0.1c1.5-0.1,2.7-1.3,2.7-2.8
	S7.7,25.8,6.2,25.7z M6.1,31c-1.3,0-2.4-1.1-2.4-2.4s1.1-2.4,2.4-2.4s2.4,1.1,2.4,2.4S7.4,31,6.1,31z"/>
<ellipse class="st20" cx="6.1" cy="28.5" rx="2.4" ry="2.4"/>
<g>
	<path class="st15" d="M6.2,31.1v5.4c0,0.1,0,0.1-0.1,0.1c0,0,0,0-0.1,0c0,0,0,0-0.1,0s-0.1-0.1-0.1-0.1v-5.4C5.8,31,5.9,31,5.9,31
		C6.1,31,6.2,31,6.2,31.1z"/>
	<path class="st21" d="M10,60.8l-3.1-6.7c5-10.4-0.6-18-0.7-18.1l0,0c-0.1-0.1-0.2-0.1-0.3,0l0,0c-0.1,0.1-5.7,7.8-0.7,18.1
		c-0.4,0.8-3.1,6.6-3.1,6.7c-0.2,0.5,0.5,0.9,1.1,1.3c0.2,0.1,0.3,0.2,0.4,0.2c0.7,0.5,1.5,0.5,2.4,0.5h0.1c0.2,0,0.4,0,0.6,0l0,0
		c1.4-0.2,2.7-0.4,3.3-1.8C10,61,10,60.9,10,60.8z M6.6,62.4L6.6,62.4c-0.2,0-0.4,0-0.6,0H5.9c-0.8,0-1.5,0-2.1-0.4
		c-0.1-0.1-0.2-0.2-0.4-0.2c-0.8-0.4-1-0.6-0.9-0.7c0-0.1,3.2-6.8,3.2-6.8c0-0.1,0-0.1,0-0.2C1.3,45.2,5,38.3,6,36.7
		c0,0,0-0.1,0.1-0.1c0,0,0,0.1,0.1,0.1c1,1.6,4.7,8.5,0.3,17.4c0,0.1,0,0.1,0,0.2L9.6,61C9,62,8,62.2,6.6,62.4z"/>
	
		<linearGradient id="SVGID_11_" gradientUnits="userSpaceOnUse" x1="2.4979" y1="102.55" x2="9.5751" y2="102.55" gradientTransform="matrix(1 0 0 -1 0 152)">
		<stop  offset="0" style="stop-color:#B0CBD9"/>
		<stop  offset="1" style="stop-color:#7ABEE1"/>
	</linearGradient>
	<path class="st22" d="M9.6,60.9C9,62,8,62.1,6.7,62.3l0,0c-0.2,0-0.3,0-0.5,0H6.1c-0.8,0-1.5,0-2.1-0.4c-0.1-0.1-0.2-0.2-0.4-0.2
		c-0.8-0.4-1-0.6-0.9-0.7c0-0.1,3.2-6.8,3.2-6.8c0-0.1,0-0.1,0-0.2c-4.4-8.9-0.7-15.8,0.3-17.4c0,0,0,0,0.1,0h0.1
		c1,1.6,4.7,8.5,0.3,17.4c0,0.1,0,0.1,0,0.2L9.6,60.9z"/>
	<g>
		
			<linearGradient id="SVGID_12_" gradientUnits="userSpaceOnUse" x1="3.9833" y1="110.1222" x2="8.1365" y2="110.1222" gradientTransform="matrix(1 0 0 -1 0 152)">
			<stop  offset="0" style="stop-color:#B0CBD9"/>
			<stop  offset="1" style="stop-color:#7ABEE1"/>
		</linearGradient>
		<path class="st23" d="M5.4,41.5c-0.1,0.2-0.4,0.7-0.3,1.1c0.1,0.2,0.4,0.3,0.7,0.3c0.4,0,0.7-0.1,0.8-0.4c0.2-0.4,0.1-0.9,0-1.1
			C7,41.3,7.5,41.2,8.1,41c0,0,0.1-0.1,0-0.1c0,0-0.1-0.1-0.1,0c-2.6,1.1-4.1,0-4.1,0H3.8V41C4,41,4.5,41.4,5.4,41.5z M6.1,41.5
			l0.1,0.7c0,0,0,0.1,0.1,0.1l0,0c0,0,0.1,0,0.1-0.1l-0.1-0.7c0.1,0,0.2,0,0.3,0c0.1,0.2,0.2,0.7,0,1c-0.1,0.2-0.4,0.3-0.7,0.3
			c-0.3,0-0.5-0.1-0.6-0.2c-0.1-0.3,0.2-0.8,0.3-1c0.1,0,0.2,0,0.2,0l-0.1,0.7c0,0,0,0.1,0.1,0.1l0,0c0,0,0.1,0,0.1-0.1L6.1,41.5
			C6,41.5,6.1,41.5,6.1,41.5z"/>
		
			<linearGradient id="SVGID_13_" gradientUnits="userSpaceOnUse" x1="3.9532" y1="108" x2="8.1494" y2="108" gradientTransform="matrix(1 0 0 -1 0 152)">
			<stop  offset="0" style="stop-color:#B0CBD9"/>
			<stop  offset="1" style="stop-color:#7ABEE1"/>
		</linearGradient>
		<path class="st24" d="M4.9,44c0.1,0,0.2-0.1,0.2-0.1c0.1,0,0.1-0.1,0.2-0.1l0.1,0.1c0.1,0.1,0.3,0.2,0.5,0.2c0.3,0.1,0.7,0,1-0.1
			c0.2-0.1,0.4,0.1,0.6,0.2s0.4,0,0.6,0c0.1,0,0.1-0.2,0-0.1c-0.2,0.1-0.5,0.1-0.7-0.1c-0.1-0.1-0.2-0.2-0.4-0.1
			c-0.2,0.1-0.3,0.2-0.5,0.2s-0.4,0-0.6,0c-0.2-0.1-0.3-0.2-0.5-0.3c-0.1-0.1-0.2,0-0.3,0c-0.4,0.3-0.8,0.3-1.2,0
			c-0.1-0.1-0.1,0.1-0.1,0.1C4.2,44,4.6,44.1,4.9,44z"/>
		
			<linearGradient id="SVGID_14_" gradientUnits="userSpaceOnUse" x1="4.4807" y1="106.7633" x2="7.4371" y2="106.7633" gradientTransform="matrix(1 0 0 -1 0 152)">
			<stop  offset="0" style="stop-color:#B0CBD9"/>
			<stop  offset="1" style="stop-color:#7ABEE1"/>
		</linearGradient>
		<path class="st25" d="M7.4,45c-0.2,0.1-0.5,0.2-0.7,0.2c-0.1,0-0.2-0.1-0.4-0.1C6.2,45,6.1,45,6,45s-0.2,0.1-0.3,0.1
			c-0.1,0-0.3,0.1-0.4,0.1c-0.3,0-0.5-0.1-0.8-0.2c-0.1,0-0.2,0.1-0.1,0.1c0.2,0.1,0.5,0.2,0.7,0.2c0.1,0,0.3,0,0.4,0
			s0.3-0.2,0.5-0.1c0.1,0,0.2,0.1,0.3,0.2c0.1,0,0.2,0.1,0.3,0.1c0.3,0,0.5-0.1,0.7-0.2C7.5,45.1,7.5,44.9,7.4,45z"/>
		
			<linearGradient id="SVGID_15_" gradientUnits="userSpaceOnUse" x1="3.9079" y1="105.8207" x2="8.451" y2="105.8207" gradientTransform="matrix(1 0 0 -1 0 152)">
			<stop  offset="0" style="stop-color:#B0CBD9"/>
			<stop  offset="1" style="stop-color:#7ABEE1"/>
		</linearGradient>
		<path class="st26" d="M4.8,46.4c0.2,0,0.3-0.1,0.5-0.1c0.2-0.1,0.4,0.2,0.7,0.2c0.2,0,0.4,0,0.5,0s0.2-0.1,0.3-0.1
			c0,0,0.1,0,0.1-0.1c0.1,0,0.2,0,0.3,0c0.4,0.2,0.8,0.2,1.2,0c0.1,0,0-0.2-0.1-0.1c-0.2,0.1-0.5,0.2-0.8,0.1
			c-0.2,0-0.3-0.2-0.5-0.2s-0.4,0.1-0.5,0.2c-0.2,0.1-0.5,0.1-0.7,0.1c-0.1,0-0.2-0.1-0.3-0.1c-0.1,0-0.1-0.1-0.2-0.1
			S5,46.3,4.9,46.3c-0.4,0.1-0.9-0.1-1.2-0.4c-0.1-0.1-0.2,0-0.1,0.1C4.1,46.3,4.4,46.4,4.8,46.4z"/>
		
			<linearGradient id="SVGID_16_" gradientUnits="userSpaceOnUse" x1="4.5657" y1="104.5875" x2="7.5743" y2="104.5875" gradientTransform="matrix(1 0 0 -1 0 152)">
			<stop  offset="0" style="stop-color:#B0CBD9"/>
			<stop  offset="1" style="stop-color:#7ABEE1"/>
		</linearGradient>
		<path class="st27" d="M5.5,47.6c0.1,0,0.1,0,0.2,0s0.1-0.1,0.2-0.1s0.2,0.1,0.2,0.1c0.1,0,0.1,0.1,0.2,0.1s0.3,0.1,0.4,0.1
			c0.3,0,0.6,0,0.9-0.2c0.1,0,0-0.2-0.1-0.1c-0.3,0.1-0.5,0.2-0.8,0.1c-0.3,0-0.5-0.1-0.8-0.2c-0.1,0-0.1-0.1-0.2,0
			s-0.2,0.1-0.4,0.1c-0.2,0-0.8-0.1-0.7-0.4c0-0.1-0.1-0.1-0.1,0c0,0.3,0.3,0.4,0.5,0.5C5.2,47.6,5.3,47.6,5.5,47.6z"/>
		
			<linearGradient id="SVGID_17_" gradientUnits="userSpaceOnUse" x1="4.076" y1="103.0638" x2="7.8673" y2="103.0638" gradientTransform="matrix(1 0 0 -1 0 152)">
			<stop  offset="0" style="stop-color:#B0CBD9"/>
			<stop  offset="1" style="stop-color:#7ABEE1"/>
		</linearGradient>
		<path class="st28" d="M7.9,48.9C7.9,48.8,7.8,48.7,7.9,48.9c-0.2,0.2-0.7,0.2-0.8-0.1c0-0.1-0.1-0.1-0.1,0
			c-0.2,0.2-0.5,0.3-0.8,0.3c-0.1,0-0.3,0-0.4-0.1c-0.1,0-0.2-0.1-0.3-0.2c-0.1,0-0.1,0-0.2,0C5.2,48.9,5.1,49,4.9,49
			c-0.3,0.1-0.7,0-0.8-0.3c0-0.1-0.2,0-0.1,0.1c0.1,0.2,0.4,0.4,0.6,0.4s0.3,0,0.5-0.1c0.1,0,0.1-0.1,0.2-0.1c0.1-0.1,0.1-0.1,0.2,0
			C6,49.3,6.6,49.3,7,48.9C7.2,49.3,7.8,49.3,7.9,48.9z"/>
		
			<linearGradient id="SVGID_18_" gradientUnits="userSpaceOnUse" x1="4.8121" y1="101.6641" x2="7.0388" y2="101.6641" gradientTransform="matrix(1 0 0 -1 0 152)">
			<stop  offset="0" style="stop-color:#B0CBD9"/>
			<stop  offset="1" style="stop-color:#7ABEE1"/>
		</linearGradient>
		<path class="st29" d="M4.8,50.1c-0.1,0.3,0.3,0.4,0.5,0.4c0.3,0,0.5,0,0.8-0.2c0.3,0.3,0.6,0.4,1,0.3c0.1,0,0.1-0.2,0-0.1
			c-0.3,0.1-0.7-0.1-0.9-0.3H6.1c-0.2,0.1-0.4,0.2-0.6,0.2c-0.1,0-0.2,0-0.3,0c-0.1,0-0.3-0.1-0.2-0.2C4.9,50,4.8,50,4.8,50.1z"/>
		
			<linearGradient id="SVGID_19_" gradientUnits="userSpaceOnUse" x1="5.2196" y1="100.5707" x2="6.6679" y2="100.5707" gradientTransform="matrix(1 0 0 -1 0 152)">
			<stop  offset="0" style="stop-color:#B0CBD9"/>
			<stop  offset="1" style="stop-color:#7ABEE1"/>
		</linearGradient>
		<path class="st30" d="M6.6,51.5C6.7,51.5,6.7,51.3,6.6,51.5c-0.3,0-0.5,0-0.8,0c-0.1,0-0.2,0-0.3-0.1c-0.1-0.1-0.1-0.2-0.2-0.2
			c-0.1-0.1-0.2,0-0.1,0.1c0.1,0.2,0.3,0.4,0.5,0.4c0.1,0,0.3,0,0.4,0C6.3,51.6,6.5,51.6,6.6,51.5z"/>
		
			<linearGradient id="SVGID_20_" gradientUnits="userSpaceOnUse" x1="3.7322" y1="93.4125" x2="5.5901" y2="93.4125" gradientTransform="matrix(1 0 0 -1 0 152)">
			<stop  offset="0" style="stop-color:#B0CBD9"/>
			<stop  offset="1" style="stop-color:#7ABEE1"/>
		</linearGradient>
		<path class="st31" d="M5.5,56c-0.7,1.5-1.4,3.1-1.8,4.7c0,0.1,0.1,0.1,0.1,0c0.3-1.6,1-3,1.7-4.5c0,0.3,0,0.6,0,0.9
			c0,0.4,0,0.9-0.1,1.3c-0.1,0.9-0.1,1.8-0.1,2.8c0,0.1,0.1,0.1,0.1,0c0-1,0.1-1.9,0.2-2.9c0-0.5,0-0.9,0.1-1.4c0-0.3,0-0.7,0-1
			C5.6,55.9,5.5,55.9,5.5,56z"/>
		
			<linearGradient id="SVGID_21_" gradientUnits="userSpaceOnUse" x1="6.0406" y1="93.05" x2="8.6538" y2="93.05" gradientTransform="matrix(1 0 0 -1 0 152)">
			<stop  offset="0" style="stop-color:#B0CBD9"/>
			<stop  offset="1" style="stop-color:#7ABEE1"/>
		</linearGradient>
		<path class="st32" d="M8.7,60.6c-0.8-1.5-1.6-3-2.2-4.5c0-0.1-0.1-0.1-0.1,0c-0.1,1.9-0.2,3.8-0.3,5.7c0,0.1,0.1,0.1,0.1,0
			c0.1-1.8,0.2-3.6,0.3-5.4C7.1,57.9,7.9,59.3,8.7,60.6C8.6,60.8,8.7,60.7,8.7,60.6z"/>
	</g>
	
		<linearGradient id="SVGID_22_" gradientUnits="userSpaceOnUse" x1="5.7567" y1="112.9" x2="6.2934" y2="112.9" gradientTransform="matrix(1 0 0 -1 0 152)">
		<stop  offset="0" style="stop-color:#B0CBD9"/>
		<stop  offset="1" style="stop-color:#7ABEE1"/>
	</linearGradient>
	<circle class="st33" cx="6" cy="39.1" r="0.3"/>
</g>
</svg>
