<?xml version="1.0" encoding="utf-8"?>
<!-- Generator: Adobe Illustrator 21.0.0, SVG Export Plug-In . SVG Version: 6.00 Build 0)  -->
<svg version="1.1" id="圖層_1" xmlns="http://www.w3.org/2000/svg" xmlns:xlink="http://www.w3.org/1999/xlink" x="0px" y="0px"
	 viewBox="0 0 822.9 601.4" style="enable-background:new 0 0 822.9 601.4;" xml:space="preserve">
<style type="text/css">
	.st0{fill:url(#SVGID_1_);}
	.st1{fill:#E1BE3F;}
	.st2{fill:#AB6C21;}
	.st3{opacity:0.6;fill:#E1BE3F;}
	.st4{fill:url(#SVGID_2_);}
	.st5{fill:#66411D;}
	.st6{fill:url(#SVGID_3_);}
	.st7{fill:#D9B974;}
	.st8{fill:#DCBF93;}
	.st9{fill:url(#SVGID_4_);}
	.st10{fill:url(#SVGID_5_);}
	.st11{fill:url(#SVGID_6_);}
	.st12{fill:url(#SVGID_7_);}
	.st13{fill:#8C5924;}
	.st14{fill:url(#SVGID_8_);}
	.st15{fill:url(#SVGID_9_);}
	.st16{fill:url(#SVGID_10_);}
	.st17{fill:url(#SVGID_11_);}
	.st18{fill:#F4E3A5;}
	.st19{fill:#DEB87D;}
	.st20{fill:url(#SVGID_12_);}
	.st21{fill:url(#SVGID_13_);}
	.st22{fill:#3F210F;}
	.st23{opacity:0.25;fill:#E1BE3F;}
	.st24{opacity:0.5;fill:#E1BE3F;}
	.st25{fill:#F8E5A9;}
	.st26{fill:#DDBC90;}
	.st27{opacity:0.4;fill:#E1BE3F;}
	.st28{fill:#875424;}
	.st29{fill:#3F210E;}
	.st30{fill:#C88E2C;}
	.st31{fill:#AC7327;}
	.st32{fill:#FFFFFF;}
	.st33{fill:#814323;}
	.st34{fill:#D7C6A6;}
	.st35{fill:url(#SVGID_14_);}
	.st36{fill:#4A1E0E;}
	.st37{fill:#3A1D13;}
	.st38{fill:url(#SVGID_15_);}
	.st39{fill:#EAA593;}
	.st40{fill:url(#SVGID_16_);}
	.st41{fill:url(#SVGID_17_);}
	.st42{fill:#D59543;}
	.st43{opacity:0.6;fill:#D59543;}
	.st44{fill:url(#SVGID_18_);}
	.st45{fill:#231815;}
	.st46{fill:#181716;}
	.st47{fill:url(#SVGID_19_);}
	.st48{fill:#D48538;}
	.st49{opacity:0.8;fill:url(#SVGID_20_);}
	.st50{fill:url(#SVGID_21_);}
	.st51{fill:#F3D39F;}
	.st52{opacity:0.8;fill:url(#SVGID_22_);}
	.st53{fill:#373330;}
	.st54{fill:url(#SVGID_23_);}
	.st55{fill:#65605F;}
	.st56{fill:url(#SVGID_24_);}
	.st57{fill:url(#SVGID_25_);}
	.st58{fill:url(#SVGID_26_);}
	.st59{fill:#796F6E;}
	.st60{fill:#211F1E;}
	.st61{fill:#5A5452;}
	.st62{fill:#EBE3D8;}
	.st63{fill:url(#SVGID_27_);}
	.st64{fill:url(#SVGID_28_);}
	.st65{fill:#C5BDBC;}
	.st66{fill:#FFF9F5;}
	.st67{opacity:0.8;fill:url(#SVGID_29_);}
	.st68{opacity:0.6;fill:url(#SVGID_30_);}
	.st69{fill:url(#SVGID_31_);}
	.st70{fill:url(#SVGID_32_);}
</style>
<g>
	<path class="st45" d="M348,462.7H228.6c-0.4,0-0.8,0.3-0.8,0.8v15.8c0,0.4,0.3,0.8,0.8,0.8H348c0.4,0,0.8-0.3,0.8-0.8v-15.8
		C348.7,463,348.4,462.7,348,462.7z M347.2,464.2v6.4H229.3v-6.4H347.2z M229.3,478.5v-6.4h117.9v6.4H229.3z"/>
	<rect x="229.3" y="464.2" class="st46" width="117.9" height="6.4"/>
	<rect x="229.3" y="472.1" class="st46" width="117.9" height="6.4"/>
	<linearGradient id="SVGID_1_" gradientUnits="userSpaceOnUse" x1="70.4065" y1="280.8649" x2="184.3155" y2="280.8649">
		<stop  offset="0" style="stop-color:#F7D076"/>
		<stop  offset="0.2047" style="stop-color:#F6C96A"/>
		<stop  offset="0.7004" style="stop-color:#F5BB50"/>
		<stop  offset="1" style="stop-color:#F5B647"/>
	</linearGradient>
	<path class="st0" d="M184.3,202.4c0,6.7-1.4,13.2-4.1,19.3l-73.4,164H79.1l-8.7-13.8c0.1-0.1,0.2-0.1,0.2-0.3l94.8-191.3
		c1.8-3.6,6-5.3,9.8-3.9l3.9,1.4c3.1,1.1,5.2,4.1,5.2,7.4V202.4z"/>
	<path class="st48" d="M179.7,176.6l-3.9-1.4c-4.5-1.7-9.5,0.3-11.7,4.7L69.5,370.5l-0.3-0.5c-0.2-0.3-0.7-0.5-1-0.2
		c-0.4,0.2-0.5,0.7-0.2,1l10.1,16.1c0.1,0.2,0.4,0.3,0.6,0.3h28.6c0.1,0,0.2,0,0.3-0.1c0,0,0,0,0.1,0c0.1,0,0.1-0.1,0.2-0.1
		c0,0,0,0,0,0c0.1-0.1,0.1-0.1,0.1-0.2l73.6-164.4c2.8-6.3,4.3-13,4.3-19.9v-17C185.8,181.5,183.3,177.9,179.7,176.6z M184.3,202.4
		c0,6.7-1.4,13.2-4.1,19.3l-73.4,164H79.1l-8.7-13.8c0.1-0.1,0.2-0.1,0.2-0.3l94.8-191.3c1.8-3.6,6-5.3,9.8-3.9l3.9,1.4
		c3.1,1.1,5.2,4.1,5.2,7.4V202.4z"/>
	<linearGradient id="SVGID_2_" gradientUnits="userSpaceOnUse" x1="97.139" y1="290.4936" x2="184.3155" y2="290.4936">
		<stop  offset="0" style="stop-color:#F7D076"/>
		<stop  offset="0.2047" style="stop-color:#F6C96A"/>
		<stop  offset="0.7004" style="stop-color:#F5BB50"/>
		<stop  offset="1" style="stop-color:#F5B647"/>
	</linearGradient>
	<path style="opacity:0.8;fill:url(#SVGID_2_);" d="M97.1,385.7h9.7l73.4-164c2.7-6.1,4.1-12.6,4.1-19.3v-7.1L97.1,385.7z"/>
	<linearGradient id="SVGID_3_" gradientUnits="userSpaceOnUse" x1="157.0629" y1="260.3113" x2="247.4168" y2="260.3113">
		<stop  offset="0" style="stop-color:#F7D076"/>
		<stop  offset="0.2047" style="stop-color:#F6C96A"/>
		<stop  offset="0.7004" style="stop-color:#F5BB50"/>
		<stop  offset="1" style="stop-color:#F5B647"/>
	</linearGradient>
	<path class="st6" d="M211.7,333h12.7l17.3-24.7l5.6-15.4L181.9,196c0,0-5.3-13.5-18.8-6.3c0,0-13.6,6.5,0,33.3L211.7,333z"/>
	<path class="st48" d="M211.8,334.2c-0.3,0-0.6-0.2-0.7-0.4l-49-111.6c-0.5-0.9-13.5-24.4,0.3-32.9c4.1-2.5,7.9-3.2,11.4-2.1
		c5.9,1.9,8.8,8.3,9.2,9.1l65,96.6c0.2,0.3,0.1,0.8-0.2,1c-0.3,0.2-0.8,0.1-1-0.2l-65.1-96.6c0,0-0.1-0.1-0.1-0.1
		c0-0.1-2.8-6.5-8.3-8.3c-3.1-1-6.5-0.3-10.2,1.9c-12.6,7.8,0.1,30.8,0.3,31l49,111.6c0.2,0.4,0,0.8-0.4,1
		C212,334.2,211.9,334.2,211.8,334.2z"/>
	<path class="st51" d="M172.3,212.5c-3.8,0-6.9-3.1-6.9-6.9c0-3.8,3.1-6.9,6.9-6.9c3.8,0,6.9,3.1,6.9,6.9
		C179.1,209.5,176.1,212.5,172.3,212.5z M172.3,200.3c-3,0-5.4,2.4-5.4,5.4c0,3,2.4,5.4,5.4,5.4c3,0,5.4-2.4,5.4-5.4
		C177.6,202.7,175.2,200.3,172.3,200.3z"/>
	<circle class="st48" cx="172.3" cy="205.7" r="5.4"/>
	<path class="st48" d="M211.8,334.2c-0.3,0-0.6-0.2-0.7-0.4l-49-111.6c-0.5-0.9-13.5-24.4,0.3-32.9c4.1-2.5,7.9-3.2,11.4-2.1
		c5.9,1.9,8.8,8.3,9.2,9.1l65,96.6c0.2,0.3,0.1,0.8-0.2,1c-0.3,0.2-0.8,0.1-1-0.2l-65.1-96.6c0,0-0.1-0.1-0.1-0.1
		c0-0.1-2.8-6.5-8.3-8.3c-3.1-1-6.5-0.3-10.2,1.9c-12.6,7.8,0.1,30.8,0.3,31l49,111.6c0.2,0.4,0,0.8-0.4,1
		C212,334.2,211.9,334.2,211.8,334.2z"/>
	<linearGradient id="SVGID_4_" gradientUnits="userSpaceOnUse" x1="166.8704" y1="281.1629" x2="242.5201" y2="281.1629">
		<stop  offset="0" style="stop-color:#F7D076"/>
		<stop  offset="0.2047" style="stop-color:#F6C96A"/>
		<stop  offset="0.7004" style="stop-color:#F5BB50"/>
		<stop  offset="1" style="stop-color:#F5B647"/>
	</linearGradient>
	<path style="opacity:0.8;fill:url(#SVGID_4_);" d="M224.5,333l17.3-24.7l0.7-2l-1.6-6.2c0,0-17.7,6.5-26.7,13.4l-47.4-84.2l0.7,3.7
		l44.2,100H224.5z"/>
	<polygon class="st46" points="161.4,528.6 180.9,516 181.6,533.5 161.4,543.8 	"/>
	<path class="st53" d="M220.2,480c-22.2,0-40.3,18.1-40.3,40.3c0,22.2,18.1,40.3,40.3,40.3H353c22.2,0,40.3-18.1,40.3-40.3
		c0-22.2-18.1-40.3-40.3-40.3H220.2z"/>
	<linearGradient id="SVGID_5_" gradientUnits="userSpaceOnUse" x1="187.389" y1="520.2521" x2="385.889" y2="520.2521">
		<stop  offset="0" style="stop-color:#99918F"/>
		<stop  offset="0.2339" style="stop-color:#8B8380"/>
		<stop  offset="0.7114" style="stop-color:#716967"/>
		<stop  offset="1" style="stop-color:#68605E"/>
	</linearGradient>
	<path class="st10" d="M221.2,486.5c-18.6,0-33.8,15.1-33.8,33.8c0,18.6,15.1,33.8,33.8,33.8h131c18.6,0,33.8-15.1,33.8-33.8
		c0-18.6-15.1-33.8-33.8-33.8H221.2z"/>
	<path class="st53" d="M350.5,500.6c-10.8,0-19.5,8.8-19.5,19.5c0,10.8,8.8,19.5,19.5,19.5c10.8,0,19.5-8.8,19.5-19.5
		C370.1,509.4,361.3,500.6,350.5,500.6z"/>
	<path class="st55" d="M350.5,511.6c-4.7,0-8.6,3.9-8.6,8.6s3.9,8.6,8.6,8.6c4.7,0,8.6-3.9,8.6-8.6S355.3,511.6,350.5,511.6z"/>
	<linearGradient id="SVGID_6_" gradientUnits="userSpaceOnUse" x1="19.3673" y1="430.932" x2="119.6515" y2="432.3813">
		<stop  offset="0" style="stop-color:#ACA3A0"/>
		<stop  offset="0.9003" style="stop-color:#998783"/>
		<stop  offset="1" style="stop-color:#97847F"/>
	</linearGradient>
	<path class="st11" d="M80.2,486.1l17.2,7.6c0,0,0,0,0,0c-3.7-4.4-4.6-7.2-5.6-10.2c-0.2-0.5-0.4-1.1-0.6-1.6
		c-1.8-4.8-3.2-9.5-2.1-14.6c0.1-0.6,0.3-1.3,0.6-2.1c3.5-10.1,7.8-20,12.6-30.9l17.8-40.2l-52-23c-7.2-3.2-15.6,0.1-18.8,7.3
		L20.3,444c-1.5,3.5-1.6,7.4-0.3,10.9c1.4,3.6,4,6.4,7.5,7.9L80.2,486.1z"/>
	<linearGradient id="SVGID_7_" gradientUnits="userSpaceOnUse" x1="203.2777" y1="367.7149" x2="328.5892" y2="367.7149">
		<stop  offset="0" style="stop-color:#F7D076"/>
		<stop  offset="0.2047" style="stop-color:#F6C96A"/>
		<stop  offset="0.7004" style="stop-color:#F5BB50"/>
		<stop  offset="1" style="stop-color:#F5B647"/>
	</linearGradient>
	<path class="st12" d="M203.3,386.4c0-40.6,12.8-63.8,23.6-76.2c11.1-12.7,22.3-16.8,23.5-17.3l58.1,0c0.8,0.1,19.8,2.6,19.8,20.3
		c0,17.4,0.3,74.6,0.3,81.9h-1.9c-0.4,0-0.8,0.3-0.8,0.8v7.5l-122.6,39.2V386.4z"/>
	<linearGradient id="SVGID_8_" gradientUnits="userSpaceOnUse" x1="189.5058" y1="428.2142" x2="343.2837" y2="430.4364">
		<stop  offset="0" style="stop-color:#F7D076"/>
		<stop  offset="0.1771" style="stop-color:#F6C663"/>
		<stop  offset="0.402" style="stop-color:#F6BD53"/>
		<stop  offset="0.6564" style="stop-color:#F5B84A"/>
		<stop  offset="1" style="stop-color:#F5B647"/>
	</linearGradient>
	<path class="st14" d="M372.1,462.7H203.3v-18.6l123.6-39.5c0.3-0.1,0.5-0.4,0.5-0.7v-7.3h44.7V462.7z"/>
	<path class="st59" d="M68.4,482.5c-0.1,0-0.2,0-0.3-0.1c-0.4-0.2-0.5-0.6-0.4-1l41.3-93c0.2-0.4,0.6-0.6,1-0.4
		c0.4,0.2,0.5,0.6,0.4,1l-41.3,93C69,482.3,68.7,482.5,68.4,482.5z"/>
	<path class="st59" d="M100.3,496.6c-0.1,0-0.2,0-0.3-0.1c-0.4-0.2-20.4-9-20.4-9L27,464.1c-3.8-1.7-6.8-4.8-8.3-8.7
		c-1.5-3.9-1.4-8.2,0.3-12.1l29.1-65.6c3.5-7.9,12.8-11.5,20.8-8l52.6,23.4c0.2,0.1,0.3,0.2,0.4,0.4c0.1,0.2,0.1,0.4,0,0.6
		L103.7,435c-4.8,10.9-9.1,20.7-12.6,30.8c-0.3,0.7-0.4,1.4-0.6,1.9c-1,4.7,0.4,9.2,2.1,13.8c0.2,0.6,0.4,1.1,0.6,1.6
		c1.2,3.4,2.2,6.5,7.6,12.3c0,0,0.1,0.1,0.1,0.2c0.1,0.1,0.1,0.2,0.1,0.4c0,0.3-0.2,0.6-0.5,0.7
		C100.5,496.6,100.4,496.6,100.3,496.6z M80.2,486.1l17.2,7.6c0,0,0,0,0,0c-3.7-4.4-4.6-7.2-5.6-10.2c-0.2-0.5-0.4-1.1-0.6-1.6
		c-1.8-4.8-3.2-9.5-2.1-14.6c0.1-0.6,0.3-1.3,0.6-2.1c3.5-10.1,7.8-20,12.6-30.9l17.8-40.2l-52-23c-7.2-3.2-15.6,0.1-18.8,7.3
		L20.3,444c-1.5,3.5-1.6,7.4-0.3,10.9c1.4,3.6,4,6.4,7.5,7.9L80.2,486.1z"/>
	<path class="st48" d="M372.9,395.1h-42.8c0-7.2-0.3-64.5-0.3-81.9c0-19.1-20.9-21.8-21.2-21.8h-58.3c-0.1,0-0.2,0-0.2,0
		c-0.5,0.2-12.3,4-24.2,17.7c-11,12.6-24,36.2-24,77.3v57.2c0,0,0,0,0,0v19.8c0,0.4,0.3,0.8,0.8,0.8h170.4c0.4,0,0.8-0.3,0.8-0.8
		v-67.6C373.6,395.4,373.3,395.1,372.9,395.1z M203.3,386.4c0-40.6,12.8-63.8,23.6-76.2c11.1-12.7,22.3-16.8,23.5-17.3l58.1,0
		c0.8,0.1,19.8,2.6,19.8,20.3c0,17.4,0.3,74.6,0.3,81.9h-1.9c-0.4,0-0.8,0.3-0.8,0.8v7.5l-122.6,39.2V386.4z M372.1,462.7H203.3
		v-18.6l123.6-39.5c0.3-0.1,0.5-0.4,0.5-0.7v-7.3h44.7V462.7z"/>
	<path class="st60" d="M353,562H220.2c-23,0-41.8-18.7-41.8-41.8c0-23,18.7-41.8,41.8-41.8H353c23,0,41.8,18.7,41.8,41.8
		C394.8,543.3,376.1,562,353,562z M220.2,480c-22.2,0-40.3,18.1-40.3,40.3c0,22.2,18.1,40.3,40.3,40.3H353
		c22.2,0,40.3-18.1,40.3-40.3c0-22.2-18.1-40.3-40.3-40.3H220.2z"/>
	<path class="st60" d="M352.1,555.5h-131c-19.4,0-35.3-15.8-35.3-35.3c0-19.4,15.8-35.3,35.3-35.3h131c19.4,0,35.3,15.8,35.3,35.3
		C387.4,539.7,371.6,555.5,352.1,555.5z M221.2,486.5c-18.6,0-33.8,15.1-33.8,33.8c0,18.6,15.1,33.8,33.8,33.8h131
		c18.6,0,33.8-15.1,33.8-33.8c0-18.6-15.1-33.8-33.8-33.8H221.2z"/>
	<path class="st60" d="M317.5,533.6H209.3c-0.4,0-0.8-0.3-0.8-0.8v-25.2c0-0.4,0.3-0.8,0.8-0.8h108.1c0.4,0,0.8,0.3,0.8,0.8v25.2
		C318.2,533.3,317.9,533.6,317.5,533.6z M210.1,532.1h106.6v-23.7H210.1V532.1z"/>
	<path class="st60" d="M350.5,541.2c-11.6,0-21-9.4-21-21c0-11.6,9.4-21,21-21c11.6,0,21,9.4,21,21
		C371.6,531.8,362.1,541.2,350.5,541.2z M350.5,500.6c-10.8,0-19.5,8.8-19.5,19.5c0,10.8,8.8,19.5,19.5,19.5
		c10.8,0,19.5-8.8,19.5-19.5C370.1,509.4,361.3,500.6,350.5,500.6z"/>
	<path class="st61" d="M350.5,529.5c-5.1,0-9.3-4.2-9.3-9.3s4.2-9.3,9.3-9.3c5.1,0,9.3,4.2,9.3,9.3S355.6,529.5,350.5,529.5z
		 M350.5,511.6c-4.7,0-8.6,3.9-8.6,8.6s3.9,8.6,8.6,8.6c4.7,0,8.6-3.9,8.6-8.6S355.3,511.6,350.5,511.6z"/>
	<path class="st45" d="M161,558.4H98.5c-0.3,0-0.6-0.2-0.7-0.5c0-0.1-0.4-1.1,0.3-2.3c1-1.8,3.7-3,8-3.7
		c11.7-1.9,39.1-11.4,40.2-58.6c0.1-2.2,1.8-3.9,4-3.9H161c0.4,0,0.8,0.3,0.8,0.8v67.6C161.8,558,161.5,558.4,161,558.4z
		 M99.2,556.9h61.1v-66.1h-9.9c-1.4,0-2.5,1.1-2.5,2.5c-1.2,48.3-29.4,58.1-41.5,60c-5,0.8-6.5,2.2-6.9,2.9
		C99.3,556.5,99.2,556.7,99.2,556.9z"/>
	<path class="st45" d="M161,528.8c-0.3,0-0.5-0.1-0.6-0.4c-0.2-0.4-0.1-0.8,0.2-1l18.3-11.3c0.4-0.2,0.8-0.1,1,0.2
		c0.2,0.4,0.1,0.8-0.2,1l-18.3,11.3C161.3,528.7,161.2,528.8,161,528.8z"/>
	<path class="st45" d="M161,543.9c-0.3,0-0.5-0.1-0.7-0.4c-0.2-0.4,0-0.8,0.3-1l20.2-10.3c0.4-0.2,0.8,0,1,0.3c0.2,0.4,0,0.8-0.3,1
		l-20.2,10.3C161.3,543.8,161.2,543.9,161,543.9z"/>
	<path class="st48" d="M220.1,372.6c-0.2,0-0.4-0.1-0.5-0.2c-0.2-0.1-0.2-0.3-0.2-0.5c0-23.9,7.2-43.1,21.4-57.1
		c9.9-9.8,20.2-11.7,20.7-11.8c0,0,0.1,0,0.1,0h25.1c0.2,0,0.4,0.1,0.5,0.2c0.1,0.1,0.2,0.3,0.2,0.5c-0.5,24.2-0.9,60.9-0.2,63.8
		c0.1,0.1,0.2,0.3,0.2,0.4c0,0.4-0.3,0.7-0.7,0.8L220.1,372.6C220.1,372.6,220.1,372.6,220.1,372.6z M261.6,304.5
		c-0.8,0.2-10.6,2.2-19.8,11.3C228,329.4,221,348,220.8,371.1l65-3.7c-0.8-6.4-0.4-36.8,0.1-62.9H261.6z M286.6,367.3L286.6,367.3
		L286.6,367.3z M286.6,367.3C286.6,367.3,286.6,367.3,286.6,367.3C286.6,367.3,286.6,367.3,286.6,367.3z"/>
	<path class="st48" d="M295.6,368.2c-0.2,0-0.4-0.1-0.5-0.2c-0.2-0.1-0.2-0.3-0.2-0.5v-63.8c0-0.4,0.3-0.8,0.8-0.8h7.8
		c8.2,0,14.8,6.6,14.8,14.8v48.3c0,0.4-0.3,0.7-0.7,0.7L295.6,368.2C295.6,368.2,295.6,368.2,295.6,368.2z M296.3,304.5v62.2
		l20.4-1.3v-47.6c0-7.3-6-13.3-13.3-13.3H296.3z"/>
	<path class="st48" d="M220.1,426.8c-0.2,0-0.3-0.1-0.4-0.1c-0.2-0.1-0.3-0.4-0.3-0.6v-40.7c0-0.4,0.3-0.7,0.7-0.7l66.6-4.9
		c0.2,0,0.4,0.1,0.6,0.2c0.2,0.1,0.2,0.3,0.2,0.5v25.3c0,0.3-0.2,0.6-0.5,0.7l-66.6,20.4C220.2,426.8,220.1,426.8,220.1,426.8z
		 M220.8,386v39l65.1-19.9v-23.9L220.8,386z"/>
	<path class="st59" d="M68.4,482.5c-0.1,0-0.2,0-0.3-0.1c-0.4-0.2-0.5-0.6-0.4-1l41.3-93c0.2-0.4,0.6-0.6,1-0.4
		c0.4,0.2,0.5,0.6,0.4,1l-41.3,93C69,482.3,68.7,482.5,68.4,482.5z"/>
	<rect x="210.1" y="508.4" class="st53" width="106.6" height="23.7"/>
	<path class="st53" d="M99.2,556.9h61.1v-66.1h-9.9c-1.4,0-2.5,1.1-2.5,2.5c-1.2,48.3-29.4,58.1-41.5,60c-5,0.8-6.5,2.2-6.9,2.9
		C99.3,556.5,99.2,556.7,99.2,556.9z"/>
	<path class="st45" d="M161,528.8c-0.3,0-0.5-0.1-0.6-0.4c-0.2-0.4-0.1-0.8,0.2-1l18.3-11.3c0.4-0.2,0.8-0.1,1,0.2
		c0.2,0.4,0.1,0.8-0.2,1l-18.3,11.3C161.3,528.7,161.2,528.8,161,528.8z"/>
	<path class="st45" d="M161,543.9c-0.3,0-0.5-0.1-0.7-0.4c-0.2-0.4,0-0.8,0.3-1l20.2-10.3c0.4-0.2,0.8,0,1,0.3c0.2,0.4,0,0.8-0.3,1
		l-20.2,10.3C161.3,543.8,161.2,543.9,161,543.9z"/>
	<path class="st62" d="M261.6,304.5c-0.8,0.2-10.6,2.2-19.8,11.3C228,329.4,221,348,220.8,371.1l65-3.7c-0.8-6.4-0.4-36.8,0.1-62.9
		H261.6z"/>
	<path class="st62" d="M296.3,304.5v62.2l20.4-1.3v-47.6c0-7.3-6-13.3-13.3-13.3H296.3z"/>
	<polygon class="st62" points="220.8,386 220.8,425.1 285.9,405.2 285.9,381.3 	"/>
	<polygon class="st48" points="240.1,298.3 181.6,208 182.4,207.5 240.9,297.8 	"/>
	<rect x="335.1" y="403.2" class="st48" width="29.3" height="2.8"/>
	<rect x="335.1" y="410" class="st48" width="29.3" height="2.8"/>
	<rect x="335.1" y="416.8" class="st48" width="29.3" height="2.8"/>
	<rect x="335.1" y="423.7" class="st48" width="29.3" height="2.8"/>
	<rect x="335.1" y="430.5" class="st48" width="29.3" height="2.8"/>
	<rect x="335.1" y="437.3" class="st48" width="29.3" height="2.8"/>
	<linearGradient id="SVGID_9_" gradientUnits="userSpaceOnUse" x1="203.2777" y1="367.7172" x2="255.2594" y2="367.7172">
		<stop  offset="0" style="stop-color:#FDEBD1"/>
		<stop  offset="0.899" style="stop-color:#F9E8B4"/>
		<stop  offset="1" style="stop-color:#F8E8B0"/>
	</linearGradient>
	<path class="st15" d="M207,376.6c5.2-63.1,47.9-83.5,48.3-83.7l-4.9,0c-1.2,0.4-12.4,4.5-23.5,17.3c-10.8,12.4-23.6,35.6-23.6,76.2
		v56.2l3.7-1.2h0V376.6z"/>
	<linearGradient id="SVGID_10_" gradientUnits="userSpaceOnUse" x1="193.215" y1="432.2159" x2="305.6202" y2="433.8403">
		<stop  offset="0" style="stop-color:#FDEBD1"/>
		<stop  offset="0.899" style="stop-color:#F9E8B4"/>
		<stop  offset="1" style="stop-color:#F8E8B0"/>
	</linearGradient>
	<path class="st16" d="M326.9,404.6l-123.6,39.5v18.6h10.5v-12c0-2.8,1.8-5.3,4.5-6.2l109.2-36v-4.6
		C327.4,404.2,327.2,404.5,326.9,404.6z"/>
	<path class="st65" d="M38.4,449.7c-5.5-9.8,3.9-48.5,8.6-65.8l-26.6,60c-1.5,3.5-1.6,7.4-0.3,10.9c1.4,3.6,4,6.4,7.5,7.9L65,479.3
		C58.3,473.2,43.8,459.4,38.4,449.7z"/>
	<polygon class="st65" points="110.1,389.6 112.3,390.6 71.4,482.2 69.4,481.3 	"/>
	<path class="st66" d="M274.7,304.5l-40,65.8l18.7-1.1l32.3-52.8c0.1-4,0.1-8,0.2-11.9H274.7z"/>
	<polygon class="st66" points="220.8,422.5 244.1,384.3 225.3,385.7 220.8,393.1 	"/>
	<linearGradient id="SVGID_11_" gradientUnits="userSpaceOnUse" x1="206.9722" y1="412.005" x2="328.5892" y2="412.005">
		<stop  offset="0" style="stop-color:#F7D076"/>
		<stop  offset="0.2047" style="stop-color:#F6C96A"/>
		<stop  offset="0.7004" style="stop-color:#F5BB50"/>
		<stop  offset="1" style="stop-color:#F5B647"/>
	</linearGradient>
	<path style="opacity:0.8;fill:url(#SVGID_11_);" d="M325.9,395.9c0-0.4,0.3-0.8,0.8-0.8h1.9c0-1.7,0-6.3-0.1-12.4
		c-0.7,6.3-2.6,13.5-7.4,17.4C311.2,408,207,441.4,207,441.4l0,0l119-38V395.9z"/>
	<linearGradient id="SVGID_12_" gradientUnits="userSpaceOnUse" x1="205.5245" y1="526.1958" x2="385.889" y2="526.1958">
		<stop  offset="0" style="stop-color:#99918F"/>
		<stop  offset="0.2339" style="stop-color:#8B8380"/>
		<stop  offset="0.7114" style="stop-color:#716967"/>
		<stop  offset="1" style="stop-color:#68605E"/>
	</linearGradient>
	<path style="opacity:0.6;fill:url(#SVGID_12_);" d="M377.8,498.4c3.5,5.4,5.5,11.8,5.5,18.7c0,19-15.5,34.5-34.5,34.5H215.1
		c-3.3,0-6.5-0.5-9.5-1.4c4.7,2.5,10,3.9,15.6,3.9h131c18.6,0,33.8-15.1,33.8-33.8C385.9,511.9,382.8,504.3,377.8,498.4z"/>
	<path class="st48" d="M367.1,459.1H216.8c-0.3,0-0.5-0.2-0.5-0.5c0-0.3,0.2-0.5,0.5-0.5h150.3c0.3,0,0.5,0.2,0.5,0.5
		C367.6,458.9,367.4,459.1,367.1,459.1z"/>
</g>
<g>
	<g>
		<g>
			
				<linearGradient id="SVGID_13_" gradientUnits="userSpaceOnUse" x1="1015.0013" y1="381.4819" x2="1100.0723" y2="381.4819" gradientTransform="matrix(-1 0 0 1 1618.9467 0)">
				<stop  offset="0" style="stop-color:#EFD97F"/>
				<stop  offset="0.1978" style="stop-color:#EFD87C"/>
				<stop  offset="0.3726" style="stop-color:#EED571"/>
				<stop  offset="0.5387" style="stop-color:#EDCF5F"/>
				<stop  offset="0.6984" style="stop-color:#EBC845"/>
				<stop  offset="0.7526" style="stop-color:#EAC53B"/>
				<stop  offset="1" style="stop-color:#E5AD14"/>
			</linearGradient>
			<path class="st21" d="M518.7,357.3l8.1-18.4c0-0.5,0.1-1,0.2-1.5c0-0.2,0.1-0.3,0.1-0.5c0.1-0.4,0.1-0.7,0.2-1.1
				c0-0.2,0.1-0.4,0.1-0.5c0.1-0.4,0.2-0.8,0.4-1.2c0-0.1,0.1-0.3,0.1-0.4c0.2-0.5,0.4-1.1,0.6-1.6c0.1-0.1,0.1-0.3,0.2-0.4
				c0.2-0.4,0.3-0.8,0.5-1.2c0.1-0.2,0.2-0.4,0.3-0.6c0.2-0.4,0.4-0.7,0.5-1.1c0.1-0.2,0.2-0.4,0.3-0.6c3-5.6,7.1-11,10.1-14.5
				c0.1-0.1,0.2-0.2,0.3-0.4c15.8,19.9,33.8,47.3,47.8,81.6c0,0,13,12.4,13,29.8c0,17.4-13.3,23.1-20.6,21.5l0,0
				c-8.2,7-19.6,2.7-21.9-8.7l-0.1-0.2c-0.5,0.3-1,0.6-1.6,0.9c-4.9,2.4-11.3-0.6-13.3-5l0,0l0,0c-0.1-0.2-0.2-0.3-0.2-0.5l0.2-0.1
				l-1.6-14.1l0.5-0.1v-3.6l0.7-2.5c-0.3-0.7-0.6-1.5-0.9-2.3l-0.7-1l-0.9-2.4l-0.1-0.7c-2.7-6.5-6.6-15.4-11.8-26
				c-3.4-7-7.4-14.3-11.2-21L518.7,357.3z"/>
		</g>
		<path class="st1" d="M569.3,417.4c0,0,2.5,19.1-8.3,25.4l-2-5.3C559,437.5,570.6,431.5,569.3,417.4z"/>
		<path class="st1" d="M587.9,423.4c0,0,5,12.8,1.3,21.9c0,0-3.4,1.3-8.4,0.9C580.9,446.2,589.4,441.8,587.9,423.4z"/>
		<path class="st2" d="M569.6,423.4c0,0,0.1,11.4-9.5,15.7l-0.4-1.7C559.7,437.4,569.8,428.3,569.6,423.4z"/>
		<path class="st2" d="M588.8,430.1c0,0,0.7,10.6-5,16.2l-3.5-0.3C580.3,446.1,587.9,439,588.8,430.1z"/>
		<path class="st3" d="M518.7,357.3l8.1-18.4c0-0.5,0.1-1,0.2-1.5c0-0.2,0.1-0.3,0.1-0.5c0.1-0.4,0.1-0.7,0.2-1.1
			c0-0.2,0.1-0.4,0.1-0.5c0.1-0.4,0.2-0.8,0.4-1.2c0-0.1,0.1-0.3,0.1-0.4c0.2-0.5,0.4-1.1,0.6-1.6c0.1-0.1,0.1-0.3,0.2-0.4
			c0.2-0.4,0.3-0.8,0.5-1.2c0.1-0.2,0.2-0.4,0.3-0.6c0.2-0.4,0.4-0.7,0.5-1.1c0.1-0.2,0.2-0.4,0.3-0.6c0-0.1,0.1-0.2,0.1-0.2
			c10.8,21.3,22.4,49.5,23.1,73.6c0,0-13.4,17-8.5,33.3c-0.4-0.5-0.7-1-0.9-1.6l0,0l0,0c-0.1-0.2-0.2-0.3-0.2-0.5l0.2-0.1l-1.6-14.1
			l0.5-0.1v-3.6l0.9-3.1L542,409l-1-2.5l-20-43.6c0,0-1.1-1.3-2.9-4.2L518.7,357.3z"/>
		<g>
			<path class="st2" d="M542.9,413.5l-0.5-1.1c0,0,0,0,0-0.1c-0.2-0.4-13.2-29-24.9-52l1.3-3l0,0c10.8,20.8,22.7,47,25.4,52.8
				c0.5-1.2,0.9-1.7,0.9-1.7l0,0c1.1-1.9,2.4-3.5,2.5-3.6c0.2-0.3,0.6-0.3,0.9-0.1c0.3,0.2,0.3,0.6,0.1,0.9
				c-0.2,0.3-0.5,0.6-0.9,1.1c0,0-7,10.6-3.1,25.8h0c0.8,2.2,2.8,4.2,5.4,5.3c2.5,1,5.1,1,7.2-0.1c8.5-4.3,13.1-13.4,11.2-22.3
				c-0.1-0.3,0.1-0.7,0.5-0.8c0.3-0.1,0.7,0.1,0.8,0.5c1.9,8.7-2.1,17.6-9.9,22.5c1.2,5.4,4.6,9.5,9.1,10.9c4.4,1.3,8.9,0,12.6-3.6
				c8.9-8.9,5.5-22.4,5.5-22.5c-0.1-0.3,0.1-0.7,0.5-0.8c0.3-0.1,0.7,0.1,0.8,0.5c0,0.1,3.6,14.3-5.8,23.8c0,0,0,0,0,0
				c3,0.3,7.3-0.5,11.2-3.7c3.3-2.7,7.3-7.9,7.3-17.4c0-17-12.6-29.2-12.8-29.3c-0.1-0.1-0.1-0.1-0.2-0.2
				c-14-34.3-32-61.5-47.7-81.3c0.1-0.1,0.1-0.2,0.2-0.2c1.1-1.3,2.1-2.4,2.7-3c0,0,0,0,0,0c5.2,6.5,10.7,13.8,16,22l0,0
				c0,0,25.9,38.6,31.6,60.1c7,9.1,20.2,30.1,7.6,46.1c-1.2,1.8-2.6,3.2-3.9,4.3c-0.5,0.4-1,0.8-1.6,1.1c-0.1,0.1-0.2,0.1-0.2,0.1
				c0,0,0.1,0,0.1-0.1c-2.9,1.8-6.1,2.8-9.2,2.8c-0.8,0-1.6-0.1-2.4-0.2c-2.7,2.2-5.8,3.4-8.9,3.4c-1.2,0-2.5-0.2-3.7-0.5
				c-4.9-1.5-8.6-5.7-9.9-11.4c-0.3,0.2-0.6,0.3-0.9,0.5c-1.2,0.6-2.6,0.9-4.1,0.9c-1.4,0-2.8-0.3-4.2-0.8c-2.7-1.1-4.8-3.1-5.9-5.4
				h0c0,0,0-0.1-0.1-0.2c-0.1-0.1-0.1-0.3-0.2-0.4l0,0c0,0-1.1-2.6-1.4-7c-0.2-1.8-0.2-3.7-0.1-5.9
				C541.9,417.4,542.4,415.2,542.9,413.5z"/>
		</g>
	</g>
	<g>
		<g>
			
				<linearGradient id="SVGID_14_" gradientUnits="userSpaceOnUse" x1="789.0013" y1="381.4819" x2="874.0723" y2="381.4819" gradientTransform="matrix(1 0 0 1 -498.1536 0)">
				<stop  offset="0" style="stop-color:#EFD97F"/>
				<stop  offset="0.1978" style="stop-color:#EFD87C"/>
				<stop  offset="0.3726" style="stop-color:#EED571"/>
				<stop  offset="0.5387" style="stop-color:#EDCF5F"/>
				<stop  offset="0.6984" style="stop-color:#EBC845"/>
				<stop  offset="0.7526" style="stop-color:#EAC53B"/>
				<stop  offset="1" style="stop-color:#E5AD14"/>
			</linearGradient>
			<path class="st35" d="M376.1,357.3l-8.1-18.4c0-0.5-0.1-1-0.2-1.5c0-0.2-0.1-0.3-0.1-0.5c-0.1-0.4-0.1-0.7-0.2-1.1
				c0-0.2-0.1-0.4-0.1-0.5c-0.1-0.4-0.2-0.8-0.4-1.2c0-0.1-0.1-0.3-0.1-0.4c-0.2-0.5-0.4-1.1-0.6-1.6c-0.1-0.1-0.1-0.3-0.2-0.4
				c-0.2-0.4-0.3-0.8-0.5-1.2c-0.1-0.2-0.2-0.4-0.3-0.6c-0.2-0.4-0.4-0.7-0.5-1.1c-0.1-0.2-0.2-0.4-0.3-0.6c-3-5.6-7.1-11-10.1-14.5
				c-0.1-0.1-0.2-0.2-0.3-0.4c-15.8,19.9-33.8,47.3-47.8,81.6c0,0-13,12.4-13,29.8c0,17.4,13.3,23.1,20.6,21.5l0,0
				c8.2,7,19.6,2.7,21.9-8.7l0.1-0.2c0.5,0.3,1,0.6,1.6,0.9c4.9,2.4,11.3-0.6,13.3-5l0,0l0,0c0.1-0.2,0.2-0.3,0.2-0.5l-0.2-0.1
				l1.6-14.1l-0.5-0.1v-3.6l-0.7-2.5c0.3-0.7,0.6-1.5,0.9-2.3l0.7-1l0.9-2.4l0.1-0.7c2.7-6.5,6.6-15.4,11.8-26
				c3.4-7,7.4-14.3,11.2-21L376.1,357.3z"/>
		</g>
		<path class="st1" d="M325.5,417.4c0,0-2.5,19.1,8.3,25.4l2-5.3C335.8,437.5,324.2,431.5,325.5,417.4z"/>
		<path class="st1" d="M306.9,423.4c0,0-5,12.8-1.3,21.9c0,0,3.4,1.3,8.4,0.9C313.9,446.2,305.3,441.8,306.9,423.4z"/>
		<path class="st2" d="M325.2,423.4c0,0-0.1,11.4,9.5,15.7l0.4-1.7C335.1,437.4,325,428.3,325.2,423.4z"/>
		<path class="st2" d="M306,430.1c0,0-0.7,10.6,5,16.2l3.5-0.3C314.5,446.1,306.9,439,306,430.1z"/>
		<path class="st3" d="M376.1,357.3l-8.1-18.4c0-0.5-0.1-1-0.2-1.5c0-0.2-0.1-0.3-0.1-0.5c-0.1-0.4-0.1-0.7-0.2-1.1
			c0-0.2-0.1-0.4-0.1-0.5c-0.1-0.4-0.2-0.8-0.4-1.2c0-0.1-0.1-0.3-0.1-0.4c-0.2-0.5-0.4-1.1-0.6-1.6c-0.1-0.1-0.1-0.3-0.2-0.4
			c-0.2-0.4-0.3-0.8-0.5-1.2c-0.1-0.2-0.2-0.4-0.3-0.6c-0.2-0.4-0.4-0.7-0.5-1.1c-0.1-0.2-0.2-0.4-0.3-0.6c0-0.1-0.1-0.2-0.1-0.2
			c-10.8,21.3-22.4,49.5-23.1,73.6c0,0,13.4,17,8.5,33.3c0.4-0.5,0.7-1,0.9-1.6l0,0l0,0c0.1-0.2,0.2-0.3,0.2-0.5l-0.2-0.1l1.6-14.1
			l-0.5-0.1v-3.6l-0.9-3.1l1.8-2.7l1-2.5l20-43.6c0,0,1.1-1.3,2.9-4.2L376.1,357.3z"/>
		<g>
			<path class="st2" d="M351.9,413.5l0.5-1.1c0,0,0,0,0-0.1c0.2-0.4,13.2-29,24.9-52l-1.3-3l0,0c-10.8,20.8-22.7,47-25.4,52.8
				c-0.5-1.2-0.9-1.7-0.9-1.7l0,0c-1.1-1.9-2.4-3.5-2.5-3.6c-0.2-0.3-0.6-0.3-0.9-0.1c-0.3,0.2-0.3,0.6-0.1,0.9
				c0.2,0.3,0.5,0.6,0.9,1.1c0,0,7,10.6,3.1,25.8h0c-0.8,2.2-2.8,4.2-5.4,5.3c-2.5,1-5.1,1-7.2-0.1c-8.5-4.3-13.1-13.4-11.2-22.3
				c0.1-0.3-0.1-0.7-0.5-0.8c-0.3-0.1-0.7,0.1-0.8,0.5c-1.9,8.7,2.1,17.6,9.9,22.5c-1.2,5.4-4.6,9.5-9.1,10.9
				c-4.4,1.3-8.9,0-12.6-3.6c-8.9-8.9-5.5-22.4-5.5-22.5c0.1-0.3-0.1-0.7-0.5-0.8c-0.3-0.1-0.7,0.1-0.8,0.5c0,0.1-3.6,14.3,5.8,23.8
				c0,0,0,0,0,0c-3,0.3-7.3-0.5-11.2-3.7c-3.3-2.7-7.3-7.9-7.3-17.4c0-17,12.6-29.2,12.8-29.3c0.1-0.1,0.1-0.1,0.2-0.2
				c14-34.3,32-61.5,47.7-81.3c-0.1-0.1-0.1-0.2-0.2-0.2c-1.1-1.3-2.1-2.4-2.7-3c0,0,0,0,0,0c-5.2,6.5-10.7,13.8-16,22l0,0
				c0,0-25.9,38.6-31.6,60.1c-7,9.1-20.2,30.1-7.6,46.1c1.2,1.8,2.6,3.2,3.9,4.3c0.5,0.4,1,0.8,1.6,1.1c0.1,0.1,0.2,0.1,0.2,0.1
				c0,0-0.1,0-0.1-0.1c2.9,1.8,6.1,2.8,9.2,2.8c0.8,0,1.6-0.1,2.4-0.2c2.7,2.2,5.8,3.4,8.9,3.4c1.2,0,2.5-0.2,3.7-0.5
				c4.9-1.5,8.6-5.7,9.9-11.4c0.3,0.2,0.6,0.3,0.9,0.5c1.2,0.6,2.6,0.9,4.1,0.9c1.4,0,2.8-0.3,4.2-0.8c2.7-1.1,4.8-3.1,5.9-5.4h0
				c0,0,0-0.1,0.1-0.2c0.1-0.1,0.1-0.3,0.2-0.4l0,0c0,0,1.1-2.6,1.4-7c0.2-1.8,0.2-3.7,0.1-5.9C352.9,417.4,352.4,415.2,351.9,413.5
				z"/>
		</g>
	</g>
</g>
</svg>
