<?xml version="1.0" encoding="utf-8"?>
<!-- Generator: Adobe Illustrator 21.0.0, SVG Export Plug-In . SVG Version: 6.00 Build 0)  -->
<svg version="1.1" id="圖層_1" xmlns="http://www.w3.org/2000/svg" xmlns:xlink="http://www.w3.org/1999/xlink" x="0px" y="0px"
	 viewBox="0 0 822.9 601.4" style="enable-background:new 0 0 822.9 601.4;" xml:space="preserve">
<style type="text/css">
	.st0{fill:url(#SVGID_1_);}
	.st1{fill:#E1BE3F;}
	.st2{fill:#AB6C21;}
	.st3{opacity:0.6;fill:#E1BE3F;enable-background:new    ;}
	.st4{fill:#888888;}
	.st5{fill:#456430;}
	.st6{fill:#709846;}
	.st7{fill:url(#SVGID_2_);}
	.st8{fill:url(#SVGID_3_);}
	.st9{opacity:0.8;}
	.st10{fill:#C8C9CA;}
	.st11{fill:url(#SVGID_4_);}
	.st12{opacity:0.6;fill:#709846;enable-background:new    ;}
	.st13{fill:#FFFFFF;}
	.st14{fill:#211714;}
	.st15{fill:url(#SVGID_5_);}
	.st16{fill:url(#SVGID_6_);}
	.st17{fill:url(#SVGID_7_);}
	.st18{fill:url(#SVGID_8_);}
	.st19{fill:url(#SVGID_9_);}
	.st20{fill:url(#SVGID_10_);}
	.st21{fill:url(#SVGID_11_);}
	.st22{fill:url(#SVGID_12_);}
	.st23{fill:url(#SVGID_13_);}
	.st24{fill:#BED26B;}
	.st25{fill:#F3E4A2;}
	.st26{fill:#8EA63A;}
	.st27{fill:none;stroke:#BED26B;stroke-width:0.9391;stroke-miterlimit:10;}
	.st28{opacity:0.6;fill:#DCCFB8;enable-background:new    ;}
	.st29{fill:url(#SVGID_14_);}
	.st30{fill:url(#SVGID_15_);}
	.st31{opacity:0.6;}
</style>
<g>
	<g>
		
			<linearGradient id="SVGID_1_" gradientUnits="userSpaceOnUse" x1="290.9397" y1="221.1304" x2="375.9203" y2="221.1304" gradientTransform="matrix(1 0 0 -1 0 602)">
			<stop  offset="0" style="stop-color:#EFD97F"/>
			<stop  offset="0.1978" style="stop-color:#EFD87C"/>
			<stop  offset="0.3726" style="stop-color:#EED571"/>
			<stop  offset="0.5387" style="stop-color:#EDCF5F"/>
			<stop  offset="0.6984" style="stop-color:#EBC845"/>
			<stop  offset="0.7526" style="stop-color:#EAC53B"/>
			<stop  offset="1" style="stop-color:#E5AD14"/>
		</linearGradient>
		<path class="st0" d="M376.1,356.9l-8.1-18.3c0-0.4,0-1-0.2-1.5c0-0.2,0-0.4,0-0.4c0-0.4-0.2-0.8-0.2-1c0-0.2,0-0.4-0.2-0.6
			c-0.2-0.4-0.2-0.8-0.4-1.2c0-0.2,0-0.2-0.2-0.4c-0.2-0.6-0.4-1-0.6-1.7c0-0.2-0.2-0.2-0.2-0.4c-0.2-0.4-0.4-0.8-0.6-1.2
			c0-0.2-0.2-0.4-0.2-0.6c-0.2-0.4-0.4-0.8-0.6-1c0-0.2-0.2-0.4-0.2-0.6c-2.9-5.6-7.1-11-10-14.6c-0.2-0.2-0.2-0.2-0.4-0.4
			c-15.8,20-33.7,47.2-47.8,81.6c0,0-12.9,12.3-12.9,29.7c0,17.5,13.3,23.1,20.6,21.4l0,0c8.1,7.1,19.6,2.7,21.8-8.7v-0.2
			c0.4,0.2,1,0.6,1.7,0.8c4.8,2.5,11.2-0.6,13.3-5l0,0l0,0c0-0.2,0.2-0.4,0.2-0.6l-0.2-0.2l1.7-14.1h-0.4v-3.5l-0.6-2.5
			c0.2-0.6,0.6-1.5,0.8-2.3l0.6-1l0.8-2.5V405c2.7-6.4,6.7-15.4,11.9-26c3.3-6.9,7.3-14.1,11.2-21L376.1,356.9z"/>
	</g>
	<path class="st1" d="M325.5,417c0,0-2.5,19.1,8.3,25.4l1.9-5.4C335.9,437,324.3,431,325.5,417z"/>
	<path class="st1" d="M307,423.1c0,0-5,12.7-1.2,21.8c0,0,3.3,1.2,8.3,0.8C314.1,445.7,305.5,441.4,307,423.1z"/>
	<path class="st2" d="M325.3,423.1c0,0-0.2,11.4,9.6,15.6l0.4-1.7C335.3,437,325.1,427.8,325.3,423.1z"/>
	<path class="st2" d="M306.2,429.7c0,0-0.6,10.6,5,16.2l3.5-0.2C314.7,445.7,307,438.5,306.2,429.7z"/>
	<path class="st3" d="M376.1,356.9l-8.1-18.3c0-0.4,0-1-0.2-1.5c0-0.2,0-0.4,0-0.4c0-0.4-0.2-0.8-0.2-1c0-0.2,0-0.4-0.2-0.6
		c-0.2-0.4-0.2-0.8-0.4-1.2c0-0.2,0-0.2-0.2-0.4c-0.2-0.6-0.4-1-0.6-1.7c0-0.2-0.2-0.2-0.2-0.4c-0.2-0.4-0.4-0.8-0.6-1.2
		c0-0.2-0.2-0.4-0.2-0.6c-0.2-0.4-0.4-0.8-0.6-1c0-0.2-0.2-0.4-0.2-0.6c0,0,0-0.2-0.2-0.2c-10.8,21.2-22.5,49.5-23.1,73.4
		c0,0,13.3,16.9,8.5,33.3c0.4-0.4,0.6-1,0.8-1.7l0,0l0,0c0-0.2,0.2-0.4,0.2-0.6l-0.2-0.2l1.7-14.1h-0.4v-3.5l-0.8-3.1l1.9-2.7l1-2.5
		l20-43.5c0,0,1-1.2,2.9-4.2L376.1,356.9z"/>
	<g>
		<path class="st2" d="M351.9,413.1l0.6-1.2l0,0c0.2-0.4,13.1-28.9,25-52l-1.2-2.9l0,0c-10.8,20.8-22.7,47-25.4,52.8
			c-0.4-1.2-0.8-1.7-0.8-1.7l0,0c-1-1.9-2.3-3.5-2.5-3.5c-0.2-0.2-0.6-0.2-0.8,0c-0.2,0.2-0.2,0.6,0,0.8c0.2,0.2,0.6,0.6,0.8,1
			c0,0,6.9,10.6,3.1,25.8l0,0c-0.8,2.3-2.9,4.2-5.4,5.2c-2.5,1-5.2,1-7.3,0c-8.5-4.2-13.1-13.3-11.2-22.3c0-0.4-0.2-0.6-0.4-0.8
			c-0.4,0-0.6,0.2-0.8,0.4c-1.9,8.7,2.1,17.7,9.8,22.5c-1.2,5.4-4.6,9.4-9.2,10.8c-4.4,1.2-8.9,0-12.5-3.5
			c-8.9-8.9-5.6-22.5-5.4-22.5c0-0.4-0.2-0.6-0.4-0.8c-0.4,0-0.6,0.2-0.8,0.4c0,0.2-3.5,14.4,5.8,23.7l0,0
			c-2.9,0.2-7.3-0.6-11.2-3.7c-3.3-2.7-7.3-7.9-7.3-17.3c0-16.9,12.7-29.1,12.7-29.3l0.2-0.2c13.9-34.3,32-61.4,47.6-81.1l-0.2-0.2
			c-1-1.2-2.1-2.3-2.7-3.1l0,0c-5.2,6.4-10.6,13.7-16,22.1l0,0c0,0-25.8,38.5-31.6,60.1c-7.1,9.2-20.2,30.2-7.7,46
			c1.2,1.9,2.7,3.3,4,4.4c0.4,0.4,1,0.8,1.7,1c0.2,0,0.2,0.2,0.2,0.2l0,0c2.9,1.9,6,2.7,9.2,2.7c0.8,0,1.7,0,2.3-0.2
			c2.7,2.3,5.8,3.3,8.9,3.3c1.2,0,2.5-0.2,3.7-0.6c5-1.5,8.5-5.6,10-11.4c0.2,0.2,0.6,0.4,0.8,0.4c1.2,0.6,2.7,0.8,4.2,0.8
			c1.5,0,2.7-0.2,4.2-0.8c2.7-1,4.8-3.1,5.8-5.4l0,0c0,0,0,0,0-0.2c0-0.2,0.2-0.2,0.2-0.4l0,0c0,0,1-2.7,1.5-7.1
			c0.2-1.7,0.2-3.7,0-5.8C353,417,352.3,414.7,351.9,413.1z"/>
	</g>
</g>
<g>
	<g>
		<path class="st4" d="M611,170.2c-0.4-0.4-0.7-0.7-1.4-0.4c-19.7,7.4-33.8,32.4-34.5,33.4l0,0l-15.5,46.4c0,0.4,0,0.7,0,0.7
			c0,0.4,0.4,0.4,0.7,0.4l12.7,1.8l0,0L572,256c0,0.4,0,0.7,0.4,1.1c0.4,0,0.7,0,1.1-0.4l1.8-6.3c1.1-1.1,9.5-11.6,13-15.8
			c0.4,7.7,1.1,18.6,0.7,19.7l-1.8,7c0,0.4,0,0.7,0.7,1.1c0,0,0,0,0.4,0c0.4,0,0.7-0.4,0.7-0.7l0.7-2.8l14.1,7.4h0.4h0.4
			c0.4,0,0.4-0.4,0.7-0.7c0.7-1.8,14.4-42.2,15.1-57.3C621.5,193,611.3,171.2,611,170.2z M618.7,208.2
			c-0.7,13.4-12.3,48.9-14.8,55.6l-13.4-7c0,0,0,0-0.4,0l0.7-2.1c0.4-1.8-0.7-20-0.7-22.2c0-0.4-0.4-0.7-0.4-0.7
			c-0.4,0-0.7,0-0.7,0.4c-2.1,2.5-14.1,16.9-14.4,17.2c0,0,0,0,0,0.4l-0.4,1.1h-0.4l-11.3-1.8l15.1-45.4c0.7-1.4,14.1-25,32.4-32
			C611.3,176.2,619.4,195.2,618.7,208.2z"/>
		<path class="st5" d="M573,310.9c-0.4,0-12.7,0-17.2-6.3c-0.4-0.4-0.4-0.7,0-1.1l15.5-47.5c0-0.4,0.4-0.7,0.7-0.7
			c0.4,0,0.7,0,1.1,0.4c4.6,3.5,10.2,5.6,16.9,5.6c0.4,0,0.7,0,0.7,0.4c0.4,0.4,0.4,0.7,0,1.1l-16.5,47.5
			C573.7,310.5,573.4,310.9,573,310.9z M557.5,303.8c3.5,4.2,12.3,4.9,14.8,4.9l15.8-45.7c-6-0.4-11.3-1.8-15.8-4.9L557.5,303.8z"/>
		<path class="st6" d="M572.3,308.8c-2.5,0-10.9-0.7-14.8-4.9l14.8-45.4c4.2,3.2,9.5,4.9,15.8,4.9L572.3,308.8z"/>
		<linearGradient id="SVGID_2_" gradientUnits="userSpaceOnUse" x1="579.6647" y1="246.2992" x2="599.8431" y2="251.2705">
			<stop  offset="0" style="stop-color:#EEEEEF"/>
			<stop  offset="0.3757" style="stop-color:#C8C9CA"/>
			<stop  offset="0.6481" style="stop-color:#F7F7F7"/>
			<stop  offset="0.8968" style="stop-color:#B4B4B5"/>
		</linearGradient>
		<path class="st7" d="M589.5,254.6l-1.8,6.7c-5.6-0.4-10.2-1.8-14.1-4.6l1.8-6c1.1-1.1,9.5-11.6,13-15.8
			C589.2,242.6,589.9,253.5,589.5,254.6z"/>
		<linearGradient id="SVGID_3_" gradientUnits="userSpaceOnUse" x1="567.9957" y1="205.9655" x2="627.6539" y2="223.8048">
			<stop  offset="0" style="stop-color:#EEEEEF"/>
			<stop  offset="0.3757" style="stop-color:#C8C9CA"/>
			<stop  offset="0.6481" style="stop-color:#F7F7F7"/>
			<stop  offset="0.8968" style="stop-color:#B4B4B5"/>
		</linearGradient>
		<path class="st8" d="M618.7,208.2c-0.7,13.4-12.3,48.9-14.8,55.6l-13.4-7c0,0,0,0-0.4,0l0.7-2.1c0.4-1.8-0.7-20-0.7-22.2
			c0-0.4-0.4-0.7-0.4-0.7c-0.4,0-0.7,0-0.7,0.4c-2.1,2.5-14.1,16.9-14.4,17.2c0,0,0,0,0,0.4l-0.4,1.1h-0.4l-11.3-1.8l15.1-45.4
			c0.7-1.4,14.1-25,32.4-32C611.3,176.2,619.4,195.2,618.7,208.2z"/>
		<g class="st9">
			<path class="st10" d="M583.9,238.4c2.1-2.8,4.2-4.9,4.9-6c0.4-0.4,0.4-0.4,0.7-0.4s0.4,0.4,0.4,0.7c0,0.7,0.4,4.2,0.4,8.4
				c0-1.4,12.3-46.1,12.3-46.1L583.9,238.4z"/>
			<path class="st10" d="M605,256.7c-3.2,2.8-10.2,0.7-11.3-1.1c-1.4-1.8-2.8-13-2.8-14.4c0.4,6,0.7,12.7,0.4,13.7l-0.7,2.1h0.4
				l13.4,7c2.1-6.3,13.4-39.7,14.8-54.2C614.5,224.7,606.1,256,605,256.7z"/>
			<path class="st10" d="M574.4,249.7c0.4-0.4,5.3-6.7,9.5-11.6c0,0-9.1,9.1-18.3,11.3l8.1,1.1h0.4L574.4,249.7
				C574.4,250,574.4,249.7,574.4,249.7z"/>
		</g>
		<linearGradient id="SVGID_4_" gradientUnits="userSpaceOnUse" x1="581.126" y1="246.4965" x2="598.7655" y2="250.8424">
			<stop  offset="0" style="stop-color:#EEEEEF"/>
			<stop  offset="0.3757" style="stop-color:#C8C9CA"/>
			<stop  offset="0.6481" style="stop-color:#F7F7F7"/>
			<stop  offset="0.8968" style="stop-color:#B4B4B5"/>
		</linearGradient>
		<path class="st11" d="M576.9,252.5c0,0,4.9,2.5,8.1,3.9c0.7,0.4,1.1,0.4,1.4,0.4c2.5,0-0.7,3.2-1.8,4.2c1.1,0.4,2.5,0.4,3.5,0.4
			l1.8-6.7c0.4-1.1-0.4-12-0.7-19.7c0,0-2.1,16.5-2.8,17.9C585.3,254.2,576.9,252.5,576.9,252.5z"/>
		<path class="st12" d="M564.2,307.3c3.5,1.1,6.7,1.4,8.4,1.4l15.8-45.7c-1.8,0-3.5-0.4-5.3-0.7
			C579.3,273.2,570.2,299.3,564.2,307.3z"/>
		<path class="st13" d="M577.2,203.9l-15.1,45.4l3.2,0.4c3.2-12.7,8.1-31.7,14.1-44.3c7.4-15.5,21.5-27.4,27.8-32.7
			C590.2,180.7,577.9,202.5,577.2,203.9z"/>
	</g>
	<g>
		<linearGradient id="SVGID_5_" gradientUnits="userSpaceOnUse" x1="550.1034" y1="284.8398" x2="558.2744" y2="284.8398">
			<stop  offset="0" style="stop-color:#EFD97F"/>
			<stop  offset="0.1978" style="stop-color:#EFD87C"/>
			<stop  offset="0.3726" style="stop-color:#EED571"/>
			<stop  offset="0.5387" style="stop-color:#EDCF5F"/>
			<stop  offset="0.6984" style="stop-color:#EBC845"/>
			<stop  offset="0.7526" style="stop-color:#EAC53B"/>
			<stop  offset="1" style="stop-color:#E5AD14"/>
		</linearGradient>
		<path class="st15" d="M552.3,294.3c-1.1-1.1-2.8-3.9-2.1-9.8c0.7-6.3,5.6-8.4,8.1-9.1c-1.1,2.8-1.4,6.3-0.4,9.8v0.4
			C554.7,288,553,291.2,552.3,294.3z"/>
		<g>
			<linearGradient id="SVGID_6_" gradientUnits="userSpaceOnUse" x1="603.7001" y1="318.296" x2="498.926" y2="318.296">
				<stop  offset="0" style="stop-color:#EFD97F"/>
				<stop  offset="0.1978" style="stop-color:#EFD87C"/>
				<stop  offset="0.3726" style="stop-color:#EED571"/>
				<stop  offset="0.5387" style="stop-color:#EDCF5F"/>
				<stop  offset="0.6984" style="stop-color:#EBC845"/>
				<stop  offset="0.7526" style="stop-color:#EAC53B"/>
				<stop  offset="1" style="stop-color:#E5AD14"/>
			</linearGradient>
			<path class="st16" d="M595.5,277.5c-1.4-2.8-3.5-4.6-4.9-5.3c-10.2-6.7-18.3-4.6-18.3-4.6l1.1-0.4c-5.3,1.4-15.1,5.3-13.7,17.2
				c8.1-4.2,23.2,4.6,23.9,4.9c0.4,0.4,0.4,0.7,0.4,1.1c-0.4,0.4-0.7,0.4-1.1,0.4c0,0-6-3.2-12-4.9l-2.1-0.4c-1.8-0.4-3.2,0-3.9,0
				c-0.4,0-0.4,0-0.7,0l0,0l0,0c-3.2,0.7-7.7,2.8-9.5,8.8c-1.8,6.7,1.4,9.8,3.5,11.3c0.4,0.4,1.1,0.7,1.4,0.7l0,0l0,0
				c2.1,1.1,4.6,2.1,6,2.8h0.4c3.9,1.8,7,1.8,7,1.8l0,0c0.4,0,0.7,0.4,0.7,0.7s-0.4,0.7-0.7,0.7l0,0c-0.4,0-3.5,0-7.4-1.8h-0.4
				c-4.2-1.8-8.4-3.5-10.9-6l0,0c0,0-12.3,14.4,10.2,23.2c1.1,0.4,1.4,0.4,1.4,0.4c0.4,0,0.7,0.4,0.7,1.1c0,0.4-0.4,0.7-0.7,0.7l0,0
				c-0.7-0.4-19-4.6-17.2-16.5c0.4-2.8,1.1-4.9,1.4-6.3c-2.8,1.1-5.3,2.5-7.4,4.2c0,0,0,0,0,0.4l0,0c-6.7,5.6-10.9,13.4-10.9,13.4
				c0,0.4-0.4,0.4-0.7,0.4h-0.4c-0.4,0-0.4-0.4-0.4-0.7l0,0c0,0-1.1,1.8-1.8,3.9c3.5,8.4,7,18.3,9.8,29.2c2.1,7,2.5,10.2,2.5,10.2
				c21.8,7.4,39-14.4,45.7-25c3.5-5.6,8.1-21.5,8.1-21.8c1.8-7.4,2.8-13,2.8-13C597.3,308.1,601.8,289.1,595.5,277.5z"/>
		</g>
		<g>
			<path class="st1" d="M550.9,321.1c-1.4-2.1-2.1-4.6-1.8-7.7c0.4-2.8,1.1-4.9,1.4-6.3c-2.8,1.1-5.3,2.5-7.4,4.2c0,0,0,0,0,0.4l0,0
				c-3.5,3.2-6.7,6.7-8.4,9.5C540.3,319.7,546.6,320.4,550.9,321.1z"/>
			<path class="st1" d="M567,283.4c-3.2-1.8-2.8-8.4-2.8-12c-3.2,2.8-5.3,6.7-4.6,12.7C561.8,283.4,564.6,283.4,567,283.4z"/>
			<path class="st1" d="M558.6,305.9c0.4,0.4,1.1,0.7,1.4,0.7l0,0l0,0c1.8,0.7,3.5,1.8,4.9,2.1l0,0c-4.9-2.5-8.4-9.8-9.8-13.7
				C553.7,301.4,556.8,304.5,558.6,305.9z"/>
			<path class="st1" d="M555.1,322.1c0,0-0.7-6.7,0.7-10.2c0.7-1.8,3.9-2.5,6.3-2.8c-2.8-1.4-5.3-2.8-7-4.2l0,0
				C554.7,304.9,547.3,314,555.1,322.1z"/>
		</g>
		<path class="st1" d="M550.1,287.7c0,3.9,1.4,5.6,2.5,6.7c0.7-3.2,2.5-6.3,5.6-8.8v-0.4c-0.7-2.8-0.7-5.3-0.4-7.4
			C553.7,280.6,551.2,285.2,550.1,287.7z"/>
		<path class="st2" d="M590.9,270.1c-8.4-5.6-20-6.3-27.4-1.4c-1.8,1.1-2.8,2.5-3.9,3.9l0,0c0,0-11.3,1.8-12.3,12
			c-0.7,8.8,2.5,11.3,4.2,12.7c0,1.1,0,1.8,0.4,2.8c0,0.4,0,1.1,0.4,1.4c0,0.7,0.4,1.1,0.7,1.8c0,0-5.6,1.1-11.6,5.6
			c-1.1,0.7-3.5,3.2-3.5,3.2c-2.8,3.2-5.6,7-7.7,12.7c-0.4,0.4,0,0.7,0.4,1.1h0.4c0.4,0,0.4,0,0.7-0.4c0,0,4.2-7.7,10.9-13.4l0,0
			c0,0,0,0,0-0.4c2.1-1.8,4.9-3.5,7.4-4.2c-0.7,1.4-1.1,3.5-1.4,6.3c-1.8,12.3,16.5,16.5,17.2,16.5l0,0c0.4,0,0.7-0.4,0.7-0.7
			s0-0.7-0.7-1.1c0,0-0.7,0-1.4-0.4c-22.5-8.8-10.2-23.2-10.2-23.2l0,0c2.5,2.1,7,4.2,10.9,6h0.4c4.2,1.8,7.4,1.8,7.4,1.8l0,0
			c0.4,0,0.7-0.4,0.7-0.7c0-0.4-0.4-0.7-0.7-0.7l0,0c0,0-3.2,0-7-1.8h-0.4c-1.4-0.7-3.9-1.8-6-2.8l0,0l0,0c-0.4-0.4-1.1-0.4-1.4-0.7
			c-2.1-1.4-5.3-4.6-3.5-11.3c1.8-6,6-8.1,9.5-8.8l0,0l0,0c0.4,0,0.4,0,0.7,0c0.7,0,2.1-0.4,3.9,0l-0.4-0.7l0,0
			c0.7,0,1.1,0.4,1.8,0.4c-0.4,0-0.4,0-0.7,0l2.1,0.4c6,1.8,12,4.9,12,4.9c0.4,0.4,0.7,0,1.1-0.4c0.4-0.4,0-0.7-0.4-1.1
			c-0.7-0.4-16.2-8.8-23.9-4.9c-1.8-12,8.4-15.8,13.7-17.2l-1.4,0.4c0,0,8.1-2.1,18.3,4.6c1.4,0.7,3.5,2.8,4.9,5.3
			c6.3,11.6,1.8,30.6,1.8,30.9c0,0-1.1,5.6-2.8,13c0,0.4-4.6,16.2-8.1,21.8c-6.7,10.6-23.9,32.4-45.7,25l0.7,3.5
			c-0.7-0.4-1.4-0.4-2.1-0.7c-0.4,0-0.7,0-1.1,0.4c0,0.4,0,0.7,0.4,1.1c2.5,1.1,5.3,1.4,8.1,1.4c15.8,0,34.5-14.4,40.8-27.1
			c0-0.4,0.4-0.7,0.4-1.1l0,0c7-11.6,10.9-36.9,10.9-36.9C599,307.3,605.7,279.9,590.9,270.1z M557.9,285.5L557.9,285.5
			c-3.2,2.5-4.6,5.6-5.3,9.1c-1.1-1.1-2.8-3.9-2.1-9.8c0.7-6.3,5.6-8.4,8.1-9.1C557.2,278.5,557.2,281.7,557.9,285.5z M575.5,266.9
			L575.5,266.9C575.1,266.9,575.1,266.9,575.5,266.9L575.5,266.9z"/>
		<path class="st3" d="M529.4,326.3c-0.4,0.7-0.7,1.4-1.1,2.5c3.5,8.4,7,18.3,9.8,29.2c2.1,7,2.5,10.2,2.5,10.2
			c2.1,0.7,4.6,1.1,6.7,1.4C542.8,354.1,536.1,339,529.4,326.3z"/>
	</g>
</g>
</svg>
