<?xml version="1.0" encoding="utf-8"?>
<!-- Generator: Adobe Illustrator 21.0.0, SVG Export Plug-In . SVG Version: 6.00 Build 0)  -->
<svg version="1.1" id="圖層_1" xmlns="http://www.w3.org/2000/svg" xmlns:xlink="http://www.w3.org/1999/xlink" x="0px" y="0px"
	 viewBox="0 0 822.9 601.4" style="enable-background:new 0 0 822.9 601.4;" xml:space="preserve">
<style type="text/css">
	.st0{fill:url(#SVGID_1_);}
	.st1{fill:#E1BE3F;}
	.st2{fill:#AB6C21;}
	.st3{opacity:0.6;fill:#E1BE3F;enable-background:new    ;}
	.st4{fill:url(#SVGID_2_);}
	.st5{fill:url(#SVGID_3_);}
	.st6{fill:url(#SVGID_4_);}
	.st7{fill:#9E9E9F;}
	.st8{fill:#5693AE;}
	.st9{fill:url(#SVGID_5_);}
	.st10{fill:url(#SVGID_6_);}
	.st11{fill:url(#SVGID_7_);}
	.st12{fill:url(#SVGID_8_);}
	.st13{fill:url(#SVGID_9_);}
	.st14{fill:url(#SVGID_10_);}
	.st15{fill:url(#SVGID_11_);}
	.st16{fill:url(#SVGID_12_);}
	.st17{fill:url(#SVGID_13_);}
	.st18{fill:url(#SVGID_14_);}
	.st19{fill:url(#SVGID_15_);}
	.st20{fill:url(#SVGID_16_);}
	.st21{fill:url(#SVGID_17_);}
	.st22{fill:url(#SVGID_18_);}
	.st23{fill:url(#SVGID_19_);}
	.st24{fill:#0D2B47;}
	.st25{opacity:0.53;fill:#21477A;enable-background:new    ;}
	.st26{opacity:0.8;fill:#21477A;enable-background:new    ;}
	.st27{opacity:0.3;fill:#21477A;enable-background:new    ;}
	.st28{fill:url(#SVGID_20_);}
	.st29{fill:#4F2C14;}
	.st30{fill:url(#SVGID_21_);}
	.st31{fill:url(#SVGID_22_);}
	.st32{fill:url(#SVGID_23_);}
	.st33{opacity:0.6;}
	.st34{fill:#A53725;}
	.st35{fill:#DD563A;}
	.st36{fill:url(#SVGID_24_);}
	.st37{fill:url(#SVGID_25_);}
	.st38{fill:#AC6D21;}
	.st39{fill:#B5B5B6;}
	.st40{fill:#8AB350;}
	.st41{fill:url(#SVGID_26_);}
	.st42{fill:#F7F8F8;}
	.st43{fill:url(#SVGID_27_);}
	.st44{fill:url(#SVGID_28_);}
	.st45{opacity:0.51;fill:#C9CACA;enable-background:new    ;}
	.st46{fill:url(#SVGID_29_);}
	.st47{fill:url(#SVGID_30_);}
	.st48{fill:url(#SVGID_31_);}
	.st49{opacity:0.6;fill:#E2BF40;enable-background:new    ;}
	.st50{fill:url(#SVGID_32_);}
	.st51{fill:url(#SVGID_33_);}
	.st52{fill:url(#SVGID_34_);}
	.st53{fill:#E2BF40;}
	.st54{fill:url(#SVGID_35_);}
	.st55{fill:url(#SVGID_36_);}
	.st56{fill:#FFFFFF;}
	.st57{fill:#824323;}
	.st58{fill:#F4E3A5;}
	.st59{fill:#C88E2C;}
	.st60{fill:#AD7327;}
	.st61{fill:url(#SVGID_37_);}
	.st62{fill:url(#SVGID_38_);}
	.st63{fill:#EBA794;}
	.st64{fill:#40210F;}
	.st65{opacity:0.25;fill:#E2BF40;enable-background:new    ;}
	.st66{opacity:0.5;fill:#E2BF40;enable-background:new    ;}
	.st67{fill:#F9E6AA;}
	.st68{fill:#DEBD91;}
	.st69{fill:#D8C7A7;}
	.st70{fill:url(#SVGID_39_);}
	.st71{fill:#4B1F0E;}
	.st72{opacity:0.4;fill:#E2BF40;enable-background:new    ;}
	.st73{opacity:0.72;fill:#E2BF40;enable-background:new    ;}
	.st74{fill:#895424;}
	.st75{fill:#3F210E;}
	.st76{fill:#391E13;}
	.st77{fill:url(#SVGID_40_);}
	.st78{fill:#DCC094;}
	.st79{fill:#DABB74;}
	.st80{fill:#8C5924;}
	.st81{fill:url(#SVGID_41_);}
	.st82{fill:url(#SVGID_42_);}
	.st83{fill:url(#SVGID_43_);}
	.st84{fill:url(#SVGID_44_);}
	.st85{fill:url(#SVGID_45_);}
	.st86{fill:#647D3D;}
	.st87{fill:#303A22;}
	.st88{opacity:0.8;fill:url(#SVGID_46_);enable-background:new    ;}
	.st89{opacity:0.5;fill:url(#SVGID_47_);enable-background:new    ;}
	.st90{opacity:0.8;fill:url(#SVGID_48_);enable-background:new    ;}
	.st91{opacity:0.8;fill:url(#SVGID_49_);enable-background:new    ;}
	.st92{opacity:0.5;fill:url(#SVGID_50_);enable-background:new    ;}
	.st93{opacity:0.5;fill:url(#SVGID_51_);enable-background:new    ;}
	.st94{opacity:0.5;fill:url(#SVGID_52_);enable-background:new    ;}
	.st95{fill:#FBF9D1;}
	.st96{fill:url(#SVGID_53_);}
	.st97{fill:url(#SVGID_54_);}
	.st98{fill:url(#SVGID_55_);}
	.st99{fill:url(#SVGID_56_);}
	.st100{fill:url(#SVGID_57_);}
	.st101{fill:#933223;}
	.st102{fill:url(#SVGID_58_);}
	.st103{fill:url(#SVGID_59_);}
	.st104{fill:url(#SVGID_60_);}
	.st105{fill:url(#SVGID_61_);}
	.st106{fill:url(#SVGID_62_);}
	.st107{fill:url(#SVGID_63_);}
	.st108{fill:url(#SVGID_64_);}
	.st109{fill:url(#SVGID_65_);}
	.st110{fill:url(#SVGID_66_);}
	.st111{fill:url(#SVGID_67_);}
	.st112{fill:url(#SVGID_68_);}
	.st113{fill:url(#SVGID_69_);}
	.st114{fill:url(#SVGID_70_);}
	.st115{fill:url(#SVGID_71_);}
	.st116{fill:url(#SVGID_72_);}
	.st117{fill:url(#SVGID_73_);}
	.st118{fill:url(#SVGID_74_);}
	.st119{fill:url(#SVGID_75_);}
	.st120{fill:url(#SVGID_76_);}
	.st121{fill:url(#SVGID_77_);}
	.st122{fill:url(#SVGID_78_);}
	.st123{fill:url(#SVGID_79_);}
	.st124{fill:#F39F65;}
	.st125{fill:url(#SVGID_80_);}
	.st126{fill:url(#SVGID_81_);}
	.st127{fill:url(#SVGID_82_);}
	.st128{fill:url(#SVGID_83_);}
	.st129{fill:url(#SVGID_84_);}
	.st130{opacity:0.6;fill:url(#SVGID_85_);enable-background:new    ;}
	.st131{opacity:0.6;fill:url(#SVGID_86_);enable-background:new    ;}
	.st132{opacity:0.6;fill:url(#SVGID_87_);enable-background:new    ;}
	.st133{opacity:0.6;fill:url(#SVGID_88_);enable-background:new    ;}
	.st134{opacity:0.6;fill:url(#SVGID_89_);enable-background:new    ;}
	.st135{opacity:0.6;fill:url(#SVGID_90_);enable-background:new    ;}
	.st136{opacity:0.6;fill:url(#SVGID_91_);enable-background:new    ;}
	.st137{opacity:0.6;fill:url(#SVGID_92_);enable-background:new    ;}
	.st138{fill:#F9C9A7;}
	.st139{fill:url(#SVGID_93_);}
	.st140{fill:url(#SVGID_94_);}
	.st141{fill:#D6988B;}
	.st142{fill:url(#SVGID_95_);}
	.st143{opacity:0.5;fill:#D6988B;enable-background:new    ;}
	.st144{opacity:0.4;fill:#F3B699;enable-background:new    ;}
	.st145{fill:url(#SVGID_96_);}
	.st146{fill:url(#SVGID_97_);}
	.st147{fill:url(#SVGID_98_);}
	.st148{fill:url(#SVGID_99_);}
	.st149{fill:url(#SVGID_100_);}
	.st150{fill:#236086;}
	.st151{fill:url(#SVGID_101_);}
	.st152{fill:url(#SVGID_102_);}
	.st153{fill:url(#SVGID_103_);}
	.st154{fill:url(#SVGID_104_);}
	.st155{fill:url(#SVGID_105_);}
	.st156{fill:url(#SVGID_106_);}
	.st157{fill:url(#SVGID_107_);}
	.st158{fill:url(#SVGID_108_);}
	.st159{fill:url(#SVGID_109_);}
	.st160{fill:url(#SVGID_110_);}
	.st161{opacity:0.6;fill:url(#SVGID_111_);enable-background:new    ;}
	.st162{fill:url(#SVGID_112_);}
	.st163{fill:url(#SVGID_113_);}
	.st164{fill:url(#SVGID_114_);}
	.st165{fill:url(#SVGID_115_);}
	.st166{opacity:0.6;fill:#8EC0DA;enable-background:new    ;}
	
		.st167{opacity:0.6;fill:none;stroke:#8EC0DA;stroke-width:1.1827;stroke-linecap:round;stroke-miterlimit:10;enable-background:new    ;}
	.st168{fill:#95D2E9;}
	.st169{fill:#FFF9F0;}
	.st170{fill:#C5BAAE;}
	.st171{fill:none;stroke:#95D2E9;stroke-width:0.5916;stroke-miterlimit:10;}
	.st172{fill:none;stroke:#95D2E9;stroke-width:0.5294;stroke-miterlimit:10;}
	.st173{fill:url(#SVGID_116_);}
	.st174{fill:url(#SVGID_117_);}
	.st175{fill:url(#SVGID_118_);}
	.st176{fill:#FCF1CD;}
	.st177{fill:url(#SVGID_119_);}
	.st178{fill:#AC6E21;}
	.st179{fill:url(#SVGID_120_);}
	.st180{fill:url(#SVGID_121_);}
	.st181{opacity:0.3;fill:url(#SVGID_122_);enable-background:new    ;}
	.st182{fill:#E9D288;}
	.st183{opacity:0.6;fill:#AC6E21;enable-background:new    ;}
	.st184{fill:url(#SVGID_123_);}
	.st185{fill:url(#SVGID_124_);}
</style>
<g>
	<g>
		<g>
			<g>
				
					<linearGradient id="SVGID_1_" gradientUnits="userSpaceOnUse" x1="1082.7831" y1="221.106" x2="1167.7638" y2="221.106" gradientTransform="matrix(-1 0 0 -1 1686.1643 602)">
					<stop  offset="0" style="stop-color:#EFD97F"/>
					<stop  offset="0.1978" style="stop-color:#EFD87C"/>
					<stop  offset="0.3726" style="stop-color:#EED571"/>
					<stop  offset="0.5387" style="stop-color:#EDCF5F"/>
					<stop  offset="0.6984" style="stop-color:#EBC845"/>
					<stop  offset="0.7526" style="stop-color:#EAC53B"/>
					<stop  offset="1" style="stop-color:#E5AD14"/>
				</linearGradient>
				<path class="st0" d="M518.2,356.9l8.1-18.3c0-0.4,0-1,0.2-1.5c0-0.2,0-0.4,0-0.4c0-0.4,0.2-0.8,0.2-1c0-0.2,0-0.4,0.2-0.6
					c0.2-0.4,0.2-0.8,0.4-1.2c0-0.2,0-0.2,0.2-0.4c0.2-0.6,0.4-1,0.6-1.7c0-0.2,0.2-0.2,0.2-0.4c0.2-0.4,0.4-0.8,0.6-1.2
					c0-0.2,0.2-0.4,0.2-0.6c0.2-0.4,0.4-0.8,0.6-1c0-0.2,0.2-0.4,0.2-0.6c2.9-5.6,7.1-11,10-14.6c0.2-0.2,0.2-0.2,0.4-0.4
					c15.8,20,33.7,47.2,47.8,81.6c0,0,12.9,12.3,12.9,29.7s-13.3,23.1-20.6,21.4l0,0c-8.1,7.1-19.6,2.7-21.8-8.7v-0.2
					c-0.4,0.2-1,0.6-1.7,0.8c-4.8,2.5-11.2-0.6-13.3-5l0,0l0,0c0-0.2-0.2-0.4-0.2-0.6l0.2-0.2l-1.7-14.1h0.4v-3.5l0.6-2.5
					c-0.2-0.6-0.6-1.5-0.8-2.3l-0.6-1l-0.8-2.5V405c-2.7-6.4-6.7-15.4-11.9-26c-3.3-6.9-7.3-14.1-11.2-21L518.2,356.9z"/>
			</g>
			<path class="st1" d="M568.7,417c0,0,2.5,19.1-8.3,25.4l-1.9-5.4C558.6,437,570,431,568.7,417z"/>
			<path class="st1" d="M587.5,423.1c0,0,5,12.7,1.2,21.8c0,0-3.3,1.2-8.3,0.8C580.4,445.8,588.9,441.4,587.5,423.1z"/>
			<path class="st2" d="M569.2,423.1c0,0,0.2,11.4-9.6,15.6l-0.4-1.7C559.2,437,569.2,427.9,569.2,423.1z"/>
			<path class="st2" d="M588.3,429.7c0,0,0.6,10.6-5,16.2l-3.5-0.2C579.8,445.8,587.3,438.5,588.3,429.7z"/>
			<path class="st3" d="M518.2,356.9l8.1-18.3c0-0.4,0-1,0.2-1.5c0-0.2,0-0.4,0-0.4c0-0.4,0.2-0.8,0.2-1c0-0.2,0-0.4,0.2-0.6
				c0.2-0.4,0.2-0.8,0.4-1.2c0-0.2,0-0.2,0.2-0.4c0.2-0.6,0.4-1,0.6-1.7c0-0.2,0.2-0.2,0.2-0.4c0.2-0.4,0.4-0.8,0.6-1.2
				c0-0.2,0.2-0.4,0.2-0.6c0.2-0.4,0.4-0.8,0.6-1c0-0.2,0.2-0.4,0.2-0.6c0,0,0-0.2,0.2-0.2c10.8,21.2,22.5,49.5,23.1,73.4
				c0,0-13.3,16.9-8.5,33.3c-0.4-0.4-0.6-1-0.8-1.7l0,0l0,0c0-0.2-0.2-0.4-0.2-0.6l0.2-0.2l-1.7-14.1h0.4v-3.5l0.8-3.1l-1.9-2.7
				l-1-2.5l-20-43.5c0,0-1-1.2-2.9-4.2L518.2,356.9z"/>
			<g>
				<path class="st2" d="M542.3,413.1l-0.6-1.2l0,0c-0.2-0.4-13.1-28.9-25-52l1.2-2.9l0,0c10.8,20.8,22.7,47,25.4,52.8
					c0.4-1.2,0.8-1.7,0.8-1.7l0,0c1-1.9,2.3-3.5,2.5-3.5c0.2-0.2,0.6-0.2,0.8,0c0.2,0.2,0.2,0.6,0,0.8s-0.6,0.6-0.8,1
					c0,0-6.9,10.6-3.1,25.8l0,0c0.8,2.3,2.9,4.2,5.4,5.2c2.5,1,5.2,1,7.3,0c8.5-4.2,13.1-13.3,11.2-22.3c0-0.4,0.2-0.6,0.4-0.8
					c0.4,0,0.6,0.2,0.8,0.4c1.9,8.7-2.1,17.7-9.8,22.5c1.2,5.4,4.6,9.4,9.2,10.8c4.4,1.2,8.9,0,12.5-3.5c8.9-8.9,5.6-22.5,5.4-22.5
					c0-0.4,0.2-0.6,0.4-0.8c0.4,0,0.6,0.2,0.8,0.4c0,0.2,3.5,14.4-5.8,23.7l0,0c2.9,0.2,7.3-0.6,11.2-3.7c3.3-2.7,7.3-7.9,7.3-17.3
					c0-16.9-12.7-29.1-12.7-29.3l-0.2-0.2c-13.9-34.3-32-61.4-47.6-81.1l0.2-0.2c1-1.2,2.1-2.3,2.7-3.1l0,0
					c5.2,6.4,10.6,13.7,16,22.1l0,0c0,0,25.8,38.5,31.6,60.1c7.1,9.2,20.2,30.2,7.7,46c-1.2,1.9-2.7,3.3-4,4.4c-0.4,0.4-1,0.8-1.7,1
					c-0.2,0-0.2,0.2-0.2,0.2l0,0c-2.9,1.9-6,2.7-9.2,2.7c-0.8,0-1.7,0-2.3-0.2c-2.7,2.3-5.8,3.3-8.9,3.3c-1.2,0-2.5-0.2-3.7-0.6
					c-5-1.5-8.5-5.6-10-11.4c-0.2,0.2-0.6,0.4-0.8,0.4c-1.2,0.6-2.7,0.8-4.2,0.8c-1.5,0-2.7-0.2-4.2-0.8c-2.7-1-4.8-3.1-5.8-5.4l0,0
					c0,0,0,0,0-0.2c0-0.2-0.2-0.2-0.2-0.4l0,0c0,0-1-2.7-1.5-7.1c-0.2-1.7-0.2-3.7,0-5.8C541.5,417,541.9,414.8,542.3,413.1z"/>
			</g>
		</g>
		<g>
			<g>
				
					<linearGradient id="SVGID_2_" gradientUnits="userSpaceOnUse" x1="290.9778" y1="220.9337" x2="375.9585" y2="220.9337" gradientTransform="matrix(1 0 0 -1 0 602)">
					<stop  offset="0" style="stop-color:#EFD97F"/>
					<stop  offset="0.1978" style="stop-color:#EFD87C"/>
					<stop  offset="0.3726" style="stop-color:#EED571"/>
					<stop  offset="0.5387" style="stop-color:#EDCF5F"/>
					<stop  offset="0.6984" style="stop-color:#EBC845"/>
					<stop  offset="0.7526" style="stop-color:#EAC53B"/>
					<stop  offset="1" style="stop-color:#E5AD14"/>
				</linearGradient>
				<path class="st4" d="M376.1,357.1l-8.1-18.3c0-0.4,0-1-0.2-1.5c0-0.2,0-0.4,0-0.4c0-0.4-0.2-0.8-0.2-1c0-0.2,0-0.4-0.2-0.6
					c-0.2-0.4-0.2-0.8-0.4-1.2c0-0.2,0-0.2-0.2-0.4c-0.2-0.6-0.4-1-0.6-1.7c0-0.2-0.2-0.2-0.2-0.4c-0.2-0.4-0.4-0.8-0.6-1.2
					c0-0.2-0.2-0.4-0.2-0.6c-0.2-0.4-0.4-0.8-0.6-1c0-0.2-0.2-0.4-0.2-0.6c-2.9-5.6-7.1-11-10-14.6c-0.2-0.2-0.2-0.2-0.4-0.4
					c-15.8,20-33.7,47.2-47.8,81.6c0,0-12.9,12.3-12.9,29.7c0,17.5,13.3,23.1,20.6,21.4l0,0c8.1,7.1,19.6,2.7,21.8-8.7v-0.2
					c0.4,0.2,1,0.6,1.7,0.8c4.8,2.5,11.2-0.6,13.3-5l0,0l0,0c0-0.2,0.2-0.4,0.2-0.6l-0.2-0.2l1.7-14.1h-0.4v-3.5l-0.6-2.5
					c0.2-0.6,0.6-1.5,0.8-2.3l0.6-1l0.8-2.5v-0.6c2.7-6.4,6.7-15.4,11.9-26c3.3-6.9,7.3-14.1,11.2-21L376.1,357.1z"/>
			</g>
			<path class="st1" d="M325.5,417.2c0,0-2.5,19.1,8.3,25.4l1.9-5.4C335.9,437.2,324.3,431.2,325.5,417.2z"/>
			<path class="st1" d="M307,423.3c0,0-5,12.7-1.2,21.8c0,0,3.3,1.2,8.3,0.8C314.1,445.9,305.6,441.6,307,423.3z"/>
			<path class="st2" d="M325.3,423.3c0,0-0.2,11.4,9.6,15.6l0.4-1.7C335.3,437.2,325.1,428,325.3,423.3z"/>
			<path class="st2" d="M306.2,429.9c0,0-0.6,10.6,5,16.2l3.5-0.2C314.7,445.9,307,438.6,306.2,429.9z"/>
			<path class="st3" d="M376.1,357.1l-8.1-18.3c0-0.4,0-1-0.2-1.5c0-0.2,0-0.4,0-0.4c0-0.4-0.2-0.8-0.2-1c0-0.2,0-0.4-0.2-0.6
				c-0.2-0.4-0.2-0.8-0.4-1.2c0-0.2,0-0.2-0.2-0.4c-0.2-0.6-0.4-1-0.6-1.7c0-0.2-0.2-0.2-0.2-0.4c-0.2-0.4-0.4-0.8-0.6-1.2
				c0-0.2-0.2-0.4-0.2-0.6c-0.2-0.4-0.4-0.8-0.6-1c0-0.2-0.2-0.4-0.2-0.6c0,0,0-0.2-0.2-0.2c-10.8,21.2-22.5,49.5-23.1,73.4
				c0,0,13.3,16.9,8.5,33.3c0.4-0.4,0.6-1,0.8-1.7l0,0l0,0c0-0.2,0.2-0.4,0.2-0.6l-0.2-0.2l1.7-14.1h-0.4v-3.5l-0.8-3.1l1.9-2.7
				l1-2.5l20-43.5c0,0,1-1.2,2.9-4.2L376.1,357.1z"/>
			<g>
				<path class="st2" d="M352,413.3l0.6-1.2l0,0c0.2-0.4,13.1-28.9,25-52l-1.2-2.9l0,0c-10.8,20.8-22.7,47-25.4,52.8
					c-0.4-1.2-0.8-1.7-0.8-1.7l0,0c-1-1.9-2.3-3.5-2.5-3.5c-0.2-0.2-0.6-0.2-0.8,0c-0.2,0.2-0.2,0.6,0,0.8s0.6,0.6,0.8,1
					c0,0,6.9,10.6,3.1,25.8l0,0c-0.8,2.3-2.9,4.2-5.4,5.2c-2.5,1-5.2,1-7.3,0c-8.5-4.2-13.1-13.3-11.2-22.3c0-0.4-0.2-0.6-0.4-0.8
					c-0.4,0-0.6,0.2-0.8,0.4c-1.9,8.7,2.1,17.7,9.8,22.5c-1.2,5.4-4.6,9.4-9.2,10.8c-4.4,1.2-8.9,0-12.5-3.5
					c-8.9-8.9-5.6-22.5-5.4-22.5c0-0.4-0.2-0.6-0.4-0.8c-0.4,0-0.6,0.2-0.8,0.4c0,0.2-3.5,14.4,5.8,23.7l0,0
					c-2.9,0.2-7.3-0.6-11.2-3.7c-3.3-2.7-7.3-7.9-7.3-17.3c0-16.9,12.7-29.1,12.7-29.3l0.2-0.2c13.9-34.3,32-61.4,47.6-81.1
					l-0.2-0.2c-1-1.2-2.1-2.3-2.7-3.1l0,0c-5.2,6.4-10.6,13.7-16,22.1l0,0c0,0-25.8,38.5-31.6,60.1c-7.1,9.2-20.2,30.2-7.7,46
					c1.2,1.9,2.7,3.3,4,4.4c0.4,0.4,1,0.8,1.7,1c0.2,0,0.2,0.2,0.2,0.2l0,0c2.9,1.9,6,2.7,9.2,2.7c0.8,0,1.7,0,2.3-0.2
					c2.7,2.3,5.8,3.3,8.9,3.3c1.2,0,2.5-0.2,3.7-0.6c5-1.5,8.5-5.6,10-11.4c0.2,0.2,0.6,0.4,0.8,0.4c1.2,0.6,2.7,0.8,4.2,0.8
					c1.5,0,2.7-0.2,4.2-0.8c2.7-1,4.8-3.1,5.8-5.4l0,0c0,0,0,0,0-0.2c0-0.2,0.2-0.2,0.2-0.4l0,0c0,0,1-2.7,1.5-7.1
					c0.2-1.7,0.2-3.7,0-5.8C353,417.2,352.4,414.9,352,413.3z"/>
			</g>
		</g>
	</g>
	<g>
		<path class="st7" d="M325.9,435.7v21c0,0.4,0,0.4-0.4,0.4c0,0,0,0-0.4,0c0,0,0,0-0.4,0s-0.4-0.4-0.4-0.4v-21
			c0-0.4,0.4-0.4,0.4-0.4C325.6,435.3,325.9,435.3,325.9,435.7z"/>
		<path class="st8" d="M340.7,550.9l-12-26c19.4-40.4-2.3-69.8-2.7-70.2l0,0c-0.4-0.4-0.8-0.4-1.2,0l0,0
			c-0.4,0.4-22.1,30.3-2.7,70.2c-1.6,3.1-12,25.6-12,26c-0.8,1.9,1.9,3.5,4.3,5c0.8,0.4,1.2,0.8,1.6,0.8c2.7,1.9,5.8,1.9,9.3,1.9
			h0.4c0.8,0,1.6,0,2.3,0l0,0c5.4-0.8,10.5-1.6,12.8-7C340.7,551.7,340.7,551.3,340.7,550.9z M327.5,557.1L327.5,557.1
			c-0.8,0-1.6,0-2.3,0h-0.4c-3.1,0-5.8,0-8.1-1.6c-0.4-0.4-0.8-0.8-1.6-0.8c-3.1-1.6-3.9-2.3-3.5-2.7c0-0.4,12.4-26.4,12.4-26.4
			c0-0.4,0-0.4,0-0.8c-17.1-34.5-2.7-61.3,1.2-67.5c0,0,0-0.4,0.4-0.4c0,0,0,0.4,0.4,0.4c3.9,6.2,18.2,33,1.2,67.5
			c0,0.4,0,0.4,0,0.8l12,26C336.8,555.6,332.9,556.3,327.5,557.1z"/>
		<linearGradient id="SVGID_3_" gradientUnits="userSpaceOnUse" x1="311.5741" y1="506.8602" x2="339.0333" y2="506.8602">
			<stop  offset="0" style="stop-color:#B0CBD9"/>
			<stop  offset="1" style="stop-color:#7ABEE1"/>
		</linearGradient>
		<path class="st5" d="M339.1,551.3c-2.3,4.3-6.2,4.7-11.3,5.4l0,0c-0.8,0-1.2,0-1.9,0h-0.4c-3.1,0-5.8,0-8.1-1.6
			c-0.4-0.4-0.8-0.8-1.6-0.8c-3.1-1.6-3.9-2.3-3.5-2.7c0-0.4,12.4-26.4,12.4-26.4c0-0.4,0-0.4,0-0.8c-17.1-34.5-2.7-61.3,1.2-67.5
			c0,0,0,0,0.4,0h0.4c3.9,6.2,18.2,33,1.2,67.5c0,0.4,0,0.4,0,0.8L339.1,551.3z"/>
		<g>
			<linearGradient id="SVGID_4_" gradientUnits="userSpaceOnUse" x1="317.3374" y1="477.4803" x2="333.4516" y2="477.4803">
				<stop  offset="0" style="stop-color:#B0CBD9"/>
				<stop  offset="1" style="stop-color:#7ABEE1"/>
			</linearGradient>
			<path class="st6" d="M322.8,476c-0.4,0.8-1.6,2.7-1.2,4.3c0.4,0.8,1.6,1.2,2.7,1.2c1.6,0,2.7-0.4,3.1-1.6c0.8-1.6,0.4-3.5,0-4.3
				c1.6-0.4,3.5-0.8,5.8-1.6c0,0,0.4-0.4,0-0.4c0,0-0.4-0.4-0.4,0c-10.1,4.3-15.9,0-15.9,0h-0.4v0.4
				C317.4,474.1,319.3,475.6,322.8,476z M325.6,476l0.4,2.7c0,0,0,0.4,0.4,0.4l0,0c0,0,0.4,0,0.4-0.4l-0.4-2.7c0.4,0,0.8,0,1.2,0
				c0.4,0.8,0.8,2.7,0,3.9c-0.4,0.8-1.6,1.2-2.7,1.2c-1.2,0-1.9-0.4-2.3-0.8c-0.4-1.2,0.8-3.1,1.2-3.9c0.4,0,0.8,0,0.8,0l-0.4,2.7
				c0,0,0,0.4,0.4,0.4l0,0c0,0,0.4,0,0.4-0.4l0.4-2.7C325.2,476,325.6,476,325.6,476z"/>
			<linearGradient id="SVGID_5_" gradientUnits="userSpaceOnUse" x1="317.2206" y1="485.7144" x2="333.5016" y2="485.7144">
				<stop  offset="0" style="stop-color:#B0CBD9"/>
				<stop  offset="1" style="stop-color:#7ABEE1"/>
			</linearGradient>
			<path class="st9" d="M320.9,485.7c0.4,0,0.8-0.4,0.8-0.4c0.4,0,0.4-0.4,0.8-0.4l0.4,0.4c0.4,0.4,1.2,0.8,1.9,0.8
				c1.2,0.4,2.7,0,3.9-0.4c0.8-0.4,1.6,0.4,2.3,0.8c0.8,0.4,1.6,0,2.3,0c0.4,0,0.4-0.8,0-0.4c-0.8,0.4-1.9,0.4-2.7-0.4
				c-0.4-0.4-0.8-0.8-1.6-0.4c-0.8,0.4-1.2,0.8-1.9,0.8s-1.6,0-2.3,0c-0.8-0.4-1.2-0.8-1.9-1.2c-0.4-0.4-0.8,0-1.2,0
				c-1.6,1.2-3.1,1.2-4.7,0c-0.4-0.4-0.4,0.4-0.4,0.4C318.2,485.7,319.7,486.1,320.9,485.7z"/>
			<linearGradient id="SVGID_6_" gradientUnits="userSpaceOnUse" x1="319.2672" y1="490.5128" x2="330.7379" y2="490.5128">
				<stop  offset="0" style="stop-color:#B0CBD9"/>
				<stop  offset="1" style="stop-color:#7ABEE1"/>
			</linearGradient>
			<path class="st10" d="M330.6,489.6c-0.8,0.4-1.9,0.8-2.7,0.8c-0.4,0-0.8-0.4-1.6-0.4c-0.4-0.4-0.8-0.4-1.2-0.4
				c-0.4,0-0.8,0.4-1.2,0.4s-1.2,0.4-1.6,0.4c-1.2,0-1.9-0.4-3.1-0.8c-0.4,0-0.8,0.4-0.4,0.4c0.8,0.4,1.9,0.8,2.7,0.8
				c0.4,0,1.2,0,1.6,0c0.4,0,1.2-0.8,1.9-0.4c0.4,0,0.8,0.4,1.2,0.8c0.4,0,0.8,0.4,1.2,0.4c1.2,0,1.9-0.4,2.7-0.8
				C331,490,331,489.2,330.6,489.6z"/>
			<linearGradient id="SVGID_7_" gradientUnits="userSpaceOnUse" x1="317.0448" y1="494.17" x2="334.6718" y2="494.17">
				<stop  offset="0" style="stop-color:#B0CBD9"/>
				<stop  offset="1" style="stop-color:#7ABEE1"/>
			</linearGradient>
			<path class="st11" d="M320.5,495c0.8,0,1.2-0.4,1.9-0.4c0.8-0.4,1.6,0.8,2.7,0.8c0.8,0,1.6,0,1.9,0s0.8-0.4,1.2-0.4
				c0,0,0.4,0,0.4-0.4c0.4,0,0.8,0,1.2,0c1.6,0.8,3.1,0.8,4.7,0c0.4,0,0-0.8-0.4-0.4c-0.8,0.4-1.9,0.8-3.1,0.4
				c-0.8,0-1.2-0.8-1.9-0.8s-1.6,0.4-1.9,0.8c-0.8,0.4-1.9,0.4-2.7,0.4c-0.4,0-0.8-0.4-1.2-0.4s-0.4-0.4-0.8-0.4
				c-0.4,0-1.2,0.4-1.6,0.4c-1.6,0.4-3.5-0.4-4.7-1.6c-0.4-0.4-0.8,0-0.4,0.4C317.8,494.6,319,495,320.5,495z"/>
			<linearGradient id="SVGID_8_" gradientUnits="userSpaceOnUse" x1="319.597" y1="498.9548" x2="331.2703" y2="498.9548">
				<stop  offset="0" style="stop-color:#B0CBD9"/>
				<stop  offset="1" style="stop-color:#7ABEE1"/>
			</linearGradient>
			<path class="st12" d="M323.2,499.7c0.4,0,0.4,0,0.8,0s0.4-0.4,0.8-0.4s0.8,0.4,0.8,0.4c0.4,0,0.4,0.4,0.8,0.4s1.2,0.4,1.6,0.4
				c1.2,0,2.3,0,3.5-0.8c0.4,0,0-0.8-0.4-0.4c-1.2,0.4-1.9,0.8-3.1,0.4c-1.2,0-1.9-0.4-3.1-0.8c-0.4,0-0.4-0.4-0.8,0
				c-0.4,0.4-0.8,0.4-1.6,0.4s-3.1-0.4-2.7-1.6c0-0.4-0.4-0.4-0.4,0c0,1.2,1.2,1.6,1.9,1.9C322.1,499.7,322.4,499.7,323.2,499.7z"/>
			<linearGradient id="SVGID_9_" gradientUnits="userSpaceOnUse" x1="317.6971" y1="504.8668" x2="332.4071" y2="504.8668">
				<stop  offset="0" style="stop-color:#B0CBD9"/>
				<stop  offset="1" style="stop-color:#7ABEE1"/>
			</linearGradient>
			<path class="st13" d="M332.5,504.7c0-0.4-0.4-0.8-0.4-0.4c-0.4,1.2-2.3,1.2-2.7,0c0-0.4-0.4-0.4-0.4,0c-0.8,0.8-1.9,1.2-3.1,1.2
				c-0.4,0-1.2,0-1.6-0.4c-0.4,0-0.8-0.4-1.2-0.8c-0.4,0-0.4,0-0.8,0c-0.4,0.4-0.8,0.8-1.6,0.8c-1.2,0.4-2.7,0-3.1-1.2
				c0-0.4-0.8,0-0.4,0.4c0.4,0.8,1.6,1.6,2.3,1.6s1.2,0,1.9-0.4c0.4,0,0.4-0.4,0.8-0.4c0.4-0.4,0.4-0.4,0.8,0
				c1.9,1.2,4.3,1.2,5.8-0.4C329.8,506.3,332.1,506.3,332.5,504.7z"/>
			<linearGradient id="SVGID_10_" gradientUnits="userSpaceOnUse" x1="320.5531" y1="510.2975" x2="329.1926" y2="510.2975">
				<stop  offset="0" style="stop-color:#B0CBD9"/>
				<stop  offset="1" style="stop-color:#7ABEE1"/>
			</linearGradient>
			<path class="st14" d="M320.5,509.4c-0.4,1.2,1.2,1.6,1.9,1.6c1.2,0,1.9,0,3.1-0.8c1.2,1.2,2.3,1.6,3.9,1.2c0.4,0,0.4-0.8,0-0.4
				c-1.2,0.4-2.7-0.4-3.5-1.2h-0.4c-0.8,0.4-1.6,0.8-2.3,0.8c-0.4,0-0.8,0-1.2,0c-0.4,0-1.2-0.4-0.8-0.8
				C320.9,509,320.5,509,320.5,509.4z"/>
			<linearGradient id="SVGID_11_" gradientUnits="userSpaceOnUse" x1="322.1342" y1="514.5397" x2="327.7535" y2="514.5397">
				<stop  offset="0" style="stop-color:#B0CBD9"/>
				<stop  offset="1" style="stop-color:#7ABEE1"/>
			</linearGradient>
			<path class="st15" d="M327.5,514.8c0.4,0,0.4-0.8,0-0.4c-1.2,0.4-1.9,0.4-3.1,0.4c-0.4,0-0.8,0-1.2-0.4s-0.4-0.8-0.8-0.8
				c-0.4-0.4-0.8,0-0.4,0.4c0.4,0.8,1.2,1.6,1.9,1.6c0.4,0,1.2,0,1.6,0C326.3,515.2,327.1,515.2,327.5,514.8z"/>
			<linearGradient id="SVGID_12_" gradientUnits="userSpaceOnUse" x1="316.3631" y1="542.3133" x2="323.5717" y2="542.3133">
				<stop  offset="0" style="stop-color:#B0CBD9"/>
				<stop  offset="1" style="stop-color:#7ABEE1"/>
			</linearGradient>
			<path class="st16" d="M323.2,532.3c-2.7,5.8-5.4,12-7,18.2c0,0.4,0.4,0.4,0.4,0c1.2-6.2,3.9-11.6,6.6-17.5c0,1.2,0,2.3,0,3.5
				c0,1.6,0,3.5-0.4,5c-0.4,3.5-0.4,7-0.4,10.9c0,0.4,0.4,0.4,0.4,0c0-3.9,0.4-7.4,0.8-11.3c0-1.9,0-3.5,0.4-5.4c0-1.2,0-2.7,0-3.9
				C323.6,531.9,323.2,531.9,323.2,532.3z"/>
			<linearGradient id="SVGID_13_" gradientUnits="userSpaceOnUse" x1="325.3196" y1="543.7198" x2="335.4587" y2="543.7198">
				<stop  offset="0" style="stop-color:#B0CBD9"/>
				<stop  offset="1" style="stop-color:#7ABEE1"/>
			</linearGradient>
			<path class="st17" d="M335.6,550.1c-3.1-5.8-6.2-11.6-8.5-17.5c0-0.4-0.4-0.4-0.4,0c-0.4,7.4-0.8,14.7-1.2,22.1
				c0,0.4,0.4,0.4,0.4,0c0.4-7,0.8-14,1.2-21c2.3,5.8,5.4,11.3,8.1,16.7C335.3,550.9,335.6,550.5,335.6,550.1z"/>
		</g>
		<linearGradient id="SVGID_14_" gradientUnits="userSpaceOnUse" x1="324.2181" y1="466.7027" x2="326.3004" y2="466.7027">
			<stop  offset="0" style="stop-color:#B0CBD9"/>
			<stop  offset="1" style="stop-color:#7ABEE1"/>
		</linearGradient>
		<circle class="st18" cx="325.2" cy="466.7" r="1.2"/>
	</g>
</g>
</svg>
