<?xml version="1.0" encoding="utf-8"?>
<!-- Generator: Adobe Illustrator 21.0.0, SVG Export Plug-In . SVG Version: 6.00 Build 0)  -->
<svg version="1.1" id="圖層_1" xmlns="http://www.w3.org/2000/svg" xmlns:xlink="http://www.w3.org/1999/xlink" x="0px" y="0px"
	 viewBox="0 0 822.9 601.4" style="enable-background:new 0 0 822.9 601.4;" xml:space="preserve">
<style type="text/css">
	.st0{fill:url(#SVGID_1_);}
	.st1{fill:#E1BE3F;}
	.st2{fill:#AB6C21;}
	.st3{opacity:0.6;fill:#E1BE3F;enable-background:new    ;}
	.st4{fill:#888888;}
	.st5{fill:#456430;}
	.st6{fill:#709846;}
	.st7{fill:url(#SVGID_2_);}
	.st8{fill:url(#SVGID_3_);}
	.st9{opacity:0.8;}
	.st10{fill:#C8C9CA;}
	.st11{fill:url(#SVGID_4_);}
	.st12{opacity:0.6;fill:#709846;enable-background:new    ;}
	.st13{fill:#FFFFFF;}
	.st14{fill:#211714;}
	.st15{fill:url(#SVGID_5_);}
	.st16{fill:url(#SVGID_6_);}
	.st17{fill:url(#SVGID_7_);}
	.st18{fill:#BED26B;}
	.st19{fill:#F3E4A2;}
	.st20{fill:#8EA63A;}
	.st21{fill:none;stroke:#BED26B;stroke-width:0.9391;stroke-miterlimit:10;}
	.st22{opacity:0.6;fill:#DCCFB8;enable-background:new    ;}
	.st23{fill:url(#SVGID_8_);}
	.st24{fill:url(#SVGID_9_);}
	.st25{opacity:0.6;}
	.st26{fill:url(#SVGID_10_);}
	.st27{fill:url(#SVGID_11_);}
	.st28{fill:url(#SVGID_12_);}
	.st29{fill:#E2BF40;}
	.st30{fill:#AC6D21;}
	.st31{opacity:0.6;fill:#E2BF40;enable-background:new    ;}
	.st32{fill:#A46723;}
	.st33{fill:url(#SVGID_13_);}
	.st34{fill:url(#SVGID_14_);}
	.st35{fill:url(#SVGID_15_);}
	.st36{fill:url(#SVGID_16_);}
	.st37{fill:url(#SVGID_17_);}
	.st38{fill:url(#SVGID_18_);}
	.st39{fill:url(#SVGID_19_);}
	.st40{fill:url(#SVGID_20_);}
	.st41{fill:url(#SVGID_21_);}
	.st42{fill:url(#SVGID_22_);}
	.st43{fill:url(#SVGID_23_);}
	.st44{fill:url(#SVGID_24_);}
	.st45{fill:url(#SVGID_25_);}
	.st46{fill:url(#SVGID_26_);}
	.st47{fill:url(#SVGID_27_);}
	.st48{fill:url(#SVGID_28_);}
	.st49{fill:url(#SVGID_29_);}
	.st50{fill:url(#SVGID_30_);}
	.st51{fill:url(#SVGID_31_);}
	.st52{fill:url(#SVGID_32_);}
	.st53{fill:url(#SVGID_33_);}
	.st54{fill:url(#SVGID_34_);}
	.st55{fill:url(#SVGID_35_);}
	.st56{fill:url(#SVGID_36_);}
	.st57{fill:url(#SVGID_37_);}
	.st58{fill:url(#SVGID_38_);}
	.st59{fill:url(#SVGID_39_);}
	.st60{fill:url(#SVGID_40_);}
	.st61{fill:url(#SVGID_41_);}
	.st62{fill:url(#SVGID_42_);}
	.st63{fill:url(#SVGID_43_);}
	.st64{fill:url(#SVGID_44_);}
	.st65{fill:url(#SVGID_45_);}
	.st66{fill:url(#SVGID_46_);}
	.st67{fill:url(#SVGID_47_);}
	.st68{fill:url(#SVGID_48_);}
	.st69{fill:url(#SVGID_49_);}
	.st70{fill:url(#SVGID_50_);}
	.st71{fill:url(#SVGID_51_);}
	.st72{fill:url(#SVGID_52_);}
	.st73{fill:url(#SVGID_53_);}
	.st74{fill:url(#SVGID_54_);}
	.st75{fill:url(#SVGID_55_);}
	.st76{fill:url(#SVGID_56_);}
	.st77{fill:url(#SVGID_57_);}
	.st78{fill:url(#SVGID_58_);}
	.st79{fill:url(#SVGID_59_);}
	.st80{fill:url(#SVGID_60_);}
	.st81{fill:url(#SVGID_61_);}
	.st82{fill:url(#SVGID_62_);}
	.st83{fill:#3C3A39;}
	.st84{fill:url(#SVGID_63_);}
	.st85{fill:url(#SVGID_64_);}
	.st86{fill:url(#SVGID_65_);}
	.st87{fill:#532817;}
	.st88{fill:#48210E;}
	.st89{fill:url(#SVGID_66_);}
	.st90{fill:url(#SVGID_67_);}
	.st91{fill:#9F7433;}
	.st92{fill:#746766;}
	.st93{opacity:0.5;}
	.st94{fill:#2F2A28;}
	.st95{opacity:0.5;fill:#2F2A28;enable-background:new    ;}
	.st96{fill:#865C25;}
	.st97{fill:#755325;}
	.st98{fill:none;stroke:#746766;stroke-width:0.8195;stroke-linecap:round;stroke-miterlimit:10;}
	.st99{fill:url(#SVGID_68_);}
	.st100{fill:url(#SVGID_69_);}
	.st101{fill:url(#SVGID_70_);}
	.st102{fill:url(#SVGID_71_);}
	.st103{fill:url(#SVGID_72_);}
	.st104{fill:url(#SVGID_73_);}
	.st105{fill:url(#SVGID_74_);}
	.st106{fill:#D69644;}
	.st107{fill:url(#SVGID_75_);}
	.st108{fill:#898989;}
	.st109{fill:#C9CACA;}
	.st110{fill:url(#SVGID_76_);}
	.st111{fill:url(#SVGID_77_);}
	.st112{fill:url(#SVGID_78_);}
	.st113{fill:url(#SVGID_79_);}
	.st114{fill:url(#SVGID_80_);}
	.st115{fill:#FCE4B4;}
	.st116{opacity:0.5;fill:#DA9E36;enable-background:new    ;}
	.st117{fill:url(#SVGID_81_);}
	.st118{fill:url(#SVGID_82_);}
	.st119{fill:url(#SVGID_83_);}
	.st120{opacity:0.4;fill:#C49358;enable-background:new    ;}
	.st121{fill:url(#SVGID_84_);}
	.st122{fill:url(#SVGID_85_);}
	.st123{fill:url(#SVGID_86_);}
	.st124{fill:url(#SVGID_87_);}
	.st125{fill:url(#SVGID_88_);}
	.st126{fill:url(#SVGID_89_);}
	.st127{fill:#7D5223;}
	.st128{fill:url(#SVGID_90_);}
	.st129{opacity:0.5;fill:url(#SVGID_91_);enable-background:new    ;}
	.st130{fill:#CC7C5C;}
</style>
<g>
	<g>
		
			<linearGradient id="SVGID_1_" gradientUnits="userSpaceOnUse" x1="351.9644" y1="63.1548" x2="447.49" y2="63.1548" gradientTransform="matrix(1 0 0 -1 0 602)">
			<stop  offset="0" style="stop-color:#2F2A28"/>
			<stop  offset="1" style="stop-color:#110707"/>
		</linearGradient>
		<path class="st0" d="M352.4,552.6c2.2-8.8,14.6-20.4,17.5-23.4c0.4,0.4,0.7,0.4,1.1,0c0.4-0.4,0.4-0.7,0.4-1.1
			c-3.6-6.2-11.3-27.7-13.1-32.8c7.7,0.7,49.3,3.6,89.8,2.2l-0.4,33.2l0,0v12.8l0,0v2.6l0,0v0.4l0,0l0,0c0,8.8-0.7,17.5-0.7,18.6
			c-2.2,5.8-11.3,11.3-11.3,11.3c-28.8,13.1-74.8,0.7-79.5-0.4C355,573.8,350.6,561.4,352.4,552.6z"/>
		<path class="st91" d="M447.3,574.2c-2.2,4-10.2,12.8-39.4,14.2c-26.3,1.1-48.9-4.7-51.8-5.8c-0.7-2.6-0.4-4,0-5.1
			c4,1.1,24.4,6.6,46.3,6.6c11.7,0,23.7-1.5,33.9-6.2c0.4-0.4,8.8-5.1,11.7-11.3C447.6,569.4,447.3,572.3,447.3,574.2z"/>
		<path class="st92" d="M360.4,538.8c-4,4.4-8,9.9-8.8,14.6c-1.5,6.9,0.7,15.3,2.2,20.4l10.9,4C353.5,568,360.4,538.8,360.4,538.8z"
			/>
		<g class="st93">
			<path class="st94" d="M351.3,563.2c0.7,6.6,3.3,12.4,3.6,13.9c1.8,0.4,9.1,2.6,19.3,4l0,0C353.9,576.4,351.7,565,351.3,563.2z"/>
		</g>
		<path class="st92" d="M356.8,559.9c0,0-2.6-5.1,2.6-4.4c5.5,0.7,4.4,1.1,4,2.9s-2.2,4.7-3.3,4.4
			C359,562.5,356.8,559.9,356.8,559.9z"/>
		<path class="st92" d="M365.5,558.5c0,0,7.3,3.3,35,3.6c0,0-19.3,3.6-35.8,0L365.5,558.5z"/>
		<path class="st95" d="M447.3,546.8L447.3,546.8L447.3,546.8c0-0.4,0-0.4,0-0.4l0,0v-2.6l0,0v-12.8l0,0l0.4-33.2
			c-3.6,0-7.3,0.4-10.6,0.4c0.4,9.1,1.1,42.7,0,54c-1.1,8.4-8.4,21.5-18.2,29.6c6.2-1.1,11.7-2.6,17.1-4.7c0,0,8.8-5.1,11.3-11.3
			C446.5,564.3,447.3,555.6,447.3,546.8z"/>
		<path class="st96" d="M436,577.8c-5.8,2.6-12,4.4-19,5.1c-0.7,1.1-2.2,2.9-4,5.1c24.4-2.2,31.7-10.2,33.9-13.9
			c0.4-1.5,0.4-4.7,0.4-7.7C444.7,572.7,436.3,577.4,436,577.8z"/>
		<path class="st92" d="M367.7,496.1c-4.7-0.4-8-0.7-9.9-0.7c1.5,4.4,6.9,19.3,10.9,28.1c-1.8-8.4-4.7-22.6-5.1-24.4
			C363.3,497.9,365.5,496.8,367.7,496.1z"/>
		<path class="st97" d="M400.9,589.9c-25.2,0-45.2-5.8-45.6-6.2c-0.4,0-0.4-0.4-0.4-0.4c-1.5-4.4,0-6.9,0-7.3
			c0.4-0.4,0.7-0.4,1.1-0.4c0.4,0.4,0.4,0.7,0.4,1.1c0,0-1.1,2.2,0,5.5c3.3,0.7,25.9,6.9,51.8,5.8c28.8-1.5,37.2-10.2,39.4-14.2
			c0.4-2.6,0.7-8.8,0-10.9c0-0.4,0-0.7,0.4-1.1c0.4,0,0.7,0,1.1,0.4c1.1,3.3,0,11.7,0,12v0.4c-2.2,4-10.6,13.9-40.5,15
			C405.7,589.9,403.1,589.9,400.9,589.9z"/>
		<path class="st98" d="M362.3,499.4c0,0,29.6,4,82.8,2.2"/>
		<path d="M449.1,496.8c0-0.4,0-0.4-0.4-0.7c0,0-0.4-0.4-0.7-0.4c-44.5,1.8-90.9-2.2-91.6-2.2c-0.4,0-0.4,0-0.7,0.4
			c0,0.4-0.4,0.4,0,0.7c0,0,0,0.4,0.4,0.7l0,0l11.3,32.1l0,0l0,0v0.4c-2.6,2.2-14.2,14.2-16.1,22.3c-0.4,0.7-0.4,1.1-0.4,1.8
			c-2.6,10.2,3.6,24.1,3.6,24.8c0,0.4,0.4,0.4,0.4,0.4c0.4,0,23,6.6,47.1,6.6c11.7,0,23.7-1.5,33.9-6.2c0.4-0.4,9.5-5.5,12-12
			c0,0,0,0,0-0.4c0-0.7,0.7-12.4,0.7-22.6L449.1,496.8z M352.4,552.6c2.2-8.8,14.6-20.4,17.5-23.4c0.4,0.4,0.7,0.4,1.1,0
			c0.4-0.4,0.4-0.7,0.4-1.1c-0.4-0.7-1.1-1.8-1.5-2.9l-7.3-28.1l0,0c-0.4-1.5,0.4-1.8,0.7-1.8c13.9,1.1,48.5,2.9,82.1,1.8l0.4,67.1
			c-2.9,5.1-13.5,16.8-47.4,17.9c-20.8-0.7-39.8-5.5-42.3-6.6C355,573.8,350.6,561.4,352.4,552.6z"/>
	</g>
	<g>
		
			<linearGradient id="SVGID_2_" gradientUnits="userSpaceOnUse" x1="4033.0913" y1="63.1549" x2="4128.6167" y2="63.1549" gradientTransform="matrix(-1 0 0 -1 4579.082 602)">
			<stop  offset="0" style="stop-color:#2F2A28"/>
			<stop  offset="1" style="stop-color:#110707"/>
		</linearGradient>
		<path class="st7" d="M541.8,576c-4.4,1.1-50.7,13.5-79.5,0.4c0,0-8.8-5.1-11.3-11.3c0-1.1-0.4-9.9-0.7-18.6l0,0l0,0v-0.4l0,0v-2.6
			l0,0v-12.8l0,0l-0.4-33.2c40.1,1.8,82.1-1.5,89.8-2.2c-1.8,5.1-9.9,27-13.1,32.8c-0.4,0.4,0,0.7,0.4,1.1c0.4,0.4,0.7,0,1.1,0
			c2.9,2.9,15.3,14.6,17.5,23.4C547.6,561.4,542.9,573.8,541.8,576z"/>
		<path class="st91" d="M450.2,566.5c2.9,6.2,11.3,10.9,11.7,11.3c10.2,4.7,22.3,6.2,33.9,6.2c21.9,0,42.3-5.5,46.3-6.6
			c0.4,0.7,0.7,2.6,0,5.1c-3.3,0.7-25.9,6.9-51.8,5.8c-28.8-1.5-37.2-10.2-39.4-14.2C450.6,572.3,450.2,569.4,450.2,566.5z"/>
		<path class="st92" d="M537.4,538.8c4,4.4,8,9.9,8.8,14.6c1.5,6.9-0.7,15.3-2.2,20.4l-10.9,4C544.3,568,537.4,538.8,537.4,538.8z"
			/>
		<g class="st93">
			<path class="st94" d="M546.5,563.2c-0.7,6.6-3.3,12.4-3.6,13.9c-1.8,0.4-9.1,2.6-19.3,4l0,0C544,576.4,546.5,565,546.5,563.2z"/>
		</g>
		<path class="st92" d="M541.4,559.9c0,0,2.6-5.1-2.6-4.4c-5.5,0.7-4.4,1.1-4,2.9s2.2,4.7,3.3,4.4
			C538.9,562.5,541.4,559.9,541.4,559.9z"/>
		<path class="st92" d="M532.6,558.5c0,0-7.3,3.3-35,3.6c0,0,19.3,3.6,35.8,0L532.6,558.5z"/>
		<path class="st95" d="M450.9,546.8L450.9,546.8L450.9,546.8c0-0.4,0-0.4,0-0.4l0,0v-2.6l0,0v-12.8l0,0l-0.4-33.2
			c3.6,0,7.3,0.4,10.6,0.4c-0.4,9.1-1.1,42.7,0,54c1.1,8.4,8.4,21.5,18.2,29.6c-6.2-1.1-11.7-2.6-17.1-4.7c0,0-8.8-5.1-11.3-11.3
			C451.3,564.3,450.9,555.6,450.9,546.8z"/>
		<path class="st96" d="M461.9,577.8c5.8,2.6,12,4.4,19,5.1c0.7,1.1,2.2,2.9,4,5.1c-24.4-2.2-31.7-10.2-33.9-13.9
			c-0.4-1.5-0.4-4.7-0.4-7.7C453.1,572.7,461.5,577.4,461.9,577.8z"/>
		<path class="st92" d="M530.1,496.1c4.7-0.4,8-0.7,9.9-0.7c-1.5,4.4-6.9,19.3-10.9,28.1c1.8-8.4,4.7-22.6,5.1-24.4
			C534.8,497.9,532.3,496.8,530.1,496.1z"/>
		<path class="st97" d="M497.3,589.9c25.2,0,45.2-5.8,45.6-6.2c0.4,0,0.4-0.4,0.4-0.4c1.5-4.4,0-6.9,0-7.3c-0.4-0.4-0.7-0.4-1.1-0.4
			c-0.4,0.4-0.4,0.7-0.4,1.1c0,0,1.1,2.2,0,5.5c-3.3,0.7-25.9,6.9-51.8,5.8c-28.8-1.5-37.2-10.2-39.4-14.2c-0.4-2.6-0.7-8.8,0-10.9
			c0-0.4,0-0.7-0.4-1.1c-0.4,0-0.7,0-1.1,0.4c-1.1,3.3,0,11.7,0,12v0.4c2.2,4,10.6,13.9,40.5,15
			C492.5,589.9,494.7,589.9,497.3,589.9z"/>
		<path class="st98" d="M535.6,499.4c0,0-29.6,4-82.8,2.2"/>
		<path d="M546.9,552.3c0-0.7-0.4-1.1-0.4-1.8l0,0c-1.8-8-13.5-19.7-16.1-22.3v-0.4l0,0l0,0l11.3-32.1l0,0c0-0.4,0.4-0.7,0.4-0.7
			c0-0.4,0-0.4,0-0.7s-0.4-0.4-0.7-0.4s-47.1,4-91.6,2.2c-0.4,0-0.4,0-0.7,0.4c0,0-0.4,0.4-0.4,0.7l0.4,46c0,10.2,0.7,21.9,0.7,22.6
			c0,0,0,0,0,0.4c2.6,6.6,11.7,11.7,12,12c10.2,4.7,22.3,6.2,33.9,6.2c24.1,0,46.7-6.6,47.1-6.6c0.4,0,0.4-0.4,0.4-0.4
			C543.6,576.4,549.4,562.5,546.9,552.3z M541.8,576c-2.9,0.7-21.5,5.8-42.3,6.6c-33.9-1.1-44.1-12.8-47.4-17.9l0.4-67.1
			c33.9,1.5,68.2-0.7,82.1-1.8c0.4,0,1.1,0,0.7,1.8l0,0l-7.3,28.1c-0.7,1.1-1.1,2.2-1.5,2.9c-0.4,0.4,0,0.7,0.4,1.1s0.7,0,1.1,0
			c2.9,2.9,15.3,14.6,17.5,23.4C547.6,561.4,542.9,573.8,541.8,576z"/>
	</g>
	<g>
		<g>
			<g>
				<linearGradient id="SVGID_3_" gradientUnits="userSpaceOnUse" x1="291.1951" y1="382.4834" x2="376.6515" y2="382.4834">
					<stop  offset="0" style="stop-color:#EFD980"/>
					<stop  offset="0.2037" style="stop-color:#EFD87C"/>
					<stop  offset="0.3836" style="stop-color:#EED572"/>
					<stop  offset="0.5546" style="stop-color:#EDCF5F"/>
					<stop  offset="0.7191" style="stop-color:#EBC743"/>
					<stop  offset="0.7526" style="stop-color:#EBC63C"/>
					<stop  offset="1" style="stop-color:#E7AE17"/>
				</linearGradient>
				<path class="st8" d="M376.8,357.8l-8-18.6c0-0.4,0-1.1,0-1.5v-0.4c0-0.4,0-0.7-0.4-1.1v-0.4c0-0.4-0.4-0.7-0.4-1.1v-0.4
					c0-0.4-0.4-1.1-0.7-1.5v-0.4c0-0.4-0.4-0.7-0.4-1.1c0-0.4,0-0.4-0.4-0.7c0-0.4-0.4-0.7-0.4-1.1s-0.4-0.4-0.4-0.7
					c-2.9-5.8-7.3-10.9-10.2-14.6l-0.4-0.4c-15.7,20.1-33.9,47.4-48.2,82.1c0,0-13.1,12.4-13.1,29.9c0,17.5,13.5,23.4,20.8,21.5l0,0
					c8.4,6.9,19.7,2.9,21.9-8.8l0,0c0.4,0.4,1.1,0.7,1.5,0.7c4.7,2.6,11.3-0.7,13.5-5.1l0,0l0,0c0,0,0-0.4,0.4-0.4l0,0l1.5-14.2
					h-0.4v-3.6l-0.7-2.6c0.4-0.7,0.7-1.5,0.7-2.2l0.7-1.1l1.1-2.6v-0.7c2.6-6.6,6.6-15.7,12-26.3c3.3-6.9,7.3-14.2,11.3-21.2
					L376.8,357.8z"/>
			</g>
			<path class="st29" d="M326.1,418.4c0,0-2.6,19.3,8.4,25.5l1.8-5.5C336.3,438.4,324.7,432.6,326.1,418.4z"/>
			<path class="st29" d="M307.2,424.2c0,0-5.1,12.8-1.5,21.9c0,0,3.3,1.5,8.4,1.1C314.5,447.2,305.7,442.8,307.2,424.2z"/>
			<path class="st30" d="M325.8,424.2c0,0,0,11.3,9.5,15.7l0.4-1.8C335.6,438.4,325.4,429.3,325.8,424.2z"/>
			<path class="st30" d="M306.4,431.1c0,0-0.7,10.6,5.1,16.4l3.6-0.4C314.8,447.2,307.2,439.9,306.4,431.1z"/>
			<path class="st31" d="M376.8,357.8l-8-18.6c0-0.4,0-1.1,0-1.5v-0.4c0-0.4,0-0.7-0.4-1.1v-0.4c0-0.4-0.4-0.7-0.4-1.1v-0.4
				c0-0.4-0.4-1.1-0.7-1.5v-0.4c0-0.4-0.4-0.7-0.4-1.1c0-0.4,0-0.4-0.4-0.7c0-0.4-0.4-0.7-0.4-1.1s-0.4-0.4-0.4-0.7c0,0,0,0,0-0.4
				c-10.9,21.5-22.6,49.6-23,73.7c0,0,13.5,17.1,8.4,33.6c0.4-0.4,0.7-1.1,1.1-1.5l0,0l0,0c0,0,0-0.4,0.4-0.4l0,0l1.5-14.2h-0.4
				v-3.6l-0.7-3.3l1.8-2.6l1.1-2.6l20.1-43.8c0,0,1.1-1.5,2.9-4.4L376.8,357.8z"/>
			<g>
				<path class="st30" d="M352.4,414.3l0.4-1.1l0,0c0.4-0.4,13.1-29.2,25.2-52.2l-1.5-2.9l0,0c-10.9,20.8-23,47.1-25.5,52.9
					c-0.4-1.1-0.7-1.8-0.7-1.8l0,0c-1.1-1.8-2.6-3.6-2.6-3.6c-0.4-0.4-0.7-0.4-0.7,0c-0.4,0.4-0.4,0.7,0,0.7
					c0.4,0.4,0.4,0.7,0.7,1.1c0,0,6.9,10.6,3.3,25.9l0,0c-0.7,2.2-2.9,4.4-5.5,5.1c-2.6,1.1-5.1,1.1-7.3,0
					c-8.4-4.4-13.1-13.5-11.3-22.3c0-0.4,0-0.7-0.4-0.7c-0.4,0-0.7,0-0.7,0.4c-1.8,8.8,2.2,17.9,9.9,22.6c-1.1,5.5-4.7,9.5-9.1,10.9
					c-4.4,1.5-9.1,0-12.8-3.6c-8.8-8.8-5.5-22.6-5.5-22.6c0-0.4,0-0.7-0.4-0.7s-0.7,0-0.7,0.4c0,0-3.6,14.2,5.8,23.7l0,0
					c-2.9,0.4-7.3-0.4-11.3-3.6c-3.3-2.6-7.3-8-7.3-17.5c0-17.1,12.8-29.2,12.8-29.6c0,0,0,0,0-0.4c14.2-34.3,32.1-61.7,47.8-81.7
					c0,0,0,0-0.4-0.4c-1.1-1.5-2.2-2.6-2.6-2.9l0,0c-5.1,6.6-10.6,13.9-16.1,22.3l0,0c0,0-25.9,38.7-31.7,60.2
					c-6.9,9.1-20.4,30.3-7.7,46.3c1.1,1.8,2.6,3.3,4,4.4c0.4,0.4,1.1,0.7,1.5,1.1h0.4l0,0c2.9,1.8,6.2,2.9,9.1,2.9
					c0.7,0,1.5,0,2.2-0.4c2.6,2.2,5.8,3.3,9.1,3.3c1.1,0,2.6,0,3.6-0.4c5.1-1.5,8.8-5.8,9.9-11.3c0.4,0,0.7,0.4,0.7,0.4
					c1.1,0.7,2.6,1.1,4,1.1c1.5,0,2.9-0.4,4-0.7c2.6-1.1,4.7-2.9,5.8-5.5l0,0c0,0,0,0,0-0.4v-0.4l0,0c0,0,1.1-2.6,1.5-6.9
					c0-1.8,0.4-3.6,0-5.8C353.5,418.4,353.1,416.2,352.4,414.3z"/>
			</g>
		</g>
		<g>
			<g>
				
					<linearGradient id="SVGID_4_" gradientUnits="userSpaceOnUse" x1="1012.4457" y1="382.4834" x2="1097.9019" y2="382.4834" gradientTransform="matrix(-1 0 0 1 1616.0396 0)">
					<stop  offset="0" style="stop-color:#EFD980"/>
					<stop  offset="0.2037" style="stop-color:#EFD87C"/>
					<stop  offset="0.3836" style="stop-color:#EED572"/>
					<stop  offset="0.5546" style="stop-color:#EDCF5F"/>
					<stop  offset="0.7191" style="stop-color:#EBC743"/>
					<stop  offset="0.7526" style="stop-color:#EBC63C"/>
					<stop  offset="1" style="stop-color:#E7AE17"/>
				</linearGradient>
				<path class="st11" d="M517.9,357.8l8-18.6c0-0.4,0-1.1,0-1.5v-0.4c0-0.4,0-0.7,0.4-1.1v-0.4c0-0.4,0.4-0.7,0.4-1.1v-0.4
					c0-0.4,0.4-1.1,0.7-1.5v-0.4c0-0.4,0.4-0.7,0.4-1.1c0-0.4,0-0.4,0.4-0.7c0-0.4,0.4-0.7,0.4-1.1s0.4-0.4,0.4-0.7
					c2.9-5.8,7.3-10.9,10.2-14.6l0.4-0.4c15.7,20.1,33.9,47.4,48.2,82.1c0,0,13.1,12.4,13.1,29.9c0,17.5-13.5,23.4-20.8,21.5l0,0
					c-8.4,6.9-19.7,2.9-21.9-8.8l0,0c-0.4,0.4-1.1,0.7-1.5,0.7c-4.7,2.6-11.3-0.7-13.5-5.1l0,0l0,0c0,0,0-0.4-0.4-0.4l0,0l-1.5-14.2
					h0.4v-3.6l0.7-2.6c-0.4-0.7-0.7-1.5-0.7-2.2l-0.7-1.1l-1.1-2.6v-0.7c-2.6-6.6-6.6-15.7-12-26.3c-3.3-6.9-7.3-14.2-11.3-21.2
					L517.9,357.8z"/>
			</g>
			<path class="st29" d="M569,418.4c0,0,2.6,19.3-8.4,25.5l-1.8-5.5C558.4,438.4,570.1,432.6,569,418.4z"/>
			<path class="st29" d="M587.6,424.2c0,0,5.1,12.8,1.5,21.9c0,0-3.3,1.5-8.4,1.1C580.3,447.2,589,442.8,587.6,424.2z"/>
			<path class="st30" d="M569,424.2c0,0,0,11.3-9.5,15.7l-0.4-1.8C559.1,438.4,569.3,429.3,569,424.2z"/>
			<path class="st30" d="M588.3,431.1c0,0,0.7,10.6-5.1,16.4l-3.6-0.4C579.9,447.2,587.6,439.9,588.3,431.1z"/>
			<path class="st31" d="M517.9,357.8l8-18.6c0-0.4,0-1.1,0-1.5v-0.4c0-0.4,0-0.7,0.4-1.1v-0.4c0-0.4,0.4-0.7,0.4-1.1v-0.4
				c0-0.4,0.4-1.1,0.7-1.5v-0.4c0-0.4,0.4-0.7,0.4-1.1c0-0.4,0-0.4,0.4-0.7c0-0.4,0.4-0.7,0.4-1.1s0.4-0.4,0.4-0.7c0,0,0,0,0-0.4
				c10.9,21.5,22.6,49.6,23,73.7c0,0-13.5,17.1-8.4,33.6c-0.4-0.4-0.7-1.1-1.1-1.5l0,0l0,0c0,0,0-0.4-0.4-0.4l0,0l-1.5-14.2h0.4
				v-3.6l0.7-3.3l-1.8-2.6l-1.1-2.6L518.6,364c0,0-1.1-1.5-2.9-4.4L517.9,357.8z"/>
			<g>
				<path class="st30" d="M542.3,414.3l-0.7-1.1l0,0c-0.4-0.4-13.1-29.2-25.2-52.2l1.5-2.9l0,0c10.9,20.8,23,47.1,25.5,52.9
					c0.4-1.1,0.7-1.8,0.7-1.8l0,0c1.1-1.8,2.6-3.6,2.6-3.6c0.4-0.4,0.7-0.4,0.7,0c0.4,0.4,0.4,0.7,0,0.7c-0.4,0.4-0.4,0.7-0.7,1.1
					c0,0-6.9,10.6-3.3,25.9l0,0c0.7,2.2,2.9,4.4,5.5,5.1c2.6,1.1,5.1,1.1,7.3,0c8.4-4.4,13.1-13.5,11.3-22.3c0-0.4,0-0.7,0.4-0.7
					s0.7,0,0.7,0.4c1.8,8.8-2.2,17.9-9.9,22.6c1.1,5.5,4.7,9.5,9.1,10.9c4.4,1.5,9.1,0,12.8-3.6c8.8-8.8,5.5-22.6,5.5-22.6
					c0-0.4,0-0.7,0.4-0.7s0.7,0,0.7,0.4c0,0,3.6,14.2-5.8,23.7l0,0c2.9,0.4,7.3-0.4,11.3-3.6c3.3-2.6,7.3-8,7.3-17.5
					c0-17.1-12.8-29.2-12.8-29.6c0,0,0,0,0-0.4c-14.2-34.3-32.1-61.7-47.8-81.7c0,0,0,0,0.4-0.4c1.1-1.5,2.2-2.6,2.6-2.9l0,0
					c5.1,6.6,10.6,13.9,16.1,22.3l0,0c0,0,25.9,38.7,31.7,60.2c6.9,9.1,20.4,30.3,7.7,46.3c-1.1,1.8-2.6,3.3-4,4.4
					c-0.4,0.4-1.1,0.7-1.5,1.1h-0.4l0,0c-2.9,1.8-6.2,2.9-9.1,2.9c-0.7,0-1.5,0-2.2-0.4c-2.6,2.2-5.8,3.3-9.1,3.3
					c-1.1,0-2.6,0-3.6-0.4c-5.1-1.5-8.8-5.8-9.9-11.3c-0.4,0-0.7,0.4-0.7,0.4c-1.1,0.7-2.6,1.1-4,1.1c-1.5,0-2.9-0.4-4-0.7
					c-2.6-1.1-4.7-2.9-5.8-5.5l0,0c0,0,0,0,0-0.4v-0.4l0,0c0,0-1.1-2.6-1.5-6.9c0-1.8-0.4-3.6,0-5.8
					C541.2,418.4,541.6,416.2,542.3,414.3z"/>
			</g>
		</g>
	</g>
</g>
</svg>
