<?xml version="1.0" encoding="utf-8"?>
<!-- Generator: Adobe Illustrator 21.0.0, SVG Export Plug-In . SVG Version: 6.00 Build 0)  -->
<svg version="1.1" id="圖層_1" xmlns="http://www.w3.org/2000/svg" xmlns:xlink="http://www.w3.org/1999/xlink" x="0px" y="0px"
	 viewBox="0 0 109 149.4" style="enable-background:new 0 0 109 149.4;" xml:space="preserve">
<style type="text/css">
	.st0{fill:#BED26B;}
	.st1{fill:#FFFFFF;}
	.st2{fill:#F3E4A2;}
	.st3{fill:#8EA63A;}
	.st4{fill:none;stroke:#BED26B;stroke-width:0.2749;stroke-miterlimit:10;}
	.st5{opacity:0.6;fill:#DCCFB8;enable-background:new    ;}
	.st6{fill:url(#SVGID_1_);}
	.st7{opacity:0.6;}
	.st8{fill:#E1BE3F;}
	.st9{fill:#AB6C21;}
	.st10{fill:#73291B;}
	.st11{fill:url(#SVGID_2_);}
	.st12{fill:url(#SVGID_3_);}
	.st13{fill:url(#SVGID_4_);}
	.st14{fill:url(#SVGID_5_);}
	.st15{fill:url(#SVGID_6_);}
	.st16{fill:url(#SVGID_7_);}
	.st17{fill:url(#SVGID_8_);}
	.st18{fill:url(#SVGID_9_);}
	.st19{fill:url(#SVGID_10_);}
	.st20{fill:url(#SVGID_11_);}
	.st21{fill:url(#SVGID_12_);}
	.st22{fill:url(#SVGID_13_);}
	.st23{fill:#C8C9CA;}
	.st24{fill:#F4E3A5;}
	.st25{fill:#F3B699;}
	.st26{fill:#888888;}
	.st27{fill:#456430;}
	.st28{fill:#709846;}
	.st29{fill:url(#SVGID_14_);}
	.st30{fill:url(#SVGID_15_);}
	.st31{opacity:0.8;}
	.st32{fill:url(#SVGID_16_);}
	.st33{opacity:0.6;fill:#709846;enable-background:new    ;}
	.st34{fill:url(#SVGID_17_);}
	.st35{fill:url(#SVGID_18_);}
	.st36{opacity:0.6;fill:#E1BE3F;enable-background:new    ;}
</style>
<g>
	<g>
		<path class="st0" d="M50.4,81.9c-1.9,0-3.7-0.1-5-0.6c-0.4,0.1-1.5,0.5-1.9,0.1c-0.2-0.2-0.2-0.5,0-1c-0.1-1.1-1.3-14.6-1.3-16.3
			V60c0-0.1,0.1-0.2,0.2-0.2c0.1,0,9.5-2,17-1c0.1,0,0.2,0.1,0.2,0.2c0,0.2,0.5,18.9,0.7,20.2s0,2.3,0,2.3c0,0.1-0.1,0.1-0.2,0.2
			c0,0-1.2,0.2-2.4-0.3C57.2,81.4,53.8,81.9,50.4,81.9z M45.4,80.9L45.4,80.9c3.7,1.3,12.2,0.1,12.3,0.1h0.1c0.9,0.4,1.7,0.4,2,0.3
			c0.1-0.3,0.2-1,0-2c-0.2-1.3-0.6-18-0.7-20.1c-6.9-0.9-15.3,0.7-16.6,1v3.9c0,1.7,1.3,16.2,1.3,16.3v0.1c-0.1,0.3-0.2,0.5-0.1,0.6
			C44,81.3,44.8,81.1,45.4,80.9C45.3,80.9,45.4,80.9,45.4,80.9z"/>
		<path class="st1" d="M45.4,80.9L45.4,80.9c3.7,1.3,12.2,0.1,12.3,0.1h0.1c0.9,0.4,1.7,0.4,2,0.3c0.1-0.3,0.2-1,0-2
			c-0.2-1.3-0.6-18-0.7-20.1c-6.9-0.9-15.3,0.7-16.6,1v3.9c0,1.7,1.3,16.2,1.3,16.3v0.1c-0.1,0.3-0.2,0.5-0.1,0.6
			C44,81.3,44.8,81.1,45.4,80.9C45.3,80.9,45.4,80.9,45.4,80.9z"/>
		<path class="st2" d="M43.8,81.1c0.2,0.2,1,0,1.5-0.2h0.1c0,0,0,0,0.1,0c3.6,1.3,12.1,0.1,12.2,0h0.1c0.9,0.4,1.7,0.4,2,0.3
			c0.1-0.3,0.2-1,0-2c-0.1-0.7-0.3-5.7-0.4-10.6c-3.2,0.4-3.3,2.9-3.3,2.9c-2.8,0.1-2.6,1.9-2.6,1.9c-2.3-0.6-2.5,0.5-2.5,0.5
			c-1-2.6-3.6-2.3-3.6-2.3s-0.4-2.1-2.2-2.4c-0.9-0.1-1.6,0.2-2.2,0.5c0.4,4.7,0.9,10.6,0.9,10.7v0.1C43.8,80.8,43.7,81,43.8,81.1z"
			/>
		<path class="st3" d="M49.4,74.2c0.8-0.4,1.7-0.6,2.5-0.7c1-0.1,1.9,0.1,2.8,0.5c0.2,0.1,0.2,0.2,0,0.4c-0.9,0.8-2,1.2-3.2,1.3
			c-1,0.1-2,0-2.9-0.4c-0.1-0.1-0.2,0-0.3,0.1c-0.3,0.4-0.6,0.8-0.9,1.2c-0.1,0.1-0.2,0.2-0.3,0.1s-0.1-0.2,0-0.3
			c0.3-0.4,0.6-0.8,0.9-1.2c0.1-0.1,0.1-0.2,0-0.3c-1.3-1.9-1.6-3.9-0.7-6c0.1-0.3,0.3-0.3,0.5-0.1c1.1,1.4,1.5,3.1,1.2,4.9
			c0,0.1,0,0.1,0,0.2c0,0,0,0,0.1,0c0.1-0.1,0.2-0.3,0.3-0.4c0.3-0.4,0.6-0.9,1-1.3c0.1-0.1,0.1-0.2,0-0.4c-1.1-1.5-1.2-3.2-0.5-4.9
			c0.1-0.3,0.3-0.3,0.5-0.1c0.9,1.1,1.2,2.4,1,3.9c0,0.1,0,0.1,0,0.2c0.4-0.6,0.9-1.1,1.3-1.7c-0.3-0.4-0.5-0.8-0.7-1.3
			c-0.2-0.9-0.2-1.8,0.2-2.7c0.1-0.2,0.2-0.2,0.4,0c0.7,0.9,1,1.9,0.8,3c0,0,0,0,0,0.1c0.2-0.4,0.5-0.6,0.6-1c0.3-1.4,1.1-2.4,2.5-3
			c0.2-0.1,0.3,0,0.3,0.3c-0.2,1.4-0.9,2.4-2.1,3.1c-0.4,0.2-0.7,0.5-0.9,0.9c0.3-0.1,0.5-0.2,0.8-0.2c0.8-0.2,1.6-0.1,2.4,0.2
			c0.3,0.1,0.3,0.3,0.1,0.4c-1.1,0.9-2.4,1.1-3.8,0.6h-0.1h-0.1c-0.4,0.6-0.9,1.1-1.3,1.7c0.5-0.2,1.1-0.4,1.7-0.5
			c0.9-0.1,1.7,0,2.6,0.4c0.3,0.1,0.3,0.3,0.1,0.5c-1.5,1.1-3.1,1.4-4.9,0.8c-0.2-0.1-0.3,0-0.4,0.1C50.3,73.1,49.8,73.6,49.4,74.2z
			"/>
		<path class="st4" d="M42.4,61.3c0,0,11.2-1.7,16.8-0.7"/>
		<path class="st4" d="M43.8,79.3c0,0,0.5,0.4,1.2,0.5c0.8,0,7.7,1,12.6-0.3c0,0,1.8-0.6,2.2-0.6"/>
		<circle class="st2" cx="44.6" cy="67.9" r="0.7"/>
		<circle class="st2" cx="45.5" cy="66.4" r="0.5"/>
		<circle class="st2" cx="57.4" cy="67.9" r="0.5"/>
		<circle class="st2" cx="57.9" cy="65.9" r="0.4"/>
		<path class="st5" d="M57.8,80.9c0.9,0.4,1.7,0.4,2,0.3c0-0.3,0.1-0.9,0-1.8h-0.1l-7.1-0.5c0,0-2.2-1.7-5.7-3.5
			c-2.1-1.1-3.2-3-3.8-4.5c0.4,4.4,0.8,9.3,0.8,9.4v0.1c-0.1,0.3-0.2,0.5-0.1,0.6c0.2,0.2,1,0,1.5-0.2h0.1c0,0,0,0,0.1,0
			c3.6,1.3,12.1,0.1,12.2,0C57.7,80.9,57.8,80.9,57.8,80.9z"/>
	</g>
	<g>
		<g>
			
				<linearGradient id="SVGID_1_" gradientUnits="userSpaceOnUse" x1="18.955" y1="71.1684" x2="53.9347" y2="91.0065" gradientTransform="matrix(1 0 0 1 0 2)">
				<stop  offset="0" style="stop-color:#EFD97F"/>
				<stop  offset="0.1978" style="stop-color:#EFD87C"/>
				<stop  offset="0.3726" style="stop-color:#EED571"/>
				<stop  offset="0.5387" style="stop-color:#EDCF5F"/>
				<stop  offset="0.6984" style="stop-color:#EBC845"/>
				<stop  offset="0.7526" style="stop-color:#EAC53B"/>
				<stop  offset="1" style="stop-color:#E5AD14"/>
			</linearGradient>
			<path class="st6" d="M47.2,81.9c-0.1,0-0.2-0.1-0.2-0.2s0.1-0.2,0.2-0.2c0.1,0,0.2,0.1,0.3,0.1l0,0c0,0,3.4,0.5,5.2,2.7
				c0.6-1.1,0.8-2.2,0.5-3.2c-0.4-1.3-1.7-2.4-3.8-3.2c-4.8-1.7-11.1,0-11.2,0s-0.1,0-0.2-0.1c-3.2-3.2-9.6-3.4-9.6-3.4h-0.1
				l0.1-0.4c0,0-1.2-1.3-3.2-1.7c0,0-1.4,1.8-2.4,4.1c-0.1,0.2-0.2,0.3-0.2,0.5l0,0l0,0c-0.3,0.7-0.5,1.5-0.6,2.3
				c-0.6,2.9-0.3,6.4,1.4,8.8c0.1,0.1,3.2,3.7,10.9,2.9c0.1,0,0.2,0,0.2,0l0,0c3.3-0.4,3.3-0.4,3.4-0.3c0.9,1.7,3.4,2.6,5.2,3.1
				c1.6,0.5,3.5,0.9,5.1,0.5c1-0.3,1.8-1,2.3-2c0.5-1.1,0.5-2.3,0-3.3c-1.1-2.2-3.9-2.2-3.9-2.2c-0.1,0-0.2-0.1-0.2-0.2
				s0.1-0.2,0.2-0.2s0.7,0,1.5,0.2l0,0c0,0,0.6,0.1,1.3,0.5l0,0c0,0,1.7,0.7,2.1,2.7c0.2,0,0.3-0.1,0.5-0.2c0.8-0.5,1.1-1.3,1.2-1.8
				c0.2-1.1-0.1-2.3-0.8-3.1C51.3,83.4,49.5,82.4,47.2,81.9z"/>
		</g>
		<g class="st7">
			<path class="st8" d="M50.4,92.4c0.4-0.9,0.5-1.8,0.2-2.7c-0.4,1.6-1.5,4.3-4.9,4.2c-3.8-0.1-5.7-1-6.3-1.4
				c1.1,0.7,2.4,1.2,3.5,1.5c1.6,0.5,3.5,0.9,5.1,0.5C49.1,94.1,49.9,93.4,50.4,92.4z"/>
			<path class="st8" d="M52.8,84.3c0.6-1.1,0.8-2.2,0.5-3.2c-0.2-0.8-0.8-1.4-1.6-2c0.3,0.6,0.6,1.8-0.2,2.7
				c-0.4,0.4-0.9,0.5-1.5,0.5C50.9,82.7,52,83.3,52.8,84.3z"/>
			<path class="st8" d="M51.9,89.6c0.8-0.5,1.1-1.3,1.2-1.8c0.1-0.8,0-1.7-0.3-2.4c-0.1,1.1-0.5,2.8-1.9,3.1l0,0
				c0.2,0.4,0.5,0.8,0.6,1.3C51.6,89.8,51.8,89.7,51.9,89.6z"/>
			<path class="st8" d="M48.3,81.7L48.3,81.7L48,81.5C48,81.5,48.1,81.6,48.3,81.7z"/>
		</g>
		<path class="st8" d="M21.6,81.3c-0.1,2.4,0.4,4.9,1.7,6.8c0.1,0.1,3.2,3.7,10.9,2.9c0.1,0,0.2,0,0.2,0l0,0c0.3,0,0.6-0.1,0.9-0.1
			C23.4,90.9,21.7,81.6,21.6,81.3z"/>
		<path class="st9" d="M53.2,84.9c0.7-0.9,2.9-5.5-2.9-7.4c-4.9-1.6-9.6-0.7-11.5-0.2l0,0c-2.7-2.2-7.5-2.9-9.3-3.1
			c-0.2,0-0.4,0-0.6,0c0.1,0,0.1,0,0.2,0c-0.4,0-0.7,0-0.7,0c-0.1,0-0.2,0.1-0.2,0.2s0.1,0.2,0.2,0.2s6.5,0.2,9.6,3.4
			c0.1,0.1,0.1,0.1,0.2,0.1c0.1,0,6.3-1.8,11.2,0c2.1,0.8,3.4,1.8,3.8,3.2c0.3,1,0.1,2.1-0.5,3.2c-1.8-2.2-5.2-2.7-5.2-2.7l0,0
			c-0.1,0-0.2-0.1-0.3-0.1s-0.2,0-0.2,0.2c0,0.1,0,0.2,0.2,0.2c2.4,0.6,4.1,1.5,5.2,2.8c0.7,0.8,1,2,0.8,3.1
			c-0.1,0.6-0.4,1.3-1.2,1.8c-0.2,0.1-0.3,0.2-0.5,0.2c-0.4-1.9-2.1-2.7-2.1-2.7l0,0c-0.7-0.4-1.3-0.5-1.3-0.5l0,0
			c-0.8-0.2-1.4-0.2-1.5-0.2s-0.2,0.1-0.2,0.2s0.1,0.2,0.2,0.2c0,0,2.9,0,3.9,2.2c0.5,1,0.5,2.2,0,3.3c-0.5,1-1.3,1.7-2.3,2
			c-1.6,0.4-3.5,0-5.1-0.5c-1.8-0.5-4.2-1.4-5.2-3.1c-0.1-0.2-0.1-0.2-3.4,0.3l0,0c-0.1,0-0.2,0-0.2,0c-7.6,0.8-10.8-2.9-10.9-2.9
			c-1.7-2.4-2.1-5.9-1.4-8.8c0.1-0.7,0.3-1.4,0.6-2c0.3-0.8,1.3-3.2,3-5.2v-0.6h-1c0,0-3.9,4.7-4,10.9l0,0c-0.1,6,4.4,8.2,6.8,8.7
			c0,0,0,0-0.1,0c0.3,0.1,0.6,0.2,0.9,0.2l0,0l0,0c1.2,0.2,2.5,0.3,4.1,0.3c0.2,0,0.9-0.1,2.1-0.3c1.2-0.2,2.9-0.4,3.3-0.4
			c0.5,1,1.5,1.7,2.6,2.2l0,0c4.4,2.3,10.1,2.6,11.1-0.8l0,0c0.2-0.7,0.3-1.4,0.3-2c2.7-1,2.3-3.5,2.3-3.5
			C53.8,86.1,53.5,85.5,53.2,84.9z"/>
	</g>
</g>
<g>
	<path class="st10" d="M25.7,132.7c0-0.1-0.2-2.4-1.5-2.8v-1.2c0-0.9-3-1.2-4.3-1.3c-0.5-0.2-0.9-0.3-1.4-0.4
		c-1.4-0.2-2.8,0.2-3,0.3c-2.5,0.1-5.5,0.5-5.5,1.4v4.6l-3.4-2.7c0-0.1,0-0.1,0-0.1c0.2-0.9,0.1-1.7-0.4-2.1
		c-0.3-0.4-0.8-0.5-1.4-0.5c-1.1,0-2.3,0.6-3,1.4c-0.9,1.1-1.2,2.8-0.4,3.8c0.4,0.4,0.8,0.6,1.4,0.6c0.3,0,0.7-0.1,0.9-0.2
		c0.5,0.4,3.6,3.3,6.1,5.4v3c0,1.1,3.7,1.7,7.1,1.7s7.1-0.6,7.1-1.7v-1.7c0.2-0.2,1.4-1.1,1.5-2.1C25.8,137.1,25.7,132.9,25.7,132.7
		z M24,128.7c0,0.1-0.2,0.3-0.6,0.4c-0.5-0.4-1.5-0.9-2.5-1.4C23.1,128.1,24,128.5,24,128.7z M18.5,127.3c1.4,0.2,3.6,1.2,4.6,1.9
		c-0.5,0.2-1.2,0.3-2.1,0.4c-1.7-1.7-3.4-2.1-4.5-2.3C17,127.3,17.8,127.2,18.5,127.3z M15.5,127.6L15.5,127.6L15.5,127.6
		c0.1,0,2.7-0.2,5.1,2.1c-1,0.1-2.1,0.2-3.5,0.2c-4.3,0-6.9-0.7-6.9-1.1C10.3,128.4,12,127.8,15.5,127.6z M1.8,133
		c-0.8-0.9-0.5-2.5,0.4-3.5c0.7-0.8,1.8-1.3,2.8-1.4c0,0,0,0,0.1,0c0.4,0,0.8,0.1,1.1,0.4c0.4,0.4,0.5,1.1,0.4,1.9
		c-0.2,0.8-0.6,1.5-1.1,2C4.3,133.4,2.6,133.9,1.8,133z M5.5,132.6c0.5-0.4,0.9-1.1,1.1-1.7l5.3,4.3l0,0c0,0,2.1,1.3,2.1,4
		c0,1.5-0.3,1.9-0.5,2s-0.4,0-0.4,0c-0.2-0.1-0.8-0.6-2.9-2.4c-2.3-2-5.3-4.7-6-5.3C4.7,133.3,5.1,133,5.5,132.6z M17.1,143.3
		c-4,0-6.9-0.7-6.9-1.4v-2.8c1.6,1.4,2.5,2.1,2.7,2.2c0,0,0.2,0.1,0.4,0.1c0.1,0,0.2,0,0.3-0.1c0.4-0.2,0.7-1,0.7-2.3
		c0-2.7-2.1-4.1-2.3-4.2l-1.7-1.4V129c0.9,0.7,3.9,1,6.9,1s6-0.4,6.9-1v12.8C24,142.6,21.1,143.3,17.1,143.3z M25.4,138.1
		c-0.1,0.7-0.8,1.4-1.2,1.8v-9.7c1,0.4,1.2,2.5,1.2,2.6C25.4,132.8,25.5,137.1,25.4,138.1z"/>
	
		<linearGradient id="SVGID_2_" gradientUnits="userSpaceOnUse" x1="20.8022" y1="126.4" x2="23.9768" y2="126.4" gradientTransform="matrix(1 0 0 1 0 2)">
		<stop  offset="0" style="stop-color:#D65B49"/>
		<stop  offset="1" style="stop-color:#CF361C"/>
	</linearGradient>
	<path class="st11" d="M24,128.7c0,0.1-0.2,0.3-0.6,0.4c-0.5-0.4-1.5-0.9-2.5-1.4C23.1,128.1,24,128.5,24,128.7z"/>
	
		<linearGradient id="SVGID_3_" gradientUnits="userSpaceOnUse" x1="16.4514" y1="126.4278" x2="23.0601" y2="126.4278" gradientTransform="matrix(1 0 0 1 0 2)">
		<stop  offset="0" style="stop-color:#D65B49"/>
		<stop  offset="1" style="stop-color:#CF361C"/>
	</linearGradient>
	<path class="st12" d="M18.5,127.3c1.4,0.2,3.6,1.2,4.6,1.9c-0.5,0.2-1.2,0.3-2.1,0.4c-1.7-1.7-3.4-2.1-4.5-2.3
		C17,127.3,17.8,127.2,18.5,127.3z"/>
	
		<linearGradient id="SVGID_4_" gradientUnits="userSpaceOnUse" x1="10.2892" y1="126.7478" x2="20.6215" y2="126.7478" gradientTransform="matrix(1 0 0 1 0 2)">
		<stop  offset="0" style="stop-color:#D65B49"/>
		<stop  offset="1" style="stop-color:#CF361C"/>
	</linearGradient>
	<path class="st13" d="M15.5,127.6L15.5,127.6L15.5,127.6c0.1,0,2.7-0.2,5.1,2.1c-1,0.1-2.1,0.2-3.5,0.2c-4.3,0-6.9-0.7-6.9-1.1
		C10.3,128.4,12,127.8,15.5,127.6z"/>
	<path class="st1" d="M1.8,133c-0.8-0.9-0.5-2.5,0.4-3.5c0.7-0.8,1.8-1.3,2.8-1.4c0,0,0,0,0.1,0c0.4,0,0.8,0.1,1.1,0.4
		c0.4,0.4,0.5,1.1,0.4,1.9c-0.2,0.8-0.6,1.5-1.1,2C4.3,133.4,2.6,133.9,1.8,133z"/>
	
		<linearGradient id="SVGID_5_" gradientUnits="userSpaceOnUse" x1="5.871" y1="129.7042" x2="13.3039" y2="138.3249" gradientTransform="matrix(1 0 0 1 0 2)">
		<stop  offset="0" style="stop-color:#D65B49"/>
		<stop  offset="1" style="stop-color:#CF361C"/>
	</linearGradient>
	<path class="st14" d="M5.5,132.6c0.5-0.4,0.9-1.1,1.1-1.7l5.3,4.3l0,0c0,0,2.1,1.3,2.1,4c0,1.5-0.3,1.9-0.5,2s-0.4,0-0.4,0
		c-0.2-0.1-0.8-0.6-2.9-2.4c-2.3-2-5.3-4.7-6-5.3C4.7,133.3,5.1,133,5.5,132.6z"/>
	
		<linearGradient id="SVGID_6_" gradientUnits="userSpaceOnUse" x1="9.9661" y1="127.5597" x2="24.6787" y2="139.7819" gradientTransform="matrix(1 0 0 1 0 2)">
		<stop  offset="0" style="stop-color:#D65B49"/>
		<stop  offset="1" style="stop-color:#CF361C"/>
	</linearGradient>
	<path class="st15" d="M17.1,143.3c-4,0-6.9-0.7-6.9-1.4v-2.8c1.6,1.4,2.5,2.1,2.7,2.2c0,0,0.2,0.1,0.4,0.1c0.1,0,0.2,0,0.3-0.1
		c0.4-0.2,0.7-1,0.7-2.3c0-2.7-2.1-4.1-2.3-4.2l-1.7-1.4V129c0.9,0.7,3.9,1,6.9,1s6-0.4,6.9-1v12.8C24,142.6,21.1,143.3,17.1,143.3z
		"/>
	
		<linearGradient id="SVGID_7_" gradientUnits="userSpaceOnUse" x1="24.8483" y1="128.3828" x2="24.7716" y2="137.2334" gradientTransform="matrix(1 0 0 1 0 2)">
		<stop  offset="0" style="stop-color:#D65B49"/>
		<stop  offset="1" style="stop-color:#CF361C"/>
	</linearGradient>
	<path class="st16" d="M25.4,138.1c-0.1,0.7-0.8,1.4-1.2,1.8v-9.7c1,0.4,1.2,2.5,1.2,2.6C25.4,132.8,25.5,137.1,25.4,138.1z"/>
	
		<linearGradient id="SVGID_8_" gradientUnits="userSpaceOnUse" x1="16.5292" y1="134.7443" x2="23.6735" y2="140.6792" gradientTransform="matrix(1 0 0 1 0 2)">
		<stop  offset="0" style="stop-color:#D65B49"/>
		<stop  offset="1" style="stop-color:#CF361C"/>
	</linearGradient>
	<path class="st17" d="M24,141.9v-9c-0.1,0,0,0.7,0,0.8c0,0.7-0.1,1.2-0.2,1.9c-0.2,1.6-0.5,3.3-1.4,4.6c-0.9,1.5-2.8,2-4.5,2.3
		c-2.1,0.4-4.2,0.5-6.3,0.2c1.2,0.4,3.1,0.6,5.6,0.6C21.1,143.3,24,142.6,24,141.9z"/>
	
		<linearGradient id="SVGID_9_" gradientUnits="userSpaceOnUse" x1="24.8794" y1="129.4037" x2="24.811" y2="137.3036" gradientTransform="matrix(1 0 0 1 0 2)">
		<stop  offset="0" style="stop-color:#D65B49"/>
		<stop  offset="1" style="stop-color:#CF361C"/>
	</linearGradient>
	<path class="st18" d="M25.4,138.4c-0.4-0.4-0.4-1.5-0.4-1.5s0.1-1.7,0-3.6c-0.1-1.2-0.5-1.8-0.7-2.1v8.7
		C24.6,139.6,25.2,139,25.4,138.4z"/>
	
		<linearGradient id="SVGID_10_" gradientUnits="userSpaceOnUse" x1="16.4139" y1="125.9976" x2="16.3988" y2="127.7372" gradientTransform="matrix(1 0 0 1 0 2)">
		<stop  offset="0" style="stop-color:#D65B49"/>
		<stop  offset="1" style="stop-color:#CF361C"/>
	</linearGradient>
	<path class="st19" d="M12.2,129.5c1.2,0.2,2.8,0.4,4.9,0.4c1.4,0,2.5-0.1,3.5-0.2c-1-0.9-2-1.4-2.8-1.7c0.8,0.4,1.6,0.9,2,1.5
		C19.7,129.4,14.7,129.7,12.2,129.5z"/>
	
		<linearGradient id="SVGID_11_" gradientUnits="userSpaceOnUse" x1="19.7066" y1="125.4878" x2="19.6892" y2="127.5027" gradientTransform="matrix(1 0 0 1 0 2)">
		<stop  offset="0" style="stop-color:#D65B49"/>
		<stop  offset="1" style="stop-color:#CF361C"/>
	</linearGradient>
	<path class="st20" d="M23,129.2c-0.2-0.1-0.4-0.2-0.6-0.4c-0.2,0.2-0.6,0.4-1.1,0.5c0,0-2.5-1.8-4.9-2c1.1,0.1,2.8,0.6,4.5,2.3
		C21.9,129.5,22.6,129.4,23,129.2z"/>
	
		<linearGradient id="SVGID_12_" gradientUnits="userSpaceOnUse" x1="22.6635" y1="126.7" x2="23.9768" y2="126.7" gradientTransform="matrix(1 0 0 1 0 2)">
		<stop  offset="0" style="stop-color:#D65B49"/>
		<stop  offset="1" style="stop-color:#CF361C"/>
	</linearGradient>
	<path class="st21" d="M23.3,129.2c0.4-0.1,0.6-0.3,0.6-0.4c0-0.2-0.3-0.4-1.1-0.6c0,0.2-0.1,0.4-0.2,0.5
		C22.9,128.9,23.2,129,23.3,129.2z"/>
	
		<linearGradient id="SVGID_13_" gradientUnits="userSpaceOnUse" x1="5.2033" y1="130.6039" x2="5.9894" y2="131.5158" gradientTransform="matrix(1 0 0 1 0 2)">
		<stop  offset="0" style="stop-color:#D65B49"/>
		<stop  offset="1" style="stop-color:#CF361C"/>
	</linearGradient>
	<path class="st22" d="M6.2,131.8c-0.2,0.3-0.4,0.6-0.7,0.8c-0.4,0.4-0.8,0.7-1.3,0.8c0.2,0.2,0.5,0.5,1,0.9
		c0.1-0.2,0.2-0.5,0.4-0.9C5.9,132.9,6,132.3,6.2,131.8z"/>
	<path class="st23" d="M5.3,132.4c0.5-0.5,0.9-1.2,1.1-2s0.1-1.5-0.4-1.9c0,0,1,2-1,3.8c-1.9,1.7-3.3,0.6-3.3,0.6
		C2.6,133.9,4.3,133.4,5.3,132.4z"/>
	<path class="st24" d="M15.5,127.6L15.5,127.6L15.5,127.6c-3.6,0.2-5.2,0.8-5.2,1.1v0.1l0.2,0.2c0.2-1,4.6-1.3,5.5-1.4
		C15.7,127.6,15.5,127.6,15.5,127.6z"/>
	<path class="st24" d="M23,129.2c-0.9-0.7-3.3-1.7-4.6-1.9c-0.5-0.1-1-0.1-1.5,0c0.2,0,1.8-0.1,3.3,0.8c1.2,0.7,1.7,1.1,2.1,1.3
		C22.6,129.4,22.9,129.3,23,129.2z"/>
	<path class="st25" d="M24,129.9v-0.8c-0.9,0.7-3.9,1-6.9,1c-2.4,0-4.7-0.2-6.1-0.7l0,0C11.1,129.5,17.2,131.7,24,129.9z"/>
	<circle class="st25" cx="3.9" cy="128.8" r="0.1"/>
	<circle class="st25" cx="4.4" cy="128.9" r="0.1"/>
	<circle class="st25" cx="5" cy="129.3" r="0.1"/>
	<circle class="st25" cx="5.7" cy="129.6" r="0.1"/>
	<circle class="st25" cx="5.1" cy="129.8" r="0.1"/>
	
		<ellipse transform="matrix(0.4247 -0.9053 0.9053 0.4247 -114.7899 78.6017)" class="st25" cx="4.5" cy="129.6" rx="0.1" ry="0.1"/>
	
		<ellipse transform="matrix(0.4246 -0.9054 0.9054 0.4246 -114.7758 77.7667)" class="st25" cx="3.8" cy="129.2" rx="0.1" ry="0.1"/>
	
		<ellipse transform="matrix(0.4246 -0.9054 0.9054 0.4246 -113.7225 77.9861)" class="st25" cx="4.5" cy="128.5" rx="0.1" ry="0.1"/>
	<ellipse transform="matrix(0.4246 -0.9054 0.9054 0.4246 -113.5948 78.5425)" class="st25" cx="5" cy="128.6" rx="0.1" ry="0.1"/>
	<ellipse transform="matrix(0.4246 -0.9054 0.9054 0.4246 -113.5827 79.243)" class="st25" cx="5.6" cy="129" rx="0.1" ry="0.1"/>
	<ellipse transform="matrix(0.5462 -0.8377 0.8377 0.5462 -106.9621 61.2283)" class="st25" cx="3" cy="129.3" rx="0.1" ry="0.1"/>
	<ellipse transform="matrix(0.6503 -0.7597 0.7597 0.6503 -97.2638 48.0671)" class="st25" cx="3.6" cy="129.7" rx="0.1" ry="0.1"/>
	<ellipse transform="matrix(0.6503 -0.7597 0.7597 0.6503 -97.3559 48.716)" class="st25" cx="4.2" cy="130.1" rx="0.1" ry="0.1"/>
	<ellipse transform="matrix(0.6503 -0.7596 0.7596 0.6503 -97.8679 49.7359)" class="st25" cx="5.1" cy="131.2" rx="0.1" ry="0.1"/>
	<ellipse transform="matrix(0.6503 -0.7596 0.7596 0.6503 -97.4173 49.4308)" class="st25" cx="5" cy="130.5" rx="0.1" ry="0.1"/>
	<ellipse transform="matrix(0.6503 -0.7597 0.7597 0.6503 -97.693 48.9126)" class="st25" cx="4.3" cy="130.6" rx="0.1" ry="0.1"/>
	<ellipse transform="matrix(0.6503 -0.7597 0.7597 0.6503 -97.702 48.1582)" class="st25" cx="3.5" cy="130.2" rx="0.1" ry="0.1"/>
	<ellipse transform="matrix(0.6503 -0.7597 0.7597 0.6503 -97.7241 47.5383)" class="st25" cx="2.8" cy="129.9" rx="0.1" ry="0.1"/>
	<ellipse transform="matrix(0.6503 -0.7597 0.7597 0.6503 -98.1263 47.1051)" class="st25" cx="2.1" cy="130.1" rx="0.1" ry="0.1"/>
	<ellipse transform="matrix(0.6503 -0.7597 0.7597 0.6503 -98.1749 47.748)" class="st25" cx="2.8" cy="130.5" rx="0.1" ry="0.1"/>
	<ellipse transform="matrix(0.6503 -0.7597 0.7597 0.6503 -98.2904 48.51)" class="st25" cx="3.5" cy="131" rx="0.1" ry="0.1"/>
	<ellipse transform="matrix(0.6503 -0.7597 0.7597 0.6503 -98.4183 49.2772)" class="st25" cx="4.3" cy="131.5" rx="0.1" ry="0.1"/>
	<ellipse transform="matrix(0.6503 -0.7597 0.7597 0.6503 -98.7005 48.7444)" class="st25" cx="3.6" cy="131.6" rx="0.1" ry="0.1"/>
	<ellipse transform="matrix(0.6503 -0.7597 0.7597 0.6503 -98.6758 47.9961)" class="st25" cx="2.8" cy="131.2" rx="0.1" ry="0.1"/>
	<ellipse transform="matrix(0.6503 -0.7597 0.7597 0.6503 -98.8757 49.3832)" class="st25" cx="4.2" cy="132.1" rx="0.1" ry="0.1"/>
	<ellipse transform="matrix(0.6503 -0.7597 0.7597 0.6503 -98.6239 47.3192)" class="st25" cx="2.1" cy="130.8" rx="0.1" ry="0.1"/>
	<ellipse transform="matrix(0.6503 -0.7597 0.7597 0.6503 -99.0641 47.1611)" class="st25" cx="1.7" cy="131.2" rx="0.1" ry="0.1"/>
	<ellipse transform="matrix(0.6503 -0.7597 0.7597 0.6503 -99.2018 47.5856)" class="st25" cx="2.1" cy="131.5" rx="0.1" ry="0.1"/>
	<ellipse transform="matrix(0.6503 -0.7597 0.7597 0.6503 -99.3146 48.2762)" class="st25" cx="2.8" cy="132" rx="0.1" ry="0.1"/>
	<ellipse transform="matrix(0.6503 -0.7596 0.7596 0.6503 -99.3524 49.0511)" class="st25" cx="3.6" cy="132.4" rx="0.1" ry="0.1"/>
	<ellipse transform="matrix(0.6503 -0.7597 0.7597 0.6503 -99.723 48.515)" class="st25" cx="2.8" cy="132.6" rx="0.1" ry="0.1"/>
	<ellipse transform="matrix(0.6503 -0.7597 0.7597 0.6503 -99.7455 47.7567)" class="st25" cx="2" cy="132.2" rx="0.1" ry="0.1"/>
</g>
<g>
	<g>
		<path class="st26" d="M99.7,28.5c-0.1-0.1-0.2-0.2-0.4-0.1c-5.6,2.1-9.6,9.2-9.8,9.5l0,0l-4.4,13.2c0,0.1,0,0.2,0,0.2
			c0,0.1,0.1,0.1,0.2,0.1l3.6,0.5l0,0l-0.3,1c0,0.1,0,0.2,0.1,0.3c0.1,0,0.2,0,0.3-0.1l0.5-1.8c0.3-0.3,2.7-3.3,3.7-4.5
			c0.1,2.2,0.3,5.3,0.2,5.6l-0.5,2c0,0.1,0,0.2,0.2,0.3c0,0,0,0,0.1,0s0.2-0.1,0.2-0.2l0.2-0.8l4,2.1h0.1h0.1c0.1,0,0.1-0.1,0.2-0.2
			c0.2-0.5,4.1-12,4.3-16.3C102.7,35,99.8,28.8,99.7,28.5z M101.9,39.3c-0.2,3.8-3.5,13.9-4.2,15.8l-3.8-2c0,0,0,0-0.1,0l0.2-0.6
			c0.1-0.5-0.2-5.7-0.2-6.3c0-0.1-0.1-0.2-0.1-0.2c-0.1,0-0.2,0-0.2,0.1c-0.6,0.7-4,4.8-4.1,4.9c0,0,0,0,0,0.1l-0.1,0.3h-0.1
			L86,50.9L90.3,38c0.2-0.4,4-7.1,9.2-9.1C99.8,30.2,102.1,35.6,101.9,39.3z"/>
		<path class="st27" d="M88.9,68.5c-0.1,0-3.6,0-4.9-1.8c-0.1-0.1-0.1-0.2,0-0.3l4.4-13.5c0-0.1,0.1-0.2,0.2-0.2s0.2,0,0.3,0.1
			c1.3,1,2.9,1.6,4.8,1.6c0.1,0,0.2,0,0.2,0.1c0.1,0.1,0.1,0.2,0,0.3l-4.7,13.5C89.1,68.4,89,68.5,88.9,68.5z M84.5,66.5
			c1,1.2,3.5,1.4,4.2,1.4l4.5-13c-1.7-0.1-3.2-0.5-4.5-1.4L84.5,66.5z"/>
		<path class="st28" d="M88.7,67.9c-0.7,0-3.1-0.2-4.2-1.4l4.2-12.9c1.2,0.9,2.7,1.4,4.5,1.4L88.7,67.9z"/>
		
			<linearGradient id="SVGID_14_" gradientUnits="userSpaceOnUse" x1="90.8383" y1="48.1666" x2="96.5757" y2="49.5801" gradientTransform="matrix(1 0 0 1 0 2)">
			<stop  offset="0" style="stop-color:#EEEEEF"/>
			<stop  offset="0.3757" style="stop-color:#C8C9CA"/>
			<stop  offset="0.6481" style="stop-color:#F7F7F7"/>
			<stop  offset="0.8968" style="stop-color:#B4B4B5"/>
		</linearGradient>
		<path class="st29" d="M93.6,52.5l-0.5,1.9c-1.6-0.1-2.9-0.5-4-1.3l0.5-1.7c0.3-0.3,2.7-3.3,3.7-4.5C93.5,49.1,93.7,52.2,93.6,52.5
			z"/>
		
			<linearGradient id="SVGID_15_" gradientUnits="userSpaceOnUse" x1="87.5204" y1="36.6983" x2="104.4833" y2="41.7706" gradientTransform="matrix(1 0 0 1 0 2)">
			<stop  offset="0" style="stop-color:#EEEEEF"/>
			<stop  offset="0.3757" style="stop-color:#C8C9CA"/>
			<stop  offset="0.6481" style="stop-color:#F7F7F7"/>
			<stop  offset="0.8968" style="stop-color:#B4B4B5"/>
		</linearGradient>
		<path class="st30" d="M101.9,39.3c-0.2,3.8-3.5,13.9-4.2,15.8l-3.8-2c0,0,0,0-0.1,0l0.2-0.6c0.1-0.5-0.2-5.7-0.2-6.3
			c0-0.1-0.1-0.2-0.1-0.2c-0.1,0-0.2,0-0.2,0.1c-0.6,0.7-4,4.8-4.1,4.9c0,0,0,0,0,0.1l-0.1,0.3h-0.1L86,50.9L90.3,38
			c0.2-0.4,4-7.1,9.2-9.1C99.8,30.2,102.1,35.6,101.9,39.3z"/>
		<g class="st31">
			<path class="st23" d="M92,47.9c0.6-0.8,1.2-1.4,1.4-1.7c0.1-0.1,0.1-0.1,0.2-0.1s0.1,0.1,0.1,0.2c0,0.2,0.1,1.2,0.1,2.4
				c0-0.4,3.5-13.1,3.5-13.1L92,47.9z"/>
			<path class="st23" d="M98,53.1c-0.9,0.8-2.9,0.2-3.2-0.3c-0.4-0.5-0.8-3.7-0.8-4.1c0.1,1.7,0.2,3.6,0.1,3.9l-0.2,0.6H94l3.8,2
				c0.6-1.8,3.8-11.3,4.2-15.4C100.7,44,98.3,52.9,98,53.1z"/>
			<path class="st23" d="M89.3,51.1c0.1-0.1,1.5-1.9,2.7-3.3c0,0-2.6,2.6-5.2,3.2l2.3,0.3h0.1L89.3,51.1
				C89.3,51.2,89.3,51.1,89.3,51.1z"/>
		</g>
		
			<linearGradient id="SVGID_16_" gradientUnits="userSpaceOnUse" x1="91.2538" y1="48.2227" x2="96.2693" y2="49.4584" gradientTransform="matrix(1 0 0 1 0 2)">
			<stop  offset="0" style="stop-color:#EEEEEF"/>
			<stop  offset="0.3757" style="stop-color:#C8C9CA"/>
			<stop  offset="0.6481" style="stop-color:#F7F7F7"/>
			<stop  offset="0.8968" style="stop-color:#B4B4B5"/>
		</linearGradient>
		<path class="st32" d="M90,51.9c0,0,1.4,0.7,2.3,1.1c0.2,0.1,0.3,0.1,0.4,0.1c0.7,0-0.2,0.9-0.5,1.2c0.3,0.1,0.7,0.1,1,0.1l0.5-1.9
			c0.1-0.3-0.1-3.4-0.2-5.6c0,0-0.6,4.7-0.8,5.1C92.4,52.4,90,51.9,90,51.9z"/>
		<path class="st33" d="M86.4,67.5c1,0.3,1.9,0.4,2.4,0.4l4.5-13c-0.5,0-1-0.1-1.5-0.2C90.7,57.8,88.1,65.2,86.4,67.5z"/>
		<path class="st1" d="M90.1,38.1L85.8,51l0.9,0.1c0.9-3.6,2.3-9,4-12.6c2.1-4.4,6.1-7.8,7.9-9.3C93.8,31.5,90.3,37.7,90.1,38.1z"/>
	</g>
	<g>
		
			<linearGradient id="SVGID_17_" gradientUnits="userSpaceOnUse" x1="82.433" y1="59.125" x2="84.7563" y2="59.125" gradientTransform="matrix(1 0 0 1 0 2)">
			<stop  offset="0" style="stop-color:#EFD97F"/>
			<stop  offset="0.1978" style="stop-color:#EFD87C"/>
			<stop  offset="0.3726" style="stop-color:#EED571"/>
			<stop  offset="0.5387" style="stop-color:#EDCF5F"/>
			<stop  offset="0.6984" style="stop-color:#EBC845"/>
			<stop  offset="0.7526" style="stop-color:#EAC53B"/>
			<stop  offset="1" style="stop-color:#E5AD14"/>
		</linearGradient>
		<path class="st34" d="M83,63.8c-0.3-0.3-0.8-1.1-0.6-2.8c0.2-1.8,1.6-2.4,2.3-2.6c-0.3,0.8-0.4,1.8-0.1,2.8v0.1
			C83.7,62,83.2,62.9,83,63.8z"/>
		<g>
			
				<linearGradient id="SVGID_18_" gradientUnits="userSpaceOnUse" x1="97.6724" y1="68.6378" x2="67.8815" y2="68.6378" gradientTransform="matrix(1 0 0 1 0 2)">
				<stop  offset="0" style="stop-color:#EFD97F"/>
				<stop  offset="0.1978" style="stop-color:#EFD87C"/>
				<stop  offset="0.3726" style="stop-color:#EED571"/>
				<stop  offset="0.5387" style="stop-color:#EDCF5F"/>
				<stop  offset="0.6984" style="stop-color:#EBC845"/>
				<stop  offset="0.7526" style="stop-color:#EAC53B"/>
				<stop  offset="1" style="stop-color:#E5AD14"/>
			</linearGradient>
			<path class="st35" d="M95.3,59c-0.4-0.8-1-1.3-1.4-1.5c-2.9-1.9-5.2-1.3-5.2-1.3l0.3-0.1c-1.5,0.4-4.3,1.5-3.9,4.9
				c2.3-1.2,6.6,1.3,6.8,1.4c0.1,0.1,0.1,0.2,0.1,0.3c-0.1,0.1-0.2,0.1-0.3,0.1c0,0-1.7-0.9-3.4-1.4l-0.6-0.1c-0.5-0.1-0.9,0-1.1,0
				c-0.1,0-0.1,0-0.2,0l0,0l0,0c-0.9,0.2-2.2,0.8-2.7,2.5c-0.5,1.9,0.4,2.8,1,3.2c0.1,0.1,0.3,0.2,0.4,0.2l0,0l0,0
				c0.6,0.3,1.3,0.6,1.7,0.8h0.1c1.1,0.5,2,0.5,2,0.5l0,0c0.1,0,0.2,0.1,0.2,0.2s-0.1,0.2-0.2,0.2l0,0c-0.1,0-1,0-2.1-0.5h-0.1
				c-1.2-0.5-2.4-1-3.1-1.7l0,0c0,0-3.5,4.1,2.9,6.6c0.3,0.1,0.4,0.1,0.4,0.1c0.1,0,0.2,0.1,0.2,0.3c0,0.1-0.1,0.2-0.2,0.2l0,0
				c-0.2-0.1-5.4-1.3-4.9-4.7c0.1-0.8,0.3-1.4,0.4-1.8c-0.8,0.3-1.5,0.7-2.1,1.2c0,0,0,0,0,0.1l0,0c-1.9,1.6-3.1,3.8-3.1,3.8
				c0,0.1-0.1,0.1-0.2,0.1h-0.1c-0.1,0-0.1-0.1-0.1-0.2l0,0c0,0-0.3,0.5-0.5,1.1c1,2.4,2,5.2,2.8,8.3c0.6,2,0.7,2.9,0.7,2.9
				c6.2,2.1,11.1-4.1,13-7.1c1-1.6,2.3-6.1,2.3-6.2c0.5-2.1,0.8-3.7,0.8-3.7C95.8,67.7,97.1,62.3,95.3,59z"/>
		</g>
		<g>
			<path class="st8" d="M82.6,71.4c-0.4-0.6-0.6-1.3-0.5-2.2c0.1-0.8,0.3-1.4,0.4-1.8c-0.8,0.3-1.5,0.7-2.1,1.2c0,0,0,0,0,0.1l0,0
				c-1,0.9-1.9,1.9-2.4,2.7C79.6,71,81.4,71.2,82.6,71.4z"/>
			<path class="st8" d="M87.2,60.7c-0.9-0.5-0.8-2.4-0.8-3.4c-0.9,0.8-1.5,1.9-1.3,3.6C85.7,60.7,86.5,60.7,87.2,60.7z"/>
			<path class="st8" d="M84.8,67.1c0.1,0.1,0.3,0.2,0.4,0.2l0,0l0,0c0.5,0.2,1,0.5,1.4,0.6l0,0c-1.4-0.7-2.4-2.8-2.8-3.9
				C83.4,65.8,84.3,66.7,84.8,67.1z"/>
			<path class="st8" d="M83.8,71.7c0,0-0.2-1.9,0.2-2.9c0.2-0.5,1.1-0.7,1.8-0.8c-0.8-0.4-1.5-0.8-2-1.2l0,0
				C83.7,66.8,81.6,69.4,83.8,71.7z"/>
		</g>
		<path class="st8" d="M82.4,61.9c0,1.1,0.4,1.6,0.7,1.9c0.2-0.9,0.7-1.8,1.6-2.5v-0.1c-0.2-0.8-0.2-1.5-0.1-2.1
			C83.4,59.9,82.7,61.2,82.4,61.9z"/>
		<path class="st9" d="M94,56.9c-2.4-1.6-5.7-1.8-7.8-0.4c-0.5,0.3-0.8,0.7-1.1,1.1l0,0c0,0-3.2,0.5-3.5,3.4
			c-0.2,2.5,0.7,3.2,1.2,3.6c0,0.3,0,0.5,0.1,0.8c0,0.1,0,0.3,0.1,0.4c0,0.2,0.1,0.3,0.2,0.5c0,0-1.6,0.3-3.3,1.6
			c-0.3,0.2-1,0.9-1,0.9c-0.8,0.9-1.6,2-2.2,3.6c-0.1,0.1,0,0.2,0.1,0.3h0.1c0.1,0,0.1,0,0.2-0.1c0,0,1.2-2.2,3.1-3.8l0,0
			c0,0,0,0,0-0.1c0.6-0.5,1.4-1,2.1-1.2c-0.2,0.4-0.3,1-0.4,1.8c-0.5,3.5,4.7,4.7,4.9,4.7l0,0c0.1,0,0.2-0.1,0.2-0.2s0-0.2-0.2-0.3
			c0,0-0.2,0-0.4-0.1c-6.4-2.5-2.9-6.6-2.9-6.6l0,0c0.7,0.6,2,1.2,3.1,1.7h0.1c1.2,0.5,2.1,0.5,2.1,0.5l0,0c0.1,0,0.2-0.1,0.2-0.2
			s-0.1-0.2-0.2-0.2l0,0c0,0-0.9,0-2-0.5h-0.1c-0.4-0.2-1.1-0.5-1.7-0.8l0,0l0,0c-0.1-0.1-0.3-0.1-0.4-0.2c-0.6-0.4-1.5-1.3-1-3.2
			c0.5-1.7,1.7-2.3,2.7-2.5l0,0l0,0c0.1,0,0.1,0,0.2,0c0.2,0,0.6-0.1,1.1,0l-0.1-0.2l0,0c0.2,0,0.3,0.1,0.5,0.1c-0.1,0-0.1,0-0.2,0
			l0.6,0.1c1.7,0.5,3.4,1.4,3.4,1.4c0.1,0.1,0.2,0,0.3-0.1c0.1-0.1,0-0.2-0.1-0.3c-0.2-0.1-4.6-2.5-6.8-1.4
			c-0.5-3.4,2.4-4.5,3.9-4.9l-0.4,0.1c0,0,2.3-0.6,5.2,1.3c0.4,0.2,1,0.8,1.4,1.5c1.8,3.3,0.5,8.7,0.5,8.8c0,0-0.3,1.6-0.8,3.7
			c0,0.1-1.3,4.6-2.3,6.2c-1.9,3-6.8,9.2-13,7.1l0.2,1c-0.2-0.1,0.5,0.1,0.3,0c-0.1,0-0.2,0-0.3,0.1c0,0.1,0,0.2,0.1,0.3
			c0.7,0.3,0.6,0.2,1.4,0.2c4.5,0,9.8-4.1,11.6-7.7c0-0.1,0.1-0.2,0.1-0.3l0,0c2-3.3,3.1-10.5,3.1-10.5C96.3,67.5,98.2,59.7,94,56.9
			z M84.6,61.3L84.6,61.3c-0.9,0.7-1.3,1.6-1.5,2.6c-0.3-0.3-0.8-1.1-0.6-2.8c0.2-1.8,1.6-2.4,2.3-2.6
			C84.4,59.3,84.4,60.2,84.6,61.3z M89.6,56L89.6,56C89.5,56,89.5,56,89.6,56L89.6,56z"/>
		<path class="st36" d="M76.5,72.9c-0.1,0.2-0.2,0.4-0.3,0.7c1,2.4,2,5.2,2.8,8.3c0.6,2,0.7,2.9,0.7,2.9c0.6,0.2,1.3,0.3,1.9,0.4
			C80.3,80.8,78.4,76.5,76.5,72.9z"/>
	</g>
</g>
</svg>
