<?xml version="1.0" encoding="utf-8"?>
<!-- Generator: Adobe Illustrator 21.0.0, SVG Export Plug-In . SVG Version: 6.00 Build 0)  -->
<svg version="1.1" id="圖層_1" xmlns="http://www.w3.org/2000/svg" xmlns:xlink="http://www.w3.org/1999/xlink" x="0px" y="0px"
	 viewBox="0 0 822.9 601.4" style="enable-background:new 0 0 822.9 601.4;" xml:space="preserve">
<style type="text/css">
	.st0{fill:url(#SVGID_1_);}
	.st1{fill:#E1BE3F;}
	.st2{fill:#AB6C21;}
	.st3{opacity:0.6;fill:#E1BE3F;enable-background:new    ;}
	.st4{fill:#888888;}
	.st5{fill:#456430;}
	.st6{fill:#709846;}
	.st7{fill:url(#SVGID_2_);}
	.st8{fill:url(#SVGID_3_);}
	.st9{opacity:0.8;}
	.st10{fill:#C8C9CA;}
	.st11{fill:url(#SVGID_4_);}
	.st12{opacity:0.6;fill:#709846;enable-background:new    ;}
	.st13{fill:#FFFFFF;}
	.st14{fill:#211714;}
	.st15{fill:url(#SVGID_5_);}
	.st16{fill:url(#SVGID_6_);}
	.st17{fill:url(#SVGID_7_);}
	.st18{fill:#BED26B;}
	.st19{fill:#F3E4A2;}
	.st20{fill:#8EA63A;}
	.st21{fill:none;stroke:#BED26B;stroke-width:0.9391;stroke-miterlimit:10;}
	.st22{opacity:0.6;fill:#DCCFB8;enable-background:new    ;}
	.st23{fill:url(#SVGID_8_);}
	.st24{fill:url(#SVGID_9_);}
	.st25{opacity:0.6;}
	.st26{fill:url(#SVGID_10_);}
	.st27{fill:url(#SVGID_11_);}
	.st28{fill:url(#SVGID_12_);}
	.st29{fill:#E2BF40;}
	.st30{fill:#AC6D21;}
	.st31{opacity:0.6;fill:#E2BF40;enable-background:new    ;}
	.st32{fill:#A46723;}
	.st33{fill:url(#SVGID_13_);}
	.st34{fill:url(#SVGID_14_);}
	.st35{fill:url(#SVGID_15_);}
	.st36{fill:url(#SVGID_16_);}
	.st37{fill:url(#SVGID_17_);}
	.st38{fill:url(#SVGID_18_);}
	.st39{fill:url(#SVGID_19_);}
	.st40{fill:url(#SVGID_20_);}
	.st41{fill:url(#SVGID_21_);}
	.st42{fill:url(#SVGID_22_);}
	.st43{fill:url(#SVGID_23_);}
	.st44{fill:url(#SVGID_24_);}
	.st45{fill:url(#SVGID_25_);}
	.st46{fill:url(#SVGID_26_);}
	.st47{fill:url(#SVGID_27_);}
	.st48{fill:url(#SVGID_28_);}
	.st49{fill:url(#SVGID_29_);}
	.st50{fill:url(#SVGID_30_);}
	.st51{fill:url(#SVGID_31_);}
	.st52{fill:url(#SVGID_32_);}
	.st53{fill:url(#SVGID_33_);}
	.st54{fill:url(#SVGID_34_);}
	.st55{fill:url(#SVGID_35_);}
	.st56{fill:url(#SVGID_36_);}
	.st57{fill:url(#SVGID_37_);}
	.st58{fill:url(#SVGID_38_);}
	.st59{fill:url(#SVGID_39_);}
	.st60{fill:url(#SVGID_40_);}
	.st61{fill:url(#SVGID_41_);}
	.st62{fill:url(#SVGID_42_);}
	.st63{fill:url(#SVGID_43_);}
	.st64{fill:url(#SVGID_44_);}
	.st65{fill:url(#SVGID_45_);}
	.st66{fill:url(#SVGID_46_);}
	.st67{fill:url(#SVGID_47_);}
	.st68{fill:url(#SVGID_48_);}
	.st69{fill:url(#SVGID_49_);}
	.st70{fill:url(#SVGID_50_);}
	.st71{fill:url(#SVGID_51_);}
	.st72{fill:url(#SVGID_52_);}
	.st73{fill:url(#SVGID_53_);}
	.st74{fill:url(#SVGID_54_);}
	.st75{fill:url(#SVGID_55_);}
	.st76{fill:url(#SVGID_56_);}
	.st77{fill:url(#SVGID_57_);}
	.st78{fill:url(#SVGID_58_);}
	.st79{fill:url(#SVGID_59_);}
	.st80{fill:url(#SVGID_60_);}
	.st81{fill:url(#SVGID_61_);}
	.st82{fill:url(#SVGID_62_);}
	.st83{fill:#3C3A39;}
	.st84{fill:url(#SVGID_63_);}
	.st85{fill:url(#SVGID_64_);}
	.st86{fill:url(#SVGID_65_);}
	.st87{fill:#532817;}
	.st88{fill:#48210E;}
	.st89{fill:url(#SVGID_66_);}
	.st90{fill:url(#SVGID_67_);}
	.st91{fill:#9F7433;}
	.st92{fill:#746766;}
	.st93{opacity:0.5;}
	.st94{fill:#2F2A28;}
	.st95{opacity:0.5;fill:#2F2A28;enable-background:new    ;}
	.st96{fill:#865C25;}
	.st97{fill:#755325;}
	.st98{fill:none;stroke:#746766;stroke-width:0.8195;stroke-linecap:round;stroke-miterlimit:10;}
	.st99{fill:url(#SVGID_68_);}
	.st100{fill:url(#SVGID_69_);}
	.st101{fill:url(#SVGID_70_);}
	.st102{fill:url(#SVGID_71_);}
	.st103{fill:url(#SVGID_72_);}
	.st104{fill:url(#SVGID_73_);}
	.st105{fill:url(#SVGID_74_);}
	.st106{fill:#D69644;}
	.st107{fill:url(#SVGID_75_);}
	.st108{fill:#898989;}
	.st109{fill:#C9CACA;}
	.st110{fill:url(#SVGID_76_);}
	.st111{fill:url(#SVGID_77_);}
	.st112{fill:url(#SVGID_78_);}
	.st113{fill:url(#SVGID_79_);}
	.st114{fill:url(#SVGID_80_);}
	.st115{fill:#FCE4B4;}
	.st116{opacity:0.5;fill:#DA9E36;enable-background:new    ;}
	.st117{fill:url(#SVGID_81_);}
	.st118{fill:url(#SVGID_82_);}
	.st119{fill:url(#SVGID_83_);}
	.st120{opacity:0.4;fill:#C49358;enable-background:new    ;}
	.st121{fill:url(#SVGID_84_);}
	.st122{fill:url(#SVGID_85_);}
	.st123{fill:url(#SVGID_86_);}
	.st124{fill:url(#SVGID_87_);}
	.st125{fill:url(#SVGID_88_);}
	.st126{fill:url(#SVGID_89_);}
	.st127{fill:#7D5223;}
	.st128{fill:url(#SVGID_90_);}
	.st129{opacity:0.5;fill:url(#SVGID_91_);enable-background:new    ;}
	.st130{fill:#CC7C5C;}
</style>
<g>
	<g>
		<g>
			<g>
				
					<linearGradient id="SVGID_1_" gradientUnits="userSpaceOnUse" x1="754.9044" y1="220.0077" x2="839.663" y2="220.0077" gradientTransform="matrix(-1 0 0 -1 1358.0383 602)">
					<stop  offset="0" style="stop-color:#EFD980"/>
					<stop  offset="0.2037" style="stop-color:#EFD87C"/>
					<stop  offset="0.3836" style="stop-color:#EED572"/>
					<stop  offset="0.5546" style="stop-color:#EDCF5F"/>
					<stop  offset="0.7191" style="stop-color:#EBC743"/>
					<stop  offset="0.7526" style="stop-color:#EBC63C"/>
					<stop  offset="1" style="stop-color:#E7AE17"/>
				</linearGradient>
				<path class="st0" d="M518.1,357.5l8-18.5c0-0.4,0-1.1,0-1.4v-0.4c0-0.4,0-0.7,0.4-1.1v-0.4c0-0.4,0.4-0.7,0.4-1.1v-0.4
					c0-0.4,0.4-1.1,0.7-1.4v-0.4c0-0.4,0.4-0.7,0.4-1.1c0-0.4,0-0.4,0.4-0.7c0-0.4,0.4-0.7,0.4-1.1s0.4-0.4,0.4-0.7
					c2.9-5.8,7.2-10.9,10.1-14.5l0.4-0.4c15.6,19.9,33.7,47,47.8,81.4c0,0,13,12.3,13,29.7s-13.4,23.2-20.6,21.4l0,0
					c-8.3,6.9-19.5,2.9-21.7-8.7l0,0c-0.4,0.4-1.1,0.7-1.4,0.7c-4.7,2.5-11.2-0.7-13.4-5.1l0,0l0,0c0,0,0-0.4-0.4-0.4l0,0l-1.4-14.1
					h0.4v-3.6l0.7-2.5c-0.4-0.7-0.7-1.4-0.7-2.2l-0.7-1.1l-1.1-2.5v-0.7c-2.5-6.5-6.5-15.6-11.9-26.1c-3.3-6.9-7.2-14.1-11.2-21
					L518.1,357.5z"/>
			</g>
			<path class="st29" d="M568.8,417.6c0,0,2.5,19.2-8.3,25.3l-1.8-5.4C558.3,437.5,569.8,431.7,568.8,417.6z"/>
			<path class="st29" d="M587.2,423.4c0,0,5.1,12.7,1.4,21.7c0,0-3.3,1.4-8.3,1.1C580,446.2,588.7,441.8,587.2,423.4z"/>
			<path class="st30" d="M569.1,423.4c0,0,0,11.2-9.4,15.6l-0.4-1.8C559,437.5,569.1,428.4,569.1,423.4z"/>
			<path class="st30" d="M587.9,430.2c0,0,0.7,10.5-5.1,16.3l-3.6-0.4C579.6,446.2,587.2,438.9,587.9,430.2z"/>
			<path class="st31" d="M518.1,357.5l8-18.5c0-0.4,0-1.1,0-1.4v-0.4c0-0.4,0-0.7,0.4-1.1v-0.4c0-0.4,0.4-0.7,0.4-1.1v-0.4
				c0-0.4,0.4-1.1,0.7-1.4v-0.4c0-0.4,0.4-0.7,0.4-1.1c0-0.4,0-0.4,0.4-0.7c0-0.4,0.4-0.7,0.4-1.1s0.4-0.4,0.4-0.7c0,0,0,0,0-0.4
				c10.9,21.4,22.4,49.2,22.8,73.1c0,0-13.4,17-8.3,33.3c-0.4-0.4-0.7-1.1-1.1-1.4l0,0l0,0c0,0,0-0.4-0.4-0.4l0,0l-1.4-14.1h0.4
				v-3.6l0.7-3.3l-1.8-2.5l-1.1-2.5l-19.9-43.4c0,0-1.1-1.4-2.9-4.3L518.1,357.5z"/>
			<g>
				<path class="st30" d="M542.3,413.6l-0.7-1.1l0,0c-0.4-0.4-13-29-25-51.8l1.4-2.9l0,0c10.9,20.6,22.8,46.7,25.3,52.5
					c0.4-1.1,0.7-1.8,0.7-1.8l0,0c1.1-1.8,2.5-3.6,2.5-3.6c0.4-0.4,0.7-0.4,0.7,0c0.4,0.4,0.4,0.7,0,0.7c-0.4,0.4-0.4,0.7-0.7,1.1
					c0,0-6.9,10.5-3.3,25.7l0,0c0.7,2.2,2.9,4.3,5.4,5.1c2.5,1.1,5.1,1.1,7.2,0c8.3-4.3,13-13.4,11.2-22.1c0-0.4,0-0.7,0.4-0.7
					c0.4,0,0.7,0,0.7,0.4c1.8,8.7-2.2,17.7-9.8,22.4c1.1,5.4,4.7,9.4,9,10.9c4.3,1.4,9,0,12.7-3.6c8.7-8.7,5.4-22.4,5.4-22.4
					c0-0.4,0-0.7,0.4-0.7s0.7,0,0.7,0.4c0,0,3.6,14.1-5.8,23.5l0,0c2.9,0.4,7.2-0.4,11.2-3.6c3.3-2.5,7.2-8,7.2-17.4
					c0-17-12.7-29-12.7-29.3c0,0,0,0,0-0.4c-14.1-34-31.8-61.2-47.4-81.1c0,0,0,0,0.4-0.4c1.1-1.4,2.2-2.5,2.5-2.9l0,0
					c5.1,6.5,10.5,13.8,15.9,22.1l0,0c0,0,25.7,38.4,31.5,59.7c6.9,9,20.3,30,7.6,46c-1.1,1.8-2.5,3.3-4,4.3
					c-0.4,0.4-1.1,0.7-1.4,1.1h-0.4l0,0c-2.9,1.8-6.2,2.9-9,2.9c-0.7,0-1.4,0-2.2-0.4c-2.5,2.2-5.8,3.3-9,3.3c-1.1,0-2.5,0-3.6-0.4
					c-5.1-1.4-8.7-5.8-9.8-11.2c-0.4,0-0.7,0.4-0.7,0.4c-1.1,0.7-2.5,1.1-4,1.1s-2.9-0.4-4-0.7c-2.5-1.1-4.7-2.9-5.8-5.4l0,0
					c0,0,0,0,0-0.4v-0.4l0,0c0,0-1.1-2.5-1.4-6.9c0-1.8-0.4-3.6,0-5.8C541.3,417.6,541.6,415.4,542.3,413.6z"/>
			</g>
		</g>
	</g>
	<g>
		<g>
			
				<linearGradient id="SVGID_2_" gradientUnits="userSpaceOnUse" x1="311.6748" y1="273.3858" x2="369.4388" y2="273.3858" gradientTransform="matrix(1 0 0 -1 0 602)">
				<stop  offset="0" style="stop-color:#EFD980"/>
				<stop  offset="0.2037" style="stop-color:#EFD87C"/>
				<stop  offset="0.3836" style="stop-color:#EED572"/>
				<stop  offset="0.5546" style="stop-color:#EDCF5F"/>
				<stop  offset="0.7191" style="stop-color:#EBC743"/>
				<stop  offset="0.7526" style="stop-color:#EBC63C"/>
				<stop  offset="1" style="stop-color:#E7AE17"/>
			</linearGradient>
			<path class="st7" d="M335.7,305c-8.3-1.1-13.8,0-17,1.8l-2.5-9.8c-2.2,6.9-3.6,17-3.6,17l0,0c-0.7,1.8-0.7,2.9-0.7,2.9
				s-0.7,6.9,1.1,14.1c2.2,7.2,6.2,17.7,16.6,22.4c10.5,4.7,13.4,7.2,23.9,6.5c0.7,0,1.4,0,2.2,0c3.6-14.8,8.7-27.5,13.4-38
				C363.6,316.2,351.6,307.6,335.7,305z"/>
			<path class="st30" d="M356.7,359.7c0.4,0,0.7-0.7,0.7-1.1c0-0.4-0.7-0.7-1.1-0.7c-16.6,2.9-34-8.3-39.1-20.3
				c-4-9-3.6-15.9-3.6-18.8l-1.8-1.8l-0.7,1.1c0,0-4,19.2,10.9,31.8c14.8,12.7,30.8,12.7,34.4,11.9l0.7-2.2L356.7,359.7z M354.9,360
				L354.9,360L354.9,360L354.9,360z"/>
		</g>
		<g>
			<g class="st9">
				
					<linearGradient id="SVGID_3_" gradientUnits="userSpaceOnUse" x1="571.9979" y1="516.1785" x2="603.0457" y2="487.9535" gradientTransform="matrix(1 0 0 -1 0 602)">
					<stop  offset="0" style="stop-color:#837E7D"/>
					<stop  offset="0.3862" style="stop-color:#625E5D"/>
					<stop  offset="0.6005" style="stop-color:#7D7776"/>
					<stop  offset="0.881" style="stop-color:#373535"/>
				</linearGradient>
				<path class="st8" d="M588.7,70.5l-6.2,64.4h1.4l6.2-68c0-1.1,0.7-1.8,1.8-2.5l0,0C591.9,64.7,589,65.1,588.7,70.5z"/>
				
					<linearGradient id="SVGID_4_" gradientUnits="userSpaceOnUse" x1="591.2458" y1="520.4597" x2="626.1799" y2="488.7016" gradientTransform="matrix(1 0 0 -1 0 602)">
					<stop  offset="0" style="stop-color:#837E7D"/>
					<stop  offset="0.3862" style="stop-color:#625E5D"/>
					<stop  offset="0.6005" style="stop-color:#7D7776"/>
					<stop  offset="0.881" style="stop-color:#373535"/>
				</linearGradient>
				<path class="st11" d="M613.6,57.1c0,5.1-0.4,11.6-1.4,19.5l-9,60.4h1.4c1.1-8,9-63,9.8-74.5C614.7,60.4,614.4,58.6,613.6,57.1z"
					/>
				<g>
					
						<linearGradient id="SVGID_5_" gradientUnits="userSpaceOnUse" x1="558.0201" y1="487.4162" x2="570.0078" y2="476.5186" gradientTransform="matrix(1 0 0 -1 0 602)">
						<stop  offset="0" style="stop-color:#837E7D"/>
						<stop  offset="0.3862" style="stop-color:#625E5D"/>
						<stop  offset="0.6005" style="stop-color:#7D7776"/>
						<stop  offset="0.881" style="stop-color:#373535"/>
					</linearGradient>
					<path class="st15" d="M565.5,106.4c-0.4,1.1-1.1,2.2-1.4,3.3l-2.2,23.5h1.4L565.5,106.4z"/>
					
						<linearGradient id="SVGID_6_" gradientUnits="userSpaceOnUse" x1="563.7411" y1="528.85" x2="572.9762" y2="520.4545" gradientTransform="matrix(1 0 0 -1 0 602)">
						<stop  offset="0" style="stop-color:#837E7D"/>
						<stop  offset="0.3862" style="stop-color:#625E5D"/>
						<stop  offset="0.6005" style="stop-color:#7D7776"/>
						<stop  offset="0.881" style="stop-color:#373535"/>
					</linearGradient>
					<path class="st16" d="M567.3,87.5l1.8-20.6l-1.1,1.4l-1.4,16.3C567,85.7,567.3,86.8,567.3,87.5z"/>
				</g>
			</g>
			<g>
				
					<linearGradient id="SVGID_7_" gradientUnits="userSpaceOnUse" x1="546.4523" y1="549.6262" x2="620.4597" y2="482.3465" gradientTransform="matrix(1 0 0 -1 0 602)">
					<stop  offset="0" style="stop-color:#837E7D"/>
					<stop  offset="0.3862" style="stop-color:#625E5D"/>
					<stop  offset="0.6005" style="stop-color:#7D7776"/>
					<stop  offset="0.881" style="stop-color:#373535"/>
				</linearGradient>
				<path class="st17" d="M612.2,54.6c-3.3-3.6-9.4-3.3-9.4-3.3l0,0l-49.9-1.8c-7.2,0.7-8,5.8-8,6.2l-1.1,9c2.5,0.7,5.1,1.4,7.2,2.5
					l0.4-2.2c0-1.4,1.4-2.5,2.9-2.5h2.9c0.7,0,1.4,0.4,2.2,1.1c0.4,0.7,0.7,1.4,0.7,2.2l-1.1,7.2c2.5,2.5,4.7,5.4,6.5,8.7
					c0.7,1.8,1.4,4,1.8,5.8l2.2-21.4c0-1.4,1.4-2.5,2.9-2.5h4c0.7,0,1.4,0.4,2.2,1.1c0.4,0.7,0.7,1.4,0.7,2.2l-6.5,66.9l11.2,1.1
					l6.2-68c0-1.4,1.4-2.5,2.9-2.5l0,0h6.2c0.7,0,1.4,0.4,2.2,1.1c0.4,0.7,0.7,1.4,0.7,2.2c-0.7,10.5-6.9,60.8-8,68.4l10.5,1.1
					c1.1-8,9-63,9.8-74.5C614.7,59.3,614,56.4,612.2,54.6z"/>
				
					<linearGradient id="SVGID_8_" gradientUnits="userSpaceOnUse" x1="556.1614" y1="485.3719" x2="568.1487" y2="474.4743" gradientTransform="matrix(1 0 0 -1 0 602)">
					<stop  offset="0" style="stop-color:#837E7D"/>
					<stop  offset="0.3862" style="stop-color:#625E5D"/>
					<stop  offset="0.6005" style="stop-color:#7D7776"/>
					<stop  offset="0.881" style="stop-color:#373535"/>
				</linearGradient>
				<path class="st23" d="M553.9,119.7l-1.4,12.3l10.5,1.1l2.5-26.8C563.3,111.8,559,116.5,553.9,119.7z"/>
			</g>
			<g>
				<path class="st83" d="M546.3,123c-0.7,0-1.4,0.4-2.2,0.4v0.4c0.7,0.7,1.1,1.4,1.8,2.2L546.3,123z"/>
				<path class="st83" d="M557.2,62.9h-2.9c-1.4,0-2.9,1.1-2.9,2.5l-0.4,1.8c0.7,0.4,1.1,0.7,1.8,1.1l0.4-2.9c0-0.4,0.4-0.7,1.1-0.7
					h2.9c0.4,0,0.4,0,0.7,0.4c0,0.4,0.4,0.4,0.4,0.7l-0.7,5.4c0.7,0.4,1.1,1.1,1.8,1.4l0.7-6.9c0-0.7,0-1.4-0.7-2.2
					C558.6,63.3,557.9,62.9,557.2,62.9z"/>
				<path class="st83" d="M613.6,53.2c-4-4-10.1-4-10.9-3.6l-49.9-1.8l0,0c-9,0.7-9.8,8-9.8,8l-1.1,8.7c0.7,0,1.4,0.4,1.8,0.4l1.1-9
					c0-0.4,0.7-5.4,8-6.2l49.6,1.8l0,0c0,0,5.8-0.4,9.4,3.3c1.8,1.8,2.5,4.3,2.5,8c-0.7,11.9-8.7,66.6-9.8,74.5l-10.5-1.1
					c1.1-7.6,7.2-57.9,8-68.4c0-0.7-0.4-1.4-0.7-2.2c-0.4-0.7-1.4-1.1-2.2-1.1H593l0,0c-1.4,0-2.9,1.1-2.9,2.5l-6.2,68l-11.2-1.1
					l6.5-66.9c0-0.7,0-1.4-0.7-2.2c-0.4-0.7-1.1-1.1-2.2-1.1h-4c-1.4,0-2.9,1.1-2.9,2.5l-2.2,21.4c1.1,5.1,1.1,10.5-0.7,15.6l0,0
					c-0.4,1.1-0.7,2.2-1.1,2.9l-2.5,26.8l-10.5-1.1l1.4-12.3c-0.7,0.4-1.4,0.7-2.2,1.1l-1.1,11.9c0.4,0.7,0.7,1.1,1.1,1.8l12.3,1.1
					c0.4,0,0.4,0,0.7-0.4c0.4,0,0.4-0.4,0.4-0.7l6.5-67.7c0-0.4,0.4-0.7,1.1-0.7h4c0.4,0,0.4,0,0.7,0.4c0,0.4,0.4,0.4,0.4,0.7
					l-6.5,68c0,0.4,0,0.4,0.4,0.7c0,0.4,0.4,0.4,0.7,0.4l13,1.1c0.4,0,0.4,0,0.7-0.4c0.4,0,0.4-0.4,0.4-0.7l5.4-68.8
					c0-0.4,0.4-0.7,1.1-0.7h6.2c0.4,0,0.4,0,0.7,0.4c0,0.4,0.4,0.4,0.4,0.7c-0.7,11.6-8,68.8-8,69.5c0,0.4,0,0.4,0.4,0.7
					c0,0.4,0.4,0.4,0.7,0.4l12.3,1.1l0,0c0.4,0,1.1-0.4,1.1-0.7c0-0.7,9-63,10.1-75.6C616.5,58.6,615.8,55.7,613.6,53.2z"/>
			</g>
			
				<linearGradient id="SVGID_9_" gradientUnits="userSpaceOnUse" x1="568.4642" y1="565.981" x2="601.7086" y2="551.8593" gradientTransform="matrix(1 0 0 -1 0 602)">
				<stop  offset="0" style="stop-color:#837E7D"/>
				<stop  offset="0.3862" style="stop-color:#625E5D"/>
				<stop  offset="0.6005" style="stop-color:#7D7776"/>
				<stop  offset="0.881" style="stop-color:#373535"/>
			</linearGradient>
			<polygon class="st24" points="566.6,41.2 574.2,32.5 593.7,32.9 591.9,49.9 584.7,56.8 			"/>
			<path class="st83" d="M595.2,33.2C595.2,32.9,595.2,32.9,595.2,33.2c0-0.4,0-0.4,0-0.4l0,0l0,0l0,0c0,0,0,0-0.4-0.4l0,0
				c0,0,0,0-0.4,0l0,0l0,0l0,0h-19.9c-0.4,0-0.7,0-0.7,0.4l-7.2,8c-0.4,0.4-0.4,1.1,0,1.4c0.4,0.4,1.1,0.4,1.4,0l6.9-7.6h17.4
				l-5.1,6.2l0,0c0,0,0,0,0,0.4l0,0l0,0L586.1,56c0,0.4,0.4,0.7,0.7,1.1h0.4c0.4,0,0.4,0,0.7-0.4l5.8-6.5c0,0,0.4-0.4,0.4-0.7
				L595.2,33.2L595.2,33.2z M587.9,52.8l1.1-11.6l4-5.1l-1.4,12.7L587.9,52.8z"/>
			<g>
				
					<linearGradient id="SVGID_10_" gradientUnits="userSpaceOnUse" x1="560.8038" y1="552.9047" x2="569.1986" y2="545.2731" gradientTransform="matrix(1 0 0 -1 0 602)">
					<stop  offset="0" style="stop-color:#8D5435"/>
					<stop  offset="1" style="stop-color:#5D3017"/>
				</linearGradient>
				<path class="st26" d="M558.6,72.7l26.8-30.8h-18.1l-21,23.5C551,67.3,555.4,69.4,558.6,72.7z"/>
				
					<linearGradient id="SVGID_11_" gradientUnits="userSpaceOnUse" x1="301.8321" y1="260.9697" x2="311.8804" y2="251.8352" gradientTransform="matrix(1 0 0 -1 0 602)">
					<stop  offset="0" style="stop-color:#8D5435"/>
					<stop  offset="1" style="stop-color:#5D3017"/>
				</linearGradient>
				<path class="st27" d="M368.3,268.1L236.9,417.2c0,0.7,0,3.6,2.2,5.8c1.8,1.8,4.7,2.9,8.3,2.9l133.5-152
					C377,272.5,372.6,270.7,368.3,268.1z"/>
			</g>
			<path class="st87" d="M559.4,73.1c1.8,1.8,3.3,3.6,4.7,5.8c4-3.3,7.6-6.5,9-8.7c5.4-7.6,14.5-15.6,14.5-15.6l0.4-14.1L559.4,73.1
				z"/>
			<g>
				<path class="st88" d="M588.7,40.5c0-0.4-0.4-0.7-0.7-0.7h-20.6c-0.4,0-0.7,0-0.7,0.4l-21.7,24.6c0.7,0.4,1.4,0.4,2.2,0.7
					l20.6-23.5h18.1L559,72.7c0.4,0.4,1.1,1.1,1.4,1.4l26.4-30L586.1,55l0,0c0,0-12.7,13.4-22.8,22.8c0.4,0.7,0.7,1.1,1.1,1.8
					c10.1-9,22.4-22.4,23.2-23.2l0,0c0.4,0,0.4-0.4,0.4-0.7l0.7-14.1C588.7,41.2,588.7,40.8,588.7,40.5z"/>
				<path class="st88" d="M381.3,274.3l-133.5,152c-3.6,0-6.5-1.1-8.3-2.9c-1.8-2.2-2.2-5.1-2.2-5.8l131.4-149.1
					c-0.7-0.4-1.1-0.7-1.8-1.1l-131,149.1c0,0-0.4,0.4-0.4,0.7s-0.4,4.3,2.5,7.6c2.2,2.2,5.4,3.6,9.8,3.6c0.4,0,0.4,0,0.7,0
					c0.4,0,0.4,0,0.7-0.4l134.3-152.7C382.4,274.6,381.7,274.3,381.3,274.3z"/>
			</g>
		</g>
		<g>
			
				<linearGradient id="SVGID_12_" gradientUnits="userSpaceOnUse" x1="315.5554" y1="309.911" x2="382.4257" y2="309.911" gradientTransform="matrix(1 0 0 -1 0 602)">
				<stop  offset="0" style="stop-color:#EFD980"/>
				<stop  offset="0.2037" style="stop-color:#EFD87C"/>
				<stop  offset="0.3836" style="stop-color:#EED572"/>
				<stop  offset="0.5546" style="stop-color:#EDCF5F"/>
				<stop  offset="0.7191" style="stop-color:#EBC743"/>
				<stop  offset="0.7526" style="stop-color:#EBC63C"/>
				<stop  offset="1" style="stop-color:#E7AE17"/>
			</linearGradient>
			<path class="st28" d="M316.5,291.3c0,0,6.2-24.2,27.9-29.3s34.4,10.5,37.3,17.4c0,0,4.3,12.7-6.9,19.5l-3.6,5.4
				c0,0-5.1,8.7-11.9,9.8c0,0-2.2,13-25.3,8c0,0-16.3-6.2-18.5-26.1L316.5,291.3z"/>
			<g class="st25">
				<path class="st29" d="M382.4,281.9c-0.7-2.9-2.2-5.8-4-8c0,2.9-0.7,8.7-7.6,11.6c0,0-2.5,18.5-14.5,17c0,0-6.9,18.5-25,17.7
					c0,0-0.4,0-0.4-0.4c21,11.6,27.9-5.8,27.9-5.8c10.9-1.8,14.8-14.8,14.8-14.8S385.6,292.4,382.4,281.9z"/>
			</g>
			<g>
				<path class="st30" d="M356.3,260.5c-10.9-1.4-20.3,4-25,7.6c0,0-2.2,1.8-3.3,2.9c0,0.4,0,0.4,0.4,0.7c0.4,0.4,0.7,0.4,1.1,0
					c0,0,12.3-11.9,26.8-9.8c3.6,0.7,7.2,1.8,10.1,3.3c1.1,0.7,13,6.9,14.8,18.8c0,0.4,0.4,3.6-0.7,6.2l0,0c0,0,0,0.4-0.4,0.4
					c-1.1,2.2-2.9,5.1-4.7,6.2l0,0c0-0.7,0-1.1,0-1.8c-1.1-13.4-15.2-22.1-15.9-22.4c-0.4-0.4-0.7,0-1.1,0.4c-0.4,0.4,0,0.7,0.4,1.1
					c0,0,5.4,3.3,9.8,8.7c0,0.4,8,12.3,1.8,21.7c0,0-4,5.4-9.8,8.3c0.4-13.4-14.1-21.4-14.1-21.4l0,0c-1.4-1.1-2.5-1.4-2.9-1.8
					c-0.4-0.4-0.7,0-1.1,0.4s0,0.7,0.4,1.1c0,0,15.2,8,15.6,21c0,3.3-1.1,6.2-3.6,8c-5.4,4-15.2,2.9-17,2.2h-0.4
					c-14.8-5.1-18.8-15.9-19.5-24.6c0-0.4-0.4-0.7-0.7-0.7c-0.4,0-0.7,0.4-0.7,0.7c0.7,7.6,4,17.7,14.8,23.5l0,0
					c1.4,1.1,3.3,1.8,5.8,2.5l0,0h0.4c0.4,0,1.4,0.4,2.5,0.4c8,1.4,18.1,0,20.3-8c2.2-1.1,11.6-6.2,14.5-14.5
					c1.4-1.1,10.1-8.7,9.8-17C383.8,275.7,371.5,262.7,356.3,260.5z"/>
			</g>
			<path class="st30" d="M310.7,321c0,0,0.4-39.1,19.5-51.8v2.2c0,0-15.9,11.2-16.3,47.8l-1.8,3.3L310.7,321z"/>
		</g>
	</g>
</g>
</svg>
