<?xml version="1.0" encoding="utf-8"?>
<!-- Generator: Adobe Illustrator 21.0.0, SVG Export Plug-In . SVG Version: 6.00 Build 0)  -->
<svg version="1.1" id="圖層_1" xmlns="http://www.w3.org/2000/svg" xmlns:xlink="http://www.w3.org/1999/xlink" x="0px" y="0px"
	 viewBox="0 0 822.9 601.4" style="enable-background:new 0 0 822.9 601.4;" xml:space="preserve">
<style type="text/css">
	.st0{fill:url(#SVGID_1_);}
	.st1{fill:#FFFFFF;}
	.st2{fill:#DB7855;}
	.st3{fill:url(#SVGID_2_);}
	.st4{fill:#814334;}
	.st5{opacity:0.7;fill:#DB7855;}
	.st6{opacity:0.6;fill:#FFFFFF;}
	.st7{fill:#717071;}
	.st8{fill:#231815;}
	.st9{opacity:0.5;fill:#DB7855;}
	.st10{fill:url(#SVGID_3_);}
	.st11{fill:url(#SVGID_4_);}
	.st12{fill:url(#SVGID_5_);}
	.st13{fill:#E1BE3F;}
	.st14{fill:#AB6C21;}
	.st15{opacity:0.6;fill:#E1BE3F;}
	.st16{fill:url(#SVGID_6_);}
	.st17{fill:#66411D;}
	.st18{fill:url(#SVGID_7_);}
	.st19{fill:#D9B974;}
	.st20{fill:#DCBF93;}
	.st21{fill:url(#SVGID_8_);}
	.st22{fill:url(#SVGID_9_);}
	.st23{fill:url(#SVGID_10_);}
	.st24{fill:url(#SVGID_11_);}
	.st25{fill:#8C5924;}
	.st26{fill:url(#SVGID_12_);}
	.st27{fill:url(#SVGID_13_);}
	.st28{fill:url(#SVGID_14_);}
	.st29{fill:url(#SVGID_15_);}
	.st30{fill:#F4E3A5;}
	.st31{fill:#DEB87D;}
	.st32{fill:url(#SVGID_16_);}
	.st33{fill:url(#SVGID_17_);}
	.st34{fill:#3F210F;}
	.st35{opacity:0.25;fill:#E1BE3F;}
	.st36{opacity:0.5;fill:#E1BE3F;}
	.st37{fill:#F8E5A9;}
	.st38{fill:#DDBC90;}
	.st39{opacity:0.4;fill:#E1BE3F;}
	.st40{fill:#875424;}
	.st41{fill:#3F210E;}
	.st42{fill:#C88E2C;}
	.st43{fill:#AC7327;}
	.st44{fill:#814323;}
	.st45{fill:#D7C6A6;}
	.st46{fill:url(#SVGID_18_);}
	.st47{fill:#4A1E0E;}
	.st48{fill:#3A1D13;}
	.st49{fill:url(#SVGID_19_);}
	.st50{fill:#EAA593;}
	.st51{fill:url(#SVGID_20_);}
	.st52{fill:url(#SVGID_21_);}
	.st53{fill:#D59543;}
	.st54{opacity:0.6;fill:#D59543;}
	.st55{fill:url(#SVGID_22_);}
	.st56{fill:url(#SVGID_23_);}
	.st57{fill:url(#SVGID_24_);}
</style>
<g>
	<linearGradient id="SVGID_1_" gradientUnits="userSpaceOnUse" x1="507.4599" y1="510.4117" x2="532.571" y2="447.3007">
		<stop  offset="0" style="stop-color:#FCF1DA"/>
		<stop  offset="1" style="stop-color:#ED7751"/>
	</linearGradient>
	<path class="st0" d="M519.4,553.7c-6.9-2.8-13.4-6-19.3-9.7c-18.4-11.4-29.6-26.2-33.2-44c0-0.2-0.1-0.3-0.3-0.4
		c0.7-0.9,1.2-2,1.4-2.3c4.6-8.4,13.9-9,20.1-9.4c0.5,0,0.9-0.1,1.4-0.1c2.2-0.2,3.5-0.8,4-2c0.8-1.8-0.8-3.9-1-4.1
		c-2.6-2.7-9.2-9.5-17.3-10.3c4.6-2.8,26.6-13.6,76.2-7.2c1.2,1.2,9.7,9.7,8.9,27.6c-0.9,19.5-11.7,25.4-14.5,26
		c-3.1,0.6-37.3-1.2-40.9-1.8c-2-0.3-4.7-0.5-5.5,1.2c-0.7,1.6,0.1,4.8,12.6,15.5c6.4,5.5,9.7,10.8,9.7,15.4
		C521.6,551.1,520.1,553,519.4,553.7z"/>
	<path class="st1" d="M529.3,470.6c-5.3,0-9.6,2.8-10.2,6.8c-0.3,2.2,0.6,4.3,2.4,6.2c1.9,1.9,4.6,3.1,7.6,3.5
		c3,0.4,5.9-0.1,8.2-1.4c2.3-1.3,3.7-3.2,3.9-5.3l0,0c0.6-4.5-3.9-8.9-10-9.7C530.6,470.7,530,470.6,529.3,470.6z"/>
	<path class="st2" d="M464,499.8C464,499.8,464,499.8,464,499.8c-0.5,0-1-0.8-1.5-2.1c0,0,0,0,0-0.1c-0.3-0.7-7.7-17.8,5-23.6
		c2.1-1,4.1-1.4,6.1-1.4c7.1,0,13.3,5.4,17.7,9.9c0.3,0.4,1.1,1.7,0.8,2.6c-0.3,0.6-1.3,1-2.8,1.1c-0.4,0-0.9,0.1-1.4,0.1
		c-6.1,0.4-16.3,1.1-21.4,10.3C466,497.9,464.8,499.8,464,499.8z"/>
	<linearGradient id="SVGID_2_" gradientUnits="userSpaceOnUse" x1="612.4908" y1="552.2023" x2="637.602" y2="489.0912">
		<stop  offset="0" style="stop-color:#FCF1DA"/>
		<stop  offset="1" style="stop-color:#ED7751"/>
	</linearGradient>
	<path class="st3" d="M722.8,568.8c-1.3,0.4-39.8,5-86.6,4.1c-34.8-0.7-80.3-4.7-115.3-18.6c0.9-1.1,2.2-3.2,2.2-6.2
		c0-5.1-3.4-10.7-10.2-16.6c-12.3-10.6-12.4-13.2-12.2-13.8c0.1-0.1,0.6-0.8,3.9-0.3c3.9,0.6,38.1,2.4,41.4,1.8
		c3.3-0.6,12.2-5.7,15-20.6c5.6,4.5,10.2,6.7,14,6.7c0.9,0,1.7-0.1,2.4-0.3c4.7-1.3,7-6.4,8.6-11.1c1.6-4.5,1.3-9.5-0.8-13.6
		c-1.5-3.1-3.9-5.4-6.5-6.3c-4.8-1.6-15.3,2.4-18.4,3.6c-1.8-6.7-4.7-10.9-6.6-13c1.1,0.2,2.2,0.3,3.4,0.5
		c20.8,3.1,41.5,8,61.3,14.3c12.9,4.1,26.1,9.2,40.4,15.5c18.6,8.2,34.2,19.8,50.7,32.1l4,3c0.6,0.4,1.2,0.9,1.8,1.4
		c1.6,1.3,3.3,2.7,5.1,3.4c0.2,0.1,0.5,0.2,1,0.5c2.9,1.4,10.6,5.2,17.2,2.8c0.4-0.1,0.7-0.3,1.1-0.5c0.1,1,0.4,6.4-5,9.8
		c-0.2,0.1-0.3,0.3-0.2,0.5c0,0.1,3,12.5-4,20.7c0,0-0.1,0.1-0.1,0.2C729.5,568.4,726.6,567.8,722.8,568.8z"/>
	<path class="st2" d="M560.7,478.9c2.6-1.1,13.1-5.1,17.5-3.7c2.2,0.7,4.3,2.7,5.6,5.5c1.9,3.8,2.1,8.4,0.7,12.5
		c-1.5,4.4-3.6,9-7.6,10.2c-3.8,1.1-9-1.1-15.5-6.4c-0.1-0.1-0.2-0.1-0.3-0.1c0.2-1.6,0.4-3.3,0.5-5.2
		C561.9,486.8,561.5,482.5,560.7,478.9z"/>
	<path class="st2" d="M731.4,569.1c6.7-7.8,4.7-19,4.2-21.1c6.1-4.1,5.1-10.7,5.1-10.8c0-0.1,0-0.1-0.1-0.2c2.3-1.4,4.2-3.6,5.5-6.7
		l0.4-0.9c6.3-14.3,15.7-35.8,44.9-36.9c1.8,3.6,12.7,28.4-13.3,48c-0.5,0.4-1.4,1.4-1.1,2.7c0.4,1.7,2.6,3,6.7,4
		c0.3,0.1,27.6,7.5,34.8,25.8C814.2,575.8,780.2,596.1,731.4,569.1z"/>
	<path class="st4" d="M486.7,483.4c0.3,0,0.6-0.2,0.7-0.4c0.1-0.3,0.1-0.6-0.1-0.8c-0.3-0.3-6.9-7.6-14.8-5.7
		c-8.3,2-10.3,5.3-9.3,15.6c0,0.3,0.2,0.5,0.5,0.6c-1.1,1.4-1.6,2.3-1.6,2.4c-0.2,0.4-0.1,0.8,0.3,1c0.1,0.1,0.2,0.1,0.3,0.1
		c0.3,0,0.5-0.1,0.7-0.4C463.5,495.6,470.3,483,486.7,483.4z M464.6,491.5c-0.9-9.8,1.3-12,8.2-13.6c0.8-0.2,1.5-0.3,2.2-0.3
		c4.2,0,7.9,2.6,9.8,4.3C474.4,482.3,467.9,487.8,464.6,491.5z"/>
	<path class="st5" d="M562.7,483.9C562.7,483.9,562.8,483.9,562.7,483.9c0.2,0,12-1.2,16.2-0.7c0.4,0,0.8-0.3,0.8-0.7
		c0-0.4-0.3-0.8-0.7-0.8c-4.3-0.4-16,0.7-16.4,0.7c-0.4,0-0.7,0.4-0.7,0.8C562,483.6,562.3,483.9,562.7,483.9z"/>
	<path class="st5" d="M563.8,489.1C563.8,489.1,563.8,489.1,563.8,489.1c0.1,0,5.8-0.2,9,1c0.1,0,0.2,0,0.3,0c0.3,0,0.6-0.2,0.7-0.5
		c0.1-0.4-0.1-0.8-0.5-1c-3.5-1.2-9.2-1.1-9.5-1.1c-0.4,0-0.7,0.4-0.7,0.8C563,488.7,563.4,489.1,563.8,489.1z"/>
	<path class="st5" d="M564,491.9c-0.4-0.1-0.8,0.1-0.9,0.5c-0.1,0.4,0.1,0.8,0.5,0.9c2.7,0.8,10.2,3.3,12.1,5.3
		c0.1,0.1,0.3,0.2,0.5,0.2s0.4-0.1,0.5-0.2c0.3-0.3,0.3-0.8,0-1.1C574.1,494.9,564.4,492,564,491.9z"/>
	<path class="st6" d="M606.4,478c-0.4-0.1-0.8,0.2-0.9,0.6c-0.1,0.4,0.2,0.8,0.6,0.9c0.1,0,5.2,1.2,4.7,4.7
		c-0.5,3.7-6.1,4.4-6.2,4.4c-0.3,0-0.6,0.3-0.7,0.6c-0.1,0.3,0.1,0.7,0.4,0.8c0.2,0.1,5.6,2.9,4.1,7.9c-1.6,4.9-6.7,4.3-6.9,4.2
		c-0.4,0-0.8,0.2-0.8,0.6c-0.1,0.4,0.2,0.8,0.6,0.9c0,0,3,0.7,4.2,2.7c0.6,0.9,0.7,2,0.3,3.3c-1.3,4.8-5.8,4.9-6,4.9
		c-0.4,0-0.7,0.3-0.7,0.7c0,0.4,0.2,0.7,0.6,0.8c0,0,1.1,0.2,2,0.8c1.2,0.8,1.6,1.7,1.4,3c-0.6,3-4.9,3.1-5.4,3.1c0,0-0.1,0-0.1,0
		c-0.4,0-0.7,0.3-0.7,0.7c0,0.4,0.3,0.8,0.7,0.8c0,0,0.1,0,0.1,0c0.9,0,6.1-0.2,6.9-4.3c0.2-1.2,0-2.3-0.6-3.2
		c-0.4-0.6-1-1.1-1.6-1.5c1.8-0.7,4-2.2,4.9-5.5c0.5-1.7,0.3-3.2-0.5-4.5c-0.6-0.9-1.4-1.6-2.2-2.2c2-0.5,4.3-1.8,5.3-5
		c1.2-3.9-1-7-3.2-8.6c2.1-0.6,5.2-2,5.6-5.3C612.9,480.5,608.7,478.5,606.4,478z"/>
	<path class="st4" d="M597.7,523C597.7,523,597.7,523,597.7,523C597.7,523,597.7,523,597.7,523z"/>
	<path class="st6" d="M624.8,484.7c-0.4-0.1-0.8,0.2-0.9,0.6c-0.1,0.4,0.2,0.8,0.6,0.9c0.2,0,5.2,1.2,4.7,4.7
		c-0.5,3.7-6.1,4.4-6.2,4.4c-0.3,0-0.6,0.3-0.7,0.6c-0.1,0.3,0.1,0.7,0.4,0.8c0.2,0.1,5.6,2.9,4.1,7.9c-1.6,4.9-6.7,4.3-6.9,4.2
		c-0.4,0-0.8,0.2-0.8,0.6c-0.1,0.4,0.2,0.8,0.6,0.9c0,0,2.9,0.7,4.2,2.7c0.6,0.9,0.7,2.1,0.3,3.3c-1.3,4.8-5.8,4.9-6,4.9
		c-0.4,0-0.7,0.3-0.7,0.7c0,0.4,0.2,0.7,0.6,0.8c0,0,1.1,0.2,2,0.8c1.2,0.8,1.6,1.7,1.4,3c-0.6,3-4.9,3.1-5.4,3.1c0,0-0.1,0-0.1,0
		c-0.4,0-0.7,0.3-0.7,0.7c0,0.4,0.3,0.8,0.7,0.8c0,0,0.1,0,0.1,0c0.9,0,6.1-0.2,6.9-4.3c0.2-1.2,0-2.3-0.6-3.2
		c-0.4-0.6-1-1.1-1.6-1.5c1.8-0.7,4-2.2,4.9-5.5c0.5-1.7,0.3-3.2-0.5-4.5c-0.6-0.9-1.4-1.6-2.2-2.2c2-0.5,4.3-1.8,5.3-5
		c1.2-3.9-1-7-3.2-8.6c2.1-0.6,5.2-2,5.6-5.3C631.2,487.1,627.1,485.2,624.8,484.7z"/>
	<path class="st4" d="M616,529.6C616,529.6,616,529.6,616,529.6C616,529.6,616,529.6,616,529.6z"/>
	<path class="st4" d="M634.6,536C634.6,536,634.6,536,634.6,536C634.6,536,634.6,536,634.6,536z"/>
	<path class="st6" d="M643.3,491c-0.4-0.1-0.8,0.2-0.9,0.6c-0.1,0.4,0.2,0.8,0.6,0.9c0.1,0,5.2,1.2,4.7,4.7
		c-0.5,3.7-6.1,4.4-6.2,4.4c-0.3,0-0.6,0.3-0.7,0.6c-0.1,0.3,0.1,0.7,0.4,0.8c0.2,0.1,5.6,2.9,4.1,7.9c-1.6,4.9-6.7,4.3-6.9,4.2
		c-0.4,0-0.8,0.2-0.8,0.6c-0.1,0.4,0.2,0.8,0.6,0.9c0,0,3,0.7,4.2,2.7c0.6,0.9,0.7,2,0.3,3.3c-1.3,4.8-5.8,4.9-6,4.9
		c-0.4,0-0.7,0.3-0.7,0.7c0,0.4,0.2,0.7,0.6,0.8c0,0,1.1,0.2,2,0.8c1.2,0.8,1.6,1.7,1.4,3c-0.6,3-4.9,3.1-5.4,3.1c0,0-0.1,0-0.1,0
		c-0.4,0-0.7,0.3-0.7,0.7c0,0.4,0.3,0.8,0.7,0.8c0,0,0.1,0,0.1,0c0.9,0,6.1-0.2,6.9-4.3c0.2-1.2,0-2.3-0.6-3.2
		c-0.4-0.6-1-1.1-1.6-1.5c1.8-0.7,4-2.2,4.9-5.5c0.5-1.7,0.3-3.2-0.5-4.5c-0.6-0.9-1.4-1.6-2.2-2.2c2-0.5,4.3-1.8,5.3-5
		c1.2-3.9-1-7-3.2-8.6c2.1-0.6,5.2-2,5.6-5.3C649.8,493.5,645.6,491.5,643.3,491z"/>
	<path class="st6" d="M662,500.9c-0.4-0.1-0.8,0.1-1,0.5c-0.1,0.4,0.1,0.8,0.5,1c0.2,0.1,4.5,1.7,3.4,6.5c-1.1,4.7-5,3.9-5.5,3.8
		c-0.4-0.1-0.7,0.1-0.9,0.4c-0.1,0.3,0,0.7,0.3,0.9c0.2,0.1,4.3,3,3,7.3c-1.3,4.3-5.8,4.5-6,4.5c-0.3,0-0.6,0.2-0.7,0.6
		c-0.1,0.3,0.1,0.7,0.4,0.8c0,0,3.9,2.3,3.2,5.5c-0.7,3.2-5.8,3.2-5.9,3.2h0c0,0,0,0,0,0c-0.4,0-0.7,0.3-0.8,0.7
		c0,0.4,0.3,0.8,0.7,0.8c0,0,0,0,0,0c0.5,0,6.4-0.1,7.4-4.4c0.6-2.8-1.1-4.9-2.4-6.1c1.8-0.5,4.5-1.8,5.6-5.2c1-3.4-0.6-6.1-2-7.6
		c1.8-0.2,4.2-1.3,5.1-5C667.8,503,662.1,500.9,662,500.9z"/>
	<path class="st6" d="M677.1,507.2c-0.4-0.1-0.8,0.1-1,0.5s0.1,0.8,0.5,1c0.2,0.1,4.5,1.7,3.4,6.5c-1.1,4.7-5,3.9-5.5,3.8
		c-0.4-0.1-0.7,0.1-0.9,0.4c-0.1,0.3,0,0.7,0.3,0.9c0.2,0.1,4.3,3,3,7.3c-1.3,4.3-5.8,4.5-6,4.5c-0.3,0-0.6,0.2-0.7,0.6
		c-0.1,0.3,0.1,0.7,0.4,0.8c0,0,3.9,2.3,3.2,5.5c-0.7,3.2-5.8,3.2-5.9,3.2h0c0,0,0,0,0,0c-0.4,0-0.7,0.3-0.8,0.7
		c0,0.4,0.3,0.8,0.7,0.8c0,0,0,0,0,0c0.4,0,6.4-0.1,7.4-4.4c0.6-2.8-1.1-4.9-2.4-6.1c1.8-0.5,4.5-1.8,5.6-5.2c1-3.4-0.6-6.1-2-7.6
		c1.8-0.2,4.2-1.3,5.1-5C682.9,509.3,677.2,507.2,677.1,507.2z"/>
	<path class="st6" d="M691.1,519.8c-0.4-0.2-0.8,0-1,0.3c-0.2,0.4,0,0.8,0.3,1c0.2,0.1,5,2.7,3.3,7c-1.6,4.3-5.2,3.5-5.3,3.4
		c-0.4-0.1-0.7,0.1-0.9,0.4c-0.2,0.3,0,0.7,0.3,0.9c0,0,4,2.7,2.7,7.8c-1.3,4.9-5.7,4.6-5.9,4.5c-0.4,0-0.8,0.3-0.8,0.7
		c0,0.4,0.3,0.8,0.7,0.8c0,0,0.1,0,0.4,0c1.3,0,5.7-0.4,7.1-5.7c1-3.8-0.5-6.5-1.8-8c1.6-0.2,3.8-1.2,5-4.4
		C696.9,524.2,693.3,520.9,691.1,519.8z"/>
	<path class="st6" d="M704.2,528.6c-0.4-0.2-0.8,0-1,0.3c-0.2,0.4,0,0.8,0.3,1c0.2,0.1,5,2.7,3.3,7c-1.6,4.3-5.2,3.5-5.3,3.4
		c-0.4-0.1-0.7,0.1-0.9,0.4c-0.2,0.3,0,0.7,0.3,0.9c0.2,0.1,4,2.7,2.7,7.8c-1.3,4.9-5.7,4.6-5.9,4.5c-0.4,0-0.8,0.3-0.8,0.7
		c0,0.4,0.3,0.8,0.7,0.8c0,0,0.1,0,0.4,0c1.3,0,5.7-0.4,7.1-5.7c1-3.8-0.5-6.5-1.8-8c1.6-0.2,3.8-1.2,5-4.4
		C709.9,533,706.3,529.7,704.2,528.6z"/>
	<path class="st5" d="M750,539.3c0.1,0,0.3,0,0.4-0.1c0.3-0.2,7.5-4.9,12.9-19.8c5.2-14.3,23.3-22,23.4-22.1c0.4-0.2,0.6-0.6,0.4-1
		c-0.2-0.4-0.6-0.6-1-0.4c-0.8,0.3-18.9,8-24.3,23c-5.2,14.3-12.2,19-12.3,19c-0.3,0.2-0.5,0.7-0.2,1
		C749.5,539.2,749.7,539.3,750,539.3z"/>
	<path class="st5" d="M755.9,538.8c-0.4,0.1-0.7,0.5-0.6,0.9c0.1,0.3,0.4,0.6,0.7,0.6c0.1,0,0.1,0,0.2,0c24-5.7,33.2-38.2,33.3-38.5
		c0.1-0.4-0.1-0.8-0.5-0.9c-0.4-0.1-0.8,0.1-0.9,0.5C788,501.7,779,533.4,755.9,538.8z"/>
	<path class="st5" d="M748.9,549.7c-0.4,0.1-0.6,0.5-0.5,0.9c0.1,0.4,0.5,0.6,0.9,0.5c0.3-0.1,26-7.4,61.4,20
		c0.1,0.1,0.3,0.2,0.5,0.2c0.2,0,0.4-0.1,0.6-0.3c0.3-0.3,0.2-0.8-0.1-1.1C775.6,542,749.1,549.6,748.9,549.7z"/>
	<path class="st5" d="M803.7,573c-39,4.1-62-14.3-62.3-14.5c-0.3-0.3-0.8-0.2-1.1,0.1c-0.3,0.3-0.2,0.8,0.1,1.1
		c0.2,0.2,19.2,15.4,52.1,15.4c3.6,0,7.4-0.2,11.3-0.6c0.4,0,0.7-0.4,0.7-0.8C804.5,573.3,804.1,573,803.7,573z"/>
	<path class="st4" d="M820.2,573c-7.2-19.5-34.9-27-36.1-27.3c-4.7-1.1-5.5-2.4-5.6-2.8c-0.1-0.6,0.5-1.2,0.5-1.2
		c28.6-21.5,13.7-50,13.5-50.3c-0.1-0.2-0.4-0.4-0.7-0.4c-30.6,0.9-40.3,23.1-46.7,37.8l-0.4,0.9c-1.5,3.5-3.8,5.8-6.7,6.9
		c-5.9,2.2-13.2-1.4-16-2.8c-0.5-0.2-0.8-0.4-1.1-0.5c-1.6-0.6-3.2-1.9-4.7-3.2c-0.6-0.5-1.3-1-1.9-1.5l-4-3
		c-16.6-12.4-32.2-24-51-32.3c-14.3-6.3-27.6-11.4-40.6-15.5c-19.9-6.3-40.6-11.2-61.6-14.3c-61.4-9.3-83.2,6.6-84.1,7.3
		c-0.2,0.1-0.3,0.3-0.3,0.5c-2,0.1-4,0.5-6.1,1.5c-13.7,6.3-6.1,24.7-5.7,25.5c0.7,2,1.6,3,2.8,3.1c0,0,0.1,0,0.1,0
		c0.5,0,1-0.2,1.5-0.6c3.8,18,15.2,33,33.8,44.5c6.1,3.8,12.7,7,19.9,9.9c0.1,0.1,0.2,0.1,0.3,0.1c35.4,14.3,81.5,18.4,116.8,19.1
		c47.9,1,85.6-3.8,87-4.1c3.9-1,6.7-0.2,7.1,0c19.9,11.1,37.2,14.3,50.8,14.3c5.3,0,10.1-0.5,14.1-1.2c15.5-2.8,24.4-9.2,24.8-9.4
		C820.2,573.6,820.3,573.3,820.2,573z M464,499.8C464,499.8,464,499.8,464,499.8c-0.5,0-1-0.8-1.5-2.1c0,0,0,0,0-0.1
		c-0.3-0.7-7.7-17.8,5-23.6c2.1-1,4.1-1.4,6.1-1.4c7.1,0,13.3,5.4,17.7,9.9c0.3,0.4,1.1,1.7,0.8,2.6c-0.3,0.6-1.3,1-2.8,1.1
		c-0.4,0-0.9,0.1-1.4,0.1c-6.1,0.4-16.3,1.1-21.4,10.3C466,497.9,464.8,499.8,464,499.8z M519.4,553.7c-6.9-2.8-13.4-6-19.3-9.7
		c-18.4-11.4-29.6-26.2-33.2-44c0-0.2-0.1-0.3-0.3-0.4c0.7-0.9,1.2-2,1.4-2.3c4.6-8.4,13.9-9,20.1-9.4c0.5,0,0.9-0.1,1.4-0.1
		c2.2-0.2,3.5-0.8,4-2c0.8-1.8-0.8-3.9-1-4.1c-2.6-2.7-9.2-9.5-17.3-10.3c4.6-2.8,26.6-13.6,76.2-7.2c1.2,1.2,9.7,9.7,8.9,27.6
		c-0.9,19.5-11.7,25.4-14.5,26c-3.1,0.6-37.3-1.2-40.9-1.8c-2-0.3-4.7-0.5-5.5,1.2c-0.7,1.6,0.1,4.8,12.6,15.5
		c6.4,5.5,9.7,10.8,9.7,15.4C521.6,551.1,520.1,553,519.4,553.7z M722.8,568.8c-1.3,0.4-39.8,5-86.6,4.1
		c-34.8-0.7-80.3-4.7-115.3-18.6c0.9-1.1,2.2-3.2,2.2-6.2c0-5.1-3.4-10.7-10.2-16.6c-12.3-10.6-12.4-13.2-12.2-13.8
		c0.1-0.1,0.6-0.8,3.9-0.3c3.9,0.6,38.1,2.4,41.4,1.8c3.3-0.6,12.2-5.7,15-20.6c5.6,4.5,10.2,6.7,14,6.7c0.9,0,1.7-0.1,2.4-0.3
		c4.7-1.3,7-6.4,8.6-11.1c1.6-4.5,1.3-9.5-0.8-13.6c-1.5-3.1-3.9-5.4-6.5-6.3c-4.8-1.6-15.3,2.4-18.4,3.6c-1.8-6.7-4.7-10.9-6.6-13
		c1.1,0.2,2.2,0.3,3.4,0.5c20.8,3.1,41.5,8,61.3,14.3c12.9,4.1,26.1,9.2,40.4,15.5c18.6,8.2,34.2,19.8,50.7,32.1l4,3
		c0.6,0.4,1.2,0.9,1.8,1.4c1.6,1.3,3.3,2.7,5.1,3.4c0.2,0.1,0.5,0.2,1,0.5c2.9,1.4,10.6,5.2,17.2,2.8c0.4-0.1,0.7-0.3,1.1-0.5
		c0.1,1,0.4,6.4-5,9.8c-0.2,0.1-0.3,0.3-0.2,0.5c0,0.1,3,12.5-4,20.7c0,0-0.1,0.1-0.1,0.2C729.5,568.4,726.6,567.8,722.8,568.8z
		 M560.7,478.9c2.6-1.1,13.1-5.1,17.5-3.7c2.2,0.7,4.3,2.7,5.6,5.5c1.9,3.8,2.1,8.4,0.7,12.5c-1.5,4.4-3.6,9-7.6,10.2
		c-3.8,1.1-9-1.1-15.5-6.4c-0.1-0.1-0.2-0.1-0.3-0.1c0.2-1.6,0.4-3.3,0.5-5.2C561.9,486.8,561.5,482.5,560.7,478.9z M731.4,569.1
		c6.7-7.8,4.7-19,4.2-21.1c6.1-4.1,5.1-10.7,5.1-10.8c0-0.1,0-0.1-0.1-0.2c2.3-1.4,4.2-3.6,5.5-6.7l0.4-0.9
		c6.3-14.3,15.7-35.8,44.9-36.9c1.8,3.6,12.7,28.4-13.3,48c-0.5,0.4-1.4,1.4-1.1,2.7c0.4,1.7,2.6,3,6.7,4
		c0.3,0.1,27.6,7.5,34.8,25.8C814.2,575.8,780.2,596.1,731.4,569.1z"/>
	<path class="st7" d="M531.1,488.8c-0.7,0-1.5,0-2.2-0.2c-3.3-0.4-6.3-1.9-8.4-4c-2.2-2.2-3.2-4.8-2.8-7.4c0.7-5.3,6.9-8.9,13.9-8
		c6.9,0.9,12,6.1,11.2,11.4l0,0c-0.4,2.6-2,4.9-4.7,6.4C536.1,488.2,533.6,488.8,531.1,488.8z M529.3,470.6c-5.3,0-9.6,2.8-10.2,6.8
		c-0.3,2.2,0.6,4.3,2.4,6.2c1.9,1.9,4.6,3.1,7.6,3.5c3,0.4,5.9-0.1,8.2-1.4c2.3-1.3,3.7-3.2,3.9-5.3l0,0c0.6-4.5-3.9-8.9-10-9.7
		C530.6,470.7,530,470.6,529.3,470.6z M542,480.6L542,480.6L542,480.6z"/>
	<ellipse transform="matrix(0.1344 -0.9909 0.9909 0.1344 -15.435 939.8135)" class="st8" cx="530.2" cy="478.7" rx="6" ry="8"/>
	<path class="st1" d="M539.6,496.7c-0.4,0-0.7-0.1-1.1-0.2c-1.8-0.9-2.3-3.7-2.3-4c-0.1-0.4,0.2-0.8,0.6-0.8
		c0.4-0.1,0.8,0.2,0.8,0.6c0.1,0.6,0.5,2.4,1.5,2.9c0.4,0.2,1,0.1,1.7-0.3c0.7-0.5,0.7-0.9,0.7-1c0-1.2-2.1-3-3.4-3.8
		c-0.4-0.2-0.5-0.7-0.2-1c0.2-0.4,0.7-0.5,1-0.2c0.4,0.3,4.1,2.6,4.1,5.1c0,0.6-0.3,1.6-1.5,2.3
		C540.9,496.5,540.3,496.7,539.6,496.7z"/>
	<path class="st1" d="M546.6,505.8c-0.1,0-0.1,0-0.2,0c-1.6-0.1-3.4-1.2-3.6-3c0-0.4,0.2-0.8,0.7-0.8c0.4,0,0.8,0.2,0.8,0.7
		c0.1,1,1.2,1.7,2.2,1.7c0.4,0,1.3,0,1.5-0.9c0.4-1.7-2.3-4-3.3-4.7c-0.3-0.2-0.4-0.7-0.2-1c0.2-0.3,0.7-0.4,1-0.2
		c0.5,0.3,4.5,3.3,3.9,6.3C549.1,505,548,505.8,546.6,505.8z"/>
	<path class="st4" d="M464.4,492.6c0,0-3.3-11.2,4.7-14.7c0,0,8.4-5.1,16.9,4.7C486,482.7,470.3,482.9,464.4,492.6z"/>
	<path class="st9" d="M783.7,547.1c-4.1-1-6.3-2.3-6.7-4c-0.3-1.2,0.6-2.3,1.1-2.7c17.4-13,18.3-28.4,16.5-38.3
		c-2.2,9.6-9.6,36.8-25.1,39.8c-18.9,3.7-0.3,3.6,5.5,4.7c5.1,1,29.5,13,42.4,23.6C808.8,553.9,784,547.2,783.7,547.1z"/>
	<path class="st9" d="M517.6,552.2c0,0-0.1,0-0.1,0c-0.1-0.1-0.2-0.2-0.1-0.3c3.6-7.8-12-22.4-20.6-29.1c-2.7-2.1-3.8-4.8-2.9-7.4
		c0.9-2.7,3.8-4.7,6.8-4.7c5.2,0,10.4,0.5,15.5,0.9c1.9,0.2,3.9,0.4,5.8,0.5c4.6,0.4,9.3,0.7,13.9,1.1c0.9,0.1,1.7,0.2,2.6,0.2
		c5.1,0.5,9.5,1,14-2.7c0.1-0.1,0.3-0.1,0.4,0c0.1,0.1,0.1,0.3,0,0.4c-4.6,3.8-9.1,3.4-14.3,2.8c-0.8-0.1-1.7-0.2-2.6-0.2
		c-4.6-0.4-9.3-0.7-13.9-1.1c-1.9-0.1-3.9-0.3-5.8-0.5c-5.1-0.5-10.3-0.9-15.5-0.9c-2.7,0-5.5,1.9-6.3,4.4c-0.5,1.4-0.8,4.2,2.7,6.8
		c9.5,7.3,24.5,21.7,20.8,29.7C517.8,552.1,517.7,552.2,517.6,552.2z"/>
	<linearGradient id="SVGID_3_" gradientUnits="userSpaceOnUse" x1="619.4881" y1="570.8656" x2="634.239" y2="533.7927">
		<stop  offset="0" style="stop-color:#FCF1DA"/>
		<stop  offset="1" style="stop-color:#ED7751"/>
	</linearGradient>
	<path class="st10" d="M722.8,568.8c1-0.3,2-0.4,2.9-0.5c-7.7-1-21.6-2.3-30.1-0.6c-10,2-110.6,1.1-172.7-17.7c-0.4,2-1.3,3.4-2,4.2
		c35.1,13.9,80.5,17.9,115.3,18.6C683,573.8,721.5,569.1,722.8,568.8z"/>
	<linearGradient id="SVGID_4_" gradientUnits="userSpaceOnUse" x1="502.909" y1="544.32" x2="504.7136" y2="539.7845">
		<stop  offset="0" style="stop-color:#FCF1DA"/>
		<stop  offset="1" style="stop-color:#ED7751"/>
	</linearGradient>
	<path class="st11" d="M486.7,533.3l-0.3,0.3c4,3.7,8.6,7.2,13.7,10.4c5.9,3.7,12.4,6.9,19.3,9.7c0.5-0.6,1.6-1.9,2-4.1
		C507.2,545.2,495.1,539.8,486.7,533.3z"/>
	<g>
		<path class="st4" d="M595.7,566.4c-1.4,0-3-0.3-4.4-1c-5.1-2.6-7.8-9.8-8.1-21.5c0-0.2,0.1-0.5,0.3-0.6c0.2-0.1,0.4-0.2,0.7-0.1
			c0.1,0,8.2,2.3,13.7,2.9c0.1,0,0.3,0.1,0.4,0.2c0.1,0.1,13.3,10.1,19,11.2c1.8,0.3,2.2,1.3,2.4,1.8c0.3,1.2-0.6,2.7-2.3,4
			c-3.2,2.4-8.6,3.5-13.5,0.9C602.6,564.6,599.3,566.4,595.7,566.4z M584.7,544.8c0.4,10.5,2.9,17,7.3,19.2
			c5.1,2.6,11.2-1.5,11.3-1.6c0.2-0.2,0.6-0.2,0.8,0c5,3,10.1,1,12.2-0.6c1.3-1,1.9-2,1.8-2.4c-0.1-0.4-0.8-0.6-1.2-0.7
			c-5.8-1-17.9-10.1-19.5-11.3C592.9,546.9,587,545.4,584.7,544.8z"/>
		<path class="st2" d="M584.7,544.8c0.4,10.5,2.9,17,7.3,19.2c5.1,2.6,11.2-1.5,11.3-1.6c0.2-0.2,0.6-0.2,0.8,0c5,3,10.1,1,12.2-0.6
			c1.3-1,1.9-2,1.8-2.4c-0.1-0.4-0.8-0.6-1.2-0.7c-5.8-1-17.9-10.1-19.5-11.3C592.9,546.9,587,545.4,584.7,544.8z"/>
		<path class="st5" d="M596.9,562.4c-0.1,0-0.2,0-0.3-0.1c-4.1-3.4-8.3-13-8.5-13.5c-0.1-0.3,0-0.5,0.3-0.7c0.3-0.1,0.5,0,0.7,0.3
			c0,0.1,4.3,9.9,8.2,13.1c0.2,0.2,0.2,0.5,0.1,0.7C597.2,562.4,597.1,562.4,596.9,562.4z"/>
		<path class="st5" d="M607,560.5c-0.1,0-0.2,0-0.3-0.1c-5.9-3.5-11.9-11.1-12.1-11.4c-0.2-0.2-0.1-0.5,0.1-0.7
			c0.2-0.2,0.5-0.1,0.7,0.1c0.1,0.1,6.1,7.8,11.9,11.2c0.2,0.1,0.3,0.4,0.2,0.7C607.4,560.4,607.2,560.5,607,560.5z"/>
	</g>
	<g>
		<path class="st4" d="M695.6,577.8c-3.1,0-7-0.5-11.8-1.8c-2.2,0.4-21.7,3.2-37.5-17.2c-0.2-0.2-0.2-0.6-0.1-0.8
			c0.2-0.3,0.5-0.4,0.8-0.4c0.4,0.1,41,6.9,51.9,7.2c0.2,0,0.3,0.1,0.5,0.2c0.1,0.1,8.1,7.1,12.1,8.1c0.2,0,0.4,0.2,0.5,0.3
			c0.2,0.3,0.3,0.8,0,1.3c-0.4,0.7-1.6,1.5-6.9,1.2C704.1,576.4,701.1,577.8,695.6,577.8z M683.8,574.5c0.1,0,0.1,0,0.2,0
			c14,4,20.3,0,20.4,0c0.1-0.1,0.3-0.1,0.5-0.1c3,0.2,4.4,0,5.1-0.2c-4.1-1.6-10.3-6.8-11.5-7.9c-10.1-0.4-41.6-5.5-49.9-6.9
			c15.9,18.9,34.8,15.1,35,15.1C683.7,574.5,683.7,574.5,683.8,574.5z"/>
		<path class="st2" d="M683.8,574.5c0.1,0,0.1,0,0.2,0c14,4,20.3,0,20.4,0c0.1-0.1,0.3-0.1,0.5-0.1c3,0.2,4.4,0,5.1-0.2
			c-4.1-1.6-10.3-6.8-11.5-7.9c-10.1-0.4-41.6-5.5-49.9-6.9c15.9,18.9,34.8,15.1,35,15.1C683.7,574.5,683.7,574.5,683.8,574.5z"/>
		<path class="st5" d="M669.7,571.8c-0.1,0-0.2,0-0.2-0.1c-5.8-2.9-12.9-9.1-13.2-9.4c-0.2-0.2-0.2-0.5,0-0.7c0.2-0.2,0.5-0.2,0.7,0
			c0.1,0.1,7.4,6.5,13,9.3c0.2,0.1,0.3,0.4,0.2,0.7C670,571.7,669.9,571.8,669.7,571.8z"/>
		<path class="st5" d="M679,572.8c-0.1,0-0.1,0-0.2,0c-5.9-2.5-12.3-8-12.6-8.2c-0.2-0.2-0.2-0.5-0.1-0.7c0.2-0.2,0.5-0.2,0.7-0.1
			c0.1,0.1,6.6,5.6,12.3,8.1c0.3,0.1,0.4,0.4,0.3,0.7C679.4,572.7,679.2,572.8,679,572.8z"/>
		<path class="st5" d="M693.5,575.6C693.4,575.6,693.4,575.6,693.5,575.6c-5.4-1-17.7-8.5-18.3-8.8c-0.2-0.1-0.3-0.5-0.2-0.7
			c0.1-0.2,0.5-0.3,0.7-0.2c0.1,0.1,12.7,7.7,17.8,8.7c0.3,0,0.5,0.3,0.4,0.6C693.9,575.5,693.7,575.6,693.5,575.6z"/>
		<path class="st5" d="M700.1,574.3c0,0-0.1,0-0.1,0c-6.9-2.1-12.8-7-13.1-7.2c-0.2-0.2-0.2-0.5-0.1-0.7c0.2-0.2,0.5-0.2,0.7-0.1
			c0.1,0,6,4.9,12.7,7c0.3,0.1,0.4,0.4,0.3,0.6C700.5,574.2,700.3,574.3,700.1,574.3z"/>
	</g>
</g>
<g>
	<g>
		<g>
			<g>
				
					<linearGradient id="SVGID_5_" gradientUnits="userSpaceOnUse" x1="1015.0013" y1="381.4819" x2="1100.0723" y2="381.4819" gradientTransform="matrix(-1 0 0 1 1618.9467 0)">
					<stop  offset="0" style="stop-color:#EFD97F"/>
					<stop  offset="0.1978" style="stop-color:#EFD87C"/>
					<stop  offset="0.3726" style="stop-color:#EED571"/>
					<stop  offset="0.5387" style="stop-color:#EDCF5F"/>
					<stop  offset="0.6984" style="stop-color:#EBC845"/>
					<stop  offset="0.7526" style="stop-color:#EAC53B"/>
					<stop  offset="1" style="stop-color:#E5AD14"/>
				</linearGradient>
				<path class="st12" d="M518.7,357.3l8.1-18.4c0-0.5,0.1-1,0.2-1.5c0-0.2,0.1-0.3,0.1-0.5c0.1-0.4,0.1-0.7,0.2-1.1
					c0-0.2,0.1-0.4,0.1-0.5c0.1-0.4,0.2-0.8,0.4-1.2c0-0.1,0.1-0.3,0.1-0.4c0.2-0.5,0.4-1.1,0.6-1.6c0.1-0.1,0.1-0.3,0.2-0.4
					c0.2-0.4,0.3-0.8,0.5-1.2c0.1-0.2,0.2-0.4,0.3-0.6c0.2-0.4,0.4-0.7,0.5-1.1c0.1-0.2,0.2-0.4,0.3-0.6c3-5.6,7.1-11,10.1-14.5
					c0.1-0.1,0.2-0.2,0.3-0.4c15.8,19.9,33.8,47.3,47.8,81.6c0,0,13,12.4,13,29.8c0,17.4-13.3,23.1-20.6,21.5l0,0
					c-8.2,7-19.6,2.7-21.9-8.7l-0.1-0.2c-0.5,0.3-1,0.6-1.6,0.9c-4.9,2.4-11.3-0.6-13.3-5l0,0l0,0c-0.1-0.2-0.2-0.3-0.2-0.5l0.2-0.1
					l-1.6-14.1l0.5-0.1v-3.6l0.7-2.5c-0.3-0.7-0.6-1.5-0.9-2.3l-0.7-1l-0.9-2.4l-0.1-0.7c-2.7-6.5-6.6-15.4-11.8-26
					c-3.4-7-7.4-14.3-11.2-21L518.7,357.3z"/>
			</g>
			<path class="st13" d="M569.3,417.4c0,0,2.5,19.1-8.3,25.4l-2-5.3C559,437.5,570.6,431.5,569.3,417.4z"/>
			<path class="st13" d="M587.9,423.4c0,0,5,12.8,1.3,21.9c0,0-3.4,1.3-8.4,0.9C580.9,446.2,589.4,441.8,587.9,423.4z"/>
			<path class="st14" d="M569.6,423.4c0,0,0.1,11.4-9.5,15.7l-0.4-1.7C559.7,437.4,569.8,428.3,569.6,423.4z"/>
			<path class="st14" d="M588.8,430.1c0,0,0.7,10.6-5,16.2l-3.5-0.3C580.3,446.1,587.9,439,588.8,430.1z"/>
			<path class="st15" d="M518.7,357.3l8.1-18.4c0-0.5,0.1-1,0.2-1.5c0-0.2,0.1-0.3,0.1-0.5c0.1-0.4,0.1-0.7,0.2-1.1
				c0-0.2,0.1-0.4,0.1-0.5c0.1-0.4,0.2-0.8,0.4-1.2c0-0.1,0.1-0.3,0.1-0.4c0.2-0.5,0.4-1.1,0.6-1.6c0.1-0.1,0.1-0.3,0.2-0.4
				c0.2-0.4,0.3-0.8,0.5-1.2c0.1-0.2,0.2-0.4,0.3-0.6c0.2-0.4,0.4-0.7,0.5-1.1c0.1-0.2,0.2-0.4,0.3-0.6c0-0.1,0.1-0.2,0.1-0.2
				c10.8,21.3,22.4,49.5,23.1,73.6c0,0-13.4,17-8.5,33.3c-0.4-0.5-0.7-1-0.9-1.6l0,0l0,0c-0.1-0.2-0.2-0.3-0.2-0.5l0.2-0.1
				l-1.6-14.1l0.5-0.1v-3.6l0.9-3.1L542,409l-1-2.5l-20-43.6c0,0-1.1-1.3-2.9-4.2L518.7,357.3z"/>
			<g>
				<path class="st14" d="M542.9,413.5l-0.5-1.1c0,0,0,0,0-0.1c-0.2-0.4-13.2-29-24.9-52l1.3-3l0,0c10.8,20.8,22.7,47,25.4,52.8
					c0.5-1.2,0.9-1.7,0.9-1.7l0,0c1.1-1.9,2.4-3.5,2.5-3.6c0.2-0.3,0.6-0.3,0.9-0.1c0.3,0.2,0.3,0.6,0.1,0.9
					c-0.2,0.3-0.5,0.6-0.9,1.1c0,0-7,10.6-3.1,25.8h0c0.8,2.2,2.8,4.2,5.4,5.3c2.5,1,5.1,1,7.2-0.1c8.5-4.3,13.1-13.4,11.2-22.3
					c-0.1-0.3,0.1-0.7,0.5-0.8c0.3-0.1,0.7,0.1,0.8,0.5c1.9,8.7-2.1,17.6-9.9,22.5c1.2,5.4,4.6,9.5,9.1,10.9c4.4,1.3,8.9,0,12.6-3.6
					c8.9-8.9,5.5-22.4,5.5-22.5c-0.1-0.3,0.1-0.7,0.5-0.8c0.3-0.1,0.7,0.1,0.8,0.5c0,0.1,3.6,14.3-5.8,23.8c0,0,0,0,0,0
					c3,0.3,7.3-0.5,11.2-3.7c3.3-2.7,7.3-7.9,7.3-17.4c0-17-12.6-29.2-12.8-29.3c-0.1-0.1-0.1-0.1-0.2-0.2
					c-14-34.3-32-61.5-47.7-81.3c0.1-0.1,0.1-0.2,0.2-0.2c1.1-1.3,2.1-2.4,2.7-3c0,0,0,0,0,0c5.2,6.5,10.7,13.8,16,22l0,0
					c0,0,25.9,38.6,31.6,60.1c7,9.1,20.2,30.1,7.6,46.1c-1.2,1.8-2.6,3.2-3.9,4.3c-0.5,0.4-1,0.8-1.6,1.1c-0.1,0.1-0.2,0.1-0.2,0.1
					c0,0,0.1,0,0.1-0.1c-2.9,1.8-6.1,2.8-9.2,2.8c-0.8,0-1.6-0.1-2.4-0.2c-2.7,2.2-5.8,3.4-8.9,3.4c-1.2,0-2.5-0.2-3.7-0.5
					c-4.9-1.5-8.6-5.7-9.9-11.4c-0.3,0.2-0.6,0.3-0.9,0.5c-1.2,0.6-2.6,0.9-4.1,0.9c-1.4,0-2.8-0.3-4.2-0.8
					c-2.7-1.1-4.8-3.1-5.9-5.4h0c0,0,0-0.1-0.1-0.2c-0.1-0.1-0.1-0.3-0.2-0.4l0,0c0,0-1.1-2.6-1.4-7c-0.2-1.8-0.2-3.7-0.1-5.9
					C541.9,417.4,542.4,415.2,542.9,413.5z"/>
			</g>
		</g>
	</g>
	<g>
		<g>
			
				<linearGradient id="SVGID_6_" gradientUnits="userSpaceOnUse" x1="789.0013" y1="381.4819" x2="874.0723" y2="381.4819" gradientTransform="matrix(1 0 0 1 -498.1536 0)">
				<stop  offset="0" style="stop-color:#EFD97F"/>
				<stop  offset="0.1978" style="stop-color:#EFD87C"/>
				<stop  offset="0.3726" style="stop-color:#EED571"/>
				<stop  offset="0.5387" style="stop-color:#EDCF5F"/>
				<stop  offset="0.6984" style="stop-color:#EBC845"/>
				<stop  offset="0.7526" style="stop-color:#EAC53B"/>
				<stop  offset="1" style="stop-color:#E5AD14"/>
			</linearGradient>
			<path class="st16" d="M376.1,357.3l-8.1-18.4c0-0.5-0.1-1-0.2-1.5c0-0.2-0.1-0.3-0.1-0.5c-0.1-0.4-0.1-0.7-0.2-1.1
				c0-0.2-0.1-0.4-0.1-0.5c-0.1-0.4-0.2-0.8-0.4-1.2c0-0.1-0.1-0.3-0.1-0.4c-0.2-0.5-0.4-1.1-0.6-1.6c-0.1-0.1-0.1-0.3-0.2-0.4
				c-0.2-0.4-0.3-0.8-0.5-1.2c-0.1-0.2-0.2-0.4-0.3-0.6c-0.2-0.4-0.4-0.7-0.5-1.1c-0.1-0.2-0.2-0.4-0.3-0.6c-3-5.6-7.1-11-10.1-14.5
				c-0.1-0.1-0.2-0.2-0.3-0.4c-15.8,19.9-33.8,47.3-47.8,81.6c0,0-13,12.4-13,29.8c0,17.4,13.3,23.1,20.6,21.5l0,0
				c8.2,7,19.6,2.7,21.9-8.7l0.1-0.2c0.5,0.3,1,0.6,1.6,0.9c4.9,2.4,11.3-0.6,13.3-5l0,0l0,0c0.1-0.2,0.2-0.3,0.2-0.5l-0.2-0.1
				l1.6-14.1l-0.5-0.1v-3.6l-0.7-2.5c0.3-0.7,0.6-1.5,0.9-2.3l0.7-1l0.9-2.4l0.1-0.7c2.7-6.5,6.6-15.4,11.8-26
				c3.4-7,7.4-14.3,11.2-21L376.1,357.3z"/>
		</g>
		<path class="st13" d="M325.5,417.4c0,0-2.5,19.1,8.3,25.4l2-5.3C335.8,437.5,324.2,431.5,325.5,417.4z"/>
		<path class="st13" d="M306.9,423.4c0,0-5,12.8-1.3,21.9c0,0,3.4,1.3,8.4,0.9C313.9,446.2,305.3,441.8,306.9,423.4z"/>
		<path class="st14" d="M325.2,423.4c0,0-0.1,11.4,9.5,15.7l0.4-1.7C335.1,437.4,325,428.3,325.2,423.4z"/>
		<path class="st14" d="M306,430.1c0,0-0.7,10.6,5,16.2l3.5-0.3C314.5,446.1,306.9,439,306,430.1z"/>
		<path class="st15" d="M376.1,357.3l-8.1-18.4c0-0.5-0.1-1-0.2-1.5c0-0.2-0.1-0.3-0.1-0.5c-0.1-0.4-0.1-0.7-0.2-1.1
			c0-0.2-0.1-0.4-0.1-0.5c-0.1-0.4-0.2-0.8-0.4-1.2c0-0.1-0.1-0.3-0.1-0.4c-0.2-0.5-0.4-1.1-0.6-1.6c-0.1-0.1-0.1-0.3-0.2-0.4
			c-0.2-0.4-0.3-0.8-0.5-1.2c-0.1-0.2-0.2-0.4-0.3-0.6c-0.2-0.4-0.4-0.7-0.5-1.1c-0.1-0.2-0.2-0.4-0.3-0.6c0-0.1-0.1-0.2-0.1-0.2
			c-10.8,21.3-22.4,49.5-23.1,73.6c0,0,13.4,17,8.5,33.3c0.4-0.5,0.7-1,0.9-1.6l0,0l0,0c0.1-0.2,0.2-0.3,0.2-0.5l-0.2-0.1l1.6-14.1
			l-0.5-0.1v-3.6l-0.9-3.1l1.8-2.7l1-2.5l20-43.6c0,0,1.1-1.3,2.9-4.2L376.1,357.3z"/>
		<g>
			<path class="st14" d="M351.9,413.5l0.5-1.1c0,0,0,0,0-0.1c0.2-0.4,13.2-29,24.9-52l-1.3-3l0,0c-10.8,20.8-22.7,47-25.4,52.8
				c-0.5-1.2-0.9-1.7-0.9-1.7l0,0c-1.1-1.9-2.4-3.5-2.5-3.6c-0.2-0.3-0.6-0.3-0.9-0.1c-0.3,0.2-0.3,0.6-0.1,0.9
				c0.2,0.3,0.5,0.6,0.9,1.1c0,0,7,10.6,3.1,25.8h0c-0.8,2.2-2.8,4.2-5.4,5.3c-2.5,1-5.1,1-7.2-0.1c-8.5-4.3-13.1-13.4-11.2-22.3
				c0.1-0.3-0.1-0.7-0.5-0.8c-0.3-0.1-0.7,0.1-0.8,0.5c-1.9,8.7,2.1,17.6,9.9,22.5c-1.2,5.4-4.6,9.5-9.1,10.9
				c-4.4,1.3-8.9,0-12.6-3.6c-8.9-8.9-5.5-22.4-5.5-22.5c0.1-0.3-0.1-0.7-0.5-0.8c-0.3-0.1-0.7,0.1-0.8,0.5c0,0.1-3.6,14.3,5.8,23.8
				c0,0,0,0,0,0c-3,0.3-7.3-0.5-11.2-3.7c-3.3-2.7-7.3-7.9-7.3-17.4c0-17,12.6-29.2,12.8-29.3c0.1-0.1,0.1-0.1,0.2-0.2
				c14-34.3,32-61.5,47.7-81.3c-0.1-0.1-0.1-0.2-0.2-0.2c-1.1-1.3-2.1-2.4-2.7-3c0,0,0,0,0,0c-5.2,6.5-10.7,13.8-16,22l0,0
				c0,0-25.9,38.6-31.6,60.1c-7,9.1-20.2,30.1-7.6,46.1c1.2,1.8,2.6,3.2,3.9,4.3c0.5,0.4,1,0.8,1.6,1.1c0.1,0.1,0.2,0.1,0.2,0.1
				c0,0-0.1,0-0.1-0.1c2.9,1.8,6.1,2.8,9.2,2.8c0.8,0,1.6-0.1,2.4-0.2c2.7,2.2,5.8,3.4,8.9,3.4c1.2,0,2.5-0.2,3.7-0.5
				c4.9-1.5,8.6-5.7,9.9-11.4c0.3,0.2,0.6,0.3,0.9,0.5c1.2,0.6,2.6,0.9,4.1,0.9c1.4,0,2.8-0.3,4.2-0.8c2.7-1.1,4.8-3.1,5.9-5.4h0
				c0,0,0-0.1,0.1-0.2c0.1-0.1,0.1-0.3,0.2-0.4l0,0c0,0,1.1-2.6,1.4-7c0.2-1.8,0.2-3.7,0.1-5.9C352.9,417.4,352.4,415.2,351.9,413.5
				z"/>
		</g>
	</g>
</g>
</svg>
