<?xml version="1.0" encoding="utf-8"?>
<!-- Generator: Adobe Illustrator 21.0.0, SVG Export Plug-In . SVG Version: 6.00 Build 0)  -->
<svg version="1.1" id="圖層_1" xmlns="http://www.w3.org/2000/svg" xmlns:xlink="http://www.w3.org/1999/xlink" x="0px" y="0px"
	 viewBox="0 0 822.9 601.4" style="enable-background:new 0 0 822.9 601.4;" xml:space="preserve">
<style type="text/css">
	.st0{fill:url(#SVGID_1_);}
	.st1{fill:#E1BE3F;}
	.st2{fill:#AB6C21;}
	.st3{opacity:0.6;fill:#E1BE3F;enable-background:new    ;}
	.st4{fill:url(#SVGID_2_);}
	.st5{fill:#5F5F5F;}
	.st6{fill:url(#SVGID_3_);}
	.st7{opacity:0.6;fill:url(#SVGID_4_);enable-background:new    ;}
	.st8{fill:url(#SVGID_5_);}
	.st9{fill:url(#SVGID_6_);}
	.st10{opacity:0.6;}
	.st11{fill:#E2BF40;}
	.st12{fill:#AC6D21;}
	.st13{fill:url(#SVGID_7_);}
	.st14{fill:#FFFFFF;}
	.st15{fill:#814323;}
	.st16{fill:#F4E3A5;}
	.st17{fill:#C88E2C;}
	.st18{fill:#AC7327;}
	.st19{fill:url(#SVGID_8_);}
	.st20{fill:url(#SVGID_9_);}
	.st21{fill:#EAA593;}
	.st22{fill:#3F210F;}
	.st23{opacity:0.25;fill:#E1BE3F;enable-background:new    ;}
	.st24{opacity:0.5;fill:#E1BE3F;enable-background:new    ;}
	.st25{fill:#F8E5A9;}
	.st26{fill:#DDBC90;}
	.st27{fill:#D7C6A6;}
	.st28{fill:url(#SVGID_10_);}
	.st29{fill:#4A1E0E;}
	.st30{opacity:0.4;fill:#E1BE3F;enable-background:new    ;}
	.st31{opacity:0.72;fill:#E1BE3F;enable-background:new    ;}
	.st32{fill:#875424;}
	.st33{fill:#3F210E;}
	.st34{fill:#3A1D13;}
	.st35{fill:url(#SVGID_11_);}
	.st36{fill:url(#SVGID_12_);}
	.st37{fill:#C58333;}
	.st38{fill:url(#SVGID_13_);}
	.st39{fill:url(#SVGID_14_);}
	.st40{fill:url(#SVGID_15_);}
	.st41{fill:url(#SVGID_16_);}
	.st42{fill:#FDEDD0;}
	.st43{fill:none;stroke:#FDEDD0;stroke-width:0.8715;stroke-linecap:round;stroke-linejoin:round;stroke-miterlimit:10;}
	.st44{fill:url(#SVGID_17_);}
	.st45{fill:url(#SVGID_18_);}
	.st46{opacity:0.8;fill:url(#SVGID_19_);enable-background:new    ;}
	.st47{opacity:0.6;fill:#5F5F5F;enable-background:new    ;}
	.st48{opacity:0.5;fill:url(#SVGID_20_);enable-background:new    ;}
	.st49{fill:url(#SVGID_21_);}
	.st50{fill:url(#SVGID_22_);}
	.st51{opacity:0.8;fill:#FFFFFF;enable-background:new    ;}
	.st52{opacity:0.5;fill:url(#SVGID_23_);enable-background:new    ;}
	.st53{fill:url(#SVGID_24_);}
	.st54{fill:url(#SVGID_25_);}
	.st55{fill:url(#SVGID_26_);}
	.st56{fill:url(#SVGID_27_);}
	.st57{opacity:0.6;fill:#E2BF40;enable-background:new    ;}
	.st58{fill:url(#SVGID_28_);}
	.st59{fill:url(#SVGID_29_);}
	.st60{fill:url(#SVGID_30_);}
	.st61{fill:url(#SVGID_31_);}
	.st62{fill:url(#SVGID_32_);}
	.st63{fill:url(#SVGID_33_);}
	.st64{fill:#2D613A;}
	.st65{fill:#E2F0E3;}
	.st66{opacity:0.6;fill:#B9DCB9;enable-background:new    ;}
	.st67{fill:none;stroke:#FFFFFF;stroke-width:1.1894;stroke-linecap:round;stroke-miterlimit:10;}
	.st68{fill:url(#SVGID_34_);}
	.st69{fill:#C8C9CA;}
	.st70{fill:#E4CEA9;}
	.st71{fill:#CF361C;}
	.st72{fill:#C9A675;}
	.st73{fill:#B8761E;}
	.st74{fill:#8A2221;}
	.st75{fill:url(#SVGID_35_);}
	.st76{fill:url(#SVGID_36_);}
	.st77{fill:#888888;}
	.st78{fill:#DBDCDC;}
	.st79{fill:#73291B;}
	.st80{fill:url(#SVGID_37_);}
	.st81{fill:url(#SVGID_38_);}
</style>
<g>
	<g>
		
			<linearGradient id="SVGID_1_" gradientUnits="userSpaceOnUse" x1="1082.9077" y1="221.4919" x2="1167.8884" y2="221.4919" gradientTransform="matrix(-1 0 0 -1 1686.1643 602)">
			<stop  offset="0" style="stop-color:#EFD97F"/>
			<stop  offset="0.1978" style="stop-color:#EFD87C"/>
			<stop  offset="0.3726" style="stop-color:#EED571"/>
			<stop  offset="0.5387" style="stop-color:#EDCF5F"/>
			<stop  offset="0.6984" style="stop-color:#EBC845"/>
			<stop  offset="0.7526" style="stop-color:#EAC53B"/>
			<stop  offset="1" style="stop-color:#E5AD14"/>
		</linearGradient>
		<path class="st0" d="M518.1,356.5l8.1-18.3c0-0.4,0-1,0.2-1.5c0-0.2,0-0.4,0-0.4c0-0.4,0.2-0.8,0.2-1s0-0.4,0.2-0.6
			c0.2-0.4,0.2-0.8,0.4-1.2c0-0.2,0-0.2,0.2-0.4c0.2-0.6,0.4-1,0.6-1.7c0-0.2,0.2-0.2,0.2-0.4c0.2-0.4,0.4-0.8,0.6-1.2
			c0-0.2,0.2-0.4,0.2-0.6c0.2-0.4,0.4-0.8,0.6-1c0-0.2,0.2-0.4,0.2-0.6c2.9-5.6,7.1-11,10-14.6c0.2-0.2,0.2-0.2,0.4-0.4
			c15.8,20,33.7,47.2,47.8,81.6c0,0,12.9,12.3,12.9,29.7s-13.3,23.1-20.6,21.4l0,0c-8.1,7.1-19.6,2.7-21.8-8.7v-0.2
			c-0.4,0.2-1,0.6-1.7,0.8c-4.8,2.5-11.2-0.6-13.3-5l0,0l0,0c0-0.2-0.2-0.4-0.2-0.6l0.2-0.2l-1.7-14.1h0.4v-3.5l0.6-2.5
			c-0.2-0.6-0.6-1.5-0.8-2.3l-0.6-1l-0.8-2.5v-0.6c-2.7-6.4-6.7-15.4-11.9-26c-3.3-6.9-7.3-14.1-11.2-21L518.1,356.5z"/>
	</g>
	<path class="st1" d="M568.6,416.7c0,0,2.5,19.1-8.3,25.4l-1.9-5.4C558.4,436.6,569.9,430.6,568.6,416.7z"/>
	<path class="st1" d="M587.3,422.7c0,0,5,12.7,1.2,21.8c0,0-3.3,1.2-8.3,0.8C580.3,445.4,588.8,441,587.3,422.7z"/>
	<path class="st2" d="M569,422.7c0,0,0.2,11.4-9.6,15.6l-0.4-1.7C559.1,436.6,569,427.5,569,422.7z"/>
	<path class="st2" d="M588.2,429.4c0,0,0.6,10.6-5,16.2l-3.5-0.2C579.7,445.4,587.1,438.1,588.2,429.4z"/>
	<path class="st3" d="M518.1,356.5l8.1-18.3c0-0.4,0-1,0.2-1.5c0-0.2,0-0.4,0-0.4c0-0.4,0.2-0.8,0.2-1s0-0.4,0.2-0.6
		c0.2-0.4,0.2-0.8,0.4-1.2c0-0.2,0-0.2,0.2-0.4c0.2-0.6,0.4-1,0.6-1.7c0-0.2,0.2-0.2,0.2-0.4c0.2-0.4,0.4-0.8,0.6-1.2
		c0-0.2,0.2-0.4,0.2-0.6c0.2-0.4,0.4-0.8,0.6-1c0-0.2,0.2-0.4,0.2-0.6c0,0,0-0.2,0.2-0.2c10.8,21.2,22.5,49.5,23.1,73.4
		c0,0-13.3,16.9-8.5,33.3c-0.4-0.4-0.6-1-0.8-1.7l0,0l0,0c0-0.2-0.2-0.4-0.2-0.6l0.2-0.2l-1.7-14.1h0.4v-3.5l0.8-3.1l-1.9-2.7
		l-1-2.5l-20-43.5c0,0-1-1.2-2.9-4.2L518.1,356.5z"/>
	<g>
		<path class="st2" d="M542.2,412.7l-0.6-1.2l0,0c-0.2-0.4-13.1-28.9-25-52l1.2-2.9l0,0c10.8,20.8,22.7,47,25.4,52.8
			c0.4-1.2,0.8-1.7,0.8-1.7l0,0c1-1.9,2.3-3.5,2.5-3.5c0.2-0.2,0.6-0.2,0.8,0c0.2,0.2,0.2,0.6,0,0.8c-0.2,0.2-0.6,0.6-0.8,1
			c0,0-6.9,10.6-3.1,25.8l0,0c0.8,2.3,2.9,4.2,5.4,5.2c2.5,1,5.2,1,7.3,0c8.5-4.2,13.1-13.3,11.2-22.3c0-0.4,0.2-0.6,0.4-0.8
			c0.4,0,0.6,0.2,0.8,0.4c1.9,8.7-2.1,17.7-9.8,22.5c1.2,5.4,4.6,9.4,9.2,10.8c4.4,1.2,8.9,0,12.5-3.5c8.9-8.9,5.6-22.5,5.4-22.5
			c0-0.4,0.2-0.6,0.4-0.8c0.4,0,0.6,0.2,0.8,0.4c0,0.2,3.5,14.4-5.8,23.7l0,0c2.9,0.2,7.3-0.6,11.2-3.7c3.3-2.7,7.3-7.9,7.3-17.3
			c0-16.9-12.7-29.1-12.7-29.3l-0.2-0.2c-13.9-34.3-32-61.4-47.6-81.1l0.2-0.2c1-1.2,2.1-2.3,2.7-3.1l0,0c5.2,6.4,10.6,13.7,16,22.1
			l0,0c0,0,25.8,38.5,31.6,60.1c7.1,9.2,20.2,30.2,7.7,46c-1.2,1.9-2.7,3.3-4,4.4c-0.4,0.4-1,0.8-1.7,1c-0.2,0-0.2,0.2-0.2,0.2l0,0
			c-2.9,1.9-6,2.7-9.2,2.7c-0.8,0-1.7,0-2.3-0.2c-2.7,2.3-5.8,3.3-8.9,3.3c-1.2,0-2.5-0.2-3.7-0.6c-5-1.5-8.5-5.6-10-11.4
			c-0.2,0.2-0.6,0.4-0.8,0.4c-1.2,0.6-2.7,0.8-4.2,0.8c-1.5,0-2.7-0.2-4.2-0.8c-2.7-1-4.8-3.1-5.8-5.4l0,0c0,0,0,0,0-0.2
			c0-0.2-0.2-0.2-0.2-0.4l0,0c0,0-1-2.7-1.5-7.1c-0.2-1.7-0.2-3.7,0-5.8C541.4,416.7,541.8,414.4,542.2,412.7z"/>
	</g>
</g>
<g>
	<g>
		<path class="st77" d="M357,289l-1.3,0.3l-19.5-91.9c-0.6-1.9-1.6-3.9-2.3-4.5c-0.3,0.6-0.3,2.9-0.3,5.2l19.5,91.5l-1.3,0.3
			l-19.5-91.9c-0.3-4.2,0-6.5,1.3-6.8c1.3-0.3,2.6,1.6,3.9,5.5L357,289z"/>
		<path class="st78" d="M334,198.1c-0.3-2.3,0-4.5,0.3-5.2c0.6,0.3,1.6,2.6,2.3,4.5l19.5,90.9l-2.9,0.3L334,198.1z"/>
		<path class="st79" d="M372.9,376c-6.2,1.3-10.1,1-11.7-0.6c-0.6-0.6-1-1.6-0.6-1.9c-12.7-54.5-12-55.2-11.7-55.8
			c0.3-0.6,1-4.9,1-5.5l0,0v-0.3c-1-7.8-2.6-10.1-3.2-11c-2.6-2.6-2.9-5.8-2.6-7.1c0.3-1,1.3-2.6,1.6-2.9l0.3-0.3l17.2-3.6l0.3,0.3
			c0.6,0.3,2.3,1.3,2.6,1.9c0.6,1,1.9,4.2,0.3,7.5c-0.3,1-0.6,3.6,1.3,11.4c0,0.3,0,0.3,0,0.3c0.3,0.6,2.6,4.2,3.2,4.5
			c0.6,0.3,1.3,0.6,12.3,55.5c0.3,0.3,0.6,1.3,0,2.3C382.7,372.8,379.1,374.7,372.9,376z M350.5,318.5c0,2.9,7.1,34.1,11.7,54.5v0.3
			v0.3c0,0,0,0.3,0.3,0.6c0.6,0.6,2.6,1.6,10.1,0c7.5-1.6,8.8-3.2,9.1-4.2c0.3-0.3,0-0.6,0-0.6l0,0v-0.3
			c-3.9-20.5-10.4-51.9-11.7-54.5c-1.3-1-3.9-5.2-3.9-5.8v-0.3c-1.9-6.2-2.3-10.4-1.3-12.7c1.3-3.2-0.3-5.8-0.3-5.8
			c-0.3-0.3-1-1-1.6-1.3l-15.9,3.2c-0.6,0.6-1,1.6-1,1.9c0,0-0.3,2.9,2.3,5.2c1.6,1.6,2.9,5.5,3.9,12c0,0.3,0,0.3,0,0.3
			C351.8,312.4,351.5,316.9,350.5,318.5z M370.3,314.6L370.3,314.6L370.3,314.6z M350.5,318.9L350.5,318.9L350.5,318.9z M370,314.3
			L370,314.3L370,314.3z"/>
		
			<linearGradient id="SVGID_2_" gradientUnits="userSpaceOnUse" x1="525.6333" y1="301.6174" x2="546.1688" y2="301.6174" gradientTransform="matrix(0.978 -0.2085 0.2085 0.978 -223.2218 149.1817)">
			<stop  offset="0" style="stop-color:#D65B49"/>
			<stop  offset="0.3349" style="stop-color:#D65947"/>
			<stop  offset="0.49" style="stop-color:#D55340"/>
			<stop  offset="0.6076" style="stop-color:#D34833"/>
			<stop  offset="0.7063" style="stop-color:#D03A21"/>
			<stop  offset="0.7249" style="stop-color:#CF361C"/>
		</linearGradient>
		<path class="st4" d="M381.7,369.2L381.7,369.2c0,0.3,0.3,0.3,0,1s-1.6,2.6-9.1,4.2c-7.5,1.6-9.4,0.6-10.1,0
			c-0.3-0.3-0.3-0.6-0.3-0.6v-0.3v-0.3c-4.9-20.5-11.7-51.6-11.7-54.5c1-1.6,1.3-6.2,1.3-6.8v-0.3c-1-6.5-2.3-10.4-3.9-12
			c-2.6-2.3-2.3-5.2-2.3-5.2c0-0.3,0.6-1.3,1-1.9l15.9-3.2c0.6,0.3,1.6,1,1.6,1.3c0,0,1.6,2.6,0.3,5.8c-1,2.3-0.3,6.5,1.3,12.7
			c0,0.3,0,0.3,0,0.3c0,0.6,2.6,4.5,3.9,5.8C371.3,317.2,377.5,348.4,381.7,369.2L381.7,369.2z"/>
	</g>
	<g>
		<path class="st2" d="M384.3,347.4c2.3-3.2,2.6-9.4,0.6-14.6c-1-2.3-1.9-4.2-3.6-5.5c0.3-2.3,1.6-11.4-6.2-18.2
			c-8.8-7.5-29.9-1-38,5.5c-7.5,6.2-4.5,17.2-3.9,19.5c-5.8,12,3.2,20.5,4.9,21.7c3.9,11,13,15.3,27.3,13c0.3,0,0.6,0,1,0
			c13.3-2.3,18.5-5.5,20.1-8.4c1.3-2.3,1.3-6.2,0.6-8.1C386.6,350.7,385.9,349.1,384.3,347.4z M381.4,345.5c-1-0.3-2.3-1-3.6-1
			c-5.5-1-21.4,3.2-22.1,3.2s-0.6,0.6-0.6,1.3s0.6,0.6,1.3,0.6c5.2-1.3,10.7-2.6,15.9-2.9c3.2-0.3,7.5,0,9.7,2.6
			c0.3,0.3,0.6,0.6,0.6,1c3.2,4.9,0,10.4-1.3,11.4c-2.9,2.3-7.5,4.5-15.3,5.8c-14,2.3-22.4-1.6-26-12c0-0.3-0.3-0.3-0.3-0.3
			c-0.3-0.3-10.4-8.1-4.2-19.8c0-0.3,0-0.6,0-0.6c-4.9-15.9,13.3-23.4,14.6-23.7c4.2-1.3,8.8-2.6,13-2.6c0,0,16.2,1.6,14.3,17.5l0,0
			l0,0c-0.6-0.3-1.3-0.3-1.9-0.3c-10.1-0.3-26.9,3.9-27.6,4.2c-0.6,0-1,0.6-0.6,1.3c0,0.6,0.6,1,1.3,0.6c0,0,2.6-0.6,5.8-1.3
			l1.9-0.3c-1.3-0.6-1.9-0.6-1.9-0.6c2.3-0.3,1.9-0.3,1.9-0.3c4.9-1,17.9-2.9,22.7,0C385.3,332.8,381.4,345.5,381.4,345.5z"/>
		
			<linearGradient id="SVGID_3_" gradientUnits="userSpaceOnUse" x1="470.1007" y1="306.1599" x2="524.8557" y2="327.3915" gradientTransform="matrix(0.9886 -0.1509 0.1509 0.9886 -171.4842 102.1118)">
			<stop  offset="0" style="stop-color:#EFD97F"/>
			<stop  offset="0.1978" style="stop-color:#EFD87C"/>
			<stop  offset="0.3726" style="stop-color:#EED571"/>
			<stop  offset="0.5387" style="stop-color:#EDCF5F"/>
			<stop  offset="0.6984" style="stop-color:#EBC845"/>
			<stop  offset="0.7526" style="stop-color:#EAC53B"/>
			<stop  offset="1" style="stop-color:#E5AD14"/>
		</linearGradient>
		<path class="st6" d="M381.4,345.5c-1-0.3-2.3-1-3.6-1c-5.5-1-21.4,3.2-22.1,3.2s-0.6,0.6-0.6,1.3s0.6,0.6,1.3,0.6
			c5.2-1.3,10.7-2.6,15.9-2.9c3.2-0.3,7.5,0,9.7,2.6c0.3,0.3,0.6,0.6,0.6,1c3.2,4.9,0,10.4-1.3,11.4c-2.9,2.3-7.5,4.5-15.3,5.8
			c-14,2.3-22.4-1.6-26-12c0-0.3-0.3-0.3-0.3-0.3c-0.3-0.3-10.4-8.1-4.2-19.8c0-0.3,0-0.6,0-0.6c-4.9-15.9,13.3-23.4,14.6-23.7
			c4.2-1.3,8.8-2.6,13-2.6c0,0,16.2,1.6,14.3,17.5l0,0l0,0c-0.6-0.3-1.3-0.3-1.9-0.3c-10.1-0.3-26.9,3.9-27.6,4.2
			c-0.6,0-1,0.6-0.6,1.3c0,0.6,0.6,1,1.3,0.6c0,0,2.6-0.6,5.8-1.3l1.9-0.3c-1.3-0.6-1.9-0.6-1.9-0.6c2.3-0.3,1.9-0.3,1.9-0.3
			c4.9-1,17.9-2.9,22.7,0C385.3,332.8,381.4,345.5,381.4,345.5z"/>
		<g class="st10">
			<path class="st1" d="M371.6,322.4c-1,1.3-2.3,2.3-3.6,2.9c2.6-0.3,5.2-0.3,7.5-0.3c0.6,0,1.3,0,1.9,0.3l0,0l0,0
				c1-9.1-4.2-13.6-8.4-15.6C369,309.5,374.9,319.2,371.6,322.4z"/>
			<path class="st1" d="M373.6,328c1.9,0.6,3.2,1.6,4.2,3.6c1.9,5.5,2.3,9.4-2.9,12.7c1.3,0,2.6,0,3.2,0c1.3,0.3,2.6,0.6,3.6,1
				c0,0,3.6-12.7-2.6-16.2C377.8,328.6,375.9,328.3,373.6,328z"/>
			<path class="st1" d="M382.7,350c-0.3-0.3-0.3-0.6-0.6-1c-1.6-1.9-4.5-2.3-6.8-2.6c2.6,1.6,6.2,4.9,5.2,9.7
				c-1,3.9-2.6,6.5-3.9,8.1c2.3-1,3.9-1.9,5.2-2.9C382.7,360.4,385.6,354.9,382.7,350z"/>
		</g>
	</g>
</g>
</svg>
