<?xml version="1.0" encoding="utf-8"?>
<!-- Generator: Adobe Illustrator 21.0.0, SVG Export Plug-In . SVG Version: 6.00 Build 0)  -->
<svg version="1.1" id="圖層_1" xmlns="http://www.w3.org/2000/svg" xmlns:xlink="http://www.w3.org/1999/xlink" x="0px" y="0px"
	 viewBox="0 0 822.9 601.4" style="enable-background:new 0 0 822.9 601.4;" xml:space="preserve">
<style type="text/css">
	.st0{fill:url(#SVGID_1_);}
	.st1{fill:#E1BE3F;}
	.st2{fill:#AB6C21;}
	.st3{opacity:0.6;fill:#E1BE3F;enable-background:new    ;}
	.st4{fill:#888888;}
	.st5{fill:#456430;}
	.st6{fill:#709846;}
	.st7{fill:url(#SVGID_2_);}
	.st8{fill:url(#SVGID_3_);}
	.st9{opacity:0.8;}
	.st10{fill:#C8C9CA;}
	.st11{fill:url(#SVGID_4_);}
	.st12{opacity:0.6;fill:#709846;enable-background:new    ;}
	.st13{fill:#FFFFFF;}
	.st14{fill:#211714;}
	.st15{fill:url(#SVGID_5_);}
	.st16{fill:url(#SVGID_6_);}
	.st17{fill:url(#SVGID_7_);}
	.st18{fill:#BED26B;}
	.st19{fill:#F3E4A2;}
	.st20{fill:#8EA63A;}
	.st21{fill:none;stroke:#BED26B;stroke-width:0.9391;stroke-miterlimit:10;}
	.st22{opacity:0.6;fill:#DCCFB8;enable-background:new    ;}
	.st23{fill:url(#SVGID_8_);}
	.st24{fill:url(#SVGID_9_);}
	.st25{opacity:0.6;}
	.st26{fill:url(#SVGID_10_);}
	.st27{fill:url(#SVGID_11_);}
	.st28{fill:url(#SVGID_12_);}
	.st29{fill:#E2BF40;}
	.st30{fill:#AC6D21;}
	.st31{opacity:0.6;fill:#E2BF40;enable-background:new    ;}
	.st32{fill:#A46723;}
	.st33{fill:url(#SVGID_13_);}
	.st34{fill:url(#SVGID_14_);}
	.st35{fill:url(#SVGID_15_);}
	.st36{fill:url(#SVGID_16_);}
	.st37{fill:url(#SVGID_17_);}
	.st38{fill:url(#SVGID_18_);}
	.st39{fill:url(#SVGID_19_);}
	.st40{fill:url(#SVGID_20_);}
	.st41{fill:url(#SVGID_21_);}
	.st42{fill:url(#SVGID_22_);}
	.st43{fill:url(#SVGID_23_);}
	.st44{fill:url(#SVGID_24_);}
	.st45{fill:url(#SVGID_25_);}
	.st46{fill:url(#SVGID_26_);}
	.st47{fill:url(#SVGID_27_);}
	.st48{fill:url(#SVGID_28_);}
	.st49{fill:url(#SVGID_29_);}
	.st50{fill:url(#SVGID_30_);}
	.st51{fill:url(#SVGID_31_);}
	.st52{fill:url(#SVGID_32_);}
	.st53{fill:url(#SVGID_33_);}
	.st54{fill:url(#SVGID_34_);}
	.st55{fill:url(#SVGID_35_);}
	.st56{fill:url(#SVGID_36_);}
	.st57{fill:url(#SVGID_37_);}
	.st58{fill:url(#SVGID_38_);}
	.st59{fill:url(#SVGID_39_);}
	.st60{fill:url(#SVGID_40_);}
	.st61{fill:url(#SVGID_41_);}
	.st62{fill:url(#SVGID_42_);}
	.st63{fill:url(#SVGID_43_);}
	.st64{fill:url(#SVGID_44_);}
	.st65{fill:url(#SVGID_45_);}
	.st66{fill:url(#SVGID_46_);}
	.st67{fill:url(#SVGID_47_);}
	.st68{fill:url(#SVGID_48_);}
	.st69{fill:url(#SVGID_49_);}
	.st70{fill:url(#SVGID_50_);}
	.st71{fill:url(#SVGID_51_);}
	.st72{fill:url(#SVGID_52_);}
	.st73{fill:url(#SVGID_53_);}
	.st74{fill:url(#SVGID_54_);}
	.st75{fill:url(#SVGID_55_);}
	.st76{fill:url(#SVGID_56_);}
	.st77{fill:url(#SVGID_57_);}
	.st78{fill:url(#SVGID_58_);}
	.st79{fill:url(#SVGID_59_);}
	.st80{fill:url(#SVGID_60_);}
	.st81{fill:url(#SVGID_61_);}
	.st82{fill:url(#SVGID_62_);}
	.st83{fill:#3C3A39;}
	.st84{fill:url(#SVGID_63_);}
	.st85{fill:url(#SVGID_64_);}
	.st86{fill:url(#SVGID_65_);}
	.st87{fill:#532817;}
	.st88{fill:#48210E;}
	.st89{fill:url(#SVGID_66_);}
	.st90{fill:url(#SVGID_67_);}
	.st91{fill:#9F7433;}
	.st92{fill:#746766;}
	.st93{opacity:0.5;}
	.st94{fill:#2F2A28;}
	.st95{opacity:0.5;fill:#2F2A28;enable-background:new    ;}
	.st96{fill:#865C25;}
	.st97{fill:#755325;}
	.st98{fill:none;stroke:#746766;stroke-width:0.8195;stroke-linecap:round;stroke-miterlimit:10;}
	.st99{fill:url(#SVGID_68_);}
	.st100{fill:url(#SVGID_69_);}
	.st101{fill:url(#SVGID_70_);}
	.st102{fill:url(#SVGID_71_);}
	.st103{fill:url(#SVGID_72_);}
	.st104{fill:url(#SVGID_73_);}
	.st105{fill:url(#SVGID_74_);}
	.st106{fill:#D69644;}
	.st107{fill:url(#SVGID_75_);}
	.st108{fill:#898989;}
	.st109{fill:#C9CACA;}
	.st110{fill:url(#SVGID_76_);}
	.st111{fill:url(#SVGID_77_);}
	.st112{fill:url(#SVGID_78_);}
	.st113{fill:url(#SVGID_79_);}
	.st114{fill:url(#SVGID_80_);}
	.st115{fill:#FCE4B4;}
	.st116{opacity:0.5;fill:#DA9E36;enable-background:new    ;}
	.st117{fill:url(#SVGID_81_);}
	.st118{fill:url(#SVGID_82_);}
	.st119{fill:url(#SVGID_83_);}
	.st120{opacity:0.4;fill:#C49358;enable-background:new    ;}
	.st121{fill:url(#SVGID_84_);}
	.st122{fill:url(#SVGID_85_);}
	.st123{fill:url(#SVGID_86_);}
	.st124{fill:url(#SVGID_87_);}
	.st125{fill:url(#SVGID_88_);}
	.st126{fill:url(#SVGID_89_);}
	.st127{fill:#7D5223;}
	.st128{fill:url(#SVGID_90_);}
	.st129{opacity:0.5;fill:url(#SVGID_91_);enable-background:new    ;}
	.st130{fill:#CC7C5C;}
	.st131{fill:url(#SVGID_92_);}
	.st132{fill:url(#SVGID_93_);}
	.st133{clip-path:url(#SVGID_95_);fill:url(#SVGID_96_);}
	.st134{clip-path:url(#SVGID_98_);fill:#FFFFFF;}
	.st135{clip-path:url(#SVGID_98_);fill:#814323;}
	.st136{clip-path:url(#SVGID_98_);fill:#F3E2A4;}
	.st137{clip-path:url(#SVGID_98_);fill:#C78E2B;}
	.st138{clip-path:url(#SVGID_98_);fill:#AC7327;}
	.st139{clip-path:url(#SVGID_100_);fill:url(#SVGID_101_);}
	.st140{clip-path:url(#SVGID_103_);fill:url(#SVGID_104_);}
	.st141{clip-path:url(#SVGID_106_);}
	.st142{clip-path:url(#SVGID_108_);fill:#EAA593;}
	.st143{clip-path:url(#SVGID_110_);fill:#EAA593;}
	.st144{clip-path:url(#SVGID_106_);fill:#40210F;}
	.st145{opacity:0.25;clip-path:url(#SVGID_106_);}
	.st146{clip-path:url(#SVGID_112_);fill:#E1BE3F;}
	.st147{opacity:0.5;clip-path:url(#SVGID_106_);}
	.st148{clip-path:url(#SVGID_114_);fill:#E1BE3F;}
	.st149{clip-path:url(#SVGID_116_);fill:#E1BE3F;}
	.st150{clip-path:url(#SVGID_106_);fill:#F9E6A9;}
	.st151{clip-path:url(#SVGID_106_);fill:#DEBD91;}
	.st152{clip-path:url(#SVGID_106_);fill:#D7C6A7;}
	.st153{clip-path:url(#SVGID_118_);fill:url(#SVGID_119_);}
	.st154{clip-path:url(#SVGID_121_);fill:#4B1F0E;}
	.st155{clip-path:url(#SVGID_121_);fill:#D7C6A7;}
	.st156{opacity:0.4;clip-path:url(#SVGID_121_);}
	.st157{clip-path:url(#SVGID_123_);fill:#E1BE3F;}
	.st158{clip-path:url(#SVGID_125_);fill:#E1BE3F;}
	.st159{opacity:0.72;clip-path:url(#SVGID_121_);}
	.st160{clip-path:url(#SVGID_127_);fill:#E1BE3F;}
	.st161{clip-path:url(#SVGID_129_);fill:#E1BE3F;}
	.st162{clip-path:url(#SVGID_121_);fill:#885524;}
	.st163{clip-path:url(#SVGID_121_);fill:#3F210E;}
	.st164{clip-path:url(#SVGID_121_);fill:#40210F;}
	.st165{clip-path:url(#SVGID_121_);fill:#391D13;}
	.st166{clip-path:url(#SVGID_121_);fill:#FFFFFF;}
	.st167{clip-path:url(#SVGID_121_);fill:#AB6C21;}
	.st168{opacity:0.6;clip-path:url(#SVGID_121_);}
	.st169{clip-path:url(#SVGID_131_);fill:#E1BE3F;}
	.st170{clip-path:url(#SVGID_133_);fill:url(#SVGID_134_);}
	.st171{clip-path:url(#SVGID_136_);}
	.st172{clip-path:url(#SVGID_138_);fill:#DCBF93;}
	.st173{clip-path:url(#SVGID_140_);fill:#DCBF93;}
	.st174{clip-path:url(#SVGID_136_);fill:#D9BA74;}
	.st175{clip-path:url(#SVGID_136_);fill:#8C5924;}
	.st176{clip-path:url(#SVGID_136_);fill:#FCF1CD;}
	.st177{clip-path:url(#SVGID_142_);fill:url(#SVGID_143_);}
	.st178{opacity:0.6;clip-path:url(#SVGID_145_);}
	.st179{clip-path:url(#SVGID_147_);}
	.st180{clip-path:url(#SVGID_149_);fill:url(#SVGID_150_);}
	.st181{clip-path:url(#SVGID_152_);}
	.st182{clip-path:url(#SVGID_154_);fill:url(#SVGID_155_);}
	.st183{clip-path:url(#SVGID_145_);fill:#AB6E21;}
	.st184{clip-path:url(#SVGID_157_);fill:url(#SVGID_158_);}
	.st185{clip-path:url(#SVGID_160_);fill:#AB6E21;}
	.st186{opacity:0.3;clip-path:url(#SVGID_160_);}
	.st187{clip-path:url(#SVGID_162_);}
	.st188{clip-path:url(#SVGID_164_);fill:url(#SVGID_165_);}
	.st189{clip-path:url(#SVGID_160_);fill:#FCF1CD;}
	.st190{fill:none;}
</style>
<g>
	<g>
		<g>
			<g>
				
					<linearGradient id="SVGID_1_" gradientUnits="userSpaceOnUse" x1="1084.7893" y1="225.3568" x2="1169.77" y2="225.3568" gradientTransform="matrix(-1 0 0 -1 1686.1643 602)">
					<stop  offset="0" style="stop-color:#EFD97F"/>
					<stop  offset="0.1978" style="stop-color:#EFD87C"/>
					<stop  offset="0.3726" style="stop-color:#EED571"/>
					<stop  offset="0.5387" style="stop-color:#EDCF5F"/>
					<stop  offset="0.6984" style="stop-color:#EBC845"/>
					<stop  offset="0.7526" style="stop-color:#EAC53B"/>
					<stop  offset="1" style="stop-color:#E5AD14"/>
				</linearGradient>
				<path class="st0" d="M516.2,352.7l8.1-18.3c0-0.4,0-1,0.2-1.5c0-0.2,0-0.4,0-0.4c0-0.4,0.2-0.8,0.2-1s0-0.4,0.2-0.6
					c0.2-0.4,0.2-0.8,0.4-1.2c0-0.2,0-0.2,0.2-0.4c0.2-0.6,0.4-1,0.6-1.7c0-0.2,0.2-0.2,0.2-0.4c0.2-0.4,0.4-0.8,0.6-1.2
					c0-0.2,0.2-0.4,0.2-0.6c0.2-0.4,0.4-0.8,0.6-1c0-0.2,0.2-0.4,0.2-0.6c2.9-5.6,7.1-11,10-14.6c0.2-0.2,0.2-0.2,0.4-0.4
					c15.8,20,33.7,47.2,47.8,81.6c0,0,12.9,12.3,12.9,29.7s-13.3,23.1-20.6,21.4l0,0c-8.1,7.1-19.6,2.7-21.8-8.7v-0.2
					c-0.4,0.2-1,0.6-1.7,0.8c-4.8,2.5-11.2-0.6-13.3-5l0,0l0,0c0-0.2-0.2-0.4-0.2-0.6l0.2-0.2l-1.7-14.1h0.4v-3.5l0.6-2.5
					c-0.2-0.6-0.6-1.5-0.8-2.3l-0.6-1l-0.8-2.5v-0.6c-2.7-6.4-6.7-15.4-11.9-26c-3.3-6.9-7.3-14.1-11.2-21L516.2,352.7z"/>
			</g>
			<path class="st1" d="M566.7,412.8c0,0,2.5,19.1-8.3,25.4l-1.9-5.4C556.5,432.8,568,426.7,566.7,412.8z"/>
			<path class="st1" d="M585.5,418.8c0,0,5,12.7,1.2,21.8c0,0-3.3,1.2-8.3,0.8C578.4,441.5,586.9,437.1,585.5,418.8z"/>
			<path class="st2" d="M567.2,418.8c0,0,0.2,11.4-9.6,15.6l-0.4-1.7C557.2,432.8,567.2,423.6,567.2,418.8z"/>
			<path class="st2" d="M586.3,425.5c0,0,0.6,10.6-5,16.2l-3.5-0.2C577.8,441.5,585.3,434.2,586.3,425.5z"/>
			<path class="st3" d="M516.2,352.7l8.1-18.3c0-0.4,0-1,0.2-1.5c0-0.2,0-0.4,0-0.4c0-0.4,0.2-0.8,0.2-1s0-0.4,0.2-0.6
				c0.2-0.4,0.2-0.8,0.4-1.2c0-0.2,0-0.2,0.2-0.4c0.2-0.6,0.4-1,0.6-1.7c0-0.2,0.2-0.2,0.2-0.4c0.2-0.4,0.4-0.8,0.6-1.2
				c0-0.2,0.2-0.4,0.2-0.6c0.2-0.4,0.4-0.8,0.6-1c0-0.2,0.2-0.4,0.2-0.6c0,0,0-0.2,0.2-0.2c10.8,21.2,22.5,49.5,23.1,73.4
				c0,0-13.3,16.9-8.5,33.3c-0.4-0.4-0.6-1-0.8-1.7l0,0l0,0c0-0.2-0.2-0.4-0.2-0.6l0.2-0.2l-1.7-14.1h0.4v-3.5l0.8-3.1l-1.9-2.7
				l-1-2.5l-20-43.5c0,0-1-1.2-2.9-4.2L516.2,352.7z"/>
			<g>
				<path class="st2" d="M540.3,408.8l-0.6-1.2l0,0c-0.2-0.4-13.1-28.9-25-52l1.2-2.9l0,0c10.8,20.8,22.7,47,25.4,52.8
					c0.4-1.2,0.8-1.7,0.8-1.7l0,0c1-1.9,2.3-3.5,2.5-3.5c0.2-0.2,0.6-0.2,0.8,0c0.2,0.2,0.2,0.6,0,0.8c-0.2,0.2-0.6,0.6-0.8,1
					c0,0-6.9,10.6-3.1,25.8l0,0c0.8,2.3,2.9,4.2,5.4,5.2c2.5,1,5.2,1,7.3,0c8.5-4.2,13.1-13.3,11.2-22.3c0-0.4,0.2-0.6,0.4-0.8
					c0.4,0,0.6,0.2,0.8,0.4c1.9,8.7-2.1,17.7-9.8,22.5c1.2,5.4,4.6,9.4,9.2,10.8c4.4,1.2,8.9,0,12.5-3.5c8.9-8.9,5.6-22.5,5.4-22.5
					c0-0.4,0.2-0.6,0.4-0.8c0.4,0,0.6,0.2,0.8,0.4c0,0.2,3.5,14.4-5.8,23.7l0,0c2.9,0.2,7.3-0.6,11.2-3.7c3.3-2.7,7.3-7.9,7.3-17.3
					c0-16.9-12.7-29.1-12.7-29.3l-0.2-0.2c-13.9-34.3-32-61.4-47.6-81.1l0.2-0.2c1-1.2,2.1-2.3,2.7-3.1l0,0
					c5.2,6.4,10.6,13.7,16,22.1l0,0c0,0,25.8,38.5,31.6,60.1c7.1,9.2,20.2,30.2,7.7,46c-1.2,1.9-2.7,3.3-4,4.4c-0.4,0.4-1,0.8-1.7,1
					c-0.2,0-0.2,0.2-0.2,0.2l0,0c-2.9,1.9-6,2.7-9.2,2.7c-0.8,0-1.7,0-2.3-0.2c-2.7,2.3-5.8,3.3-8.9,3.3c-1.2,0-2.5-0.2-3.7-0.6
					c-5-1.5-8.5-5.6-10-11.4c-0.2,0.2-0.6,0.4-0.8,0.4c-1.2,0.6-2.7,0.8-4.2,0.8c-1.5,0-2.7-0.2-4.2-0.8c-2.7-1-4.8-3.1-5.8-5.4l0,0
					c0,0,0,0,0-0.2c0-0.2-0.2-0.2-0.2-0.4l0,0c0,0-1-2.7-1.5-7.1c-0.2-1.7-0.2-3.7,0-5.8C539.5,412.8,539.9,410.5,540.3,408.8z"/>
			</g>
		</g>
		<g>
			<g>
				
					<linearGradient id="SVGID_2_" gradientUnits="userSpaceOnUse" x1="295.9705" y1="228.5526" x2="380.9511" y2="228.5526" gradientTransform="matrix(1 0 0 -1 0 602)">
					<stop  offset="0" style="stop-color:#EFD97F"/>
					<stop  offset="0.1978" style="stop-color:#EFD87C"/>
					<stop  offset="0.3726" style="stop-color:#EED571"/>
					<stop  offset="0.5387" style="stop-color:#EDCF5F"/>
					<stop  offset="0.6984" style="stop-color:#EBC845"/>
					<stop  offset="0.7526" style="stop-color:#EAC53B"/>
					<stop  offset="1" style="stop-color:#E5AD14"/>
				</linearGradient>
				<path class="st7" d="M381.1,349.5l-8.1-18.3c0-0.4,0-1-0.2-1.5c0-0.2,0-0.4,0-0.4c0-0.4-0.2-0.8-0.2-1c0-0.2,0-0.4-0.2-0.6
					c-0.2-0.4-0.2-0.8-0.4-1.2c0-0.2,0-0.2-0.2-0.4c-0.2-0.6-0.4-1-0.6-1.7c0-0.2-0.2-0.2-0.2-0.4c-0.2-0.4-0.4-0.8-0.6-1.2
					c0-0.2-0.2-0.4-0.2-0.6c-0.2-0.4-0.4-0.8-0.6-1c0-0.2-0.2-0.4-0.2-0.6c-2.9-5.6-7.1-11-10-14.6c-0.2-0.2-0.2-0.2-0.4-0.4
					c-15.8,20-33.7,47.2-47.8,81.6c0,0-12.9,12.3-12.9,29.7c0,17.5,13.3,23.1,20.6,21.4l0,0c8.1,7.1,19.6,2.7,21.8-8.7v-0.2
					c0.4,0.2,1,0.6,1.7,0.8c4.8,2.5,11.2-0.6,13.3-5l0,0l0,0c0-0.2,0.2-0.4,0.2-0.6l-0.2-0.2l1.7-14.1h-0.4v-3.5l-0.6-2.5
					c0.2-0.6,0.6-1.5,0.8-2.3l0.6-1l0.8-2.5v-0.6c2.7-6.4,6.7-15.4,11.9-26c3.3-6.9,7.3-14.1,11.2-21L381.1,349.5z"/>
			</g>
			<path class="st1" d="M330.5,409.6c0,0-2.5,19.1,8.3,25.4l1.9-5.4C340.9,429.6,329.3,423.5,330.5,409.6z"/>
			<path class="st1" d="M312,415.6c0,0-5,12.7-1.2,21.8c0,0,3.3,1.2,8.3,0.8C319.1,438.3,310.6,433.9,312,415.6z"/>
			<path class="st2" d="M330.3,415.6c0,0-0.2,11.4,9.6,15.6l0.4-1.7C340.3,429.6,330.1,420.4,330.3,415.6z"/>
			<path class="st2" d="M311.2,422.3c0,0-0.6,10.6,5,16.2l3.5-0.2C319.7,438.3,312,431,311.2,422.3z"/>
			<path class="st3" d="M381.1,349.5l-8.1-18.3c0-0.4,0-1-0.2-1.5c0-0.2,0-0.4,0-0.4c0-0.4-0.2-0.8-0.2-1c0-0.2,0-0.4-0.2-0.6
				c-0.2-0.4-0.2-0.8-0.4-1.2c0-0.2,0-0.2-0.2-0.4c-0.2-0.6-0.4-1-0.6-1.7c0-0.2-0.2-0.2-0.2-0.4c-0.2-0.4-0.4-0.8-0.6-1.2
				c0-0.2-0.2-0.4-0.2-0.6c-0.2-0.4-0.4-0.8-0.6-1c0-0.2-0.2-0.4-0.2-0.6c0,0,0-0.2-0.2-0.2c-10.8,21.2-22.5,49.5-23.1,73.4
				c0,0,13.3,16.9,8.5,33.3c0.4-0.4,0.6-1,0.8-1.7l0,0l0,0c0-0.2,0.2-0.4,0.2-0.6l-0.2-0.2l1.7-14.1h-0.4v-3.5l-0.8-3.1l1.9-2.7
				l1-2.5l20-43.5c0,0,1-1.2,2.9-4.2L381.1,349.5z"/>
			<g>
				<path class="st2" d="M357,405.6l0.6-1.2l0,0c0.2-0.4,13.1-28.9,25-52l-1.2-2.9l0,0c-10.8,20.8-22.7,47-25.4,52.8
					c-0.4-1.2-0.8-1.7-0.8-1.7l0,0c-1-1.9-2.3-3.5-2.5-3.5c-0.2-0.2-0.6-0.2-0.8,0c-0.2,0.2-0.2,0.6,0,0.8c0.2,0.2,0.6,0.6,0.8,1
					c0,0,6.9,10.6,3.1,25.8l0,0c-0.8,2.3-2.9,4.2-5.4,5.2c-2.5,1-5.2,1-7.3,0c-8.5-4.2-13.1-13.3-11.2-22.3c0-0.4-0.2-0.6-0.4-0.8
					c-0.4,0-0.6,0.2-0.8,0.4c-1.9,8.7,2.1,17.7,9.8,22.5c-1.2,5.4-4.6,9.4-9.2,10.8c-4.4,1.2-8.9,0-12.5-3.5
					c-8.9-8.9-5.6-22.5-5.4-22.5c0-0.4-0.2-0.6-0.4-0.8c-0.4,0-0.6,0.2-0.8,0.4c0,0.2-3.5,14.4,5.8,23.7l0,0
					c-2.9,0.2-7.3-0.6-11.2-3.7c-3.3-2.7-7.3-7.9-7.3-17.3c0-16.9,12.7-29.1,12.7-29.3l0.2-0.2c13.9-34.3,32-61.4,47.6-81.1
					l-0.2-0.2c-1-1.2-2.1-2.3-2.7-3.1l0,0c-5.2,6.4-10.6,13.7-16,22.1l0,0c0,0-25.8,38.5-31.6,60.1c-7.1,9.2-20.2,30.2-7.7,46
					c1.2,1.9,2.7,3.3,4,4.4c0.4,0.4,1,0.8,1.7,1c0.2,0,0.2,0.2,0.2,0.2l0,0c2.9,1.9,6,2.7,9.2,2.7c0.8,0,1.7,0,2.3-0.2
					c2.7,2.3,5.8,3.3,8.9,3.3c1.2,0,2.5-0.2,3.7-0.6c5-1.5,8.5-5.6,10-11.4c0.2,0.2,0.6,0.4,0.8,0.4c1.2,0.6,2.7,0.8,4.2,0.8
					s2.7-0.2,4.2-0.8c2.7-1,4.8-3.1,5.8-5.4l0,0c0,0,0,0,0-0.2c0-0.2,0.2-0.2,0.2-0.4l0,0c0,0,1-2.7,1.5-7.1c0.2-1.7,0.2-3.7,0-5.8
					C358,409.6,357.4,407.3,357,405.6z"/>
			</g>
		</g>
	</g>
	<g>
		<g>
			<defs>
				<path id="SVGID_94_" d="M504.5,91.2c-15.6-7-32.8-10.6-50.4-10.6c-21.1,0-42.2,4.5-61.2,13.5c4.8-18.9-27.4-47.7-56.2-18.9
					c-16.3,18.3-2,45.2,18.6,46c-0.7,0.7-1.4,1.5-2.1,2.3c-24.8,27.7-35,66.9-21.8,102.4c1.9,5.3,4.4,10.1,7.3,14.5
					c19.3,29.5,57.9,40.9,91.8,44.2c4.7,0.5,9.3,0.7,14,0.8c27.4,0.5,55.1-5.2,79.3-18.1c20.9-11.1,39.6-26.7,45.5-50.7
					c7.4-30-1.7-63.3-19.3-88.1c-1.8-2.6-3.7-5-5.7-7.4C563.9,119,577,93,561.2,75.2C552.4,66.4,543.3,63,535,63
					C517.5,63,503.7,78.5,504.5,91.2"/>
			</defs>
			<clipPath id="SVGID_3_">
				<use xlink:href="#SVGID_94_"  style="overflow:visible;"/>
			</clipPath>
			
				<linearGradient id="SVGID_4_" gradientUnits="userSpaceOnUse" x1="197.8366" y1="612.7156" x2="198.8366" y2="612.7156" gradientTransform="matrix(183.2703 93.1456 93.1456 -183.2703 -92993.9922 93974.0938)">
				<stop  offset="0" style="stop-color:#EFD980"/>
				<stop  offset="0.1978" style="stop-color:#EFD87D"/>
				<stop  offset="0.3726" style="stop-color:#EED572"/>
				<stop  offset="0.5387" style="stop-color:#EDCF60"/>
				<stop  offset="0.6984" style="stop-color:#EBC846"/>
				<stop  offset="0.7526" style="stop-color:#EAC53C"/>
				<stop  offset="1" style="stop-color:#E5AD14"/>
			</linearGradient>
			<polygon style="clip-path:url(#SVGID_3_);fill:url(#SVGID_4_);" points="371.3,-58.2 673.8,95.6 523.9,390.5 221.4,236.8 			"/>
		</g>
		<g>
			<defs>
				<rect id="SVGID_97_" x="236.7" y="-162" width="425.2" height="623.6"/>
			</defs>
			<clipPath id="SVGID_5_">
				<use xlink:href="#SVGID_97_"  style="overflow:visible;"/>
			</clipPath>
			<path style="clip-path:url(#SVGID_5_);fill:#FFFFFF;" d="M494.5,153.7c0,0,10.8-2.5,18.4,4.3c7.6,6.8,14.9,17.3,9,39.8
				c0,0-18.7-4.8-24.7-5.1l-22.8-1.7C474.5,191,469.1,158.5,494.5,153.7"/>
			<path style="clip-path:url(#SVGID_5_);fill:#814323;" d="M423.9,191.1c0,0-24.2-0.9-46.7,5.7l0.4,1.1
				C377.5,197.9,401.2,191.9,423.9,191.1"/>
			<path style="clip-path:url(#SVGID_5_);fill:#F3E2A4;" d="M362.6,114.3c-4.6-0.7-8.2-1.1-12-3.8c-3.8-2.7-6.9-6.7-7.8-11.3
				c-0.9-4.6,0.5-9.7,4-12.8c4.9-4.2,13.1-4.5,18.3-0.7c5.2,3.8,9,10.3,10.8,16.5c0,0-0.5,0.7-0.5,0.7L362.6,114.3z"/>
			<path style="clip-path:url(#SVGID_5_);fill:#814323;" d="M374.7,197.7l-1.3,1.8c2.2-1.2,4.9-1.8,4.9-1.8l-0.4-1l-0.2,0
				c0,0,0,0,0,0c-17.8-49.4,51.5-59.9,45.5-5.5C432.6,133.9,357.5,143.1,374.7,197.7"/>
			<path style="clip-path:url(#SVGID_5_);fill:#C78E2B;" d="M383.4,140.7c-0.6-3.9,4.5-8,11.2-8.9c6.8-1,12.8,1.4,13.3,5.3
				c0.6,3.9-4.5,8-11.2,8.9C390,147,384,144.6,383.4,140.7"/>
			<path style="clip-path:url(#SVGID_5_);fill:#AC7327;" d="M393.7,146.9c-5.8,0-10.3-2.4-10.9-6.1c-0.6-4.4,4.5-8.6,11.8-9.7
				c3.4-0.5,6.7-0.2,9.3,0.9c2.7,1.1,4.4,2.9,4.7,5c0.3,2.1-0.8,4.3-3.1,6.2c-2.2,1.8-5.3,3-8.7,3.5
				C395.8,146.8,394.7,146.9,393.7,146.9 M384.1,140.6c0.5,3.6,6.2,5.7,12.6,4.8c3.2-0.5,6-1.6,8.1-3.2c1.9-1.5,2.9-3.3,2.6-5
				c-0.2-1.7-1.6-3.1-3.9-4c-2.4-1-5.5-1.2-8.7-0.8C388.3,133.3,383.5,137,384.1,140.6"/>
			<path style="clip-path:url(#SVGID_5_);fill:#814323;" d="M394.8,175.4c0-7,4.2-12.6,9.3-12.6c5.2,0,9.3,5.7,9.3,12.6
				c0,7-4.2,12.6-9.3,12.6C399,188,394.8,182.3,394.8,175.4"/>
			<path style="clip-path:url(#SVGID_5_);fill:#F3E2A4;" d="M535.1,114.3c4.6-0.7,8.2-1.1,12-3.8c3.8-2.7,6.9-6.7,7.8-11.3
				c0.9-4.6-0.5-9.7-4-12.8c-4.9-4.2-13.1-4.5-18.3-0.7c-5.2,3.8-9,10.3-10.8,16.5c0,0,0.5,0.7,0.5,0.7L535.1,114.3z"/>
			<path style="clip-path:url(#SVGID_5_);fill:#C78E2B;" d="M514.3,140.7c0.6-3.9-4.5-8-11.2-8.9c-6.8-1-12.8,1.4-13.3,5.3
				c-0.6,3.9,4.5,8,11.2,8.9C507.8,147,513.8,144.6,514.3,140.7"/>
			<path style="clip-path:url(#SVGID_5_);fill:#AC7327;" d="M504.1,146.9c-1,0-2.1-0.1-3.2-0.2c-3.4-0.5-6.5-1.7-8.7-3.5
				c-2.3-1.8-3.4-4-3.1-6.2c0.3-2.1,2-3.9,4.7-5c2.6-1.1,5.9-1.4,9.3-0.9c7.2,1.1,12.4,5.3,11.8,9.7
				C514.4,144.5,509.9,146.9,504.1,146.9 M500,132.1c-2.1,0-4.1,0.3-5.7,1c-2.3,0.9-3.7,2.4-3.9,4c-0.2,1.7,0.7,3.4,2.6,5
				c2,1.6,4.9,2.8,8.1,3.2c6.4,0.9,12.1-1.2,12.6-4.8c0.5-3.6-4.3-7.3-10.7-8.2C502,132.2,501,132.1,500,132.1"/>
			<path style="clip-path:url(#SVGID_5_);fill:#814323;" d="M503,175.4c0-7-4.2-12.6-9.3-12.6c-5.2,0-9.3,5.7-9.3,12.6
				c0,7,4.2,12.6,9.3,12.6C498.8,188,503,182.3,503,175.4"/>
			<path style="clip-path:url(#SVGID_5_);fill:#FFFFFF;" d="M403.2,153.7c0,0-10.8-2.5-18.4,4.3c-7.6,6.8-14.9,17.3-9,39.8
				c0,0,18.7-4.8,24.7-5.1l22.8-1.7C423.3,191,428.7,158.5,403.2,153.7"/>
		</g>
		<g>
			<defs>
				<path id="SVGID_99_" d="M388.7,194.6c1.7-1.3,26.8-3.3,26.8-3.3l7.8-0.3c0.5-2.6,0.6-10.4,0.6-10.4c-3-23.3-16.6-25.4-16.6-25.4
					c-1.1-0.1-2.1-0.2-3.2-0.2C385,154.9,379.1,180.1,388.7,194.6"/>
			</defs>
			<clipPath id="SVGID_6_">
				<use xlink:href="#SVGID_99_"  style="overflow:visible;"/>
			</clipPath>
			
				<linearGradient id="SVGID_7_" gradientUnits="userSpaceOnUse" x1="197.024" y1="615.7889" x2="198.024" y2="615.7889" gradientTransform="matrix(-39.6869 0 0 -39.6869 8243.1289 24613.5371)">
				<stop  offset="0" style="stop-color:#673A1B"/>
				<stop  offset="0.9615" style="stop-color:#42220F"/>
				<stop  offset="1" style="stop-color:#40210F"/>
			</linearGradient>
			<rect x="379.1" y="154.9" style="clip-path:url(#SVGID_6_);fill:url(#SVGID_7_);" width="44.8" height="39.7"/>
		</g>
		<g>
			<defs>
				<path id="SVGID_102_" d="M437.6,198.3c-77.2,0-101.1,38.3-101.2,38.5c0.7,1.2,1.4,2.4,2.2,3.6c19.3,29.5,57.9,40.9,91.8,44.2
					c4.7,0.5,9.3,0.7,14,0.8c27.4,0.5,55.1-5.2,79.3-18.1c14.4-7.7,27.8-17.5,36.6-30.7c-2-3-27-38.3-101.1-38.3H437.6z"/>
			</defs>
			<clipPath id="SVGID_8_">
				<use xlink:href="#SVGID_102_"  style="overflow:visible;"/>
			</clipPath>
			
				<linearGradient id="SVGID_9_" gradientUnits="userSpaceOnUse" x1="198.1729" y1="612.6702" x2="199.1729" y2="612.6702" gradientTransform="matrix(223.9834 0 0 -223.9834 -44051.0664 137470.1406)">
				<stop  offset="0" style="stop-color:#F5DCA5"/>
				<stop  offset="0.8098" style="stop-color:#F0DA88"/>
				<stop  offset="1" style="stop-color:#EFD980"/>
			</linearGradient>
			<rect x="336.4" y="198.3" style="clip-path:url(#SVGID_8_);fill:url(#SVGID_9_);" width="224" height="87.6"/>
		</g>
		<g>
			<defs>
				<rect id="SVGID_105_" x="236.7" y="-162" width="425.2" height="623.6"/>
			</defs>
			<clipPath id="SVGID_10_">
				<use xlink:href="#SVGID_105_"  style="overflow:visible;"/>
			</clipPath>
			<g style="clip-path:url(#SVGID_10_);">
				<g>
					<defs>
						<rect id="SVGID_107_" x="325.5" y="189.7" width="63.4" height="80.7"/>
					</defs>
					<clipPath id="SVGID_11_">
						<use xlink:href="#SVGID_107_"  style="overflow:visible;"/>
					</clipPath>
					<path style="clip-path:url(#SVGID_11_);fill:#EAA593;" d="M388.9,236.8c0-26-21.1-47.1-47.1-47.1c-5.7,0-11.2,1-16.3,2.9
						c-0.1,11.2,1.7,22.4,5.7,33.3c1.9,5.3,4.4,10.1,7.3,14.5c8.8,13.5,21.6,23.1,36.2,30C383.5,261.9,388.9,250,388.9,236.8"/>
				</g>
			</g>
			<g style="clip-path:url(#SVGID_10_);">
				<g>
					<defs>
						<rect id="SVGID_109_" x="509.7" y="189.7" width="62.1" height="78.6"/>
					</defs>
					<clipPath id="SVGID_12_">
						<use xlink:href="#SVGID_109_"  style="overflow:visible;"/>
					</clipPath>
					<path style="clip-path:url(#SVGID_12_);fill:#EAA593;" d="M509.7,236.8c0,12.1,4.6,23.2,12.1,31.5c0.6-0.3,1.3-0.6,1.9-1
						c20.9-11.1,39.6-26.7,45.5-50.7c2-8,2.8-16.2,2.5-24.5c-4.7-1.6-9.7-2.4-14.9-2.4C530.8,189.7,509.7,210.8,509.7,236.8"/>
				</g>
			</g>
			<path style="clip-path:url(#SVGID_10_);fill:#40210F;" d="M446.3,195.2c0,0,6.6-0.1,9.6,0.4c3,0.6,5.7,1.8,3.4,5.3
				c-2.8,4.1-10.4,6.4-10.4,6.4s-7.6-2.3-10.4-6.4c-2.4-3.5,0.3-4.8,3.4-5.3c3-0.6,9.6-0.4,9.6-0.4"/>
			<g style="opacity:0.25;clip-path:url(#SVGID_10_);">
				<g>
					<defs>
						<rect id="SVGID_111_" x="440.3" y="121.1" width="131.5" height="164.4"/>
					</defs>
					<clipPath id="SVGID_13_">
						<use xlink:href="#SVGID_111_"  style="overflow:visible;"/>
					</clipPath>
					<path style="clip-path:url(#SVGID_13_);fill:#E1BE3F;" d="M440.3,285.3c1.4,0.1,2.8,0.1,4.1,0.1c27.4,0.5,55.1-5.2,79.3-18.1
						c20.9-11.1,39.6-26.7,45.5-50.7c7.4-30-1.7-63.3-19.3-88.1c-1.8-2.6-3.7-5-5.7-7.4C544.2,121.1,605.3,266.1,440.3,285.3"/>
				</g>
			</g>
			<g style="opacity:0.5;clip-path:url(#SVGID_10_);">
				<g>
					<defs>
						<rect id="SVGID_113_" x="329.6" y="78.2" width="34.8" height="56.6"/>
					</defs>
					<clipPath id="SVGID_14_">
						<use xlink:href="#SVGID_113_"  style="overflow:visible;"/>
					</clipPath>
					<path style="clip-path:url(#SVGID_14_);fill:#E1BE3F;" d="M344.2,134.9c13.6-12.3,20.1-15,20.1-15
						c-32.2-1.3-30.2-40.4-30.1-41.6c-12.4,18.1,1.5,42.2,21,43c-0.7,0.7-1.4,1.5-2.1,2.3C349.9,127.1,346.9,130.9,344.2,134.9"/>
				</g>
			</g>
			<g style="opacity:0.25;clip-path:url(#SVGID_10_);">
				<g>
					<defs>
						<rect id="SVGID_115_" x="533.4" y="78.2" width="34.7" height="56.6"/>
					</defs>
					<clipPath id="SVGID_15_">
						<use xlink:href="#SVGID_115_"  style="overflow:visible;"/>
					</clipPath>
					<path style="clip-path:url(#SVGID_15_);fill:#E1BE3F;" d="M553.5,134.9c-13.6-12.3-20.1-15-20.1-15
						c32.2-1.3,30.2-40.4,30.1-41.6c11.6,15,0,41.9-19.5,42.6c0.7,0.7,1.4,1.5,2.1,2.3C549.3,126.7,550.8,130.9,553.5,134.9"/>
				</g>
			</g>
			<path style="clip-path:url(#SVGID_10_);fill:#F9E6A9;" d="M355.2,121.2c-0.7,0.7-1.4,1.5-2.1,2.3c-24.8,27.7-35,66.9-21.8,102.4
				c1.9,5.3,4.4,10.1,7.3,14.5c6.6,10.1,15.5,18.1,25.7,24.4l0,0C300.4,200.6,355.2,121.2,355.2,121.2"/>
			<path style="clip-path:url(#SVGID_10_);fill:#DEBD91;" d="M365.1,85.8c-3.3-2.4-7.9-3.1-12.1-2.3c0,0,20.5,8.7,18.2,23.2l4.2-3.7
				c0,0,0.5-0.8,0.5-0.7C374.2,96.1,370.3,89.5,365.1,85.8"/>
			<path style="clip-path:url(#SVGID_10_);fill:#DEBD91;" d="M532.8,85.8c3.3-2.4,7.9-3.1,12.1-2.3c0,0-20.5,8.7-18.2,23.2l-4.2-3.7
				c0,0-0.5-0.8-0.5-0.7C523.7,96.1,527.6,89.5,532.8,85.8"/>
			<path style="clip-path:url(#SVGID_10_);fill:#D7C6A7;" d="M475.5,170.8c0,0,37.7,0.1,48.3,7.1c0,0-2-27.7-30.1-24.1
				C493.6,153.9,480.6,156.6,475.5,170.8"/>
		</g>
		<g>
			<defs>
				<path id="SVGID_117_" d="M490.5,155.1c0,0-13.6,2.1-16.6,25.4c0,0,0,7.8,0.6,10.4l7.8,0.3c0,0,25.1,2,26.8,3.3
					c9.6-14.5,3.7-39.7-15.4-39.7C492.7,154.9,491.6,155,490.5,155.1"/>
			</defs>
			<clipPath id="SVGID_16_">
				<use xlink:href="#SVGID_117_"  style="overflow:visible;"/>
			</clipPath>
			
				<linearGradient id="SVGID_17_" gradientUnits="userSpaceOnUse" x1="198.976" y1="615.7889" x2="199.976" y2="615.7889" gradientTransform="matrix(39.6869 0 0 -39.6869 -7422.8374 24613.5371)">
				<stop  offset="0" style="stop-color:#673A1B"/>
				<stop  offset="0.9615" style="stop-color:#42220F"/>
				<stop  offset="1" style="stop-color:#40210F"/>
			</linearGradient>
			<rect x="473.9" y="154.9" style="clip-path:url(#SVGID_16_);fill:url(#SVGID_17_);" width="44.8" height="39.7"/>
		</g>
		<g>
			<defs>
				<rect id="SVGID_120_" x="236.7" y="-162" width="425.2" height="623.6"/>
			</defs>
			<clipPath id="SVGID_18_">
				<use xlink:href="#SVGID_120_"  style="overflow:visible;"/>
			</clipPath>
			<path style="clip-path:url(#SVGID_18_);fill:#4B1F0E;" d="M513.2,174.2c-1.7-11.2-9.5-20.8-22.7-19c0,0-0.4,0.1-1.2,0.3
				c-2.4,1.1-5.3,2.9-8.1,5.9c-1.9,2.3-3.7,5.3-5.1,9.5C479.8,170.9,499.6,171.2,513.2,174.2"/>
			<path style="clip-path:url(#SVGID_18_);fill:#D7C6A7;" d="M422.2,170.8c0,0-37.7,0.1-48.3,7.1c0,0,2-27.7,30.1-24.1
				C404.1,153.9,417.2,156.6,422.2,170.8"/>
			<path style="clip-path:url(#SVGID_18_);fill:#4B1F0E;" d="M384.5,174.2c1.7-11.2,9.5-20.8,22.7-19c0,0,0.4,0.1,1.2,0.3
				c2.4,1.1,5.3,2.9,8.1,5.9c1.9,2.3,3.7,5.3,5.1,9.5C418,170.9,398.1,171.2,384.5,174.2"/>
			<g style="opacity:0.4;clip-path:url(#SVGID_18_);">
				<g>
					<defs>
						<rect id="SVGID_122_" x="411.3" y="222.2" width="74.8" height="9.6"/>
					</defs>
					<clipPath id="SVGID_19_">
						<use xlink:href="#SVGID_122_"  style="overflow:visible;"/>
					</clipPath>
					<path style="clip-path:url(#SVGID_19_);fill:#E1BE3F;" d="M411.3,228c0,0,17.1,8.5,35,0c0,0,0.9,0.9,5.2,0
						c0,0,16.2,8.5,34.5,0.1c0,0-22.1,8.4-35.9-4.2l-1.1-1.7l-0.9,1.4C448.1,223.6,435.1,236.1,411.3,228"/>
				</g>
			</g>
			<g style="opacity:0.4;clip-path:url(#SVGID_18_);">
				<g>
					<defs>
						<rect id="SVGID_124_" x="442.3" y="204.2" width="13.4" height="12.7"/>
					</defs>
					<clipPath id="SVGID_20_">
						<use xlink:href="#SVGID_124_"  style="overflow:visible;"/>
					</clipPath>
					<path style="clip-path:url(#SVGID_20_);fill:#E1BE3F;" d="M455.7,204.2c0,0-6.8,7-6.8,12.7c0,0-2.1-8.2-6.6-12.3l6.6,3.3
						L455.7,204.2z"/>
				</g>
			</g>
			<g style="opacity:0.72;clip-path:url(#SVGID_18_);">
				<g>
					<defs>
						<rect id="SVGID_126_" x="369.3" y="152" width="31.2" height="47.5"/>
					</defs>
					<clipPath id="SVGID_21_">
						<use xlink:href="#SVGID_126_"  style="overflow:visible;"/>
					</clipPath>
					<path style="clip-path:url(#SVGID_21_);fill:#E1BE3F;" d="M400.5,152.3c0,0-18-3.3-27.1,12.2c-9.1,15.5,0,35,0,35l3.8-2.7
						l-3.2-9C374,187.7,366.9,157.2,400.5,152.3"/>
				</g>
			</g>
			<g style="opacity:0.72;clip-path:url(#SVGID_18_);">
				<g>
					<defs>
						<rect id="SVGID_128_" x="497.7" y="152" width="31.2" height="47.5"/>
					</defs>
					<clipPath id="SVGID_22_">
						<use xlink:href="#SVGID_128_"  style="overflow:visible;"/>
					</clipPath>
					<path style="clip-path:url(#SVGID_22_);fill:#E1BE3F;" d="M497.7,152.3c0,0,18-3.3,27.1,12.2c9.1,15.5,0,35,0,35l-3.8-2.7
						l3.2-9C524.2,187.7,531.2,157.2,497.7,152.3"/>
				</g>
			</g>
			<path style="clip-path:url(#SVGID_18_);fill:#885524;" d="M493.9,219.8c-0.3,0-0.7,0.2-0.7,0.6c0,0.1-1,7.1-15.7,9.4
				c-14.8,2.3-22.3-2.6-28-7.3v-14.1c0-0.3-0.3-0.6-0.6-0.6c-0.4,0-0.6,0.3-0.6,0.6v14.1c-5.7,4.8-13.2,9.6-28,7.3
				c-14.6-2.2-15.7-9.3-15.7-9.4c0-0.3-0.4-0.6-0.7-0.6c-0.3,0-0.6,0.4-0.6,0.7c0,0.3,1.1,8.1,16.7,10.5c2.6,0.4,5,0.6,7.3,0.6
				c10.1,0,16.4-3.8,21.6-8c5.2,4.3,11.5,8,21.6,8c2.2,0,4.6-0.2,7.3-0.6c15.7-2.4,16.7-10.2,16.7-10.5
				C494.5,220.2,494.3,219.8,493.9,219.8"/>
			<path style="clip-path:url(#SVGID_18_);fill:#885524;" d="M449.5,221c0,0,0.1,1.7,2,3h-0.3l-1.9-0.8l-0.3-0.7L449.5,221z"/>
			<path style="clip-path:url(#SVGID_18_);fill:#885524;" d="M448.2,221c0,0-0.1,1.7-2,3h0.3l1.9-0.8l0.3-0.7L448.2,221z"/>
			<path style="clip-path:url(#SVGID_18_);fill:#3F210E;" d="M438.3,208.4C438.3,208.4,438.3,208.4,438.3,208.4l-18-2.5
				c-0.2,0-0.4-0.2-0.4-0.5c0-0.2,0.2-0.4,0.5-0.4l17.9,2.5c0.2,0,0.4,0.2,0.4,0.5C438.7,208.2,438.5,208.4,438.3,208.4"/>
			<path style="clip-path:url(#SVGID_18_);fill:#3F210E;" d="M421.2,218.1c-0.2,0-0.4-0.1-0.4-0.3c-0.1-0.2,0.1-0.5,0.3-0.5
				l17.1-3.9c0.2-0.1,0.5,0.1,0.5,0.3c0.1,0.2-0.1,0.5-0.3,0.5L421.2,218.1C421.3,218.1,421.2,218.1,421.2,218.1"/>
			<path style="clip-path:url(#SVGID_18_);fill:#3F210E;" d="M459.5,208.4c-0.2,0-0.4-0.2-0.4-0.4c0-0.2,0.1-0.4,0.4-0.5l17.9-2.5
				c0.2,0,0.4,0.1,0.5,0.4c0,0.2-0.1,0.4-0.4,0.5L459.5,208.4C459.5,208.4,459.5,208.4,459.5,208.4"/>
			<path style="clip-path:url(#SVGID_18_);fill:#3F210E;" d="M476.6,218.1C476.5,218.1,476.5,218.1,476.6,218.1l-17.2-3.9
				c-0.2-0.1-0.4-0.3-0.3-0.5c0.1-0.2,0.3-0.4,0.5-0.3l17.1,3.9c0.2,0.1,0.4,0.3,0.3,0.5C476.9,217.9,476.8,218.1,476.6,218.1"/>
			<path style="clip-path:url(#SVGID_18_);fill:#3F210E;" d="M388.7,195.3c-0.2,0-0.4-0.1-0.5-0.3c-6-9-6.2-22.5-0.6-31.5
				c4.4-6.9,11.3-10.1,19.7-9c0.3,0,0.6,0.4,0.5,0.7c0,0.3-0.4,0.6-0.7,0.5c-7.8-1.1-14.4,1.9-18.5,8.4c-5.4,8.6-5.2,21.6,0.5,30.1
				c0.2,0.3,0.1,0.7-0.2,0.9C389,195.2,388.8,195.3,388.7,195.3"/>
			<path style="clip-path:url(#SVGID_18_);fill:#40210F;" d="M423.9,191.1c0,0-24.2-0.9-46.7,5.7l0.4,1.1
				C377.5,197.9,401.2,191.9,423.9,191.1"/>
			<path style="clip-path:url(#SVGID_18_);fill:#3F210E;" d="M374.7,197.7l-1.3,1.8c2.2-1.2,4.9-1.8,4.9-1.8l-0.4-1l-0.2,0
				c0,0,0,0,0,0c-17.8-49.4,51.5-59.9,45.5-5.5C432.6,133.9,357.5,143.1,374.7,197.7"/>
			<path style="clip-path:url(#SVGID_18_);fill:#391D13;" d="M394.8,175.4c0-7,4.2-12.6,9.3-12.6c5.2,0,9.3,5.7,9.3,12.6
				c0,7-4.2,12.6-9.3,12.6C399,188,394.8,182.3,394.8,175.4"/>
			<path style="clip-path:url(#SVGID_18_);fill:#3F210E;" d="M509,195.3c-0.1,0-0.2,0-0.4-0.1c-0.3-0.2-0.4-0.6-0.2-0.9
				c5.7-8.6,5.9-21.5,0.5-30.1c-4.1-6.5-10.6-9.5-18.5-8.4c-0.3,0-0.7-0.2-0.7-0.5c0-0.3,0.2-0.7,0.5-0.7c8.3-1.1,15.3,2.1,19.7,9
				c5.6,9,5.4,22.5-0.6,31.5C509.4,195.2,509.2,195.3,509,195.3"/>
			<path style="clip-path:url(#SVGID_18_);fill:#40210F;" d="M473.9,191.1c0,0,24.2-0.9,46.7,5.7l-0.4,1.1
				C520.2,197.9,496.5,191.9,473.9,191.1"/>
			<path style="clip-path:url(#SVGID_18_);fill:#40210F;" d="M474.5,191.1c-5.9-54.4,63.3-43.8,45.5,5.5c0,0,0,0,0,0l-0.2,0l-0.4,1
				c0,0,2.7,0.7,4.9,1.8l-1.3-1.8C540.2,143.1,465.2,133.9,474.5,191.1"/>
			<path style="clip-path:url(#SVGID_18_);fill:#391D13;" d="M503,175.4c0-7-4.2-12.6-9.3-12.6c-5.2,0-9.3,5.7-9.3,12.6
				c0,7,4.2,12.6,9.3,12.6C498.8,188,503,182.3,503,175.4"/>
			<path style="clip-path:url(#SVGID_18_);fill:#FFFFFF;" d="M401.5,166.9c0,3.5-2.8,6.3-6.3,6.3c-3.5,0-6.3-2.8-6.3-6.3
				c0-3.5,2.8-6.3,6.3-6.3C398.7,160.7,401.5,163.5,401.5,166.9"/>
			<path style="clip-path:url(#SVGID_18_);fill:#FFFFFF;" d="M492.3,166.9c0,3.5-2.8,6.3-6.3,6.3c-3.5,0-6.3-2.8-6.3-6.3
				c0-3.5,2.8-6.3,6.3-6.3C489.5,160.7,492.3,163.5,492.3,166.9"/>
			<path style="clip-path:url(#SVGID_18_);fill:#AB6C21;" d="M550.5,128.2c-1.4-2-2.9-3.9-4.4-5.8c3.2-0.5,5.7-1.3,5.7-1.3
				c0.4-0.2,0.7-0.3,1.1-0.5c7.8-3.8,13.8-10.2,16-18.5l0,0c2.4-7,1.8-14.9-1.2-21.6c-5.9-13.2-21.3-19.6-35.1-18.2
				c-2.6,0.3-5.1,0.8-7.6,1.6c-0.3,0.1-0.7,0.3-1,0.5c-0.5,0.2-1.1,0.4-1.6,0.7c-10.2,4.6-17.7,14.4-18.4,23.6l-7-2.8
				c0,0-21.1-7.7-46.2-7.7c-25.1,0-50.2,10.8-50.2,10.8c-2.3,0.9-5.4,2.2-6.7,2.8c0.7-7.5-3.5-16-10.8-22c0,0,0,0,0,0c0,0,0,0-0.1,0
				c-0.4-0.3-0.8-0.6-1.1-0.9c-0.2-0.2-0.4-0.3-0.4-0.4c-0.6-0.4-1.2-0.9-1.8-1.3c-1.2-0.8-2.5-1.6-3.9-2.2
				c-1.3-0.6-2.6-1.2-3.9-1.5c-1.9-0.6-3.9-0.9-6-1.1c-13.8-1.4-29.2,5-35.1,18.2c-1.7,3.9-2.7,8.1-2.7,12.3l0,0
				c0,0-0.6,10.1,6.1,18.8l0,0c1.6,2.1,3.1,3.6,3.9,4.4c1.6,1.6,6.5,5.1,11.4,6.5c-6.4,7.6-38,48.3-20.8,97.9c0,0-0.2-0.9-0.5-2.5
				c0.7,2.8,1.6,5.5,2.6,8.2c1.9,5.2,4.4,10.1,7.3,14.6c20.5,31.3,61.5,41.5,92.3,44.5c4.7,0.5,9.4,0.7,14.1,0.8c1.2,0,2.4,0,3.6,0
				c27.5,0,53.7-6.3,76.1-18.2c25.7-13.7,40.7-30.4,45.8-51.1C576.8,188.4,569.6,155.2,550.5,128.2 M562.1,225.7
				c-20.7,45.5-99.6,67.8-164.6,52.4c-22.5-6.2-45-17.5-58.4-38c-2.9-4.5-5.3-9.3-7.2-14.3c-12.5-33.8-4.2-72.8,21.7-101.8
				c0.6-0.7,1.2-1.4,1.9-2c0.2,0,0.4,0,0.6,0c3,0,6-0.5,9-1.6c0.3-0.1,0.5-0.5,0.4-0.8c-0.1-0.3-0.5-0.5-0.8-0.4
				c-11.1,4-22.7,0-29.6-10.2c-5.5-8.1-8.2-21.7,2-33.2c6.3-6.3,12.4-9.6,18-11.1c0.9-0.2,1.7-0.4,2.7-0.6c9-1.5,16.3,1.5,20,3.6
				c10.6,6,16.9,17.3,14.6,26.3c0,0,0,0,0,0.1c0,0.1,0,0.1,0,0.2c0,0,0,0.1,0,0.1c0,0,0,0.1,0,0.1c0,0,0,0,0,0
				c0,0.1,0.1,0.2,0.2,0.2c0,0,0,0,0,0c0,0,0.1,0.1,0.1,0.1c0,0,0.1,0,0.1,0c0,0,0,0,0,0c0,0,0,0,0,0c0.1,0,0.1,0,0.2,0c0,0,0,0,0,0
				c0,0,0,0,0,0c0,0,0,0,0,0c3.5-1.7,7.1-3.2,10.8-4.5c0,0,21.1-8.5,46.9-8.5c25.8,0,46.3,7.3,46.3,7.3c2.4,0.9,4.7,1.8,7,2.9
				c0.2,0.1,0.4,0.1,0.5,0c0,0,0,0,0,0c0.1,0,0.1-0.1,0.1-0.1c0,0,0-0.1,0.1-0.1c0,0,0,0,0.1-0.1c0,0,0,0,0,0c0,0,0-0.1,0-0.2
				c0,0,0,0,0-0.1c0,0,0,0,0,0c-0.6-9.4,7.1-20.1,17.7-24.8c12.5-5.6,26.3-2.2,37.9,9.3c10.3,11.5,7.5,25.1,2,33.2
				c-6.9,10.2-18.6,14.2-29.6,10.2c-0.3-0.1-0.7,0.1-0.8,0.4c-0.1,0.3,0.1,0.7,0.4,0.8c0.1,0.1,0.3,0.1,0.4,0.1
				c2.6,2.5,7.4,2.7,11.5,2.2C549.7,130.1,582.7,180.5,562.1,225.7"/>
			<path style="clip-path:url(#SVGID_18_);fill:#AB6C21;" d="M365.4,85.4c-5.4-3.9-13.8-3.6-18.9,0.7c-3.5,3-5.2,8.2-4.2,13.2
				c0.9,4.4,3.8,8.6,8,11.5c3.6,2.5,7,3,11,3.6l1.3,0.2c0,0,0,0,0.1,0c0.1,0,0.2,0,0.3-0.1l12.8-11.2l0,0c0.1-0.1,0.2-0.2,0.3-0.4
				c0.1-0.1,0.2-0.2,0.2-0.3c0.1-0.1,0.1-0.3,0.1-0.4C374.4,95.4,370.2,88.9,365.4,85.4 M375.3,102.4c-0.1,0.1-0.1,0.2-0.2,0.3
				l-12.6,11.1l-1.1-0.2c-4-0.6-7.2-1.1-10.6-3.5c-4-2.8-6.8-6.8-7.6-11c-1-4.7,0.6-9.5,3.9-12.3c2.5-2.2,6-3.3,9.4-3.3
				c3,0,6,0.8,8.4,2.6c4.6,3.4,8.7,9.5,10.5,16.1C375.4,102.3,375.3,102.4,375.3,102.4"/>
			<path style="clip-path:url(#SVGID_18_);fill:#AB6C21;" d="M534.9,114.6c0.1,0.1,0.2,0.1,0.3,0.1c0,0,0,0,0.1,0l1.3-0.2
				c4-0.6,7.4-1.1,11-3.6c4.2-2.9,7.1-7.1,8-11.5c1-5-0.6-10.1-4.2-13.2c-5-4.3-13.5-4.6-18.9-0.7c-4.8,3.5-9,9.9-10.9,16.8
				c0,0.1,0,0.3,0.1,0.4c0,0.1,0.1,0.2,0.2,0.3c0.1,0.2,0.2,0.4,0.3,0.4l0,0L534.9,114.6z M532.9,86.1c5.1-3.7,13.1-3.4,17.8,0.7
				c3.3,2.8,4.8,7.7,3.9,12.3c-0.9,4.2-3.6,8.2-7.6,11c-3.4,2.4-6.6,2.9-10.6,3.5l-1.1,0.2l-12.6-11.1c0-0.1-0.1-0.2-0.2-0.3
				c0-0.1-0.1-0.1-0.1-0.2C524.2,95.6,528.2,89.5,532.9,86.1"/>
			<g style="opacity:0.6;clip-path:url(#SVGID_18_);">
				<g>
					<defs>
						<rect id="SVGID_130_" x="395.7" y="83.2" width="101.7" height="55.7"/>
					</defs>
					<clipPath id="SVGID_23_">
						<use xlink:href="#SVGID_130_"  style="overflow:visible;"/>
					</clipPath>
					<path style="clip-path:url(#SVGID_23_);fill:#E1BE3F;" d="M410.4,92.1c0,0-5,21.5-14.7,24.9c0,0,18.3-0.7,21.5-5.4
						c0,0,2.2,25.6,40.5,27.3h3.7l-3.7-13.1c0,0,5,6,8.3,7.3c0,0-0.3-5,0-8.8l12.9-19.7l7.5-1.7l-3.1,14.7c0,0,15.6-4.4,13.9-27.7
						l-38-6.7L426.4,85L410.4,92.1z"/>
				</g>
			</g>
		</g>
		<g>
			<defs>
				<path id="SVGID_132_" d="M480.3,117.4c0.2-0.1,0.4-0.3,0.5-0.5v0L480.3,117.4z M419.9,98.5L419.9,98.5 M419.6,59.4
					c-8.5,5.6-14.7,14.8-15.9,24.9c-0.6,5.7,0.3,11.5-0.6,17.2c-0.9,5.7-4.2,11.6-9.7,13.1l-0.2,0.2c6.4-1.1,13.1-2.3,18.4-6.2
					c2.2-1.6,4-3.6,5.6-5.8c0.6,5.5,3.5,13.9,6.9,18.2c3.4,4.3,7.9,7.8,12.7,10.5c8,4.4,17.4,6.6,26.3,4.6l0,0
					c-4.3-6.4-5.1-14.9-2.1-22l-1.7,7.1c1.8,3.6,6.1,8,9.9,9.1l0.3,0.2c-2-3.3-1.6-7.6,0.2-11c1.9-3.3,5.1-5.8,8.5-7.5
					c1.7-0.8,3.5-1.5,5.1-2.7c1.4-1.1,2.5-2.6,2.6-4.3l0,0.7c0.9,2.2,0.2,4-0.9,6.2c-1,1.9-2.5,3.6-4.2,5v0.1
					c32.1-11.5,12.6-76.1-20.1-59.2l-1.4-1.1c-3.5-3-6-3.2-10.6-3.7c-1.9-0.2-3.8-0.4-5.7-0.4C434.8,52.7,426.5,54.9,419.6,59.4"/>
			</defs>
			<clipPath id="SVGID_24_">
				<use xlink:href="#SVGID_132_"  style="overflow:visible;"/>
			</clipPath>
			
				<linearGradient id="SVGID_25_" gradientUnits="userSpaceOnUse" x1="198.3724" y1="613.4964" x2="199.3724" y2="613.4964" gradientTransform="matrix(104.0087 0 0 -104.0087 -20239.209 63898.4922)">
				<stop  offset="0" style="stop-color:#C4A15E"/>
				<stop  offset="0.2474" style="stop-color:#C39835"/>
				<stop  offset="0.5089" style="stop-color:#B99132"/>
				<stop  offset="0.9452" style="stop-color:#A07F28"/>
				<stop  offset="1" style="stop-color:#9C7C27"/>
			</linearGradient>
			<rect x="393.2" y="40.9" style="clip-path:url(#SVGID_24_);fill:url(#SVGID_25_);" width="119.7" height="97.2"/>
		</g>
		<g>
			<defs>
				<rect id="SVGID_135_" x="236.7" y="-162" width="425.2" height="623.6"/>
			</defs>
			<clipPath id="SVGID_26_">
				<use xlink:href="#SVGID_135_"  style="overflow:visible;"/>
			</clipPath>
			<g style="clip-path:url(#SVGID_26_);">
				<g>
					<defs>
						<rect id="SVGID_137_" x="393.2" y="89.5" width="65.8" height="47.3"/>
					</defs>
					<clipPath id="SVGID_27_">
						<use xlink:href="#SVGID_137_"  style="overflow:visible;"/>
					</clipPath>
					<path style="clip-path:url(#SVGID_27_);fill:#DCBF93;" d="M422.5,94.1l-0.4-4.6l-1.7,4.6c-3.6,8.4-15.5,15-23.1,18.6
						c-1.1,0.9-2.4,1.6-3.9,2l-0.2,0.2c6.4-1.1,13.1-2.3,18.4-6.2c2.2-1.6,4-3.6,5.6-5.9l0,0c0.6,5.5,3.5,13.9,6.9,18.2
						c3.4,4.3,7.9,7.8,12.7,10.5c5.3,2.9,11.1,4.8,17.1,5.3l5,0C426.7,132.1,422.5,94.1,422.5,94.1"/>
				</g>
			</g>
			<g style="clip-path:url(#SVGID_26_);">
				<g>
					<defs>
						<rect id="SVGID_139_" x="459.4" y="61.1" width="37.9" height="69.5"/>
					</defs>
					<clipPath id="SVGID_28_">
						<use xlink:href="#SVGID_139_"  style="overflow:visible;"/>
					</clipPath>
					<path style="clip-path:url(#SVGID_28_);fill:#DCBF93;" d="M480.3,117.4c0.2-0.2,0.4-0.3,0.5-0.5v0L480.3,117.4z"/>
					<path style="clip-path:url(#SVGID_28_);fill:#DCBF93;" d="M485.7,61.1c2.5,7.3,7.1,24.1,3.7,39.2l-6-11.5
						c0.5,7.6-6.3,11.3-6.3,11.3c-9.2,7.7-12.5,18.6-13.5,23c-1.5-2.1-2.8-4.3-3.2-6l-1,4l0,0.1c1.8,3.6,6.1,8,9.9,9.1l0.3,0.2
						c-2-3.3-1.6-7.6,0.2-11c1.9-3.3,5.1-5.8,8.5-7.5c1.7-0.8,3.5-1.5,5.1-2.7c1.5-1.2,2.7-3,2.6-4.9l0,1.3c0.9,2.2,0.2,4-0.9,6.2
						c-1,1.9-2.6,3.6-4.2,5v0.1C503.3,109,500.5,75.1,485.7,61.1"/>
				</g>
			</g>
			<path style="clip-path:url(#SVGID_26_);fill:#D9BA74;" d="M453.1,53.8c0,0-51.2-9.7-49.5,42c0,0,1.2,10.3-3.9,14.4
				c0,0,7.6-6,10.5-22.9C413,70.4,447.5,53.9,453.1,53.8"/>
			<path style="clip-path:url(#SVGID_26_);fill:#D9BA74;" d="M451.3,134.9c0,0-35.5-10.7-27.2-53.2c0,0,3.7-11.8,11.8-16.1
				C435.9,65.6,409,110,451.3,134.9"/>
			<path style="clip-path:url(#SVGID_26_);fill:#8C5924;" d="M483.3,58.3c-4.7-3.3-12.4-6.2-22.4-1.2c-3.2-2.6-6.9-4.1-11.9-4.7
				c-10.7-1.3-21.3,1-29.6,6.5c-9,5.9-15,15.4-16.1,25.4c-0.3,2.7-0.3,5.5-0.2,8.1c0,3,0.1,6.1-0.4,9c-0.7,4.8-3.6,11-9.3,12.6
				c-0.2,0.1-0.3,0.2-0.4,0.4c-0.2,0.1-0.2,0.3-0.2,0.6c0.1,0.3,0.3,0.5,0.6,0.5c12.2-0.8,19-4.5,22.7-8.3c1,5.2,6.2,23,30.4,28.9
				c0,0,0,0-0.1,0c3.4,1,6.8,1.5,10.1,1.5c2.4,0,4.7-0.3,6.9-0.8c0.3-0.1,0.6-0.4,0.5-0.8c0-0.1-0.1-0.2-0.1-0.2c0,0,0,0,0,0
				c-2-3-3.2-6.5-3.6-10.2c1.7,1.6,5.8,5.3,9.5,5.6c0.1,0,0.2,0,0.3-0.1c0.3-0.2,0.4-0.6,0.2-0.9c-1.8-2.9-1.6-7,0.3-10.3
				c1.6-2.9,4.5-5.4,8.3-7.2c0.4-0.2,0.8-0.4,1.2-0.6c1.3-0.6,2.7-1.3,3.9-2.2c0.8-0.6,1.5-1.4,2-2.2c0,1.3-0.5,2.5-1.3,4
				c-1,2-2.6,3.6-4,4.8c0,0,0,0,0,0c-0.2,0.2-0.4,0.3-0.5,0.5c-0.3,0.2-0.3,0.6-0.1,0.9c0.1,0.2,0.3,0.2,0.5,0.2
				c0.1,0,0.3,0,0.4-0.1c0.1-0.1,0.2-0.2,0.3-0.3c0,0,0,0,0.1,0c9.1-3.3,15-11.1,16.5-22C499.5,81.4,493.3,65.4,483.3,58.3
				 M496.3,95.5c-1.2,9.1-5.7,16-12.6,19.6c0.7-0.8,1.4-1.8,2-2.8c1.2-2.3,2-4.2,1-6.7c0,0,0,0,0,0c0-0.4,0.1-0.7,0-1
				c0-0.4-0.3-0.6-0.7-0.6c-0.4,0-0.6,0.3-0.6,0.7c0.1,1.5-0.8,3.1-2.3,4.3c-1.1,0.8-2.4,1.4-3.7,2c-0.4,0.2-0.8,0.4-1.3,0.6
				c-4.1,2-7.1,4.6-8.8,7.7c-1.8,3.2-2.1,6.9-1,10c-3.3-1.5-6.7-5.1-8.2-8.1c0.2-2.3,0.7-4.6,1.6-6.7c0.1-0.3,0-0.7-0.3-0.8
				c-0.3-0.1-0.7,0-0.8,0.3c-1,2.3-1.5,4.7-1.7,7.2c0,0.1,0,0.2,0,0.2c-0.3,5,0.8,10.1,3.4,14.4c-7.8,1.5-16.6-0.1-25-4.7
				c-5.2-2.8-9.4-6.3-12.5-10.3c-3-3.9-5.6-11-6.5-16.1c2.1-3.2,2.3-5.7,2.3-5.7c0.2-0.3,0.1-0.7-0.3-0.9c-0.3-0.2-0.7-0.1-0.9,0.3
				c-2.4,4.4-5.1,7.7-8.1,9.9c-4.1,3-9.2,4.4-14.1,5.4c3.9-2.8,5.9-7.8,6.6-11.9c0.5-3.1,0.4-6.2,0.4-9.2c0-2.6-0.1-5.3,0.2-8
				c1.1-9.7,6.9-18.8,15.6-24.5c8.1-5.3,18.3-7.6,28.8-6.3c4.9,0.6,8.5,2,11.6,4.7c0.2,0.2,0.5,0.2,0.7,0.1
				c7.6-3.9,15.1-3.6,21.5,0.9C492.2,66.2,498.1,81.7,496.3,95.5"/>
			<path style="clip-path:url(#SVGID_26_);fill:#FCF1CD;" d="M331.4,215.7L331.4,215.7C331.4,215.7,331.4,215.7,331.4,215.7
				C331.4,215.7,331.4,215.7,331.4,215.7"/>
			<path style="clip-path:url(#SVGID_26_);fill:#FCF1CD;" d="M419.2,84.8c-22.6,2-43.6,6.3-61.9,12.2c0,0-0.1,0-0.1,0
				c-43.1,14.1-71.5,37.8-71.5,64.5c0,17.5,12.2,33.7,32.7,46.8c-11.2-8.5-25.1-25.4-21.8-56.3C301.7,102.5,415.3,85.3,419.2,84.8"
				/>
		</g>
		<g>
			<defs>
				<path id="SVGID_141_" d="M357.2,97c0,0-0.1,0-0.1,0c-43.1,14.1-71.5,37.8-71.5,64.5c0,19.7,15.4,37.8,40.8,51.5
					c-10.5-40.6,10.5-74.2,19.9-86.6c4.5-3.2,8.7-6.1,9.3-6.6c1.2-1.1,39.5-19.4,72.1-19.6c32.5-0.2,70.7,3.1,94.2,10.8
					c0,0,14,5.8,24.5,11.7c1.4,1.8,2.8,3.6,4.1,5.4c18.5,26.2,25.9,58.1,20,85.9c26.4-13.9,42.6-32.3,42.6-52.5
					c0-43.1-73.4-78.1-163.7-78.1C415.2,83.4,383.5,88.4,357.2,97"/>
			</defs>
			<clipPath id="SVGID_29_">
				<use xlink:href="#SVGID_141_"  style="overflow:visible;"/>
			</clipPath>
			
				<linearGradient id="SVGID_30_" gradientUnits="userSpaceOnUse" x1="198.1183" y1="612.4593" x2="199.1183" y2="612.4593" gradientTransform="matrix(327.3965 0 0 -327.3965 -64577.6055 200665.75)">
				<stop  offset="0" style="stop-color:#D5B673"/>
				<stop  offset="0.3136" style="stop-color:#D5B470"/>
				<stop  offset="0.5543" style="stop-color:#D3AF66"/>
				<stop  offset="0.7706" style="stop-color:#D1A656"/>
				<stop  offset="0.9715" style="stop-color:#CE9A3F"/>
				<stop  offset="1" style="stop-color:#CE983B"/>
			</linearGradient>
			<rect x="285.6" y="83.4" style="clip-path:url(#SVGID_29_);fill:url(#SVGID_30_);" width="327.4" height="130.6"/>
		</g>
		<g>
			<defs>
				<rect id="SVGID_144_" x="236.7" y="-162" width="425.2" height="623.6"/>
			</defs>
			<clipPath id="SVGID_31_">
				<use xlink:href="#SVGID_144_"  style="overflow:visible;"/>
			</clipPath>
			<g style="opacity:0.6;clip-path:url(#SVGID_31_);">
				<g>
					<defs>
						<rect id="SVGID_146_" x="551" y="129" width="31.9" height="85"/>
					</defs>
					<clipPath id="SVGID_32_">
						<use xlink:href="#SVGID_146_"  style="overflow:visible;"/>
					</clipPath>
					<g style="clip-path:url(#SVGID_32_);">
						<defs>
							<path id="SVGID_148_" d="M551,129c18.1,26,25.3,57.5,19.4,85c4.1-2.2,8-4.4,11.6-6.8C588.6,150.6,554.3,130.8,551,129"/>
						</defs>
						<clipPath id="SVGID_33_">
							<use xlink:href="#SVGID_148_"  style="overflow:visible;"/>
						</clipPath>
						
							<linearGradient id="SVGID_34_" gradientUnits="userSpaceOnUse" x1="199.2157" y1="616.7194" x2="200.2157" y2="616.7194" gradientTransform="matrix(31.862 0 0 -31.862 -5796.3667 19821.4434)">
							<stop  offset="0" style="stop-color:#D5B673"/>
							<stop  offset="0.3136" style="stop-color:#D5B470"/>
							<stop  offset="0.5543" style="stop-color:#D3AF66"/>
							<stop  offset="0.7706" style="stop-color:#D1A656"/>
							<stop  offset="0.9715" style="stop-color:#CE9A3F"/>
							<stop  offset="1" style="stop-color:#CE983B"/>
						</linearGradient>
						<rect x="551" y="129" style="clip-path:url(#SVGID_33_);fill:url(#SVGID_34_);" width="37.6" height="85"/>
					</g>
				</g>
			</g>
			<g style="opacity:0.6;clip-path:url(#SVGID_31_);">
				<g>
					<defs>
						<rect id="SVGID_151_" x="312.8" y="144.2" width="22.4" height="68.8"/>
					</defs>
					<clipPath id="SVGID_35_">
						<use xlink:href="#SVGID_151_"  style="overflow:visible;"/>
					</clipPath>
					<g style="clip-path:url(#SVGID_35_);">
						<defs>
							<path id="SVGID_153_" d="M335.2,144.2c-11.2,15.3-18.5,42.4-22.4,60.4c4.1,3,8.7,5.8,13.6,8.4
								C319.3,185.3,326.8,160.9,335.2,144.2"/>
						</defs>
						<clipPath id="SVGID_36_">
							<use xlink:href="#SVGID_153_"  style="overflow:visible;"/>
						</clipPath>
						
							<linearGradient id="SVGID_37_" gradientUnits="userSpaceOnUse" x1="199.7299" y1="618.7155" x2="200.7299" y2="618.7155" gradientTransform="matrix(22.3918 0 0 -22.3918 -4159.4858 14032.8379)">
							<stop  offset="0" style="stop-color:#D5B673"/>
							<stop  offset="0.3136" style="stop-color:#D5B470"/>
							<stop  offset="0.5543" style="stop-color:#D3AF66"/>
							<stop  offset="0.7706" style="stop-color:#D1A656"/>
							<stop  offset="0.9715" style="stop-color:#CE9A3F"/>
							<stop  offset="1" style="stop-color:#CE983B"/>
						</linearGradient>
						<rect x="312.8" y="144.2" style="clip-path:url(#SVGID_36_);fill:url(#SVGID_37_);" width="22.4" height="68.8"/>
					</g>
				</g>
			</g>
			<path style="clip-path:url(#SVGID_31_);fill:#AB6E21;" d="M566.5,104.3c-8.9-4.3-18.6-8-29-11.2c-2.3-2.8-19.1-23.1-36-43.1
				c-37-43.9-38.4-43.9-39.4-43.9c-3.3,0-8.4,4.7-9.3,5.6l-96.7,82.9c-8.5,2.8-16.6,6-24,9.6c-31.6,15.2-49,35.5-49,57.3
				c0,20.6,15.6,39.9,44.2,54.8c-0.3-1.1-0.6-2.2-0.9-3.3c-25.4-13.8-40.8-31.8-40.8-51.5c0-26.8,28.4-50.4,71.5-64.5
				c0,0,0.1,0,0.1,0c26.3-8.6,58-13.6,92.1-13.6c90.3,0,163.7,35.1,163.7,78.1c0,20.2-16.1,38.6-42.6,52.5c-0.2,0.9-0.4,1.8-0.6,2.7
				c0,0.1-0.1,0.3-0.1,0.4c29.6-15,45.8-34.7,45.8-55.7C615.5,139.8,598.1,119.5,566.5,104.3 M449.3,80.9
				c-31.3,0-61.2,4.1-87.1,11.9l92.3-79.2c2.1-2,5.6-4.7,7.4-5c4.4,3.1,43.9,50,71.3,83.2C508.1,84.7,479.3,80.9,449.3,80.9"/>
		</g>
		<g>
			<defs>
				<path id="SVGID_156_" d="M454.5,13.7l-92.3,79.2c25.9-7.7,55.9-11.9,87.1-11.9c30,0,58.7,3.8,83.9,11
					c-27.4-33.2-66.9-80.1-71.3-83.2C460.1,8.9,456.6,11.7,454.5,13.7"/>
			</defs>
			<clipPath id="SVGID_38_">
				<use xlink:href="#SVGID_156_"  style="overflow:visible;"/>
			</clipPath>
			
				<linearGradient id="SVGID_39_" gradientUnits="userSpaceOnUse" x1="198.2265" y1="612.8793" x2="199.2265" y2="612.8793" gradientTransform="matrix(171.0208 0 0 -171.0208 -33538.6211 104865.8125)">
				<stop  offset="0" style="stop-color:#D5B673"/>
				<stop  offset="0.3136" style="stop-color:#D5B470"/>
				<stop  offset="0.5543" style="stop-color:#D3AF66"/>
				<stop  offset="0.7706" style="stop-color:#D1A656"/>
				<stop  offset="0.9715" style="stop-color:#CE9A3F"/>
				<stop  offset="1" style="stop-color:#CE983B"/>
			</linearGradient>
			<rect x="362.2" y="8.7" style="clip-path:url(#SVGID_38_);fill:url(#SVGID_39_);" width="171" height="84.1"/>
		</g>
		<g>
			<defs>
				<rect id="SVGID_159_" x="236.7" y="-162" width="425.2" height="623.6"/>
			</defs>
			<clipPath id="SVGID_40_">
				<use xlink:href="#SVGID_159_"  style="overflow:visible;"/>
			</clipPath>
			<path style="clip-path:url(#SVGID_40_);fill:#AB6E21;" d="M344.9,129c-0.2,0-0.4-0.1-0.5-0.2c-0.3-0.3-0.3-0.8,0-1.1
				c0.3-0.3,29.7-30.3,103.2-28.3c74.9,2,100.6,21.7,103.6,28.4c0.2,0.4,0,0.8-0.4,1c-0.4,0.2-0.8,0-1-0.4
				c-1.3-2.8-7.9-9.3-24.5-15.3c-13.5-5-38-11.1-77.8-12.2c-72.7-2-101.7,27.5-102,27.8C345.3,129,345.1,129,344.9,129"/>
			<g style="opacity:0.3;clip-path:url(#SVGID_40_);">
				<g>
					<defs>
						<rect id="SVGID_161_" x="470.3" y="17.4" width="62.9" height="74.4"/>
					</defs>
					<clipPath id="SVGID_41_">
						<use xlink:href="#SVGID_161_"  style="overflow:visible;"/>
					</clipPath>
					<g style="clip-path:url(#SVGID_41_);">
						<defs>
							<path id="SVGID_163_" d="M470.3,17.4c11.9,17.5,29,45.7,30.8,66.1c0,0.5,0.1,0.9,0.1,1.3c11.1,1.8,21.9,4.1,32,7
								C512.3,66.5,484.3,33.2,470.3,17.4"/>
						</defs>
						<clipPath id="SVGID_42_">
							<use xlink:href="#SVGID_163_"  style="overflow:visible;"/>
						</clipPath>
						
							<linearGradient id="SVGID_43_" gradientUnits="userSpaceOnUse" x1="198.6154" y1="614.3889" x2="199.6154" y2="614.3889" gradientTransform="matrix(62.9451 0 0 -62.9451 -12031.5596 38727.4102)">
							<stop  offset="0" style="stop-color:#D5B673"/>
							<stop  offset="0.3136" style="stop-color:#D5B470"/>
							<stop  offset="0.5543" style="stop-color:#D3AF66"/>
							<stop  offset="0.7706" style="stop-color:#D1A656"/>
							<stop  offset="0.9715" style="stop-color:#CE9A3F"/>
							<stop  offset="1" style="stop-color:#CE983B"/>
						</linearGradient>
						<rect x="470.3" y="17.4" style="clip-path:url(#SVGID_42_);fill:url(#SVGID_43_);" width="62.9" height="74.4"/>
					</g>
				</g>
			</g>
			<path style="clip-path:url(#SVGID_40_);fill:#FCF1CD;" d="M376.4,89l85.6-80.4c-1.8,0.2-5.3,3-7.4,5l-92.3,79.2
				C366.8,91.4,371.5,90.2,376.4,89"/>
			<path style="clip-path:url(#SVGID_40_);fill:#FCF1CD;" d="M443.4,80.1C443.4,80.1,443.4,80.1,443.4,80.1c-0.2,0-0.4-0.2-0.4-0.4
				c3.1-31,18.4-70.7,18.5-71.1c0.1-0.2,0.3-0.3,0.5-0.2c0.2,0.1,0.3,0.3,0.2,0.5c-0.2,0.4-15.4,40-18.5,70.9
				C443.8,79.9,443.6,80.1,443.4,80.1"/>
			<path style="clip-path:url(#SVGID_40_);fill:#FCF1CD;" d="M492.3,83.1c-0.2,0-0.3-0.1-0.4-0.2c-0.2-0.5-19-52.7-30.1-73.6
				c-4,3.8-40.3,39.2-54.6,73.6c-0.1,0.2-0.3,0.3-0.5,0.2c-0.2-0.1-0.3-0.3-0.2-0.5c15.2-36.4,54.8-73.8,55.1-74.2
				c0.1-0.1,0.2-0.1,0.3-0.1c0.1,0,0.2,0.1,0.3,0.2c11.1,20.6,30.2,73.6,30.4,74.1c0.1,0.2,0,0.4-0.2,0.5
				C492.4,83.1,492.3,83.1,492.3,83.1"/>
			<path style="clip-path:url(#SVGID_40_);fill:#FCF1CD;" d="M442.3,86.8c-0.1,2.3-0.2,4.5-0.3,6.8c0,0.6,1,0.6,1,0
				c0.1-2.3,0.2-4.5,0.3-6.8C443.4,86.2,442.4,86.2,442.3,86.8"/>
			<path style="clip-path:url(#SVGID_40_);fill:#FCF1CD;" d="M413.3,87.2c0.9,3.3,1.4,6.6,1.6,10c0,0.6,1,0.6,1,0
				c-0.2-3.5-0.8-6.9-1.7-10.2C414.1,86.4,413.2,86.6,413.3,87.2"/>
			<path style="clip-path:url(#SVGID_40_);fill:#FCF1CD;" d="M384.5,91.6c1.3,3,2.7,6.1,4,9.1c0.3,0.6,1.1,0.1,0.9-0.5
				c-1.3-3-2.7-6.1-4-9.1C385.1,90.5,384.3,91,384.5,91.6"/>
			<path style="clip-path:url(#SVGID_40_);fill:#FCF1CD;" d="M356.7,99.8c3,2.8,5.9,5.8,8.7,8.8c0.4,0.5,1.2-0.2,0.7-0.7
				c-2.8-3-5.8-5.9-8.7-8.8C356.9,98.6,356.2,99.3,356.7,99.8"/>
			<path style="clip-path:url(#SVGID_40_);fill:#FCF1CD;" d="M330.6,111.2c6.5,3.4,13.3,6.2,20.3,8.5c0.6,0.2,0.9-0.8,0.3-1
				c-6.9-2.3-13.6-5.1-20.1-8.4C330.5,110.1,330,110.9,330.6,111.2"/>
			<path style="clip-path:url(#SVGID_40_);fill:#FCF1CD;" d="M306.4,129.3c9.8,1.7,19.7,3.3,29.6,4.7c0.6,0.1,0.9-0.9,0.3-1
				c-9.9-1.4-19.7-3-29.6-4.7C306.1,128.2,305.8,129.1,306.4,129.3"/>
			<path style="clip-path:url(#SVGID_40_);fill:#FCF1CD;" d="M291.4,156.1c10.1-0.8,20.1-1.7,30.2-2.5c0.6-0.1,0.6-1.1,0-1
				c-10.1,0.8-20.1,1.7-30.2,2.5C290.8,155.1,290.8,156.1,291.4,156.1"/>
			<path style="clip-path:url(#SVGID_40_);fill:#FCF1CD;" d="M296.6,182.7c6.6-1.4,13.2-2.8,19.8-4.2c0.6-0.1,0.4-1.1-0.3-1
				c-6.6,1.4-13.2,2.8-19.8,4.2C295.7,181.9,296,182.9,296.6,182.7"/>
			<path style="clip-path:url(#SVGID_40_);fill:#FCF1CD;" d="M464.6,87.4c-0.2,2.8-0.4,5.5-0.6,8.3c0,0.6,1,0.6,1,0
				c0.2-2.8,0.4-5.5,0.6-8.3C465.7,86.8,464.7,86.8,464.6,87.4"/>
			<path style="clip-path:url(#SVGID_40_);fill:#FCF1CD;" d="M491.9,88.8c-0.5,2.8-1.2,5.6-2.2,8.3c-0.2,0.6,0.8,0.9,1,0.3
				c0.9-2.7,1.7-5.5,2.2-8.3C492.9,88.4,492,88.1,491.9,88.8"/>
			<path style="clip-path:url(#SVGID_40_);fill:#FCF1CD;" d="M522.5,94.8c-2.1,2.6-4.2,5.1-6.2,7.7c-0.4,0.5,0.3,1.2,0.7,0.7
				c2.1-2.6,4.2-5.1,6.2-7.7C523.6,95,522.9,94.3,522.5,94.8"/>
			<path style="clip-path:url(#SVGID_40_);fill:#FCF1CD;" d="M549.2,104.6c-3.2,2.7-6.3,5.5-9.3,8.4c-0.5,0.5,0.2,1.2,0.7,0.7
				c3-2.9,6.1-5.7,9.3-8.4C550.4,104.9,549.7,104.2,549.2,104.6"/>
			<path style="clip-path:url(#SVGID_40_);fill:#FCF1CD;" d="M576.9,116.2c-6.2,1.6-12.4,3.2-18.6,4.8c-0.6,0.2-0.4,1.1,0.3,1
				c6.2-1.6,12.4-3.2,18.6-4.8C577.8,117,577.5,116,576.9,116.2"/>
			<path style="clip-path:url(#SVGID_40_);fill:#FCF1CD;" d="M594.5,132.1c-10.5,1.3-20.9,2.6-31.4,4c-0.6,0.1-0.6,1.1,0,1
				c10.5-1.3,20.9-2.6,31.4-4C595.1,133,595.2,132,594.5,132.1"/>
			<path style="clip-path:url(#SVGID_40_);fill:#FCF1CD;" d="M606.2,158.6l-37.5-4.3c-0.5-0.1-0.5,0.7,0,0.8l37.5,4.3
				C606.7,159.5,606.7,158.7,606.2,158.6"/>
			<path style="clip-path:url(#SVGID_40_);fill:#FCF1CD;" d="M594,187.2c-6.6-3.2-13.3-6.2-20.1-9c-0.6-0.2-0.9,0.7-0.3,1
				c6.7,2.7,13.4,5.6,19.9,8.9C594.1,188.4,594.6,187.5,594,187.2"/>
		</g>
		<rect x="236.7" y="-162" class="st190" width="425.2" height="623.6"/>
	</g>
</g>
</svg>
