<?xml version="1.0" encoding="utf-8"?>
<!-- Generator: Adobe Illustrator 21.0.0, SVG Export Plug-In . SVG Version: 6.00 Build 0)  -->
<svg version="1.1" id="圖層_1" xmlns="http://www.w3.org/2000/svg" xmlns:xlink="http://www.w3.org/1999/xlink" x="0px" y="0px"
	 viewBox="0 0 822.9 601.4" style="enable-background:new 0 0 822.9 601.4;" xml:space="preserve">
<style type="text/css">
	.st0{fill:url(#SVGID_1_);}
	.st1{fill:#E1BE3F;}
	.st2{fill:#AB6C21;}
	.st3{opacity:0.6;fill:#E1BE3F;enable-background:new    ;}
	.st4{fill:url(#SVGID_2_);}
	.st5{fill:#9E9E9F;}
	.st6{fill:#5693AE;}
	.st7{fill:url(#SVGID_3_);}
	.st8{fill:url(#SVGID_4_);}
	.st9{fill:url(#SVGID_5_);}
	.st10{fill:url(#SVGID_6_);}
	.st11{fill:url(#SVGID_7_);}
	.st12{fill:url(#SVGID_8_);}
	.st13{fill:url(#SVGID_9_);}
	.st14{fill:url(#SVGID_10_);}
	.st15{fill:url(#SVGID_11_);}
	.st16{fill:url(#SVGID_12_);}
	.st17{fill:url(#SVGID_13_);}
	.st18{fill:url(#SVGID_14_);}
	.st19{fill:url(#SVGID_15_);}
	.st20{fill:url(#SVGID_16_);}
	.st21{fill:url(#SVGID_17_);}
	.st22{fill:#0D2B47;}
	.st23{opacity:0.53;fill:#21477A;enable-background:new    ;}
	.st24{opacity:0.8;fill:#21477A;enable-background:new    ;}
	.st25{opacity:0.3;fill:#21477A;enable-background:new    ;}
	.st26{fill:url(#SVGID_18_);}
	.st27{fill:#4F2C14;}
	.st28{fill:url(#SVGID_19_);}
	.st29{fill:url(#SVGID_20_);}
	.st30{fill:url(#SVGID_21_);}
	.st31{opacity:0.6;}
	.st32{fill:#A53725;}
	.st33{fill:#DD563A;}
	.st34{fill:url(#SVGID_22_);}
	.st35{fill:url(#SVGID_23_);}
	.st36{fill:#AC6D21;}
	.st37{fill:#B5B5B6;}
	.st38{fill:#8AB350;}
	.st39{fill:url(#SVGID_24_);}
	.st40{fill:#F7F8F8;}
	.st41{fill:url(#SVGID_25_);}
	.st42{fill:url(#SVGID_26_);}
	.st43{opacity:0.51;fill:#C9CACA;enable-background:new    ;}
	.st44{fill:url(#SVGID_27_);}
	.st45{fill:url(#SVGID_28_);}
	.st46{fill:url(#SVGID_29_);}
	.st47{opacity:0.6;fill:#E2BF40;enable-background:new    ;}
	.st48{fill:url(#SVGID_30_);}
	.st49{fill:url(#SVGID_31_);}
	.st50{fill:url(#SVGID_32_);}
	.st51{fill:#E2BF40;}
	.st52{fill:url(#SVGID_33_);}
	.st53{fill:url(#SVGID_34_);}
	.st54{fill:#FFFFFF;}
	.st55{fill:#824323;}
	.st56{fill:#F4E3A5;}
	.st57{fill:#C88E2C;}
	.st58{fill:#AD7327;}
	.st59{fill:url(#SVGID_35_);}
	.st60{fill:url(#SVGID_36_);}
	.st61{fill:#EBA794;}
	.st62{fill:#40210F;}
	.st63{opacity:0.25;fill:#E2BF40;enable-background:new    ;}
	.st64{opacity:0.5;fill:#E2BF40;enable-background:new    ;}
	.st65{fill:#F9E6AA;}
	.st66{fill:#DEBD91;}
	.st67{fill:#D8C7A7;}
	.st68{fill:url(#SVGID_37_);}
	.st69{fill:#4B1F0E;}
	.st70{opacity:0.4;fill:#E2BF40;enable-background:new    ;}
	.st71{opacity:0.72;fill:#E2BF40;enable-background:new    ;}
	.st72{fill:#895424;}
	.st73{fill:#3F210E;}
	.st74{fill:#391E13;}
	.st75{fill:url(#SVGID_38_);}
	.st76{fill:#DCC094;}
	.st77{fill:#DABB74;}
	.st78{fill:#8C5924;}
	.st79{fill:url(#SVGID_39_);}
	.st80{fill:url(#SVGID_40_);}
	.st81{fill:url(#SVGID_41_);}
	.st82{fill:url(#SVGID_42_);}
	.st83{fill:url(#SVGID_43_);}
	.st84{fill:#647D3D;}
	.st85{fill:#303A22;}
	.st86{opacity:0.8;fill:url(#SVGID_44_);enable-background:new    ;}
	.st87{opacity:0.5;fill:url(#SVGID_45_);enable-background:new    ;}
	.st88{opacity:0.8;fill:url(#SVGID_46_);enable-background:new    ;}
	.st89{opacity:0.8;fill:url(#SVGID_47_);enable-background:new    ;}
	.st90{opacity:0.5;fill:url(#SVGID_48_);enable-background:new    ;}
	.st91{opacity:0.5;fill:url(#SVGID_49_);enable-background:new    ;}
	.st92{opacity:0.5;fill:url(#SVGID_50_);enable-background:new    ;}
	.st93{fill:#FBF9D1;}
	.st94{fill:url(#SVGID_51_);}
	.st95{fill:url(#SVGID_52_);}
	.st96{fill:url(#SVGID_53_);}
	.st97{fill:url(#SVGID_54_);}
	.st98{fill:url(#SVGID_55_);}
	.st99{fill:#933223;}
	.st100{fill:url(#SVGID_56_);}
	.st101{fill:url(#SVGID_57_);}
	.st102{fill:url(#SVGID_58_);}
	.st103{fill:url(#SVGID_59_);}
	.st104{fill:url(#SVGID_60_);}
	.st105{fill:url(#SVGID_61_);}
	.st106{fill:url(#SVGID_62_);}
	.st107{fill:url(#SVGID_63_);}
	.st108{fill:url(#SVGID_64_);}
	.st109{fill:url(#SVGID_65_);}
	.st110{fill:url(#SVGID_66_);}
	.st111{fill:url(#SVGID_67_);}
	.st112{fill:url(#SVGID_68_);}
	.st113{fill:url(#SVGID_69_);}
	.st114{fill:url(#SVGID_70_);}
	.st115{fill:url(#SVGID_71_);}
	.st116{fill:url(#SVGID_72_);}
	.st117{fill:url(#SVGID_73_);}
	.st118{fill:url(#SVGID_74_);}
	.st119{fill:url(#SVGID_75_);}
	.st120{fill:url(#SVGID_76_);}
	.st121{fill:url(#SVGID_77_);}
	.st122{fill:#F39F65;}
	.st123{fill:url(#SVGID_78_);}
	.st124{fill:url(#SVGID_79_);}
	.st125{fill:url(#SVGID_80_);}
	.st126{fill:url(#SVGID_81_);}
	.st127{fill:url(#SVGID_82_);}
	.st128{opacity:0.6;fill:url(#SVGID_83_);enable-background:new    ;}
	.st129{opacity:0.6;fill:url(#SVGID_84_);enable-background:new    ;}
	.st130{opacity:0.6;fill:url(#SVGID_85_);enable-background:new    ;}
	.st131{opacity:0.6;fill:url(#SVGID_86_);enable-background:new    ;}
	.st132{opacity:0.6;fill:url(#SVGID_87_);enable-background:new    ;}
	.st133{opacity:0.6;fill:url(#SVGID_88_);enable-background:new    ;}
	.st134{opacity:0.6;fill:url(#SVGID_89_);enable-background:new    ;}
	.st135{opacity:0.6;fill:url(#SVGID_90_);enable-background:new    ;}
	.st136{fill:#F9C9A7;}
	.st137{fill:url(#SVGID_91_);}
	.st138{fill:url(#SVGID_92_);}
	.st139{fill:#D6988B;}
	.st140{fill:url(#SVGID_93_);}
	.st141{opacity:0.5;fill:#D6988B;enable-background:new    ;}
	.st142{opacity:0.4;fill:#F3B699;enable-background:new    ;}
	.st143{fill:url(#SVGID_94_);}
	.st144{fill:url(#SVGID_95_);}
	.st145{fill:url(#SVGID_96_);}
	.st146{fill:url(#SVGID_97_);}
	.st147{fill:url(#SVGID_98_);}
	.st148{fill:#236086;}
	.st149{fill:url(#SVGID_99_);}
	.st150{fill:url(#SVGID_100_);}
	.st151{fill:url(#SVGID_101_);}
	.st152{fill:url(#SVGID_102_);}
	.st153{fill:url(#SVGID_103_);}
	.st154{fill:url(#SVGID_104_);}
	.st155{fill:url(#SVGID_105_);}
	.st156{fill:url(#SVGID_106_);}
	.st157{fill:url(#SVGID_107_);}
	.st158{fill:url(#SVGID_108_);}
	.st159{opacity:0.6;fill:url(#SVGID_109_);enable-background:new    ;}
	.st160{fill:url(#SVGID_110_);}
	.st161{fill:url(#SVGID_111_);}
	.st162{fill:url(#SVGID_112_);}
	.st163{fill:url(#SVGID_113_);}
	.st164{opacity:0.6;fill:#8EC0DA;enable-background:new    ;}
	
		.st165{opacity:0.6;fill:none;stroke:#8EC0DA;stroke-width:1.1827;stroke-linecap:round;stroke-miterlimit:10;enable-background:new    ;}
	.st166{fill:#95D2E9;}
	.st167{fill:#FFF9F0;}
	.st168{fill:#C5BAAE;}
	.st169{fill:none;stroke:#95D2E9;stroke-width:0.5916;stroke-miterlimit:10;}
	.st170{fill:none;stroke:#95D2E9;stroke-width:0.5294;stroke-miterlimit:10;}
	.st171{fill:url(#SVGID_114_);}
	.st172{fill:url(#SVGID_115_);}
	.st173{fill:url(#SVGID_116_);}
	.st174{fill:#FCF1CD;}
	.st175{fill:url(#SVGID_117_);}
	.st176{fill:#AC6E21;}
	.st177{fill:url(#SVGID_118_);}
	.st178{fill:url(#SVGID_119_);}
	.st179{opacity:0.3;fill:url(#SVGID_120_);enable-background:new    ;}
	.st180{fill:#E9D288;}
	.st181{opacity:0.6;fill:#AC6E21;enable-background:new    ;}
	.st182{fill:url(#SVGID_121_);}
	.st183{fill:url(#SVGID_122_);}
</style>
<g>
	<g>
		<linearGradient id="SVGID_1_" gradientUnits="userSpaceOnUse" x1="155.4125" y1="404.7597" x2="235.2271" y2="404.7597">
			<stop  offset="0" style="stop-color:#D6B774"/>
			<stop  offset="0.3022" style="stop-color:#D5B571"/>
			<stop  offset="0.534" style="stop-color:#D4B168"/>
			<stop  offset="0.7424" style="stop-color:#D3A959"/>
			<stop  offset="0.9359" style="stop-color:#D09D44"/>
			<stop  offset="1" style="stop-color:#CF993B"/>
		</linearGradient>
		<path class="st0" d="M155.5,395c0-3.9,15.3-9.4,40-9.4c23.5,0,38.4,5.1,40,8.6v0.4l-2.7,23.9c-31,11-67.8,2-74.5,0L155.5,395z"/>
		<path class="st174" d="M166.5,389.1c-7.1,2-11.4,4.3-11.4,6.3l2.7,23.9c0.8,0,1.6,0.4,2.7,0.8c0-6.3,0.4-18,0.8-24.7
			C161.4,392.7,163.7,390.7,166.5,389.1z"/>
		<linearGradient id="SVGID_2_" gradientUnits="userSpaceOnUse" x1="109.987" y1="498.5502" x2="280.5621" y2="498.5502">
			<stop  offset="0" style="stop-color:#D6B774"/>
			<stop  offset="0.3022" style="stop-color:#D5B571"/>
			<stop  offset="0.534" style="stop-color:#D4B168"/>
			<stop  offset="0.7424" style="stop-color:#D3A959"/>
			<stop  offset="0.9359" style="stop-color:#D09D44"/>
			<stop  offset="1" style="stop-color:#CF993B"/>
		</linearGradient>
		<path class="st4" d="M265.7,566c-6.3,0.8-48.6,7.1-70.6,7.1s-64.3-6.3-70.6-7.1c-5.5-17.3-14.1-80-14.9-86.3
			c9.4-12.9,46.7-53.7,48.2-55.7c4.3,1.2,20.4,5.9,40,5.9c11,0,22.7-1.6,34.1-5.5c2,2.4,38.8,42.7,48.2,55.3
			C279.8,486.4,271.2,548.7,265.7,566z"/>
		<path class="st174" d="M159.4,424.8c-0.4,0-0.8-0.4-1.2-0.4c-1.6,1.6-38.8,42.7-48.2,55.7c0.8,6.3,9.4,68.6,14.9,86.3
			c1.6,0.4,5.5,0.8,10.6,1.6c-8.2-32.5-18.4-78.4-12.9-88.2C130.4,466,153.5,433.1,159.4,424.8z"/>
		<path class="st176" d="M282.9,478.9c-8.6-12.2-43.9-51-48.2-55.7l3.1-27.1c0.4-0.4,0.4-0.4,0.4-0.8c0-7.8-22-11.8-42.3-11.8
			c-20.8,0-42.3,4.3-42.3,11.8l0,0l0,0l3.1,27.8c-4.3,4.7-39.6,43.9-48.2,55.7c0,0.4-0.4,0.4-0.4,0.8c0.4,2.7,9.8,70.6,15.3,87.8
			c0,0.4,0.4,0.8,1.2,0.8c0.4,0,47.8,7.1,71.4,7.1l0,0h0.4l0,0c23.5,0,71-7.1,71.4-7.1s0.8-0.4,1.2-0.8
			c5.5-17.3,14.9-85.1,15.3-87.8C282.9,479.7,282.9,479.3,282.9,478.9z M155.5,395c0-3.9,15.3-9.4,40-9.4c23.5,0,38.4,5.1,40,8.6
			v0.4l-2.7,23.9c-31,11-67.8,2-74.5,0L155.5,395z M232,423.3c-31,11.4-67.1,2-73.3,0l-0.4-2.7c5.1,1.2,21.2,5.1,40,5.1
			c11,0,22.7-1.2,34.1-5.1L232,423.3z M265.7,566c-6.3,0.8-48.6,7.1-70.6,7.1s-64.3-6.3-70.6-7.1c-5.5-17.3-14.1-80-14.9-86.3
			c9.4-12.9,46.7-53.7,48.2-55.7c4.3,1.2,20.4,5.9,40,5.9c11,0,22.7-1.6,34.1-5.5c2,2.4,38.8,42.7,48.2,55.3
			C279.8,486.4,271.2,548.7,265.7,566z"/>
		<path class="st176" d="M195.5,402.9c12.5,0,36.5-1.6,36.5-8.2c0-6.3-23.9-8.2-36.5-8.2S159,388,159,394.6
			C159,401.3,182.9,402.9,195.5,402.9z M195.5,389.1c22,0,34.1,3.9,34.1,5.9s-12.2,5.9-34.1,5.9s-34.1-3.9-34.1-5.9
			C161.4,393.1,173.5,389.1,195.5,389.1z"/>
		<path class="st174" d="M232,423.3c-31,11.4-67.1,2-73.3,0l-0.4-2.7c5.1,1.2,21.2,5.1,40,5.1c11,0,22.7-1.2,34.1-5.1L232,423.3z"/>
		<linearGradient id="SVGID_3_" gradientUnits="userSpaceOnUse" x1="161.3748" y1="395.0287" x2="229.3378" y2="395.0287">
			<stop  offset="0" style="stop-color:#D6B774"/>
			<stop  offset="0.3022" style="stop-color:#D5B571"/>
			<stop  offset="0.534" style="stop-color:#D4B168"/>
			<stop  offset="0.7424" style="stop-color:#D3A959"/>
			<stop  offset="0.9359" style="stop-color:#D09D44"/>
			<stop  offset="1" style="stop-color:#CF993B"/>
		</linearGradient>
		<path class="st7" d="M195.5,389.1c22,0,34.1,3.9,34.1,5.9s-12.2,5.9-34.1,5.9s-34.1-3.9-34.1-5.9
			C161.4,393.1,173.5,389.1,195.5,389.1z"/>
		<linearGradient id="SVGID_4_" gradientUnits="userSpaceOnUse" x1="161.3748" y1="395.0287" x2="229.3378" y2="395.0287">
			<stop  offset="0" style="stop-color:#D6B774"/>
			<stop  offset="0.3022" style="stop-color:#D5B571"/>
			<stop  offset="0.534" style="stop-color:#D4B168"/>
			<stop  offset="0.7424" style="stop-color:#D3A959"/>
			<stop  offset="0.9359" style="stop-color:#D09D44"/>
			<stop  offset="1" style="stop-color:#CF993B"/>
		</linearGradient>
		<path class="st8" d="M195.5,389.1c22,0,34.1,3.9,34.1,5.9s-12.2,5.9-34.1,5.9s-34.1-3.9-34.1-5.9
			C161.4,393.1,173.5,389.1,195.5,389.1z"/>
		<linearGradient id="SVGID_5_" gradientUnits="userSpaceOnUse" x1="226.6584" y1="504.0399" x2="280.5091" y2="504.0399">
			<stop  offset="0" style="stop-color:#D6B774"/>
			<stop  offset="0.3022" style="stop-color:#D5B571"/>
			<stop  offset="0.534" style="stop-color:#D4B168"/>
			<stop  offset="0.7424" style="stop-color:#D3A959"/>
			<stop  offset="0.9359" style="stop-color:#D09D44"/>
			<stop  offset="1" style="stop-color:#CF993B"/>
		</linearGradient>
		<path style="opacity:0.3;fill:url(#SVGID_5_);enable-background:new    ;" d="M259.8,479.7c0,10.2-21.6,63.1-33.3,91.4
			c18-2,35.3-4.3,39.2-4.7c5.5-17.3,14.1-80,14.9-86.3c-6.3-8.6-24.7-29.4-36.9-43.1C250,449.1,259.8,469.9,259.8,479.7z"/>
		<g class="st31">
			<path class="st180" d="M162.2,441.3c-0.8,1.2-2,2.4-3.1,3.9c-1.2,1.2-2,2.7-3.1,3.9c-0.4,0.8-0.8,1.6,0,2.4
				c0.4,0.4,1.6,0.8,2.4,0c2.4-2.7,4.3-5.5,6.7-8.6c0.4-0.8,0-2-0.4-2.4C163.3,440.1,162.6,440.5,162.2,441.3L162.2,441.3z"/>
			<path class="st180" d="M170,444c-2.7,3.1-5.1,6.3-7.8,9.4c-0.4,0.4-0.4,0.8,0,1.2c0.4,0.4,0.8,0.4,1.2,0c2.7-3.1,5.1-6.3,7.8-9.4
				c0.4-0.4,0.4-0.8,0-1.2C170.8,443.7,170,443.7,170,444L170,444z"/>
			<path class="st181" d="M174.3,446.4c-2,2.4-3.9,4.3-5.5,6.7c-0.4,0.8-0.8,1.6,0,2.4c0.8,0.4,1.6,0.8,2.4,0c2-2.4,3.9-4.3,5.5-6.7
				c0.4-0.8,0.8-1.6,0-2.4C175.9,446,175.1,446,174.3,446.4L174.3,446.4z"/>
			<path class="st181" d="M180.2,446.8c-2,2.4-4.3,4.7-7.1,7.1c-0.8,0.4-0.8,1.6,0,2.4c0.8,0.8,1.6,0.4,2.4,0
				c2.4-2.4,4.7-4.7,7.1-7.1c0.4-0.8,0.8-1.6,0-2.4C181.8,446.4,180.6,446,180.2,446.8L180.2,446.8z"/>
			<path class="st181" d="M184.5,450.3c-1.6,1.6-3.1,3.1-5.1,4.7c-0.8,0.4-0.8,1.6,0,2.4s1.6,0.8,2.4,0c1.6-1.6,3.1-3.1,5.1-4.7
				c0.8-0.4,0.8-1.6,0-2.4C186.1,449.9,184.9,449.9,184.5,450.3L184.5,450.3z"/>
			<path class="st181" d="M215.5,455.4c2.4,4.3,5.1,8.2,8.2,11.4c0.8,0.8,1.6,0.8,2.4,0c0.8-0.8,0.8-1.6,0-2.4
				c-3.1-3.1-5.9-7.1-7.8-11c-0.4-0.8-1.6-1.2-2.4-0.4C215.5,453.5,215.1,454.6,215.5,455.4L215.5,455.4z"/>
			<path class="st181" d="M219.4,452.7c2.7,4.3,5.9,8.6,9,12.2c0.4,0.8,1.6,0.4,2.4,0c0.8-0.8,0.4-1.6,0-2.4
				c-3.1-3.5-5.9-7.5-8.6-11.8c-0.4-0.8-1.6-1.2-2.4-0.4C219.4,450.7,219,451.9,219.4,452.7L219.4,452.7z"/>
			<path class="st181" d="M224.5,450.7c4.3,3.9,8.2,8.2,12.5,12.2c1.6,1.6,3.5-0.8,2.4-2.4c-4.3-3.9-8.2-8.2-12.5-12.2
				C225.3,447.2,222.9,449.5,224.5,450.7L224.5,450.7z"/>
			<path class="st181" d="M231.2,448.4c3.5,4.7,7.5,9,11.8,12.9c0.8,0.4,1.6,0.8,2.4,0c0.4-0.4,0.8-1.6,0-2.4
				c-4.3-3.9-7.8-7.8-11.4-12.5c-0.4-0.8-1.2-1.2-2.4-0.4C230.8,446.4,230.4,447.6,231.2,448.4L231.2,448.4z"/>
			<path class="st181" d="M245.7,472.7c-2,2.7-4.3,5.5-5.9,8.2c-0.4,0.8,0,2,0.4,2.4c0.8,0.4,1.6,0,2.4-0.4c0.8-1.2,2-2.7,2.7-3.9
				c1.2-1.6,1.6-2.4,2.7-3.5c0.4-0.8,0.8-1.6,0-2.4S246.5,471.9,245.7,472.7L245.7,472.7z"/>
			<path class="st181" d="M251.2,477.8c-1.2,1.6-2,3.1-3.1,4.7c-0.4,0.8,0,2,0.4,2.4c0.8,0.4,1.6,0,2.4-0.4c1.2-1.6,2-3.1,3.1-4.7
				c0.4-0.8,0-2-0.4-2.4C252.7,476.6,252,477,251.2,477.8L251.2,477.8z"/>
			<path class="st181" d="M257.4,477.4c-1.2,2.4-2.4,4.3-3.9,6.7c-0.4,0.8,0,1.6,0.4,2.4c0.8,0.4,1.6,0.4,2.4-0.4
				c1.2-2.4,2.4-4.3,3.9-6.7c0.4-0.8,0-1.6-0.4-2.4C259,476.2,257.8,476.6,257.4,477.4L257.4,477.4z"/>
			<path class="st181" d="M264.5,478.6c-1.6,1.6-2.7,3.1-3.9,5.1c-0.4,0.4-0.4,0.8,0,1.2c0,0.4,0.4,0.8,0.8,0.8c0.4,0,0.8,0.4,1.2,0
				c0.4,0,0.8-0.4,0.8-0.8c0.4-0.4,0.8-1.2,1.2-1.6c0,0,0,0.4-0.4,0.4c0.8-1.2,1.6-2,2.7-3.1c0.4-0.8,0.8-1.6,0-2.4
				C266.1,477.8,265.3,477.8,264.5,478.6L264.5,478.6z"/>
			<path class="st181" d="M196.3,484.4c3.9,5.5,7.8,10.6,11.8,15.7c0.4,0.8,1.6,0.4,2.4,0c0.8-0.8,0.4-1.6,0-2.4
				c-3.9-4.7-7.8-9.8-11.4-14.9c-0.4-0.8-1.6-1.2-2.4-0.4C195.9,482.5,195.5,483.6,196.3,484.4L196.3,484.4z"/>
			<path class="st181" d="M193.1,490.7c2.7,3.5,5.5,6.7,8.2,10.2c0.4,0.8,1.6,0.4,2.4,0c0.8-0.8,0.4-1.6,0-2.4
				c-2.7-3.5-5.5-6.7-8.2-10.2c-0.4-0.8-1.6-0.4-2.4,0C192.4,489.1,192.4,489.9,193.1,490.7L193.1,490.7z"/>
			<path class="st181" d="M188.8,493.1c2,2.4,4.3,4.7,6.3,7.1c0.8,0.8,2-0.4,1.2-1.2c-2-2.4-4.3-4.7-6.3-7.1
				C189.2,491.1,188,492.3,188.8,493.1L188.8,493.1z"/>
			<path class="st181" d="M182.9,495.8c1.6,2.4,3.1,4.3,5.1,6.3c0.8,0.8,2-0.4,1.2-1.2c-2-2-3.5-3.9-5.1-5.9
				c-0.4-0.4-0.8-0.4-1.2-0.4C182.9,494.6,182.5,495.4,182.9,495.8L182.9,495.8z"/>
			<path class="st180" d="M127.7,461.3c2.7,4.7,5.9,9,9,13.3c0.4,0.8,1.2,1.2,2.4,0.4c0.8-0.4,1.2-1.6,0.4-2.4
				c-3.1-4.3-6.3-8.6-9-13.3c-0.4-0.8-1.6-1.2-2.4-0.4C127.7,459.7,127.3,460.5,127.7,461.3L127.7,461.3z"/>
			<path class="st180" d="M134.3,460.5c3.5,4.7,7.1,9.4,10.6,13.7c0.4,0.8,1.6,0.4,2.4,0c0.8-0.8,0.4-1.6,0-2.4
				c-3.5-4.3-6.7-8.6-10.2-12.9c-0.4-0.8-1.6-1.2-2.4-0.4C134.3,458.6,133.9,459.7,134.3,460.5L134.3,460.5z"/>
			<path class="st181" d="M142.9,461.7c3.1,4.3,6.3,8.2,10.2,12.2c1.6,1.6,3.5-0.8,2.4-2.4c-3.5-3.5-6.7-7.5-9.4-11.4
				c-0.4-0.8-1.6-1.2-2.4-0.4C142.9,460.1,142.6,461.3,142.9,461.7L142.9,461.7z"/>
			<path class="st181" d="M152.4,461.7c3.9,5.5,7.8,10.2,12.5,14.9c1.6,1.6,3.5-0.8,2.4-2.4c-4.3-4.3-8.6-9-12.2-14.1
				c-0.4-0.8-1.6-1.2-2.4-0.4C152.4,459.7,152,460.9,152.4,461.7L152.4,461.7z"/>
			<path class="st181" d="M171.2,470.7c5.5,0,10.6,0,16.1,0c2,0,2-3.1,0-3.1c-5.5,0-10.6,0-16.1,0
				C169.2,467.6,169.2,470.7,171.2,470.7L171.2,470.7z"/>
			<path class="st181" d="M174.7,477c8.2,0,16.5,0,24.7-0.4c2,0,2-3.1,0-3.1c-8.2,0-16.5,0-24.7,0.4
				C172.7,473.8,172.7,477,174.7,477L174.7,477z"/>
			<path class="st180" d="M117.1,480.1c18,1.2,36.5,2,54.9,2.4c1.2,0,1.2-1.6,0-1.6c-18.4-0.4-36.5-0.8-54.9-2.4
				C116.3,478.2,116.3,479.7,117.1,480.1L117.1,480.1z"/>
			<path class="st181" d="M125.3,484.4c12.9,0.4,26.3,1.6,39.2,1.2c1.2,0,1.2-1.6,0-1.6c-12.9,0.4-26.3-0.8-39.2-1.2
				C124.1,482.5,124.1,484,125.3,484.4L125.3,484.4z"/>
			<path class="st181" d="M127.7,487.2c-0.8,1.2-1.6,2.4-2.4,3.5c0,0.4-0.4,0.4-0.4,0.8l0,0c0,0,0-0.4,0,0l-0.4,0.4
				c-0.4,0.4-0.8,1.2-1.2,1.6c-0.4,0.8-0.8,1.6,0,2.4c0.8,0.4,1.6,0.8,2.4,0c2-2,3.5-4.3,5.1-7.1c0.4-0.8,0-1.6-0.4-2.4
				C128.8,486.4,128,486.4,127.7,487.2L127.7,487.2z"/>
			<path class="st181" d="M134.7,488c-2.7,5.1-5.9,9.8-9,14.1c-0.8,0.8,0.8,1.6,1.2,0.8c3.5-4.7,6.3-9.4,9-14.1
				C136.3,487.6,135.1,486.8,134.7,488L134.7,488z"/>
			<path class="st181" d="M141.4,487.6c-3.9,8.2-8.2,16.1-12.9,23.5c-0.4,0.8,0.8,1.6,1.2,0.8c4.7-7.8,9-15.7,12.9-23.5
				C143.3,487.2,141.8,486.4,141.4,487.6L141.4,487.6z"/>
			<path class="st181" d="M147.3,489.9c-3.9,7.8-8.2,16.1-12.5,23.9c-0.4,0.8,0.8,1.6,1.2,0.8c4.3-7.8,8.6-15.7,12.5-23.9
				C149.2,489.9,148,489.1,147.3,489.9L147.3,489.9z"/>
			<path class="st181" d="M152.7,494.6c-1.6,5.9-4.3,11.4-7.5,16.5c-1.2,1.6,1.6,3.1,2.7,1.6c3.1-5.5,5.9-11,7.8-17.3
				C156.3,493.5,153.1,492.7,152.7,494.6L152.7,494.6z"/>
			<path class="st181" d="M159.4,499.7c-0.4,1.6-0.8,2.7-1.6,4.3c-0.4,0.8-0.4,1.6-0.8,2v0.4v0.4c0,0,0,0.4,0,0
				c0,0.4-0.4,0.8-0.4,1.2c-0.4,0.8-0.4,1.6,0.4,2.4c0.8,0.4,2,0.4,2.4-0.4c1.2-2.7,2.4-5.9,3.1-9c0.4-0.8-0.4-1.6-1.2-2
				C160.2,498.6,159.4,498.9,159.4,499.7L159.4,499.7z"/>
			<path class="st181" d="M179.8,509.1c7.5,0.8,14.9,0.4,22.4-0.8c2-0.4,1.2-3.5-0.8-3.1c-7.1,1.2-14.5,1.6-21.6,0.8
				C177.8,506,177.8,509.1,179.8,509.1L179.8,509.1z"/>
			<path class="st181" d="M190.4,514.6c3.9-0.4,7.8-0.8,11.8-0.8c0.8,0,1.6-0.8,1.6-1.6s-0.8-1.6-1.6-1.6c-3.9,0.4-7.8,0.8-11.8,0.8
				c-0.8,0-1.6,0.8-1.6,1.6S189.6,514.6,190.4,514.6L190.4,514.6z"/>
			<path class="st181" d="M198.6,518.2c-2,5.9-3.9,11.8-5.9,17.3c-0.8,2,2.4,2.7,3.1,0.8c2-5.9,3.9-11.8,5.9-17.3
				C202.2,517.4,199,516.6,198.6,518.2L198.6,518.2z"/>
			<path class="st181" d="M204.5,524c-0.8,2.4-1.6,5.1-2.4,7.5c-0.4,0.8,0.4,2,1.2,2c0.8,0.4,1.6-0.4,2-1.2c0.8-2.4,1.6-4.7,2.4-7.5
				c0-0.8-0.4-1.6-1.2-2C205.7,522.5,204.5,523.3,204.5,524L204.5,524z"/>
			<path class="st181" d="M211.2,525.6c0,1.2-0.4,2.7-0.8,3.9c0,0.8-0.4,1.2-0.8,2v0.4c0-0.4,0,0,0,0c0,0.4-0.4,0.8-0.4,0.8
				c-0.4,0.8-0.4,1.6,0.4,2.4c0.8,0.4,2,0.4,2.4-0.4c1.2-2.4,2-5.1,2.4-7.8c0-0.4,0-0.8,0-1.2s-0.4-0.8-0.8-0.8
				C212.4,524,211.2,524.4,211.2,525.6L211.2,525.6z"/>
			<path class="st181" d="M226.5,516.2c2,4.3,4.7,7.8,7.5,11.4c0.4,0.8,1.2,1.2,2.4,0.4c0.8-0.4,1.2-1.6,0.4-2.4
				c-2.7-3.5-5.5-7.5-7.5-11.4c-0.4-0.8-1.6-0.8-2.4-0.4C226.1,514.6,226.1,515.4,226.5,516.2L226.5,516.2z"/>
			<path class="st181" d="M231.2,516.2c1.6,2,3.1,3.9,4.3,5.9c0.4,0.4,0.4,0.8,0.8,0.8s0.8,0,1.2,0c0.4-0.4,0.8-0.4,0.8-0.8
				c0-0.4,0-0.8,0-1.2c-1.6-2-3.1-3.9-4.3-5.9c-0.4-0.4-0.4-0.8-0.8-0.8c-0.4,0-0.8,0-1.2,0c-0.4,0.4-0.8,0.4-0.8,0.8
				S231.2,515.8,231.2,516.2L231.2,516.2z"/>
			<path class="st181" d="M237.8,511.1c1.2,1.6,2.4,3.5,3.1,5.1c0.4,0.8,1.6,1.2,2.4,0.4c0.8-0.4,0.8-1.2,0.4-2.4
				c-0.8-2-2-3.5-3.1-5.1c-0.4-0.4-0.4-0.8-0.8-0.8c-0.4,0-0.8,0-1.2,0C237.8,509.1,237.4,510.3,237.8,511.1L237.8,511.1z"/>
			<path class="st181" d="M161,524.4c1.2,1.6,2.7,3.1,3.9,5.1c0.4,0.4,0.8,0.4,1.2,0.4c0.4,0,0.8,0,1.2-0.4c0.4-0.4,0.4-0.8,0.4-1.2
				s0-0.8-0.4-1.2c-1.2-1.6-2.7-3.1-3.9-5.1c-0.4-0.4-0.8-0.4-1.2-0.4s-0.8,0-1.2,0.4s-0.4,0.8-0.4,1.2S161,524,161,524.4L161,524.4
				z"/>
			<path class="st181" d="M165.7,522.1c2,2.7,4.3,5.1,6.7,7.1c0.8,0.4,1.6,0.8,2.4,0c0.4-0.4,0.8-1.6,0-2.4c-1.2-1.2-2.4-2-3.5-3.1
				c-0.4-0.4-1.2-1.2-1.6-1.6c-0.4-0.4-0.4-0.8-0.8-0.8c0,0,0,0,0-0.4c0,0-0.4-0.4,0,0l-0.4-0.4c-0.4-0.4-0.4-0.8-0.8-0.8
				c-0.4,0-0.8,0-1.2,0C165.7,520.1,165.3,521.3,165.7,522.1L165.7,522.1z"/>
			<path class="st181" d="M173.1,523.6c3.1,2.4,6.3,5.1,9.4,7.5c0.8,0.4,1.6,0.8,2.4,0c0.4-0.4,0.8-1.6,0-2.4
				c-3.1-2.4-6.3-5.1-9.4-7.5c-0.8-0.4-1.6-0.8-2.4,0C172.4,522.1,172.4,522.9,173.1,523.6L173.1,523.6z"/>
			<path class="st181" d="M153.9,532.7c-1.2,1.6-2.4,3.5-3.5,5.5c-0.4,0.8-0.4,1.6,0.4,2.4c0.8,0.4,1.6,0.4,2.4-0.4
				c1.2-2,2-3.5,3.5-5.5c0.4-0.4,0.4-0.8,0-1.2c0-0.4-0.4-0.8-0.8-0.8s-0.8-0.4-1.2,0C154.3,532.3,154.3,532.3,153.9,532.7
				L153.9,532.7z"/>
			<path class="st181" d="M161.8,533.1c-1.2,2.4-2,4.3-3.1,6.7c-0.4,0.8-0.4,1.6,0.4,2.4c0.8,0.4,2,0.4,2.4-0.4
				c1.2-2.4,2-4.3,3.1-6.7c0.4-0.8,0.4-1.6-0.4-2.4C162.9,531.9,162.2,532.3,161.8,533.1L161.8,533.1z"/>
			<path class="st181" d="M167.6,532.3c0,0.4-0.4,0.8-0.4,1.2c0,0,0,0.4-0.4,0.4c0,0,0,0,0,0.4l0,0c-0.4,0.8-0.8,1.6-1.2,2.4
				c-0.8,1.6-1.6,3.1-2.4,4.3c-0.4,0.8,0,2,0.4,2.4c0.8,0.4,1.6,0,2.4-0.4c2-3.1,3.5-6.3,4.7-9.8c0.4-0.8-0.4-2-1.2-2
				C168.8,531.1,168,531.5,167.6,532.3L167.6,532.3z"/>
			<path class="st181" d="M134.7,547.2c15.3,0.4,30.6,0.8,45.9,0.8c1.2,0,1.2-1.6,0-1.6c-15.3,0-30.6-0.4-45.9-0.8
				C133.9,545.6,133.9,547.2,134.7,547.2L134.7,547.2z"/>
			<path class="st181" d="M137.5,551.5c11.4,0.4,22.7,0.8,34.1,0.4c1.2,0,1.2-1.6,0-1.6c-11.4,0-22.7,0-34.1-0.4
				C136.7,549.9,136.7,551.5,137.5,551.5L137.5,551.5z"/>
			<path class="st181" d="M197.5,552.7c-2,2-3.9,3.5-5.5,5.5c-0.8,0.4-0.8,1.6,0,2.4c0.8,0.8,1.6,0.8,2.4,0c2-2,3.9-3.5,5.5-5.5
				c0.8-0.4,0.8-1.6,0-2.4C199,551.9,198.2,551.9,197.5,552.7L197.5,552.7z"/>
			<path class="st181" d="M202.2,555c0,0.4,0,0.4,0,0.8C202.2,555.4,202.2,555.4,202.2,555c-0.4,1.6-0.4,3.1-1.2,4.3
				c0,0.4,0,0.8,0,1.2s0.4,0.8,0.8,0.8c0.4,0,0.8,0,1.2,0c0,0,0.4,0,0.4-0.4s0.4-0.4,0.4-0.8c0.8-1.6,1.2-3.5,1.2-5.1
				c0-0.4-0.4-0.8-0.4-1.2c-0.4-0.4-0.8-0.4-1.2-0.4c-0.4,0-0.8,0-1.2,0.4C202.5,554.2,202.2,554.6,202.2,555L202.2,555z"/>
			<path class="st181" d="M250,508.4c-5.9,14.9-12.9,29-21.2,42c-0.4,0.8,0.8,1.6,1.2,0.8c8.6-13.3,15.7-27.8,21.6-42.3
				C252,508,250.4,507.6,250,508.4L250,508.4z"/>
			<path class="st181" d="M253.1,515.8c-5.1,12.2-10.6,24.3-16.9,35.7c-0.4,0.8,0.8,1.6,1.2,0.8c6.3-11.8,12.2-23.9,17.3-36.1
				C255.1,515.4,253.5,515,253.1,515.8L253.1,515.8z"/>
			<path class="st181" d="M262.9,509.5c-6.3,15.3-13.7,29.8-22,43.9c-0.4,0.8,0.8,1.6,1.2,0.8c8.6-14.1,16.1-29,22.4-44.3
				C264.5,509.1,263.3,508.7,262.9,509.5L262.9,509.5z"/>
			<path class="st181" d="M264.9,516.2c0,3.1-1.6,6.3-2.7,9c-1.2,2.7-2.4,5.1-3.5,7.8c-2.4,5.5-5.1,10.6-7.5,16.1
				c-0.4,0.8,0.8,1.6,1.2,0.8c2.7-5.5,5.5-11.4,8.2-17.3c1.2-2.7,2.4-5.5,3.5-8.2c1.2-2.7,2.4-5.1,2.4-8.2
				C266.5,515.4,264.9,515.4,264.9,516.2L264.9,516.2z"/>
			<path class="st181" d="M270,520.5c-4.3,12.5-9.8,24.7-16.5,36.5c-1.2,2,1.6,3.5,2.7,1.6c6.7-11.8,12.2-24.3,16.5-37.3
				C273.5,519.3,270.8,518.5,270,520.5L270,520.5z"/>
			<path class="st181" d="M230.4,496.2c14.1,1.2,28.2,1.6,42.3,1.2c1.2,0,1.2-1.6,0-1.6c-14.1,0.4-28.2,0-42.3-1.2
				C229.6,494.6,229.6,496.2,230.4,496.2L230.4,496.2z"/>
			<path class="st181" d="M170.8,408.4c1.2,2,2.4,4.3,3.9,6.3c0.4,0.8,2,0,1.2-0.8c-1.2-2-2.4-4.3-3.9-6.3
				C171.6,406.8,170,407.6,170.8,408.4L170.8,408.4z"/>
			<path class="st181" d="M177.5,408c0.8,1.6,2,3.1,3.1,4.3c0.4,0.4,0.8,0.4,1.2,0s0.4-0.8,0-1.2c-0.4-0.4-0.4-0.8-0.8-1.2l-0.4-0.4
				l0,0l0,0c0,0,0,0-0.4-0.4c-0.4-0.8-1.2-1.6-1.6-2.4c-0.4-0.4-0.8-0.4-1.2-0.4C177.5,406.8,177.1,407.6,177.5,408L177.5,408z"/>
			<path class="st181" d="M186.5,406.8c0,0.4,0,1.2,0,1.6c0,0,0,0,0,0.4c0,0,0,0.4,0,0v0.4c0,0.4,0,0.8,0,0.8c0,0.4,0,0.8,0.4,0.8
				c0.4,0,0.8,0,0.8-0.4c0.4-1.2,0.4-2.4,0.4-3.9c0-0.4-0.4-0.8-0.8-0.8C186.9,406,186.5,406.4,186.5,406.8L186.5,406.8z"/>
			<path class="st181" d="M192.7,406.8c-1.2,3.1-2.4,6.3-3.5,9.4c0,0.4,0,0.8,0.4,0.8c0.4,0,0.8,0,0.8-0.4c1.2-3.1,2.4-6.3,3.5-9.4
				c0-0.4,0-0.8-0.4-0.8C193.1,406,192.7,406.4,192.7,406.8L192.7,406.8z"/>
			<path class="st181" d="M228,402.1c-4.3,5.5-9,11-13.7,16.1c-1.6,1.6,0.8,3.5,2.4,2.4c5.1-5.1,9.8-11,14.1-16.9
				c0.4-0.8,0-2-0.4-2.4C229.2,400.9,228.4,401.3,228,402.1L228,402.1z"/>
			<path class="st181" d="M228.8,408.8c-1.6,3.5-3.9,6.7-6.3,9.4c-0.4,0.8-0.8,1.6,0,2.4c0.8,0.4,1.6,0.8,2.4,0
				c2.7-3.1,4.7-6.3,6.7-10.2c0.4-0.8,0.4-1.6-0.4-2.4C230,407.6,229.2,408,228.8,408.8L228.8,408.8z"/>
		</g>
	</g>
	<g>
		<g>
			<g>
				
					<linearGradient id="SVGID_6_" gradientUnits="userSpaceOnUse" x1="1083.5691" y1="221.4305" x2="1168.5498" y2="221.4305" gradientTransform="matrix(-1 0 0 -1 1686.1643 602)">
					<stop  offset="0" style="stop-color:#EFD97F"/>
					<stop  offset="0.1978" style="stop-color:#EFD87C"/>
					<stop  offset="0.3726" style="stop-color:#EED571"/>
					<stop  offset="0.5387" style="stop-color:#EDCF5F"/>
					<stop  offset="0.6984" style="stop-color:#EBC845"/>
					<stop  offset="0.7526" style="stop-color:#EAC53B"/>
					<stop  offset="1" style="stop-color:#E5AD14"/>
				</linearGradient>
				<path class="st10" d="M517.4,356.6l8.1-18.3c0-0.4,0-1,0.2-1.5c0-0.2,0-0.4,0-0.4c0-0.4,0.2-0.8,0.2-1c0-0.2,0-0.4,0.2-0.6
					c0.2-0.4,0.2-0.8,0.4-1.2c0-0.2,0-0.2,0.2-0.4c0.2-0.6,0.4-1,0.6-1.7c0-0.2,0.2-0.2,0.2-0.4c0.2-0.4,0.4-0.8,0.6-1.2
					c0-0.2,0.2-0.4,0.2-0.6c0.2-0.4,0.4-0.8,0.6-1c0-0.2,0.2-0.4,0.2-0.6c2.9-5.6,7.1-11,10-14.6c0.2-0.2,0.2-0.2,0.4-0.4
					c15.8,20,33.7,47.2,47.8,81.6c0,0,12.9,12.3,12.9,29.7s-13.3,23.1-20.6,21.4l0,0c-8.1,7.1-19.6,2.7-21.8-8.7v-0.2
					c-0.4,0.2-1,0.6-1.7,0.8c-4.8,2.5-11.2-0.6-13.3-5l0,0l0,0c0-0.2-0.2-0.4-0.2-0.6l0.2-0.2l-1.7-14.1h0.4v-3.5l0.6-2.5
					c-0.2-0.6-0.6-1.5-0.8-2.3l-0.6-1l-0.8-2.5v-0.6c-2.7-6.4-6.7-15.4-11.9-26c-3.3-6.9-7.3-14.1-11.2-21L517.4,356.6z"/>
			</g>
			<path class="st1" d="M568,416.7c0,0,2.5,19.1-8.3,25.4l-1.9-5.4C557.8,436.7,569.2,430.7,568,416.7z"/>
			<path class="st1" d="M586.7,422.8c0,0,5,12.7,1.2,21.8c0,0-3.3,1.2-8.3,0.8C579.6,445.4,588.1,441.1,586.7,422.8z"/>
			<path class="st2" d="M568.4,422.8c0,0,0.2,11.4-9.6,15.6l-0.4-1.7C558.4,436.7,568.4,427.5,568.4,422.8z"/>
			<path class="st2" d="M587.5,429.4c0,0,0.6,10.6-5,16.2l-3.5-0.2C579,445.4,586.5,438.2,587.5,429.4z"/>
			<path class="st3" d="M517.4,356.6l8.1-18.3c0-0.4,0-1,0.2-1.5c0-0.2,0-0.4,0-0.4c0-0.4,0.2-0.8,0.2-1c0-0.2,0-0.4,0.2-0.6
				c0.2-0.4,0.2-0.8,0.4-1.2c0-0.2,0-0.2,0.2-0.4c0.2-0.6,0.4-1,0.6-1.7c0-0.2,0.2-0.2,0.2-0.4c0.2-0.4,0.4-0.8,0.6-1.2
				c0-0.2,0.2-0.4,0.2-0.6c0.2-0.4,0.4-0.8,0.6-1c0-0.2,0.2-0.4,0.2-0.6c0,0,0-0.2,0.2-0.2c10.8,21.2,22.5,49.5,23.1,73.4
				c0,0-13.3,16.9-8.5,33.3c-0.4-0.4-0.6-1-0.8-1.7l0,0l0,0c0-0.2-0.2-0.4-0.2-0.6l0.2-0.2l-1.7-14.1h0.4v-3.5l0.8-3.1l-1.9-2.7
				l-1-2.5l-20-43.5c0,0-1-1.2-2.9-4.2L517.4,356.6z"/>
			<g>
				<path class="st2" d="M541.5,412.8l-0.6-1.2l0,0c-0.2-0.4-13.1-28.9-25-52l1.2-2.9l0,0c10.8,20.8,22.7,47,25.4,52.8
					c0.4-1.2,0.8-1.7,0.8-1.7l0,0c1-1.9,2.3-3.5,2.5-3.5c0.2-0.2,0.6-0.2,0.8,0c0.2,0.2,0.2,0.6,0,0.8c-0.2,0.2-0.6,0.6-0.8,1
					c0,0-6.9,10.6-3.1,25.8l0,0c0.8,2.3,2.9,4.2,5.4,5.2c2.5,1,5.2,1,7.3,0c8.5-4.2,13.1-13.3,11.2-22.3c0-0.4,0.2-0.6,0.4-0.8
					c0.4,0,0.6,0.2,0.8,0.4c1.9,8.7-2.1,17.7-9.8,22.5c1.2,5.4,4.6,9.4,9.2,10.8c4.4,1.2,8.9,0,12.5-3.5c8.9-8.9,5.6-22.5,5.4-22.5
					c0-0.4,0.2-0.6,0.4-0.8c0.4,0,0.6,0.2,0.8,0.4c0,0.2,3.5,14.4-5.8,23.7l0,0c2.9,0.2,7.3-0.6,11.2-3.7c3.3-2.7,7.3-7.9,7.3-17.3
					c0-16.9-12.7-29.1-12.7-29.3l-0.2-0.2c-13.9-34.3-32-61.4-47.6-81.1l0.2-0.2c1-1.2,2.1-2.3,2.7-3.1l0,0
					c5.2,6.4,10.6,13.7,16,22.1l0,0c0,0,25.8,38.5,31.6,60.1c7.1,9.2,20.2,30.2,7.7,46c-1.2,1.9-2.7,3.3-4,4.4c-0.4,0.4-1,0.8-1.7,1
					c-0.2,0-0.2,0.2-0.2,0.2l0,0c-2.9,1.9-6,2.7-9.2,2.7c-0.8,0-1.7,0-2.3-0.2c-2.7,2.3-5.8,3.3-8.9,3.3c-1.2,0-2.5-0.2-3.7-0.6
					c-5-1.5-8.5-5.6-10-11.4c-0.2,0.2-0.6,0.4-0.8,0.4c-1.2,0.6-2.7,0.8-4.2,0.8c-1.5,0-2.7-0.2-4.2-0.8c-2.7-1-4.8-3.1-5.8-5.4l0,0
					c0,0,0,0,0-0.2c0-0.2-0.2-0.2-0.2-0.4l0,0c0,0-1-2.7-1.5-7.1c-0.2-1.7-0.2-3.7,0-5.8C540.7,416.7,541.1,414.4,541.5,412.8z"/>
			</g>
		</g>
		<g>
			<g>
				
					<linearGradient id="SVGID_7_" gradientUnits="userSpaceOnUse" x1="290.7733" y1="220.8888" x2="375.754" y2="220.8888" gradientTransform="matrix(1 0 0 -1 0 602)">
					<stop  offset="0" style="stop-color:#EFD97F"/>
					<stop  offset="0.1978" style="stop-color:#EFD87C"/>
					<stop  offset="0.3726" style="stop-color:#EED571"/>
					<stop  offset="0.5387" style="stop-color:#EDCF5F"/>
					<stop  offset="0.6984" style="stop-color:#EBC845"/>
					<stop  offset="0.7526" style="stop-color:#EAC53B"/>
					<stop  offset="1" style="stop-color:#E5AD14"/>
				</linearGradient>
				<path class="st11" d="M375.9,357.1l-8.1-18.3c0-0.4,0-1-0.2-1.5c0-0.2,0-0.4,0-0.4c0-0.4-0.2-0.8-0.2-1c0-0.2,0-0.4-0.2-0.6
					c-0.2-0.4-0.2-0.8-0.4-1.2c0-0.2,0-0.2-0.2-0.4c-0.2-0.6-0.4-1-0.6-1.7c0-0.2-0.2-0.2-0.2-0.4c-0.2-0.4-0.4-0.8-0.6-1.2
					c0-0.2-0.2-0.4-0.2-0.6c-0.2-0.4-0.4-0.8-0.6-1c0-0.2-0.2-0.4-0.2-0.6c-2.9-5.6-7.1-11-10-14.6c-0.2-0.2-0.2-0.2-0.4-0.4
					c-15.8,20-33.7,47.2-47.8,81.6c0,0-12.9,12.3-12.9,29.7c0,17.5,13.3,23.1,20.6,21.4l0,0c8.1,7.1,19.6,2.7,21.8-8.7v-0.2
					c0.4,0.2,1,0.6,1.7,0.8c4.8,2.5,11.2-0.6,13.3-5l0,0l0,0c0-0.2,0.2-0.4,0.2-0.6l-0.2-0.2l1.7-14.1h-0.4v-3.5l-0.6-2.5
					c0.2-0.6,0.6-1.5,0.8-2.3l0.6-1l0.8-2.5v-0.6c2.7-6.4,6.7-15.4,11.9-26c3.3-6.9,7.3-14.1,11.2-21L375.9,357.1z"/>
			</g>
			<path class="st1" d="M325.3,417.3c0,0-2.5,19.1,8.3,25.4l1.9-5.4C335.7,437.2,324.1,431.2,325.3,417.3z"/>
			<path class="st1" d="M306.8,423.3c0,0-5,12.7-1.2,21.8c0,0,3.3,1.2,8.3,0.8C313.9,446,305.4,441.6,306.8,423.3z"/>
			<path class="st2" d="M325.1,423.3c0,0-0.2,11.4,9.6,15.6l0.4-1.7C335.1,437.2,324.9,428.1,325.1,423.3z"/>
			<path class="st2" d="M306,430c0,0-0.6,10.6,5,16.2l3.5-0.2C314.5,446,306.8,438.7,306,430z"/>
			<path class="st3" d="M375.9,357.1l-8.1-18.3c0-0.4,0-1-0.2-1.5c0-0.2,0-0.4,0-0.4c0-0.4-0.2-0.8-0.2-1c0-0.2,0-0.4-0.2-0.6
				c-0.2-0.4-0.2-0.8-0.4-1.2c0-0.2,0-0.2-0.2-0.4c-0.2-0.6-0.4-1-0.6-1.7c0-0.2-0.2-0.2-0.2-0.4c-0.2-0.4-0.4-0.8-0.6-1.2
				c0-0.2-0.2-0.4-0.2-0.6c-0.2-0.4-0.4-0.8-0.6-1c0-0.2-0.2-0.4-0.2-0.6c0,0,0-0.2-0.2-0.2c-10.8,21.2-22.5,49.5-23.1,73.4
				c0,0,13.3,16.9,8.5,33.3c0.4-0.4,0.6-1,0.8-1.7l0,0l0,0c0-0.2,0.2-0.4,0.2-0.6l-0.2-0.2l1.7-14.1h-0.4v-3.5l-0.8-3.1l1.9-2.7
				l1-2.5l20-43.5c0,0,1-1.2,2.9-4.2L375.9,357.1z"/>
			<g>
				<path class="st2" d="M351.8,413.3l0.6-1.2l0,0c0.2-0.4,13.1-28.9,25-52l-1.2-2.9l0,0c-10.8,20.8-22.7,47-25.4,52.8
					c-0.4-1.2-0.8-1.7-0.8-1.7l0,0c-1-1.9-2.3-3.5-2.5-3.5c-0.2-0.2-0.6-0.2-0.8,0c-0.2,0.2-0.2,0.6,0,0.8c0.2,0.2,0.6,0.6,0.8,1
					c0,0,6.9,10.6,3.1,25.8l0,0c-0.8,2.3-2.9,4.2-5.4,5.2c-2.5,1-5.2,1-7.3,0c-8.5-4.2-13.1-13.3-11.2-22.3c0-0.4-0.2-0.6-0.4-0.8
					c-0.4,0-0.6,0.2-0.8,0.4c-1.9,8.7,2.1,17.7,9.8,22.5c-1.2,5.4-4.6,9.4-9.2,10.8c-4.4,1.2-8.9,0-12.5-3.5
					c-8.9-8.9-5.6-22.5-5.4-22.5c0-0.4-0.2-0.6-0.4-0.8c-0.4,0-0.6,0.2-0.8,0.4c0,0.2-3.5,14.4,5.8,23.7l0,0
					c-2.9,0.2-7.3-0.6-11.2-3.7c-3.3-2.7-7.3-7.9-7.3-17.3c0-16.9,12.7-29.1,12.7-29.3l0.2-0.2c13.9-34.3,32-61.4,47.6-81.1
					l-0.2-0.2c-1-1.2-2.1-2.3-2.7-3.1l0,0c-5.2,6.4-10.6,13.7-16,22.1l0,0c0,0-25.8,38.5-31.6,60.1c-7.1,9.2-20.2,30.2-7.7,46
					c1.2,1.9,2.7,3.3,4,4.4c0.4,0.4,1,0.8,1.7,1c0.2,0,0.2,0.2,0.2,0.2l0,0c2.9,1.9,6,2.7,9.2,2.7c0.8,0,1.7,0,2.3-0.2
					c2.7,2.3,5.8,3.3,8.9,3.3c1.2,0,2.5-0.2,3.7-0.6c5-1.5,8.5-5.6,10-11.4c0.2,0.2,0.6,0.4,0.8,0.4c1.2,0.6,2.7,0.8,4.2,0.8
					c1.5,0,2.7-0.2,4.2-0.8c2.7-1,4.8-3.1,5.8-5.4l0,0c0,0,0,0,0-0.2c0-0.2,0.2-0.2,0.2-0.4l0,0c0,0,1-2.7,1.5-7.1
					c0.2-1.7,0.2-3.7,0-5.8C352.8,417.3,352.2,415,351.8,413.3z"/>
			</g>
		</g>
	</g>
</g>
</svg>
