<?xml version="1.0" encoding="utf-8"?>
<!-- Generator: Adobe Illustrator 21.0.0, SVG Export Plug-In . SVG Version: 6.00 Build 0)  -->
<svg version="1.1" id="圖層_1" xmlns="http://www.w3.org/2000/svg" xmlns:xlink="http://www.w3.org/1999/xlink" x="0px" y="0px"
	 viewBox="0 0 822.9 601.4" style="enable-background:new 0 0 822.9 601.4;" xml:space="preserve">
<style type="text/css">
	.st0{fill:url(#SVGID_1_);}
	.st1{fill:#E1BE3F;}
	.st2{fill:#AB6C21;}
	.st3{opacity:0.6;fill:#E1BE3F;enable-background:new    ;}
	.st4{fill:#888888;}
	.st5{fill:#456430;}
	.st6{fill:#709846;}
	.st7{fill:url(#SVGID_2_);}
	.st8{fill:url(#SVGID_3_);}
	.st9{opacity:0.8;}
	.st10{fill:#C8C9CA;}
	.st11{fill:url(#SVGID_4_);}
	.st12{opacity:0.6;fill:#709846;enable-background:new    ;}
	.st13{fill:#FFFFFF;}
	.st14{fill:#211714;}
	.st15{fill:url(#SVGID_5_);}
	.st16{fill:url(#SVGID_6_);}
	.st17{fill:url(#SVGID_7_);}
	.st18{fill:#BED26B;}
	.st19{fill:#F3E4A2;}
	.st20{fill:#8EA63A;}
	.st21{fill:none;stroke:#BED26B;stroke-width:0.9391;stroke-miterlimit:10;}
	.st22{opacity:0.6;fill:#DCCFB8;enable-background:new    ;}
	.st23{fill:url(#SVGID_8_);}
	.st24{fill:url(#SVGID_9_);}
	.st25{opacity:0.6;}
	.st26{fill:url(#SVGID_10_);}
	.st27{fill:url(#SVGID_11_);}
	.st28{fill:url(#SVGID_12_);}
	.st29{fill:#E2BF40;}
	.st30{fill:#AC6D21;}
	.st31{opacity:0.6;fill:#E2BF40;enable-background:new    ;}
	.st32{fill:#A46723;}
	.st33{fill:url(#SVGID_13_);}
	.st34{fill:url(#SVGID_14_);}
	.st35{fill:url(#SVGID_15_);}
	.st36{fill:url(#SVGID_16_);}
	.st37{fill:url(#SVGID_17_);}
	.st38{fill:url(#SVGID_18_);}
	.st39{fill:url(#SVGID_19_);}
	.st40{fill:url(#SVGID_20_);}
	.st41{fill:url(#SVGID_21_);}
	.st42{fill:url(#SVGID_22_);}
	.st43{fill:url(#SVGID_23_);}
	.st44{fill:url(#SVGID_24_);}
	.st45{fill:url(#SVGID_25_);}
	.st46{fill:url(#SVGID_26_);}
	.st47{fill:url(#SVGID_27_);}
	.st48{fill:url(#SVGID_28_);}
	.st49{fill:url(#SVGID_29_);}
	.st50{fill:url(#SVGID_30_);}
	.st51{fill:url(#SVGID_31_);}
	.st52{fill:url(#SVGID_32_);}
	.st53{fill:url(#SVGID_33_);}
	.st54{fill:url(#SVGID_34_);}
	.st55{fill:url(#SVGID_35_);}
	.st56{fill:url(#SVGID_36_);}
	.st57{fill:url(#SVGID_37_);}
	.st58{fill:url(#SVGID_38_);}
	.st59{fill:url(#SVGID_39_);}
	.st60{fill:url(#SVGID_40_);}
	.st61{fill:url(#SVGID_41_);}
	.st62{fill:url(#SVGID_42_);}
	.st63{fill:url(#SVGID_43_);}
	.st64{fill:url(#SVGID_44_);}
	.st65{fill:url(#SVGID_45_);}
	.st66{fill:url(#SVGID_46_);}
	.st67{fill:url(#SVGID_47_);}
	.st68{fill:url(#SVGID_48_);}
	.st69{fill:url(#SVGID_49_);}
	.st70{fill:url(#SVGID_50_);}
	.st71{fill:url(#SVGID_51_);}
	.st72{fill:url(#SVGID_52_);}
	.st73{fill:url(#SVGID_53_);}
	.st74{fill:url(#SVGID_54_);}
	.st75{fill:url(#SVGID_55_);}
	.st76{fill:url(#SVGID_56_);}
	.st77{fill:url(#SVGID_57_);}
	.st78{fill:url(#SVGID_58_);}
	.st79{fill:url(#SVGID_59_);}
	.st80{fill:url(#SVGID_60_);}
	.st81{fill:url(#SVGID_61_);}
	.st82{fill:url(#SVGID_62_);}
	.st83{fill:#3C3A39;}
	.st84{fill:url(#SVGID_63_);}
	.st85{fill:url(#SVGID_64_);}
	.st86{fill:url(#SVGID_65_);}
	.st87{fill:#532817;}
	.st88{fill:#48210E;}
	.st89{fill:url(#SVGID_66_);}
	.st90{fill:url(#SVGID_67_);}
	.st91{fill:#9F7433;}
	.st92{fill:#746766;}
	.st93{opacity:0.5;}
	.st94{fill:#2F2A28;}
	.st95{opacity:0.5;fill:#2F2A28;enable-background:new    ;}
	.st96{fill:#865C25;}
	.st97{fill:#755325;}
	.st98{fill:none;stroke:#746766;stroke-width:0.8195;stroke-linecap:round;stroke-miterlimit:10;}
	.st99{fill:url(#SVGID_68_);}
	.st100{fill:url(#SVGID_69_);}
	.st101{fill:url(#SVGID_70_);}
	.st102{fill:url(#SVGID_71_);}
	.st103{fill:url(#SVGID_72_);}
	.st104{fill:url(#SVGID_73_);}
	.st105{fill:url(#SVGID_74_);}
	.st106{fill:#D69644;}
	.st107{fill:url(#SVGID_75_);}
	.st108{fill:#898989;}
	.st109{fill:#C9CACA;}
	.st110{fill:url(#SVGID_76_);}
	.st111{fill:url(#SVGID_77_);}
	.st112{fill:url(#SVGID_78_);}
	.st113{fill:url(#SVGID_79_);}
	.st114{fill:url(#SVGID_80_);}
	.st115{fill:#FCE4B4;}
	.st116{opacity:0.5;fill:#DA9E36;enable-background:new    ;}
	.st117{fill:url(#SVGID_81_);}
	.st118{fill:url(#SVGID_82_);}
	.st119{fill:url(#SVGID_83_);}
	.st120{opacity:0.4;fill:#C49358;enable-background:new    ;}
	.st121{fill:url(#SVGID_84_);}
	.st122{fill:url(#SVGID_85_);}
	.st123{fill:url(#SVGID_86_);}
	.st124{fill:url(#SVGID_87_);}
	.st125{fill:url(#SVGID_88_);}
	.st126{fill:url(#SVGID_89_);}
	.st127{fill:#7D5223;}
	.st128{fill:url(#SVGID_90_);}
	.st129{opacity:0.5;fill:url(#SVGID_91_);enable-background:new    ;}
	.st130{fill:#CC7C5C;}
</style>
<g>
	<g>
		<g>
			<g>
				<linearGradient id="SVGID_1_" gradientUnits="userSpaceOnUse" x1="291.6814" y1="382.0225" x2="376.5798" y2="382.0225">
					<stop  offset="0" style="stop-color:#EFD980"/>
					<stop  offset="0.2037" style="stop-color:#EFD87C"/>
					<stop  offset="0.3836" style="stop-color:#EED572"/>
					<stop  offset="0.5546" style="stop-color:#EDCF5F"/>
					<stop  offset="0.7191" style="stop-color:#EBC743"/>
					<stop  offset="0.7526" style="stop-color:#EBC63C"/>
					<stop  offset="1" style="stop-color:#E7AE17"/>
				</linearGradient>
				<path class="st0" d="M376.8,357.5l-8-18.5c0-0.4,0-1.1,0-1.4v-0.4c0-0.4,0-0.7-0.4-1.1v-0.4c0-0.4-0.4-0.7-0.4-1.1v-0.4
					c0-0.4-0.4-1.1-0.7-1.4v-0.4c0-0.4-0.4-0.7-0.4-1.1c0-0.4,0-0.4-0.4-0.7c0-0.4-0.4-0.7-0.4-1.1c0-0.4-0.4-0.4-0.4-0.7
					c-2.9-5.8-7.2-10.9-10.1-14.5l-0.4-0.4c-15.6,19.9-33.7,47.1-47.8,81.6c0,0-13,12.3-13,29.7c0,17.4,13.4,23.2,20.7,21.4l0,0
					c8.3,6.9,19.6,2.9,21.7-8.7l0,0c0.4,0.4,1.1,0.7,1.4,0.7c4.7,2.5,11.2-0.7,13.4-5.1l0,0l0,0c0,0,0-0.4,0.4-0.4l0,0l1.4-14.1
					h-0.4v-3.6l-0.7-2.5c0.4-0.7,0.7-1.4,0.7-2.2l0.7-1.1l1.1-2.5v-0.7c2.5-6.5,6.5-15.6,12-26.1c3.3-6.9,7.2-14.1,11.2-21
					L376.8,357.5z"/>
			</g>
			<path class="st29" d="M326.4,417.7c0,0-2.5,19.2,8.3,25.4l1.8-5.4C336.5,437.6,324.9,431.8,326.4,417.7z"/>
			<path class="st29" d="M307.5,423.5c0,0-5.1,12.7-1.4,21.7c0,0,3.3,1.4,8.3,1.1C314.8,446.3,306.1,442,307.5,423.5z"/>
			<path class="st30" d="M326,423.5c0,0,0,11.2,9.4,15.6l0.4-1.8C335.8,437.6,325.6,428.5,326,423.5z"/>
			<path class="st30" d="M306.8,430.4c0,0-0.7,10.5,5.1,16.3l3.6-0.4C315.1,446.3,307.5,439.1,306.8,430.4z"/>
			<path class="st31" d="M376.8,357.5l-8-18.5c0-0.4,0-1.1,0-1.4v-0.4c0-0.4,0-0.7-0.4-1.1v-0.4c0-0.4-0.4-0.7-0.4-1.1v-0.4
				c0-0.4-0.4-1.1-0.7-1.4v-0.4c0-0.4-0.4-0.7-0.4-1.1c0-0.4,0-0.4-0.4-0.7c0-0.4-0.4-0.7-0.4-1.1c0-0.4-0.4-0.4-0.4-0.7
				c0,0,0,0,0-0.4c-10.9,21.4-22.5,49.3-22.8,73.2c0,0,13.4,17,8.3,33.3c0.4-0.4,0.7-1.1,1.1-1.4l0,0l0,0c0,0,0-0.4,0.4-0.4l0,0
				l1.4-14.1h-0.4v-3.6l-0.7-3.3l1.8-2.5l1.1-2.5l19.9-43.5c0,0,1.1-1.4,2.9-4.3L376.8,357.5z"/>
			<g>
				<path class="st30" d="M352.5,413.7l0.4-1.1l0,0c0.4-0.4,13-29,25-51.8l-1.4-2.9l0,0c-10.9,20.7-22.8,46.8-25.4,52.6
					c-0.4-1.1-0.7-1.8-0.7-1.8l0,0c-1.1-1.8-2.5-3.6-2.5-3.6c-0.4-0.4-0.7-0.4-0.7,0c-0.4,0.4-0.4,0.7,0,0.7
					c0.4,0.4,0.4,0.7,0.7,1.1c0,0,6.9,10.5,3.3,25.7l0,0c-0.7,2.2-2.9,4.3-5.4,5.1c-2.5,1.1-5.1,1.1-7.2,0
					c-8.3-4.3-13-13.4-11.2-22.1c0-0.4,0-0.7-0.4-0.7s-0.7,0-0.7,0.4c-1.8,8.7,2.2,17.8,9.8,22.5c-1.1,5.4-4.7,9.4-9.1,10.9
					c-4.3,1.4-9.1,0-12.7-3.6c-8.7-8.7-5.4-22.5-5.4-22.5c0-0.4,0-0.7-0.4-0.7s-0.7,0-0.7,0.4c0,0-3.6,14.1,5.8,23.6l0,0
					c-2.9,0.4-7.2-0.4-11.2-3.6c-3.3-2.5-7.2-8-7.2-17.4c0-17,12.7-29,12.7-29.4c0,0,0,0,0-0.4c14.1-34.1,31.9-61.3,47.5-81.2
					c0,0,0,0-0.4-0.4c-1.1-1.4-2.2-2.5-2.5-2.9l0,0c-5.1,6.5-10.5,13.8-15.9,22.1l0,0c0,0-25.7,38.4-31.5,59.8
					c-6.9,9.1-20.3,30.1-7.6,46c1.1,1.8,2.5,3.3,4,4.3c0.4,0.4,1.1,0.7,1.4,1.1h0.4l0,0c2.9,1.8,6.2,2.9,9.1,2.9
					c0.7,0,1.4,0,2.2-0.4c2.5,2.2,5.8,3.3,9.1,3.3c1.1,0,2.5,0,3.6-0.4c5.1-1.4,8.7-5.8,9.8-11.2c0.4,0,0.7,0.4,0.7,0.4
					c1.1,0.7,2.5,1.1,4,1.1s2.9-0.4,4-0.7c2.5-1.1,4.7-2.9,5.8-5.4l0,0c0,0,0,0,0-0.4v-0.4l0,0c0,0,1.1-2.5,1.4-6.9
					c0-1.8,0.4-3.6,0-5.8C353.6,417.7,353.2,415.5,352.5,413.7z"/>
			</g>
		</g>
	</g>
	<g>
		<g>
			<linearGradient id="SVGID_2_" gradientUnits="userSpaceOnUse" x1="477.8225" y1="356.1717" x2="560.1854" y2="356.1717">
				<stop  offset="0" style="stop-color:#EFD980"/>
				<stop  offset="0.2037" style="stop-color:#EFD87C"/>
				<stop  offset="0.3836" style="stop-color:#EED572"/>
				<stop  offset="0.5546" style="stop-color:#EDCF5F"/>
				<stop  offset="0.7191" style="stop-color:#EBC743"/>
				<stop  offset="0.7526" style="stop-color:#EBC63C"/>
				<stop  offset="1" style="stop-color:#E7AE17"/>
			</linearGradient>
			<path class="st7" d="M539.1,309.3l4,5.1l10.9,14.1l4.7,10.1l1.1,5.8l-3.6,10.5l-8.7,12l-7.6,6.2l-1.8,2.5l-3.6,5.8
				c0,0,3.6,32.6-26.8,17.8c0,0-13,2.2-18.1-6.2c0,0-13.4-1.1-11.2-15.2c1.8-14.1,12-20.3,22.1-25c0,0,14.1-27.5,26.1-32.3
				C526,320.9,534.4,311.5,539.1,309.3z"/>
			<linearGradient id="SVGID_3_" gradientUnits="userSpaceOnUse" x1="475.2195" y1="368.0062" x2="484.8011" y2="368.0062">
				<stop  offset="0" style="stop-color:#EFD980"/>
				<stop  offset="0.2037" style="stop-color:#EFD87C"/>
				<stop  offset="0.3836" style="stop-color:#EED572"/>
				<stop  offset="0.5546" style="stop-color:#EDCF5F"/>
				<stop  offset="0.7191" style="stop-color:#EBC743"/>
				<stop  offset="0.7526" style="stop-color:#EBC63C"/>
				<stop  offset="1" style="stop-color:#E7AE17"/>
			</linearGradient>
			<path class="st8" d="M476,375.3c-1.1-1.4-1.1-4-0.4-6.9c1.1-4.7,5.4-6.9,9.1-8.3c-3.6,3.6-6.9,8.7-8,15.9
				C476.7,376,476.4,375.6,476,375.3z"/>
			<g class="st25">
				<path class="st29" d="M507.5,395.6c0.4,1.4,1.4,2.9,2.2,3.6c2.5,2.5,6.9,3.3,13,2.9c2.5-0.4,4.3-1.1,6.2-2.9
					C520.2,403.9,511.2,398.5,507.5,395.6z"/>
				<path class="st29" d="M489.8,389.8c0,0,0.7,4,4.3,6.5c2.9,2.2,6.9,2.9,11.6,2.5c-1.1-1.4-1.1-2.9-1.1-2.9c0-0.4,0-0.7,0-1.1
					c-4.3,2.2-11.2-4-14.9-7.2C489.8,388.3,489.8,389,489.8,389.8z"/>
				<path class="st29" d="M488,391.6c-0.7-2.2-0.7-4.3-0.7-6.5l0,0c-6.9,0-8-4.7-8-4.7C479.3,380.7,478.5,388.7,488,391.6z"/>
			</g>
			<g>
				<path class="st30" d="M505,400.3L505,400.3h0.7c0.4,0,0.4,0,0.7-0.4l0,0l0,0c1.4,1.8,4.3,4,8.7,4.7c0.4,0,1.1,0,1.4,0.4l0,0h0.4
					c0.4,0,0.7,0,1.1,0h0.4c0.4,0,0.4,0,0.7,0s0.4,0,0.7,0c0,0,0,0,0.4,0s0.7,0,1.4,0h0.4c0.4,0,0.4,0,0.7,0h0.4c0.4,0,0.4,0,0.7,0
					c0.4,0,0.4,0,0.7-0.4h0.4c0.4,0,0.4-0.4,0.7-0.4h0.4c0,0,0,0,0.4,0s0.4-0.4,0.7-0.4l0,0c0.4,0,0.7-0.4,1.1-0.4
					c0.4-0.4,0.7-0.4,1.1-0.7c4.3-3.6,5.1-10.5,5.1-10.5l0,0c0.4-1.4,0.4-2.9,0.7-4.3v-0.4c0-1.4,0-3.3,0-5.1v-0.4
					c0.7-1.1,3.6-4.3,5.1-7.2c0.7-0.4,2.5-1.8,5.1-3.6c12.3-8.3,16.3-18.1,16.7-25.7l0,0v-0.4v-0.4c0-1.8-0.4-3.6-0.7-5.1
					c0-0.4-0.4-0.7-0.4-1.4c-1.1-2.9-2.2-5.1-2.2-5.1c-3.6-5.8-9.4-13.8-13.8-19.6c-0.4,0-1.1,0-1.4,0.4l-0.7-0.7
					c-0.7,0-1.1,0.4-1.8,0.4c17.4,21.4,17.8,29.4,17.8,30.8c0,1.1-0.4,2.2-0.7,3.6c-3.6,15.2-18.8,24.6-19.2,24.6l-0.4,0.4
					c-1.4,3.3-5.1,7.2-5.1,7.2s-0.4,0.4-0.4,0.7v0.7c0,13.4-3.3,20.3-10.5,20.7c-6.2,0.4-10.5-0.4-13-2.9c-2.2-1.8-3.3-5.1-2.9-9.1
					c0-8.7,4-12.7,4-12.7l0.4-0.4l0.4-1.4c0-0.4,0-1.1-0.7-1.1c-0.4,0-1.1,0-1.1,0.7l-0.4,1.1c0,0-6.9,6.2-4.7,19.2
					c0,0,0.4,1.1,1.1,2.9c-4.7,0.4-8.7-0.4-11.6-2.5c-3.6-2.5-4.3-6.2-4.3-6.5c-2.2-11.6,10.5-22.1,10.5-22.1c0.4-0.4,0.4-0.7,0-1.1
					c-0.4-0.4-0.7-0.4-1.1,0c0,0-0.4,0.4-0.7,0.7c0,0-14.9,10.9-10.9,24.3c-9.4-2.9-8.7-10.9-8.7-11.2l0,0c0-20.3,19.9-25,21-25.4
					c0.4,0,0.4-0.4,0.7-0.4c0-0.4,13.8-29.4,27.2-33.3c0.4,0,0.7-0.7,0.7-1.1c0-0.4-0.7-0.7-1.1-0.7c0,0-0.7,0-2.5,0.7l0,0
					c-3.6,1.8-10.5,6.2-18.1,18.1c0,0,0,0.4-0.4,0.4c-0.4,0.7-0.7,1.4-1.1,2.2v0.4c-0.4,0.7-0.7,1.4-1.4,2.2c0,0,0,0,0,0.4
					c-0.4,0.7-0.7,1.8-1.4,2.5l0,0c-0.4,1.1-1.1,1.8-1.4,2.9c-0.4,1.1-1.1,2.2-1.4,3.3c0,0-0.4,0-0.7,0l0,0
					c-2.2,0.7-6.2,2.2-10.1,4.7l0,0c0,0-14.9,1.4-15.6,14.1c0,0-0.4,5.8,4,7.2v0.4c0,0-1.8,13,12.3,15.2c0,0.4,0.4,0.4,0.4,0.7
					c0,0,5.4,7.2,15.2,5.4C504.6,400.6,505,400.6,505,400.3z M545.2,370.2C545.2,370.5,544.9,370.5,545.2,370.2
					C545.2,370.5,545.2,370.2,545.2,370.2z M476,375.3c-1.1-1.4-1.1-4-0.4-6.9c1.1-4.7,5.4-6.9,9.1-8.3c-3.6,3.6-6.9,8.7-8,15.9
					C476.7,376,476.4,375.6,476,375.3z"/>
				<path class="st30" d="M538.4,310.7c1.1-0.4,2.5-0.7,3.6-0.7h0.4c-2.2-2.5-3.6-4.3-3.6-4.3l-1.8,0.4l0.7,4.3
					C538,310.4,538,310.4,538.4,310.7z"/>
			</g>
		</g>
		<g>
			<linearGradient id="SVGID_4_" gradientUnits="userSpaceOnUse" x1="506.3087" y1="393.6218" x2="613.4233" y2="393.6218">
				<stop  offset="0" style="stop-color:#BE8C40"/>
				<stop  offset="1" style="stop-color:#D7B661"/>
			</linearGradient>
			<path class="st11" d="M611.2,374.2c-0.4-1.1-0.4-1.8-0.7-2.9l-2.2-10.5c-2.9,6.5-12.7,15.2-41,22.8c-2.9,0.7-5.8,1.4-8.7,2.2
				h-0.4l0,0c-2.5,0.7-5.1,1.1-7.6,1.4c-6.2,1.1-11.6,1.8-16.3,2.2c0,0.7-0.4,1.4-0.4,2.2l0,0c0,0-1.1,9.1-6.9,12l0,0
				c-1.8,1.1-5.1,2.2-10.5,1.4c-5.4-0.4-8.3-2.5-10.1-4.7h-0.4c1.4,6.5,3.3,12.7,8.7,18.1c6.2,6.2,14.5,8.7,23.6,8
				c0.4,0,25-2.9,55.5-12.3c8.3-2.5,14.9-8.7,18.1-17C614.8,389,613,381.8,611.2,374.2z"/>
			<path class="st115" d="M607.6,404.3c1.8-2.2,2.9-4.7,4-7.2c2.9-8,1.4-15.2-0.4-22.8c-0.4-1.1-0.4-1.8-0.7-2.9l-2.2-10.5
				c-0.7,1.1-1.4,2.5-2.5,3.6c2.2,7.6,5.8,20.3,5.4,24.6C610.8,392.3,609.8,397.4,607.6,404.3z"/>
			<g>
				<path class="st116" d="M539.4,398.8c2.2-0.4,4.7-0.7,6.9-1.1c0.7,0,0.4-1.1-0.4-0.7c-2.2,0.7-4.7,1.1-6.9,1.1
					C538.7,398.1,538.7,398.8,539.4,398.8L539.4,398.8z"/>
				<path class="st116" d="M551.8,396.3c0.4,0,0.7-0.4,1.1-0.4c0,0,0,0,0.4,0l0,0v-0.4c0,0,0-0.4-0.4-0.4h-0.4
					c-0.4,0-0.7,0.4-1.1,0.4c0,0,0,0-0.4,0l0,0v0.4C551,395.9,551,396.3,551.8,396.3C551.4,396.3,551.8,396.3,551.8,396.3
					L551.8,396.3z"/>
				<path class="st116" d="M606.9,369.5c-2.5,2.2-5.1,4-8,5.8c-0.7,0.4,0,1.4,0.4,1.1c2.9-1.4,5.4-3.6,8-5.8
					C607.9,369.8,607.2,369.1,606.9,369.5L606.9,369.5z"/>
				<path class="st116" d="M609,371.6c-2.2,1.4-4,2.9-6.2,4.3c-0.4,0-0.4,0.7,0,0.7c0.4,0.4,0.7,0.4,0.7,0c2.2-1.4,4-2.9,6.2-4.3
					c0.4,0,0.4-0.7,0-0.7C609.8,371.3,609.4,371.3,609,371.6L609,371.6z"/>
				<path class="st116" d="M609.4,374.9c-5.1,3.6-10.5,6.2-16.3,8.3c-0.7,0-0.4,1.1,0.4,0.7c5.8-1.8,11.6-4.7,16.7-8.3
					C610.1,375.3,609.8,374.5,609.4,374.9L609.4,374.9z"/>
				<path class="st116" d="M594.9,380.7c0.4,1.1,0.7,1.8,1.1,2.9c0,0.4,0.4,0.4,0.7,0.4s0.4-0.4,0.4-0.7c-0.4-1.1-0.7-2.2-1.1-3.3
					c0-0.4-0.4-0.4-0.7-0.4C594.9,380,594.9,380.3,594.9,380.7L594.9,380.7z"/>
				<path class="st116" d="M597.8,378.2c0.7,2.9,1.4,5.8,1.8,8.7c0,0.7,1.1,0.4,0.7-0.4c-0.4-2.9-1.1-5.8-1.8-8.7
					C598.5,377.1,597.4,377.4,597.8,378.2L597.8,378.2z"/>
				<path class="st116" d="M602.5,379.6c0.4,1.1,0.4,1.8,0.7,2.9c0,0.4,0.4,0.4,0.7,0.4s0.4-0.4,0.4-0.7c-0.4-1.1-0.4-1.8-0.7-2.9
					c0-0.4-0.4-0.4-0.7-0.4C602.9,378.9,602.5,379.2,602.5,379.6L602.5,379.6z"/>
				<path class="st116" d="M605,378.9c0,0.4,0.4,0.7,0.4,1.1c0,0,0,0,0,0.4l0,0h0.4c0,0,0.4,0,0.4-0.4v-0.4c0-0.4-0.4-0.7-0.4-1.1
					c0,0,0,0,0-0.4l0,0h-0.4C605.4,378.2,605,378.2,605,378.9L605,378.9L605,378.9z"/>
				<path class="st116" d="M610.1,389.8c-2.2,4-6.2,6.9-10.1,9.1s-8.3,4-12.7,5.8c-0.4,0.4,0,1.1,0.4,0.7c4.3-1.8,9.1-3.6,13.4-6.2
					c3.6-2.2,7.6-5.1,9.8-9.1C611.2,389.8,610.5,389.4,610.1,389.8L610.1,389.8z"/>
				<path class="st116" d="M602.1,395.2c0.4,1.4,0.7,2.9,1.1,4.7c0,0.4,0.4,0.4,0.4,0.4c0.4,0,0.4-0.4,0.4-0.4
					c0-1.4-0.4-3.3-1.1-4.7C602.9,394.8,602.5,394.8,602.1,395.2C602.5,394.8,602.1,394.8,602.1,395.2L602.1,395.2z"/>
				<path class="st116" d="M600,393.4c0.7,3.3,1.4,6.5,2.2,9.8c0,0.7,1.1,0.4,0.7-0.4c-0.4-3.3-1.1-6.5-2.2-9.8
					C600.7,392.7,599.6,393,600,393.4L600,393.4z"/>
				<path class="st116" d="M597.1,397.7c0.7,3.3,1.1,6.5,0.7,9.4c0,0.7,1.1,0.7,1.1,0c0.4-3.3,0.4-6.5-0.7-9.8
					C597.8,396.6,596.7,397,597.1,397.7L597.1,397.7z"/>
				<path class="st116" d="M605.4,385c0.4,0.7,0.7,1.8,0.7,2.9c0,0.4,0.4,0.4,0.4,0.4c0.4,0,0.4-0.4,0.4-0.4c0-1.1-0.4-1.8-0.7-2.9
					C606.1,384.7,605.8,384.7,605.4,385C605.4,384.7,605.4,385,605.4,385L605.4,385z"/>
				<path class="st116" d="M606.9,381.8c1.1,2.5,1.4,5.1,1.8,8c0,0.7,1.1,0.7,0.7,0c-0.4-2.9-0.7-5.8-1.8-8.3
					C607.6,380.7,606.5,381.1,606.9,381.8L606.9,381.8z"/>
				<path class="st116" d="M598.9,370.9c0.7,1.8,1.1,3.6,1.1,5.4c0,0.4,0.4,0.7,0.4,0.7c0.4,0,0.7-0.4,0.7-0.4c0-2.2-0.4-4-1.1-5.8
					C600,370.5,599.6,370.5,598.9,370.9C598.9,370.2,598.9,370.5,598.9,370.9L598.9,370.9z"/>
				<path class="st116" d="M600.7,370.9C600.7,370.9,600.7,371.3,600.7,370.9C600.7,371.3,600.7,371.6,600.7,370.9
					C600.7,371.3,600.7,371.3,600.7,370.9c0.4,0.7,0.4,0.7,0.4,1.1s0.4,0.7,0.4,1.1c0,0.4,0.4,0.4,0.7,0.4s0.4-0.4,0.4-0.7
					c0-0.7-0.4-1.8-0.7-2.5c0-0.4-0.4-0.4-0.7-0.4C600.3,370.5,600.3,370.5,600.7,370.9L600.7,370.9z"/>
				<path class="st116" d="M602.9,369.1c0,0.4,0,0.7,0.4,1.1c0,0,0,0.4,0.4,0.4h0.4c0,0,0.4,0,0.4-0.4v-0.4c0-0.4,0-0.7-0.4-1.1
					c0,0,0-0.4-0.4-0.4h-0.4C603.2,368.4,602.9,368.4,602.9,369.1L602.9,369.1L602.9,369.1z"/>
				<path class="st116" d="M517.7,407.9c2.2,0.4,4.7,0.4,6.9,0c0.4,0,0.7-0.4,0.7-0.4c0-0.4-0.4-0.7-0.4-0.7c-2.2,0-4.7,0-6.9,0
					C517,406.8,517,407.9,517.7,407.9L517.7,407.9z"/>
				<path class="st116" d="M527.5,414.4c1.1,0.4,2.5,0.4,4,0.7c0.4,0,0.7-0.4,0.7-0.4c0-0.4-0.4-0.7-0.4-0.7c-1.1,0-2.5-0.4-3.6-0.4
					C527.8,413.7,527.5,413.7,527.5,414.4C526.8,414,527.1,414.4,527.5,414.4L527.5,414.4z"/>
				<path class="st116" d="M555.4,413c8-1.1,15.9-2.5,23.6-4.7c0.4,0,0.4-0.7,0-0.7c-8,2.2-15.6,3.6-23.6,4.7
					C554.7,412.6,555,413,555.4,413L555.4,413z"/>
				<path class="st116" d="M572.8,413.3c4.7-1.1,9.1-2.5,13.8-3.6c0.7-0.4,0.4-1.4-0.4-1.1c-4.3,1.4-9.1,2.5-13.8,3.6
					C572.1,412.2,572.1,413.3,572.8,413.3L572.8,413.3z"/>
				<path class="st116" d="M573.9,405c0.7,2.2,1.4,4.7,1.4,7.2c0,0.4,0.7,0.4,0.7,0c0-2.5-0.7-5.1-1.4-7.2
					C574.2,404.3,573.5,404.3,573.9,405L573.9,405z"/>
				<path class="st116" d="M576.1,402.1c1.1,4.3,1.4,9.1,1.8,13.8c0,0.4,0.7,0.4,0.7,0c0-4.7-0.7-9.4-1.8-13.8
					C576.8,401.4,576.1,401.7,576.1,402.1L576.1,402.1z"/>
				<path class="st116" d="M585.8,397.4c0.7-0.4,1.8-0.7,2.5-1.1c0.4,0,0.4-0.4,0.4-0.7s-0.4-0.4-0.7-0.4c-0.7,0.4-1.8,0.7-2.5,1.1
					c-0.4,0-0.4,0.4-0.4,0.7S585.5,397.4,585.8,397.4L585.8,397.4z"/>
				<path class="st116" d="M585.1,399.5c1.1-0.7,2.2-1.1,3.3-1.8c0.4,0,0.4-0.4,0.4-0.7s-0.4-0.4-0.7-0.4c-1.1,0.7-2.2,1.1-3.3,1.8
					c-0.4,0-0.4,0.4-0.4,0.7S584.8,399.5,585.1,399.5L585.1,399.5z"/>
				<path class="st116" d="M574.2,392.7c4.3-1.4,8.7-2.9,13-4.7c0.4,0,0-0.7-0.4-0.7c-4.3,1.8-8.7,3.6-13,4.7
					C573.9,392.3,573.9,393,574.2,392.7L574.2,392.7z"/>
				<path class="st116" d="M582.9,391.9c2.2-0.7,4-1.4,6.2-2.5c0.4,0,0.4-0.4,0.4-0.7s-0.4-0.4-0.7-0.4c-2.2,0.7-4,1.4-6.2,2.5
					c-0.4,0-0.4,0.4-0.4,0.7C582.2,391.9,582.6,391.9,582.9,391.9L582.9,391.9z"/>
				<path class="st116" d="M584.4,384.3c0.7,2.2,1.4,4,1.8,6.2c0,0.7,1.1,0.4,1.1-0.4c-0.4-2.2-1.1-4.3-1.8-6.5
					c0-0.4-0.4-0.4-0.7-0.4C584.4,383.6,584.4,384,584.4,384.3L584.4,384.3z"/>
				<path class="st116" d="M588.7,381.4c0.7,2.5,1.4,5.4,2.2,8.3c0,0.7,1.1,0.4,1.1-0.4c-0.7-2.9-1.1-5.4-2.2-8.3
					C589.5,380.7,588.4,380.7,588.7,381.4L588.7,381.4z"/>
				<path class="st116" d="M594.9,385.8c0,0.7,0.4,1.1,0.4,1.8c0,0.4,0.4,0.4,0.7,0.4c0.4,0,0.4-0.4,0.4-0.7v-0.4l0,0
					c0-0.4-0.4-0.7-0.4-1.1c0,0,0-0.4-0.4-0.4L594.9,385.8C595.3,385.4,594.9,385.4,594.9,385.8
					C594.9,385.4,594.9,385.4,594.9,385.8C594.5,385.4,594.5,385.8,594.9,385.8L594.9,385.8z"/>
				<path class="st116" d="M593.5,386.9c0.4,1.1,0.4,2.5,0.4,4c0,0.4,0.4,0.7,0.4,0.7c0.4,0,0.7-0.4,0.7-0.4c0-1.4,0-2.9-0.4-4
					C594.5,386.9,594.2,386.9,593.5,386.9C593.5,386.5,593.5,386.9,593.5,386.9L593.5,386.9z"/>
				<path class="st116" d="M594.2,394.1c1.4-0.4,2.9-0.7,4-1.4c0.4,0,0.4-0.4,0.4-0.7c0-0.4-0.4-0.4-0.7-0.4
					c-1.1,0.7-2.5,1.1-3.6,1.4C593.8,393,593.8,393.4,594.2,394.1C593.5,393.7,593.8,394.1,594.2,394.1L594.2,394.1z"/>
				<path class="st116" d="M595.3,391.2c0,0.4,0,0.4,0,0.7v0.4l0,0l0,0c0,0.4,0,0.7,0,1.4c0,0.4,0.4,0.7,0.4,0.7
					c0.4,0,0.7-0.4,0.7-0.4c0-1.1,0-1.8-0.4-2.9c0-0.4-0.4-0.4-0.7-0.4C595.6,390.5,595.3,390.8,595.3,391.2L595.3,391.2z"/>
				<path class="st116" d="M532.9,406.8c0.4,1.4,0.7,2.9,1.4,4.3c0,0.4,0.4,0.4,0.7,0.4s0.4-0.4,0.4-0.7c-0.7-1.4-1.1-2.5-1.1-4
					C533.6,406.1,532.6,406.1,532.9,406.8L532.9,406.8z"/>
				<path class="st116" d="M535.5,406.8c0.4,1.4,1.1,2.9,1.4,4.3c0,0.4,0.4,0.4,0.7,0.4s0.4-0.4,0.4-0.7c-0.4-1.4-1.1-2.9-1.4-4.3
					c0-0.4-0.4-0.4-0.7-0.4C535.8,406.1,535.5,406.4,535.5,406.8L535.5,406.8z"/>
				<path class="st116" d="M535.1,409.3c2.2,0,4.3,0,6.5-0.4c0.7,0,0.4-1.1-0.4-1.1c-2.2,0.4-4.3,0.4-6.2,0.4
					C534.4,408.2,534.4,409.3,535.1,409.3L535.1,409.3z"/>
				<path class="st116" d="M534.7,403.9c2.2,0,4.3-0.4,6.5-0.7c0.7,0,0.4-1.4-0.4-1.1c-2.2,0.4-4,0.7-6.2,0.7
					C534,402.8,534,403.9,534.7,403.9L534.7,403.9z"/>
				<path class="st116" d="M519.5,418c1.5,0,2.5,0,4,0c0.4,0,0.7-0.4,0.7-0.4c0-0.4-0.4-0.7-0.4-0.7c-1.4,0-2.5,0-4,0
					c-0.4,0-0.7,0.4-0.7,0.4C519.1,418,519.1,418,519.5,418L519.5,418z"/>
				<path class="st116" d="M524.9,420.6c0.4,0,1.1,0,1.4,0s0.7-0.4,0.7-0.4c0-0.4-0.4-0.7-0.4-0.7c-0.4,0-1.1,0-1.4,0
					s-0.7,0.4-0.7,0.4C524.2,420.2,524.6,420.6,524.9,420.6L524.9,420.6z"/>
				<path class="st116" d="M595.6,407.9c1.8-0.7,3.6-1.4,5.1-2.5c0.4,0,0.4-0.4,0.4-0.7s-0.4-0.4-0.7-0.4c-1.4,1.1-3.3,1.8-5.1,2.5
					c-0.4,0-0.4,0.4-0.4,0.7S595.3,407.9,595.6,407.9L595.6,407.9z"/>
				<path class="st116" d="M569.5,383.2c0.4,1.1,0.7,1.8,0.7,2.9c0,0.4,0.4,0.4,0.7,0.4c0.4,0,0.4-0.4,0.4-0.7
					c0-1.1-0.4-1.8-0.7-2.9c0,0,0-0.4-0.4-0.4h-0.4C569.5,382.9,569.5,383.2,569.5,383.2L569.5,383.2z"/>
				<path class="st116" d="M571,383.6C571,383.6,571,384,571,383.6L571,383.6c0.4,0.7,0.4,1.1,0.7,1.1l0,0c0,0.4,0,0.4,0,0.7
					c0,0.4,0.4,0.7,0.4,0.7c0.4,0,0.7-0.4,0.7-0.4c0-0.7,0-1.4-0.4-2.2c0-0.4-0.4-0.4-0.7-0.4C571,382.9,571,383.2,571,383.6
					L571,383.6z"/>
				<path class="st116" d="M573.9,382.5C573.9,382.9,573.9,382.9,573.9,382.5C573.9,382.9,573.9,382.9,573.9,382.5
					C573.9,382.9,574.2,382.9,573.9,382.5c0.4,0.4,0.4,0.4,0.7,0.4c0,0,0,0,0.4,0l0,0c0,0,0,0,0.4-0.4l0,0v-0.4l0,0c0,0,0,0,0-0.4
					l0,0c0,0,0,0-0.4,0c0,0,0,0-0.4,0l0,0C574.6,381.8,574.6,381.8,573.9,382.5C573.9,382.1,573.9,382.5,573.9,382.5L573.9,382.5
					L573.9,382.5z"/>
				<path class="st116" d="M605,359.3L605,359.3C605,359.7,605,360,605,359.3c0,0.4,0,0.4,0,0.7s0,0.4,0,0.7c0,0,0,0.4,0,0
					c0,0,0,0,0,0.4v0.4v0.4l0,0l0,0l0,0c0,0.4,0,0.7,0,0.7c0.4,0,0.7,0,0.7,0c0.7-1.1,0.7-2.2,0.4-3.3c0-0.4-0.4-0.4-0.7-0.4
					C605,358.6,604.7,358.9,605,359.3L605,359.3z"/>
				<path class="st116" d="M602.5,362.2c0,1.4-0.4,2.9-0.7,4c0,0.4,0,0.7,0.4,0.7s0.7,0,0.7-0.4c0.7-1.4,0.7-2.9,1.1-4.3
					c0-0.4-0.4-0.7-0.4-0.7C602.5,361.8,602.5,361.8,602.5,362.2L602.5,362.2z"/>
				<path class="st116" d="M600,364c0,0.7,0,1.1,0,1.8c0,0,0,0.4,0,0c0,0,0,0,0,0.4v0.4c0,0.4,0,0.4-0.4,0.7c0,0.4,0,0.7,0.4,0.7
					s0.7,0,0.7-0.4c0.4-1.1,0.7-2.2,0.7-3.3c0-0.4-0.4-0.7-0.4-0.7C600.3,363.7,600,363.7,600,364L600,364z"/>
				<path class="st116" d="M596.7,367.3c0,0.4,0,0.4,0,0.7c0,0,0,0,0,0.4l0,0l0,0v0.4c0,0.4,0,0.4-0.4,0.7l0,0l0,0l0,0
					c0,0,0,0.4-0.4,0.4c0,0.4,0,0.7,0,0.7c0.4,0,0.7,0,0.7,0c0.7-1.1,1.1-2.2,1.1-3.3c0-0.4-0.4-0.7-0.4-0.7
					C597.1,366.6,596.7,366.9,596.7,367.3L596.7,367.3z"/>
				<path class="st116" d="M593.1,369.5c0,1.1-0.4,1.8-0.7,2.5v0.4h0.4C593.5,371.6,593.5,370.5,593.1,369.5
					C593.8,369.5,593.5,369.1,593.1,369.5C593.1,369.1,593.1,369.5,593.1,369.5L593.1,369.5z"/>
				<path class="st116" d="M589.8,371.6c-0.4,1.1-0.7,1.8-1.1,2.9v0.4h0.4c0.7-0.7,1.1-1.8,1.4-2.9
					C590.6,372,590.6,371.6,589.8,371.6C590.2,371.3,589.8,371.3,589.8,371.6L589.8,371.6z"/>
				<path class="st116" d="M582.6,374.9L582.6,374.9C582.6,375.3,582.6,375.3,582.6,374.9L582.6,374.9L582.6,374.9
					c0,0.7,0,0.7,0,1.1s0,0.4-0.4,0.7l0,0l0,0l0,0v0.4c0,0.4,0,0.7,0,0.7c0.4,0,0.7,0,0.7,0c0.4-0.7,0.7-1.8,1.1-2.9
					c0-0.4-0.4-0.7-0.4-0.7C582.9,374.2,582.6,374.5,582.6,374.9L582.6,374.9z"/>
				<path class="st116" d="M563,380.7C563,381.1,563,381.1,563,380.7C563,381.1,563,381.1,563,380.7c0,0.4,0,0.7-0.4,1.1l0,0
					c0,0,0,0.4-0.4,0.4v0.4c0,0,0,0.4,0.4,0.4s0.7,0,0.7,0c0.4-0.4,0.4-1.1,0.7-1.8c0-0.4-0.4-0.7-0.4-0.7
					C563.4,380.3,563,380.3,563,380.7L563,380.7z"/>
				<path class="st116" d="M560.8,381.4c-0.4,0.7-1.1,1.4-1.4,1.8c0,0.4,0,0.7,0,0.7c0.4,0,0.7,0,0.7,0c0.4-0.7,1.1-1.4,1.4-1.8
					c0-0.4,0-0.7,0-0.7C561.6,381.1,561.2,381.4,560.8,381.4L560.8,381.4z"/>
				<path class="st116" d="M546.7,394.1c-4.3,1.1-9.1,1.4-13.4,1.4c0,0.4-0.4,0.7-0.4,0.7c4.7,0,9.4-0.7,14.1-1.4
					C547.4,394.8,547.4,394.1,546.7,394.1z"/>
				<path class="st116" d="M531.8,401.7c-0.7,0-1.8,0-2.5,0c-0.4,0.4-0.7,0.7-1.1,1.1c1.1,0,2.5,0,3.6-0.4
					C532.6,402.4,532.6,401.7,531.8,401.7z"/>
				<path class="st116" d="M520.6,405c-0.4,0-0.7,0-1.1,0c0.7,2.9,1.4,5.4,2.5,8.3c0.4,0.4,1.1,0.4,0.7-0.4
					C522,410.4,521.3,407.5,520.6,405z"/>
				<path class="st116" d="M525.7,404.3C525.3,404.3,525.3,404.3,525.7,404.3c-2.2,0.7-5.1,1.1-8.7,0.7c-0.4,0-1.1,0-1.4-0.4
					c0,0.4,0,0.4,0.4,0.7c3.3,0.4,6.5,0.4,9.4,0C526.4,405.3,526.4,404.3,525.7,404.3z"/>
				<path class="st116" d="M518.1,405c-0.4,0-0.7,0-1.1,0c0.4,0.7,0.4,1.4,0.7,2.2c0,0.4,0.4,0.4,0.7,0.4s0.4-0.4,0.4-0.7
					C518.4,406.1,518.4,405.7,518.1,405z"/>
			</g>
			<g>
				<linearGradient id="SVGID_5_" gradientUnits="userSpaceOnUse" x1="534.9453" y1="360.5752" x2="605.7646" y2="360.5752">
					<stop  offset="0" style="stop-color:#E7AB5E"/>
					<stop  offset="7.103980e-03" style="stop-color:#E7AB5E"/>
					<stop  offset="1" style="stop-color:#ECAB8C"/>
				</linearGradient>
				<path class="st15" d="M604.3,349.5c-4.7-6.5-6.5-6.5-10.5-9.1c-4.3-2.5-19.2-3.6-22.8-4c-1.4,0-4.7,0.4-9.1,1.4
					c1.1,8.7-0.7,21.4-16.7,32.3c-2.5,1.8-4.3,3.3-5.1,3.6c-1.4,2.9-4.3,6.2-5.1,7.2v0.4c0,1.1,0,2.2,0,3.3
					c12.7-0.7,38.8-3.6,56.5-15.6C591.6,369.5,611.2,359.3,604.3,349.5z"/>
			</g>
			<linearGradient id="SVGID_6_" gradientUnits="userSpaceOnUse" x1="534.7271" y1="371.4499" x2="607.4915" y2="371.4499">
				<stop  offset="0" style="stop-color:#BE8C40"/>
				<stop  offset="1" style="stop-color:#D7B661"/>
			</linearGradient>
			<path class="st16" d="M606.5,355c-1.4,9.8-21.7,21.7-48.6,27.5c-8,1.8-15.9,2.9-22.8,3.3c0,0.7,0,1.4-0.4,2.2
				c4.7-0.4,9.8-1.1,15.9-2.2c2.5-0.4,5.1-0.7,7.6-1.4l0,0l0,0c2.9-0.7,5.8-1.4,8.7-2.2c29.4-8,38.1-16.7,40.6-22.8
				C607.2,358.9,606.9,357.5,606.5,355z"/>
			<path class="st120" d="M550.7,411.5c-12-2.5-15.9-10.9-17-17c-0.7,2.9-2.5,6.9-6.2,8.7l0,0c-1.8,1.1-5.1,2.2-10.5,1.4
				c-5.4-0.4-8.3-2.5-10.1-4.7h-0.4c1.4,6.5,3.3,12.7,8.7,18.1c6.2,6.2,14.5,8.7,23.6,8c0.4,0,25-2.9,55.5-12.3
				c4.7-1.4,9.1-4,12.3-7.6C590.6,412.6,569.9,415.5,550.7,411.5z"/>
			<g class="st93">
				
					<linearGradient id="SVGID_7_" gradientUnits="userSpaceOnUse" x1="559.8647" y1="-64.6262" x2="573.8778" y2="-64.6262" gradientTransform="matrix(0.9769 -0.2137 0.2137 0.9769 55.0668 540.0567)">
					<stop  offset="0" style="stop-color:#E7AB5E"/>
					<stop  offset="7.103980e-03" style="stop-color:#E7AB5E"/>
					<stop  offset="1" style="stop-color:#ECAB8C"/>
				</linearGradient>
				<path class="st17" d="M596.7,342.3c-1.4,3.3-3.6,8.3-5.1,13.4c-1.1,4.7-1.1,10.1-0.7,14.1c0.4,0,0.4-0.4,0.7-0.4
					c0,0,1.1-0.7,2.9-1.8c0-3.3,0-7.2,0.7-11.2c1.1-4.3,2.9-9.1,4.3-12.3C598.9,343.7,597.8,343,596.7,342.3z"/>
				
					<linearGradient id="SVGID_8_" gradientUnits="userSpaceOnUse" x1="529.1859" y1="-67.2268" x2="555.0952" y2="-67.2268" gradientTransform="matrix(0.9769 -0.2137 0.2137 0.9769 55.0668 540.0567)">
					<stop  offset="0" style="stop-color:#E7AB5E"/>
					<stop  offset="7.103980e-03" style="stop-color:#E7AB5E"/>
					<stop  offset="1" style="stop-color:#ECAB8C"/>
				</linearGradient>
				<path class="st23" d="M565.5,379.6L565.5,379.6c0,0-0.4-6.5,0-12.7c0.4-3.3,1.1-5.4,2.2-8c0.7-1.4,1.8-3.6,2.2-5.8
					c1.1-4,6.2-12.3,8.7-15.9c-1.4,0-2.9-0.4-4-0.4c-2.5,4.3-6.9,11.6-8,15.6c-0.7,2.2-1.4,3.6-2.2,5.4c-1.1,2.5-2.2,5.1-2.5,9.1
					c-0.4,6.2,0,12.3,0,12.7v1.4c1.1-0.4,2.5-0.7,3.6-0.7V379.6z"/>
				
					<linearGradient id="SVGID_9_" gradientUnits="userSpaceOnUse" x1="548.4732" y1="-65.661" x2="566.76" y2="-65.661" gradientTransform="matrix(0.9769 -0.2137 0.2137 0.9769 55.0668 540.0567)">
					<stop  offset="0" style="stop-color:#E7AB5E"/>
					<stop  offset="7.103980e-03" style="stop-color:#E7AB5E"/>
					<stop  offset="1" style="stop-color:#ECAB8C"/>
				</linearGradient>
				<path class="st24" d="M583.7,373.1c0-0.7,0-1.4-0.4-2.2c0-1.8,0.7-5.4,1.5-9.4c0.4-1.8,0.7-3.6,1.1-5.4
					c0.7-4.3,3.6-11.6,5.4-16.3c-1.1-0.4-2.2-0.7-3.6-0.7c-1.8,4.7-4.7,12-5.4,16.3c-0.4,1.8-0.7,3.6-1.1,5.4
					c-0.7,4.7-1.5,8.3-1.5,10.5c0,0.7,0,1.4,0.4,2.2c0,0.7,0,1.1,0.4,1.8c1.1-0.4,2.2-1.1,3.6-1.4C584,373.4,584,373.1,583.7,373.1z
					"/>
				<g>
					<linearGradient id="SVGID_10_" gradientUnits="userSpaceOnUse" x1="561.2467" y1="340.4571" x2="565.8511" y2="340.4571">
						<stop  offset="0" style="stop-color:#E7AB5E"/>
						<stop  offset="7.103980e-03" style="stop-color:#E7AB5E"/>
						<stop  offset="1" style="stop-color:#ECAB8C"/>
					</linearGradient>
					<path class="st26" d="M565.9,337.2c-1.1,0.4-2.9,0.7-4.7,1.1c0.4,1.8,0.7,3.6,0.7,5.4C563.4,341.2,564.8,339,565.9,337.2z"/>
					<linearGradient id="SVGID_11_" gradientUnits="userSpaceOnUse" x1="544.6436" y1="375.0748" x2="551.3033" y2="375.0748">
						<stop  offset="0" style="stop-color:#E7AB5E"/>
						<stop  offset="7.103980e-03" style="stop-color:#E7AB5E"/>
						<stop  offset="1" style="stop-color:#ECAB8C"/>
					</linearGradient>
					<path class="st27" d="M546,369.8c-0.7,4.3-1.1,9.8-1.4,14.5c1.1,0,2.5-0.4,3.6-0.4c0.4-6.5,1.1-14.1,2.2-16.7
						c0.4-0.4,0.4-1.1,0.7-1.4C549.6,366.9,548.1,368.4,546,369.8z"/>
				</g>
			</g>
			<path class="st120" d="M506.8,338.3c1.1-2.2,2.2-4,3.6-5.8c0.4-1.8,1.1-3.6,1.4-4.7c-1.4,1.8-2.9,3.6-4.3,5.4
				c-2.9,4.7-5.1,9.8-6.5,15.6C502.8,344.8,504.6,341.5,506.8,338.3z"/>
			<linearGradient id="SVGID_12_" gradientUnits="userSpaceOnUse" x1="500.8568" y1="332.7471" x2="608.1534" y2="332.7471">
				<stop  offset="0" style="stop-color:#BE8C40"/>
				<stop  offset="1" style="stop-color:#D7B661"/>
			</linearGradient>
			<path class="st28" d="M607.9,353.9l-0.4-2.5c0,0-3.3-13-12.7-24.6c-12.7-15.2-30.1-20.7-51.8-15.9l-0.7,0.4
				c-2.2,0.4-4.3,1.1-6.2,1.4c-12.7,4-22.5,11.2-28.6,20.7c-2.9,4.7-5.1,9.8-6.5,15.6c1.8-4,4-7.6,5.8-10.5
				c5.4-11.2,15.9-22.1,35.9-26.5l0.7-0.4c14.9-3.3,27.9-1.4,38.8,5.8c11.2,7.2,17.8,18.5,22.1,27.5v0.4c2.2,4.7,3.3,8.7,4,11.2
				C608.3,355.7,608.3,354.6,607.9,353.9z"/>
			<g>
				<path class="st127" d="M613,373.8c-0.4-1.1-0.4-1.8-0.7-2.9l-2.9-13.4c0,0,0,0,0-0.4c0.4-1.4,0-2.5,0-3.6L609,351
					c0,0-3.3-13.4-13-25.4c-9.1-10.9-25.7-22.5-53.3-16.7l-0.7,0.7c-2.2,0.4-4.3,1.1-6.2,1.8c-13,4-23.2,11.2-29.4,21.4
					c-3.6,5.8-6.2,12.3-7.2,19.6c0.4,0,0.4,0,0.7,0c0.4-1.1,1.1-2.2,1.4-3.3c1.4-5.8,3.6-10.9,6.5-15.6c6.2-9.8,15.9-17,28.6-20.7
					c1.8-0.7,4-1.1,6.2-1.4l0.7-0.4c21.4-4.7,39.1,0.7,51.8,15.9c9.4,11.6,12.7,24.6,12.7,24.6l0.4,2.5c0,0.7,0,1.4,0,2.5
					c-0.7-2.5-1.8-6.5-4-11.2v-0.4c-4-9.1-10.9-20.3-22.1-27.5c-10.9-7.2-23.9-9.1-38.8-5.8l-0.7,0.4c-19.9,4.3-30.4,15.2-35.9,26.5
					c7.6-12,14.9-16.7,18.1-18.5c5.1-3.3,10.9-5.4,17.8-6.9l0.7-0.4c14.5-3.3,27.2-1.4,37.7,5.4c10.1,6.5,16.7,16.3,20.7,25
					c-1.1-0.7-2.2-1.1-3.6-1.4c-1.4-0.7-2.9-1.1-4.7-1.4c2.5,1.4,4.3,2.2,6.2,3.6c1.1,0.4,2.2,1.1,2.9,1.8c0.4,1.1,0.7,1.8,1.1,2.9
					c-0.4-0.4-0.7-0.7-1.1-0.7c0.4,0.7,0.7,1.1,1.1,1.8l-0.7,0.7c0.7,0.7,1.1,1.8,1.4,2.5c1.8,8.3-16.7,21.7-47.5,28.6
					c-8.3,1.8-15.9,2.9-22.5,3.3c0,0.4,0,0.7,0,1.4c7.2-0.4,14.9-1.4,22.8-3.3c26.5-5.8,47.1-17.8,48.6-27.5c0.7,2.2,1.1,4,1.1,4.3
					c-1.8,5.4-10.9,14.1-39.9,22.1c-2.9,0.7-5.8,1.4-8.7,2.2l0,0l0,0c-2.5,0.7-5.1,1.1-7.6,1.4c-5.8,1.1-11.2,1.8-15.9,2.2
					c0,0.4,0,1.1,0,1.4c4.7-0.4,10.1-1.1,16.3-2.2c2.5-0.4,5.1-0.7,7.6-1.4l0,0h0.4c2.9-0.7,5.8-1.4,8.7-2.2
					c28.3-7.6,38.1-16.7,41-22.8l2.2,10.5c0.4,1.1,0.4,2.2,0.7,2.9c1.8,7.6,3.3,14.9,0.4,22.8c-3.3,8.3-9.8,14.1-18.1,17
					c-30.4,9.4-55.5,12-55.5,12.3c-9.1,1.1-17.4-1.8-23.6-8c-5.4-5.1-7.2-11.2-8.7-18.1c-0.7,0-1.1,0.4-1.8,0.4
					c1.4,6.9,3.3,13.4,9.1,18.8c6.5,6.2,15.6,9.4,25,8.3c0,0,11.2-1.1,27.9-4.7c8.3-1.8,17.8-4.3,28.3-7.2
					c8.7-2.9,15.9-9.4,19.2-18.1C616.6,389,614.8,381.8,613,373.8z"/>
			</g>
			<linearGradient id="SVGID_13_" gradientUnits="userSpaceOnUse" x1="534.9453" y1="373.806" x2="592.9249" y2="373.806">
				<stop  offset="0" style="stop-color:#E7AB5E"/>
				<stop  offset="7.103980e-03" style="stop-color:#E7AB5E"/>
				<stop  offset="1" style="stop-color:#ECAB8C"/>
			</linearGradient>
			<path style="opacity:0.5;fill:url(#SVGID_13_);enable-background:new    ;" d="M593.1,368.7l-1.1-1.1c0,0-3.3,1.1-12.3,0.4
				c-8.7-0.7-19.2-3.6-19.2-3.6s-2.9-1.1-6.5-1.8c-2.2,2.5-5.4,5.4-9.1,8c-2.5,1.8-4.3,3.3-5.1,3.6c-1.5,2.9-4.3,6.2-5.1,7.2v0.4
				c0,1.1,0,2.2,0,3.3c12.7-0.7,38.8-3.6,56.5-15.6C591.6,369.5,592,369.1,593.1,368.7z"/>
			<path class="st130" d="M603.6,347.3L603.6,347.3L603.6,347.3c-3.3-3.6-4.7-4.7-7.2-6.2c-0.7-0.4-1.4-0.7-2.5-1.4
				c-4-2.5-16.3-3.6-21.7-4c-0.7,0-1.1,0-1.4,0c-1.4,0-5.4,0.4-10.1,1.4c0,0.7,0.4,1.1,0.4,1.8c4.7-1.1,8.3-1.4,9.4-1.4
				c0.4,0,0.7,0,1.4,0c4.7,0.4,17.4,1.4,21,3.6c1.1,0.7,1.8,1.1,2.5,1.4c2.5,1.4,4.3,2.5,7.6,6.9c0.4,0.4,2.5,4,2.5,4.7
				C605.8,354.6,606.1,352.8,603.6,347.3z"/>
		</g>
	</g>
</g>
</svg>
