<?xml version="1.0" encoding="utf-8"?>
<!-- Generator: Adobe Illustrator 21.0.0, SVG Export Plug-In . SVG Version: 6.00 Build 0)  -->
<svg version="1.1" id="圖層_1" xmlns="http://www.w3.org/2000/svg" xmlns:xlink="http://www.w3.org/1999/xlink" x="0px" y="0px"
	 viewBox="0 0 72 27.7" style="enable-background:new 0 0 72 27.7;" xml:space="preserve">
<style type="text/css">
	.st0{opacity:0.61;fill:#A6DDEA;}
	.st1{fill:#FFFFFF;}
	.st2{fill:none;}
	.st3{font-family:'MicrosoftJhengHeiBold';}
	.st4{font-size:14px;}
</style>
<path class="st0" d="M67.2,26.7H4.8C2.7,26.7,1,25,1,22.9V4.8C1,2.7,2.7,1,4.8,1h62.3C69.3,1,71,2.7,71,4.8v18.1
	C71,25,69.3,26.7,67.2,26.7z"/>
<g>
	<path class="st1" d="M67.2,1C69.3,1,71,2.7,71,4.8v18.1c0,2.1-1.7,3.8-3.8,3.8H4.8C2.7,26.7,1,25,1,22.9V4.8C1,2.7,2.7,1,4.8,1
		H67.2 M67.2,0H4.8C2.2,0,0,2.2,0,4.8v18.1c0,2.7,2.2,4.8,4.8,4.8h62.3c2.7,0,4.8-2.2,4.8-4.8V4.8C72,2.2,69.8,0,67.2,0L67.2,0z"/>
</g>
<rect x="10.6" y="6.6" class="st2" width="50.8" height="18.4"/>
<text transform="matrix(1 0 0 1 23.1895 19.1078)" class="st1 st3 st4">Boy</text>
</svg>
