<?xml version="1.0" encoding="utf-8"?>
<!-- Generator: Adobe Illustrator 21.0.0, SVG Export Plug-In . SVG Version: 6.00 Build 0)  -->
<svg version="1.1" id="圖層_1" xmlns="http://www.w3.org/2000/svg" xmlns:xlink="http://www.w3.org/1999/xlink" x="0px" y="0px"
	 viewBox="0 0 47.7 46.2" style="enable-background:new 0 0 47.7 46.2;" xml:space="preserve">
<style type="text/css">
	.st0{opacity:0.76;fill:url(#SVGID_1_);}
	.st1{opacity:0.76;fill:url(#SVGID_2_);}
	.st2{display:none;opacity:0.76;}
	.st3{fill:url(#SVGID_3_);}
	.st4{opacity:0.55;fill:url(#SVGID_4_);}
	.st5{opacity:0.36;fill:url(#SVGID_5_);}
	.st6{opacity:0.73;fill:url(#SVGID_6_);}
	.st7{opacity:0.9;}
	.st8{opacity:0.9;fill:url(#SVGID_7_);}
	.st9{fill:url(#SVGID_8_);}
	.st10{fill:url(#SVGID_9_);}
	.st11{opacity:0.17;fill:url(#SVGID_10_);}
	.st12{fill:url(#SVGID_11_);}
	.st13{opacity:0.76;fill:url(#SVGID_12_);}
	.st14{opacity:0.76;fill:url(#SVGID_13_);}
	.st15{fill:url(#SVGID_14_);}
	.st16{opacity:0.55;fill:url(#SVGID_15_);}
	.st17{opacity:0.36;fill:url(#SVGID_16_);}
	.st18{opacity:0.73;fill:url(#SVGID_17_);}
	.st19{opacity:0.9;fill:url(#SVGID_18_);}
	.st20{fill:url(#SVGID_19_);}
	.st21{fill:url(#SVGID_20_);}
	.st22{opacity:0.17;fill:url(#SVGID_21_);}
	.st23{fill:url(#SVGID_22_);}
	.st24{fill:url(#SVGID_23_);}
	.st25{opacity:0.76;fill:url(#SVGID_24_);}
	.st26{opacity:0.76;fill:url(#SVGID_25_);}
	.st27{fill:url(#SVGID_26_);}
	.st28{opacity:0.55;fill:url(#SVGID_27_);}
	.st29{opacity:0.36;fill:url(#SVGID_28_);}
	.st30{opacity:0.73;fill:url(#SVGID_29_);}
	.st31{opacity:0.9;fill:url(#SVGID_30_);}
	.st32{fill:url(#SVGID_31_);}
	.st33{fill:url(#SVGID_32_);}
	.st34{opacity:0.17;fill:url(#SVGID_33_);}
	.st35{fill:url(#SVGID_34_);}
	.st36{fill:url(#SVGID_35_);}
	.st37{fill:url(#SVGID_36_);}
	.st38{opacity:0.76;fill:url(#SVGID_37_);}
	.st39{opacity:0.76;fill:url(#SVGID_38_);}
	.st40{fill:url(#SVGID_39_);}
	.st41{opacity:0.55;fill:url(#SVGID_40_);}
	.st42{opacity:0.36;fill:url(#SVGID_41_);}
	.st43{opacity:0.73;fill:url(#SVGID_42_);}
	.st44{opacity:0.9;fill:url(#SVGID_43_);}
	.st45{fill:url(#SVGID_44_);}
	.st46{fill:url(#SVGID_45_);}
	.st47{opacity:0.17;fill:url(#SVGID_46_);}
	.st48{fill:url(#SVGID_47_);}
	.st49{fill:url(#SVGID_48_);}
</style>
<g id="設定">
	<g>
		
			<radialGradient id="SVGID_1_" cx="22.387" cy="22.3791" r="31.4189" gradientTransform="matrix(1 -1.400000e-03 1.400000e-03 1 2.363857e-02 0.6296)" gradientUnits="userSpaceOnUse">
			<stop  offset="0.5568" style="stop-color:#FFFFFF;stop-opacity:0"/>
			<stop  offset="1" style="stop-color:#FFFFFF"/>
		</radialGradient>
		<circle class="st0" cx="23.1" cy="23.1" r="23.1"/>
		
			<radialGradient id="SVGID_2_" cx="22.387" cy="22.3791" r="31.4189" gradientTransform="matrix(1 -1.400000e-03 1.400000e-03 1 2.363857e-02 0.6296)" gradientUnits="userSpaceOnUse">
			<stop  offset="0.5568" style="stop-color:#FFFFFF;stop-opacity:0"/>
			<stop  offset="1" style="stop-color:#FFFFFF"/>
		</radialGradient>
		<circle class="st1" cx="23.1" cy="23.1" r="23.1"/>
		<g>
			<g class="st2">
				
					<image style="display:inline;overflow:visible;" width="493" height="495" xlink:href="F696C478.png"  transform="matrix(0.24 -3.340000e-04 3.340000e-04 0.24 -36.1167 -36.1097)">
				</image>
			</g>
		</g>
		
			<radialGradient id="SVGID_3_" cx="11.1115" cy="31.5693" r="42.7557" gradientTransform="matrix(1 -1.400000e-03 1.400000e-03 1 2.363857e-02 0.6296)" gradientUnits="userSpaceOnUse">
			<stop  offset="0.5568" style="stop-color:#FFFFFF;stop-opacity:0"/>
			<stop  offset="0.9649" style="stop-color:#FFFFFF;stop-opacity:0.96"/>
			<stop  offset="1" style="stop-color:#BAE3F9"/>
		</radialGradient>
		<circle class="st3" cx="23.1" cy="23.1" r="23.1"/>
		
			<radialGradient id="SVGID_4_" cx="41.9448" cy="5.736" r="51.5074" gradientTransform="matrix(1 -1.400000e-03 1.400000e-03 1 2.363857e-02 0.6296)" gradientUnits="userSpaceOnUse">
			<stop  offset="0.5568" style="stop-color:#00A0E9;stop-opacity:0"/>
			<stop  offset="1" style="stop-color:#BAE3F9"/>
		</radialGradient>
		<circle class="st4" cx="23.1" cy="23.1" r="23.1"/>
		
			<radialGradient id="SVGID_5_" cx="48.5906" cy="42.5276" r="63.4315" gradientTransform="matrix(1 -1.400000e-03 1.400000e-03 1 2.363857e-02 0.6296)" gradientUnits="userSpaceOnUse">
			<stop  offset="0.5568" style="stop-color:#00A0E9;stop-opacity:0"/>
			<stop  offset="1" style="stop-color:#9557A0"/>
		</radialGradient>
		<circle class="st5" cx="23.1" cy="23.1" r="23.1"/>
		
			<radialGradient id="SVGID_6_" cx="6.7574" cy="9.6943" r="47.1746" gradientTransform="matrix(1 -1.400000e-03 1.400000e-03 1 2.363857e-02 0.6296)" gradientUnits="userSpaceOnUse">
			<stop  offset="0.5568" style="stop-color:#00A0E9;stop-opacity:0"/>
			<stop  offset="1" style="stop-color:#9557A0"/>
		</radialGradient>
		<circle class="st6" cx="23.1" cy="23.1" r="23.1"/>
		<g>
			<g>
				<g class="st7">
					
						<image style="overflow:visible;" width="451" height="451" xlink:href="F696C479.png"  transform="matrix(0.24 -3.340000e-04 3.340000e-04 0.24 -31.0697 -31.0767)">
					</image>
				</g>
			</g>
			
				<radialGradient id="SVGID_7_" cx="29.5282" cy="36.736" r="52.7185" gradientTransform="matrix(1 -1.400000e-03 1.400000e-03 1 2.363857e-02 0.6296)" gradientUnits="userSpaceOnUse">
				<stop  offset="0" style="stop-color:#78CAE3"/>
				<stop  offset="1" style="stop-color:#80CDE9"/>
			</radialGradient>
			<circle class="st8" cx="23.1" cy="23.1" r="18"/>
			
				<radialGradient id="SVGID_8_" cx="12.0907" cy="31.236" r="34.6522" gradientTransform="matrix(1 -1.400000e-03 1.400000e-03 1 2.363857e-02 0.6296)" gradientUnits="userSpaceOnUse">
				<stop  offset="0.3351" style="stop-color:#009FBE;stop-opacity:0"/>
				<stop  offset="1" style="stop-color:#CAE8EF"/>
			</radialGradient>
			<circle class="st9" cx="23.1" cy="23.1" r="18"/>
			
				<radialGradient id="SVGID_9_" cx="22.5282" cy="22.4026" r="24.5" gradientTransform="matrix(1 -1.400000e-03 1.400000e-03 1 2.363857e-02 0.6296)" gradientUnits="userSpaceOnUse">
				<stop  offset="0.4703" style="stop-color:#A3D9E7;stop-opacity:0"/>
				<stop  offset="1" style="stop-color:#CFEAF2"/>
			</radialGradient>
			<circle class="st10" cx="23.1" cy="23.1" r="18"/>
			
				<radialGradient id="SVGID_10_" cx="32.7574" cy="21.0277" r="26.0341" gradientTransform="matrix(1 -1.400000e-03 1.400000e-03 1 2.363857e-02 0.6296)" gradientUnits="userSpaceOnUse">
				<stop  offset="0" style="stop-color:#006BB1"/>
				<stop  offset="1" style="stop-color:#00A0E4"/>
			</radialGradient>
			<circle class="st11" cx="23.1" cy="23.1" r="18"/>
			<g>
				<g class="st7">
					
						<image style="overflow:visible;" width="451" height="451" xlink:href="F696C47F.png"  transform="matrix(0.24 -3.340000e-04 3.340000e-04 0.24 -31.0697 -31.0767)">
					</image>
				</g>
			</g>
		</g>
	</g>
	<g>
		
			<radialGradient id="SVGID_11_" cx="41.7157" cy="40.3609" r="26.9586" gradientTransform="matrix(1 -1.400000e-03 1.400000e-03 1 2.363857e-02 0.6296)" gradientUnits="userSpaceOnUse">
			<stop  offset="0" style="stop-color:#00A0E9"/>
			<stop  offset="1" style="stop-color:#172A88"/>
		</radialGradient>
		<path class="st12" d="M13.1,24.7c0-0.5,0-1,0-1.5c0.1-0.5,0.5-0.7,1-0.7c0.5-0.1,1.1-0.2,1.6-0.3c0.1,0,0.1,0,0.2-0.1
			c0.2-0.7,0.4-1.3,0.8-1.9c0-0.1,0-0.1,0-0.2c-0.3-0.5-0.7-1-1-1.4c-0.3-0.4-0.3-0.9,0.1-1.2c0.2-0.2,0.5-0.5,0.7-0.7
			c0.4-0.4,0.8-0.4,1.2-0.1c0.5,0.3,1,0.7,1.4,1c0.1,0.1,0.1,0.1,0.2,0c0.1-0.1,0.3-0.2,0.4-0.2c0.5-0.2,1-0.4,1.4-0.5
			c0.1,0,0.1-0.1,0.2-0.2c0.1-0.6,0.2-1.3,0.3-1.9c0-0.3,0.2-0.5,0.5-0.6c0.1,0,0.1-0.1,0.2-0.1c0.5,0,1,0,1.5,0
			c0.3,0.1,0.6,0.3,0.7,0.7c0.1,0.6,0.2,1.2,0.3,1.8c0,0.1,0.1,0.2,0.2,0.3c0.1,0,0.2,0,0.3,0.1c0.7,0.2,1.3,0.5,1.9,0.9
			c0.1,0.1,0.2,0.1,0.3,0c0.2-0.1,0.4-0.3,0.6-0.4c0.3-0.2,0.7-0.4,1-0.6c0.3-0.2,0.7-0.1,0.9,0.2c0.3,0.3,0.6,0.6,0.8,0.9
			c0.3,0.4,0.3,0.9,0,1.3c-0.4,0.5-0.7,0.9-1.1,1.4c0,0,0,0.1,0,0.2c0.2,0.5,0.4,1,0.6,1.5c0,0.1,0.1,0.1,0.1,0.1
			c0.5,0.1,1.1,0.2,1.6,0.3c0.2,0,0.5,0,0.6,0.2c0.1,0.1,0.2,0.3,0.3,0.5c0,0.5,0,1,0,1.5c-0.1,0.4-0.3,0.6-0.7,0.7
			c-0.6,0.1-1.2,0.2-1.8,0.3c-0.1,0-0.1,0.1-0.2,0.2c-0.2,0.6-0.4,1.2-0.7,1.8c-0.1,0.1-0.1,0.2,0,0.3c0.4,0.5,0.7,1,1.1,1.5
			c0.2,0.3,0.2,0.8-0.1,1.1c-0.3,0.3-0.6,0.6-0.8,0.8c-0.3,0.3-0.7,0.3-1.1,0.1c-0.5-0.3-1-0.7-1.5-1.1c-0.1-0.1-0.2-0.1-0.4,0
			c-0.5,0.3-1.1,0.5-1.7,0.7c-0.2,0-0.2,0.1-0.2,0.3c-0.1,0.6-0.2,1.2-0.3,1.8c-0.1,0.4-0.3,0.6-0.6,0.7c0,0,0,0-0.1,0
			c-0.5,0-1,0-1.5,0c0,0,0,0-0.1,0c-0.3-0.1-0.5-0.3-0.6-0.7c-0.1-0.6-0.2-1.2-0.3-1.9c0-0.1-0.1-0.2-0.2-0.2
			c-0.8-0.2-1.5-0.5-2.2-1c-0.1-0.1-0.1,0-0.2,0c-0.5,0.3-1.1,0.7-1.6,1c-0.4,0.2-0.8,0.2-1.1-0.2c-0.2-0.3-0.5-0.5-0.7-0.8
			c-0.3-0.4-0.3-0.8,0-1.2c0.4-0.5,0.7-0.9,1.1-1.4c0.1-0.1,0.1-0.2,0-0.3c-0.2-0.5-0.4-1-0.6-1.5c0-0.1-0.1-0.1-0.2-0.1
			c-0.5-0.1-1.1-0.2-1.6-0.3c-0.2,0-0.4-0.1-0.6-0.2C13.3,25.1,13.2,24.9,13.1,24.7z M26.8,23.9c0-2.1-1.7-3.7-3.7-3.7
			c-2.1,0-3.7,1.7-3.7,3.7c0,2.1,1.7,3.7,3.7,3.7C25.2,27.6,26.9,25.9,26.8,23.9z"/>
	</g>
</g>
</svg>
