<?xml version="1.0" encoding="utf-8"?>
<!-- Generator: Adobe Illustrator 21.0.0, SVG Export Plug-In . SVG Version: 6.00 Build 0)  -->
<svg version="1.1" id="圖層_1" xmlns="http://www.w3.org/2000/svg" xmlns:xlink="http://www.w3.org/1999/xlink" x="0px" y="0px"
	 viewBox="0 0 46.2 46.2" style="enable-background:new 0 0 46.2 46.2;" xml:space="preserve">
<style type="text/css">
	.st0{opacity:0.76;fill:url(#SVGID_1_);}
	.st1{opacity:0.76;fill:url(#SVGID_2_);}
	.st2{display:none;opacity:0.76;}
	.st3{fill:url(#SVGID_3_);}
	.st4{opacity:0.55;fill:url(#SVGID_4_);}
	.st5{opacity:0.36;fill:url(#SVGID_5_);}
	.st6{opacity:0.73;fill:url(#SVGID_6_);}
	.st7{opacity:0.9;}
	.st8{opacity:0.9;fill:url(#SVGID_7_);}
	.st9{fill:url(#SVGID_8_);}
	.st10{fill:url(#SVGID_9_);}
	.st11{opacity:0.17;fill:url(#SVGID_10_);}
	.st12{fill:url(#SVGID_11_);}
	.st13{opacity:0.76;fill:url(#SVGID_12_);}
	.st14{opacity:0.76;fill:url(#SVGID_13_);}
	.st15{fill:url(#SVGID_14_);}
	.st16{opacity:0.55;fill:url(#SVGID_15_);}
	.st17{opacity:0.36;fill:url(#SVGID_16_);}
	.st18{opacity:0.73;fill:url(#SVGID_17_);}
	.st19{opacity:0.9;fill:url(#SVGID_18_);}
	.st20{fill:url(#SVGID_19_);}
	.st21{fill:url(#SVGID_20_);}
	.st22{opacity:0.17;fill:url(#SVGID_21_);}
	.st23{fill:url(#SVGID_22_);}
	.st24{fill:url(#SVGID_23_);}
	.st25{opacity:0.76;fill:url(#SVGID_24_);}
	.st26{opacity:0.76;fill:url(#SVGID_25_);}
	.st27{fill:url(#SVGID_26_);}
	.st28{opacity:0.55;fill:url(#SVGID_27_);}
	.st29{opacity:0.36;fill:url(#SVGID_28_);}
	.st30{opacity:0.73;fill:url(#SVGID_29_);}
	.st31{opacity:0.9;fill:url(#SVGID_30_);}
	.st32{fill:url(#SVGID_31_);}
	.st33{fill:url(#SVGID_32_);}
	.st34{opacity:0.17;fill:url(#SVGID_33_);}
	.st35{fill:url(#SVGID_34_);}
	.st36{fill:url(#SVGID_35_);}
	.st37{fill:url(#SVGID_36_);}
	.st38{opacity:0.76;fill:url(#SVGID_37_);}
	.st39{opacity:0.76;fill:url(#SVGID_38_);}
	.st40{fill:url(#SVGID_39_);}
	.st41{opacity:0.55;fill:url(#SVGID_40_);}
	.st42{opacity:0.36;fill:url(#SVGID_41_);}
	.st43{opacity:0.73;fill:url(#SVGID_42_);}
	.st44{opacity:0.9;fill:url(#SVGID_43_);}
	.st45{fill:url(#SVGID_44_);}
	.st46{fill:url(#SVGID_45_);}
	.st47{opacity:0.17;fill:url(#SVGID_46_);}
	.st48{fill:url(#SVGID_47_);}
	.st49{fill:url(#SVGID_48_);}
</style>
<g id="信件訊息_x27_">
	<g>
		<radialGradient id="SVGID_1_" cx="22.4421" cy="22.9764" r="31.4189" gradientUnits="userSpaceOnUse">
			<stop  offset="0.5568" style="stop-color:#FFFFFF;stop-opacity:0"/>
			<stop  offset="1" style="stop-color:#FFFFFF"/>
		</radialGradient>
		<circle class="st0" cx="23.1" cy="23.1" r="23.1"/>
		<radialGradient id="SVGID_2_" cx="22.4421" cy="22.9764" r="31.4189" gradientUnits="userSpaceOnUse">
			<stop  offset="0.5568" style="stop-color:#FFFFFF;stop-opacity:0"/>
			<stop  offset="1" style="stop-color:#FFFFFF"/>
		</radialGradient>
		<circle class="st1" cx="23.1" cy="23.1" r="23.1"/>
		<g>
			<g class="st2">
				
					<image style="display:inline;overflow:visible;" width="493" height="493" xlink:href="B0A518C3.png"  transform="matrix(0.24 0 0 0.24 -36.0342 -36.1476)">
				</image>
			</g>
		</g>
		<radialGradient id="SVGID_3_" cx="11.1666" cy="32.1666" r="42.7557" gradientUnits="userSpaceOnUse">
			<stop  offset="0.5568" style="stop-color:#FFFFFF;stop-opacity:0"/>
			<stop  offset="0.9649" style="stop-color:#FFFFFF;stop-opacity:0.96"/>
			<stop  offset="1" style="stop-color:#BAE3F9"/>
		</radialGradient>
		<circle class="st3" cx="23.1" cy="23.1" r="23.1"/>
		<radialGradient id="SVGID_4_" cx="41.9999" cy="6.3333" r="51.5074" gradientUnits="userSpaceOnUse">
			<stop  offset="0.5568" style="stop-color:#00A0E9;stop-opacity:0"/>
			<stop  offset="1" style="stop-color:#BAE3F9"/>
		</radialGradient>
		<circle class="st4" cx="23.1" cy="23.1" r="23.1"/>
		<radialGradient id="SVGID_5_" cx="48.6457" cy="43.125" r="63.4315" gradientUnits="userSpaceOnUse">
			<stop  offset="0.5568" style="stop-color:#00A0E9;stop-opacity:0"/>
			<stop  offset="1" style="stop-color:#9557A0"/>
		</radialGradient>
		<circle class="st5" cx="23.1" cy="23.1" r="23.1"/>
		<radialGradient id="SVGID_6_" cx="6.8125" cy="10.2916" r="47.1746" gradientUnits="userSpaceOnUse">
			<stop  offset="0.5568" style="stop-color:#00A0E9;stop-opacity:0"/>
			<stop  offset="1" style="stop-color:#9557A0"/>
		</radialGradient>
		<circle class="st6" cx="23.1" cy="23.1" r="23.1"/>
		<g>
			<g>
				<g class="st7">
					
						<image style="overflow:visible;" width="451" height="451" xlink:href="B0A518C1.png"  transform="matrix(0.24 0 0 0.24 -30.9942 -31.1076)">
					</image>
				</g>
			</g>
			<radialGradient id="SVGID_7_" cx="29.5833" cy="37.3333" r="52.7185" gradientUnits="userSpaceOnUse">
				<stop  offset="0" style="stop-color:#78CAE3"/>
				<stop  offset="1" style="stop-color:#80CDE9"/>
			</radialGradient>
			<circle class="st8" cx="23.1" cy="23.1" r="18"/>
			<radialGradient id="SVGID_8_" cx="12.1458" cy="31.8333" r="34.6522" gradientUnits="userSpaceOnUse">
				<stop  offset="0.3351" style="stop-color:#009FBE;stop-opacity:0"/>
				<stop  offset="1" style="stop-color:#CAE8EF"/>
			</radialGradient>
			<circle class="st9" cx="23.1" cy="23.1" r="18"/>
			<radialGradient id="SVGID_9_" cx="22.5833" cy="23" r="24.5" gradientUnits="userSpaceOnUse">
				<stop  offset="0.4703" style="stop-color:#A3D9E7;stop-opacity:0"/>
				<stop  offset="1" style="stop-color:#CFEAF2"/>
			</radialGradient>
			<circle class="st10" cx="23.1" cy="23.1" r="18"/>
			<radialGradient id="SVGID_10_" cx="32.8125" cy="21.625" r="26.0341" gradientUnits="userSpaceOnUse">
				<stop  offset="0" style="stop-color:#006BB1"/>
				<stop  offset="1" style="stop-color:#00A0E4"/>
			</radialGradient>
			<circle class="st11" cx="23.1" cy="23.1" r="18"/>
			<g>
				<g class="st7">
					
						<image style="overflow:visible;" width="451" height="451" xlink:href="B0A518C7.png"  transform="matrix(0.24 0 0 0.24 -30.9942 -31.1076)">
					</image>
				</g>
			</g>
		</g>
	</g>
	<g>
		<radialGradient id="SVGID_11_" cx="16.1458" cy="38.2361" r="23.0536" gradientUnits="userSpaceOnUse">
			<stop  offset="0" style="stop-color:#00A0E9"/>
			<stop  offset="1" style="stop-color:#172A88"/>
		</radialGradient>
		<path class="st12" d="M13.3,29.5c0-3.6,0-7.2,0-10.8c0,0,0.1,0.1,0.1,0.1c2.9,2.9,5.8,5.8,8.7,8.7c0.2,0.2,0.5,0.5,0.7,0.7
			c0.2,0.2,0.4,0.2,0.5,0c1.6-1.6,3.1-3.1,4.7-4.7c1.6-1.6,3.2-3.2,4.8-4.8c0,0,0.1,0,0.1-0.1c0,3.6,0,7.2,0,10.8
			C26.4,29.5,19.8,29.5,13.3,29.5z"/>
		<radialGradient id="SVGID_12_" cx="16.1458" cy="38.2361" r="23.0537" gradientUnits="userSpaceOnUse">
			<stop  offset="0" style="stop-color:#00A0E9"/>
			<stop  offset="1" style="stop-color:#172A88"/>
		</radialGradient>
		<path style="fill:url(#SVGID_12_);" d="M23.1,26.6c-3.1-3.1-6.2-6.2-9.3-9.3c6.2,0,12.4,0,18.6,0C29.3,20.4,26.2,23.5,23.1,26.6z"
			/>
	</g>
</g>
</svg>
