<?xml version="1.0" encoding="utf-8"?>
<!-- Generator: Adobe Illustrator 21.0.0, SVG Export Plug-In . SVG Version: 6.00 Build 0)  -->
<svg version="1.1" id="圖層_1" xmlns="http://www.w3.org/2000/svg" xmlns:xlink="http://www.w3.org/1999/xlink" x="0px" y="0px"
	 viewBox="0 0 822.9 601.4" style="enable-background:new 0 0 822.9 601.4;" xml:space="preserve">
<style type="text/css">
	.st0{fill:url(#SVGID_1_);}
	.st1{fill:#CE9245;}
	.st2{fill:#A66A22;}
	.st3{opacity:0.6;fill:#CE9245;enable-background:new    ;}
	.st4{fill:#AC6D21;}
	.st5{fill:url(#SVGID_2_);}
	.st6{fill:url(#SVGID_3_);}
	.st7{fill:url(#SVGID_4_);}
	.st8{fill:url(#SVGID_5_);}
	.st9{fill:url(#SVGID_6_);}
	.st10{opacity:0.6;fill:#D69644;enable-background:new    ;}
	.st11{fill:#070505;}
	.st12{fill:#22201E;}
	.st13{fill:url(#SVGID_7_);}
	.st14{fill:#DC827B;}
	.st15{fill:#9B2724;}
	.st16{fill:#8F2022;}
	.st17{fill:#C7812F;}
	.st18{fill:#DCB7A7;}
	.st19{fill:#FEF6F2;}
	.st20{fill:#E5BE51;}
	.st21{fill:#CF361C;}
	.st22{fill:#E9DED9;}
	.st23{fill:#FFFFFF;}
	.st24{fill:none;stroke:#DCB7A7;stroke-width:0.8656;stroke-linecap:round;stroke-miterlimit:10;}
	.st25{fill:#9E9E9E;}
	.st26{fill:#E2DFDE;}
	.st27{fill:none;stroke:#9B2724;stroke-width:0.5638;stroke-linecap:round;stroke-linejoin:round;stroke-miterlimit:10;}
	.st28{fill:url(#SVGID_8_);}
	.st29{fill:url(#SVGID_9_);}
	.st30{fill:#D69644;}
	.st31{fill:#D04B22;}
	.st32{fill:url(#SVGID_10_);}
	.st33{fill:url(#SVGID_11_);}
	.st34{fill:url(#SVGID_12_);}
	.st35{fill:url(#SVGID_13_);}
	.st36{fill:url(#SVGID_14_);}
	.st37{fill:url(#SVGID_15_);}
	.st38{fill:url(#SVGID_16_);}
	.st39{fill:#FBEEBA;}
	.st40{fill:#F3B699;}
	.st41{fill:#FCF0CA;}
	.st42{fill:none;stroke:#FCF0CA;stroke-width:0.5868;stroke-miterlimit:10;}
	.st43{fill:url(#SVGID_17_);}
	.st44{fill:url(#SVGID_18_);}
	.st45{fill:url(#SVGID_19_);}
	.st46{fill:#EEE9E5;}
	.st47{fill:#323130;}
	.st48{fill:#181717;}
	.st49{fill:#A4A09F;}
	.st50{fill:#546B7F;}
	.st51{fill:#92A2AD;}
	.st52{opacity:0.6;fill:#A4A09F;enable-background:new    ;}
	.st53{fill:none;stroke:#A4A09F;stroke-width:0.6175;stroke-linecap:round;stroke-miterlimit:10;}
	.st54{fill:#7B8C9F;}
	.st55{fill:#C1E0F6;}
	.st56{fill:url(#SVGID_20_);}
	.st57{opacity:0.6;}
	.st58{fill:#E2BF40;}
	.st59{fill:url(#SVGID_21_);}
	.st60{fill:url(#SVGID_22_);}
</style>
<g>
	<g>
		<g>
			<path class="st46" d="M304.4,259.2l4.7,47.1l0,0c0,0.8,0,2.4,1.2,3.5c0.4,0.4,0.8,0.4,1.6,0.4c3.5,0,100.1-10.2,101.3-10.6
				c0,0,1.6,0,2.7-1.2c0.8-0.8,0.8-2,0.8-3.5l-5.1-47.5l-7.5-5.9l-93,9.8L304.4,259.2z"/>
			<polygon class="st23" points="308.7,258.4 305.2,270.1 310.7,269.4 313.8,258 			"/>
			<path class="st47" d="M304.8,270.5l108.7-11.4l3.1,33c0,0-2.7,3.9-13.7,4.3l-87.9,9c0,0-6.3,0-7.1-2.7l-3.5-32.6"/>
			<path class="st48" d="M413.2,259.6l-108.3,11.4c-0.4,0-0.4,0-0.4-0.4s0-0.4,0.4-0.4l108.3-11.4
				C413.6,258.8,413.6,258.8,413.2,259.6C413.6,259.6,413.6,259.6,413.2,259.6z"/>
			<path class="st48" d="M411.6,296.1l-98.9,10.2c-2.4,0.4-4.7-2.7-4.7-2.7c0-0.4,0-0.4,0-0.8c0.4,0,0.4,0,0.8,0
				c0.8,0.8,2.4,2.4,3.9,2.4l98.9-10.2c1.6-0.4,4.7-2,4.7-3.9c0-0.4,0-0.4,0.4-0.4c0.4,0,0.4,0,0.4,0.4
				C417.5,294.1,412,296.1,411.6,296.1L411.6,296.1z"/>
			<path class="st49" d="M309.1,307.8c0,0-0.4,1.6,4.7,1.2c5.1-0.4,35.7-13.3,35.7-13.3l7.9,11l-45.5,4.7
				C312.3,311,309.5,311,309.1,307.8z"/>
			<path class="st49" d="M411.6,247l-7.9-5.9h-0.4l-1.2,3.9c0.4,0,0.8,0,1.2,0.4c1.6,1.2,3.1,2.4,3.1,2.4l1.2,0.8
				c0,0,0.4,1.2,0.8,3.5c0.4,2.4,0,20-7.1,31.4c-7.1,11.4-9.8,15.7-9.8,15.7l-4.3,3.9l25.9-2c0,0,3.9-1.2,2.7-9
				C415.1,283.9,411.6,247,411.6,247z"/>
			<path class="st49" d="M339.8,309c-14.9,1.6-26.7,2.7-27.9,2.7c-1.2,0-2-0.4-2.7-1.2c-1.6-1.6-1.6-3.9-1.6-4.3l-5.1-47.5
				c0-0.4,0-0.4,0-0.4l7.1-8.2l0.4-0.4l93.4-9.8c0.4,0,0.4,0,0.4,0l7.9,6.3l0.4,0.4l5.1,47.9c0,2,0,3.5-1.2,4.7
				c-1.6,1.6-3.5,2-3.5,2C410.4,301.6,368.8,306.3,339.8,309z M304.4,259.2l4.7,47.1l0,0c0,0.8,0,2.4,1.2,3.5
				c0.4,0.4,0.8,0.4,1.6,0.4c3.5,0,100.1-10.2,101.3-10.6c0,0,1.6,0,2.7-1.2c0.8-0.8,0.8-2,0.8-3.5l-5.1-47.5l-7.5-5.9l-93,9.8
				L304.4,259.2z M308.4,306.3L308.4,306.3L308.4,306.3z"/>
			<path class="st49" d="M409.2,248.6L306,259.2c-0.4,0-0.8-0.4-0.8-0.8s0.4-0.8,0.8-0.8L409.2,247c0.4,0,0.8,0.4,0.8,0.8
				S409.6,248.6,409.2,248.6z"/>
			<path class="st49" d="M397.5,260.7c-1.6,0-3.1-1.2-3.5-2.7c0-1.6,1.2-3.1,2.7-3.5c1.6,0,3.1,1.2,3.5,2.7
				C400.6,258.8,399.4,260.3,397.5,260.7z M397.1,256c-0.8,0-1.6,0.8-1.6,2c0,0.8,0.8,1.6,2,1.6c0.8,0,1.6-0.8,1.6-2
				C398.6,256.4,397.9,255.6,397.1,256z"/>
			<path class="st50" d="M369.6,271.7c-9.8,1.2-17.3,9.8-16.1,20c1.2,9.8,9.8,17.3,20,16.1c9.8-1.2,17.3-9.8,16.1-20
				S379.4,270.5,369.6,271.7z M373.1,305.9c-9,0.8-17.3-5.5-18.1-14.9c-0.8-9,5.5-17.3,14.9-18.1c9-0.8,17.3,5.5,18.1,14.9
				C388.8,296.8,382.2,305.1,373.1,305.9z"/>
			<path class="st47" d="M369.2,268.6c-11.4,1.2-20,11.4-18.8,23.2c1.2,11.4,11.4,20,23.2,18.8c11.4-1.2,20-11.4,18.8-23.2
				C391.2,276,381,267.4,369.2,268.6z M373.5,307.4c-9.8,1.2-18.8-6.3-20-16.1c-1.2-9.8,6.3-18.8,16.1-20c9.8-1.2,18.8,6.3,20,16.1
				C390.4,297.6,383.3,306.7,373.5,307.4z"/>
			
				<ellipse transform="matrix(0.9947 -0.1031 0.1031 0.9947 -27.8552 39.8485)" class="st51" cx="371.6" cy="289.4" rx="16.5" ry="16.5"/>
			<path class="st46" d="M352.3,257.6l31-3.1l4.3,15.7c-3.1-5.1-9-10.2-19.2-9c-10.6,1.2-14.9,7.5-16.9,13.3L352.3,257.6z"/>
			<path class="st47" d="M388.4,274.9c-4.7-5.5-11.8-8.2-19.2-7.5c-7.5,0.8-13.7,5.1-17.3,11c1.2-5.5,4.7-14.1,16.9-15.7
				C381,261.5,386.5,269.8,388.4,274.9z"/>
			<path class="st47" d="M395.9,286.6l-2,0.4c0-1.6-0.4-3.1-1.2-4.7l2.7-0.4L395.9,286.6z"/>
			<g>
				<path class="st48" d="M321.3,262.3L321.3,262.3c-0.4,0.4-0.8,0.4-0.4,0.8l0.4,2.4c0,0.8,0,0.8,0.8,0.8l0,0h-1.6l0,0
					c0.4,0,0.4,0,0.4-0.8l-0.4-2.7c-0.4,1.2-1.2,3.1-1.2,3.9l0,0c-0.4-0.4-1.2-2.4-2-3.5c0,2.4,0,2.7,0,3.1c0,0.4,0.4,0.4,0.8,0.4
					l0,0h-1.6l0,0c0.4,0,0.4,0,0.4-0.4c0-0.4,0-0.4,0-3.1c0-0.4,0-0.4-0.8-0.4l0,0h1.2l2,3.1l1.2-3.5L321.3,262.3 M321.3,261.9h-1.2
					c0,0,0,0-0.4,0l-1.2,2.7l-1.6-2.7c0,0,0,0-0.4,0h-1.2c0,0-0.4,0-0.4,0.4l0,0c0,0,0,0.4,0.4,0.4s0.4,0,0.4,0l0,0l0,0v1.6
					c0,0.8,0,1.2,0,1.2s0,0.4-0.4,0.4c0,0-0.4,0-0.4,0.4l0,0c0,0,0,0.4,0.4,0.4h1.6c0,0,0.4,0,0.4-0.4l0,0c0,0,0-0.4-0.4-0.4
					c-0.4,0-0.4,0-0.4,0s0-0.4,0-1.6c0.4,1.2,1.2,2,1.2,2.4c0,0,0,0,0.4,0l0,0h0.4c0-0.4,0.4-1.6,0.8-2.4l0,0v1.6v0.4H319
					c0,0-0.4,0-0.4,0.4l0,0c0,0,0,0.4,0.4,0.4h1.6c0,0,0.4,0,0.4-0.4l0,0c0,0,0-0.4-0.4-0.4h-0.4v-0.4l-0.4-2.4v-0.4c0,0,0,0,0.4,0
					c0,0,0.4,0,0.4-0.4L321.3,261.9C321.7,261.9,321.3,261.9,321.3,261.9L321.3,261.9z"/>
				<path class="st48" d="M324.1,261.9l0.4,3.5c0,0.4,0,0.4,0.8,0.4l0,0l-2,0.4l0,0c0.8,0,0.8,0,0.8-0.8l-0.4-2.4
					c0-0.4,0-0.4-0.4-0.4h-0.4l0,0C323.3,262.3,324.1,262.3,324.1,261.9 M324.1,261.5L324.1,261.5c-0.4,0-0.8,0.4-1.2,0.4
					c0,0-0.4,0,0,0.4l0,0c0,0,0,0.4,0.4,0.4h0.4l0,0l0,0l0.4,2.4v0.4h-0.4c0,0-0.4,0-0.4,0.4l0,0c0,0,0,0.4,0.4,0.4l2-0.4
					c0,0,0.4,0,0.4-0.4l0,0c0,0,0-0.4-0.4-0.4h-0.4c0,0,0,0,0-0.4L324.1,261.5C324.4,261.9,324.4,261.9,324.1,261.5
					C324.4,261.5,324.1,261.5,324.1,261.5L324.1,261.5z"/>
			</g>
			<g>
				<path class="st49" d="M387.6,270.1c-0.4-0.4-0.8-0.8-0.8-1.2L387.6,270.1z"/>
				<path class="st49" d="M351.5,274.5l0.8-16.9l31-3.1l4.3,15.7c0,0,2,3.5,4.3,9.4l-7.1-26.3c0-0.4-0.4-0.8-0.8-0.4l-32.2,3.5
					c-0.4,0-0.8,0.4-0.8,0.8l-1.6,27.5C349.6,284.3,350.7,278,351.5,274.5z"/>
			</g>
			<path class="st48" d="M392,280c-2-6.3-4.3-9.4-4.3-9.4l-0.8-1.2c-3.1-4.3-9-8.6-18.1-7.9c-10.6,1.2-14.9,7.5-16.9,13.3
				c-1.2,3.5-2,10.2-2,10.2v0.4c-0.4,2.4-0.8,4.7-0.4,7.1c1.2,12.2,12.2,21.2,24.7,20c11.8-1.2,20.8-11.8,20-23.6l3.1-0.4
				c0.4,0,0.8-0.4,0.8-0.8l-0.8-6.3c0-0.4-0.4-0.8-0.8-0.8l-3.9,0.4v-0.4L392,280z M368.8,262.7c12.2-1.2,17.7,7.1,19.6,12.2
				c-4.7-5.5-11.8-8.2-19.2-7.5s-13.7,5.1-17.3,11C353.1,272.5,356.6,263.9,368.8,262.7z M373.5,310.6c-11.4,1.2-22-7.1-23.2-18.8
				c-1.2-11.4,7.1-22,18.8-23.2c11.4-1.2,22,7.1,23.2,18.8C393.5,298.8,385.3,309.4,373.5,310.6z M395.5,281.9l0.4,4.7l-2,0.4
				c0-1.6-0.4-3.1-1.2-4.7L395.5,281.9z"/>
			<g>
				<polygon class="st46" points="382.5,247 373.1,235.6 359,237.2 351.9,250.1 352.7,258 354.7,258 354.7,258.8 381.4,256 
					381.4,255.2 383.3,254.8 				"/>
				<path class="st23" d="M355.5,258.4c0-1.6-0.4-5.1,0-7.1c0.4-2.4,3.5-5.1,3.5-5.1l4.3-9.8l-3.9,0.4l-7.1,13l0.8,7.9l2-0.4
					L355.5,258.4L355.5,258.4z"/>
				<path class="st52" d="M373.9,234.8l3.9,13c0,0,0.8,4.3-0.8,6.3c-1.2,2-1.6,2.7-1.6,2.7l9-0.8l-0.8-8.6L373.9,234.8z"/>
				<path class="st49" d="M384.5,257.2l-32.2,3.1c-0.4,0-0.8-0.4-0.8-1.2l-0.8-9.4c0-0.4,0-0.8,0-0.8l7.5-13.7
					c0-0.4,0.4-0.4,0.4-0.4l14.9-1.6c0.4,0,0.4,0,0.4,0.4l9.8,11.8c0,0.4,0.4,0.4,0.4,0.8l0.8,9.4
					C385.3,256.4,384.9,257.2,384.5,257.2z M352.7,258l30.6-3.1l-0.8-7.9l-9.4-11.4l-14.1,1.6l-7.1,13L352.7,258z"/>
				<g>
					<path class="st47" d="M358.2,249.7h0.8l0.4,5.5h-0.8L358.2,249.7z M359,254.4l3.1-0.4v0.8l-3.1,0.4V254.4z"/>
					<path class="st47" d="M364.9,254.4h-0.8l-0.4-5.5h0.8L364.9,254.4z"/>
					<path class="st47" d="M367.6,254.1c-0.4,0-0.4-0.4-0.8-0.8c0-0.4-0.4-0.8-0.4-1.2v-1.6c0-0.4,0-0.8,0-1.2s0.4-0.4,0.8-0.8
						c0.4,0,0.8-0.4,0.8-0.4c0.4,0,0.8,0,1.2,0c0.4,0,0.4,0.4,0.8,0.8c0,0.4,0.4,0.8,0.4,1.2v1.6c0,0.4,0,0.8,0,1.2
						s-0.4,0.4-0.8,0.8c-0.4,0-0.8,0.4-0.8,0.4C368.4,254.4,368,254.4,367.6,254.1z M369.2,253.3l0.4-0.4c0,0,0-0.4,0-0.8v-1.6
						c0-0.4,0-0.4-0.4-0.8l-0.4-0.4c0,0-0.4,0-0.8,0s-0.4,0-0.4,0.4l-0.4,0.4c0,0,0,0.4,0,0.8v1.6c0,0.4,0,0.4,0.4,0.8l0.4,0.4
						c0,0,0.4,0,0.8,0C368.8,253.7,368.8,253.3,369.2,253.3z"/>
					<path class="st47" d="M371.9,248.6h0.8l3.1,3.9l0,0l-0.4-4.3h0.8l0.4,5.5h-0.8l-3.1-3.9l0,0l0.4,4.3h-0.8L371.9,248.6z"/>
				</g>
				<polygon class="st47" points="359.4,237.6 355.9,246.6 352.3,250.5 				"/>
				<polygon class="st47" points="373.1,236.4 378.2,244.2 382.5,247.4 				"/>
				<line class="st53" x1="357" y1="246.6" x2="376.7" y2="244.6"/>
			</g>
			<g>
				<path class="st48" d="M335,242.3c-3.1,0.4-8.2,1.6-7.9,3.5v0.4c-1.2-0.4-2.4-0.4-3.5-0.4s-2.7,0.4-3.5,0.8
					c-0.4-1.6-3.5-2.4-6.3-2c-2.7,0.4-5.9,1.6-5.9,3.1l0.4,5.1c0,2,3.5,2.4,6.3,2c2-0.4,3.9-0.8,5.1-1.6c1.2,0.8,2.7,0.8,4.7,0.8
					c2-0.4,3.9-0.8,4.7-2c2,0.8,5.1,0.8,7.1,0.4c3.1-0.4,8.2-1.6,7.9-3.5l-0.8-5.9C343.3,241.9,338.2,241.9,335,242.3z M335,243.8
					c4.3-0.4,6.3,0.4,6.7,0.8c-0.4,0.4-2.4,1.6-6.7,2c-4.3,0.4-6.7-0.4-6.7-0.4l0,0C328.8,245.4,330.7,244.2,335,243.8z
					 M323.7,247.8c2-0.4,3.1,0,3.5,0.4c-0.4,0.4-1.6,0.8-3.5,1.2s-3.1,0-3.5-0.4C320.5,248.6,321.7,248.2,323.7,247.8z M313.8,247
					c2.7-0.4,4.3,0.4,4.7,0.8c0,0.4-1.6,1.2-4.3,1.6c-2.7,0.4-4.3-0.4-4.7-0.8l0,0C309.5,248.2,310.7,247,313.8,247z M314.6,254.4
					c-2.7,0.4-4.3-0.4-4.7-0.8l-0.4-3.1c1.2,0.4,2.7,0.4,4.7,0.4c1.6,0,3.1-0.8,4.3-1.2l0.4,3.1C319,252.9,317.4,254.1,314.6,254.4z
					 M320.5,252.9L320.5,252.9l-0.4-2.4c1.2,0.4,2.4,0.4,3.5,0.4s2.7-0.4,3.5-0.8v2v0.4c0,0.4-1.2,0.8-3.5,1.2
					C321.7,253.7,320.5,253.3,320.5,252.9z M335.8,252.1c-4.3,0.4-6.7-0.4-6.7-0.8l-0.4-3.5v-0.4c2,0.8,4.7,0.8,6.7,0.4
					c2-0.4,5.1-0.8,6.7-2l0.4,3.9C342.5,250.5,340.1,251.7,335.8,252.1z"/>
				<path class="st47" d="M335,243.8c4.3-0.4,6.3,0.4,6.7,0.8c-0.4,0.4-2.4,1.6-6.7,2c-4.3,0.4-6.7-0.4-6.7-0.4l0,0
					C328.8,245.4,330.7,244.2,335,243.8z"/>
				<path class="st47" d="M323.7,247.8c2-0.4,3.1,0,3.5,0.4c-0.4,0.4-1.6,0.8-3.5,1.2s-3.1,0-3.5-0.4
					C320.5,248.6,321.7,248.2,323.7,247.8z"/>
				<path class="st47" d="M313.8,247c2.7-0.4,4.3,0.4,4.7,0.8c0,0.4-1.6,1.2-4.3,1.6c-2.7,0.4-4.3-0.4-4.7-0.8l0,0
					C309.5,248.2,310.7,247,313.8,247z"/>
				<path class="st47" d="M314.6,254.4c-2.7,0.4-4.3-0.4-4.7-0.8l-0.4-3.1c1.2,0.4,2.7,0.4,4.7,0.4c1.6,0,3.1-0.8,4.3-1.2l0.4,3.1
					C319,252.9,317.4,254.1,314.6,254.4z"/>
				<path class="st47" d="M320.5,252.9L320.5,252.9l-0.4-2.4c1.2,0.4,2.4,0.4,3.5,0.4s2.7-0.4,3.5-0.8v2v0.4c0,0.4-1.2,0.8-3.5,1.2
					C321.7,253.7,320.5,253.3,320.5,252.9z"/>
				<path class="st47" d="M335.8,252.1c-4.3,0.4-6.7-0.4-6.7-0.8l-0.4-3.5v-0.4c2,0.8,4.7,0.8,6.7,0.4c2-0.4,5.1-0.8,6.7-2l0.4,3.9
					C342.5,250.5,340.1,251.7,335.8,252.1z"/>
				<path class="st49" d="M339.8,243.5c0,0,1.2,3.5-4.7,3.9l5.1-0.8c0,0,0.4,4.7-1.6,5.5c-2,0.8-6.7,0.8-6.7,0.8l-3.5-0.8l-1.2-4.7
					l-2.4-0.4c0,0,2,2.4-0.4,3.1l1.6,3.1l-2.7,0.8h-3.9l-0.4-5.5v-2l-2-1.2c0,0,0.4,3.5-2.7,4.3c0,0,2.7,0,3.1,4.3l-2.7,0.8
					c0,0,0.4,0.8,4.7,0.4c3.9-0.4,3.1,0.8,9.8-1.2c0,0,11.8,0.4,17.7-2.4c0,0,2.7-3.1-3.1-3.5l-0.8-3.9
					C342.5,244.2,341.3,243.1,339.8,243.5z"/>
			</g>
			<g>
				<path class="st48" d="M394.3,236c-3.1,0.4-8.2,1.6-7.9,3.5l0.4,5.1c0.4,2.4,5.5,2.4,8.6,2c3.1-0.4,8.2-1.6,7.9-3.5L403,238
					C402.6,236,397.5,235.6,394.3,236z M394.3,237.6c4.3-0.4,6.3,0.4,6.7,0.8c-0.4,0.4-2.4,1.6-6.7,2c-4.3,0.4-6.7-0.4-6.7-0.4l0,0
					C388,239.1,390,238,394.3,237.6z M395.1,245.4c-4.3,0.4-6.7-0.4-6.7-0.8l-0.4-3.1c2,0.8,4.7,0.8,6.7,0.4c2-0.4,5.1-0.8,6.7-2
					l0.4,3.1C401.8,243.5,399.4,244.6,395.1,245.4z"/>
				<path class="st47" d="M394.3,237.6c4.3-0.4,6.3,0.4,6.7,0.8c-0.4,0.4-2.4,1.6-6.7,2c-4.3,0.4-6.7-0.4-6.7-0.4l0,0
					C388,239.1,390,238,394.3,237.6z"/>
				<path class="st47" d="M395.1,245.4c-4.3,0.4-6.7-0.4-6.7-0.8l-0.4-3.1c2,0.8,4.7,0.8,6.7,0.4c2-0.4,5.1-0.8,6.7-2l0.4,3.1
					C401.8,243.5,399.4,244.6,395.1,245.4z"/>
				<path class="st49" d="M398.6,244.6l-2,0.4c0,0,3.5-0.8,5.5-0.4l0.8-3.5h-0.8c0,0,0.8-3.1-1.2-3.9c-2-0.8-2.7-0.8-2.7-0.8
					s2,1.2-1.6,2.7c-3.9,1.6-5.1,2.4-5.1,2.4h7.1V244.6z"/>
			</g>
			<path class="st49" d="M381,265.4c0.8,1.2,1.6,3.1,0.8,4.3c2.4,1.2,4.7,3.1,6.7,5.1C387.3,271.7,384.9,267.8,381,265.4z"/>
			<path class="st49" d="M382.5,271.7c0.8,1.6,2.4,3.9,3.5,7.1c2,2.7,3.1,5.5,3.5,9c1.2,9.8-6.3,18.8-16.1,20c-1.6,0-2.7,0-4.3,0
				c-2,0.8-3.9,1.2-5.9,1.2c3.1,1.6,6.7,2,10.6,1.6c11.4-1.2,20-11.4,18.8-23.2C391.6,280.7,388,275.3,382.5,271.7z"/>
			<path class="st54" d="M367.2,305.5c2,0.4,3.9,0.8,6.3,0.4c9-0.8,15.7-9,14.9-18.1c-0.4-4.3-2.7-8.2-5.9-11
				C382.5,277.6,391.6,303.1,367.2,305.5z"/>
			<path class="st55" d="M370,273.3c-9,0.8-15.7,9-14.9,18.1c0.8,5.9,4.3,10.6,9,13c-0.8-0.4-7.5-5.5-7.1-16.1
				C357.4,276.8,370,273.3,370,273.3z"/>
		</g>
		<linearGradient id="SVGID_1_" gradientUnits="userSpaceOnUse" x1="285.5747" y1="309.7836" x2="366.3354" y2="309.7836">
			<stop  offset="0" style="stop-color:#EFD980"/>
			<stop  offset="0.1557" style="stop-color:#EED779"/>
			<stop  offset="0.3797" style="stop-color:#EDD166"/>
			<stop  offset="0.6437" style="stop-color:#EBC844"/>
			<stop  offset="0.6947" style="stop-color:#EBC63C"/>
			<stop  offset="1" style="stop-color:#E7AE17"/>
		</linearGradient>
		<path class="st0" d="M353.9,367.5c3.5-14.5,7.9-27.1,12.6-38.1l-1.2-5.5l-10.6-9.4l-1.2,0.4l-2.4,3.1c-11.4-9.4-17.3-7.9-17.3-7.9
			c-0.4,0-0.8,0-0.8-0.4c0-0.4,0-0.8,0.4-0.8c0,0,0.4,0,1.2-0.4l0,0c5.1-9.4-3.5-17.3-3.5-17.3s4.3-7.5,2-13.7
			c-2.4-6.3-9.4-6.7-9.4-6.7l4.3-3.1c0,0,9-17.7-12.2-16.9c-21.2,0.8-25.1,23.6-25.1,23.6c-15.3,31.4,9.4,52.6,9.4,52.6
			c8.6,39.3,47.1,41.6,47.1,41.6L353.9,367.5L353.9,367.5z"/>
		<path class="st4" d="M356.2,320.4c-0.4-1.2-1.2-2-2-2.7l0,0l0,0l-0.4-0.4l-0.4-0.4l2-2.4l-3.5-2.7l-2,2l0,0
			c-6.3-4.7-13.7-7.5-13.7-7.5l-1.6,2.4c-0.8,0-1.2,0-1.2,0.4c-0.4,0-0.8,0.4-0.4,0.8c0,0.4,0.4,0.8,0.8,0.4c0,0,7.1-2,21.2,11.4
			l0.4,0.4c0.4,0,0.4,0,0.4-0.4C356.2,321.2,356.2,320.8,356.2,320.4z"/>
		<g class="st57">
			<path class="st58" d="M333.9,310.2c-0.4,0-0.8,0-0.8-0.4s0-0.8,0.4-0.8c0,0,0.4,0,1.2-0.4l0,0l0,0c5.1-9.4-3.5-17.3-3.5-17.3
				s4.3-7.5,2-13.7c-1.6-3.9-4.3-5.5-6.7-6.3l5.9,4.7c0,0,1.2,13.7-12.6,16.1l9.8-0.8l3.1,3.5c0,0,0.8,16.1-9.8,23.6
				c0,0,24.7-0.4,31.4,1.6C340.5,308.2,333.9,310.2,333.9,310.2z"/>
		</g>
		<path class="st4" d="M353.9,368.7L353.9,368.7c0-0.8-0.4-1.2-0.8-1.2c-44.4-1.2-51.4-40.8-51.8-41.2c0,0,0-0.4-0.4-0.4
			c-25.1-22.4-9-51-8.6-51.4v-0.4c0,0,0.8-15.7,17.3-20.8c6.7-2,12.2-1.6,15.3,1.2c2.7,2.4,3.5,6.3,3.1,8.6
			c-0.4,2.4-3.5,5.5-5.5,7.1c-6.7-0.4-14.1,2.4-14.1,2.4l0,0c-1.2,0.4-1.6,0.4-2,0.8c-0.4,0-0.8,0.8-0.4,1.2c0,0.4,0.8,0.8,1.2,0.4
			c0,0,16.1-5.9,21.2-0.4c3.1,3.5,4.3,8.2,3.5,12.2c-0.4,2-1.6,3.5-3.1,4.3c-6.3-1.6-13.3,1.6-13.3,1.6l0,0c-3.1,0.8-5.5,2-5.9,2
			s-0.4,0.8-0.4,1.2s0.8,0.4,1.2,0.4c0,0,17.7-7.9,21.6-0.4c2.4,4.3,2.7,9.4,0.8,13.3c-1.6,3.5-5.1,7.9-13.3,9.8c0-0.4,0,0.4,0,0.8
			s0.4,0.8,0.8,0.8l0,0c1.6-0.4,2.7-0.8,3.9-1.2l0,0c5.5-1.6,8.6-5.5,8.6-5.5c3.5-2.7,7.5-14.5,1.2-20c-0.8-0.4-1.2-1.2-2-1.6
			c5.1-4.7,4.3-13.7-2-19.2c-0.8-0.8-2-1.6-3.1-2c1.6-1.6,2.4-2.7,3.1-3.5l0,0V267l0,0c1.2-2,2-5.1,0.8-8.2
			c-1.2-3.5-3.9-5.5-6.3-6.7c-0.8-0.4-2-0.8-3.5-1.2c-0.4,0-0.8,0-0.8,0c-11-1.6-20.8,4.3-27.1,13c-0.8,0.4-1.2,1.2-1.6,2
			c-1.6,2.7-2.4,6.3-2.7,9.4c-3.5,7.1-13,31.8,10.2,52.2c0,0,9.4,44.4,54.2,43.2l2-2C355.1,368.3,354.7,368.7,353.9,368.7z"/>
	</g>
	<g>
		<g>
			<path class="st46" d="M304.4,259.2l4.7,47.1l0,0c0,0.8,0,2.4,1.2,3.5c0.4,0.4,0.8,0.4,1.6,0.4c3.5,0,100.1-10.2,101.3-10.6
				c0,0,1.6,0,2.7-1.2c0.8-0.8,0.8-2,0.8-3.5l-5.1-47.5l-7.5-5.9l-93,9.8L304.4,259.2z"/>
			<polygon class="st23" points="308.7,258.4 305.2,270.1 310.7,269.4 313.8,258 			"/>
			<path class="st47" d="M304.8,270.5l108.7-11.4l3.1,33c0,0-2.7,3.9-13.7,4.3l-87.9,9c0,0-6.3,0-7.1-2.7l-3.5-32.6"/>
			<path class="st48" d="M413.2,259.6l-108.3,11.4c-0.4,0-0.4,0-0.4-0.4s0-0.4,0.4-0.4l108.3-11.4
				C413.6,258.8,413.6,258.8,413.2,259.6C413.6,259.6,413.6,259.6,413.2,259.6z"/>
			<path class="st48" d="M411.6,296.1l-98.9,10.2c-2.4,0.4-4.7-2.7-4.7-2.7c0-0.4,0-0.4,0-0.8c0.4,0,0.4,0,0.8,0
				c0.8,0.8,2.4,2.4,3.9,2.4l98.9-10.2c1.6-0.4,4.7-2,4.7-3.9c0-0.4,0-0.4,0.4-0.4c0.4,0,0.4,0,0.4,0.4
				C417.5,294.1,412,296.1,411.6,296.1L411.6,296.1z"/>
			<path class="st49" d="M309.1,307.8c0,0-0.4,1.6,4.7,1.2c5.1-0.4,35.7-13.3,35.7-13.3l7.9,11l-45.5,4.7
				C312.3,311,309.5,311,309.1,307.8z"/>
			<path class="st49" d="M411.6,247l-7.9-5.9h-0.4l-1.2,3.9c0.4,0,0.8,0,1.2,0.4c1.6,1.2,3.1,2.4,3.1,2.4l1.2,0.8
				c0,0,0.4,1.2,0.8,3.5c0.4,2.4,0,20-7.1,31.4c-7.1,11.4-9.8,15.7-9.8,15.7l-4.3,3.9l25.9-2c0,0,3.9-1.2,2.7-9
				C415.1,283.9,411.6,247,411.6,247z"/>
			<path class="st49" d="M339.8,309c-14.9,1.6-26.7,2.7-27.9,2.7c-1.2,0-2-0.4-2.7-1.2c-1.6-1.6-1.6-3.9-1.6-4.3l-5.1-47.5
				c0-0.4,0-0.4,0-0.4l7.1-8.2l0.4-0.4l93.4-9.8c0.4,0,0.4,0,0.4,0l7.9,6.3l0.4,0.4l5.1,47.9c0,2,0,3.5-1.2,4.7
				c-1.6,1.6-3.5,2-3.5,2C410.4,301.6,368.8,306.3,339.8,309z M304.4,259.2l4.7,47.1l0,0c0,0.8,0,2.4,1.2,3.5
				c0.4,0.4,0.8,0.4,1.6,0.4c3.5,0,100.1-10.2,101.3-10.6c0,0,1.6,0,2.7-1.2c0.8-0.8,0.8-2,0.8-3.5l-5.1-47.5l-7.5-5.9l-93,9.8
				L304.4,259.2z M308.4,306.3L308.4,306.3L308.4,306.3z"/>
			<path class="st49" d="M409.2,248.6L306,259.2c-0.4,0-0.8-0.4-0.8-0.8s0.4-0.8,0.8-0.8L409.2,247c0.4,0,0.8,0.4,0.8,0.8
				S409.6,248.6,409.2,248.6z"/>
			<path class="st49" d="M397.5,260.7c-1.6,0-3.1-1.2-3.5-2.7c0-1.6,1.2-3.1,2.7-3.5c1.6,0,3.1,1.2,3.5,2.7
				C400.6,258.8,399.4,260.3,397.5,260.7z M397.1,256c-0.8,0-1.6,0.8-1.6,2c0,0.8,0.8,1.6,2,1.6c0.8,0,1.6-0.8,1.6-2
				C398.6,256.4,397.9,255.6,397.1,256z"/>
			<path class="st50" d="M369.6,271.7c-9.8,1.2-17.3,9.8-16.1,20c1.2,9.8,9.8,17.3,20,16.1c9.8-1.2,17.3-9.8,16.1-20
				S379.4,270.5,369.6,271.7z M373.1,305.9c-9,0.8-17.3-5.5-18.1-14.9c-0.8-9,5.5-17.3,14.9-18.1c9-0.8,17.3,5.5,18.1,14.9
				C388.8,296.8,382.2,305.1,373.1,305.9z"/>
			<path class="st47" d="M369.2,268.6c-11.4,1.2-20,11.4-18.8,23.2c1.2,11.4,11.4,20,23.2,18.8c11.4-1.2,20-11.4,18.8-23.2
				C391.2,276,381,267.4,369.2,268.6z M373.5,307.4c-9.8,1.2-18.8-6.3-20-16.1c-1.2-9.8,6.3-18.8,16.1-20c9.8-1.2,18.8,6.3,20,16.1
				C390.4,297.6,383.3,306.7,373.5,307.4z"/>
			
				<ellipse transform="matrix(0.9947 -0.1031 0.1031 0.9947 -27.8552 39.8485)" class="st51" cx="371.6" cy="289.4" rx="16.5" ry="16.5"/>
			<path class="st46" d="M352.3,257.6l31-3.1l4.3,15.7c-3.1-5.1-9-10.2-19.2-9c-10.6,1.2-14.9,7.5-16.9,13.3L352.3,257.6z"/>
			<path class="st47" d="M388.4,274.9c-4.7-5.5-11.8-8.2-19.2-7.5c-7.5,0.8-13.7,5.1-17.3,11c1.2-5.5,4.7-14.1,16.9-15.7
				C381,261.5,386.5,269.8,388.4,274.9z"/>
			<path class="st47" d="M395.9,286.6l-2,0.4c0-1.6-0.4-3.1-1.2-4.7l2.7-0.4L395.9,286.6z"/>
			<g>
				<path class="st48" d="M321.3,262.3L321.3,262.3c-0.4,0.4-0.8,0.4-0.4,0.8l0.4,2.4c0,0.8,0,0.8,0.8,0.8l0,0h-1.6l0,0
					c0.4,0,0.4,0,0.4-0.8l-0.4-2.7c-0.4,1.2-1.2,3.1-1.2,3.9l0,0c-0.4-0.4-1.2-2.4-2-3.5c0,2.4,0,2.7,0,3.1c0,0.4,0.4,0.4,0.8,0.4
					l0,0h-1.6l0,0c0.4,0,0.4,0,0.4-0.4c0-0.4,0-0.4,0-3.1c0-0.4,0-0.4-0.8-0.4l0,0h1.2l2,3.1l1.2-3.5L321.3,262.3 M321.3,261.9h-1.2
					c0,0,0,0-0.4,0l-1.2,2.7l-1.6-2.7c0,0,0,0-0.4,0h-1.2c0,0-0.4,0-0.4,0.4l0,0c0,0,0,0.4,0.4,0.4s0.4,0,0.4,0l0,0l0,0v1.6
					c0,0.8,0,1.2,0,1.2s0,0.4-0.4,0.4c0,0-0.4,0-0.4,0.4l0,0c0,0,0,0.4,0.4,0.4h1.6c0,0,0.4,0,0.4-0.4l0,0c0,0,0-0.4-0.4-0.4
					c-0.4,0-0.4,0-0.4,0s0-0.4,0-1.6c0.4,1.2,1.2,2,1.2,2.4c0,0,0,0,0.4,0l0,0h0.4c0-0.4,0.4-1.6,0.8-2.4l0,0v1.6v0.4H319
					c0,0-0.4,0-0.4,0.4l0,0c0,0,0,0.4,0.4,0.4h1.6c0,0,0.4,0,0.4-0.4l0,0c0,0,0-0.4-0.4-0.4h-0.4v-0.4l-0.4-2.4v-0.4c0,0,0,0,0.4,0
					c0,0,0.4,0,0.4-0.4L321.3,261.9C321.7,261.9,321.3,261.9,321.3,261.9L321.3,261.9z"/>
				<path class="st48" d="M324.1,261.9l0.4,3.5c0,0.4,0,0.4,0.8,0.4l0,0l-2,0.4l0,0c0.8,0,0.8,0,0.8-0.8l-0.4-2.4
					c0-0.4,0-0.4-0.4-0.4h-0.4l0,0C323.3,262.3,324.1,262.3,324.1,261.9 M324.1,261.5L324.1,261.5c-0.4,0-0.8,0.4-1.2,0.4
					c0,0-0.4,0,0,0.4l0,0c0,0,0,0.4,0.4,0.4h0.4l0,0l0,0l0.4,2.4v0.4h-0.4c0,0-0.4,0-0.4,0.4l0,0c0,0,0,0.4,0.4,0.4l2-0.4
					c0,0,0.4,0,0.4-0.4l0,0c0,0,0-0.4-0.4-0.4h-0.4c0,0,0,0,0-0.4L324.1,261.5C324.4,261.9,324.4,261.9,324.1,261.5
					C324.4,261.5,324.1,261.5,324.1,261.5L324.1,261.5z"/>
			</g>
			<g>
				<path class="st49" d="M387.6,270.1c-0.4-0.4-0.8-0.8-0.8-1.2L387.6,270.1z"/>
				<path class="st49" d="M351.5,274.5l0.8-16.9l31-3.1l4.3,15.7c0,0,2,3.5,4.3,9.4l-7.1-26.3c0-0.4-0.4-0.8-0.8-0.4l-32.2,3.5
					c-0.4,0-0.8,0.4-0.8,0.8l-1.6,27.5C349.6,284.3,350.7,278,351.5,274.5z"/>
			</g>
			<path class="st48" d="M392,280c-2-6.3-4.3-9.4-4.3-9.4l-0.8-1.2c-3.1-4.3-9-8.6-18.1-7.9c-10.6,1.2-14.9,7.5-16.9,13.3
				c-1.2,3.5-2,10.2-2,10.2v0.4c-0.4,2.4-0.8,4.7-0.4,7.1c1.2,12.2,12.2,21.2,24.7,20c11.8-1.2,20.8-11.8,20-23.6l3.1-0.4
				c0.4,0,0.8-0.4,0.8-0.8l-0.8-6.3c0-0.4-0.4-0.8-0.8-0.8l-3.9,0.4v-0.4L392,280z M368.8,262.7c12.2-1.2,17.7,7.1,19.6,12.2
				c-4.7-5.5-11.8-8.2-19.2-7.5s-13.7,5.1-17.3,11C353.1,272.5,356.6,263.9,368.8,262.7z M373.5,310.6c-11.4,1.2-22-7.1-23.2-18.8
				c-1.2-11.4,7.1-22,18.8-23.2c11.4-1.2,22,7.1,23.2,18.8C393.5,298.8,385.3,309.4,373.5,310.6z M395.5,281.9l0.4,4.7l-2,0.4
				c0-1.6-0.4-3.1-1.2-4.7L395.5,281.9z"/>
			<g>
				<polygon class="st46" points="382.5,247 373.1,235.6 359,237.2 351.9,250.1 352.7,258 354.7,258 354.7,258.8 381.4,256 
					381.4,255.2 383.3,254.8 				"/>
				<path class="st23" d="M355.5,258.4c0-1.6-0.4-5.1,0-7.1c0.4-2.4,3.5-5.1,3.5-5.1l4.3-9.8l-3.9,0.4l-7.1,13l0.8,7.9l2-0.4
					L355.5,258.4L355.5,258.4z"/>
				<path class="st52" d="M373.9,234.8l3.9,13c0,0,0.8,4.3-0.8,6.3c-1.2,2-1.6,2.7-1.6,2.7l9-0.8l-0.8-8.6L373.9,234.8z"/>
				<path class="st49" d="M384.5,257.2l-32.2,3.1c-0.4,0-0.8-0.4-0.8-1.2l-0.8-9.4c0-0.4,0-0.8,0-0.8l7.5-13.7
					c0-0.4,0.4-0.4,0.4-0.4l14.9-1.6c0.4,0,0.4,0,0.4,0.4l9.8,11.8c0,0.4,0.4,0.4,0.4,0.8l0.8,9.4
					C385.3,256.4,384.9,257.2,384.5,257.2z M352.7,258l30.6-3.1l-0.8-7.9l-9.4-11.4l-14.1,1.6l-7.1,13L352.7,258z"/>
				<g>
					<path class="st47" d="M358.2,249.7h0.8l0.4,5.5h-0.8L358.2,249.7z M359,254.4l3.1-0.4v0.8l-3.1,0.4V254.4z"/>
					<path class="st47" d="M364.9,254.4h-0.8l-0.4-5.5h0.8L364.9,254.4z"/>
					<path class="st47" d="M367.6,254.1c-0.4,0-0.4-0.4-0.8-0.8c0-0.4-0.4-0.8-0.4-1.2v-1.6c0-0.4,0-0.8,0-1.2s0.4-0.4,0.8-0.8
						c0.4,0,0.8-0.4,0.8-0.4c0.4,0,0.8,0,1.2,0c0.4,0,0.4,0.4,0.8,0.8c0,0.4,0.4,0.8,0.4,1.2v1.6c0,0.4,0,0.8,0,1.2
						s-0.4,0.4-0.8,0.8c-0.4,0-0.8,0.4-0.8,0.4C368.4,254.4,368,254.4,367.6,254.1z M369.2,253.3l0.4-0.4c0,0,0-0.4,0-0.8v-1.6
						c0-0.4,0-0.4-0.4-0.8l-0.4-0.4c0,0-0.4,0-0.8,0s-0.4,0-0.4,0.4l-0.4,0.4c0,0,0,0.4,0,0.8v1.6c0,0.4,0,0.4,0.4,0.8l0.4,0.4
						c0,0,0.4,0,0.8,0C368.8,253.7,368.8,253.3,369.2,253.3z"/>
					<path class="st47" d="M371.9,248.6h0.8l3.1,3.9l0,0l-0.4-4.3h0.8l0.4,5.5h-0.8l-3.1-3.9l0,0l0.4,4.3h-0.8L371.9,248.6z"/>
				</g>
				<polygon class="st47" points="359.4,237.6 355.9,246.6 352.3,250.5 				"/>
				<polygon class="st47" points="373.1,236.4 378.2,244.2 382.5,247.4 				"/>
				<line class="st53" x1="357" y1="246.6" x2="376.7" y2="244.6"/>
			</g>
			<g>
				<path class="st48" d="M335,242.3c-3.1,0.4-8.2,1.6-7.9,3.5v0.4c-1.2-0.4-2.4-0.4-3.5-0.4s-2.7,0.4-3.5,0.8
					c-0.4-1.6-3.5-2.4-6.3-2c-2.7,0.4-5.9,1.6-5.9,3.1l0.4,5.1c0,2,3.5,2.4,6.3,2c2-0.4,3.9-0.8,5.1-1.6c1.2,0.8,2.7,0.8,4.7,0.8
					c2-0.4,3.9-0.8,4.7-2c2,0.8,5.1,0.8,7.1,0.4c3.1-0.4,8.2-1.6,7.9-3.5l-0.8-5.9C343.3,241.9,338.2,241.9,335,242.3z M335,243.8
					c4.3-0.4,6.3,0.4,6.7,0.8c-0.4,0.4-2.4,1.6-6.7,2c-4.3,0.4-6.7-0.4-6.7-0.4l0,0C328.8,245.4,330.7,244.2,335,243.8z
					 M323.7,247.8c2-0.4,3.1,0,3.5,0.4c-0.4,0.4-1.6,0.8-3.5,1.2s-3.1,0-3.5-0.4C320.5,248.6,321.7,248.2,323.7,247.8z M313.8,247
					c2.7-0.4,4.3,0.4,4.7,0.8c0,0.4-1.6,1.2-4.3,1.6c-2.7,0.4-4.3-0.4-4.7-0.8l0,0C309.5,248.2,310.7,247,313.8,247z M314.6,254.4
					c-2.7,0.4-4.3-0.4-4.7-0.8l-0.4-3.1c1.2,0.4,2.7,0.4,4.7,0.4c1.6,0,3.1-0.8,4.3-1.2l0.4,3.1C319,252.9,317.4,254.1,314.6,254.4z
					 M320.5,252.9L320.5,252.9l-0.4-2.4c1.2,0.4,2.4,0.4,3.5,0.4s2.7-0.4,3.5-0.8v2v0.4c0,0.4-1.2,0.8-3.5,1.2
					C321.7,253.7,320.5,253.3,320.5,252.9z M335.8,252.1c-4.3,0.4-6.7-0.4-6.7-0.8l-0.4-3.5v-0.4c2,0.8,4.7,0.8,6.7,0.4
					c2-0.4,5.1-0.8,6.7-2l0.4,3.9C342.5,250.5,340.1,251.7,335.8,252.1z"/>
				<path class="st47" d="M335,243.8c4.3-0.4,6.3,0.4,6.7,0.8c-0.4,0.4-2.4,1.6-6.7,2c-4.3,0.4-6.7-0.4-6.7-0.4l0,0
					C328.8,245.4,330.7,244.2,335,243.8z"/>
				<path class="st47" d="M323.7,247.8c2-0.4,3.1,0,3.5,0.4c-0.4,0.4-1.6,0.8-3.5,1.2s-3.1,0-3.5-0.4
					C320.5,248.6,321.7,248.2,323.7,247.8z"/>
				<path class="st47" d="M313.8,247c2.7-0.4,4.3,0.4,4.7,0.8c0,0.4-1.6,1.2-4.3,1.6c-2.7,0.4-4.3-0.4-4.7-0.8l0,0
					C309.5,248.2,310.7,247,313.8,247z"/>
				<path class="st47" d="M314.6,254.4c-2.7,0.4-4.3-0.4-4.7-0.8l-0.4-3.1c1.2,0.4,2.7,0.4,4.7,0.4c1.6,0,3.1-0.8,4.3-1.2l0.4,3.1
					C319,252.9,317.4,254.1,314.6,254.4z"/>
				<path class="st47" d="M320.5,252.9L320.5,252.9l-0.4-2.4c1.2,0.4,2.4,0.4,3.5,0.4s2.7-0.4,3.5-0.8v2v0.4c0,0.4-1.2,0.8-3.5,1.2
					C321.7,253.7,320.5,253.3,320.5,252.9z"/>
				<path class="st47" d="M335.8,252.1c-4.3,0.4-6.7-0.4-6.7-0.8l-0.4-3.5v-0.4c2,0.8,4.7,0.8,6.7,0.4c2-0.4,5.1-0.8,6.7-2l0.4,3.9
					C342.5,250.5,340.1,251.7,335.8,252.1z"/>
				<path class="st49" d="M339.8,243.5c0,0,1.2,3.5-4.7,3.9l5.1-0.8c0,0,0.4,4.7-1.6,5.5c-2,0.8-6.7,0.8-6.7,0.8l-3.5-0.8l-1.2-4.7
					l-2.4-0.4c0,0,2,2.4-0.4,3.1l1.6,3.1l-2.7,0.8h-3.9l-0.4-5.5v-2l-2-1.2c0,0,0.4,3.5-2.7,4.3c0,0,2.7,0,3.1,4.3l-2.7,0.8
					c0,0,0.4,0.8,4.7,0.4c3.9-0.4,3.1,0.8,9.8-1.2c0,0,11.8,0.4,17.7-2.4c0,0,2.7-3.1-3.1-3.5l-0.8-3.9
					C342.5,244.2,341.3,243.1,339.8,243.5z"/>
			</g>
			<g>
				<path class="st48" d="M394.3,236c-3.1,0.4-8.2,1.6-7.9,3.5l0.4,5.1c0.4,2.4,5.5,2.4,8.6,2c3.1-0.4,8.2-1.6,7.9-3.5L403,238
					C402.6,236,397.5,235.6,394.3,236z M394.3,237.6c4.3-0.4,6.3,0.4,6.7,0.8c-0.4,0.4-2.4,1.6-6.7,2c-4.3,0.4-6.7-0.4-6.7-0.4l0,0
					C388,239.1,390,238,394.3,237.6z M395.1,245.4c-4.3,0.4-6.7-0.4-6.7-0.8l-0.4-3.1c2,0.8,4.7,0.8,6.7,0.4c2-0.4,5.1-0.8,6.7-2
					l0.4,3.1C401.8,243.5,399.4,244.6,395.1,245.4z"/>
				<path class="st47" d="M394.3,237.6c4.3-0.4,6.3,0.4,6.7,0.8c-0.4,0.4-2.4,1.6-6.7,2c-4.3,0.4-6.7-0.4-6.7-0.4l0,0
					C388,239.1,390,238,394.3,237.6z"/>
				<path class="st47" d="M395.1,245.4c-4.3,0.4-6.7-0.4-6.7-0.8l-0.4-3.1c2,0.8,4.7,0.8,6.7,0.4c2-0.4,5.1-0.8,6.7-2l0.4,3.1
					C401.8,243.5,399.4,244.6,395.1,245.4z"/>
				<path class="st49" d="M398.6,244.6l-2,0.4c0,0,3.5-0.8,5.5-0.4l0.8-3.5h-0.8c0,0,0.8-3.1-1.2-3.9c-2-0.8-2.7-0.8-2.7-0.8
					s2,1.2-1.6,2.7c-3.9,1.6-5.1,2.4-5.1,2.4h7.1V244.6z"/>
			</g>
			<path class="st49" d="M381,265.4c0.8,1.2,1.6,3.1,0.8,4.3c2.4,1.2,4.7,3.1,6.7,5.1C387.3,271.7,384.9,267.8,381,265.4z"/>
			<path class="st49" d="M382.5,271.7c0.8,1.6,2.4,3.9,3.5,7.1c2,2.7,3.1,5.5,3.5,9c1.2,9.8-6.3,18.8-16.1,20c-1.6,0-2.7,0-4.3,0
				c-2,0.8-3.9,1.2-5.9,1.2c3.1,1.6,6.7,2,10.6,1.6c11.4-1.2,20-11.4,18.8-23.2C391.6,280.7,388,275.3,382.5,271.7z"/>
			<path class="st54" d="M367.2,305.5c2,0.4,3.9,0.8,6.3,0.4c9-0.8,15.7-9,14.9-18.1c-0.4-4.3-2.7-8.2-5.9-11
				C382.5,277.6,391.6,303.1,367.2,305.5z"/>
			<path class="st55" d="M370,273.3c-9,0.8-15.7,9-14.9,18.1c0.8,5.9,4.3,10.6,9,13c-0.8-0.4-7.5-5.5-7.1-16.1
				C357.4,276.8,370,273.3,370,273.3z"/>
		</g>
		<linearGradient id="SVGID_2_" gradientUnits="userSpaceOnUse" x1="285.5747" y1="309.7836" x2="366.3354" y2="309.7836">
			<stop  offset="0" style="stop-color:#F2D397"/>
			<stop  offset="0.4319" style="stop-color:#F3D195"/>
			<stop  offset="0.7526" style="stop-color:#F5CC8F"/>
			<stop  offset="1" style="stop-color:#F3B699"/>
		</linearGradient>
		<path class="st5" d="M353.9,367.5c3.5-14.5,7.9-27.1,12.6-38.1l-1.2-5.5l-10.6-9.4l-1.2,0.4l-2.4,3.1c-11.4-9.4-17.3-7.9-17.3-7.9
			c-0.4,0-0.8,0-0.8-0.4c0-0.4,0-0.8,0.4-0.8c0,0,0.4,0,1.2-0.4l0,0c5.1-9.4-3.5-17.3-3.5-17.3s4.3-7.5,2-13.7
			c-2.4-6.3-9.4-6.7-9.4-6.7l4.3-3.1c0,0,9-17.7-12.2-16.9c-21.2,0.8-25.1,23.6-25.1,23.6c-15.3,31.4,9.4,52.6,9.4,52.6
			c8.6,39.3,47.1,41.6,47.1,41.6L353.9,367.5L353.9,367.5z"/>
		<path class="st4" d="M356.2,320.4c-0.4-1.2-1.2-2-2-2.7l0,0l0,0l-0.4-0.4l-0.4-0.4l2-2.4l-3.5-2.7l-2,2l0,0
			c-6.3-4.7-13.7-7.5-13.7-7.5l-1.6,2.4c-0.8,0-1.2,0-1.2,0.4c-0.4,0-0.8,0.4-0.4,0.8c0,0.4,0.4,0.8,0.8,0.4c0,0,7.1-2,21.2,11.4
			l0.4,0.4c0.4,0,0.4,0,0.4-0.4C356.2,321.2,356.2,320.8,356.2,320.4z"/>
		<g class="st57">
			<path class="st30" d="M333.9,310.2c-0.4,0-0.8,0-0.8-0.4s0-0.8,0.4-0.8c0,0,0.4,0,1.2-0.4l0,0l0,0c5.1-9.4-3.5-17.3-3.5-17.3
				s4.3-7.5,2-13.7c-1.6-3.9-4.3-5.5-6.7-6.3l5.9,4.7c0,0,1.2,13.7-12.6,16.1l9.8-0.8l3.1,3.5c0,0,0.8,16.1-9.8,23.6
				c0,0,24.7-0.4,31.4,1.6C340.5,308.2,333.9,310.2,333.9,310.2z"/>
		</g>
		<path class="st4" d="M353.9,368.7L353.9,368.7c0-0.8-0.4-1.2-0.8-1.2c-44.4-1.2-51.4-40.8-51.8-41.2c0,0,0-0.4-0.4-0.4
			c-25.1-22.4-9-51-8.6-51.4v-0.4c0,0,0.8-15.7,17.3-20.8c6.7-2,12.2-1.6,15.3,1.2c2.7,2.4,3.5,6.3,3.1,8.6
			c-0.4,2.4-3.5,5.5-5.5,7.1c-6.7-0.4-14.1,2.4-14.1,2.4l0,0c-1.2,0.4-1.6,0.4-2,0.8c-0.4,0-0.8,0.8-0.4,1.2c0,0.4,0.8,0.8,1.2,0.4
			c0,0,16.1-5.9,21.2-0.4c3.1,3.5,4.3,8.2,3.5,12.2c-0.4,2-1.6,3.5-3.1,4.3c-6.3-1.6-13.3,1.6-13.3,1.6l0,0c-3.1,0.8-5.5,2-5.9,2
			s-0.4,0.8-0.4,1.2s0.8,0.4,1.2,0.4c0,0,17.7-7.9,21.6-0.4c2.4,4.3,2.7,9.4,0.8,13.3c-1.6,3.5-5.1,7.9-13.3,9.8c0-0.4,0,0.4,0,0.8
			s0.4,0.8,0.8,0.8l0,0c1.6-0.4,2.7-0.8,3.9-1.2l0,0c5.5-1.6,8.6-5.5,8.6-5.5c3.5-2.7,7.5-14.5,1.2-20c-0.8-0.4-1.2-1.2-2-1.6
			c5.1-4.7,4.3-13.7-2-19.2c-0.8-0.8-2-1.6-3.1-2c1.6-1.6,2.4-2.7,3.1-3.5l0,0V267l0,0c1.2-2,2-5.1,0.8-8.2
			c-1.2-3.5-3.9-5.5-6.3-6.7c-0.8-0.4-2-0.8-3.5-1.2c-0.4,0-0.8,0-0.8,0c-11-1.6-20.8,4.3-27.1,13c-0.8,0.4-1.2,1.2-1.6,2
			c-1.6,2.7-2.4,6.3-2.7,9.4c-3.5,7.1-13,31.8,10.2,52.2c0,0,9.4,44.4,54.2,43.2l2-2C355.1,368.3,354.7,368.7,353.9,368.7z"/>
	</g>
</g>
<g>
	<g>
		
			<linearGradient id="SVGID_3_" gradientUnits="userSpaceOnUse" x1="3004.8875" y1="-1247.6392" x2="3086.1111" y2="-1247.6392" gradientTransform="matrix(-1 0 0 -1 3605.6123 -870.0905)">
			<stop  offset="0" style="stop-color:#EDCF95"/>
			<stop  offset="0.5331" style="stop-color:#EECC91"/>
			<stop  offset="0.7526" style="stop-color:#EFC88D"/>
			<stop  offset="1" style="stop-color:#EDB397"/>
		</linearGradient>
		<path class="st6" d="M519.3,354.8l7.6-17.6c0-0.3,0-1,0.3-1.4c0-0.3,0-0.3,0-0.3c0-0.3,0.3-0.7,0.3-1c0-0.3,0-0.3,0.3-0.7
			c0.3-0.3,0.3-0.7,0.3-1c0-0.3,0-0.3,0.3-0.3c0.3-0.7,0.3-1,0.7-1.7c0-0.3,0.3-0.3,0.3-0.3c0.3-0.3,0.3-0.7,0.7-1
			c0-0.3,0.3-0.3,0.3-0.7c0.3-0.3,0.3-0.7,0.7-1c0-0.3,0.3-0.3,0.3-0.7c2.8-5.5,6.9-10.4,9.7-13.8c0.3-0.3,0.3-0.3,0.3-0.3
			c15.2,19,32.2,45,45.7,77.8c0,0,12.5,11.8,12.5,28.4c0,16.6-12.8,22.1-19.7,20.4l0,0c-7.6,6.9-18.7,2.4-20.8-8.3v-0.3
			c-0.3,0.3-1,0.7-1.7,0.7c-4.5,2.4-10.7-0.7-12.8-4.8l0,0l0,0c0-0.3-0.3-0.3-0.3-0.7l0.3-0.3l-1.7-13.5h0.3v-3.5l0.7-2.4
			c-0.3-0.7-0.7-1.4-0.7-2.1l-0.7-1l-0.7-2.4v-0.7c-2.4-6.2-6.2-14.9-11.4-24.9c-3.1-6.6-6.9-13.5-10.7-20.1L519.3,354.8z"/>
	</g>
	<path class="st1" d="M567.7,412.2c0,0,2.4,18.3-8,24.2l-1.7-5.2C558,431.2,568.8,425.7,567.7,412.2z"/>
	<path class="st1" d="M585.4,418.1c0,0,4.8,12.1,1,20.8c0,0-3.1,1-8,0.7C578.8,439.9,587.1,435.7,585.4,418.1z"/>
	<path class="st2" d="M568.1,418.1c0,0,0.3,11.1-9,14.9l-0.3-1.7C558.4,431.2,568.1,422.6,568.1,418.1z"/>
	<path class="st2" d="M586.4,424.3c0,0,0.7,10-4.8,15.6l-3.5-0.3C578.1,439.9,585.4,432.6,586.4,424.3z"/>
	<path class="st3" d="M519.3,354.8l7.6-17.6c0-0.3,0-1,0.3-1.4c0-0.3,0-0.3,0-0.3c0-0.3,0.3-0.7,0.3-1c0-0.3,0-0.3,0.3-0.7
		c0.3-0.3,0.3-0.7,0.3-1c0-0.3,0-0.3,0.3-0.3c0.3-0.7,0.3-1,0.7-1.7c0-0.3,0.3-0.3,0.3-0.3c0.3-0.3,0.3-0.7,0.7-1
		c0-0.3,0.3-0.3,0.3-0.7c0.3-0.3,0.3-0.7,0.7-1c0-0.3,0.3-0.3,0.3-0.7c0,0,0-0.3,0.3-0.3c10.4,20.4,21.4,47.4,22.1,70.2
		c0,0-12.8,16.3-8.3,31.8c-0.3-0.3-0.7-1-0.7-1.7l0,0l0,0c0-0.3-0.3-0.3-0.3-0.7l0.3-0.3l-1.7-13.5h0.3v-3.5l0.7-3.1l-1.7-2.4
		l-1-2.4l-19-41.5c0,0-1-1-2.8-3.8L519.3,354.8z"/>
	<g>
		<path class="st2" d="M542.5,408.4l-0.7-1l0,0c-0.3-0.3-12.5-27.7-23.9-49.8l1-2.8l0,0c10.4,19.7,21.8,45,24.2,50.2
			c0.3-1,0.7-1.7,0.7-1.7l0,0c1-1.7,2.1-3.5,2.4-3.5c0.3-0.3,0.7-0.3,0.7,0c0.3,0.3,0.3,0.7,0,0.7c-0.3,0.3-0.7,0.7-0.7,1
			c0,0-6.6,10-3.1,24.6l0,0c0.7,2.1,2.8,3.8,5.2,4.8c2.4,1,4.8,1,6.9,0c8.3-3.8,12.5-12.8,10.7-21.4c0-0.3,0.3-0.7,0.3-0.7
			c0.3,0,0.7,0.3,0.7,0.3c1.7,8.3-2.1,17-9.3,21.4c1,5.2,4.5,9,8.6,10.4c4.2,1,8.6,0,11.8-3.5c8.6-8.6,5.2-21.4,5.2-21.4
			c0-0.3,0.3-0.7,0.3-0.7c0.3,0,0.7,0.3,0.7,0.3c0,0.3,3.5,13.8-5.5,22.8l0,0c2.8,0.3,6.9-0.7,10.7-3.5c3.1-2.4,6.9-7.6,6.9-16.6
			c0-16.3-12.1-27.7-12.1-28l-0.3-0.3c-13.5-32.9-30.8-58.8-45.7-77.5l0.3-0.3c1-1,2.1-2.1,2.4-3.1l0,0c4.8,6.2,10,13.1,15.2,21.1
			l0,0c0,0,24.6,36.7,30.1,57.4c6.9,8.6,19.4,28.7,7.3,43.9c-1,1.7-2.4,3.1-3.8,4.2c-0.3,0.3-1,0.7-1.7,1c-0.3,0-0.3,0.3-0.3,0.3
			l0,0c-2.8,1.7-5.9,2.4-8.6,2.4c-0.7,0-1.7,0-2.1-0.3c-2.4,2.1-5.5,3.1-8.6,3.1c-1,0-2.4-0.3-3.5-0.7c-4.8-1.4-8.3-5.5-9.7-11.1
			c-0.3,0.3-0.7,0.3-0.7,0.3c-1,0.7-2.4,0.7-3.8,0.7s-2.4-0.3-3.8-0.7c-2.4-1-4.5-3.1-5.5-5.2l0,0c0,0,0,0,0-0.3s-0.3-0.3-0.3-0.3
			l0,0c0,0-1-2.4-1.4-6.9c-0.3-1.7-0.3-3.5,0-5.5C541.8,412.2,542.1,410.1,542.5,408.4z"/>
	</g>
</g>
</svg>
