<?xml version="1.0" encoding="utf-8"?>
<!-- Generator: Adobe Illustrator 21.0.0, SVG Export Plug-In . SVG Version: 6.00 Build 0)  -->
<svg version="1.1" id="圖層_1" xmlns="http://www.w3.org/2000/svg" xmlns:xlink="http://www.w3.org/1999/xlink" x="0px" y="0px"
	 viewBox="0 0 822.9 601.4" style="enable-background:new 0 0 822.9 601.4;" xml:space="preserve">
<style type="text/css">
	.st0{fill:url(#SVGID_1_);}
	.st1{fill:#E1BE3F;}
	.st2{fill:#AB6C21;}
	.st3{opacity:0.6;fill:#E1BE3F;enable-background:new    ;}
	.st4{fill:url(#SVGID_2_);}
	.st5{fill:url(#SVGID_3_);}
	.st6{fill:url(#SVGID_4_);}
	.st7{fill:#EEE9E5;}
	.st8{fill:#FFFFFF;}
	.st9{fill:#323130;}
	.st10{fill:#181717;}
	.st11{fill:#A4A09F;}
	.st12{fill:#546B7F;}
	.st13{fill:#92A2AD;}
	.st14{opacity:0.6;fill:#A4A09F;enable-background:new    ;}
	.st15{fill:none;stroke:#A4A09F;stroke-width:0.6175;stroke-linecap:round;stroke-miterlimit:10;}
	.st16{fill:#7B8C9F;}
	.st17{fill:#C1E0F6;}
	.st18{fill:url(#SVGID_5_);}
	.st19{fill:#AC6D21;}
	.st20{opacity:0.6;}
	.st21{fill:#E2BF40;}
	.st22{fill:url(#SVGID_6_);}
	.st23{fill:#D69644;}
	.st24{fill:url(#SVGID_7_);}
	.st25{fill:#CE9245;}
	.st26{fill:#A66A22;}
	.st27{opacity:0.6;fill:#CE9245;enable-background:new    ;}
	.st28{fill:url(#SVGID_8_);}
	.st29{fill:url(#SVGID_9_);}
	.st30{fill:none;stroke:#FFFFFF;stroke-width:1.8107;stroke-linecap:round;stroke-miterlimit:10;}
	.st31{opacity:0.6;fill:#E2BF40;enable-background:new    ;}
	.st32{fill:#3F210E;}
	.st33{opacity:0.35;fill:#FFFFFF;enable-background:new    ;}
	.st34{fill:url(#SVGID_10_);}
	.st35{opacity:0.8;}
	.st36{fill:url(#SVGID_11_);}
	.st37{fill:url(#SVGID_12_);}
	.st38{fill:#B62E22;}
	.st39{fill:#92622F;}
	.st40{fill:url(#SVGID_13_);}
	.st41{fill:#C5A27C;}
	.st42{opacity:0.8;fill:url(#SVGID_14_);enable-background:new    ;}
	.st43{fill:url(#SVGID_15_);}
	.st44{fill:#2B150B;}
	.st45{fill:#97654C;}
	.st46{opacity:0.4;fill:#3E210E;enable-background:new    ;}
	.st47{fill:url(#SVGID_16_);}
	.st48{opacity:0.35;fill:#DF9E83;enable-background:new    ;}
	.st49{fill:#DF9E83;}
	.st50{fill:#F6D4C7;}
	.st51{opacity:0.69;}
	.st52{fill:#CE5E39;}
	.st53{opacity:0.4;}
	.st54{fill:#3E210E;}
	.st55{fill:#DE805C;}
	.st56{fill:url(#SVGID_17_);stroke:#D78863;stroke-width:0.9662;stroke-miterlimit:10;}
	.st57{fill:url(#SVGID_18_);}
	.st58{fill:#A66B23;}
	.st59{fill:url(#SVGID_19_);}
	.st60{fill:url(#SVGID_20_);}
	.st61{fill:url(#SVGID_21_);}
	.st62{fill:url(#SVGID_22_);}
	.st63{fill:#824323;}
	.st64{fill:url(#SVGID_23_);}
	.st65{fill:#E6A952;}
	.st66{fill:#BB7F37;}
	.st67{fill:url(#SVGID_24_);}
	.st68{fill:url(#SVGID_25_);}
	.st69{fill:url(#SVGID_26_);}
	.st70{fill:#EBA794;}
	.st71{fill:#40210F;}
	.st72{opacity:0.25;fill:#D69644;enable-background:new    ;}
	.st73{opacity:0.5;fill:#D69644;enable-background:new    ;}
	.st74{fill:#FBF4C3;}
	.st75{fill:#DEBD91;}
	.st76{fill:#D8C7A7;}
	.st77{fill:url(#SVGID_27_);}
	.st78{fill:#893827;}
	.st79{opacity:0.4;fill:#E2BF40;enable-background:new    ;}
	.st80{opacity:0.6;fill:#D69644;enable-background:new    ;}
	.st81{fill:#895424;}
	.st82{fill:#391E13;}
	.st83{fill:#D7B093;}
	.st84{fill:#EFD39D;}
	.st85{fill:#8C5924;}
	.st86{fill:#B55C4E;}
	.st87{fill:url(#SVGID_28_);}
	.st88{fill:url(#SVGID_29_);}
	.st89{fill:#E0917F;}
	.st90{fill:#AB948D;}
	.st91{fill:url(#SVGID_30_);}
	.st92{fill:url(#SVGID_31_);}
	.st93{opacity:0.6;fill:url(#SVGID_32_);enable-background:new    ;}
	.st94{fill:#CD9449;}
	.st95{fill:url(#SVGID_33_);}
	.st96{fill:url(#SVGID_34_);}
	.st97{fill:url(#SVGID_35_);}
	.st98{fill:url(#SVGID_36_);}
	.st99{fill:#842B20;}
	.st100{fill:url(#SVGID_37_);}
	.st101{fill:url(#SVGID_38_);}
	.st102{opacity:0.6;fill:#D2503A;enable-background:new    ;}
	.st103{fill:#DC7D67;}
	.st104{fill:url(#SVGID_39_);}
	.st105{fill:url(#SVGID_40_);}
	.st106{opacity:0.8;fill:#E2BF40;enable-background:new    ;}
	.st107{fill:url(#SVGID_41_);}
	.st108{opacity:0.4;fill:#59A4C1;enable-background:new    ;}
	.st109{fill:#80B4D2;}
	.st110{fill:#4493BB;}
	.st111{fill:#D2ECF9;}
	.st112{opacity:0.5;fill:#80B4D2;enable-background:new    ;}
	.st113{fill:url(#SVGID_42_);}
	.st114{fill:#976430;}
	.st115{fill:url(#SVGID_43_);}
	.st116{fill:#CAA67E;}
	.st117{fill:#5CA6A6;}
	.st118{fill:url(#SVGID_44_);}
	.st119{fill:#9DD6DE;}
	.st120{fill:none;stroke:#AFDDE3;stroke-width:0.8954;stroke-miterlimit:10;}
	.st121{opacity:0.3;enable-background:new    ;}
	.st122{clip-path:url(#SVGID_46_);fill:#9DD6DE;}
	.st123{clip-path:url(#SVGID_48_);fill:#9DD6DE;}
	.st124{opacity:0.6;fill:#FFFFFF;enable-background:new    ;}
	.st125{fill:url(#SVGID_49_);}
	.st126{fill:url(#SVGID_50_);}
</style>
<g>
	<g>
		
			<linearGradient id="SVGID_1_" gradientUnits="userSpaceOnUse" x1="1082.4077" y1="217.7616" x2="1167.3884" y2="217.7616" gradientTransform="matrix(-1 0 0 -1 1686.1643 602)">
			<stop  offset="0" style="stop-color:#EFD97F"/>
			<stop  offset="0.1978" style="stop-color:#EFD87C"/>
			<stop  offset="0.3726" style="stop-color:#EED571"/>
			<stop  offset="0.5387" style="stop-color:#EDCF5F"/>
			<stop  offset="0.6984" style="stop-color:#EBC845"/>
			<stop  offset="0.7526" style="stop-color:#EAC53B"/>
			<stop  offset="1" style="stop-color:#E5AD14"/>
		</linearGradient>
		<path class="st0" d="M518.6,360.3l8.1-18.3c0-0.4,0-1,0.2-1.5c0-0.2,0-0.4,0-0.4c0-0.4,0.2-0.8,0.2-1c0-0.2,0-0.4,0.2-0.6
			c0.2-0.4,0.2-0.8,0.4-1.2c0-0.2,0-0.2,0.2-0.4c0.2-0.6,0.4-1,0.6-1.7c0-0.2,0.2-0.2,0.2-0.4c0.2-0.4,0.4-0.8,0.6-1.2
			c0-0.2,0.2-0.4,0.2-0.6c0.2-0.4,0.4-0.8,0.6-1c0-0.2,0.2-0.4,0.2-0.6c2.9-5.6,7.1-11,10-14.6c0.2-0.2,0.2-0.2,0.4-0.4
			c15.8,20,33.7,47.2,47.8,81.6c0,0,12.9,12.3,12.9,29.7c0,17.5-13.3,23.1-20.6,21.4l0,0c-8.1,7.1-19.6,2.7-21.8-8.7v-0.2
			c-0.4,0.2-1,0.6-1.7,0.8c-4.8,2.5-11.2-0.6-13.3-5l0,0l0,0c0-0.2-0.2-0.4-0.2-0.6l0.2-0.2l-1.7-14.1h0.4v-3.5l0.6-2.5
			c-0.2-0.6-0.6-1.5-0.8-2.3l-0.6-1l-0.8-2.5v-0.6c-2.7-6.4-6.7-15.4-11.9-26c-3.3-6.9-7.3-14.1-11.2-21L518.6,360.3z"/>
	</g>
	<path class="st1" d="M569.1,420.4c0,0,2.5,19.1-8.3,25.4l-1.9-5.4C558.9,440.4,570.4,434.3,569.1,420.4z"/>
	<path class="st1" d="M587.8,426.4c0,0,5,12.7,1.2,21.8c0,0-3.3,1.2-8.3,0.8C580.8,449.1,589.3,444.7,587.8,426.4z"/>
	<path class="st2" d="M569.5,426.4c0,0,0.2,11.4-9.6,15.6l-0.4-1.7C559.6,440.4,569.5,431.2,569.5,426.4z"/>
	<path class="st2" d="M588.7,433.1c0,0,0.6,10.6-5,16.2l-3.5-0.2C580.2,449.1,587.6,441.8,588.7,433.1z"/>
	<path class="st3" d="M518.6,360.3l8.1-18.3c0-0.4,0-1,0.2-1.5c0-0.2,0-0.4,0-0.4c0-0.4,0.2-0.8,0.2-1c0-0.2,0-0.4,0.2-0.6
		c0.2-0.4,0.2-0.8,0.4-1.2c0-0.2,0-0.2,0.2-0.4c0.2-0.6,0.4-1,0.6-1.7c0-0.2,0.2-0.2,0.2-0.4c0.2-0.4,0.4-0.8,0.6-1.2
		c0-0.2,0.2-0.4,0.2-0.6c0.2-0.4,0.4-0.8,0.6-1c0-0.2,0.2-0.4,0.2-0.6c0,0,0-0.2,0.2-0.2c10.8,21.2,22.5,49.5,23.1,73.4
		c0,0-13.3,16.9-8.5,33.3c-0.4-0.4-0.6-1-0.8-1.7l0,0l0,0c0-0.2-0.2-0.4-0.2-0.6l0.2-0.2l-1.7-14.1h0.4v-3.5l0.8-3.1l-1.9-2.7
		l-1-2.5l-20-43.5c0,0-1-1.2-2.9-4.2L518.6,360.3z"/>
	<g>
		<path class="st2" d="M542.7,416.4l-0.6-1.2l0,0c-0.2-0.4-13.1-28.9-25-52l1.2-2.9l0,0c10.8,20.8,22.7,47,25.4,52.8
			c0.4-1.2,0.8-1.7,0.8-1.7l0,0c1-1.9,2.3-3.5,2.5-3.5c0.2-0.2,0.6-0.2,0.8,0c0.2,0.2,0.2,0.6,0,0.8c-0.2,0.2-0.6,0.6-0.8,1
			c0,0-6.9,10.6-3.1,25.8l0,0c0.8,2.3,2.9,4.2,5.4,5.2c2.5,1,5.2,1,7.3,0c8.5-4.2,13.1-13.3,11.2-22.3c0-0.4,0.2-0.6,0.4-0.8
			c0.4,0,0.6,0.2,0.8,0.4c1.9,8.7-2.1,17.7-9.8,22.5c1.2,5.4,4.6,9.4,9.2,10.8c4.4,1.2,8.9,0,12.5-3.5c8.9-8.9,5.6-22.5,5.4-22.5
			c0-0.4,0.2-0.6,0.4-0.8c0.4,0,0.6,0.2,0.8,0.4c0,0.2,3.5,14.4-5.8,23.7l0,0c2.9,0.2,7.3-0.6,11.2-3.7c3.3-2.7,7.3-7.9,7.3-17.3
			c0-16.9-12.7-29.1-12.7-29.3l-0.2-0.2c-13.9-34.3-32-61.4-47.6-81.1l0.2-0.2c1-1.2,2.1-2.3,2.7-3.1l0,0c5.2,6.4,10.6,13.7,16,22.1
			l0,0c0,0,25.8,38.5,31.6,60.1c7.1,9.2,20.2,30.2,7.7,46c-1.2,1.9-2.7,3.3-4,4.4c-0.4,0.4-1,0.8-1.7,1c-0.2,0-0.2,0.2-0.2,0.2l0,0
			c-2.9,1.9-6,2.7-9.2,2.7c-0.8,0-1.7,0-2.3-0.2c-2.7,2.3-5.8,3.3-8.9,3.3c-1.2,0-2.5-0.2-3.7-0.6c-5-1.5-8.5-5.6-10-11.4
			c-0.2,0.2-0.6,0.4-0.8,0.4c-1.2,0.6-2.7,0.8-4.2,0.8c-1.5,0-2.7-0.2-4.2-0.8c-2.7-1-4.8-3.1-5.8-5.4l0,0c0,0,0,0,0-0.2
			c0-0.2-0.2-0.2-0.2-0.4l0,0c0,0-1-2.7-1.5-7.1c-0.2-1.7-0.2-3.7,0-5.8C541.9,420.4,542.3,418.1,542.7,416.4z"/>
	</g>
</g>
<g>
	<g>
		<path class="st7" d="M304.3,261.1l4.7,47.1l0,0c0,0.8,0,2.4,1.2,3.5c0.4,0.4,0.8,0.4,1.6,0.4c3.5,0,100.1-10.2,101.3-10.6
			c0,0,1.6,0,2.7-1.2c0.8-0.8,0.8-2,0.8-3.5l-5.1-47.5l-7.5-5.9l-93,9.8L304.3,261.1z"/>
		<polygon class="st8" points="308.6,260.3 305.1,272.1 310.6,271.3 313.7,259.9 		"/>
		<path class="st9" d="M304.7,272.5l108.7-11.4l3.1,33c0,0-2.7,3.9-13.7,4.3l-87.9,9c0,0-6.3,0-7.1-2.7l-3.5-32.6"/>
		<path class="st10" d="M413,261.5l-108.3,11.4c-0.4,0-0.4,0-0.4-0.4s0-0.4,0.4-0.4L413,260.7C413.4,260.7,413.4,260.7,413,261.5
			C413.4,261.5,413.4,261.5,413,261.5z"/>
		<path class="st10" d="M411.5,298l-98.9,10.2c-2.4,0.4-4.7-2.7-4.7-2.7c0-0.4,0-0.4,0-0.8c0.4,0,0.4,0,0.8,0
			c0.8,0.8,2.4,2.4,3.9,2.4l98.9-10.2c1.6-0.4,4.7-2,4.7-3.9c0-0.4,0-0.4,0.4-0.4s0.4,0,0.4,0.4C417.3,296,411.8,298,411.5,298
			L411.5,298z"/>
		<path class="st11" d="M309,309.7c0,0-0.4,1.6,4.7,1.2c5.1-0.4,35.7-13.3,35.7-13.3l7.9,11l-45.5,4.7
			C312.1,312.9,309.4,312.9,309,309.7z"/>
		<path class="st11" d="M411.5,248.9l-7.9-5.9h-0.4l-1.2,3.9c0.4,0,0.8,0,1.2,0.4c1.6,1.2,3.1,2.4,3.1,2.4l1.2,0.8
			c0,0,0.4,1.2,0.8,3.5c0.4,2.4,0,20-7.1,31.4s-9.8,15.7-9.8,15.7l-4.3,3.9l25.9-2c0,0,3.9-1.2,2.7-9
			C415,285.8,411.5,248.9,411.5,248.9z"/>
		<path class="st11" d="M339.6,310.9c-14.9,1.6-26.7,2.7-27.9,2.7c-1.2,0-2-0.4-2.7-1.2c-1.6-1.6-1.6-3.9-1.6-4.3l-5.1-47.5
			c0-0.4,0-0.4,0-0.4l7.1-8.2l0.4-0.4l93.4-9.8c0.4,0,0.4,0,0.4,0l7.9,6.3l0.4,0.4l5.1,47.9c0,2,0,3.5-1.2,4.7c-1.6,1.6-3.5,2-3.5,2
			C410.3,303.5,368.7,308.2,339.6,310.9z M304.3,261.1l4.7,47.1l0,0c0,0.8,0,2.4,1.2,3.5c0.4,0.4,0.8,0.4,1.6,0.4
			c3.5,0,100.1-10.2,101.3-10.6c0,0,1.6,0,2.7-1.2c0.8-0.8,0.8-2,0.8-3.5l-5.1-47.5l-7.5-5.9l-93,9.8L304.3,261.1z M308.2,308.2
			L308.2,308.2L308.2,308.2z"/>
		<path class="st11" d="M409.1,250.5l-103.2,10.6c-0.4,0-0.8-0.4-0.8-0.8s0.4-0.8,0.8-0.8l103.2-10.6c0.4,0,0.8,0.4,0.8,0.8
			C409.9,250.1,409.5,250.5,409.1,250.5z"/>
		<path class="st11" d="M397.3,262.6c-1.6,0-3.1-1.2-3.5-2.7c0-1.6,1.2-3.1,2.7-3.5c1.6,0,3.1,1.2,3.5,2.7
			C400.5,260.7,399.3,262.2,397.3,262.6z M396.9,257.9c-0.8,0-1.6,0.8-1.6,2c0,0.8,0.8,1.6,2,1.6c0.8,0,1.6-0.8,1.6-2
			C398.5,258.3,397.7,257.5,396.9,257.9z"/>
		<path class="st12" d="M369.5,273.6c-9.8,1.2-17.3,9.8-16.1,20c1.2,9.8,9.8,17.3,20,16.1c9.8-1.2,17.3-9.8,16.1-20
			C388.3,279.5,379.3,272.5,369.5,273.6z M373,307.8c-9,0.8-17.3-5.5-18.1-14.9c-0.8-9,5.5-17.3,14.9-18.1c9-0.8,17.3,5.5,18.1,14.9
			C388.7,298.8,382,307,373,307.8z"/>
		<path class="st9" d="M369.1,270.5c-11.4,1.2-20,11.4-18.8,23.2c1.2,11.4,11.4,20,23.2,18.8c11.4-1.2,20-11.4,18.8-23.2
			C391,277.9,380.8,269.3,369.1,270.5z M373.4,309.4c-9.8,1.2-18.8-6.3-20-16.1c-1.2-9.8,6.3-18.8,16.1-20c9.8-1.2,18.8,6.3,20,16.1
			C390.3,299.5,383.2,308.6,373.4,309.4z"/>
		
			<ellipse transform="matrix(0.9947 -0.1031 0.1031 0.9947 -28.0528 39.8446)" class="st13" cx="371.4" cy="291.3" rx="16.5" ry="16.5"/>
		<path class="st7" d="M352.2,259.5l31-3.1l4.3,15.7c-3.1-5.1-9-10.2-19.2-9c-10.6,1.2-14.9,7.5-16.9,13.3L352.2,259.5z"/>
		<path class="st9" d="M388.3,276.8c-4.7-5.5-11.8-8.2-19.2-7.5c-7.5,0.8-13.7,5.1-17.3,11c1.2-5.5,4.7-14.1,16.9-15.7
			C380.8,263.4,386.3,271.7,388.3,276.8z"/>
		<path class="st9" d="M395.8,288.5l-2,0.4c0-1.6-0.4-3.1-1.2-4.7l2.7-0.4L395.8,288.5z"/>
		<g>
			<path class="st10" d="M321.2,264.2L321.2,264.2c-0.4,0.4-0.8,0.4-0.4,0.8l0.4,2.4c0,0.8,0,0.8,0.8,0.8l0,0h-1.6l0,0
				c0.4,0,0.4,0,0.4-0.8l-0.4-2.7c-0.4,1.2-1.2,3.1-1.2,3.9l0,0c-0.4-0.4-1.2-2.4-2-3.5c0,2.4,0,2.7,0,3.1s0.4,0.4,0.8,0.4l0,0h-1.6
				l0,0c0.4,0,0.4,0,0.4-0.4s0-0.4,0-3.1c0-0.4,0-0.4-0.8-0.4l0,0h1.2l2,3.1l1.2-3.5H321.2 M321.2,263.8H320c0,0,0,0-0.4,0l-1.2,2.7
				l-1.6-2.7c0,0,0,0-0.4,0h-1.2c0,0-0.4,0-0.4,0.4l0,0c0,0,0,0.4,0.4,0.4s0.4,0,0.4,0l0,0l0,0v1.6c0,0.8,0,1.2,0,1.2s0,0.4-0.4,0.4
				c0,0-0.4,0-0.4,0.4l0,0c0,0,0,0.4,0.4,0.4h1.6c0,0,0.4,0,0.4-0.4l0,0c0,0,0-0.4-0.4-0.4c-0.4,0-0.4,0-0.4,0s0-0.4,0-1.6
				c0.4,1.2,1.2,2,1.2,2.4c0,0,0,0,0.4,0l0,0h0.4c0-0.4,0.4-1.6,0.8-2.4l0,0v1.6v0.4h-0.4c0,0-0.4,0-0.4,0.4l0,0c0,0,0,0.4,0.4,0.4
				h1.6c0,0,0.4,0,0.4-0.4l0,0c0,0,0-0.4-0.4-0.4H320v-0.4l-0.4-2.4V265c0,0,0,0,0.4,0c0,0,0.4,0,0.4-0.4L321.2,263.8
				C321.6,263.8,321.2,263.8,321.2,263.8L321.2,263.8z"/>
			<path class="st10" d="M323.9,263.8l0.4,3.5c0,0.4,0,0.4,0.8,0.4l0,0l-2,0.4l0,0c0.8,0,0.8,0,0.8-0.8l-0.4-2.4
				c0-0.4,0-0.4-0.4-0.4h-0.4l0,0C323.1,264.2,323.9,264.2,323.9,263.8 M323.9,263.4L323.9,263.4c-0.4,0-0.8,0.4-1.2,0.4
				c0,0-0.4,0,0,0.4l0,0c0,0,0,0.4,0.4,0.4h0.4l0,0l0,0l0.4,2.4v0.4h-0.4c0,0-0.4,0-0.4,0.4l0,0c0,0,0,0.4,0.4,0.4l2-0.4
				c0,0,0.4,0,0.4-0.4l0,0c0,0,0-0.4-0.4-0.4h-0.4c0,0,0,0,0-0.4L323.9,263.4C324.3,263.8,324.3,263.8,323.9,263.4
				C324.3,263.4,323.9,263.4,323.9,263.4L323.9,263.4z"/>
		</g>
		<g>
			<path class="st11" d="M387.5,272.1c-0.4-0.4-0.8-0.8-0.8-1.2L387.5,272.1z"/>
			<path class="st11" d="M351.4,276.4l0.8-16.9l31-3.1l4.3,15.7c0,0,2,3.5,4.3,9.4l-7.1-26.3c0-0.4-0.4-0.8-0.8-0.4l-32.2,3.5
				c-0.4,0-0.8,0.4-0.8,0.8l-1.6,27.5C349.4,286.2,350.6,279.9,351.4,276.4z"/>
		</g>
		<path class="st10" d="M391.8,281.9c-2-6.3-4.3-9.4-4.3-9.4l-0.8-1.2c-3.1-4.3-9-8.6-18.1-7.9c-10.6,1.2-14.9,7.5-16.9,13.3
			c-1.2,3.5-2,10.2-2,10.2v0.4c-0.4,2.4-0.8,4.7-0.4,7.1c1.2,12.2,12.2,21.2,24.7,20c11.8-1.2,20.8-11.8,20-23.6l3.1-0.4
			c0.4,0,0.8-0.4,0.8-0.8l-0.8-6.3c0-0.4-0.4-0.8-0.8-0.8l-3.9,0.4v-0.4L391.8,281.9z M368.7,264.6c12.2-1.2,17.7,7.1,19.6,12.2
			c-4.7-5.5-11.8-8.2-19.2-7.5c-7.5,0.8-13.7,5.1-17.3,11C353,274.4,356.5,265.8,368.7,264.6z M373.4,312.5
			c-11.4,1.2-22-7.1-23.2-18.8c-1.2-11.4,7.1-22,18.8-23.2c11.4-1.2,22,7.1,23.2,18.8C393.4,300.7,385.2,311.3,373.4,312.5z
			 M395.4,283.8l0.4,4.7l-2,0.4c0-1.6-0.4-3.1-1.2-4.7L395.4,283.8z"/>
		<g>
			<polygon class="st7" points="382.4,248.9 373,237.5 358.9,239.1 351.8,252 352.6,259.9 354.5,259.9 354.5,260.7 381.2,257.9 
				381.2,257.1 383.2,256.7 			"/>
			<path class="st8" d="M355.3,260.3c0-1.6-0.4-5.1,0-7.1c0.4-2.4,3.5-5.1,3.5-5.1l4.3-9.8l-3.9,0.4l-7.1,13l0.8,7.9l2-0.4
				L355.3,260.3L355.3,260.3z"/>
			<path class="st14" d="M373.8,236.7l3.9,13c0,0,0.8,4.3-0.8,6.3c-1.2,2-1.6,2.7-1.6,2.7l9-0.8l-0.8-8.6L373.8,236.7z"/>
			<path class="st11" d="M384.4,259.1l-32.2,3.1c-0.4,0-0.8-0.4-0.8-1.2l-0.8-9.4c0-0.4,0-0.8,0-0.8l7.5-13.7c0-0.4,0.4-0.4,0.4-0.4
				l14.9-1.6c0.4,0,0.4,0,0.4,0.4l9.8,11.8c0,0.4,0.4,0.4,0.4,0.8l0.8,9.4C385.2,258.3,384.8,259.1,384.4,259.1z M352.6,259.9
				l30.6-3.1l-0.8-7.9l-9.4-11.4l-14.1,1.6l-7.1,13L352.6,259.9z"/>
			<g>
				<path class="st9" d="M358.1,251.6h0.8l0.4,5.5h-0.8L358.1,251.6z M358.9,256.4l3.1-0.4v0.8l-3.1,0.4V256.4z"/>
				<path class="st9" d="M364.7,256.4H364l-0.4-5.5h0.8L364.7,256.4z"/>
				<path class="st9" d="M367.5,256c-0.4,0-0.4-0.4-0.8-0.8c0-0.4-0.4-0.8-0.4-1.2v-1.6c0-0.4,0-0.8,0-1.2c0-0.4,0.4-0.4,0.8-0.8
					c0.4,0,0.8-0.4,0.8-0.4c0.4,0,0.8,0,1.2,0c0.4,0,0.4,0.4,0.8,0.8c0,0.4,0.4,0.8,0.4,1.2v1.6c0,0.4,0,0.8,0,1.2
					c0,0.4-0.4,0.4-0.8,0.8c-0.4,0-0.8,0.4-0.8,0.4C368.3,256.4,367.9,256.4,367.5,256z M369.1,255.2l0.4-0.4c0,0,0-0.4,0-0.8v-1.6
					c0-0.4,0-0.4-0.4-0.8l-0.4-0.4c0,0-0.4,0-0.8,0s-0.4,0-0.4,0.4l-0.4,0.4c0,0,0,0.4,0,0.8v1.6c0,0.4,0,0.4,0.4,0.8l0.4,0.4
					c0,0,0.4,0,0.8,0C368.7,255.6,368.7,255.2,369.1,255.2z"/>
				<path class="st9" d="M371.8,250.5h0.8l3.1,3.9l0,0l-0.4-4.3h0.8l0.4,5.5h-0.8l-3.1-3.9l0,0l0.4,4.3h-0.8L371.8,250.5z"/>
			</g>
			<polygon class="st9" points="359.2,239.5 355.7,248.5 352.2,252.4 			"/>
			<polygon class="st9" points="373,238.3 378.1,246.2 382.4,249.3 			"/>
			<line class="st15" x1="356.9" y1="248.5" x2="376.5" y2="246.5"/>
		</g>
		<g>
			<path class="st10" d="M334.9,244.2c-3.1,0.4-8.2,1.6-7.9,3.5v0.4c-1.2-0.4-2.4-0.4-3.5-0.4c-1.2,0-2.7,0.4-3.5,0.8
				c-0.4-1.6-3.5-2.4-6.3-2c-2.7,0.4-5.9,1.6-5.9,3.1l0.4,5.1c0,2,3.5,2.4,6.3,2c2-0.4,3.9-0.8,5.1-1.6c1.2,0.8,2.7,0.8,4.7,0.8
				c2-0.4,3.9-0.8,4.7-2c2,0.8,5.1,0.8,7.1,0.4c3.1-0.4,8.2-1.6,7.9-3.5l-0.8-5.9C343.2,243.8,338.1,243.8,334.9,244.2z
				 M334.9,245.8c4.3-0.4,6.3,0.4,6.7,0.8c-0.4,0.4-2.4,1.6-6.7,2s-6.7-0.4-6.7-0.4l0,0C328.6,247.3,330.6,246.2,334.9,245.8z
				 M323.5,249.7c2-0.4,3.1,0,3.5,0.4c-0.4,0.4-1.6,0.8-3.5,1.2s-3.1,0-3.5-0.4C320.4,250.5,321.6,250.1,323.5,249.7z M313.7,248.9
				c2.7-0.4,4.3,0.4,4.7,0.8c0,0.4-1.6,1.2-4.3,1.6c-2.7,0.4-4.3-0.4-4.7-0.8l0,0C309.4,250.1,310.6,248.9,313.7,248.9z
				 M314.5,256.4c-2.7,0.4-4.3-0.4-4.7-0.8l-0.4-3.1c1.2,0.4,2.7,0.4,4.7,0.4c1.6,0,3.1-0.8,4.3-1.2l0.4,3.1
				C318.8,254.8,317.2,256,314.5,256.4z M320.4,254.8L320.4,254.8l-0.4-2.4c1.2,0.4,2.4,0.4,3.5,0.4c1.2,0,2.7-0.4,3.5-0.8v2v0.4
				c0,0.4-1.2,0.8-3.5,1.2C321.6,255.6,320.4,255.2,320.4,254.8z M335.7,254c-4.3,0.4-6.7-0.4-6.7-0.8l-0.4-3.5v-0.4
				c2,0.8,4.7,0.8,6.7,0.4s5.1-0.8,6.7-2l0.4,3.9C342.4,252.4,340,253.6,335.7,254z"/>
			<path class="st9" d="M334.9,245.8c4.3-0.4,6.3,0.4,6.7,0.8c-0.4,0.4-2.4,1.6-6.7,2s-6.7-0.4-6.7-0.4l0,0
				C328.6,247.3,330.6,246.2,334.9,245.8z"/>
			<path class="st9" d="M323.5,249.7c2-0.4,3.1,0,3.5,0.4c-0.4,0.4-1.6,0.8-3.5,1.2s-3.1,0-3.5-0.4
				C320.4,250.5,321.6,250.1,323.5,249.7z"/>
			<path class="st9" d="M313.7,248.9c2.7-0.4,4.3,0.4,4.7,0.8c0,0.4-1.6,1.2-4.3,1.6c-2.7,0.4-4.3-0.4-4.7-0.8l0,0
				C309.4,250.1,310.6,248.9,313.7,248.9z"/>
			<path class="st9" d="M314.5,256.4c-2.7,0.4-4.3-0.4-4.7-0.8l-0.4-3.1c1.2,0.4,2.7,0.4,4.7,0.4c1.6,0,3.1-0.8,4.3-1.2l0.4,3.1
				C318.8,254.8,317.2,256,314.5,256.4z"/>
			<path class="st9" d="M320.4,254.8L320.4,254.8l-0.4-2.4c1.2,0.4,2.4,0.4,3.5,0.4c1.2,0,2.7-0.4,3.5-0.8v2v0.4
				c0,0.4-1.2,0.8-3.5,1.2C321.6,255.6,320.4,255.2,320.4,254.8z"/>
			<path class="st9" d="M335.7,254c-4.3,0.4-6.7-0.4-6.7-0.8l-0.4-3.5v-0.4c2,0.8,4.7,0.8,6.7,0.4s5.1-0.8,6.7-2l0.4,3.9
				C342.4,252.4,340,253.6,335.7,254z"/>
			<path class="st11" d="M339.6,245.4c0,0,1.2,3.5-4.7,3.9l5.1-0.8c0,0,0.4,4.7-1.6,5.5c-2,0.8-6.7,0.8-6.7,0.8l-3.5-0.8l-1.2-4.7
				l-2.4-0.4c0,0,2,2.4-0.4,3.1l1.6,3.1l-2.7,0.8h-3.9l-0.4-5.5v-2l-2-1.2c0,0,0.4,3.5-2.7,4.3c0,0,2.7,0,3.1,4.3l-2.7,0.8
				c0,0,0.4,0.8,4.7,0.4c3.9-0.4,3.1,0.8,9.8-1.2c0,0,11.8,0.4,17.7-2.4c0,0,2.7-3.1-3.1-3.5l-0.8-3.9
				C342.4,246.2,341.2,245,339.6,245.4z"/>
		</g>
		<g>
			<path class="st10" d="M394.2,237.9c-3.1,0.4-8.2,1.6-7.9,3.5l0.4,5.1c0.4,2.4,5.5,2.4,8.6,2c3.1-0.4,8.2-1.6,7.9-3.5l-0.4-5.1
				C402.4,237.9,397.3,237.5,394.2,237.9z M394.2,239.5c4.3-0.4,6.3,0.4,6.7,0.8c-0.4,0.4-2.4,1.6-6.7,2c-4.3,0.4-6.7-0.4-6.7-0.4
				l0,0C387.9,241,389.9,239.9,394.2,239.5z M395,247.3c-4.3,0.4-6.7-0.4-6.7-0.8l-0.4-3.1c2,0.8,4.7,0.8,6.7,0.4
				c2-0.4,5.1-0.8,6.7-2l0.4,3.1C401.6,245.4,399.3,246.5,395,247.3z"/>
			<path class="st9" d="M394.2,239.5c4.3-0.4,6.3,0.4,6.7,0.8c-0.4,0.4-2.4,1.6-6.7,2c-4.3,0.4-6.7-0.4-6.7-0.4l0,0
				C387.9,241,389.9,239.9,394.2,239.5z"/>
			<path class="st9" d="M395,247.3c-4.3,0.4-6.7-0.4-6.7-0.8l-0.4-3.1c2,0.8,4.7,0.8,6.7,0.4c2-0.4,5.1-0.8,6.7-2l0.4,3.1
				C401.6,245.4,399.3,246.5,395,247.3z"/>
			<path class="st11" d="M398.5,246.5l-2,0.4c0,0,3.5-0.8,5.5-0.4l0.8-3.5H402c0,0,0.8-3.1-1.2-3.9c-2-0.8-2.7-0.8-2.7-0.8
				s2,1.2-1.6,2.7c-3.9,1.6-5.1,2.4-5.1,2.4h7.1V246.5z"/>
		</g>
		<path class="st11" d="M380.8,267.3c0.8,1.2,1.6,3.1,0.8,4.3c2.4,1.2,4.7,3.1,6.7,5.1C387.1,273.6,384.8,269.7,380.8,267.3z"/>
		<path class="st11" d="M382.4,273.6c0.8,1.6,2.4,3.9,3.5,7.1c2,2.7,3.1,5.5,3.5,9c1.2,9.8-6.3,18.8-16.1,20c-1.6,0-2.7,0-4.3,0
			c-2,0.8-3.9,1.2-5.9,1.2c3.1,1.6,6.7,2,10.6,1.6c11.4-1.2,20-11.4,18.8-23.2C391.4,282.7,387.9,277.2,382.4,273.6z"/>
		<path class="st16" d="M367.1,307.4c2,0.4,3.9,0.8,6.3,0.4c9-0.8,15.7-9,14.9-18.1c-0.4-4.3-2.7-8.2-5.9-11
			C382.4,279.5,391.4,305,367.1,307.4z"/>
		<path class="st17" d="M369.8,275.2c-9,0.8-15.7,9-14.9,18.1c0.8,5.9,4.3,10.6,9,13c-0.8-0.4-7.5-5.5-7.1-16.1
			C357.3,278.7,369.8,275.2,369.8,275.2z"/>
	</g>
	<linearGradient id="SVGID_2_" gradientUnits="userSpaceOnUse" x1="285.4383" y1="311.6931" x2="366.1992" y2="311.6931">
		<stop  offset="0" style="stop-color:#EFD980"/>
		<stop  offset="0.1557" style="stop-color:#EED779"/>
		<stop  offset="0.3797" style="stop-color:#EDD166"/>
		<stop  offset="0.6437" style="stop-color:#EBC844"/>
		<stop  offset="0.6947" style="stop-color:#EBC63C"/>
		<stop  offset="1" style="stop-color:#E7AE17"/>
	</linearGradient>
	<path class="st4" d="M353.8,369.4c3.5-14.5,7.9-27.1,12.6-38.1l-1.2-5.5l-10.6-9.4l-1.2,0.4l-2.4,3.1c-11.4-9.4-17.3-7.9-17.3-7.9
		c-0.4,0-0.8,0-0.8-0.4c0-0.4,0-0.8,0.4-0.8c0,0,0.4,0,1.2-0.4l0,0c5.1-9.4-3.5-17.3-3.5-17.3s4.3-7.5,2-13.7s-9.4-6.7-9.4-6.7
		l4.3-3.1c0,0,9-17.7-12.2-16.9c-21.2,0.8-25.1,23.6-25.1,23.6C275.2,307.8,300,329,300,329c8.6,39.3,47.1,41.6,47.1,41.6
		L353.8,369.4L353.8,369.4z"/>
	<path class="st19" d="M356.1,322.3c-0.4-1.2-1.2-2-2-2.7l0,0l0,0l-0.4-0.4l-0.4-0.4l2-2.4l-3.5-2.7l-2,2l0,0
		c-6.3-4.7-13.7-7.5-13.7-7.5l-1.6,2.4c-0.8,0-1.2,0-1.2,0.4c-0.4,0-0.8,0.4-0.4,0.8c0,0.4,0.4,0.8,0.8,0.4c0,0,7.1-2,21.2,11.4
		l0.4,0.4c0.4,0,0.4,0,0.4-0.4C356.1,323.1,356.1,322.7,356.1,322.3z"/>
	<g class="st20">
		<path class="st21" d="M333.7,312.1c-0.4,0-0.8,0-0.8-0.4c0-0.4,0-0.8,0.4-0.8c0,0,0.4,0,1.2-0.4l0,0l0,0
			c5.1-9.4-3.5-17.3-3.5-17.3s4.3-7.5,2-13.7c-1.6-3.9-4.3-5.5-6.7-6.3l5.9,4.7c0,0,1.2,13.7-12.6,16.1l9.8-0.8l3.1,3.5
			c0,0,0.8,16.1-9.8,23.6c0,0,24.7-0.4,31.4,1.6C340.4,310.1,333.7,312.1,333.7,312.1z"/>
	</g>
	<path class="st19" d="M353.8,370.6L353.8,370.6c0-0.8-0.4-1.2-0.8-1.2c-44.4-1.2-51.4-40.8-51.8-41.2c0,0,0-0.4-0.4-0.4
		c-25.1-22.4-9-51-8.6-51.4V276c0,0,0.8-15.7,17.3-20.8c6.7-2,12.2-1.6,15.3,1.2c2.7,2.4,3.5,6.3,3.1,8.6c-0.4,2.4-3.5,5.5-5.5,7.1
		c-6.7-0.4-14.1,2.4-14.1,2.4l0,0c-1.2,0.4-1.6,0.4-2,0.8c-0.4,0-0.8,0.8-0.4,1.2c0,0.4,0.8,0.8,1.2,0.4c0,0,16.1-5.9,21.2-0.4
		c3.1,3.5,4.3,8.2,3.5,12.2c-0.4,2-1.6,3.5-3.1,4.3c-6.3-1.6-13.3,1.6-13.3,1.6l0,0c-3.1,0.8-5.5,2-5.9,2c-0.4,0-0.4,0.8-0.4,1.2
		s0.8,0.4,1.2,0.4c0,0,17.7-7.9,21.6-0.4c2.4,4.3,2.7,9.4,0.8,13.3c-1.6,3.5-5.1,7.9-13.3,9.8c0-0.4,0,0.4,0,0.8
		c0,0.4,0.4,0.8,0.8,0.8l0,0c1.6-0.4,2.7-0.8,3.9-1.2l0,0c5.5-1.6,8.6-5.5,8.6-5.5c3.5-2.7,7.5-14.5,1.2-20c-0.8-0.4-1.2-1.2-2-1.6
		c5.1-4.7,4.3-13.7-2-19.2c-0.8-0.8-2-1.6-3.1-2c1.6-1.6,2.4-2.7,3.1-3.5l0,0v-0.4l0,0c1.2-2,2-5.1,0.8-8.2
		c-1.2-3.5-3.9-5.5-6.3-6.7c-0.8-0.4-2-0.8-3.5-1.2c-0.4,0-0.8,0-0.8,0c-11-1.6-20.8,4.3-27.1,13c-0.8,0.4-1.2,1.2-1.6,2
		c-1.6,2.7-2.4,6.3-2.7,9.4c-3.5,7.1-13,31.8,10.2,52.2c0,0,9.4,44.4,54.2,43.2l2-2C354.9,370.2,354.5,370.6,353.8,370.6z"/>
</g>
</svg>
