<?xml version="1.0" encoding="utf-8"?>
<!-- Generator: Adobe Illustrator 21.0.0, SVG Export Plug-In . SVG Version: 6.00 Build 0)  -->
<svg version="1.1" id="圖層_1" xmlns="http://www.w3.org/2000/svg" xmlns:xlink="http://www.w3.org/1999/xlink" x="0px" y="0px"
	 viewBox="0 0 46.2 46.2" style="enable-background:new 0 0 46.2 46.2;" xml:space="preserve">
<style type="text/css">
	.st0{opacity:0.76;fill:url(#SVGID_1_);}
	.st1{opacity:0.76;fill:url(#SVGID_2_);}
	.st2{display:none;opacity:0.76;}
	.st3{fill:url(#SVGID_3_);}
	.st4{opacity:0.55;fill:url(#SVGID_4_);}
	.st5{opacity:0.36;fill:url(#SVGID_5_);}
	.st6{opacity:0.73;fill:url(#SVGID_6_);}
	.st7{opacity:0.9;}
	.st8{opacity:0.9;fill:url(#SVGID_7_);}
	.st9{fill:url(#SVGID_8_);}
	.st10{fill:url(#SVGID_9_);}
	.st11{opacity:0.17;fill:url(#SVGID_10_);}
	.st12{fill:url(#SVGID_11_);}
	.st13{fill:url(#SVGID_12_);}
</style>
<g id="分享_2_">
	<g>
		<radialGradient id="SVGID_1_" cx="22.4421" cy="22.9764" r="31.4189" gradientUnits="userSpaceOnUse">
			<stop  offset="0.5568" style="stop-color:#FFFFFF;stop-opacity:0"/>
			<stop  offset="1" style="stop-color:#FFFFFF"/>
		</radialGradient>
		<circle class="st0" cx="23.1" cy="23.1" r="23.1"/>
		<radialGradient id="SVGID_2_" cx="22.4421" cy="22.9764" r="31.4189" gradientUnits="userSpaceOnUse">
			<stop  offset="0.5568" style="stop-color:#FFFFFF;stop-opacity:0"/>
			<stop  offset="1" style="stop-color:#FFFFFF"/>
		</radialGradient>
		<circle class="st1" cx="23.1" cy="23.1" r="23.1"/>
		<g>
			<g class="st2">
				
					<image style="display:inline;overflow:visible;" width="493" height="494" xlink:href="A17ADD4E.png"  transform="matrix(0.24 0 0 0.24 -36.0342 -36.1488)">
				</image>
			</g>
		</g>
		<radialGradient id="SVGID_3_" cx="11.1666" cy="32.1666" r="42.7557" gradientUnits="userSpaceOnUse">
			<stop  offset="0.5568" style="stop-color:#FFFFFF;stop-opacity:0"/>
			<stop  offset="0.9649" style="stop-color:#FFFFFF;stop-opacity:0.96"/>
			<stop  offset="1" style="stop-color:#AAE0F9"/>
		</radialGradient>
		<circle class="st3" cx="23.1" cy="23.1" r="23.1"/>
		<radialGradient id="SVGID_4_" cx="41.9999" cy="6.3333" r="51.5074" gradientUnits="userSpaceOnUse">
			<stop  offset="0.5568" style="stop-color:#00ADEE;stop-opacity:0"/>
			<stop  offset="1" style="stop-color:#AAE0F9"/>
		</radialGradient>
		<circle class="st4" cx="23.1" cy="23.1" r="23.1"/>
		<radialGradient id="SVGID_5_" cx="48.6457" cy="43.125" r="63.4315" gradientUnits="userSpaceOnUse">
			<stop  offset="0.5568" style="stop-color:#00ADEE;stop-opacity:0"/>
			<stop  offset="1" style="stop-color:#8F5FA6"/>
		</radialGradient>
		<circle class="st5" cx="23.1" cy="23.1" r="23.1"/>
		<radialGradient id="SVGID_6_" cx="6.8125" cy="10.2916" r="47.1746" gradientUnits="userSpaceOnUse">
			<stop  offset="0.5568" style="stop-color:#00ADEE;stop-opacity:0"/>
			<stop  offset="1" style="stop-color:#8F5FA6"/>
		</radialGradient>
		<circle class="st6" cx="23.1" cy="23.1" r="23.1"/>
		<g>
			<g>
				<g class="st7">
					
						<image style="overflow:visible;" width="451" height="451" xlink:href="A17ADD52.png"  transform="matrix(0.24 0 0 0.24 -30.9942 -31.1088)">
					</image>
				</g>
			</g>
			<radialGradient id="SVGID_7_" cx="29.5833" cy="37.3333" r="52.7185" gradientUnits="userSpaceOnUse">
				<stop  offset="0" style="stop-color:#6BCBE1"/>
				<stop  offset="1" style="stop-color:#71CDE7"/>
			</radialGradient>
			<circle class="st8" cx="23.1" cy="23.1" r="18"/>
			<radialGradient id="SVGID_8_" cx="12.1458" cy="31.8333" r="34.6522" gradientUnits="userSpaceOnUse">
				<stop  offset="0.3351" style="stop-color:#00AAC0;stop-opacity:0"/>
				<stop  offset="1" style="stop-color:#BDE4EA"/>
			</radialGradient>
			<circle class="st9" cx="23.1" cy="23.1" r="18"/>
			<radialGradient id="SVGID_9_" cx="22.5833" cy="23" r="24.5" gradientUnits="userSpaceOnUse">
				<stop  offset="0.4703" style="stop-color:#93D6E3;stop-opacity:0"/>
				<stop  offset="1" style="stop-color:#C2E6ED"/>
			</radialGradient>
			<circle class="st10" cx="23.1" cy="23.1" r="18"/>
			<radialGradient id="SVGID_10_" cx="32.8125" cy="21.625" r="26.0341" gradientUnits="userSpaceOnUse">
				<stop  offset="0" style="stop-color:#1372B2"/>
				<stop  offset="1" style="stop-color:#00ACE6"/>
			</radialGradient>
			<circle class="st11" cx="23.1" cy="23.1" r="18"/>
			<g>
				<g class="st7">
					
						<image style="overflow:visible;" width="451" height="451" xlink:href="A17ADD55.png"  transform="matrix(0.24 0 0 0.24 -30.9942 -31.1088)">
					</image>
				</g>
			</g>
		</g>
		<g>
			<radialGradient id="SVGID_11_" cx="25.0208" cy="-2.7657" r="48.2733" gradientUnits="userSpaceOnUse">
				<stop  offset="0" style="stop-color:#00ADEE"/>
				<stop  offset="1" style="stop-color:#2A378F"/>
			</radialGradient>
			<path class="st12" d="M23,31c-2.9,0-5.7,0-8.6,0c-1.6,0-2.3-0.7-2.3-2.3c0-3.4,0-6.8,0-10.2c0-1.6,0.7-2.3,2.3-2.3
				c1,0,1.9,0,2.9,0c0.7,0,1.2-0.1,1.3-0.9c0-0.2,0.1-0.3,0.2-0.5c0.3-0.8,0.9-1.2,1.7-1.2c1.6,0,3.2,0,4.7,0c0.9,0,1.5,0.5,1.7,1.3
				c0.3,1,0.8,1.3,1.8,1.2c0.9-0.1,1.8,0,2.8,0c1.4,0,2.1,0.7,2.1,2.1c0,3.5,0,7,0,10.6c0,1.4-0.7,2.1-2.1,2.1L23,31z M23,17.8
				c-3.2,0-5.8,2.6-5.8,5.8c0,3.2,2.7,5.8,5.9,5.8c3.2,0,5.8-2.7,5.8-5.9C28.8,20.4,26.2,17.8,23,17.8z M14.9,19.6
				c0.6,0,1.2,0.1,1.2-0.8c0-0.8-0.5-0.8-1-0.8c-0.5,0-1.1-0.2-1.2,0.7C13.9,19.6,14.4,19.6,14.9,19.6z"/>
			<radialGradient id="SVGID_12_" cx="25.0208" cy="-2.7657" r="48.2733" gradientUnits="userSpaceOnUse">
				<stop  offset="0" style="stop-color:#00ADEE"/>
				<stop  offset="1" style="stop-color:#2A378F"/>
			</radialGradient>
			<path class="st13" d="M19.1,23.6c0-2.2,1.7-3.9,3.9-3.9c2.1,0,3.9,1.7,3.9,3.9c0,2.2-1.7,3.9-3.9,3.9
				C20.9,27.5,19.1,25.8,19.1,23.6z"/>
		</g>
	</g>
</g>
</svg>
