<?xml version="1.0" encoding="utf-8"?>
<!-- Generator: Adobe Illustrator 21.0.0, SVG Export Plug-In . SVG Version: 6.00 Build 0)  -->
<svg version="1.1" id="圖層_1" xmlns="http://www.w3.org/2000/svg" xmlns:xlink="http://www.w3.org/1999/xlink" x="0px" y="0px"
	 viewBox="0 0 90.3 33.9" style="enable-background:new 0 0 90.3 33.9;" xml:space="preserve">
<style type="text/css">
	.st0{fill:url(#SVGID_1_);}
	.st1{fill:url(#SVGID_2_);}
	.st2{fill:url(#SVGID_3_);}
	.st3{fill:url(#SVGID_4_);}
	.st4{fill:url(#SVGID_5_);}
	.st5{fill:url(#SVGID_6_);}
	.st6{fill:#D4EEF8;}
	.st7{fill:#3F3E3E;}
	.st8{fill:url(#SVGID_7_);}
	.st9{fill:url(#SVGID_8_);}
	.st10{fill:url(#SVGID_9_);}
	.st11{fill:url(#SVGID_10_);}
	.st12{fill:url(#SVGID_11_);}
	.st13{display:none;}
	.st14{display:inline;fill:url(#SVGID_12_);}
	.st15{display:inline;fill:url(#SVGID_13_);}
	.st16{display:inline;fill:url(#SVGID_14_);}
	.st17{display:inline;fill:url(#SVGID_15_);}
	.st18{display:inline;fill:url(#SVGID_16_);}
</style>
<g>
	<g>
		<g>
			<linearGradient id="SVGID_1_" gradientUnits="userSpaceOnUse" x1="-2.3638" y1="16.9624" x2="11.2274" y2="16.9624">
				<stop  offset="0" style="stop-color:#25A9E0"/>
				<stop  offset="1" style="stop-color:#FFFFFF;stop-opacity:0"/>
			</linearGradient>
			<path class="st0" d="M89.8,30.4c0,1.7-0.8,3-1.8,3H2.8c-1,0-1.8-1.4-1.8-3V3.5c0-1.7,0.8-3,1.8-3h85.1c1,0,1.8,1.4,1.8,3V30.4z"
				/>
			<linearGradient id="SVGID_2_" gradientUnits="userSpaceOnUse" x1="94.9357" y1="16.9624" x2="72.2559" y2="16.9624">
				<stop  offset="0" style="stop-color:#25A9E0"/>
				<stop  offset="1" style="stop-color:#FFFFFF;stop-opacity:0"/>
			</linearGradient>
			<path class="st1" d="M89.8,30.4c0,1.7-0.8,3-1.8,3H2.8c-1,0-1.8-1.4-1.8-3V3.5c0-1.7,0.8-3,1.8-3h85.1c1,0,1.8,1.4,1.8,3V30.4z"
				/>
			<linearGradient id="SVGID_3_" gradientUnits="userSpaceOnUse" x1="45.3799" y1="39.8106" x2="45.3799" y2="18.6579">
				<stop  offset="0" style="stop-color:#25A9E0"/>
				<stop  offset="1" style="stop-color:#FFFFFF;stop-opacity:0"/>
			</linearGradient>
			<path class="st2" d="M89.8,30.4c0,1.7-0.8,3-1.8,3H2.8c-1,0-1.8-1.4-1.8-3V3.5c0-1.7,0.8-3,1.8-3h85.1c1,0,1.8,1.4,1.8,3V30.4z"
				/>
			<linearGradient id="SVGID_4_" gradientUnits="userSpaceOnUse" x1="45.3799" y1="-3.8279" x2="45.3799" y2="6.2788">
				<stop  offset="6.060610e-03" style="stop-color:#25A9E0"/>
				<stop  offset="1" style="stop-color:#FFFFFF;stop-opacity:0"/>
			</linearGradient>
			<path class="st3" d="M89.8,30.4c0,1.7-0.8,3-1.8,3H2.8c-1,0-1.8-1.4-1.8-3V3.5c0-1.7,0.8-3,1.8-3h85.1c1,0,1.8,1.4,1.8,3V30.4z"
				/>
			
				<radialGradient id="SVGID_5_" cx="901.8848" cy="-2.3032" r="43.9255" gradientTransform="matrix(0.6009 0 0 1 -439.761 0)" gradientUnits="userSpaceOnUse">
				<stop  offset="0" style="stop-color:#00ADEE"/>
				<stop  offset="1" style="stop-color:#FFFFFF;stop-opacity:0"/>
			</radialGradient>
			<path class="st4" d="M89.8,30.4c0,1.7-0.8,3-1.8,3H2.8c-1,0-1.8-1.4-1.8-3V3.5c0-1.7,0.8-3,1.8-3h85.1c1,0,1.8,1.4,1.8,3V30.4z"
				/>
			
				<radialGradient id="SVGID_6_" cx="723.3818" cy="38.6677" r="49.2916" gradientTransform="matrix(0.6009 0 0 1 -439.761 0)" gradientUnits="userSpaceOnUse">
				<stop  offset="0" style="stop-color:#00ADEE"/>
				<stop  offset="1" style="stop-color:#FFFFFF;stop-opacity:0"/>
			</radialGradient>
			<path class="st5" d="M89.8,30.4c0,1.7-0.8,3-1.8,3H2.8c-1,0-1.8-1.4-1.8-3V3.5c0-1.7,0.8-3,1.8-3h85.1c1,0,1.8,1.4,1.8,3V30.4z"
				/>
		</g>
		<g>
			<g>
				<path class="st6" d="M87.9,0.5c1,0,1.8,1.4,1.8,3v26.9c0,1.7-0.8,3-1.8,3H2.8c-1,0-1.8-1.4-1.8-3V3.5c0-1.7,0.8-3,1.8-3H87.9
					 M87.9,0H2.8C1.5,0,0.5,1.5,0.5,3.5v26.9c0,2,1,3.5,2.3,3.5h85.1c1.3,0,2.3-1.5,2.3-3.5V3.5C90.3,1.5,89.2,0,87.9,0L87.9,0z"/>
			</g>
			<g>
				<path class="st6" d="M87.9,0.5c1,0,1.8,1.4,1.8,3v26.9c0,1.7-0.8,3-1.8,3H2.8c-1,0-1.8-1.4-1.8-3V3.5c0-1.7,0.8-3,1.8-3H87.9
					 M87.9,0H2.8C1.5,0,0.5,1.5,0.5,3.5v26.9c0,2,1,3.5,2.3,3.5h85.1c1.3,0,2.3-1.5,2.3-3.5V3.5C90.3,1.5,89.2,0,87.9,0L87.9,0z"/>
			</g>
			<g>
				<path class="st6" d="M87.9,0.5c1,0,1.8,1.4,1.8,3v26.9c0,1.7-0.8,3-1.8,3H2.8c-1,0-1.8-1.4-1.8-3V3.5c0-1.7,0.8-3,1.8-3H87.9
					 M87.9,0H2.8C1.5,0,0.5,1.5,0.5,3.5v26.9c0,2,1,3.5,2.3,3.5h85.1c1.3,0,2.3-1.5,2.3-3.5V3.5C90.3,1.5,89.2,0,87.9,0L87.9,0z"/>
			</g>
			<g>
				<path class="st6" d="M87.9,0.5c1,0,1.8,1.4,1.8,3v26.9c0,1.7-0.8,3-1.8,3H2.8c-1,0-1.8-1.4-1.8-3V3.5c0-1.7,0.8-3,1.8-3H87.9
					 M87.9,0H2.8C1.5,0,0.5,1.5,0.5,3.5v26.9c0,2,1,3.5,2.3,3.5h85.1c1.3,0,2.3-1.5,2.3-3.5V3.5C90.3,1.5,89.2,0,87.9,0L87.9,0z"/>
			</g>
			<g>
				<path class="st6" d="M87.9,0.5c1,0,1.8,1.4,1.8,3v26.9c0,1.7-0.8,3-1.8,3H2.8c-1,0-1.8-1.4-1.8-3V3.5c0-1.7,0.8-3,1.8-3H87.9
					 M87.9,0H2.8C1.5,0,0.5,1.5,0.5,3.5v26.9c0,2,1,3.5,2.3,3.5h85.1c1.3,0,2.3-1.5,2.3-3.5V3.5C90.3,1.5,89.2,0,87.9,0L87.9,0z"/>
			</g>
			<g>
				<path class="st6" d="M87.9,0.5c1,0,1.8,1.4,1.8,3v26.9c0,1.7-0.8,3-1.8,3H2.8c-1,0-1.8-1.4-1.8-3V3.5c0-1.7,0.8-3,1.8-3H87.9
					 M87.9,0H2.8C1.5,0,0.5,1.5,0.5,3.5v26.9c0,2,1,3.5,2.3,3.5h85.1c1.3,0,2.3-1.5,2.3-3.5V3.5C90.3,1.5,89.2,0,87.9,0L87.9,0z"/>
			</g>
		</g>
		<g>
			<path class="st7" d="M88.9,29c0,1.6-0.8,2.9-1.7,2.9H3.6c-0.9,0-1.7-1.3-1.7-2.9V4.9C1.9,3.3,2.7,2,3.6,2h83.6
				c0.9,0,1.7,1.3,1.7,2.9V29z"/>
			<g>
				<linearGradient id="SVGID_7_" gradientUnits="userSpaceOnUse" x1="45.3946" y1="-14.1767" x2="45.3946" y2="8.6212">
					<stop  offset="0" style="stop-color:#00ADEE"/>
					<stop  offset="1" style="stop-color:#00ADEE;stop-opacity:0"/>
				</linearGradient>
				<path class="st8" d="M88.9,29c0,1.6-0.8,2.9-1.7,2.9H3.6c-0.9,0-1.7-1.3-1.7-2.9V4.9C1.9,3.3,2.7,2,3.6,2h83.6
					c0.9,0,1.7,1.3,1.7,2.9V29z"/>
				<linearGradient id="SVGID_8_" gradientUnits="userSpaceOnUse" x1="45.3946" y1="48.156" x2="45.3946" y2="20.0991">
					<stop  offset="0" style="stop-color:#00ADEE"/>
					<stop  offset="1" style="stop-color:#00ADEE;stop-opacity:0"/>
				</linearGradient>
				<path class="st9" d="M88.9,29c0,1.6-0.8,2.9-1.7,2.9H3.6c-0.9,0-1.7-1.3-1.7-2.9V4.9C1.9,3.3,2.7,2,3.6,2h83.6
					c0.9,0,1.7,1.3,1.7,2.9V29z"/>
				
					<radialGradient id="SVGID_9_" cx="899.5289" cy="-51.521" r="96.7605" gradientTransform="matrix(0.6009 0 0 1 -439.761 0)" gradientUnits="userSpaceOnUse">
					<stop  offset="0" style="stop-color:#00ADEE"/>
					<stop  offset="1" style="stop-color:#00ADEE;stop-opacity:0"/>
				</radialGradient>
				<path class="st10" d="M88.9,29c0,1.6-0.8,2.9-1.7,2.9H3.6c-0.9,0-1.7-1.3-1.7-2.9V4.9C1.9,3.3,2.7,2,3.6,2h83.6
					c0.9,0,1.7,1.3,1.7,2.9V29z"/>
				
					<radialGradient id="SVGID_10_" cx="708.8677" cy="20.9718" r="36.8223" gradientTransform="matrix(0.6009 0 0 1 -439.761 0)" gradientUnits="userSpaceOnUse">
					<stop  offset="0" style="stop-color:#00ADEE"/>
					<stop  offset="1" style="stop-color:#00ADEE;stop-opacity:0"/>
				</radialGradient>
				<path class="st11" d="M88.9,29c0,1.6-0.8,2.9-1.7,2.9H3.6c-0.9,0-1.7-1.3-1.7-2.9V4.9C1.9,3.3,2.7,2,3.6,2h83.6
					c0.9,0,1.7,1.3,1.7,2.9V29z"/>
				
					<radialGradient id="SVGID_11_" cx="905.5604" cy="19.3242" r="39.5518" gradientTransform="matrix(0.6009 0 0 1 -439.761 0)" gradientUnits="userSpaceOnUse">
					<stop  offset="0" style="stop-color:#00ADEE"/>
					<stop  offset="1" style="stop-color:#00ADEE;stop-opacity:0"/>
				</radialGradient>
				<path class="st12" d="M88.9,29c0,1.6-0.8,2.9-1.7,2.9H3.6c-0.9,0-1.7-1.3-1.7-2.9V4.9C1.9,3.3,2.7,2,3.6,2h83.6
					c0.9,0,1.7,1.3,1.7,2.9V29z"/>
			</g>
			<g class="st13">
				<linearGradient id="SVGID_12_" gradientUnits="userSpaceOnUse" x1="45.3946" y1="-14.1767" x2="45.3946" y2="8.6212">
					<stop  offset="0" style="stop-color:#00ADEE"/>
					<stop  offset="1" style="stop-color:#00ADEE;stop-opacity:0"/>
				</linearGradient>
				<path class="st14" d="M88.9,29c0,1.6-0.8,2.9-1.7,2.9H3.6c-0.9,0-1.7-1.3-1.7-2.9V4.9C1.9,3.3,2.7,2,3.6,2h83.6
					c0.9,0,1.7,1.3,1.7,2.9V29z"/>
				<linearGradient id="SVGID_13_" gradientUnits="userSpaceOnUse" x1="45.3946" y1="48.156" x2="45.3946" y2="20.0991">
					<stop  offset="0" style="stop-color:#00ADEE"/>
					<stop  offset="1" style="stop-color:#00ADEE;stop-opacity:0"/>
				</linearGradient>
				<path class="st15" d="M88.9,29c0,1.6-0.8,2.9-1.7,2.9H3.6c-0.9,0-1.7-1.3-1.7-2.9V4.9C1.9,3.3,2.7,2,3.6,2h83.6
					c0.9,0,1.7,1.3,1.7,2.9V29z"/>
				
					<radialGradient id="SVGID_14_" cx="899.5289" cy="-51.521" r="96.7605" gradientTransform="matrix(0.6009 0 0 1 -439.761 0)" gradientUnits="userSpaceOnUse">
					<stop  offset="0" style="stop-color:#00ADEE"/>
					<stop  offset="1" style="stop-color:#00ADEE;stop-opacity:0"/>
				</radialGradient>
				<path class="st16" d="M88.9,29c0,1.6-0.8,2.9-1.7,2.9H3.6c-0.9,0-1.7-1.3-1.7-2.9V4.9C1.9,3.3,2.7,2,3.6,2h83.6
					c0.9,0,1.7,1.3,1.7,2.9V29z"/>
				
					<radialGradient id="SVGID_15_" cx="708.8677" cy="20.9718" r="36.8223" gradientTransform="matrix(0.6009 0 0 1 -439.761 0)" gradientUnits="userSpaceOnUse">
					<stop  offset="0" style="stop-color:#00ADEE"/>
					<stop  offset="1" style="stop-color:#00ADEE;stop-opacity:0"/>
				</radialGradient>
				<path class="st17" d="M88.9,29c0,1.6-0.8,2.9-1.7,2.9H3.6c-0.9,0-1.7-1.3-1.7-2.9V4.9C1.9,3.3,2.7,2,3.6,2h83.6
					c0.9,0,1.7,1.3,1.7,2.9V29z"/>
				
					<radialGradient id="SVGID_16_" cx="905.5604" cy="19.3242" r="39.5518" gradientTransform="matrix(0.6009 0 0 1 -439.761 0)" gradientUnits="userSpaceOnUse">
					<stop  offset="0" style="stop-color:#00ADEE"/>
					<stop  offset="1" style="stop-color:#00ADEE;stop-opacity:0"/>
				</radialGradient>
				<path class="st18" d="M88.9,29c0,1.6-0.8,2.9-1.7,2.9H3.6c-0.9,0-1.7-1.3-1.7-2.9V4.9C1.9,3.3,2.7,2,3.6,2h83.6
					c0.9,0,1.7,1.3,1.7,2.9V29z"/>
			</g>
		</g>
	</g>
</g>
</svg>
