<?xml version="1.0" encoding="utf-8"?>
<!-- Generator: Adobe Illustrator 21.0.0, SVG Export Plug-In . SVG Version: 6.00 Build 0)  -->
<svg version="1.1" id="圖層_1" xmlns="http://www.w3.org/2000/svg" xmlns:xlink="http://www.w3.org/1999/xlink" x="0px" y="0px"
	 viewBox="0 0 248.9 223.9" style="enable-background:new 0 0 248.9 223.9;" xml:space="preserve">
<style type="text/css">
	.st0{fill:#814323;}
	.st1{fill:#FFFFFF;}
	.st2{fill:#3A1D13;}
	.st3{fill:#3F210E;}
</style>
<g>
	<g>
		<path class="st0" d="M100.3,128.9c0,0-24.2-0.9-46.7,5.7l0.4,1.1C54,135.7,77.7,129.8,100.3,128.9z"/>
		<g>
			<g>
				<path class="st0" d="M51.1,135.5l-1.3,1.8c2.2-1.2,4.9-1.8,4.9-1.8l-0.4-1h-0.2l0,0c-17.8-49.4,51.5-59.9,45.5-5.5
					C109,71.8,34,80.9,51.1,135.5z"/>
			</g>
		</g>
		<ellipse class="st0" cx="80.6" cy="113.2" rx="9.3" ry="12.6"/>
		<ellipse class="st0" cx="170.1" cy="113.2" rx="9.3" ry="12.6"/>
		<path class="st1" d="M135.8,136.2h-21.7c-77.2,0-101.1,38.3-101.2,38.5c0.7,1.2,1.4,2.4,2.2,3.6c19.3,29.5,57.9,40.9,91.8,44.2
			c4.7,0.5,9.3,0.7,14,0.8c27.4,0.5,55.1-5.2,79.3-18.1c14.4-7.7,27.8-17.5,36.6-30.7C234.9,171.4,209.8,136.2,135.8,136.2z"/>
		<ellipse class="st2" cx="80.6" cy="113.2" rx="9.3" ry="12.6"/>
		<ellipse class="st2" cx="170.1" cy="113.2" rx="9.3" ry="12.6"/>
		<circle class="st1" cx="71.7" cy="104.8" r="6.3"/>
		<circle class="st1" cx="162.5" cy="104.8" r="6.3"/>
		<g>
			<path class="st3" d="M70.2,84.6c-2.2,0-4.3-0.4-6.1-1.1c-2.7-1.1-4.3-2.8-4.6-4.9l0,0c-0.6-4.2,4.6-8.5,11.7-9.5
				c3.4-0.5,6.7-0.2,9.3,0.9c2.7,1.1,4.3,2.8,4.6,4.9c0.3,2.1-0.8,4.2-3,6c-2.2,1.7-5.3,3-8.6,3.5C72.2,84.5,71.2,84.6,70.2,84.6z
				 M74.2,69.8c-1,0-2,0.1-3,0.2c-6.5,1-11.4,4.7-10.8,8.4l0,0c0.3,1.7,1.7,3.2,4,4.1c2.4,1,5.5,1.3,8.7,0.8s6.1-1.6,8.1-3.3
				c2-1.6,2.9-3.4,2.7-5.1c-0.3-1.7-1.7-3.2-4-4.1C78.3,70.2,76.3,69.8,74.2,69.8z"/>
			<path class="st3" d="M180.5,84.6c-1,0-2-0.1-3.1-0.2c-3.4-0.5-6.4-1.7-8.6-3.5c-2.3-1.8-3.4-4-3-6c0.6-4.2,6.9-6.8,13.9-5.8
				c3.4,0.5,6.4,1.7,8.6,3.5c2.3,1.8,3.4,4,3,6l0,0C190.8,82.2,186.2,84.6,180.5,84.6z M176.5,69.8c-5.2,0-9.3,2.1-9.8,5.1
				c-0.3,1.7,0.7,3.5,2.7,5.1c2.1,1.6,5,2.8,8.1,3.3c6.5,1,12.2-1.3,12.8-4.9l0.5,0.1l-0.5-0.1c0.3-1.7-0.7-3.5-2.7-5.1
				c-2.1-1.6-5-2.8-8.1-3.3C178.5,69.9,177.4,69.8,176.5,69.8z"/>
			<path class="st3" d="M122.7,133c0,0,6.6-0.1,9.6,0.4c3,0.6,5.7,1.8,3.4,5.3c-2.8,4.1-10.4,6.4-10.4,6.4s-7.6-2.3-10.4-6.4
				c-2.4-3.5,0.3-4.8,3.4-5.3c3-0.6,9.6-0.4,9.6-0.4"/>
			<path class="st3" d="M57.3,97.6c0,0-5.1,0.5-9.8-1.9c0,0,2.4,7.1,5.8,7.7l3.1-2.6L57.3,97.6z"/>
			<path class="st3" d="M192.7,97.6c0,0,5.1,0.5,9.8-1.9c0,0-2.4,7.1-5.8,7.7l-3.1-2.6L192.7,97.6z"/>
			<path class="st3" d="M103.8,169.4c-2.2,0-4.6-0.2-7.3-0.6c-15.7-2.4-16.7-10.2-16.7-10.5c0-0.4,0.2-0.7,0.6-0.7s0.7,0.2,0.7,0.6
				c0,0.1,1.1,7.1,15.7,9.4c15,2.3,22.5-2.7,28.2-7.5c0.3-0.2,0.7-0.2,0.9,0.1c0.2,0.3,0.2,0.7-0.1,0.9
				C120.5,165.5,114.1,169.4,103.8,169.4z"/>
			<path class="st3" d="M146.9,169.4c-10.4,0-16.7-3.9-22-8.4c-0.3-0.2-0.3-0.6-0.1-0.9c0.2-0.3,0.6-0.3,0.9-0.1
				c5.8,4.8,13.2,9.8,28.2,7.5c14.6-2.2,15.7-9.3,15.7-9.4c0-0.3,0.4-0.6,0.7-0.6s0.6,0.4,0.6,0.7s-1.1,8.1-16.7,10.5
				C151.6,169.2,149.2,169.4,146.9,169.4z"/>
			<path class="st3" d="M125.3,161.2c-0.4,0-0.6-0.3-0.6-0.6v-14.4c0-0.3,0.3-0.6,0.6-0.6c0.4,0,0.6,0.3,0.6,0.6v14.4
				C126,160.9,125.7,161.2,125.3,161.2z"/>
			<path class="st3" d="M126,158.8c0,0,0.1,1.7,2,3h-0.3l-1.9-0.8l-0.3-0.7L126,158.8z"/>
			<path class="st3" d="M124.7,158.8c0,0-0.1,1.7-2,3h0.3l1.9-0.8l0.3-0.7L124.7,158.8z"/>
			<path class="st3" d="M114.8,146.2C114.7,146.2,114.7,146.2,114.8,146.2l-18-2.5c-0.2,0-0.4-0.2-0.4-0.5c0-0.2,0.2-0.4,0.5-0.4
				l17.9,2.5c0.2,0,0.4,0.2,0.4,0.5C115.2,146.1,115,146.2,114.8,146.2z"/>
			<path class="st3" d="M97.7,155.9c-0.2,0-0.4-0.1-0.4-0.3c-0.1-0.2,0.1-0.5,0.3-0.5l17.1-3.9c0.2-0.1,0.5,0.1,0.5,0.3
				c0.1,0.2-0.1,0.5-0.3,0.5L97.7,155.9L97.7,155.9z"/>
			<path class="st3" d="M135.9,146.2c-0.2,0-0.4-0.2-0.4-0.4s0.1-0.4,0.4-0.5l17.9-2.5c0.2,0,0.4,0.1,0.5,0.4c0,0.2-0.1,0.4-0.4,0.5
				L135.9,146.2C136,146.2,135.9,146.2,135.9,146.2z"/>
			<path class="st3" d="M153,155.9L153,155.9l-17.2-3.9c-0.2-0.1-0.4-0.3-0.3-0.5c0.1-0.2,0.3-0.4,0.5-0.3l17.1,3.9
				c0.2,0.1,0.4,0.3,0.3,0.5C153.4,155.8,153.2,155.9,153,155.9z"/>
			<path class="st3" d="M65.2,133.1c-0.2,0-0.4-0.1-0.5-0.3c-6-9-6.2-22.5-0.6-31.5c4.4-6.9,11.4-10.1,19.7-9c0.3,0,0.6,0.4,0.5,0.7
				c0,0.3-0.4,0.6-0.7,0.5c-7.8-1.1-14.4,1.9-18.5,8.4c-5.4,8.6-5.2,21.6,0.5,30.1c0.2,0.3,0.1,0.7-0.2,0.9
				C65.4,133.1,65.3,133.1,65.2,133.1z"/>
			<path class="st3" d="M100.3,128.9c0,0-24.2-0.9-46.7,5.7l0.4,1.1C54,135.7,77.7,129.8,100.3,128.9z"/>
			<g>
				<g>
					<path class="st3" d="M51.1,135.5l-1.3,1.8c2.2-1.2,4.9-1.8,4.9-1.8l-0.4-1h-0.2l0,0c-17.8-49.4,51.5-59.9,45.5-5.5
						C109,71.8,34,80.9,51.1,135.5z"/>
				</g>
			</g>
			<path class="st3" d="M185.5,133.1c-0.1,0-0.2,0-0.4-0.1c-0.3-0.2-0.4-0.6-0.2-0.9c5.7-8.6,5.9-21.5,0.5-30.1
				c-4.1-6.5-10.6-9.5-18.5-8.4c-0.3,0-0.7-0.2-0.7-0.5s0.2-0.7,0.5-0.7c8.3-1.1,15.3,2.1,19.7,9c5.6,9,5.4,22.5-0.6,31.5
				C185.9,133,185.7,133.1,185.5,133.1z"/>
			<path class="st3" d="M150.4,128.9c0,0,24.2-0.9,46.7,5.7l-0.4,1.1C196.7,135.7,173,129.8,150.4,128.9z"/>
			<g>
				<g>
					<path class="st3" d="M151,128.9c-5.9-54.4,63.3-43.8,45.5,5.5l0,0h-0.2l-0.4,1c0,0,2.7,0.7,4.9,1.8l-1.3-1.8
						C216.7,80.9,141.7,71.8,151,128.9z"/>
				</g>
			</g>
			<path class="st3" d="M57.1,97.8c0,0-2.9,1.4-7.3-0.8c0,0,2.8,5.3,4.9,5L57.1,97.8z"/>
			<path class="st3" d="M193.4,97.8c0,0,2.9,1.4,7.3-0.8c0,0-2.8,5.3-4.9,5L193.4,97.8z"/>
			<g>
				<path class="st3" d="M39.1,52.5C39.1,52.5,39,52.5,39.1,52.5l-1.3-0.2c-4-0.6-7.4-1.1-11-3.6c-4.2-2.9-7.1-7.1-8-11.5
					c-1-5,0.6-10.1,4.2-13.2c5-4.3,13.5-4.6,18.9-0.7c4.8,3.5,9,9.9,10.9,16.8c0,0.1,0,0.3-0.1,0.4c0,0.1-0.1,0.2-0.2,0.3
					c-0.1,0.2-0.2,0.3-0.3,0.4l0,0L39.4,52.4C39.3,52.5,39.2,52.5,39.1,52.5z M33,21.4c-3.4,0-6.9,1.1-9.4,3.3
					c-3.3,2.8-4.8,7.7-3.9,12.3c0.9,4.2,3.6,8.2,7.6,11c3.4,2.4,6.6,2.9,10.6,3.5l1.1,0.2l12.6-11.1c0-0.1,0.1-0.2,0.2-0.3
					c0-0.1,0.1-0.1,0.1-0.2C50,33.5,46,27.3,41.4,24C39,22.3,36,21.4,33,21.4z"/>
				<path class="st3" d="M211.6,52.5c-0.1,0-0.2,0-0.3-0.1l-12.8-11.2l0,0c-0.1-0.1-0.2-0.2-0.3-0.4c-0.1-0.1-0.2-0.2-0.2-0.3
					c-0.1-0.1-0.1-0.3-0.1-0.4c1.9-6.8,6.1-13.3,10.9-16.8c5.4-3.9,13.8-3.6,18.9,0.7c3.5,3,5.2,8.2,4.2,13.2
					c-0.9,4.4-3.8,8.6-8,11.5c-3.6,2.5-7,3-11,3.6L211.6,52.5L211.6,52.5z M199.1,40.6l12.6,11.1l1.1-0.2c4-0.6,7.2-1.1,10.6-3.5
					c4-2.8,6.8-6.8,7.6-11c1-4.7-0.6-9.5-3.9-12.3c-4.7-4-12.7-4.4-17.8-0.7c-4.6,3.4-8.7,9.5-10.5,16.1c0,0.1,0.1,0.1,0.1,0.2
					C199,40.4,199.1,40.5,199.1,40.6z"/>
				<path class="st3" d="M226.9,66c-1.4-2-2.9-3.9-4.4-5.8c3.2-0.5,5.7-1.3,5.7-1.3c0.4-0.2,0.7-0.3,1.1-0.5
					c7.8-3.8,13.8-10.2,16.1-18.4c2.5-7,1.8-14.9-1.2-21.6c-6-13.2-21.4-19.6-35.2-18.2c-2.6,0.3-5.1,0.8-7.6,1.6
					c-0.3,0.1-0.7,0.3-1,0.5c-0.5,0.2-1.1,0.4-1.6,0.7c-10.2,4.6-17.7,14.4-18.4,23.6l-7-2.8c-7.8-3.1-16.6-4.4-24.9-5.4
					c-8.8-1.1-17.7-1.4-26.6-1.1c-0.3,0-0.5,0-0.8,0c-1.2,0.1-2.4,0.1-3.5,0.2c-8.4,0.6-16.7,2-24.9,4c-5.4,1.3-10.5,3.4-15.7,5.3
					h-0.1l0,0c-2.3,0.9-5.3,2.2-6.6,2.8c0.7-7.5-3.5-16-10.8-22l0,0c0,0,0,0-0.1,0C59,7.3,58.6,7,58.3,6.7c-0.2-0.2-0.4-0.3-0.4-0.4
					c-0.6-0.4-1.2-0.9-1.8-1.3c-1.2-0.8-2.5-1.6-3.9-2.2c-1.3-0.6-2.6-1.2-3.9-1.5c-1.9-0.6-3.9-0.9-6-1.1
					c-13.8-1.4-29.2,5-35.1,18.2c-1.7,3.9-2.7,8.1-2.7,12.3c0,0-0.6,10.1,6.1,18.7c1.6,2.1,3.1,3.6,3.9,4.4
					c1.6,1.6,6.5,5.1,11.4,6.5c-6.4,7.6-38,48.3-20.8,97.9c0,0-0.2-0.9-0.5-2.5c0.7,2.8,1.6,5.5,2.6,8.2c1.9,5.2,4.4,10.1,7.3,14.6
					C35,209.8,76,220,106.8,223c4.7,0.5,9.4,0.7,14.1,0.8c1.2,0,2.4,0,3.6,0c27.5,0,53.7-6.3,76.1-18.2
					c25.7-13.7,40.7-30.4,45.8-51.1C253.3,126.2,246.1,93.1,226.9,66z M238.6,163.5C217.9,209,139,231.3,74,215.9
					c-22.5-6.2-45-17.5-58.4-38c-2.9-4.5-5.3-9.3-7.2-14.3C-4.1,129.7,4.2,90.7,30.1,61.7c0.6-0.7,1.2-1.4,1.9-2c0.2,0,0.4,0,0.6,0
					c3,0,6-0.5,9-1.6c0.3-0.1,0.5-0.5,0.4-0.8s-0.5-0.5-0.8-0.4c-11.1,4-22.7,0-29.6-10.2C6,38.6,3.3,25,13.5,13.5
					c6.3-6.3,12.4-9.6,18-11.1c0.9-0.2,1.7-0.4,2.7-0.6c9-1.5,16.3,1.5,20,3.6c10.6,6,16.9,17.3,14.6,26.3c0,0,0,0,0,0.1
					s0,0.1,0,0.2v0.1v0.1c0,0.1,0.1,0.2,0.2,0.2l0,0l0.1,0.1h0.1c0,0,0,0,0.1,0s0.1,0,0.2-0.1c0,0,0,0,0.1,0
					c3.5-1.7,7.1-3.2,10.8-4.5l4.8-1.7c15.9-4.5,32.6-6.2,49.2-5.7c10,0.3,19.9,1.3,29.7,3.3c3.2,0.7,6.3,1.8,9.5,2.9
					c2.4,0.9,4.7,1.8,7,2.9c0.2,0.1,0.4,0.1,0.5,0l0,0c0.1,0,0.1-0.1,0.1-0.1s0-0.1,0.1-0.1c0,0,0,0,0.1-0.1c0-0.1,0-0.1,0-0.2V29
					l0,0c-0.6-9.4,7.1-20.1,17.7-24.8c12.5-5.6,26.3-2.2,37.9,9.3c10.3,11.5,7.5,25.1,2,33.2c-6.9,10.2-18.6,14.2-29.6,10.2
					c-0.3-0.1-0.7,0.1-0.8,0.4c-0.1,0.3,0.1,0.7,0.4,0.8c0.1,0.1,0.3,0.1,0.4,0.1c2.6,2.5,7.4,2.7,11.5,2.2
					C226.2,67.9,259.1,118.3,238.6,163.5z"/>
			</g>
		</g>
	</g>
	<g>
		<path class="st3" d="M167.7,53.8c1.4,0.8,2.9,1.6,4.5,2.2c3.3,1.3,6.8,1.2,11.1-0.1c-0.2-0.1-0.5-0.3-0.7-0.4
			c-0.8-0.5-1.6-1.1-2.4-1.6c-2.7-2-4.7-4.1-6-6.4c-1.9-3.4-3.4-7-4.4-10.9l-0.2-1c-0.5-1.9-1-3.8-1.6-5.7c-1-3.1-2.1-5.9-3.1-8.4
			c-1.1-2.6-2.8-5.3-5-8c-0.2-0.2-0.4-0.5-0.6-0.7c-0.9-1.1-1.8-2.2-2.9-3c-1.9-1.4-3.6-2.3-5.4-2.8c-1.7-0.6-3.5-1.1-5.4-0.9
			c-0.2,0-0.5,0-0.7-0.2c-0.8-0.4-1.5-0.8-2.2-1.2c-3.6-2-7.8-3.1-12.7-3.4c-2.1-0.1-4.4,0-6.9,0.2c-1.8,0.2-3.8,0.6-5.7,1.2
			c-1.7,0.5-3.6,1.3-4.9,3.2c-0.1,0.2-0.5,0.3-0.8,0.2C111.3,6,111,6,110.6,5.9c-0.6-0.1-1.3-0.3-1.9-0.3c-3.3-0.2-6.3,0.7-9.1,2.6
			c-2.1,1.4-4,3.3-6.1,5.9c-2.3,2.9-4,5.7-5.1,8.5c-0.7,1.9-1.4,3.9-1.9,5.9c-0.6,2.1-1.1,4.5-1.5,7.2c-0.4,2.2-0.3,4.3-0.1,6
			c0.3,3.4,0.7,6.4,2,9.2c2.4,5.1,5.7,9,10.1,11.7h0.1c-1.2-3.7-1.5-7.5-1.7-11.2c0-0.7-0.1-1.4-0.2-2.1V49l0.3,0.1
			c0.2,0,0.3,0.2,0.3,0.2c0.5,0.5,1,1,1.5,1.6c1.2,1.2,2.3,2.4,3.6,3.5c3,2.5,6.4,4.2,9.3,5.5c6.1,2.8,12.6,4.4,19.4,4.7
			c2.1,0.1,4.2,0,6.3,0c0.8,0,1.7-0.1,2.5-0.1c0.6,0,1.3,0,1.9-0.1c0.9,0,1.9-0.1,2.8-0.1c0.6,0,1.2,0,1.8,0c2,0.1,3.9,0.7,5.7,1.7
			c-0.6-1.1-1.4-1.9-2.7-2.6l-0.3-0.1l0.2-0.2c0,0,0-0.1,0.1-0.1c0-0.1,0.1-0.1,0.2-0.2c0.2-0.1,0.4-0.1,0.6-0.2
			c0.5-0.1,0.9-0.2,1.2-0.7c0.1-0.2,0.3-0.1,0.5-0.1h0.1c0.6,0.1,1.2,0.2,1.8,0.2c1.3,0.2,2.7,0.4,4,0.5c0.9,0.1,1.9,0.1,2.8,0.1
			h0.4c3,0.1,6,0.1,8.9,0.1l0,0h0.1v-0.1c-1.3-1.3-1.8-3-2.2-4.7c-0.1-0.3-0.2-0.7-0.3-1c-0.2-0.8-0.3-1.6-0.4-2.4
			c0-0.3-0.1-0.7-0.1-1c0-0.1,0-0.2,0-0.4v-0.7l0.7,0.4c0.2,0.1,0.3,0.2,0.5,0.3C167,53.5,167.3,53.6,167.7,53.8z M166.1,51.5
			c-1.9-1.6-3.4-3.4-4.4-5.4c-0.6-1.3-1.2-2.5-1.8-3.8c0,0.1,0.1,0.2,0.1,0.3c0.5,1.4,1,2.9,1.6,4.4c0.6,1.4,1,3,1.4,4.4
			c0.1,0.5,0.3,1,0.4,1.5c0.7,2.5,1.5,5,2.3,7.4c0.1,0.4,0.4,0.8,0.6,1.2c0.1,0.2,0.2,0.4,0.4,0.6l0.2,0.3h-0.6c-0.2,0-0.3,0-0.5,0
			c-0.8,0-1.6-0.1-2.4-0.1c-1.9-0.1-3.8-0.1-5.7-0.3c-4.8-0.4-8.6-1.3-12-2.9c-2.5-1.1-4.9-2.6-7.7-4.6c-2.2-1.6-4.4-3.1-6.5-4.7
			l-1.6-1.1c4.6,5.9,10.1,9.8,16.7,12.1l0.2,0.1l-0.1,0.6h-0.2c-0.2,0-0.5,0.1-0.7,0.1c-0.5,0.1-1,0.2-1.5,0.2
			c-4.7,0.3-9.1-1.3-13.7-4.9c-2.3-1.8-4.4-4-6.7-6.9c-0.4-0.6-0.8-1.2-1.2-1.8c-0.1-0.1-0.1-0.2-0.2-0.3c0.1,0.2,0.1,0.4,0.2,0.5
			l0.1,0.3c0.7,1.7,1.4,3.5,2.5,4.9c1.1,1.3,2.3,2.4,3.5,3.6l0.3,0.3c1.7,1.6,3.8,3,6.1,4c0.9,0.4,1.7,0.7,2.6,1.1
			c0.8,0.3,1.7,0.7,2.6,1.1l1.1,0.5h-1.2c-0.6,0-1.2,0-1.7,0c-0.6,0-1.2,0-1.7,0c-0.8,0-1.5,0-2.3,0c-1.3,0-2.7-0.1-4-0.2l-0.8-0.1
			c-3-0.2-6-0.7-8.8-1.5c-6.2-1.7-11.7-4.2-16.5-7.5c-1.3-0.9-2.6-1.9-3.9-3.1c-3.2-2.9-4.8-6.6-4.9-11c0-1.3,0.4-2.6,0.7-3.8
			c0.1-0.3,0.2-0.6,0.3-0.9c0.3-1.2,0.8-2.4,1.2-3.5l0.2-0.7c0.1-0.2,0.2-0.5,0.3-0.7c-1.2,2-2.3,4.1-3.2,6.6
			c-0.9,2.4-1.4,4.5-1.5,6.6c0,0.5,0,1-0.1,1.5c0,0.4,0,0.9-0.1,1.3c0,0.5-0.1,0.9-0.1,1.4c-0.1,0.8-0.1,1.7-0.1,2.5
			c0,1.3,0.1,2.6,0.1,3.8c0,0.6,0.1,1.2,0.1,1.7c0,0.1,0,0.1,0,0.2c0,0,0,0.1,0,0.2l-0.1,0.5l-0.9-1c-0.4-0.4-0.7-0.9-1.1-1.3
			c-2.3-2.7-3.2-6-3.8-9.1c-1.3-5.3-0.6-10.3,0-14.1c0.6-3.2,1.3-6,2.4-8.5c1.2-2.9,2.7-5.5,4.6-7.8c1.5-1.8,2.9-3.4,4.3-4.8
			c2.5-2.4,5.3-3.8,8.3-4.2c1-0.1,2.1-0.1,3.1,0c0.5,0,0.9,0.1,1.4,0.1c0.1,0,0.2,0,0.3,0c0.2,0,0.4,0,0.6,0c0.1,0,0.2-0.1,0.3-0.2
			c-0.1-0.6,0.4-0.9,0.7-1.1l0.1-0.1c1.8-1.3,3.8-1.8,5.6-2.2c2.8-0.6,5.8-0.8,9.2-0.6c4.9,0.3,8.6,1,11.8,2.4
			c0.8,0.4,1.6,0.9,2.3,1.5c4.2,3.3,7.4,7.7,10,13.5c0.6,1.3,1.2,2.7,1.7,4c0.2,0.5,0.4,0.9,0.6,1.4c-1.3-7.2-4.2-13.1-8.7-18.1
			L146,7.1l0.3-0.5h0.2c0.1,0,0.3,0,0.4,0c0.3,0,0.6,0.1,0.9,0.1c3.3,0.7,6.1,2.2,8.7,4.3c2.8,2.4,5,5.5,6.8,9.6
			c1.2,2.6,2.1,5.1,3,7.5c0.4,1.2,0.8,2.5,1.1,3.7c0.2,0.8,0.4,1.6,0.7,2.5c0.3,1,0.6,2,0.9,3c0.9,2.9,1.7,5.9,2.9,8.8
			c1.4,3.4,3.4,6.1,6.1,8.4c0.1,0.1,0.1,0.1,0.2,0.2c0,0,0.1,0.1,0.1,0.2l0.3,0.4H178c-0.2,0-0.4,0-0.6,0c-0.4,0-0.8,0-1.1,0
			C172.2,55,168.8,53.7,166.1,51.5z"/>
	</g>
</g>
</svg>
