<?xml version="1.0" encoding="utf-8"?>
<!-- Generator: Adobe Illustrator 21.0.0, SVG Export Plug-In . SVG Version: 6.00 Build 0)  -->
<svg version="1.1" id="圖層_1" xmlns="http://www.w3.org/2000/svg" xmlns:xlink="http://www.w3.org/1999/xlink" x="0px" y="0px"
	 viewBox="0 0 248.9 234" style="enable-background:new 0 0 248.9 234;" xml:space="preserve">
<style type="text/css">
	.st0{fill:#814323;}
	.st1{fill:#3F210E;}
	.st2{fill:#3F210F;}
	.st3{fill:#3A1D13;}
	.st4{fill:#FFFFFF;}
</style>
<g>
	<g>
		<path class="st0" d="M100.3,139c0,0-24.2-0.9-46.7,5.7l0.4,1.1C54,145.8,77.7,139.9,100.3,139z"/>
		<g>
			<g>
				<path class="st0" d="M51.1,145.6l-1.3,1.8c2.2-1.2,4.9-1.8,4.9-1.8l-0.4-1h-0.2l0,0c-17.8-49.4,51.5-59.9,45.5-5.5
					C109,81.8,34,91,51.1,145.6z"/>
			</g>
		</g>
		<ellipse class="st0" cx="80.6" cy="123.3" rx="9.3" ry="12.6"/>
		<ellipse class="st0" cx="170.1" cy="123.3" rx="9.3" ry="12.6"/>
		<g>
			<path class="st1" d="M122.7,143.1c0,0,6.6-0.1,9.6,0.4c3,0.6,5.7,1.8,3.4,5.3c-2.8,4.1-10.4,6.4-10.4,6.4s-7.6-2.3-10.4-6.4
				c-2.4-3.5,0.3-4.8,3.4-5.3c3-0.6,9.6-0.4,9.6-0.4"/>
			<path class="st1" d="M170.4,167.7c-0.3,0-0.7,0.2-0.7,0.6c0,0.1-1,7.1-15.7,9.4c-14.8,2.3-22.3-2.6-28-7.3v-14.1
				c0-0.3-0.3-0.6-0.6-0.6c-0.4,0-0.6,0.3-0.6,0.6v14.1c-5.7,4.8-13.2,9.6-28,7.3c-14.6-2.2-15.7-9.3-15.7-9.4
				c0-0.3-0.4-0.6-0.7-0.6c-0.3,0-0.6,0.4-0.6,0.7s1.1,8.1,16.7,10.5c2.6,0.4,5,0.6,7.3,0.6c10.1,0,16.4-3.8,21.6-8
				c5.2,4.3,11.5,8,21.6,8c2.2,0,4.6-0.2,7.3-0.6c15.7-2.4,16.7-10.2,16.7-10.5C171,168.1,170.7,167.8,170.4,167.7z"/>
			<path class="st1" d="M126,168.9c0,0,0.1,1.7,2,3h-0.3l-1.9-0.8l-0.3-0.7L126,168.9z"/>
			<path class="st1" d="M124.7,168.9c0,0-0.1,1.7-2,3h0.3l1.9-0.8l0.3-0.7L124.7,168.9z"/>
			<path class="st1" d="M114.8,156.3C114.7,156.3,114.7,156.3,114.8,156.3l-18-2.5c-0.2,0-0.4-0.2-0.4-0.5c0-0.2,0.2-0.4,0.5-0.4
				l17.9,2.5c0.2,0,0.4,0.2,0.4,0.5C115.2,156.2,115,156.3,114.8,156.3z"/>
			<path class="st1" d="M97.7,166c-0.2,0-0.4-0.1-0.4-0.3c-0.1-0.2,0.1-0.5,0.3-0.5l17.1-3.9c0.2-0.1,0.5,0.1,0.5,0.3
				c0.1,0.2-0.1,0.5-0.3,0.5L97.7,166L97.7,166z"/>
			<path class="st1" d="M135.9,156.3c-0.2,0-0.4-0.2-0.4-0.4s0.1-0.4,0.4-0.5l17.9-2.5c0.2,0,0.4,0.1,0.5,0.4c0,0.2-0.1,0.4-0.4,0.5
				L135.9,156.3C136,156.3,135.9,156.3,135.9,156.3z"/>
			<path class="st1" d="M153,166L153,166l-17.2-3.9c-0.2-0.1-0.4-0.3-0.3-0.5c0.1-0.2,0.3-0.4,0.5-0.3l17.1,3.9
				c0.2,0.1,0.4,0.3,0.3,0.5C153.4,165.9,153.2,166,153,166z"/>
		</g>
		<g>
			<path class="st1" d="M65.2,143.2c-0.2,0-0.4-0.1-0.5-0.3c-6-9-6.2-22.5-0.6-31.5c4.4-6.9,11.3-10.1,19.7-9c0.3,0,0.6,0.4,0.5,0.7
				c0,0.3-0.4,0.6-0.7,0.5c-7.8-1.1-14.4,1.9-18.5,8.4c-5.4,8.6-5.2,21.6,0.5,30.1c0.2,0.3,0.1,0.7-0.2,0.9
				C65.4,143.2,65.3,143.2,65.2,143.2z"/>
			<path class="st2" d="M100.3,139c0,0-24.2-0.9-46.7,5.7l0.4,1.1C54,145.8,77.7,139.9,100.3,139z"/>
			<g>
				<g>
					<path class="st1" d="M51.1,145.6l-1.3,1.8c2.2-1.2,4.9-1.8,4.9-1.8l-0.4-1h-0.2l0,0c-17.8-49.4,51.5-59.9,45.5-5.5
						C109,81.8,34,91,51.1,145.6z"/>
				</g>
			</g>
			<ellipse class="st3" cx="80.6" cy="123.3" rx="9.3" ry="12.6"/>
			<path class="st1" d="M185.5,143.2c-0.1,0-0.2,0-0.4-0.1c-0.3-0.2-0.4-0.6-0.2-0.9c5.7-8.6,5.9-21.5,0.5-30.1
				c-4.1-6.5-10.6-9.5-18.5-8.4c-0.3,0-0.7-0.2-0.7-0.5s0.2-0.7,0.5-0.7c8.3-1.1,15.3,2.1,19.7,9c5.6,9,5.4,22.5-0.6,31.5
				C185.9,143.1,185.7,143.2,185.5,143.2z"/>
			<path class="st2" d="M150.4,139c0,0,24.2-0.9,46.7,5.7l-0.4,1.1C196.7,145.8,173,139.9,150.4,139z"/>
			<g>
				<g>
					<path class="st2" d="M151,139c-5.9-54.4,63.3-43.8,45.5,5.5l0,0h-0.2l-0.4,1c0,0,2.7,0.7,4.9,1.8l-1.3-1.8
						C216.7,91,141.7,81.8,151,139z"/>
				</g>
			</g>
			<ellipse class="st3" cx="170.1" cy="123.3" rx="9.3" ry="12.6"/>
		</g>
		<circle class="st4" cx="71.7" cy="114.9" r="6.3"/>
		<circle class="st4" cx="162.5" cy="114.9" r="6.3"/>
		<g>
			<path class="st1" d="M70.1,94.8c-5.8,0-10.3-2.4-10.9-6.1l0,0c-0.6-4.4,4.5-8.6,11.8-9.7c3.4-0.5,6.7-0.2,9.3,0.9
				c2.7,1.1,4.4,2.9,4.7,5c0.3,2.1-0.8,4.3-3.1,6.2c-2.2,1.8-5.3,3-8.7,3.5C72.2,94.7,71.1,94.8,70.1,94.8z M60.5,88.5
				c0.5,3.6,6.2,5.7,12.6,4.8c3.2-0.5,6-1.6,8.1-3.2c1.9-1.5,2.9-3.3,2.6-5c-0.2-1.7-1.6-3.1-3.9-4c-2.4-1-5.5-1.2-8.7-0.8
				C64.8,81.2,60,84.9,60.5,88.5L60.5,88.5z"/>
			<path class="st1" d="M180.6,94.8c-1,0-2.1-0.1-3.2-0.2c-3.4-0.5-6.5-1.7-8.7-3.5c-2.3-1.8-3.4-4-3.1-6.2c0.3-2.1,2-3.9,4.7-5
				c2.6-1.1,5.9-1.4,9.3-0.9c7.2,1.1,12.4,5.3,11.8,9.7l0,0C190.9,92.4,186.4,94.8,180.6,94.8z M176.5,80.1c-2.1,0-4.1,0.3-5.7,1
				c-2.3,0.9-3.7,2.4-3.9,4c-0.2,1.7,0.7,3.4,2.6,5c2,1.6,4.9,2.8,8.1,3.2c6.4,0.9,12.1-1.2,12.6-4.8c0.5-3.6-4.3-7.3-10.7-8.2
				C178.5,80.1,177.5,80.1,176.5,80.1z"/>
			<g>
				<path class="st1" d="M226.9,76.1c-1.4-2-2.9-3.9-4.4-5.8c3.2-0.5,5.7-1.3,5.7-1.3c0.4-0.2,0.7-0.3,1.1-0.5
					c7.8-3.8,13.8-10.2,16-18.5l0,0c2.5-7,1.8-14.9-1.2-21.6c-5.9-13.2-21.3-19.6-35.1-18.2c-2.6,0.3-5.1,0.8-7.6,1.6
					c-0.3,0.1-0.7,0.3-1,0.5c-0.5,0.2-1.1,0.4-1.6,0.7c-10.2,4.6-17.7,14.4-18.4,23.6l-7-2.8c0,0-21.1-7.7-46.2-7.7
					C102.1,26.2,77,37,77,37c-2.3,0.9-5.4,2.2-6.7,2.8c0.7-7.5-3.5-16-10.8-22l0,0c0,0,0,0-0.1,0c-0.4-0.3-0.8-0.6-1.1-0.9
					c-0.2-0.2-0.4-0.3-0.4-0.4c-0.6-0.4-1.2-0.9-1.8-1.3c-1.2-0.8-2.5-1.6-3.9-2.2c-1.3-0.6-2.6-1.2-3.9-1.5c-1.9-0.6-3.9-0.9-6-1.1
					C28.5,9,13.1,15.4,7.2,28.6c-1.7,3.9-2.7,8.1-2.7,12.3l0,0c0,0-0.6,10.1,6.1,18.8l0,0c1.6,2.1,3.1,3.6,3.9,4.4
					c1.6,1.6,6.5,5.1,11.4,6.5c-6.4,7.6-38,48.3-20.8,97.9c0,0-0.2-0.9-0.5-2.5c0.7,2.8,1.6,5.5,2.6,8.2c1.9,5.2,4.4,10.1,7.3,14.6
					C35,220,76,230.2,106.8,233.2c4.7,0.5,9.4,0.7,14.1,0.8c1.2,0,2.4,0,3.6,0c27.5,0,53.7-6.3,76.1-18.2
					c25.7-13.7,40.7-30.4,45.8-51.1C253.3,136.3,246.1,103.2,226.9,76.1z M238.6,173.6C217.9,219.1,139,241.4,74,226
					c-22.5-6.2-45-17.5-58.4-38c-2.9-4.5-5.3-9.3-7.2-14.3c-12.5-33.8-4.2-72.8,21.7-101.8c0.6-0.7,1.2-1.4,1.9-2c0.2,0,0.4,0,0.6,0
					c3,0,6-0.5,9-1.6c0.3-0.1,0.5-0.5,0.4-0.8s-0.5-0.5-0.8-0.4c-11.1,4-22.7,0-29.6-10.2c-5.5-8.1-8.2-21.7,2-33.2
					c6.3-6.3,12.4-9.6,18-11.1c0.9-0.2,1.7-0.4,2.7-0.6c9-1.5,16.3,1.5,20,3.6c10.6,6,16.9,17.3,14.6,26.3c0,0,0,0,0,0.1
					s0,0.1,0,0.2v0.1v0.1l0,0c0,0.1,0.1,0.2,0.2,0.2l0,0l0.1,0.1h0.1l0,0l0,0c0.1,0,0.1,0,0.2,0l0,0l0,0l0,0
					c3.5-1.7,7.1-3.2,10.8-4.5c0,0,21.1-8.5,46.9-8.5s46.3,7.3,46.3,7.3c2.4,0.9,4.7,1.8,7,2.9c0.2,0.1,0.4,0.1,0.5,0l0,0
					c0.1,0,0.1-0.1,0.1-0.1s0-0.1,0.1-0.1c0,0,0,0,0.1-0.1l0,0c0-0.1,0-0.1,0-0.2v-0.1l0,0c-0.6-9.4,7.1-20.1,17.7-24.8
					c12.5-5.6,26.3-2.2,37.9,9.3c10.3,11.5,7.5,25.1,2,33.2c-6.6,10-18.3,14-29.4,10c-0.3-0.1-0.7,0.1-0.8,0.4s0.1,0.7,0.4,0.8
					c0.1,0.1,0.3,0.1,0.4,0.1c2.6,2.5,7.4,2.7,11.5,2.2C226.2,78,259.1,128.4,238.6,173.6z"/>
				<path class="st1" d="M41.9,33.4C36.5,29.5,28,29.8,23,34.1c-3.5,3-5.2,8.2-4.2,13.2c0.9,4.4,3.8,8.6,8,11.5c3.6,2.5,7,3,11,3.6
					l1.3,0.2c0,0,0,0,0.1,0s0.2,0,0.3-0.1l12.8-11.2l0,0c0.1-0.1,0.2-0.2,0.3-0.4c0.1-0.1,0.2-0.2,0.2-0.3c0.1-0.1,0.1-0.3,0.1-0.4
					C50.9,43.3,46.7,36.9,41.9,33.4z M51.8,50.4c-0.1,0.1-0.1,0.2-0.2,0.3L39,61.7l-1.1-0.2c-4-0.6-7.2-1.1-10.6-3.5
					c-4-2.8-6.8-6.8-7.6-11c-1-4.7,0.6-9.5,3.9-12.3c2.5-2.2,6-3.3,9.4-3.3c3,0,6,0.8,8.4,2.6c4.6,3.4,8.7,9.5,10.5,16.1
					C51.8,50.2,51.8,50.3,51.8,50.4z"/>
				<path class="st1" d="M211.3,62.5c0.1,0.1,0.2,0.1,0.3,0.1c0,0,0,0,0.1,0l1.3-0.2c4-0.6,7.4-1.1,11-3.6c4.2-2.9,7.1-7.1,8-11.5
					c1-5-0.6-10.1-4.2-13.2c-5-4.3-13.5-4.6-18.9-0.7c-4.8,3.5-9,9.9-10.9,16.8c0,0.1,0,0.3,0.1,0.4c0,0.1,0.1,0.2,0.2,0.3
					c0.1,0.2,0.2,0.4,0.3,0.4l0,0L211.3,62.5z M209.3,34.1c5.1-3.7,13.1-3.4,17.8,0.7c3.3,2.8,4.8,7.7,3.9,12.3
					c-0.9,4.2-3.6,8.2-7.6,11c-3.4,2.4-6.6,2.9-10.6,3.5l-1.1,0.2l-12.6-11.1c0-0.1-0.1-0.2-0.2-0.3c0-0.1-0.1-0.1-0.1-0.2
					C200.7,43.6,204.7,37.4,209.3,34.1z"/>
			</g>
		</g>
	</g>
	<g>
		<path class="st1" d="M159.8,6.2C155,2.9,147.3,0,137.3,5c-3.2-2.6-6.9-4.1-11.9-4.7c-10.7-1.3-21.3,1-29.6,6.5
			c-9,5.9-15,15.4-16.1,25.4c-0.3,2.7-0.3,5.5-0.2,8.1c0,3,0.1,6.1-0.4,9c-0.7,4.8-3.6,11-9.3,12.6c-0.2,0.1-0.3,0.2-0.4,0.4
			c-0.2,0.1-0.2,0.3-0.2,0.6c0.1,0.3,0.3,0.5,0.6,0.5c12.2-0.8,19-4.5,22.7-8.3c1,5.2,6.2,23,30.4,28.9c0,0,0,0-0.1,0
			c3.4,1,6.8,1.5,10.1,1.5c2.4,0,4.7-0.3,6.9-0.8c0.3-0.1,0.6-0.4,0.5-0.8c0-0.1-0.1-0.2-0.1-0.2l0,0c-2-3-3.2-6.5-3.6-10.2
			c1.7,1.6,5.8,5.3,9.5,5.6c0.1,0,0.2,0,0.3-0.1c0.3-0.2,0.4-0.6,0.2-0.9c-1.7-2.9-1.6-7,0.3-10.3c1.6-2.9,4.5-5.4,8.3-7.2
			c0.4-0.2,0.8-0.4,1.2-0.6c1.3-0.6,2.7-1.3,3.9-2.2c0.8-0.6,1.5-1.4,2-2.2c0,1.3-0.5,2.5-1.3,4c-1,2-2.6,3.6-4,4.8l0,0
			c-0.2,0.2-0.4,0.3-0.5,0.5c-0.3,0.2-0.3,0.6-0.1,0.9c0.1,0.2,0.3,0.2,0.5,0.2c0.1,0,0.3,0,0.4-0.1c0.1-0.1,0.2-0.2,0.3-0.3
			c0,0,0,0,0.1,0c9.1-3.3,15-11.1,16.5-22C175.9,29.4,169.8,13.3,159.8,6.2z M172.7,43.4c-1.2,9.1-5.7,16-12.6,19.6
			c0.7-0.8,1.4-1.8,2-2.8c1.2-2.3,2-4.2,1-6.7l0,0c0-0.4,0.1-0.7,0.1-1c0-0.4-0.3-0.6-0.7-0.6s-0.6,0.3-0.6,0.7
			c0.1,1.5-0.8,3.1-2.3,4.3c-1.1,0.8-2.4,1.4-3.7,2c-0.4,0.2-0.8,0.4-1.3,0.6c-4.1,2-7.1,4.6-8.8,7.7c-1.8,3.2-2.1,6.9-1,10
			c-3.3-1.5-6.7-5.1-8.2-8.1c0.2-2.3,0.7-4.6,1.6-6.7c0.1-0.3,0-0.7-0.3-0.8s-0.7,0-0.8,0.3c-1,2.3-1.5,4.7-1.7,7.2
			c0,0.1,0,0.2,0,0.2c-0.3,5,0.8,10.1,3.4,14.4c-7.8,1.5-16.6-0.1-25-4.7c-5.2-2.8-9.4-6.3-12.5-10.3c-3-3.9-5.6-11-6.5-16.1
			c2.1-3.2,2.3-5.7,2.3-5.7c0.2-0.3,0.1-0.7-0.3-0.9c-0.3-0.2-0.7-0.1-0.9,0.3c-2.4,4.4-5.1,7.7-8.1,9.9c-4.1,3-9.2,4.4-14.1,5.4
			c3.9-2.8,5.9-7.8,6.6-11.9c0.5-3.1,0.4-6.2,0.4-9.2c0-2.6-0.1-5.3,0.2-8C82,22.8,87.8,13.7,96.5,8c8.1-5.3,18.3-7.6,28.8-6.3
			c4.9,0.6,8.5,2,11.6,4.7c0.2,0.2,0.5,0.2,0.7,0.1c7.6-3.9,15.1-3.6,21.5,0.9C168.7,14.1,174.6,29.6,172.7,43.4z"/>
	</g>
</g>
</svg>
