<?xml version="1.0" encoding="utf-8"?>
<!-- Generator: Adobe Illustrator 21.0.0, SVG Export Plug-In . SVG Version: 6.00 Build 0)  -->
<svg version="1.1" id="圖層_1" xmlns="http://www.w3.org/2000/svg" xmlns:xlink="http://www.w3.org/1999/xlink" x="0px" y="0px"
	 viewBox="0 0 197 57" style="enable-background:new 0 0 197 57;" xml:space="preserve">
<style type="text/css">
	.st0{fill:url(#SVGID_1_);}
	.st1{fill:none;stroke:#C5E7ED;stroke-miterlimit:10;}
	.st2{fill:#FFFFFF;}
</style>
<linearGradient id="SVGID_1_" gradientUnits="userSpaceOnUse" x1="98.55" y1="115.8309" x2="98.55" y2="-2.5865" gradientTransform="matrix(1 0 0 -1 0 58)">
	<stop  offset="0.179" style="stop-color:#11588E;stop-opacity:0"/>
	<stop  offset="1" style="stop-color:#009AD4"/>
</linearGradient>
<path class="st0" d="M196.5,56.5H0.5V10.8c0-5.7,4.6-10.3,10.3-10.3h175.5c5.7,0,10.3,4.6,10.3,10.3v45.7H196.5z"/>
<path class="st1" d="M196.5,56.5H0.5V10.8c0-5.7,4.6-10.3,10.3-10.3h175.5c5.7,0,10.3,4.6,10.3,10.3v45.7H196.5z"/>
<g>
	<path class="st2" d="M119.6,26.6h-9.3c-0.7,1.5-1.7,3-2.8,4.4v7.3c1.9-0.5,3.6-1.1,5.2-1.6l0.2,1.9c-2.9,1-5.3,1.7-7.2,2.1
		l-0.6-1.5c0.3-0.2,0.4-0.5,0.4-0.8V33c-1.2,1.1-2.4,2-3.7,2.8l-0.7-1.8c3.1-2,5.4-4.5,7-7.5h-6.9v-1.9h8.4
		c-0.3-0.8-0.7-1.6-1.1-2.2l1.9-0.4c0.4,0.7,0.8,1.6,1.2,2.6h7.9V26.6z M119.7,39.2l-1.3,1.4c-2-1.4-3.6-3-4.8-4.9
		c-1.2-1.8-2.2-4.5-2.9-7.9l1.8-0.3c0.2,1.3,0.6,2.7,1.1,4.1c1.4-0.8,2.8-1.9,4.2-3.4l1.2,1.5c-1,1.2-2.6,2.4-4.7,3.7
		C115.2,35.2,117,37.2,119.7,39.2z"/>
	<path class="st2" d="M128.2,30.7l-1.1,1.3c-0.4-1-0.7-1.6-0.7-1.8v10.2h-1.7v-9.3c-0.6,1.8-1.1,3.1-1.5,4l-0.9-2
		c0.8-1.3,1.5-3.3,2.2-5.9h-2v-1.7h2.2v-3.4h1.7v3.4h1.4v1.7h-1.4v0.5C126.9,28.6,127.6,29.6,128.2,30.7z M140.8,40.2h-12.3V22.4h12
		v1.4h-4.1v0.8h3.3v2.9h-3.3v0.7h4.2v1.2h-9.9v-1.2h4v-0.7h-3.3v-2.9h3.3v-0.8h-4.5v14.8h10.6V40.2z M139.6,36.2h-5.6l0.8,0.7
		c-1.1,0.6-2.2,1.1-3.5,1.5l-0.9-1.2c0.7-0.2,1.6-0.5,2.8-1h-1.9v-6.1h8.3V36.2z M134.6,26.5v-0.7H133v0.7H134.6z M137.9,31.9v-0.6
		h-4.9v0.6H137.9z M137.9,33.5v-0.6h-4.9v0.6H137.9z M137.9,35.1v-0.6h-4.9v0.6H137.9z M140.4,37.2l-0.7,1.3
		c-1.4-0.4-2.7-0.6-3.6-0.7l0.7-1.3C138.3,36.6,139.5,36.9,140.4,37.2z M137.9,26.5v-0.7h-1.6v0.7H137.9z"/>
</g>
<g>
	<path class="st2" d="M60.3,25.7c-1.6,0.6-3.1,1.2-4.7,1.8c-1.3-2.7-2.5-5.5-3.8-8.2c1.3-0.6,2.6-1.2,3.9-1.8c2.5-1.2,5-2.4,7.8-3.1
		c0.4-0.1,0.8-0.1,1.2,0c4.8,1.3,9.6,1.1,14.3,0c0.4-0.1,0.9-0.1,1.3,0c4.1,1.1,7.8,3.1,11.7,4.8c0.1,0,0.1,0.1,0.2,0.2
		c-1.2,2.7-2.5,5.4-3.8,8.2c-1.7-0.6-3.3-1.2-5-1.8c0,0.3,0,0.6,0,0.8c0,5.2,0,10.5,0,15.7c0,0.6-0.2,0.8-0.8,1
		c-7.3,2.5-14.6,2.3-21.9-0.1c-0.5-0.1-0.5-0.4-0.5-0.8c0-5.3,0-10.6,0-15.9C60.3,26.3,60.3,26.1,60.3,25.7z M65.6,16.3
		c0,0.1-0.1,0.2-0.1,0.2c0,0.1,0,0.2,0,0.2c0.3,1.4,1.2,2.2,2.4,2.8c1.8,0.8,3.7,0.9,5.7,0.7c1.3-0.2,2.6-0.6,3.6-1.4
		c0.8-0.6,1.2-1.4,1.2-2.5C74.2,17.4,69.9,17.4,65.6,16.3z"/>
</g>
</svg>
