<?xml version="1.0" encoding="utf-8"?>
<!-- Generator: Adobe Illustrator 21.0.0, SVG Export Plug-In . SVG Version: 6.00 Build 0)  -->
<svg version="1.1" id="圖層_1" xmlns="http://www.w3.org/2000/svg" xmlns:xlink="http://www.w3.org/1999/xlink" x="0px" y="0px"
	 viewBox="0 0 841.3 478.2" style="enable-background:new 0 0 841.3 478.2;" xml:space="preserve">
<style type="text/css">
	.st0{opacity:0.85;fill:url(#SVGID_1_);}
	.st1{opacity:0.65;fill:#20658F;}
	.st2{opacity:0.36;fill:url(#SVGID_2_);}
	.st3{opacity:0.15;}
	.st4{fill:none;stroke:#96D9F3;stroke-width:0.5;}
	.st5{opacity:0.58;fill:url(#SVGID_3_);}
</style>
<g id="背景">
	<radialGradient id="SVGID_1_" cx="450.3333" cy="-14.6371" r="543.4869" gradientUnits="userSpaceOnUse">
		<stop  offset="0" style="stop-color:#11588E"/>
		<stop  offset="1" style="stop-color:#009AD4"/>
	</radialGradient>
	<rect y="3" class="st0" width="841.3" height="475.2"/>
	<path class="st1" d="M847.9,466.9c0,13.6-10.3,24.6-23,24.6H16.9c-12.7,0-23-11-23-24.6V21.6c0-13.6,10.3-24.6,23-24.6h807.9
		c12.7,0,23,11,23,24.6V466.9z"/>
	
		<radialGradient id="SVGID_2_" cx="199.1691" cy="338.7277" r="428.8309" gradientTransform="matrix(1.9201 0 0 2.0476 56.2524 22.1884)" gradientUnits="userSpaceOnUse">
		<stop  offset="0" style="stop-color:#00ADEE"/>
		<stop  offset="1" style="stop-color:#00ADEE;stop-opacity:0"/>
	</radialGradient>
	<path class="st2" d="M847.9,466.9c0,13.6-10.3,24.6-23,24.6H16.9c-12.7,0-23-11-23-24.6V21.6c0-13.6,10.3-24.6,23-24.6h807.9
		c12.7,0,23,11,23,24.6V466.9z"/>
	<g>
		<g class="st3">
			<line class="st4" x1="-6.1" y1="0" x2="845.3" y2="0"/>
			<line class="st4" x1="-6.1" y1="4.4" x2="845.3" y2="4.4"/>
			<line class="st4" x1="-6.1" y1="9.1" x2="845.3" y2="9.1"/>
			<line class="st4" x1="-6.1" y1="13.8" x2="845.3" y2="13.8"/>
			<line class="st4" x1="-6.1" y1="18.5" x2="845.3" y2="18.5"/>
			<line class="st4" x1="-6.1" y1="22.9" x2="845.3" y2="22.9"/>
			<line class="st4" x1="-6.1" y1="27.6" x2="845.3" y2="27.6"/>
			<line class="st4" x1="-6.1" y1="32.4" x2="845.3" y2="32.4"/>
			<line class="st4" x1="-6.1" y1="41.5" x2="845.3" y2="41.5"/>
			<line class="st4" x1="-6.1" y1="36.6" x2="845.3" y2="36.6"/>
			<line class="st4" x1="-6.1" y1="46.2" x2="845.3" y2="46.2"/>
			<line class="st4" x1="-6.1" y1="50.9" x2="845.3" y2="50.9"/>
			<line class="st4" x1="-6.1" y1="55.6" x2="845.3" y2="55.6"/>
			<line class="st4" x1="-6.1" y1="60" x2="845.3" y2="60"/>
			<line class="st4" x1="-6.1" y1="64.7" x2="845.3" y2="64.7"/>
			<line class="st4" x1="-6.1" y1="69.6" x2="845.3" y2="69.6"/>
			<line class="st4" x1="-6.1" y1="74.3" x2="845.3" y2="74.3"/>
			<line class="st4" x1="-6.1" y1="78.7" x2="845.3" y2="78.7"/>
			<line class="st4" x1="-6.1" y1="83.4" x2="845.3" y2="83.4"/>
			<line class="st4" x1="-6.1" y1="88.1" x2="845.3" y2="88.1"/>
			<line class="st4" x1="-6.1" y1="92.8" x2="845.3" y2="92.8"/>
			<line class="st4" x1="-6.1" y1="97.2" x2="845.3" y2="97.2"/>
			<line class="st4" x1="-6.1" y1="101.9" x2="845.3" y2="101.9"/>
			<line class="st4" x1="-6.1" y1="106.7" x2="845.3" y2="106.7"/>
			<line class="st4" x1="-6.1" y1="111.4" x2="845.3" y2="111.4"/>
			<line class="st4" x1="-6.1" y1="115.7" x2="845.3" y2="115.7"/>
			<line class="st4" x1="-6.1" y1="120.4" x2="845.3" y2="120.4"/>
			<line class="st4" x1="-6.1" y1="125.2" x2="845.3" y2="125.2"/>
			<line class="st4" x1="-6.1" y1="129.9" x2="845.3" y2="129.9"/>
			<line class="st4" x1="-6.1" y1="134.3" x2="845.3" y2="134.3"/>
			<line class="st4" x1="-6.1" y1="139" x2="845.3" y2="139"/>
			<line class="st4" x1="-6.1" y1="143.2" x2="845.3" y2="143.2"/>
			<line class="st4" x1="-6.1" y1="147.5" x2="845.3" y2="147.5"/>
			<line class="st4" x1="-6.1" y1="152.2" x2="845.3" y2="152.2"/>
			<line class="st4" x1="-6.1" y1="157" x2="845.3" y2="157"/>
			<line class="st4" x1="-6.1" y1="161.7" x2="845.3" y2="161.7"/>
			<line class="st4" x1="-6.1" y1="166.1" x2="845.3" y2="166.1"/>
			<line class="st4" x1="-6.1" y1="170.8" x2="845.3" y2="170.8"/>
			<line class="st4" x1="-6.1" y1="175.5" x2="845.3" y2="175.5"/>
			<line class="st4" x1="-6.1" y1="179.7" x2="845.3" y2="179.7"/>
			<line class="st4" x1="-6.1" y1="184.4" x2="845.3" y2="184.4"/>
			<line class="st4" x1="-6.1" y1="188.8" x2="845.3" y2="188.8"/>
			<line class="st4" x1="-6.1" y1="193.5" x2="845.3" y2="193.5"/>
			<line class="st4" x1="-6.1" y1="198.2" x2="845.3" y2="198.2"/>
			<line class="st4" x1="-6.1" y1="202.9" x2="845.3" y2="202.9"/>
			<line class="st4" x1="-6.1" y1="207.3" x2="845.3" y2="207.3"/>
			<line class="st4" x1="-6.1" y1="212" x2="845.3" y2="212"/>
			<line class="st4" x1="-6.1" y1="216.2" x2="845.3" y2="216.2"/>
			<line class="st4" x1="-6.1" y1="220.6" x2="845.3" y2="220.6"/>
			<line class="st4" x1="-6.1" y1="225.3" x2="845.3" y2="225.3"/>
			<line class="st4" x1="-6.1" y1="230" x2="845.3" y2="230"/>
			<line class="st4" x1="-6.1" y1="234.8" x2="845.3" y2="234.8"/>
			<line class="st4" x1="-6.1" y1="239.1" x2="845.3" y2="239.1"/>
		</g>
		<g class="st3">
			<line class="st4" x1="-6.1" y1="243.5" x2="845.3" y2="243.5"/>
			<line class="st4" x1="-6.1" y1="248.2" x2="845.3" y2="248.2"/>
			<line class="st4" x1="-6.1" y1="252.9" x2="845.3" y2="252.9"/>
			<line class="st4" x1="-6.1" y1="257.6" x2="845.3" y2="257.6"/>
			<line class="st4" x1="-6.1" y1="262" x2="845.3" y2="262"/>
			<line class="st4" x1="-6.1" y1="266.7" x2="845.3" y2="266.7"/>
			<line class="st4" x1="-6.1" y1="271.5" x2="845.3" y2="271.5"/>
			<line class="st4" x1="-6.1" y1="280.6" x2="845.3" y2="280.6"/>
			<line class="st4" x1="-6.1" y1="275.7" x2="845.3" y2="275.7"/>
			<line class="st4" x1="-6.1" y1="285.3" x2="845.3" y2="285.3"/>
			<line class="st4" x1="-6.1" y1="290" x2="845.3" y2="290"/>
			<line class="st4" x1="-6.1" y1="294.7" x2="845.3" y2="294.7"/>
			<line class="st4" x1="-6.1" y1="299.1" x2="845.3" y2="299.1"/>
			<line class="st4" x1="-6.1" y1="303.8" x2="845.3" y2="303.8"/>
			<line class="st4" x1="-6.1" y1="308.7" x2="845.3" y2="308.7"/>
			<line class="st4" x1="-6.1" y1="313.4" x2="845.3" y2="313.4"/>
			<line class="st4" x1="-6.1" y1="317.8" x2="845.3" y2="317.8"/>
			<line class="st4" x1="-6.1" y1="322.5" x2="845.3" y2="322.5"/>
			<line class="st4" x1="-6.1" y1="327.2" x2="845.3" y2="327.2"/>
			<line class="st4" x1="-6.1" y1="331.9" x2="845.3" y2="331.9"/>
			<line class="st4" x1="-6.1" y1="336.3" x2="845.3" y2="336.3"/>
			<line class="st4" x1="-6.1" y1="341" x2="845.3" y2="341"/>
			<line class="st4" x1="-6.1" y1="345.8" x2="845.3" y2="345.8"/>
			<line class="st4" x1="-6.1" y1="350.5" x2="845.3" y2="350.5"/>
			<line class="st4" x1="-6.1" y1="354.8" x2="845.3" y2="354.8"/>
			<line class="st4" x1="-6.1" y1="359.5" x2="845.3" y2="359.5"/>
			<line class="st4" x1="-6.1" y1="364.3" x2="845.3" y2="364.3"/>
			<line class="st4" x1="-6.1" y1="369" x2="845.3" y2="369"/>
			<line class="st4" x1="-6.1" y1="373.4" x2="845.3" y2="373.4"/>
			<line class="st4" x1="-6.1" y1="378.1" x2="845.3" y2="378.1"/>
			<line class="st4" x1="-6.1" y1="382.3" x2="845.3" y2="382.3"/>
			<line class="st4" x1="-6.1" y1="386.6" x2="845.3" y2="386.6"/>
			<line class="st4" x1="-6.1" y1="391.3" x2="845.3" y2="391.3"/>
			<line class="st4" x1="-6.1" y1="396.1" x2="845.3" y2="396.1"/>
			<line class="st4" x1="-6.1" y1="400.8" x2="845.3" y2="400.8"/>
			<line class="st4" x1="-6.1" y1="405.2" x2="845.3" y2="405.2"/>
			<line class="st4" x1="-6.1" y1="409.9" x2="845.3" y2="409.9"/>
			<line class="st4" x1="-6.1" y1="414.6" x2="845.3" y2="414.6"/>
			<line class="st4" x1="-6.1" y1="418.8" x2="845.3" y2="418.8"/>
			<line class="st4" x1="-6.1" y1="423.5" x2="845.3" y2="423.5"/>
			<line class="st4" x1="-6.1" y1="427.9" x2="845.3" y2="427.9"/>
			<line class="st4" x1="-6.1" y1="432.6" x2="845.3" y2="432.6"/>
			<line class="st4" x1="-6.1" y1="437.3" x2="845.3" y2="437.3"/>
			<line class="st4" x1="-6.1" y1="442" x2="845.3" y2="442"/>
			<line class="st4" x1="-6.1" y1="446.4" x2="845.3" y2="446.4"/>
			<line class="st4" x1="-6.1" y1="451.1" x2="845.3" y2="451.1"/>
			<line class="st4" x1="-6.1" y1="455.3" x2="845.3" y2="455.3"/>
			<line class="st4" x1="-6.1" y1="459.7" x2="845.3" y2="459.7"/>
			<line class="st4" x1="-6.1" y1="464.4" x2="845.3" y2="464.4"/>
			<line class="st4" x1="-6.1" y1="469.2" x2="845.3" y2="469.2"/>
			<line class="st4" x1="-6.1" y1="473.9" x2="845.3" y2="473.9"/>
			<line class="st4" x1="-6.1" y1="478.2" x2="845.3" y2="478.2"/>
		</g>
	</g>
	<linearGradient id="SVGID_3_" gradientUnits="userSpaceOnUse" x1="421.9583" y1="-133.5135" x2="421.9583" y2="90.6551">
		<stop  offset="0" style="stop-color:#000000"/>
		<stop  offset="1" style="stop-color:#000000;stop-opacity:0"/>
	</linearGradient>
	<rect x="-5.4" y="1.8" class="st5" width="854.7" height="173.7"/>
</g>
</svg>
