<?xml version="1.0" encoding="utf-8"?>
<!-- Generator: Adobe Illustrator 21.0.0, SVG Export Plug-In . SVG Version: 6.00 Build 0)  -->
<svg version="1.1" id="圖層_1" xmlns="http://www.w3.org/2000/svg" xmlns:xlink="http://www.w3.org/1999/xlink" x="0px" y="0px"
	 viewBox="0 0 109.2 113.5" style="enable-background:new 0 0 109.2 113.5;" xml:space="preserve">
<style type="text/css">
	.st0{opacity:0.5;fill:#1165AF;}
	.st1{opacity:0.76;fill:url(#SVGID_1_);}
	.st2{opacity:0.76;fill:url(#SVGID_2_);}
	.st3{opacity:0.76;fill:url(#SVGID_3_);}
	.st4{opacity:0.76;fill:url(#SVGID_4_);}
	.st5{opacity:0.76;fill:url(#SVGID_5_);}
	.st6{opacity:0.76;fill:url(#SVGID_6_);}
	.st7{opacity:0.54;fill:url(#SVGID_7_);}
	.st8{opacity:0.54;fill:url(#SVGID_8_);}
	.st9{opacity:0.54;fill:url(#SVGID_9_);}
	.st10{opacity:0.54;fill:url(#SVGID_10_);}
	.st11{opacity:0.55;fill:url(#SVGID_11_);}
	.st12{opacity:0.55;fill:url(#SVGID_12_);}
	.st13{opacity:0.55;fill:url(#SVGID_13_);}
	.st14{opacity:0.55;fill:url(#SVGID_14_);}
	.st15{display:none;opacity:0.71;fill:url(#SVGID_15_);}
	.st16{display:none;opacity:0.71;fill:url(#SVGID_16_);}
	.st17{opacity:0.22;fill:#4290CD;}
	.st18{fill:none;stroke:#FFFFFF;stroke-miterlimit:10;}
	.st19{fill:none;}
	.st20{fill:#FFFFFF;}
	.st21{font-family:'MicrosoftJhengHeiBold';}
	.st22{font-size:14.8589px;}
	.st23{fill:url(#SVGID_17_);}
	.st24{fill:url(#SVGID_18_);}
	.st25{fill:url(#SVGID_19_);}
	.st26{fill:url(#SVGID_20_);}
	.st27{fill:url(#SVGID_21_);}
	.st28{fill:url(#SVGID_22_);}
	.st29{fill:url(#SVGID_23_);}
	.st30{fill:url(#SVGID_24_);}
	.st31{fill:url(#SVGID_25_);}
	.st32{fill:url(#SVGID_26_);}
	.st33{fill:url(#SVGID_27_);}
	.st34{fill:url(#SVGID_28_);}
</style>
<g id="優惠碼">
	<g>
		<path class="st0" d="M100.4,113H8.7c-4.5,0-8.2-3.7-8.2-8.2V8.7c0-4.5,3.7-8.2,8.2-8.2h91.7c4.5,0,8.2,3.7,8.2,8.2v96.1
			C108.7,109.3,105,113,100.4,113z"/>
		<g>
			<radialGradient id="SVGID_1_" cx="59.5238" cy="66.3295" r="105.7487" gradientUnits="userSpaceOnUse">
				<stop  offset="0.5568" style="stop-color:#FFFFFF;stop-opacity:0"/>
				<stop  offset="1" style="stop-color:#FFFFFF"/>
			</radialGradient>
			<path class="st1" d="M100.4,113H8.7c-4.5,0-8.2-3.7-8.2-8.2V8.7c0-4.5,3.7-8.2,8.2-8.2h91.7c4.5,0,8.2,3.7,8.2,8.2v96.1
				C108.7,109.3,105,113,100.4,113z"/>
			<linearGradient id="SVGID_2_" gradientUnits="userSpaceOnUse" x1="52.1016" y1="56.7374" x2="-6.6751" y2="56.7374">
				<stop  offset="0.5568" style="stop-color:#FFFFFF;stop-opacity:0"/>
				<stop  offset="1" style="stop-color:#FFFFFF"/>
			</linearGradient>
			<path class="st2" d="M100.4,113H8.7c-4.5,0-8.2-3.7-8.2-8.2V8.7c0-4.5,3.7-8.2,8.2-8.2h91.7c4.5,0,8.2,3.7,8.2,8.2v96.1
				C108.7,109.3,105,113,100.4,113z"/>
			<linearGradient id="SVGID_3_" gradientUnits="userSpaceOnUse" x1="54.5757" y1="50.0715" x2="54.5757" y2="-6.0937">
				<stop  offset="0.5568" style="stop-color:#FFFFFF;stop-opacity:0"/>
				<stop  offset="1" style="stop-color:#FFFFFF"/>
			</linearGradient>
			<path class="st3" d="M100.4,113H8.7c-4.5,0-8.2-3.7-8.2-8.2V8.7c0-4.5,3.7-8.2,8.2-8.2h91.7c4.5,0,8.2,3.7,8.2,8.2v96.1
				C108.7,109.3,105,113,100.4,113z"/>
			<linearGradient id="SVGID_4_" gradientUnits="userSpaceOnUse" x1="62.3512" y1="56.7374" x2="116.1304" y2="56.7374">
				<stop  offset="0.5568" style="stop-color:#FFFFFF;stop-opacity:0"/>
				<stop  offset="1" style="stop-color:#FFFFFF"/>
			</linearGradient>
			<path class="st4" d="M100.4,113H8.7c-4.5,0-8.2-3.7-8.2-8.2V8.7c0-4.5,3.7-8.2,8.2-8.2h91.7c4.5,0,8.2,3.7,8.2,8.2v96.1
				C108.7,109.3,105,113,100.4,113z"/>
			<linearGradient id="SVGID_5_" gradientUnits="userSpaceOnUse" x1="54.5757" y1="75.8724" x2="54.5757" y2="114.0581">
				<stop  offset="0.5568" style="stop-color:#FFFFFF;stop-opacity:0"/>
				<stop  offset="1" style="stop-color:#FFFFFF"/>
			</linearGradient>
			<path class="st5" d="M100.4,113H8.7c-4.5,0-8.2-3.7-8.2-8.2V8.7c0-4.5,3.7-8.2,8.2-8.2h91.7c4.5,0,8.2,3.7,8.2,8.2v96.1
				C108.7,109.3,105,113,100.4,113z"/>
			<radialGradient id="SVGID_6_" cx="76.4887" cy="139.4909" r="134.3998" gradientUnits="userSpaceOnUse">
				<stop  offset="0.1784" style="stop-color:#FFFFFF;stop-opacity:0"/>
				<stop  offset="1" style="stop-color:#7ECFDE"/>
			</radialGradient>
			<path class="st6" d="M100.4,113H8.7c-4.5,0-8.2-3.7-8.2-8.2V8.7c0-4.5,3.7-8.2,8.2-8.2h91.7c4.5,0,8.2,3.7,8.2,8.2v96.1
				C108.7,109.3,105,113,100.4,113z"/>
		</g>
		<g>
			<radialGradient id="SVGID_7_" cx="16.4591" cy="25.5734" r="112.5394" gradientUnits="userSpaceOnUse">
				<stop  offset="0.5568" style="stop-color:#00ADEE;stop-opacity:0"/>
				<stop  offset="1" style="stop-color:#8F5FA6"/>
			</radialGradient>
			<path class="st7" d="M100.4,113H8.7c-4.5,0-8.2-3.7-8.2-8.2V8.7c0-4.5,3.7-8.2,8.2-8.2h91.7c4.5,0,8.2,3.7,8.2,8.2v96.1
				C108.7,109.3,105,113,100.4,113z"/>
			<linearGradient id="SVGID_8_" gradientUnits="userSpaceOnUse" x1="54.5757" y1="68.8036" x2="54.5757" y2="118.286">
				<stop  offset="0.5719" style="stop-color:#00ADEE;stop-opacity:0"/>
				<stop  offset="1" style="stop-color:#8F5FA6"/>
			</linearGradient>
			<path class="st8" d="M100.4,113H8.7c-4.5,0-8.2-3.7-8.2-8.2V8.7c0-4.5,3.7-8.2,8.2-8.2h91.7c4.5,0,8.2,3.7,8.2,8.2v96.1
				C108.7,109.3,105,113,100.4,113z"/>
			<linearGradient id="SVGID_9_" gradientUnits="userSpaceOnUse" x1="64.8253" y1="56.7374" x2="115.4149" y2="56.7374">
				<stop  offset="0.5719" style="stop-color:#00ADEE;stop-opacity:0"/>
				<stop  offset="1" style="stop-color:#8F5FA6"/>
			</linearGradient>
			<path class="st9" d="M100.4,113H8.7c-4.5,0-8.2-3.7-8.2-8.2V8.7c0-4.5,3.7-8.2,8.2-8.2h91.7c4.5,0,8.2,3.7,8.2,8.2v96.1
				C108.7,109.3,105,113,100.4,113z"/>
			<linearGradient id="SVGID_10_" gradientUnits="userSpaceOnUse" x1="54.5757" y1="51.1318" x2="54.5757" y2="-16.3828">
				<stop  offset="0.5719" style="stop-color:#00ADEE;stop-opacity:0"/>
				<stop  offset="1" style="stop-color:#8F5FA6"/>
			</linearGradient>
			<path class="st10" d="M100.4,113H8.7c-4.5,0-8.2-3.7-8.2-8.2V8.7c0-4.5,3.7-8.2,8.2-8.2h91.7c4.5,0,8.2,3.7,8.2,8.2v96.1
				C108.7,109.3,105,113,100.4,113z"/>
		</g>
		<linearGradient id="SVGID_11_" gradientUnits="userSpaceOnUse" x1="51.2727" y1="60.0405" x2="2.7673" y2="108.5458">
			<stop  offset="0.5568" style="stop-color:#00ADEE;stop-opacity:0"/>
			<stop  offset="1" style="stop-color:#AAE0F9"/>
		</linearGradient>
		<path class="st11" d="M100.4,113H8.7c-4.5,0-8.2-3.7-8.2-8.2V8.7c0-4.5,3.7-8.2,8.2-8.2h91.7c4.5,0,8.2,3.7,8.2,8.2v96.1
			C108.7,109.3,105,113,100.4,113z"/>
		<radialGradient id="SVGID_12_" cx="57.7566" cy="55.373" r="82.5105" gradientUnits="userSpaceOnUse">
			<stop  offset="0.5568" style="stop-color:#00ADEE;stop-opacity:0"/>
			<stop  offset="1" style="stop-color:#AAE0F9"/>
		</radialGradient>
		<path class="st12" d="M100.4,113H8.7c-4.5,0-8.2-3.7-8.2-8.2V8.7c0-4.5,3.7-8.2,8.2-8.2h91.7c4.5,0,8.2,3.7,8.2,8.2v96.1
			C108.7,109.3,105,113,100.4,113z"/>
		<radialGradient id="SVGID_13_" cx="60.9376" cy="56.4333" r="98.6395" gradientUnits="userSpaceOnUse">
			<stop  offset="0.5568" style="stop-color:#00ADEE;stop-opacity:0"/>
			<stop  offset="1" style="stop-color:#AAE0F9"/>
		</radialGradient>
		<path class="st13" d="M100.4,113H8.7c-4.5,0-8.2-3.7-8.2-8.2V8.7c0-4.5,3.7-8.2,8.2-8.2h91.7c4.5,0,8.2,3.7,8.2,8.2v96.1
			C108.7,109.3,105,113,100.4,113z"/>
		<linearGradient id="SVGID_14_" gradientUnits="userSpaceOnUse" x1="54.5757" y1="52.1921" x2="54.5757" y2="-6.7731">
			<stop  offset="0.5568" style="stop-color:#00ADEE;stop-opacity:0"/>
			<stop  offset="1" style="stop-color:#AAE0F9"/>
		</linearGradient>
		<path class="st14" d="M100.4,113H8.7c-4.5,0-8.2-3.7-8.2-8.2V8.7c0-4.5,3.7-8.2,8.2-8.2h91.7c4.5,0,8.2,3.7,8.2,8.2v96.1
			C108.7,109.3,105,113,100.4,113z"/>
		<radialGradient id="SVGID_15_" cx="69.1242" cy="13.36" r="44.6495" gradientUnits="userSpaceOnUse">
			<stop  offset="6.486510e-02" style="stop-color:#FFFFFF;stop-opacity:0"/>
			<stop  offset="0.1216" style="stop-color:#FFFFFF;stop-opacity:0.1216"/>
			<stop  offset="1" style="stop-color:#FFFFFF"/>
		</radialGradient>
		<path class="st15" d="M101.9,0.5H7.3c-0.4,0-0.7,0-1.1,0.1c13.3,0.2,40.5,5,67.8,2.2c33.9-3.5,31.6,21.3,31.6,21.3l3.1,52V7.3
			C108.7,3.5,105.6,0.5,101.9,0.5z"/>
		<radialGradient id="SVGID_16_" cx="64.1712" cy="114.8954" r="94.3572" gradientUnits="userSpaceOnUse">
			<stop  offset="6.486510e-02" style="stop-color:#FFFFFF;stop-opacity:0"/>
			<stop  offset="0.1216" style="stop-color:#FFFFFF;stop-opacity:0.1216"/>
			<stop  offset="1" style="stop-color:#FFFFFF"/>
		</radialGradient>
		<path class="st16" d="M7.3,113.1h94.6c0.4,0,0.7,0,1.1-0.1c-13.3-0.2-40.5-5-67.8-2.2C1.3,114.2,3.6,89.5,3.6,89.5l-3.1-52v68.8
			C0.5,110,3.5,113.1,7.3,113.1z"/>
		<path class="st17" d="M100.4,113H8.7c-4.5,0-8.2-3.7-8.2-8.2V8.7c0-4.5,3.7-8.2,8.2-8.2h91.7c4.5,0,8.2,3.7,8.2,8.2v96.1
			C108.7,109.3,105,113,100.4,113z"/>
		<path class="st18" d="M100.4,113H8.7c-4.5,0-8.2-3.7-8.2-8.2V8.7c0-4.5,3.7-8.2,8.2-8.2h91.7c4.5,0,8.2,3.7,8.2,8.2v96.1
			C108.7,109.3,105,113,100.4,113z"/>
	</g>
	<rect x="0" y="83.6" class="st19" width="109" height="14.8"/>
	<text transform="matrix(1 0 0 1 32.237 96.8706)" class="st20 st21 st22">優惠碼</text>
	<g>
		<radialGradient id="SVGID_17_" cx="49.1591" cy="-3.4216" r="74.5318" gradientUnits="userSpaceOnUse">
			<stop  offset="0" style="stop-color:#00ADEE"/>
			<stop  offset="1" style="stop-color:#FFFFFF"/>
		</radialGradient>
		<path class="st23" d="M82.5,33.3H51.3L42,44.3V33.3H30c-1.1,0-2,0.9-2,2v32.1c0,1.1,0.9,2,2,2h52.4c1.1,0,2-0.9,2-2V35.3
			C84.4,34.2,83.6,33.3,82.5,33.3z"/>
		<g>
			<radialGradient id="SVGID_18_" cx="40.3257" cy="4.9118" r="99.0235" gradientUnits="userSpaceOnUse">
				<stop  offset="0" style="stop-color:#00ADEE"/>
				<stop  offset="1" style="stop-color:#FFFFFF"/>
			</radialGradient>
			<path class="st24" d="M42.3,54.2c0.5,0,0.7-0.3,0.7-0.8c0-0.7,0-1.3,0-2c0-0.7,0-1.4,0-2.1c0-0.5-0.2-0.8-0.7-0.8
				c-0.5,0-0.7,0.3-0.7,0.8c0,1.3,0,2.7,0,4C41.6,53.8,41.8,54.2,42.3,54.2z"/>
			<radialGradient id="SVGID_19_" cx="40.3257" cy="4.912" r="99.023" gradientUnits="userSpaceOnUse">
				<stop  offset="0" style="stop-color:#00ADEE"/>
				<stop  offset="1" style="stop-color:#FFFFFF"/>
			</radialGradient>
			<path class="st25" d="M42.3,61.4c0.5,0,0.7-0.3,0.7-0.8c0-0.7,0-1.3,0-2c0-0.7,0-1.3,0-2c0-0.5-0.2-0.8-0.7-0.8
				c-0.5,0-0.7,0.3-0.7,0.8c0,1.3,0,2.7,0,4C41.6,61,41.8,61.4,42.3,61.4z"/>
			<radialGradient id="SVGID_20_" cx="40.3257" cy="4.9119" r="99.0233" gradientUnits="userSpaceOnUse">
				<stop  offset="0" style="stop-color:#00ADEE"/>
				<stop  offset="1" style="stop-color:#FFFFFF"/>
			</radialGradient>
			<path class="st26" d="M42.3,63c-0.5,0-0.7,0.3-0.7,0.8c0,1.3,0,2.7,0,4c0,0.5,0.2,0.8,0.7,0.8c0.5,0,0.7-0.3,0.7-0.8
				c0-0.7,0-1.3,0-2c0-0.7,0-1.3,0-2C43,63.3,42.8,63,42.3,63z"/>
		</g>
		<radialGradient id="SVGID_21_" cx="40.3257" cy="4.9118" r="99.0233" gradientUnits="userSpaceOnUse">
			<stop  offset="0" style="stop-color:#00ADEE"/>
			<stop  offset="1" style="stop-color:#FFFFFF"/>
		</radialGradient>
		<path class="st27" d="M45.8,42l6.2-7.2c0.4-0.5,1.3-0.2,1.3,0.5v8c0,0.4-0.3,0.7-0.7,0.7h-6.9c-0.6,0-1-0.7-0.5-1.2L45.8,42z"/>
		<g>
			
				<radialGradient id="SVGID_22_" cx="63.7458" cy="-69.4978" r="45.2728" gradientTransform="matrix(1.2871 0 0 0.4024 -17.8456 80.9946)" gradientUnits="userSpaceOnUse">
				<stop  offset="0" style="stop-color:#00ADEE"/>
				<stop  offset="1" style="stop-color:#FFFFFF"/>
			</radialGradient>
			<rect x="53" y="58.8" class="st28" width="3.5" height="5.5"/>
			
				<radialGradient id="SVGID_23_" cx="63.746" cy="-69.4978" r="45.2729" gradientTransform="matrix(1.2871 0 0 0.4024 -17.8456 80.9946)" gradientUnits="userSpaceOnUse">
				<stop  offset="0" style="stop-color:#00ADEE"/>
				<stop  offset="1" style="stop-color:#FFFFFF"/>
			</radialGradient>
			<rect x="60.4" y="58.8" class="st29" width="3.5" height="5.5"/>
			
				<radialGradient id="SVGID_24_" cx="63.7456" cy="-69.4978" r="45.2729" gradientTransform="matrix(1.2871 0 0 0.4024 -17.8456 80.9946)" gradientUnits="userSpaceOnUse">
				<stop  offset="0" style="stop-color:#00ADEE"/>
				<stop  offset="1" style="stop-color:#FFFFFF"/>
			</radialGradient>
			<rect x="57.7" y="58.8" class="st30" width="1.2" height="5.5"/>
			
				<radialGradient id="SVGID_25_" cx="63.7459" cy="-69.4978" r="45.273" gradientTransform="matrix(1.2871 0 0 0.4024 -17.8456 80.9946)" gradientUnits="userSpaceOnUse">
				<stop  offset="0" style="stop-color:#00ADEE"/>
				<stop  offset="1" style="stop-color:#FFFFFF"/>
			</radialGradient>
			<rect x="67.8" y="58.8" class="st31" width="3.5" height="5.5"/>
			
				<radialGradient id="SVGID_26_" cx="63.7458" cy="-69.4978" r="45.2731" gradientTransform="matrix(1.2871 0 0 0.4024 -17.8456 80.9946)" gradientUnits="userSpaceOnUse">
				<stop  offset="0" style="stop-color:#00ADEE"/>
				<stop  offset="1" style="stop-color:#FFFFFF"/>
			</radialGradient>
			<rect x="75.3" y="58.8" class="st32" width="3.5" height="5.5"/>
			
				<radialGradient id="SVGID_27_" cx="63.7463" cy="-69.4978" r="45.2728" gradientTransform="matrix(1.2871 0 0 0.4024 -17.8456 80.9946)" gradientUnits="userSpaceOnUse">
				<stop  offset="0" style="stop-color:#00ADEE"/>
				<stop  offset="1" style="stop-color:#FFFFFF"/>
			</radialGradient>
			<rect x="72.5" y="58.8" class="st33" width="1.2" height="5.5"/>
			
				<radialGradient id="SVGID_28_" cx="63.7459" cy="-69.4978" r="45.2728" gradientTransform="matrix(1.2871 0 0 0.4024 -17.8456 80.9946)" gradientUnits="userSpaceOnUse">
				<stop  offset="0" style="stop-color:#00ADEE"/>
				<stop  offset="1" style="stop-color:#FFFFFF"/>
			</radialGradient>
			<rect x="65.8" y="58.8" class="st34" width="1.2" height="5.5"/>
		</g>
	</g>
</g>
</svg>
