<?xml version="1.0" encoding="utf-8"?>
<!-- Generator: Adobe Illustrator 21.0.0, SVG Export Plug-In . SVG Version: 6.00 Build 0)  -->
<svg version="1.1" id="圖層_1" xmlns="http://www.w3.org/2000/svg" xmlns:xlink="http://www.w3.org/1999/xlink" x="0px" y="0px"
	 viewBox="0 0 822.9 601.4" style="enable-background:new 0 0 822.9 601.4;" xml:space="preserve">
<style type="text/css">
	.st0{fill:#D2D1AB;}
	.st1{fill:url(#SVGID_1_);}
	.st2{fill:#9A9B61;}
	.st3{fill:url(#SVGID_2_);}
	.st4{fill:url(#SVGID_3_);}
	.st5{fill:url(#SVGID_4_);}
	.st6{fill:#C3C4A9;}
	.st7{opacity:0.3;fill:#9A9B61;}
	.st8{opacity:0.2;fill:#9A9B61;}
	.st9{fill:#BCBA76;}
	.st10{fill:#5E5F31;}
	.st11{opacity:0.5;}
	.st12{fill:#FFFFFF;}
</style>
<g>
	<path class="st0" d="M446.1,513.7c0,0,0.5,0.6,0.4,2.2c-0.1,1.7-0.2,4.1-0.2,4.1s-0.2,1.4-8.2,2.7c-8,1.2-57.3,3.8-71-2v-1.9
		c0,0-1.8-3.8-1.6-4.2c0.2-0.5,3.9-2.3,7-2.1c3.1,0.2,39.5,7.2,67.4,1.8C439.9,514.3,444.6,512.5,446.1,513.7z"/>
	<path class="st0" d="M448.3,513.7c0,0-0.5,0.6-0.4,2.2c0.1,1.7,0.2,4.1,0.2,4.1s0.2,1.4,8.4,2.7c8.2,1.2,55.6,3.8,69.5-2v-1.9
		c0,0,1.7-3.5,1.5-3.9c-0.2-0.5-1-2.6-4.1-2.4c-3.2,0.2-40.3,7.2-68.8,1.8C454.6,514.3,449.8,512.5,448.3,513.7z"/>
	<linearGradient id="SVGID_1_" gradientUnits="userSpaceOnUse" x1="343.7859" y1="305.5354" x2="538.156" y2="301.3873">
		<stop  offset="0" style="stop-color:#A4A863"/>
		<stop  offset="0.3416" style="stop-color:#A1A461"/>
		<stop  offset="0.6433" style="stop-color:#969A5A"/>
		<stop  offset="0.9291" style="stop-color:#85884F"/>
		<stop  offset="1" style="stop-color:#80824B"/>
	</linearGradient>
	<path class="st1" d="M495.4,280.3c4.3-1.1,9.7-2.9,12-3.7c1,5.9,5.5,32.9,6.1,50.6h-16.3C497.5,318,495.7,286,495.4,280.3z"/>
	<path class="st2" d="M491.9,330.7c0-1.1,0.9-1.9,1.9-1.9h22.5c1.1,0,1.9,0.9,1.9,1.9v10.7c0,1.1-0.9,1.9-1.9,1.9h-22.5
		c-1.1,0-1.9-0.9-1.9-1.9V330.7z"/>
	<linearGradient id="SVGID_2_" gradientUnits="userSpaceOnUse" x1="343.7465" y1="303.7226" x2="538.1174" y2="299.5745">
		<stop  offset="0" style="stop-color:#A4A863"/>
		<stop  offset="0.3416" style="stop-color:#A1A461"/>
		<stop  offset="0.6433" style="stop-color:#969A5A"/>
		<stop  offset="0.9291" style="stop-color:#85884F"/>
		<stop  offset="1" style="stop-color:#80824B"/>
	</linearGradient>
	<path class="st3" d="M386.6,278.1c2.3,0.8,7.5,2.7,11.7,3.8c-0.2,5.5-1.5,36.1-1.2,45.4h-16.3C381.4,309.7,385.6,283.9,386.6,278.1
		z"/>
	<path class="st2" d="M376.1,330.7c0-1.1,0.9-1.9,1.9-1.9h22.5c1.1,0,1.9,0.9,1.9,1.9v10.7c0,1.1-0.9,1.9-1.9,1.9H378
		c-1.1,0-1.9-0.9-1.9-1.9V330.7z"/>
	<linearGradient id="SVGID_3_" gradientUnits="userSpaceOnUse" x1="345.6736" y1="396.3693" x2="540.0439" y2="392.2211">
		<stop  offset="0" style="stop-color:#A4A863"/>
		<stop  offset="0.3416" style="stop-color:#A1A461"/>
		<stop  offset="0.6433" style="stop-color:#969A5A"/>
		<stop  offset="0.9291" style="stop-color:#85884F"/>
		<stop  offset="1" style="stop-color:#80824B"/>
	</linearGradient>
	<path class="st4" d="M346.2,399c-1-4.3-0.3-5.3-0.2-5.4c0.1,0,0.2,0,0.3-0.1c15.6-7.1,30.3-46.9,31-48.6c0-0.1,0-0.2,0-0.2
		c0.2,0.1,0.5,0.1,0.8,0.1h22.5c1.9,0,3.4-1.5,3.4-3.4v-5.6c2.6,0.3,28.4,2.8,43.1,2.8h0.4c14.7,0,40.4-2.5,43.1-2.8v5.6
		c0,1.9,1.5,3.4,3.4,3.4h22.5c0.3,0,0.5,0,0.8-0.1c0,0.1,0,0.2,0,0.2c0.6,1.7,14.9,40.3,30.3,48.2c0.3,1,0.6,2.3,0.3,3.6
		c-0.5,2.4-0.4,2.7-0.4,3.9c0,0.8,0.2,21.8-4.5,50.8c-16.2-7.4-22-25.9-22.6-28.1c10.7-1.8,17.3-3.3,17.5-3.3
		c0.3-0.1,0.4-0.3,0.4-0.6c-0.1-0.3-0.3-0.4-0.6-0.4c-0.4,0.1-44.3,9.9-89.9,9.9h-0.9c-45.6,0-89.5-9.8-89.9-9.9
		c-0.3-0.1-0.5,0.1-0.6,0.4c-0.1,0.3,0.1,0.5,0.4,0.6c0.2,0,6.8,1.5,17.5,3.3c-0.6,2.2-6.6,21.4-23.5,28.5
		c-4.8-29.8-4.4-52.3-4.4-52.6C346.2,399.1,346.2,399.1,346.2,399z"/>
	<linearGradient id="SVGID_4_" gradientUnits="userSpaceOnUse" x1="347.3228" y1="471.2896" x2="541.6926" y2="467.1414">
		<stop  offset="0" style="stop-color:#A4A863"/>
		<stop  offset="0.3416" style="stop-color:#A1A461"/>
		<stop  offset="0.6433" style="stop-color:#969A5A"/>
		<stop  offset="0.9291" style="stop-color:#85884F"/>
		<stop  offset="1" style="stop-color:#80824B"/>
	</linearGradient>
	<path class="st5" d="M523.3,511.8c-0.5,0-1.6,0.2-3.2,0.4c-10.1,1.5-40.9,6-65.4,1.4c-0.7-0.2-2.9-1-4.8-1l-1.9-53
		c0-0.4-0.3-0.7-0.8-0.7H447c-0.4,0-0.7,0.3-0.8,0.7l-1.9,53c-1.9,0-4.1,0.8-4.8,1c-24.5,4.7-55.3,0.1-65.4-1.4
		c-1.6-0.2-2.7-0.4-3.2-0.4c-1.2-0.1-2.4,0.8-3.7,1.2c-8.3-20.2-13.5-41.8-16.5-60c17.7-7.3,23.8-27.5,24.3-29.4
		c17.1,2.9,44.1,6.5,71.7,6.5h0.9c27.6,0,54.5-3.6,71.7-6.5c0.5,1.8,6.4,21.3,23.4,29c-2.2,13.8-5.6,29.5-10.5,45.5l-4.4,13
		c-0.2,0.4,0.7,2.3,0.5,2.8C527,513.4,524.5,511.7,523.3,511.8z"/>
	<path class="st6" d="M403.9,341.4c0,0-0.4-4.6-0.4-9.2s-3-4.1-3-4.1H378c-3.2,0-2.4,2.8-2.4,2.8s-0.1,1.2,0,8
		c0.1,6.8,2.5,4.4,2.5,4.4s15.8,1.3,21,1.3C404.3,344.6,403.9,341.4,403.9,341.4z M399.8,338.2c0,1.2-1,2.3-2.3,2.3h-16.4
		c-1.2,0-2.3-1-2.3-2.3v-4.3c0-1.2,1-2.3,2.3-2.3h16.4c1.2,0,2.3,1,2.3,2.3V338.2z"/>
	<path class="st6" d="M519.3,341.4c0,0-0.4-4.6-0.4-9.2s-3-4.1-3-4.1h-22.6c-3.2,0-2.4,2.8-2.4,2.8s-0.1,1.2,0,8
		c0.1,6.8,2.5,4.4,2.5,4.4s15.8,1.3,21,1.3C519.6,344.6,519.3,341.4,519.3,341.4z M515.1,338.2c0,1.2-1,2.3-2.3,2.3h-16.4
		c-1.2,0-2.3-1-2.3-2.3v-4.3c0-1.2,1-2.3,2.3-2.3h16.4c1.2,0,2.3,1,2.3,2.3V338.2z"/>
	<path class="st7" d="M537.8,384.6c0.5,2.2,1.2,5.4,1.3,7.2c0.1,2.9-2.9,6.2-2.9,6.2V412c0,0-0.2,2.8-0.6,7.5
		c1.2-0.3,1.9-0.4,1.9-0.4c0.3-0.1,0.5,0.1,0.6,0.4c0.1,0.3-0.1,0.5-0.4,0.6c-0.1,0-0.8,0.2-2.2,0.5c-0.5,6-1.3,14.6-2.4,24.3
		c2.7,2.6,5.9,4.9,9.7,6.7c4.6-29,4.5-50,4.5-50.8c0-1.2-0.2-1.5,0.4-3.9c0.3-1.3,0-2.6-0.3-3.6
		C544.1,391.5,540.9,388.4,537.8,384.6z"/>
	<path class="st7" d="M528.3,513.8c0.2-0.4-0.7-2.3-0.5-2.8l4.4-13c4.9-16.1,8.3-31.7,10.5-45.5c-3.7-1.7-6.9-3.9-9.7-6.4
		c-2.7,24.6-7.2,55.4-12.9,66.1c1.6-0.2,2.7-0.4,3.2-0.4C524.5,511.7,527,513.4,528.3,513.8z"/>
	<path class="st8" d="M439.6,513.5c0.7-0.2,2.9-1,4.8-1l1.9-53l-8.6,54.4C438.3,513.8,439,513.7,439.6,513.5z"/>
	<path class="st7" d="M501.1,346.9c6.1,0,13.1,0.1,16.8,0.1c-0.5-1.2-0.7-1.9-0.8-2.1c0-0.1,0-0.2,0-0.2c-0.2,0.1-0.5,0.1-0.8,0.1
		H494C494.5,345.8,496.2,346.9,501.1,346.9z"/>
	<path class="st7" d="M515.3,333.8h-19c-0.9,0-1.7-0.8-1.7-1.7v-0.5c0-0.9,0.8-1.7,1.7-1.7h19c0.9,0,1.7,0.8,1.7,1.7v0.5
		C517,333,516.3,333.8,515.3,333.8z"/>
	<path class="st7" d="M399.7,333.8h-19c-0.9,0-1.7-0.8-1.7-1.7v-0.5c0-0.9,0.8-1.7,1.7-1.7h19c0.9,0,1.7,0.8,1.7,1.7v0.5
		C401.4,333,400.7,333.8,399.7,333.8z"/>
	<path class="st7" d="M376.9,343.7c0,0-1.9,2.7,6,2.7c7.9,0,18.6,0,18.6,0s1.7-2.8,1.4-4.2c0,0,3.2,2.6-14.7,2.1L376.9,343.7z"/>
	<path class="st7" d="M493.8,369.6c0,0,0.1,19.9-5.6,28.5c-5.6,8.6-14.4,16-14.4,16L485,412l12-19.3L493.8,369.6z"/>
	<path class="st7" d="M397.6,280.8c0,0-2.3,36.4-1.2,48l2-1.5c0,0-0.2-35.6,1.4-45.6L397.6,280.8z"/>
	<path class="st7" d="M511,295.3c0,0,2.5,29.6,0,32.7l3.3,0.1C514.3,328.1,514.3,312.4,511,295.3z"/>
	<path class="st8" d="M447.1,460.9c0,0-10.1-7.6-12.6-31.8h4.1c0,0-0.4,17.8,8.4,29.9c0,0,8.2-11.1,9.7-29.9l3.9-0.1
		C460.5,429,457.4,454.8,447.1,460.9z"/>
	<path class="st9" d="M355.4,450.5c-1.5,0.9-3,1.7-4.7,2.4c3,18.3,8,39.2,16.3,59.4c0,0,0.1,0,0.1,0
		C363,500.3,358.6,474.2,355.4,450.5z"/>
	<path class="st9" d="M350.9,406.6c-0.2-8.9,1-14.6,1.9-17.9c-2.1,2.1-4.3,3.8-6.5,4.8c-0.1,0-0.2,0.1-0.3,0.1
		c-0.1,0.1-0.9,1.1,0.2,5.4c0,0.1,0,0.2,0,0.3c0,0.4-0.4,22.9,4.4,52.6c1.7-0.7,3.2-1.5,4.7-2.4C352.7,430.5,351,413.4,350.9,406.6z
		"/>
	<path class="st7" d="M448.6,504.1c0,0,4.6,9.6,9.7,10.8l-9-1.7L448.6,504.1z"/>
	<path class="st10" d="M402.7,525.1c-14.4,0-29.2-0.9-35.8-3.7c-0.3-0.1-0.4-0.4-0.4-0.7V519c-1.8-3.9-1.7-4.4-1.6-4.7
		c0.4-1,4.6-2.8,7.7-2.6c0.5,0,1.5,0.2,3.1,0.4c9.9,1.5,40.1,6,64.1,1.4c0.9-0.4,5.1-1.8,6.7-0.4c0,0,0,0,0.1,0
		c0.1,0.1,0.8,0.9,0.6,2.8c-0.1,1.7-0.2,4.1-0.2,4.1c-0.2,1.7-4.9,2.8-8.8,3.4C434.3,524.1,418.7,525.1,402.7,525.1z M367.8,520.2
		c13.8,5.4,62,3,70.2,1.8c6-0.9,7.4-1.9,7.7-2.2c0-0.5,0.1-2.5,0.2-3.9c0.1-1-0.1-1.5-0.2-1.6c-0.9-0.6-3.7,0.1-5.5,0.7
		c0,0-0.1,0-0.1,0c-24.2,4.7-54.6,0.2-64.5-1.3c-1.5-0.2-2.6-0.4-3-0.4c-2.5-0.2-5.4,1.1-6.3,1.7c0.2,0.7,0.9,2.3,1.5,3.6
		c0.1,0.1,0.1,0.2,0.1,0.4V520.2z M366,515.1L366,515.1L366,515.1z M366.1,514.7L366.1,514.7L366.1,514.7z"/>
	<g>
		<path class="st10" d="M400.5,344.8H378c-1.9,0-3.4-1.5-3.4-3.4v-10.7c0-1.9,1.5-3.4,3.4-3.4h22.5c1.9,0,3.4,1.5,3.4,3.4v10.7
			C403.9,343.3,402.4,344.8,400.5,344.8z M378,328.8c-1.1,0-1.9,0.9-1.9,1.9v10.7c0,1.1,0.9,1.9,1.9,1.9h22.5c1.1,0,1.9-0.9,1.9-1.9
			v-10.7c0-1.1-0.9-1.9-1.9-1.9H378z"/>
		<path class="st10" d="M398.1,341.1h-17.7c-1.3,0-2.4-1.1-2.4-2.4v-5.2c0-1.3,1.1-2.4,2.4-2.4h17.7c1.3,0,2.4,1.1,2.4,2.4v5.2
			C400.6,340,399.5,341.1,398.1,341.1z M380.4,332.5c-0.5,0-0.9,0.4-0.9,0.9v5.2c0,0.5,0.4,0.9,0.9,0.9h17.7c0.5,0,0.9-0.4,0.9-0.9
			v-5.2c0-0.5-0.4-0.9-0.9-0.9H380.4z"/>
		<path class="st10" d="M516.3,344.8h-22.5c-1.9,0-3.4-1.5-3.4-3.4v-10.7c0-1.9,1.5-3.4,3.4-3.4h22.5c1.9,0,3.4,1.5,3.4,3.4v10.7
			C519.7,343.3,518.2,344.8,516.3,344.8z M493.8,328.8c-1.1,0-1.9,0.9-1.9,1.9v10.7c0,1.1,0.9,1.9,1.9,1.9h22.5
			c1.1,0,1.9-0.9,1.9-1.9v-10.7c0-1.1-0.9-1.9-1.9-1.9H493.8z"/>
		<path class="st10" d="M513.9,341.1h-17.7c-1.4,0-2.4-1.1-2.4-2.4v-5.2c0-1.3,1.1-2.4,2.4-2.4h17.7c1.3,0,2.4,1.1,2.4,2.4v5.2
			C516.4,340,515.3,341.1,513.9,341.1z M496.2,332.5c-0.5,0-0.9,0.4-0.9,0.9v5.2c0,0.5,0.4,0.9,0.9,0.9h17.7c0.5,0,0.9-0.4,0.9-0.9
			v-5.2c0-0.5-0.4-0.9-0.9-0.9H496.2z"/>
	</g>
	<path class="st10" d="M456.1,523.5c-3.8-0.6-8.5-1.6-8.7-3.4c0,0-0.1-2.4-0.2-4.1c-0.1-1.9,0.5-2.7,0.6-2.8c0,0,0,0,0.1,0
		c1.6-1.4,5.7,0.1,6.6,0.4c23.8,4.7,53.7,0.1,63.6-1.4c1.6-0.2,2.7-0.4,3.1-0.4c3-0.2,7.2,1.5,7.6,2.6c0.1,0.3,0.3,0.8-1.5,4.7v1.7
		c0,0.3-0.2,0.6-0.4,0.7c-6.6,2.8-21.2,3.7-35.5,3.7C475.4,525.1,460,524.1,456.1,523.5z M525.9,518.8c0-0.1,0-0.2,0.1-0.4
		c0.6-1.3,1.3-2.9,1.5-3.6c-0.8-0.6-3.7-1.9-6.2-1.7c-0.4,0-1.5,0.2-3,0.4c-9.9,1.5-40,6.1-64,1.3c0,0-0.1,0-0.1,0
		c-1.7-0.7-4.6-1.3-5.4-0.7c-0.1,0.1-0.3,0.6-0.2,1.6c0.1,1.4,0.2,3.4,0.2,3.9c0.3,0.3,1.7,1.3,7.6,2.2c8.2,1.3,55.9,3.6,69.7-1.8
		V518.8z M527.7,515.1L527.7,515.1L527.7,515.1z M527.5,514.7L527.5,514.7L527.5,514.7z"/>
	<g>
		<path class="st10" d="M398.2,328.7c-0.5,0-1-0.4-1-1c-0.3-8.6,0.9-40.2,1.2-45.8c-4.2-1.1-9.5-3-11.7-3.8
			c-1,5.8-5.2,31.9-5.8,49.6c0,0.6-0.5,1-1,1c-0.6,0-1-0.5-1-1c0.6-20,6-50.7,6-51c0.1-0.3,0.2-0.5,0.5-0.7c0.3-0.1,0.6-0.2,0.8-0.1
			c0.1,0,7.9,3,13.4,4.4c0.5,0.1,0.8,0.5,0.8,1c0,0.4-1.6,37.3-1.2,46.5C399.2,328.2,398.7,328.7,398.2,328.7
			C398.2,328.7,398.2,328.7,398.2,328.7z"/>
		<path class="st10" d="M366.4,514.3c-0.4,0-0.8-0.2-0.9-0.6c-21.9-53-21.3-111.2-21.3-114.4c-0.8-3.5-0.7-5.8,0.2-6.9
			c0.4-0.5,0.8-0.7,1.2-0.7c14.8-7,29.6-47,29.8-47.4c0.2-0.5,0.8-0.8,1.3-0.6c0.5,0.2,0.8,0.8,0.6,1.3c-0.6,1.7-15.3,41.4-31,48.6
			c-0.1,0-0.2,0.1-0.3,0.1c-0.1,0.1-0.9,1.1,0.2,5.4c0,0.1,0,0.2,0,0.3c0,0.6-1.1,59.8,21.1,113.7c0.2,0.5,0,1.1-0.5,1.3
			C366.6,514.3,366.5,514.3,366.4,514.3z M345.9,393.6C345.9,393.6,345.9,393.6,345.9,393.6C345.9,393.6,345.9,393.6,345.9,393.6z
			 M345.9,393.6C345.9,393.6,345.9,393.6,345.9,393.6C345.9,393.6,345.9,393.6,345.9,393.6z"/>
		<path class="st10" d="M349.7,453.3c-0.2,0-0.4-0.1-0.5-0.3c-0.1-0.3,0-0.5,0.3-0.6c18.7-7.1,24.6-29,24.6-29.2
			c0.1-0.3,0.3-0.4,0.6-0.4c0.3,0.1,0.4,0.3,0.4,0.6c-0.1,0.2-6.1,22.5-25.2,29.9C349.8,453.3,349.8,453.3,349.7,453.3z"/>
		<path class="st10" d="M358.9,454.5c-0.2,0-0.4-0.1-0.5-0.3c-0.1-0.2,0-0.5,0.2-0.7c14.2-6.8,18.2-25.6,18.2-25.8
			c0.1-0.3,0.3-0.4,0.6-0.4c0.3,0.1,0.4,0.3,0.4,0.6c0,0.2-4.1,19.5-18.8,26.5C359,454.5,359,454.5,358.9,454.5z"/>
		<path class="st10" d="M349,397.3c-0.2,0-0.4-0.1-0.5-0.3c-0.1-0.3,0-0.5,0.2-0.7c20-9.3,32.3-49.2,32.4-49.6
			c0.1-0.3,0.4-0.4,0.6-0.3c0.3,0.1,0.4,0.4,0.3,0.6c-0.5,1.7-12.6,40.7-33,50.2C349.1,397.3,349,397.3,349,397.3z"/>
		<path class="st10" d="M496.2,328.7C496.2,328.7,496.2,328.7,496.2,328.7c-0.6,0-1-0.5-1-1c0.4-9.2-1.8-47.7-1.8-48
			c0-0.5,0.3-0.9,0.7-1c5.5-1.4,13.7-4.2,13.8-4.2c0.3-0.1,0.6-0.1,0.8,0.1c0.3,0.1,0.4,0.4,0.5,0.7c0.1,0.3,5.7,32.4,6.3,52.4
			c0,0.6-0.4,1-1,1c-0.5,0-1-0.4-1-1c-0.6-17.7-5.1-45.1-6.1-51c-2.3,0.8-7.7,2.5-12,3.7c0.3,5.8,2.1,38.8,1.8,47.4
			C497.2,328.3,496.7,328.7,496.2,328.7z"/>
		<path class="st10" d="M528,514.3c-0.1,0-0.3,0-0.4-0.1c-0.5-0.2-0.8-0.8-0.5-1.3c22.2-53.9,21.1-113.1,21.1-113.7
			c0-0.1,0-0.2,0-0.3c1-4.3,0.3-5.3,0.2-5.4c-0.1,0-0.2,0-0.3-0.1c-15.6-7.1-30.3-46.9-31-48.6c-0.2-0.5,0.1-1.1,0.6-1.3
			c0.5-0.2,1.1,0.1,1.3,0.6c0.1,0.4,14.9,40.4,29.8,47.4c0.4,0.1,0.8,0.3,1.2,0.7c1,1.2,1,3.5,0.2,6.9c0.1,3.2,0.7,61.3-21.3,114.4
			C528.7,514.1,528.4,514.3,528,514.3z M548.5,393.6C548.5,393.6,548.5,393.6,548.5,393.6C548.5,393.6,548.5,393.6,548.5,393.6z
			 M548.5,393.6C548.5,393.6,548.5,393.6,548.5,393.6C548.5,393.6,548.5,393.6,548.5,393.6z"/>
		<path class="st10" d="M447.3,416.6H447c-20.9,0-37-3.7-37.1-3.7c-0.1,0-0.3-0.1-0.4-0.2c-3.7-3.1-12.2-17.6-13-19.8
			c-0.8-2.1,4.3-31,5.8-39.8c0.1-0.5,0.5-0.8,1-0.7c0.3,0,26.2,2.2,43.8,2.2c0.1,0,0.1,0,0.1,0c0,0,0.1,0,0.2,0
			c17.6,0,43.5-2.2,43.8-2.2c0.5,0,0.9,0.3,1,0.7c1.6,8.8,6.6,37.7,5.8,39.8c-0.9,2.2-9.3,16.7-13,19.8c-0.1,0.1-0.2,0.2-0.4,0.2
			C484.3,412.9,468.2,416.6,447.3,416.6z M410.5,411.2c2,0.4,17.1,3.6,36.5,3.6h0.3c19.4,0,34.6-3.2,36.5-3.6
			c3.5-3.2,11.7-17.2,12.4-19c0.4-1.8-3.3-24-5.8-38c-4.6,0.4-27.2,2.2-43.1,2.2c-0.1,0-0.1,0-0.2,0c0,0-0.1,0-0.1,0
			c-15.9,0-38.5-1.8-43.1-2.2c-2.5,14.1-6.2,36.2-5.8,38.1C398.8,394,407,408,410.5,411.2z"/>
		<path class="st10" d="M447.6,430h-0.9c-45.8,0-89.7-9.9-90.2-10c-0.3-0.1-0.4-0.3-0.4-0.6c0.1-0.3,0.3-0.4,0.6-0.4
			c0.4,0.1,44.3,9.9,89.9,9.9h0.9c45.7,0,89.5-9.8,89.9-9.9c0.3-0.1,0.5,0.1,0.6,0.4c0.1,0.3-0.1,0.5-0.4,0.6
			C537.3,420.1,493.4,430,447.6,430z"/>
		<path class="st10" d="M544.7,453.3c-0.1,0-0.1,0-0.2,0c-19.2-7.3-25.2-29.6-25.2-29.9c-0.1-0.3,0.1-0.5,0.4-0.6
			c0.3-0.1,0.5,0.1,0.6,0.4c0.1,0.2,5.9,22.1,24.6,29.2c0.3,0.1,0.4,0.4,0.3,0.6C545.1,453.2,544.9,453.3,544.7,453.3z"/>
		<path class="st10" d="M535.5,454.5c-0.1,0-0.1,0-0.2,0c-14.6-7-18.7-26.3-18.8-26.5c-0.1-0.3,0.1-0.5,0.4-0.6
			c0.3-0.1,0.5,0.1,0.6,0.4c0,0.2,4,19.1,18.2,25.8c0.3,0.1,0.4,0.4,0.2,0.7C535.8,454.4,535.7,454.5,535.5,454.5z"/>
		<path class="st10" d="M545.4,397.3c-0.1,0-0.1,0-0.2,0c-20.4-9.5-32.5-48.5-33-50.2c-0.1-0.3,0.1-0.5,0.3-0.6
			c0.3-0.1,0.5,0.1,0.6,0.3c0.1,0.4,12.5,40.3,32.4,49.6c0.3,0.1,0.4,0.4,0.2,0.7C545.8,397.2,545.6,397.3,545.4,397.3z"/>
		<path class="st10" d="M447.4,338.6H447c-15.4,0-43-2.8-43.3-2.8c-0.5-0.1-0.9-0.5-0.9-1.1c0.1-0.5,0.5-0.9,1.1-0.9
			c0.3,0,27.8,2.8,43.1,2.8h0.4c15.3,0,42.8-2.8,43.1-2.8c0.6,0,1,0.3,1.1,0.9c0.1,0.5-0.3,1-0.9,1.1
			C490.4,335.8,462.8,338.6,447.4,338.6z"/>
		<path class="st10" d="M447.6,345.9h-0.9c-20.5,0-39.1-1.7-39.3-1.7c-0.3,0-0.5-0.3-0.5-0.5c0-0.3,0.3-0.5,0.5-0.5
			c0.2,0,18.8,1.7,39.2,1.7h0.9c20.4,0,39.1-1.7,39.2-1.7c0.3,0,0.5,0.2,0.5,0.5c0,0.3-0.2,0.5-0.5,0.5
			C486.8,344.3,468.1,345.9,447.6,345.9z"/>
		<path class="st10" d="M447.4,365.3H447c-22.6,0-41.2-2.1-41.4-2.1c-0.3,0-0.5-0.3-0.4-0.6c0-0.3,0.3-0.5,0.6-0.4
			c0.2,0,18.7,2.1,41.3,2.1h0.4c22.6,0,41.1-2.1,41.3-2.1c0.3,0,0.5,0.2,0.6,0.4c0,0.3-0.2,0.5-0.4,0.6
			C488.6,363.2,470,365.3,447.4,365.3z"/>
		<path class="st10" d="M449.2,513.8c-0.4,0-0.7-0.3-0.8-0.7l-1.3-36.4l-1.3,36.4c0,0.4-0.4,0.7-0.8,0.7c-0.4,0-0.7-0.4-0.7-0.8
			l1.9-53.5c0-0.4,0.3-0.7,0.8-0.7h0.3c0.4,0,0.7,0.3,0.8,0.7L450,513C450,513.4,449.6,513.8,449.2,513.8
			C449.2,513.8,449.2,513.8,449.2,513.8z"/>
		<path class="st10" d="M546.8,391.7c0,0,1.4,2.6,0.8,5.1c-0.5,2.4-0.4,2.7-0.4,3.9c0,1.2,0.3,47.1-15.1,97.3l-4.8,14.2l1.5-1.1
			l7.6-22.1l7.2-27.9l2.5-21.1l2.4-22.3l0.7-19.5l0.5-4.6L546.8,391.7z"/>
	</g>
	<g class="st11">
		<path class="st12" d="M446.8,407.2c-0.2,0-0.3-0.1-0.3-0.3v-12.2c0-0.2,0.1-0.3,0.3-0.3c0.2,0,0.3,0.1,0.3,0.3v12.2
			C447.1,407,446.9,407.2,446.8,407.2z"/>
		<path class="st12" d="M438,394.9c-3.4,0-5.2-2-6-3.3c-1.2-1.9-1.1-6.3-1.1-6.4c0-0.1,0-0.2,0.1-0.2c0.1-0.1,0.1-0.1,0.2-0.1
			c0.2,0,4.5,0.3,6.3,1.6c1.5,1,3.7,3.5,2.5,8c0,0.1-0.1,0.2-0.2,0.2C439.2,394.9,438.6,394.9,438,394.9z M439.8,394.5L439.8,394.5
			L439.8,394.5z M431.5,385.5c0,1,0.1,4.3,1,5.8c0.8,1.4,2.9,3.6,7,2.9c1-4.1-1-6.3-2.3-7.2C435.9,386,432.6,385.6,431.5,385.5z"/>
		<path class="st12" d="M446.8,402.3c-0.1,0-0.2,0-0.2-0.1l-7-7.5c-0.1-0.1-0.1-0.3,0-0.4c0.1-0.1,0.3-0.1,0.4,0l7,7.5
			c0.1,0.1,0.1,0.3,0,0.4C446.9,402.3,446.8,402.3,446.8,402.3z"/>
		<path class="st12" d="M446.8,395c-0.1,0-0.1,0-0.2-0.1c-0.3-0.2-7.2-5.7-7-11c0.2-5.3,6.7-12.5,7-12.8c0.1-0.1,0.3-0.1,0.4,0
			c0.3,0.3,6.7,7.5,7,12.8c0.2,5.4-6.7,10.8-7,11C446.9,395,446.8,395,446.8,395z M446.8,371.8c-1.1,1.3-6.4,7.6-6.6,12.2
			c-0.2,4.6,5.5,9.5,6.6,10.4c1.1-0.9,6.8-5.8,6.6-10.4C453.1,379.4,447.9,373.1,446.8,371.8z"/>
		<path class="st12" d="M455.5,394.9c-0.6,0-1.2-0.1-1.8-0.2c-0.1,0-0.2-0.1-0.2-0.2c-1.2-4.5,1.1-7,2.5-8c1.8-1.3,6.2-1.6,6.3-1.6
			c0.1,0,0.2,0,0.2,0.1c0.1,0.1,0.1,0.1,0.1,0.2c0,0.2,0,4.6-1.1,6.4C460.7,393,458.9,394.9,455.5,394.9z M453.9,394.2
			c4.1,0.7,6.2-1.5,7-2.9c0.9-1.5,1-4.8,1-5.8c-1,0.1-4.3,0.5-5.7,1.5C455,387.9,453,390.1,453.9,394.2z"/>
		<path class="st12" d="M446.8,402.3c-0.1,0-0.1,0-0.2-0.1c-0.1-0.1-0.1-0.3,0-0.4l7-7.5c0.1-0.1,0.3-0.1,0.4,0
			c0.1,0.1,0.1,0.3,0,0.4l-7,7.5C446.9,402.3,446.8,402.3,446.8,402.3z"/>
	</g>
</g>
</svg>
