<?xml version="1.0" encoding="utf-8"?>
<!-- Generator: Adobe Illustrator 21.0.0, SVG Export Plug-In . SVG Version: 6.00 Build 0)  -->
<svg version="1.1" id="圖層_1" xmlns="http://www.w3.org/2000/svg" xmlns:xlink="http://www.w3.org/1999/xlink" x="0px" y="0px"
	 viewBox="0 0 822.9 601.4" style="enable-background:new 0 0 822.9 601.4;" xml:space="preserve">
<style type="text/css">
	.st0{fill:#C3B6A7;}
	.st1{fill:#E4E2DE;}
	.st2{opacity:0.5;fill:#9FB8C6;}
	.st3{opacity:0.5;fill:#BEBDBE;}
	.st4{fill:#FFFFFF;}
	.st5{fill:#D4CEC8;}
	.st6{fill:#FDF9F8;}
</style>
<g>
	<g>
		<defs>
			<path id="SVGID_4_" d="M535,317.6l-11.3-0.2l-2-0.9c-3.2-6.8-6.8-13.9-10.8-21.1c-0.2-0.4-0.1-0.8,0.3-1l-5.1-17.3
				c0.4-0.5-0.3-0.3-0.7-0.1l-1.2-0.3l3-1.7l2.3,2c31.9,13.6,28.3,24.6,28.3,24.6l1.6,0.9l5.4,4.7l1,4.8l-1.3,3.2L535,317.6z"/>
		</defs>
		<use xlink:href="#SVGID_4_"  style="overflow:visible;fill:#FFFFFF;"/>
		<clipPath id="SVGID_1_">
			<use xlink:href="#SVGID_4_"  style="overflow:visible;"/>
		</clipPath>
	</g>
	<path class="st0" d="M535.8,303.3c0.2-0.1,0.5-0.1,0.7,0.2c0.1,0.2,0.1,0.5-0.2,0.7c-0.3,0.2-6.3,3.5-18.1,4.7c0-0.3-0.1-0.7-0.1-1
		C529.7,306.6,535.7,303.3,535.8,303.3z"/>
	<path class="st1" d="M526.3,317.5l-2.6,0l0,0c-3.4-7.6-7.2-15.3-11.5-22.8C512.2,294.7,518.3,304,526.3,317.5z"/>
	<path class="st0" d="M547.4,310c0,0-6.4-8.3-6.4-8.3l-2-0.6c-0.5-2.6-0.8-7.9-5.9-12.1c-3.9-3.2-14.1-8.2-20.5-11.3l0,0l-4.9-3.2
		l-2.3,0.7l0.3,0.9l0.9,0.5l0,0c0.7,0.3,1.9,0.9,3.4,1.7l1.4,0.7c6.9,3.4,18.2,9.2,20.9,12.4c2.7,3.2,3.7,6.6,4.7,10.6
		c0.1,0.4,0.2,1.2,0.4,1.5c0.4,0.5,0.7,0.1,1.2,0.3c0,0,5.1,6.8,5.1,6.8c0,0,1.2,2.2-1.7,3.7c-4.2,2.1-18.4,3.2-18.4,3.2
		s1.1,2.5,1.1,2.5c0.1,0.2,2.5-0.1,2.7-0.2c2.1-0.2,4.2-0.4,6.3-0.7c3.1-0.4,6.3-1,9.3-2.1c1.2-0.4,2-1.1,3-1.9
		C548.1,313.3,548.4,311.2,547.4,310z"/>
	<g>
		<defs>
			<path id="SVGID_3_" d="M359.7,317.7l11.3-0.2l2-0.9c3.2-6.8,6.8-13.9,10.8-21.1c0.2-0.4,0.1-0.8-0.3-1l3.2-16.6
				c0.6,0.6,1.7,1.6,3.3,3.1v-2l-2.9-2.4l-1.9,0.5c-31.9,13.6-28.3,24.6-28.3,24.6l-1.6,0.9l-5.4,4.7l-1,4.8l1.3,3.2L359.7,317.7z"
				/>
		</defs>
		<use xlink:href="#SVGID_3_"  style="overflow:visible;fill:#FFFFFF;"/>
		<clipPath id="SVGID_2_">
			<use xlink:href="#SVGID_3_"  style="overflow:visible;"/>
		</clipPath>
	</g>
	<path class="st0" d="M358.9,303.3c-0.2-0.1-0.5-0.1-0.7,0.2c-0.1,0.2-0.1,0.5,0.2,0.7c0.3,0.2,6.3,3.5,18.1,4.7
		c0-0.3,0.1-0.7,0.1-1C364.9,306.6,359,303.3,358.9,303.3z"/>
	<path class="st0" d="M350.9,310.6c0,0,5.1-6.8,5.1-6.8c0.6-0.2,0.8,0.2,1.2-0.3c0.2-0.3,0.3-1.1,0.4-1.5c1.1-4,2-7.4,4.7-10.6
		c3.6-4.2,22-12.9,25.7-14.7l-2-0.7c-4.8,2.4-19.6,9.2-24.5,13.2c-5.1,4.2-5.4,9.5-5.9,12.1l-2,0.6c0,0-6.3,8.2-6.4,8.3
		c-1,1.3-0.7,3.3,1.3,5.1c0.9,0.8,1.8,1.5,3,1.9c3,1.1,6.2,1.7,9.3,2.1c2.1,0.3,4.2,0.5,6.3,0.7c0.2,0,2.6,0.3,2.7,0.2
		c0,0,1.1-2.5,1.1-2.5s-14.2-1.1-18.4-3.2C349.6,312.8,350.9,310.6,350.9,310.6z"/>
	<path class="st1" d="M368.3,317.5l2.6,0l0,0c3.4-7.6,7.2-15.3,11.5-22.8C382.5,294.7,376.4,304,368.3,317.5z"/>
	<path class="st2" d="M348.8,425.3l0.3,5.8c8.2,3.3,42.6,15.9,94.6,15.9l4.5-6.4l4.2,6.3c27.1-0.7,58.6-4.9,93.2-15.5l0.2-5.6
		C545.8,425.8,354.6,425.5,348.8,425.3z"/>
	<path class="st3" d="M470.2,446.7c40.8-2.5,63-9.6,75.2-14.8c0.2-5.4,0.2-8.8,0.2-8.8s-56.7,7.6-99.1,7.6
		c-42.4,0-97.4-7.6-97.4-7.6s0,2.2,0.1,6C360.7,435.6,398.5,451,470.2,446.7z"/>
	<path class="st4" d="M432.4,300.5L421.3,311c-0.2,0.2-0.4,0.2-0.6,0.2c-0.2,0-0.4-0.1-0.5-0.3c-3-4.4-29.8-29.8-33.6-33.4
		l-3.2,16.6c0.4,0.2,0.5,0.7,0.3,1c-40.7,72.8-34.9,125.4-34.3,130.2c25,13.4,84.6,16.9,90.2,17.2l6.7-9.9c0,0,0.1-0.1,0.1-0.1
		l-1.1-1.6c-0.1-0.1-0.1-0.3-0.1-0.4c-0.4-16.8,1.6-109,1.6-109.9v-4c0-0.1,0-0.2,0-0.3l1.2-3.3
		C446.9,311.8,440.6,304.6,432.4,300.5z"/>
	<path class="st4" d="M511.1,294l-5-17.3l-27.4,28.2c-0.3,0.3-0.8,0.3-1,0c-0.1-0.1-6.1-5.6-12.9-9.5c-3.8,2.4-13,18.9-16.4,25.4
		c-0.1,4.4-2,92.4-1.6,109.4l8.3,12.2c5.6-0.3,65.2-3.7,90.2-17.2c0.6-4.8,6.4-57.5-34.3-130.2C510.6,294.7,510.7,294.2,511.1,294z"
		/>
	<path class="st4" d="M490.2,281.9l13.5-4.4l-25.6,26.3c-2.2-2-10.7-9.2-18.7-12.1C466.6,289.6,487.1,283.5,490.2,281.9z"/>
	<path class="st5" d="M457.3,292.7c2,0.5,4,1.4,6,2.5c-4.3,3.6-11.8,17-15,23v-0.9L457.3,292.7z"/>
	<path class="st5" d="M442.6,306.1c-2.5-2.1-5.6-4.4-9-6.2l2.7-2.5L442.6,306.1z"/>
	<path class="st4" d="M411.8,284.5c1.1,0.4,15,5.4,23.4,11.7l-14.3,13.5c-4.3-5.3-23.7-23.9-31-30.8
		C394.4,280.6,402.7,283.2,411.8,284.5z"/>
	<path class="st1" d="M445.2,431c-0.3-11.2,0.5-55.6,1.1-84.4l-3.7,85.5l-3,10.8l6.7-9.9c0,0,0.1-0.1,0.1-0.1l-1.1-1.6
		C445.3,431.3,445.2,431.1,445.2,431z"/>
	<path class="st1" d="M421.3,311.4c-0.2,0.2-0.4,0.2-0.6,0.2c-0.2,0-0.4-0.1-0.5-0.3c-2.6-3.8-22.5-22.8-30.6-30.6l30.7,33.3
		c0,0,13.8-12.2,16.9-10.2l-3-2c-0.5-0.3-1.1-0.6-1.7-0.9L421.3,311.4z"/>
	<path class="st1" d="M388.4,279c0,0,16.6,7.9,28.3,7.4l-4.1-2.5l-24.9-6.8L388.4,279z"/>
	<path class="st1" d="M505.7,275.4c0,0-3.9,9.1-36.2,13.3l18.1-7L505.7,275.4z"/>
	<path class="st6" d="M383.7,295.5c0,0-30.3,69.6-30.7,133l-4.7-2.5c0,0-2.3-37.2,5.3-62.2C361.1,338.9,378.6,300.8,383.7,295.5z"/>
	<path class="st1" d="M514.7,302.6c3.9,18.8,15.5,84,0.2,132.9c11.6-2.4,22.6-5.6,30.3-9.8C545.7,421.1,551.1,371.7,514.7,302.6z"/>
	<path class="st1" d="M477.6,308.1l27.5-29.9l-26.4,27.2c-0.3,0.3-0.8,0.3-1,0c-0.1-0.1-6.1-5.6-12.9-9.5c-0.5,0.3-1,0.8-1.7,1.5
		C468.2,297.1,477.6,308.1,477.6,308.1z"/>
	<path class="st1" d="M489.3,284.7c0,0,22.3-6.7,30.5-0.6l-12.9-8.6l-17.7,8.3V284.7z"/>
	<circle class="st1" cx="453.9" cy="360.3" r="2.8"/>
	<circle class="st1" cx="453.3" cy="411.5" r="2.8"/>
	<circle class="st1" cx="453.6" cy="384.6" r="2.8"/>
	<path class="st1" d="M453.9,334.3c-1.6,0-2.8,1.3-2.8,2.8c0,1.6,1.3,2.8,2.8,2.8c1.6,0,2.8-1.3,2.8-2.8
		C456.7,335.5,455.5,334.3,453.9,334.3z"/>
	<circle class="st4" cx="455.2" cy="358.7" r="2.8"/>
	<circle class="st4" cx="454.6" cy="409.9" r="2.8"/>
	<circle class="st4" cx="454.9" cy="383.1" r="2.8"/>
	<path class="st4" d="M455.2,332.7c-1.6,0-2.8,1.3-2.8,2.8c0,1.6,1.3,2.8,2.8,2.8s2.8-1.3,2.8-2.8
		C458.1,334,456.8,332.7,455.2,332.7z"/>
	<path class="st0" d="M455.2,339.3c-2.1,0-3.8-1.7-3.8-3.8c0-2.1,1.7-3.8,3.8-3.8s3.8,1.7,3.8,3.8
		C459.1,337.6,457.3,339.3,455.2,339.3z M455.2,332.7c-1.6,0-2.8,1.3-2.8,2.8c0,1.6,1.3,2.8,2.8,2.8s2.8-1.3,2.8-2.8
		C458.1,334,456.8,332.7,455.2,332.7z"/>
	<path class="st0" d="M455.2,362.6c-2.1,0-3.8-1.7-3.8-3.8c0-2.1,1.7-3.8,3.8-3.8s3.8,1.7,3.8,3.8
		C459.1,360.8,457.3,362.6,455.2,362.6z M455.2,355.9c-1.6,0-2.8,1.3-2.8,2.8c0,1.6,1.3,2.8,2.8,2.8s2.8-1.3,2.8-2.8
		C458.1,357.2,456.8,355.9,455.2,355.9z"/>
	<path class="st0" d="M454.6,413.7c-2.1,0-3.8-1.7-3.8-3.8s1.7-3.8,3.8-3.8c2.1,0,3.8,1.7,3.8,3.8S456.7,413.7,454.6,413.7z
		 M454.6,407.1c-1.6,0-2.8,1.3-2.8,2.8c0,1.6,1.3,2.8,2.8,2.8c1.6,0,2.8-1.3,2.8-2.8C457.5,408.3,456.2,407.1,454.6,407.1z"/>
	<path class="st0" d="M454.9,386.9c-2.1,0-3.8-1.7-3.8-3.8c0-2.1,1.7-3.8,3.8-3.8c2.1,0,3.8,1.7,3.8,3.8
		C458.7,385.2,457,386.9,454.9,386.9z M454.9,380.2c-1.6,0-2.8,1.3-2.8,2.8c0,1.6,1.3,2.8,2.8,2.8c1.6,0,2.8-1.3,2.8-2.8
		C457.7,381.5,456.5,380.2,454.9,380.2z"/>
	<path class="st0" d="M496.8,358.7c-1.3,0-2.7-0.1-4.2-0.2c-4.1-0.3-9.6-1.8-12.1-7c-4-8.5-2.8-26.7-2.7-27.4c0-0.2,0.2-0.4,0.5-0.5
		c0.2,0,21.8-1.6,29.3-3c0.3,0,0.5,0.1,0.6,0.4c1.4,4.9,2.6,9.7,3.7,14.4l0.3,1.4c1.6,6.6,3.6,14.9-3.6,19.4
		C505.9,357.9,501.9,358.7,496.8,358.7z M478.8,324.6c-0.2,2.8-0.9,19,2.6,26.5c2.3,4.8,7.4,6.2,11.2,6.5c7,0.5,12.2-0.2,15.4-2.2
		c6.6-4.1,4.8-11.7,3.2-18.3l-0.3-1.4c-1.1-4.5-2.3-9.2-3.6-14C500.1,322.9,481.9,324.4,478.8,324.6z"/>
	<path class="st0" d="M430.5,302.8c0,0,3.6-1.3,6.6,1v-1.8l-4.4-1.9L430.5,302.8z"/>
	<path class="st0" d="M442.6,308.1c0,0,3.9,4.3,4.8,7.2l1.4-1.2l-3.1-4.3L442.6,308.1z"/>
	<path class="st0" d="M512.1,294.8c-0.2-0.4-0.7-0.5-1-0.3c-0.4,0.2-0.5,0.7-0.3,1c38.3,68.6,35.4,119.3,34.5,128.9
		c-0.1,0.4-0.1,0.6-0.1,0.6c-12.9,6.5-46.6,12.6-69.1,16.2c-11,1.1-19.2,1.6-21.1,1.7l-8.3-12.2c-0.3-14.3,1-78.7,1.4-101.5
		c0.9-8.8,4.2-15.2,5.2-17c0.1-0.2,0.2-0.3,0.3-0.5c0,0,0,0,0,0l0,0c3.9-6.8,8.6-14.2,11.1-15.7c6.8,3.9,12.8,9.4,12.9,9.5
		c0.3,0.3,0.8,0.3,1,0l28.2-29c0.2-0.2,0.3-0.6,0.1-0.9c-0.2-0.3-0.5-0.4-0.9-0.3l-16.4,5.4c0,0-0.1,0-0.1,0.1
		c-3.3,1.8-32.2,10.3-32.9,10.5c-0.1,0-0.1,0-0.1,0.1c0,0,0,0,0,0h0c0,0-0.1,0-0.1,0.1c-0.1,0.1-0.2,0.2-0.3,0.4l-7.4,20.3
		L437,295.7c0,0,0-0.1-0.1-0.1c0,0-0.1-0.1-0.1-0.1c-8.9-6.9-24-12.3-24.6-12.5c0,0-0.1,0-0.1,0c-13.3-1.9-25-6.7-25.1-6.8
		c-0.3-0.1-0.7,0-0.9,0.3c-0.2,0.3-0.1,0.7,0.1,1c0.3,0.3,30.8,29,34,33.8c0.1,0.2,0.3,0.3,0.5,0.3c0.2,0,0.4-0.1,0.6-0.2l11.1-10.5
		c8.2,4.2,14.5,11.4,15.6,12.7l-1.2,3.3c0,0.1,0,0.2,0,0.3v4c0,0,0,0,0,0c0,0.9-2,93.1-1.6,109.9c0,0.1,0,0.3,0.1,0.4l1.1,1.6
		c0,0-0.1,0.1-0.1,0.1l-6.7,9.9c-1.9-0.1-10.1-0.6-21-1.7c-22.5-3.6-56.3-9.8-69.2-16.3c0,0-0.1-0.6-0.2-1.7
		c-1-12-2.5-61.5,34.6-127.8c0.2-0.4,0.1-0.8-0.3-1c-0.4-0.2-0.8-0.1-1,0.3c-0.2,0.3-0.3,0.5-0.4,0.8c-4.8,7.9-42.2,71.9-35.4,129.9
		c0,0,3.1,9.4,60.4,16c18.1,2.3,32.6,3,32.9,3c0,0,0,0,0,0c0,0,0,0,0,0c0,0,0,0,0,0c0,0,0,0,0,0c0.2,0,0.5-0.1,0.6-0.3l6.7-9.8
		l6.7,9.8c0.1,0.2,0.4,0.3,0.6,0.3c0,0,0,0,0,0c0.3,0,14.6-0.7,32.4-2.9c57.8-6.6,60.9-16,60.9-16
		C555.2,363.6,512.1,294.8,512.1,294.8z M420.9,309.8c-4.3-5.3-23.7-23.9-31-30.8c4.5,1.6,12.8,4.2,21.9,5.5
		c1.1,0.4,15,5.4,23.4,11.7L420.9,309.8z M433.6,299.8l2.7-2.5l6.4,8.8C440.1,303.9,437,301.6,433.6,299.8z M490.2,281.9l13.5-4.4
		l-25.6,26.3c-2.2-2-10.7-9.2-18.7-12.1C466.6,289.6,487.1,283.5,490.2,281.9z M457.3,292.7c2,0.5,4,1.4,6,2.5
		c-4.3,3.6-11.8,17-15,23v-0.9L457.3,292.7z"/>
	<path class="st0" d="M384.4,293c0,0-0.1,0-0.1,0c-0.1-0.1-0.2-0.3-0.1-0.4l5.2-10.2c0.1-0.1,0.3-0.2,0.4-0.1
		c0.1,0.1,0.2,0.3,0.1,0.4l-5.2,10.2C384.6,292.9,384.5,293,384.4,293z"/>
	<path class="st0" d="M509.7,293c-0.1,0-0.2-0.1-0.3-0.2l-5.2-10.2c-0.1-0.1,0-0.3,0.1-0.4c0.1-0.1,0.3,0,0.4,0.1l5.2,10.2
		c0.1,0.1,0,0.3-0.1,0.4C509.8,292.9,509.7,293,509.7,293z"/>
	<path class="st0" d="M481.6,330.4c-0.2,0-0.3-0.1-0.3-0.3c0-0.2,0.1-0.3,0.3-0.3l25.5-2.3c0.2,0,0.3,0.1,0.3,0.3
		c0,0.2-0.1,0.3-0.3,0.3L481.6,330.4C481.6,330.4,481.6,330.4,481.6,330.4z"/>
</g>
</svg>
