<?xml version="1.0" encoding="utf-8"?>
<!-- Generator: Adobe Illustrator 21.0.0, SVG Export Plug-In . SVG Version: 6.00 Build 0)  -->
<svg version="1.1" id="圖層_1" xmlns="http://www.w3.org/2000/svg" xmlns:xlink="http://www.w3.org/1999/xlink" x="0px" y="0px"
	 viewBox="0 0 822.9 601.4" style="enable-background:new 0 0 822.9 601.4;" xml:space="preserve">
<style type="text/css">
	.st0{fill:url(#SVGID_1_);}
	.st1{fill:#B6C9D2;}
	.st2{opacity:0.5;fill:#9FB8C6;}
	.st3{opacity:0.3;fill:#9FB8C6;}
	.st4{fill:#325764;}
	.st5{fill:#9FB8C6;}
	.st6{fill:#4D7484;}
	.st7{fill:#FFFFFF;}
	.st8{fill:url(#SVGID_2_);}
	.st9{opacity:0.3;fill:none;stroke:#9FB8C6;stroke-width:3.9922;stroke-linecap:round;stroke-linejoin:round;stroke-miterlimit:10;}
	.st10{fill:none;stroke:#B6C9D2;stroke-width:0.998;stroke-linecap:round;stroke-linejoin:round;}
	.st11{fill:none;stroke:#B6C9D2;stroke-width:0.998;stroke-linecap:round;stroke-linejoin:round;stroke-dasharray:6.1222,6.1222;}
	.st12{fill:none;stroke:#587F8C;stroke-width:0.998;stroke-linecap:round;stroke-linejoin:round;stroke-miterlimit:10;}
	.st13{fill:#284655;}
</style>
<g>
	<g>
		<linearGradient id="SVGID_1_" gradientUnits="userSpaceOnUse" x1="350.6784" y1="466.5901" x2="547.136" y2="466.5901">
			<stop  offset="0" style="stop-color:#9FB8C6"/>
			<stop  offset="0.7645" style="stop-color:#728D9D"/>
			<stop  offset="1" style="stop-color:#3A6073"/>
		</linearGradient>
		<path class="st0" d="M547.1,414.4c0,0-55.9,14.3-98.3,14.3c-42.4,0-98.2-14.3-98.2-14.3s-0.2,40.5,8,67l0.9,0.1l8.5,29.5l23.3,7.8
			l55.6-6l-0.1-2.5l1-29.2l0.1,0l0.2-8.6v0l0.4-13.8l0.6,4.1l1.2,51l32.6,2.5l29.6,1.3l15.9-3.4l3.7-7.1l6.8-25.5l0.2,0
			C547.3,454.8,547.1,414.4,547.1,414.4z"/>
		<path class="st1" d="M448.6,511.4c0,0,0.5,0.6,0.4,2.2c-0.1,1.7-0.2,4.1-0.2,4.1s-0.2,1.4-8.5,2.7c-8.3,1.2-59,3.8-73.1-2v-1.9
			c0,0-1.8-3.8-1.7-4.2c0.2-0.5,4-2.3,7.2-2.1c3.2,0.2,40.7,7.2,69.5,1.8C442.3,512,447.1,510.2,448.6,511.4z"/>
		<path class="st1" d="M449.7,511.4c0,0-0.5,0.6-0.4,2.2c0.1,1.7,0.2,4.1,0.2,4.1s0.2,1.4,8.5,2.7c8.3,1.2,59,3.8,73.1-2v-1.9
			c0,0,1.8-3.8,1.7-4.2c-0.2-0.5-4-2.3-7.2-2.1c-3.2,0.2-40.7,7.2-69.5,1.8C456,512,451.1,510.2,449.7,511.4z"/>
		<path class="st2" d="M471.7,437c40.8-2.5,63-9.6,75.2-14.8c0.2-5.4,0.2-8.8,0.2-8.8s-55.9,14.3-98.3,14.3
			c-42.4,0-98.2-14.3-98.2-14.3s0,2.2,0.1,6C362.3,426,400,441.4,471.7,437z"/>
		<path class="st2" d="M448.4,457.1c0,0-2.8,50.9-12.9,56l11.9-2.4L448.4,457.1z"/>
		<path class="st2" d="M365.6,501.8c0,0,2.7,5.8,11.7,8.1c0,0-5-0.8-9,0.9L365.6,501.8z"/>
		<path class="st3" d="M448.5,458.6c0,0-10.1-6.4-12.6-26.6h4.1c0,0-0.4,14.8,8.4,25c0,0,8.2-9.3,9.7-25l3.9-0.1
			C462,432,458.8,453.5,448.5,458.6z"/>
		<path class="st2" d="M547.9,416l-3.8,1.3c-0.6,5.3-4.4,24.1-4.4,24.1c-8.3-4.2-13.4-17.4-13.4-17.4l-3.3,0.7
			c2.2,7.5,5.6,12.9,8.8,16.6l0,0c0,0,0,0,0,0c0.6,0.7,1.2,1.3,1.8,1.9c2.2,2.7,5.4,8.2,4,15.3l-3.1,14.8c0,0.1-7.3,34.6-9,36.8
			l4.5,0c0,0,5.9-17.5,9-28.8c0.2,0,0.2,0.1,0.2,0.1C546.3,467.7,547.9,416,547.9,416z"/>
		<path class="st4" d="M544.7,452c-0.1,0-0.2,0-0.3-0.1c-17.4-7-22.1-26.8-22.2-27c-0.1-0.4,0.2-0.8,0.6-0.9
			c0.4-0.1,0.8,0.2,0.9,0.6c0,0.2,4.6,19.2,21.3,26c0.4,0.2,0.6,0.6,0.4,1C545.3,451.8,545,452,544.7,452z"/>
		<path class="st4" d="M537.2,451.7c-0.1,0-0.2,0-0.2-0.1c-15.5-8.5-17.6-23.5-17.6-23.6c0-0.3,0.2-0.5,0.4-0.6
			c0.3,0,0.5,0.2,0.6,0.4c0,0.1,2,14.6,17.1,22.9c0.2,0.1,0.3,0.4,0.2,0.7C537.6,451.6,537.4,451.7,537.2,451.7z"/>
		<path class="st5" d="M403.9,522.8c-14.9,0-30-0.9-36.9-3.7c-0.3-0.1-0.4-0.4-0.4-0.7v-1.7c-1.9-3.9-1.7-4.4-1.6-4.7
			c0.4-1,4.8-2.8,7.9-2.6c0.5,0,1.6,0.2,3.2,0.4c10.2,1.5,41.3,6,66,1.4c1-0.4,5.3-1.8,6.9-0.4c0,0,0,0,0.1,0
			c0.1,0.1,0.8,0.9,0.6,2.8c-0.1,1.7-0.2,4.1-0.2,4.1c-0.2,1.7-5.1,2.8-9,3.4C436.4,521.8,420.4,522.8,403.9,522.8z M367.9,517.9
			c14.3,5.4,63.8,3,72.3,1.8c6.1-0.9,7.6-1.9,7.9-2.2c0-0.5,0.1-2.5,0.2-3.9c0.1-1-0.1-1.5-0.2-1.6c-0.9-0.6-3.9,0.1-5.6,0.7
			c0,0-0.1,0-0.1,0c-24.9,4.7-56.2,0.2-66.5-1.3c-1.6-0.2-2.7-0.4-3.1-0.4c-2.6-0.2-5.6,1.1-6.5,1.7c0.2,0.7,0.9,2.3,1.5,3.6
			c0.1,0.1,0.1,0.2,0.1,0.4V517.9z M366.1,512.8L366.1,512.8L366.1,512.8z M366.2,512.4L366.2,512.4L366.2,512.4z"/>
		<path class="st5" d="M457.8,521.2c-4-0.6-8.8-1.6-9-3.4c0,0-0.1-2.4-0.2-4.1c-0.1-1.9,0.5-2.7,0.6-2.8c0,0,0,0,0.1,0
			c1.6-1.4,5.9,0.1,6.9,0.4c24.7,4.7,55.8,0.1,66-1.4c1.7-0.2,2.8-0.4,3.2-0.4c3.1-0.2,7.5,1.5,7.9,2.6c0.1,0.3,0.3,0.8-1.6,4.7v1.7
			c0,0.3-0.2,0.6-0.4,0.7c-6.9,2.8-22.1,3.7-36.9,3.7C477.9,522.8,461.8,521.8,457.8,521.2z M530.3,516.6c0-0.1,0-0.2,0.1-0.4
			c0.6-1.3,1.3-2.9,1.5-3.6c-0.9-0.6-3.9-1.9-6.5-1.7c-0.4,0-1.6,0.2-3.1,0.4c-10.3,1.5-41.6,6.1-66.5,1.3c0,0-0.1,0-0.1,0
			c-1.8-0.7-4.8-1.3-5.6-0.7c-0.1,0.1-0.3,0.6-0.2,1.6c0.1,1.4,0.2,3.4,0.2,3.9c0.3,0.3,1.8,1.3,7.9,2.2c8.5,1.3,58.1,3.6,72.3-1.8
			V516.6z M532.1,512.8L532.1,512.8L532.1,512.8z M532,512.4L532,512.4L532,512.4z"/>
		<g>
			<path class="st6" d="M450.6,481l-0.5-23.9c0-0.4-0.3-0.7-0.8-0.7h-0.9c-0.4,0-0.7,0.3-0.8,0.7l-0.5,23.9c0,0.1,0,0.3,0.1,0.4
				l-0.4,28.9l1.3,0.7l0.7-34.5l0.1-5.2l0.2,9.8c0,0.1,0,0.1,0,0.2l0.6,29.7l1.3-0.7l-0.4-28.9C450.6,481.2,450.6,481.1,450.6,481z"
				/>
			<path class="st6" d="M377.4,427.9c0,0.1-2,14.6-17.1,22.9c-0.2,0.1-0.3,0.4-0.2,0.7c0.1,0.2,0.3,0.3,0.4,0.3c0.1,0,0.2,0,0.2-0.1
				c15.5-8.5,17.6-23.5,17.6-23.6c0-0.3-0.2-0.5-0.4-0.6C377.7,427.4,377.5,427.6,377.4,427.9z"/>
			<path class="st6" d="M549.4,412.1c-0.1-0.8-2.6,0.1-2.6,0.1c-0.5,0.1-51.9,14-97.9,14c-46,0-96.9-13.8-97.4-14
				c-0.6-0.2-1.2-0.4-1.8-0.3c-0.9,0-0.9,0.4-0.9,1.2c-0.1,2.3-0.3,4.5-0.3,6.8c-0.1,4.7,0.1,9.4,0.5,14c0.7,8.9,2.1,17.8,3.8,26.6
				c1.2,6,2.5,11.9,4,17.8c0.3,1,0.5,2,0.8,3l0.1,0c5.2,20,10,30.8,10,30.8l1.6-1.3c-9.4-23-13.8-47.4-15.4-58.9
				c17-7.2,21.7-26.6,21.7-26.8c0.1-0.4-0.2-0.8-0.6-0.9c-0.4-0.1-0.8,0.2-0.9,0.6c0,0.2-4.5,18.6-20.5,25.6
				c-0.5-3.4-0.7-5.3-0.7-5.3c-1.3-14.2-1.5-26.3-1.5-29.6c6.6,1.7,54.1,13.9,97.4,13.9c42.6,0,89.7-11.7,97.5-13.8
				c0,3.4-0.2,15.4-1.5,29.5l0,0c0,0-3.4,34.2-16.3,65.7l1.8,0.6c0,0,0.1-0.1,0.2-0.4l0.2,0.4c2.9-4.4,7.1-19.4,9.9-30
				c0,0,1.2-4.4,2.8-11.3C546.6,456,551.1,431.6,549.4,412.1z"/>
		</g>
	</g>
	<g>
		<path class="st7" d="M448.9,458.5c-0.1,0-0.2,0-0.4,0c-0.1,0-0.2,0-0.4,0H448.9z"/>
		<path class="st2" d="M471.4,462.5c40.7-2.5,62.9-9.5,75.1-14.8c0.2-5.4,0.2-8.8,0.2-8.8s-55.8,14.3-98.1,14.3
			c-42.3,0-98-14.3-98-14.3s0,2.2,0.1,6C362.1,451.5,399.8,466.9,471.4,462.5z"/>
		<linearGradient id="SVGID_2_" gradientUnits="userSpaceOnUse" x1="346.8028" y1="468.9116" x2="550.949" y2="468.9116">
			<stop  offset="0" style="stop-color:#9FB8C6"/>
			<stop  offset="0.7645" style="stop-color:#728D9D"/>
			<stop  offset="1" style="stop-color:#3A6073"/>
		</linearGradient>
		<path class="st8" d="M348.3,415c0,0,107.6,26.5,199.3-1.2c0,0,5.2,86.9,2.6,98.1c0,0-42.2,14.1-100.5,11.8
			c-58.3-2.4-92.2-4.6-102.9-11.8l2-83.2L348.3,415z"/>
		<path class="st2" d="M518.9,420.7c-0.5,17.8-3,73-14.1,100.1c27.9-3.5,45.4-9.4,45.4-9.4c2.6-11.3-2.6-97.6-2.6-97.6
			C538.2,416.7,528.6,418.9,518.9,420.7z"/>
		<line class="st9" x1="447.4" y1="451.3" x2="449.7" y2="523.7"/>
		<path class="st4" d="M546.7,459.6c-0.1,0-0.2,0-0.3-0.1c-17.4-7-22.1-26.8-22.1-27c-0.1-0.4,0.2-0.8,0.6-0.9
			c0.4-0.1,0.8,0.2,0.9,0.6c0,0.2,4.6,19.2,21.2,25.9c0.4,0.2,0.6,0.6,0.4,1C547.3,459.4,547,459.6,546.7,459.6z"/>
		<path class="st4" d="M539.2,459.3c-0.1,0-0.2,0-0.2-0.1c-15.5-8.5-17.5-23.4-17.6-23.6c0-0.3,0.2-0.5,0.4-0.6
			c0.3,0,0.5,0.2,0.6,0.4c0,0.1,2,14.6,17,22.8c0.2,0.1,0.3,0.4,0.2,0.7C539.6,459.3,539.4,459.3,539.2,459.3z"/>
		<path class="st6" d="M348.5,459.6c-0.3,0-0.6-0.2-0.7-0.5c-0.2-0.4,0-0.8,0.4-1c16.6-6.7,21.2-25.7,21.2-25.9
			c0.1-0.4,0.5-0.7,0.9-0.6c0.4,0.1,0.7,0.5,0.6,0.9c0,0.2-4.8,20-22.1,27C348.7,459.6,348.6,459.6,348.5,459.6z"/>
		<path class="st6" d="M356,459.3c-0.2,0-0.3-0.1-0.4-0.3c-0.1-0.2,0-0.5,0.2-0.7c15-8.2,17-22.7,17-22.8c0-0.3,0.3-0.5,0.6-0.4
			c0.3,0,0.5,0.3,0.4,0.6c0,0.2-2.1,15.1-17.6,23.6C356.1,459.3,356,459.3,356,459.3z"/>
		<g>
			<g>
				<path class="st10" d="M352.3,504.6c0,0,1,0.3,2.9,0.8"/>
				<path class="st11" d="M361.1,506.8c24,5.5,94.3,18,179.1-2.2"/>
				<path class="st10" d="M543.2,503.9c1-0.2,1.9-0.5,2.9-0.7"/>
			</g>
		</g>
		<polygon class="st12" points="371.7,432.4 365.5,430.7 365.5,418.5 371.7,419.6 		"/>
		<polygon class="st12" points="405.1,437.5 398.8,436.6 398.8,423.8 405.1,424.8 		"/>
		<path class="st12" d="M405.3,435.2c12.1,1.2,26.2,2,42.1,1.8"/>
		<path class="st12" d="M371.7,429.9c7.1,1.6,16,3.2,26.7,4.5"/>
		<path class="st12" d="M352.1,424.3c0,0,4.5,1.8,13.3,4.1"/>
		<polygon class="st12" points="523.6,432.4 529.8,430.7 529.8,418.5 523.6,419.6 		"/>
		<polygon class="st12" points="490.2,437.5 496.5,436.6 496.5,423.8 490.2,424.8 		"/>
		<path class="st12" d="M490,435.2c-12.1,1.2-26.2,2-42.1,1.8"/>
		<path class="st12" d="M523.6,429.9c-7.1,1.6-16,3.2-26.7,4.5"/>
		<path class="st12" d="M543.1,424.3c0,0-4.5,1.8-13.3,4.1"/>
		<line class="st12" x1="447" y1="428.4" x2="447.4" y2="451.3"/>
		<path class="st6" d="M552,491.2v-23.8l0-0.1c-0.5-21.8-1.7-51.3-1.8-52.8c-0.1-2.1-1.1-2.2-1.1-2.2l-3,0.6
			c-109,26.5-194.6,0.3-195.5,0c0,0-3.3-1.1-3.4,0.7c-0.1,1.2-1.5,31.2-2,53.1l0,0.1v23.8c-0.2,8.2-0.1,15,0.2,18.3l0,0
			c0,0.6,0.1,1.1,0.1,1.6c0.1,0.5,0.3,0.9,0.6,1.2c0.7,0.6,17.7,13.9,102.3,13.9h0.6c84.6,0,101.6-13.3,102.3-13.9
			c0.3-0.3,0.6-0.7,0.6-1.2c0.2-1.4,0.2-3.4,0.3-5.8l0,0l0,4.1C552.2,505.2,552.1,498.7,552,491.2z M548.8,509.3
			c-3.5,2.1-24.8,12.9-100,12.9h-0.6c-75.3,0-96.6-10.8-100-12.9c-0.3-3.5-0.2-10,0.1-17.8v-21.8c0.7-19,2.6-45.4,3.1-52.8
			c12.7,3.6,93.4,24,194.1-0.2c0.5,7.1,2.5,33.9,3.2,53.1v21.8C549,499.3,549.1,505.8,548.8,509.3z"/>
	</g>
	<path class="st13" d="M355.1,426.4c-0.3,0-0.5-0.2-0.5-0.5v-14.8c0-0.3,0.2-0.5,0.5-0.5c0.3,0,0.5,0.2,0.5,0.5v14.8
		C355.6,426.1,355.4,426.4,355.1,426.4z"/>
	<path class="st13" d="M441.4,439.3c-0.3,0-0.5-0.2-0.5-0.5v-15.5c0-0.3,0.2-0.5,0.5-0.5c0.3,0,0.5,0.2,0.5,0.5v15.5
		C441.9,439.1,441.7,439.3,441.4,439.3z"/>
	<path class="st13" d="M424.2,438.7c-0.3,0-0.5-0.2-0.5-0.5v-15.5c0-0.3,0.2-0.5,0.5-0.5s0.5,0.2,0.5,0.5v15.5
		C424.7,438.4,424.5,438.7,424.2,438.7z"/>
	<path class="st13" d="M405.8,437c-0.3,0-0.5-0.2-0.5-0.5V421c0-0.3,0.2-0.5,0.5-0.5s0.5,0.2,0.5,0.5v15.5
		C406.3,436.8,406.1,437,405.8,437z"/>
	<path class="st13" d="M388.1,434.9c-0.3,0-0.5-0.2-0.5-0.5v-15.5c0-0.3,0.2-0.5,0.5-0.5c0.3,0,0.5,0.2,0.5,0.5v15.5
		C388.6,434.6,388.4,434.9,388.1,434.9z"/>
	<path class="st13" d="M369.7,430.9c-0.3,0-0.5-0.2-0.5-0.5V415c0-0.3,0.2-0.5,0.5-0.5s0.5,0.2,0.5,0.5v15.5
		C370.2,430.7,369.9,430.9,369.7,430.9z"/>
	<path class="st13" d="M449.3,423.4h-0.1c0,0,0,0,0,0c-66.3,0-99-14-99.3-14.1c-0.3-0.1-0.4-0.4-0.3-0.7c0.1-0.3,0.4-0.4,0.7-0.3
		c0.3,0.1,32.9,14,99,14c66.1,0,98.7-13.9,99-14c0.3-0.1,0.5,0,0.7,0.3c0.1,0.3,0,0.5-0.3,0.7C548.3,409.4,515.6,423.4,449.3,423.4
		C449.3,423.4,449.3,423.4,449.3,423.4z"/>
	<path class="st13" d="M543.4,426.4c-0.3,0-0.5-0.2-0.5-0.5v-14.8c0-0.3,0.2-0.5,0.5-0.5c0.3,0,0.5,0.2,0.5,0.5v14.8
		C543.9,426.1,543.7,426.4,543.4,426.4z"/>
	<path class="st13" d="M457.1,439.3c-0.3,0-0.5-0.2-0.5-0.5v-15.5c0-0.3,0.2-0.5,0.5-0.5c0.3,0,0.5,0.2,0.5,0.5v15.5
		C457.6,439.1,457.4,439.3,457.1,439.3z"/>
	<path class="st13" d="M474.3,438.7c-0.3,0-0.5-0.2-0.5-0.5v-15.5c0-0.3,0.2-0.5,0.5-0.5c0.3,0,0.5,0.2,0.5,0.5v15.5
		C474.8,438.4,474.6,438.7,474.3,438.7z"/>
	<path class="st13" d="M492.7,437c-0.3,0-0.5-0.2-0.5-0.5V421c0-0.3,0.2-0.5,0.5-0.5s0.5,0.2,0.5,0.5v15.5
		C493.2,436.8,493,437,492.7,437z"/>
	<path class="st13" d="M510.4,434.9c-0.3,0-0.5-0.2-0.5-0.5v-15.5c0-0.3,0.2-0.5,0.5-0.5c0.3,0,0.5,0.2,0.5,0.5v15.5
		C510.9,434.6,510.7,434.9,510.4,434.9z"/>
	<path class="st13" d="M528.8,430.9c-0.3,0-0.5-0.2-0.5-0.5V415c0-0.3,0.2-0.5,0.5-0.5c0.3,0,0.5,0.2,0.5,0.5v15.5
		C529.3,430.7,529.1,430.9,528.8,430.9z"/>
</g>
</svg>
