<?xml version="1.0" encoding="utf-8"?>
<!-- Generator: Adobe Illustrator 21.0.0, SVG Export Plug-In . SVG Version: 6.00 Build 0)  -->
<svg version="1.1" id="圖層_1" xmlns="http://www.w3.org/2000/svg" xmlns:xlink="http://www.w3.org/1999/xlink" x="0px" y="0px"
	 viewBox="0 0 822.9 601.4" style="enable-background:new 0 0 822.9 601.4;" xml:space="preserve">
<style type="text/css">
	.st0{fill:url(#SVGID_1_);}
	.st1{opacity:0.5;fill:#2F2A28;}
	.st2{fill:#746765;}
	.st3{opacity:0.5;}
	.st4{fill:#2F2A28;}
	.st5{fill:#231815;}
	.st6{fill:url(#SVGID_2_);}
	.st7{fill:url(#SVGID_3_);}
	.st8{fill:url(#SVGID_4_);}
</style>
<g>
	<g>
		<linearGradient id="SVGID_1_" gradientUnits="userSpaceOnUse" x1="447.7902" y1="545.2581" x2="540.7772" y2="545.2581">
			<stop  offset="0" style="stop-color:#2F2A28"/>
			<stop  offset="1" style="stop-color:#110706"/>
		</linearGradient>
		<path class="st0" d="M448.3,520.3c0.3,0,0.8,0.1,1.3,0.2c3.9,1.3,7.7,2.5,11.6,3.8c6.1,2,12.2,4,18.3,5.9c4.5,1.4,8.4,2.8,13.2,3
			c0.4,0,0.7,0,1.2,0c8.1,0,27.1-1.9,28-2c0,0,0.1,0,0.1,0c0.1,0,1.5-0.5,2.1-1.9c0.4-0.9,0.2-1.9,0.3-2.8c0.1-0.8,0.1-1.6,0.2-2.4
			c0.1-0.8,0.2-1.7,0.2-2.5c0-0.2,0-1.1,0.1-1.2c3.4,3,6.5,6.2,9.3,9.8c2.5,3.2,5.1,6.9,6.1,10.9c2,8.7-2.6,20.8-3.4,22.9
			c-4.4,1.2-61.8,13.7-77.5-0.5c0,0-8.6-9.1-10.9-14.9C448.3,546.7,447.1,529.4,448.3,520.3z"/>
		<path class="st1" d="M448.5,520.3c1.9,6.8,9.5,33,25.8,49.8c-5.3-0.9-10.4-3.6-15-5.7c0,0-8.9-7.7-11.2-13.4
			c-0.1-1.8-1-21.6,0.2-30.7C448.4,520.3,448.4,520.3,448.5,520.3z"/>
		<path class="st2" d="M531.6,526.9c3.8,4.4,7.7,9.7,8.7,14.2c1.5,6.6-0.7,15.1-2.3,19.8l-10.8,4C538.2,555.3,531.6,527,531.6,526.9
			z"/>
		<g class="st3">
			<path class="st4" d="M540.5,550.5C540.5,550.4,540.5,550.4,540.5,550.5L540.5,550.5C540.5,550.4,540.5,550.4,540.5,550.5z"/>
			<path class="st4" d="M540.5,550.6c-0.8,6.2-3,12-3.6,13.4c-1.6,0.5-8.9,2.4-18.8,4l0,0C537.9,563.6,540.2,552.4,540.5,550.6z"/>
		</g>
		<path class="st2" d="M535.2,547.4c0,0,2.5-5-2.7-4.4c-5.2,0.6-4.3,1.1-4,3c0.3,1.9,2.1,4.7,3.2,4.4
			C532.8,550.1,535.2,547.4,535.2,547.4z"/>
		<path class="st2" d="M526.6,545.9c0,0-7.1,3.4-34.3,3.6c0,0,18.9,3.5,35.1-0.1L526.6,545.9z"/>
		<path class="st2" d="M481.5,530L481.5,530l1.2,0.9c0.1,0.1,2.5,0.9,10.1,2.2c0.4,0.1,0.7,0,1.2,0c8.1,0,27.1-1.9,28-2
			c0,0,0.1,0,0.1,0c0.1,0,1.5-0.5,2.1-1.9c0.1-0.3,0.2-0.5,0.2-0.8c0,0,2.8,3-4.9,3.9c-7.7,0.9-23.9,1.8-23.9,1.8
			S484.9,534.8,481.5,530z"/>
		<path class="st5" d="M538.1,564.3c-0.2-0.4-0.6-0.5-1-0.3c-0.4,0.2-0.5,0.6-0.3,1c0,0,1,2.2,0.1,5.5c-3.2,0.9-25.2,6.8-50.7,5.6
			c-3.1-0.1-6.2-0.4-9.2-0.8c-2.7-0.3-5.4-0.6-7.9-1.5c-2.2-0.8-4.2-2.1-6.1-3.3c-2.5-1.6-4.9-3.5-7.2-5.4c-0.2-0.2-0.5-0.2-0.8-0.1
			c-0.3,0.1-0.4,0.4-0.4,0.7v4.1h-5.2l-1-0.5v-20c0-0.4-0.3-0.8-0.8-0.8c-0.4,0-0.8,0.3-0.8,0.8v20.5c0,0.3,0.2,0.5,0.4,0.7l1.6,0.8
			c0.1,0.1,0.2,0.1,0.3,0.1h6.1c0.4,0,0.8-0.3,0.8-0.8c0,0,0-3.2,0-3.2c3.9,3.2,8.1,6.4,12.9,8.1c4.8,1.7,10.4,1.9,15.4,2.2
			c0.6,0,1.2,0.1,1.8,0.1c2.4,0.1,4.8,0.2,7.1,0.2c24.5,0,44.3-5.8,44.5-5.9c0.2-0.1,0.4-0.3,0.5-0.5
			C539.5,567.1,538.1,564.4,538.1,564.3z"/>
		<path class="st5" d="M524.4,518.4l0.9,0.4c-0.1-0.1-0.1-0.1-0.2-0.1C524.9,518.6,524.6,518.5,524.4,518.4z"/>
		<path class="st5" d="M541.7,540.7c-1.1-4.7-3.9-8.7-7-12.3c-2.8-3.3-5.7-6.5-9-9.4c-0.3-0.3-0.6-0.5-0.9-0.8
			c-0.2-0.2-0.5-0.2-0.8-0.1c-0.3,0.1-0.4,0.3-0.5,0.6c-0.1,1.5-0.3,3-0.4,4.5c-0.1,1-0.2,2.1-0.3,3.1c-0.1,1,0.2,3.2-1.3,3.3
			c-1.5,0.2-22,2.2-28.8,2c-5.6-0.2-10.8-2.3-16.1-4c-6.1-2-12.1-3.9-18.2-5.9c-3.5-1.1-6.9-2.2-10.4-3.4c-0.4-0.1-0.8,0.1-0.9,0.5
			c0,0,0,0.1,0,0.1c-0.1,0.1-0.1,0.2-0.1,0.3c-1.4,9-0.1,28.4,0,29.4c0,0.1,0,0.2,0,0.2c2.4,6.3,11.3,15.6,11.6,15.8
			c9.3,6.9,21.6,7,33.1,7c23.5,0,45.6-6.3,45.9-6.4c0.2-0.1,0.4-0.2,0.5-0.4C538.3,564.3,544.1,550.8,541.7,540.7z M536.8,564
			c-4.4,1.2-61.8,13.7-77.5-0.5c0,0-8.6-9.1-10.9-14.9c-0.1-1.8-1.3-19.2-0.1-28.3c0.3,0,0.8,0.1,1.3,0.2c3.9,1.3,7.7,2.5,11.6,3.8
			c6.1,2,12.2,4,18.3,5.9c4.5,1.4,8.4,2.8,13.2,3c0.4,0,0.7,0,1.2,0c8.1,0,27.1-1.9,28-2c0,0,0.1,0,0.1,0c0.1,0,1.5-0.5,2.1-1.9
			c0.4-0.9,0.2-1.9,0.3-2.8c0.1-0.8,0.1-1.6,0.2-2.4c0.1-0.8,0.2-1.7,0.2-2.5c0-0.2,0-1.1,0.1-1.2c3.4,3,6.5,6.2,9.3,9.8
			c2.5,3.2,5.1,6.9,6.1,10.9C542.3,549.8,537.7,561.9,536.8,564z"/>
		<linearGradient id="SVGID_2_" gradientUnits="userSpaceOnUse" x1="448.1783" y1="563.8519" x2="537.2009" y2="563.8519">
			<stop  offset="0" style="stop-color:#2F2A28"/>
			<stop  offset="1" style="stop-color:#110706"/>
		</linearGradient>
		<path class="st6" d="M536.8,570.5c-3.2,0.9-25.2,6.8-50.7,5.6c-3.1-0.1-6.2-0.4-9.2-0.8c-2.7-0.3-5.4-0.6-7.9-1.5
			c-2.2-0.8-4.2-2.1-6.1-3.3c-2.5-1.6-4.9-3.5-7.2-5.4c-0.2-0.2-0.5-0.2-0.8-0.1c-0.3,0.1-0.4,0.4-0.4,0.7v4.1h-5.2l-1-0.5v-17.5
			c3.3,6,10.1,13.1,10.4,13.3c9.3,6.9,21.6,7,33.1,7c21.2,0,41.3-5.2,45.2-6.2C537.2,566.4,537.5,568.1,536.8,570.5z"/>
		<polygon class="st5" points="454.1,571 461.9,571 455.6,566.2 		"/>
		<polygon class="st5" points="457.1,566.2 450.9,561.5 450.9,570.2 456.5,570.2 		"/>
	</g>
	<g>
		
			<linearGradient id="SVGID_3_" gradientUnits="userSpaceOnUse" x1="1444.1976" y1="545.2581" x2="1537.1847" y2="545.2581" gradientTransform="matrix(-1 0 0 1 1890.4268 0)">
			<stop  offset="0" style="stop-color:#2F2A28"/>
			<stop  offset="1" style="stop-color:#110706"/>
		</linearGradient>
		<path class="st7" d="M445.6,548.6c-2.3,5.7-10.9,14.9-10.9,14.9c-15.7,14.2-73.1,1.8-77.5,0.5c-0.9-2.1-5.5-14.2-3.4-22.9
			c0.9-4.1,3.5-7.7,6.1-10.9c2.8-3.6,5.9-6.8,9.3-9.8c0.1,0.1,0.1,1,0.1,1.2c0.1,0.8,0.2,1.7,0.2,2.5c0.1,0.8,0.2,1.6,0.2,2.4
			c0.1,0.9-0.1,1.9,0.3,2.8c0.6,1.4,2,1.8,2.1,1.9c0,0,0.1,0,0.1,0c0.8,0.1,19.9,2,28,2c0.4,0,0.8,0,1.2,0c4.8-0.1,8.7-1.5,13.2-3
			c6.1-2,12.2-4,18.3-5.9c3.9-1.3,7.7-2.5,11.6-3.8c0.5-0.1,0.9-0.1,1.3-0.2C446.9,529.4,445.7,546.7,445.6,548.6z"/>
		<path class="st1" d="M445.5,520.3c-1.9,6.8-9.5,33-25.8,49.8c5.3-0.9,10.4-3.6,15-5.7c0,0,8.9-7.7,11.2-13.4
			c0.1-1.8,1-21.6-0.2-30.7C445.6,520.3,445.6,520.3,445.5,520.3z"/>
		<path class="st2" d="M362.5,526.9c-3.8,4.4-7.7,9.7-8.7,14.2c-1.5,6.6,0.7,15.1,2.3,19.8l10.8,4
			C355.8,555.3,362.4,527,362.5,526.9z"/>
		<g class="st3">
			<path class="st4" d="M353.5,550.5C353.5,550.4,353.5,550.4,353.5,550.5L353.5,550.5C353.5,550.4,353.5,550.4,353.5,550.5z"/>
			<path class="st4" d="M353.6,550.6c0.8,6.2,3,12,3.6,13.4c1.6,0.5,8.9,2.4,18.8,4l0,0C356.1,563.6,353.8,552.4,353.6,550.6z"/>
		</g>
		<path class="st2" d="M358.8,547.4c0,0-2.5-5,2.7-4.4c5.2,0.6,4.3,1.1,4,3c-0.3,1.9-2.1,4.7-3.2,4.4
			C361.2,550.1,358.8,547.4,358.8,547.4z"/>
		<path class="st2" d="M367.4,545.9c0,0,7.1,3.4,34.3,3.6c0,0-18.9,3.5-35.1-0.1L367.4,545.9z"/>
		<path class="st2" d="M412.5,530L412.5,530l-1.2,0.9c-0.1,0.1-2.5,0.9-10.1,2.2c-0.4,0.1-0.7,0-1.2,0c-8.1,0-27.1-1.9-28-2
			c0,0-0.1,0-0.1,0c-0.1,0-1.5-0.5-2.1-1.9c-0.1-0.3-0.2-0.5-0.2-0.8c0,0-2.8,3,4.9,3.9c7.7,0.9,23.9,1.8,23.9,1.8
			S409.1,534.8,412.5,530z"/>
		<path class="st5" d="M356,564.3c0.2-0.4,0.6-0.5,1-0.3c0.4,0.2,0.5,0.6,0.3,1c0,0-1,2.2-0.1,5.5c3.2,0.9,25.2,6.8,50.7,5.6
			c3.1-0.1,6.2-0.4,9.2-0.8c2.7-0.3,5.4-0.6,7.9-1.5c2.2-0.8,4.2-2.1,6.1-3.3c2.5-1.6,4.9-3.5,7.2-5.4c0.2-0.2,0.5-0.2,0.8-0.1
			c0.3,0.1,0.4,0.4,0.4,0.7v4.1h5.2l1-0.5v-20c0-0.4,0.3-0.8,0.8-0.8c0.4,0,0.8,0.3,0.8,0.8v20.5c0,0.3-0.2,0.5-0.4,0.7l-1.6,0.8
			c-0.1,0.1-0.2,0.1-0.3,0.1h-6.1c-0.4,0-0.8-0.3-0.8-0.8c0,0,0-3.2,0-3.2c-3.9,3.2-8.1,6.4-12.9,8.1c-4.8,1.7-10.4,1.9-15.4,2.2
			c-0.6,0-1.2,0.1-1.8,0.1c-2.4,0.1-4.8,0.2-7.1,0.2c-24.5,0-44.3-5.8-44.5-5.9c-0.2-0.1-0.4-0.3-0.5-0.5
			C354.6,567.1,355.9,564.4,356,564.3z"/>
		<path class="st5" d="M369.6,518.4l-0.9,0.4c0.1-0.1,0.1-0.1,0.2-0.1C369.1,518.6,369.4,518.5,369.6,518.4z"/>
		<path class="st5" d="M355.9,564.9c0.1,0.2,0.3,0.4,0.5,0.4c0.3,0.1,22.4,6.4,45.9,6.4c11.5,0,23.8-0.1,33.1-7
			c0.4-0.2,9.3-9.5,11.6-15.8c0-0.1,0-0.1,0-0.2c0.1-1,1.4-20.4,0-29.4c0-0.1-0.1-0.2-0.1-0.3c0,0,0-0.1,0-0.1
			c-0.1-0.4-0.5-0.6-0.9-0.5c-3.5,1.1-7,2.3-10.4,3.4c-6.1,2-12.1,3.9-18.2,5.9c-5.3,1.7-10.5,3.8-16.1,4c-6.9,0.2-27.3-1.8-28.8-2
			c-1.5-0.2-1.2-2.4-1.3-3.3c-0.1-1-0.2-2.1-0.3-3.1c-0.1-1.5-0.3-3-0.4-4.5c0-0.3-0.2-0.5-0.5-0.6c-0.3-0.1-0.6-0.1-0.8,0.1
			c-0.3,0.3-0.6,0.5-0.9,0.8c-3.2,2.9-6.1,6.1-9,9.4c-3.1,3.6-5.9,7.6-7,12.3C350,550.8,355.7,564.3,355.9,564.9z M353.8,541.1
			c0.9-4.1,3.5-7.7,6.1-10.9c2.8-3.6,5.9-6.8,9.3-9.8c0.1,0.1,0.1,1,0.1,1.2c0.1,0.8,0.2,1.7,0.2,2.5c0.1,0.8,0.2,1.6,0.2,2.4
			c0.1,0.9-0.1,1.9,0.3,2.8c0.6,1.4,2,1.8,2.1,1.9c0,0,0.1,0,0.1,0c0.8,0.1,19.9,2,28,2c0.4,0,0.8,0,1.2,0c4.8-0.1,8.7-1.5,13.2-3
			c6.1-2,12.2-4,18.3-5.9c3.9-1.3,7.7-2.5,11.6-3.8c0.5-0.1,0.9-0.1,1.3-0.2c1.2,9.1,0,26.4-0.1,28.3c-2.3,5.7-10.9,14.9-10.9,14.9
			c-15.7,14.2-73.1,1.8-77.5,0.5C356.3,561.9,351.7,549.8,353.8,541.1z"/>
		
			<linearGradient id="SVGID_4_" gradientUnits="userSpaceOnUse" x1="1444.5857" y1="563.8519" x2="1533.6083" y2="563.8519" gradientTransform="matrix(-1 0 0 1 1890.4268 0)">
			<stop  offset="0" style="stop-color:#2F2A28"/>
			<stop  offset="1" style="stop-color:#110706"/>
		</linearGradient>
		<path class="st8" d="M357.1,565.5c3.9,1.1,24,6.2,45.2,6.2c11.5,0,23.8-0.1,33.1-7c0.3-0.2,7.1-7.3,10.4-13.3V569l-1,0.5h-5.2
			v-4.1c0-0.3-0.2-0.6-0.4-0.7c-0.3-0.1-0.6-0.1-0.8,0.1c-2.2,2-4.7,3.8-7.2,5.4c-1.9,1.3-4,2.5-6.1,3.3c-2.5,1-5.3,1.2-7.9,1.5
			c-3.1,0.4-6.1,0.6-9.2,0.8c-25.5,1.2-47.6-4.7-50.7-5.6C356.6,568.1,356.9,566.4,357.1,565.5z"/>
		<polygon class="st5" points="439.9,571 432.2,571 438.4,566.2 		"/>
		<polygon class="st5" points="436.9,566.2 443.1,561.5 443.1,570.2 437.5,570.2 		"/>
	</g>
</g>
</svg>
