<?xml version="1.0" encoding="utf-8"?>
<!-- Generator: Adobe Illustrator 21.0.0, SVG Export Plug-In . SVG Version: 6.00 Build 0)  -->
<svg version="1.1" id="圖層_1" xmlns="http://www.w3.org/2000/svg" xmlns:xlink="http://www.w3.org/1999/xlink" x="0px" y="0px"
	 viewBox="0 0 822.9 601.4" style="enable-background:new 0 0 822.9 601.4;" xml:space="preserve">
<style type="text/css">
	.st0{fill:url(#SVGID_1_);}
	.st1{fill:#E1BE3F;}
	.st2{fill:#AB6C21;}
	.st3{opacity:0.6;fill:#E1BE3F;enable-background:new    ;}
	.st4{fill:url(#SVGID_2_);}
	.st5{fill:url(#SVGID_3_);}
	.st6{opacity:0.5;fill:#2F2A28;}
	.st7{fill:#746765;}
	.st8{fill:#231815;}
	.st9{fill:url(#SVGID_4_);}
	.st10{fill:#A15835;}
	.st11{opacity:0.5;fill:#A15835;}
	.st12{fill:#7A3B22;}
	.st13{fill:#FFFFFF;}
	.st14{fill:#DBDCDC;}
	.st15{fill:#5A5C5B;}
	.st16{fill:#373838;}
	.st17{fill:url(#SVGID_5_);}
	.st18{fill:url(#SVGID_6_);}
	.st19{fill:#A5AEBE;}
	.st20{fill:#5A3F2B;}
	.st21{fill:#785A41;}
	.st22{fill:url(#SVGID_7_);}
	.st23{fill:url(#SVGID_8_);}
	.st24{fill:url(#SVGID_9_);}
	.st25{fill:url(#SVGID_10_);}
	.st26{fill:url(#SVGID_11_);}
	.st27{fill:url(#SVGID_12_);}
	.st28{fill:url(#SVGID_13_);}
	.st29{fill:url(#SVGID_14_);}
	.st30{opacity:0.7;fill:url(#SVGID_15_);}
	.st31{opacity:0.5;fill:url(#SVGID_16_);}
	.st32{opacity:0.3;fill:url(#SVGID_17_);}
	.st33{opacity:0.5;fill:url(#SVGID_18_);}
	.st34{opacity:0.5;fill:url(#SVGID_19_);}
	.st35{opacity:0.5;fill:url(#SVGID_20_);}
	.st36{opacity:0.5;fill:url(#SVGID_21_);}
	.st37{opacity:0.5;fill:url(#SVGID_22_);}
	.st38{fill:#D2B596;}
	.st39{opacity:0.5;fill:#F4E3A5;}
</style>
<g>
	<g>
		<linearGradient id="SVGID_1_" gradientUnits="userSpaceOnUse" x1="351.0803" y1="550.9903" x2="447.5485" y2="550.9903">
			<stop  offset="0" style="stop-color:#2F2A28"/>
			<stop  offset="1" style="stop-color:#110706"/>
		</linearGradient>
		<path class="st0" d="M447,555.5c-0.1-0.2-0.2-0.4-0.4-0.4c0.3-6.7,0.9-21.7,0-29.5l0.1-3.5c0-0.2-0.1-0.5-0.3-0.6
			c-0.2-0.1-0.4-0.2-0.7-0.1c-2.2,0.6-32.7,1.4-40,1.2c-1.2-2.2-3.6-2.4-3.7-2.4c0,0-3.5-0.1-8.2-0.4c-4.7-0.3-6.7,1.5-7,1.8
			c-4.9-0.3-13.5-0.9-15.2-1l0,0c-0.1,0-0.2,0-0.3,0c-1,0.1-1.6,0.8-1.6,0.8c-2.5,2.2-4.9,4.6-7.1,7c-4.6,5-9.5,10.2-11,17.1
			c-2.2,9.4,2.7,21.8,3.5,23.9c-0.3,0.9-1,3.3,0.1,6.7c0.1,0.2,0.3,0.4,0.5,0.5c0.2,0.1,20,5.9,44.5,5.9c2.3,0,4.7-0.1,7.1-0.2
			c29.4-1.4,37.5-10.8,39.6-14.8c0-0.1,0.1-0.2,0.1-0.3C447.1,566.8,448.2,558.6,447,555.5z"/>
		<path class="st6" d="M446.6,555.1c0.3-6.7,0.9-21.7,0-29.5l0.1-3.5c0-0.2-0.1-0.5-0.3-0.6c-0.2-0.1-0.4-0.2-0.7-0.1
			c-0.1,0-0.3,0.1-0.6,0.1l-0.2,1.7l-0.8-0.7c0,0,3.2,36.6-28.6,52.4l12.3,4.5c13.1-3.5,17.6-9,19.1-11.9c0-0.1,0.1-0.2,0.1-0.3
			c0-0.3,1.1-8.5,0-11.6C446.9,555.3,446.8,555.2,446.6,555.1z"/>
		<path class="st6" d="M445.8,524.6l0.2-3.3c0,0-0.1,0-0.1,0c-2.2,0.6-32.7,1.4-40,1.2c-1.2-2.2-3.6-2.4-3.7-2.4
			c0,0-3.5-0.1-8.2-0.4c-4.7-0.3-6.7,1.5-7,1.8c-4.9-0.3-13.5-0.9-15.2-1l0,0c-0.1,0-0.2,0-0.3,0h0c0,0,0,0,0,0
			c-0.7,0-1.2,0.4-1.4,0.7l0.1,0C370,521.2,382,529.5,445.8,524.6z"/>
		<path class="st7" d="M360,533c-3.5,3.4-7.5,11.7-8.6,16.1c-1.5,6.6,3.4,15.5,5,20.2l10.4,2.3C355.7,562,355.7,541.4,360,533z"/>
		<path class="st7" d="M359.2,555.8c0,0-2.5-5,2.7-4.4c5.2,0.6,4.3,1.1,4,3c-0.3,1.9-2.1,4.7-3.2,4.4
			C361.5,558.5,359.2,555.8,359.2,555.8z"/>
		<path class="st7" d="M367.7,554.4c0,0,7.1,3.4,34.3,3.6c0,0-18.9,3.5-35.1-0.1L367.7,554.4z"/>
		<path class="st6" d="M366.8,571.6c-11.3-5-14.2-21.3-14.2-21.3l-1.2,1l-0.3,0.4c0.2,7.9,3.4,16,4.1,17.6c-0.3,0.9-1,3.3,0.1,6.7
			c0.1,0.2,0.3,0.4,0.5,0.5c0.1,0,4.1,1.2,10.7,2.5L366.8,571.6z"/>
		<path class="st7" d="M436.6,566.2c-0.1,0-0.1-0.1-0.1-0.1c0-0.1-1.5-12.8-7.8-18.7c-7-6.7-15.9-13.3-39.2-14.1
			c-24-0.8-34.6,8.5-34.7,8.6c-0.1,0.1-0.2,0-0.2,0c-0.1-0.1-0.1-0.2,0-0.2c0.1-0.1,10.8-9.5,34.9-8.7c23.4,0.8,32.3,7.4,39.4,14.2
			c6.3,6,7.9,18.8,7.9,18.9C436.7,566.1,436.7,566.2,436.6,566.2C436.6,566.2,436.6,566.2,436.6,566.2z"/>
		<path class="st7" d="M400.7,524.8c0,0-1.9,6.7,0.5,8.2l-3.6-0.7L400.7,524.8z"/>
		<path class="st7" d="M390.9,524.1l-2.8,7.9h-3.5C384.6,532,390.4,526.8,390.9,524.1z"/>
		<polygon class="st6" points="391.8,522.9 401.1,523.8 397.7,532.3 388.1,532 		"/>
		<path class="st8" d="M400.3,582.3c-24.5,0-44.3-5.8-44.5-5.9c-0.2-0.1-0.4-0.3-0.5-0.5c-1.3-4.2,0-6.9,0-7c0.2-0.4,0.6-0.5,1-0.3
			c0.4,0.2,0.5,0.6,0.3,1c0,0-1,2.2-0.1,5.5c3.2,0.9,25.2,6.8,50.7,5.6c28.3-1.4,36.2-10,38.3-13.9c0.3-2.4,0.8-8.5,0-10.8
			c-0.1-0.4,0.1-0.8,0.4-1c0.4-0.1,0.8,0.1,1,0.4c1.1,3.1,0.1,11.3,0,11.6c0,0.1,0,0.2-0.1,0.3c-2.1,4-10.3,13.4-39.6,14.8
			C405,582.3,402.6,582.3,400.3,582.3z"/>
		<path class="st8" d="M388.2,532.3c-0.1,0-0.2,0-0.3-0.1c-0.4-0.2-0.5-0.6-0.3-1c0.7-1.3,2.5-5,2.6-6.4c0.1-1.1-0.5-1.5-0.8-1.6
			c-3.8-0.1-17.5-1.1-18.1-1.2c-0.4,0-0.7-0.4-0.7-0.8c0-0.4,0.4-0.7,0.8-0.7c0.1,0,14.7,1.1,18.2,1.2c0.1,0,0.2,0,0.2,0
			c0.7,0.3,2,1.3,1.8,3.2c-0.1,2-2.5,6.5-2.7,7C388.8,532.2,388.5,532.3,388.2,532.3z"/>
		<path class="st8" d="M397.7,532.8c-0.1,0-0.2,0-0.3-0.1c-0.4-0.2-0.6-0.6-0.4-1l2.9-7.1c0-0.1,0.9-2.3,5.1-2.1
			c5.2,0.2,38.6-0.6,40.9-1.2c0.2-0.1,0.5,0,0.7,0.1c0.2,0.1,0.3,0.4,0.3,0.6l-0.1,3.9c0,0.4-0.3,0.7-0.8,0.7
			c-0.4,0-0.7-0.4-0.7-0.8l0.1-3c-6.2,0.6-36.2,1.3-40.4,1.1c-3-0.1-3.6,1.1-3.6,1.2l-2.9,7.1C398.2,532.6,397.9,532.8,397.7,532.8z
			"/>
		<path class="st8" d="M438.3,567.2c-0.2,0-0.5-0.2-0.5-0.4c-1.6-13.2-7-29-34.8-33.1c-33.9-5-47.6,6.5-47.8,6.6
			c-0.2,0.2-0.5,0.2-0.7,0c-0.2-0.2-0.2-0.5,0-0.7c0.6-0.5,14.2-12,48.6-6.8c28.5,4.2,34,20.4,35.6,34
			C438.8,566.9,438.7,567.2,438.3,567.2C438.4,567.2,438.3,567.2,438.3,567.2z"/>
		<path class="st8" d="M446.4,524c-0.1-0.4-0.4-0.7-0.9-0.6l-0.4,2.9c0.9,9.8-0.2,30.2-0.3,32c-2.3,5.7-10.9,10.9-10.9,10.9
			c-28,12.8-73.1,0.8-77.5-0.5c-0.9-2.1-5.5-14.2-3.4-22.9c2.1-9.2,16.3-22,17.6-23.2c0.4-0.2,0.8-0.3,1.2-0.4l0.3-1l-2.1,0.1
			c-0.1,0-0.2,0.1-0.2,0.1c-0.6,0.6-15.8,14.1-18.2,24.1c-2.3,10,3.4,23.6,3.6,24.2c0.1,0.2,0.3,0.4,0.5,0.4
			c0.3,0.1,22.4,6.4,45.9,6.4c11.5,0,23.3-1.5,33.1-6c0.4-0.2,9.3-5.5,11.6-11.8c0-0.1,0-0.1,0-0.2C446.5,557.4,447.9,533,446.4,524
			z"/>
		<path class="st8" d="M369.8,521.3c0,0,0.6-0.9,1.8-0.9l1.2,0.9l-0.2,0.7c0,0-1.3,0-2.6,1l0-1L369.8,521.3z"/>
		<path class="st8" d="M405.3,524c-0.3,0-0.6-0.2-0.7-0.5c-0.8-1.8-2.6-2-2.6-2l0,0c0,0-3.5-0.1-8.2-0.4c-4.3-0.3-5.8,1.3-5.8,1.4
			c-0.3,0.3-0.7,0.3-1.1,0.1c-0.3-0.3-0.3-0.7-0.1-1c0.1-0.1,2-2.2,7.1-1.9c4.7,0.3,8.2,0.4,8.2,0.4c0.1,0,2.8,0.2,3.9,2.9
			c0.2,0.4,0,0.8-0.4,1C405.5,524,405.4,524,405.3,524z"/>
		<path class="st8" d="M407.1,533c-0.1,0-0.3,0-0.4-0.1c-6.4-3-22.6-6.1-22.8-6.1c-0.5-0.1-0.9-0.6-0.8-1.2c0.1-0.5,0.6-0.9,1.2-0.8
			c0.7,0.1,16.6,3.2,23.2,6.2c0.5,0.2,0.7,0.8,0.5,1.3C407.9,532.8,407.5,533,407.1,533z"/>
		<path class="st8" d="M382.8,530.8c-0.5,0-0.9-0.3-1-0.8c-0.1-0.5,0.2-1.1,0.8-1.2c0.6-0.1,15.2-3.2,24.5-3.5c0,0,0,0,0,0
			c0.5,0,1,0.4,1,1c0,0.6-0.4,1-1,1c-9.1,0.3-24,3.4-24.2,3.4C382.9,530.8,382.8,530.8,382.8,530.8z"/>
	</g>
	<g>
		
			<linearGradient id="SVGID_2_" gradientUnits="userSpaceOnUse" x1="1864.3425" y1="550.9903" x2="1960.8107" y2="550.9903" gradientTransform="matrix(-1 0 0 1 2409.1021 0)">
			<stop  offset="0" style="stop-color:#2F2A28"/>
			<stop  offset="1" style="stop-color:#110706"/>
		</linearGradient>
		<path class="st4" d="M448.8,567.1c0,0.1,0,0.2,0.1,0.3c2.1,4,10.3,13.4,39.6,14.8c2.4,0.1,4.8,0.2,7.1,0.2
			c24.5,0,44.3-5.8,44.5-5.9c0.2-0.1,0.4-0.3,0.5-0.5c1.1-3.4,0.4-5.8,0.1-6.7c0.9-2.1,5.7-14.5,3.5-23.9c-1.6-6.8-6.4-12.1-11-17.1
			c-2.3-2.4-4.6-4.8-7.1-7c0,0-0.5-0.8-1.6-0.8c-0.1,0-0.2,0-0.3,0l0,0c-1.7,0.1-10.3,0.7-15.2,1c-0.3-0.4-2.3-2.1-7-1.8
			c-4.7,0.3-8.2,0.4-8.2,0.4c-0.1,0-2.5,0.2-3.7,2.4c-7.3,0.1-37.9-0.7-40-1.2c-0.2-0.1-0.5,0-0.7,0.1c-0.2,0.1-0.3,0.4-0.3,0.6
			l0.1,3.5c-0.8,7.8-0.3,22.8,0,29.5c-0.2,0.1-0.3,0.2-0.4,0.4C447.7,558.6,448.7,566.8,448.8,567.1z"/>
		<path class="st6" d="M449.2,555.1c-0.3-6.7-0.9-21.7,0-29.5l-0.1-3.5c0-0.2,0.1-0.5,0.3-0.6c0.2-0.1,0.4-0.2,0.7-0.1
			c0.1,0,0.3,0.1,0.6,0.1l0.2,1.7l0.8-0.7c0,0-3.2,36.6,28.6,52.4l-12.3,4.5c-13.1-3.5-17.6-9-19.1-11.9c0-0.1-0.1-0.2-0.1-0.3
			c0-0.3-1.1-8.5,0-11.6C448.9,555.3,449,555.2,449.2,555.1z"/>
		<path class="st6" d="M450.1,524.6l-0.2-3.3c0,0,0.1,0,0.1,0c2.2,0.6,32.7,1.4,40,1.2c1.2-2.2,3.6-2.4,3.7-2.4c0,0,3.5-0.1,8.2-0.4
			c4.7-0.3,6.7,1.5,7,1.8c4.9-0.3,13.5-0.9,15.2-1l0,0c0.1,0,0.2,0,0.3,0h0c0,0,0,0,0,0c0.7,0,1.2,0.4,1.4,0.7l-0.1,0
			C525.8,521.2,513.9,529.5,450.1,524.6z"/>
		<path class="st7" d="M535.9,533c3.5,3.4,7.5,11.7,8.6,16.1c1.5,6.6-3.4,15.5-5,20.2l-10.4,2.3C540.1,562,540.2,541.4,535.9,533z"
			/>
		<path class="st7" d="M536.7,555.8c0,0,2.5-5-2.7-4.4c-5.2,0.6-4.3,1.1-4,3c0.3,1.9,2.1,4.7,3.2,4.4
			C534.3,558.5,536.7,555.8,536.7,555.8z"/>
		<path class="st7" d="M528.1,554.4c0,0-7.1,3.4-34.3,3.6c0,0,18.9,3.5,35.1-0.1L528.1,554.4z"/>
		<path class="st6" d="M529,571.6c11.3-5,14.2-21.3,14.2-21.3l1.2,1l0.3,0.4c-0.2,7.9-3.4,16-4.1,17.6c0.3,0.9,1,3.3-0.1,6.7
			c-0.1,0.2-0.3,0.4-0.5,0.5c-0.1,0-4.1,1.2-10.7,2.5L529,571.6z"/>
		<path class="st7" d="M459.3,566.2C459.3,566.2,459.3,566.2,459.3,566.2c-0.1,0-0.2-0.1-0.1-0.2c0-0.1,1.6-12.9,7.9-18.9
			c7.1-6.7,16-13.4,39.4-14.2c24.1-0.8,34.8,8.6,34.9,8.7c0.1,0.1,0.1,0.2,0,0.2c-0.1,0.1-0.2,0.1-0.2,0c-0.1-0.1-9.9-8.6-31.8-8.6
			c-0.9,0-1.9,0-2.9,0c-23.3,0.8-32.1,7.4-39.2,14.1c-6.3,6-7.8,18.6-7.8,18.7C459.4,566.1,459.3,566.2,459.3,566.2z"/>
		<path class="st7" d="M495.1,524.8c0,0,1.9,6.7-0.5,8.2l3.6-0.7L495.1,524.8z"/>
		<path class="st7" d="M504.9,524.1l2.8,7.9h3.5C511.2,532,505.5,526.8,504.9,524.1z"/>
		<polygon class="st6" points="504,522.9 494.7,523.8 498.2,532.3 507.7,532 		"/>
		<path class="st8" d="M495.6,582.3c24.5,0,44.3-5.8,44.5-5.9c0.2-0.1,0.4-0.3,0.5-0.5c1.3-4.2,0-6.9,0-7c-0.2-0.4-0.6-0.5-1-0.3
			c-0.4,0.2-0.5,0.6-0.3,1c0,0,1,2.2,0.1,5.5c-3.2,0.9-25.2,6.8-50.7,5.6c-28.3-1.4-36.2-10-38.3-13.9c-0.3-2.4-0.8-8.5,0-10.8
			c0.1-0.4-0.1-0.8-0.4-1c-0.4-0.1-0.8,0.1-1,0.4c-1.1,3.1-0.1,11.3,0,11.6c0,0.1,0,0.2,0.1,0.3c2.1,4,10.3,13.4,39.6,14.8
			C490.9,582.3,493.3,582.3,495.6,582.3z"/>
		<path class="st8" d="M507.6,532.3c-0.3,0-0.5-0.1-0.7-0.4c-0.3-0.5-2.6-5-2.7-7c-0.1-1.9,1.1-2.9,1.8-3.2c0.1,0,0.2,0,0.2,0
			c3.5-0.1,18.1-1.2,18.2-1.2c0.4,0,0.8,0.3,0.8,0.7c0,0.4-0.3,0.8-0.7,0.8c-0.6,0-14.4,1-18.1,1.2c-0.2,0.1-0.9,0.6-0.8,1.6
			c0.1,1.4,1.9,5.1,2.6,6.4c0.2,0.4,0,0.8-0.3,1C507.8,532.3,507.7,532.3,507.6,532.3z"/>
		<path class="st8" d="M498.2,532.8c-0.3,0-0.6-0.2-0.7-0.5l-2.9-7.1c0-0.1-0.6-1.3-3.6-1.2c-4.2,0.2-34.1-0.5-40.4-1.1l0.1,3
			c0,0.4-0.3,0.8-0.7,0.8c-0.4,0-0.8-0.3-0.8-0.7l-0.1-3.9c0-0.2,0.1-0.5,0.3-0.6c0.2-0.1,0.4-0.2,0.7-0.1
			c2.3,0.6,35.7,1.4,40.9,1.2c4.2-0.2,5,2.1,5.1,2.2l2.9,7.1c0.2,0.4,0,0.8-0.4,1C498.4,532.8,498.3,532.8,498.2,532.8z"/>
		<path class="st8" d="M457.5,567.2C457.5,567.2,457.5,567.2,457.5,567.2c-0.3,0-0.5-0.3-0.5-0.6c1.6-13.6,7.2-29.8,35.6-34
			c34.3-5.1,48,6.4,48.6,6.8c0.2,0.2,0.2,0.5,0,0.7c-0.2,0.2-0.5,0.2-0.7,0.1c-0.1-0.1-13.9-11.6-47.8-6.6
			c-27.8,4.1-33.2,19.9-34.8,33.1C458,567,457.8,567.2,457.5,567.2z"/>
		<path class="st8" d="M449.4,524c0.1-0.4,0.4-0.7,0.9-0.6l0.4,2.9c-0.9,9.8,0.2,30.2,0.3,32c2.3,5.7,10.9,10.9,10.9,10.9
			c28,12.8,73.1,0.8,77.5-0.5c0.9-2.1,5.5-14.2,3.4-22.9c-2.1-9.2-16.3-22-17.6-23.2c-0.4-0.2-0.8-0.3-1.2-0.4l-0.3-1l2.1,0.1
			c0.1,0,0.2,0.1,0.2,0.1c0.6,0.6,15.8,14.1,18.2,24.1c2.3,10-3.4,23.6-3.6,24.2c-0.1,0.2-0.3,0.4-0.5,0.4
			c-0.3,0.1-22.4,6.4-45.9,6.4c-11.5,0-23.3-1.5-33.1-6c-0.4-0.2-9.3-5.5-11.6-11.8c0-0.1,0-0.1,0-0.2
			C449.3,557.4,448,533,449.4,524z"/>
		<path class="st8" d="M526,521.3c0,0-0.6-0.9-1.8-0.9l-1.2,0.9l0.2,0.7c0,0,1.3,0,2.6,1l0-1L526,521.3z"/>
		<path class="st8" d="M490.5,524c-0.1,0-0.2,0-0.3-0.1c-0.4-0.2-0.6-0.6-0.4-1c1.1-2.7,3.8-2.9,3.9-2.9c0.1,0,3.5-0.1,8.2-0.4
			c5.1-0.4,7,1.8,7.1,1.9c0.3,0.3,0.2,0.8-0.1,1.1c-0.3,0.3-0.8,0.2-1.1-0.1c0,0-1.6-1.7-5.8-1.4c-4.7,0.3-8.2,0.4-8.3,0.4
			c0,0-1.8,0.2-2.6,2C491.1,523.9,490.8,524,490.5,524z"/>
		<path class="st8" d="M488.7,533c-0.4,0-0.7-0.2-0.9-0.6c-0.2-0.5,0-1.1,0.5-1.3c6.6-3.1,22.6-6.1,23.2-6.2
			c0.5-0.1,1.1,0.3,1.2,0.8c0.1,0.5-0.3,1.1-0.8,1.2c-0.2,0-16.4,3.1-22.8,6.1C489,533,488.9,533,488.7,533z"/>
		<path class="st8" d="M513.1,530.8c-0.1,0-0.1,0-0.2,0c-0.2,0-15.1-3.1-24.2-3.4c-0.6,0-1-0.5-1-1c0-0.5,0.5-1,1-1c0,0,0,0,0,0
			c9.3,0.3,23.9,3.3,24.5,3.5c0.5,0.1,0.9,0.6,0.8,1.2C513.9,530.5,513.5,530.8,513.1,530.8z"/>
	</g>
	<g>
		<path class="st10" d="M349.9,420.6c0,0-0.3,64,19.7,101.3c0,0,42.4,6.5,76,0.9l2-59.4l2.4,59.1c0,0,47.4,5.6,75.6-0.7
			c0,0,23-55.3,19.6-98.6l-122.9,4l-30.9-2.1L349.9,420.6z"/>
		<path class="st11" d="M545,423.4l0.4-2c0,0-7.5,0-19.5,0l-2.3,7.4c0,0-10.1,77.8-17.5,95.7c10.4-1,9-0.1,19.6-2.5
			c19.9-42,19.6-98.6,19.6-98.6L545,423.4z"/>
		<path class="st11" d="M428.9,525.1c0,0,13.8-6.2,18.7-65.1c0,0,6.4,59.1,15.1,64.3l-12.7-1.5l-1.8-53.5l-2.5,52.7L428.9,525.1z"/>
		<path class="st11" d="M441.2,440.4l1.8,15.6l5.2,4.6c0,0-4.3-16.8-4-20.2H441.2z"/>
		<path class="st11" d="M454.5,439.8l-1.8,15.6l-5.2,4.6c0,0,4.3-16.8,4-20.2H454.5z"/>
		<path class="st12" d="M483.6,526.1c-10.4,0-22.1-0.6-34.1-2.1c-0.5-0.1-0.9-0.5-0.9-1l-1-31.7l-1,31.7c0,0.5-0.4,1-0.9,1
			c-40.4,5.3-75.9-0.9-76.3-1c-0.3-0.1-0.6-0.3-0.7-0.6c-22.2-50.4-19.5-98.9-19.5-99.4c0-0.6,0.5-1,1.1-1c0.6,0,1,0.5,0.9,1.1
			c0,0.5-2.6,48.1,19.1,97.8c4.5,0.7,37.3,5.7,74.3,1l2-62c0-0.6,0.5-1,1-1c0.5,0,1,0.5,1,1l2,62c37.1,4.7,69.9-0.2,74.3-1
			c21.7-49.7,19.1-97.4,19.1-97.8c0-0.6,0.4-1.1,0.9-1.1c0.5,0,1,0.4,1.1,1c0,0.5,2.7,49-19.5,99.4c-0.1,0.3-0.4,0.5-0.7,0.6
			C525.5,523,507.9,526.1,483.6,526.1z M525.6,521.9L525.6,521.9L525.6,521.9z"/>
	</g>
	<polygon class="st13" points="480.7,285 468.8,286.5 448.4,301.6 426.2,286.6 414.2,285 411.8,341.5 425.1,362 471.3,373 
		481.6,350.3 499.3,327.3 	"/>
	<path class="st14" d="M478.8,284.8c0,0-22.2,49.9-31,61.6l-32.2-60.4L402,330.9l52.5,36.9l32-15.4l6.2-31.2L478.8,284.8z"/>
	<polygon class="st15" points="439.2,310.3 457.3,310.3 456.7,322 459.4,339.3 457.4,356.7 441.3,352.8 436.9,334.3 439.3,322.2 
		438.6,321.2 	"/>
	<path class="st16" d="M457.5,322.6c0.2-0.1,0.3-0.3,0.4-0.5c0.8-3.1,0.1-11.6,0-12c0-0.5-0.5-0.9-1-0.9h-18.3c-0.5,0-1,0.4-1,0.9
		c0,0.4-0.8,8.9,0,12c0.1,0.2,0.2,0.4,0.4,0.5c-0.4,2.4-1.4,8.6-1.9,14.2c0,0.5,0.4,1,0.9,1.1c0,0,0.1,0,0.1,0c0.5,0,0.9-0.4,1-0.9
		c0.5-5.6,1.5-11.9,1.9-14.1h15.5c0.4,2.2,1.4,8.6,1.9,14.1c0,0.5,0.5,0.9,1,0.9c0,0,0.1,0,0.1,0c0.6,0,1-0.5,0.9-1.1
		C458.9,331.2,457.9,324.9,457.5,322.6z M439.5,320.8c-0.3-2.4-0.1-7.1,0.1-9.7H456c0.2,2.5,0.4,7.2,0.1,9.7h-8.3H439.5z"/>
	<linearGradient id="SVGID_3_" gradientUnits="userSpaceOnUse" x1="296.061" y1="364.3849" x2="557.839" y2="509.2741">
		<stop  offset="0" style="stop-color:#BF9A72"/>
		<stop  offset="1" style="stop-color:#A08568"/>
	</linearGradient>
	<path class="st5" d="M443.9,360C443.9,360,443.9,360,443.9,360C443.9,360,443.9,360,443.9,360c0,0.1-0.1,0.2-0.1,0.4c0,0,0,0,0,0
		c0,1.2-0.8,119.5-0.4,142.3c-62.2-0.3-89.3-6.5-96.9-8.6c-0.3-4.4-0.5-18.6,3-61c4.7-55.7,16.3-95.5,16.3-95.5l0,0
		c13.5,5.1,30.5,9.9,48.2,11c0,0,0,0,0.1,0c0.5,0,0.9-0.4,1-0.9l2-18c9.9,10.3,20.9,21.4,27.9,27.7L443.9,360z"/>
	<linearGradient id="SVGID_4_" gradientUnits="userSpaceOnUse" x1="317.3932" y1="325.8433" x2="579.1712" y2="470.7325">
		<stop  offset="0" style="stop-color:#BF9A72"/>
		<stop  offset="1" style="stop-color:#A08568"/>
	</linearGradient>
	<path class="st9" d="M447.8,502.7c-0.8,0-1.6,0-2.4,0c-0.4-21.9,0.4-133.2,0.4-141.8l3.4-2.3c0,0,0.1,0,0.1-0.1
		c7-6,18.7-17.9,29.2-28.8l2,18c0.1,0.5,0.5,0.9,1,0.9c0,0,0,0,0.1,0c17.8-1.1,34.8-6,48.3-11.1l-0.1,0.1c0,0,11.7,39.8,16.3,95.5
		c3.5,42.3,3.3,56.5,3,61C541.4,496.2,513.3,502.7,447.8,502.7z"/>
	<path class="st19" d="M479.6,284.1l-10.1,1.4c-0.2,0-0.3,0.1-0.4,0.2l-21.3,14.9l-21.3-14.9c-0.1-0.1-0.3-0.2-0.4-0.2l-10.1-1.4
		c-0.5-0.1-1.1,0.3-1.1,0.9c-0.1,0.5,0.3,1.1,0.9,1.1l9.9,1.3l20.5,14.3l-18,15.7c-0.4,0.4-0.5,1-0.1,1.4c0.2,0.2,0.5,0.3,0.8,0.3
		c0.2,0,0.5-0.1,0.7-0.2l18.4-16.1l18.4,16.1c0.2,0.2,0.4,0.2,0.7,0.2c0.3,0,0.6-0.1,0.8-0.3c0.4-0.4,0.3-1-0.1-1.4l-18-15.7
		l20.5-14.3l9.9-1.3c0.5-0.1,0.9-0.6,0.9-1.1C480.7,284.4,480.2,284,479.6,284.1z"/>
	<path class="st20" d="M456.2,385.1c-2.7,0-4.9-2.2-4.9-4.9s2.2-4.9,4.9-4.9s4.9,2.2,4.9,4.9S458.9,385.1,456.2,385.1z M456.2,377.4
		c-1.6,0-2.9,1.3-2.9,2.9c0,1.6,1.3,2.9,2.9,2.9c1.6,0,2.9-1.3,2.9-2.9C459.1,378.7,457.8,377.4,456.2,377.4z"/>
	<path class="st20" d="M456.2,411c-2.7,0-4.9-2.2-4.9-4.9c0-2.7,2.2-4.9,4.9-4.9s4.9,2.2,4.9,4.9C461.1,408.9,458.9,411,456.2,411z
		 M456.2,403.3c-1.6,0-2.9,1.3-2.9,2.9c0,1.6,1.3,2.9,2.9,2.9c1.6,0,2.9-1.3,2.9-2.9C459.1,404.6,457.8,403.3,456.2,403.3z"/>
	<path class="st20" d="M456.2,440.7c-2.7,0-4.9-2.2-4.9-4.9c0-2.7,2.2-4.9,4.9-4.9s4.9,2.2,4.9,4.9
		C461.1,438.6,458.9,440.7,456.2,440.7z M456.2,433c-1.6,0-2.9,1.3-2.9,2.9c0,1.6,1.3,2.9,2.9,2.9c1.6,0,2.9-1.3,2.9-2.9
		C459.1,434.3,457.8,433,456.2,433z"/>
	<path class="st20" d="M456.2,473.8c-2.7,0-4.9-2.2-4.9-4.9c0-2.7,2.2-4.9,4.9-4.9s4.9,2.2,4.9,4.9
		C461.1,471.6,458.9,473.8,456.2,473.8z M456.2,466.1c-1.6,0-2.9,1.3-2.9,2.9c0,1.6,1.3,2.9,2.9,2.9c1.6,0,2.9-1.3,2.9-2.9
		C459.1,467.3,457.8,466.1,456.2,466.1z"/>
	<circle class="st21" cx="456.2" cy="380.3" r="2.9"/>
	<circle class="st21" cx="456.2" cy="406.2" r="2.9"/>
	<circle class="st21" cx="456.2" cy="435.9" r="2.9"/>
	<circle class="st21" cx="456.2" cy="468.9" r="2.9"/>
	<path class="st21" d="M592,388.4c-10.1-23.6-32.5-56.7-36.6-62.5c1.6-0.9,2.5-1.4,2.6-1.5c0.2-0.1,0.4-0.4,0.5-0.7
		c0.1-0.3,0-0.6-0.2-0.8c-13.7-19-46.8-46.1-47.2-46.4c-0.3-0.2-0.7-0.3-1-0.2c-4.6,1.8-20.7,5.7-20.9,5.7c0,0,0,0,0,0c0,0,0,0,0,0
		c-5.8,1.9-9.5,1.9-9.5,1.9c-0.4,0-0.9,0.3-1,0.7c-0.1,0.4-9.9,37.1-31,67c-21.1-29.9-30.9-66.7-31-67c-0.1-0.4-0.5-0.7-1-0.7
		c0,0,0,0,0,0c-0.1,0-3.7,0-9.5-1.9c0,0,0,0,0,0c0,0,0,0,0,0c-0.2,0-16.2-4-20.9-5.7c-0.3-0.1-0.7-0.1-1,0.2
		c-0.3,0.3-33.5,27.4-47.2,46.4c-0.2,0.2-0.2,0.5-0.2,0.8c0.1,0.3,0.2,0.5,0.5,0.7c0.1,0,1,0.6,2.6,1.5c-4,5.9-26.5,38.9-36.6,62.5
		c-0.1,0.3-0.1,0.7,0.1,0.9c0.2,0.3,0.5,0.5,0.8,0.5c0.1,0,11.4,0.5,44.8,13.2c-3.4,24.6-6.2,55.4-6.3,91.2c0,0.4,0.3,0.8,0.6,0.9
		c1,0.4,24.6,9.2,100.9,9.5c0,0,0,0,0,0c0,0,0,0,0,0c0,0,0,0,0,0c1.1,0,2.2,0,3.3,0h0c0,0,0,0,0.1,0h0c78.9,0,103.2-9.1,104.2-9.5
		c0.4-0.2,0.6-0.5,0.6-0.9c-0.1-35.8-2.9-66.6-6.3-91.2c33.4-12.7,44.7-13.2,44.8-13.2c0.3,0,0.6-0.2,0.8-0.5
		C592.1,389,592.2,388.7,592,388.4z M509.3,278.9c3.8,3.3,32.6,27.9,45.7,45c-8.1,4.4-39.1,20.3-72.7,22.6l-2.1-18.7
		c10.8-11.3,19.9-21.1,20.1-21.3c0.2-0.2,0.3-0.5,0.3-0.8c0-0.3-0.2-0.5-0.4-0.7l-11.9-8.7l7.2-5.6c0.2-0.2,0.3-0.4,0.4-0.7
		c0-0.3,0-0.5-0.2-0.7l-4.4-5.6C495,282.8,504.4,280.5,509.3,278.9z M480.5,286.1c1.4-0.1,4.4-0.4,8.7-1.7l4.2,5.5l-6.6,5.1
		c-0.1,0.1-0.2,0.2-0.2,0.2l-7.1-5.2c0,0-0.1,0-0.1-0.1C479.9,288.1,480.3,286.8,480.5,286.1z M448.5,354.3c0.1-0.1,0.2-0.2,0.2-0.4
		c16.3-22.8,26.1-49.8,30-62l19.3,14c-5.3,5.7-36.6,39.4-50.1,51l-0.3,0.2c0-0.1-0.1-0.1-0.1-0.2c0,0-0.1-0.1-0.1-0.1L448.5,354.3z
		 M416.8,291.9c3.9,12.2,13.6,39,29.8,61.8l-0.8,1.8c-14.2-12.8-43.3-44-48.4-49.5L416.8,291.9z M406.3,284.3
		c4.3,1.3,7.3,1.7,8.7,1.7c0.2,0.8,0.6,2.1,1.1,3.9c0,0-0.1,0-0.1,0l-7.1,5.2c-0.1-0.1-0.1-0.2-0.2-0.2l-6.6-5.1L406.3,284.3z
		 M399.8,289.4c-0.2,0.2-0.2,0.5-0.2,0.7c0,0.3,0.2,0.5,0.4,0.7l7.2,5.6l-11.9,8.7c-0.2,0.2-0.4,0.4-0.4,0.7c0,0.3,0.1,0.6,0.3,0.8
		c0.2,0.2,9.2,10,20.1,21.3l-2.1,18.7c-33.5-2.3-64.4-18.1-72.6-22.6c13.1-17.1,41.8-41.7,45.7-45c4.9,1.6,14.3,4,17.9,4.9
		L399.8,289.4z M307.1,388.1c0.8-1.7,2.7-5.6,6.7-13.5c5.5-10.7,26.2-43.1,28.8-47.3c4.5,2.3,11.5,5.7,20.4,9.2c0,0,0,0,0,0.1
		c-0.1,0.4-7.7,23.7-13.5,64.5C324.6,391.5,312.1,388.8,307.1,388.1z M443.9,360C443.9,360,443.9,360,443.9,360
		C443.9,360,443.9,360,443.9,360c0,0.1-0.1,0.2-0.1,0.4c0,0,0,0,0,0c0,1.2-0.8,119.5-0.4,142.3c-62.2-0.3-89.3-6.5-96.9-8.6
		c-0.3-4.4-0.5-18.6,3-61c4.7-55.7,16.3-95.5,16.3-95.5l0,0c13.5,5.1,30.5,9.9,48.2,11c0,0,0,0,0.1,0c0.5,0,0.9-0.4,1-0.9l2-18
		c9.9,10.3,20.9,21.4,27.9,27.7L443.9,360z M447.8,502.7c-0.8,0-1.6,0-2.4,0c-0.4-21.9,0.4-133.2,0.4-141.8l3.4-2.3
		c0,0,0.1,0,0.1-0.1c7-6,18.7-17.9,29.2-28.8l2,18c0.1,0.5,0.5,0.9,1,0.9c0,0,0,0,0.1,0c17.8-1.1,34.8-6,48.3-11.1l-0.1,0.1
		c0,0,11.7,39.8,16.3,95.5c3.5,42.3,3.3,56.5,3,61C541.4,496.2,513.3,502.7,447.8,502.7z M546,401c-5.8-40.8-13.4-64.1-13.5-64.5
		c0,0,0,0,0-0.1c8.9-3.5,16-6.9,20.4-9.2c2.6,4.1,23.3,36.6,28.8,47.3c4.1,7.9,6,11.8,6.7,13.5C583.5,388.8,571,391.5,546,401z"/>
	<linearGradient id="SVGID_5_" gradientUnits="userSpaceOnUse" x1="364.8114" y1="240.1701" x2="626.5892" y2="385.0591">
		<stop  offset="0" style="stop-color:#BF9A72"/>
		<stop  offset="1" style="stop-color:#A08568"/>
	</linearGradient>
	<path class="st17" d="M509.3,278.9c3.8,3.3,32.6,27.9,45.7,45c-8.1,4.4-39.1,20.3-72.7,22.6l-2.1-18.7
		c10.8-11.3,19.9-21.1,20.1-21.3c0.2-0.2,0.3-0.5,0.3-0.8c0-0.3-0.2-0.5-0.4-0.7l-11.9-8.7l7.2-5.6c0.2-0.2,0.3-0.4,0.4-0.7
		c0-0.3,0-0.5-0.2-0.7l-4.4-5.6C495,282.8,504.4,280.5,509.3,278.9z"/>
	<linearGradient id="SVGID_6_" gradientUnits="userSpaceOnUse" x1="372.6804" y1="225.9527" x2="634.458" y2="370.8416">
		<stop  offset="0" style="stop-color:#BF9A72"/>
		<stop  offset="1" style="stop-color:#A08568"/>
	</linearGradient>
	<path class="st18" d="M480.5,286.1c1.4-0.1,4.4-0.4,8.7-1.7l4.2,5.5l-6.6,5.1c-0.1,0.1-0.2,0.2-0.2,0.2l-7.1-5.2c0,0-0.1,0-0.1-0.1
		C479.9,288.1,480.3,286.8,480.5,286.1z"/>
	<linearGradient id="SVGID_7_" gradientUnits="userSpaceOnUse" x1="352.1442" y1="263.057" x2="613.9208" y2="407.9454">
		<stop  offset="0" style="stop-color:#BF9A72"/>
		<stop  offset="1" style="stop-color:#A08568"/>
	</linearGradient>
	<path class="st22" d="M448.5,354.3c0.1-0.1,0.2-0.2,0.2-0.4c16.3-22.8,26.1-49.8,30-62l19.3,14c-5.3,5.7-36.6,39.4-50.1,51
		l-0.3,0.2c0-0.1-0.1-0.1-0.1-0.2c0,0-0.1-0.1-0.1-0.1L448.5,354.3z"/>
	<linearGradient id="SVGID_8_" gradientUnits="userSpaceOnUse" x1="345.0178" y1="275.9326" x2="606.7952" y2="420.8215">
		<stop  offset="0" style="stop-color:#BF9A72"/>
		<stop  offset="1" style="stop-color:#A08568"/>
	</linearGradient>
	<path class="st23" d="M416.8,291.9c3.9,12.2,13.6,39,29.8,61.8l-0.8,1.8c-14.2-12.8-43.3-44-48.4-49.5L416.8,291.9z"/>
	<linearGradient id="SVGID_9_" gradientUnits="userSpaceOnUse" x1="354.4956" y1="258.8085" x2="616.2728" y2="403.6972">
		<stop  offset="0" style="stop-color:#BF9A72"/>
		<stop  offset="1" style="stop-color:#A08568"/>
	</linearGradient>
	<path class="st24" d="M406.3,284.3c4.3,1.3,7.3,1.7,8.7,1.7c0.2,0.8,0.6,2.1,1.1,3.9c0,0-0.1,0-0.1,0l-7.1,5.2
		c-0.1-0.1-0.1-0.2-0.2-0.2l-6.6-5.1L406.3,284.3z"/>
	<linearGradient id="SVGID_10_" gradientUnits="userSpaceOnUse" x1="339.6221" y1="285.6811" x2="601.3997" y2="430.57">
		<stop  offset="0.2694" style="stop-color:#BF9A72"/>
		<stop  offset="0.4814" style="stop-color:#AF906D"/>
		<stop  offset="0.7371" style="stop-color:#A38869"/>
		<stop  offset="1" style="stop-color:#A08568"/>
	</linearGradient>
	<path class="st25" d="M399.8,289.4c-0.2,0.2-0.2,0.5-0.2,0.7c0,0.3,0.2,0.5,0.4,0.7l7.2,5.6l-11.9,8.7c-0.2,0.2-0.4,0.4-0.4,0.7
		c0,0.3,0.1,0.6,0.3,0.8c0.2,0.2,9.2,10,20.1,21.3l-2.1,18.7c-33.5-2.3-64.4-18.1-72.6-22.6c13.1-17.1,41.8-41.7,45.7-45
		c4.9,1.6,14.3,4,17.9,4.9L399.8,289.4z"/>
	<linearGradient id="SVGID_11_" gradientUnits="userSpaceOnUse" x1="306.1092" y1="346.2305" x2="567.8868" y2="491.1195">
		<stop  offset="0.2329" style="stop-color:#BF9A72"/>
		<stop  offset="0.7023" style="stop-color:#A88B6B"/>
		<stop  offset="1" style="stop-color:#A08568"/>
	</linearGradient>
	<path class="st26" d="M307.1,388.1c0.8-1.7,2.7-5.6,6.7-13.5c5.5-10.7,26.2-43.1,28.8-47.3c4.5,2.3,11.5,5.7,20.4,9.2
		c0,0,0,0,0,0.1c-0.1,0.4-7.7,23.7-13.5,64.5C324.6,391.5,312.1,388.8,307.1,388.1z"/>
	<linearGradient id="SVGID_12_" gradientUnits="userSpaceOnUse" x1="355.6049" y1="256.8038" x2="617.3828" y2="401.6928">
		<stop  offset="0" style="stop-color:#BF9A72"/>
		<stop  offset="1" style="stop-color:#A08568"/>
	</linearGradient>
	<path class="st27" d="M546,401c-5.8-40.8-13.4-64.1-13.5-64.5c0,0,0,0,0-0.1c8.9-3.5,16-6.9,20.4-9.2c2.6,4.1,23.3,36.6,28.8,47.3
		c4.1,7.9,6,11.8,6.7,13.5C583.5,388.8,571,391.5,546,401z"/>
	<linearGradient id="SVGID_13_" gradientUnits="userSpaceOnUse" x1="408.9093" y1="294.699" x2="582.6852" y2="390.8808">
		<stop  offset="0" style="stop-color:#BF9A72"/>
		<stop  offset="1" style="stop-color:#A08568"/>
	</linearGradient>
	<path style="opacity:0.7;fill:url(#SVGID_13_);" d="M554.7,397.8c-1.3-8.1-6.7-38.8-18.3-62.9c-1.3,0.5-2.6,1-3.9,1.6
		c0,0,0,0,0,0.1c0.1,0.4,7.7,23.7,13.5,64.5C549.1,399.8,552,398.7,554.7,397.8z"/>
	<linearGradient id="SVGID_14_" gradientUnits="userSpaceOnUse" x1="333.4401" y1="357.0781" x2="476.7568" y2="436.4012">
		<stop  offset="0" style="stop-color:#BF9A72"/>
		<stop  offset="1" style="stop-color:#A08568"/>
	</linearGradient>
	<path style="opacity:0.5;fill:url(#SVGID_14_);" d="M349.5,401c5.8-40.8,13.4-64.1,13.5-64.5c0,0,0,0,0-0.1c-1.5-0.6-3-1.2-4.4-1.8
		c-2.7,7.2-13.7,37.6-19.9,62.3C342,398.2,345.6,399.5,349.5,401z"/>
	<linearGradient id="SVGID_15_" gradientUnits="userSpaceOnUse" x1="416.2767" y1="358.1346" x2="583.93" y2="450.9275">
		<stop  offset="0" style="stop-color:#BF9A72"/>
		<stop  offset="1" style="stop-color:#A08568"/>
	</linearGradient>
	<path style="opacity:0.3;fill:url(#SVGID_15_);" d="M529.7,337.5l0.1-0.1c-2.9,1.1-6,2.2-9.2,3.2l0,0c0,0,8.5,108.1-0.5,158.5
		c16.2-1.9,25.1-4.1,28.9-5.1c0.3-4.4,0.5-18.7-3-61C541.4,377.3,529.7,337.5,529.7,337.5z"/>
	<linearGradient id="SVGID_16_" gradientUnits="userSpaceOnUse" x1="373.9482" y1="389.4569" x2="528.4186" y2="474.9534">
		<stop  offset="0" style="stop-color:#BF9A72"/>
		<stop  offset="1" style="stop-color:#A08568"/>
	</linearGradient>
	<path class="st31" d="M431.4,344.3c5,6.4,10,12.8,10.8,13.8c1.5,2-2.1,122.1-2.8,144.5c1.3,0,2.6,0,4,0
		c-0.4-22.8,0.4-141.1,0.4-142.3c0,0,0,0,0,0c0-0.1,0-0.2,0.1-0.3c0,0,0,0,0,0c0,0,0,0,0,0l1.1-2.6
		C441.3,354.1,436.5,349.5,431.4,344.3z"/>
	<linearGradient id="SVGID_17_" gradientUnits="userSpaceOnUse" x1="334.6939" y1="324.9627" x2="377.0026" y2="348.3797">
		<stop  offset="0" style="stop-color:#BF9A72"/>
		<stop  offset="1" style="stop-color:#A08568"/>
	</linearGradient>
	<path style="opacity:0.5;fill:url(#SVGID_17_);" d="M339.7,331.9c4.6,2.7,12,6.7,21.6,10.3c1-3.7,1.7-5.6,1.7-5.7c0,0,0,0,0-0.1
		c-8.8-3.5-15.9-6.9-20.4-9.2C342.2,328,341.2,329.7,339.7,331.9z"/>
	<linearGradient id="SVGID_18_" gradientUnits="userSpaceOnUse" x1="479.8212" y1="329.2635" x2="548.3715" y2="367.2048">
		<stop  offset="0" style="stop-color:#BF9A72"/>
		<stop  offset="1" style="stop-color:#A08568"/>
	</linearGradient>
	<path class="st33" d="M529.8,337.5c-13,4.9-29.2,9.6-46.2,10.9l0.7,2.9c17.9,0.2,34.1-3.9,46.8-8.6c-0.9-3.3-1.4-5-1.4-5
		L529.8,337.5z"/>
	<linearGradient id="SVGID_19_" gradientUnits="userSpaceOnUse" x1="531.0242" y1="327.4806" x2="561.6052" y2="344.4066">
		<stop  offset="0" style="stop-color:#BF9A72"/>
		<stop  offset="1" style="stop-color:#A08568"/>
	</linearGradient>
	<path class="st34" d="M552.9,327.2c-4.5,2.3-11.6,5.8-20.4,9.2c0,0,0,0,0,0.1c0,0.1,0.6,1.8,1.5,5c9.8-3.9,17.2-8,21.3-10.5
		C554.1,329.2,553.3,327.9,552.9,327.2z"/>
	<linearGradient id="SVGID_20_" gradientUnits="userSpaceOnUse" x1="354.7024" y1="327.8424" x2="433.4387" y2="371.4215">
		<stop  offset="0" style="stop-color:#BF9A72"/>
		<stop  offset="1" style="stop-color:#A08568"/>
	</linearGradient>
	<path class="st35" d="M409.1,351.2l0.7-3c-16.1-1.5-31.5-6-43.9-10.7l0,0c0,0-0.6,2-1.6,5.8C376.7,347.7,392.1,351.4,409.1,351.2z"
		/>
	<g>
		<path class="st38" d="M403.9,315.8c-5.1-5.5-8.6-9.2-8.7-9.3c-0.2-0.2-0.3-0.5-0.3-0.8c0-0.3,0.2-0.5,0.4-0.7l11.9-8.7l-7.2-5.6
			c-0.2-0.2-0.3-0.4-0.4-0.7c0-0.3,0-0.5,0.2-0.7l0.8-1c-2.5-0.7-4.9-1.4-7.2-2.2c1.6-1.6,2.9-3,4-4.1c-3-0.8-6.2-1.6-8.8-2.4
			c-1.1,1.1-2.2,2.3-3.5,3.6c-0.9-0.3-1.8-0.7-2.7-1c-1.8,1.6-4.1,3.6-6.8,6c1.2,0.5,2.4,1,3.6,1.5c-2.1,2.3-4.3,4.9-6.5,7.5
			c-1.6-0.7-3.2-1.4-4.7-2.1c-2,1.9-4.2,3.9-6.3,5.9c1.7,0.9,3.6,1.7,5.6,2.7c-2.4,3-4.8,6.2-7.1,9.4c-2.7-1.3-5.1-2.5-7.1-3.6
			c-2,2-3.9,4.1-5.7,6.1c2.2,1.2,5,2.7,8.2,4.2c-2,3-3.8,6-5.5,9c2.2,1,4.6,2.1,7.3,3.3c1.7-3,3.5-5.9,5.5-8.9
			c5.9,2.6,12.8,5.2,20.5,7.5c-1,3.2-1.8,6.4-2.6,9.7c2.5,0.7,5.1,1.4,7.7,2.1c0.8-3.3,1.7-6.5,2.6-9.7c7.1,1.8,14.8,3.3,22.9,4.2
			l0.9-8c-7.4-0.8-14.6-2.2-21.2-3.9c1.3-3.8,2.7-7.4,4.1-10.8C399.9,314.9,401.9,315.4,403.9,315.8z M386.1,323.1
			c-6.8-2.1-12.9-4.4-18.3-6.6c2.4-3.3,4.9-6.5,7.3-9.5c4.6,1.8,9.6,3.6,15,5.3C388.8,315.7,387.4,319.3,386.1,323.1z M393.4,304.8
			c-4.6-1.4-8.8-2.9-12.8-4.4c2.4-2.8,4.7-5.4,6.8-7.7c3.2,1.1,6.7,2.2,10.2,3.2C396.3,298.6,394.8,301.6,393.4,304.8z"/>
		<path class="st38" d="M404.2,283.8C404.2,283.8,404.2,283.8,404.2,283.8c0,0-0.1,0.1-0.1,0.1L404.2,283.8z"/>
	</g>
	<g>
		<path class="st38" d="M497.5,314.4c1.4,3.4,2.8,7,4.1,10.8c-6.7,1.7-13.8,3.1-21.2,3.9l0.9,8c8.1-0.9,15.7-2.4,22.9-4.2
			c1,3.1,1.8,6.4,2.6,9.7c2.6-0.6,5.2-1.3,7.7-2.1c-0.8-3.3-1.7-6.6-2.6-9.7c7.7-2.3,14.6-5,20.5-7.5c2,2.9,3.8,5.9,5.5,8.9
			c2.7-1.1,5.1-2.3,7.3-3.3c-1.7-3-3.5-6-5.5-9c3.2-1.6,5.9-3,8.2-4.2c-1.8-2-3.7-4-5.7-6.1c-2,1.1-4.4,2.3-7.1,3.6
			c-2.3-3.2-4.7-6.4-7.1-9.4c2-0.9,3.9-1.8,5.6-2.7c-2.1-2-4.2-4-6.3-5.9c-1.5,0.7-3,1.4-4.7,2.1c-2.2-2.7-4.4-5.2-6.5-7.5
			c1.2-0.5,2.4-1,3.6-1.5c-2.6-2.3-4.9-4.4-6.8-6c-0.9,0.4-1.8,0.7-2.7,1c-1.2-1.3-2.4-2.5-3.5-3.6c-2.6,0.8-5.9,1.7-8.8,2.4
			c1.1,1.1,2.4,2.5,4,4.1c-2.3,0.8-4.7,1.5-7.2,2.2l0.8,1c0.2,0.2,0.2,0.5,0.2,0.7c0,0.3-0.2,0.5-0.4,0.7l-7.2,5.6l11.9,8.7
			c0.2,0.2,0.4,0.4,0.4,0.7c0,0.3-0.1,0.6-0.3,0.8c-0.1,0.1-3.6,3.8-8.7,9.3C493.6,315.4,495.6,314.9,497.5,314.4z M505.3,312.2
			c5.4-1.7,10.5-3.5,15-5.3c2.5,3.1,4.9,6.3,7.3,9.5c-5.4,2.3-11.5,4.6-18.3,6.6C508.1,319.3,506.7,315.7,505.3,312.2z M497.9,295.9
			c3.6-1,7-2.1,10.2-3.2c2.1,2.4,4.4,4.9,6.8,7.7c-4,1.5-8.2,3-12.8,4.4C500.7,301.6,499.2,298.6,497.9,295.9z"/>
		<path class="st38" d="M491.3,283.8C491.3,283.8,491.3,283.8,491.3,283.8c0,0,0.1,0.1,0.1,0.1L491.3,283.8z"/>
	</g>
	<path class="st39" d="M370.4,339.2c-1.5-0.5-3.1-1.1-4.5-1.6l0,0c0,0-11.7,39.8-16.3,95.5c-3.5,42.3-3.3,56.6-3,61
		c1.1,0.3,2.8,0.7,4.9,1.2C352.9,423.7,368.1,349.9,370.4,339.2z"/>
</g>
</svg>
