<?xml version="1.0" encoding="utf-8"?>
<!-- Generator: Adobe Illustrator 21.0.0, SVG Export Plug-In . SVG Version: 6.00 Build 0)  -->
<svg version="1.1" id="圖層_1" xmlns="http://www.w3.org/2000/svg" xmlns:xlink="http://www.w3.org/1999/xlink" x="0px" y="0px"
	 viewBox="0 0 822.9 601.4" style="enable-background:new 0 0 822.9 601.4;" xml:space="preserve">
<style type="text/css">
	.st0{fill:url(#SVGID_1_);}
	.st1{fill:#E1BE3F;}
	.st2{fill:#AB6C21;}
	.st3{opacity:0.6;fill:#E1BE3F;enable-background:new    ;}
	.st4{fill:url(#SVGID_2_);}
	.st5{fill:url(#SVGID_3_);}
	.st6{opacity:0.5;fill:#F5E1B8;enable-background:new    ;}
	.st7{fill:#D97728;}
	.st8{fill:url(#SVGID_4_);}
	.st9{opacity:0.3;fill:#F5E1B8;enable-background:new    ;}
	.st10{fill:url(#SVGID_5_);}
	.st11{fill:#FFFFFF;}
	.st12{fill:#FBEEDC;}
	.st13{fill:none;stroke:#F5E1B8;stroke-width:0.9975;stroke-linecap:round;stroke-miterlimit:10;}
	.st14{opacity:0.6;}
	.st15{fill:url(#SVGID_6_);}
	.st16{opacity:0.6;fill:#F5E1B8;enable-background:new    ;}
	.st17{fill:#FDF3E4;}
	.st18{fill:none;stroke:#FCEBE7;stroke-width:1.4962;stroke-linecap:round;stroke-linejoin:round;stroke-miterlimit:10;}
	.st19{fill:none;stroke:#ECC795;stroke-width:1.114;stroke-linecap:round;stroke-linejoin:round;stroke-miterlimit:10;}
	.st20{fill:url(#SVGID_7_);}
</style>
<g>
	<g>
		
			<linearGradient id="SVGID_1_" gradientUnits="userSpaceOnUse" x1="351.4363" y1="300.095" x2="399.1927" y2="300.095" gradientTransform="matrix(1 0 0 -1 0 602)">
			<stop  offset="0" style="stop-color:#F5E2B9"/>
			<stop  offset="1" style="stop-color:#F1953A"/>
		</linearGradient>
		<path class="st0" d="M374.5,287c-8.8,7.1-18.6,15.2-23,20.7c0,0,8.5,4.7,21.3,7.8l3.4,0.7c2.4,1.7,5.1,0,5.1,0l2.4-0.3l14.6-3.7
			l0.7-20.3C389.7,291,380.2,288.7,374.5,287z"/>
		<path class="st6" d="M368.4,315.1l5.1,0.7c3.7-8.5,7.1-16.6,9.1-20.3C382.9,295.8,375.2,305.6,368.4,315.1z"/>
		<path class="st7" d="M363.6,312.7c-0.7-0.3-1-0.3-1.7-0.7c-2.4-1-4.4-2-6.1-3l0,0c-1.4-0.7-1-1.7-1-1.7l0,0
			c1.4-1.7,3.7-4.7,8.5-9.1c2-2,7.8-7.1,12.5-10.8c-1-0.3-2-0.7-3-1c-6.4,5.4-13.6,11.9-19.3,18c-1,1-2,2-2.7,3c0,0.3-0.3,0.3,0,0.7
			c0,0.3,0.7,1,2.4,2.4c0,0,6.4,5.1,19.3,6.8l1.4-2C370.7,314.7,367,313.7,363.6,312.7L363.6,312.7z"/>
	</g>
	<g>
		
			<linearGradient id="SVGID_2_" gradientUnits="userSpaceOnUse" x1="367.414" y1="300.095" x2="540.8214" y2="300.095" gradientTransform="matrix(1 0 0 -1 0 602)">
			<stop  offset="0" style="stop-color:#F5E2B9"/>
			<stop  offset="1" style="stop-color:#F1953A"/>
		</linearGradient>
		<path class="st4" d="M521.2,287c8.8,7.1,18.6,15.2,23,20.7c0,0-8.5,4.7-21.3,7.8l-3.4,0.7c-2.4,1.7-5.1,0-5.1,0l-2.4-0.3
			l-14.6-3.7l-0.7-20.3C506.3,291,515.8,288.7,521.2,287z"/>
		<path class="st9" d="M521.2,287c8.8,7.1,18.6,15.2,23,20.7c0,0-8.5,4.7-21.3,7.8l-3.4,0.7c-2.4,1.7-5.1,0-5.1,0l-2.4-0.3
			l-14.6-3.7l-0.7-20.3C506.3,291,515.8,288.7,521.2,287z"/>
		<path class="st7" d="M532.4,312.7c0.7-0.3,1-0.3,1.7-0.7c2.4-1,4.4-2,6.1-3l0,0c1.4-0.7,1-1.7,1-1.7l0,0c-1.4-1.7-3.7-4.7-8.5-9.1
			c-2-2-7.8-7.1-12.5-10.8c1-0.3,2-0.7,3-1c6.4,5.4,13.6,11.9,19.3,18c1,1,2,2,2.7,3c0,0.3,0.3,0.3,0,0.7c0,0.3-0.7,1-2.4,2.4
			c0,0-6.4,5.1-19.3,6.8l-1.4-2C525.2,314.7,529,313.7,532.4,312.7L532.4,312.7z"/>
	</g>
	<g>
		
			<linearGradient id="SVGID_3_" gradientUnits="userSpaceOnUse" x1="344.9988" y1="234.9102" x2="547.6119" y2="234.9102" gradientTransform="matrix(1 0 0 -1 0 602)">
			<stop  offset="0" style="stop-color:#F5E2B9"/>
			<stop  offset="1" style="stop-color:#F1953A"/>
		</linearGradient>
		<path class="st5" d="M530.7,337.8c0.3,0,0.7-0.3,1-0.3c-2-5.8-5.4-14.9-6.8-17.6c-1.7-3-10.5-19.3-15.2-27.8l-4.7-1l-58.6,4.1
			l-54.5-5.4l-20,5.4c2.4,1,4.4,2,4.4,2l4.4,1.7c0,0-8.5,19-10.8,25.4c-2.4,6.4-8.5,21-8.5,21l-1.7-0.3c-6.8,20.3-13.2,47.8-14.6,81
			c0,0,40,18.3,101.3,18.6c61.3,0,101.3-18.6,101.3-18.6C545.9,388.6,538.1,358.8,530.7,337.8z"/>
		<g>
			<path class="st11" d="M428.3,347.3L428.3,347.3l-4.4-4.1v-0.3h0.3l4.4,3.7l4.1-1.4h0.3v0.3L428.3,347.3L428.3,347.3z"/>
			<path class="st11" d="M463.6,371.7L463.6,371.7c-2,0-3.4-1.7-3.7-2l-24.1-22l-6.1,2c-1.4,0.3-2.7,0.3-3.7-0.7l-6.1-5.4v-0.3
				l-1-10.8c0-0.3,0-0.3,0.3-0.3c0.3,0,0.3,0,0.7,0l4.7,6.4l1.7,1c2.4-2.4,4.7-4.7,6.8-7.5l-1.4-1.4l-6.8-4.1
				c-0.3,0-0.3-0.3-0.3-0.7s0.3-0.3,0.3-0.3l10.8,0.3h0.3l5.8,5.8c1,1,1.4,2.4,1,3.7l-1.7,6.1l24.1,22.4c0.3,0.3,2,1.4,2.4,3.4
				c0,1-0.3,2-1,3l0,0l-0.3,0C465.6,371.3,464.6,371.7,463.6,371.7z M436.1,346.6L436.1,346.6l24.7,22.4l0,0c0,0,1.4,1.7,2.7,1.7
				c0.7,0,1.4-0.3,2-1l0.3-0.3c0.7-0.7,1-1.4,0.7-2.4c-0.3-1.7-2-2.7-2-2.7l0,0l-24.1-22c0,0-0.3-0.3,0-0.3l1.7-6.4
				c0.3-1,0-2-0.7-2.7l-5.8-5.8H427l5.4,3.4l0,0l1.7,1.7c0,0.3,0,0.3,0,0.7c-2.4,2.7-4.7,5.4-7.5,8.1c0,0-0.3,0.3-0.7,0l-2.4-1.7
				l0,0l-3.7-5.1l1,8.8l6.1,5.1c0.7,0.7,1.7,1,2.7,0.7L436.1,346.6C435.8,346.6,435.8,346.6,436.1,346.6z M466.3,369.6L466.3,369.6
				L466.3,369.6z"/>
			<path class="st11" d="M439.2,338.8L439.2,338.8L439.2,338.8l0.7-4.4l-4.1-4.1V330h0.3l4.4,4.1c0,0,0,0,0,0.3L439.2,338.8
				C439.5,338.8,439.5,338.8,439.2,338.8z"/>
			<path class="st11" d="M439.9,361.8c-0.3,0-1-0.3-1.4-0.7l-5.4-5.4c-0.3-0.3-0.7-0.7-0.7-1.4c0-0.3,0.3-1,0.7-1.4
				c0.3-0.3,0.7-0.7,1.4-0.7c0.3,0,1,0.3,1.4,0.7l5.4,5.4c0.7,0.7,0.7,2,0,2.7C440.9,361.8,440.5,361.8,439.9,361.8z M434.8,353.7
				c-0.3,0-0.3,0-0.7,0.3c0,0-0.3,0.3-0.3,0.7c0,0.3,0,0.3,0.3,0.7l5.4,5.4l0,0c0.3,0.3,1,0.3,1.4,0c0.3-0.3,0.3-1,0-1.4l-5.4-5.4
				C435.1,353.7,434.8,353.7,434.8,353.7L434.8,353.7z"/>
			<path class="st11" d="M425.3,375.1H425l-5.4-5.8V369v-0.3l13.9-13.6h0.3h0.3l5.4,5.8c0.3,0.3,0.3,0.3,0,0.7L425.3,375.1
				L425.3,375.1z M420.2,369l4.7,5.1l13.2-12.9l-4.7-5.1L420.2,369z"/>
			<path class="st11" d="M420.9,370.3L420.9,370.3L420.9,370.3l13.2-13.2h0.3v0.3L420.9,370.3L420.9,370.3z"/>
			<path class="st11" d="M422.6,372C422.2,372,422.2,372,422.6,372C422.2,371.7,422.2,371.7,422.6,372l13.2-13.2h0.3v0.3L422.6,372
				L422.6,372z"/>
			<path class="st11" d="M423.9,373.4L423.9,373.4C423.6,373.4,423.6,373.4,423.9,373.4l13.2-13.2h0.3v0.3L423.9,373.4L423.9,373.4z
				"/>
			<g>
				<path class="st11" d="M438.9,357.8L438.9,357.8h-0.3l-1.4-1.7c-0.3-0.3-0.3-0.3,0-0.7l3.7-3.7c0.3-0.3,0.3-0.3,0.7,0l1.4,1.4
					v0.3v0.3L438.9,357.8C439.2,357.4,439.2,357.8,438.9,357.8z M438.2,355.7l0.7,0.7l3.4-3l-0.7-0.7L438.2,355.7z"/>
				<path class="st11" d="M448,349L448,349l-1.7-1.4v-0.3v-0.3l21-20.3h0.3h1.7h0.3v0.3l-0.3,1.7v0.3L448,349
					C448.3,349,448.3,349,448,349z M447.3,346.9l0.7,0.7l20.3-19.7v-0.7h-1L447.3,346.9z"/>
			</g>
		</g>
		<path class="st12" d="M383.3,302.5l-4.4,0.3l-17.6,40.3l-3.4,7.8c-6.1,19.7-11.5,44.7-12.5,74.9c0,0,4.4,2,12.5,4.7
			C357.5,372,383.3,302.5,383.3,302.5z"/>
		<path class="st13" d="M350.1,419.8c0,0,77.9,36.6,191.8,0"/>
		<g class="st14">
			<path class="st9" d="M531,337.8l-0.7-3.7c-2-5.4-4.4-12.2-5.8-14.2c-1.7-3-10.5-19.3-15.2-27.8h0.3l0,0l-4.7-1l-58.6,4.1l-18-1.7
				l-32.5,3l-12.5,6.1c0,0,48.1-5.4,56.9-5.1c8.5,0,43.4,5.1,43.4,5.1l21.3,1.7c0,0,10.8,97.2-13.6,136.5
				c35.2-5.4,56.2-15.2,56.2-15.2C545.9,388.6,538.1,358.8,531,337.8C530.7,337.8,530.7,337.8,531,337.8z"/>
		</g>
		
			<linearGradient id="SVGID_4_" gradientUnits="userSpaceOnUse" x1="446.1885" y1="316.3959" x2="532.3018" y2="316.3959" gradientTransform="matrix(1 0 0 -1 0 602)">
			<stop  offset="0" style="stop-color:#F5E2B9"/>
			<stop  offset="1" style="stop-color:#F1953A"/>
		</linearGradient>
		<path class="st8" d="M446.3,295.1c0,0,12.2-7.8,22.4-9.8c0,0,33.2-4.4,52.5-16.6l3,10.2c0,0,14.2,4.4,4.7,18.6
			c0,0-6.4,5.1-16.9,5.1C501.5,302.5,459.9,294.8,446.3,295.1z"/>
		<path class="st16" d="M477.5,289.3c21.7,0,38.6-7.1,38.6-7.1c-6.8,2.4-59.3,7.1-59.3,7.1l0,0c3.7-1.7,7.8-3.4,11.9-4.1
			c0,0,32.9-4.4,52.2-16.6l3.4,10.2C535.1,293.1,477.5,289.3,477.5,289.3z"/>
		<path class="st7" d="M521.2,280.5c0,0,3.7-1.4,7.1,0.7l-4.1-3L521.2,280.5z"/>
		<path class="st7" d="M530,298.1l2.4-1c4.4-8.8-1-14.6-1-14.6C534.4,289,529.7,298.1,530,298.1L530,298.1z"/>
		<g>
			<path class="st17" d="M427.7,345.9L427.7,345.9c-2-0.7-3.4-2.7-2.7-4.7l0.7-2.4c0.7-2,2.7-3.4,4.7-2.7l0,0c2,0.7,3.4,2.7,2.7,4.7
				l-0.7,2.4C431.7,345.2,429.7,346.6,427.7,345.9z"/>
			<path class="st17" d="M452.1,356.8L452.1,356.8c-2,0-3.7-2-3.7-4.1v-2.4c0-2,2-3.7,4.1-3.7l0,0c2,0,3.7,2,3.7,4.1v2.4
				C455.8,355.4,454.1,357.1,452.1,356.8z"/>
			<g>
				<path class="st6" d="M457.5,349.6c-0.7-0.7-1.7-1.4-2.7-1.4c0.3-21.7-6.1-53.2-6.1-53.5c0-0.3-0.3-0.7-1-0.7
					c-0.3,0-0.3,0.3-0.3,0.3c0-0.3-0.3-0.3-0.3-0.7c-0.3,0-0.7,0-1,0.3c0,0.3-9.5,24.1-14.2,43c-2-0.3-4.1,1-4.7,3.4l-0.7,2.4
					c-0.3,1,0,2.4,0.3,3.4c0.7,1,1.4,1.7,2.7,2c0.3,0,0.7,0,1,0c0.7,0,1.4-0.3,2-0.7c1-0.7,1.7-1.7,2-2.7l0.7-2.4
					c0.7-2-0.3-4.4-2.4-5.1c4.7-18,13.6-40.7,14.2-42.7l0,0c0,0.3,6.4,31.8,6.1,53.2c-0.7,0-1.4,0.7-2,1c-1,0.7-1.4,2-1.4,3v2.4
					c0,1.4,0.3,2.4,1,3.4c0.7,1,1.7,1.4,3,1.4c0,0,0,0,0.3,0c2.4,0,4.1-2,4.4-4.4v-2.4C458.8,351.7,458.5,350.3,457.5,349.6z"/>
				<path class="st18" d="M445,294.8c0,0-9.5,23-14.6,41.7"/>
				<path class="st18" d="M446.3,295.1c0,0,6.8,30.8,6.1,52.2"/>
				<path class="st19" d="M427.7,345.9L427.7,345.9c-2-0.7-3.4-2.7-2.7-4.7l0.7-2.4c0.7-2,2.7-3.4,4.7-2.7l0,0
					c2,0.7,3.4,2.7,2.7,4.7l-0.7,2.4C431.7,345.2,429.7,346.6,427.7,345.9z"/>
				<path class="st19" d="M452.1,356.8L452.1,356.8c-2,0-3.7-2-3.7-4.1v-2.4c0-2,2-3.7,4.1-3.7l0,0c2,0,3.7,2,3.7,4.1v2.4
					C455.8,355.4,454.1,357.1,452.1,356.8z"/>
			</g>
		</g>
		
			<linearGradient id="SVGID_5_" gradientUnits="userSpaceOnUse" x1="360.3679" y1="314.8712" x2="446.4812" y2="314.8712" gradientTransform="matrix(1 0 0 -1 0 602)">
			<stop  offset="0" style="stop-color:#F5E2B9"/>
			<stop  offset="1" style="stop-color:#F1953A"/>
		</linearGradient>
		<path class="st10" d="M446.6,295.1c0,0-12.2-7.8-22.4-9.8c0,0-32.2-1.4-51.5-13.6l-4.1,7.1c0,0-14.2,4.4-4.7,18.6
			c0,0,6.4,5.1,16.9,5.1C391.1,302.5,432.8,294.8,446.6,295.1z"/>
		<path class="st16" d="M415.5,289.3c-21.7,0-38.6-7.1-38.6-7.1c6.8,2.4,59.3,7.1,59.3,7.1l0,0c-3.7-1.7-7.8-3.4-11.9-4.1
			c0,0-32.2-1.4-51.5-13.6l-4.1,7.1C357.9,293.1,415.5,289.3,415.5,289.3z"/>
		<path class="st7" d="M551,425.5c0.3-69.8-28.1-116.2-32.5-123c7.1-1.4,11.2-4.4,11.2-4.7c0,0,0,0,0.3-0.3c3-4.7,4.1-9.1,2.7-12.9
			c-1.7-4.4-6.1-6.4-7.5-7.1l-3.4-9.5c0-0.3-0.3-0.3-0.7-0.7c-0.3,0-0.7,0-0.7,0c-19,12.2-51.8,16.6-52.2,16.6
			c-9.1,1.7-19.3,8.1-22,9.5c-2.7-1.7-13.2-7.8-22-9.5l0,0c-0.3,0-32.2-1.4-51.2-13.6c-0.3,0-0.3-0.3-0.7,0c-0.3,0-0.3,0.3-0.7,0.3
			l-4.1,6.8c-1.4,0.3-6.1,2.4-7.8,7.1c-1.4,3.7-0.3,8.1,2.7,12.9c0,0,0,0,0.3,0.3c0.3,0.3,5.4,4.4,14.2,5.1
			c-4.7,7.8-30.2,52.5-33.2,122.3c0,0.3,0.3,0.7,0.7,1c0.3,0.3,40.3,18.3,100.6,18.6l0,0h1.7l0,0c52.9-0.3,90.1-14.2,98.9-17.6l0,0
			L551,425.5z M531,285.6c1,3,0.3,6.8-2.4,11.2c-1,0.7-6.8,4.7-16.3,4.7l0,0c-5.1,0-16.6-1.7-28.8-3.4c-9.8-1.4-20-2.7-27.8-3.7
			c4.7-1,9.8-2,14.9-3c5.4-1,10.5-1.7,15.6-2c2.4-0.3,4.7-0.3,7.1-0.7c6.1-0.7,11.9-1.7,17.3-3.4c5.8-1.7,10.2-3.7,13.9-5.8
			C525.6,279.8,529.7,281.9,531,285.6z M468.7,285.9c0.3,0,32.5-4.4,51.8-16.3l2.7,8.5c-3.4,2-7.8,3.7-13.2,5.4
			c-5.4,1.7-11.2,2.7-16.9,3.4c-2.4,0.3-4.7,0.3-7.1,0.7c-5.1,0.3-10.5,1-15.9,2c-7.1,1.4-14.2,3-20.3,4.1
			C453.8,291.4,461.9,287.3,468.7,285.9z M372.8,272.7c19,11.5,49.5,13.2,51.2,13.2c6.8,1.4,14.9,5.4,19,8.1
			c-6.1-1.4-13.2-2.7-20.3-4.1c-5.4-1-10.8-1.7-15.9-2c-2.4-0.3-4.7-0.3-7.1-0.7c-6.1-0.7-11.5-1.7-16.9-3.4s-9.5-3.4-12.9-5.4
			L372.8,272.7z M361.6,285.6c1.4-3.7,5.4-5.4,6.4-6.1c3.7,2,8.1,4.1,13.9,5.8c5.4,1.7,11.2,2.7,17.3,3.4c2.4,0.3,4.7,0.3,7.1,0.7
			c3,0.3,6.1,0.7,9.1,1c4.7,1.4,11.9,3.4,15.2,4.7c-6.4,0.7-14.2,1.7-21.7,3c-12.2,1.7-23.7,3.4-28.8,3.4l0,0
			c-9.5,0-15.6-4.1-16.3-4.7C361.6,292.4,360.6,288.7,361.6,285.6z M346,424.9l1.4,0.7C346.7,425.2,346.4,425.2,346,424.9z
			 M446.3,443.2c-52.9,0-90.5-14.2-98.9-17.6c0.7-62.3,33.2-122.3,33.2-122.3l0,0c5.1,0,16.6-1.7,29.1-3.4
			c12.9-1.7,26.4-3.7,34.2-4.1l0,0l0,0c1,0,1.7,0,2.4,0s1.7,0,2.4,0l0,0l0,0c7.8,0.3,21.3,2.4,34.2,4.1c12.2,1.7,24.1,3.4,29.1,3.4
			l0,0c0.3,0,0.7,0,1.4,0c2.7,4.4,30.2,49.5,33.2,121.6C541.5,427.2,502.9,443.2,446.3,443.2z"/>
	</g>
</g>
</svg>
