<?xml version="1.0" encoding="utf-8"?>
<!-- Generator: Adobe Illustrator 21.0.0, SVG Export Plug-In . SVG Version: 6.00 Build 0)  -->
<svg version="1.1" id="圖層_1" xmlns="http://www.w3.org/2000/svg" xmlns:xlink="http://www.w3.org/1999/xlink" x="0px" y="0px"
	 viewBox="0 0 822.9 601.4" style="enable-background:new 0 0 822.9 601.4;" xml:space="preserve">
<style type="text/css">
	.st0{fill:url(#SVGID_1_);}
	.st1{fill:#E1BE3F;}
	.st2{fill:#AB6C21;}
	.st3{opacity:0.6;fill:#E1BE3F;enable-background:new    ;}
	.st4{fill:url(#SVGID_2_);}
	.st5{fill:#89B0CB;}
	.st6{fill:#6994AF;}
	.st7{fill:#5C87A3;}
	.st8{fill:#A1CEEC;}
	.st9{opacity:0.5;}
	.st10{fill:#122547;}
	.st11{fill:#B7DEF1;}
</style>
<g>
	<g>
		<path class="st5" d="M506,274.1c8.2,6.5,29.7,23.9,37.3,33.2c0,0-8.9,5.1-21.9,8.5l-3.4,0.7c-2.4,1.7-5.1,0-5.1,0l-2.4-0.7
			l-14.7-3.8l-1-33.8L506,274.1z"/>
		<path class="st5" d="M505.6,274.8l0.3-0.7l2.4,2.1c0,0-0.7,0.3-2.1,1.4L505.6,274.8z"/>
		<path class="st6" d="M528.2,314.4l-5.1,0.7c-3.8-9.2-7.2-17.8-9.6-21.5C513.5,293.9,521.4,304.5,528.2,314.4z"/>
		<path class="st7" d="M504.3,274.1l0.7-0.7h0.7l0,0l2.1-0.7c0,0,20.9,17.1,33.2,30.8c1,1,2.1,2.4,2.7,3.4c0,0.3,0.3,0.3,0,0.7
			c0,0.3-0.7,1.4-2.4,2.4c0,0-6.5,5.5-19.8,7.2l-0.3-0.7c-0.7,0-1.7,0.3-2.4,0.3l-0.7,0.7c0,0-0.3-1-0.3-1.4s1-0.7,1-0.7
			c3.1,0,7.9-1.4,12-2.7l0,0c0.7-0.3,1-0.3,1.7-0.7c4.1-1.7,7.5-4.1,7.5-4.1l0,0c-1-1.7-3.8-5.1-8.9-10.6
			c-3.8-3.8-18.5-16.4-18.5-16.4c-2.7-2.4-5.1-4.1-6.8-5.5H505l-0.7-0.7L504.3,274.1z"/>
	</g>
	<g>
		<path class="st8" d="M384.6,276.1c-8.2,6.5-29.7,22.9-37.3,31.8c0,0,8.9,5.1,21.9,8.2l3.4,0.7c2.4,1.7,5.1,0,5.1,0l2.4-0.7
			l14.7-3.8l1-33.2L384.6,276.1z"/>
		<path class="st5" d="M385,276.8l-0.3-0.7l-2.4,1.7c0,0,0.7,0.3,2.1,1.4L385,276.8z"/>
		<path class="st5" d="M364.8,315.1l5.1,0.7c3.8-8.5,7.2-16.7,9.6-20.5C379.5,295.6,371.7,305.5,364.8,315.1z"/>
		<path class="st7" d="M386.4,276.1l-0.7-0.7H385l0,0l-2.1-0.7c0,0-20.9,16.4-33.2,29.4c-1,1-2.1,2.1-2.7,3.1c0,0.3-0.3,0.3,0,0.7
			c0,0.3,0.7,1,2.4,2.4c0,0,6.5,5.1,19.8,7.2l0.3-0.7c0.7,0,1.7,0,2.4,0.3l1,0.3c0,0,0.3-1,0.3-1.4s-1-0.7-1-0.7
			c-3.1,0-7.9-1.4-12-2.7l0,0c-0.7-0.3-1-0.3-1.7-0.7c-4.1-1.7-7.5-4.1-7.5-4.1l0,0c1-1.7,3.8-4.8,8.9-10.3
			c3.8-3.8,18.5-15.7,18.5-15.7c2.7-2.1,5.1-4.1,6.8-5.5h0.7L386.4,276.1L386.4,276.1z"/>
	</g>
	<path class="st8" d="M531.6,337.3h0.7c0.3-0.3,0.3-0.3,0.7-0.7l-1.7-5.1l-18.8-37.9l-7.2-18.5l-0.3-0.7l-11.3,4.1
		c0,0-19.8,19.8-46.8,19.8c-22.2,0-39.3-13.3-45.1-18.1l-15.4-3.8h-1l0.3,0.3H385l-4.1,16.7l-12.3,25.6l-7.5,18.1c0,0,0,0,0.3,0.3
		h0.7c-7.9,22.2-15.4,50.6-16.1,79c0,0,20.9,19.8,101.2,20.2c80.3,0,101.2-20.2,101.2-20.2C547,388.2,539.5,359.9,531.6,337.3z"/>
	<path class="st5" d="M401.7,280.2l-15.4-3.8h-1l0.3,0.3H385l-0.7,2.4c4.4,2.4,15.4,7.9,31.8,10.9L401.7,280.2z"/>
	<path class="st7" d="M447.5,307.2c-0.3,0-0.7,0-0.7,0c-3.4,0-33.2,0-53.7-19.8c-0.3-0.3-0.3-0.7,0-0.7c0.3-0.3,0.7-0.3,0.7,0
		c19.8,18.8,48.2,19.5,52.6,19.5l0,0h0.7l0,0c4.8,0,32.8-0.3,52.6-19.5c0.3-0.3,0.7-0.3,0.7,0c0.3,0.3,0.3,0.7,0,0.7
		C480.7,306.2,453.4,307.2,447.5,307.2z"/>
	<path class="st5" d="M532,337.3c0.3-0.3,0.3-0.3,0.7-0.7l-1.7-5.1l-18.5-37.9l-7.2-18.5l-0.3-0.7l-3.1,1l-8.2,3.1l-10.3,7.9
		c8.5-2.1,15.4-4.1,19.8-5.8c5.1,32.8,12.3,120.7-54.3,155.9c78.6-0.3,98.8-20.2,98.8-20.2c-0.7-28-8.2-56.4-16.1-79H532z"/>
	<g class="st9">
		<path class="st10" d="M429.4,343.8L429.4,343.8l-4.8-4.1v-0.3h0.3l4.4,3.8l4.4-1.4h0.3v0.3L429.4,343.8L429.4,343.8z"/>
		<path class="st10" d="M465.3,368.8C465,368.8,465,368.8,465.3,368.8c-2.1,0-3.4-1.7-3.8-2.1l-24.3-22.6l-6.2,2.1
			c-1.4,0.3-2.7,0.3-3.8-0.7l-6.5-5.5v-0.3l-1-10.9c0-0.3,0-0.3,0.3-0.3c0.3,0,0.3,0,0.7,0l4.8,6.5l1.7,1c2.4-2.4,4.8-4.8,6.8-7.5
			l-1.4-1.4L426,323c-0.3,0-0.3-0.3-0.3-0.7c0-0.3,0.3-0.3,0.3-0.3l10.9,0.3h0.3l5.8,5.8c1,1,1.4,2.4,1,3.8l-1.7,6.2l24.3,22.6
			c0.3,0.3,2.1,1.4,2.4,3.4c0,1-0.3,2.1-1,3.1l0,0l-0.3,0.3C467,368.4,466,368.8,465.3,368.8z M437.3,343.1L437.3,343.1l25,22.9l0,0
			c0,0,1.4,1.7,2.7,1.7c0.7,0,1.4-0.3,2.1-1l0.3-0.3c0.7-0.7,1-1.4,0.7-2.4c-0.3-1.7-2.1-2.7-2.1-2.7l0,0l-24.6-22.9
			c0,0-0.3-0.3,0-0.3l1.7-6.5c0.3-1,0-2.1-0.7-2.7l-5.8-5.8h-8.9l5.5,3.4l0,0l1.7,1.7c0,0.3,0,0.3,0,0.7c-2.4,3.1-4.8,5.5-7.5,8.2
			c-0.3,0-0.3,0.3-0.7,0l-2.1-1.4l0,0l-3.8-5.1l1,8.9l6.2,5.5c0.7,0.7,1.7,1,2.7,0.7L437.3,343.1
			C436.9,343.1,436.9,343.1,437.3,343.1z M467.7,366.7L467.7,366.7L467.7,366.7z"/>
		<path class="st10" d="M440.4,335.3L440.4,335.3L440.4,335.3l0.7-4.4l-4.1-4.1v-0.3h0.3l4.4,4.1c0,0,0,0,0,0.3L440.4,335.3
			C440.7,335.3,440.7,335.3,440.4,335.3z"/>
		<path class="st10" d="M441,358.8c-0.3,0-1-0.3-1.4-0.7l-5.5-5.5c-0.3-0.3-0.7-0.7-0.7-1.4c0-0.3,0.3-1,0.7-1.4
			c0.3-0.3,0.7-0.7,1.4-0.7c0.3,0,1,0.3,1.4,0.7l5.5,5.5c0.7,0.7,0.7,2.1,0,2.7C442.1,358.8,441.7,358.8,441,358.8z M435.9,350.6
			c-0.3,0-0.3,0-0.7,0.3c-0.3,0-0.3,0.3-0.3,0.7c0,0.3,0,0.3,0.3,0.7l5.5,5.5l0,0c0.3,0.3,1,0.3,1.4,0c0.3-0.3,0.3-1,0-1.4l-5.5-5.5
			C436.3,350.6,435.9,350.6,435.9,350.6L435.9,350.6z"/>
		<path class="st10" d="M426,372.2h-0.3l-5.5-5.8V366v-0.3l14-13.7h0.3h0.3l5.5,5.8c0.3,0.3,0.3,0.3,0,0.7L426,372.2
			C426.4,372.2,426.4,372.2,426,372.2z M421.2,366l4.8,5.1l13.3-13l-4.8-5.1L421.2,366z"/>
		<path class="st10" d="M421.9,367.4L421.9,367.4C421.6,367.4,421.6,367.4,421.9,367.4l13.3-13.3h0.3v0.3L421.9,367.4L421.9,367.4z"
			/>
		<path class="st10" d="M423.3,369.1L423.3,369.1C423.3,369.1,423.3,368.8,423.3,369.1l13.3-13.3h0.3v0.3L423.3,369.1
			C423.6,369.1,423.3,369.1,423.3,369.1z"/>
		<path class="st10" d="M425,370.8C425,370.8,424.6,370.5,425,370.8C424.6,370.5,424.6,370.5,425,370.8l13.3-13.3h0.3v0.3L425,370.8
			C425,370.5,425,370.8,425,370.8z"/>
		<g>
			<path class="st10" d="M440,354.4L440,354.4h-0.3l-1.4-1.4c-0.3-0.3-0.3-0.3,0-0.7l3.8-3.8c0.3-0.3,0.3-0.3,0.7,0l1.4,1.4v0.3v0.3
				L440,354.4C440.4,354.4,440.4,354.4,440,354.4z M439.3,352.7l0.7,0.7l3.4-3.1l-0.7-0.7L439.3,352.7z"/>
			<path class="st10" d="M449.3,345.5L449.3,345.5l-1.7-1.4v-0.3v-0.3l21.2-20.5h0.3h1.7h0.3v0.3l-0.3,1.7v0.3L449.3,345.5
				C449.6,345.5,449.6,345.5,449.3,345.5z M448.6,343.8l0.7,0.7l20.9-20.2v-0.7h-1L448.6,343.8z"/>
		</g>
	</g>
	<path class="st11" d="M379.5,294.6c-3.4,3.1-14,29.7-18.8,41.7l0,0h0.7c-7.9,22.2-15.4,50.6-16.1,79c0,0,2.4,2.1,8.2,5.1
		C351.5,375.2,379.5,294.6,379.5,294.6z"/>
	<g>
		<path class="st7" d="M401.1,280.9c6.5,5.5,23.6,18.1,45.5,18.1l0,0l0,0c26,0,45.5-18.1,47.2-19.8l11.6-4.4l-0.7-1.4l-11.6,4.4
			c0,0-0.3,0-0.3,0.3c-0.3,0.3-20.2,19.5-46.5,19.5c-21.5,0-38.3-12.6-44.4-17.8h-0.3l-16.7-4.1c-0.3,0-0.3,0-0.7,0l1.4,1.7
			L401.1,280.9z"/>
		<path class="st7" d="M533.7,337l-0.7-1.4c-9.6-25-19.5-42-19.5-42c-0.3-0.3-0.7-0.3-1-0.3c-0.3,0.3-0.3,0.7-0.3,1
			s2.7,5.1,6.5,13.3c7.9,18.5,13.7,34.2,17.8,47.2c5.1,17.4,9.2,37.3,10.3,57.1c0,1.7-0.3,2.4-0.3,2.4
			c-24.6,16.1-79.6,19.5-116.2,19.8c-44.8-0.3-73.1-12.3-74.9-13c-5.5-2.7-8.2-4.8-8.9-5.1c1.4-59.5,34.2-121,34.5-121.7
			c0.3-0.3,0-0.7-0.3-1c-0.3-0.3-0.7,0-1,0.3c0,0-9.9,17.4-19.5,42l-0.7,1.4c-8.9,23.2-17.1,52.6-16.4,79l4.4,2.7
			c0.7,0.7,2.1,1.4,3.1,2.1l0,0l0,0c6.8,3.8,20.2,9.2,43.4,12.6l0,0l0,0c13.7,2.1,30.4,3.4,51.6,3.4l0,0h0.7l0,0
			c79.3,0,100.1-19.5,101.2-20.2l2.4-1.7C550.4,387.2,542.2,359.2,533.7,337z"/>
	</g>
</g>
</svg>
