<?xml version="1.0" encoding="utf-8"?>
<!-- Generator: Adobe Illustrator 21.0.0, SVG Export Plug-In . SVG Version: 6.00 Build 0)  -->
<svg version="1.1" id="圖層_1" xmlns="http://www.w3.org/2000/svg" xmlns:xlink="http://www.w3.org/1999/xlink" x="0px" y="0px"
	 viewBox="0 0 822.9 601.4" style="enable-background:new 0 0 822.9 601.4;" xml:space="preserve">
<style type="text/css">
	.st0{fill:url(#SVGID_1_);}
	.st1{fill:#D59543;}
	.st2{fill:#AB6C21;}
	.st3{opacity:0.6;fill:#D59543;enable-background:new    ;}
	.st4{fill:url(#SVGID_2_);}
	.st5{fill:#ADD4F1;}
	.st6{fill:#779ED2;}
	.st7{fill:url(#SVGID_3_);}
	.st8{opacity:0.8;fill:#D59543;enable-background:new    ;}
	.st9{fill:url(#SVGID_4_);}
	.st10{fill:#2A6B7E;}
	.st11{fill:#1C5461;}
</style>
<g>
	<g>
		<path class="st5" d="M445.2,552.7c1.4,1.4,1.4,6.2,1.4,6.2s-0.7,10.6-6.5,14.7c-5.8,4.1-17.8,8.5-45.8,7.2
			c-28.4-1.4-34.9-7.2-34.9-7.2c-1.7-5.5-1-7.2-1-7.2s8.5-14,30.4-15C410,550.3,445.2,552.7,445.2,552.7z"/>
		<path class="st5" d="M407.2,579.3c-35.9,0-45.5-6.5-48.9-8.5c0.3,1,0.3,1.7,0.7,3.1c0,0,6.5,6.2,34.9,7.2
			c28.4,1,40.3-3.4,45.8-7.2c1.4-1,2.4-2.4,3.1-3.8C437.3,573.9,426.4,579.3,407.2,579.3z"/>
		<path class="st6" d="M406.2,581.7c-3.8,0-7.9,0-12.3-0.3c-28-1.7-34.9-7.5-35.2-7.9l0,0l0,0c-1.7-5.5-0.7-9.6-0.7-9.6l1,0.3
			c0,0-1,4.1,0.7,8.9c1,0.7,8.5,6.2,34.5,7.5c22.2,1.4,37.6-0.7,45.5-6.5c5.5-4.4,6.5-14.7,6.5-14.7c0-1.4,0-4.8-1-5.8l0.7-0.7
			c1.7,1.4,1.4,5.8,1.4,6.5c0,0.3-1,10.9-6.5,15C433.5,579,422.3,581.7,406.2,581.7z"/>
		<path class="st5" d="M451,552.7c-1.4,1.4-1.4,6.2-1.4,6.2s0.7,10.6,6.5,14.7c5.8,4.1,17.8,8.5,45.8,7.2
			c28.4-1.4,34.9-7.2,34.9-7.2c1.7-5.5,1-7.2,1-7.2s-8.5-14-30.4-15C486.2,550.3,451,552.7,451,552.7z"/>
		<path class="st5" d="M488.9,579.3c35.9,0,45.5-6.5,48.9-8.5c-0.3,1-0.3,1.7-0.7,3.1c0,0-6.5,6.2-34.9,7.2
			c-28.4,1-40.3-3.4-45.8-7.2c-1.4-1-2.4-2.4-3.1-3.8C458.8,573.9,469.8,579.3,488.9,579.3z"/>
		<path class="st6" d="M490,581.7c3.8,0,7.9,0,12.3-0.3c28-1.7,34.9-7.5,35.2-7.9l0,0l0,0c1.7-5.5,0.7-9.6,0.7-9.6l-1,0.3
			c0,0,1,4.1-0.7,8.9c-1,0.7-8.5,6.2-34.5,7.5c-22.2,1.4-37.6-0.7-45.5-6.5c-5.5-4.1-6.5-14.4-6.5-14.4c0-1.4,0-4.8,1-5.8l-0.7-0.7
			c-1.7,1.4-1.4,5.8-1.4,6.5c0,0.3,1,10.9,6.5,15C462.3,579,473.9,581.7,490,581.7z"/>
	</g>
	<g>
		
			<linearGradient id="SVGID_1_" gradientUnits="userSpaceOnUse" x1="350.3052" y1="112.3659" x2="546.1271" y2="112.3659" gradientTransform="matrix(1 0 0 -1 0 602)">
			<stop  offset="0" style="stop-color:#F2D397"/>
			<stop  offset="0.5331" style="stop-color:#F3D093"/>
			<stop  offset="0.7526" style="stop-color:#F5CC8F"/>
			<stop  offset="1" style="stop-color:#F3B699"/>
		</linearGradient>
		<path class="st0" d="M446.2,456.3L446.2,456.3c0.3,0,0.3,0,0.7,0C446.5,456.3,446.2,456.3,446.2,456.3l-0.3-3.8l-1-11.3
			l-40.3-23.9l-39.3-10.9l-12.3,5.1l-1.4,6.5l0.3,1.4c0.3,30.8,6.5,65.3,22.9,101.9v0.7c-7.2,5.1-17.1,13.7-17.8,27
			c-1.4,21.5,17.4,22.6,21.9,22.2h5.1c5.5,2.1,11.6,1.7,17.4,0l-0.3-0.3c3.8,1.7,7.5,2.4,12.6,2.1c0,0,19.1-0.3,25.3-8.2
			c6.2-7.9,6.5-15.7,7.2-39.7C447.6,500.4,446.2,456.3,446.2,456.3z"/>
		<path class="st8" d="M366.9,561.9c2.4-3.1,8.9-18.8,8.9-18.8c-5.8,12.3,0,19.8,0,19.8c3.8,3.4,11.6,0.7,11.6,0.7
			c-3.1-9.9,8.5-18.5,8.5-18.5c-7.9,11.6,0,19.5,0,19.5c34.5,6.5,48.5-15,48.5-15l0,0c-1,6.2-2.4,9.9-5.8,14
			c-6.2,7.9-25.3,8.2-25.3,8.2c-4.8,0.3-8.9-0.3-12.6-2.1l0.3,0.3c-5.8,2.1-12,2.1-17.4,0h-5.1c-3.8,0-14-0.3-19.5-8.5v-0.3
			c0,0,0,0,0-0.3C360,562.2,364.8,565,366.9,561.9z"/>
		<path class="st8" d="M424,453.2c5.8,2.4,17.1,3.1,21.9,3.1v0.3l0,0c0,0,0,0.7,0,2.1l0,0l0,0c0.3,8.9,1.4,45.1,0.3,66
			c-0.3,8.2-0.7,14.7-1,19.5C445.9,504.5,424,453.2,424,453.2z"/>
		<path class="st2" d="M446.9,456.3c0-0.3-0.3-0.7-0.7-0.7l0,0c-0.3,0-0.7,0.3-0.7,0.7l0,0l0,0h-2.7c0,0,3.4,47.2,3.1,73.8
			c-1,19.5-1.7,26.3-6.8,33.2c-5.8,7.5-24.3,7.9-24.6,8.2c-6.5,0.7-17.4-0.3-20.2-13c-2.4-9.9,7.2-18.5,7.2-18.5
			c0.3-0.3,0.3-0.7,0-1c-0.3-0.3-0.7-0.3-1,0c-0.3,0.3-4.8,4.1-6.8,9.6l0,0c0,0-7.2,12.6,5.5,21.5c-4.8,1-9.2,0.7-13.3-0.3
			c0-0.3-0.3-0.3-0.7-0.3l0,0h-0.3c-1-0.3-1.7-0.7-2.7-1c-4.1-2.1-6.5-5.5-7.5-9.2c-3.8-13.3,5.8-20.9,6.2-21.2c0.3-0.3,0.3-0.7,0-1
			c-0.3-0.3-0.7-0.3-1,0c0,0-3.8,3.1-5.8,8.2l0,0c0,0,0,0.3-0.3,1c0,0,0,0,0,0.3c-1.4,4.1-5.1,17.1,2.7,23.2
			c-3.8-0.3-9.2-1.4-13.3-5.8c-3.8-3.8-5.5-8.9-5.1-16.1c0.7-13.3,10.6-21.9,18.1-26.7l-0.7-1c-17.1-37.6-22.6-73.5-22.6-104.3
			l-0.3-2.7l-0.7-3.8l-1.7-1l-1,4.1c0,5.1,0.3,9.9,0.7,15c0,0,0.3,49.9,21.5,91.3c-5.5,4.4-24.6,21.5-11.6,42.7l0,0c0,0,0,0,0,0.3
			l0,0c0.7,1.4,1.7,2.4,2.4,3.4c5.5,5.5,13,6.2,16.4,6.2l0,0l0,0l0,0c0.3,0,0.7,0,1,0h5.1c2.7,1,5.5,1.4,8.2,1.4
			c3.1,0,6.5-0.3,9.2-1.4l0,0c2.7,1.4,5.8,1.7,8.9,1.7c1,0,1.7,0,2.7,0c0.7,0,19.5-0.7,25.6-8.5s6.5-15.4,7.2-37.6v-2.7
			C448.2,500.7,446.9,456.9,446.9,456.3z"/>
	</g>
	<g>
		
			<linearGradient id="SVGID_2_" gradientUnits="userSpaceOnUse" x1="350.5736" y1="113.2206" x2="545.8519" y2="113.2206" gradientTransform="matrix(1 0 0 -1 0 602)">
			<stop  offset="0" style="stop-color:#F2D397"/>
			<stop  offset="0.5331" style="stop-color:#F3D093"/>
			<stop  offset="0.7526" style="stop-color:#F5CC8F"/>
			<stop  offset="1" style="stop-color:#F3B699"/>
		</linearGradient>
		<path class="st4" d="M522.1,521.6L522.1,521.6c17.4-37.9,23.2-73.5,23.2-105c0,0-0.3,0.3-0.7,0.3l-1-5.8l-12.3-5.1L492,416.9
			l-40,23.9l-1,11.3l-0.3,7.5l0.3,0.3c-0.3,11.6-1,44.4,0,63.6c1.4,23.9,1.4,31.8,7.2,39.7s25.3,8.2,25.3,8.2
			c4.8,0.3,8.9-0.3,12.6-2.1l-0.3,0.3c5.8,2.1,12,2.1,17.4,0h5.1c5.1,0.3,23.2-1,21.9-22.2C539.2,535.2,529.3,526.3,522.1,521.6z"/>
		<path class="st8" d="M530.6,561.9c-2.4-3.1-8.9-18.8-8.9-18.8c5.8,12.3,0,19.8,0,19.8c-3.8,3.4-11.6,0.7-11.6,0.7
			c3.1-9.9-8.5-18.5-8.5-18.5c7.9,11.6,0,19.5,0,19.5c-34.5,6.5-48.5-15-48.5-15l0,0c1,6.2,2.4,9.9,5.8,14
			c6.2,7.9,25.3,8.2,25.3,8.2c4.8,0.3,8.9-0.3,12.6-2.1l-0.3,0.3c5.8,2.1,12,2.1,17.4,0h5.1c3.8,0,14-0.3,19.5-8.5v-0.3
			c0,0,0,0,0-0.3C536.8,562.2,532.7,565,530.6,561.9z"/>
		<path class="st8" d="M472.9,453.2c-5.8,2.4-17.1,3.1-21.9,3.1v0.3l0,0c0,0,0,0.7,0,2.1l0,0l0,0c-0.3,8.9-1.4,45.1-0.3,66
			c0.3,8.2,0.7,14.7,1,19.5C451.3,504.5,472.9,453.2,472.9,453.2z"/>
		<path class="st2" d="M548.1,414.2l-0.3-1l-0.7-0.3h-1l-1.7,0.3l-0.3,2.7v2.1c0,30.8-5.8,66-22.6,103.2l-0.7,1
			c7.2,4.8,17.4,13.3,18.1,26.7c0.3,6.8-1.4,12.3-5.1,16.1c-4.1,4.1-9.6,5.5-13.3,5.8c7.5-6.5,4.4-19.5,3.1-23.2
			c0-0.3-0.3-0.3-0.3-0.7l0,0v-1l0,0l0,0c-2.1-5.5-5.8-7.9-5.8-8.2c-0.3-0.3-0.7-0.3-1,0c-0.3,0.3-0.3,0.7,0,1s9.6,7.9,6.2,21.2
			c-1,4.1-3.8,7.2-7.5,9.2c-0.7,0.3-1.7,0.7-2.7,1h-0.3c-0.3,0-0.3,0-0.7,0.3c-4.1,1.4-8.5,1.4-13.3,0.3c12.6-9.2,5.5-21.5,5.5-21.5
			l0,0c-2.4-5.8-6.5-9.6-6.8-9.6c-0.3-0.3-0.7-0.3-1,0c-0.3,0.3-0.3,0.7,0,1c0,0,9.6,8.2,7.2,18.5c-3.1,12.6-14,13.7-20.2,13
			c-0.3,0-19.1-0.7-24.6-7.9c-5.5-6.8-6.2-14-6.8-33.2c-0.7-26.7,3.1-73.8,3.1-73.8H451c0-0.3-0.3-0.7-0.7-0.7l0,0
			c-0.3,0-0.7,0.3-0.7,0.7s-1.4,44.4-0.3,68v2.7c1,22.2,1.4,29.7,7.2,37.6c6.2,7.9,25,8.5,25.6,8.5c1,0,2.1,0,2.7,0
			c3.4,0,6.5-0.7,8.9-1.7l0,0c3.1,1,6.5,1.4,9.2,1.4c3.1,0,6.2-0.3,8.2-1.4h5.1c0.3,0,0.7,0,1,0c3.4,0,10.9-0.7,16.4-6.2
			c1-1,1.7-2.1,2.4-3.4l0,0l0,0l0,0c13-20.9-6.5-38.6-11.6-42.7c20.9-41.4,21.5-91.3,21.5-91.3C548.1,423.8,548.1,418.6,548.1,414.2
			z"/>
	</g>
	<g>
		<path class="st10" d="M443.8,543.1c-1.4-3.8-5.5-11.3-20.5-12.6c-13.7-1.4-23.9,8.9-23.9,8.9v0.3c-0.3-0.3-1-0.3-1.7-0.3
			c-0.3,0-0.7,0-0.7,0l0,0c0,0-14.7-15.7-32.1-10.9c0,0-2.4,0.7-2.4,1.4c-0.3,2.4,4.4,1.4,6.2,1c5.1-0.7,12.6-1.7,25.6,10.6l0,0
			c-0.3,1,0,2.1,0.7,3.1c1.4,2.7,1.7,2.1,1.7,2.1s2.7-3.1,4.4-4.1c0,0,0-0.7,0-1l0,0c13.7-10.9,25.3-9.2,32.5-5.1
			c9.9,5.8,10.3,24.6,10.3,24.6c1.4,3.1,1.4-3.8,1.7-4.4C445.9,550.3,443.8,543.1,443.8,543.1z"/>
		<path class="st11" d="M396.3,546.9C395.9,546.9,395.9,546.9,396.3,546.9c-0.7,0-1.4-1-2.1-2.4c-0.7-2.1-1-3.4-0.3-4.4
			c0.7-1,1.7-1.4,3.4-1.4c1.4,0,2.4,0.3,3.1,1c1,1,1,2.7,1,2.7v0.3h-0.3c-1.4,1-4.1,3.8-4.1,4.1
			C396.6,546.9,396.3,546.9,396.3,546.9z M396.3,545.8L396.3,545.8L396.3,545.8z M397.6,540C397.3,540,397.3,540,397.6,540
			c-1.7,0-2.4,0.3-2.7,1c-0.7,1,0,2.4,0.3,3.4c0.7,1.4,1,1.7,1,1.7c0.3-0.3,2.7-2.7,4.1-3.8c0-0.3,0-1-0.7-1.7
			C399,540.4,398.3,540,397.6,540z"/>
		<path class="st11" d="M393.5,541.7c-12.6-12-19.8-10.9-25-10.3h-0.3c-0.3,0-0.7,0-1,0c-1.7,0.3-4.1,0.7-5.5-0.3
			c-0.3-0.3-0.7-0.7-0.3-1.4c0-1.4,2.4-2.1,2.7-2.1c17.4-4.8,32.1,10.9,32.1,11.3l-0.7,0.7c0,0-14.7-15.4-31.5-10.9
			c-1,0.3-2.1,0.7-2.1,1s0,0.7,0.3,0.7c0.7,0.7,3.1,0.3,4.4,0c0.3,0,0.7,0,1,0h0.3c5.1-0.7,12.6-1.7,26,10.6L393.5,541.7z"/>
		<path class="st11" d="M444.5,562.2c-0.7,0-1-0.7-1-1v-0.3c0-0.3-0.7-19.1-9.9-24.3c-6.8-4.1-18.5-6.5-32.1,5.1l-0.7-0.7
			c15.4-12.3,27.4-8.2,33.2-5.1c9.6,5.5,10.6,23.2,10.6,25c0,0,0,0,0,0.3c0-0.3,0.3-1.4,0.3-3.8c0-0.3,0-0.7,0-0.7
			c0.7-6.5-1.4-13.7-1.7-13.7c-1-2.7-4.4-10.9-19.8-12.3c-13-1-23.6,8.9-23.6,8.9L399,539c0,0,10.9-10.3,24.3-9.2
			c16.4,1.4,19.5,9.9,20.9,13c0,0.3,2.4,7.2,1.7,14c0,0,0,0.3,0,0.7C445.5,561.2,445.2,562.2,444.5,562.2L444.5,562.2z"/>
	</g>
	<g>
		<path class="st10" d="M452.3,543.1c1.4-3.8,5.5-11.3,20.5-12.6c13.7-1.4,23.9,8.9,23.9,8.9v0.3c0.3-0.3,1-0.3,1.7-0.3
			c0.3,0,0.7,0,0.7,0l0,0c0,0,14.7-15.7,32.1-10.9c0,0,2.4,0.7,2.4,1.4c0.3,2.4-4.4,1.4-6.2,1c-5.1-0.7-12.6-1.7-25.6,10.6l0,0
			c0.3,1,0,2.1-0.7,3.1c-1.4,2.7-1.7,2.1-1.7,2.1s-2.7-3.1-4.4-4.1c0,0,0-0.7,0-1l0,0c-13.7-10.9-25.3-9.2-32.5-5.1
			c-9.9,5.8-10.3,24.6-10.3,24.6c-1.4,3.1-1.4-3.8-1.7-4.4C450,550.3,452.3,543.1,452.3,543.1z"/>
		<path class="st11" d="M499.2,546.9c-0.3-0.3-2.7-3.1-4.1-4.1h-0.3v-0.3c0,0,0-1.7,1-2.7c0.7-0.7,1.7-1,3.1-1
			c1.7,0,2.7,0.7,3.4,1.4c0.7,1,0.7,2.4-0.3,4.4c-0.7,1.7-1.4,2.4-2.1,2.4l0,0C499.5,546.9,499.5,546.9,499.2,546.9z M499.9,545.8
			L499.9,545.8L499.9,545.8z M496.4,540.7c-0.7,0.7-0.7,1.4-0.7,1.7c1.4,1,3.4,3.4,4.1,3.8c0,0,0.7-0.3,1-1.7c0.3-1,1-2.4,0.3-3.4
			c-0.3-0.7-1.4-1-2.7-1c0,0,0,0-0.3,0C497.5,540,496.8,540.4,496.4,540.7z"/>
		<path class="st11" d="M502.6,541.7c12.6-12,19.8-10.9,25-10.3h0.3c0.3,0,0.7,0,1,0c1.7,0.3,4.1,0.7,5.5-0.3
			c0.3-0.3,0.7-0.7,0.3-1.4c0-1.4-2.4-2.1-2.7-2.1c-17.4-4.8-32.1,10.9-32.1,11.3l0.7,0.7c0,0,14.7-15.4,31.5-10.9
			c1,0.3,2.1,0.7,2.1,1s0,0.7-0.3,0.7c-0.7,0.7-3.1,0.3-4.4,0c-0.3,0-0.7,0-1,0h-0.3c-5.1-0.7-12.6-1.7-26,10.6L502.6,541.7z"/>
		<path class="st11" d="M452,562.2c0.7,0,1-0.7,1-1v-0.3c0-0.3,0.7-19.1,9.9-24.3c6.8-4.1,18.5-6.5,32.1,5.1l0.7-0.7
			c-15.4-12.3-27.4-8.2-33.2-5.1c-9.6,5.5-10.6,23.2-10.6,25c0,0,0,0,0,0.3c0-0.3-0.3-1.4-0.3-3.8c0-0.3,0-0.7,0-0.7
			c-0.7-6.5,1.4-13.7,1.7-13.7c1-2.7,4.4-10.9,19.8-12.3c13-1,23.6,8.9,23.6,8.9l0.7-0.7c0,0-10.9-10.3-24.3-9.2
			c-16.4,1.4-19.5,9.9-20.9,13c0,0.3-2.4,7.2-1.7,14c0,0,0,0.3,0,0.7C450.6,561.2,451,562.2,452,562.2
			C451.7,562.2,451.7,562.2,452,562.2z"/>
	</g>
</g>
</svg>
