<?xml version="1.0" encoding="utf-8"?>
<!-- Generator: Adobe Illustrator 21.0.0, SVG Export Plug-In . SVG Version: 6.00 Build 0)  -->
<svg version="1.1" id="圖層_1" xmlns="http://www.w3.org/2000/svg" xmlns:xlink="http://www.w3.org/1999/xlink" x="0px" y="0px"
	 viewBox="0 0 822.9 601.4" style="enable-background:new 0 0 822.9 601.4;" xml:space="preserve">
<style type="text/css">
	.st0{fill:url(#SVGID_1_);}
	.st1{fill:#D59543;}
	.st2{fill:#AB6C21;}
	.st3{opacity:0.6;fill:#D59543;enable-background:new    ;}
	.st4{fill:url(#SVGID_2_);}
	.st5{fill:#FFFFFF;}
	.st6{fill:#E4E2DE;}
	.st7{fill:url(#SVGID_3_);}
	.st8{fill:#231815;}
	.st9{opacity:0.5;fill:#2F2A28;enable-background:new    ;}
	.st10{opacity:0.8;fill:#2F2A28;enable-background:new    ;}
	.st11{fill:#746765;}
	.st12{opacity:0.5;}
	.st13{fill:#2F2A28;}
	.st14{fill:#C3B6A7;}
	.st15{fill:url(#SVGID_4_);}
</style>
<g>
	<g>
		<path class="st5" d="M362.9,499.9c0,0,52.8,3.4,83.5,0l-0.3,24c0,0-19.6,16.6-47,16.9c-27.4,0.3-34.5-10.1-34.5-10.1l6.8-11.8
			C371.3,519.2,364.6,504.6,362.9,499.9z"/>
		<path class="st6" d="M446.4,499.9c-2.4,0.3-5.1,0.3-7.8,0.7c1,5.1,2.4,17.9-4.1,25l-24.7-3.7c0,0-6.1,6.4-10.5,7.8
			C391.6,532,369,529,369,529s-2.4,0.7-4.7,1.7l-0.3,0.3c0,0,4.7,6.4,20.3,9.1c0.3,0,1,0,1.4,0.3c3.7,0.3,7.8,0.7,12.9,0.7
			c27.4-0.3,47-16.9,47-16.9L446.4,499.9z"/>
		
			<linearGradient id="SVGID_1_" gradientUnits="userSpaceOnUse" x1="353.2024" y1="58.8947" x2="445.567" y2="58.8947" gradientTransform="matrix(1 0 0 -1 0 602)">
			<stop  offset="0" style="stop-color:#2F2A28"/>
			<stop  offset="1" style="stop-color:#110706"/>
		</linearGradient>
		<path class="st0" d="M353.7,542.2c1.4-6.1,7.8-13.5,12.5-18.3c0,0.3,0,0.7,0.3,0.7c1,1,3,0.7,4.1,0.3l-0.7,1.7
			c-0.7,1.4-0.7,2.7-0.3,3.7c0.7,1.4,2,1.7,2,1.7l0,0c0.7,0,19.6,2,27.7,2c0.3,0,0.7,0,1,0c7.4-0.3,9.8-2,10.1-2l4.4-3.4
			c0.3,0,0.3-0.3,0.3-0.7c0-0.3,0-0.3-0.3-0.7c-0.3,0-21.3-12.5-43.6-4.4l0,0c-0.3,0-0.3,0.3-0.7,0.3c-1.4,0.7-3,0.7-3,0.7
			s-0.3-0.7,1.4-2.7c1-1,1.7-1.7,2-2c28.1-10.8,51.4,4.7,51.4,4.7h0.3c3.7,0,18.3-2,22-2.7c1,9.1,0,31.1,0,33.1
			c-2.4,5.8-10.8,10.8-10.8,10.8c-27.7,12.5-72.7,0.7-77.1-0.3C356.1,562.8,351.7,551,353.7,542.2z"/>
		<path class="st8" d="M445.7,563.1c-2,3.7-9.8,12.5-38.2,13.9c-25.4,1.4-47.4-4.7-50.4-5.4c-0.7-2.4-0.3-4.1,0-4.7
			c3.7,1,23.7,6.1,45,6.1c11.5,0,23-1.4,32.8-6.1c0.3-0.3,8.5-5.1,11.2-10.8C446.1,558.4,445.7,561.4,445.7,563.1z"/>
		<path class="st9" d="M445.1,521.5c-1.7,6.8-9.5,31.5-25.7,48.4c5.4-1,10.1-2.4,14.9-4.4c0,0,8.5-5.1,10.8-10.8
			C445.1,552.7,446.1,530.7,445.1,521.5L445.1,521.5z"/>
		<path class="st10" d="M415.6,528c0,0.3,0,0.3-0.3,0.7L415,529c4.1,0.3,6.1-0.3,6.1-0.3c-3.4-0.3-9.1-2.7-9.1-2.7l0,0
			c2,1,3,1.7,3,1.7C415.6,527.6,415.6,527.6,415.6,528z"/>
		<path class="st10" d="M370,527.3c0-0.3,0-0.3,0.3-0.7l0.7-1.7c-1.4,0.3-3.4,1-4.1-0.3c-0.3-0.3-0.3-0.7-0.3-0.7
			c-0.3,0.7-1,1-1.7,1.7C365.2,526.3,366.6,527.3,370,527.3z"/>
		<path class="st10" d="M369,523.9c0.7,0,1.4-0.3,2-0.7c0.3,0,0.3-0.3,0.7-0.3l0,0c22.3-8.1,43.3,4.4,43.6,4.4l0,0
			c5.8,0,1.4,0,1.4,0c-6.4-4.7-17.3-7.8-29.1-7.8c-11.2,0-20,4.4-20,4.4H369z"/>
		<path class="st11" d="M362.5,528c-3.7,4.4-7.8,9.8-8.8,14.2c-1.7,6.4,0.7,14.9,2.4,19.6l10.8,4.1C355.8,556.4,362.5,528,362.5,528
			z"/>
		<g class="st12">
			<path class="st13" d="M353.4,551.6c0.7,6.1,3,11.8,3.7,13.2c1.7,0.3,8.8,2.4,18.6,4.1l0,0C356.1,564.5,353.7,553.3,353.4,551.6z"
				/>
		</g>
		<path class="st11" d="M358.8,548.3c0,0-2.4-5.1,2.7-4.4c5.1,0.7,4.4,1,4.1,3c-0.3,2-2,4.7-3,4.4
			C361.2,551,358.8,548.3,358.8,548.3z"/>
		<path class="st11" d="M367.3,546.9c0,0,7.1,3.4,34.2,3.7c0,0-18.9,3.4-34.8,0L367.3,546.9z"/>
		<path class="st11" d="M419.4,528c0,0,4.4,0.7,5.4-2.7L419.4,528z"/>
		<path class="st11" d="M412.2,531L412.2,531l-1,1c0,0-2.7,2-10.1,2c-0.3,0-0.7,0-1,0c-8.1,0-27.1-2-27.7-2l0,0c0,0-1.4-0.3-2-1.7
			c0-0.3-0.3-0.7-0.3-0.7s-2.7,3,4.7,3.7c7.8,1,23.7,1.7,23.7,1.7S408.9,535.7,412.2,531z"/>
		<path class="st14" d="M446.7,499.2c0,0-0.3-0.3-0.7-0.3c-30.1,3.4-82.9,0-83.2,0c-0.3,0-0.3,0-0.7,0.3c0,0.3-0.3,0.3,0,0.7
			c1.4,4.1,6.4,15.2,8.1,18.6c0,0,0,0.3,0.3,0.3l0,0l0,0c0.3,0,0.3,0.3,0.7,0c0.3,0,0.3-0.3,0.3-0.7c0.3,0,0.7-0.3,1-0.3l-5.1-16.9
			c13.2,0.7,51.4,2.4,76.4,0l0,0l-1,21l2.4-1c0,0.3,0.3,0.3,0.7,0.3l0,0c0.3,0,0.7-0.3,0.7-0.7l0.3-20.6
			C447.1,499.6,447.1,499.6,446.7,499.2z"/>
		<path class="st8" d="M402.1,572.6c-23.3,0-45.3-6.4-45.7-6.4c-0.3,0-0.3-0.3-0.3-0.3c-0.3-0.7-6.1-13.9-3.7-24
			c2.4-9.8,17.3-23.3,17.9-24c0,0,0,0,0.3,0c27.4-10.8,50.4,3.4,52.8,4.7c4.4,0,22-2.7,22.3-2.7c0.3,0,0.7,0.3,0.7,0.7
			c1.4,9.1,0,33.1,0,34.2c0,0,0,0,0,0.3c-2.4,6.1-11.2,11.5-11.5,11.8C425.1,571.3,413.3,572.6,402.1,572.6z M357.1,564.8
			c4.4,1.4,49,13.2,77.1,0.3c0,0,8.5-5.1,10.8-10.8c0-1.7,1.4-24,0-33.1c-3.4,0.7-17.9,2.7-22,2.7h-0.3c-0.3,0-23.3-15.9-51.4-4.7
			c-1.4,1-15.2,13.9-17.6,23C351.7,551,356.4,562.8,357.1,564.8z"/>
		<path class="st8" d="M399.7,534.4c-8.1,0-27.1-2-27.7-2l0,0c0,0-1.4-0.3-2-1.7c-0.3-1-0.3-2.4,0.3-3.7l0.7-1.7
			c-1.4,0.3-3.4,1-4.1-0.3c-0.7-1-0.3-2.4,1.4-4.7c0.3-0.3,0.7-0.3,1,0c0.3,0.3,0.3,0.7,0,1c-1.7,2.4-1.4,2.7-1.4,2.7
			c0.3,0.3,1.7,0,3-0.7c0.3,0,0.3-0.3,0.7-0.3l0,0c22.3-8.1,43.3,4.4,43.6,4.4c0.3,0,0.3,0.3,0.3,0.7s0,0.3-0.3,0.7l-4.4,3.4
			c0,0-2.7,2-10.1,2C400.7,534.4,400.1,534.4,399.7,534.4z M372.3,530.7c1.7,0,21.6,2,28.8,2c6.8-0.3,9.1-1.7,9.1-1.7l3.4-2.7
			c-4.4-2.4-22.3-10.5-40.9-3.7l-1,3c-0.3,1-0.7,2-0.3,2.4C371.3,530.3,372,530.7,372.3,530.7z"/>
		<path class="st8" d="M400.7,578.4c-24.4,0-44-5.8-44.3-5.8c-0.3,0-0.3-0.3-0.3-0.3c-1.4-4.1,0-6.8,0-7.1c0.3-0.3,0.7-0.7,1-0.3
			c0.3,0.3,0.7,0.7,0.3,1c0,0-1,2,0,5.4c3,1,25,6.8,50.4,5.4c28.1-1.4,35.9-9.8,38.2-13.9c0.3-2.4,0.7-8.5,0-10.8c0-0.3,0-0.7,0.3-1
			c0.3,0,0.7,0,1,0.3c1,3,0,11.2,0,11.5v0.3c-2,4.1-10.1,13.2-39.2,14.5C405.1,578.4,402.8,578.4,400.7,578.4z"/>
	</g>
	<g>
		<path class="st5" d="M532,499.9c0,0-52.8,3.4-83.5,0l0.3,24c0,0,19.6,16.6,47,16.9c27.4,0.3,34.5-10.1,34.5-10.1l-6.8-11.8
			C523.9,519.2,530.3,504.6,532,499.9z"/>
		<path class="st6" d="M448.4,499.9c2.4,0.3,5.1,0.3,7.8,0.7c-1,5.1-2.4,17.9,4.1,25l24.7-3.7c0,0,6.1,6.4,10.5,7.8
			c7.8,2.4,30.4-0.7,30.4-0.7s2.4,0.7,4.7,1.7l0.3,0.3c0,0-4.7,6.4-20.3,9.1c-0.3,0-1,0-1.4,0.3c-3.7,0.3-7.8,0.7-12.9,0.7
			c-27.4-0.3-47-16.9-47-16.9L448.4,499.9z"/>
		
			<linearGradient id="SVGID_2_" gradientUnits="userSpaceOnUse" x1="4503.7275" y1="58.8947" x2="4596.0928" y2="58.8947" gradientTransform="matrix(-1 0 0 -1 5045.376 602)">
			<stop  offset="0" style="stop-color:#2F2A28"/>
			<stop  offset="1" style="stop-color:#110706"/>
		</linearGradient>
		<path class="st4" d="M541.1,542.2c-1.4-6.1-7.8-13.5-12.5-18.3c0,0.3,0,0.7-0.3,0.7c-1,1-3,0.7-4.1,0.3l0.7,1.7
			c0.7,1.4,0.7,2.7,0.3,3.7c-0.7,1.4-2,1.7-2,1.7l0,0c-0.7,0-19.6,2-27.7,2c-0.3,0-0.7,0-1,0c-7.4-0.3-9.8-2-10.1-2l-4.4-3.4
			c-0.3,0-0.3-0.3-0.3-0.7c0-0.3,0-0.3,0.3-0.7c0.3,0,21.3-12.5,43.6-4.4l0,0c0.3,0,0.3,0.3,0.7,0.3c1.4,0.7,3,0.7,3,0.7
			s0.3-0.7-1.4-2.7c-1-1-1.7-1.7-2-2c-28.1-10.8-51.4,4.7-51.4,4.7h-0.3c-3.7,0-18.3-2-22-2.7c-1,9.1,0,31.1,0,33.1
			c2.4,5.8,10.8,10.8,10.8,10.8c27.7,12.5,72.7,0.7,77.1-0.3C538.8,562.8,543.1,551,541.1,542.2z"/>
		<path class="st8" d="M449.5,563.1c2,3.7,9.8,12.5,38.2,13.9c25.4,1.4,47.4-4.7,50.4-5.4c0.7-2.4,0.3-4.1,0-4.7
			c-3.7,1-23.7,6.1-45,6.1c-11.5,0-23-1.4-32.8-6.1c-0.3-0.3-8.5-5.1-11.2-10.8C448.8,558.4,449.1,561.4,449.5,563.1z"/>
		<path class="st9" d="M450.1,521.5c1.7,6.8,9.5,31.5,25.7,48.4c-5.4-1-10.1-2.4-14.9-4.4c0,0-8.5-5.1-10.8-10.8
			C449.8,552.7,448.8,530.7,450.1,521.5C449.8,521.5,449.8,521.5,450.1,521.5z"/>
		<path class="st10" d="M479.2,528c0,0.3,0,0.3,0.3,0.7l0.3,0.3c-4.1,0.3-6.1-0.3-6.1-0.3c3.4-0.3,9.1-2.7,9.1-2.7l0,0
			c-2,1-3,1.7-3,1.7C479.6,527.6,479.2,527.6,479.2,528z"/>
		<path class="st10" d="M524.9,527.3c0-0.3,0-0.3-0.3-0.7l-0.7-1.7c1.4,0.3,3.4,1,4.1-0.3c0.3-0.3,0.3-0.7,0.3-0.7
			c0.3,0.7,1,1,1.7,1.7C529.6,526.3,528.3,527.3,524.9,527.3z"/>
		<path class="st10" d="M525.9,523.9c-0.7,0-1.4-0.3-2-0.7c-0.3,0-0.3-0.3-0.7-0.3l0,0c-22.3-8.1-43.3,4.4-43.6,4.4l0,0
			c-5.8,0-1.4,0-1.4,0c6.4-4.7,17.3-7.8,29.1-7.8c11.2,0,20,4.4,20,4.4H525.9z"/>
		<path class="st11" d="M532.7,528c3.7,4.4,7.8,9.8,8.8,14.2c1.7,6.4-0.7,14.9-2.4,19.6l-10.8,4.1C539.1,556.4,532.7,528,532.7,528z
			"/>
		<g class="st12">
			<path class="st13" d="M541.5,551.6c-0.7,6.1-3,11.8-3.7,13.2c-1.7,0.3-8.8,2.4-18.6,4.1l0,0C538.8,564.5,541.1,553.3,541.5,551.6
				z"/>
		</g>
		<path class="st11" d="M536,548.3c0,0,2.4-5.1-2.7-4.4c-5.1,0.7-4.4,1-4.1,3s2,4.7,3,4.4C533.7,551,536,548.3,536,548.3z"/>
		<path class="st11" d="M527.6,546.9c0,0-7.1,3.4-34.2,3.7c0,0,18.9,3.4,34.8,0L527.6,546.9z"/>
		<path class="st11" d="M475.8,528c0,0-4.4,0.7-5.4-2.7L475.8,528z"/>
		<path class="st11" d="M482.6,531L482.6,531l1,1c0,0,2.7,2,10.1,2c0.3,0,0.7,0,1,0c8.1,0,27.1-2,27.7-2l0,0c0,0,1.4-0.3,2-1.7
			c0-0.3,0.3-0.7,0.3-0.7s2.7,3-4.7,3.7c-7.8,1-23.7,1.7-23.7,1.7S486.3,535.7,482.6,531z"/>
		<path class="st14" d="M448.1,499.2c0,0,0.3-0.3,0.7-0.3c30.1,3.4,82.9,0,83.2,0c0.3,0,0.3,0,0.7,0.3c0,0.3,0.3,0.3,0,0.7
			c-1.4,4.1-6.4,15.2-8.1,18.6c0,0,0,0.3-0.3,0.3l0,0l0,0c-0.3,0-0.3,0.3-0.7,0c-0.3,0-0.3-0.3-0.3-0.7c-0.3,0-0.7-0.3-1-0.3
			l5.1-16.9c-13.2,0.7-51.4,2.4-76.4,0l0,0l1,21l-2.4-1c0,0.3-0.3,0.3-0.7,0.3l0,0c-0.3,0-0.7-0.3-0.7-0.7l-0.3-20.6
			C447.8,499.6,448.1,499.6,448.1,499.2z"/>
		<path class="st8" d="M459.9,566.5c-0.3-0.3-9.1-5.4-11.5-11.8c0,0,0,0,0-0.3c0-1-1.4-25.4,0-34.2c0-0.3,0.3-0.7,0.7-0.7
			c0.3,0,17.6,2.7,22.3,2.7c2.4-1.7,25.4-15.6,52.8-4.7c0,0,0,0,0.3,0c0.7,0.7,15.6,13.9,17.9,24s-3.4,23.3-3.7,24
			c0,0.3-0.3,0.3-0.3,0.3c-0.3,0-22.3,6.4-45.7,6.4C481.6,572.6,469.7,571.3,459.9,566.5z M541.1,542.2c-2-9.1-16.2-22-17.6-23
			c-28.1-10.8-51.4,4.7-51.4,4.7h-0.3c-3.7,0-18.3-2-22-2.7c-1,9.1,0,31.1,0,33.1c2.4,5.8,10.8,10.8,10.8,10.8
			c27.7,12.5,72.7,0.7,77.1-0.3C538.8,562.8,543.1,551,541.1,542.2z"/>
		<path class="st8" d="M494.1,534.4c-7.4-0.3-9.8-2-10.1-2l-4.4-3.4c-0.3,0-0.3-0.3-0.3-0.7s0-0.3,0.3-0.7c0.3,0,21.3-12.5,43.6-4.4
			l0,0c0.3,0,0.3,0.3,0.7,0.3c1.4,0.7,3,0.7,3,0.7s0.3-0.7-1.4-2.7c-0.3-0.3,0-0.7,0-1c0.3-0.3,0.7,0,1,0c1.7,2.4,2,3.7,1.4,4.7
			c-1,1-3,0.7-4.1,0.3l0.7,1.7c0.7,1.4,0.7,2.7,0.3,3.7c-0.7,1.4-2,1.7-2,1.7l0,0c-0.7,0-19.6,2-27.7,2
			C494.8,534.4,494.4,534.4,494.1,534.4z M523.9,529.7c0.3-0.7,0-1.4-0.3-2.4l-1-3c-18.9-6.8-36.9,1.7-40.9,3.7l3.4,2.7
			c0,0,2.4,1.7,9.1,1.7c6.8,0.3,27.1-1.7,28.8-2C522.9,530.7,523.5,530.3,523.9,529.7z"/>
		<path class="st8" d="M494.4,578.4c24.4,0,44-5.8,44.3-5.8c0.3,0,0.3-0.3,0.3-0.3c1.4-4.1,0-6.8,0-7.1c-0.3-0.3-0.7-0.7-1-0.3
			s-0.7,0.7-0.3,1c0,0,1,2,0,5.4c-3,1-25,6.8-50.4,5.4c-28.1-1.4-35.9-9.8-38.2-13.9c-0.3-2.4-0.7-8.5,0-10.8c0-0.3,0-0.7-0.3-1
			c-0.3,0-0.7,0-1,0.3c-1,3,0,11.2,0,11.5v0.3c2,4.1,10.1,13.2,39.2,14.5C489.7,578.4,492.1,578.4,494.4,578.4z"/>
	</g>
</g>
</svg>
