<?xml version="1.0" encoding="utf-8"?>
<!-- Generator: Adobe Illustrator 21.0.0, SVG Export Plug-In . SVG Version: 6.00 Build 0)  -->
<svg version="1.1" id="圖層_1" xmlns="http://www.w3.org/2000/svg" xmlns:xlink="http://www.w3.org/1999/xlink" x="0px" y="0px"
	 viewBox="0 0 446.4 265.8" style="enable-background:new 0 0 446.4 265.8;" xml:space="preserve">
<style type="text/css">
	.st0{opacity:0.65;fill:#20658F;}
	.st1{opacity:0.36;fill:url(#SVGID_1_);}
	.st2{opacity:0.86;fill:#51C6E1;}
	.st3{opacity:0.95;fill:#5CCAED;}
	.st4{fill:none;stroke:#BBE5F5;stroke-width:3;}
	.st5{opacity:0.15;}
	.st6{fill:none;}
	.st7{fill:none;stroke:#96D9F3;stroke-width:0.5;}
	.st8{fill:url(#SVGID_3_);stroke:#61B5D7;}
	.st9{fill:#FFFFFF;}
	.st10{font-family:'MicrosoftJhengHeiBold';}
	.st11{font-size:21px;}
</style>
<g id="換頭獅子">
	<g>
		<path class="st0" d="M446.3,250.6c0,6.6-5.4,12-12,12H13.5c-6.6,0-12-5.4-12-12V33.1c0-6.6,5.4-12,12-12h420.8c6.6,0,12,5.4,12,12
			V250.6z"/>
		<radialGradient id="SVGID_1_" cx="233.1441" cy="372.1342" r="428.8309" gradientUnits="userSpaceOnUse">
			<stop  offset="0" style="stop-color:#00ADEE"/>
			<stop  offset="1" style="stop-color:#00ADEE;stop-opacity:0"/>
		</radialGradient>
		<path class="st1" d="M446.3,250.6c0,6.6-5.4,12-12,12H13.5c-6.6,0-12-5.4-12-12V33.1c0-6.6,5.4-12,12-12h420.8c6.6,0,12,5.4,12,12
			V250.6z"/>
		<rect x="24" y="19.4" class="st2" width="398.4" height="4.6"/>
		<rect x="24" y="261.2" class="st2" width="400.4" height="4.6"/>
		<path class="st3" d="M24,265.8H12.2c-6.6,0-12-5.4-12-12V44.9l2.7-2.3c0-6.6,0.4-16,9.3-16h12.2v-5.6H12.2c-6.6,0-12,5.4-12,12
			v6.2v208.9c0,6.6,5.4,12,12,12H24V265.8z"/>
		<path class="st4" d="M24,259.6H13.5c-6.6,0-12-5.4-12-12V39.4v-6.2c0-6.6,5.4-12,12-12h10.9"/>
		<path class="st3" d="M422.4,265.8h11.9c6.6,0,12-5.4,12-12V44.9l-2.7-2.3c0-6.6-0.4-16-9.3-16h-12.2v-5.6h12.2c6.6,0,12,5.4,12,12
			v6.2v208.9c0,6.6-5.4,12-12,12h-11.9V265.8z"/>
		<path class="st4" d="M422.4,259.6h10.5c6.6,0,12-5.4,12-12V39.4v-6.2c0-6.6-5.4-12-12-12h-10.9"/>
		<g>
			
				<image style="overflow:visible;" width="519" height="315" xlink:href="C6A8E85B.png"  transform="matrix(1 0 0 1 -36.0303 -17.3228)">
			</image>
		</g>
		<g>
			
				<image style="overflow:visible;" width="519" height="315" xlink:href="C6A8E859.png"  transform="matrix(1 0 0 1 -36.0303 -17.3228)">
			</image>
		</g>
		<g class="st5">
			<path id="SVGID_x5F_2_x5F_" class="st6" d="M1.5,19.4h443.4"/>
			<text>			<textPath  xlink:href="#SVGID_x5F_2_x5F_" startOffset="48.0103%">
			</textPath>
</text>
			<line class="st7" x1="1.5" y1="24.1" x2="444.9" y2="24.1"/>
			<line class="st7" x1="1.5" y1="28.5" x2="444.9" y2="28.5"/>
			<line class="st7" x1="1.5" y1="33.2" x2="444.9" y2="33.2"/>
			<line class="st7" x1="1.5" y1="37.9" x2="444.9" y2="37.9"/>
			<line class="st7" x1="1.5" y1="42.6" x2="444.9" y2="42.6"/>
			<line class="st7" x1="1.5" y1="47" x2="444.9" y2="47"/>
			<line class="st7" x1="1.5" y1="51.7" x2="444.9" y2="51.7"/>
			<line class="st7" x1="1.5" y1="56.5" x2="444.9" y2="56.5"/>
			<line class="st7" x1="1.5" y1="65.5" x2="444.9" y2="65.5"/>
			<line class="st7" x1="1.5" y1="60.7" x2="444.9" y2="60.7"/>
			<line class="st7" x1="1.5" y1="70.2" x2="444.9" y2="70.2"/>
			<line class="st7" x1="1.5" y1="75" x2="444.9" y2="75"/>
			<line class="st7" x1="1.5" y1="79.7" x2="444.9" y2="79.7"/>
			<line class="st7" x1="1.5" y1="84.1" x2="444.9" y2="84.1"/>
			<line class="st7" x1="1.5" y1="88.8" x2="444.9" y2="88.8"/>
			<line class="st7" x1="1.5" y1="93.7" x2="444.9" y2="93.7"/>
			<line class="st7" x1="1.5" y1="98.4" x2="444.9" y2="98.4"/>
			<line class="st7" x1="1.5" y1="102.7" x2="444.9" y2="102.7"/>
			<line class="st7" x1="1.5" y1="107.4" x2="444.9" y2="107.4"/>
			<line class="st7" x1="1.5" y1="112.2" x2="444.9" y2="112.2"/>
			<line class="st7" x1="1.5" y1="116.9" x2="444.9" y2="116.9"/>
			<line class="st7" x1="1.5" y1="121.3" x2="444.9" y2="121.3"/>
			<line class="st7" x1="1.5" y1="126" x2="444.9" y2="126"/>
			<line class="st7" x1="1.5" y1="130.7" x2="444.9" y2="130.7"/>
			<line class="st7" x1="1.5" y1="135.4" x2="444.9" y2="135.4"/>
			<line class="st7" x1="1.5" y1="139.8" x2="444.9" y2="139.8"/>
			<line class="st7" x1="1.5" y1="144.5" x2="444.9" y2="144.5"/>
			<line class="st7" x1="1.5" y1="149.3" x2="444.9" y2="149.3"/>
			<line class="st7" x1="1.5" y1="154" x2="444.9" y2="154"/>
			<line class="st7" x1="1.5" y1="158.3" x2="444.9" y2="158.3"/>
			<line class="st7" x1="1.5" y1="163.1" x2="444.9" y2="163.1"/>
			<line class="st7" x1="1.5" y1="167.2" x2="444.9" y2="167.2"/>
			<line class="st7" x1="1.5" y1="171.6" x2="444.9" y2="171.6"/>
			<line class="st7" x1="1.5" y1="176.3" x2="444.9" y2="176.3"/>
			<line class="st7" x1="1.5" y1="181.1" x2="444.9" y2="181.1"/>
			<line class="st7" x1="1.5" y1="185.8" x2="444.9" y2="185.8"/>
			<line class="st7" x1="1.5" y1="190.2" x2="444.9" y2="190.2"/>
			<line class="st7" x1="1.5" y1="194.9" x2="444.9" y2="194.9"/>
			<line class="st7" x1="1.5" y1="199.6" x2="444.9" y2="199.6"/>
			<line class="st7" x1="1.5" y1="203.8" x2="444.9" y2="203.8"/>
			<line class="st7" x1="1.5" y1="208.5" x2="444.9" y2="208.5"/>
			<line class="st7" x1="1.5" y1="212.9" x2="444.9" y2="212.9"/>
			<line class="st7" x1="1.5" y1="217.6" x2="444.9" y2="217.6"/>
			<line class="st7" x1="1.5" y1="222.3" x2="444.9" y2="222.3"/>
			<line class="st7" x1="1.5" y1="227" x2="444.9" y2="227"/>
			<line class="st7" x1="1.5" y1="231.4" x2="444.9" y2="231.4"/>
			<line class="st7" x1="1.5" y1="236.1" x2="444.9" y2="236.1"/>
			<line class="st7" x1="1.5" y1="240.3" x2="444.9" y2="240.3"/>
			<line class="st7" x1="1.5" y1="244.7" x2="444.9" y2="244.7"/>
			<line class="st7" x1="1.5" y1="249.4" x2="444.9" y2="249.4"/>
			<line class="st7" x1="1.5" y1="254.1" x2="444.9" y2="254.1"/>
			<line class="st7" x1="1.5" y1="258.8" x2="444.9" y2="258.8"/>
			<line class="st7" x1="1.5" y1="263.2" x2="444.9" y2="263.2"/>
		</g>
	</g>
	<radialGradient id="SVGID_3_" cx="263.5254" cy="57.3062" r="134.1495" gradientUnits="userSpaceOnUse">
		<stop  offset="0" style="stop-color:#11588E"/>
		<stop  offset="1" style="stop-color:#009AD4"/>
	</radialGradient>
	<path class="st8" d="M293.1,36.8H152.8c-2,0-3.6-1.6-3.6-3.6V4.1c0-2,1.6-3.6,3.6-3.6h140.3c2,0,3.6,1.6,3.6,3.6v29.1
		C296.8,35.2,295.1,36.8,293.1,36.8z"/>
	<rect x="93.9" y="8.3" class="st6" width="253.5" height="25.6"/>
	<text transform="matrix(1 0 0 1 178.5957 26.9828)" class="st9 st10 st11">臉譜上色</text>
</g>
</svg>
