<?xml version="1.0" encoding="utf-8"?>
<!-- Generator: Adobe Illustrator 21.0.0, SVG Export Plug-In . SVG Version: 6.00 Build 0)  -->
<svg version="1.1" id="圖層_1" xmlns="http://www.w3.org/2000/svg" xmlns:xlink="http://www.w3.org/1999/xlink" x="0px" y="0px"
	 viewBox="0 0 127.3 39.2" style="enable-background:new 0 0 127.3 39.2;" xml:space="preserve">
<style type="text/css">
	.st0{opacity:0.7;fill:#6EB644;}
	.st1{fill:none;stroke:#FFFFFF;stroke-miterlimit:10;}
	.st2{fill:none;}
	.st3{fill:#FFFFFF;}
	.st4{font-family:'MicrosoftJhengHeiBold';}
	.st5{font-size:18px;}
</style>
<g id="FAQ">
	<path class="st0" d="M107.7,38.7H19.6C9,38.7,0.5,30.1,0.5,19.6v0C0.5,9,9,0.5,19.6,0.5h88.1c10.5,0,19.1,8.5,19.1,19.1v0
		C126.8,30.1,118.2,38.7,107.7,38.7z"/>
	<path class="st1" d="M107.7,38.7H19.6C9,38.7,0.5,30.1,0.5,19.6v0C0.5,9,9,0.5,19.6,0.5h88.1c10.5,0,19.1,8.5,19.1,19.1v0
		C126.8,30.1,118.2,38.7,107.7,38.7z"/>
	<rect x="43.2" y="10" class="st2" width="76.5" height="19.5"/>
	<text transform="matrix(1 0 0 1 62.7597 26.0589)" class="st3 st4 st5">FAQ</text>
	<g>
		<path class="st3" d="M40.9,6.7c2.5,0,4.9,0,7.4,0.1c1,0,1.9,0.3,2.6,1.2c0.5,0.6,0.6,1.4,0.6,2.1c0,2.9,0,5.7-0.1,8.6
			c0,1.5-0.7,2.5-2.1,3.1c-0.2,0.1-0.3,0.2-0.3,0.4c0,0.8,0,1.6,0,2.3c0,0.4-0.2,0.8-0.6,1c-0.4,0.2-0.8,0.2-1.2-0.1
			c-0.1-0.1-0.2-0.1-0.2-0.2c-0.9-0.9-1.8-1.8-2.7-2.7c-0.4-0.4-0.9-0.6-1.4-0.6c-3,0-6.1,0-9.1-0.1c-0.6,0-1.1-0.1-1.7-0.3
			c-1-0.5-1.5-1.3-1.7-2.4c-0.1-0.6-0.1-1.2,0-1.8c0-2.5,0-5.1,0.1-7.6c0-1.9,1.3-3.1,3.2-3.1C36,6.6,38.5,6.7,40.9,6.7z M40.6,16.4
			c0.3,0,0.5,0,0.8-0.1c0.1,0,0.2-0.1,0.2-0.1c0.2-0.8,0.8-1.3,1.4-1.8c1.7-1.2,1.2-3.5,0.1-4.3c-0.5-0.4-1.1-0.6-1.8-0.7
			c-1-0.1-2,0-2.8,0.7c-0.5,0.4-0.8,0.9-0.8,1.6c0,0.2,0.1,0.3,0.3,0.4c0.6,0.2,1.6-0.1,2-0.6c0.3-0.4,0.7-0.5,1.1-0.4
			c0.4,0.1,0.7,0.3,0.7,0.8c0.1,0.5,0,0.9-0.3,1.3c-0.3,0.3-0.6,0.6-0.9,0.8c-0.7,0.5-1.1,1.2-1.1,2.1c0,0.1,0,0.2,0.2,0.2
			C40,16.4,40.3,16.4,40.6,16.4z M40.5,17.2c-0.2,0-0.4,0-0.7,0.1c-0.2,0-0.4,0.2-0.4,0.4c0,0.3,0,0.5,0,0.8c0,0.2,0.2,0.4,0.4,0.4
			c0.4,0,0.8,0.1,1.1,0c0.4,0,0.6-0.2,0.6-0.6c0-0.2,0-0.4,0-0.6c0-0.3-0.1-0.4-0.5-0.5C41,17.2,40.7,17.2,40.5,17.2z"/>
		<path class="st3" d="M28.3,13.2c0,0.7,0,1.4,0,2c-0.1,0-0.2,0-0.3,0c-0.5,0-0.9,0-1.4,0c-0.7,0-1,0.3-1,1c0,0.4,0,0.8,0,1.2
			c0,2.5,0,5-0.1,7.5c0,0,0,0.1,0,0.1c0,0.7,0.3,1,1,1c0.2,0,0.4,0,0.7,0c0.2,0,0.4,0,0.7,0c0,0.8,0,1.5,0,2.4
			c0.2-0.2,0.3-0.3,0.5-0.4c0.5-0.5,0.9-0.9,1.4-1.4c0.4-0.4,0.8-0.5,1.3-0.5c3.4,0,6.8,0.1,10.2,0.1c0.1,0,0.3,0,0.4,0
			c0.4-0.1,0.6-0.3,0.7-0.7c0-0.5,0-1,0.1-1.5c0-0.1,0.1-0.2,0.2-0.4c0.5,0.5,1,1,1.5,1.5c0.3,0.4,0.4,0.8,0.2,1.2
			c-0.2,0.4-0.4,0.8-0.7,1.2c-0.5,0.6-1.2,0.8-2,0.8c-1,0-2,0-2.9,0c-2.2,0-4.5,0-6.7,0c-0.4,0-0.8,0.2-1.1,0.5
			c-0.9,0.9-1.9,1.8-2.8,2.7c-0.3,0.3-0.6,0.5-1,0.5c-0.6,0-1.1-0.5-1.1-1.1c0-0.5,0-0.9,0-1.4c0.1-0.8-0.2-1.4-1-1.7
			c-0.9-0.4-1.3-1.1-1.3-2.1c0-2.6,0-5.1,0-7.7c0-0.7,0-1.4,0-2c0-1.4,1.1-2.6,2.5-2.7C26.8,13.1,27.6,13.2,28.3,13.2z"/>
	</g>
</g>
</svg>
