<?xml version="1.0" encoding="utf-8"?>
<!-- Generator: Adobe Illustrator 21.0.0, SVG Export Plug-In . SVG Version: 6.00 Build 0)  -->
<svg version="1.1" id="圖層_1" xmlns="http://www.w3.org/2000/svg" xmlns:xlink="http://www.w3.org/1999/xlink" x="0px" y="0px"
	 viewBox="0 0 822.9 601.4" style="enable-background:new 0 0 822.9 601.4;" xml:space="preserve">
<style type="text/css">
	.st0{fill:url(#SVGID_1_);}
	.st1{fill:#E1BE3F;}
	.st2{fill:#AB6C21;}
	.st3{opacity:0.6;fill:#E1BE3F;enable-background:new    ;}
	.st4{fill:url(#SVGID_2_);}
	.st5{fill:url(#SVGID_3_);}
	.st6{opacity:0.3;fill:#7FA2C4;enable-background:new    ;}
	.st7{fill:#3E81B9;}
	.st8{fill:url(#SVGID_4_);}
	.st9{fill:url(#SVGID_5_);}
	.st10{fill:#FFFFFF;}
	.st11{fill:#FBEEDC;}
	.st12{fill:none;stroke:#D6EDF4;stroke-width:1.0052;stroke-linecap:round;stroke-miterlimit:10;}
	.st13{opacity:0.3;}
	.st14{fill:url(#SVGID_6_);}
	.st15{fill:#FDF3E4;}
	.st16{fill:none;stroke:#FCEBE7;stroke-width:1.5079;stroke-linecap:round;stroke-linejoin:round;stroke-miterlimit:10;}
	.st17{fill:none;stroke:#ECC795;stroke-width:1.1227;stroke-linecap:round;stroke-linejoin:round;stroke-miterlimit:10;}
	.st18{fill:url(#SVGID_7_);}
</style>
<g>
	<g>
		<linearGradient id="SVGID_1_" gradientUnits="userSpaceOnUse" x1="349.9281" y1="302.207" x2="398.0516" y2="302.207">
			<stop  offset="0" style="stop-color:#B8E0EA"/>
			<stop  offset="1" style="stop-color:#81A7CC"/>
		</linearGradient>
		<path class="st0" d="M373.3,287c-8.7,7-18.9,15.4-23.4,21c0,0,8.7,4.9,21.7,8l3.5,0.7c2.4,1.7,5.2,0,5.2,0l2.4-0.3l14.7-3.8
			l0.7-20.6C388.7,291.2,378.9,288.7,373.3,287z"/>
		<path class="st6" d="M367.1,315.3l5.2,0.7c3.5-8.7,7.3-16.8,9.4-20.3C381.7,295.7,374,305.8,367.1,315.3z"/>
		<path class="st7" d="M362.2,312.8c-0.7-0.3-1-0.3-1.7-0.7c-2.4-1-4.5-2.1-5.9-3.1l0,0c-1.4-0.7-1-1.7-1-1.7l0,0
			c1.4-1.7,3.8-4.9,8.4-9.4c2.1-2.1,8-7,12.6-10.8c-1-0.3-2.1-0.7-3.1-1c-6.3,5.6-13.6,11.9-19.2,18.2c-1,1-2.1,2.1-2.8,3.1
			c0,0.3-0.3,0.3,0,0.7c0,0.3,0.7,1,2.4,2.4c0,0,6.6,4.9,19.2,7l1.4-2.1C369.5,314.9,365.7,313.9,362.2,312.8L362.2,312.8z"/>
	</g>
	<g>
		<linearGradient id="SVGID_2_" gradientUnits="userSpaceOnUse" x1="366.0531" y1="302.207" x2="540.794" y2="302.207">
			<stop  offset="0" style="stop-color:#B8E0EA"/>
			<stop  offset="1" style="stop-color:#81A7CC"/>
		</linearGradient>
		<path class="st4" d="M521.2,287c8.7,7,18.9,15.4,23.4,21c0,0-8.7,4.9-21.7,8l-3.5,0.7c-2.4,1.7-5.2,0-5.2,0l-2.4-0.7l-14.7-3.8
			l-0.7-20.6C505.8,291.2,515.3,288.7,521.2,287z"/>
		<path class="st6" d="M521.2,287c8.7,7,18.9,15.4,23.4,21c0,0-8.7,4.9-21.7,8l-3.5,0.7c-2.4,1.7-5.2,0-5.2,0l-2.4-0.7l-14.7-3.8
			l-0.7-20.6C505.8,291.2,515.3,288.7,521.2,287z"/>
		<path class="st7" d="M532,312.8c0.7-0.3,1-0.3,1.7-0.7c2.4-1,4.5-2.1,5.9-3.1l0,0c1.4-0.7,1-1.7,1-1.7l0,0
			c-1.4-1.7-3.8-4.9-8.4-9.4c-2.1-2.1-8-7-12.6-10.8c1-0.3,2.1-0.7,3.1-1c6.3,5.6,13.6,11.9,19.2,18.2c1,1,2.1,2.1,2.8,3.1
			c0,0.3,0.3,0.3,0,0.7c0,0.3-0.7,1-2.4,2.4c0,0-6.6,4.9-19.2,7l-1.4-2.1C525,314.9,528.9,313.9,532,312.8L532,312.8z"/>
	</g>
	<g>
		<linearGradient id="SVGID_3_" gradientUnits="userSpaceOnUse" x1="343.5335" y1="367.3549" x2="547.6569" y2="367.3549">
			<stop  offset="0" style="stop-color:#B8E0EA"/>
			<stop  offset="1" style="stop-color:#81A7CC"/>
		</linearGradient>
		<path class="st5" d="M530.6,338c0.3,0,0.7-0.3,1-0.3c-2.1-5.9-5.6-15-7-17.8c-1.4-2.8-10.8-19.2-15.4-28l-4.5-1l-59.4,4.2
			l-54.9-5.6l-19.9,5.6c2.4,1,4.5,2.1,4.5,2.1l4.2,1.7c0,0-8.4,19.2-10.8,25.5c-2.4,6.3-8.4,21.3-8.4,21.3l-1.4-0.3
			c-7,20.6-13.3,48.2-14.7,81.4c0,0,40.2,18.5,102.1,18.5s102.1-18.5,102.1-18.5C546,389.4,538.3,359.3,530.6,338z"/>
		<g>
			<g>
				<path class="st10" d="M445.3,346c-1.4,0-3.1-0.3-4.5-1c-2.8-1.7-3.5-4.9-3.1-7.3c0.3-2.1,1.4-3.8,3.1-4.2
					c2.8-0.7,3.5,2.1,4.2,4.2c0.3,0.7,0.3,1,0.7,1.4c1.4,3.1,5.2,4.9,8.4,3.5l0,0l0,0c0.3,0,0.7,0,0.7,0.3s0,0.7-0.3,0.7
					C452.3,344.6,448.8,346,445.3,346z M441.9,334.1L441.9,334.1c-1.7,0.3-2.4,1.4-2.8,3.1c-0.3,2.1,0.3,4.9,2.8,6.3
					c2.4,1.7,6.3,1,9.4,0c-2.4-0.3-4.9-2.1-5.9-4.2c-0.3-0.3-0.3-1-0.7-1.7C444,335.9,443.3,334.1,441.9,334.1z"/>
				<path class="st10" d="M446.7,352.7c-0.7,0-1.4,0-2.4-0.3c-1-0.3-1.7-1-2.1-1.7s-0.3-1.4,0-2.1c0.3-0.7,0.7-1,1.4-1.4
					c1-0.3,2.1-0.3,3.1-0.3c0.3,0,0.7,0,1,0c1,0,2.4,0,3.5-0.3c2.4-0.3,2.8-1,2.8-1l0,0c0-0.3,0.3-0.3,0.7-0.3
					c0.3,0,0.3,0.3,0.3,0.7l0,0l0,0l0,0l0,0l0,0c-0.3,0.3-2.8,5.9-7.7,6.3C447.1,352.7,447.1,352.7,446.7,352.7z M445.3,348.1
					c-0.7,0-1,0-1.4,0.3c-0.3,0-0.7,0.3-0.7,0.7s0,1,0,1.4c0.3,0.3,0.7,1,1.4,1c0.7,0.3,1.7,0.3,2.8,0.3c2.8-0.3,4.9-2.8,5.9-4.2
					c-0.3,0-1,0.3-1.7,0.3c-1.4,0.3-2.4,0.3-3.8,0.3c-0.3,0-0.7,0-1,0C446,348.1,445.7,348.1,445.3,348.1z"/>
				<path class="st10" d="M464.9,339.7C464.9,339.4,465.3,339.4,464.9,339.7c0.7-0.3,8.7-5.2,4.5-14.3c-3.5-7-9.1-7.7-11.2-7.3
					c1.7,1.7,2.1,4.2,2.1,4.5v0.3c-1.4,3.1-0.7,7.3-0.7,7.3c0,0.3,0,0.3-0.3,0.3s-0.3,0-0.7-0.3c-0.3-1.7-2.8-3.5-5.6-4.9
					c-2.4-1-4.9-1.4-5.9-0.7c-1.7,1-3.1,1.4-4.2,1.4c0.7,1,2.1,3.1,2.1,3.1l0,0c3.1,9.4,15.4,11.2,15.4,11.2c0.3,0,0.3,0,0.3,0.3
					c1,4.2,0.7,7.3-1.4,10.1c-3.1,3.8-8.7,5.6-13.3,5.2c-5.6-0.3-8.7-5.9-10.5-10.1c-2.1-4.5-4.5-8.4-7-12.2
					c-0.7-1.4-1.7-2.8-2.4-4.2c0-0.3-0.3-0.3-0.3-0.3l0,0c-1.4,0-4.2,3.1-6.6,6.6c-3.5,4.9-5.2,10.8-4.9,16.4
					c0.3,8,5.2,15.7,12.6,20.3c7.7,4.5,18.9,5.2,26.9,1.7c5.2-2.1,14-7.3,15-17.5C469.5,347.1,464.9,339.7,464.9,339.7L464.9,339.7z
					 M452.7,330.3C452.7,330.3,453,330,452.7,330.3c0.7,0,5.6,2.4,6.6,4.5v0.3l0,0H459c-1-1.7-5.9-4.2-5.9-4.2
					C452.7,330.7,452.7,330.7,452.7,330.3z M459.3,337.3L459.3,337.3C459,337.3,459,337.3,459.3,337.3c-2.1-1-6.6-3.1-7-3.1
					l-0.3-0.3l0.3-0.3c0.3,0,4.9,2.1,6.6,3.1C459.3,336.9,459.3,336.9,459.3,337.3z M431.4,356.5c0.3,0,2.8,1,3.5,1.7v0.3
					c0,0,0,0-0.3,0h-0.3c-0.7-0.7-2.4-1.4-3.1-1.4l-0.3-0.3C431,356.5,431.4,356.5,431.4,356.5z M426.8,344.6L426.8,344.6
					c-8-0.3-8.7-4.2-8.7-4.5c0-0.3,0-0.3,0.3-0.3s0.3,0,0.3,0.3c0,0,0.7,3.8,8,3.8C426.8,343.9,427.2,343.9,426.8,344.6
					C427.2,344.3,426.8,344.6,426.8,344.6z M426.8,338.7c-0.3,0-0.7-0.3-0.7-0.7s0.3-0.7,0.7-0.7s0.7,0.3,0.7,0.7
					C427.5,338.3,427.2,338.7,426.8,338.7z M437.7,361.1c-1.4,1.4-2.4,2.1-3.8,2.1h-0.3c-2.1-0.3-4.2-2.8-4.9-4.9v-0.3h0.3
					c0.7,2.1,2.4,4.2,4.5,4.5c1.4,0.3,2.4-0.3,3.8-2.1c0.7-1,1-1.7,0.7-2.4c-0.7-2.1-5.6-2.8-5.6-2.8c-0.3,0-0.3-0.3-0.3-0.3
					c0-0.3,0.3-0.3,0.3-0.3c0.3,0,5.2,0.7,6.3,3.5C438.7,359,438.4,360,437.7,361.1z M462.5,334.8
					C462.5,335.2,462.5,335.2,462.5,334.8C462.1,334.8,462.1,334.8,462.5,334.8C462.1,334.8,461.8,334.5,462.5,334.8
					c0.7-2.1,0.7-6.6,0.7-6.6c0-0.3,0-0.3,0.3-0.3c0,0,0.3,0,0.3,0.3C463.5,328.6,463.5,333.1,462.5,334.8z M464.6,336.9
					C464.2,336.9,464.2,336.9,464.6,336.9c-0.3-0.3-0.3-0.3-0.3-0.7c1.7-2.1,2.8-8,2.8-8c0-0.3,0.3-0.3,0.3-0.3
					c0.3,0,0.3,0.3,0.3,0.3C467.7,328.6,466.7,334.8,464.6,336.9L464.6,336.9z"/>
			</g>
		</g>
		<path class="st11" d="M382.1,302.3l-4.5,0.3l-17.8,40.5l-3.5,7.7c-5.9,19.9-11.5,45.1-12.9,75.5c0,0,4.5,2.1,12.6,4.9
			C355.9,372.6,382.1,302.3,382.1,302.3z"/>
		<path class="st12" d="M348.9,420.8c0,0,78.6,37,193.3,0"/>
		<g class="st13">
			<path class="st6" d="M530.6,338l-0.7-3.5c-2.1-5.6-4.5-12.2-5.6-14.3c-1.4-2.8-10.8-19.2-15.4-28h0.3l0,0l-4.9-1.4l-59.1,4.2
				l-18.2-1.7l-32.9,3.1l-12.2,6.3c0,0,48.6-5.2,57.3-5.2s43.7,5.2,43.7,5.2l21.7,1.7c0,0,11.2,97.9-13.6,137.4
				c35.3-5.2,57-15.4,57-15.4C546,389.4,538.3,359.3,530.6,338L530.6,338z"/>
		</g>
		<linearGradient id="SVGID_4_" gradientUnits="userSpaceOnUse" x1="445.3488" y1="285.3909" x2="532.1026" y2="285.3909">
			<stop  offset="0" style="stop-color:#B8E0EA"/>
			<stop  offset="1" style="stop-color:#81A7CC"/>
		</linearGradient>
		<path class="st8" d="M445.3,295c0,0,12.2-8,22.7-10.1c0,0,33.2-4.2,52.8-16.8l3.1,10.5c0,0,14.3,4.2,4.9,18.9
			c0,0-6.3,5.2-17.1,5.2C501.3,302.3,459,294.7,445.3,295z"/>
		<path class="st6" d="M477.2,289.4c22,0,38.8-7.3,38.8-7.3c-7,2.1-59.8,7-59.8,7l0,0c3.8-1.7,8-3.5,11.9-4.2
			c0,0,33.2-4.2,52.8-16.8l3.5,10.5C534.8,293.3,477.2,289.4,477.2,289.4z"/>
		<path class="st7" d="M520.8,280.3c0,0,3.8-1.4,7.3,0.7l-3.8-2.8L520.8,280.3z"/>
		<path class="st7" d="M529.6,298.1l2.4-1c4.5-8.7-1-14.7-1-14.7C534.5,288.7,529.6,298.1,529.6,298.1L529.6,298.1z"/>
		<g>
			<path class="st15" d="M426.8,346.4L426.8,346.4c-2.1-0.7-3.1-2.8-2.8-4.5l0.7-2.1c0.7-2.1,2.8-3.1,4.5-2.8l0,0
				c2.1,0.7,3.1,2.8,2.8,4.5l-0.7,2.1C431,345.7,428.9,346.7,426.8,346.4z"/>
			<path class="st15" d="M451.3,357.2L451.3,357.2c-2.1,0-3.8-1.7-3.5-3.8v-2.4c0-2.1,1.7-3.8,3.8-3.5l0,0c2.1,0,3.8,1.7,3.5,3.8
				v2.4C455.1,355.8,453.4,357.6,451.3,357.2z"/>
			<g>
				<path class="st6" d="M456.9,349.9c-0.7-0.7-1.7-1.4-2.4-1.4c0.3-21.7-5.9-53.8-6.3-54.2c0-0.3-0.3-0.7-1-0.7
					c-0.3,0-0.3,0.3-0.3,0.3c0-0.3-0.3-0.3-0.3-0.7c-0.3,0-0.7,0-1,0.3c0,0.3-9.4,24.1-14.3,43.3c-2.1-0.3-4.2,1-4.5,3.5l-1,2.4
					c-0.3,1,0,2.4,0.3,3.5c0.7,1,1.4,1.7,2.8,2.1c0.3,0,0.7,0,1,0c0.7,0,1.4-0.3,2.1-0.7c1-0.7,1.7-1.7,2.1-2.8l0.7-2.4
					c0.7-2.1-0.3-4.2-2.4-5.2c4.5-18.2,13.6-40.9,14.3-43l0,0c0,0.3,6.6,32.2,6.3,53.8c-0.7,0-1.4,0.3-2.1,1
					c-0.7,0.7-1.4,2.1-1.4,3.1v2.4c0,1,0.3,2.4,1,3.1c0.7,1,1.7,1.4,3.1,1.4c0,0,0,0,0.3,0c2.4,0,4.2-1.7,4.5-4.2v-2.4
					C458.3,352,457.6,350.9,456.9,349.9z"/>
				<path class="st16" d="M444,294.7c0,0-9.4,23.4-14.7,41.9"/>
				<path class="st16" d="M445.3,295c0,0,6.6,31.1,6.3,52.4"/>
				<path class="st17" d="M426.8,346.4L426.8,346.4c-2.1-0.7-3.1-2.8-2.8-4.5l0.7-2.1c0.7-2.1,2.8-3.1,4.5-2.8l0,0
					c2.1,0.7,3.1,2.8,2.8,4.5l-0.7,2.1C431,345.7,428.9,346.7,426.8,346.4z"/>
				<path class="st17" d="M451.3,357.2L451.3,357.2c-2.1,0-3.8-1.7-3.5-3.8v-2.4c0-2.1,1.7-3.8,3.8-3.5l0,0c2.1,0,3.8,1.7,3.5,3.8
					v2.4C455.1,355.8,453.4,357.6,451.3,357.2z"/>
			</g>
		</g>
		<linearGradient id="SVGID_5_" gradientUnits="userSpaceOnUse" x1="358.9445" y1="286.6143" x2="445.6983" y2="286.6143">
			<stop  offset="0" style="stop-color:#B8E0EA"/>
			<stop  offset="1" style="stop-color:#81A7CC"/>
		</linearGradient>
		<path class="st9" d="M445.7,295c0,0-12.2-8-22.7-10.1c0,0-32.2-1.4-51.7-14l-4.2,7.3c0,0-14.3,4.2-4.9,18.9c0,0,6.3,5.2,17.1,5.2
			C390.1,302.3,432.1,294.7,445.7,295z"/>
		<path class="st6" d="M414.2,289.4c-22,0-38.8-7.3-38.8-7.3c7,2.1,59.8,7,59.8,7l0,0c-3.8-1.7-8-3.5-11.9-4.2c0,0-32.2-1.4-51.7-14
			l-4.2,7.3C356.6,293.3,414.2,289.4,414.2,289.4z"/>
		<path class="st7" d="M550.9,426.4c0.3-70.3-28.3-117.1-32.9-123.7c7-1.4,11.2-4.5,11.2-4.9c0,0,0,0,0.3-0.3
			c3.1-4.9,4.2-9.4,2.8-12.9c-1.7-4.5-6.3-6.6-7.7-7l-3.1-9.8c0-0.3-0.3-0.3-0.7-0.7c-0.3,0-0.7,0-0.7,0
			c-19.2,12.2-52.1,16.8-52.8,16.8c-9.1,1.7-19.6,8-22.4,9.8c-2.8-1.7-13.3-8-22.4-9.8l0,0c-0.3,0-32.2-1.4-51.4-13.6
			c-0.3,0-0.3,0-0.7,0c-0.3,0-0.3,0.3-0.7,0.3l-4.2,7c-1.4,0.3-5.9,2.4-7.7,7c-1.4,3.8-0.3,8,2.8,12.9c0,0,0,0,0.3,0.3
			s5.6,4.2,14.3,5.2c-4.9,7.7-30.4,52.8-33.2,123.4c0,0.3,0.3,0.7,0.7,0.7c0.3,0.3,40.9,18.5,101.4,18.9l0,0h2.1l0,0
			c53.1-0.3,90.9-14.3,99.6-17.8l0,0L550.9,426.4z M531,285.2c1,3.1,0.3,7-2.4,11.2c-0.7,0.7-7,4.9-16.4,4.9l0,0
			c-4.9,0-16.8-1.7-29-3.5c-10.1-1.4-20.3-2.8-28-3.5c4.9-1,9.8-2.1,15-3.1c5.2-1,10.5-1.7,15.7-2.1c2.4-0.3,4.9-0.3,7.3-0.7
			c5.9-0.7,11.9-1.7,17.5-3.5c5.9-1.7,10.1-3.5,14-5.9C525.4,280,529.6,281.7,531,285.2z M468.1,285.9c0.3,0,32.5-4.5,52.4-16.4
			l2.4,8.4c-3.5,2.1-7.7,3.8-13.3,5.6c-5.2,1.7-11.2,2.8-17.1,3.5c-2.4,0.3-4.9,0.3-7.3,0.7c-5.2,0.3-10.8,1-16.1,2.1
			c-7,1.4-14.3,2.8-20.3,4.2C453,291.5,461.1,287.3,468.1,285.9z M371.6,272.3c19.2,11.9,49.6,13.3,51.4,13.3c7,1.4,15,5.6,19.2,8
			c-6.3-1-13.3-2.4-20.3-3.8c-5.6-1-10.8-1.7-16.1-2.1c-2.4-0.3-4.9-0.3-7.3-0.7c-5.9-0.7-11.9-1.7-17.1-3.5
			c-5.6-1.7-9.8-3.5-13.3-5.2L371.6,272.3z M360.4,285.2c1.4-3.8,5.2-5.6,6.6-5.9c3.8,2.1,8,4.2,14,5.9c5.6,1.7,11.5,2.8,17.5,3.5
			c2.4,0.3,4.9,0.3,7.3,0.7c3.1,0.3,6.3,0.7,9.1,1c4.9,1.4,11.9,3.5,15.4,4.9c-6.6,0.7-14.3,1.7-21.7,2.8c-12.2,1.7-24.1,3.5-29,3.5
			l0,0c-9.4,0-15.4-4.2-16.4-4.9C360.1,292.2,359.4,288.4,360.4,285.2z M344.3,426.1l1.4,0.7C345.4,426.4,344.7,426.1,344.3,426.1z
			 M445.7,444.3c-53.5,0-90.9-14.3-99.6-17.8c0.7-62.9,33.6-123,33.6-123l0,0c5.2,0,16.8-1.7,29.4-3.5c12.9-1.7,26.6-3.8,34.3-4.2
			l0,0l0,0c1,0,1.7,0,2.4,0c0.7,0,1.4,0,2.4,0l0,0l0,0c8,0.3,21.3,2.1,34.6,4.2c12.6,1.7,24.1,3.5,29.4,3.5l0,0c0.3,0,0.7,0,1.4,0
			c2.8,4.5,30.1,50,33.6,122.7C541.8,428.2,502.7,444.3,445.7,444.3z"/>
	</g>
</g>
</svg>
