<?xml version="1.0" encoding="utf-8"?>
<!-- Generator: Adobe Illustrator 21.0.0, SVG Export Plug-In . SVG Version: 6.00 Build 0)  -->
<svg version="1.1" id="圖層_1" xmlns="http://www.w3.org/2000/svg" xmlns:xlink="http://www.w3.org/1999/xlink" x="0px" y="0px"
	 viewBox="0 0 822.9 601.4" style="enable-background:new 0 0 822.9 601.4;" xml:space="preserve">
<style type="text/css">
	.st0{fill:url(#SVGID_1_);}
	.st1{fill:#E1BE3F;}
	.st2{fill:#AB6C21;}
	.st3{opacity:0.6;fill:#E1BE3F;enable-background:new    ;}
	.st4{fill:url(#SVGID_2_);}
	.st5{fill:#A0D3BC;}
	.st6{opacity:0.6;fill:#AAC0B6;enable-background:new    ;}
	.st7{fill:#48A6A6;}
	.st8{fill:#462A25;}
	.st9{fill:url(#SVGID_3_);}
	.st10{fill:#DDB5A0;}
	.st11{opacity:0.5;fill:#7E6764;enable-background:new    ;}
	.st12{fill:#76615D;}
	.st13{fill:#50413E;}
	.st14{fill:url(#SVGID_4_);}
	.st15{fill:url(#SVGID_5_);}
	.st16{opacity:0.3;fill:#7E6764;enable-background:new    ;}
	.st17{fill:#BA7657;}
	.st18{fill:#7E6D6A;}
	.st19{fill:none;stroke:#877976;stroke-width:0.8768;stroke-miterlimit:10;}
	.st20{fill:none;stroke:#877976;stroke-width:0.8768;stroke-linecap:round;stroke-miterlimit:10;}
</style>
<g>
	<g>
		<path class="st5" d="M508.3,284.6c1.1,2.3,2.3,4.9,3,6.8c0.4,1.5,1.1,3.4,1.9,5.3c1.5,1.1,4.1-2.6,13.9,22.1l5.3-1.5l15-7.1
			c-21-25.9-33.8-28.9-36.8-31.1l-5.3,1.5c0.8,1.1,1.5,2.3,2.3,3.8L508.3,284.6z"/>
		<path class="st6" d="M508.7,284.6c1.1,2.3,2.3,4.9,3,6.8c0.8,1.9,1.1,3.4,1.9,5.3c1.1,1.5,3.8-2.3,13.9,22.1l5.3-1.5l2.6-1.1
			c-12.4-24.8-17.3-29.3-20.3-33.8c-1.9-1.9-3.4-3-3.8-3.4l-5.3,1.5c0.8,0.8,1.5,2.3,2.3,3.8L508.7,284.6z"/>
		<path class="st6" d="M365,321.7c9.8-24,10.5-24,12-25.1c0.8-1.9,1.5-3.8,1.9-5.3c0.8-1.9,1.9-4.5,3-6.8l0.4-0.4
			c-0.4-0.4-6.4,6.8-22.1,35.3L365,321.7z"/>
		<path class="st5" d="M365,321.7c9.8-23.6,10.5-23.6,11.6-25.1c0.8-1.9,1.1-3.4,1.9-5.3c0.8-1.9,1.9-4.5,3-6.8l0.4-0.4
			c0.8-1.5,1.5-3,2.3-3.8l-5.3-1.5c-3,2.3-13.5,8.6-34.1,33.8L365,321.7z"/>
		<path class="st5" d="M444.9,297.7c31.1,0,42.8-9.4,45.8-12.8c0,0.4,0,0.4,0.4,0.8c0.8,2.3,3,16.1,4.5,27.8
			c-4.5,0.8-29.3,4.9-50.7,4.9h-0.4c-21,0-45.8-4.1-50.3-4.9c1.9-12,3.8-25.9,4.5-27.8c0-0.4,0-0.4,0.4-0.8
			C402.1,288.3,413.7,297.7,444.9,297.7z"/>
		<g>
			<path class="st7" d="M344.7,312.7c20.6-24.8,30.8-31.1,33.8-33.8l6.4,1.5c0.4,0,0.8,0,1.1-0.8c0.4,0,0-0.8-0.4-0.8l-7.5-3
				c0,0-12.8,7.1-36,35.6L344.7,312.7z"/>
		</g>
		<path class="st7" d="M504.5,280.8l6.4-1.5c2.6,2.3,15.4,5.3,36.4,31.1l3-1.5c-23.6-29.3-38.3-33-38.3-33l-7.5,3
			c-0.4,0-0.8,0.4-0.8,1.1C503.4,280.5,503.8,280.8,504.5,280.8z"/>
	</g>
	<g>
		<path class="st8" d="M446.8,509L446.8,509c-52.5,0-106.2-13.5-107.3-13.5c-0.4,0-0.4-0.4-0.8-0.8c-7.5-50.3-0.8-91.5-0.8-91.9
			c12.4-78.4,39-105.8,39.4-106.2c0.4-0.4,0.8-0.4,1.1,0c0.4,0.4,0.4,0.8,0,1.1c-0.4,0.4-26.6,27.4-38.6,105.1
			c0,0.4-6.8,41.3,0.8,90.8c5.6,1.5,56.3,13.5,105.4,13.5h0.4c49.2,0,99.8-12,105.4-13.5c7.5-49.5,0.8-90.4,0.8-90.8
			c-11.6-77.7-37.9-104.7-38.3-105.1s-0.4-0.8,0-1.1s0.8-0.4,1.1,0c0.4,0.4,27,27.8,39,106.2c0,0.4,6.8,42-0.8,91.9
			c0,0.4-0.4,0.8-0.8,0.8C552.6,495.5,498.9,509,446.8,509z M552.9,494.7L552.9,494.7L552.9,494.7z"/>
		<g>
			<path class="st6" d="M488.4,315.4c4.5-0.8,8.3-1.1,9.4-1.5c-1.9-12-3.8-25.9-4.5-27.8c0-0.4,0-0.4-0.4-0.8
				c-0.8,0.8-1.5,1.5-3,2.6C491.8,294.7,493.7,307.1,488.4,315.4z"/>
			<path class="st6" d="M402.1,287.2c-1.1-0.8-1.9-1.5-2.3-2.3c0,0.4,0,0.4-0.4,0.8c-0.8,2.3-3,15.8-4.5,27.8
				c1.5,0.4,4.1,0.8,8.6,1.5C398,306.7,400.2,294,402.1,287.2z"/>
			<ellipse class="st10" cx="382.2" cy="318" rx="1.9" ry="1.9"/>
			<ellipse class="st10" cx="510.5" cy="318" rx="1.9" ry="1.9"/>
			<path class="st11" d="M398.4,315c0,0,24.8,10.1,97.6,3.8l2.3,7.5c0,0-0.8,0.4,4.1,0c0,0-4.1-30-7.9-44.3l-1.5,0.8l0.8,4.9l4.5,24
				l-0.4,1.9c0,0-37.5,10.5-86.7,3l-16.5-4.9l4.9-28.9l-0.8-0.4c0,0-3.8,12.8-8.3,44.3c0,0,3.8,1.5,4.1-3.8
				C395.7,317.2,398.4,315,398.4,315z"/>
			<path class="st12" d="M387.1,280.5C386.7,280.5,386.7,280.8,387.1,280.5C386.7,280.8,386.7,280.8,387.1,280.5
				c-0.8,0.8-1.5,1.9-3,4.5l-0.4,0.4c-1.1,2.3-2.3,4.5-3,6.4c-1.1,3.4-2.6,6.8-4.1,11.6c-1.9,5.3-3.4,10.9-4.9,16.9
				c-0.4,1.1-0.4,1.9,0,2.3c0.4,0.4,0.8,0.4,0.8,0.4s0,0,0.4,0c1.9-6.8,10.5-32.3,12.4-36.8c1.5-3.4,4.1-4.5,6-4.9
				C389,281.2,387.1,280.8,387.1,280.5z"/>
			<path class="st12" d="M505.7,280.5C506,280.5,506,280.8,505.7,280.5C506,280.8,506,280.8,505.7,280.5c0.8,0.8,1.5,1.9,3,4.5
				l0.4,0.4c1.1,2.3,2.3,4.5,3,6.4c1.1,3.4,2.6,6.8,4.1,11.6c1.9,5.3,3.4,10.9,4.9,16.9c0.4,1.1,0.4,1.9,0,2.3s-0.8,0.4-0.8,0.4
				s0,0-0.4,0c-1.5-6.8-10.1-32.3-12-36.8c-1.5-3.4-4.1-4.5-6-4.9C503.4,281.2,505.7,280.8,505.7,280.5z"/>
			<path class="st8" d="M446.4,320.2L446.4,320.2c-24,0-52.2-4.9-52.5-4.9s-0.8-0.4-0.8-1.1c0-0.4,0.4-0.8,1.1-0.8
				c0.4,0,28.1,4.9,52.2,4.9h0.4c23.6,0,51.8-4.9,52.2-4.9s0.8,0.4,1.1,0.8c0,0.4-0.4,0.8-0.8,1.1
				C498.5,315.4,470.4,320.2,446.4,320.2z"/>
			<path class="st8" d="M518.4,304.5c0,0,22.1,30,30.4,82.2c0,0,9,39.8,0,101.3h4.1c0,0,5.3-41.6,3.4-61.5c0,0-4.1-53.7-13.5-74.3
				c0,0-10.9-34.5-27-53.3L518.4,304.5z"/>
			<g>
				<path class="st13" d="M494.4,283.1L494.4,283.1c3.4-0.8,10.9-2.3,11.6-2.3c0,0,0,0,0.4,0l0,0c0.4,0.4,1.1,1.5,2.6,4.1l0.4,0.4
					c1.1,2.3,2.3,4.5,3,6.4c1.1,3.4,2.6,6.8,4.1,11.6c1.9,5.3,3.4,10.9,4.9,16.9c0.4,1.1,0.4,1.9,0,2.3s-0.8,0.4-0.8,0.4
					c-4.5,0.8-16.5,2.3-18,2.3c-1.1,0-1.1-0.8-1.1-1.1c-0.4-1.5-4.9-35.6-6.8-39.4C494,283.5,494.4,283.1,494.4,283.1z"/>
				<path class="st13" d="M398.4,283.1L398.4,283.1c0.4,0,0.4,0.8,0,2.3c-1.1,3.8-6,37.9-6.8,39.4c0,0.4,0,0.8-1.1,0.8
					c-1.5,0-13.5-1.5-18-2.3c0,0-0.4,0-0.8-0.4s-0.4-1.1,0-2.3c1.5-6,3.4-11.6,4.9-16.9c1.5-4.5,2.6-8.3,4.1-11.6
					c0.8-1.9,1.9-4.1,3-6.4l0.4-0.4c1.5-2.6,2.3-3.8,2.6-4.1l0,0c0,0,0,0,0.4,0C387.5,280.8,395,282.3,398.4,283.1z"/>
				
					<linearGradient id="SVGID_1_" gradientUnits="userSpaceOnUse" x1="337.0348" y1="199.0302" x2="555.335" y2="199.0302" gradientTransform="matrix(1 0 0 -1 0 602)">
					<stop  offset="0" style="stop-color:#554442"/>
					<stop  offset="1" style="stop-color:#423532"/>
				</linearGradient>
				<path class="st0" d="M552.2,493.6c-5.6,1.5-56.3,13.5-105.4,13.5h-0.4c-49.2,0-99.8-12-105.4-13.5c-7.5-50.3-0.8-91.5-0.8-91.9
					c9.4-63.4,28.5-93.4,35.6-102.8c-0.4,0.8,0.4,2.3,0.4,3c-1.9,5.6-3.4,11.6-5.3,18c-0.4,1.5-1.1,2.3-0.4,3
					c0.8,1.1,1.9,1.1,1.9,1.1c0.8,0,16.1,2.3,18,2.3c1.9,0,2.6-1.5,2.6-2.6c0.4-3,0.8-6.4,1.5-9.8c4.9,0.8,30,5.3,51.4,5.3h0.4
					c21.8,0,46.9-4.1,51.4-5.3c0.4,3.8,1.1,7.1,1.5,9.8c0,1.1,0.8,2.6,2.6,2.6c1.9,0,17.6-2.3,18-2.3c0,0,1.1,0,1.9-1.1
					c0.8-0.8-0.4-2.6-0.8-4.1c-1.5-6.4-3-12-4.9-17.6c-0.4-0.8,0.4-1.1,0.4-1.9c7.1,9.4,26.3,39.4,36,102.8
					C552.9,402.4,559.7,443.7,552.2,493.6z"/>
				
					<linearGradient id="SVGID_2_" gradientUnits="userSpaceOnUse" x1="384.8223" y1="169.0147" x2="508.3023" y2="169.0147" gradientTransform="matrix(1 0 0 -1 0 602)">
					<stop  offset="0" style="stop-color:#554442"/>
					<stop  offset="1" style="stop-color:#423532"/>
				</linearGradient>
				<path class="st4" d="M495.9,459.4c-5.6,2.3-12.4,3-19.1,3.8c-1.5,0-2.6,0.4-3.8,0.4c-9.4,1.1-17.6,1.9-26.3,1.9H446
					c-8.6,0-16.9-0.8-26.3-1.9c-1.1,0-2.6-0.4-3.8-0.4c-6.8-0.8-13.1-1.5-19.1-3.8c-13.5-5.3-12.4-19.1-11.6-31.5
					c0-0.8,0-1.9,0.4-2.6c0.8-8.3,1.5-16.5,3-24.8c9,1.1,55.5,2.6,57.8,2.6h0.4c1.9,0,48.8-1.5,57.8-2.6c1.1,7.9,2.3,16.1,3,24.8
					c0,0.8,0,1.9,0.4,2.6C508.7,440.3,509.8,454.2,495.9,459.4z"/>
				<path class="st16" d="M524,310.1c1.1,9,16.5,127.2-47.3,195.9c37.9-3.4,70.9-11.3,75.4-12.4c7.5-50.3,0.8-91.5,0.8-91.9
					C545.8,354.4,533,325.5,524,310.1z"/>
				<path class="st12" d="M372.8,305.6l0.4-1.1c-8.6,12-24.8,40.9-33.4,94.9c0,0.4-6.8,40.1,0.8,87.8c1.5,0.4,5.6,1.5,12,2.6
					c-0.8-7.1-1.1-15-1.9-24.4C343.2,368.6,372.8,305.6,372.8,305.6z"/>
				<path class="st8" d="M390.8,327.4c-1.9,0-17.6-2.3-18-2.3c0,0-1.1,0-1.9-1.1c-0.8-0.8-0.8-2.3-0.4-3.8c1.5-6,3.4-11.6,4.9-17.3
					c1.5-4.9,2.6-8.3,4.1-11.6c0.8-1.9,1.9-4.5,3-6.8l0.4-0.4c1.9-3.4,3.4-5.6,4.9-5.3c0.4,0,7.9,1.9,11.3,2.3c0.4,0,0.8,0,1.1,0.8
					c0.8,0.8,0.8,1.9,0,3.8c-1.1,3-4.5,26.6-6,39C393.5,325.9,392.7,327.4,390.8,327.4z M387.1,280.5c-0.4,0-1.1,0.8-3,4.5l-0.4,0.4
					c-1.1,2.3-2.3,4.5-3,6.4c-1.1,3.4-2.6,6.8-4.1,11.6c-1.9,5.3-3.4,10.9-4.9,16.9c-0.4,1.1-0.4,1.9,0,2.3c0.4,0.4,0.8,0.4,0.8,0.4
					c4.5,0.8,16.5,2.3,18,2.3c1.1,0,1.1-0.8,1.1-0.8c0.4-1.5,4.9-35.6,6.8-39.4c0.8-1.9,0.4-2.3,0.4-2.3s0,0-0.4,0
					C395,282.3,387.5,280.8,387.1,280.5z"/>
				<path class="st17" d="M382.2,321.4c-1.9,0-3.4-1.5-3.4-3.4s1.5-3.4,3.4-3.4s3.4,1.5,3.4,3.4S384.1,321.4,382.2,321.4z
					 M382.2,316.1c-1.1,0-1.9,0.8-1.9,1.9c0,1.1,0.8,1.9,1.9,1.9s1.9-0.8,1.9-1.9C384.1,316.9,383.3,316.1,382.2,316.1z"/>
				<path class="st8" d="M502.3,327.4c-1.9,0-2.6-1.5-2.6-2.6c-1.9-12-5.3-36-6-39c-0.8-1.9-0.8-3,0-3.8c0.4-0.4,0.8-0.8,1.1-0.8
					c3-0.8,10.9-2.3,11.3-2.3c1.5-0.4,3,1.9,4.9,5.3l0.4,0.4c1.1,2.3,2.3,4.9,3,6.8c1.1,3.4,2.6,7.1,4.1,11.6
					c1.9,5.6,3.4,10.9,4.9,17.3c0.4,1.5,0.4,2.6-0.4,3.8c-0.8,1.1-1.9,1.1-1.9,1.1C519.9,325.1,504.5,327.4,502.3,327.4z
					 M494.4,283.1c0,0-0.4,0.8,0.4,2.3c1.1,3.8,6,37.9,6.8,39.4c0,0.4,0.4,1.1,1.1,1.1c1.5,0,13.5-1.5,18-2.3c0,0,0.4,0,0.8-0.4
					s0.4-1.1,0-2.3c-1.5-6-3.4-11.6-4.9-16.9c-1.5-4.5-2.6-8.3-4.1-11.6c-0.8-1.9-1.9-4.1-3-6.4L509,285c-1.9-3.8-2.6-4.5-3-4.5
					C505.3,280.8,497.8,282.3,494.4,283.1L494.4,283.1z M505.7,280.5L505.7,280.5L505.7,280.5z M505.7,279.7L505.7,279.7
					L505.7,279.7z"/>
				<path class="st17" d="M510.5,321.4c-1.9,0-3.4-1.5-3.4-3.4s1.5-3.4,3.4-3.4c1.9,0,3.4,1.5,3.4,3.4S512.4,321.4,510.5,321.4z
					 M510.5,316.1c-1.1,0-1.9,0.8-1.9,1.9c0,1.1,0.8,1.9,1.9,1.9s1.9-0.8,1.9-1.9C512,316.9,511.3,316.1,510.5,316.1z"/>
				<path class="st18" d="M446.8,467.3H446c-8.6,0-16.9-0.8-26.3-1.9c-1.1,0-2.6-0.4-3.8-0.4c-6.8-0.8-13.5-1.5-19.5-4.1
					c-14.6-5.6-13.5-20.3-12.4-33c0-0.8,0-1.9,0.4-2.6c0.8-8.6,1.5-17.3,3-25.5c0-0.4,0-0.4,0.4-0.4c0,0,0.4,0,0.8,0
					c6.4,1.1,57.8,3,58.5,3h-0.4c0.4,0,52.2-1.5,58.2-3c0.4,0,0.4,0,0.8,0l0.4,0.4c1.5,8.3,2.3,16.9,3,25.5c0,0.8,0,1.9,0.4,2.6
					c1.1,12.8,2.3,27.4-12.4,33c-6,2.3-12.8,3-19.5,4.1c-1.1,0-2.6,0.4-3.8,0.4C463.6,466.6,455.4,467.3,446.8,467.3z M388.2,400.9
					c-1.1,7.9-2.3,16.1-3,24.8c0,0.8,0,1.9-0.4,2.6c-1.1,12.4-2.3,25.9,11.6,31.5c5.6,2.3,12.4,3,19.1,3.8c1.5,0,2.6,0.4,3.8,0.4
					c9.4,1.1,17.6,1.9,26.3,1.9h1.1c8.6,0,16.9-0.8,26.3-1.9c1.1,0,2.6-0.4,3.8-0.4c6.8-0.8,13.1-1.5,19.1-3.8
					c13.5-5.3,12.4-19.1,11.6-31.5c0-0.8,0-1.9-0.4-2.6c-0.8-8.3-1.5-16.5-3-24.8c-9,1.1-55.5,2.6-57.8,2.6H446
					C444.1,403.5,397.6,402.4,388.2,400.9z"/>
				<path class="st8" d="M497.8,311.2c0,0-15,6.8-46.1,7.5c0,0,21,0,46.9-4.1L497.8,311.2z"/>
				<path class="st8" d="M375.1,304.5c0,0-22.1,30-30.4,82.2c0,0-9,39.8,0,101.3h-4.1c0,0-5.3-41.6-3.4-61.5c0,0,4.1-53.7,13.5-74.3
					c0,0,10.9-34.5,27-53.3L375.1,304.5z"/>
				<path class="st8" d="M395.4,311.2c0,0,15,6.8,46.1,7.5c0,0-21,0-46.9-4.1L395.4,311.2z"/>
				<path class="st19" d="M398.4,322.5c0,0,29.3,12,95.7,0"/>
				<path class="st19" d="M386.3,408.4c0,0,53.3,8.6,120.1,0"/>
				<path class="st20" d="M347.7,488.3c0,0,98.3,25.5,197-1.9"/>
				<path class="st8" d="M340.6,451.9c0,0,3.4,35.3,5.3,43.1h-5.3c0,0-3-18.8-4.1-43.9L340.6,451.9z"/>
				<polygon class="st8" points="551.4,464.3 547.3,495.8 552.9,494.7 556.3,463.9 				"/>
			</g>
		</g>
	</g>
</g>
<g>
	<path class="st5" d="M342.4,303l24.4,11.6l-4.1,8.3c-0.4,1.1-1.9,1.5-2.6,1.1l-21.8-10.1c-1.1-0.4-1.5-1.9-1.1-3l2.6-6.8
		C340.2,303,341.7,302.2,342.4,303z"/>
	<g>
		<path class="st7" d="M362.7,323.2c-0.4,1.1-1.9,1.5-2.6,1.1l-21.8-10.1c-1.1-0.4-1.5-1.5-1.1-2.6l2.6-6.4c0.4-0.4,0.8-0.8,1.1-1.1
			l0,0c-1.1-0.4-2.6,0-3,1.1l-2.6,6.8c-0.4,1.1,0,2.3,1.1,3l23.3,10.5c1.1,0.4,2.3,0,3-1.1l4.1-8.3h-0.4L362.7,323.2z"/>
		<path class="st7" d="M341.7,301.5l25.5,12.4l-4.1,9c-0.4,1.1-1.9,1.5-3,1.1l-22.9-10.9c-1.1-0.4-1.5-1.9-1.1-3l2.6-7.1
			C339.1,301.9,340.6,301.1,341.7,301.5z"/>
		<path class="st5" d="M342.4,304.1l24.4,11.3l-4.1,7.9c-0.4,1.1-1.9,1.5-2.6,1.1l-21.8-10.1c-1.1-0.4-1.5-1.5-1.1-2.6l2.6-6.4
			C340.2,304.1,341.7,303.4,342.4,304.1z"/>
	</g>
</g>
<g>
	<path class="st5" d="M551.1,301.9l-24.4,11.6l4.1,8.3c0.4,1.1,1.9,1.5,2.6,1.1l22.1-10.5c1.1-0.4,1.5-1.9,1.1-3l-2.6-6.8
		C553.3,301.9,552.2,301.5,551.1,301.9z"/>
	<g>
		<path class="st7" d="M531.2,322.1c0.4,1.1,1.9,1.5,2.6,1.1l21.8-9.8c1.1-0.4,1.5-1.5,1.1-2.6l-2.6-6.4c-0.4-0.4-0.8-0.8-1.1-1.1
			l0,0c1.1-0.4,2.6,0,3,1.1l2.6,6.8c0.4,1.1,0,2.3-1.1,3l-23.3,10.5c-1.1,0.4-2.3,0-3-1.1l-4.1-8.3h0.4L531.2,322.1z"/>
		<path class="st7" d="M552.2,300.7l-25.5,12.4l4.1,9c0.4,1.1,1.9,1.5,3,1.1l22.9-10.9c1.1-0.4,1.5-1.9,1.1-3l-2.6-7.1
			C554.4,300.7,553.3,300,552.2,300.7z"/>
		<path class="st5" d="M551.1,303l-24.4,11.3l4.1,7.9c0.4,1.1,1.9,1.5,2.6,1.1l22.1-9.8c1.1-0.4,1.5-1.5,1.1-2.6l-2.6-6.4
			C553.3,303,552.2,302.6,551.1,303z"/>
	</g>
</g>
</svg>
