<?xml version="1.0" encoding="utf-8"?>
<!-- Generator: Adobe Illustrator 21.0.0, SVG Export Plug-In . SVG Version: 6.00 Build 0)  -->
<svg version="1.1" id="圖層_1" xmlns="http://www.w3.org/2000/svg" xmlns:xlink="http://www.w3.org/1999/xlink" x="0px" y="0px"
	 viewBox="0 0 822.9 601.4" style="enable-background:new 0 0 822.9 601.4;" xml:space="preserve">
<style type="text/css">
	.st0{fill:url(#SVGID_1_);}
	.st1{fill:#E1BE3F;}
	.st2{fill:#AB6C21;}
	.st3{opacity:0.6;fill:#E1BE3F;enable-background:new    ;}
	.st4{fill:url(#SVGID_2_);}
	.st5{fill:#123B54;}
	.st6{fill:#072B3C;}
	.st7{fill:#072D3E;}
	.st8{fill:#194268;}
	.st9{fill:#627F94;}
	.st10{opacity:0.8;}
	.st11{fill:#FFFFFF;}
</style>
<g>
	<g>
		<path class="st5" d="M506.1,276.6c8,6.4,29.1,23.4,36.5,32.4c0,0-8.7,5-21.4,8.4l-3.3,0.7c-2.3,1.7-5,0-5,0l-2.3-0.7l-14.4-3.7
			l-1-33.1L506.1,276.6z"/>
		<path class="st5" d="M505.7,277.3l0.3-0.7l2.3,2c0,0-0.7,0.3-2,1.3L505.7,277.3z"/>
		<path class="st6" d="M527.8,316.1l-5,0.7c-3.7-9-7-17.4-9.4-21.1C513.4,295.7,521.1,306,527.8,316.1z"/>
		<path class="st7" d="M504.4,276.3l0.7-0.7h0.7l0,0l2-0.7c0,0,20.4,16.7,32.4,30.1c1,1,2,2.3,2.7,3.3c0,0.3,0.3,0.3,0,0.7
			c0,0.3-0.7,1.3-2.3,2.3c0,0-6.4,5.4-19.4,7l-0.3-0.7c-0.7,0-1.7,0.3-2.3,0.3l-0.3,0.7c0,0-0.3-1-0.3-1.3s1-0.7,1-0.7
			c3,0,7.7-1.3,11.7-2.7l0,0c0.7-0.3,1-0.3,1.7-0.7c4-1.7,7.4-4,7.4-4l0,0c-1-1.7-3.7-5-8.7-10.4c-3.7-3.7-18.1-16.1-18.1-16.1
			c-2.7-2.3-5-4-6.7-5.4h-0.7l-0.7-0.7L504.4,276.3z"/>
	</g>
	<g>
		<path class="st8" d="M387.3,278.6c-8,6.4-29.1,22.4-36.5,31.1c0,0,8.7,5,21.4,8l3.3,0.7c2.3,1.7,5,0,5,0l2.3-0.7l14.4-3.7l1-32.4
			L387.3,278.6z"/>
		<path class="st5" d="M387.7,279.3l-0.3-0.7l-2.3,1.7c0,0,0.7,0.3,2,1.3L387.7,279.3z"/>
		<path class="st5" d="M367.9,316.7l5,0.7c3.7-8.4,7-16.4,9.4-20.1C382.3,297.3,374.6,307.4,367.9,316.7z"/>
		<path class="st7" d="M389,278.3l-0.7-0.7h-0.7l0,0l-2-0.7c0,0-20.4,16.1-32.4,28.8c-1,1-2,2-2.7,3c0,0.3-0.3,0.3,0,0.7
			c0,0.3,0.7,1,2.3,2.3c0,0,6.4,5,19.4,7l0.3-0.7c0.7,0,1.7,0,2.3,0.3l1,0.3c0,0,0.3-1,0.3-1.3s-1-0.7-1-0.7c-3,0-7.7-1.3-11.7-2.7
			l0,0c-0.7-0.3-1-0.3-1.7-0.7c-4.3-1.3-7.7-3.7-7.7-3.7l0,0c1-1.7,3.7-4.7,8.7-10c3.7-3.7,18.1-15.4,18.1-15.4c2.7-2,5-4,6.7-5.4
			h0.7L389,278.3L389,278.3z"/>
	</g>
	<path class="st8" d="M531.2,338.5h0.3c0.3-0.3,0.3-0.3,0.7-0.7l-1.7-5l-18.1-37.5l-7-18.1l-0.3-0.7l-11.4,4.3
		c0,0-19.4,19.4-45.8,19.4c-21.7,0-38.5-13-44.2-17.7l-14.7-4l-0.7,0.3l0.3,0.3H388l-4.3,16.1l-12,25.1l-7.4,17.7c0,0,0,0,0.3,0.3
		h0.7c-7.7,21.7-15.1,49.5-15.7,77.3c0,0,20.4,19.4,99,19.7c78.6,0,99-19.7,99-19.7C546.2,388,538.9,360.2,531.2,338.5z"/>
	<path class="st5" d="M404,282.3l-15.4-3.7l-0.7,0.3l0.3,0.3h-0.7l-0.7,2.3c4.3,2.3,15.1,7.7,31.1,10.7L404,282.3z"/>
	<path class="st7" d="M448.9,309c-0.3,0-0.7,0-0.7,0c-3.3,0-32.4,0-52.5-19.1c-0.3-0.3-0.3-0.7,0-0.7c0.3-0.3,0.7-0.3,0.7,0
		c19.4,18.4,47.2,19.1,51.5,19.1l0,0h0.7l0,0c4.7,0,32.1-0.3,51.5-19.1c0.3-0.3,0.7-0.3,0.7,0c0.3,0.3,0.3,0.7,0,0.7
		C481.3,308,454.6,309,448.9,309z"/>
	<path class="st5" d="M531.5,338.5c0.3-0.3,0.3-0.3,0.7-0.7l-1.7-5l-18.1-37.5l-7-18.1l-0.3-0.7l-3,1l-8.4,3l-10,7.7
		c8.4-2,15.1-4,19.4-5.7c5,32.1,12,118.1-53.2,152.5c76.9-0.3,96.7-19.7,96.7-19.7c-0.7-27.4-8-55.2-15.7-77.3h0.7V338.5z"/>
	<path class="st9" d="M382.3,296.3c-3.3,3-13.7,29.1-18.1,40.8l0,0h0.7c-7.7,21.7-15.1,49.5-15.7,77.3c0,0,2.3,2,8,5
		C354.9,375.6,382.3,296.3,382.3,296.3z"/>
	<g>
		<path class="st7" d="M403.7,282.9c6.4,5.4,23.1,17.7,44.5,17.7l0,0l0,0c25.4,0,44.5-17.7,46.2-19.4l11.4-4.3l-0.7-1.3l-11.4,4.3
			c0,0-0.3,0-0.3,0.3c-0.3,0.3-19.7,19.1-45.5,19.1c-21.1,0-37.5-12.4-43.5-17.4H404l-16.4-4.3c-0.3,0-0.3,0-0.7,0l1.3,1.7
			L403.7,282.9z"/>
		<path class="st7" d="M533.2,338.1l-0.7-1.3c-9.4-24.1-19.4-40.8-19.4-40.8c0.3-0.7-0.3-0.7-0.7-0.7c-0.3,0.3-0.3,0.7-0.3,1
			c0,0.3,2.7,5,6.4,13c7.7,18.1,13.4,33.5,17.4,46.2c5,17.1,9,36.5,10,55.9c0,1.7-0.3,2.3-0.3,2.3c-24.1,15.7-77.9,19.1-113.7,19.4
			c-43.8-0.3-71.6-12-73.3-12.7c-5.4-2.7-8-4.7-8.7-5c1.3-58.2,33.5-118.4,33.8-118.7s0-0.7-0.3-1c-0.3-0.3-0.7,0-1,0.3
			c0,0-9.7,17.1-19.1,41.1l-0.7,1.3c-8.7,22.7-16.7,51.5-16.1,77.3l4.3,2.7c0.7,0.7,2,1.3,3,2l0,0l0,0c6.7,3.7,19.7,9,42.5,12.4l0,0
			l0,0c13.4,2,29.8,3.3,50.5,3.3l0,0h0.7l0,0c77.6,0,98-19.1,99-19.7l2.3-1.7C549.6,387.3,541.5,359.9,533.2,338.1z"/>
	</g>
	<g class="st10">
		<path class="st11" d="M448.2,376.6c-5.7,0-11.4-1.3-16.1-4c-7.7-4.7-12.7-12.4-13-20.7c-0.3-5.7,1.3-12,5-16.7
			c1.3-2,5-6.7,7.4-6.7l0,0c0.7,0,1,0.3,1.3,0.7c0.7,1.3,1.7,2.7,2.7,4c2.7,4,5,8,7,12.4c1.7,4,4.7,9,9.4,9.4
			c4,0.3,9.4-1.3,12.4-4.7c2-2.3,2.3-5.4,1.3-9c-2-0.3-12.7-2.7-15.7-11.7c-0.7-1-2-3-2.3-3.7v-0.3l0.3-0.3c0,0,1.7,0,4.7-1.7
			c1.3-0.7,4-0.3,6.7,0.7c2,0.7,4,2,5.4,3.7c0-1.7,0.3-4,1-5.7c0-0.7-0.7-3-2.7-4.3l-0.3-0.3c0-0.3,0.3-0.3,0.3-0.3s8.7-2,13,7.7
			l0,0c4,8.4-2.3,13.4-4.3,14.7c1,1.7,4.3,8.4,3.7,17.4c-1,10.4-10,15.7-15.4,18.1C456.2,375.9,452.2,376.6,448.2,376.6z
			 M431.5,329.4c-1.3,0-4.3,3.3-6.4,6.4c-3.3,4.7-5,10.7-4.7,16.1c0.3,8,5.4,15.4,12.7,19.7c7.4,4.3,18.7,5.4,26.8,2
			c5-2,14-7.4,14.7-17.1c0.7-9.7-3.7-17.1-4-17.1v-0.3c0,0,0-0.3,0.3-0.3c0.3-0.3,8.4-5,4.3-13.7l0,0c-3.3-7-8.7-7.4-11-7.4
			c1.7,1.7,2.3,4.3,2.3,4.3v0.3c-1.3,3-0.7,7.4-0.7,7.4c0,0.3,0,0.3-0.3,0.7c-0.3,0-0.3,0-0.7-0.3c-0.7-1.7-2.7-3.3-5.7-4.7
			c-2.3-1-4.7-1.3-5.7-0.7c-1.7,1-3.3,1.3-4,1.3c0.7,1,2,3,2,3l0,0c3,9.4,15.1,11,15.4,11c0.3,0,0.3,0,0.3,0.3c1.3,4,0.7,7.4-1.3,10
			c-3,4-8.7,5.4-13,5.4c-5.4-0.3-8.4-5.7-10.4-9.7c-2-4.3-4.3-8-7-12.4c-1-1.3-1.7-2.7-2.7-4C431.8,329.4,431.5,329.4,431.5,329.4
			L431.5,329.4z"/>
		<path class="st11" d="M450.9,345.2c-1.7,0-3-0.3-4.3-1c-2.7-1.7-3.3-4.7-3-7.4c0.3-2,1.7-3.7,3.3-4c2.7-0.7,3.3,2.3,4,4.3
			c0.3,0.7,0.3,1,0.7,1.7c1.3,3,5.4,4.7,8.4,3.7l0,0l0,0c0.3,0,0.7,0,0.7,0.3c0,0.3,0,0.7-0.3,0.7
			C457.6,343.8,454.2,345.2,450.9,345.2z M447.2,333.8h-0.3c-1.3,0.3-2.3,1.7-2.3,3.3c-0.3,2,0.3,5,2.7,6.4c2.7,1.7,6.4,1,9.4,0
			c-2.3-0.3-4.7-2-5.7-4.3c-0.3-0.3-0.3-1-0.7-1.7C449.2,335.5,448.5,333.8,447.2,333.8z"/>
		<path class="st11" d="M451.9,352.2c-0.7,0-1.3,0-2.3-0.3s-1.7-1-2-1.7c-0.3-0.7-0.3-1.3,0-2c0.3-0.7,0.7-1,1.3-1.3
			c1-0.3,2-0.3,3-0.3c0.3,0,0.7,0,1,0c1.3,0,2.3,0,3.7-0.3c2.7-0.3,2.7-1,2.7-1l0,0c0-0.3,0.3-0.3,0.7-0.3s0.3,0.3,0.3,0.7l0,0l0,0
			l0,0l0,0l0,0c-0.3,0.3-3,6-7.7,6.4C452.6,351.9,452.2,352.2,451.9,352.2z M450.9,347.2c-0.7,0-1,0-1.7,0.3c-0.3,0-0.7,0.3-0.7,0.7
			s0,1,0,1.3c0.3,0.7,0.7,1,1.3,1.3c0.7,0.3,1.7,0.3,2.7,0.3c2.7-0.3,5-2.7,6-4.3c-0.3,0-1,0.3-2,0.3c-1.3,0.3-2.3,0.3-3.7,0.3
			c-0.3,0-0.7,0-1,0C451.5,347.2,451.2,347.2,450.9,347.2z"/>
		<path class="st11" d="M432.5,343.8L432.5,343.8c-8-0.3-8.7-4.3-8.7-4.3c0-0.3,0-0.3,0.3-0.3c0.3,0,0.3,0,0.3,0.3c0,0,0.7,3.7,8,4
			C432.5,343.2,432.8,343.5,432.5,343.8C432.8,343.8,432.5,343.8,432.5,343.8z"/>
		<path class="st11" d="M439.2,362.2c-0.3,0-0.3,0-0.7,0c-2.3-0.3-4-2.7-5-5c0,0,0-0.3,0.3-0.3c0,0,0.3,0,0.3,0.3
			c1,2,2.3,4.3,4.3,4.7c1.3,0.3,2.7-0.3,3.7-2c0.7-1,1-1.7,0.7-2.7c-0.7-2-5.7-3-5.7-3c-0.3,0-0.3-0.3-0.3-0.3
			c0-0.3,0.3-0.3,0.3-0.3c0.3,0,5,0.7,6,3.3c0.3,1,0,2-1,3C441.8,361.6,440.5,362.2,439.2,362.2z"/>
		<path class="st11" d="M440.2,357.9L440.2,357.9c-0.7-0.7-2.7-1.3-3.3-1.7c-0.3,0-0.3-0.3-0.3-0.3c0-0.3,0.3-0.3,0.3-0.3
			c0.3,0,2.7,1,3.3,1.7C440.5,357.5,440.5,357.5,440.2,357.9C440.5,357.9,440.2,357.9,440.2,357.9z"/>
		<path class="st11" d="M467.3,334.5L467.3,334.5c-0.3,0-0.3-0.3-0.3-0.3c1-1.7,1-6.4,1-6.4c0-0.3,0-0.3,0.3-0.3
			c0.3,0,0.3,0,0.3,0.3C468.6,328.1,468.6,332.5,467.3,334.5C467.6,334.5,467.6,334.5,467.3,334.5z"/>
		<path class="st11" d="M469.6,336.1C469.3,336.1,469.3,336.1,469.6,336.1c-0.3-0.3-0.3-0.3-0.3-0.7c1.7-2,2.7-8,2.7-8
			c0-0.3,0.3-0.3,0.3-0.3c0.3,0,0.3,0.3,0.3,0.3C472.6,328.1,471.6,334.1,469.6,336.1L469.6,336.1z"/>
		<path class="st11" d="M464.3,334.5C464.3,334.5,463.9,334.5,464.3,334.5c-1.3-1.7-6-4.3-6-4.3s-0.3-0.3,0-0.3c0,0,0.3-0.3,0.3,0
			c0.3,0,5,2.7,6,4.3C464.6,334.1,464.6,334.5,464.3,334.5L464.3,334.5z"/>
		<path class="st11" d="M464.3,336.8L464.3,336.8c-2-1.3-6.7-3.3-6.7-3.3l-0.3-0.3l0.3-0.3c0.3,0,4.7,2,6.7,3.3
			C464.6,336.1,464.6,336.5,464.3,336.8C464.6,336.8,464.3,336.8,464.3,336.8z"/>
		<circle class="st11" cx="432.5" cy="337.5" r="1"/>
	</g>
</g>
</svg>
