<?xml version="1.0" encoding="utf-8"?>
<!-- Generator: Adobe Illustrator 21.0.0, SVG Export Plug-In . SVG Version: 6.00 Build 0)  -->
<svg version="1.1" id="圖層_1" xmlns="http://www.w3.org/2000/svg" xmlns:xlink="http://www.w3.org/1999/xlink" x="0px" y="0px"
	 viewBox="0 0 822.9 601.4" style="enable-background:new 0 0 822.9 601.4;" xml:space="preserve">
<style type="text/css">
	.st0{fill:#81A0B6;}
	.st1{fill:#5A7791;}
	.st2{fill:url(#SVGID_1_);}
	.st3{opacity:0.8;fill:#D59543;enable-background:new    ;}
	.st4{fill:#AB6C21;}
	.st5{fill:url(#SVGID_2_);}
	.st6{fill:#85ABCB;}
	.st7{fill:#59809A;}
</style>
<g>
	<path class="st0" d="M446,554.1c1.4,1.4,1.4,5.8,1.4,5.8s-0.7,10.6-6.2,14.7c-5.5,4.1-17.8,8.9-45.8,7.5
		c-28.4-1.4-35.2-7.2-35.2-7.2c-1.7-5.1-1-7.5-1-7.5s8.5-14,30.1-15C410.4,551.7,446,554.1,446,554.1z"/>
	<path class="st0" d="M407.7,580.7c-35.9,0-45.5-6.5-48.9-8.5c0.3,0.7,0.3,1.7,0.7,3.1c0,0,6.8,5.8,35.2,7.2
		c28.4,1.4,40.3-3.4,45.8-7.5c1.4-1,2.4-2.1,3.1-3.4C438.1,575.6,427.1,580.7,407.7,580.7z"/>
	<path class="st1" d="M407,583.1c-3.8,0-7.9,0-12.3-0.3c-28-1.7-34.9-7.5-35.2-7.9l0,0l0,0c-1.7-5.5-0.7-9.6-0.7-9.9l1,0.3
		c0,0-1,4.1,0.7,9.2c1,0.7,8.9,5.8,34.5,7.5c22.2,1.4,37.6-0.7,45.8-6.5c5.5-3.8,6.2-14.4,6.2-14.4c0-1,0-4.4-1-5.5l0.7-0.7
		c1.4,1.4,1.4,5.8,1.4,6.2s-1,10.9-6.8,15C434.3,580.7,422.7,583.1,407,583.1z"/>
	<path class="st0" d="M451.4,554.1c-1.4,1.4-1.4,5.8-1.4,5.8s0.7,10.6,6.2,14.7c5.5,4.1,17.8,8.9,45.8,7.5
		c28.4-1.4,35.2-7.2,35.2-7.2c1.7-5.1,1-7.5,1-7.5s-8.5-14-30.1-15C487,551.7,451.4,554.1,451.4,554.1z"/>
	<path class="st0" d="M489.4,580.7c35.9,0,45.5-6.5,48.9-8.5c-0.3,0.7-0.3,1.7-0.7,3.1c0,0-6.8,5.8-35.2,7.2
		c-28.4,1.4-40.3-3.4-45.8-7.5c-1.4-1-2.4-2.1-3.1-3.4C459.3,575.6,470.2,580.7,489.4,580.7z"/>
	<path class="st1" d="M490.4,583.1c3.8,0,7.9,0,12.3-0.3c28-1.7,34.9-7.5,35.2-7.9l0,0l0,0c1.7-5.5,0.7-9.6,0.7-9.9l-1,0.3
		c0,0,1,4.1-0.7,9.2c-1,0.7-8.9,5.8-34.5,7.5c-22.2,1.4-37.6-0.7-45.8-6.5c-5.5-3.8-6.2-14.4-6.2-14.4c0-1,0-4.4,1-5.5l-0.7-0.7
		c-1.4,1.4-1.4,5.8-1.4,6.2s1,10.9,6.8,15C463.1,580.7,474.3,583.1,490.4,583.1z"/>
</g>
<g>
	<linearGradient id="SVGID_1_" gradientUnits="userSpaceOnUse" x1="350.1397" y1="491.0172" x2="548.0869" y2="491.0172">
		<stop  offset="0" style="stop-color:#F2D397"/>
		<stop  offset="0.5331" style="stop-color:#F3D093"/>
		<stop  offset="0.7526" style="stop-color:#F5CC8F"/>
		<stop  offset="1" style="stop-color:#F3B699"/>
	</linearGradient>
	<path class="st2" d="M447.3,457.3L447.3,457.3c0.3,0,0.3,0,0.7,0C447.7,457.3,447.3,457.3,447.3,457.3l-0.3-3.8l-1-11.6L405.3,418
		L364.9,407l-12.3,5.1l-1,6.5l0.3,1.4c0.3,31.1,6.5,66,23.3,102.9v0.7c-7.5,4.8-17.1,13.7-18.1,27c-1.4,21.9,17.4,22.9,22.2,22.6
		h5.1c5.5,2.1,11.6,1.7,17.4,0l-0.3-0.3c3.4,1.7,7.9,2.4,12.7,2.1c0,0,19.1-0.3,25.3-8.5c6.2-8.2,6.2-15.7,7.5-40
		C448.7,501.7,447.3,457.3,447.3,457.3z"/>
	<path class="st3" d="M366.6,564.3c2.4-3.1,8.9-18.8,8.9-18.8c-5.5,12.7,0,20.2,0,20.2c3.8,3.4,12,0.3,12,0.3
		c-3.1-10.3,8.5-18.5,8.5-18.5c-7.9,11.6,0,19.5,0,19.5c35.2,6.5,49.2-15,49.2-15l0,0c-1,6.2-2.4,9.9-5.5,14
		c-6.2,8.2-25.3,8.5-25.3,8.5c-4.8,0.3-9.2-0.3-12.7-2.1l0.3,0.3c-5.8,2.1-12.3,2.1-17.4,0h-5.1c-3.4,0-14-0.3-19.5-8.5V564
		c0,0,0,0,0-0.3C360.1,564.3,364.6,567.1,366.6,564.3z"/>
	<path class="st3" d="M424.8,454.6c5.8,2.4,17.1,2.7,22.2,3.1l0,0l0,0c0,0,0,0.7,0,2.1l0,0l0,0c0.3,9.2,1.4,45.5,0.3,66.7
		c-0.3,8.5-0.7,14.7-1,19.8C447,505.8,424.8,454.6,424.8,454.6z"/>
	<path class="st4" d="M447.7,457.3c0-0.3-0.3-0.7-0.7-0.7l0,0c-0.3,0-0.7,0.3-0.7,0.7l0,0l0,0h-3.1c0,0,3.4,47.9,2.7,74.9
		c-1,19.5-1.7,26.3-7.2,33.5c-5.8,7.9-24.6,8.2-25,8.2c-6.5,0.7-17.4-0.3-20.5-13c-2.4-10.3,7.5-18.5,7.5-18.5c0.3-0.3,0.3-0.7,0-1
		s-0.7-0.3-1,0s-4.8,4.1-7.2,9.9l0,0c0,0-7.5,12.7,5.1,21.9c-4.8,1-9.2,0.7-13.3-0.3c0-0.3-0.3-0.3-0.7-0.3l0,0h-0.3
		c-1-0.3-1.7-0.7-2.4-1c-3.8-2.1-6.5-5.5-7.5-9.6c-3.8-13.3,5.8-21.2,6.2-21.5c0.3-0.3,0.3-0.7,0-1s-0.7-0.3-1,0
		c0,0-3.8,3.1-5.8,8.2l0,0c0,0,0,0.3-0.3,1c0,0,0,0,0,0.3c-1.4,3.8-5.1,17.1,2.7,23.6c-3.8-0.3-9.6-1.4-13.7-5.5
		c-3.8-3.8-5.5-9.2-5.1-16.4c0.7-13.3,10.9-22.2,18.5-27l-0.7-1c-17.1-38.3-22.9-74.2-22.9-105.3l1-2.7l-0.7-3.8l-1.7-0.7l-1,4.1
		c0,5.1,0.3,9.9,0.7,15c0,0,0.3,50.6,21.9,92c-5.5,4.1-25,21.9-11.6,43.1l0,0c0,0,0,0,0,0.3l0,0c0.7,1,1.7,2.4,2.4,3.1
		c5.5,5.5,13,6.2,16.4,6.2l0,0l0,0l0,0c0.3,0,0.7,0,1,0h4.8c2.7,1,5.5,1.4,8.5,1.4c3.1,0,6.2-0.3,9.2-1.4l0,0c2.7,1,5.8,1.7,9.2,1.7
		c1,0,1.7,0,2.7,0c0.7,0,19.8-0.7,26-8.9c6.2-7.9,6.5-15.4,7.5-38v-2.4C449.4,502.1,448,458,447.7,457.3z"/>
</g>
<g>
	<linearGradient id="SVGID_2_" gradientUnits="userSpaceOnUse" x1="350.4109" y1="490.6752" x2="547.8088" y2="490.6752">
		<stop  offset="0" style="stop-color:#F2D397"/>
		<stop  offset="0.5331" style="stop-color:#F3D093"/>
		<stop  offset="0.7526" style="stop-color:#F5CC8F"/>
		<stop  offset="1" style="stop-color:#F3B699"/>
	</linearGradient>
	<path class="st5" d="M523.6,523.3L523.6,523.3c17.4-38.3,23.6-74.2,23.6-106c0,0-0.3,0.3-0.7,0.3l-1-5.8l-12.3-5.1L493.5,418
		l-40.7,23.9l-1,11.6l-0.3,7.9l0.3,0.3c-0.3,11.6-1,44.8,0,64.3c1,24.3,1.4,32.1,7.5,40c6.2,8.2,25.3,8.5,25.3,8.5
		c4.8,0.3,9.2-0.3,12.7-2.1l-0.3,0.3c5.8,2.1,12.3,2.1,17.4,0h5.1c5.1,0.3,23.6-0.7,22.2-22.6C541,537,531.1,528.1,523.6,523.3z"/>
	<path class="st3" d="M532.1,564.3c-2.4-3.1-8.9-18.8-8.9-18.8c5.5,12.7,0,20.2,0,20.2c-3.8,3.4-12,0.3-12,0.3
		c3.1-10.3-8.5-18.5-8.5-18.5c7.9,11.6,0,19.5,0,19.5c-35.2,6.5-49.2-15-49.2-15l0,0c1,6.2,2.4,9.9,5.5,14
		c6.2,8.2,25.3,8.5,25.3,8.5c4.8,0.3,9.2-0.3,12.7-2.1l-0.3,0.3c5.8,2.1,12.3,2.1,17.4,0h5.1c3.4,0,14-0.3,19.5-8.5V564
		c0,0,0,0,0-0.3C539,564.3,534.5,567.1,532.1,564.3z"/>
	<path class="st3" d="M474.3,454.6c-5.8,2.4-17.1,2.7-22.2,3.1l0,0l0,0c0,0,0,0.7,0,2.1l0,0l0,0c-0.3,9.2-1.4,45.5-0.3,66.7
		c0.3,8.5,0.7,14.7,1,19.8C452.1,505.8,474.3,454.6,474.3,454.6z"/>
	<path class="st4" d="M550.3,414.5l-0.3-1l-0.3-0.3h-1l-1.7,0.3l-0.3,2.4v2.1c0,30.8-5.8,66.7-22.9,104.3l-0.7,1
		c7.5,4.8,17.4,13.7,18.5,27c0.3,7.2-1.4,12.7-5.1,16.4c-4.1,4.1-9.9,5.5-13.7,5.5c7.9-6.5,4.4-19.5,2.7-23.6c0-0.3,0-0.3-0.3-0.7
		l0,0v-0.3l0,0l0,0c-2.1-5.5-5.8-8.2-5.8-8.2c-0.3-0.3-0.7-0.3-1,0c-0.3,0.3-0.3,0.7,0,1c0.3,0.3,9.9,7.9,6.2,21.5
		c-1,4.1-3.8,7.5-7.5,9.6c-0.7,0.3-1.7,0.7-2.4,1H514c-0.3,0-0.3,0-0.7,0.3c-4.1,1.4-8.9,1.4-13.3,0.3c12.7-9.2,5.1-21.9,5.1-21.9
		l0,0c-2.4-5.8-6.8-9.6-7.2-9.9c-0.3-0.3-0.7-0.3-1,0c-0.3,0.3-0.3,0.7,0,1c0,0,9.9,8.5,7.5,18.5c-3.1,12.7-14,13.7-20.5,13
		c-0.3,0-19.1-0.7-25-8.2c-5.5-7.2-6.2-14.4-7.2-33.5c-0.7-27,2.7-74.9,2.7-74.9h-3.1c0-0.3-0.3-0.7-0.7-0.7l0,0
		c-0.3,0-0.7,0.3-0.7,0.7c0,0.3-1.4,44.8-0.3,68.7v2.4c1,22.6,1.4,30.1,7.5,38c6.2,8.2,25,8.9,26,8.9s2.1,0,2.7,0
		c3.4,0,6.5-0.7,9.2-1.7l0,0c3.1,1,6.2,1.4,9.2,1.4c3.1,0,5.8-0.3,8.5-1.4h4.8c0.3,0,0.7,0,1,0c3.4,0,11.3-0.7,16.4-6.2
		c1-1,1.7-2.1,2.4-3.1l0,0l0,0l0,0c13.3-21.2-6.5-39-12-43.1c21.2-41.7,21.9-92,21.9-92C549.9,424.1,550.3,419.3,550.3,414.5z"/>
</g>
<g>
	<path class="st6" d="M444.2,544.5c-1.4-3.4-5.1-11.3-20.5-12.7c-13.7-1-23.9,9.2-23.9,9.2v0.3c-0.3-0.3-1-0.3-1.7-0.3
		c-0.3,0-0.3,0-0.7,0l0,0c0,0-14.7-15.7-31.8-10.9c0,0-2.4,0.7-2.4,1.4c-0.3,2.4,4.4,1.4,6.2,1c5.1-0.7,12.7-1.7,25.6,10.6l0,0
		c-0.3,1,0,2.1,0.7,3.1c1,2.7,1.7,2.1,1.7,2.1s2.7-2.7,4.1-3.8c0,0,0-0.7,0-1l0,0c13.7-10.9,25.3-9.2,32.8-5.1
		c9.9,5.5,10.3,24.6,10.3,24.6c1.4,3.1,1.4-3.4,1.4-4.1C446.6,551.7,444.2,544.5,444.2,544.5z"/>
	<path class="st7" d="M396.7,548.6L396.7,548.6c-0.7,0-1.4-0.7-2.1-2.4c-0.7-1.7-1-3.4-0.3-4.4c0.7-1,1.7-1.4,3.4-1.4
		c1.4,0,2.4,0.3,2.7,1c1,1,1,2.7,1,2.7v0.3h-0.3c-1.4,1-3.8,3.8-4.1,3.8C397.4,548.6,397.1,548.6,396.7,548.6z M396.7,547.6
		L396.7,547.6L396.7,547.6z M398.1,541.4L398.1,541.4c-1.4,0-2.4,0.3-2.7,1c-0.7,1,0,2.4,0.3,3.4c0.7,1.4,1,1.7,1,1.7
		c0.3-0.3,2.7-2.7,4.1-3.8c0-0.3,0-1-0.7-1.7C399.8,541.8,399.1,541.4,398.1,541.4z"/>
	<path class="st7" d="M394.3,543.1c-12.7-12-20.2-10.9-25-10.3H369c-0.3,0-0.7,0-1,0c-1.7,0.3-4.1,0.7-5.1-0.3
		c-0.3-0.3-0.7-0.7-0.3-1.4c0-1.4,2.4-1.7,2.7-2.1c17.4-4.8,32.1,10.9,32.5,11.3l-0.7,0.7c0,0-14.7-15.4-31.5-10.9
		c-1,0.3-2.1,0.7-2.1,1s0,0.7,0,0.7c0.7,0.7,3.1,0.3,4.4,0c0.3,0,0.7,0,1,0h0.3c5.1-0.7,12.7-1.7,26,10.6L394.3,543.1z"/>
	<path class="st7" d="M444.9,564c-0.7,0-1-0.7-1-1v-0.3c0-0.3-0.7-19.1-10.3-24.3c-6.8-3.8-18.1-6.2-32.1,5.1l-0.7-0.7
		c15-12.3,27.4-8.5,33.2-5.1c9.6,5.5,10.6,23.3,10.6,25c0,0,0,0,0,0.3c0-0.3,0.3-1.4,0.3-3.8c0-0.3,0-0.7,0-0.7
		c0.7-6.5-1.4-13.7-1.4-13.7c-1-2.7-4.4-10.9-20.2-12.3c-13-1-23.6,8.9-23.6,8.9l-0.7-0.7c0,0,10.9-10.6,24.3-9.2
		c16.1,1.4,19.8,10.3,20.9,13c0,0.3,2.4,7.2,1.7,14c0,0,0,0.3,0,0.7C446,562.6,446,563.6,444.9,564L444.9,564z"/>
</g>
<g>
	<path class="st6" d="M453.1,544.5c1.4-3.4,5.1-11.3,20.5-12.7c13.7-1,23.9,9.2,23.9,9.2v0.3c0.3-0.3,1-0.3,1.7-0.3
		c0.3,0,0.3,0,0.7,0l0,0c0,0,14.7-15.7,31.8-10.9c0,0,2.4,0.7,2.4,1.4c0.3,2.4-4.4,1.4-6.2,1c-5.1-0.7-12.7-1.7-25.6,10.6l0,0
		c0.3,1,0,2.1-0.7,3.1c-1,2.7-1.7,2.1-1.7,2.1s-2.7-2.7-4.1-3.8c0,0,0-0.7,0-1l0,0c-13.7-10.9-25.3-9.2-32.8-5.1
		c-9.9,5.5-10.3,24.6-10.3,24.6c-1.4,3.1-1.4-3.4-1.4-4.1C450.7,551.7,453.1,544.5,453.1,544.5z"/>
	<path class="st7" d="M500,548.3c-0.3-0.3-2.7-2.7-4.1-3.8h-0.3v-0.3c0,0,0-1.7,1-2.7c0.7-0.7,1.7-1,2.7-1c1.7,0,2.7,0.7,3.4,1.4
		c0.7,1,0.7,2.4-0.3,4.4c-0.7,1.4-1.4,2.4-2.1,2.4l0,0C500.3,548.6,500,548.6,500,548.3z M500.7,547.6L500.7,547.6L500.7,547.6z
		 M497.2,542.1c-0.7,0.7-0.7,1.4-0.7,1.7c1.4,1,3.4,3.1,4.1,3.8c0,0,0.3-0.3,1-1.7c0.3-1,1-2.4,0.3-3.4c-0.3-0.7-1.4-1-2.4-1
		c0,0,0,0-0.3,0C498.3,541.4,497.6,541.8,497.2,542.1z"/>
	<path class="st7" d="M503.1,543.1c12.7-12,20.2-10.9,25-10.3h0.3c0.3,0,0.7,0,1,0c1.7,0.3,4.1,0.7,5.1-0.3c0.3-0.3,0.7-0.7,0.3-1.4
		c0-1.4-2.4-1.7-2.7-2.1c-17.4-4.8-32.1,10.9-32.5,11.3l0.7,0.7c0,0,14.7-15.4,31.5-10.9c1,0.3,2.1,0.7,2.1,1s0,0.7,0,0.7
		c-0.7,0.7-3.1,0.3-4.4,0c-0.3,0-0.7,0-1,0H528c-5.1-0.7-12.7-1.7-26,10.6L503.1,543.1z"/>
	<path class="st7" d="M452.5,564c0.7,0,1-0.7,1-1v-0.3c0-0.3,0.7-19.1,10.3-24.3c6.8-3.8,18.1-6.2,32.1,5.1l0.7-0.7
		c-15-12.3-27.4-8.5-33.2-5.1c-9.6,5.5-10.6,23.3-10.6,25c0,0,0,0,0,0.3c0-0.3-0.3-1.4-0.3-3.8c0-0.3,0-0.7,0-0.7
		c-0.7-6.5,1.4-13.7,1.4-13.7c1-2.7,4.4-10.9,20.2-12.3c13-1,23.6,8.9,23.6,8.9l0.7-0.7c0,0-10.9-10.6-24.3-9.2
		c-16.1,1.4-19.8,10.3-20.9,13c0,0.3-2.4,7.2-1.7,14c0,0,0,0.3,0,0.7C451.1,562.6,451.4,563.6,452.5,564L452.5,564z"/>
</g>
</svg>
