<?xml version="1.0" encoding="utf-8"?>
<!-- Generator: Adobe Illustrator 21.0.0, SVG Export Plug-In . SVG Version: 6.00 Build 0)  -->
<svg version="1.1" id="圖層_1" xmlns="http://www.w3.org/2000/svg" xmlns:xlink="http://www.w3.org/1999/xlink" x="0px" y="0px"
	 viewBox="0 0 109 113.2" style="enable-background:new 0 0 109 113.2;" xml:space="preserve">
<style type="text/css">
	.st0{opacity:0.5;fill:#1165AF;}
	.st1{opacity:0.76;fill:url(#SVGID_1_);}
	.st2{opacity:0.76;fill:url(#SVGID_2_);}
	.st3{opacity:0.76;fill:url(#SVGID_3_);}
	.st4{opacity:0.76;fill:url(#SVGID_4_);}
	.st5{opacity:0.76;fill:url(#SVGID_5_);}
	.st6{opacity:0.76;fill:url(#SVGID_6_);}
	.st7{opacity:0.54;fill:url(#SVGID_7_);}
	.st8{opacity:0.54;fill:url(#SVGID_8_);}
	.st9{opacity:0.54;fill:url(#SVGID_9_);}
	.st10{opacity:0.54;fill:url(#SVGID_10_);}
	.st11{opacity:0.55;fill:url(#SVGID_11_);}
	.st12{opacity:0.55;fill:url(#SVGID_12_);}
	.st13{opacity:0.55;fill:url(#SVGID_13_);}
	.st14{opacity:0.55;fill:url(#SVGID_14_);}
	.st15{display:none;opacity:0.71;fill:url(#SVGID_15_);}
	.st16{display:none;opacity:0.71;fill:url(#SVGID_16_);}
	.st17{opacity:0.22;fill:#4290CD;}
	.st18{fill:none;stroke:#FFFFFF;stroke-miterlimit:10;}
	.st19{fill:none;}
	.st20{fill:#FFFFFF;}
	.st21{font-family:'MicrosoftJhengHeiBold';}
	.st22{font-size:14.8589px;}
	.st23{fill:url(#SVGID_17_);}
	.st24{fill:url(#SVGID_18_);}
	.st25{fill:url(#SVGID_19_);}
	.st26{fill:url(#SVGID_20_);}
	.st27{fill:url(#SVGID_21_);}
	.st28{fill:url(#SVGID_22_);}
	.st29{fill:url(#SVGID_23_);}
	.st30{fill:url(#SVGID_24_);}
</style>
<g id="等級說明">
	<g>
		<path class="st0" d="M100.5,113H8.7c-4.5,0-8.2-3.7-8.2-8.2V8.7c0-4.5,3.7-8.2,8.2-8.2h91.7c4.5,0,8.2,3.7,8.2,8.2v96.1
			C108.7,109.3,105,113,100.5,113z"/>
		<g>
			<radialGradient id="SVGID_1_" cx="59.4454" cy="66.3295" r="105.7487" gradientUnits="userSpaceOnUse">
				<stop  offset="0.5568" style="stop-color:#FFFFFF;stop-opacity:0"/>
				<stop  offset="1" style="stop-color:#FFFFFF"/>
			</radialGradient>
			<path class="st1" d="M100.4,113H8.6c-4.5,0-8.2-3.7-8.2-8.2V8.7c0-4.5,3.7-8.2,8.2-8.2h91.7c4.5,0,8.2,3.7,8.2,8.2v96.1
				C108.6,109.3,104.9,113,100.4,113z"/>
			<linearGradient id="SVGID_2_" gradientUnits="userSpaceOnUse" x1="52.0232" y1="56.7374" x2="-6.7536" y2="56.7374">
				<stop  offset="0.5568" style="stop-color:#FFFFFF;stop-opacity:0"/>
				<stop  offset="1" style="stop-color:#FFFFFF"/>
			</linearGradient>
			<path class="st2" d="M100.4,113H8.6c-4.5,0-8.2-3.7-8.2-8.2V8.7c0-4.5,3.7-8.2,8.2-8.2h91.7c4.5,0,8.2,3.7,8.2,8.2v96.1
				C108.6,109.3,104.9,113,100.4,113z"/>
			<linearGradient id="SVGID_3_" gradientUnits="userSpaceOnUse" x1="54.4972" y1="50.0715" x2="54.4972" y2="-6.0937">
				<stop  offset="0.5568" style="stop-color:#FFFFFF;stop-opacity:0"/>
				<stop  offset="1" style="stop-color:#FFFFFF"/>
			</linearGradient>
			<path class="st3" d="M100.4,113H8.6c-4.5,0-8.2-3.7-8.2-8.2V8.7c0-4.5,3.7-8.2,8.2-8.2h91.7c4.5,0,8.2,3.7,8.2,8.2v96.1
				C108.6,109.3,104.9,113,100.4,113z"/>
			<linearGradient id="SVGID_4_" gradientUnits="userSpaceOnUse" x1="62.2728" y1="56.7374" x2="116.0519" y2="56.7374">
				<stop  offset="0.5568" style="stop-color:#FFFFFF;stop-opacity:0"/>
				<stop  offset="1" style="stop-color:#FFFFFF"/>
			</linearGradient>
			<path class="st4" d="M100.4,113H8.6c-4.5,0-8.2-3.7-8.2-8.2V8.7c0-4.5,3.7-8.2,8.2-8.2h91.7c4.5,0,8.2,3.7,8.2,8.2v96.1
				C108.6,109.3,104.9,113,100.4,113z"/>
			<linearGradient id="SVGID_5_" gradientUnits="userSpaceOnUse" x1="54.4972" y1="75.8724" x2="54.4972" y2="114.0581">
				<stop  offset="0.5568" style="stop-color:#FFFFFF;stop-opacity:0"/>
				<stop  offset="1" style="stop-color:#FFFFFF"/>
			</linearGradient>
			<path class="st5" d="M100.4,113H8.6c-4.5,0-8.2-3.7-8.2-8.2V8.7c0-4.5,3.7-8.2,8.2-8.2h91.7c4.5,0,8.2,3.7,8.2,8.2v96.1
				C108.6,109.3,104.9,113,100.4,113z"/>
			<radialGradient id="SVGID_6_" cx="76.4102" cy="139.4909" r="134.3998" gradientUnits="userSpaceOnUse">
				<stop  offset="0.1784" style="stop-color:#FFFFFF;stop-opacity:0"/>
				<stop  offset="1" style="stop-color:#7ECFDE"/>
			</radialGradient>
			<path class="st6" d="M100.4,113H8.6c-4.5,0-8.2-3.7-8.2-8.2V8.7c0-4.5,3.7-8.2,8.2-8.2h91.7c4.5,0,8.2,3.7,8.2,8.2v96.1
				C108.6,109.3,104.9,113,100.4,113z"/>
		</g>
		<g>
			<radialGradient id="SVGID_7_" cx="16.3807" cy="25.5734" r="112.5394" gradientUnits="userSpaceOnUse">
				<stop  offset="0.5568" style="stop-color:#00ADEE;stop-opacity:0"/>
				<stop  offset="1" style="stop-color:#8F5FA6"/>
			</radialGradient>
			<path class="st7" d="M100.4,113H8.6c-4.5,0-8.2-3.7-8.2-8.2V8.7c0-4.5,3.7-8.2,8.2-8.2h91.7c4.5,0,8.2,3.7,8.2,8.2v96.1
				C108.6,109.3,104.9,113,100.4,113z"/>
			<linearGradient id="SVGID_8_" gradientUnits="userSpaceOnUse" x1="54.4972" y1="68.8036" x2="54.4972" y2="118.286">
				<stop  offset="0.5719" style="stop-color:#00ADEE;stop-opacity:0"/>
				<stop  offset="1" style="stop-color:#8F5FA6"/>
			</linearGradient>
			<path class="st8" d="M100.4,113H8.6c-4.5,0-8.2-3.7-8.2-8.2V8.7c0-4.5,3.7-8.2,8.2-8.2h91.7c4.5,0,8.2,3.7,8.2,8.2v96.1
				C108.6,109.3,104.9,113,100.4,113z"/>
			<linearGradient id="SVGID_9_" gradientUnits="userSpaceOnUse" x1="64.7469" y1="56.7374" x2="115.3364" y2="56.7374">
				<stop  offset="0.5719" style="stop-color:#00ADEE;stop-opacity:0"/>
				<stop  offset="1" style="stop-color:#8F5FA6"/>
			</linearGradient>
			<path class="st9" d="M100.4,113H8.6c-4.5,0-8.2-3.7-8.2-8.2V8.7c0-4.5,3.7-8.2,8.2-8.2h91.7c4.5,0,8.2,3.7,8.2,8.2v96.1
				C108.6,109.3,104.9,113,100.4,113z"/>
			<linearGradient id="SVGID_10_" gradientUnits="userSpaceOnUse" x1="54.4972" y1="51.1318" x2="54.4972" y2="-16.3828">
				<stop  offset="0.5719" style="stop-color:#00ADEE;stop-opacity:0"/>
				<stop  offset="1" style="stop-color:#8F5FA6"/>
			</linearGradient>
			<path class="st10" d="M100.4,113H8.6c-4.5,0-8.2-3.7-8.2-8.2V8.7c0-4.5,3.7-8.2,8.2-8.2h91.7c4.5,0,8.2,3.7,8.2,8.2v96.1
				C108.6,109.3,104.9,113,100.4,113z"/>
		</g>
		<linearGradient id="SVGID_11_" gradientUnits="userSpaceOnUse" x1="51.1942" y1="60.0405" x2="2.6888" y2="108.5458">
			<stop  offset="0.5568" style="stop-color:#00ADEE;stop-opacity:0"/>
			<stop  offset="1" style="stop-color:#AAE0F9"/>
		</linearGradient>
		<path class="st11" d="M100.4,113H8.6c-4.5,0-8.2-3.7-8.2-8.2V8.7c0-4.5,3.7-8.2,8.2-8.2h91.7c4.5,0,8.2,3.7,8.2,8.2v96.1
			C108.6,109.3,104.9,113,100.4,113z"/>
		<radialGradient id="SVGID_12_" cx="57.6782" cy="55.373" r="82.5105" gradientUnits="userSpaceOnUse">
			<stop  offset="0.5568" style="stop-color:#00ADEE;stop-opacity:0"/>
			<stop  offset="1" style="stop-color:#AAE0F9"/>
		</radialGradient>
		<path class="st12" d="M100.4,113H8.6c-4.5,0-8.2-3.7-8.2-8.2V8.7c0-4.5,3.7-8.2,8.2-8.2h91.7c4.5,0,8.2,3.7,8.2,8.2v96.1
			C108.6,109.3,104.9,113,100.4,113z"/>
		<radialGradient id="SVGID_13_" cx="60.8591" cy="56.4333" r="98.6395" gradientUnits="userSpaceOnUse">
			<stop  offset="0.5568" style="stop-color:#00ADEE;stop-opacity:0"/>
			<stop  offset="1" style="stop-color:#AAE0F9"/>
		</radialGradient>
		<path class="st13" d="M100.4,113H8.6c-4.5,0-8.2-3.7-8.2-8.2V8.7c0-4.5,3.7-8.2,8.2-8.2h91.7c4.5,0,8.2,3.7,8.2,8.2v96.1
			C108.6,109.3,104.9,113,100.4,113z"/>
		<linearGradient id="SVGID_14_" gradientUnits="userSpaceOnUse" x1="54.4972" y1="52.1921" x2="54.4972" y2="-6.7731">
			<stop  offset="0.5568" style="stop-color:#00ADEE;stop-opacity:0"/>
			<stop  offset="1" style="stop-color:#AAE0F9"/>
		</linearGradient>
		<path class="st14" d="M100.4,113H8.6c-4.5,0-8.2-3.7-8.2-8.2V8.7c0-4.5,3.7-8.2,8.2-8.2h91.7c4.5,0,8.2,3.7,8.2,8.2v96.1
			C108.6,109.3,104.9,113,100.4,113z"/>
		<radialGradient id="SVGID_15_" cx="69.0456" cy="13.36" r="44.6495" gradientUnits="userSpaceOnUse">
			<stop  offset="6.486510e-02" style="stop-color:#FFFFFF;stop-opacity:0"/>
			<stop  offset="0.1216" style="stop-color:#FFFFFF;stop-opacity:0.1216"/>
			<stop  offset="1" style="stop-color:#FFFFFF"/>
		</radialGradient>
		<path class="st15" d="M101.8,0.5H7.2c-0.4,0-0.7,0-1.1,0.1c13.3,0.2,40.5,5,67.8,2.2c33.9-3.5,31.6,21.3,31.6,21.3l3.1,52V7.3
			C108.6,3.5,105.5,0.5,101.8,0.5z"/>
		<radialGradient id="SVGID_16_" cx="64.0926" cy="114.8954" r="94.3572" gradientUnits="userSpaceOnUse">
			<stop  offset="6.486510e-02" style="stop-color:#FFFFFF;stop-opacity:0"/>
			<stop  offset="0.1216" style="stop-color:#FFFFFF;stop-opacity:0.1216"/>
			<stop  offset="1" style="stop-color:#FFFFFF"/>
		</radialGradient>
		<path class="st16" d="M7.2,113.1h94.6c0.4,0,0.7,0,1.1-0.1c-13.3-0.2-40.5-5-67.8-2.2C1.2,114.2,3.5,89.5,3.5,89.5l-3.1-52v68.8
			C0.4,110,3.5,113.1,7.2,113.1z"/>
		<path class="st17" d="M100.5,113H8.7c-4.5,0-8.2-3.7-8.2-8.2V8.7c0-4.5,3.7-8.2,8.2-8.2h91.7c4.5,0,8.2,3.7,8.2,8.2v96.1
			C108.7,109.3,105,113,100.5,113z"/>
		<path class="st18" d="M100.5,113H8.7c-4.5,0-8.2-3.7-8.2-8.2V8.7c0-4.5,3.7-8.2,8.2-8.2h91.7c4.5,0,8.2,3.7,8.2,8.2v96.1
			C108.7,109.3,105,113,100.5,113z"/>
	</g>
	<rect x="-9.8" y="83.6" class="st19" width="128.5" height="43.6"/>
	<text transform="matrix(1 0 0 1 24.7799 96.8707)" class="st20 st21 st22">遊戲說明</text>
	<g>
		<radialGradient id="SVGID_17_" cx="58.1965" cy="7.7192" r="48.912" gradientUnits="userSpaceOnUse">
			<stop  offset="0" style="stop-color:#00ADEE"/>
			<stop  offset="1" style="stop-color:#FFFFFF"/>
		</radialGradient>
		<path class="st23" d="M38.2,40c1.3,0,2.6,0,3.8,0c1.2,0,2.1,0.5,2.8,1.4c0.3,0.4,0.7,0.6,1.3,0.6c5.6,0,11.2,0,16.8,0
			c0.6,0,1-0.2,1.3-0.7c0.7-0.9,1.6-1.4,2.7-1.4c2.6,0,5.2,0,7.8,0c1.8,0,3.3,1.3,3.7,3.2c1.4,6.6,2.8,13.3,4.2,19.9
			c0.2,1.2,0.6,2.4,0.7,3.6c0.3,3.2-1.6,6-4.4,6.5c-1.6,0.3-3.3,0.3-4.8-0.2c-1.8-0.6-3-1.9-3.8-3.6c-0.4-0.9-0.8-1.8-1.1-2.7
			c-1-2.3-2.6-4-5-4.7c-0.6-0.2-1.2-0.3-1.8-0.3c-5,0-10,0-15,0c-2.9,0-5,1.2-6.5,3.6c-0.7,1-1.1,2.2-1.6,3.4
			c-0.5,1.3-1.1,2.5-2.2,3.4c-1.1,0.9-2.4,1.5-3.9,1.4c-1,0-1.9,0.1-2.9-0.1c-2.4-0.5-3.7-2.1-4.3-4.4c-0.3-1.3-0.1-2.5,0.2-3.8
			c0.8-3.8,1.6-7.6,2.4-11.5c0.7-3.5,1.5-6.9,2.2-10.4c0.4-1.9,2-3.1,3.9-3.1C35.7,40,37,40,38.2,40C38.2,40,38.2,40,38.2,40z
			 M43.6,53.6c0-2.7-2.2-5.1-5-5.1c-2.8,0-5,2.2-5.1,5c0,2.8,2.2,5,5,5.1C41.4,58.6,43.6,56.4,43.6,53.6z M54.5,49.5
			c2.2,0,4.3,0,6.5,0c1.2,0,2.3-0.7,2.7-1.9c0.2-0.6,0.2-1.3,0.2-2c0-0.6-0.5-1-1.1-1c-0.6,0-1.1,0.3-1.2,0.9c-0.1,0.3,0,0.5,0,0.8
			c0,0.8-0.1,0.9-0.9,0.9c-4,0-8.1,0-12.1,0c-0.1,0-0.2,0-0.3,0c-0.4,0-0.6-0.2-0.6-0.6c0-0.3,0-0.6,0-0.8c0-0.6-0.4-1.1-1-1.2
			c-0.7-0.1-1.2,0.3-1.3,0.9c-0.1,0.3,0,0.7,0,1c0,1.7,1.2,3,3,3C50.2,49.5,52.4,49.5,54.5,49.5z M70.2,52c1.1,0,2.1-0.9,2.1-2
			c0-1.2-0.9-2.1-2.1-2.2c-1,0-2.1,0.8-2.1,2.2C68.1,50.9,69,52.1,70.2,52z M72.1,53.9c0,1.1,0.9,2.1,2.1,2.1c1.2,0,2.1-0.9,2.1-2.1
			c0-1.1-1-2.1-2.1-2.1C73,51.8,72.1,52.8,72.1,53.9z M64.2,53.9c0,1.1,0.9,2.1,2.1,2.1c1.2,0,2.1-0.9,2.1-2.1
			c0-1.1-0.9-2.1-2.1-2.1C65.2,51.8,64.2,52.7,64.2,53.9z M70.3,55.8c-1.2,0-2.1,0.9-2.1,2c0,1.2,0.9,2.1,2,2.1c1.2,0,2.1-0.9,2.1-2
			C72.3,56.7,71.4,55.8,70.3,55.8z"/>
		<radialGradient id="SVGID_18_" cx="55.6212" cy="4.9628" r="34.076" gradientUnits="userSpaceOnUse">
			<stop  offset="0" style="stop-color:#00ADEE"/>
			<stop  offset="1" style="stop-color:#FFFFFF"/>
		</radialGradient>
		<path class="st24" d="M64.9,33.2c-0.3-0.2-0.5-0.3-0.8-0.5c-2-1.9-4.2-3.1-6.9-3.6c-4.8-0.9-8.9,0.4-12.4,3.7
			c-0.3,0.3-0.7,0.5-1.2,0.3c-0.4-0.1-0.6-0.5-0.7-0.9c0-0.4,0.2-0.7,0.4-1c2-2,4.4-3.4,7.2-4c5.7-1.3,10.7,0,14.9,4
			c0.3,0.3,0.5,0.6,0.4,1C65.9,32.8,65.5,33.1,64.9,33.2z"/>
		<radialGradient id="SVGID_19_" cx="55.6212" cy="4.9623" r="34.0764" gradientUnits="userSpaceOnUse">
			<stop  offset="0" style="stop-color:#00ADEE"/>
			<stop  offset="1" style="stop-color:#FFFFFF"/>
		</radialGradient>
		<path class="st25" d="M54.6,33.4c2.5,0,4.6,0.9,6.3,2.6c0.5,0.5,0.6,1.1,0.1,1.5c-0.4,0.4-1,0.4-1.5-0.1c-2.4-2.2-5-2.6-8-1.4
			c-0.7,0.3-1.3,0.8-1.9,1.2c-0.3,0.2-0.6,0.4-0.9,0.5c-0.4,0.1-0.8-0.2-1-0.6c-0.2-0.4-0.1-0.8,0.2-1.2c0.4-0.4,0.8-0.8,1.3-1.1
			c1.3-0.9,2.8-1.4,4.4-1.6C54,33.4,54.3,33.4,54.6,33.4z"/>
		<radialGradient id="SVGID_20_" cx="38.1783" cy="21.3397" r="41.4857" gradientUnits="userSpaceOnUse">
			<stop  offset="0" style="stop-color:#00ADEE"/>
			<stop  offset="1" style="stop-color:#FFFFFF"/>
		</radialGradient>
		<path class="st26" d="M43.6,53.6c0,2.8-2.3,5-5.1,5c-2.8,0-5-2.3-5-5.1c0-2.8,2.3-5,5.1-5C41.4,48.5,43.7,50.9,43.6,53.6z
			 M35.9,53.6c0,1.5,1.2,2.7,2.7,2.7c1.5,0,2.7-1.3,2.7-2.7c0-1.5-1.3-2.7-2.7-2.7C37.1,50.9,35.9,52.1,35.9,53.6z"/>
		<path class="st20" d="M54.5,49.5c-2.1,0-4.2,0-6.3,0c-1.7,0-3-1.3-3-3c0-0.3,0-0.7,0-1c0.1-0.7,0.6-1,1.3-0.9c0.6,0.1,1,0.6,1,1.2
			c0,0.3,0,0.6,0,0.8c0,0.4,0.2,0.6,0.6,0.6c0.1,0,0.2,0,0.3,0c4,0,8.1,0,12.1,0c0.8,0,0.9-0.1,0.9-0.9c0-0.3,0-0.5,0-0.8
			c0.1-0.6,0.6-0.9,1.2-0.9c0.6,0,1.1,0.4,1.1,1c0,0.7,0,1.4-0.2,2c-0.3,1.2-1.4,1.9-2.7,1.9C58.8,49.5,56.6,49.5,54.5,49.5z"/>
		<radialGradient id="SVGID_21_" cx="74.4312" cy="25.4667" r="38.8339" gradientUnits="userSpaceOnUse">
			<stop  offset="0" style="stop-color:#00ADEE"/>
			<stop  offset="1" style="stop-color:#FFFFFF"/>
		</radialGradient>
		<path class="st27" d="M70.2,52c-1.2,0.1-2.1-1.2-2.1-2c0-1.4,1.1-2.2,2.1-2.2c1.2,0,2.1,1,2.1,2.2C72.3,51.1,71.3,52.1,70.2,52z"
			/>
		<radialGradient id="SVGID_22_" cx="74.4312" cy="25.4673" r="38.8331" gradientUnits="userSpaceOnUse">
			<stop  offset="0" style="stop-color:#00ADEE"/>
			<stop  offset="1" style="stop-color:#FFFFFF"/>
		</radialGradient>
		<path class="st28" d="M72.1,53.9c0-1.1,0.9-2.1,2.1-2.1c1.1,0,2.1,0.9,2.1,2.1c0,1.2-0.9,2.1-2.1,2.1C73,56,72.1,55,72.1,53.9z"/>
		<radialGradient id="SVGID_23_" cx="74.4312" cy="25.4669" r="38.8335" gradientUnits="userSpaceOnUse">
			<stop  offset="0" style="stop-color:#00ADEE"/>
			<stop  offset="1" style="stop-color:#FFFFFF"/>
		</radialGradient>
		<path class="st29" d="M64.2,53.9c0-1.1,0.9-2.1,2-2.1c1.2,0,2.1,0.9,2.1,2.1c0,1.2-0.9,2.1-2.1,2.1C65.2,56,64.2,55,64.2,53.9z"/>
		<radialGradient id="SVGID_24_" cx="74.4312" cy="25.467" r="38.8334" gradientUnits="userSpaceOnUse">
			<stop  offset="0" style="stop-color:#00ADEE"/>
			<stop  offset="1" style="stop-color:#FFFFFF"/>
		</radialGradient>
		<path class="st30" d="M70.3,55.8c1.2,0,2.1,0.9,2,2.1c0,1.2-0.9,2.1-2.1,2c-1.2,0-2-0.9-2-2.1C68.2,56.6,69.1,55.7,70.3,55.8z"/>
		<path class="st20" d="M35.9,53.6c0-1.5,1.2-2.7,2.7-2.7c1.4,0,2.7,1.2,2.7,2.7c0,1.5-1.2,2.8-2.7,2.7
			C37.1,56.3,35.9,55.1,35.9,53.6z"/>
	</g>
</g>
</svg>
