<?xml version="1.0" encoding="utf-8"?>
<!-- Generator: Adobe Illustrator 21.0.0, SVG Export Plug-In . SVG Version: 6.00 Build 0)  -->
<svg version="1.1" id="圖層_1" xmlns="http://www.w3.org/2000/svg" xmlns:xlink="http://www.w3.org/1999/xlink" x="0px" y="0px"
	 viewBox="0 0 46.2 46.2" style="enable-background:new 0 0 46.2 46.2;" xml:space="preserve">
<style type="text/css">
	.st0{display:none;opacity:0.76;}
	.st1{opacity:0.9;}
	.st2{opacity:0.9;fill:url(#SVGID_1_);}
	.st3{fill:url(#SVGID_2_);}
	.st4{fill:url(#SVGID_3_);}
	.st5{opacity:0.17;fill:url(#SVGID_4_);}
	.st6{opacity:0.76;fill:url(#SVGID_5_);}
	.st7{opacity:0.76;fill:url(#SVGID_6_);}
	.st8{fill:url(#SVGID_7_);}
	.st9{opacity:0.55;fill:url(#SVGID_8_);}
	.st10{opacity:0.36;fill:url(#SVGID_9_);}
	.st11{opacity:0.73;fill:url(#SVGID_10_);}
	.st12{fill:url(#SVGID_11_);}
	.st13{fill:url(#SVGID_12_);}
	.st14{fill:url(#SVGID_13_);}
</style>
<g id="禮物">
	<g>
		<g class="st0">
			
				<image style="display:inline;overflow:visible;" width="493" height="494" xlink:href="45D86C6E.png"  transform="matrix(0.24 0 0 0.24 -36.0342 -36.1488)">
			</image>
		</g>
	</g>
	<g>
		<g class="st1">
			
				<image style="overflow:visible;" width="451" height="451" xlink:href="45D86C72.png"  transform="matrix(0.24 0 0 0.24 -30.9942 -31.1088)">
			</image>
		</g>
	</g>
	<radialGradient id="SVGID_1_" cx="29.5833" cy="37.3333" r="52.7185" gradientUnits="userSpaceOnUse">
		<stop  offset="0" style="stop-color:#6BCBE1"/>
		<stop  offset="1" style="stop-color:#71CDE7"/>
	</radialGradient>
	<circle class="st2" cx="23.1" cy="23.1" r="18"/>
	<radialGradient id="SVGID_2_" cx="12.1458" cy="31.8333" r="34.6522" gradientUnits="userSpaceOnUse">
		<stop  offset="0.3351" style="stop-color:#00AAC0;stop-opacity:0"/>
		<stop  offset="1" style="stop-color:#BDE4EA"/>
	</radialGradient>
	<circle class="st3" cx="23.1" cy="23.1" r="18"/>
	<radialGradient id="SVGID_3_" cx="22.5833" cy="23" r="24.5" gradientUnits="userSpaceOnUse">
		<stop  offset="0.4703" style="stop-color:#93D6E3;stop-opacity:0"/>
		<stop  offset="1" style="stop-color:#C2E6ED"/>
	</radialGradient>
	<circle class="st4" cx="23.1" cy="23.1" r="18"/>
	<radialGradient id="SVGID_4_" cx="32.8125" cy="21.625" r="26.0341" gradientUnits="userSpaceOnUse">
		<stop  offset="0" style="stop-color:#1372B2"/>
		<stop  offset="1" style="stop-color:#00ACE6"/>
	</radialGradient>
	<circle class="st5" cx="23.1" cy="23.1" r="18"/>
	<g class="st1">
		
			<image style="overflow:visible;" width="451" height="451" xlink:href="45D86C75.png"  transform="matrix(0.24 0 0 0.24 -30.9942 -31.1088)">
		</image>
	</g>
	<g>
		<radialGradient id="SVGID_5_" cx="22.4421" cy="22.9764" r="31.4189" gradientUnits="userSpaceOnUse">
			<stop  offset="0.5568" style="stop-color:#FFFFFF;stop-opacity:0"/>
			<stop  offset="1" style="stop-color:#FFFFFF"/>
		</radialGradient>
		<circle class="st6" cx="23.1" cy="23.1" r="23.1"/>
		<radialGradient id="SVGID_6_" cx="22.4421" cy="22.9764" r="31.4189" gradientUnits="userSpaceOnUse">
			<stop  offset="0.5568" style="stop-color:#FFFFFF;stop-opacity:0"/>
			<stop  offset="1" style="stop-color:#FFFFFF"/>
		</radialGradient>
		<circle class="st7" cx="23.1" cy="23.1" r="23.1"/>
		<radialGradient id="SVGID_7_" cx="11.1666" cy="32.1666" r="42.7557" gradientUnits="userSpaceOnUse">
			<stop  offset="0.5568" style="stop-color:#FFFFFF;stop-opacity:0"/>
			<stop  offset="0.9649" style="stop-color:#FFFFFF;stop-opacity:0.96"/>
			<stop  offset="1" style="stop-color:#AAE0F9"/>
		</radialGradient>
		<circle class="st8" cx="23.1" cy="23.1" r="23.1"/>
		<radialGradient id="SVGID_8_" cx="41.9999" cy="6.3333" r="51.5074" gradientUnits="userSpaceOnUse">
			<stop  offset="0.5568" style="stop-color:#00ADEE;stop-opacity:0"/>
			<stop  offset="1" style="stop-color:#AAE0F9"/>
		</radialGradient>
		<circle class="st9" cx="23.1" cy="23.1" r="23.1"/>
		<radialGradient id="SVGID_9_" cx="48.6457" cy="43.125" r="63.4315" gradientUnits="userSpaceOnUse">
			<stop  offset="0.5568" style="stop-color:#00ADEE;stop-opacity:0"/>
			<stop  offset="1" style="stop-color:#8F5FA6"/>
		</radialGradient>
		<circle class="st10" cx="23.1" cy="23.1" r="23.1"/>
		<radialGradient id="SVGID_10_" cx="6.8125" cy="10.2916" r="47.1746" gradientUnits="userSpaceOnUse">
			<stop  offset="0.5568" style="stop-color:#00ADEE;stop-opacity:0"/>
			<stop  offset="1" style="stop-color:#8F5FA6"/>
		</radialGradient>
		<circle class="st11" cx="23.1" cy="23.1" r="23.1"/>
		<g>
			
				<radialGradient id="SVGID_11_" cx="41.3656" cy="51.8274" r="39.9486" gradientTransform="matrix(1.09 0 0 0.9407 -21.9164 -2.6746)" gradientUnits="userSpaceOnUse">
				<stop  offset="0" style="stop-color:#00ADEE"/>
				<stop  offset="1" style="stop-color:#2A378F"/>
			</radialGradient>
			<path class="st12" d="M27.3,13.2c1.7,0.4,2.1,1.3,2.2,2.4c0,0.8-0.5,1.4-1.2,1.9c-0.3,0.2-0.6,0.4-1,0.6c1.8,0,3.5,0,5.3,0
				c0,1.3,0,2.6,0,3.8c-3.1,0-6.1,0-9.2,0c0-1.3,0-2.5,0-3.8c-0.4,0-0.7,0-1.1,0c0,1.3,0,2.5,0,3.8c-3.1,0-6.2,0-9.2,0
				c0-1.2,0-2.5,0-3.8c1.6,0,3.1,0,4.8,0c-0.4-0.2-0.6-0.4-0.9-0.5c-0.9-0.6-1.2-1.4-1-2.3c0.2-1,0.8-1.8,2.1-2
				c2.2-0.4,4.1,1.4,4.7,3.1c0.2-0.2,0.3-0.4,0.4-0.6C23.8,14.6,25,12.9,27.3,13.2z M21.9,17.8c-0.5-1.1-1-2.2-2-3
				c-0.2-0.2-0.4-0.3-0.7-0.3c-1-0.3-1.8,0.1-2,1c-0.1,0.7,0.2,1.1,0.8,1.4C19.2,17.5,20.5,17.7,21.9,17.8z M23.5,17.9
				c1.3-0.2,2.4-0.5,3.4-1c0.4-0.3,0.8-0.7,1.1-1.1c0.4-0.7-0.2-1.4-1.1-1.4c-0.6,0-1.2,0.2-1.6,0.6c-0.5,0.7-1,1.4-1.5,2.2
				C23.7,17.4,23.6,17.6,23.5,17.9z"/>
			
				<radialGradient id="SVGID_12_" cx="41.3656" cy="51.7026" r="39.7737" gradientTransform="matrix(1.09 0 0 0.9407 -21.9164 -2.6746)" gradientUnits="userSpaceOnUse">
				<stop  offset="0" style="stop-color:#00ADEE"/>
				<stop  offset="1" style="stop-color:#2A378F"/>
			</radialGradient>
			<path class="st13" d="M23.2,32.6c0-1.3,0-2.7,0-4c0-1.8,0-3.6,0.1-5.5c1,1.5,1.9,2.9,2.9,4.4c0.2-0.3,0.5-0.6,0.6-0.9
				c0.2-0.3,0.4-0.4,0.8-0.3c0.4,0.1,0.8,0.1,1.3,0.2c-0.8-1.3-1.6-2.4-2.4-3.7c1.6,0,3.1,0,4.7,0c0,0.2,0,0.4,0,0.5
				c0,2.9,0,5.8,0,8.7c0,0.2,0,0.3,0,0.5C28.5,32.6,25.9,32.6,23.2,32.6z"/>
			
				<radialGradient id="SVGID_13_" cx="41.3656" cy="51.7027" r="39.7735" gradientTransform="matrix(1.09 0 0 0.9407 -21.9164 -2.6746)" gradientUnits="userSpaceOnUse">
				<stop  offset="0" style="stop-color:#00ADEE"/>
				<stop  offset="1" style="stop-color:#2A378F"/>
			</radialGradient>
			<path class="st14" d="M14.3,32.6c0-0.1,0-0.2,0-0.3c0-3,0-6,0-9c0-0.1,0-0.2,0-0.4c1.5,0,3.1,0,4.6,0c-0.8,1.2-1.6,2.4-2.4,3.7
				c0.5-0.1,1-0.1,1.5-0.2c0.3,0,0.5,0,0.6,0.2c0.2,0.3,0.4,0.6,0.7,0.9c1-1.5,2-3,2.9-4.5c0,0,0.1,0,0.1,0c0,3.2,0,6.4,0,9.5
				C19.6,32.6,17,32.6,14.3,32.6z"/>
		</g>
	</g>
</g>
</svg>
