<?xml version="1.0" encoding="utf-8"?>
<!-- Generator: Adobe Illustrator 21.0.0, SVG Export Plug-In . SVG Version: 6.00 Build 0)  -->
<svg version="1.1" id="圖層_1" xmlns="http://www.w3.org/2000/svg" xmlns:xlink="http://www.w3.org/1999/xlink" x="0px" y="0px"
	 viewBox="0 0 822.9 601.4" style="enable-background:new 0 0 822.9 601.4;" xml:space="preserve">
<style type="text/css">
	.st0{fill:url(#SVGID_1_);}
	.st1{fill:#D59543;}
	.st2{fill:#AB6C21;}
	.st3{opacity:0.6;fill:#D59543;enable-background:new    ;}
	.st4{fill:url(#SVGID_2_);}
	.st5{fill:url(#SVGID_3_);}
	.st6{fill:url(#SVGID_4_);}
	.st7{fill:url(#SVGID_5_);}
	.st8{fill:#FFFFFF;}
	.st9{fill:#814323;}
	.st10{fill:url(#SVGID_6_);}
	.st11{fill:#E6A952;}
	.st12{fill:#BA7F37;}
	.st13{fill:url(#SVGID_7_);}
	.st14{fill:url(#SVGID_8_);}
	.st15{fill:url(#SVGID_9_);}
	.st16{fill:#EAA593;}
	.st17{fill:#3F210F;}
	.st18{opacity:0.25;fill:#D59543;enable-background:new    ;}
	.st19{opacity:0.5;fill:#D59543;enable-background:new    ;}
	.st20{fill:#FAF4C2;}
	.st21{fill:#DDBC90;}
	.st22{fill:#D7C6A6;}
	.st23{fill:url(#SVGID_10_);}
	.st24{fill:#883828;}
	.st25{opacity:0.4;fill:#E1BE3F;enable-background:new    ;}
	.st26{fill:#3F210E;}
	.st27{fill:#875424;}
	.st28{fill:#3A1D13;}
	.st29{fill:#E5A852;}
	.st30{fill:#D6B092;}
	.st31{fill:#EED29C;}
	.st32{fill:#8C5924;}
	.st33{fill:#C58333;}
	.st34{fill:url(#SVGID_11_);}
	.st35{fill:url(#SVGID_12_);}
	.st36{fill:url(#SVGID_13_);}
	.st37{fill:url(#SVGID_14_);}
	.st38{fill:#FDEDD0;}
	.st39{fill:none;stroke:#FDEDD0;stroke-width:0.9813;stroke-linecap:round;stroke-linejoin:round;stroke-miterlimit:10;}
</style>
<g>
	<g>
		<g>
			
				<linearGradient id="SVGID_1_" gradientUnits="userSpaceOnUse" x1="291.1434" y1="219.7978" x2="376.1833" y2="219.7978" gradientTransform="matrix(1 0 0 -1 0 602)">
				<stop  offset="0" style="stop-color:#F2D397"/>
				<stop  offset="0.5331" style="stop-color:#F3D093"/>
				<stop  offset="0.7526" style="stop-color:#F5CC8F"/>
				<stop  offset="1" style="stop-color:#F3B699"/>
			</linearGradient>
			<path class="st0" d="M376.3,358.2l-8.1-18.3c0-0.4,0-1-0.2-1.5c0-0.2,0-0.4,0-0.4c0-0.4-0.2-0.8-0.2-1s0-0.4-0.2-0.6
				c-0.2-0.4-0.2-0.8-0.4-1.2c0-0.2,0-0.2-0.2-0.4c-0.2-0.6-0.4-1-0.6-1.7c0-0.2-0.2-0.2-0.2-0.4c-0.2-0.4-0.4-0.8-0.6-1.2
				c0-0.2-0.2-0.4-0.2-0.6c-0.2-0.4-0.4-0.8-0.6-1c0-0.2-0.2-0.4-0.2-0.6c-2.9-5.6-7.1-11-10-14.6c-0.2-0.2-0.2-0.2-0.4-0.4
				c-15.8,20-33.7,47.3-47.9,81.6c0,0-12.9,12.3-12.9,29.8c0,17.5,13.3,23.1,20.6,21.4l0,0c8.1,7.1,19.6,2.7,21.9-8.7V438
				c0.4,0.2,1,0.6,1.7,0.8c4.8,2.5,11.2-0.6,13.3-5l0,0l0,0c0-0.2,0.2-0.4,0.2-0.6l-0.2-0.2l1.7-14.2H352v-3.5l-0.6-2.5
				c0.2-0.6,0.6-1.5,0.8-2.3l0.6-1l0.8-2.5v-0.6c2.7-6.5,6.7-15.4,11.9-26c3.3-6.9,7.3-14.2,11.2-21L376.3,358.2z"/>
		</g>
		<path class="st1" d="M325.7,418.4c0,0-2.5,19.2,8.3,25.4l1.9-5.4C336.1,438.4,324.5,432.5,325.7,418.4z"/>
		<path class="st1" d="M307.2,424.4c0,0-5,12.7-1.2,21.9c0,0,3.3,1.2,8.3,0.8C314.3,447.1,305.5,442.7,307.2,424.4z"/>
		<path class="st2" d="M325.5,424.4c0,0-0.2,11.5,9.6,15.6l0.4-1.7C335.5,438.4,325.3,429.2,325.5,424.4z"/>
		<path class="st2" d="M306.4,431.1c0,0-0.6,10.6,5,16.2l3.5-0.2C314.9,447.1,307.2,439.8,306.4,431.1z"/>
		<path class="st3" d="M376.3,358.2l-8.1-18.3c0-0.4,0-1-0.2-1.5c0-0.2,0-0.4,0-0.4c0-0.4-0.2-0.8-0.2-1s0-0.4-0.2-0.6
			c-0.2-0.4-0.2-0.8-0.4-1.2c0-0.2,0-0.2-0.2-0.4c-0.2-0.6-0.4-1-0.6-1.7c0-0.2-0.2-0.2-0.2-0.4c-0.2-0.4-0.4-0.8-0.6-1.2
			c0-0.2-0.2-0.4-0.2-0.6c-0.2-0.4-0.4-0.8-0.6-1c0-0.2-0.2-0.4-0.2-0.6c0,0,0-0.2-0.2-0.2c-10.8,21.2-22.5,49.6-23.1,73.5
			c0,0,13.3,16.9,8.5,33.3c0.4-0.4,0.6-1,0.8-1.7l0,0l0,0c0-0.2,0.2-0.4,0.2-0.6l-0.2-0.2l1.7-14.2h-0.4v-3.5l-0.8-3.1l1.9-2.7
			l1-2.5l20-43.5c0,0,1-1.2,2.9-4.2L376.3,358.2z"/>
		<g>
			<path class="st2" d="M352.2,414.4l0.6-1.2l0,0c0.2-0.4,13.1-28.9,25-52.1l-1.2-2.9l0,0c-10.8,20.8-22.7,47.1-25.4,52.7
				c-0.4-1.2-0.8-1.7-0.8-1.7l0,0c-1-1.9-2.3-3.5-2.5-3.5c-0.2-0.2-0.6-0.2-0.8,0c-0.2,0.2-0.2,0.6,0,0.8c0.2,0.2,0.6,0.6,0.8,1
				c0,0,6.9,10.6,3.1,25.8l0,0c-0.8,2.3-2.9,4.2-5.4,5.2c-2.5,1-5.2,1-7.3,0c-8.5-4.2-13.1-13.3-11.2-22.3c0-0.4-0.2-0.6-0.4-0.8
				c-0.4,0-0.6,0.2-0.8,0.4c-1.9,8.7,2.1,17.7,9.8,22.5c-1.2,5.4-4.6,9.4-9.2,10.8c-4.4,1.2-9,0-12.5-3.5c-9-9-5.4-22.5-5.4-22.5
				c0-0.4-0.2-0.6-0.4-0.8c-0.4,0-0.6,0.2-0.8,0.4c0,0.2-3.5,14.4,5.8,23.7l0,0c-2.9,0.2-7.3-0.6-11.2-3.7
				c-3.3-2.7-7.3-7.9-7.3-17.3c0-16.9,12.7-29.1,12.7-29.4l0.2-0.2c14-34.4,32.1-61.4,47.7-81.2l-0.2-0.2c-1-1.2-2.1-2.3-2.7-3.1
				l0,0c-5.2,6.5-10.6,13.7-16,22.1l0,0c0,0-25.8,38.5-31.6,60.2c-7.1,9.2-20.2,30.2-7.7,46c1.2,1.9,2.7,3.3,4,4.4
				c0.4,0.4,1,0.8,1.7,1c0.2,0,0.2,0.2,0.2,0.2l0,0c2.9,1.9,6,2.7,9.2,2.7c0.8,0,1.7,0,2.3-0.2c2.7,2.3,5.8,3.3,9,3.3
				c1.2,0,2.5-0.2,3.7-0.6c5-1.5,8.5-5.6,10-11.5c0.2,0.2,0.6,0.4,0.8,0.4c1.2,0.6,2.7,0.8,4.2,0.8c1.5,0,2.7-0.2,4.2-0.8
				c2.7-1,4.8-3.1,5.8-5.4l0,0c0,0,0,0,0-0.2s0.2-0.2,0.2-0.4l0,0c0,0,1-2.7,1.5-7.1c0.2-1.7,0.2-3.7,0-5.8
				C353.2,418.4,352.6,416.1,352.2,414.4z"/>
		</g>
	</g>
	<g>
		<g>
			
				<linearGradient id="SVGID_2_" gradientUnits="userSpaceOnUse" x1="3519.5813" y1="219.7978" x2="3604.6213" y2="219.7978" gradientTransform="matrix(-1 0 0 -1 4123.6563 602)">
				<stop  offset="0" style="stop-color:#F2D397"/>
				<stop  offset="0.5331" style="stop-color:#F3D093"/>
				<stop  offset="0.7526" style="stop-color:#F5CC8F"/>
				<stop  offset="1" style="stop-color:#F3B699"/>
			</linearGradient>
			<path class="st4" d="M518.9,358.2l8.1-18.3c0-0.4,0-1,0.2-1.5c0-0.2,0-0.4,0-0.4c0-0.4,0.2-0.8,0.2-1s0-0.4,0.2-0.6
				c0.2-0.4,0.2-0.8,0.4-1.2c0-0.2,0-0.2,0.2-0.4c0.2-0.6,0.4-1,0.6-1.7c0-0.2,0.2-0.2,0.2-0.4c0.2-0.4,0.4-0.8,0.6-1.2
				c0-0.2,0.2-0.4,0.2-0.6c0.2-0.4,0.4-0.8,0.6-1c0-0.2,0.2-0.4,0.2-0.6c2.9-5.6,7.1-11,10-14.6c0.2-0.2,0.2-0.2,0.4-0.4
				c15.8,20,33.7,47.3,47.9,81.6c0,0,12.9,12.3,12.9,29.8c0,17.5-13.3,23.1-20.6,21.4l0,0c-8.1,7.1-19.6,2.7-21.9-8.7V438
				c-0.4,0.2-1,0.6-1.7,0.8c-4.8,2.5-11.2-0.6-13.3-5l0,0l0,0c0-0.2-0.2-0.4-0.2-0.6l0.2-0.2l-1.7-14.2h0.4v-3.5l0.6-2.5
				c-0.2-0.6-0.6-1.5-0.8-2.3l-0.6-1l-0.8-2.5v-0.6c-2.7-6.5-6.7-15.4-11.9-26c-3.3-6.9-7.3-14.2-11.2-21L518.9,358.2z"/>
		</g>
		<path class="st1" d="M569.5,418.4c0,0,2.5,19.2-8.3,25.4l-1.9-5.4C559.3,438.4,570.7,432.5,569.5,418.4z"/>
		<path class="st1" d="M588,424.4c0,0,5,12.7,1.2,21.9c0,0-3.3,1.2-8.3,0.8C581.1,447.1,589.6,442.7,588,424.4z"/>
		<path class="st2" d="M569.9,424.4c0,0,0.2,11.5-9.6,15.6l-0.4-1.7C559.9,438.4,569.9,429.2,569.9,424.4z"/>
		<path class="st2" d="M589,431.1c0,0,0.6,10.6-5,16.2l-3.5-0.2C580.5,447.1,588,439.8,589,431.1z"/>
		<path class="st3" d="M518.9,358.2l8.1-18.3c0-0.4,0-1,0.2-1.5c0-0.2,0-0.4,0-0.4c0-0.4,0.2-0.8,0.2-1s0-0.4,0.2-0.6
			c0.2-0.4,0.2-0.8,0.4-1.2c0-0.2,0-0.2,0.2-0.4c0.2-0.6,0.4-1,0.6-1.7c0-0.2,0.2-0.2,0.2-0.4c0.2-0.4,0.4-0.8,0.6-1.2
			c0-0.2,0.2-0.4,0.2-0.6c0.2-0.4,0.4-0.8,0.6-1c0-0.2,0.2-0.4,0.2-0.6c0,0,0-0.2,0.2-0.2c10.8,21.2,22.5,49.6,23.1,73.5
			c0,0-13.3,16.9-8.5,33.3c-0.4-0.4-0.6-1-0.8-1.7l0,0l0,0c0-0.2-0.2-0.4-0.2-0.6l0.2-0.2L543,419h0.4v-3.5l0.8-3.1l-1.9-2.7l-1-2.5
			l-20-43.5c0,0-1-1.2-2.9-4.2L518.9,358.2z"/>
		<g>
			<path class="st2" d="M543,414.4l-0.6-1.2l0,0c-0.2-0.4-13.1-28.9-25-52.1l1.2-2.9l0,0c10.8,20.8,22.7,47.1,25.4,52.7
				c0.4-1.2,0.8-1.7,0.8-1.7l0,0c1-1.9,2.3-3.5,2.5-3.5c0.2-0.2,0.6-0.2,0.8,0s0.2,0.6,0,0.8c-0.2,0.2-0.6,0.6-0.8,1
				c0,0-6.9,10.6-3.1,25.8l0,0c0.8,2.3,2.9,4.2,5.4,5.2c2.5,1,5.2,1,7.3,0c8.5-4.2,13.1-13.3,11.2-22.3c0-0.4,0.2-0.6,0.4-0.8
				c0.4,0,0.6,0.2,0.8,0.4c1.9,8.7-2.1,17.7-9.8,22.5c1.2,5.4,4.6,9.4,9.2,10.8c4.4,1.2,9,0,12.5-3.5c9-9,5.4-22.5,5.4-22.5
				c0-0.4,0.2-0.6,0.4-0.8c0.4,0,0.6,0.2,0.8,0.4c0,0.2,3.5,14.4-5.8,23.7l0,0c2.9,0.2,7.3-0.6,11.2-3.7c3.3-2.7,7.3-7.9,7.3-17.3
				c0-16.9-12.7-29.1-12.7-29.4l-0.2-0.2c-14-34.4-32.1-61.4-47.7-81.2l0.2-0.2c1-1.2,2.1-2.3,2.7-3.1l0,0
				c5.2,6.5,10.6,13.7,16,22.1l0,0c0,0,25.8,38.5,31.6,60.2c7.1,9.2,20.2,30.2,7.7,46c-1.2,1.9-2.7,3.3-4,4.4c-0.4,0.4-1,0.8-1.7,1
				c-0.2,0-0.2,0.2-0.2,0.2l0,0c-2.9,1.9-6,2.7-9.2,2.7c-0.8,0-1.7,0-2.3-0.2c-2.7,2.3-5.8,3.3-9,3.3c-1.2,0-2.5-0.2-3.7-0.6
				c-5-1.5-8.5-5.6-10-11.5c-0.2,0.2-0.6,0.4-0.8,0.4c-1.2,0.6-2.7,0.8-4.2,0.8c-1.5,0-2.7-0.2-4.2-0.8c-2.7-1-4.8-3.1-5.8-5.4l0,0
				c0,0,0,0,0-0.2s-0.2-0.2-0.2-0.4l0,0c0,0-1-2.7-1.5-7.1c-0.2-1.7-0.2-3.7,0-5.8C542.2,418.4,542.6,416.1,543,414.4z"/>
		</g>
	</g>
	<g>
		
			<linearGradient id="SVGID_3_" gradientUnits="userSpaceOnUse" x1="335.5128" y1="495.6424" x2="518.7165" y2="402.5305" gradientTransform="matrix(1 0 0 -1 0 602)">
			<stop  offset="0" style="stop-color:#F2D397"/>
			<stop  offset="0.5331" style="stop-color:#F3D093"/>
			<stop  offset="0.7526" style="stop-color:#F5CC8F"/>
			<stop  offset="1" style="stop-color:#F3B699"/>
		</linearGradient>
		<path class="st5" d="M548.1,129.6c-1.9-2.5-3.7-5-5.8-7.5c19.8-2.1,32.9-28.1,16.9-45.8c-27.3-27.3-57.7-2.7-56.6,16
			c-15.6-7.1-32.7-10.6-50.4-10.6c-21,0-42.3,4.6-61.2,13.5c4.8-18.9-27.3-47.7-56.2-18.9c-16.2,18.3-2.1,45.2,18.5,46
			c-0.6,0.8-1.5,1.5-2.1,2.3c-24.6,27.7-34.8,67-21.7,102.4c1.9,5.2,4.4,10,7.3,14.6c19.4,29.6,57.9,40.8,91.8,44.1
			c4.6,0.4,9.4,0.8,14,0.8c27.3,0.6,55-5.2,79.3-18.1c20.8-11,39.6-26.7,45.4-50.6C574.7,187.7,565.5,154.6,548.1,129.6z"/>
		<path class="st8" d="M492.7,154.8c0,0,10.8-2.5,18.3,4.4c7.5,6.9,15,17.3,9,39.8c0,0-18.7-4.8-24.8-5l-22.7-1.7
			C472.5,192.1,467.3,159.6,492.7,154.8z"/>
		<path class="st9" d="M421.9,192.3c0,0-24.2-1-46.6,5.6l0.4,1C375.7,199,399.4,193.1,421.9,192.3z"/>
		
			<linearGradient id="SVGID_4_" gradientUnits="userSpaceOnUse" x1="340.6408" y1="502.0095" x2="373.9944" y2="502.0095" gradientTransform="matrix(1 0 0 -1 0 602)">
			<stop  offset="0" style="stop-color:#FDEBD1"/>
			<stop  offset="0.899" style="stop-color:#F9E8B4"/>
			<stop  offset="1" style="stop-color:#F8E8B0"/>
		</linearGradient>
		<path class="st6" d="M360.7,115.5c-4.6-0.8-8.1-1-12.1-3.7c-3.7-2.7-6.9-6.7-7.7-11.2c-0.8-4.6,0.4-9.8,4-12.7
			c4.8-4.2,13.1-4.4,18.3-0.6c5.2,3.7,9,10.4,10.8,16.4c0,0-0.4,0.8-0.4,0.6L360.7,115.5z"/>
		<g>
			<g>
				<path class="st9" d="M372.7,198.8l-1.2,1.9c2.3-1.2,5-1.9,5-1.9l-0.4-1h-0.2l0,0c-17.7-49.3,51.4-60,45.6-5.6
					C430.6,135.1,355.7,144.2,372.7,198.8z"/>
			</g>
		</g>
		<g>
			
				<ellipse transform="matrix(0.9894 -0.1449 0.1449 0.9894 -16.1381 58.534)" class="st11" cx="393.8" cy="140.1" rx="12.5" ry="7.3"/>
			<path class="st12" d="M391.9,148c-2.3,0-4.4-0.4-6-1c-2.7-1-4.4-2.9-4.6-5l0,0c-0.6-4.2,4.6-8.5,11.7-9.6
				c3.3-0.4,6.7-0.2,9.2,0.8c2.7,1,4.4,2.9,4.6,5c0.2,2.1-0.8,4.2-3.1,6c-2.3,1.7-5.2,2.9-8.5,3.5C394,148,392.9,148,391.9,148z
				 M395.9,133.2c-1,0-1.9,0-2.9,0.2c-6.5,1-11.5,4.8-10.8,8.3l0,0c0.2,1.7,1.7,3.1,4,4.2c2.5,1,5.6,1.2,8.7,0.8
				c3.1-0.4,6-1.7,8.1-3.3c1.9-1.7,2.9-3.3,2.7-5.2c-0.2-1.7-1.7-3.1-4-4.2C400,133.6,397.9,133.2,395.9,133.2z"/>
		</g>
		<ellipse class="st9" cx="402.3" cy="176.5" rx="9.4" ry="12.7"/>
		
			<linearGradient id="SVGID_5_" gradientUnits="userSpaceOnUse" x1="519.95" y1="502.0095" x2="553.3036" y2="502.0095" gradientTransform="matrix(1 0 0 -1 0 602)">
			<stop  offset="0" style="stop-color:#FDEBD1"/>
			<stop  offset="0.899" style="stop-color:#F9E8B4"/>
			<stop  offset="1" style="stop-color:#F8E8B0"/>
		</linearGradient>
		<path class="st7" d="M533.3,115.5c4.6-0.8,8.1-1,12.1-3.7c3.7-2.7,6.9-6.7,7.7-11.2c0.8-4.6-0.4-9.8-4-12.7
			c-4.8-4.2-13.1-4.4-18.3-0.6c-5.2,3.7-9,10.4-10.8,16.4c0,0,0.4,0.8,0.4,0.6L533.3,115.5z"/>
		<g>
			
				<ellipse transform="matrix(0.1449 -0.9894 0.9894 0.1449 289.1317 614.5654)" class="st11" cx="500.1" cy="140" rx="7.3" ry="12.5"/>
			<path class="st12" d="M502,148c-1,0-2.1,0-3.1-0.2c-3.3-0.4-6.5-1.7-8.5-3.5c-2.3-1.9-3.3-4-3.1-6c0.6-4.2,6.9-6.9,14-5.8
				c3.3,0.4,6.5,1.7,8.5,3.5c2.3,1.9,3.3,4,3.1,6l0,0C512.5,145.5,507.9,148,502,148z M498.1,133.2c-5.2,0-9.4,2.1-9.8,5.2
				c-0.2,1.7,0.6,3.5,2.7,5.2c2.1,1.7,5,2.7,8.1,3.3c6.5,1,12.3-1.2,12.7-5h0.4h-0.4c0.2-1.7-0.6-3.5-2.7-5.2
				c-2.1-1.7-5-2.7-8.1-3.3C500.2,133.2,499.1,133.2,498.1,133.2z"/>
		</g>
		<ellipse class="st9" cx="491.6" cy="176.5" rx="9.4" ry="12.7"/>
		<path class="st8" d="M401.3,154.8c0,0-10.8-2.5-18.3,4.4s-15,17.3-9,39.8c0,0,18.7-4.8,24.8-5l22.7-1.7
			C421.5,192.1,426.7,159.6,401.3,154.8z"/>
		
			<linearGradient id="SVGID_6_" gradientUnits="userSpaceOnUse" x1="604.8428" y1="426.1435" x2="644.5495" y2="426.1435" gradientTransform="matrix(-1 0 0 -1 1026.8068 602)">
			<stop  offset="0" style="stop-color:#834D2F"/>
			<stop  offset="0.8098" style="stop-color:#663C29"/>
			<stop  offset="1" style="stop-color:#5E3728"/>
		</linearGradient>
		<path class="st10" d="M405.4,156.3c0,0,13.5,2.1,16.7,25.4c0,0,0,7.9-0.6,10.4l-7.7,0.2c0,0-25,2.1-26.7,3.3
			C376.7,180.4,383.8,153.4,405.4,156.3z"/>
		
			<linearGradient id="SVGID_7_" gradientUnits="userSpaceOnUse" x1="334.4345" y1="358.8642" x2="558.4689" y2="358.8642" gradientTransform="matrix(1 0 0 -1 0 602)">
			<stop  offset="0" style="stop-color:#FDEBD1"/>
			<stop  offset="0.899" style="stop-color:#F9E8B4"/>
			<stop  offset="1" style="stop-color:#F8E8B0"/>
		</linearGradient>
		<path class="st13" d="M457.5,199.6h-21.9c-77,0-101,38.3-101.2,38.5c0.6,1.2,1.5,2.5,2.3,3.5c19.4,29.6,57.9,40.8,91.8,44.1
			c4.6,0.4,9.4,0.8,14,0.8c27.3,0.6,55-5.2,79.3-18.1c14.4-7.7,27.7-17.5,36.6-30.8C556.4,234.8,531.4,199.6,457.5,199.6z"/>
		<path class="st16" d="M387.1,237.9c0-26-21-47.1-47.1-47.1c-5.6,0-11.2,1-16.2,2.9c-0.2,11.2,1.7,22.5,5.8,33.3
			c1.9,5.2,4.4,10,7.3,14.6c8.7,13.5,21.7,23.1,36.2,30C381.7,263.1,387.1,251,387.1,237.9z"/>
		<path class="st16" d="M507.9,237.9c0,12.1,4.6,23.1,12.1,31.4c0.6-0.4,1.2-0.6,1.9-1c20.8-11,39.6-26.7,45.4-50.6
			c1.9-7.9,2.7-16.2,2.5-24.6c-4.8-1.7-9.8-2.5-15-2.5C528.9,190.9,507.9,211.9,507.9,237.9z"/>
		<path class="st17" d="M444.4,196.3c0,0,6.7-0.2,9.6,0.4c3.1,0.6,5.8,1.9,3.3,5.4c-2.7,4.2-10.4,6.5-10.4,6.5s-7.5-2.3-10.4-6.5
			c-2.3-3.5,0.4-4.8,3.3-5.4c3.1-0.6,9.6-0.4,9.6-0.4"/>
		<path class="st18" d="M438.3,286.4c1.5,0,2.7,0.2,4.2,0.2c27.3,0.6,55-5.2,79.3-18.1c20.8-11,39.6-26.7,45.4-50.6
			c7.5-30-1.7-63.3-19.2-88.1c-1.9-2.5-3.7-5-5.8-7.5C542.2,122.4,603.4,267.3,438.3,286.4z"/>
		<path class="st19" d="M342.3,136.1c13.5-12.3,20.2-15,20.2-15c-32.3-1.2-30.2-40.4-30-41.6c-12.5,18.1,1.5,42.3,21,42.9
			c-0.6,0.8-1.5,1.5-2.1,2.3C348,128.2,345.1,132.1,342.3,136.1z"/>
		<path class="st18" d="M551.6,136.1c-13.5-12.3-20.2-15-20.2-15c32.3-1.2,30.2-40.4,30-41.6c11.7,15,0,41.9-19.6,42.7
			c0.6,0.8,1.5,1.5,2.1,2.3C547.4,128,548.9,132.1,551.6,136.1z"/>
		<path class="st20" d="M353.4,122.4c-0.6,0.8-1.5,1.5-2.1,2.3c-24.8,27.7-35,67-21.9,102.4c1.9,5.2,4.4,10,7.3,14.6
			c6.7,10.2,15.6,18.1,25.8,24.4l0,0C298.6,201.9,353.4,122.4,353.4,122.4z"/>
		<path class="st21" d="M363.2,87c-3.3-2.5-7.9-3.1-12.1-2.3l0,0c0,0,20.4,8.7,18.1,23.1l4.2-3.7c0,0,0.4-0.8,0.4-0.6
			C372.3,97.4,368.4,90.7,363.2,87z"/>
		<path class="st21" d="M530.8,87c3.3-2.5,7.9-3.1,12.1-2.3l0,0c0,0-20.4,8.7-18.1,23.1l-4.2-3.7c0,0-0.4-0.8-0.4-0.6
			C521.8,97.4,525.6,90.7,530.8,87z"/>
		<path class="st22" d="M473.5,171.9c0,0,37.7,0,48.3,7.1c0,0-1.9-27.7-30.2-24.2C491.6,155,478.7,157.7,473.5,171.9z"/>
		
			<linearGradient id="SVGID_8_" gradientUnits="userSpaceOnUse" x1="471.9966" y1="426.1435" x2="511.7033" y2="426.1435" gradientTransform="matrix(1 0 0 -1 0 602)">
			<stop  offset="0" style="stop-color:#834D2F"/>
			<stop  offset="0.8098" style="stop-color:#663C29"/>
			<stop  offset="1" style="stop-color:#5E3728"/>
		</linearGradient>
		<path class="st14" d="M488.5,156.3c0,0-13.5,2.1-16.7,25.4c0,0,0,7.9,0.6,10.4l7.7,0.2c0,0,25,2.1,26.7,3.3
			C517.2,180.4,510.2,153.4,488.5,156.3z"/>
		<path class="st24" d="M511.4,175.2c-1.7-11.2-9.4-20.8-22.7-18.9c0,0-0.4,0-1.2,0.4c-2.3,1-5.4,2.9-8.1,5.8
			c-1.9,2.3-3.7,5.4-5.2,9.6C477.9,172.1,497.7,172.3,511.4,175.2z"/>
		<path class="st22" d="M420.2,171.9c0,0-37.7,0-48.3,7.1c0,0,1.9-27.7,30.2-24.2C402.3,155,415.2,157.7,420.2,171.9z"/>
		<path class="st24" d="M382.5,175.2c1.7-11.2,9.4-20.8,22.7-18.9c0,0,0.4,0,1.2,0.4c2.3,1,5.4,2.9,8.1,5.8c1.9,2.3,3.7,5.4,5.2,9.6
			C416.1,172.1,396.3,172.3,382.5,175.2z"/>
		<path class="st25" d="M409.4,229.2c0,0,17.1,8.5,35,0c0,0,0.8,1,5.2,0c0,0,16.2,8.5,34.6,0c0,0-22.1,8.3-35.8-4.2l-1-1.7l-1,1.5
			C446.2,224.8,433.1,237.3,409.4,229.2z"/>
		<path class="st25" d="M453.7,205.4c0,0-6.9,7.1-6.9,12.7c0,0-2.1-8.1-6.7-12.3l6.7,3.3L453.7,205.4z"/>
		<path class="st3" d="M398.6,153.4c0,0-17.9-3.3-27.1,12.3c-9.2,15.6,0,35,0,35l3.7-2.7l-3.1-9C372.1,189,365,158.4,398.6,153.4z"
			/>
		<path class="st3" d="M495.8,153.4c0,0,17.9-3.3,27.1,12.3s0,35,0,35l-3.7-2.7l3.1-9C522.2,189,529.3,158.4,495.8,153.4z"/>
		<path class="st26" d="M379,161.1c0,0-5.2,0.4-9.8-1.9c0,0,2.5,7.1,5.8,7.7l3.1-2.5L379,161.1z"/>
		<path class="st26" d="M514.3,161.1c0,0,5.2,0.4,9.8-1.9c0,0-2.5,7.1-5.8,7.7l-3.1-2.5L514.3,161.1z"/>
		<path class="st27" d="M425.4,232.7c-2.3,0-4.6-0.2-7.3-0.6c-15.6-2.3-16.7-10.2-16.7-10.4c0-0.4,0.2-0.6,0.6-0.6
			c0.4,0,0.6,0.2,0.6,0.6c0,0,1,7.1,15.6,9.4c15,2.3,22.5-2.7,28.3-7.5c0.2-0.2,0.6-0.2,0.8,0c0.2,0.2,0.2,0.6,0,0.8
			C442.1,228.7,435.8,232.7,425.4,232.7z"/>
		<path class="st2" d="M360.7,115.9L360.7,115.9l-1.2-0.2c-4-0.6-7.5-1-11-3.5c-4.2-2.9-7.1-7.1-7.9-11.5c-1-5,0.6-10.2,4.2-13.1
			c5-4.4,13.5-4.6,18.9-0.8c4.8,3.5,9,10,10.8,16.7c0,0.2,0,0.2,0,0.4l-0.2,0.2c-0.2,0.2-0.2,0.4-0.4,0.4l0,0l-12.7,11.2
			C360.9,115.9,360.9,115.9,360.7,115.9z M354.6,84.9c-3.3,0-6.9,1-9.4,3.3c-3.3,2.9-4.8,7.7-4,12.3c0.8,4.2,3.5,8.1,7.7,11
			c3.3,2.3,6.7,2.9,10.6,3.5l1,0.2l12.7-11l0.2-0.2c0,0,0-0.2,0.2-0.2c-1.9-6.7-5.8-12.7-10.6-16C360.7,85.7,357.5,84.9,354.6,84.9z
			"/>
		<path class="st27" d="M468.5,232.7c-10.4,0-16.7-4-22.1-8.3c-0.2-0.2-0.2-0.6,0-0.8c0.2-0.2,0.6-0.2,0.8,0
			c5.8,4.8,13.1,9.8,28.3,7.5c14.6-2.3,15.6-9.4,15.6-9.4c0-0.4,0.4-0.6,0.6-0.6c0.4,0,0.6,0.4,0.6,0.6c0,0.4-1,8.1-16.7,10.4
			C473.1,232.5,470.8,232.7,468.5,232.7z"/>
		<path class="st2" d="M533.3,115.9c0,0-0.2,0-0.2-0.2l-12.7-11.2l0,0c0,0-0.2-0.2-0.4-0.4c0-0.2-0.2-0.2-0.2-0.2
			c0-0.2-0.2-0.2,0-0.4c1.9-6.9,6-13.3,10.8-16.7c5.4-4,13.7-3.5,18.9,0.8c3.5,3.1,5.2,8.1,4.2,13.1c-0.8,4.4-3.7,8.5-7.9,11.5
			c-3.5,2.5-7.1,2.9-11,3.5L533.3,115.9L533.3,115.9z M520.8,104l12.7,11l1-0.2c4-0.6,7.3-1,10.6-3.5c4-2.7,6.9-6.9,7.7-11
			c1-4.6-0.6-9.6-4-12.3c-4.8-4-12.7-4.4-17.7-0.6c-4.6,3.3-8.7,9.6-10.6,16c0,0,0,0.2,0.2,0.2C520.6,103.8,520.8,103.8,520.8,104z"
			/>
		<path class="st27" d="M447.1,224.6c-0.4,0-0.6-0.2-0.6-0.6v-14.4c0-0.4,0.2-0.6,0.6-0.6s0.6,0.2,0.6,0.6V224
			C447.7,224.2,447.3,224.6,447.1,224.6z"/>
		<path class="st27" d="M447.7,222.1c0,0,0.2,1.7,1.9,2.9h-0.2l-1.9-0.8l-0.2-0.6L447.7,222.1z"/>
		<path class="st27" d="M446.2,222.1c0,0-0.2,1.7-1.9,2.9h0.2l1.9-0.8l0.2-0.6L446.2,222.1z"/>
		<path class="st26" d="M436.5,209.6L436.5,209.6l-17.9-2.5c-0.2,0-0.4-0.2-0.4-0.4s0.2-0.4,0.4-0.4l17.9,2.5c0.2,0,0.4,0.2,0.4,0.4
			S436.7,209.6,436.5,209.6z"/>
		<path class="st26" d="M419.4,219.2c-0.2,0-0.4-0.2-0.4-0.4s0-0.4,0.4-0.4l17.1-4c0.2,0,0.4,0,0.4,0.4c0,0.2,0,0.4-0.4,0.4
			L419.4,219.2L419.4,219.2z"/>
		<path class="st26" d="M457.5,209.6c-0.2,0-0.4-0.2-0.4-0.4s0.2-0.4,0.4-0.4l17.9-2.5c0.2,0,0.4,0.2,0.4,0.4s-0.2,0.4-0.4,0.4
			L457.5,209.6L457.5,209.6z"/>
		<path class="st26" d="M474.6,219.2L474.6,219.2l-17.3-4c-0.2,0-0.4-0.2-0.4-0.4s0.2-0.4,0.4-0.4l17.1,4c0.2,0,0.4,0.2,0.4,0.4
			C475,219.2,474.8,219.2,474.6,219.2z"/>
		<path class="st26" d="M386.9,196.5c-0.2,0-0.4,0-0.6-0.2c-6-9-6.2-22.5-0.6-31.4c4.4-6.9,11.5-10.2,19.8-9c0.4,0,0.6,0.4,0.6,0.6
			c0,0.4-0.4,0.6-0.6,0.6c-7.9-1-14.4,1.9-18.5,8.3c-5.4,8.5-5.2,21.4,0.6,30.2c0.2,0.2,0.2,0.6-0.2,0.8
			C387.1,196.5,386.9,196.5,386.9,196.5z"/>
		<path class="st17" d="M421.9,192.3c0,0-24.2-1-46.6,5.6l0.4,1C375.7,199,399.4,193.1,421.9,192.3z"/>
		<g>
			<g>
				<path class="st26" d="M372.7,198.8l-1.2,1.9c2.3-1.2,5-1.9,5-1.9l-0.4-1h-0.2l0,0c-17.7-49.3,51.4-60,45.6-5.6
					C430.6,135.1,355.7,144.2,372.7,198.8z"/>
			</g>
		</g>
		<ellipse class="st28" cx="402.3" cy="176.5" rx="9.4" ry="12.7"/>
		<path class="st26" d="M507,196.5c-0.2,0-0.2,0-0.4-0.2c-0.2-0.2-0.4-0.6-0.2-0.8c5.6-8.5,5.8-21.4,0.6-30.2
			c-4.2-6.5-10.6-9.6-18.5-8.3c-0.4,0-0.6-0.2-0.6-0.6c0-0.4,0.2-0.6,0.6-0.6c8.3-1,15.4,2.1,19.8,9c5.6,9,5.4,22.5-0.6,31.4
			C507.5,196.3,507.2,196.5,507,196.5z"/>
		<path class="st17" d="M472.1,192.3c0,0,24.2-1,46.6,5.6l-0.4,1C518.3,199,494.5,193.1,472.1,192.3z"/>
		<g>
			<g>
				<path class="st17" d="M472.7,192.3c-5.8-54.3,63.3-43.7,45.6,5.6l0,0h-0.2l-0.4,1c0,0,2.7,0.6,5,1.9l-1.2-1.9
					C538.3,144.2,463.3,135.1,472.7,192.3z"/>
			</g>
		</g>
		<ellipse class="st28" cx="491.6" cy="176.5" rx="9.4" ry="12.7"/>
		<circle class="st8" cx="393.4" cy="168.2" r="6.2"/>
		<circle class="st8" cx="484.1" cy="168.2" r="6.2"/>
		<path class="st26" d="M378.8,161.1c0,0-2.9,1.5-7.3-0.8c0,0,2.9,5.2,5,5L378.8,161.1z"/>
		<path class="st26" d="M515,161.1c0,0,2.9,1.5,7.3-0.8c0,0-2.9,5.2-5,5L515,161.1z"/>
		<path class="st2" d="M548.5,129.4c-1.5-1.9-2.9-4-4.4-5.8c3.1-0.4,5.6-1.2,5.6-1.2c0.4-0.2,0.6-0.4,1-0.4
			c7.7-3.7,13.7-10.2,16-18.5c2.5-7.1,1.9-14.8-1.2-21.7c-5.8-13.1-21.2-19.6-35-18.1c-2.5,0.2-5.2,0.8-7.5,1.7
			c-0.4,0.2-0.6,0.2-1,0.4c-0.6,0.2-1,0.4-1.7,0.6c-10.2,4.6-17.7,14.4-18.3,23.5l-6.9-2.7c-7.7-3.1-16.7-4.4-24.8-5.4
			c-8.7-1-17.7-1.5-26.7-1c-0.2,0-0.6,0-0.8,0c-1.2,0-2.3,0.2-3.5,0.2c-8.3,0.6-16.7,2.1-24.8,4c-5.4,1.2-10.4,3.3-15.6,5.4l0,0l0,0
			c-2.3,0.8-5.4,2.3-6.7,2.7c0.6-7.5-3.5-16-10.8-22.1l0,0l0,0c-0.4-0.2-0.8-0.6-1.2-0.8c-0.4-0.2-0.6-0.2-0.6-0.4
			c-0.6-0.4-1.2-0.8-1.9-1.2c-1.2-0.8-2.5-1.5-4-2.3c-1.2-0.6-2.5-1.2-4-1.5c-1.9-0.6-3.7-0.8-5.8-1c-13.7-1.5-29.1,5-35.2,18.1
			c-1.7,4-2.7,8.1-2.7,12.3c0,0-0.6,10,6,18.7c1.7,2.1,3.1,3.5,4,4.4c1.7,1.7,6.5,5.2,11.5,6.5c-6.5,7.5-38.1,48.3-20.8,97.9
			c0,0-0.2-0.8-0.4-2.5c0.8,2.7,1.7,5.4,2.5,8.1c1.9,5.2,4.4,10,7.3,14.6c20.6,31.4,61.4,41.4,92.2,44.6c4.6,0.4,9.4,0.8,14.2,0.8
			c1.2,0,2.3,0,3.5,0c27.5,0,53.7-6.2,76-18.1c25.8-13.7,40.6-30.4,45.8-51C574.9,189.6,567.6,156.5,548.5,129.4z M560.1,226.9
			c-20.6,45.4-99.5,67.7-164.5,52.5c-22.5-6.2-45-17.5-58.5-38.1c-2.9-4.4-5.4-9.4-7.3-14.4c-12.5-33.7-4.2-72.9,21.7-101.8
			c0.6-0.6,1.2-1.5,1.9-2.1c0.2,0,0.4,0,0.6,0c2.9,0,6-0.6,9-1.7c0.4-0.2,0.4-0.4,0.4-0.8c-0.2-0.4-0.4-0.4-0.8-0.4
			c-11,4-22.7,0-29.6-10.2c-5.4-8.1-8.3-21.7,2.1-33.1c6.2-6.2,12.5-9.6,17.9-11c0.8-0.2,1.7-0.4,2.7-0.6c9-1.5,16.2,1.5,20,3.5
			c10.6,6,16.9,17.3,14.6,26.2l0,0c0,0,0,0,0,0.2c0,0,0,0,0,0.2l0,0l0.2,0.2l0,0c0,0,0,0,0.2,0c0,0,0,0,0.2,0l0,0h0.2l0,0
			c3.5-1.7,7.1-3.1,10.8-4.6l4.8-1.7c16-4.6,32.7-6.2,49.1-5.6c10,0.2,20,1.2,29.8,3.3c3.3,0.6,6.2,1.9,9.4,2.9
			c2.3,0.8,4.8,1.9,7.1,2.9c0.2,0,0.4,0,0.6,0l0,0c0,0,0,0,0.2-0.2l0,0c0,0,0,0,0-0.2v-0.2l0,0l0,0c-0.6-9.4,7.1-20,17.7-24.8
			c12.5-5.6,26.2-2.3,37.9,9.4c10.2,11.5,7.5,25,2.1,33.1c-6.9,10.2-18.5,14.2-29.6,10.2c-0.4-0.2-0.6,0-0.8,0.4
			c-0.2,0.4,0,0.6,0.4,0.8c0.2,0,0.2,0,0.4,0.2c2.7,2.5,7.3,2.7,11.5,2.3C547.9,131.3,580.7,181.7,560.1,226.9z"/>
	</g>
	<g>
		<path class="st18" d="M409.4,99c0,0-1.2,20,6.2,28.5c0,0-2.1-8.1,2.3-12.5c0,0,10,17.1,46.4,14.4c0,0,3.7-0.4,5.4,1.7
			c1.7,2.1-3.5-7.9-3.5-7.9l2.1-2.3l4,3.3c0,0,8.1,4,15.4,4.4c0,0-2.1-2.9-3.3-5.4c-1.2-2.5-1.7-9.6-1.7-9.6l1.7-6.9l2.3,9
			c0,0,6.5,6.5,14.8,6.5c0,0-6.2-3.5-8.3-8.5c-1.9-5-12.3-12.9-12.3-12.9H450L409.4,99z"/>
		<path class="st29" d="M487.7,114.9c-1.9-1.7-3.3-3.3-4.4-5.4c-0.6-1.2-1.2-2.5-1.7-3.7v0.2c0.4,1.5,1,2.9,1.5,4.4
			c0.6,1.5,1,2.9,1.5,4.4c0.2,0.4,0.2,1,0.4,1.5c0.6,2.5,1.5,5,2.3,7.5c0.2,0.4,0.4,0.8,0.6,1.2c0.2,0.2,0.2,0.4,0.4,0.6l0.2,0.4
			h-0.6c-0.2,0-0.2,0-0.4,0c-0.8,0-1.7,0-2.5,0c-1.9,0-3.7-0.2-5.6-0.2c-4.8-0.4-8.5-1.2-12.1-2.9c-2.5-1-5-2.5-7.7-4.6
			c-2.1-1.7-4.4-3.1-6.5-4.6l-1.7-1.5c4.6,5.8,10.2,9.8,16.7,12.1h0.2v0.6h-0.2c-0.2,0-0.4,0-0.6,0.2c-0.4,0-1,0.2-1.5,0.2
			c-4.8,0.2-9.2-1.2-13.7-5c-2.3-1.9-4.4-4-6.7-6.9c-0.4-0.6-0.8-1.2-1.2-1.9c0-0.2-0.2-0.2-0.2-0.4c0,0.2,0.2,0.4,0.2,0.6l0.2,0.2
			c0.6,1.7,1.5,3.5,2.5,5c1,1.2,2.3,2.5,3.5,3.5l0.2,0.2c1.7,1.7,3.7,2.9,6,4c0.8,0.4,1.7,0.8,2.7,1c0.8,0.4,1.7,0.6,2.5,1l1,0.4
			h-1.2c-0.6,0-1.2,0-1.7,0c-0.6,0-1.2,0-1.7,0c-0.8,0-1.5,0-2.3,0c-1.2,0-2.7-0.2-4-0.2h-0.8c-2.9-0.2-6-0.8-8.7-1.5
			c-6.2-1.7-11.7-4.2-16.4-7.5c-1.2-0.8-2.5-1.9-3.7-3.1c-3.1-2.9-4.8-6.7-5-11c0-1.2,0.4-2.5,0.8-3.7c0-0.2,0.2-0.6,0.2-0.8
			c0.4-1.2,0.8-2.3,1.2-3.5l0.2-0.6c0-0.2,0.2-0.4,0.2-0.6c-1.2,1.9-2.3,4.2-3.3,6.5c-0.8,2.3-1.5,4.6-1.5,6.7c0,0.4,0,1,0,1.5
			s0,0.8,0,1.2c0,0.4,0,0.8-0.2,1.5c0,0.8-0.2,1.7-0.2,2.5c0,1.2,0,2.5,0.2,3.7c0,0.6,0,1.2,0,1.7v0.2c0,0,0,0,0,0.2l-0.2,0.4
			l-1-0.8c-0.4-0.4-0.6-0.8-1-1.2c-2.3-2.7-3.1-6-3.7-9.2c-1-5-0.4-10,0.2-14c0.6-3.1,1.2-6,2.3-8.5c1.2-2.9,2.7-5.4,4.6-7.9
			c1.5-1.9,2.9-3.3,4.4-4.8c2.5-2.5,5.2-3.7,8.3-4.2c1-0.2,2.1,0,3.1,0c0.4,0,0.8,0,1.5,0c0.2,0,0.2,0,0.4,0c0.2,0,0.4,0,0.6,0
			l0.2-0.2c0-0.6,0.4-0.8,0.6-1h0.2c1.9-1.2,3.7-1.9,5.6-2.3c2.7-0.6,5.8-0.8,9.2-0.6c5,0.2,8.5,1,11.9,2.5c0.8,0.4,1.7,0.8,2.3,1.5
			c4.2,3.3,7.5,7.7,10,13.5c0.6,1.2,1.2,2.7,1.7,4c0.2,0.4,0.4,0.8,0.6,1.5c-1.2-7.3-4.2-13.1-8.7-18.1l-0.2-0.2l0.2-0.4h0.2
			c0.2,0,0.2,0,0.4,0c0.2,0,0.6,0,0.8,0.2c3.3,0.8,6,2.1,8.7,4.4s5,5.4,6.9,9.6c1.2,2.7,2.1,5,2.9,7.5c0.4,1.2,0.8,2.5,1,3.7
			c0.2,0.8,0.4,1.7,0.6,2.5c0.2,1,0.6,2.1,0.8,3.1c0.8,2.9,1.7,5.8,2.9,8.7c1.5,3.3,3.3,6,6,8.3c0,0,0,0.2,0.2,0.2c0,0,0,0,0.2,0.2
			l0.2,0.4h-0.4c-0.2,0-0.4,0-0.6,0c-0.4,0-0.8,0-1,0C493.7,118.4,490.4,117.1,487.7,114.9z"/>
		<path class="st30" d="M438.1,100.9c0,0-7.9-12.5-4.2-24.8C434,76.1,432.5,89.7,438.1,100.9z"/>
		<path class="st30" d="M420.2,93.6c-0.2,0.4-0.6,1-0.8,1.5c-0.6,1.5-1,2.9-1.5,4.2c-0.4,1.5-1,3.1-1,4.6c0,4.4,1.7,8.1,5,11
			c1.2,1,2.5,2.1,4,3.1c0.4,0.2,0.6,0.4,1,0.6C422.3,112.8,418.3,104,420.2,93.6z"/>
		<path class="st31" d="M428.5,69.9c-3.1,0.4-6,1.9-8.3,4.2c-1.5,1.5-2.9,3.1-4.4,4.8c-1.9,2.5-3.5,5-4.6,7.9
			c-1.2,2.7-1.9,5.6-2.5,8.5c-0.8,4.6-1.2,9.4-0.2,14c0,0.4,0.2,0.8,0.2,1.2c-2.7-31.2,24.2-40.6,24.2-40.6
			C431.5,69.9,430,69.7,428.5,69.9z"/>
		<path class="st31" d="M453.7,66.1c0,0,16,5.2,22.1,29.4c0,0,1,7.9,4.6,12.5c0,0-3.5-20.2-4.8-24.2
			C475.6,83.8,470.2,66.1,453.7,66.1z"/>
		<path class="st31" d="M490.6,126.1c0,0-20.6-7.3-27.7-21c0,0,11.9,13.5,23.9,16.7L490.6,126.1z"/>
		<g>
			<path class="st30" d="M451,116.5c0,0-10-8.5-11.9-13.1c0,0,2.5,5.8,6.2,11c0.4,3.7,2.1,8.5,3.3,12.5c1.2,0.2,2.7,0.4,4,0.4
				c1.7,0.2,3.3,0.2,4.8,0.4c1.9,0,4.8,0,6.7,0c-1.9-0.8-4.2-1.9-5.8-2.7c-2.3-1-4.6-1.9-6.5-3.5c-0.4-0.4-0.8-0.8-1.2-1l0.2-1.2
				c0.6,0.4,1,1,1.7,1.5c4.2,3.1,8.5,5.2,13.7,5c0.8,0,1.5-0.2,2.3-0.4l1.2-0.8c-2.9-1-2.9-0.8-5.4-2.5
				C460.4,120.5,455,118.2,451,116.5z"/>
			<path class="st30" d="M488.1,124.2c-0.2-0.8-0.2-0.8-0.6-1.7c-16-5-24.8-17.5-24.8-17.5c4.6,11.9,15,18.5,19.6,20.8
				c1.9,0,3.7,0.2,5.6,0.2c0.2,0,0.4,0,0.6,0C488.1,125.3,488.3,124.8,488.1,124.2z"/>
		</g>
		<path class="st32" d="M489.3,117.1c1.5,0.8,2.9,1.7,4.6,2.3c3.3,1.2,6.9,1.2,11-0.2c-0.2-0.2-0.4-0.2-0.6-0.4
			c-0.8-0.6-1.7-1-2.5-1.7c-2.7-1.9-4.8-4-6-6.5c-1.9-3.3-3.3-7.1-4.4-10.8l-0.2-1c-0.4-1.9-1-3.7-1.7-5.6c-1-3.1-2.1-5.8-3.1-8.3
			c-1-2.7-2.7-5.2-5-7.9c-0.2-0.2-0.4-0.4-0.6-0.8c-0.8-1-1.9-2.3-2.9-3.1c-1.9-1.2-3.5-2.3-5.4-2.9c-1.7-0.6-3.5-1-5.4-0.8
			c-0.2,0-0.4,0-0.6-0.2c-0.8-0.4-1.5-0.8-2.3-1.2c-3.5-2.1-7.7-3.1-12.7-3.3c-2.1-0.2-4.4,0-6.9,0.2c-1.9,0.2-3.7,0.6-5.8,1.2
			c-1.7,0.6-3.7,1.2-4.8,3.1c-0.2,0.2-0.6,0.2-0.8,0.2c-0.4,0-0.6-0.2-1-0.2c-0.6-0.2-1.2-0.2-1.9-0.2c-3.3-0.2-6.2,0.6-9.2,2.5
			c-2.1,1.5-4,3.3-6,5.8c-2.3,2.9-4,5.6-5,8.5c-0.8,1.9-1.5,4-1.9,5.8c-0.6,2.1-1,4.6-1.5,7.3c-0.4,2.1-0.2,4.4,0,6
			c0.2,3.3,0.6,6.5,2.1,9.2c2.3,5.2,5.6,9,10.2,11.7l0,0c-1.2-3.7-1.5-7.5-1.7-11.2c0-0.6,0-1.5-0.2-2.1v-0.4h0.4
			c0.2,0,0.2,0.2,0.4,0.2c0.6,0.6,1,1,1.5,1.7c1.2,1.2,2.3,2.5,3.5,3.5c2.9,2.5,6.5,4.2,9.4,5.4c6,2.7,12.7,4.4,19.4,4.8
			c2.1,0.2,4.2,0,6.2,0c0.8,0,1.7,0,2.5,0c0.6,0,1.2,0,1.9,0c0.8,0,1.9,0,2.9,0c0.6,0,1.2,0,1.9,0c2.1,0.2,4,0.6,5.6,1.7
			c-0.6-1-1.5-1.9-2.7-2.7l-0.2-0.2l0.2-0.2l0,0c0,0,0-0.2,0.2-0.2c0.2,0,0.4-0.2,0.6-0.2c0.4-0.2,0.8-0.2,1.2-0.6
			c0.2-0.2,0.4-0.2,0.6-0.2h0.2c0.6,0,1.2,0.2,1.7,0.2c1.2,0.2,2.7,0.4,4,0.4c0.8,0,1.9,0.2,2.9,0.2h0.4c2.9,0,6,0,9,0.2l0,0
			c0,0,0,0,0.2,0l0,0c-1.2-1.2-1.9-2.9-2.3-4.6c0-0.4-0.2-0.6-0.2-1c-0.2-0.8-0.2-1.7-0.4-2.5c0-0.4,0-0.6-0.2-1c0-0.2,0-0.2,0-0.4
			v-0.6l0.6,0.4c0.2,0,0.4,0.2,0.4,0.2C488.7,116.7,488.9,116.9,489.3,117.1z M487.7,114.9c-1.9-1.7-3.3-3.3-4.4-5.4
			c-0.6-1.2-1.2-2.5-1.7-3.7v0.2c0.4,1.5,1,2.9,1.5,4.4c0.6,1.5,1,2.9,1.5,4.4c0.2,0.4,0.2,1,0.4,1.5c0.6,2.5,1.5,5,2.3,7.5
			c0.2,0.4,0.4,0.8,0.6,1.2c0.2,0.2,0.2,0.4,0.4,0.6l0.2,0.4h-0.6c-0.2,0-0.2,0-0.4,0c-0.8,0-1.7,0-2.5,0c-1.9,0-3.7-0.2-5.6-0.2
			c-4.8-0.4-8.5-1.2-12.1-2.9c-2.5-1-5-2.5-7.7-4.6c-2.1-1.7-4.4-3.1-6.5-4.6l-1.7-1.5c4.6,5.8,10.2,9.8,16.7,12.1h0.2v0.6h-0.2
			c-0.2,0-0.4,0-0.6,0.2c-0.4,0-1,0.2-1.5,0.2c-4.8,0.2-9.2-1.2-13.7-5c-2.3-1.9-4.4-4-6.7-6.9c-0.4-0.6-0.8-1.2-1.2-1.9
			c0-0.2-0.2-0.2-0.2-0.4c0,0.2,0.2,0.4,0.2,0.6l0.2,0.2c0.6,1.7,1.5,3.5,2.5,5c1,1.2,2.3,2.5,3.5,3.5l0.2,0.2c1.7,1.7,3.7,2.9,6,4
			c0.8,0.4,1.7,0.8,2.7,1c0.8,0.4,1.7,0.6,2.5,1l1,0.4h-1.2c-0.6,0-1.2,0-1.7,0c-0.6,0-1.2,0-1.7,0c-0.8,0-1.5,0-2.3,0
			c-1.2,0-2.7-0.2-4-0.2h-0.8c-2.9-0.2-6-0.8-8.7-1.5c-6.2-1.7-11.7-4.2-16.4-7.5c-1.2-0.8-2.5-1.9-3.7-3.1c-3.1-2.9-4.8-6.7-5-11
			c0-1.2,0.4-2.5,0.8-3.7c0-0.2,0.2-0.6,0.2-0.8c0.4-1.2,0.8-2.3,1.2-3.5l0.2-0.6c0-0.2,0.2-0.4,0.2-0.6c-1.2,1.9-2.3,4.2-3.3,6.5
			c-0.8,2.3-1.5,4.6-1.5,6.7c0,0.4,0,1,0,1.5s0,0.8,0,1.2c0,0.4,0,0.8-0.2,1.5c0,0.8-0.2,1.7-0.2,2.5c0,1.2,0,2.5,0.2,3.7
			c0,0.6,0,1.2,0,1.7v0.2c0,0,0,0,0,0.2l-0.2,0.4l-1-0.8c-0.4-0.4-0.6-0.8-1-1.2c-2.3-2.7-3.1-6-3.7-9.2c-1-5-0.4-10,0.2-14
			c0.6-3.1,1.2-6,2.3-8.5c1.2-2.9,2.7-5.4,4.6-7.9c1.5-1.9,2.9-3.3,4.4-4.8c2.5-2.5,5.2-3.7,8.3-4.2c1-0.2,2.1,0,3.1,0
			c0.4,0,0.8,0,1.5,0c0.2,0,0.2,0,0.4,0c0.2,0,0.4,0,0.6,0l0.2-0.2c0-0.6,0.4-0.8,0.6-1h0.2c1.9-1.2,3.7-1.9,5.6-2.3
			c2.7-0.6,5.8-0.8,9.2-0.6c5,0.2,8.5,1,11.9,2.5c0.8,0.4,1.7,0.8,2.3,1.5c4.2,3.3,7.5,7.7,10,13.5c0.6,1.2,1.2,2.7,1.7,4
			c0.2,0.4,0.4,0.8,0.6,1.5c-1.2-7.3-4.2-13.1-8.7-18.1l-0.2-0.2l0.2-0.4h0.2c0.2,0,0.2,0,0.4,0c0.2,0,0.6,0,0.8,0.2
			c3.3,0.8,6,2.1,8.7,4.4s5,5.4,6.9,9.6c1.2,2.7,2.1,5,2.9,7.5c0.4,1.2,0.8,2.5,1,3.7c0.2,0.8,0.4,1.7,0.6,2.5
			c0.2,1,0.6,2.1,0.8,3.1c0.8,2.9,1.7,5.8,2.9,8.7c1.5,3.3,3.3,6,6,8.3c0,0,0,0.2,0.2,0.2c0,0,0,0,0.2,0.2l0.2,0.4h-0.4
			c-0.2,0-0.4,0-0.6,0c-0.4,0-0.8,0-1,0C493.7,118.4,490.4,117.1,487.7,114.9z"/>
	</g>
	<g>
		<path class="st33" d="M560.1,141.1c0-0.5,0-1.9-0.4-4.4l0,0l0,0c-0.4-4.8-1.3-13.1-3.6-23.2c0,0,0,0,0-0.5s0-0.5-0.4-0.5
			c-7.6-33.4-27.2-84.3-79.4-86.2h-0.4c-0.9-2.9-2.2-5.3-3.1-6.3c-8.9-7.3-23.6-6.3-24.1-6.3h-0.4c-0.4,0-15.2-1-24.5,6.3
			c-1.3,1-2.2,2.9-3.1,6.3h-0.4c-51.7,1.9-71.3,52.3-78.9,85.7l-0.4,0.5c0,0,0,0,0,0.5c-2.2,10.2-3.1,18.4-3.6,23.2l0,0l0,0
			c0,1.9-0.4,3.4-0.4,4.4c-0.4,1-0.9,2.9,0.4,5.3c4.5,8.2,27.6,17.4,111,17.4h0.4c83.4,0,106.1-9.7,111-17.4
			C561,143.5,560.6,141.6,560.1,141.1z M553,111.5c-6.2,0.5-29.9,2.4-66.9,2.4c-0.4-11.6-3.1-62.9-8.9-84.7
			C526.2,31.6,545.4,79.1,553,111.5z M426.4,22.4c8-6.8,22.3-5.3,22.3-5.3h0.4c0,0,14.3-1,22.3,5.3c5.8,4.8,10.3,59.6,12,93.5
			c0,1,0.9,1.5,1.3,1.5c38.3,0,62.9-1.9,68.7-2.4c1.8,8.7,2.7,16,3.1,20.8c-10.3,0.5-66.4,2.9-107.9,2.9h-0.4
			c-41.5,0-97.6-2.4-107.9-2.9c0.4-4.8,1.3-12.1,3.1-20.8c5.8,0.5,30.3,2.4,68.7,2.4c0.9,0,1.3-0.5,1.3-1.5
			C415.7,82,420.1,27.3,426.4,22.4z M420.1,29.2c-5.8,21.8-8.5,73.6-8.9,84.7c-36.6,0-60.2-1.9-66.9-2.4
			C351.9,79.1,371.1,31.6,420.1,29.2z M557,144.9c-3.1,4.8-19.2,16-108.3,16h-0.4c-88.7,0-105.2-11.1-108.3-16
			c-0.9-1.5-0.4-2.4-0.4-2.4V142c0,0,0-1,0-2.9c9.8,0.5,66.4,2.9,108.3,2.9h0.4c41.9,0,98.5-2.4,108.3-2.9c0,1.9,0,2.9,0.4,2.9v0.5
			C557.4,142,557.9,143,557,144.9z"/>
		<linearGradient id="SVGID_9_" gradientUnits="userSpaceOnUse" x1="461.7186" y1="53.7479" x2="553.0856" y2="111.3795">
			<stop  offset="0.3228" style="stop-color:#F8CE71"/>
			<stop  offset="1" style="stop-color:#F0A63B"/>
		</linearGradient>
		<path class="st15" d="M553,111.5c-6.2,0.5-29.9,2.4-66.9,2.4c-0.4-11.6-3.1-62.9-8.9-84.7C526.2,31.6,545.4,79.1,553,111.5z"/>
		<linearGradient id="SVGID_10_" gradientUnits="userSpaceOnUse" x1="377.633" y1="61.2456" x2="539.2759" y2="163.2051">
			<stop  offset="0.3228" style="stop-color:#F8CE71"/>
			<stop  offset="1" style="stop-color:#F0A63B"/>
		</linearGradient>
		<path class="st23" d="M426.4,22.4c8-6.8,22.3-5.3,22.3-5.3h0.4c0,0,14.3-1,22.3,5.3c5.8,4.8,10.3,59.6,12,93.5
			c0,1,0.9,1.5,1.3,1.5c38.3,0,62.9-1.9,68.7-2.4c1.8,8.7,2.7,16,3.1,20.8c-10.3,0.5-66.4,2.9-107.9,2.9h-0.4
			c-41.5,0-97.6-2.4-107.9-2.9c0.4-4.8,1.3-12.1,3.1-20.8c5.8,0.5,30.3,2.4,68.7,2.4c0.9,0,1.3-0.5,1.3-1.5
			C415.7,82,420.1,27.3,426.4,22.4z"/>
		<linearGradient id="SVGID_11_" gradientUnits="userSpaceOnUse" x1="365.9023" y1="60.089" x2="422.7844" y2="95.9686">
			<stop  offset="0.3228" style="stop-color:#F8CE71"/>
			<stop  offset="1" style="stop-color:#F0A63B"/>
		</linearGradient>
		<path class="st34" d="M420.1,29.2c-5.8,21.8-8.5,73.6-8.9,84.7c-36.6,0-60.2-1.9-66.9-2.4C351.9,79.1,371.1,31.6,420.1,29.2z"/>
		<linearGradient id="SVGID_12_" gradientUnits="userSpaceOnUse" x1="369.1614" y1="92.6996" x2="527.0851" y2="192.3134">
			<stop  offset="0.3228" style="stop-color:#F8CE71"/>
			<stop  offset="1" style="stop-color:#F0A63B"/>
		</linearGradient>
		<path class="st35" d="M557,144.9c-3.1,4.8-19.2,16-108.3,16h-0.4c-88.7,0-105.2-11.1-108.3-16c-0.9-1.5-0.4-2.4-0.4-2.4V142
			c0,0,0-1,0-2.9c9.8,0.5,66.4,2.9,108.3,2.9h0.4c41.9,0,98.5-2.4,108.3-2.9c0,1.9,0,2.9,0.4,2.9v0.5C557.4,142,557.9,143,557,144.9
			z"/>
		<path class="st38" d="M449.1,17.1L449.1,17.1c-0.9,0-14.7-1-22.7,5.3c-1.3,1-2.7,5.3-4,11.6l4.9-6.3c6.2-8.2,19.6-10.2,28.1-11.1
			C451.8,16.6,449.1,17.1,449.1,17.1z"/>
		<path class="st38" d="M344.8,111.5c2.2,0,6.2,0.5,12,1c1.3-2.9,15.2-45,27.6-63.9c8.5-13.1,25.4-16.5,35.2-17.4
			c0-0.5,0.4-1.5,0.4-1.9C371.1,31.6,351.9,79.1,344.8,111.5z"/>
		<path class="st38" d="M351.5,135.3c-1.3-5.8-0.4-16.5,0-19.9c-3.6,0-5.8-0.5-7.1-0.5c-1.8,8.7-2.7,16-3.1,20.8
			c1.8,0,5.8,0.5,10.7,0.5C351.5,135.7,351.5,135.3,351.5,135.3z"/>
		<path class="st38" d="M346.1,138.7c-2.7,0-4.5,0-5.8-0.5c0,1.9,0,2.9,0,2.9c0,0.5,0,0.5,0,0.5s-0.4,1,0.4,2.4
			c2.7,4.8,18.7,15.5,103,16C370.6,159,351,146.9,346.1,138.7z"/>
		<path class="st39" d="M425.9,25.3c0,0-7.6,24.7-9.4,92.5"/>
	</g>
</g>
</svg>
