<?xml version="1.0" encoding="utf-8"?>
<!-- Generator: Adobe Illustrator 21.0.0, SVG Export Plug-In . SVG Version: 6.00 Build 0)  -->
<svg version="1.1" id="圖層_1" xmlns="http://www.w3.org/2000/svg" xmlns:xlink="http://www.w3.org/1999/xlink" x="0px" y="0px"
	 viewBox="0 0 822.9 601.4" style="enable-background:new 0 0 822.9 601.4;" xml:space="preserve">
<style type="text/css">
	.st0{fill:url(#SVGID_1_);}
	.st1{fill:#D59543;}
	.st2{fill:#AB6C21;}
	.st3{opacity:0.6;fill:#D59543;enable-background:new    ;}
	.st4{fill:url(#SVGID_2_);}
	.st5{fill:url(#SVGID_3_);}
	.st6{fill:#E2BF40;}
	.st7{fill:#AC6D21;}
	.st8{opacity:0.6;fill:#E2BF40;enable-background:new    ;}
	.st9{fill:url(#SVGID_4_);}
	.st10{fill:url(#SVGID_5_);}
	.st11{opacity:0.6;}
	.st12{fill:url(#SVGID_6_);}
	.st13{fill:#FCE4B4;}
	.st14{opacity:0.5;fill:#DA9E36;enable-background:new    ;}
	.st15{fill:url(#SVGID_7_);}
	.st16{fill:url(#SVGID_8_);}
	.st17{fill:url(#SVGID_9_);}
	.st18{opacity:0.4;fill:#C49358;enable-background:new    ;}
	.st19{opacity:0.5;}
	.st20{fill:url(#SVGID_10_);}
	.st21{fill:url(#SVGID_11_);}
	.st22{fill:url(#SVGID_12_);}
	.st23{fill:url(#SVGID_13_);}
	.st24{fill:url(#SVGID_14_);}
	.st25{fill:url(#SVGID_15_);}
	.st26{fill:#7D5223;}
	.st27{fill:url(#SVGID_16_);}
	.st28{opacity:0.5;fill:url(#SVGID_17_);enable-background:new    ;}
	.st29{fill:#CC7C5C;}
	.st30{fill:url(#SVGID_18_);}
	.st31{fill:url(#SVGID_19_);}
	.st32{fill:#D69644;}
	.st33{fill:url(#SVGID_20_);}
	.st34{fill:url(#SVGID_21_);}
	.st35{fill:url(#SVGID_22_);}
	.st36{fill:url(#SVGID_23_);}
	.st37{fill:url(#SVGID_24_);}
	.st38{fill:url(#SVGID_25_);}
	.st39{fill:url(#SVGID_26_);}
	.st40{fill:url(#SVGID_27_);}
	.st41{fill:url(#SVGID_28_);}
	.st42{fill:url(#SVGID_29_);}
	.st43{fill:url(#SVGID_30_);}
	.st44{opacity:0.5;fill:url(#SVGID_31_);enable-background:new    ;}
	.st45{fill:url(#SVGID_32_);}
	.st46{fill:#CE9245;}
	.st47{fill:#A66A22;}
	.st48{opacity:0.6;fill:#CE9245;enable-background:new    ;}
	.st49{fill:url(#SVGID_33_);}
	.st50{fill:#9F7433;}
	.st51{fill:#746766;}
	.st52{fill:#2F2A28;}
	.st53{opacity:0.5;fill:#2F2A28;enable-background:new    ;}
	.st54{fill:#865C25;}
	.st55{fill:#755325;}
	.st56{fill:none;stroke:#746766;stroke-width:0.8163;stroke-linecap:round;stroke-miterlimit:10;}
	.st57{fill:url(#SVGID_34_);}
	.st58{fill:url(#SVGID_35_);}
	.st59{fill:url(#SVGID_36_);}
	.st60{fill:url(#SVGID_37_);}
	.st61{fill:url(#SVGID_38_);}
	.st62{fill:url(#SVGID_39_);}
	.st63{fill:url(#SVGID_40_);}
	.st64{fill:url(#SVGID_41_);}
	.st65{fill:url(#SVGID_42_);}
	.st66{opacity:0.8;}
	.st67{fill:url(#SVGID_43_);}
	.st68{fill:url(#SVGID_44_);}
	.st69{fill:url(#SVGID_45_);}
	.st70{fill:url(#SVGID_46_);}
	.st71{fill:url(#SVGID_47_);}
	.st72{fill:url(#SVGID_48_);}
	.st73{fill:url(#SVGID_49_);}
	.st74{fill:#3C3A39;}
	.st75{fill:url(#SVGID_50_);}
	.st76{fill:url(#SVGID_51_);}
	.st77{fill:url(#SVGID_52_);}
	.st78{fill:#532817;}
	.st79{fill:#48210E;}
	.st80{fill:url(#SVGID_53_);}
	.st81{fill:url(#SVGID_54_);}
	.st82{fill:url(#SVGID_55_);}
	.st83{fill:url(#SVGID_56_);}
	.st84{fill:url(#SVGID_57_);}
	.st85{fill:url(#SVGID_58_);}
	.st86{fill:url(#SVGID_59_);}
	.st87{fill:url(#SVGID_60_);}
	.st88{fill:url(#SVGID_61_);}
	.st89{fill:url(#SVGID_62_);}
	.st90{fill:url(#SVGID_63_);}
	.st91{fill:url(#SVGID_64_);}
	.st92{fill:url(#SVGID_65_);}
	.st93{fill:url(#SVGID_66_);}
	.st94{fill:url(#SVGID_67_);}
	.st95{fill:url(#SVGID_68_);}
	.st96{fill:#A46723;}
	.st97{fill:url(#SVGID_69_);}
	.st98{fill:url(#SVGID_70_);}
	.st99{fill:url(#SVGID_71_);}
	.st100{fill:url(#SVGID_72_);}
	.st101{fill:url(#SVGID_73_);}
	.st102{fill:url(#SVGID_74_);}
	.st103{fill:url(#SVGID_75_);}
	.st104{fill:url(#SVGID_76_);}
	.st105{fill:url(#SVGID_77_);}
	.st106{fill:url(#SVGID_78_);}
	.st107{fill:url(#SVGID_79_);}
	.st108{fill:url(#SVGID_80_);}
	.st109{fill:url(#SVGID_81_);}
	.st110{fill:url(#SVGID_82_);}
	.st111{fill:url(#SVGID_83_);}
	.st112{fill:url(#SVGID_84_);}
	.st113{fill:url(#SVGID_85_);}
	.st114{fill:url(#SVGID_86_);}
	.st115{fill:url(#SVGID_87_);}
	.st116{fill:url(#SVGID_88_);}
	.st117{fill:url(#SVGID_89_);}
	.st118{fill:url(#SVGID_90_);}
	.st119{fill:url(#SVGID_91_);}
	.st120{fill:url(#SVGID_92_);}
	.st121{fill:url(#SVGID_93_);}
	.st122{fill:url(#SVGID_94_);}
	.st123{fill:url(#SVGID_95_);}
	.st124{fill:url(#SVGID_96_);}
	.st125{fill:url(#SVGID_97_);}
	.st126{fill:url(#SVGID_98_);}
	.st127{fill:url(#SVGID_99_);}
	.st128{fill:url(#SVGID_100_);}
	.st129{fill:url(#SVGID_101_);}
	.st130{fill:url(#SVGID_102_);}
	.st131{fill:url(#SVGID_103_);}
	.st132{fill:url(#SVGID_104_);}
	.st133{fill:url(#SVGID_105_);}
	.st134{fill:url(#SVGID_106_);}
	.st135{fill:url(#SVGID_107_);}
	.st136{fill:url(#SVGID_108_);}
	.st137{fill:url(#SVGID_109_);}
	.st138{fill:url(#SVGID_110_);}
	.st139{fill:url(#SVGID_111_);}
	.st140{fill:url(#SVGID_112_);}
	.st141{fill:url(#SVGID_113_);}
	.st142{fill:url(#SVGID_114_);}
	.st143{fill:url(#SVGID_115_);}
	.st144{fill:url(#SVGID_116_);}
	.st145{fill:url(#SVGID_117_);}
	.st146{fill:url(#SVGID_118_);}
	.st147{fill:url(#SVGID_119_);}
	.st148{fill:url(#SVGID_120_);}
	.st149{fill:url(#SVGID_121_);}
	.st150{fill:url(#SVGID_122_);}
	.st151{fill:url(#SVGID_123_);}
	.st152{fill:url(#SVGID_124_);}
	.st153{fill:url(#SVGID_125_);}
	.st154{fill:url(#SVGID_126_);}
	.st155{fill:url(#SVGID_127_);}
	.st156{fill:url(#SVGID_128_);}
	.st157{fill:url(#SVGID_129_);}
	.st158{fill:url(#SVGID_130_);}
	.st159{fill:url(#SVGID_131_);}
	.st160{fill:url(#SVGID_132_);}
	.st161{fill:url(#SVGID_133_);}
	.st162{fill:url(#SVGID_134_);}
	.st163{fill:url(#SVGID_135_);}
	.st164{fill:url(#SVGID_136_);}
	.st165{fill:url(#SVGID_137_);}
	.st166{fill:url(#SVGID_138_);}
	.st167{fill:url(#SVGID_139_);}
	.st168{fill:url(#SVGID_140_);}
	.st169{fill:url(#SVGID_141_);}
	.st170{fill:url(#SVGID_142_);}
	.st171{fill:url(#SVGID_143_);}
	.st172{fill:url(#SVGID_144_);}
	.st173{fill:url(#SVGID_145_);}
	.st174{fill:url(#SVGID_146_);}
	.st175{fill:url(#SVGID_147_);}
	.st176{fill:url(#SVGID_148_);}
	.st177{fill:url(#SVGID_149_);}
	.st178{fill:url(#SVGID_150_);}
	.st179{fill:url(#SVGID_151_);}
	.st180{fill:#BED26B;}
	.st181{fill:#FFFFFF;}
	.st182{fill:#F3E4A2;}
	.st183{fill:#8EA63A;}
	.st184{fill:none;stroke:#BED26B;stroke-width:1.064;stroke-miterlimit:10;}
	.st185{opacity:0.6;fill:#DCCFB8;enable-background:new    ;}
	.st186{fill:url(#SVGID_152_);}
	.st187{fill:url(#SVGID_153_);}
	.st188{fill:#888888;}
	.st189{fill:#456430;}
	.st190{fill:#709846;}
	.st191{fill:url(#SVGID_154_);}
	.st192{fill:url(#SVGID_155_);}
	.st193{fill:#C8C9CA;}
	.st194{fill:url(#SVGID_156_);}
	.st195{opacity:0.6;fill:#709846;enable-background:new    ;}
	.st196{fill:#211714;}
	.st197{fill:url(#SVGID_157_);}
	.st198{fill:url(#SVGID_158_);}
	.st199{opacity:0.6;fill:#D69644;enable-background:new    ;}
	.st200{fill:url(#SVGID_159_);}
</style>
<g>
	<g>
		<g>
			
				<linearGradient id="SVGID_1_" gradientUnits="userSpaceOnUse" x1="3519.9236" y1="382.3396" x2="3606.5259" y2="382.3396" gradientTransform="matrix(-1 0 0 1 4123.6563 0)">
				<stop  offset="0" style="stop-color:#F2D397"/>
				<stop  offset="0.5331" style="stop-color:#F3D093"/>
				<stop  offset="0.7526" style="stop-color:#F5CC8F"/>
				<stop  offset="1" style="stop-color:#F3B699"/>
			</linearGradient>
			<path class="st0" d="M517,357.6l8.3-18.5c0-0.4,0-1.1,0.4-1.5c0-0.4,0-0.4,0-0.4c0-0.4,0.4-0.8,0.4-1.1s0-0.4,0.4-0.8
				c0.4-0.4,0.4-0.8,0.4-1.1c0-0.4,0-0.4,0.4-0.4c0.4-0.8,0.4-1.1,0.8-1.5c0-0.4,0.4-0.4,0.4-0.4c0.4-0.4,0.4-0.8,0.8-1.1
				c0-0.4,0.4-0.4,0.4-0.8c0.4-0.4,0.4-0.8,0.8-1.1c0-0.4,0.4-0.4,0.4-0.8c3-5.7,7.2-11.3,10.2-14.7c0.4-0.4,0.4-0.4,0.4-0.4
				c16.2,20.4,34.3,48.3,48.7,83c0,0,13.2,12.5,13.2,30.2c0,17.7-13.6,23.4-21.1,21.9l0,0c-8.3,7.2-20,2.6-22.3-9.1v-0.4
				c-0.4,0.4-1.1,0.8-1.5,0.8c-4.9,2.6-11.3-0.8-13.6-4.9l0,0l0,0c0-0.4-0.4-0.4-0.4-0.8l0.4-0.4l-1.5-14.3h0.4v-3.8l0.8-2.6
				c-0.4-0.8-0.8-1.5-0.8-2.3l-0.8-1.1l-0.8-2.6v-0.8c-2.6-6.4-6.8-15.8-12.1-26.4c-3.4-7.2-7.5-14.3-11.3-21.5L517,357.6z"/>
		</g>
		<path class="st1" d="M568.3,418.7c0,0,2.6,19.6-8.3,26l-1.9-5.7C558.1,439.1,569.8,433.4,568.3,418.7z"/>
		<path class="st1" d="M587.2,425.1c0,0,4.9,12.8,1.1,22.3c0,0-3.4,1.1-8.3,0.8C580.4,448.2,589,443.6,587.2,425.1z"/>
		<path class="st2" d="M569,425.1c0,0,0.4,11.7-9.8,15.8l-0.4-1.5C558.9,439.1,569,430.1,569,425.1z"/>
		<path class="st2" d="M588.3,431.9c0,0,0.8,10.9-4.9,16.6l-3.8-0.4C579.6,448.2,587.2,440.6,588.3,431.9z"/>
		<path class="st3" d="M517,357.6l8.3-18.5c0-0.4,0-1.1,0.4-1.5c0-0.4,0-0.4,0-0.4c0-0.4,0.4-0.8,0.4-1.1s0-0.4,0.4-0.8
			c0.4-0.4,0.4-0.8,0.4-1.1c0-0.4,0-0.4,0.4-0.4c0.4-0.8,0.4-1.1,0.8-1.5c0-0.4,0.4-0.4,0.4-0.4c0.4-0.4,0.4-0.8,0.8-1.1
			c0-0.4,0.4-0.4,0.4-0.8c0.4-0.4,0.4-0.8,0.8-1.1c0-0.4,0.4-0.4,0.4-0.8c0,0,0-0.4,0.4-0.4c10.9,21.5,23,50.6,23.4,74.7
			c0,0-13.6,17.4-8.7,34c-0.4-0.4-0.8-1.1-0.8-1.5l0,0l0,0c0-0.4-0.4-0.4-0.4-0.8l0.4-0.4l-3.4-14.3h0.4v-3.8l0.8-3l-1.9-2.6
			l-1.1-2.6l-20.4-44.1c0,0-1.1-1.1-3-4.2L517,357.6z"/>
		<g>
			<path class="st2" d="M541.5,415l-0.8-1.1l0,0c-0.4-0.4-13.2-29.4-25.3-52.8l1.1-3l0,0c10.9,21.1,23,47.9,26,53.6
				c0.4-1.1,0.8-1.5,0.8-1.5l0,0c1.1-1.9,2.3-3.8,2.6-3.8c0.4-0.4,0.8-0.4,0.8,0c0.4,0.4,0.4,0.8,0,0.8c-0.4,0.4-0.8,0.8-0.8,1.1
				c0,0-7.2,10.9-3,26.4l0,0c0.8,2.3,3,4.2,5.7,5.3c2.6,1.1,5.3,1.1,7.5,0c8.7-4.2,13.2-13.6,11.3-22.6c0-0.4,0.4-0.8,0.4-0.8
				c0.4,0,0.8,0.4,0.8,0.4c1.9,9.1-2.3,18.1-9.8,23c1.1,5.7,4.5,9.4,9.4,10.9c4.5,1.1,9.1,0,12.8-3.8c9.1-9.1,5.7-23,5.7-23
				c0-0.4,0.4-0.8,0.4-0.8c0.4,0,0.8,0.4,0.8,0.4c0,0.4,3.8,14.7-6,24.1l0,0c3,0.4,7.5-0.8,11.3-3.8c3.4-2.6,7.5-7.9,7.5-17.7
				c0-17.4-12.8-29.8-12.8-29.8l-0.4-0.4c-14.3-35.1-32.8-62.6-48.7-82.6l0.4-0.4c1.1-1.1,2.3-2.3,2.6-3l0,0
				c5.3,6.4,10.9,14,16.2,22.6l0,0c0,0,26.4,39.2,32.1,61.1c7.2,9.4,20.8,30.6,7.9,46.8c-1.1,1.9-2.6,3.4-4.2,4.5
				c-0.4,0.4-1.1,0.8-1.5,1.1c-0.4,0-0.4,0.4-0.4,0.4l0,0c-3,1.9-6,2.6-9.4,2.6c-0.8,0-1.5,0-2.3-0.4c-2.6,2.3-6,3.4-9.1,3.4
				c-1.1,0-2.6-0.4-3.8-0.8c-4.9-1.5-8.7-5.7-10.2-11.7c-0.4,0.4-0.8,0.4-0.8,0.4c-1.1,0.8-2.6,0.8-4.2,0.8c-1.5,0-2.6-0.4-4.2-0.8
				c-2.6-1.1-4.9-3-6-5.7l0,0c0,0,0,0,0-0.4s-0.4-0.4-0.4-0.4l0,0c0,0-1.1-2.6-1.5-7.2c-0.4-1.5-0.4-3.8,0-6
				C540.7,418.7,541.1,416.5,541.5,415z"/>
		</g>
	</g>
	<g>
		<g>
			<path class="st180" d="M453.3,351.3c-7.2,0-14.4-0.8-19.3-2.3c-1.5,0.4-5.7,1.9-7.2,0.4c-0.8-0.8-0.8-2.3,0-3.8
				c-0.4-4.2-4.9-56.8-4.9-63.2v-15.9c0-0.4,0.4-0.8,0.8-0.8s36.7-7.6,65.8-3.8c0.4,0,0.8,0.4,0.8,0.8c0,0.8,1.9,73,2.6,78.3
				c0.8,5.3,0,8.7-0.4,9.1c0,0.4-0.4,0.4-0.8,0.8c0,0-4.5,0.8-9.1-1.1C479.1,349.4,466.2,351.3,453.3,351.3z M433.7,347.1
				C433.7,347.1,434,347.1,433.7,347.1c14.4,5.3,47.3,0.4,47.7,0.4h0.4c3.4,1.5,6.4,1.5,7.9,1.1c0.4-1.1,0.8-4.2,0-7.9
				c-0.8-4.9-2.3-69.6-2.6-77.6c-26.5-3.4-59,2.6-64.3,3.8V282c0,6.4,4.9,62.4,4.9,63.2v0.4c-0.4,1.1-0.8,1.9-0.4,2.3
				C428.4,349,431.4,348.3,433.7,347.1L433.7,347.1z"/>
			<path class="st181" d="M433.7,347.1C433.7,347.1,434,347.1,433.7,347.1c14.4,5.3,47.3,0.4,47.7,0.4h0.4c3.4,1.5,6.4,1.5,7.9,1.1
				c0.4-1.1,0.8-4.2,0-7.9c-0.8-4.9-2.3-69.6-2.6-77.6c-26.5-3.4-59,2.6-64.3,3.8V282c0,6.4,4.9,62.4,4.9,63.2v0.4
				c-0.4,1.1-0.8,1.9-0.4,2.3C428.4,349,431.4,348.3,433.7,347.1L433.7,347.1z"/>
			<path class="st182" d="M427.6,347.9c0.8,0.8,3.8,0,5.7-0.8h0.4c0,0,0,0,0.4,0c14,4.9,46.9,0.4,47.3,0h0.4
				c3.4,1.5,6.4,1.5,7.9,1.1c0.4-1.1,0.8-4.2,0-7.9c-0.4-2.6-1.1-22.3-1.5-41.2c-12.5,1.5-12.5,11.4-12.5,11.4
				c-11,0.4-10.2,7.2-10.2,7.2c-8.7-2.3-9.8,1.9-9.8,1.9c-3.8-10.2-14-9.1-14-9.1s-1.5-8.3-8.7-9.5c-3.4-0.4-6.4,0.8-8.7,1.9
				c1.5,18.2,3.4,40.9,3.4,41.2v0.4C427.2,346.7,427.2,347.9,427.6,347.9z"/>
			<path class="st183" d="M449.2,321.4c3-1.5,6.4-2.3,9.8-2.6c3.8-0.4,7.6,0.4,11,2.3c0.8,0.4,0.8,0.8,0,1.5
				c-3.8,3-7.9,4.5-12.5,5.3c-3.8,0.4-7.6,0-11.4-1.5c-0.4-0.4-0.8,0-1.1,0.4c-1.1,1.5-2.3,3-3.8,4.5c-0.4,0.4-0.8,0.8-1.1,0.4
				s-0.4-0.8,0-1.1c1.1-1.5,2.3-3,3.4-4.5c0.4-0.4,0.4-0.8,0-1.1c-5.3-7.2-6.1-15.1-2.6-23.5c0.4-1.1,1.1-1.1,1.9-0.4
				c4.5,5.7,6.1,11.7,4.5,18.9c0,0.4,0,0.4,0,0.8c0,0,0,0,0.4,0c0.4-0.4,0.8-1.1,1.1-1.5c1.1-1.5,2.6-3.4,3.8-4.9
				c0.4-0.4,0.4-0.8,0-1.5c-4.2-6.1-4.9-12.5-2.3-18.9c0.4-1.1,1.1-1.1,1.9-0.4c3.4,4.5,4.9,9.5,3.8,14.8c0,0.4,0,0.4,0,0.8
				c1.5-2.3,3.4-4.2,4.9-6.4c-1.1-1.5-1.9-3.4-2.6-5.3c-0.8-3.4-0.8-6.8,0.8-10.2c0.4-0.8,0.8-0.8,1.5,0c2.6,3.4,3.8,7.2,3.4,11.7
				c0,0,0,0,0,0.4c0.8-1.5,1.9-2.3,2.3-3.8c1.1-5.7,4.2-9.5,9.5-11.4c0.8-0.4,1.5,0,1.1,1.1c-0.8,5.3-3.4,9.5-8.3,11.7
				c-1.5,0.8-2.6,1.9-3.4,3.4c1.1-0.4,1.9-0.8,3-0.8c3-0.8,6.1-0.4,9.1,0.8c1.1,0.4,1.1,1.1,0.4,1.9c-4.5,3.4-9.5,4.2-14.8,2.3h-0.4
				H462c-1.9,2.3-3.4,4.5-4.9,6.4c1.9-0.8,4.2-1.5,6.4-1.9c3.4-0.4,6.8,0,9.8,1.5c1.1,0.4,1.1,1.1,0.4,1.9c-5.7,4.5-12.1,5.3-18.9,3
				c-0.8-0.4-1.1,0-1.5,0.4C452.6,317.2,450.7,319.5,449.2,321.4z"/>
			<path class="st184" d="M422.3,271.4c0,0,43.1-6.4,65.1-2.6"/>
			<path class="st184" d="M427.6,341.4c0,0,1.9,1.5,4.9,1.9c3,0,29.9,4.2,48.8-1.1c0,0,6.8-2.3,8.3-2.3"/>
			<circle class="st182" cx="430.3" cy="296.8" r="2.6"/>
			<circle class="st182" cx="434" cy="291.1" r="1.9"/>
			<circle class="st182" cx="480.2" cy="297.2" r="1.9"/>
			<circle class="st182" cx="481.7" cy="289.6" r="1.9"/>
			<path class="st185" d="M481.7,347.5c3.4,1.5,6.4,1.5,7.9,1.1c0-1.1,0.4-3.4,0-6.8h-0.4l-27.6-2.3c0,0-8.3-6.4-22.3-13.6
				c-7.9-4.2-12.5-11.7-14.8-17.4c1.5,17,3,35.9,3,36.3v0.4c-0.4,1.1-0.8,1.9-0.4,2.3c0.8,0.8,3.8,0,5.7-0.8h0.4c0,0,0,0,0.4,0
				c14,4.9,46.9,0.4,47.3,0C481.3,347.5,481.7,347.5,481.7,347.5z"/>
		</g>
		<g>
			<g>
				<linearGradient id="SVGID_2_" gradientUnits="userSpaceOnUse" x1="330.9419" y1="317.8179" x2="466.3442" y2="394.6089">
					<stop  offset="0" style="stop-color:#F2D397"/>
					<stop  offset="0.5331" style="stop-color:#F3D093"/>
					<stop  offset="0.7526" style="stop-color:#F5CC8F"/>
					<stop  offset="1" style="stop-color:#F3B699"/>
				</linearGradient>
				<path class="st4" d="M440.1,351.3c-0.4,0-0.8-0.4-0.8-1.1c0-0.4,0.4-0.8,1.1-0.8c0.4,0,0.8,0.4,1.1,0.4l0,0
					c0,0,13.2,1.9,20.1,10.6c2.3-4.2,3-8.3,1.9-12.1c-1.5-5.3-6.8-9.5-14.8-12.1c-18.9-6.8-43.1,0-43.5,0s-0.8,0-0.8-0.4
					c-12.1-12.5-37.1-13.2-37.5-13.2h-0.4l0.4-1.5c0,0-4.5-5.3-12.5-6.4c0,0-5.3,7.2-9.5,15.9c-0.4,0.8-0.8,1.5-0.8,1.9l0,0l0,0
					c-1.1,2.6-1.9,5.7-2.6,8.7c-2.3,11.4-1.1,24.6,5.7,34.1c0.4,0.4,12.5,14.4,42,11.4c0.4,0,0.8,0,0.8,0l0,0
					c12.9-1.9,12.9-1.5,13.2-1.1c3.4,6.8,13.2,10.2,20.1,12.1c6.4,1.9,13.6,3.4,19.7,1.9c3.8-1.1,6.8-3.8,8.7-7.6
					c1.9-4.2,1.9-9.1,0-12.9c-4.2-8.7-15.1-8.7-15.1-8.7c-0.4,0-0.8-0.4-0.8-0.8s0.4-0.8,0.8-0.8s2.6,0,5.7,0.8l0,0
					c0,0,2.3,0.4,4.9,1.9l0,0c0,0,6.4,3,8.3,10.2c0.8-0.4,1.1-0.4,1.9-0.8c3-1.9,4.2-4.9,4.5-7.2c0.8-4.2-0.4-9.1-3-12.1
					C456,357.3,449.2,353.6,440.1,351.3z"/>
			</g>
			<g class="st11">
				<path class="st32" d="M452.6,392.1c1.5-3.4,1.9-7.2,1.1-10.6c-1.5,6.1-6.1,16.6-18.9,16.3c-14.8-0.4-21.9-4.2-24.2-5.3
					c4.2,2.6,9.5,4.5,13.6,5.7c6.4,1.9,13.6,3.4,19.7,1.9C447.7,399,450.7,395.9,452.6,392.1z"/>
				<path class="st32" d="M461.7,360.7c2.3-4.2,3-8.3,1.9-12.1c-1.1-3-3-5.7-6.1-7.9c1.1,2.3,2.3,6.8-0.8,10.2
					c-1.5,1.5-3.8,1.9-5.7,1.9C454.5,354.7,458.6,357,461.7,360.7z"/>
				<path class="st32" d="M458.3,381.6c3-1.9,4.2-4.9,4.5-7.2c0.4-3,0-6.4-1.1-9.5c-0.4,4.5-1.9,11-7.6,12.1l0,0
					c1.1,1.5,1.9,3,2.3,5.3C457.1,382.3,457.9,381.9,458.3,381.6z"/>
				<path class="st32" d="M444.3,350.9C444.3,350.9,444.6,350.9,444.3,350.9l-1.1-0.8C443.1,350.1,443.9,350.5,444.3,350.9z"/>
			</g>
			<path class="st32" d="M341,349.4c-0.4,9.1,1.5,18.9,6.4,26.5c0.4,0.4,12.5,14.4,42,11.4c0.4,0,0.8,0,0.8,0l0,0
				c1.1,0,2.3-0.4,3.4-0.4C347.8,386.5,341.3,350.1,341,349.4z"/>
			<path class="st2" d="M463.2,363c2.6-3.8,11-21.6-11.4-28.8c-18.9-6.1-37.1-2.6-44.3-0.8l0,0c-10.6-8.3-29.1-11-35.9-11.7
				c-0.8,0-1.5,0-2.3,0c0.4,0,0.4,0,0.8,0c-1.5,0-2.6,0-3,0s-0.8,0.4-0.8,0.8s0.4,0.8,0.8,0.8s25,0.8,37.5,13.2
				c0.4,0.4,0.4,0.4,0.8,0.4c0.4,0,24.6-6.8,43.5,0c7.9,3,13.2,7.2,14.8,12.1c1.1,3.8,0.4,7.9-1.9,12.1
				c-6.8-8.7-20.1-10.6-20.1-10.6l0,0c-0.4,0-0.8-0.4-1.1-0.4s-0.8,0-1.1,0.8c0,0.4,0,0.8,0.8,1.1c9.1,2.3,15.9,6.1,20.1,11
				c2.6,3,3.8,7.9,3,12.1c-0.4,2.3-1.5,5.3-4.5,7.2c-0.8,0.4-1.1,0.8-1.9,0.8c-1.5-7.6-8.3-10.2-8.3-10.2l0,0
				c-2.6-1.5-4.9-1.9-4.9-1.9l0,0c-3-0.8-5.3-0.8-5.7-0.8s-0.8,0.4-0.8,0.8s0-0.4,0.4-0.4c0,0,11,0,15.1,8.7c1.9,3.8,1.9,8.7,0,12.9
				c-1.9,3.8-4.9,6.8-8.7,7.6c-6.1,1.5-13.6,0-19.7-1.9c-6.8-1.9-16.3-5.3-20.1-12.1c-0.4-0.8-0.4-0.8-13.2,1.1l0,0
				c-0.4,0-0.8,0-0.8,0c-29.5,3-42-11-42-11.4c-6.8-9.5-7.9-22.7-5.7-34.1c0.4-2.6,1.1-5.3,2.3-7.9c1.1-3,5.3-12.5,11.7-20.1v-2.3
				h-4.2c0,0-15.1,18.2-15.5,42.4l0,0c-0.4,23.1,17,31.8,26.5,33.7c0,0,0,0-0.4,0c1.1,0.4,2.3,0.8,3.4,0.8l0,0l0,0
				c4.5,0.8,9.8,1.1,15.9,1.1c0.8,0,3.8-0.4,8.3-1.1s11.4-1.5,12.9-1.5c2.3,3.8,6.1,6.4,9.8,8.3l0,0c17,9.1,39,10.2,42.8-3l0,0
				c0.8-3,1.1-5.3,1.1-7.6c10.6-3.8,8.7-13.6,8.7-13.6C465.4,367.9,464.7,365.3,463.2,363z"/>
		</g>
	</g>
</g>
</svg>
