<?xml version="1.0" encoding="utf-8"?>
<!-- Generator: Adobe Illustrator 21.0.0, SVG Export Plug-In . SVG Version: 6.00 Build 0)  -->
<svg version="1.1" id="圖層_1" xmlns="http://www.w3.org/2000/svg" xmlns:xlink="http://www.w3.org/1999/xlink" x="0px" y="0px"
	 viewBox="0 0 822.9 601.4" style="enable-background:new 0 0 822.9 601.4;" xml:space="preserve">
<style type="text/css">
	.st0{fill:url(#SVGID_1_);}
	.st1{fill:#D6DCE7;}
	.st2{fill:#B6D88B;}
	.st3{fill:#B4B4B5;}
	.st4{fill:#8FAC68;}
	.st5{fill:#A8B8D1;}
	.st6{fill:#B4A993;}
	.st7{fill:#FFFFFF;}
	.st8{opacity:0.8;}
	.st9{fill:#E8E5CB;}
	.st10{fill:url(#SVGID_2_);}
	.st11{opacity:0.5;fill:#DBDCDC;}
	.st12{fill:#A73C2E;}
	.st13{fill:#D2503A;}
	.st14{fill:#C8C9CA;}
	.st15{fill:#DBDCDC;}
	.st16{fill:#898A8D;}
	.st17{fill:#D5A870;}
	.st18{fill:#F5CC8F;}
	.st19{opacity:0.3;fill:#DBDCDC;}
	.st20{fill:url(#SVGID_3_);}
	.st21{fill:#E1BE3F;}
	.st22{fill:#AB6C21;}
	.st23{opacity:0.6;fill:#E1BE3F;}
	.st24{fill:url(#SVGID_4_);}
	.st25{fill:#66411D;}
	.st26{fill:url(#SVGID_5_);}
	.st27{fill:#D9B974;}
	.st28{fill:#DCBF93;}
	.st29{fill:url(#SVGID_6_);}
	.st30{fill:url(#SVGID_7_);}
	.st31{fill:url(#SVGID_8_);}
	.st32{fill:url(#SVGID_9_);}
	.st33{fill:#8C5924;}
	.st34{fill:url(#SVGID_10_);}
	.st35{fill:url(#SVGID_11_);}
	.st36{fill:url(#SVGID_12_);}
	.st37{fill:url(#SVGID_13_);}
	.st38{fill:#F4E3A5;}
	.st39{fill:#DEB87D;}
	.st40{fill:url(#SVGID_14_);}
	.st41{fill:url(#SVGID_15_);}
	.st42{fill:#3F210F;}
	.st43{opacity:0.25;fill:#E1BE3F;}
	.st44{opacity:0.5;fill:#E1BE3F;}
	.st45{fill:#F8E5A9;}
	.st46{fill:#DDBC90;}
	.st47{opacity:0.4;fill:#E1BE3F;}
	.st48{fill:#875424;}
	.st49{fill:#3F210E;}
	.st50{fill:#C88E2C;}
	.st51{fill:#AC7327;}
	.st52{fill:#814323;}
	.st53{fill:#D7C6A6;}
	.st54{fill:url(#SVGID_16_);}
	.st55{fill:#4A1E0E;}
	.st56{fill:#3A1D13;}
	.st57{fill:url(#SVGID_17_);}
	.st58{fill:#EAA593;}
	.st59{fill:url(#SVGID_18_);}
	.st60{fill:url(#SVGID_19_);}
	.st61{fill:#D59543;}
	.st62{opacity:0.6;fill:#D59543;}
	.st63{fill:url(#SVGID_20_);}
	.st64{fill:url(#SVGID_21_);}
	.st65{fill:url(#SVGID_22_);}
</style>
<g>
	<linearGradient id="SVGID_1_" gradientUnits="userSpaceOnUse" x1="631.4333" y1="449.4514" x2="771.8728" y2="449.4514">
		<stop  offset="0" style="stop-color:#FFFFFF"/>
		<stop  offset="1" style="stop-color:#FFFCE4"/>
	</linearGradient>
	<rect x="631.4" y="407.9" class="st0" width="140.4" height="83.1"/>
	<rect x="636" y="429.5" class="st1" width="32.9" height="22.9"/>
	<rect x="678.7" y="430.2" class="st1" width="31.7" height="22.1"/>
	<polygon class="st2" points="625.7,401 775.9,401 771.4,409.1 631.3,409.1 	"/>
	<path class="st3" d="M630.8,488.3c-0.4,0-0.8-0.3-0.8-0.8v-79.2c0-0.4,0.3-0.8,0.8-0.8h141.3c0.4,0,0.8,0.3,0.8,0.8V485
		c0,0.4-0.3,0.8-0.8,0.8s-0.8-0.3-0.8-0.8v-75.9H631.6v78.5C631.6,488,631.3,488.3,630.8,488.3z"/>
	<path class="st4" d="M772.2,409.1c-0.1,0-0.3,0-0.4-0.1c-0.4-0.2-0.5-0.7-0.3-1l3.5-6.3H626.5l5,6.2c0.3,0.3,0.2,0.8-0.1,1.1
		c-0.3,0.3-0.8,0.2-1.1-0.1l-5.9-7.4c-0.2-0.2-0.2-0.5-0.1-0.8c0.1-0.3,0.4-0.4,0.7-0.4h151.4c0.3,0,0.5,0.1,0.6,0.4
		c0.1,0.2,0.1,0.5,0,0.7l-4.1,7.4C772.7,409,772.4,409.1,772.2,409.1z"/>
	<path class="st5" d="M711.1,453.8h-33.2c-0.4,0-0.8-0.3-0.8-0.8v-23.6c0-0.4,0.3-0.8,0.8-0.8h33.2c0.4,0,0.8,0.3,0.8,0.8v23.6
		C711.9,453.5,711.5,453.8,711.1,453.8z M678.7,452.3h31.7v-22.1h-31.7V452.3z"/>
	<path class="st6" d="M722.4,488c-0.4,0-0.8-0.3-0.8-0.8v-41.8c0-0.4,0.3-0.8,0.8-0.8h27.9c0.4,0,0.8,0.3,0.8,0.8v39.8
		c0,0.4-0.3,0.8-0.8,0.8c-0.4,0-0.8-0.3-0.8-0.8v-39.1h-26.4v41C723.1,487.6,722.8,488,722.4,488z"/>
	<path class="st5" d="M736.3,467.9c-4.7,0-8.5-3.8-8.5-8.5c0-4.7,3.8-8.5,8.5-8.5c4.7,0,8.5,3.8,8.5,8.5
		C744.8,464.1,741,467.9,736.3,467.9z M736.3,452.5c-3.8,0-7,3.1-7,7c0,3.8,3.1,7,7,7c3.8,0,7-3.1,7-7
		C743.3,455.6,740.2,452.5,736.3,452.5z"/>
	<circle class="st1" cx="736.3" cy="459.5" r="7"/>
	<polygon class="st7" points="653.6,429.5 636,449.1 636,452.3 639.9,452.3 660.4,429.5 	"/>
	<polygon class="st7" points="646.8,452.3 667.3,429.5 663.3,429.5 642.8,452.3 	"/>
	<polygon class="st7" points="697.6,430.2 678.7,451.3 678.7,452.3 684.5,452.3 704.3,430.2 	"/>
	<polygon class="st7" points="693.9,452.3 710.4,434 710.4,430.2 709.7,430.2 689.9,452.3 	"/>
	<path class="st5" d="M669.7,453.8h-34.4c-0.4,0-0.8-0.3-0.8-0.8v-23.6c0-0.4,0.3-0.8,0.8-0.8h34.4c0.4,0,0.8,0.3,0.8,0.8v23.6
		C670.4,453.5,670.1,453.8,669.7,453.8z M636,452.3h32.9v-22.1H636V452.3z"/>
	<g class="st8">
		<path class="st9" d="M771.9,451.1c-3.4,10.7-17.9,36.8-76.8,38l76.8-0.6V451.1z"/>
		<path class="st9" d="M695.1,489.1l-5.2,0C691.7,489.2,693.4,489.2,695.1,489.1z"/>
	</g>
	<linearGradient id="SVGID_2_" gradientUnits="userSpaceOnUse" x1="451.9675" y1="505.161" x2="821.4646" y2="505.161">
		<stop  offset="0" style="stop-color:#FFFFFF"/>
		<stop  offset="1" style="stop-color:#FFFCE4"/>
	</linearGradient>
	<path class="st10" d="M452,453.4c1.5,7.2,9.6,43.8,29.3,79.1c8.1,14.5,13.8,20.2,16.3,22.6c1.2,1.2,2.8,1.9,4.6,1.9h282
		c2.4,0,4.4-1.8,4.7-4.1c0.5-4,0.9-10.1-0.1-17.2c-5.7,2.1-12.8,4.3-21.8,6.2l-81.8,13c-0.4,0.1-0.8-0.2-0.9-0.6
		c-0.1-0.4,0.2-0.8,0.6-0.9l81.8-13c37.9-8,42-20.1,42.1-20.2l12.7-38.6c-11.2,1.2-100.7,10.3-185.6,7
		C551.1,485.2,463.3,457.1,452,453.4z"/>
	<path class="st2" d="M453.3,465.2c0,0,44.5,13.1,63.3,17.7c18.7,4.6,71.6,13.2,71.6,13.2s61.3,5.9,75.9,4.9
		c14.5-1,69.2-0.9,80.8-2.2c11.5-1.3,56.3-3.4,74.4-5.5l-6.1,17.2l-70.8,4.4c0,0-74.7,2.9-92.3,1.5c0,0-61.7-1.6-92-9.5
		c0,0-59.4-10.9-79.9-18.6l-18.8-5.2L453.3,465.2z"/>
	<path class="st4" d="M675.3,501.5c-13,0-26.3-0.2-39.5-0.7c-81.9-3.2-166-29.4-182.1-34.6c-0.4-0.1-0.6-0.6-0.5-0.9
		c0.1-0.4,0.6-0.6,0.9-0.5c16,5.2,100,31.3,181.6,34.5c78.8,3.1,159.5-4.3,182.4-6.7c0.4,0,0.8,0.3,0.8,0.7c0,0.4-0.3,0.8-0.7,0.8
		C799.4,496,740.2,501.5,675.3,501.5z"/>
	<path class="st4" d="M675.2,517.4c-13,0-26.2-0.2-39.4-0.7c-76-3-154.6-26-176.9-33c-0.4-0.1-0.6-0.5-0.5-0.9
		c0.1-0.4,0.5-0.6,0.9-0.5c22.2,7,100.7,29.9,176.5,32.9c73.1,2.8,148.1-3.3,177-6.1c0.4,0,0.8,0.3,0.8,0.7c0,0.4-0.3,0.8-0.7,0.8
		C789.4,512.8,734.5,517.4,675.2,517.4z"/>
	<g>
		<path class="st11" d="M566.5,489.1c-12.3,0-22.2,10-22.2,22.2c0,12.3,10,22.2,22.2,22.2c12.3,0,22.2-10,22.2-22.2
			C588.8,499,578.8,489.1,566.5,489.1z M566.5,502.4c4.9,0,8.9,4,8.9,8.9c0,4.9-4,8.9-8.9,8.9c-4.9,0-8.9-4-8.9-8.9
			C557.6,506.4,561.6,502.4,566.5,502.4z"/>
		<path class="st11" d="M626.4,498.5c-11.1-5.1-24.4-0.2-29.5,10.9c-5.1,11.1-0.2,24.4,10.9,29.5c11.1,5.1,24.4,0.2,29.5-10.9
			C642.4,516.8,637.5,503.6,626.4,498.5z M613.4,526.8c-4.5-2.1-6.4-7.4-4.4-11.8c2.1-4.5,7.4-6.4,11.8-4.4
			c4.5,2.1,6.4,7.4,4.4,11.8C623.1,526.9,617.8,528.8,613.4,526.8z"/>
	</g>
	<path class="st12" d="M652.9,348.3c-0.2-0.1-0.4-0.2-0.6-0.2c-0.1,0-14.9,2.5-23.8-2.9c-9.6-5.9-14.3-1.3-14.5-1.1h-0.5v21.5
		c-0.3,0.2-0.5,0.3-0.5,0.3c-0.4,0.2-0.5,0.7-0.2,1c0.2,0.4,0.7,0.5,1,0.2c0.1,0,7.3-4.4,14.2,0c5,3.2,9.7,4.7,15.3,4.7
		c2.8,0,5.8-0.4,9.2-1.1c0.3-0.1,0.6-0.4,0.6-0.7v-21.3C653.2,348.6,653.1,348.4,652.9,348.3z M651.7,369.5
		c-9.6,1.9-15.9,0.9-22.8-3.6c-5.8-3.7-11.6-2-14.3-0.8v-19.8c0.2,0,0.4-0.1,0.6-0.2c0.2-0.2,4.1-3.9,12.6,1.3
		c8.1,5,20.5,3.7,23.9,3.2V369.5z"/>
	<path class="st13" d="M651.7,369.5c-9.6,1.9-15.9,0.9-22.8-3.6c-5.8-3.7-11.6-2-14.3-0.8v-19.8c0.2,0,0.4-0.1,0.6-0.2
		c0.2-0.2,4.1-3.9,12.6,1.3c8.1,5,20.5,3.7,23.9,3.2V369.5z"/>
	<path class="st14" d="M499.8,467.1c-0.2,0-0.4-0.1-0.5-0.2c-0.3-0.3-0.3-0.8,0-1.1l112.5-121.7c0.3-0.3,0.8-0.3,1.1,0
		c0.3,0.3,0.3,0.8,0,1.1L500.4,466.9C500.2,467,500,467.1,499.8,467.1z"/>
	<path class="st14" d="M542.7,476.8c-0.1,0-0.2,0-0.4-0.1c-0.4-0.2-0.5-0.7-0.3-1l69.5-129c0.2-0.4,0.7-0.5,1-0.3
		c0.4,0.2,0.5,0.7,0.3,1l-69.5,129C543.3,476.7,543,476.8,542.7,476.8z"/>
	<path class="st14" d="M614.6,487.2h-2.3c-0.4,0-0.8-0.3-0.8-0.8v-145c0-0.4,0.3-0.8,0.8-0.8h2.3c0.4,0,0.8,0.3,0.8,0.8v145
		C615.4,486.9,615,487.2,614.6,487.2z M613,485.7h0.8V342.2H613V485.7z"/>
	<rect x="613" y="342.2" class="st15" width="0.8" height="143.5"/>
	<path class="st16" d="M625,463.7c-86.5-5.4-172.9-34.7-173.7-35c-0.2-0.1-0.5,0-0.7,0.1c-0.2,0.2-0.3,0.4-0.3,0.6l1.5,23.3
		c0,0.4,0.4,0.7,0.8,0.7c0.4,0,0.7-0.4,0.7-0.8l-1.4-22.1c2.3,0.8,8.2,2.7,16.8,5.2v21.9c0,0.4,0.3,0.7,0.8,0.7
		c0.4,0,0.8-0.3,0.8-0.7v-21.4c5.7,1.7,12.6,3.6,20.4,5.7V463c0,0.4,0.3,0.7,0.8,0.7s0.8-0.3,0.8-0.7v-20.7
		c6.3,1.7,13.1,3.4,20.4,5.1v22.2c0,0.4,0.3,0.8,0.8,0.8c0.4,0,0.8-0.3,0.8-0.8v-21.8c6.5,1.5,13.3,3.1,20.4,4.6v22.2
		c0,0.4,0.3,0.8,0.8,0.8c0.4,0,0.8-0.3,0.8-0.8v-21.9c6.6,1.4,13.4,2.7,20.4,4v22c0,0.4,0.3,0.7,0.8,0.7c0.4,0,0.8-0.3,0.8-0.7
		v-21.7c6.7,1.2,13.5,2.3,20.4,3.3v21.6c0,0.4,0.3,0.7,0.8,0.7c0.4,0,0.8-0.3,0.8-0.7v-21.4c6.7,1,13.5,1.9,20.4,2.6v21.4
		c0,0.4,0.3,0.7,0.8,0.7c0.4,0,0.8-0.3,0.8-0.7v-21.2c7.6,0.8,15.2,1.5,22.8,2v22c0,0.4,0.3,0.8,0.8,0.8c0.4,0,0.8-0.3,0.8-0.8
		v-22.7C625.7,464.1,625.4,463.8,625,463.7z"/>
	<path class="st3" d="M784.2,558.5h-282c-2.1,0-4.2-0.8-5.6-2.3c-2.5-2.5-8.3-8.3-16.5-23c-22-39.4-29.6-80.4-29.7-80.8
		c0-0.3,0-0.5,0.2-0.7c0.2-0.2,0.5-0.2,0.7-0.1c0.9,0.3,94.6,32,184.7,35.5c90.2,3.5,185.6-7,186.6-7.1c0.3,0,0.5,0.1,0.7,0.3
		c0.2,0.2,0.2,0.5,0.1,0.7l-13,39.7c-0.1,0.4-2.4,7.5-20,14.5c1.1,7.4,0.7,13.8,0.2,17.9C790,556.1,787.3,558.5,784.2,558.5z
		 M452,453.4c1.5,7.2,9.6,43.8,29.3,79.1c8.1,14.5,13.8,20.2,16.3,22.6c1.2,1.2,2.8,1.9,4.6,1.9h282c2.4,0,4.4-1.8,4.7-4.1
		c0.5-4,0.9-10.1-0.1-17.2c-5.7,2.1-12.8,4.3-21.8,6.2l-81.8,13c-0.4,0.1-0.8-0.2-0.9-0.6c-0.1-0.4,0.2-0.8,0.6-0.9l81.8-13
		c37.9-8,42-20.1,42.1-20.2l12.7-38.6c-11.2,1.2-100.7,10.3-185.6,7C551.1,485.2,463.3,457.1,452,453.4z"/>
	<path class="st17" d="M613.5,343.2c-2.7,0-4.8-2.2-4.8-4.8c0-2.7,2.2-4.8,4.8-4.8c2.7,0,4.8,2.2,4.8,4.8
		C618.3,341,616.1,343.2,613.5,343.2z M613.5,335.1c-1.8,0-3.3,1.5-3.3,3.3c0,1.8,1.5,3.3,3.3,3.3s3.3-1.5,3.3-3.3
		C616.8,336.6,615.3,335.1,613.5,335.1z"/>
	<circle class="st18" cx="613.5" cy="338.4" r="3.3"/>
	<g>
		<path class="st7" d="M564,488.7c-11.4,0-20.7,9.3-20.7,20.7c0,11.4,9.3,20.7,20.7,20.7c11.4,0,20.7-9.3,20.7-20.7
			C584.8,498,575.5,488.7,564,488.7z M564.6,519.3c-5.4,0-9.8-4.4-9.8-9.8c0-5.4,4.4-9.8,9.8-9.8c5.4,0,9.8,4.4,9.8,9.8
			C574.4,514.9,570,519.3,564.6,519.3z"/>
		<path class="st13" d="M555.7,490.5l3.8,9.6l5.1-0.4l5.9,1.7l4.5-9.4C575.1,491.9,567.6,484.6,555.7,490.5z"/>
		<path class="st13" d="M572.9,514l10.9,1.7c0,0-2.7,9.7-11.7,12.9l-3.4-10.2L572.9,514z"/>
		<path class="st13" d="M554.1,512.7l4.1,5.4l-4.6,9.3c0,0-10.3-4.2-10.3-17.9l10.5,1.8L554.1,512.7z"/>
		<path class="st3" d="M564,531.7c-12.3,0-22.2-10-22.2-22.2c0-12.3,10-22.2,22.2-22.2s22.2,10,22.2,22.2
			C586.3,521.7,576.3,531.7,564,531.7z M564,488.7c-11.4,0-20.7,9.3-20.7,20.7c0,11.4,9.3,20.7,20.7,20.7c11.4,0,20.7-9.3,20.7-20.7
			C584.8,498,575.5,488.7,564,488.7z"/>
		<path class="st3" d="M564,519.9c-5.7,0-10.4-4.7-10.4-10.4c0-5.7,4.7-10.4,10.4-10.4c5.7,0,10.4,4.7,10.4,10.4
			C574.4,515.2,569.8,519.9,564,519.9z M564,500.5c-4.9,0-8.9,4-8.9,8.9s4,8.9,8.9,8.9s8.9-4,8.9-8.9S568.9,500.5,564,500.5z"/>
		<path class="st19" d="M564,530.2c11.4,0,20.7-9.3,20.7-20.7c0-3.2-0.7-6.2-2-8.8c0.3,1.8,5,33.9-28.6,27
			C557.1,529.3,560.4,530.2,564,530.2z"/>
	</g>
	<g>
		<path class="st7" d="M623.2,498c-10.4-4.8-22.7-0.2-27.5,10.2c-4.8,10.4-0.2,22.7,10.2,27.5c10.4,4.8,22.7,0.2,27.5-10.2
			C638.2,515.1,633.6,502.7,623.2,498z M611,526c-4.9-2.3-7.1-8.1-4.8-13c2.3-4.9,8.1-7.1,13-4.8c4.9,2.3,7.1,8.1,4.8,13
			C621.8,526.1,616,528.2,611,526z"/>
		<path class="st13" d="M614.9,496.1l-0.5,10.3l4.8,1.7l4.7,4l8-6.7C631.9,505.5,628.2,495.7,614.9,496.1z"/>
		<path class="st13" d="M620.8,524.7l9.2,6.1c0,0-6.5,7.7-16,6.8l1.2-10.6L620.8,524.7z"/>
		<path class="st13" d="M604.2,515.6l1.4,6.6l-8,6.5c0,0-7.6-8.1-1.9-20.6l8.8,6L604.2,515.6z"/>
		<path class="st3" d="M605.3,537c-11.1-5.1-16-18.3-10.9-29.5c5.1-11.1,18.3-16,29.5-10.9c11.1,5.1,16,18.3,10.9,29.5
			C629.7,537.2,616.5,542.1,605.3,537z M623.2,498c-10.4-4.8-22.7-0.2-27.5,10.2c-4.8,10.4-0.2,22.7,10.2,27.5
			c10.4,4.8,22.7,0.2,27.5-10.2C638.2,515.1,633.6,502.7,623.2,498z"/>
		<path class="st3" d="M610.2,526.3c-5.2-2.4-7.5-8.6-5.1-13.8c2.4-5.2,8.6-7.5,13.8-5.1c5.2,2.4,7.5,8.6,5.1,13.8
			C621.7,526.4,615.5,528.7,610.2,526.3z M618.3,508.7c-4.5-2.1-9.8-0.1-11.8,4.4c-2.1,4.5-0.1,9.8,4.4,11.8
			c4.5,2.1,9.8,0.1,11.8-4.4C624.7,516.1,622.8,510.8,618.3,508.7z"/>
		<path class="st19" d="M605.9,535.7c10.4,4.8,22.7,0.2,27.5-10.2c1.3-2.9,1.9-5.9,1.9-8.9c-0.5,1.8-9.6,32.9-37.3,12.6
			C600,531.9,602.7,534.2,605.9,535.7z"/>
	</g>
	<path class="st9" d="M684.9,553.4l81.8-13c37.9-8,42-20.1,42.1-20.2l2.4-7.2c-7,7.6-36.4,30.5-140.7,35.9
		c-109.8,5.7-160.4,7-171.5,7.2c0.2,0.1,0.3,0.2,0.5,0.2l9,0.6h275.8c2.4,0,4.4-1.8,4.7-4.1c0.5-4,0.9-10.1-0.1-17.2
		c-5.7,2.1-12.8,4.3-21.8,6.2l-81.8,13c-0.4,0.1-0.8-0.2-0.9-0.6C684.3,553.9,684.5,553.5,684.9,553.4z"/>
</g>
<g>
	<g>
		<g>
			<linearGradient id="SVGID_3_" gradientUnits="userSpaceOnUse" x1="290.8477" y1="381.7801" x2="375.9187" y2="381.7801">
				<stop  offset="0" style="stop-color:#F2D397"/>
				<stop  offset="0.5331" style="stop-color:#F3D093"/>
				<stop  offset="0.7526" style="stop-color:#F5CC8F"/>
				<stop  offset="1" style="stop-color:#F3B699"/>
			</linearGradient>
			<path class="st20" d="M376.1,357.6l-8.1-18.4c0-0.5-0.1-1-0.2-1.5c0-0.2-0.1-0.3-0.1-0.5c-0.1-0.4-0.1-0.7-0.2-1.1
				c0-0.2-0.1-0.4-0.1-0.5c-0.1-0.4-0.2-0.8-0.4-1.2c0-0.1-0.1-0.3-0.1-0.4c-0.2-0.5-0.4-1.1-0.6-1.6c-0.1-0.1-0.1-0.3-0.2-0.4
				c-0.2-0.4-0.3-0.8-0.5-1.2c-0.1-0.2-0.2-0.4-0.3-0.6c-0.2-0.4-0.4-0.7-0.5-1.1c-0.1-0.2-0.2-0.4-0.3-0.6c-3-5.6-7.1-11-10.1-14.5
				c-0.1-0.1-0.2-0.2-0.3-0.4c-15.8,19.9-33.8,47.3-47.8,81.6c0,0-13,12.4-13,29.8c0,17.4,13.3,23.1,20.6,21.5v0
				c8.2,7,19.6,2.7,21.9-8.7l0.1-0.2c0.5,0.3,1,0.6,1.6,0.9c4.9,2.4,11.3-0.6,13.3-5l0,0l0,0c0.1-0.2,0.2-0.3,0.2-0.5l-0.2-0.1
				l1.6-14.1l-0.5-0.1v-3.6l-0.7-2.5c0.3-0.7,0.6-1.5,0.9-2.3l0.7-1l0.9-2.4l0.1-0.7c2.7-6.5,6.6-15.4,11.8-26
				c3.4-7,7.4-14.3,11.2-21L376.1,357.6z"/>
		</g>
		<path class="st61" d="M325.5,417.7c0,0-2.5,19.1,8.3,25.4l2-5.3C335.8,437.8,324.2,431.8,325.5,417.7z"/>
		<path class="st61" d="M306.9,423.7c0,0-5,12.8-1.3,21.9c0,0,3.4,1.3,8.4,0.9C313.9,446.5,305.3,442.1,306.9,423.7z"/>
		<path class="st22" d="M325.2,423.7c0,0-0.1,11.4,9.5,15.7l0.4-1.7C335.1,437.7,325,428.6,325.2,423.7z"/>
		<path class="st22" d="M306,430.4c0,0-0.7,10.6,5,16.2l3.5-0.3C314.5,446.4,306.9,439.3,306,430.4z"/>
		<path class="st62" d="M376.1,357.6l-8.1-18.4c0-0.5-0.1-1-0.2-1.5c0-0.2-0.1-0.3-0.1-0.5c-0.1-0.4-0.1-0.7-0.2-1.1
			c0-0.2-0.1-0.4-0.1-0.5c-0.1-0.4-0.2-0.8-0.4-1.2c0-0.1-0.1-0.3-0.1-0.4c-0.2-0.5-0.4-1.1-0.6-1.6c-0.1-0.1-0.1-0.3-0.2-0.4
			c-0.2-0.4-0.3-0.8-0.5-1.2c-0.1-0.2-0.2-0.4-0.3-0.6c-0.2-0.4-0.4-0.7-0.5-1.1c-0.1-0.2-0.2-0.4-0.3-0.6c0-0.1-0.1-0.2-0.1-0.2
			c-10.8,21.3-22.4,49.5-23.1,73.6c0,0,13.4,17,8.5,33.3c0.4-0.5,0.7-1,0.9-1.6l0,0l0,0c0.1-0.2,0.2-0.3,0.2-0.5l-0.2-0.1l1.6-14.1
			l-0.5-0.1v-3.6L351,412l1.8-2.7l1-2.5l20-43.6c0,0,1.1-1.3,2.9-4.2L376.1,357.6z"/>
		<g>
			<path class="st22" d="M351.9,413.8l0.5-1.1c0,0,0,0,0-0.1c0.2-0.4,13.2-29,24.9-52l-1.3-3l0,0c-10.8,20.8-22.7,47-25.4,52.8
				c-0.5-1.2-0.9-1.7-0.9-1.7l0,0c-1.1-1.9-2.4-3.5-2.5-3.6c-0.2-0.3-0.6-0.3-0.9-0.1c-0.3,0.2-0.3,0.6-0.1,0.9
				c0.2,0.3,0.5,0.6,0.9,1.1c0,0,7,10.6,3.1,25.8h0c-0.8,2.2-2.8,4.2-5.4,5.3c-2.5,1-5.1,1-7.2-0.1c-8.5-4.3-13.1-13.4-11.2-22.3
				c0.1-0.3-0.1-0.7-0.5-0.8c-0.3-0.1-0.7,0.1-0.8,0.5c-1.9,8.7,2.1,17.6,9.9,22.5c-1.2,5.4-4.6,9.5-9.1,10.9
				c-4.4,1.3-8.9,0-12.6-3.6c-8.9-8.9-5.5-22.4-5.5-22.5c0.1-0.3-0.1-0.7-0.5-0.8c-0.3-0.1-0.7,0.1-0.8,0.5c0,0.1-3.6,14.3,5.8,23.8
				c0,0,0,0,0,0c-3,0.3-7.3-0.5-11.2-3.7c-3.3-2.7-7.3-7.9-7.3-17.4c0-17,12.6-29.2,12.8-29.3c0.1-0.1,0.1-0.1,0.2-0.2
				c14-34.3,32-61.5,47.7-81.3c-0.1-0.1-0.1-0.2-0.2-0.2c-1.1-1.3-2.1-2.4-2.7-3c0,0,0,0,0,0c-5.2,6.5-10.7,13.8-16,22l0,0
				c0,0-25.9,38.6-31.6,60.1c-7,9.1-20.2,30.1-7.6,46.1c1.2,1.8,2.6,3.2,3.9,4.3c0.5,0.4,1,0.8,1.6,1.1c0.1,0.1,0.2,0.1,0.2,0.1
				c0,0-0.1,0-0.1-0.1c2.9,1.8,6.1,2.8,9.2,2.8c0.8,0,1.6-0.1,2.4-0.2c2.7,2.2,5.8,3.4,8.9,3.4c1.2,0,2.5-0.2,3.7-0.5
				c4.9-1.5,8.6-5.7,9.9-11.4c0.3,0.2,0.6,0.3,0.9,0.5c1.2,0.6,2.6,0.9,4.1,0.9c1.4,0,2.8-0.3,4.2-0.8c2.7-1.1,4.8-3.1,5.9-5.4h0
				c0,0,0-0.1,0.1-0.2c0.1-0.1,0.1-0.3,0.2-0.4c0,0,0,0,0,0c0,0,1.1-2.6,1.4-7c0.2-1.8,0.2-3.7,0.1-5.9
				C352.9,417.7,352.4,415.5,351.9,413.8z"/>
		</g>
	</g>
	<g>
		<g>
			
				<linearGradient id="SVGID_4_" gradientUnits="userSpaceOnUse" x1="3452.2437" y1="381.7801" x2="3537.3147" y2="381.7801" gradientTransform="matrix(-1 0 0 1 4056.4385 0)">
				<stop  offset="0" style="stop-color:#F2D397"/>
				<stop  offset="0.5331" style="stop-color:#F3D093"/>
				<stop  offset="0.7526" style="stop-color:#F5CC8F"/>
				<stop  offset="1" style="stop-color:#F3B699"/>
			</linearGradient>
			<path class="st24" d="M518.9,357.6l8.1-18.4c0-0.5,0.1-1,0.2-1.5c0-0.2,0.1-0.3,0.1-0.5c0.1-0.4,0.1-0.7,0.2-1.1
				c0-0.2,0.1-0.4,0.1-0.5c0.1-0.4,0.2-0.8,0.4-1.2c0-0.1,0.1-0.3,0.1-0.4c0.2-0.5,0.4-1.1,0.6-1.6c0.1-0.1,0.1-0.3,0.2-0.4
				c0.2-0.4,0.3-0.8,0.5-1.2c0.1-0.2,0.2-0.4,0.3-0.6c0.2-0.4,0.4-0.7,0.5-1.1c0.1-0.2,0.2-0.4,0.3-0.6c3-5.6,7.1-11,10.1-14.5
				c0.1-0.1,0.2-0.2,0.3-0.4c15.8,19.9,33.8,47.3,47.8,81.6c0,0,13,12.4,13,29.8c0,17.4-13.3,23.1-20.6,21.5v0
				c-8.2,7-19.6,2.7-21.9-8.7l-0.1-0.2c-0.5,0.3-1,0.6-1.6,0.9c-4.9,2.4-11.3-0.6-13.3-5l0,0l0,0c-0.1-0.2-0.2-0.3-0.2-0.5l0.2-0.1
				l-1.6-14.1l0.5-0.1v-3.6l0.7-2.5c-0.3-0.7-0.6-1.5-0.9-2.3l-0.7-1l-0.9-2.4l-0.1-0.7c-2.7-6.5-6.6-15.4-11.8-26
				c-3.4-7-7.4-14.3-11.2-21L518.9,357.6z"/>
		</g>
		<path class="st61" d="M569.6,417.7c0,0,2.5,19.1-8.3,25.4l-2-5.3C559.3,437.8,570.8,431.8,569.6,417.7z"/>
		<path class="st61" d="M588.2,423.7c0,0,5,12.8,1.3,21.9c0,0-3.4,1.3-8.4,0.9C581.1,446.5,589.7,442.1,588.2,423.7z"/>
		<path class="st22" d="M569.9,423.7c0,0,0.1,11.4-9.5,15.7l-0.4-1.7C559.9,437.7,570,428.6,569.9,423.7z"/>
		<path class="st22" d="M589,430.4c0,0,0.7,10.6-5,16.2l-3.5-0.3C580.5,446.4,588.2,439.3,589,430.4z"/>
		<path class="st62" d="M518.9,357.6l8.1-18.4c0-0.5,0.1-1,0.2-1.5c0-0.2,0.1-0.3,0.1-0.5c0.1-0.4,0.1-0.7,0.2-1.1
			c0-0.2,0.1-0.4,0.1-0.5c0.1-0.4,0.2-0.8,0.4-1.2c0-0.1,0.1-0.3,0.1-0.4c0.2-0.5,0.4-1.1,0.6-1.6c0.1-0.1,0.1-0.3,0.2-0.4
			c0.2-0.4,0.3-0.8,0.5-1.2c0.1-0.2,0.2-0.4,0.3-0.6c0.2-0.4,0.4-0.7,0.5-1.1c0.1-0.2,0.2-0.4,0.3-0.6c0-0.1,0.1-0.2,0.1-0.2
			c10.8,21.3,22.4,49.5,23.1,73.6c0,0-13.4,17-8.5,33.3c-0.4-0.5-0.7-1-0.9-1.6l0,0l0,0c-0.1-0.2-0.2-0.3-0.2-0.5l0.2-0.1l-1.6-14.1
			l0.5-0.1v-3.6l0.9-3.1l-1.8-2.7l-1-2.5l-20-43.6c0,0-1.1-1.3-2.9-4.2L518.9,357.6z"/>
		<g>
			<path class="st22" d="M543.1,413.8l-0.5-1.1c0,0,0,0,0-0.1c-0.2-0.4-13.2-29-24.9-52l1.3-3l0,0c10.8,20.8,22.7,47,25.4,52.8
				c0.5-1.2,0.9-1.7,0.9-1.7l0,0c1.1-1.9,2.4-3.5,2.5-3.6c0.2-0.3,0.6-0.3,0.9-0.1c0.3,0.2,0.3,0.6,0.1,0.9
				c-0.2,0.3-0.5,0.6-0.9,1.1c0,0-7,10.6-3.1,25.8h0c0.8,2.2,2.8,4.2,5.4,5.3c2.5,1,5.1,1,7.2-0.1c8.5-4.3,13.1-13.4,11.2-22.3
				c-0.1-0.3,0.1-0.7,0.5-0.8c0.3-0.1,0.7,0.1,0.8,0.5c1.9,8.7-2.1,17.6-9.9,22.5c1.2,5.4,4.6,9.5,9.1,10.9c4.4,1.3,8.9,0,12.6-3.6
				c8.9-8.9,5.5-22.4,5.5-22.5c-0.1-0.3,0.1-0.7,0.5-0.8c0.3-0.1,0.7,0.1,0.8,0.5c0,0.1,3.6,14.3-5.8,23.8c0,0,0,0,0,0
				c3,0.3,7.3-0.5,11.2-3.7c3.3-2.7,7.3-7.9,7.3-17.4c0-17-12.6-29.2-12.8-29.3c-0.1-0.1-0.1-0.1-0.2-0.2
				c-14-34.3-32-61.5-47.7-81.3c0.1-0.1,0.1-0.2,0.2-0.2c1.1-1.3,2.1-2.4,2.7-3c0,0,0,0,0,0c5.2,6.5,10.7,13.8,16,22l0,0
				c0,0,25.9,38.6,31.6,60.1c7,9.1,20.2,30.1,7.6,46.1c-1.2,1.8-2.6,3.2-3.9,4.3c-0.5,0.4-1,0.8-1.6,1.1c-0.1,0.1-0.2,0.1-0.2,0.1
				c0,0,0.1,0,0.1-0.1c-2.9,1.8-6.1,2.8-9.2,2.8c-0.8,0-1.6-0.1-2.4-0.2c-2.7,2.2-5.8,3.4-8.9,3.4c-1.2,0-2.5-0.2-3.7-0.5
				c-4.9-1.5-8.6-5.7-9.9-11.4c-0.3,0.2-0.6,0.3-0.9,0.5c-1.2,0.6-2.6,0.9-4.1,0.9c-1.4,0-2.8-0.3-4.2-0.8c-2.7-1.1-4.8-3.1-5.9-5.4
				h0c0,0,0-0.1-0.1-0.2c-0.1-0.1-0.1-0.3-0.2-0.4c0,0,0,0,0,0c0,0-1.1-2.6-1.4-7c-0.2-1.8-0.2-3.7-0.1-5.9
				C542.2,417.7,542.6,415.5,543.1,413.8z"/>
		</g>
	</g>
</g>
</svg>
