<?xml version="1.0" encoding="utf-8"?>
<!-- Generator: Adobe Illustrator 21.0.0, SVG Export Plug-In . SVG Version: 6.00 Build 0)  -->
<svg version="1.1" id="圖層_1" xmlns="http://www.w3.org/2000/svg" xmlns:xlink="http://www.w3.org/1999/xlink" x="0px" y="0px"
	 viewBox="0 0 822.9 601.4" style="enable-background:new 0 0 822.9 601.4;" xml:space="preserve">
<style type="text/css">
	.st0{fill:url(#SVGID_1_);}
	.st1{fill:#D59543;}
	.st2{fill:#AB6C21;}
	.st3{opacity:0.6;fill:#D59543;enable-background:new    ;}
	.st4{fill:url(#SVGID_2_);}
	.st5{fill:url(#SVGID_3_);}
	.st6{fill:#9F7433;}
	.st7{fill:#746766;}
	.st8{opacity:0.5;}
	.st9{fill:#2F2A28;}
	.st10{opacity:0.5;fill:#2F2A28;enable-background:new    ;}
	.st11{fill:#865C25;}
	.st12{fill:#755325;}
	.st13{fill:none;stroke:#746766;stroke-width:0.8163;stroke-linecap:round;stroke-miterlimit:10;}
	.st14{fill:url(#SVGID_4_);}
	.st15{fill:url(#SVGID_5_);}
	.st16{fill:#E2BF40;}
	.st17{fill:#AC6D21;}
	.st18{opacity:0.6;fill:#E2BF40;enable-background:new    ;}
	.st19{fill:url(#SVGID_6_);}
	.st20{fill:url(#SVGID_7_);}
	.st21{fill:#CE9245;}
	.st22{fill:#A66A22;}
	.st23{opacity:0.6;fill:#CE9245;enable-background:new    ;}
	.st24{fill:url(#SVGID_8_);}
	.st25{fill:#A46723;}
	.st26{fill:url(#SVGID_9_);}
	.st27{fill:url(#SVGID_10_);}
	.st28{fill:url(#SVGID_11_);}
	.st29{fill:url(#SVGID_12_);}
	.st30{fill:url(#SVGID_13_);}
	.st31{fill:url(#SVGID_14_);}
	.st32{fill:url(#SVGID_15_);}
	.st33{fill:url(#SVGID_16_);}
	.st34{fill:url(#SVGID_17_);}
	.st35{fill:url(#SVGID_18_);}
	.st36{fill:url(#SVGID_19_);}
	.st37{fill:url(#SVGID_20_);}
	.st38{fill:url(#SVGID_21_);}
	.st39{fill:url(#SVGID_22_);}
	.st40{fill:url(#SVGID_23_);}
	.st41{fill:url(#SVGID_24_);}
	.st42{fill:url(#SVGID_25_);}
	.st43{fill:url(#SVGID_26_);}
	.st44{fill:url(#SVGID_27_);}
	.st45{fill:url(#SVGID_28_);}
	.st46{fill:url(#SVGID_29_);}
	.st47{fill:url(#SVGID_30_);}
	.st48{fill:url(#SVGID_31_);}
	.st49{fill:url(#SVGID_32_);}
	.st50{fill:url(#SVGID_33_);}
	.st51{fill:url(#SVGID_34_);}
	.st52{fill:url(#SVGID_35_);}
	.st53{fill:url(#SVGID_36_);}
	.st54{fill:url(#SVGID_37_);}
	.st55{fill:url(#SVGID_38_);}
	.st56{fill:url(#SVGID_39_);}
	.st57{fill:url(#SVGID_40_);}
	.st58{fill:url(#SVGID_41_);}
	.st59{fill:url(#SVGID_42_);}
	.st60{fill:url(#SVGID_43_);}
	.st61{fill:url(#SVGID_44_);}
	.st62{fill:url(#SVGID_45_);}
	.st63{fill:url(#SVGID_46_);}
	.st64{fill:url(#SVGID_47_);}
	.st65{fill:url(#SVGID_48_);}
	.st66{fill:url(#SVGID_49_);}
	.st67{opacity:0.8;}
	.st68{fill:#D69644;}
	.st69{fill:url(#SVGID_50_);}
</style>
<g>
	<g>
		<g>
			<path class="st25" d="M562.4,243.7c0.4-2.4-1.2-4.4-3.2-4.9c-2.4-0.4-4.9,0.8-6.5,2.4c-0.8,0.4-1.6,1.2-2.4,2
				c-0.4-0.8-0.8-1.2-2-1.6c-1.2-0.4-2.8,0-4,0.8c-0.8,0.4-1.2,0.8-2,1.6c0-0.8,0-1.2,0-2c0-1.2-0.4-2-0.8-2.8s-1.2-1.6-2.4-2
				c-2-0.8-4.4-0.4-5.7,1.2c-0.4,0.8-0.8,1.6-1.2,2.4c-0.4,0.8-0.4,1.6-0.8,2.4c-0.4,1.6-1.2,3.6-1.2,5.7c-0.8,0.4-1.6,1.2-2.4,1.6
				c0-0.8-0.4-1.6-0.8-2.4c-0.4-0.8-0.8-2-1.2-2.8s-1.2-1.2-2.4-0.8c-0.8,0.4-1.6,1.2-2,1.6l-0.4,0.4c0-0.4,0-1.2-0.4-1.6
				c-0.4-1.2-0.8-2.4-2-2.8c-1.2-0.8-2.4-0.8-3.6,0c-0.4,0.4-0.8,0.8-0.8,1.2c-0.4,0.4-0.4,0.8-0.8,1.2c0,0,0,0.4-0.4,0.4
				c-0.4-0.4-0.8-0.4-1.2-0.4c-2.8,0.4-4.9,2.8-6.5,4.9c-1.2,1.6-1.6,3.2-2.4,4.9c0-0.4,0-0.8,0-0.8c-0.4-1.6-1.2-4-3.2-4
				s-4,0.8-5.3,2.4c-1.6,1.6-2.4,3.6-2.4,5.7l0,0c-0.4,0-0.8,0-1.2,0.4c-1.6,0.8-3.2,2.4-4,4c-0.4,0.4-0.8,1.2-0.8,1.6
				c0-0.4-0.4-0.4-0.4-0.8c-2-2-4.9,0.4-6.1,2.4c-1.2,2.4-2.4,4.9-3.2,7.7c-0.4-1.2-1.2-2.4-2.4-3.2c-1.2-0.8-2.8-0.4-4,0.8
				c-2.8,2-3.2,5.3-3.2,8.5c0,2,0.4,3.6,1.2,5.3s1.6,2.8,1.6,4.4l0,0c-8.1,8.1-87.3,88.5-97.4,101l-8.1,9.7c0,0-0.4,0.4,0,0.8
				c0,0.4,0,0.4,0.4,0.4l3.6,2h0.4h0.4l1.2-0.8l0.8,0.4c-0.8,0.8-1.2,1.6-1.2,1.6c-0.4,0.4-0.4,0.8,0,0.8l3.6,4
				c-0.4,0.8-0.8,1.2-1.6,2c-0.8,1.2-1.6,2-2,3.2c0,0.4,0,0.8,0,0.8c0.8,0.8,1.6,2,2.4,2.8c0.4,0.4,0.8,0.4,1.2,0
				c0.4-0.4,0.8-0.8,1.2-1.2l2.4,1.2h0.4c0.4,0,0.4,0,0.4-0.4c0.8-0.8,66.7-80,99-111.2c1.2,0.8,8.1,4.4,11.7,4.4
				c0.4,0,1.2,0,1.2-0.4c0.8-0.4,1.2-0.8,1.2-1.6c0.4-1.6,0.4-2.8-0.4-3.6l0,0c4.4,0,8.9-0.8,12.5-3.6c0.4-0.4,0.4-0.8,0.4-1.2
				c-0.4-0.8-0.8-1.2-1.2-2c4.9-1.6,9.3-4,13.3-6.5c0.8-0.4,0.8-1.6,0-2c-1.2-0.8-2.4-1.6-3.6-2c6.1,0,11.7-2,16.6-5.7
				c1.2-0.8,4.4-2.8,4.9-4.9c3.2-0.4,6.1-1.2,9.3-2.8c0.8-0.4,1.2-0.8,2-1.2c0.8-0.4,1.2-0.8,2-1.2c0.8-0.8,0.8-2,0.4-2.8
				c0.4-0.4,1.2-0.8,1.2-1.6l0,0c3.6-0.4,7.3-1.6,9.7-4c1.6-1.2,2.8-2.8,2.4-4.9c-0.4-1.6-1.6-2.8-3.2-3.2c-1.2-0.4-2.4-0.4-3.2-0.4
				c0-1.2-0.4-2-1.2-2.8c1.6-0.8,3.6-1.6,4.9-2.8C559.1,247.8,561.5,246.2,562.4,243.7z M541.3,248.2
				C541.3,248.2,541.7,248.2,541.3,248.2C541.7,247.8,541.7,247.8,541.3,248.2c0.8-1.2,1.6-2,2.4-2.8s1.6-1.2,2.4-1.2
				c0.4,0,0.4,0,0.8,0h0.4c0,0,0,0,0,0.4c0,0.4,0,0.4-0.4,0.8c-1.2,3.2-4.4,4.9-6.9,6.9c-0.8,0.4-1.6,1.2-2.8,1.6
				c0-0.4,0.4-0.8,0.4-1.2l0,0l1.2-1.6l0,0C540.1,250.2,540.5,249,541.3,248.2z M511.4,274.1c-0.4,0-0.4,0-0.8,0l0,0l0,0
				c-0.4,0-0.8,0-1.2,0c1.2-1.2,2-2.4,2.4-4c3.2-1.6,6.9-1.6,10.5-0.4l0,0c0.8,0.4,2,0.8,2.8,1.6c0.4,0,0.4,0.4,0.8,0.4l0,0l0,0
				c-0.4,0.4-0.8,0.4-1.2,0.4c-1.2,0.4-2,0.8-3.2,1.2c-0.4,0-0.8,0.4-1.2,0.4c-0.8,0-1.6,0-2.8,0.4l0,0
				C517.5,273.7,514.7,274.1,511.4,274.1z M494.5,295.9c0,0-0.8,1.2-1.6,1.6l0,0c-1.2,0.8-2.8,0.8-4,0.8c-2.8,0-5.3-0.8-7.7-2
				c2-1.6,4-2.8,6.1-3.6c1.2-0.4,2.8-0.8,4-0.8c0.8,0,1.2,0,2,0c1.2,0,2,0.4,1.6,1.6C495.3,294.3,494.9,295.1,494.5,295.9
				L494.5,295.9z M480.3,282.1C480.7,282.1,480.7,282.1,480.3,282.1C480.7,282.1,480.7,282.1,480.3,282.1
				C480.7,282.1,480.7,282.1,480.3,282.1z M489.6,290.6c-0.8,0-1.6,0.4-2.4,0.8c1.2-1.2,2-2.4,2.8-3.6l0,0c0.4-0.4,0.4-0.4,0.8-0.8
				l0,0c0,0,0,0,0.4,0l0,0l0,0c0.8-0.4,1.6-0.8,2.4-1.2l0,0c0.8-0.4,2.4-1.2,2.4-1.2l0,0c0,0,0,0,0.4,0c2-1.6,4.4-2,6.5-2
				c2,0.4,3.6,1.2,4.9,2.4c0,0-0.8,1.2-1.2,1.6c-1.6,0.8-3.2,1.6-4.9,2.4c-0.4,0.4-5.3,1.6-5.3,2
				C494.9,289.8,491.6,290.2,489.6,290.6z M507,282.1c-0.4,0-0.8,0-1.6,0c-1.2-0.4-2.4-0.8-3.6-0.8c-1.2,0-2.4,0-3.6,0.4
				c0.8-0.8,1.2-1.6,2-2.8l0,0l1.6-2c1.2-1.6,3.2-2,5.3-2c2.4,0,4.9,0,7.3,0.8c0.4,0,1.2,0.4,1.6,0.4h0.4l-0.4,0.4
				c-0.8,0.8-1.6,1.6-2.8,2C511.4,280.5,509.4,281.3,507,282.1z M507.8,261.9c0.4-0.4,0.8-0.4,1.2-0.8c0.4,0,0.4-0.4,0.8-0.4
				l0.4-0.4l0,0c0,0,0,0.4,0.4,0.4c0,0.4,0.4,0.8,0.4,1.2c0.4,2,0.4,4.4-0.4,6.5c-0.4,1.6-1.2,2.8-2,3.6c-0.4,0.4-0.8,0.8-1.2,1.2
				H507c-2,0-3.6,0.4-5.3,1.6c0-0.8,0-2,0-2.8l0,0c0-0.4,0-0.8,0-1.2C502.5,267.6,504.6,264.4,507.8,261.9z M504.2,262.3
				c2-1.2,3.6-2.8,5.3-4.9c0.4-0.4,0.8-1.2,1.2-2c0,1.2,0,2.4,0.4,3.2c-0.8-1.2-1.6-0.4-2.4,0.4c-1.6,0.8-2.8,2-4,3.6
				C504.6,262.7,504.6,262.7,504.2,262.3z M512.6,264C512.6,264,513,263.6,512.6,264c1.6-2,3.2-3.6,4.4-4.9c0.8-0.8,1.6-1.2,2.4-2
				c0.4,0,0.4-0.4,0.8-0.4c0,0,0.4-0.4,0.8-0.4l0,0l0,0c0,0,0,0.4,0.4,0.4c1.2,3.2,0.4,7.3-2,10.1c0,0,0,0,0,0.4c-0.4,0-0.8,0-1.2,0
				c-2,0-3.6,0.4-5.3,0.8C512.6,266.4,512.6,265.2,512.6,264z M522.7,267.6c-0.8,0-1.2-0.4-2-0.4l0.4-0.4l0,0
				c2.4-1.2,5.3-2.4,7.7-3.6c1.2-0.8,2.8-1.6,4-2.4c2.8-0.8,5.7-0.8,8.1-0.8c0.8,0,1.2,0,2,0c0,0,0.4,0,0.8,0c0,0-0.4,0.4-0.4,0.8
				c-0.4,0.4-0.4,0.8-0.8,1.2l0,0c-0.4,0.8-1.2,1.2-2,1.6c-2.4,1.6-5.3,2-8.1,2.8C529.2,266.8,526,267.6,522.7,267.6z M542.6,258.3
				c-2.4-0.4-4.9-0.4-7.7,0l0.4-0.4l0,0c4.4-2.4,8.1-4.4,8.5-4.4s0.4,0,0.8,0c1.2-0.4,2.4-0.4,3.6-0.4s2.8-0.4,3.6,1.2
				c0.4,0.4,0.4,1.2,0,1.6c-0.4,1.2-2.4,2.4-3.2,2.8c-0.8,0.4-3.2,1.2-3.6,0.8C544.2,258.3,543,258.3,542.6,258.3z M532.9,245
				c0.4-1.6,0.8-2.8,1.2-4v-0.4l0,0l0,0c0,0,0,0,0-0.4c0-0.4,0.4-0.4,0.4-0.8c0.4-0.4,1.6-0.4,2-0.4s1.2,0.4,1.2,0.8
				c0.4,0.4,0.4,1.2,0.4,2c0,1.6,0.4,3.6,0,4.9c-0.4,0.4-0.8,1.2-1.2,1.6c-0.4-1.6-0.8-2.8-2.8-2.4c-0.8,0-1.6,0.4-2,0.8
				c-0.4,0-0.4,0.4-0.8,0.4C532.4,246.6,532.9,245.8,532.9,245z M527.6,252.2c1.6-1.6,4.4-3.2,6.9-4c0.4,0,0.8-0.4,0.8-0.4
				c0.4,0,0.8-0.4,1.2,0.4c0.4,0.8,0.4,1.6,0.4,2.4c0,2.8-1.2,5.7-3.2,7.7c-0.4,0.4-0.8,0.8-1.2,1.2c0,0,0,0-0.4,0
				c-1.2,1.2-2.8,2-4.4,2.8s-3.2,1.6-5.3,2.4c0.4-1.2,0.8-2,0.8-3.2l0,0c0.4-0.4,1.2-3.2,1.2-3.6
				C525.2,255.5,526.4,253.9,527.6,252.2z M518.7,254.3c0-0.8,0.4-1.6,0.4-2c0.8-1.2,1.2-2.4,2.4-3.6c0.4-0.8,0.8-1.2,1.6-1.6
				c0,0,0.4-0.8,0.8-0.8s0.4,0.4,0.4,0.8c0.8,1.6,1.2,3.2,1.6,5.3l0,0c-1.6,1.6-2.8,3.2-3.2,5.3c0-0.4-0.4-0.8-0.4-1.2
				c-0.4-0.8-0.8-1.6-1.6-1.6c-0.8,0.4-1.6,0.8-2.4,1.2C518.7,255.1,518.7,254.3,518.7,254.3L518.7,254.3z M514.7,248.2L514.7,248.2
				L514.7,248.2c0-0.4,0.4-0.4,0.4-0.8c0.4-0.4,0.4-0.8,0.8-1.6c0.4-0.4,0.4-0.8,0.8-1.2c0,0,0-0.4,0.4-0.4c0,0,0.4-0.4,0,0l0,0l0,0
				l0,0l0,0c-0.4,0,0,0,0,0s0,0,0.4,0l0,0l0,0l0,0c0,0,0,0.4,0.4,0.4c0,0,0,0,0,0.4c0,0,0,0,0,0.4l0,0l0,0c0.4,0.4,0.4,1.2,0.4,1.6
				v0.4l0,0c0,0,0,0,0,0.4v2c-0.8,1.6-1.6,3.6-2,5.7l0,0l-0.4,1.6c0,0,0,0-0.4,0c-1.2,1.2-2.4,2.4-3.6,3.6c-1.2-2.4-0.8-6.1-0.8-7.3
				c0.4-0.8,0.8-1.2,0.8-2l0,0C514.3,250.2,514.7,248.2,514.7,248.2z M505.8,252.6c1.2-2,2.4-4,4.4-5.3c1.2-0.8,2-1.2,2,0.8
				c-0.4,2.4-1.2,4.4-2.4,6.5c0,0.4-1.2,1.6-1.2,2c-1.2,1.6-2.8,3.2-4.4,4.4c-0.4-0.8-0.4-1.6-0.8-2.4c0,0,0,0,0-0.4
				C504.2,256.7,504.6,254.7,505.8,252.6z M502.9,264v0.8c-1.2,1.6-2,3.6-2.4,5.3l0,0c-1.2-1.2-2.8-2-4-1.6l0,0
				c0.4-1.6,0.8-2.8,1.2-4.4c0.4-1.2,1.2-2.4,2-3.6c0.4-0.8,0.8-0.8,1.2-1.2C502.5,259.1,502.9,262.3,502.9,264z M496.9,253.4
				c0.8-0.4,1.6-0.8,2.4-1.2c0.4,0,0.8,0,1.2,0.4c0,0.4,0.4,0.4,0.4,0.8c0.4,0.8,0.4,1.6,0.4,2.4c0,0.8,0,1.6,0,2l0,0
				c-0.4,0-0.8,0.4-1.2,0.8c-1.2,1.2-2,2.8-2.8,4c-0.4,0.8-0.8,2-1.2,2.8l0,0c0-0.8-0.4-1.6-0.4-2.4c-0.4-1.6-0.4-3.2-0.4-4.9
				C494.5,256.7,495.3,254.7,496.9,253.4z M495.3,268.8L495.3,268.8L495.3,268.8L495.3,268.8z M495.3,270.8c0.4-0.8,1.2-1.2,2-0.8
				c0.8,0,1.2,0.4,1.6,0.8c0.8,0.8,1.2,2,1.2,3.2c0,2.8-1.6,5.3-3.6,7.3c-1.6,1.6-3.6,2.8-5.7,4c0.8-2,0.8-4,0.4-6.5c0,0,0,0,0-0.4
				c0.4-1.6,1.2-2.8,1.6-4C494,273.3,494.5,271.6,495.3,270.8z M484.8,276.5c0.4-1.2,0.8-2.4,1.2-4l0,0c0-0.4,0.4-2.4,0.8-4V268
				c0.4-1.6,0.8-3.2,1.6-4.4c0.4-0.8,0.8-1.2,1.6-2c0.4-0.4,0.4-0.4,0.8-0.8c0,0,0.4,0,0.4-0.4c0,0.4,0.4,0.8,0.4,0.8l0,0
				c0,0,0,0,0,0.4s0,0.4,0.4,0.8c0,0.4,0.4,0.8,0.4,1.2c0,0.8,0.4,1.6,0.4,2v0.4c0,1.6,0,2.8-0.8,4.4l0,0c-0.4,1.2-2,5.3-2.8,5.7
				l0,0h-0.4c-1.2,0-2.8,0.4-4,1.2c-0.4,0-0.8,0.4-0.8,0.4C484.3,277.7,484.8,276.9,484.8,276.5z M487.2,278.1
				c0.4,0,1.2-0.4,1.6-0.4c0.8,0,1.2,0.4,1.2,1.2c0.8,2.8,0,5.7-1.6,8.1c-1.6,2.8-4,4.9-6.9,6.5l-0.4,0.4c-0.4-2.8,0-5.7,0-8.1
				c0.4-2.4,0.8-4.4,2.8-6.1C484.8,278.9,486,278.5,487.2,278.1z M477.9,276.1c0.8-3.2,2-6.1,3.2-8.9c0.4-0.4,1.2-2.8,2.4-2.4
				c0.4,0,0.4,1.2,0.4,1.6c0,0.8,0,1.6,0,2.4c0,2.8-0.4,6.1-2.4,8.5c-1.2,1.6-2.4,3.2-4,4c0-1.2,0-2,0-3.2l0,0
				C477.5,277.3,477.9,276.5,477.9,276.1z M477.1,284.2h0.4l0,0c-0.4,0.4-0.8,0.8-1.2,1.2C476.7,284.6,476.7,284.6,477.1,284.2z
				 M469.4,282.1c-0.4-1.2-0.4-2.8-0.4-4c0-1.2,0-2.8,0.8-4c0.4-0.8,1.2-2,2.4-2c1.2-0.4,2,1.6,2,2.4c0.4,1.2,0.8,2.8,1.2,4
				c0,1.2,0.4,2.8-0.4,4c-0.8,1.6-2.4,2.8-3.6,4c0-0.4-0.4-0.8-0.4-1.2C470.2,284.2,469.8,283.4,469.4,282.1z M470.2,289.8
				C470.6,290.2,470.6,290.2,470.2,289.8c-1.2,1.6-3.2,3.2-4.9,4.9C467.8,292.7,469.4,291,470.2,289.8z M367.9,399.8
				c0,0-0.4,0.4,0,0.8l0,0l-2-0.8l7.3-8.9c6.5-8.1,40.4-43.2,66.7-69.9C407.1,355.7,368.3,399.4,367.9,399.8z M369.6,400.2
				c8.1-9.3,88.1-99,110.7-116.4c0,0.8-0.4,1.6-0.4,2.4l0,0C455.7,309.6,385.7,385.6,372,401L369.6,400.2z M370.8,404.2
				c6.5-7.3,82.1-89.7,108.7-115.6c0,0.4,0,0.4,0,0.8c0,0.8,0,1.6,0,2.4c-2.8,2.8-5.7,5.3-8.1,8.1c-6.9,7.3-14.1,14.1-21,21.4
				c-9.3,9.7-18.6,19.4-27.5,29.1c-9.7,10.5-19,20.6-28.3,31.5c-7.3,8.1-14.1,16.6-20.6,25.5L370.8,404.2z M373.2,414.7
				c-0.4,0.4-0.8,0.8-1.2,1.2c-0.4-0.4-1.2-1.2-1.6-1.6c6.9-9.7,14.1-18.6,21.8-27.5c9.3-10.5,18.6-21,27.9-31.5
				c9.3-10.1,18.6-19.8,27.9-29.5c7.3-7.7,14.6-15,22.2-22.6c2.4-2.4,4.4-4.9,6.9-6.9c0.8-0.8,1.6-1.6,2.4-2c0,0.8,0,1.2,0.4,2
				c-2.4,2-4.9,4.4-7.3,6.9c-10.1,9.7-19.8,20.2-29.1,30.7c-10.9,12.1-21.4,24.3-32.3,36.4c-8.9,10.5-17.8,21-26.7,31.5
				c-2.8,3.6-5.7,6.9-8.5,10.5C375.2,412.3,374.4,413.5,373.2,414.7z M475.5,305.2c-2,2-4,3.6-6.1,5.7c-3.2,3.6-6.9,6.9-10.1,10.5
				c-7.7,8.1-15,16.2-22.2,24.7c-7.7,8.5-15.4,17.4-22.6,25.9c-6.5,7.7-13.3,15.4-19.8,23c-4.4,5.3-9.3,10.9-13.7,16.2
				c-0.4,0.4-4,4.9-4,4.9l-1.6-0.8c2.4-3.2,5.3-6.1,7.7-9.3c8.1-9.3,15.8-18.6,23.8-27.9c10.1-11.7,20.2-23.4,30.7-35.2
				c9.7-10.9,19.4-21.4,29.5-31.9c4-4,8.1-8.1,12.1-11.7c0.8-0.4,1.2-1.2,2-1.6c0.8,0.4,1.6,0.8,2,1.2l-2,1.6
				C478.7,301.5,477.1,303.6,475.5,305.2z M489.2,308.4c0,0.4-0.4,0.4-0.4,0.4c-2,0.8-7.7-2-11.3-3.6c0.4,0,0.4-0.4,0.4-0.4
				c2.4,0,4-0.4,5.7,0c0.8,0,2,0.4,2.8,0.4c1.2,0.4,2,0.8,2.4,1.2C489.6,306.4,489.6,307.2,489.2,308.4z M500.1,299.9
				c-5.3,4-12.5,2.4-19,1.6c0.8-0.8,2-1.6,2.8-2.4c1.2,0.4,2.8,0.8,4,0.8c1.2,0,2.4,0,3.2-0.4c1.2-0.4,2-0.8,2.8-0.8
				c1.2,0,2.4-0.4,3.2-0.4C498.1,298.3,500.5,299.5,500.1,299.9z M512.2,290.2c-4,2.4-8.5,4.4-12.9,6.1l0,0c-0.8-0.4-2-0.4-2.8-0.4
				c0.4-1.2,0.8-2.4,0.8-3.2c3.6-1.2,7.3-2.8,10.5-4.4l0,0C509.4,288.2,510.6,289.4,512.2,290.2z M530,276.9
				c-0.4,0.4-0.8,0.8-1.2,0.8c-5.3,4.9-12.1,7.3-19,6.9c-0.4,0-0.8,0-1.2-0.4l0,0c-0.4-0.4-0.8-0.4-0.8-0.8c2.4-0.8,4.9-2,7.3-3.6
				c0.4-0.4,1.2-0.8,1.6-1.2s0.8-0.8,1.2-1.2c0.4-0.4,0-0.8,0-0.8c2.4-0.4,4.9-0.4,7.3-0.4c1.2,0,2.8,0,4,0c0.4,0,0.4,0,0.8,0h0.4
				l0,0C530.4,276.1,530,276.5,530,276.9z M544.2,270c-0.4,0.4-1.2,0.8-1.6,0.8c-1.2,0.4-2,1.2-3.2,1.6c-2.4,0.8-4.9,1.6-7.3,2
				c-0.8-0.4-2-0.8-2.8-0.8c-1.2,0-2.4,0-4,0c0.4-0.4,1.2-0.4,1.6-0.8c2-1.2,0-2.4-1.6-3.6c1.2,0,2-0.4,3.2-0.4
				c3.2,0.8,6.5,1.2,9.7,1.6C540.1,270,542.1,270,544.2,270C544.2,269.6,544.2,269.6,544.2,270C544.2,269.6,544.2,270,544.2,270z
				 M544.6,269.6L544.6,269.6L544.6,269.6z M545.8,267.2c-0.8,0.8-1.6,0.8-2.8,1.2c-2,0.4-4.4,0.4-6.5,0c-1.2,0-2.8-0.4-4-0.4
				c0.8,0,1.2-0.4,2-0.4c3.2-0.4,6.5-1.6,8.9-4c0,0,0,0,0.4-0.4c1.2,0.4,2.4,1.2,3.2,2C547,265.6,546.2,266.8,545.8,267.2z
				 M552.3,257.5h0.4l0,0l0,0h0.4h0.8c0.8,0,1.2,0,2,0.4c0,0,0,0,0.4,0l0,0c0,0,0.4,0,0.4,0.4c0.4,0,0.4,0.4,0.4,0.8
				c0.4,0.4,0,1.2-0.4,1.6c-2.4,2.4-5.7,4-9.3,4.4l0,0c0,0,0,0,0-0.4c-0.8-0.8-2-1.6-3.2-2c0.4-0.8,0.8-1.2,0.8-2
				C547.8,259.5,550.6,259.1,552.3,257.5z M549.4,251c-1.2,0-2.8,0-4,0.4c0.4-0.4,0.8-0.4,0.8-0.8c0.8-0.4,1.2-1.2,1.6-1.6l2.4-2.8
				l0,0l0,0l0,0c0.4-0.8,1.2-1.2,2-2c1.2-1.2,3.2-2.4,4.9-2.8c1.2-0.4,3.2,0.4,2.8,1.6c0,0.4-0.8,1.2-1.2,1.6l0,0
				C555.5,248.6,549.4,251,549.4,251z"/>
			<g>
				
					<linearGradient id="SVGID_1_" gradientUnits="userSpaceOnUse" x1="537.6412" y1="352.9989" x2="547.4835" y2="352.9989" gradientTransform="matrix(1 0 0 -1 0 602)">
					<stop  offset="0" style="stop-color:#EEAE59"/>
					<stop  offset="0.1897" style="stop-color:#EFB15D"/>
					<stop  offset="0.3843" style="stop-color:#F1BB69"/>
					<stop  offset="0.581" style="stop-color:#F4CB7E"/>
					<stop  offset="0.7783" style="stop-color:#F9E19C"/>
					<stop  offset="0.7831" style="stop-color:#F9E29D"/>
				</linearGradient>
				<path class="st0" d="M541.3,248.2C541.3,248.2,541.7,248.2,541.3,248.2C541.7,247.8,541.7,247.8,541.3,248.2
					c0.8-1.2,1.6-2,2.4-2.8s1.6-1.2,2.4-1.2c0.4,0,0.4,0,0.8,0h0.4c0,0,0,0,0,0.4c0,0.4,0,0.4-0.4,0.8c-1.2,3.2-4.4,4.9-6.9,6.9
					c-0.8,0.4-1.6,1.2-2.8,1.6c0-0.4,0.4-0.8,0.4-1.2l0,0l1.2-1.6l0,0C540.1,250.2,540.5,249,541.3,248.2z"/>
				
					<linearGradient id="SVGID_2_" gradientUnits="userSpaceOnUse" x1="509.384" y1="330.5945" x2="526.1097" y2="330.5945" gradientTransform="matrix(1 0 0 -1 0 602)">
					<stop  offset="0" style="stop-color:#EEAE59"/>
					<stop  offset="0.1897" style="stop-color:#EFB15D"/>
					<stop  offset="0.3843" style="stop-color:#F1BB69"/>
					<stop  offset="0.581" style="stop-color:#F4CB7E"/>
					<stop  offset="0.7783" style="stop-color:#F9E19C"/>
					<stop  offset="0.7831" style="stop-color:#F9E29D"/>
				</linearGradient>
				<path class="st4" d="M511.4,274.1c-0.4,0-0.4,0-0.8,0l0,0l0,0c-0.4,0-0.8,0-1.2,0c1.2-1.2,2-2.4,2.4-4c3.2-1.6,6.9-1.6,10.5-0.4
					l0,0c0.8,0.4,2,0.8,2.8,1.6c0.4,0,0.4,0.4,0.8,0.4l0,0l0,0c-0.4,0.4-0.8,0.4-1.2,0.4c-1.2,0.4-2,0.8-3.2,1.2
					c-0.4,0-0.8,0.4-1.2,0.4c-0.8,0-1.6,0-2.8,0.4l0,0C517.5,273.7,514.7,274.1,511.4,274.1z"/>
				
					<linearGradient id="SVGID_3_" gradientUnits="userSpaceOnUse" x1="481.5266" y1="306.9215" x2="495.5531" y2="306.9215" gradientTransform="matrix(1 0 0 -1 0 602)">
					<stop  offset="0" style="stop-color:#EEAE59"/>
					<stop  offset="0.1897" style="stop-color:#EFB15D"/>
					<stop  offset="0.3843" style="stop-color:#F1BB69"/>
					<stop  offset="0.581" style="stop-color:#F4CB7E"/>
					<stop  offset="0.7783" style="stop-color:#F9E19C"/>
					<stop  offset="0.7831" style="stop-color:#F9E29D"/>
				</linearGradient>
				<path class="st5" d="M494.5,295.9c0,0-0.8,1.2-1.6,1.6l0,0c-1.2,0.8-2.8,0.8-4,0.8c-2.8,0-5.3-0.8-7.7-2c2-1.6,4-2.8,6.1-3.6
					c1.2-0.4,2.8-0.8,4-0.8c0.8,0,1.2,0,2,0c1.2,0,2,0.4,1.6,1.6C495.3,294.3,494.9,295.1,494.5,295.9L494.5,295.9z"/>
				
					<linearGradient id="SVGID_4_" gradientUnits="userSpaceOnUse" x1="487.2155" y1="315.0053" x2="507.6023" y2="315.0053" gradientTransform="matrix(1 0 0 -1 0 602)">
					<stop  offset="0" style="stop-color:#EEAE59"/>
					<stop  offset="0.1897" style="stop-color:#EFB15D"/>
					<stop  offset="0.3843" style="stop-color:#F1BB69"/>
					<stop  offset="0.581" style="stop-color:#F4CB7E"/>
					<stop  offset="0.7783" style="stop-color:#F9E19C"/>
					<stop  offset="0.7831" style="stop-color:#F9E29D"/>
				</linearGradient>
				<path class="st14" d="M489.6,290.6c-0.8,0-1.6,0.4-2.4,0.8c1.2-1.2,2-2.4,2.8-3.6l0,0c0.4-0.4,0.4-0.4,0.8-0.8l0,0
					c0,0,0,0,0.4,0l0,0l0,0c0.8-0.4,1.6-0.8,2.4-1.2l0,0c0.8-0.4,2.4-1.2,2.4-1.2l0,0c0,0,0,0,0.4,0c2-1.6,4.4-2,6.5-2
					c2,0.4,3.6,1.2,4.9,2.4c0,0-0.8,1.2-1.2,1.6c-1.6,0.8-3.2,1.6-4.9,2.4c-0.4,0.4-5.3,1.6-5.3,2
					C494.9,289.8,491.6,290.2,489.6,290.6z"/>
				
					<linearGradient id="SVGID_5_" gradientUnits="userSpaceOnUse" x1="498.2454" y1="323.4932" x2="516.3154" y2="323.4932" gradientTransform="matrix(1 0 0 -1 0 602)">
					<stop  offset="0" style="stop-color:#EEAE59"/>
					<stop  offset="0.1897" style="stop-color:#EFB15D"/>
					<stop  offset="0.3843" style="stop-color:#F1BB69"/>
					<stop  offset="0.581" style="stop-color:#F4CB7E"/>
					<stop  offset="0.7783" style="stop-color:#F9E19C"/>
					<stop  offset="0.7831" style="stop-color:#F9E29D"/>
				</linearGradient>
				<path class="st15" d="M507,282.1c-0.4,0-0.8,0-1.6,0c-1.2-0.4-2.4-0.8-3.6-0.8c-1.2,0-2.4,0-3.6,0.4c0.8-0.8,1.2-1.6,2-2.8l0,0
					l1.6-2c1.2-1.6,3.2-2,5.3-2c2.4,0,4.9,0,7.3,0.8c0.4,0,1.2,0.4,1.6,0.4h0.4l-0.4,0.4c-0.8,0.8-1.6,1.6-2.8,2
					C511.4,280.5,509.4,281.3,507,282.1z"/>
				
					<linearGradient id="SVGID_6_" gradientUnits="userSpaceOnUse" x1="501.4817" y1="334.4063" x2="511.2206" y2="334.4063" gradientTransform="matrix(1 0 0 -1 0 602)">
					<stop  offset="0" style="stop-color:#EEAE59"/>
					<stop  offset="0.1897" style="stop-color:#EFB15D"/>
					<stop  offset="0.3843" style="stop-color:#F1BB69"/>
					<stop  offset="0.581" style="stop-color:#F4CB7E"/>
					<stop  offset="0.7783" style="stop-color:#F9E19C"/>
					<stop  offset="0.7831" style="stop-color:#F9E29D"/>
				</linearGradient>
				<path class="st19" d="M507.8,261.9c0.4-0.4,0.8-0.4,1.2-0.8c0.4,0,0.4-0.4,0.8-0.4l0.4-0.4l0,0c0,0,0,0.4,0.4,0.4
					c0,0.4,0.4,0.8,0.4,1.2c0.4,2,0.4,4.4-0.4,6.5c-0.4,1.6-1.2,2.8-2,3.6c-0.4,0.4-0.8,0.8-1.2,1.2H507c-2,0-3.6,0.4-5.3,1.6
					c0-0.8,0-2,0-2.8l0,0c0-0.4,0-0.8,0-1.2C502.5,267.6,504.6,264.4,507.8,261.9z"/>
				
					<linearGradient id="SVGID_7_" gradientUnits="userSpaceOnUse" x1="504.3494" y1="342.8942" x2="511.1418" y2="342.8942" gradientTransform="matrix(1 0 0 -1 0 602)">
					<stop  offset="0" style="stop-color:#EEAE59"/>
					<stop  offset="0.1897" style="stop-color:#EFB15D"/>
					<stop  offset="0.3843" style="stop-color:#F1BB69"/>
					<stop  offset="0.581" style="stop-color:#F4CB7E"/>
					<stop  offset="0.7783" style="stop-color:#F9E19C"/>
					<stop  offset="0.7831" style="stop-color:#F9E29D"/>
				</linearGradient>
				<path class="st20" d="M504.2,262.3c2-1.2,3.6-2.8,5.3-4.9c0.4-0.4,0.8-1.2,1.2-2c0,1.2,0,2.4,0.4,3.2c-0.8-1.2-1.6-0.4-2.4,0.4
					c-1.6,0.8-2.8,2-4,3.6C504.6,262.7,504.6,262.7,504.2,262.3z"/>
				
					<linearGradient id="SVGID_8_" gradientUnits="userSpaceOnUse" x1="512.4348" y1="339.8628" x2="521.8734" y2="339.8628" gradientTransform="matrix(1 0 0 -1 0 602)">
					<stop  offset="0" style="stop-color:#EEAE59"/>
					<stop  offset="0.1897" style="stop-color:#EFB15D"/>
					<stop  offset="0.3843" style="stop-color:#F1BB69"/>
					<stop  offset="0.581" style="stop-color:#F4CB7E"/>
					<stop  offset="0.7783" style="stop-color:#F9E19C"/>
					<stop  offset="0.7831" style="stop-color:#F9E29D"/>
				</linearGradient>
				<path class="st24" d="M512.6,264C512.6,264,513,263.6,512.6,264c1.6-2,3.2-3.6,4.4-4.9c0.8-0.8,1.6-1.2,2.4-2
					c0.4,0,0.4-0.4,0.8-0.4c0,0,0.4-0.4,0.8-0.4l0,0l0,0c0,0,0,0.4,0.4,0.4c1.2,3.2,0.4,7.3-2,10.1c0,0,0,0,0,0.4
					c-0.4,0-0.8,0-1.2,0c-2,0-3.6,0.4-5.3,0.8C512.6,266.4,512.6,265.2,512.6,264z"/>
				
					<linearGradient id="SVGID_9_" gradientUnits="userSpaceOnUse" x1="520.7554" y1="338.2461" x2="543.8483" y2="338.2461" gradientTransform="matrix(1 0 0 -1 0 602)">
					<stop  offset="0" style="stop-color:#EEAE59"/>
					<stop  offset="0.1897" style="stop-color:#EFB15D"/>
					<stop  offset="0.3843" style="stop-color:#F1BB69"/>
					<stop  offset="0.581" style="stop-color:#F4CB7E"/>
					<stop  offset="0.7783" style="stop-color:#F9E19C"/>
					<stop  offset="0.7831" style="stop-color:#F9E29D"/>
				</linearGradient>
				<path class="st26" d="M522.7,267.6c-0.8,0-1.2-0.4-2-0.4l0.4-0.4l0,0c2.4-1.2,5.3-2.4,7.7-3.6c1.2-0.8,2.8-1.6,4-2.4
					c2.8-0.8,5.7-0.8,8.1-0.8c0.8,0,1.2,0,2,0c0,0,0.4,0,0.8,0c0,0-0.4,0.4-0.4,0.8c-0.4,0.4-0.4,0.8-0.8,1.2l0,0
					c-0.4,0.8-1.2,1.2-2,1.6c-2.4,1.6-5.3,2-8.1,2.8C529.2,266.8,526,267.6,522.7,267.6z"/>
				
					<linearGradient id="SVGID_10_" gradientUnits="userSpaceOnUse" x1="534.9606" y1="345.6909" x2="552.0735" y2="345.6909" gradientTransform="matrix(1 0 0 -1 0 602)">
					<stop  offset="0" style="stop-color:#EEAE59"/>
					<stop  offset="0.1897" style="stop-color:#EFB15D"/>
					<stop  offset="0.3843" style="stop-color:#F1BB69"/>
					<stop  offset="0.581" style="stop-color:#F4CB7E"/>
					<stop  offset="0.7783" style="stop-color:#F9E19C"/>
					<stop  offset="0.7831" style="stop-color:#F9E29D"/>
				</linearGradient>
				<path class="st27" d="M542.6,258.3c-2.4-0.4-4.9-0.4-7.7,0l0.4-0.4l0,0c4.4-2.4,8.1-4.4,8.5-4.4s0.4,0,0.8,0
					c1.2-0.4,2.4-0.4,3.6-0.4s2.8-0.4,3.6,1.2c0.4,0.4,0.4,1.2,0,1.6c-0.4,1.2-2.4,2.4-3.2,2.8c-0.8,0.4-3.2,1.2-3.6,0.8
					C544.2,258.3,543,258.3,542.6,258.3z"/>
				
					<linearGradient id="SVGID_11_" gradientUnits="userSpaceOnUse" x1="532.5205" y1="358.4554" x2="539.4867" y2="358.4554" gradientTransform="matrix(1 0 0 -1 0 602)">
					<stop  offset="0" style="stop-color:#EEAE59"/>
					<stop  offset="0.1897" style="stop-color:#EFB15D"/>
					<stop  offset="0.3843" style="stop-color:#F1BB69"/>
					<stop  offset="0.581" style="stop-color:#F4CB7E"/>
					<stop  offset="0.7783" style="stop-color:#F9E19C"/>
					<stop  offset="0.7831" style="stop-color:#F9E29D"/>
				</linearGradient>
				<path class="st28" d="M532.9,245c0.4-1.6,0.8-2.8,1.2-4v-0.4l0,0l0,0c0,0,0,0,0-0.4c0-0.4,0.4-0.4,0.4-0.8
					c0.4-0.4,1.6-0.4,2-0.4s1.2,0.4,1.2,0.8c0.4,0.4,0.4,1.2,0.4,2c0,1.6,0.4,3.6,0,4.9c-0.4,0.4-0.8,1.2-1.2,1.6
					c-0.4-1.6-0.8-2.8-2.8-2.4c-0.8,0-1.6,0.4-2,0.8c-0.4,0-0.4,0.4-0.8,0.4C532.4,246.6,532.9,245.8,532.9,245z"/>
				
					<linearGradient id="SVGID_12_" gradientUnits="userSpaceOnUse" x1="522.4122" y1="345.7741" x2="536.7515" y2="345.7741" gradientTransform="matrix(1 0 0 -1 0 602)">
					<stop  offset="0" style="stop-color:#EEAE59"/>
					<stop  offset="0.1897" style="stop-color:#EFB15D"/>
					<stop  offset="0.3843" style="stop-color:#F1BB69"/>
					<stop  offset="0.581" style="stop-color:#F4CB7E"/>
					<stop  offset="0.7783" style="stop-color:#F9E19C"/>
					<stop  offset="0.7831" style="stop-color:#F9E29D"/>
				</linearGradient>
				<path class="st29" d="M527.6,252.2c1.6-1.6,4.4-3.2,6.9-4c0.4,0,0.8-0.4,0.8-0.4c0.4,0,0.8-0.4,1.2,0.4c0.4,0.8,0.4,1.6,0.4,2.4
					c0,2.8-1.2,5.7-3.2,7.7c-0.4,0.4-0.8,0.8-1.2,1.2c0,0,0,0-0.4,0c-1.2,1.2-2.8,2-4.4,2.8s-3.2,1.6-5.3,2.4c0.4-1.2,0.8-2,0.8-3.2
					l0,0c0.4-0.4,1.2-3.2,1.2-3.6C525.2,255.5,526.4,253.9,527.6,252.2z"/>
				
					<linearGradient id="SVGID_13_" gradientUnits="userSpaceOnUse" x1="518.576" y1="350.1696" x2="526.2738" y2="350.1696" gradientTransform="matrix(1 0 0 -1 0 602)">
					<stop  offset="0" style="stop-color:#EEAE59"/>
					<stop  offset="0.1897" style="stop-color:#EFB15D"/>
					<stop  offset="0.3843" style="stop-color:#F1BB69"/>
					<stop  offset="0.581" style="stop-color:#F4CB7E"/>
					<stop  offset="0.7783" style="stop-color:#F9E19C"/>
					<stop  offset="0.7831" style="stop-color:#F9E29D"/>
				</linearGradient>
				<path class="st30" d="M518.7,254.3c0-0.8,0.4-1.6,0.4-2c0.8-1.2,1.2-2.4,2.4-3.6c0.4-0.8,0.8-1.2,1.6-1.6c0,0,0.4-0.8,0.8-0.8
					s0.4,0.4,0.4,0.8c0.8,1.6,1.2,3.2,1.6,5.3l0,0c-1.6,1.6-2.8,3.2-3.2,5.3c0-0.4-0.4-0.8-0.4-1.2c-0.4-0.8-0.8-1.6-1.6-1.6
					c-0.8,0.4-1.6,0.8-2.4,1.2C518.7,255.1,518.7,254.3,518.7,254.3L518.7,254.3z"/>
				
					<linearGradient id="SVGID_14_" gradientUnits="userSpaceOnUse" x1="511.8507" y1="349.6532" x2="518.7635" y2="349.6532" gradientTransform="matrix(1 0 0 -1 0 602)">
					<stop  offset="0" style="stop-color:#EEAE59"/>
					<stop  offset="0.1897" style="stop-color:#EFB15D"/>
					<stop  offset="0.3843" style="stop-color:#F1BB69"/>
					<stop  offset="0.581" style="stop-color:#F4CB7E"/>
					<stop  offset="0.7783" style="stop-color:#F9E19C"/>
					<stop  offset="0.7831" style="stop-color:#F9E29D"/>
				</linearGradient>
				<path class="st31" d="M514.7,248.2L514.7,248.2L514.7,248.2c0-0.4,0.4-0.4,0.4-0.8c0.4-0.4,0.4-0.8,0.8-1.6
					c0.4-0.4,0.4-0.8,0.8-1.2c0,0,0-0.4,0.4-0.4c0,0,0.4-0.4,0,0l0,0l0,0l0,0l0,0c-0.4,0,0,0,0,0s0,0,0.4,0l0,0l0,0l0,0
					c0,0,0,0.4,0.4,0.4c0,0,0,0,0,0.4c0,0,0,0,0,0.4l0,0l0,0c0.4,0.4,0.4,1.2,0.4,1.6v0.4l0,0c0,0,0,0,0,0.4v2
					c-0.8,1.6-1.6,3.6-2,5.7l0,0l-0.4,1.6c0,0,0,0-0.4,0c-1.2,1.2-2.4,2.4-3.6,3.6c-1.2-2.4-0.8-6.1-0.8-7.3c0.4-0.8,0.8-1.2,0.8-2
					l0,0C514.3,250.2,514.7,248.2,514.7,248.2z"/>
				
					<linearGradient id="SVGID_15_" gradientUnits="userSpaceOnUse" x1="503.0641" y1="348.0756" x2="512.1959" y2="348.0756" gradientTransform="matrix(1 0 0 -1 0 602)">
					<stop  offset="0" style="stop-color:#EEAE59"/>
					<stop  offset="0.1897" style="stop-color:#EFB15D"/>
					<stop  offset="0.3843" style="stop-color:#F1BB69"/>
					<stop  offset="0.581" style="stop-color:#F4CB7E"/>
					<stop  offset="0.7783" style="stop-color:#F9E19C"/>
					<stop  offset="0.7831" style="stop-color:#F9E29D"/>
				</linearGradient>
				<path class="st32" d="M505.8,252.6c1.2-2,2.4-4,4.4-5.3c1.2-0.8,2-1.2,2,0.8c-0.4,2.4-1.2,4.4-2.4,6.5c0,0.4-1.2,1.6-1.2,2
					c-1.2,1.6-2.8,3.2-4.4,4.4c-0.4-0.8-0.4-1.6-0.8-2.4c0,0,0,0,0-0.4C504.2,256.7,504.6,254.7,505.8,252.6z"/>
				
					<linearGradient id="SVGID_16_" gradientUnits="userSpaceOnUse" x1="496.1974" y1="337.4377" x2="503.014" y2="337.4377" gradientTransform="matrix(1 0 0 -1 0 602)">
					<stop  offset="0" style="stop-color:#EEAE59"/>
					<stop  offset="0.1897" style="stop-color:#EFB15D"/>
					<stop  offset="0.3843" style="stop-color:#F1BB69"/>
					<stop  offset="0.581" style="stop-color:#F4CB7E"/>
					<stop  offset="0.7783" style="stop-color:#F9E19C"/>
					<stop  offset="0.7831" style="stop-color:#F9E29D"/>
				</linearGradient>
				<path class="st33" d="M502.9,264v0.8c-1.2,1.6-2,3.6-2.4,5.3l0,0c-1.2-1.2-2.8-2-4-1.6l0,0c0.4-1.6,0.8-2.8,1.2-4.4
					c0.4-1.2,1.2-2.4,2-3.6c0.4-0.8,0.8-0.8,1.2-1.2C502.5,259.1,502.9,262.3,502.9,264z"/>
				
					<linearGradient id="SVGID_17_" gradientUnits="userSpaceOnUse" x1="494.5911" y1="343.0963" x2="500.7542" y2="343.0963" gradientTransform="matrix(1 0 0 -1 0 602)">
					<stop  offset="0" style="stop-color:#EEAE59"/>
					<stop  offset="0.1897" style="stop-color:#EFB15D"/>
					<stop  offset="0.3843" style="stop-color:#F1BB69"/>
					<stop  offset="0.581" style="stop-color:#F4CB7E"/>
					<stop  offset="0.7783" style="stop-color:#F9E19C"/>
					<stop  offset="0.7831" style="stop-color:#F9E29D"/>
				</linearGradient>
				<path class="st34" d="M496.9,253.4c0.8-0.4,1.6-0.8,2.4-1.2c0.4,0,0.8,0,1.2,0.4c0,0.4,0.4,0.4,0.4,0.8c0.4,0.8,0.4,1.6,0.4,2.4
					c0,0.8,0,1.6,0,2l0,0c-0.4,0-0.8,0.4-1.2,0.8c-1.2,1.2-2,2.8-2.8,4c-0.4,0.8-0.8,2-1.2,2.8l0,0c0-0.8-0.4-1.6-0.4-2.4
					c-0.4-1.6-0.4-3.2-0.4-4.9C494.5,256.7,495.3,254.7,496.9,253.4z"/>
				
					<linearGradient id="SVGID_18_" gradientUnits="userSpaceOnUse" x1="491.1434" y1="324.3809" x2="500.2324" y2="324.3809" gradientTransform="matrix(1 0 0 -1 0 602)">
					<stop  offset="0" style="stop-color:#EEAE59"/>
					<stop  offset="0.1897" style="stop-color:#EFB15D"/>
					<stop  offset="0.3843" style="stop-color:#F1BB69"/>
					<stop  offset="0.581" style="stop-color:#F4CB7E"/>
					<stop  offset="0.7783" style="stop-color:#F9E19C"/>
					<stop  offset="0.7831" style="stop-color:#F9E29D"/>
				</linearGradient>
				<path class="st35" d="M495.3,270.8c0.4-0.8,1.2-1.2,2-0.8c0.8,0,1.2,0.4,1.6,0.8c0.8,0.8,1.2,2,1.2,3.2c0,2.8-1.6,5.3-3.6,7.3
					c-1.6,1.6-3.6,2.8-5.7,4c0.8-2,0.8-4,0.4-6.5c0,0,0,0,0-0.4c0.4-1.6,1.2-2.8,1.6-4C494,273.3,494.5,271.6,495.3,270.8z"/>
				
					<linearGradient id="SVGID_19_" gradientUnits="userSpaceOnUse" x1="484.0616" y1="332.9916" x2="493.0807" y2="332.9916" gradientTransform="matrix(1 0 0 -1 0 602)">
					<stop  offset="0" style="stop-color:#EEAE59"/>
					<stop  offset="0.1897" style="stop-color:#EFB15D"/>
					<stop  offset="0.3843" style="stop-color:#F1BB69"/>
					<stop  offset="0.581" style="stop-color:#F4CB7E"/>
					<stop  offset="0.7783" style="stop-color:#F9E19C"/>
					<stop  offset="0.7831" style="stop-color:#F9E29D"/>
				</linearGradient>
				<path class="st36" d="M484.8,276.5c0.4-1.2,0.8-2.4,1.2-4l0,0c0-0.4,0.4-2.4,0.8-4V268c0.4-1.6,0.8-3.2,1.6-4.4
					c0.4-0.8,0.8-1.2,1.6-2c0.4-0.4,0.4-0.4,0.8-0.8c0,0,0.4,0,0.4-0.4c0,0.4,0.4,0.8,0.4,0.8l0,0c0,0,0,0,0,0.4s0,0.4,0.4,0.8
					c0,0.4,0.4,0.8,0.4,1.2c0,0.8,0.4,1.6,0.4,2v0.4c0,1.6,0,2.8-0.8,4.4l0,0c-0.4,1.2-2,5.3-2.8,5.7l0,0h-0.4c-1.2,0-2.8,0.4-4,1.2
					c-0.4,0-0.8,0.4-0.8,0.4C484.3,277.7,484.8,276.9,484.8,276.5z"/>
				
					<linearGradient id="SVGID_20_" gradientUnits="userSpaceOnUse" x1="480.9522" y1="316.2178" x2="490.3851" y2="316.2178" gradientTransform="matrix(1 0 0 -1 0 602)">
					<stop  offset="0" style="stop-color:#EEAE59"/>
					<stop  offset="0.1897" style="stop-color:#EFB15D"/>
					<stop  offset="0.3843" style="stop-color:#F1BB69"/>
					<stop  offset="0.581" style="stop-color:#F4CB7E"/>
					<stop  offset="0.7783" style="stop-color:#F9E19C"/>
					<stop  offset="0.7831" style="stop-color:#F9E29D"/>
				</linearGradient>
				<path class="st37" d="M487.2,278.1c0.4,0,1.2-0.4,1.6-0.4c0.8,0,1.2,0.4,1.2,1.2c0.8,2.8,0,5.7-1.6,8.1c-1.6,2.8-4,4.9-6.9,6.5
					l-0.4,0.4c-0.4-2.8,0-5.7,0-8.1c0.4-2.4,0.8-4.4,2.8-6.1C484.8,278.9,486,278.5,487.2,278.1z"/>
				
					<linearGradient id="SVGID_21_" gradientUnits="userSpaceOnUse" x1="477.6512" y1="328.9724" x2="483.9214" y2="328.9724" gradientTransform="matrix(1 0 0 -1 0 602)">
					<stop  offset="0" style="stop-color:#EEAE59"/>
					<stop  offset="0.1897" style="stop-color:#EFB15D"/>
					<stop  offset="0.3843" style="stop-color:#F1BB69"/>
					<stop  offset="0.581" style="stop-color:#F4CB7E"/>
					<stop  offset="0.7783" style="stop-color:#F9E19C"/>
					<stop  offset="0.7831" style="stop-color:#F9E29D"/>
				</linearGradient>
				<path class="st38" d="M477.9,276.1c0.8-3.2,2-6.1,3.2-8.9c0.4-0.4,1.2-2.8,2.4-2.4c0.4,0,0.4,1.2,0.4,1.6c0,0.8,0,1.6,0,2.4
					c0,2.8-0.4,6.1-2.4,8.5c-1.2,1.6-2.4,3.2-4,4c0-1.2,0-2,0-3.2l0,0C477.5,277.3,477.9,276.5,477.9,276.1z"/>
				
					<linearGradient id="SVGID_22_" gradientUnits="userSpaceOnUse" x1="476.3331" y1="317.2283" x2="477.5667" y2="317.2283" gradientTransform="matrix(1 0 0 -1 0 602)">
					<stop  offset="0" style="stop-color:#EEAE59"/>
					<stop  offset="0.1897" style="stop-color:#EFB15D"/>
					<stop  offset="0.3843" style="stop-color:#F1BB69"/>
					<stop  offset="0.581" style="stop-color:#F4CB7E"/>
					<stop  offset="0.7783" style="stop-color:#F9E19C"/>
					<stop  offset="0.7831" style="stop-color:#F9E29D"/>
				</linearGradient>
				<path class="st39" d="M477.1,284.2h0.4l0,0c-0.4,0.4-0.8,0.8-1.2,1.2C476.7,284.6,476.7,284.6,477.1,284.2z"/>
				
					<linearGradient id="SVGID_23_" gradientUnits="userSpaceOnUse" x1="468.9272" y1="322.7113" x2="475.4197" y2="322.7113" gradientTransform="matrix(1 0 0 -1 0 602)">
					<stop  offset="0" style="stop-color:#EEAE59"/>
					<stop  offset="0.1897" style="stop-color:#EFB15D"/>
					<stop  offset="0.3843" style="stop-color:#F1BB69"/>
					<stop  offset="0.581" style="stop-color:#F4CB7E"/>
					<stop  offset="0.7783" style="stop-color:#F9E19C"/>
					<stop  offset="0.7831" style="stop-color:#F9E29D"/>
				</linearGradient>
				<path class="st40" d="M469.4,282.1c-0.4-1.2-0.4-2.8-0.4-4c0-1.2,0-2.8,0.8-4c0.4-0.8,1.2-2,2.4-2c1.2-0.4,2,1.6,2,2.4
					c0.4,1.2,0.8,2.8,1.2,4c0,1.2,0.4,2.8-0.4,4c-0.8,1.6-2.4,2.8-3.6,4c0-0.4-0.4-0.8-0.4-1.2C470.2,284.2,469.8,283.4,469.4,282.1
					z"/>
				
					<linearGradient id="SVGID_24_" gradientUnits="userSpaceOnUse" x1="465.4953" y1="309.7509" x2="470.6854" y2="309.7509" gradientTransform="matrix(1 0 0 -1 0 602)">
					<stop  offset="0" style="stop-color:#EEAE59"/>
					<stop  offset="0.1897" style="stop-color:#EFB15D"/>
					<stop  offset="0.3843" style="stop-color:#F1BB69"/>
					<stop  offset="0.581" style="stop-color:#F4CB7E"/>
					<stop  offset="0.7783" style="stop-color:#F9E19C"/>
					<stop  offset="0.7831" style="stop-color:#F9E29D"/>
				</linearGradient>
				<path class="st41" d="M470.2,289.8C470.6,290.2,470.6,290.2,470.2,289.8c-1.2,1.6-3.2,3.2-4.9,4.9
					C467.8,292.7,469.4,291,470.2,289.8z"/>
				
					<linearGradient id="SVGID_25_" gradientUnits="userSpaceOnUse" x1="365.7587" y1="241.241" x2="439.9001" y2="241.241" gradientTransform="matrix(1 0 0 -1 0 602)">
					<stop  offset="0" style="stop-color:#EEAE59"/>
					<stop  offset="0.1897" style="stop-color:#EFB15D"/>
					<stop  offset="0.3843" style="stop-color:#F1BB69"/>
					<stop  offset="0.581" style="stop-color:#F4CB7E"/>
					<stop  offset="0.7783" style="stop-color:#F9E19C"/>
					<stop  offset="0.7831" style="stop-color:#F9E29D"/>
				</linearGradient>
				<path class="st42" d="M367.9,399.8c0,0-0.4,0.4,0,0.8l0,0l-2-0.8l7.3-8.9c6.5-8.1,40.4-43.2,66.7-69.9
					C407.1,355.7,368.3,399.4,367.9,399.8z"/>
				
					<linearGradient id="SVGID_26_" gradientUnits="userSpaceOnUse" x1="369.5589" y1="259.6315" x2="480.1851" y2="259.6315" gradientTransform="matrix(1 0 0 -1 0 602)">
					<stop  offset="0" style="stop-color:#EEAE59"/>
					<stop  offset="0.1897" style="stop-color:#EFB15D"/>
					<stop  offset="0.3843" style="stop-color:#F1BB69"/>
					<stop  offset="0.581" style="stop-color:#F4CB7E"/>
					<stop  offset="0.7783" style="stop-color:#F9E19C"/>
					<stop  offset="0.7831" style="stop-color:#F9E29D"/>
				</linearGradient>
				<path class="st43" d="M369.6,400.2c8.1-9.3,88.1-99,110.7-116.4c0,0.8-0.4,1.6-0.4,2.4l0,0C455.7,309.6,385.7,385.6,372,401
					L369.6,400.2z"/>
				
					<linearGradient id="SVGID_27_" gradientUnits="userSpaceOnUse" x1="370.7714" y1="253.9729" x2="479.6334" y2="253.9729" gradientTransform="matrix(1 0 0 -1 0 602)">
					<stop  offset="0" style="stop-color:#EEAE59"/>
					<stop  offset="0.1897" style="stop-color:#EFB15D"/>
					<stop  offset="0.3843" style="stop-color:#F1BB69"/>
					<stop  offset="0.581" style="stop-color:#F4CB7E"/>
					<stop  offset="0.7783" style="stop-color:#F9E19C"/>
					<stop  offset="0.7831" style="stop-color:#F9E29D"/>
				</linearGradient>
				<path class="st44" d="M370.8,404.2c6.5-7.3,82.1-89.7,108.7-115.6c0,0.4,0,0.4,0,0.8c0,0.8,0,1.6,0,2.4
					c-2.8,2.8-5.7,5.3-8.1,8.1c-6.9,7.3-14.1,14.1-21,21.4c-9.3,9.7-18.6,19.4-27.5,29.1c-9.7,10.5-19,20.6-28.3,31.5
					c-7.3,8.1-14.1,16.6-20.6,25.5L370.8,404.2z"/>
				
					<linearGradient id="SVGID_28_" gradientUnits="userSpaceOnUse" x1="370.672" y1="246.8996" x2="479.8856" y2="246.8996" gradientTransform="matrix(1 0 0 -1 0 602)">
					<stop  offset="0" style="stop-color:#EEAE59"/>
					<stop  offset="0.1897" style="stop-color:#EFB15D"/>
					<stop  offset="0.3843" style="stop-color:#F1BB69"/>
					<stop  offset="0.581" style="stop-color:#F4CB7E"/>
					<stop  offset="0.7783" style="stop-color:#F9E19C"/>
					<stop  offset="0.7831" style="stop-color:#F9E29D"/>
				</linearGradient>
				<path class="st45" d="M373.2,414.7c-0.4,0.4-0.8,0.8-1.2,1.2c-0.4-0.4-1.2-1.2-1.6-1.6c6.9-9.7,14.1-18.6,21.8-27.5
					c9.3-10.5,18.6-21,27.9-31.5c9.3-10.1,18.6-19.8,27.9-29.5c7.3-7.7,14.6-15,22.2-22.6c2.4-2.4,4.4-4.9,6.9-6.9
					c0.8-0.8,1.6-1.6,2.4-2c0,0.8,0,1.2,0.4,2c-2.4,2-4.9,4.4-7.3,6.9c-10.1,9.7-19.8,20.2-29.1,30.7
					c-10.9,12.1-21.4,24.3-32.3,36.4c-8.9,10.5-17.8,21-26.7,31.5c-2.8,3.6-5.7,6.9-8.5,10.5C375.2,412.3,374.4,413.5,373.2,414.7z"
					/>
				
					<linearGradient id="SVGID_29_" gradientUnits="userSpaceOnUse" x1="374.863" y1="245.2829" x2="482.5059" y2="245.2829" gradientTransform="matrix(1 0 0 -1 0 602)">
					<stop  offset="0" style="stop-color:#EEAE59"/>
					<stop  offset="0.1897" style="stop-color:#EFB15D"/>
					<stop  offset="0.3843" style="stop-color:#F1BB69"/>
					<stop  offset="0.581" style="stop-color:#F4CB7E"/>
					<stop  offset="0.7783" style="stop-color:#F9E19C"/>
					<stop  offset="0.7831" style="stop-color:#F9E29D"/>
				</linearGradient>
				<path class="st46" d="M475.5,305.2c-2,2-4,3.6-6.1,5.7c-3.2,3.6-6.9,6.9-10.1,10.5c-7.7,8.1-15,16.2-22.2,24.7
					c-7.7,8.5-15.4,17.4-22.6,25.9c-6.5,7.7-13.3,15.4-19.8,23c-4.4,5.3-9.3,10.9-13.7,16.2c-0.4,0.4-4,4.9-4,4.9l-1.6-0.8
					c2.4-3.2,5.3-6.1,7.7-9.3c8.1-9.3,15.8-18.6,23.8-27.9c10.1-11.7,20.2-23.4,30.7-35.2c9.7-10.9,19.4-21.4,29.5-31.9
					c4-4,8.1-8.1,12.1-11.7c0.8-0.4,1.2-1.2,2-1.6c0.8,0.4,1.6,0.8,2,1.2l-2,1.6C478.7,301.5,477.1,303.6,475.5,305.2z"/>
				
					<linearGradient id="SVGID_30_" gradientUnits="userSpaceOnUse" x1="477.477" y1="295.2188" x2="489.5226" y2="295.2188" gradientTransform="matrix(1 0 0 -1 0 602)">
					<stop  offset="0" style="stop-color:#EEAE59"/>
					<stop  offset="0.1897" style="stop-color:#EFB15D"/>
					<stop  offset="0.3843" style="stop-color:#F1BB69"/>
					<stop  offset="0.581" style="stop-color:#F4CB7E"/>
					<stop  offset="0.7783" style="stop-color:#F9E19C"/>
					<stop  offset="0.7831" style="stop-color:#F9E29D"/>
				</linearGradient>
				<path class="st47" d="M489.2,308.4c0,0.4-0.4,0.4-0.4,0.4c-2,0.8-7.7-2-11.3-3.6c0.4,0,0.4-0.4,0.4-0.4c2.4,0,4-0.4,5.7,0
					c0.8,0,2,0.4,2.8,0.4c1.2,0.4,2,0.8,2.4,1.2C489.6,306.4,489.6,307.2,489.2,308.4z"/>
				
					<linearGradient id="SVGID_31_" gradientUnits="userSpaceOnUse" x1="481.3528" y1="301.566" x2="500.3027" y2="301.566" gradientTransform="matrix(1 0 0 -1 0 602)">
					<stop  offset="0" style="stop-color:#EEAE59"/>
					<stop  offset="0.1897" style="stop-color:#EFB15D"/>
					<stop  offset="0.3843" style="stop-color:#F1BB69"/>
					<stop  offset="0.581" style="stop-color:#F4CB7E"/>
					<stop  offset="0.7783" style="stop-color:#F9E19C"/>
					<stop  offset="0.7831" style="stop-color:#F9E29D"/>
				</linearGradient>
				<path class="st48" d="M500.1,299.9c-5.3,4-12.5,2.4-19,1.6c0.8-0.8,2-1.6,2.8-2.4c1.2,0.4,2.8,0.8,4,0.8c1.2,0,2.4,0,3.2-0.4
					c1.2-0.4,2-0.8,2.8-0.8c1.2,0,2.4-0.4,3.2-0.4C498.1,298.3,500.5,299.5,500.1,299.9z"/>
				
					<linearGradient id="SVGID_32_" gradientUnits="userSpaceOnUse" x1="496.26" y1="309.7509" x2="512.2286" y2="309.7509" gradientTransform="matrix(1 0 0 -1 0 602)">
					<stop  offset="0" style="stop-color:#EEAE59"/>
					<stop  offset="0.1897" style="stop-color:#EFB15D"/>
					<stop  offset="0.3843" style="stop-color:#F1BB69"/>
					<stop  offset="0.581" style="stop-color:#F4CB7E"/>
					<stop  offset="0.7783" style="stop-color:#F9E19C"/>
					<stop  offset="0.7831" style="stop-color:#F9E29D"/>
				</linearGradient>
				<path class="st49" d="M512.2,290.2c-4,2.4-8.5,4.4-12.9,6.1l0,0c-0.8-0.4-2-0.4-2.8-0.4c0.4-1.2,0.8-2.4,0.8-3.2
					c3.6-1.2,7.3-2.8,10.5-4.4l0,0C509.4,288.2,510.6,289.4,512.2,290.2z"/>
				
					<linearGradient id="SVGID_33_" gradientUnits="userSpaceOnUse" x1="507.9382" y1="321.6526" x2="530.6006" y2="321.6526" gradientTransform="matrix(1 0 0 -1 0 602)">
					<stop  offset="0" style="stop-color:#EEAE59"/>
					<stop  offset="0.1897" style="stop-color:#EFB15D"/>
					<stop  offset="0.3843" style="stop-color:#F1BB69"/>
					<stop  offset="0.581" style="stop-color:#F4CB7E"/>
					<stop  offset="0.7783" style="stop-color:#F9E19C"/>
					<stop  offset="0.7831" style="stop-color:#F9E29D"/>
				</linearGradient>
				<path class="st50" d="M530,276.9c-0.4,0.4-0.8,0.8-1.2,0.8c-5.3,4.9-12.1,7.3-19,6.9c-0.4,0-0.8,0-1.2-0.4l0,0
					c-0.4-0.4-0.8-0.4-0.8-0.8c2.4-0.8,4.9-2,7.3-3.6c0.4-0.4,1.2-0.8,1.6-1.2s0.8-0.8,1.2-1.2c0.4-0.4,0-0.8,0-0.8
					c2.4-0.4,4.9-0.4,7.3-0.4c1.2,0,2.8,0,4,0c0.4,0,0.4,0,0.8,0h0.4l0,0C530.4,276.1,530,276.5,530,276.9z"/>
				
					<linearGradient id="SVGID_34_" gradientUnits="userSpaceOnUse" x1="525.334" y1="330.3644" x2="544.3309" y2="330.3644" gradientTransform="matrix(1 0 0 -1 0 602)">
					<stop  offset="0" style="stop-color:#EEAE59"/>
					<stop  offset="0.1897" style="stop-color:#EFB15D"/>
					<stop  offset="0.3843" style="stop-color:#F1BB69"/>
					<stop  offset="0.581" style="stop-color:#F4CB7E"/>
					<stop  offset="0.7783" style="stop-color:#F9E19C"/>
					<stop  offset="0.7831" style="stop-color:#F9E29D"/>
				</linearGradient>
				<path class="st51" d="M544.2,270c-0.4,0.4-1.2,0.8-1.6,0.8c-1.2,0.4-2,1.2-3.2,1.6c-2.4,0.8-4.9,1.6-7.3,2
					c-0.8-0.4-2-0.8-2.8-0.8c-1.2,0-2.4,0-4,0c0.4-0.4,1.2-0.4,1.6-0.8c2-1.2,0-2.4-1.6-3.6c1.2,0,2-0.4,3.2-0.4
					c3.2,0.8,6.5,1.2,9.7,1.6C540.1,270,542.1,270,544.2,270C544.2,269.6,544.2,269.6,544.2,270C544.2,269.6,544.2,270,544.2,270z"
					/>
				
					<linearGradient id="SVGID_35_" gradientUnits="userSpaceOnUse" x1="532.4049" y1="336.0735" x2="546.7447" y2="336.0735" gradientTransform="matrix(1 0 0 -1 0 602)">
					<stop  offset="0" style="stop-color:#EEAE59"/>
					<stop  offset="0.1897" style="stop-color:#EFB15D"/>
					<stop  offset="0.3843" style="stop-color:#F1BB69"/>
					<stop  offset="0.581" style="stop-color:#F4CB7E"/>
					<stop  offset="0.7783" style="stop-color:#F9E19C"/>
					<stop  offset="0.7831" style="stop-color:#F9E29D"/>
				</linearGradient>
				<path class="st52" d="M545.8,267.2c-0.8,0.8-1.6,0.8-2.8,1.2c-2,0.4-4.4,0.4-6.5,0c-1.2,0-2.8-0.4-4-0.4c0.8,0,1.2-0.4,2-0.4
					c3.2-0.4,6.5-1.6,8.9-4c0,0,0,0,0.4-0.4c1.2,0.4,2.4,1.2,3.2,2C547,265.6,546.2,266.8,545.8,267.2z"/>
				
					<linearGradient id="SVGID_36_" gradientUnits="userSpaceOnUse" x1="544.3697" y1="340.6712" x2="557.8829" y2="340.6712" gradientTransform="matrix(1 0 0 -1 0 602)">
					<stop  offset="0" style="stop-color:#EEAE59"/>
					<stop  offset="0.1897" style="stop-color:#EFB15D"/>
					<stop  offset="0.3843" style="stop-color:#F1BB69"/>
					<stop  offset="0.581" style="stop-color:#F4CB7E"/>
					<stop  offset="0.7783" style="stop-color:#F9E19C"/>
					<stop  offset="0.7831" style="stop-color:#F9E29D"/>
				</linearGradient>
				<path class="st53" d="M552.3,257.5h0.4l0,0l0,0h0.4h0.8c0.8,0,1.2,0,2,0.4c0,0,0,0,0.4,0l0,0c0,0,0.4,0,0.4,0.4
					c0.4,0,0.4,0.4,0.4,0.8c0.4,0.4,0,1.2-0.4,1.6c-2.4,2.4-5.7,4-9.3,4.4l0,0c0,0,0,0,0-0.4c-0.8-0.8-2-1.6-3.2-2
					c0.4-0.8,0.8-1.2,0.8-2C547.8,259.5,550.6,259.1,552.3,257.5z"/>
				
					<linearGradient id="SVGID_37_" gradientUnits="userSpaceOnUse" x1="545.0992" y1="355.6787" x2="559.8694" y2="355.6787" gradientTransform="matrix(1 0 0 -1 0 602)">
					<stop  offset="0" style="stop-color:#EEAE59"/>
					<stop  offset="0.1897" style="stop-color:#EFB15D"/>
					<stop  offset="0.3843" style="stop-color:#F1BB69"/>
					<stop  offset="0.581" style="stop-color:#F4CB7E"/>
					<stop  offset="0.7783" style="stop-color:#F9E19C"/>
					<stop  offset="0.7831" style="stop-color:#F9E29D"/>
				</linearGradient>
				<path class="st54" d="M549.4,251c-1.2,0-2.8,0-4,0.4c0.4-0.4,0.8-0.4,0.8-0.8c0.8-0.4,1.2-1.2,1.6-1.6l2.4-2.8l0,0l0,0l0,0
					c0.4-0.8,1.2-1.2,2-2c1.2-1.2,3.2-2.4,4.9-2.8c1.2-0.4,3.2,0.4,2.8,1.6c0,0.4-0.8,1.2-1.2,1.6l0,0
					C555.5,248.6,549.4,251,549.4,251z"/>
			</g>
		</g>
		<g>
			
				<linearGradient id="SVGID_38_" gradientUnits="userSpaceOnUse" x1="474.1578" y1="257.45" x2="337.3698" y2="257.45" gradientTransform="matrix(1 0 0 -1 0 602)">
				<stop  offset="0" style="stop-color:#F2D397"/>
				<stop  offset="0.4319" style="stop-color:#F3D195"/>
				<stop  offset="0.7526" style="stop-color:#F5CC8F"/>
				<stop  offset="1" style="stop-color:#F3B699"/>
			</linearGradient>
			<path class="st55" d="M368.8,323c0,0,16.2-0.8,24.3,1.2c8.1,2,12.9,4,12.9,4l2.4,1.2c0,0,16.6-8.9,27.9-9.3
				c11.3-0.4,31.1,3.2,34.4,18.6c0,0,1.2,10.9-7.7,15.8l-1.2,1.2c0,0,0,9.7-18.2,7.7c0,0-1.6,14.1-28.7,4.4c0,0-62.6,21-69.5-10.9
				c-6.9-31.9,7.7-42.4,7.7-42.4S364.3,318.9,368.8,323z"/>
			<g class="st67">
				<path class="st68" d="M346.5,358.1c1.2,2.8,2.4,4.9,3.6,6.5c2.4,2.8,5.7,4.9,8.9,6.5c11.7,5.3,25.9,2.8,39.6,0
					c2.8-0.4,5.7-1.2,8.1-2c2-0.4,4-2,6.1-2C413.2,367,361.5,373.1,346.5,358.1z"/>
				<path class="st68" d="M462.9,353.7c2-2,4.9-6.1,5.7-10.5c-1.2,0.4-2.4,0.8-4,0.8s-4-1.2-6.5-2.4
					C460.9,344.4,462.9,348.4,462.9,353.7z"/>
				<path class="st68" d="M443.1,356.5c0.8,2,1.2,4.4,1.2,7.3c3.6,0.4,10.1,0,13.7-2.8c0.4-0.4,0.8-0.8,1.2-1.6
					C456.1,359.7,448.4,360.2,443.1,356.5z"/>
			</g>
			<path class="st17" d="M470.6,335.5c0,0-3.2-12.9-23.4-16.2c-17.4-2.8-34,5.7-38.4,8.5c-16.6-8.1-44.1-5.3-44.1-5.3
				c-0.4,0-0.8,0.4-0.8,1.2c0,0.4,0.4,0.8,1.2,0.8c0.4,0,25.1-0.8,41.2,5.7c-2,1.2-3.2,2-3.6,2c-0.4,0.4-0.4,0.8-0.4,1.2
				c0.4,0.4,0.8,0.4,1.2,0.4s30.3-19.8,52.9-8.5c8.5,4,12.5,9.7,12.1,16.6c-0.4,5.3-3.6,9.7-5.7,12.1c0.4-12.9-13.7-18.6-13.7-18.6
				c-0.4-0.4-1.2,0-1.2,0.4c-0.4,0.4,0,1.2,0.4,1.2c0,0,11.3,6.1,11.7,17.8c0,2.4-0.8,4.4-2.4,5.7c-3.2,3.2-9.7,3.2-13.7,2.8
				c-1.2-15.8-12.1-17.8-12.1-17.8s0.4,0,0.4,0.4h-0.4c-0.4,0-1.2,0-1.2,0.4c-0.4,0.8,0.4,1.2,1.2,1.6c4.9,2.4,8.5,7.7,8.5,13.3
				c0,2.4-0.4,4.9-2,6.5c-1.2,1.2-2.8,1.6-4.4,2c-5.3,1.2-10.5,0.4-15.4-1.6c-2-0.8-3.6-1.6-5.7-1.2s-4,1.6-6.1,2
				c-2.8,0.8-5.7,1.2-8.1,2c-13.7,2.8-28.3,5.3-39.6,0c-3.2-1.6-6.5-3.6-8.9-6.5c-3.2-4-7.7-12.9-5.7-29.5c0-0.4,0-0.8,0-1.2
				c1.6-9.7,10.5-19.4,10.5-19.4v-2.4l-2-1.6c0,0-4.4,4.9-8.1,11.7l0,0l0,0c-1.2,2-2,4.4-2.8,6.5c-0.8,2.4-1.6,5.3-2,8.1v0.4
				c0,0.4,0,0.4,0,0.8c0,0.4,0,0.4,0,0.8l0,0l0,0c-0.4,2.4-0.4,4.4,0,6.9c1.2,12.1,8.5,22.6,18.6,27.1c5.3,2.4,10.9,3.2,17,3.2
				c7.7,0,16.2-1.6,23.8-3.2c2.4-0.4,4.9-0.8,7.3-1.6c0.4,0,1.2-0.4,1.6-0.4l0,0l6.9-2c2.8,1.2,13.3,5.7,21.4,3.6l0,0
				c5.3-1.2,6.9-4.4,7.7-6.9c0.8,0,1.6,0,2.4,0l0,0h0.4l0,0l0,0c12.1,0,14.6-5.3,14.6-5.3l0,0c0.8-1.2,1.2-2.4,1.2-3.2l0,0
				C475.1,349.6,470.6,335.5,470.6,335.5z"/>
		</g>
	</g>
	<g>
		<g>
			
				<linearGradient id="SVGID_39_" gradientUnits="userSpaceOnUse" x1="3518.6428" y1="1471.1609" x2="3603.2478" y2="1471.1609" gradientTransform="matrix(-1 0 0 1 4121.6143 -1091.3303)">
				<stop  offset="0" style="stop-color:#EDCF95"/>
				<stop  offset="0.5331" style="stop-color:#EECC91"/>
				<stop  offset="0.7526" style="stop-color:#EFC88D"/>
				<stop  offset="1" style="stop-color:#EDB397"/>
			</linearGradient>
			<path class="st56" d="M518.3,356.1l7.9-18.4c0-0.4,0-1.1,0.4-1.4c0-0.4,0-0.4,0-0.4c0-0.4,0.4-0.7,0.4-1.1s0-0.4,0.4-0.7
				s0.4-0.7,0.4-1.1s0-0.4,0.4-0.4c0.4-0.7,0.4-1.1,0.7-1.8c0-0.4,0.4-0.4,0.4-0.4c0.4-0.4,0.4-0.7,0.7-1.1c0-0.4,0.4-0.4,0.4-0.7
				c0.4-0.4,0.4-0.7,0.7-1.1c0-0.4,0.4-0.4,0.4-0.7c2.9-5.8,7.2-10.8,10.1-14.4c0.4-0.4,0.4-0.4,0.4-0.4
				c15.9,19.8,33.5,46.8,47.6,81.1c0,0,13,12.3,13,29.5c0,17.3-13.3,23.1-20.5,21.3l0,0c-7.9,7.2-19.5,2.5-21.6-8.6V435
				c-0.4,0.4-1.1,0.7-1.8,0.7c-4.7,2.5-11.2-0.7-13.3-5l0,0l0,0c0-0.4-0.4-0.4-0.4-0.7l0.4-0.4l-1.8-14.1h0.4V412l0.7-2.5
				c-0.4-0.7-0.7-1.4-0.7-2.2l-0.7-1.1l-0.7-2.5V403c-2.5-6.5-6.5-15.5-11.9-25.9c-3.2-6.8-7.2-14.1-11.2-20.9L518.3,356.1z"/>
		</g>
		<path class="st21" d="M568.4,415.9c0,0,2.5,19.1-8.3,25.2l-1.8-5.4C558.3,435.8,569.8,430,568.4,415.9z"/>
		<path class="st21" d="M587.1,422.1c0,0,5,12.6,1.1,21.6c0,0-3.2,1.1-8.3,0.7C580.3,444.8,588.6,440.1,587.1,422.1z"/>
		<path class="st22" d="M569.1,422.1c0,0,0.4,11.5-9.4,15.5l-0.4-1.8C559,435.8,569.1,426.8,569.1,422.1z"/>
		<path class="st22" d="M587.8,428.6c0,0,0.7,10.5-5,16.2l-3.6-0.4C579.6,444.8,587.1,437.2,587.8,428.6z"/>
		<path class="st23" d="M518.3,356.1l7.9-18.4c0-0.4,0-1.1,0.4-1.4c0-0.4,0-0.4,0-0.4c0-0.4,0.4-0.7,0.4-1.1s0-0.4,0.4-0.7
			s0.4-0.7,0.4-1.1s0-0.4,0.4-0.4c0.4-0.7,0.4-1.1,0.7-1.8c0-0.4,0.4-0.4,0.4-0.4c0.4-0.4,0.4-0.7,0.7-1.1c0-0.4,0.4-0.4,0.4-0.7
			c0.4-0.4,0.4-0.7,0.7-1.1c0-0.4,0.4-0.4,0.4-0.7c0,0,0-0.4,0.4-0.4c10.8,21.3,22.3,49.4,23.1,73.2c0,0-13.3,16.9-8.6,33.2
			c-0.4-0.4-0.7-1.1-0.7-1.8l0,0l0,0c0-0.4-0.4-0.4-0.4-0.7l0.4-0.4l-1.8-14.1h0.4v-3.6l0.7-3.2l-1.8-2.5l-1.1-2.5l-19.8-43.2
			c0,0-1.1-1.1-2.9-4L518.3,356.1z"/>
		<g>
			<path class="st22" d="M542.1,412l-0.7-1.1l0,0c-0.4-0.4-13-28.8-24.9-51.9l1.1-2.9l0,0c10.8,20.5,22.7,46.8,25.2,52.3
				c0.4-1.1,0.7-1.8,0.7-1.8l0,0c1.1-1.8,2.2-3.6,2.5-3.6c0.4-0.4,0.7-0.4,0.7,0s0.4,0.7,0,0.7c-0.4,0.4-0.7,0.7-0.7,1.1
				c0,0-6.8,10.5-3.2,25.6l0,0c0.7,2.2,2.9,4,5.4,5s5,1.1,7.2,0c8.6-4,13-13.3,11.2-22.3c0-0.4,0.4-0.7,0.4-0.7
				c0.4,0,0.7,0.4,0.7,0.4c1.8,8.6-2.2,17.7-9.7,22.3c1.1,5.4,4.7,9.4,9,10.8c4.3,1.1,9,0,12.3-3.6c9-9,5.4-22.3,5.4-22.3
				c0-0.4,0.4-0.7,0.4-0.7c0.4,0,0.7,0.4,0.7,0.4c0,0.4,3.6,14.4-5.8,23.8l0,0c2.9,0.4,7.2-0.7,11.2-3.6c3.2-2.5,7.2-7.9,7.2-17.3
				c0-16.9-12.6-28.8-12.6-29.2l-0.4-0.4c-14.1-34.2-32.1-61.3-47.6-80.7l0.4-0.4c1.1-1.1,2.2-2.2,2.5-3.2l0,0
				c5,6.5,10.5,13.7,15.9,22l0,0c0,0,25.6,38.2,31.4,59.8c7.2,9,20.2,29.9,7.6,45.8c-1.1,1.8-2.5,3.2-4,4.3
				c-0.4,0.4-1.1,0.7-1.8,1.1c-0.4,0-0.4,0.4-0.4,0.4l0,0c-2.9,1.8-6.1,2.5-9,2.5c-0.7,0-1.8,0-2.2-0.4c-2.5,2.2-5.8,3.2-9,3.2
				c-1.1,0-2.5-0.4-3.6-0.7c-5-1.4-8.6-5.8-10.1-11.5c-0.4,0.4-0.7,0.4-0.7,0.4c-1.1,0.7-2.5,0.7-4,0.7c-1.4,0-2.5-0.4-4-0.7
				c-2.5-1.1-4.7-3.2-5.8-5.4l0,0c0,0,0,0,0-0.4c0-0.4-0.4-0.4-0.4-0.4l0,0c0,0-1.1-2.5-1.4-7.2c-0.4-1.8-0.4-3.6,0-5.8
				C541.4,415.9,541.7,413.8,542.1,412z"/>
		</g>
	</g>
</g>
</svg>
