<?xml version="1.0" encoding="utf-8"?>
<!-- Generator: Adobe Illustrator 21.0.0, SVG Export Plug-In . SVG Version: 6.00 Build 0)  -->
<svg version="1.1" id="圖層_1" xmlns="http://www.w3.org/2000/svg" xmlns:xlink="http://www.w3.org/1999/xlink" x="0px" y="0px"
	 viewBox="0 0 822.9 601.4" style="enable-background:new 0 0 822.9 601.4;" xml:space="preserve">
<style type="text/css">
	.st0{fill:url(#SVGID_1_);}
	.st1{fill:#D59543;}
	.st2{fill:#AB6C21;}
	.st3{opacity:0.6;fill:#D59543;enable-background:new    ;}
	.st4{fill:url(#SVGID_2_);}
	.st5{fill:url(#SVGID_3_);}
	.st6{fill:url(#SVGID_4_);}
	.st7{fill:#E1BE3F;}
	.st8{opacity:0.6;fill:#E1BE3F;enable-background:new    ;}
	.st9{fill:url(#SVGID_5_);}
	.st10{fill:#9E9E9F;}
	.st11{fill:#5693AE;}
	.st12{fill:url(#SVGID_6_);}
	.st13{fill:url(#SVGID_7_);}
	.st14{fill:url(#SVGID_8_);}
	.st15{fill:url(#SVGID_9_);}
	.st16{fill:url(#SVGID_10_);}
	.st17{fill:url(#SVGID_11_);}
	.st18{fill:url(#SVGID_12_);}
	.st19{fill:url(#SVGID_13_);}
	.st20{fill:url(#SVGID_14_);}
	.st21{fill:url(#SVGID_15_);}
	.st22{fill:url(#SVGID_16_);}
	.st23{fill:url(#SVGID_17_);}
	.st24{fill:url(#SVGID_18_);}
	.st25{fill:url(#SVGID_19_);}
	.st26{fill:url(#SVGID_20_);}
	.st27{fill:#0D2B47;}
	.st28{opacity:0.53;fill:#21477A;enable-background:new    ;}
	.st29{opacity:0.8;fill:#21477A;enable-background:new    ;}
	.st30{opacity:0.3;fill:#21477A;enable-background:new    ;}
	.st31{fill:url(#SVGID_21_);}
	.st32{fill:#4F2C14;}
	.st33{fill:url(#SVGID_22_);}
	.st34{fill:url(#SVGID_23_);}
	.st35{fill:url(#SVGID_24_);}
	.st36{opacity:0.6;}
	.st37{fill:#A53725;}
	.st38{fill:#DD563A;}
	.st39{fill:url(#SVGID_25_);}
	.st40{fill:url(#SVGID_26_);}
	.st41{fill:#AC6D21;}
	.st42{fill:#B5B5B6;}
	.st43{fill:#8AB350;}
	.st44{fill:url(#SVGID_27_);}
	.st45{fill:#F7F8F8;}
	.st46{fill:url(#SVGID_28_);}
	.st47{fill:url(#SVGID_29_);}
	.st48{opacity:0.51;fill:#C9CACA;enable-background:new    ;}
	.st49{fill:url(#SVGID_30_);}
	.st50{fill:url(#SVGID_31_);}
	.st51{fill:url(#SVGID_32_);}
	.st52{opacity:0.6;fill:#E2BF40;enable-background:new    ;}
	.st53{fill:url(#SVGID_33_);}
	.st54{fill:url(#SVGID_34_);}
	.st55{fill:url(#SVGID_35_);}
	.st56{fill:#E2BF40;}
	.st57{fill:url(#SVGID_36_);}
	.st58{fill:url(#SVGID_37_);}
	.st59{fill:#FFFFFF;}
	.st60{fill:#824323;}
	.st61{fill:#F4E3A5;}
	.st62{fill:#C88E2C;}
	.st63{fill:#AD7327;}
	.st64{fill:url(#SVGID_38_);}
	.st65{fill:url(#SVGID_39_);}
	.st66{fill:#EBA794;}
	.st67{fill:#40210F;}
	.st68{opacity:0.25;fill:#E2BF40;enable-background:new    ;}
	.st69{opacity:0.5;fill:#E2BF40;enable-background:new    ;}
	.st70{fill:#F9E6AA;}
	.st71{fill:#DEBD91;}
	.st72{fill:#D8C7A7;}
	.st73{fill:url(#SVGID_40_);}
	.st74{fill:#4B1F0E;}
	.st75{opacity:0.4;fill:#E2BF40;enable-background:new    ;}
	.st76{opacity:0.72;fill:#E2BF40;enable-background:new    ;}
	.st77{fill:#895424;}
	.st78{fill:#3F210E;}
	.st79{fill:#391E13;}
	.st80{fill:url(#SVGID_41_);}
	.st81{fill:#DCC094;}
	.st82{fill:#DABB74;}
	.st83{fill:#8C5924;}
	.st84{fill:url(#SVGID_42_);}
	.st85{fill:url(#SVGID_43_);}
	.st86{fill:url(#SVGID_44_);}
	.st87{fill:url(#SVGID_45_);}
	.st88{fill:url(#SVGID_46_);}
	.st89{fill:#647D3D;}
	.st90{fill:#303A22;}
	.st91{opacity:0.8;fill:url(#SVGID_47_);enable-background:new    ;}
	.st92{opacity:0.5;fill:url(#SVGID_48_);enable-background:new    ;}
	.st93{opacity:0.8;fill:url(#SVGID_49_);enable-background:new    ;}
	.st94{opacity:0.8;fill:url(#SVGID_50_);enable-background:new    ;}
	.st95{opacity:0.5;fill:url(#SVGID_51_);enable-background:new    ;}
	.st96{opacity:0.5;fill:url(#SVGID_52_);enable-background:new    ;}
	.st97{opacity:0.5;fill:url(#SVGID_53_);enable-background:new    ;}
	.st98{fill:#FBF9D1;}
	.st99{fill:url(#SVGID_54_);}
	.st100{fill:url(#SVGID_55_);}
	.st101{fill:url(#SVGID_56_);}
	.st102{fill:url(#SVGID_57_);}
	.st103{fill:url(#SVGID_58_);}
	.st104{fill:#933223;}
	.st105{fill:url(#SVGID_59_);}
	.st106{fill:url(#SVGID_60_);}
	.st107{fill:url(#SVGID_61_);}
	.st108{fill:url(#SVGID_62_);}
	.st109{fill:url(#SVGID_63_);}
	.st110{fill:url(#SVGID_64_);}
	.st111{fill:url(#SVGID_65_);}
	.st112{fill:url(#SVGID_66_);}
	.st113{fill:url(#SVGID_67_);}
	.st114{fill:url(#SVGID_68_);}
	.st115{fill:url(#SVGID_69_);}
	.st116{fill:url(#SVGID_70_);}
	.st117{fill:url(#SVGID_71_);}
	.st118{fill:url(#SVGID_72_);}
	.st119{fill:url(#SVGID_73_);}
	.st120{fill:url(#SVGID_74_);}
	.st121{fill:url(#SVGID_75_);}
	.st122{fill:url(#SVGID_76_);}
	.st123{fill:url(#SVGID_77_);}
	.st124{fill:url(#SVGID_78_);}
	.st125{fill:url(#SVGID_79_);}
	.st126{fill:url(#SVGID_80_);}
	.st127{fill:#F39F65;}
	.st128{fill:url(#SVGID_81_);}
	.st129{fill:url(#SVGID_82_);}
	.st130{fill:url(#SVGID_83_);}
	.st131{fill:url(#SVGID_84_);}
	.st132{fill:url(#SVGID_85_);}
	.st133{opacity:0.6;fill:url(#SVGID_86_);enable-background:new    ;}
	.st134{opacity:0.6;fill:url(#SVGID_87_);enable-background:new    ;}
	.st135{opacity:0.6;fill:url(#SVGID_88_);enable-background:new    ;}
	.st136{opacity:0.6;fill:url(#SVGID_89_);enable-background:new    ;}
	.st137{opacity:0.6;fill:url(#SVGID_90_);enable-background:new    ;}
	.st138{opacity:0.6;fill:url(#SVGID_91_);enable-background:new    ;}
	.st139{opacity:0.6;fill:url(#SVGID_92_);enable-background:new    ;}
	.st140{opacity:0.6;fill:url(#SVGID_93_);enable-background:new    ;}
	.st141{fill:#F9C9A7;}
	.st142{fill:url(#SVGID_94_);}
	.st143{fill:url(#SVGID_95_);}
	.st144{fill:#D6988B;}
	.st145{fill:url(#SVGID_96_);}
	.st146{opacity:0.5;fill:#D6988B;enable-background:new    ;}
	.st147{opacity:0.4;fill:#F3B699;enable-background:new    ;}
	.st148{fill:url(#SVGID_97_);}
	.st149{fill:url(#SVGID_98_);}
	.st150{fill:url(#SVGID_99_);}
	.st151{fill:url(#SVGID_100_);}
	.st152{fill:url(#SVGID_101_);}
	.st153{fill:#236086;}
	.st154{fill:url(#SVGID_102_);}
	.st155{fill:url(#SVGID_103_);}
	.st156{fill:url(#SVGID_104_);}
	.st157{fill:url(#SVGID_105_);}
	.st158{fill:url(#SVGID_106_);}
	.st159{fill:url(#SVGID_107_);}
	.st160{fill:url(#SVGID_108_);}
	.st161{fill:url(#SVGID_109_);}
	.st162{fill:url(#SVGID_110_);}
	.st163{fill:url(#SVGID_111_);}
	.st164{opacity:0.6;fill:url(#SVGID_112_);enable-background:new    ;}
	.st165{fill:url(#SVGID_113_);}
	.st166{fill:url(#SVGID_114_);}
	.st167{fill:url(#SVGID_115_);}
	.st168{fill:url(#SVGID_116_);}
	.st169{opacity:0.6;fill:#8EC0DA;enable-background:new    ;}
	
		.st170{opacity:0.6;fill:none;stroke:#8EC0DA;stroke-width:1.1827;stroke-linecap:round;stroke-miterlimit:10;enable-background:new    ;}
	.st171{fill:#95D2E9;}
	.st172{fill:#FFF9F0;}
	.st173{fill:#C5BAAE;}
	.st174{fill:none;stroke:#95D2E9;stroke-width:0.5916;stroke-miterlimit:10;}
	.st175{fill:none;stroke:#95D2E9;stroke-width:0.5294;stroke-miterlimit:10;}
	.st176{fill:url(#SVGID_117_);}
	.st177{fill:url(#SVGID_118_);}
	.st178{fill:url(#SVGID_119_);}
	.st179{fill:#FCF1CD;}
	.st180{fill:url(#SVGID_120_);}
	.st181{fill:#AC6E21;}
	.st182{fill:url(#SVGID_121_);}
	.st183{fill:url(#SVGID_122_);}
	.st184{opacity:0.3;fill:url(#SVGID_123_);enable-background:new    ;}
	.st185{fill:#E9D288;}
	.st186{opacity:0.6;fill:#AC6E21;enable-background:new    ;}
	.st187{fill:url(#SVGID_124_);}
	.st188{fill:url(#SVGID_125_);}
	.st189{fill:url(#SVGID_126_);}
	.st190{fill:url(#SVGID_127_);}
	.st191{fill:url(#SVGID_128_);}
	.st192{fill:url(#SVGID_129_);}
	.st193{fill:#D69644;}
</style>
<g>
	<g>
		
			<linearGradient id="SVGID_1_" gradientUnits="userSpaceOnUse" x1="291.4138" y1="219.9902" x2="376.4538" y2="219.9902" gradientTransform="matrix(1 0 0 -1 0 602)">
			<stop  offset="0" style="stop-color:#F2D397"/>
			<stop  offset="0.5331" style="stop-color:#F3D093"/>
			<stop  offset="0.7526" style="stop-color:#F5CC8F"/>
			<stop  offset="1" style="stop-color:#F3B699"/>
		</linearGradient>
		<path class="st0" d="M376.6,358l-8.1-18.3c0-0.4,0-1-0.2-1.5c0-0.2,0-0.4,0-0.4c0-0.4-0.2-0.8-0.2-1s0-0.4-0.2-0.6
			c-0.2-0.4-0.2-0.8-0.4-1.2c0-0.2,0-0.2-0.2-0.4c-0.2-0.6-0.4-1-0.6-1.7c0-0.2-0.2-0.2-0.2-0.4c-0.2-0.4-0.4-0.8-0.6-1.2
			c0-0.2-0.2-0.4-0.2-0.6c-0.2-0.4-0.4-0.8-0.6-1c0-0.2-0.2-0.4-0.2-0.6c-2.9-5.6-7.1-11-10-14.6c-0.2-0.2-0.2-0.2-0.4-0.4
			c-15.8,20-33.7,47.3-47.9,81.6c0,0-12.9,12.3-12.9,29.8c0,17.5,13.3,23.1,20.6,21.4l0,0c8.1,7.1,19.6,2.7,21.9-8.7v-0.2
			c0.4,0.2,1,0.6,1.7,0.8c4.8,2.5,11.2-0.6,13.3-5l0,0l0,0c0-0.2,0.2-0.4,0.2-0.6l-0.2-0.2l1.7-14.2h-0.4v-3.5l-0.6-2.5
			c0.2-0.6,0.6-1.5,0.8-2.3l0.6-1l0.8-2.5v-0.6c2.7-6.5,6.7-15.4,11.9-26c3.3-6.9,7.3-14.2,11.2-21L376.6,358z"/>
	</g>
	<path class="st1" d="M326,418.2c0,0-2.5,19.2,8.3,25.4l1.9-5.4C336.4,438.2,324.8,432.4,326,418.2z"/>
	<path class="st1" d="M307.5,424.2c0,0-5,12.7-1.2,21.9c0,0,3.3,1.2,8.3,0.8C314.6,446.9,305.8,442.6,307.5,424.2z"/>
	<path class="st2" d="M325.8,424.2c0,0-0.2,11.5,9.6,15.6l0.4-1.7C335.8,438.2,325.6,429,325.8,424.2z"/>
	<path class="st2" d="M306.6,430.9c0,0-0.6,10.6,5,16.2l3.5-0.2C315.2,446.9,307.5,439.6,306.6,430.9z"/>
	<path class="st3" d="M376.6,358l-8.1-18.3c0-0.4,0-1-0.2-1.5c0-0.2,0-0.4,0-0.4c0-0.4-0.2-0.8-0.2-1s0-0.4-0.2-0.6
		c-0.2-0.4-0.2-0.8-0.4-1.2c0-0.2,0-0.2-0.2-0.4c-0.2-0.6-0.4-1-0.6-1.7c0-0.2-0.2-0.2-0.2-0.4c-0.2-0.4-0.4-0.8-0.6-1.2
		c0-0.2-0.2-0.4-0.2-0.6c-0.2-0.4-0.4-0.8-0.6-1c0-0.2-0.2-0.4-0.2-0.6c0,0,0-0.2-0.2-0.2c-10.8,21.2-22.5,49.6-23.1,73.5
		c0,0,13.3,16.9,8.5,33.3c0.4-0.4,0.6-1,0.8-1.7l0,0l0,0c0-0.2,0.2-0.4,0.2-0.6l-0.2-0.2l1.7-14.2H352v-3.5l-0.8-3.1l1.9-2.7l1-2.5
		l20-43.5c0,0,1-1.2,2.9-4.2L376.6,358z"/>
	<g>
		<path class="st2" d="M352.4,414.2l0.6-1.2l0,0c0.2-0.4,13.1-28.9,25-52.1l-1.2-2.9l0,0c-10.8,20.8-22.7,47.1-25.4,52.7
			c-0.4-1.2-0.8-1.7-0.8-1.7l0,0c-1-1.9-2.3-3.5-2.5-3.5c-0.2-0.2-0.6-0.2-0.8,0c-0.2,0.2-0.2,0.6,0,0.8c0.2,0.2,0.6,0.6,0.8,1
			c0,0,6.9,10.6,3.1,25.8l0,0c-0.8,2.3-2.9,4.2-5.4,5.2c-2.5,1-5.2,1-7.3,0c-8.5-4.2-13.1-13.3-11.2-22.3c0-0.4-0.2-0.6-0.4-0.8
			c-0.4,0-0.6,0.2-0.8,0.4c-1.9,8.7,2.1,17.7,9.8,22.5c-1.2,5.4-4.6,9.4-9.2,10.8c-4.4,1.2-9,0-12.5-3.5c-9-9-5.4-22.5-5.4-22.5
			c0-0.4-0.2-0.6-0.4-0.8c-0.4,0-0.6,0.2-0.8,0.4c0,0.2-3.5,14.4,5.8,23.7l0,0c-2.9,0.2-7.3-0.6-11.2-3.7c-3.3-2.7-7.3-7.9-7.3-17.3
			c0-16.9,12.7-29.1,12.7-29.4l0.2-0.2c14-34.4,32.1-61.4,47.7-81.2l-0.2-0.2c-1-1.2-2.1-2.3-2.7-3.1l0,0
			c-5.2,6.5-10.6,13.7-16,22.1l0,0c0,0-25.8,38.5-31.6,60.2c-7.1,9.2-20.2,30.2-7.7,46c1.2,1.9,2.7,3.3,4,4.4c0.4,0.4,1,0.8,1.7,1
			c0.2,0,0.2,0.2,0.2,0.2l0,0c2.9,1.9,6,2.7,9.2,2.7c0.8,0,1.7,0,2.3-0.2c2.7,2.3,5.8,3.3,9,3.3c1.2,0,2.5-0.2,3.7-0.6
			c5-1.5,8.5-5.6,10-11.5c0.2,0.2,0.6,0.4,0.8,0.4c1.2,0.6,2.7,0.8,4.2,0.8c1.5,0,2.7-0.2,4.2-0.8c2.7-1,4.8-3.1,5.8-5.4l0,0
			c0,0,0,0,0-0.2s0.2-0.2,0.2-0.4l0,0c0,0,1-2.7,1.5-7.1c0.2-1.7,0.2-3.7,0-5.8S352.9,415.9,352.4,414.2z"/>
	</g>
</g>
<g>
	<g>
		
			<linearGradient id="SVGID_2_" gradientUnits="userSpaceOnUse" x1="266.2813" y1="504.6838" x2="328.6217" y2="504.6838" gradientTransform="matrix(1 0 0 -1 0 602)">
			<stop  offset="0" style="stop-color:#8F5E29"/>
			<stop  offset="0.2337" style="stop-color:#8A5A27"/>
			<stop  offset="0.5069" style="stop-color:#7C5023"/>
			<stop  offset="0.7987" style="stop-color:#653F1C"/>
			<stop  offset="1" style="stop-color:#503015"/>
		</linearGradient>
		<path class="st4" d="M326.2,105.1c0.7,0.4,1.9,0.7,2.2,1.1c-1.1-3-1.9-6-2.2-8.2c-11.2-4.8-22.7-8.2-34.2-9.3
			c-8.2-0.7-16,0-24.2,1.9c-0.7,0-1.1,0.4-1.9,0.4c0.4,0,0.7,0,1.1,0c8.2-0.7,16-0.4,24.2,1.5l3,0.7c0.7,0,0.7,0.4,1.5,0.4l1.5,0.4
			l6,1.5c2.2,0.7,3.7,1.5,5.6,1.9l3,1.1c0.7,0.4,1.9,0.7,3,1.1l5.6,2.6c0.7,0.4,1.9,0.7,2.6,1.5L326.2,105.1z"/>
		<path class="st32" d="M325.5,107.3c1.9,0.7,3.3,1.9,5.2,2.6c-0.7-1.1-1.1-2.6-1.9-3.7c-0.7-0.4-1.9-0.7-2.2-1.1l-3.3-1.5
			c-0.7-0.4-1.9-1.1-2.6-1.5l-5.6-2.6c-0.7-0.4-1.9-0.7-3-1.1l-3-1.1c-1.9-0.7-3.7-1.5-5.6-1.9l-6-1.5l-1.5-0.4
			c-0.7,0-0.7-0.4-1.5-0.4l-3-0.7c-8.2-1.5-16-2.2-24.2-1.5c-0.4,0-0.7,0-1.1,0c0.7,0,1.1-0.4,1.9-0.4c8.2-1.9,16-2.6,24.2-1.9
			c11.5,0.7,23.1,4.1,34.2,9.3c-0.4-1.1-0.4-1.9-0.4-2.6c-11.2-4.8-22.3-7.8-33.9-8.9c-8.2-0.7-16.4,0-24.6,1.9
			c-7.1,1.9-14.1,4.5-20.8,8.2c-0.7,0.4-1.5,0.7-2.2,1.5l0,0l0,0c-0.4,0.4-0.7,0.7-0.4,1.1c0,0.4,0.4,0.4,0.4,0.4c0.4,0,0.7,0,0.7,0
			l0,0l0,0l0,0c0.7-0.7,2.2-1.1,3-1.9c0.7-0.4,1.5-0.7,2.2-1.1c0.4-0.4,1.1-0.7,2.2-1.1l3-0.7c2.2-0.4,3.7-1.1,6-1.5
			c0.7,0,2.2-0.4,3-0.4l3-0.4c7.8-0.7,15.6,0,23.4,1.5l3,0.7c0.7,0,0.7,0.4,1.5,0.4l1.5,0.4l5.6,1.5c1.9,0.7,3.7,1.5,5.6,1.9l3,1.1
			c0.7,0.4,1.9,0.7,2.6,1.1l5.6,2.6c0.7,0.4,1.9,0.7,2.6,1.5L325.5,107.3z"/>
		<path class="st10" d="M244.4,144.5c-0.4,0-0.4-0.4-0.4-0.4v-45c0-0.4,0.4-0.4,0.4-0.4c0.4,0,0.4,0.4,0.4,0.4L244.4,144.5
			C245.1,144.5,244.8,144.5,244.4,144.5z"/>
		<g>
			<g>
				
					<linearGradient id="SVGID_3_" gradientUnits="userSpaceOnUse" x1="528.0037" y1="269.4564" x2="587.1076" y2="269.4564" gradientTransform="matrix(1 0 0 -1 0 602)">
					<stop  offset="0" style="stop-color:#F2D397"/>
					<stop  offset="0.5331" style="stop-color:#F3D093"/>
					<stop  offset="0.7526" style="stop-color:#F5CC8F"/>
					<stop  offset="1" style="stop-color:#F3B699"/>
				</linearGradient>
				<path class="st5" d="M581.8,306.7c-3.3-6.7-33.5-5.2-42.4,0c-6.7,4.1-10,16.4-11.2,21.6c4.1,9.7,8.2,20.8,11.5,33.5l4.5,1.1
					l15.3-3l8.9-5.2l11.5-9.7l4.1-10.8l3-7.8C587.4,326.4,584.8,313.8,581.8,306.7z"/>
				<path class="st2" d="M537.9,362.5l0.7,2.2c4.1,0.7,21.2,0.7,37.6-13c16-14.1,11.9-34.6,11.9-34.6l-0.7-1.1l-1.9,1.9
					c0.4,3.3,0.4,10.4-3.7,20.5c-5.6,13.4-24.6,25.7-42.8,21.9c-0.4,0-1.1,0.4-1.1,0.7s0.4,1.1,0.7,1.1L537.9,362.5z M540.5,363.2
					L540.5,363.2L540.5,363.2L540.5,363.2z"/>
			</g>
			
				<linearGradient id="SVGID_4_" gradientUnits="userSpaceOnUse" x1="515.6864" y1="281.5381" x2="600.5052" y2="281.5381" gradientTransform="matrix(1 0 0 -1 0 602)">
				<stop  offset="0" style="stop-color:#8F5E29"/>
				<stop  offset="0.2337" style="stop-color:#8A5A27"/>
				<stop  offset="0.5069" style="stop-color:#7C5023"/>
				<stop  offset="0.7987" style="stop-color:#653F1C"/>
				<stop  offset="1" style="stop-color:#503015"/>
			</linearGradient>
			<path class="st6" d="M600.8,371.1L600.8,371.1l-0.7-1.1l-1.1-1.5l-1.9-3.7l-4.5-6.7c-3-4.8-6-9.3-9.3-13.8
				c-6-9.3-12.6-18.2-19-27.5c-12.6-17.5-26-35.3-39.4-52.1c-0.7,0.4-1.5,0.7-2.2,1.1c-2.2,1.1-4.5,2.2-6.7,3.7
				c0.4,0.4,0.4,0.4,0.7,0.7c26.4,33.9,51,69.6,74.4,105.3c0.7,0.4,1.9,0.7,3,0.7c1.1,0,2.2,0,3.3-0.4c0.7-0.4,1.9-1.1,2.2-1.9
				c0-0.4,0.4-0.4,0.4-0.7l0.4-0.7C600.8,372.2,600.8,372.2,600.8,371.1L600.8,371.1z"/>
			<path class="st32" d="M603,370.3L603,370.3l-0.4-0.7l-0.4-0.7l-1.1-1.5l-1.9-3.7l-4.5-6.7c-3-4.8-6-9.3-8.9-14.1
				c-6-9.3-12.6-18.6-18.6-27.5c-12.6-17.9-25.3-35-39.1-52.5c-0.7,0.4-1.5,0.7-2.2,1.1c13.8,16.7,26.4,34.6,39.1,52.5
				c6.3,8.9,12.6,18.2,19,27.5c3.3,4.5,6,9.3,9.3,13.8l4.5,6.7l1.9,3.7l1.1,1.5l0.4,0.7l0.4,0.4l0,0c-0.4,0.4-0.4,0.7-0.4,1.1
				l-0.4,0.7c0,0.4-0.4,0.4-0.4,0.7c-0.4,0.7-1.5,1.5-2.2,1.9c-0.7,0.4-1.9,0.4-3.3,0.4c-0.7,0-1.9-0.4-3-0.7
				c-24.2-35.7-48.7-71.1-75.1-104.9c-0.7,0-0.7,0-1.1-0.4c-0.7,0.4-1.5,0.7-2.2,1.1c0.4,0.4,0.7,0.7,1.1,1.1
				c26.4,33.9,51,69.2,74.8,105.3l0,0l0.4,0.4c1.1,0.7,2.2,0.7,4.1,1.1c1.1,0,3,0,4.5-0.4c1.1-0.4,2.2-1.5,3.3-3
				c0.4-0.4,0.4-0.4,0.4-0.7l0.4-0.7c0.4-0.7,0.4-1.5,0.7-2.2C603,370.7,603,370.7,603,370.3z"/>
			<g>
				
					<linearGradient id="SVGID_5_" gradientUnits="userSpaceOnUse" x1="192.281" y1="205.4257" x2="255.0757" y2="181.0767" gradientTransform="matrix(-0.872 0.4895 -0.4895 -0.872 841.4837 372.3709)">
					<stop  offset="0" style="stop-color:#F2D397"/>
					<stop  offset="0.5331" style="stop-color:#F3D093"/>
					<stop  offset="0.7526" style="stop-color:#F5CC8F"/>
					<stop  offset="1" style="stop-color:#F3B699"/>
				</linearGradient>
				<path class="st9" d="M543.5,327.5c0.4-1.1,1.1-2.2,2.2-3.3c4.5-4.8,21.6-12.6,22.7-12.6c0.4-0.4,1.1,0,1.5,0.4s0,1.1-0.4,1.5
					c-5.6,2.2-11.5,4.8-16.4,8.6c-3.3,1.9-6.3,5.2-6.7,9.3c0,0.4,0,0.7,0,1.1c0.7,6.3,7.1,9.3,9.3,9.3c4.1,0,9.7-1.1,17.9-5.6
					c14.1-7.8,19-17.5,14.9-29c0,0,0-0.4,0-0.7s3.7-14.9-10-20.8c-0.4,0-0.4-0.4-0.4-0.7c-6.7-17.9-28.6-11.5-29.8-11.2
					c-4.8,1.5-9.7,4.1-13.8,6.7c0,0-13.4,13-0.7,26l0,0l0,0c0.4-0.7,1.1-1.1,1.5-1.5c8.9-7.1,26.8-15.3,27.9-15.6
					c0.4-0.4,1.1,0,1.5,0.4s0,1.1-0.4,1.5c0,0-3,1.1-6.3,3l-1.9,0.7c1.1-0.4,1.9-0.7,1.9-0.7c-2.2,1.1-1.9,0.7-1.9,0.7
					c-5.2,3-18.2,10-20.5,16C531.2,318.6,543.5,327.5,543.5,327.5z"/>
				<path class="st2" d="M543.1,337.9c0.7,1.9,3.7,5.6,6.3,6.7c3.7,1.5,10.4,0.7,24.2-6.3c0.4,0,0.4-0.4,0.7-0.4
					c14.5-8.2,19.3-18.2,15.3-30.9c0.4-2.2,3-16.4-10.8-23.1c-0.7-2.2-6-14.9-17.5-14.9c-11.5,0-35.3,8.9-38.3,21.6
					c-2.2,11.5,5.2,19.3,7.1,20.8c-0.4,2.2-0.4,4.8,0.4,7.1c1.9,6.3,6.3,11.5,10.8,13C542,333.9,542.4,335.7,543.1,337.9z
					 M534.2,310.8c2.2-6,15.6-13.4,20.5-16c0,0-0.4,0,1.9-0.7c0,0-0.7,0.4-1.9,0.7l1.9-0.7c3.7-1.5,6.3-3,6.3-3
					c0.4-0.4,0.7-0.7,0.4-1.5c-0.4-0.4-0.7-0.7-1.5-0.4c-0.7,0.4-19,8.6-27.9,15.6c-0.7,0.4-1.1,1.1-1.5,1.5l0,0l0,0
					c-13-13.4,0.7-26,0.7-26c4.1-3,8.9-5.2,13.8-6.7c1.1-0.4,23.1-6.7,29.8,11.2c0,0.4,0.4,0.4,0.4,0.7c13.8,6.3,10,20.5,10,20.8
					s0,0.4,0,0.7c4.1,11.9-0.7,21.2-14.9,29c-8.2,4.5-13.8,5.6-17.9,5.6c-1.9,0-8.6-3-9.3-9.3c0-0.4,0-0.7,0-1.1
					c0.4-4.1,4.1-7.1,6.7-9.3c4.8-3.7,10.8-6,16.4-8.6c0.4-0.4,0.7-0.7,0.4-1.5c-0.4-0.4-0.7-0.7-1.5-0.4
					c-0.7,0.4-18.2,8.2-22.7,12.6c-1.1,1.1-1.9,2.2-2.2,3.3C543.5,327.5,531.2,318.6,534.2,310.8z"/>
				<g class="st36">
					<path class="st193" d="M535.7,299.6c1.9,0.4,3.7,0.4,5.2,0c-2.2,1.5-4.8,3.3-6.7,4.8c-0.7,0.4-1.1,1.1-1.5,1.5l0,0l0,0
						c-7.1-7.8-6-15.3-3.7-20.1C529.3,286.2,530.8,298.9,535.7,299.6z"/>
					<path class="st193" d="M538.3,306c-1.1,1.9-1.9,4.1-1.1,6c1.9,6.3,4.5,10.4,11.5,9.3c-1.1,0.7-2.2,1.5-3,2.2
						c-1.1,1.1-1.9,2.2-2.2,3.3c0,0-11.9-8.9-9.3-16.4C534.9,309.3,536,307.8,538.3,306z"/>
					<path class="st193" d="M545.3,332.4c0-0.4,0-0.7,0-1.1c0.4-3,2.2-5.2,4.5-7.1c-1.1,3.3-2.2,8.9,1.9,11.9c3.7,3,6.7,4.1,9.3,4.8
						c-3,0.7-4.8,0.7-6.7,1.1C552.8,341.7,546.1,339.1,545.3,332.4z"/>
				</g>
			</g>
		</g>
		<path class="st37" d="M244.9,142.2L244.9,142.2h-0.7c-5.6,0.4-10,4.8-10,10.4c0,5.6,4.1,10,9.7,10.4h0.4h0.4
			c5.6-0.4,9.7-4.8,9.7-10.4C254.2,147.1,250.1,142.6,244.9,142.2z M244.1,161.6c-4.5,0-8.6-4.1-8.6-8.9c0-4.8,3.7-8.9,8.6-8.9
			s8.6,4.1,8.6,8.9C252.7,157.5,248.9,161.6,244.1,161.6z"/>
		<ellipse class="st38" cx="244.8" cy="153.8" rx="8.6" ry="8.9"/>
	</g>
</g>
</svg>
