<?xml version="1.0" encoding="utf-8"?>
<!-- Generator: Adobe Illustrator 21.0.0, SVG Export Plug-In . SVG Version: 6.00 Build 0)  -->
<svg version="1.1" id="圖層_1" xmlns="http://www.w3.org/2000/svg" xmlns:xlink="http://www.w3.org/1999/xlink" x="0px" y="0px"
	 viewBox="0 0 822.9 601.4" style="enable-background:new 0 0 822.9 601.4;" xml:space="preserve">
<style type="text/css">
	.st0{fill:url(#SVGID_1_);}
	.st1{fill:#D59543;}
	.st2{fill:#AB6C21;}
	.st3{opacity:0.6;fill:#D59543;enable-background:new    ;}
	.st4{fill:url(#SVGID_2_);}
	.st5{fill:url(#SVGID_3_);}
	.st6{fill:url(#SVGID_4_);}
	.st7{fill:#2D613A;}
	.st8{fill:#E2F0E3;}
	.st9{opacity:0.6;fill:#B9DCB9;enable-background:new    ;}
	.st10{fill:none;stroke:#FFFFFF;stroke-width:1.1894;stroke-linecap:round;stroke-miterlimit:10;}
	.st11{fill:url(#SVGID_5_);}
	.st12{fill:#C8C9CA;}
	.st13{fill:#E4CEA9;}
	.st14{fill:#CF361C;}
	.st15{fill:#C9A675;}
	.st16{fill:#B8761E;}
	.st17{fill:#8A2221;}
	.st18{opacity:0.6;}
	.st19{fill:url(#SVGID_6_);}
	.st20{fill:url(#SVGID_7_);}
	.st21{fill:#3F210E;}
</style>
<g>
	<g>
		
			<linearGradient id="SVGID_1_" gradientUnits="userSpaceOnUse" x1="291.1434" y1="219.7908" x2="376.1833" y2="219.7908" gradientTransform="matrix(1 0 0 -1 0 602)">
			<stop  offset="0" style="stop-color:#F2D397"/>
			<stop  offset="0.5331" style="stop-color:#F3D093"/>
			<stop  offset="0.7526" style="stop-color:#F5CC8F"/>
			<stop  offset="1" style="stop-color:#F3B699"/>
		</linearGradient>
		<path class="st0" d="M376.3,358.2l-8.1-18.3c0-0.4,0-1-0.2-1.5c0-0.2,0-0.4,0-0.4c0-0.4-0.2-0.8-0.2-1s0-0.4-0.2-0.6
			c-0.2-0.4-0.2-0.8-0.4-1.2c0-0.2,0-0.2-0.2-0.4c-0.2-0.6-0.4-1-0.6-1.7c0-0.2-0.2-0.2-0.2-0.4c-0.2-0.4-0.4-0.8-0.6-1.2
			c0-0.2-0.2-0.4-0.2-0.6c-0.2-0.4-0.4-0.8-0.6-1c0-0.2-0.2-0.4-0.2-0.6c-2.9-5.6-7.1-11-10-14.6c-0.2-0.2-0.2-0.2-0.4-0.4
			c-15.8,20-33.7,47.3-47.9,81.6c0,0-12.9,12.3-12.9,29.8c0,17.5,13.3,23.1,20.6,21.4l0,0c8.1,7.1,19.6,2.7,21.9-8.7V438
			c0.4,0.2,1,0.6,1.7,0.8c4.8,2.5,11.2-0.6,13.3-5l0,0l0,0c0-0.2,0.2-0.4,0.2-0.6l-0.2-0.2l1.7-14.2H352v-3.5l-0.6-2.5
			c0.2-0.6,0.6-1.5,0.8-2.3l0.6-1l0.8-2.5v-0.6c2.7-6.5,6.7-15.4,11.9-26c3.3-6.9,7.3-14.2,11.2-21L376.3,358.2z"/>
	</g>
	<path class="st1" d="M325.7,418.4c0,0-2.5,19.2,8.3,25.4l1.9-5.4C336.1,438.4,324.5,432.5,325.7,418.4z"/>
	<path class="st1" d="M307.2,424.4c0,0-5,12.7-1.2,21.9c0,0,3.3,1.2,8.3,0.8C314.3,447.1,305.5,442.8,307.2,424.4z"/>
	<path class="st2" d="M325.5,424.4c0,0-0.2,11.5,9.6,15.6l0.4-1.7C335.5,438.4,325.3,429.2,325.5,424.4z"/>
	<path class="st2" d="M306.4,431.1c0,0-0.6,10.6,5,16.2l3.5-0.2C314.9,447.1,307.2,439.8,306.4,431.1z"/>
	<path class="st3" d="M376.3,358.2l-8.1-18.3c0-0.4,0-1-0.2-1.5c0-0.2,0-0.4,0-0.4c0-0.4-0.2-0.8-0.2-1s0-0.4-0.2-0.6
		c-0.2-0.4-0.2-0.8-0.4-1.2c0-0.2,0-0.2-0.2-0.4c-0.2-0.6-0.4-1-0.6-1.7c0-0.2-0.2-0.2-0.2-0.4c-0.2-0.4-0.4-0.8-0.6-1.2
		c0-0.2-0.2-0.4-0.2-0.6c-0.2-0.4-0.4-0.8-0.6-1c0-0.2-0.2-0.4-0.2-0.6c0,0,0-0.2-0.2-0.2c-10.8,21.2-22.5,49.6-23.1,73.5
		c0,0,13.3,16.9,8.5,33.3c0.4-0.4,0.6-1,0.8-1.7l0,0l0,0c0-0.2,0.2-0.4,0.2-0.6l-0.2-0.2l1.7-14.2h-0.4v-3.5l-0.8-3.1l1.9-2.7l1-2.5
		l20-43.5c0,0,1-1.2,2.9-4.2L376.3,358.2z"/>
	<g>
		<path class="st2" d="M352.2,414.4l0.6-1.2l0,0c0.2-0.4,13.1-28.9,25-52.1l-1.2-2.9l0,0c-10.8,20.8-22.7,47.1-25.4,52.7
			c-0.4-1.2-0.8-1.7-0.8-1.7l0,0c-1-1.9-2.3-3.5-2.5-3.5c-0.2-0.2-0.6-0.2-0.8,0c-0.2,0.2-0.2,0.6,0,0.8c0.2,0.2,0.6,0.6,0.8,1
			c0,0,6.9,10.6,3.1,25.8l0,0c-0.8,2.3-2.9,4.2-5.4,5.2c-2.5,1-5.2,1-7.3,0c-8.5-4.2-13.1-13.3-11.2-22.3c0-0.4-0.2-0.6-0.4-0.8
			c-0.4,0-0.6,0.2-0.8,0.4c-1.9,8.7,2.1,17.7,9.8,22.5c-1.2,5.4-4.6,9.4-9.2,10.8c-4.4,1.2-9,0-12.5-3.5c-9-9-5.4-22.5-5.4-22.5
			c0-0.4-0.2-0.6-0.4-0.8c-0.4,0-0.6,0.2-0.8,0.4c0,0.2-3.5,14.4,5.8,23.7l0,0c-2.9,0.2-7.3-0.6-11.2-3.7c-3.3-2.7-7.3-7.9-7.3-17.3
			c0-16.9,12.7-29.1,12.7-29.4l0.2-0.2c14-34.4,32.1-61.4,47.7-81.2l-0.2-0.2c-1-1.2-2.1-2.3-2.7-3.1l0,0
			c-5.2,6.5-10.6,13.7-16,22.1l0,0c0,0-25.8,38.5-31.6,60.2c-7.1,9.2-20.2,30.2-7.7,46c1.2,1.9,2.7,3.3,4,4.4c0.4,0.4,1,0.8,1.7,1
			c0.2,0,0.2,0.2,0.2,0.2l0,0c2.9,1.9,6,2.7,9.2,2.7c0.8,0,1.7,0,2.3-0.2c2.7,2.3,5.8,3.3,9,3.3c1.2,0,2.5-0.2,3.7-0.6
			c5-1.5,8.5-5.6,10-11.5c0.2,0.2,0.6,0.4,0.8,0.4c1.2,0.6,2.7,0.8,4.2,0.8c1.5,0,2.7-0.2,4.2-0.8c2.7-1,4.8-3.1,5.8-5.4l0,0
			c0,0,0,0,0-0.2c0-0.2,0.2-0.2,0.2-0.4l0,0c0,0,1-2.7,1.5-7.1c0.2-1.7,0.2-3.7,0-5.8C353.2,418.4,352.6,416.1,352.2,414.4z"/>
	</g>
</g>
<g>
	<g>
		
			<linearGradient id="SVGID_2_" gradientUnits="userSpaceOnUse" x1="3519.5813" y1="219.7908" x2="3604.6213" y2="219.7908" gradientTransform="matrix(-1 0 0 -1 4123.6563 602)">
			<stop  offset="0" style="stop-color:#F2D397"/>
			<stop  offset="0.5331" style="stop-color:#F3D093"/>
			<stop  offset="0.7526" style="stop-color:#F5CC8F"/>
			<stop  offset="1" style="stop-color:#F3B699"/>
		</linearGradient>
		<path class="st4" d="M518.9,358.2l8.1-18.3c0-0.4,0-1,0.2-1.5c0-0.2,0-0.4,0-0.4c0-0.4,0.2-0.8,0.2-1s0-0.4,0.2-0.6
			c0.2-0.4,0.2-0.8,0.4-1.2c0-0.2,0-0.2,0.2-0.4c0.2-0.6,0.4-1,0.6-1.7c0-0.2,0.2-0.2,0.2-0.4c0.2-0.4,0.4-0.8,0.6-1.2
			c0-0.2,0.2-0.4,0.2-0.6c0.2-0.4,0.4-0.8,0.6-1c0-0.2,0.2-0.4,0.2-0.6c2.9-5.6,7.1-11,10-14.6c0.2-0.2,0.2-0.2,0.4-0.4
			c15.8,20,33.7,47.3,47.9,81.6c0,0,12.9,12.3,12.9,29.8c0,17.5-13.3,23.1-20.6,21.4l0,0c-8.1,7.1-19.6,2.7-21.9-8.7V438
			c-0.4,0.2-1,0.6-1.7,0.8c-4.8,2.5-11.2-0.6-13.3-5l0,0l0,0c0-0.2-0.2-0.4-0.2-0.6l0.2-0.2l-1.7-14.2h0.4v-3.5l0.6-2.5
			c-0.2-0.6-0.6-1.5-0.8-2.3l-0.6-1l-0.8-2.5v-0.6c-2.7-6.5-6.7-15.4-11.9-26c-3.3-6.9-7.3-14.2-11.2-21L518.9,358.2z"/>
	</g>
	<path class="st1" d="M569.5,418.4c0,0,2.5,19.2-8.3,25.4l-1.9-5.4C559.3,438.4,570.7,432.5,569.5,418.4z"/>
	<path class="st1" d="M588,424.4c0,0,5,12.7,1.2,21.9c0,0-3.3,1.2-8.3,0.8C581.1,447.1,589.6,442.8,588,424.4z"/>
	<path class="st2" d="M569.9,424.4c0,0,0.2,11.5-9.6,15.6l-0.4-1.7C559.9,438.4,569.9,429.2,569.9,424.4z"/>
	<path class="st2" d="M589,431.1c0,0,0.6,10.6-5,16.2l-3.5-0.2C580.5,447.1,588,439.8,589,431.1z"/>
	<path class="st3" d="M518.9,358.2l8.1-18.3c0-0.4,0-1,0.2-1.5c0-0.2,0-0.4,0-0.4c0-0.4,0.2-0.8,0.2-1s0-0.4,0.2-0.6
		c0.2-0.4,0.2-0.8,0.4-1.2c0-0.2,0-0.2,0.2-0.4c0.2-0.6,0.4-1,0.6-1.7c0-0.2,0.2-0.2,0.2-0.4c0.2-0.4,0.4-0.8,0.6-1.2
		c0-0.2,0.2-0.4,0.2-0.6c0.2-0.4,0.4-0.8,0.6-1c0-0.2,0.2-0.4,0.2-0.6c0,0,0-0.2,0.2-0.2c10.8,21.2,22.5,49.6,23.1,73.5
		c0,0-13.3,16.9-8.5,33.3c-0.4-0.4-0.6-1-0.8-1.7l0,0l0,0c0-0.2-0.2-0.4-0.2-0.6l0.2-0.2L543,419h0.4v-3.5l0.8-3.1l-1.9-2.7l-1-2.5
		l-20-43.5c0,0-1-1.2-2.9-4.2L518.9,358.2z"/>
	<g>
		<path class="st2" d="M543,414.4l-0.6-1.2l0,0c-0.2-0.4-13.1-28.9-25-52.1l1.2-2.9l0,0c10.8,20.8,22.7,47.1,25.4,52.7
			c0.4-1.2,0.8-1.7,0.8-1.7l0,0c1-1.9,2.3-3.5,2.5-3.5c0.2-0.2,0.6-0.2,0.8,0c0.2,0.2,0.2,0.6,0,0.8c-0.2,0.2-0.6,0.6-0.8,1
			c0,0-6.9,10.6-3.1,25.8l0,0c0.8,2.3,2.9,4.2,5.4,5.2c2.5,1,5.2,1,7.3,0c8.5-4.2,13.1-13.3,11.2-22.3c0-0.4,0.2-0.6,0.4-0.8
			c0.4,0,0.6,0.2,0.8,0.4c1.9,8.7-2.1,17.7-9.8,22.5c1.2,5.4,4.6,9.4,9.2,10.8c4.4,1.2,9,0,12.5-3.5c9-9,5.4-22.5,5.4-22.5
			c0-0.4,0.2-0.6,0.4-0.8c0.4,0,0.6,0.2,0.8,0.4c0,0.2,3.5,14.4-5.8,23.7l0,0c2.9,0.2,7.3-0.6,11.2-3.7c3.3-2.7,7.3-7.9,7.3-17.3
			c0-16.9-12.7-29.1-12.7-29.4l-0.2-0.2c-14-34.4-32.1-61.4-47.7-81.2l0.2-0.2c1-1.2,2.1-2.3,2.7-3.1l0,0c5.2,6.5,10.6,13.7,16,22.1
			l0,0c0,0,25.8,38.5,31.6,60.2c7.1,9.2,20.2,30.2,7.7,46c-1.2,1.9-2.7,3.3-4,4.4c-0.4,0.4-1,0.8-1.7,1c-0.2,0-0.2,0.2-0.2,0.2l0,0
			c-2.9,1.9-6,2.7-9.2,2.7c-0.8,0-1.7,0-2.3-0.2c-2.7,2.3-5.8,3.3-9,3.3c-1.2,0-2.5-0.2-3.7-0.6c-5-1.5-8.5-5.6-10-11.5
			c-0.2,0.2-0.6,0.4-0.8,0.4c-1.2,0.6-2.7,0.8-4.2,0.8c-1.5,0-2.7-0.2-4.2-0.8c-2.7-1-4.8-3.1-5.8-5.4l0,0c0,0,0,0,0-0.2
			c0-0.2-0.2-0.2-0.2-0.4l0,0c0,0-1-2.7-1.5-7.1c-0.2-1.7-0.2-3.7,0-5.8C542.2,418.4,542.6,416.1,543,414.4z"/>
	</g>
</g>
<g>
	<g>
		<g>
			<path class="st7" d="M272.6,565.7H127.9c-0.6,0-1.2-0.6-1.2-1.2V344.1c0-0.6,0.6-1.2,0.6-1.2c0.6,0,1.2,0,1.2,0.6l144.1,220.3
				c0,0.6,0,0.6,0,1.2C273.2,565.1,273.2,565.7,272.6,565.7z M129.1,563.3h141l-141-214.9V563.3z M212.6,525.1h-46
				c-0.6,0-1.2-0.6-1.2-1.2v-69.6c0-0.6,0.6-1.2,0.6-1.2c0.6,0,1.2,0,1.2,0.6l46,69.6c0,0.6,0,0.6,0,1.2
				C213.2,525.1,212.6,525.1,212.6,525.1z M167.8,522.7h42.4l-42.4-64.8C167.8,457.9,167.8,522.7,167.8,522.7z"/>
			<path class="st8" d="M129.1,348.4v214.9h141L129.1,348.4z M212.6,525.1h-46c-0.6,0-1.2-0.6-1.2-1.2v-69.6c0-0.6,0.6-1.2,0.6-1.2
				c0.6,0,1.2,0,1.2,0.6l46,69.6c0,0.6,0,0.6,0,1.2C213.2,525.1,212.6,525.1,212.6,525.1z"/>
			<path class="st9" d="M268.9,560.8h-1.2V559l-1.8-2.4h-3v-3h1.2l-0.6-1.2h-0.6v-0.6l-1.2-1.8v2.4H258v-3h3l-0.6-1.2H258v-3l0,0
				l-1.2-2.4v1.2h-3.6v-3h2.4l-0.6-1.2h-1.8v-2.4l-1.2-1.8h-3.6v-3h1.8l-0.6-1.2h-0.6V530l-1.2-1.8v3h-3.6v-3h3.6l-0.6-1.2h-3v-4.8
				h0.6l-1.8-3v1.8h-3.6v-3h3l-0.6-1.2h-1.8v-3l-1.2-1.8v0.6h-6.1v-3h1.8l-0.6-1.2h-1.2v-1.8l-1.8-2.4h-3v-3h1.2l-0.6-1.2h-0.6v-0.6
				l-1.2-1.8v2.4h-3.6v-3h3l-0.6-1.2h-2.4v-3l0,0l-1.2-2.4v1.2h-3.6v-3h2.4l-0.6-1.2h-1.8v-2.4l-1.8-2.4h-3v-3.6h0.6l-1.8-3v1.8
				h-3.6v-3.6h2.4l-0.6-1.2h-1.8V470l-1.8-2.4h-3.6V464h1.2l-0.6-1.2l0,0l0,0l-1.2-1.8v1.8h-3.6v-3.6h2.4l-0.6-1.2h-1.8v-3l-1.2-1.8
				h-3.6v-3.6h1.2l-0.6-1.2h-0.6v-0.6l-1.2-1.8v2.4H189v-3.6h3l-0.6-1.2h-1.8v-3l-1.2-1.8h-3.6v-3.6h-0.6l-0.6-1.2H183v-0.6
				l-1.2-1.8v2.4h-3.6v-3.6h3l-0.6-1.2h-2.4v-3.6l-1.2-1.8l0,0h-3.6v-3.6h1.2l-0.6-1.2h-0.6v-1.2l-1.2-4.2v3h-3.6v-3.6h3l-0.6-1.2
				h-2.4v-4.2l-1.2-1.8v0.6h-3.6v-3.6h1.8l-0.6-1.2h-0.6v-1.2L163,398v3h-4.8v-3.6h3l-0.6-1.2h-2.4v-3.6l0,0l-1.2-1.8v0.6h-3.6v-3.6
				h1.8l-1.2-1.8h-0.6v-1.8l-1.2-1.2v3.6h-3.6v-3.6h3.6l-0.6-1.2h-3V378l0,0l-1.2-2.4v1.2H143v-3.6h1.8l-0.6-1.2H143v-1.8l-1.2-2.4
				v3.6h-3.6v-3.6h3.6l-0.6-1.2h-3v-3.6h0.6l-1.8-2.4v1.2h-3.6v-3.6h1.8l-0.6-1.2h-1.2V355l-1.8-3h-2.4v1.2h3v3.6h-3v1.2h3v3.6h-3
				v1.2h3v3.6h-3v1.2h3v3.6h-3v1.2h3v3.6h-3v1.2h3v3.6h-3v1.2h3v3.6h-3v1.2h3v3.6h-3v1.2h3v3.6h-3v1.2h3v3.6h-3v1.2h3v3.6h-3v1.2h3
				v3.6h-3v1.2h3v3.6h-3v1.2h3v3.6h-3v1.2h3v3.6h-3v1.2h3v3.6h-3v1.2h3v3.6h-3v1.2h3v3.6h-3v1.2h3v3.6h-3v1.2h3v3.6h-3v1.2h3v3.6h-3
				v1.2h3v3.6h-3v1.2h3v3.6h-3v1.2h3v3.6h-3v1.2h3v3.6h-3v1.2h3v3.6h-3v1.2h3v3.6h-3v1.2h3v3h-3v1.2h3v3h-3v1.2h3v3h-3v1.2h3v3h-3
				v1.2h3v3h-3v1.2h3v3h-3v1.2h3v3h-3v1.2h3v3h-3v1.2h3v3h-3v1.2h3v3h-3v1.2h3v3h-3v1.2h3v3h-3v1.2h3v3h-3v1.2h3v3h-3v1.2h3v3h-3
				v1.2h3v3h-3v1.2h3v3h-3v1.2h3v1.2h1.2V556h3.6v1.2h1.2V556h3.6v1.2h1.2V556h3.6v1.2h1.2V556h3.6v1.2h1.2V556h3.6v1.2h1.2V556h3.6
				v1.2h1.2V556h3.6v1.2h1.2V556h4.8v1.2h1.2V556h3.6v1.2h1.2V556h3.6v1.2h1.2V556h3.6v1.2h1.2V556h3.6v1.2h1.2V556h3.6v1.2h1.2V556
				h3.6v1.2h1.2V556h3.6v1.2h1.2V556h3.6v1.2h1.2V556h3.6v1.2h1.2V556h3.6v1.2h1.2V556h4.8v1.2h1.2V556h3.6v1.2h1.2V556h3.6v1.2h1.2
				V556h3.6v1.2h1.2V556h3.6v1.2h1.2V556h3.6v1.2h1.2V556h3.6v1.2h1.2V556h3.6v1.2h1.2V556h3.6v1.2h1.2V556h1.8L268.9,560.8z
				 M137,560.8h-3.6v-3h3.6V560.8z M137,556.6h-3.6v-3h3.6V556.6z M137,551.8h-3.6v-3h3.6V551.8z M137,547.5h-3.6v-3h3.6V547.5z
				 M137,543.3h-3.6v-3h3.6V543.3z M137,538.4h-3.6v-3h3.6V538.4z M137,534.2h-3.6v-3h3.6V534.2z M137,530h-3.6v-3h3.6V530z
				 M137,525.1h-3.6v-3h3.6V525.1z M137,520.9h-3.6v-3h3.6V520.9z M137,516.7h-3.6v-3h3.6V516.7z M137,512.4h-3.6v-3h3.6V512.4z
				 M137,507.6h-3.6v-3h3.6V507.6z M137,503.3h-3.6v-3h3.6V503.3z M137,499.1h-3.6v-3h3.6V499.1z M137,494.3h-3.6v-3h3.6V494.3z
				 M137,490h-3.6v-3h3.6V490z M137,485.8h-3.6v-3.6h3.6V485.8z M137,480.3h-3.6v-3.6h3.6V480.3z M137,475.5h-3.6v-3.6h3.6V475.5z
				 M137,470.7h-3.6V467h3.6V470.7z M137,465.8h-3.6v-3.6h3.6V465.8z M137,461h-3.6v-3.6h3.6V461z M137,455.5h-3.6v-3.6h3.6V455.5z
				 M137,450.7h-3.6V447h3.6V450.7z M137,445.8h-3.6v-3.6h3.6V445.8z M137,441h-3.6v-3.6h3.6V441z M137,436.2h-3.6v-3.6h3.6V436.2z
				 M137,430.7h-3.6v-3.6h3.6V430.7z M137,425.9h-3.6v-3.6h3.6V425.9z M137,421h-3.6v-3.6h3.6V421z M137,416.2h-3.6v-3.6h3.6V416.2z
				 M137,410.7h-3.6v-3.6h3.6V410.7z M137,405.9h-3.6v-3.6h3.6V405.9z M137,401h-3.6v-3.6h3.6V401z M137,396.2h-3.6v-3.6h3.6V396.2z
				 M137,391.4h-3.6v-3.6h3.6V391.4z M137,385.9h-3.6v-3.6h3.6V385.9z M137,381.1h-3.6v-3.6h3.6V381.1z M137,376.2h-3.6v-3.6h3.6
				V376.2z M137,371.4h-3.6v-3.6h3.6V371.4z M137,366.5h-3.6v-3.6h3.6V366.5z M141.8,560.8h-3.6v-3h3.6V560.8z M141.8,556.6h-3.6v-3
				h3.6V556.6z M141.8,551.8h-3.6v-3h3.6V551.8z M141.8,547.5h-3.6v-3h3.6V547.5z M141.8,543.3h-3.6v-3h3.6V543.3z M141.8,538.4
				h-3.6v-3h3.6V538.4z M141.8,534.2h-3.6v-3h3.6V534.2z M141.8,530h-3.6v-3h3.6V530z M141.8,525.1h-3.6v-3h3.6V525.1z M141.8,520.9
				h-3.6v-3h3.6V520.9z M141.8,516.7h-3.6v-3h3.6V516.7z M141.8,512.4h-3.6v-3h3.6V512.4z M141.8,507.6h-3.6v-3h3.6V507.6z
				 M141.8,503.3h-3.6v-3h3.6V503.3z M141.8,499.1h-3.6v-3h3.6V499.1z M141.8,494.3h-3.6v-3h3.6V494.3z M141.8,490h-3.6v-3h3.6V490z
				 M141.8,485.8h-3.6v-3.6h3.6V485.8z M141.8,480.3h-3.6v-3.6h3.6V480.3z M141.8,475.5h-3.6v-3.6h3.6V475.5z M141.8,470.7h-3.6V467
				h3.6V470.7z M141.8,465.8h-3.6v-3.6h3.6V465.8z M141.8,461h-3.6v-3.6h3.6V461z M141.8,455.5h-3.6v-3.6h3.6V455.5z M141.8,450.7
				h-3.6V447h3.6V450.7z M141.8,445.8h-3.6v-3.6h3.6V445.8z M141.8,441h-3.6v-3.6h3.6V441z M141.8,436.2h-3.6v-3.6h3.6V436.2z
				 M141.8,430.7h-3.6v-3.6h3.6V430.7z M141.8,425.9h-3.6v-3.6h3.6V425.9z M141.8,421h-3.6v-3.6h3.6V421z M141.8,416.2h-3.6v-3.6
				h3.6V416.2z M141.8,410.7h-3.6v-3.6h3.6V410.7z M141.8,405.9h-3.6v-3.6h3.6V405.9z M141.8,401h-3.6v-3.6h3.6V401z M141.8,396.2
				h-3.6v-3.6h3.6V396.2z M141.8,391.4h-3.6v-3.6h3.6V391.4z M141.8,385.9h-3.6v-3.6h3.6V385.9z M141.8,381.1h-3.6v-3.6h3.6V381.1z
				 M141.8,376.2h-3.6v-3.6h3.6V376.2z M147.3,560.8H143v-3h3.6v3H147.3z M147.3,556.6H143v-3h3.6v3H147.3z M147.3,551.8H143v-3h3.6
				v3H147.3z M147.3,547.5H143v-3h3.6v3H147.3z M147.3,543.3H143v-3h3.6v3H147.3z M147.3,538.4H143v-3h3.6v3H147.3z M147.3,534.2
				H143v-3h3.6v3H147.3z M147.3,530H143v-3h3.6v3H147.3z M147.3,525.1H143v-3h3.6v3H147.3z M147.3,520.9H143v-3h3.6v3H147.3z
				 M147.3,516.7H143v-3h3.6v3H147.3z M147.3,512.4H143v-3h3.6v3H147.3z M147.3,507.6H143v-3h3.6v3H147.3z M147.3,503.3H143v-3h3.6
				v3H147.3z M147.3,499.1H143v-3h3.6v3H147.3z M147.3,494.3H143v-3h3.6v3H147.3z M147.3,490H143v-3h3.6v3H147.3z M147.3,485.8H143
				v-3.6h3.6v3.6H147.3z M147.3,480.3H143v-3.6h3.6v3.6H147.3z M147.3,475.5H143v-3.6h3.6v3.6H147.3z M147.3,470.7H143V467h3.6v3.6
				H147.3z M147.3,465.8H143v-3.6h3.6v3.6H147.3z M147.3,461H143v-3.6h3.6v3.6H147.3z M147.3,455.5H143v-3.6h3.6v3.6H147.3z
				 M147.3,450.7H143V447h3.6v3.6H147.3z M147.3,445.8H143v-3.6h3.6v3.6H147.3z M147.3,441H143v-3.6h3.6v3.6H147.3z M147.3,436.2
				H143v-3.6h3.6v3.6H147.3z M147.3,430.7H143v-3.6h3.6v3.6H147.3z M147.3,425.9H143v-3.6h3.6v3.6H147.3z M147.3,421H143v-3.6h3.6
				v3.6H147.3z M147.3,416.2H143v-3.6h3.6v3.6H147.3z M147.3,410.7H143v-3.6h3.6v3.6H147.3z M147.3,405.9H143v-3.6h3.6v3.6H147.3z
				 M147.3,401H143v-3.6h3.6v3.6H147.3z M147.3,396.2H143v-3.6h3.6v3.6H147.3z M147.3,391.4H143v-3.6h3.6v3.6H147.3z M147.3,385.9
				H143v-3.6h3.6v3.6H147.3z M147.3,381.1H143v-3.6h3.6v3.6H147.3z M152.1,560.8h-3.6v-3h3.6C152.1,557.8,152.1,560.8,152.1,560.8z
				 M152.1,556.6h-3.6v-3h3.6C152.1,553.6,152.1,556.6,152.1,556.6z M152.1,551.8h-3.6v-3h3.6C152.1,548.7,152.1,551.8,152.1,551.8z
				 M152.1,547.5h-3.6v-3h3.6C152.1,544.5,152.1,547.5,152.1,547.5z M152.1,543.3h-3.6v-3h3.6C152.1,540.3,152.1,543.3,152.1,543.3z
				 M152.1,538.4h-3.6v-3h3.6C152.1,535.4,152.1,538.4,152.1,538.4z M152.1,534.2h-3.6v-3h3.6C152.1,531.2,152.1,534.2,152.1,534.2z
				 M152.1,530h-3.6v-3h3.6C152.1,526.9,152.1,530,152.1,530z M152.1,525.1h-3.6v-3h3.6C152.1,522.1,152.1,525.1,152.1,525.1z
				 M152.1,520.9h-3.6v-3h3.6C152.1,517.9,152.1,520.9,152.1,520.9z M152.1,516.7h-3.6v-3h3.6C152.1,513.6,152.1,516.7,152.1,516.7z
				 M152.1,512.4h-3.6v-3h3.6C152.1,509.4,152.1,512.4,152.1,512.4z M152.1,507.6h-3.6v-3h3.6C152.1,504.6,152.1,507.6,152.1,507.6z
				 M152.1,503.3h-3.6v-3h3.6C152.1,500.3,152.1,503.3,152.1,503.3z M152.1,499.1h-3.6v-3h3.6C152.1,496.1,152.1,499.1,152.1,499.1z
				 M152.1,494.3h-3.6v-3h3.6C152.1,491.2,152.1,494.3,152.1,494.3z M152.1,490h-3.6v-3h3.6C152.1,487,152.1,490,152.1,490z
				 M152.1,485.8h-3.6v-3.6h3.6C152.1,482.2,152.1,485.8,152.1,485.8z M152.1,480.3h-3.6v-3.6h3.6
				C152.1,476.7,152.1,480.3,152.1,480.3z M152.1,475.5h-3.6v-3.6h3.6C152.1,471.9,152.1,475.5,152.1,475.5z M152.1,470.7h-3.6V467
				h3.6C152.1,467,152.1,470.7,152.1,470.7z M152.1,465.8h-3.6v-3.6h3.6C152.1,462.2,152.1,465.8,152.1,465.8z M152.1,461h-3.6v-3.6
				h3.6C152.1,457.3,152.1,461,152.1,461z M152.1,455.5h-3.6v-3.6h3.6C152.1,451.9,152.1,455.5,152.1,455.5z M152.1,450.7h-3.6V447
				h3.6C152.1,447,152.1,450.7,152.1,450.7z M152.1,445.8h-3.6v-3.6h3.6C152.1,442.2,152.1,445.8,152.1,445.8z M152.1,441h-3.6v-3.6
				h3.6C152.1,437.4,152.1,441,152.1,441z M152.1,436.2h-3.6v-3.6h3.6C152.1,432.5,152.1,436.2,152.1,436.2z M152.1,430.7h-3.6v-3.6
				h3.6C152.1,427.1,152.1,430.7,152.1,430.7z M152.1,425.9h-3.6v-3.6h3.6C152.1,422.2,152.1,425.9,152.1,425.9z M152.1,421h-3.6
				v-3.6h3.6C152.1,417.4,152.1,421,152.1,421z M152.1,416.2h-3.6v-3.6h3.6C152.1,412.5,152.1,416.2,152.1,416.2z M152.1,410.7h-3.6
				v-3.6h3.6C152.1,407.1,152.1,410.7,152.1,410.7z M152.1,405.9h-3.6v-3.6h3.6C152.1,402.3,152.1,405.9,152.1,405.9z M152.1,401
				h-3.6v-3.6h3.6C152.1,397.4,152.1,401,152.1,401z M152.1,396.2h-3.6v-3.6h3.6C152.1,392.6,152.1,396.2,152.1,396.2z M152.1,391.4
				h-3.6v-3.6h3.6C152.1,387.7,152.1,391.4,152.1,391.4z M156.9,560.8h-3.6v-3h3.6V560.8z M156.9,556.6h-3.6v-3h3.6V556.6z
				 M156.9,551.8h-3.6v-3h3.6V551.8z M156.9,547.5h-3.6v-3h3.6V547.5z M156.9,543.3h-3.6v-3h3.6V543.3z M156.9,538.4h-3.6v-3h3.6
				V538.4z M156.9,534.2h-3.6v-3h3.6V534.2z M156.9,530h-3.6v-3h3.6V530z M156.9,525.1h-3.6v-3h3.6V525.1z M156.9,520.9h-3.6v-3h3.6
				V520.9z M156.9,516.7h-3.6v-3h3.6V516.7z M156.9,512.4h-3.6v-3h3.6V512.4z M156.9,507.6h-3.6v-3h3.6V507.6z M156.9,503.3h-3.6v-3
				h3.6V503.3z M156.9,499.1h-3.6v-3h3.6V499.1z M156.9,494.3h-3.6v-3h3.6V494.3z M156.9,490h-3.6v-3h3.6V490z M156.9,485.8h-3.6
				v-3.6h3.6V485.8z M156.9,480.3h-3.6v-3.6h3.6V480.3z M156.9,475.5h-3.6v-3.6h3.6V475.5z M156.9,470.7h-3.6V467h3.6V470.7z
				 M156.9,465.8h-3.6v-3.6h3.6V465.8z M156.9,461h-3.6v-3.6h3.6V461z M156.9,455.5h-3.6v-3.6h3.6V455.5z M156.9,450.7h-3.6V447h3.6
				V450.7z M156.9,445.8h-3.6v-3.6h3.6V445.8z M156.9,441h-3.6v-3.6h3.6V441z M156.9,436.2h-3.6v-3.6h3.6V436.2z M156.9,430.7h-3.6
				v-3.6h3.6V430.7z M156.9,425.9h-3.6v-3.6h3.6V425.9z M156.9,421h-3.6v-3.6h3.6V421z M156.9,416.2h-3.6v-3.6h3.6V416.2z
				 M156.9,410.7h-3.6v-3.6h3.6V410.7z M156.9,405.9h-3.6v-3.6h3.6V405.9z M156.9,401h-3.6v-3.6h3.6V401z M156.9,396.2h-3.6v-3.6
				h3.6V396.2z M161.8,560.8h-3.6v-3h3.6V560.8z M161.8,556.6h-3.6v-3h3.6V556.6z M161.8,551.8h-3.6v-3h3.6V551.8z M161.8,547.5
				h-3.6v-3h3.6V547.5z M161.8,543.3h-3.6v-3h3.6V543.3z M161.8,538.4h-3.6v-3h3.6V538.4z M161.8,534.2h-3.6v-3h3.6V534.2z
				 M161.8,530h-3.6v-3h3.6V530z M161.8,525.1h-3.6v-3h3.6V525.1z M161.8,520.9h-3.6v-3h3.6V520.9z M161.8,516.7h-3.6v-3h3.6V516.7z
				 M161.8,512.4h-3.6v-3h3.6V512.4z M161.8,507.6h-3.6v-3h3.6V507.6z M161.8,503.3h-3.6v-3h3.6V503.3z M161.8,499.1h-3.6v-3h3.6
				V499.1z M161.8,494.3h-3.6v-3h3.6V494.3z M161.8,490h-3.6v-3h3.6V490z M161.8,485.8h-3.6v-3.6h3.6V485.8z M161.8,480.3h-3.6v-3.6
				h3.6V480.3z M161.8,475.5h-3.6v-3.6h3.6V475.5z M161.8,470.7h-3.6V467h3.6V470.7z M161.8,465.8h-3.6v-3.6h3.6V465.8z M161.8,461
				h-3.6v-3.6h3.6V461z M161.8,455.5h-3.6v-3.6h3.6V455.5z M161.8,450.7h-3.6V447h3.6V450.7z M161.8,445.8h-3.6v-3.6h3.6V445.8z
				 M161.8,441h-3.6v-3.6h3.6V441z M161.8,436.2h-3.6v-3.6h3.6V436.2z M161.8,430.7h-3.6v-3.6h3.6V430.7z M161.8,425.9h-3.6v-3.6
				h3.6V425.9z M161.8,421h-3.6v-3.6h3.6V421z M161.8,416.2h-3.6v-3.6h3.6V416.2z M161.8,410.7h-3.6v-3.6h3.6V410.7z M161.8,405.9
				h-3.6v-3.6h3.6V405.9z M207.8,476.7h3.6v3.6h-3.6V476.7z M207.8,481.6h3.6v3.6h-3.6V481.6z M207.8,487h3.6v3h-3.6V487z
				 M207.8,491.2h3.6v3h-3.6V491.2z M207.8,495.5h3.6v3h-3.6V495.5z M207.8,500.3h3.6v3h-3.6V500.3z M207.8,504.6h3.6v3h-3.6V504.6z
				 M207.8,508.8h3.6v3h-3.6V508.8z M202.9,467h3.6v3.6h-3.6V467z M202.9,471.9h3.6v3.6h-3.6V471.9z M202.9,476.7h3.6v3.6h-3.6
				V476.7z M202.9,481.6h3.6v3.6h-3.6V481.6z M202.9,487h3.6v3h-3.6V487z M202.9,491.2h3.6v3h-3.6V491.2z M202.9,495.5h3.6v3h-3.6
				V495.5z M202.9,500.3h3.6v3h-3.6V500.3z M198.1,462.2h3.6v3.6h-3.6V462.2z M198.1,467h3.6v3.6h-3.6V467z M198.1,471.9h3.6v3.6
				h-3.6V471.9z M198.1,476.7h3.6v3.6h-3.6V476.7z M198.1,481.6h3.6v3.6h-3.6V481.6z M198.1,487h3.6v3h-3.6V487z M198.1,491.2h3.6v3
				h-3.6V491.2z M198.1,495.5h3.6v3h-3.6V495.5z M192.7,451.9h3.6v3.6h-3.6V451.9z M192.7,456.7h3.6v3.6h-3.6V456.7z M192.7,462.2
				h3.6v3.6h-3.6V462.2z M192.7,467h3.6v3.6h-3.6V467z M192.7,471.9h3.6v3.6h-3.6V471.9z M192.7,476.7h3.6v3.6h-3.6V476.7z
				 M192.7,481.6h3.6v3.6h-3.6V481.6z M192.7,487h3.6v3h-3.6V487z M187.8,447h3.6v3.6h-3.6V447z M187.8,451.9h3.6v3.6h-3.6V451.9z
				 M187.8,456.7h3.6v3.6h-3.6V456.7z M187.8,462.2h3.6v3.6h-3.6V462.2z M187.8,467h3.6v3.6h-3.6V467z M187.8,471.9h3.6v3.6h-3.6
				V471.9z M187.8,476.7h3.6v3.6h-3.6V476.7z M183,436.8h3.6v3.6H183V436.8z M183,442.2h3.6v3.6H183V442.2z M183,447h3.6v3.6H183
				V447z M183,451.9h3.6v3.6H183V451.9z M183,456.7h3.6v3.6H183V456.7z M183,462.2h3.6v3.6H183V462.2z M183,467h3.6v3.6H183V467z
				 M183,471.9h3.6v3.6H183V471.9z M178.1,431.9h3.6v3.6h-3.6V431.9z M178.1,436.8h3.6v3.6h-3.6V436.8z M178.1,442.2h3.6v3.6h-3.6
				V442.2z M178.1,447h3.6v3.6h-3.6V447z M178.1,451.9h3.6v3.6h-3.6V451.9z M178.1,456.7h3.6v3.6h-3.6V456.7z M178.1,462.2h3.6v3.6
				h-3.6V462.2z M173.3,422.2h3.6v3.6h-3.6V422.2z M173.3,427.1h3.6v3.6h-3.6V427.1z M173.3,431.9h3.6v3.6h-3.6V431.9z M173.3,436.8
				h3.6v3.6h-3.6V436.8z M173.3,442.2h3.6v3.6h-3.6V442.2z M173.3,447h3.6v3.6h-3.6V447z M173.3,451.9h3.6v3.6h-3.6V451.9z
				 M173.3,456.7h3.6v3.6h-3.6V456.7z M167.8,417.4h4.2v3.6h-3.6L167.8,417.4L167.8,417.4z M167.8,422.2h4.2v3.6h-3.6L167.8,422.2
				L167.8,422.2z M167.8,427.1h4.2v3.6h-3.6L167.8,427.1L167.8,427.1z M167.8,431.9h4.2v3.6h-3.6L167.8,431.9L167.8,431.9z
				 M167.8,436.8h4.2v3.6h-3.6L167.8,436.8L167.8,436.8z M167.8,442.2h4.2v3.6h-3.6L167.8,442.2L167.8,442.2z M167.8,447h4.2v3.6
				h-3.6L167.8,447L167.8,447z M163,407.1h3.6v3.6H163V407.1z M163,411.9h3.6v3.6H163V411.9z M163,417.4h3.6v3.6H163V417.4z
				 M163,422.2h3.6v3.6H163V422.2z M163,427.1h3.6v3.6H163V427.1z M163,431.9h3.6v3.6H163V431.9z M163,436.8h3.6v3.6H163V436.8z
				 M163,442.2h3.6v3.6H163V442.2z M163,447h3.6v3.6H163V447z M166.6,560.8H163v-3h3.6V560.8z M166.6,556.6H163v-3h3.6V556.6z
				 M166.6,551.8H163v-3h3.6V551.8z M166.6,547.5H163v-3h3.6V547.5z M166.6,543.3H163v-3h3.6V543.3z M166.6,538.4H163v-3h3.6V538.4z
				 M166.6,534.2H163v-3h3.6V534.2z M166.6,530H163v-3h3.6V530z M172.1,560.8h-3.6v-3h3.6V560.8z M172.1,556.6h-3.6v-3h3.6V556.6z
				 M172.1,551.8h-3.6v-3h3.6V551.8z M172.1,547.5h-3.6v-3h3.6V547.5z M172.1,543.3h-3.6v-3h3.6V543.3z M172.1,538.4h-3.6v-3h3.6
				V538.4z M172.1,534.2h-3.6v-3h3.6V534.2z M172.1,530h-3.6v-3h3.6V530z M176.9,560.8h-3.6v-3h3.6V560.8z M176.9,556.6h-3.6v-3h3.6
				V556.6z M176.9,551.8h-3.6v-3h3.6V551.8z M176.9,547.5h-3.6v-3h3.6V547.5z M176.9,543.3h-3.6v-3h3.6V543.3z M176.9,538.4h-3.6v-3
				h3.6V538.4z M176.9,534.2h-3.6v-3h3.6V534.2z M176.9,530h-3.6v-3h3.6V530z M181.8,560.8h-3.6v-3h3.6V560.8z M181.8,556.6h-3.6v-3
				h3.6V556.6z M181.8,551.8h-3.6v-3h3.6V551.8z M181.8,547.5h-3.6v-3h3.6V547.5z M181.8,543.3h-3.6v-3h3.6V543.3z M181.8,538.4
				h-3.6v-3h3.6V538.4z M181.8,534.2h-3.6v-3h3.6V534.2z M181.8,530h-3.6v-3h3.6V530z M186.6,560.8H183v-3h3.6V560.8z M186.6,556.6
				H183v-3h3.6V556.6z M186.6,551.8H183v-3h3.6V551.8z M186.6,547.5H183v-3h3.6V547.5z M186.6,543.3H183v-3h3.6V543.3z M186.6,538.4
				H183v-3h3.6V538.4z M186.6,534.2H183v-3h3.6V534.2z M186.6,530H183v-3h3.6V530z M192,560.8h-3.6v-3h3.6V560.8z M192,556.6h-3.6
				v-3h3.6V556.6z M192,551.8h-3.6v-3h3.6V551.8z M192,547.5h-3.6v-3h3.6V547.5z M192,543.3h-3.6v-3h3.6V543.3z M192,538.4h-3.6v-3
				h3.6V538.4z M192,534.2h-3.6v-3h3.6V534.2z M192,530h-3.6v-3h3.6V530z M196.9,560.8h-3.6v-3h3.6V560.8z M196.9,556.6h-3.6v-3h3.6
				V556.6z M196.9,551.8h-3.6v-3h3.6V551.8z M196.9,547.5h-3.6v-3h3.6V547.5z M196.9,543.3h-3.6v-3h3.6V543.3z M196.9,538.4h-3.6v-3
				h3.6V538.4z M196.9,534.2h-3.6v-3h3.6V534.2z M196.9,530h-3.6v-3h3.6V530z M201.7,560.8h-3.6v-3h3.6V560.8z M201.7,556.6h-3.6v-3
				h3.6V556.6z M201.7,551.8h-3.6v-3h3.6V551.8z M201.7,547.5h-3.6v-3h3.6V547.5z M201.7,543.3h-3.6v-3h3.6V543.3z M201.7,538.4
				h-3.6v-3h3.6V538.4z M201.7,534.2h-3.6v-3h3.6V534.2z M201.7,530h-3.6v-3h3.6V530z M206.6,560.8h-3.6v-3h3.6V560.8z M206.6,556.6
				h-3.6v-3h3.6V556.6z M206.6,551.8h-3.6v-3h3.6V551.8z M206.6,547.5h-3.6v-3h3.6V547.5z M206.6,543.3h-3.6v-3h3.6V543.3z
				 M206.6,538.4h-3.6v-3h3.6V538.4z M206.6,534.2h-3.6v-3h3.6V534.2z M206.6,530h-3.6v-3h3.6V530z M211.4,560.8h-3.6v-3h3.6V560.8z
				 M211.4,556.6h-3.6v-3h3.6V556.6z M211.4,551.8h-3.6v-3h3.6V551.8z M211.4,547.5h-3.6v-3h3.6V547.5z M211.4,543.3h-3.6v-3h3.6
				V543.3z M211.4,538.4h-3.6v-3h3.6V538.4z M211.4,534.2h-3.6v-3h3.6V534.2z M211.4,530h-3.6v-3h3.6V530z M216.9,560.8h-3.6v-3h3.6
				V560.8z M216.9,556.6h-3.6v-3h3.6V556.6z M216.9,551.8h-3.6v-3h3.6V551.8z M216.9,547.5h-3.6v-3h3.6V547.5z M216.9,543.3h-3.6v-3
				h3.6V543.3z M216.9,538.4h-3.6v-3h3.6V538.4z M216.9,534.2h-3.6v-3h3.6V534.2z M216.9,530h-3.6v-3h3.6V530z M216.9,525.1h-3.6
				l0,0c0,0,0,0-0.6,0H212l0,0h-3.6l0,0h-1.2l0,0h-3.6l0,0h-1.2l0,0h-3.6l0,0h-1.2l0,0h-3.6l0,0h-1.2l0,0H189l0,0h-1.2l0,0h-3.6l0,0
				H183l0,0h-4.8l0,0h-1.2l0,0h-3.6l0,0h-1.2l0,0h-3.6l0,0h-1.2l0,0h-3.6v-3h2.4v-1.2h-2.4v-3h2.4v-1.2h-2.4v-3h2.4v-1.2h-2.4v-3
				h2.4v-1.2h-2.4v-3h2.4v-1.2h-2.4v-3h2.4v-1.2h-2.4v-3h2.4v-1.2h-2.4v-3h2.4v-1.2h-2.4v-3h2.4v-2.4h-2.4v-3.6h2.4v-1.2h-2.4v-3.6
				h2.4v-1.2h-2.4v-3.6h2.4v-1.2h-2.4v-3.6h2.4v-1.2h-2.4v-3.6h2.4v-1.2h-2.4v-3.6h2.4v-2.4h-2.4v-3.6h3.6v1.2c0,0,0.6,0,0.6,0.6
				l0.6,0.6v-2.4h3.6v3.6h-3l0.6,1.2h2.4v3l1.2,1.8l0,0h3.6v3.6h-1.2l0.6,1.2h0.6v0.6l1.2,1.8v-2.4h3.6v3.6h-3l0.6,1.2h2.4v3.6
				l1.2,1.8l0,0h3.6v3.6h-1.2l0.6,1.2h0.6v1.2l1.2,1.8v-3h3.6v3.6h-3l0.6,1.2h2.4v3l0,0l1.2,2.4v-1.2h3.6v3h-2.4l0.6,1.2h1.8v2.4
				l1.2,1.8h3.6v3h-1.8l0.6,1.2h0.6v1.2l1.2,1.8v-3h3.6v3h-3.6l0.6,1.2h3v3h-0.6l1.8,3v-1.8h3.6v3h-3l0.6,1.2h1.8v3l1.2,1.8v1.2h3.6
				v3L216.9,525.1L216.9,525.1z M216.9,520.9h-3.6v-3h3.6V520.9z M216.9,516.7h-3.6v-3h3.6V516.7z M216.9,512.4h-3.6v-3h3.6V512.4z
				 M216.9,507.6h-3.6v-3h3.6V507.6z M216.9,503.3h-3.6v-3h3.6V503.3z M216.9,499.1h-3.6v-3h3.6V499.1z M216.9,494.3h-3.6v-3h3.6
				V494.3z M216.9,490h-3.6v-3h3.6V490z M216.9,485.8h-3.6v-3.6h3.6V485.8z M221.7,560.8h-3.6v-3h3.6V560.8z M221.7,556.6h-3.6v-3
				h3.6V556.6z M221.7,551.8h-3.6v-3h3.6V551.8z M221.7,547.5h-3.6v-3h3.6V547.5z M221.7,543.3h-3.6v-3h3.6V543.3z M221.7,538.4
				h-3.6v-3h3.6V538.4z M221.7,534.2h-3.6v-3h3.6V534.2z M221.7,530h-3.6v-3h3.6V530z M221.7,525.1h-3.6v-3h3.6V525.1z M221.7,520.9
				h-3.6v-3h3.6V520.9z M221.7,516.7h-3.6v-3h3.6V516.7z M221.7,512.4h-3.6v-3h3.6V512.4z M221.7,507.6h-3.6v-3h3.6V507.6z
				 M221.7,503.3h-3.6v-3h3.6V503.3z M221.7,499.1h-3.6v-3h3.6V499.1z M221.7,494.3h-3.6v-3h3.6V494.3z M226.5,560.8h-3.6v-3h3.6
				V560.8z M226.5,556.6h-3.6v-3h3.6V556.6z M226.5,551.8h-3.6v-3h3.6V551.8z M226.5,547.5h-3.6v-3h3.6V547.5z M226.5,543.3h-3.6v-3
				h3.6V543.3z M226.5,538.4h-3.6v-3h3.6V538.4z M226.5,534.2h-3.6v-3h3.6V534.2z M226.5,530h-3.6v-3h3.6V530z M226.5,525.1h-3.6v-3
				h3.6V525.1z M226.5,520.9h-3.6v-3h3.6V520.9z M226.5,516.7h-3.6v-3h3.6V516.7z M226.5,512.4h-3.6v-3h3.6V512.4z M226.5,507.6
				h-3.6v-3h3.6V507.6z M226.5,503.3h-3.6v-3h3.6V503.3z M231.4,560.8h-3.6v-3h3.6V560.8z M231.4,556.6h-3.6v-3h3.6V556.6z
				 M231.4,551.8h-3.6v-3h3.6V551.8z M231.4,547.5h-3.6v-3h3.6V547.5z M231.4,543.3h-3.6v-3h3.6V543.3z M231.4,538.4h-3.6v-3h3.6
				V538.4z M231.4,534.2h-3.6v-3h3.6V534.2z M231.4,530h-3.6v-3h3.6V530z M231.4,525.1h-3.6v-3h3.6V525.1z M231.4,520.9h-3.6v-3h3.6
				V520.9z M231.4,516.7h-3.6v-3h3.6V516.7z M231.4,512.4h-3.6v-3h3.6V512.4z M231.4,507.6h-3.6v-3h3.6V507.6z M236.2,560.8h-3.6v-3
				h3.6V560.8z M236.2,556.6h-3.6v-3h3.6V556.6z M236.2,551.8h-3.6v-3h3.6V551.8z M236.2,547.5h-3.6v-3h3.6V547.5z M236.2,543.3
				h-3.6v-3h3.6V543.3z M236.2,538.4h-3.6v-3h3.6V538.4z M236.2,534.2h-3.6v-3h3.6V534.2z M236.2,530h-3.6v-3h3.6V530z M236.2,525.1
				h-3.6v-3h3.6V525.1z M236.2,520.9h-3.6v-3h3.6V520.9z M236.2,516.7h-3.6v-3h3.6V516.7z M241.7,560.8h-3.6v-3h3.6V560.8z
				 M241.7,556.6h-3.6v-3h3.6V556.6z M241.7,551.8h-3.6v-3h3.6V551.8z M241.7,547.5h-3.6v-3h3.6V547.5z M241.7,543.3h-3.6v-3h3.6
				V543.3z M241.7,538.4h-3.6v-3h3.6V538.4z M241.7,534.2h-3.6v-3h3.6V534.2z M241.7,530h-3.6v-3h3.6V530z M241.7,525.1h-3.6v-3h3.6
				V525.1z M246.5,560.8h-3.6v-3h3.6V560.8z M246.5,556.6h-3.6v-3h3.6V556.6z M246.5,551.8h-3.6v-3h3.6V551.8z M246.5,547.5h-3.6v-3
				h3.6V547.5z M246.5,543.3h-3.6v-3h3.6V543.3z M246.5,538.4h-3.6v-3h3.6V538.4z M246.5,534.2h-3.6v-3h3.6V534.2z M251.4,560.8
				h-3.6v-3h3.6V560.8z M251.4,556.6h-3.6v-3h3.6V556.6z M251.4,551.8h-3.6v-3h3.6V551.8z M251.4,547.5h-3.6v-3h3.6V547.5z
				 M251.4,543.3h-3.6v-3h3.6V543.3z M251.4,538.4h-3.6v-3h3.6V538.4z M256.2,560.8h-3.6v-3h3.6V560.8z M256.2,556.6h-3.6v-3h3.6
				V556.6z M256.2,551.8h-3.6v-3h3.6V551.8z M256.2,547.5h-3.6v-3h3.6V547.5z M261.1,560.8h-3.6v-3h3.6V560.8z M261.1,556.6h-3.6v-3
				h3.6V556.6z M266.5,560.8h-3.6v-3h3.6V560.8z"/>
			<line class="st10" x1="133.3" y1="357.5" x2="133.3" y2="560.8"/>
		</g>
		<g>
			
				<linearGradient id="SVGID_3_" gradientUnits="userSpaceOnUse" x1="260.9761" y1="462.4084" x2="279.7483" y2="462.4084" gradientTransform="matrix(0.9992 -4.010000e-02 4.010000e-02 0.9992 -53.4648 21.9314)">
				<stop  offset="0" style="stop-color:#F7BD71"/>
				<stop  offset="0.3034" style="stop-color:#F7BC6E"/>
				<stop  offset="0.5557" style="stop-color:#F5B763"/>
				<stop  offset="0.789" style="stop-color:#F3B052"/>
				<stop  offset="1" style="stop-color:#F0A63B"/>
			</linearGradient>
			<path class="st5" d="M223.5,393.2c0,0,0.6,0.6,1.2,0l1.8-1.2l2.4,1.8h0.6h1.8c0.6,0,0.6,0,0.6-0.6l1.8-3l2.4,3l0.6,0.6l0,0h0.6
				l1.8-1.8l2.4-1.2l6.7,161.6c-0.6,1.2-2.4,3-9.1,3.6c-6.7,0-9.1-1.8-9.7-2.4l-6.7-160.4L223.5,393.2z"/>
			<path class="st12" d="M229,555.4c1.8,1.2,4.2,1.8,9.7,1.8c4.8,0,7.9-1.2,9.1-2.4v2.4c-0.6,1.2-2.4,3-9.1,3.6
				c-6.7,0-9.1-1.8-9.7-2.4V555.4z"/>
			<path class="st13" d="M230.8,368.4l9.7,20.6l-3,1.8l0,0l-1.2,1.2l-2.4-3l-0.6-0.6c0,0-0.6,0-0.6,0.6l-1.8,3.6h-1.2l-2.4-2.4
				c0,0-0.6-0.6-1.2,0l-1.8,1.2l-1.8-1.2L230.8,368.4z"/>
			<path class="st14" d="M242.3,568.7h-6.7c-3,0-6.1-2.4-6.1-5.4v-3c1.8,1.2,4.2,1.8,9.7,1.8c4.8,0,7.9-1.2,9.1-2.4v3
				C248.3,565.7,245.9,568.7,242.3,568.7z"/>
			<path class="st15" d="M230.8,364.1c-0.6,0-0.6,0.6-1.2,0.6l-9.7,24.2l2.4,0.6l8.5-21.2l9.7,20.6h2.4l-11.5-23.6
				C232,364.7,231.4,364.1,230.8,364.1z"/>
			<path class="st16" d="M230.2,560.2c1.8,1.2,4.2,1.8,8.5,1.2c4.8,0,7.9-1.2,9.1-2.4c1.8-0.6,2.4-2.4,2.4-2.4l-6.7-167.7v-0.6h-2.4
				l-3,1.8l0,0l-1.2,1.2l-2.4-3l-0.6-0.6c0,0-0.6,0-0.6,0.6l-1.8,3.6h-1.2l-2.4-2.4c0,0-0.6-0.6-1.2,0l-1.8,1.2l-1.8-1.2l-2.4-0.6
				v0.6l6.7,168.3l2.4,1.8L230.2,560.2z M222.3,392l0.6,0.6c0,0,0.6,0.6,1.2,0l1.8-1.2l2.4,1.8h0.6h1.8c0.6,0,0.6,0,0.6-0.6l1.8-3
				l2.4,3l0.6,0.6l0,0h0.6l1.8-1.8l2.4-1.2l6.7,161.6c-0.6,1.2-2.4,3-9.1,3.6c-6.7,0-9.1-1.8-9.7-2.4L222.3,392z M229,555.4
				c1.8,1.2,4.2,1.8,9.7,1.8c4.8,0,7.9-1.2,9.1-2.4v2.4c-0.6,1.2-2.4,3-9.1,3.6c-6.7,0-9.1-1.8-9.7-2.4V555.4z"/>
			<g>
				<path class="st17" d="M229.6,560.2c0,0,0.6,0,0.6,0.6L229.6,560.2z"/>
				<path class="st17" d="M235.6,571.1h6.7c4.8,0,7.9-4.2,7.9-8.5v-5.4c0,0-0.6,1.2-2.4,2.4v3c0,3-2.4,6.1-5.4,6.1h-6.7
					c-3,0-6.1-2.4-6.1-5.4v-3l-2.4-1.8v5.4C227.2,568.1,231.4,571.7,235.6,571.1z"/>
			</g>
			<g class="st18">
				
					<linearGradient id="SVGID_4_" gradientUnits="userSpaceOnUse" x1="266.2339" y1="463.4202" x2="267.4276" y2="463.4202" gradientTransform="matrix(0.9992 -4.010000e-02 4.010000e-02 0.9992 -53.4648 21.9314)">
					<stop  offset="0" style="stop-color:#F7BD71"/>
					<stop  offset="0.3034" style="stop-color:#F7BC6E"/>
					<stop  offset="0.5557" style="stop-color:#F5B763"/>
					<stop  offset="0.789" style="stop-color:#F3B052"/>
					<stop  offset="1" style="stop-color:#F0A63B"/>
				</linearGradient>
				<path class="st6" d="M235,554.2C234.4,554.2,234.4,554.2,235,554.2L227.8,395c0-0.6,0-0.6,0.6-0.6c0.6,0,0.6,0,0.6,0.6
					l6.7,158.6C235.6,554.2,235,554.2,235,554.2L235,554.2z"/>
			</g>
			<g class="st18">
				
					<linearGradient id="SVGID_5_" gradientUnits="userSpaceOnUse" x1="272.1758" y1="463.6629" x2="273.3688" y2="463.6629" gradientTransform="matrix(0.9992 -4.010000e-02 4.010000e-02 0.9992 -53.4648 21.9314)">
					<stop  offset="0" style="stop-color:#F7BD71"/>
					<stop  offset="0.3034" style="stop-color:#F7BC6E"/>
					<stop  offset="0.5557" style="stop-color:#F5B763"/>
					<stop  offset="0.789" style="stop-color:#F3B052"/>
					<stop  offset="1" style="stop-color:#F0A63B"/>
				</linearGradient>
				<path class="st11" d="M241.1,554.2C240.5,554.2,240.5,554.2,241.1,554.2L233.8,395c0-0.6,0-0.6,0.6-0.6s0.6,0,0.6,0.6l6.7,158.6
					C241.7,554.2,241.1,554.2,241.1,554.2L241.1,554.2z"/>
			</g>
			<path class="st13" d="M230.8,368.4l9.7,20.6l-3,1.8l0,0l-1.2,1.2l-2.4-3l-0.6-0.6c0,0-0.6,0-0.6,0.6l-1.8,3.6h-1.2l-2.4-2.4
				c0,0-0.6-0.6-1.2,0l-1.8,1.2l-1.8-1.2L230.8,368.4z"/>
			<path class="st21" d="M233.8,373.8l-2.4-5.4l-1.8,5.4C230.2,374.4,231.4,374.4,233.8,373.8z"/>
			<path class="st21" d="M230.8,364.1c-0.6,0-0.6,0.6-1.2,0.6l-2.4,6.7l0.6,1.2c0,0,0.6,0.6,1.2,1.2l1.8-5.4l2.4,5.4
				c0.6,0,1.2-0.6,1.8-1.2l0,0l-3.6-7.3C232,364.7,231.4,364.1,230.8,364.1z"/>
		</g>
	</g>
</g>
</svg>
