<?xml version="1.0" encoding="utf-8"?>
<!-- Generator: Adobe Illustrator 21.0.0, SVG Export Plug-In . SVG Version: 6.00 Build 0)  -->
<svg version="1.1" id="圖層_1" xmlns="http://www.w3.org/2000/svg" xmlns:xlink="http://www.w3.org/1999/xlink" x="0px" y="0px"
	 viewBox="0 0 822.9 601.4" style="enable-background:new 0 0 822.9 601.4;" xml:space="preserve">
<style type="text/css">
	.st0{fill:url(#SVGID_1_);}
	.st1{fill:#D59543;}
	.st2{fill:#AB6C21;}
	.st3{opacity:0.6;fill:#D59543;enable-background:new    ;}
	.st4{fill:url(#SVGID_2_);}
	.st5{fill:url(#SVGID_3_);}
	.st6{fill:url(#SVGID_4_);}
	.st7{fill:#AC6D21;}
	.st8{fill:#933023;}
	.st9{fill:#5F5F5F;}
	.st10{fill:#13535D;}
	.st11{fill:#0A1315;}
	.st12{fill:#121F22;}
	.st13{fill:#223237;}
	.st14{fill:url(#SVGID_5_);}
	.st15{fill:#B4412A;}
	.st16{fill:url(#SVGID_6_);}
	.st17{opacity:0.6;}
	.st18{opacity:0.4;fill:#223237;enable-background:new    ;}
	.st19{opacity:0.6;fill:#247082;enable-background:new    ;}
	.st20{fill:#33AEAA;}
	.st21{opacity:0.7;fill:#223237;enable-background:new    ;}
	.st22{fill:url(#SVGID_7_);}
	.st23{fill:url(#SVGID_8_);}
	.st24{fill:url(#SVGID_9_);}
	.st25{fill:url(#SVGID_10_);}
	.st26{fill:url(#SVGID_11_);}
	.st27{fill:url(#SVGID_12_);}
	.st28{fill:url(#SVGID_13_);}
	.st29{fill:url(#SVGID_14_);}
	.st30{fill:url(#SVGID_15_);}
	.st31{fill:url(#SVGID_16_);}
	.st32{fill:url(#SVGID_17_);}
	.st33{fill:url(#SVGID_18_);}
	.st34{fill:url(#SVGID_19_);}
	.st35{fill:url(#SVGID_20_);}
	.st36{fill:url(#SVGID_21_);}
	.st37{fill:url(#SVGID_22_);}
	.st38{fill:url(#SVGID_23_);}
	.st39{fill:url(#SVGID_24_);}
	.st40{fill:url(#SVGID_25_);}
	.st41{fill:url(#SVGID_26_);}
	.st42{fill:url(#SVGID_27_);}
</style>
<g>
	<g>
		
			<linearGradient id="SVGID_1_" gradientUnits="userSpaceOnUse" x1="3519.8391" y1="219.8995" x2="3604.8789" y2="219.8995" gradientTransform="matrix(-1 0 0 -1 4123.6563 602)">
			<stop  offset="0" style="stop-color:#F2D397"/>
			<stop  offset="0.5331" style="stop-color:#F3D093"/>
			<stop  offset="0.7526" style="stop-color:#F5CC8F"/>
			<stop  offset="1" style="stop-color:#F3B699"/>
		</linearGradient>
		<path class="st0" d="M518.6,358.1l8.1-18.3c0-0.4,0-1,0.2-1.5c0-0.2,0-0.4,0-0.4c0-0.4,0.2-0.8,0.2-1s0-0.4,0.2-0.6
			c0.2-0.4,0.2-0.8,0.4-1.2c0-0.2,0-0.2,0.2-0.4c0.2-0.6,0.4-1,0.6-1.7c0-0.2,0.2-0.2,0.2-0.4c0.2-0.4,0.4-0.8,0.6-1.2
			c0-0.2,0.2-0.4,0.2-0.6c0.2-0.4,0.4-0.8,0.6-1c0-0.2,0.2-0.4,0.2-0.6c2.9-5.6,7.1-11,10-14.6c0.2-0.2,0.2-0.2,0.4-0.4
			c15.8,20,33.7,47.3,47.9,81.6c0,0,12.9,12.3,12.9,29.8c0,17.5-13.3,23.1-20.6,21.4l0,0c-8.1,7.1-19.6,2.7-21.9-8.7v-0.2
			c-0.4,0.2-1,0.6-1.7,0.8c-4.8,2.5-11.2-0.6-13.3-5l0,0l0,0c0-0.2-0.2-0.4-0.2-0.6l0.2-0.2l-1.7-14.2h0.4v-3.5l0.6-2.5
			c-0.2-0.6-0.6-1.5-0.8-2.3l-0.6-1l-0.8-2.5v-0.6c-2.7-6.5-6.7-15.4-11.9-26c-3.3-6.9-7.3-14.2-11.2-21L518.6,358.1z"/>
	</g>
	<path class="st1" d="M569.2,418.3c0,0,2.5,19.2-8.3,25.4l-1.9-5.4C559,438.3,570.4,432.4,569.2,418.3z"/>
	<path class="st1" d="M587.7,424.3c0,0,5,12.7,1.2,21.9c0,0-3.3,1.2-8.3,0.8C580.9,447,589.4,442.6,587.7,424.3z"/>
	<path class="st2" d="M569.6,424.3c0,0,0.2,11.5-9.6,15.6l-0.4-1.7C559.6,438.3,569.6,429.1,569.6,424.3z"/>
	<path class="st2" d="M588.8,431c0,0,0.6,10.6-5,16.2l-3.5-0.2C580.2,447,587.7,439.7,588.8,431z"/>
	<path class="st3" d="M518.6,358.1l8.1-18.3c0-0.4,0-1,0.2-1.5c0-0.2,0-0.4,0-0.4c0-0.4,0.2-0.8,0.2-1s0-0.4,0.2-0.6
		c0.2-0.4,0.2-0.8,0.4-1.2c0-0.2,0-0.2,0.2-0.4c0.2-0.6,0.4-1,0.6-1.7c0-0.2,0.2-0.2,0.2-0.4c0.2-0.4,0.4-0.8,0.6-1.2
		c0-0.2,0.2-0.4,0.2-0.6c0.2-0.4,0.4-0.8,0.6-1c0-0.2,0.2-0.4,0.2-0.6c0,0,0-0.2,0.2-0.2c10.8,21.2,22.5,49.6,23.1,73.5
		c0,0-13.3,16.9-8.5,33.3c-0.4-0.4-0.6-1-0.8-1.7l0,0l0,0c0-0.2-0.2-0.4-0.2-0.6l0.2-0.2l-1.7-14.2h0.4v-3.5l0.8-3.1l-1.9-2.7
		l-1-2.5l-20-43.5c0,0-1-1.2-2.9-4.2L518.6,358.1z"/>
	<g>
		<path class="st2" d="M542.8,414.3l-0.6-1.2l0,0c-0.2-0.4-13.1-28.9-25-52.1l1.2-2.9l0,0c10.8,20.8,22.7,47.1,25.4,52.7
			c0.4-1.2,0.8-1.7,0.8-1.7l0,0c1-1.9,2.3-3.5,2.5-3.5c0.2-0.2,0.6-0.2,0.8,0s0.2,0.6,0,0.8c-0.2,0.2-0.6,0.6-0.8,1
			c0,0-6.9,10.6-3.1,25.8l0,0c0.8,2.3,2.9,4.2,5.4,5.2c2.5,1,5.2,1,7.3,0c8.5-4.2,13.1-13.3,11.2-22.3c0-0.4,0.2-0.6,0.4-0.8
			c0.4,0,0.6,0.2,0.8,0.4c1.9,8.7-2.1,17.7-9.8,22.5c1.2,5.4,4.6,9.4,9.2,10.8c4.4,1.2,9,0,12.5-3.5c9-9,5.4-22.5,5.4-22.5
			c0-0.4,0.2-0.6,0.4-0.8c0.4,0,0.6,0.2,0.8,0.4c0,0.2,3.5,14.4-5.8,23.7l0,0c2.9,0.2,7.3-0.6,11.2-3.7c3.3-2.7,7.3-7.9,7.3-17.3
			c0-16.9-12.7-29.1-12.7-29.4l-0.2-0.2c-14-34.4-32.1-61.4-47.7-81.2l0.2-0.2c1-1.2,2.1-2.3,2.7-3.1l0,0c5.2,6.5,10.6,13.7,16,22.1
			l0,0c0,0,25.8,38.5,31.6,60.2c7.1,9.2,20.2,30.2,7.7,46c-1.2,1.9-2.7,3.3-4,4.4c-0.4,0.4-1,0.8-1.7,1c-0.2,0-0.2,0.2-0.2,0.2l0,0
			c-2.9,1.9-6,2.7-9.2,2.7c-0.8,0-1.7,0-2.3-0.2c-2.7,2.3-5.8,3.3-9,3.3c-1.2,0-2.5-0.2-3.7-0.6c-5-1.5-8.5-5.6-10-11.5
			c-0.2,0.2-0.6,0.4-0.8,0.4c-1.2,0.6-2.7,0.8-4.2,0.8s-2.7-0.2-4.2-0.8c-2.7-1-4.8-3.1-5.8-5.4l0,0c0,0,0,0,0-0.2
			c0-0.2-0.2-0.2-0.2-0.4l0,0c0,0-1-2.7-1.5-7.1c-0.2-1.7-0.2-3.7,0-5.8C541.9,418.3,542.3,416,542.8,414.3z"/>
	</g>
</g>
<g>
	<g>
		<g>
			
				<linearGradient id="SVGID_2_" gradientUnits="userSpaceOnUse" x1="319.2492" y1="283.9739" x2="369.7194" y2="283.9739" gradientTransform="matrix(1 -1.834557e-03 -1.834557e-03 -1 1.9063 603.7492)">
				<stop  offset="0" style="stop-color:#EFD980"/>
				<stop  offset="0.2037" style="stop-color:#EFD87C"/>
				<stop  offset="0.3836" style="stop-color:#EED572"/>
				<stop  offset="0.5546" style="stop-color:#EDCF5F"/>
				<stop  offset="0.7191" style="stop-color:#EBC743"/>
				<stop  offset="0.7526" style="stop-color:#EBC63C"/>
				<stop  offset="1" style="stop-color:#E7AE17"/>
			</linearGradient>
			<path class="st4" d="M371.2,319.8c-0.3-1.6-1.2-4.7-3.1-9.3c-3.4-9-15.9-15.2-15.9-15.2l-1.9-4.7l-27.7-4.7l-2.2,28.9
				c5.9,32.7,31.7,37,38,37.6C362.5,339.4,366.8,328.5,371.2,319.8z"/>
			<path class="st7" d="M359.4,352.4L359.4,352.4c0-0.6-0.3-0.9-0.9-0.9c-26.4-1.9-35.5-28.3-35.5-28.6c0-0.3-0.6-0.6-0.9-0.6
				l-0.3-1.9h-1.6c0,0,1.6,5,1.6,5.3c1.6,4,3.7,7.5,6.5,10.9c2.5,3.1,5.3,6.2,8.4,8.7c5.9,4.7,12.8,7.5,20.2,8.4
				c0.3,0,2.5,0.3,2.8,0.3l0.6-1.6C360,352.4,359.7,352.4,359.4,352.4z"/>
			<path class="st7" d="M369,310.4L369,310.4c-0.3-1.6-1.6-3.4-2.8-5l0,0l-0.3-0.3c-0.9-0.9-2.2-2.5-2.2-2.5c-2.5-2.5-5-4.7-5.9-5.6
				c-0.3-0.3-0.3-0.3-0.3-0.3l-0.3-0.3l-1.2,0.6c-0.6-0.3-0.9-0.6-0.9-0.6c-0.3-0.3-0.9,0-1.2,0.3s0,0.9,0.3,1.2
				c0,0,10.6,6.8,13.4,14c0,0.3,0.6,0.6,0.9,0.6h0.3c0.3-0.3,0.6-0.6,0.6-1.2C369.3,310.8,369.3,310.8,369,310.4z"/>
		</g>
		<g>
			<g>
				<path class="st8" d="M326.4,284l-7.5-2.5c-0.6,0-1.2-0.3-1.6-0.9c-0.3-0.6-0.3-1.2,0.3-1.9c2.5-4,2.5-10.6,2.5-10.9h1.2
					c0,0.3,0,6.8-2.5,11.5c0,0.3,0,0.3,0,0.6l0.3,0.3l7.5,2.5L326.4,284z"/>
				
					<rect x="298.5" y="228" transform="matrix(0.3461 -0.9382 0.9382 0.3461 -22.7541 432.4067)" class="st9" width="0.6" height="9"/>
				<polygon class="st9" points="302.1,237.6 293.4,234.5 293.7,233.6 302.4,237 				"/>
				<path class="st10" d="M310.2,256.9l-0.3-0.9c0,0,6.2-3.1,7.8-4.7c0.9-0.9,4.7-12.8,7.2-20.2v-0.3l5.6,0.3
					c0.3-1.2,0.6-4.4,0.6-4.4h0.9c0,0.3-0.6,4-0.6,5v0.3l-5.9-0.3c-0.9,3.1-5.6,19-7.2,20.2C316.8,253.5,310.5,256.6,310.2,256.9z"
					/>
				<path class="st10" d="M324.8,324.4h-0.3c-0.3-0.3-0.3-0.3,0-0.6c10.3-9.6,17.1-34.8,17.1-42.6c0-1.2-0.3-1.6-0.3-1.6
					c-0.9-0.9-2.5-1.6-4-1.9c-1.9-0.6-3.4-1.2-4-2.5c-1.2-2.2,1.2-6.8,1.6-7.5c0-0.3,0.3-0.3,0.6-0.3c0,0,7.2,2.2,9,2.2
					c0,0,0.3,0,0.3-0.3c0.9-0.9,0.9-4,0.9-5c0,0,0-0.3,0.3-0.3h0.3c6.8,1.6,14.3,3.1,15.2,2.8c0.9-0.6,4-10.3,6.5-19.6
					c-0.9-0.3-2.8-1.2-2.2-3.1c0.3-1.9,1.2-4.7,1.2-4.7c0-0.3,0.3-0.3,0.6-0.3s0.3,0.3,0.3,0.6c0,0-0.9,2.8-1.2,4.7
					c-0.3,1.2,2.2,2.2,2.2,2.2c0.3,0,0.3,0.3,0.3,0.6c-1.2,4.7-5.3,19.6-7.2,20.5c-1.6,0.6-12.1-1.9-15.2-2.5c0,1.2,0,4-1.2,5
					c-0.3,0.3-0.6,0.3-0.9,0.3l0,0c-1.9,0-7.5-1.6-8.7-1.9c-0.9,1.9-2.2,5-1.6,6.2c0.6,0.9,2.2,1.6,3.7,2.2c1.6,0.6,3.1,1.2,4.4,2.2
					c0.3,0.3,0.6,0.6,0.6,2.2C342.3,289,335.4,314.5,324.8,324.4L324.8,324.4z"/>
				
					<rect x="298.8" y="239.4" transform="matrix(0.346 -0.9382 0.9382 0.346 -18.6591 453.9141)" class="st11" width="34.8" height="1.9"/>
				<path class="st11" d="M338.2,327.2c-4,0-9-0.6-15.2-3.1c-1.6-0.6-2.2-2.2-2.2-3.7c1.2-9.3,5.3-40.1,6.8-49.2
					c-2.8-0.9-14.9-5.9-16.8-6.8c-0.3,0-0.3-0.3-0.3-0.6l-0.9-7.2l-13.1-4.4c-0.3,0-0.3-0.3-0.3-0.3c0-0.3,0-0.3,0-0.6l12.1-32.4
					c0-0.3,0.6-0.6,0.9-0.3c23,7.5,53.8,17.7,70.6,25.2c0.3,0,0.3,0.3,0.3,0.6c-0.3,1.2-4.7,27.1-5.9,29.9c0,0.3-0.3,0.3-0.3,0.3
					c-0.3,0-4.4,1.6-15.2,3.7c-0.9,5-7.5,42.6-10.3,46.7c0,0,0,0-0.3,0.3C347.9,325.4,344.4,327.2,338.2,327.2z M311.8,263.5
					c2.8,1.2,16.8,6.8,16.8,6.8c0.3,0,0.3,0.3,0.3,0.6c-1.6,8.1-5.6,39.8-6.8,49.5c0,0.9,0.3,1.9,1.2,2.2
					c14.3,5.6,22.4,1.9,23.6,1.2c2.2-3.7,7.8-34.5,10-46.4c0-0.3,0.3-0.6,0.6-0.6c9.6-1.9,14.3-3.1,15.2-3.4
					c0.9-3.1,4-19.6,5.6-28.9c-16.5-7.5-46.7-17.4-69.4-24.9l-11.2,32l12.8,4c0.3,0,0.3,0.3,0.3,0.6L311.8,263.5z"/>
				<path class="st11" d="M320.8,226.7L320.8,226.7l-13.1-4.4c-0.3,0-0.3-0.3-0.3-0.6c0-0.3,0.3-0.3,0.6-0.3l12.8,4.4
					c0.3,0,0.3,0.3,0.3,0.6C321.1,226.4,321.1,226.7,320.8,226.7z"/>
				<path class="st11" d="M320.2,228.9C320.2,228.9,319.9,228.9,320.2,228.9l-13.1-4.4c-0.3,0-0.3-0.3-0.3-0.6
					c0-0.3,0.3-0.3,0.6-0.3l13.1,4.4c0.3,0,0.3,0.3,0.3,0.6C320.5,228.9,320.2,228.9,320.2,228.9z"/>
				<path class="st11" d="M319.9,231.1C319.9,231.1,319.6,231.1,319.9,231.1l-13.7-4.7c-0.3,0-0.3-0.3-0.3-0.6
					c0-0.3,0.3-0.3,0.6-0.3l13.4,4.7c0.3,0,0.3,0.3,0.3,0.6C320.2,231.1,319.9,231.1,319.9,231.1z"/>
				<path class="st11" d="M318.9,233.3L318.9,233.3l-13.7-4.4c0-0.3-0.3-0.3-0.3-0.6s0.3-0.3,0.6-0.3l13.4,4.4
					c0.3,0,0.3,0.3,0.3,0.6C319.2,233,319.2,233.3,318.9,233.3z"/>
				<path class="st11" d="M318,234.8L318,234.8l-13.1-4c-0.3,0-0.3-0.3-0.3-0.6c0-0.3,0.3-0.3,0.6-0.3l12.8,4c0.3,0,0.3,0.3,0.3,0.6
					C318.3,234.8,318,234.8,318,234.8z"/>
				<path class="st11" d="M316.8,237.3L316.8,237.3L304,233c-0.3,0-0.3-0.3-0.3-0.6c0-0.3,0.3-0.3,0.6-0.3l12.8,4
					c0.3,0,0.3,0.3,0.3,0.6C317.4,237.3,317.1,237.3,316.8,237.3z"/>
				<path class="st11" d="M316.4,239.5L316.4,239.5l-13.4-4.7c-0.3,0-0.3-0.3-0.3-0.6c0-0.3,0.3-0.3,0.6-0.3l13.4,4.4
					c0.3,0,0.3,0.3,0.3,0.6C316.8,239.2,316.8,239.5,316.4,239.5z"/>
				<path class="st11" d="M315.8,241.7L315.8,241.7l-13.4-4.4c-0.3,0-0.3-0.3-0.3-0.6c0-0.3,0.3-0.3,0.6-0.3l13.1,4.4
					c0.3,0,0.3,0.3,0.3,0.6C316.1,241.7,316.1,241.7,315.8,241.7z"/>
				<path class="st11" d="M315.2,243.5C315.2,243.5,314.9,243.5,315.2,243.5l-13.7-4c-0.3,0-0.3-0.3-0.3-0.6c0-0.3,0.3-0.3,0.6-0.3
					l13.4,4c0.3,0,0.3,0.3,0.3,0.6C315.5,243.5,315.2,243.5,315.2,243.5z"/>
				<path class="st11" d="M314,245.7L314,245.7l-13.4-4c-0.3,0-0.3-0.3-0.3-0.6s0.3-0.3,0.6-0.3l13.1,4
					C314.3,244.8,314.3,245.1,314,245.7L314,245.7z"/>
				<path class="st11" d="M313.6,247.6C313.3,247.6,313.3,247.6,313.6,247.6l-13.7-4.4c-0.3,0-0.3-0.3-0.3-0.6
					c0-0.3,0.3-0.3,0.6-0.3l13.4,4.4C314,246.7,314,247,313.6,247.6C314,247.6,313.6,247.6,313.6,247.6z"/>
				<path class="st11" d="M312.7,249.8L312.7,249.8l-13.7-4c-0.3,0-0.3-0.3-0.3-0.6c0-0.3,0.3-0.3,0.6-0.3l13.7,4
					c0.3,0,0.3,0.3,0.3,0.6C313.3,249.8,313,249.8,312.7,249.8z"/>
				<path class="st11" d="M311.8,251.9C311.8,251.9,311.5,251.9,311.8,251.9l-13.4-4.4c-0.3,0-0.3-0.3-0.3-0.6
					c0-0.3,0.3-0.3,0.6-0.3l13.1,4.4C312.1,251,312.1,251.3,311.8,251.9C312.1,251.9,311.8,251.9,311.8,251.9z"/>
				<path class="st11" d="M311.2,254.1L311.2,254.1l-13.7-4.4c-0.3,0-0.3-0.3-0.3-0.6c0-0.3,0.3-0.3,0.6-0.3l13.7,4.4
					c0,0.3,0.3,0.3,0.3,0.6C311.5,254.1,311.5,254.1,311.2,254.1z"/>
				<path class="st11" d="M288.1,249.8C288.1,249.8,287.8,249.8,288.1,249.8l-16.8-5.6c-0.3,0-0.3,0-0.3,0l-9.3-12.4
					c0-0.3-0.3-0.3,0-0.6l5.6-16.2c0-0.3,0.3-0.3,0.3-0.3l13.4-4.7h0.3c0,0,7.8,2.5,19,5.9c0.3,0,0.3,0.3,0.3,0.3c0,0.3,0,0.3,0,0.6
					L288.1,249.8C288.4,249.8,288.4,249.8,288.1,249.8z M272,243.2l15.9,5.3l11.5-31.4c-10-3.1-16.8-5.3-18-5.6l-12.8,4.4l-5.6,15.6
					L272,243.2z"/>
			</g>
			<polygon class="st12" points="299,247.9 310.8,251.9 310.5,252.9 298.4,249.1 			"/>
			<polygon class="st13" points="299.6,245.7 311.8,249.5 311.2,251 299.3,247 			"/>
			<polygon class="st13" points="300.6,243.5 312.7,247.6 312.1,248.5 300,245.1 			"/>
			<polygon class="st13" points="301.2,241.7 313.3,245.4 313,246.7 300.9,242.6 			"/>
			<polygon class="st13" points="304.3,233.3 316.4,237.3 315.8,238.3 304,234.2 			"/>
			<polygon class="st13" points="306.8,226.7 318.6,230.8 318.3,232 306.2,228.3 			"/>
			<polygon class="st13" points="307.4,224.9 319.6,228.9 318.9,229.9 307.1,225.8 			"/>
			<polygon class="st13" points="308.4,222.4 320.2,226.4 319.9,228 307.7,223.9 			"/>
			<polygon class="st13" points="318,233 317.7,233.9 305.6,230.2 305.9,228.9 			"/>
			<polygon class="st13" points="305.2,231.1 317.4,234.8 316.8,236.4 304.6,232.3 			"/>
			<polygon class="st13" points="315.5,239.2 315.2,240.4 303.1,236.7 303.7,235.1 			"/>
			<polygon class="st13" points="302.8,237.3 314.9,241.4 314.6,242.6 302.4,238.9 			"/>
			<polygon class="st13" points="302.1,239.5 314,243.2 313.6,244.5 301.5,240.7 			"/>
			<path class="st13" d="M323,224.6c2.5,0.9,5.3,1.9,8.1,2.8c0,0.9-0.3,2.8-0.6,3.7l-5.6-0.3v0.3c-2.5,7.8-6.2,19.3-7.2,20.2
				c-0.9,0.9-4,2.8-5.9,3.7L323,224.6z"/>
			<path class="st13" d="M309.3,220.2c3.7,1.2,7.8,2.5,12.1,4l-0.9,1.2l-11.8-4L309.3,220.2z"/>
			<path class="st13" d="M287.8,248.2l-10.9-3.7l11.5-31.4c3.1,0.9,6.8,2.2,11.2,3.4L287.8,248.2z"/>
			
				<linearGradient id="SVGID_3_" gradientUnits="userSpaceOnUse" x1="293.1541" y1="368.8345" x2="301.2424" y2="368.8345" gradientTransform="matrix(1 -1.834557e-03 -1.834557e-03 -1 1.9063 603.7492)">
				<stop  offset="0" style="stop-color:#898989"/>
				<stop  offset="0.5212" style="stop-color:#DCDDDD"/>
				<stop  offset="1" style="stop-color:#9FA0A0"/>
			</linearGradient>
			<polygon class="st5" points="294.4,233.9 295.3,232 302.4,234.5 301.8,236.7 			"/>
			<polygon class="st12" points="298.1,250.1 310.2,253.8 309.6,255.7 297.8,251.6 			"/>
			<path class="st15" d="M319.2,280.6c-0.3,0-0.3-0.3-0.3-0.3c0-0.3,0-0.3,0-0.6c2.2-3.4,2.5-8.4,2.5-10.6c2.8,1.2,5.3,2.2,6.2,2.5
				c-0.3,2.5-0.9,6.5-1.9,11.2L319.2,280.6z"/>
			
				<linearGradient id="SVGID_4_" gradientUnits="userSpaceOnUse" x1="309.5725" y1="327.5555" x2="366.6384" y2="327.5555" gradientTransform="matrix(1 -1.834557e-03 -1.834557e-03 -1 1.9063 603.7492)">
				<stop  offset="0" style="stop-color:#279E92"/>
				<stop  offset="0.1515" style="stop-color:#259790"/>
				<stop  offset="0.7197" style="stop-color:#237B86"/>
				<stop  offset="1" style="stop-color:#247082"/>
				<stop  offset="1" style="stop-color:#9FA0A0"/>
			</linearGradient>
			<path class="st6" d="M322,320.7c1.2-9.6,5.3-41.7,6.8-49.5c0-0.3,0-0.6-0.3-0.6c0,0-14-5.6-16.8-6.8l-0.9-7.2h0.3v-0.3
				c1.9-0.9,5.9-3.1,7.2-4.4c1.6-1.6,6.2-17.1,7.2-20.2l5.6,0.3v-0.3c0.3-0.6,0.6-3.1,0.6-4c12.1,4,24.6,8.4,34.8,12.4
				c-0.3,0.9-0.9,2.8-1.2,4c-0.3,1.9,1.6,2.8,2.2,3.1c-2.5,9-5.6,19-6.5,19.6c-0.9,0.3-8.7-0.9-15.2-2.8h-0.3l-0.3,0.3
				c0,1.2,0,4-0.9,5c-0.3,0.3-0.3,0.3-0.3,0.3c-1.9,0-8.7-2.2-9-2.2s-0.3,0-0.6,0.3c-0.3,0.6-2.8,5.3-1.6,7.5c0.6,1.2,2.5,1.9,4,2.5
				c1.6,0.6,3.1,1.2,4,1.9c0,0,0.3,0.3,0.3,1.6c0,7.5-6.5,32.4-16.8,42.3c-0.3,0-0.9-0.3-1.2-0.6S322,321.6,322,320.7z"/>
			<path class="st13" d="M372.8,273.7c-1.2,0.3-5.6,1.9-15.2,3.4c-0.3,0-0.6,0.3-0.6,0.6c-1.9,11.8-7.5,42.6-10,46.4
				c-0.9,0.6-8.7,3.7-21.5-0.6c10-10.3,16.5-35.2,16.5-42.6c0-1.6-0.3-1.9-0.6-2.2c-0.9-0.9-2.8-1.6-4.4-2.2
				c-1.6-0.6-3.1-1.2-3.7-2.2c-0.6-1.2,0.6-4.4,1.6-6.2c1.6,0.3,7.2,1.9,8.7,1.9l0,0c0.3,0,0.6-0.3,0.9-0.3c0.9-0.9,1.2-3.7,1.2-5
				c3.1,0.9,13.7,3.4,15.2,2.5c1.6-0.9,5.9-15.9,7.2-20.5c0-0.3,0-0.3-0.3-0.6c0,0-2.5-0.9-2.2-2.2s0.9-3.1,1.2-4
				c4,1.6,7.8,3.1,10.9,4.7C377.1,254.1,374,270.6,372.8,273.7z"/>
			<g class="st17">
				<path class="st13" d="M375.9,260.3c-1.2,4.4-3.1,9.6-5.9,11.8c-5.6,4-19.6,5.9-19.6,5.9l-5,6.5c0,0,1.6,11.8-2.2,19.6
					c-2.2,4.4-8.1,13.7-13.1,20.8c10.3,2.5,16.2-0.3,17.1-0.6c2.2-3.7,7.8-34.5,10-46.4c0-0.3,0.3-0.6,0.6-0.6
					c9.6-1.9,14.3-3.1,15.2-3.4C373.4,272.2,374.6,266.6,375.9,260.3z"/>
			</g>
			<path class="st18" d="M352.2,288.7c0,0-5.9,5.9-14,11.5c-2.8,8.7-7.2,18-12.4,23.3c12.8,4.4,20.2,0.9,21.5,0.6
				c1.9-2.8,5.6-21.8,8.1-35.8L352.2,288.7z"/>
			<path class="st19" d="M323.9,307.6c-0.6,5.6-1.2,10.3-1.6,13.1c0,0.9,0.3,1.9,1.2,2.2c0.3,0.3,0.9,0.3,1.2,0.6
				c5-5,9.3-13.7,12.1-22.4C332.9,303.6,328.6,306.1,323.9,307.6z"/>
			<path class="st20" d="M366.2,251.6C365.9,251.6,365.9,251.6,366.2,251.6c-8.7-2.8-39.5-13.7-39.8-14c-0.3,0-0.3-0.3-0.3-0.6
				c0-0.3,0.3-0.3,0.6-0.3c0.3,0,31.1,11.2,39.5,14C366.5,250.7,366.5,251,366.2,251.6C366.5,251.3,366.2,251.6,366.2,251.6z"/>
			<path class="st20" d="M344.8,263.8L344.8,263.8c-3.7-0.9-24.9-10-25.8-10.3c-0.3,0-0.3-0.3-0.3-0.6c0-0.3,0.3-0.3,0.6-0.3
				s22.1,9.3,25.8,10.3c0.3,0,0.3,0.3,0.3,0.6C345.1,263.5,345.1,263.8,344.8,263.8z"/>
			<path class="st21" d="M278.8,239.2l-2.2,5.6l10.9,3.7l2.2-5.9C286.6,241.4,282.2,240.1,278.8,239.2z"/>
		</g>
		<g>
			<path class="st7" d="M334.5,300.5c1.2-2.8,0.9-5.9-0.6-8.7s-4.7-5.3-8.4-5.9c0.9-1.2,1.6-2.8,1.6-4.7c0.3-5.6-4-9.6-8.1-11.2
				c-4.4-1.6-8.4-0.6-10.9,2.8c0,0.3-0.3,0.3-0.3,0.6c-1.9,2.8-2.2,6.8-0.9,10.3c0.9,2.5,2.5,4.4,4.7,5.6c-2.5,3.1-3.1,7.2-1.6,10.6
				c0.3,0.6,0.6,1.2,0.9,1.9c-1.2,0.9-3.7,3.4-3.7,7.8c0,3.4,1.9,7.2,4.7,9.3c1.6,1.2,4,2.2,7.2,2.2c1.6,0,3.1-0.3,4.7-0.6
				c4.7-1.2,7.5-3.4,8.4-6.5c1.2-3.4-0.3-6.8-2.2-9.3C332.3,303.6,333.6,302.4,334.5,300.5z M308,280.6c-0.9-6.2,3.1-8.7,3.7-9
				c1.9-0.9,4.4-0.9,6.8,0c3.7,1.2,7.5,5.3,7.2,9.6c0,2.8-1.9,4.7-3.1,5.6c-0.9,0.6-1.9,1.2-3.1,1.6
				C309.3,290.5,308,280.6,308,280.6z M331.4,313.2c-0.9,2.5-3.4,4.4-7.5,5.6c-1.9,0.6-3.4,0.6-5,0.6c-6.8-1.2-9-6.2-9-10.6
				c0-3.7,2.2-5.3,2.8-5.6l1.9,1.2c0.9,0.3,1.6,0.6,2.5,0.9c2.2,0.3,4.4,0.3,6.2,0.3c0.9,0,2.2,0,3.1-0.3c0.3,0,2.8-0.6,3.1-0.6
				C330.8,307,332.3,310.4,331.4,313.2z M319.9,304.5L319.9,304.5c-2.8-0.3-4.7-1.2-5.3-1.6c-2.2-1.6-3.1-4-3.4-6.5
				c-0.3-3.7,1.9-6.2,1.9-6.2c0.3,0,0.6,0.3,0.9,0.3c0.3,0,0.9,0,1.2,0c2.2,0,5.3-0.9,7.8-2.8c0.3-0.3,0.6-0.6,1.2-0.9
				c3.4,0.6,6.5,2.8,8.1,5.6c0.9,1.6,1.9,4.4,0.6,7.5C331.4,304.5,324.8,304.5,319.9,304.5z"/>
			
				<linearGradient id="SVGID_5_" gradientUnits="userSpaceOnUse" x1="308.2236" y1="291.7974" x2="330.2751" y2="291.7974" gradientTransform="matrix(1 -1.834557e-03 -1.834557e-03 -1 1.9063 603.7492)">
				<stop  offset="0" style="stop-color:#EFD980"/>
				<stop  offset="0.2037" style="stop-color:#EFD87C"/>
				<stop  offset="0.3836" style="stop-color:#EED572"/>
				<stop  offset="0.5546" style="stop-color:#EDCF5F"/>
				<stop  offset="0.7191" style="stop-color:#EBC743"/>
				<stop  offset="0.7526" style="stop-color:#EBC63C"/>
				<stop  offset="1" style="stop-color:#E7AE17"/>
			</linearGradient>
			<path class="st14" d="M331.4,313.2c-0.9,2.5-3.4,4.4-7.5,5.6c-1.9,0.6-3.4,0.6-5,0.6c-6.8-1.2-9-6.2-9-10.6
				c0-3.7,2.2-5.3,2.8-5.6l1.9,1.2c0.9,0.3,1.6,0.6,2.5,0.9c2.2,0.3,4.4,0.3,6.2,0.3c0.9,0,2.2,0,3.1-0.3c0.3,0,2.8-0.6,3.1-0.6
				C330.8,307,332.3,310.4,331.4,313.2z"/>
			
				<linearGradient id="SVGID_6_" gradientUnits="userSpaceOnUse" x1="310.0729" y1="307.4971" x2="332.4559" y2="307.4971" gradientTransform="matrix(1 -1.834557e-03 -1.834557e-03 -1 1.9063 603.7492)">
				<stop  offset="0" style="stop-color:#EFD980"/>
				<stop  offset="0.2037" style="stop-color:#EFD87C"/>
				<stop  offset="0.3836" style="stop-color:#EED572"/>
				<stop  offset="0.5546" style="stop-color:#EDCF5F"/>
				<stop  offset="0.7191" style="stop-color:#EBC743"/>
				<stop  offset="0.7526" style="stop-color:#EBC63C"/>
				<stop  offset="1" style="stop-color:#E7AE17"/>
			</linearGradient>
			<path class="st16" d="M333.2,299.9c-1.9,4.7-8.4,4.7-13.1,4.7l0,0c-2.8-0.3-4.4-1.2-5-1.6c-2.2-1.6-3.1-4-3.4-6.5
				c-0.3-3.7,1.9-6.2,1.9-6.2c0.3,0,0.6,0.3,0.9,0.3s0.9,0,1.2,0c2.2,0,5.3-0.9,7.8-2.8c0.3-0.3,0.6-0.6,1.2-0.9
				c3.4,0.6,6.5,2.8,8.1,5.6C333.6,294,334.5,296.8,333.2,299.9z"/>
			
				<linearGradient id="SVGID_7_" gradientUnits="userSpaceOnUse" x1="306.7317" y1="323.4161" x2="324.5217" y2="323.4161" gradientTransform="matrix(1 -1.834557e-03 -1.834557e-03 -1 1.9063 603.7492)">
				<stop  offset="0" style="stop-color:#EFD980"/>
				<stop  offset="0.2037" style="stop-color:#EFD87C"/>
				<stop  offset="0.3836" style="stop-color:#EED572"/>
				<stop  offset="0.5546" style="stop-color:#EDCF5F"/>
				<stop  offset="0.7191" style="stop-color:#EBC743"/>
				<stop  offset="0.7526" style="stop-color:#EBC63C"/>
				<stop  offset="1" style="stop-color:#E7AE17"/>
			</linearGradient>
			<path class="st22" d="M325.8,281.2c0,2.8-1.9,4.7-3.1,5.6c-0.9,0.6-1.9,1.2-3.1,1.6c-10.3,2.2-11.5-7.8-11.5-7.8
				c-0.9-6.2,3.1-8.7,3.7-9c1.9-0.9,4.4-0.9,6.8,0C322.4,272.8,326.1,276.5,325.8,281.2z"/>
			<path class="st7" d="M360.6,283.7c-2.5-3.1-7.2-4.4-11.5-4.4h-0.3c-4.4,0-11.2,3.4-11.5,8.1c0,0.9,0,1.9,0.3,2.5
				c1.9,4.4,8.1,6.8,12.1,7.5c0.9,0,1.9,0.3,2.8,0.3c2.8,0,5.3-0.6,6.8-2.2c1.9-1.6,2.5-3.7,2.8-5.6
				C362.5,287.1,361.9,285.2,360.6,283.7z M360,290.8c0,0-1.2,6.5-12.8,4.7c-3.1-0.9-6.8-3.1-8.1-5.9c-0.3-0.6-0.3-1.2-0.3-1.6v-0.3
				c0.3-3.7,6.2-6.8,10.3-6.8h0.3C354.7,280.6,361.6,284,360,290.8z"/>
			
				<linearGradient id="SVGID_8_" gradientUnits="userSpaceOnUse" x1="337.4029" y1="314.7552" x2="358.8076" y2="314.7552" gradientTransform="matrix(1 -1.834557e-03 -1.834557e-03 -1 1.9063 603.7492)">
				<stop  offset="0" style="stop-color:#EFD980"/>
				<stop  offset="0.2037" style="stop-color:#EFD87C"/>
				<stop  offset="0.3836" style="stop-color:#EED572"/>
				<stop  offset="0.5546" style="stop-color:#EDCF5F"/>
				<stop  offset="0.7191" style="stop-color:#EBC743"/>
				<stop  offset="0.7526" style="stop-color:#EBC63C"/>
				<stop  offset="1" style="stop-color:#E7AE17"/>
			</linearGradient>
			<path class="st23" d="M360,290.8c0,0-1.2,6.5-12.8,4.7c-3.1-0.9-6.8-3.1-8.1-5.9c-0.3-0.6-0.3-1.2-0.3-1.6v-0.3
				c0.3-3.7,6.2-6.8,10.3-6.8h0.3C354.7,280.6,361.6,284,360,290.8z"/>
			
				<linearGradient id="SVGID_9_" gradientUnits="userSpaceOnUse" x1="311.5399" y1="319.3167" x2="324.5213" y2="319.3167" gradientTransform="matrix(1 -1.834557e-03 -1.834557e-03 -1 1.9063 603.7492)">
				<stop  offset="0" style="stop-color:#EFD980"/>
				<stop  offset="0.2037" style="stop-color:#EFD87C"/>
				<stop  offset="0.3836" style="stop-color:#EED572"/>
				<stop  offset="0.5546" style="stop-color:#EDCF5F"/>
				<stop  offset="0.7191" style="stop-color:#EBC743"/>
				<stop  offset="0.7526" style="stop-color:#EBC63C"/>
				<stop  offset="1" style="stop-color:#E7AE17"/>
			</linearGradient>
			<path class="st24" d="M321.1,286.8c-3.1,1.6-6.2,1.2-8.1,0.9c1.6,0.9,3.7,1.2,6.5,0.6c0.9-0.3,2.2-0.9,3.1-1.6
				c1.2-0.9,3.1-2.8,3.1-5.6c0-0.9,0-1.6-0.3-2.2C325.5,280.9,324.8,285.2,321.1,286.8z"/>
			
				<linearGradient id="SVGID_10_" gradientUnits="userSpaceOnUse" x1="312.0309" y1="313.8593" x2="327.4765" y2="313.8593" gradientTransform="matrix(1 -1.834557e-03 -1.834557e-03 -1 1.9063 603.7492)">
				<stop  offset="0" style="stop-color:#EFD980"/>
				<stop  offset="0.2037" style="stop-color:#EFD87C"/>
				<stop  offset="0.3836" style="stop-color:#EED572"/>
				<stop  offset="0.5546" style="stop-color:#EDCF5F"/>
				<stop  offset="0.7191" style="stop-color:#EBC743"/>
				<stop  offset="0.7526" style="stop-color:#EBC63C"/>
				<stop  offset="1" style="stop-color:#E7AE17"/>
			</linearGradient>
			<path class="st25" d="M328.9,288.7c-1.2-0.9-2.8-1.2-4.4-1.6c-0.3,0.3-0.6,0.6-1.2,0.9c-2.5,1.6-5.6,2.5-7.8,2.5
				c-0.6,0-0.9,0-1.2,0s-0.6-0.3-0.9-0.3C313.3,290.2,320.2,294,328.9,288.7z"/>
			
				<linearGradient id="SVGID_11_" gradientUnits="userSpaceOnUse" x1="310.5851" y1="295.0536" x2="330.2705" y2="295.0536" gradientTransform="matrix(1 -1.834557e-03 -1.834557e-03 -1 1.9063 603.7492)">
				<stop  offset="0" style="stop-color:#EFD980"/>
				<stop  offset="0.2037" style="stop-color:#EFD87C"/>
				<stop  offset="0.3836" style="stop-color:#EED572"/>
				<stop  offset="0.5546" style="stop-color:#EDCF5F"/>
				<stop  offset="0.7191" style="stop-color:#EBC743"/>
				<stop  offset="0.7526" style="stop-color:#EBC63C"/>
				<stop  offset="1" style="stop-color:#E7AE17"/>
			</linearGradient>
			<path class="st26" d="M326.1,305.5c-0.9,0-2.2,0.3-3.1,0.3c-2.2,0-4.4,0.3-6.2-0.3c-0.9-0.3-1.6-0.3-2.5-0.9
				c-0.3,0-1.9-1.2-1.9-1.2s-0.3,0.3-0.6,0.3c1.6,1.2,5.3,3.4,9,3.4c5.3,0,8.4,1.6,9.3,4.4c0.3,0.6,0.6,0.9,0.9,1.6
				c0.6-2.8-0.6-5.9-2.2-8.1C329.2,304.8,326.4,305.5,326.1,305.5z"/>
			
				<linearGradient id="SVGID_12_" gradientUnits="userSpaceOnUse" x1="337.4029" y1="314.2599" x2="355.5721" y2="314.2599" gradientTransform="matrix(1 -1.834557e-03 -1.834557e-03 -1 1.9063 603.7492)">
				<stop  offset="0" style="stop-color:#EFD980"/>
				<stop  offset="0.2037" style="stop-color:#EFD87C"/>
				<stop  offset="0.3836" style="stop-color:#EED572"/>
				<stop  offset="0.5546" style="stop-color:#EDCF5F"/>
				<stop  offset="0.7191" style="stop-color:#EBC743"/>
				<stop  offset="0.7526" style="stop-color:#EBC63C"/>
				<stop  offset="1" style="stop-color:#E7AE17"/>
			</linearGradient>
			<path class="st27" d="M344.4,289c-2.5-2.5-2.2-5.3-1.6-6.8c-2.2,1.2-4,3.1-4,5.3v0.3c0,0.6,0,1.2,0.3,1.6c1.2,3.1,5,5,8.1,5.9
				c4.7,0.9,7.8,0,9.6-0.9C353.8,294,348.2,292.7,344.4,289z"/>
		</g>
	</g>
	<g>
		<g>
			
				<linearGradient id="SVGID_13_" gradientUnits="userSpaceOnUse" x1="318.9452" y1="283.9745" x2="369.4154" y2="283.9745" gradientTransform="matrix(1 -1.834557e-03 -1.834557e-03 -1 1.9063 603.7492)">
				<stop  offset="0" style="stop-color:#F2D397"/>
				<stop  offset="0.4319" style="stop-color:#F3D195"/>
				<stop  offset="0.7526" style="stop-color:#F5CC8F"/>
				<stop  offset="1" style="stop-color:#F3B699"/>
			</linearGradient>
			<path class="st28" d="M370.9,319.8c-0.3-1.6-1.2-4.7-3.1-9.3c-3.4-9-15.9-15.2-15.9-15.2l-1.9-4.7l-27.7-4.7l-2.2,28.9
				c5.9,32.7,31.7,37,38,37.6C362.2,339.4,366.8,328.5,370.9,319.8z"/>
			<path class="st7" d="M359.1,352.4L359.1,352.4c0-0.6-0.3-0.9-0.9-0.9c-26.4-1.9-35.5-28.3-35.5-28.6c0-0.3-0.6-0.6-0.9-0.6
				l-0.3-1.9h-1.6c0,0,1.6,5,1.6,5.3c1.6,4,3.7,7.5,6.5,10.9c2.5,3.1,5.3,6.2,8.4,8.7c5.9,4.7,12.8,7.5,20.2,8.4
				c0.3,0,2.5,0.3,2.8,0.3l0.6-1.6C359.7,352.4,359.4,352.4,359.1,352.4z"/>
			<path class="st7" d="M368.7,310.4L368.7,310.4c-0.3-1.6-1.6-3.4-2.8-5l0,0l-0.3-0.3c-0.9-0.9-2.2-2.5-2.2-2.5
				c-2.5-2.5-5-4.7-5.9-5.6c-0.3-0.3-0.3-0.3-0.3-0.3l-0.3-0.3l-1.2,0.6c-0.6-0.3-0.9-0.6-0.9-0.6c-0.3-0.3-0.9,0-1.2,0.3
				s0,0.9,0.3,1.2c0,0,10.6,6.8,13.4,14c0,0.3,0.6,0.6,0.9,0.6h0.3c0.3-0.3,0.6-0.6,0.6-1.2C369,310.8,369,310.8,368.7,310.4z"/>
		</g>
		<g>
			<g>
				<path class="st8" d="M326.1,284l-7.5-2.5c-0.6-0.3-0.9-0.6-1.2-1.2c-0.3-0.6-0.3-1.2,0.3-1.9c2.5-4,2.5-10.6,2.5-10.9h1.2
					c0,0.3,0,6.8-2.5,11.5c0,0.3,0,0.3,0,0.6l0.3,0.3l7.5,2.5L326.1,284z"/>
				
					<rect x="298.5" y="228.2" transform="matrix(0.3461 -0.9382 0.9382 0.3461 -22.8968 432.4759)" class="st9" width="0.6" height="9"/>
				<polygon class="st9" points="301.8,237.6 293.1,234.2 293.4,233.6 302.1,237 				"/>
				<path class="st10" d="M309.9,256.9l-0.3-0.9c0,0,6.2-3.1,7.8-4.7c0.9-0.9,4.7-12.8,7.2-20.2v-0.3l5.6,0.3
					c0.3-1.2,0.6-4.4,0.6-4.4h0.9c0,0.3-0.6,4-0.6,5v0.3l-5.9-0.3c-0.9,3.1-5.6,19-7.2,20.2C316.4,253.5,310.2,256.6,309.9,256.9z"
					/>
				<path class="st10" d="M324.5,324.4h-0.3c-0.3-0.3-0.3-0.3,0-0.6c10.3-9.6,17.1-34.8,17.1-42.6c0-1.2-0.3-1.6-0.3-1.6
					c-0.9-0.9-2.5-1.6-4-1.9c-1.9-0.6-3.4-1.2-4-2.5c-1.2-2.2,1.2-6.8,1.6-7.5c0-0.3,0.3-0.3,0.6-0.3c0,0,7.2,2.2,9,2.2
					c0,0,0.3,0,0.3-0.3c0.9-0.9,0.9-4,0.9-5c0,0,0-0.3,0.3-0.3h0.3c6.8,1.6,14.3,3.1,15.2,2.8c0.9-0.6,4-10.3,6.5-19.6
					c-0.9-0.3-2.8-1.2-2.2-3.1c0.3-1.9,1.2-4.7,1.2-4.7c0-0.3,0.3-0.3,0.6-0.3c0.3,0,0.3,0.3,0.3,0.6c0,0-0.9,2.8-1.2,4.7
					c-0.3,1.2,2.2,2.2,2.2,2.2c0.3,0,0.3,0.3,0.3,0.6c-1.2,4.7-5.3,19.6-7.2,20.5c-1.6,0.6-12.1-1.9-15.2-2.5c0,1.2,0,4-1.2,5
					c-0.3,0.3-0.6,0.3-0.9,0.3l0,0c-1.9,0-7.5-1.6-8.7-1.9c-0.9,1.9-2.2,5-1.6,6.2c0.6,0.9,2.2,1.6,3.7,2.2c1.6,0.6,3.1,1.2,4.4,2.2
					c0.3,0.3,0.6,0.6,0.6,2.2C342,289,335.1,314.5,324.5,324.4L324.5,324.4z"/>
				
					<rect x="298.5" y="239.4" transform="matrix(0.346 -0.9382 0.9382 0.346 -18.892 453.6367)" class="st11" width="34.8" height="1.9"/>
				<path class="st11" d="M337.9,327.2c-4,0-9-0.6-15.2-3.1c-1.6-0.6-2.5-2.2-2.2-3.7c1.2-9.3,5.3-40.1,6.8-49.2
					c-2.8-0.9-14.9-5.9-16.8-6.8c-0.3,0-0.3-0.3-0.3-0.6l-0.9-7.2l-13.1-4.4c-0.3,0-0.3-0.3-0.3-0.3c0-0.3,0-0.3,0-0.6l12.1-32.7
					c0-0.3,0.6-0.6,0.9-0.3c23,7.5,53.8,17.7,70.6,25.2c0.3,0,0.3,0.3,0.3,0.6c-0.3,1.2-4.7,27.1-5.9,29.9c0,0.3-0.3,0.3-0.3,0.3
					c-0.3,0-4.4,1.6-15.2,3.7c-0.9,5-7.5,42.6-10.3,46.7c0,0,0,0-0.3,0.3C347.6,325.4,344.1,327.2,337.9,327.2z M311.5,263.5
					c2.8,1.2,16.8,6.8,16.8,6.8c0.3,0,0.3,0.3,0.3,0.6c-1.6,8.1-5.6,39.8-6.8,49.5c0,0.9,0.3,1.9,1.2,2.2
					c14.3,5.6,22.4,1.9,23.6,1.2c2.2-3.7,7.8-34.5,10-46.4c0-0.3,0.3-0.6,0.6-0.6c9.6-1.9,14.3-3.1,15.2-3.4
					c0.9-3.1,4-19.6,5.6-28.9c-16.5-7.5-46.7-17.4-69.4-24.9l-11.2,32l12.8,4c0.3,0,0.3,0.3,0.3,0.6L311.5,263.5z"/>
				<path class="st11" d="M320.5,226.7L320.5,226.7l-13.1-4.4c-0.3,0-0.3-0.3-0.3-0.6c0-0.3,0.3-0.3,0.6-0.3l12.8,4.4
					c0.3,0,0.3,0.3,0.3,0.6C320.8,226.4,320.8,226.7,320.5,226.7z"/>
				<path class="st11" d="M319.9,228.9C319.9,228.9,319.6,228.9,319.9,228.9l-13.1-4.4c-0.3,0-0.3-0.3-0.3-0.6
					c0-0.3,0.3-0.3,0.6-0.3l13.1,4.4c0.3,0,0.3,0.3,0.3,0.6C320.2,228.9,319.9,228.9,319.9,228.9z"/>
				<path class="st11" d="M319.6,231.1L319.6,231.1l-13.7-4.7c-0.3,0-0.3-0.3-0.3-0.6c0-0.3,0.3-0.3,0.6-0.3l13.4,4.7
					c0.3,0,0.3,0.3,0.3,0.6C319.9,231.1,319.9,231.1,319.6,231.1z"/>
				<path class="st11" d="M318.6,233L318.6,233l-13.7-4.4c-0.3,0-0.3-0.3-0.3-0.6c0-0.3,0.3-0.3,0.6-0.3l13.4,4.4
					c0.3,0,0.3,0.3,0.3,0.6C318.9,233,318.9,233,318.6,233z"/>
				<path class="st11" d="M317.7,234.8L317.7,234.8l-13.1-4c-0.3,0-0.3-0.3-0.3-0.6c0-0.3,0.3-0.3,0.6-0.3l12.8,4
					c0.3,0,0.3,0.3,0.3,0.6C318,234.8,318,234.8,317.7,234.8z"/>
				<path class="st11" d="M316.4,237.3L316.4,237.3l-12.8-4.4c-0.3,0-0.3-0.3-0.3-0.6c0-0.3,0.3-0.3,0.6-0.3l12.8,4
					c0.3,0,0.3,0.3,0.3,0.6C317.1,237.3,316.8,237.3,316.4,237.3z"/>
				<path class="st11" d="M316.1,239.5L316.1,239.5l-13.4-4.7c-0.3,0-0.3-0.3-0.3-0.6c0-0.3,0.3-0.3,0.6-0.3l13.4,4.4
					c0.3,0,0.3,0.3,0.3,0.6C316.4,239.2,316.4,239.5,316.1,239.5z"/>
				<path class="st11" d="M315.5,241.7L315.5,241.7l-13.4-4.4c-0.3,0-0.3-0.3-0.3-0.6c0-0.3,0.3-0.3,0.6-0.3l13.1,4.4
					C315.8,240.7,315.8,241.1,315.5,241.7C315.8,241.7,315.8,241.7,315.5,241.7z"/>
				<path class="st11" d="M314.9,243.5C314.9,243.5,314.6,243.5,314.9,243.5l-13.7-4c-0.3,0-0.3-0.3-0.3-0.6c0-0.3,0.3-0.3,0.6-0.3
					l13.4,4c0.3,0,0.3,0.3,0.3,0.6C315.2,243.5,314.9,243.5,314.9,243.5z"/>
				<path class="st11" d="M313.6,245.7L313.6,245.7l-13.4-4c-0.3,0-0.3-0.3-0.3-0.6s0.3-0.3,0.6-0.3l13.1,4
					C314,244.8,314,245.1,313.6,245.7C314,245.4,314,245.7,313.6,245.7z"/>
				<path class="st11" d="M313.3,247.6C313.3,247.6,313,247.6,313.3,247.6l-13.7-4.4c-0.3,0-0.3-0.3-0.3-0.6c0-0.3,0.3-0.3,0.6-0.3
					l13.4,4.4c0.3,0,0.3,0.3,0.3,0.6C313.6,247.6,313.3,247.6,313.3,247.6z"/>
				<path class="st11" d="M312.4,249.8L312.4,249.8l-13.7-4c-0.3,0-0.3-0.3-0.3-0.6c0-0.3,0.3-0.3,0.6-0.3l13.7,4
					c0.3,0,0.3,0.3,0.3,0.6C313,249.8,312.7,249.8,312.4,249.8z"/>
				<path class="st11" d="M311.5,251.9C311.5,251.9,311.2,251.9,311.5,251.9l-13.4-4.4c-0.3,0-0.3-0.3-0.3-0.6
					c0-0.3,0.3-0.3,0.6-0.3l13.1,4.4c0.3,0,0.3,0.3,0.3,0.6C311.8,251.9,311.5,251.9,311.5,251.9z"/>
				<path class="st11" d="M310.8,254.1L310.8,254.1l-13.7-4.4c-0.3,0-0.3-0.3-0.3-0.6c0-0.3,0.3-0.3,0.6-0.3l13.4,4.4
					c0.3,0,0.6,0.3,0.6,0.6C311.2,254.1,311.2,254.1,310.8,254.1z"/>
				<path class="st11" d="M287.8,249.8C287.8,249.8,287.5,249.8,287.8,249.8l-16.8-5.6c0,0-0.3,0-0.3-0.3l-9.3-12.1
					c0-0.3-0.3-0.3,0-0.6l5.6-16.2c0-0.3,0.3-0.3,0.3-0.3l13.4-4.7h0.3c0,0,7.8,2.5,19,5.9c0.3,0,0.3,0.3,0.3,0.3c0,0.3,0,0.3,0,0.6
					L287.8,249.8C288.4,249.8,288.1,249.8,287.8,249.8z M271.6,243.2l15.9,5.3l11.5-31.7c-10-3.1-16.8-5.3-18-5.6l-13.1,4.7
					l-5.6,15.6L271.6,243.2z"/>
			</g>
			<polygon class="st12" points="298.7,247.9 310.5,251.9 310.2,252.9 298.1,249.1 			"/>
			<polygon class="st13" points="299.3,245.7 311.5,249.5 310.8,251 299,247 			"/>
			<polygon class="st13" points="300.3,243.5 312.4,247.6 311.8,248.5 299.6,244.8 			"/>
			<polygon class="st13" points="300.9,241.7 313,245.4 312.7,246.7 300.6,242.6 			"/>
			<polygon class="st13" points="304,233.3 316.1,237 315.5,238.3 303.7,234.2 			"/>
			<polygon class="st13" points="306.5,226.7 318.3,230.8 318,232 305.9,228 			"/>
			<polygon class="st13" points="307.1,224.9 319.2,228.9 318.6,229.9 306.8,225.8 			"/>
			<polygon class="st13" points="308,222.4 319.9,226.4 319.6,228 307.4,223.9 			"/>
			<polygon class="st13" points="317.7,233 317.4,233.9 305.2,230.2 305.6,228.9 			"/>
			<polygon class="st13" points="304.9,231.1 317.1,234.8 316.4,236.4 304.3,232.3 			"/>
			<polygon class="st13" points="315.2,239.2 314.9,240.4 302.8,236.7 303.4,235.1 			"/>
			<polygon class="st13" points="302.4,237.3 314.6,241.4 314.3,242.3 302.1,238.9 			"/>
			<polygon class="st13" points="301.8,239.5 313.6,243.2 313.3,244.5 301.2,240.7 			"/>
			<path class="st13" d="M322.7,224.6c2.5,0.9,5.3,1.9,8.1,2.8c0,0.9-0.3,2.8-0.6,3.7l-5.6-0.3v0.3c-2.2,7.5-5.9,19.3-7.2,20.2
				c-0.9,0.9-4,2.8-5.9,3.7L322.7,224.6z"/>
			<path class="st13" d="M309,220.2c3.7,1.2,7.8,2.5,12.1,4l-0.9,1.2l-11.8-4L309,220.2z"/>
			<path class="st13" d="M287.5,248.2l-10.9-3.7l11.5-31.4c3.1,0.9,6.8,2.2,11.2,3.4L287.5,248.2z"/>
			
				<linearGradient id="SVGID_14_" gradientUnits="userSpaceOnUse" x1="292.8499" y1="368.9906" x2="300.9381" y2="368.9906" gradientTransform="matrix(1 -1.834557e-03 -1.834557e-03 -1 1.9063 603.7492)">
				<stop  offset="0" style="stop-color:#898989"/>
				<stop  offset="0.5212" style="stop-color:#DCDDDD"/>
				<stop  offset="1" style="stop-color:#9FA0A0"/>
			</linearGradient>
			<polygon class="st29" points="294,233.9 295,231.7 302.1,234.5 301.5,236.7 			"/>
			<polygon class="st12" points="297.8,250.1 309.9,253.8 309.3,255.4 297.5,251.6 			"/>
			<path class="st15" d="M318.9,280.6c-0.3,0-0.3-0.3-0.3-0.3c0-0.3,0-0.3,0-0.6c2.2-3.4,2.5-8.4,2.5-10.6c2.8,1.2,5.3,2.2,6.2,2.5
				c-0.3,2.5-0.9,6.5-1.9,11.2L318.9,280.6z"/>
			
				<linearGradient id="SVGID_15_" gradientUnits="userSpaceOnUse" x1="309.2614" y1="327.5561" x2="366.3272" y2="327.5561" gradientTransform="matrix(1 -1.834557e-03 -1.834557e-03 -1 1.9063 603.7492)">
				<stop  offset="0" style="stop-color:#279E92"/>
				<stop  offset="0.1515" style="stop-color:#259790"/>
				<stop  offset="0.7197" style="stop-color:#237B86"/>
				<stop  offset="1" style="stop-color:#247082"/>
				<stop  offset="1" style="stop-color:#9FA0A0"/>
			</linearGradient>
			<path class="st30" d="M321.7,320.7c1.2-9.6,5.3-41.7,6.8-49.5c0-0.3,0-0.6-0.3-0.6c0,0-14-5.6-16.8-6.8l-0.9-7.2h0.3v-0.3
				c1.9-0.9,5.9-3.1,7.2-4.4c1.6-1.6,6.2-17.1,7.2-20.2l5.6,0.3v-0.3c0.3-0.6,0.6-3.1,0.6-4c12.1,4,24.6,8.4,34.8,12.4
				c-0.3,0.9-0.9,2.8-1.2,4c-0.3,1.9,1.6,2.8,2.2,3.1c-2.5,9-5.6,19-6.5,19.6c-0.9,0.3-8.7-0.9-15.2-2.8h-0.3l-0.3,0.3
				c0,1.2,0,4-0.9,5c-0.3,0.3-0.3,0.3-0.3,0.3c-1.9,0-8.7-2.2-9-2.2s-0.3,0-0.6,0.3c-0.3,0.6-2.8,5.3-1.6,7.5c0.6,1.2,2.5,1.9,4,2.5
				c1.6,0.6,3.1,1.2,4,1.9c0,0,0.3,0.3,0.3,1.6c0,7.5-6.5,32.4-16.8,42.3c-0.3,0-0.9-0.3-1.2-0.6
				C322.4,322.6,321.7,321.6,321.7,320.7z"/>
			<path class="st13" d="M372.4,273.7c-1.2,0.3-5.6,1.9-15.2,3.4c-0.3,0-0.6,0.3-0.6,0.6c-1.9,11.8-7.5,42.6-10,46.4
				c-0.9,0.6-8.7,3.7-21.5-0.6c10-10.3,16.5-35.2,16.5-42.6c0-1.6-0.3-1.9-0.6-2.2c-0.9-0.9-2.8-1.6-4.4-2.2
				c-1.6-0.6-3.1-1.2-3.7-2.2c-0.6-1.2,0.6-4.4,1.6-6.2c1.6,0.3,7.2,1.9,8.7,1.9l0,0c0.3,0,0.6-0.3,0.9-0.3c0.9-0.9,1.2-3.7,1.2-5
				c3.1,0.9,13.7,3.4,15.2,2.5c1.6-0.9,5.9-15.9,7.2-20.5c0-0.3,0-0.3-0.3-0.6c0,0-2.5-0.9-2.2-2.2c0.3-1.2,0.9-3.1,1.2-4
				c4,1.6,7.8,3.1,10.9,4.7C376.8,254.1,373.7,270.6,372.4,273.7z"/>
			<g class="st17">
				<path class="st13" d="M375.6,260.3c-1.2,4.4-3.1,9.6-5.9,11.8c-5.6,4-19.6,5.9-19.6,5.9l-5,6.5c0,0,1.6,11.8-2.2,19.6
					c-2.2,4.4-8.1,13.7-13.1,20.8c10.3,2.5,16.2-0.3,17.1-0.6c2.2-3.7,7.8-34.5,10-46.4c0-0.3,0.3-0.6,0.6-0.6
					c9.6-1.9,14.3-3.1,15.2-3.4C373.1,272.2,374.3,266.6,375.6,260.3z"/>
			</g>
			<path class="st18" d="M351.9,288.7c0,0-5.9,5.9-14,11.5c-2.8,8.7-7.2,18-12.4,23.3c12.8,4.4,20.2,0.9,21.5,0.6
				c1.9-2.8,5.6-21.8,8.1-35.8L351.9,288.7z"/>
			<path class="st19" d="M323.6,307.6c-0.6,5.6-1.2,10.3-1.6,13.1c0,0.9,0.3,1.9,1.2,2.2c0.3,0.3,0.9,0.3,1.2,0.6
				c5-5,9.3-13.7,12.1-22.4C332.6,303.6,328.3,306.1,323.6,307.6z"/>
			<path class="st20" d="M365.9,251.6C365.6,251.6,365.6,251.6,365.9,251.6c-8.7-2.8-39.5-13.7-39.8-14c-0.3,0-0.3-0.3-0.3-0.6
				c0-0.3,0.3-0.3,0.6-0.3s31.1,11.2,39.5,14c0.3,0,0.3,0.3,0.3,0.6C366.2,251.3,365.9,251.6,365.9,251.6z"/>
			<path class="st20" d="M344.4,263.8L344.4,263.8c-3.7-0.9-24.9-10-25.8-10.3c-0.3,0-0.3-0.3-0.3-0.6c0-0.3,0.3-0.3,0.6-0.3
				s22.1,9.3,25.8,10.3c0.3,0,0.3,0.3,0.3,0.6C344.8,263.5,344.8,263.8,344.4,263.8z"/>
		</g>
		<g>
			<path class="st7" d="M334.2,300.2c1.2-2.8,0.9-5.9-0.6-8.7s-4.7-5.3-8.4-5.9c0.9-1.2,1.6-2.8,1.6-4.7c0.3-5.6-4-9.6-8.1-11.2
				c-4.4-1.6-8.4-0.6-10.9,2.8c0,0.3-0.3,0.3-0.3,0.6c-1.9,2.8-2.2,6.8-0.9,10.3c0.9,2.5,2.5,4.4,4.7,5.6c-2.5,3.1-3.1,7.2-1.6,10.6
				c0.3,0.6,0.6,1.2,0.9,1.9c-1.2,0.9-3.7,3.4-3.7,7.8c0,3.4,1.9,7.2,4.7,9.3c1.6,1.2,4,2.2,7.2,2.2c1.6,0,3.1-0.3,4.7-0.6
				c4.7-1.2,7.5-3.4,8.4-6.5c1.2-3.4-0.3-6.8-2.2-9.3C332,303.6,333.2,302.4,334.2,300.2z M307.7,280.6c-0.9-6.2,3.1-8.7,3.7-9
				c1.9-0.9,4.4-0.9,6.8,0c3.7,1.2,7.5,5.3,7.2,9.6c0,2.8-1.9,4.7-3.1,5.6c-0.9,0.6-1.9,1.2-3.1,1.6
				C309,290.5,307.7,280.6,307.7,280.6z M331.1,313.2c-0.9,2.5-3.4,4.4-7.8,5.6c-1.9,0.6-3.4,0.6-5,0.6c-6.8-1.2-9-6.2-9-10.6
				c0-3.7,2.2-5.3,2.8-5.6l1.9,1.2c0.9,0.3,1.6,0.6,2.5,0.9c2.2,0.3,4.4,0.3,6.2,0.3c0.9,0,2.2,0,3.1-0.3c0.3,0,2.8-0.6,3.1-0.6
				C330.4,307,332,310.4,331.1,313.2z M319.6,304.5L319.6,304.5c-2.8-0.3-4.4-1.2-5-1.9c-2.2-1.6-3.1-4-3.4-6.5
				c-0.3-3.7,1.9-6.2,1.9-6.2c0.3,0,0.6,0.3,0.9,0.3c0.3,0,0.9,0,1.2,0c2.2,0,5.3-0.9,7.8-2.8c0.3-0.3,0.6-0.6,1.2-0.9
				c3.4,0.6,6.5,2.8,8.1,5.6c0.9,1.6,1.9,4.4,0.6,7.5C331.1,304.5,324.5,304.5,319.6,304.5z"/>
			
				<linearGradient id="SVGID_16_" gradientUnits="userSpaceOnUse" x1="307.9209" y1="291.7986" x2="329.9773" y2="291.7986" gradientTransform="matrix(1 -1.834557e-03 -1.834557e-03 -1 1.9063 603.7492)">
				<stop  offset="0" style="stop-color:#F2D397"/>
				<stop  offset="0.4319" style="stop-color:#F3D195"/>
				<stop  offset="0.7526" style="stop-color:#F5CC8F"/>
				<stop  offset="1" style="stop-color:#F3B699"/>
			</linearGradient>
			<path class="st31" d="M331.1,313.2c-0.9,2.5-3.4,4.4-7.8,5.6c-1.9,0.6-3.4,0.6-5,0.6c-6.8-1.2-9-6.2-9-10.6
				c0-3.7,2.2-5.3,2.8-5.6l1.9,1.2c0.9,0.3,1.6,0.6,2.5,0.9c2.2,0.3,4.4,0.3,6.2,0.3c0.9,0,2.2,0,3.1-0.3c0.3,0,2.8-0.6,3.1-0.6
				C330.4,307,332,310.4,331.1,313.2z"/>
			
				<linearGradient id="SVGID_17_" gradientUnits="userSpaceOnUse" x1="309.782" y1="307.6535" x2="332.1649" y2="307.6535" gradientTransform="matrix(1 -1.834557e-03 -1.834557e-03 -1 1.9063 603.7492)">
				<stop  offset="0" style="stop-color:#F2D397"/>
				<stop  offset="0.4319" style="stop-color:#F3D195"/>
				<stop  offset="0.7526" style="stop-color:#F5CC8F"/>
				<stop  offset="1" style="stop-color:#F3B699"/>
			</linearGradient>
			<path class="st32" d="M332.9,299.9c-1.9,4.7-8.4,4.7-13.1,4.7l0,0c-3.1-0.3-4.7-1.2-5.3-1.9c-2.2-1.6-3.1-4-3.4-6.5
				c-0.3-3.7,1.9-6.2,1.9-6.2c0.3,0,0.6,0.3,0.9,0.3c0.3,0,0.9,0,1.2,0c2.2,0,5.3-0.9,7.8-2.8c0.3-0.3,0.6-0.6,1.2-0.9
				c3.4,0.6,6.5,2.8,8.1,5.6C333.2,294,334.2,296.8,332.9,299.9z"/>
			
				<linearGradient id="SVGID_18_" gradientUnits="userSpaceOnUse" x1="306.4274" y1="323.4167" x2="324.2177" y2="323.4167" gradientTransform="matrix(1 -1.834557e-03 -1.834557e-03 -1 1.9063 603.7492)">
				<stop  offset="0" style="stop-color:#F2D397"/>
				<stop  offset="0.4319" style="stop-color:#F3D195"/>
				<stop  offset="0.7526" style="stop-color:#F5CC8F"/>
				<stop  offset="1" style="stop-color:#F3B699"/>
			</linearGradient>
			<path class="st33" d="M325.5,281.2c0,2.8-1.9,4.7-3.1,5.6c-0.9,0.6-1.9,1.2-3.1,1.6c-10.3,2.2-11.5-7.8-11.5-7.8
				c-0.9-6.2,3.1-8.7,3.7-9c1.9-0.9,4.4-0.9,6.8,0C322,272.8,325.8,276.5,325.5,281.2z"/>
			<path class="st7" d="M360.3,283.4c-2.5-3.1-7.2-4.4-11.5-4.4h-0.3c-4.4,0-11.2,3.4-11.5,8.1c0,0.9,0,1.9,0.3,2.5
				c1.9,4.4,8.1,6.8,12.1,7.5c0.9,0,1.9,0.3,2.8,0.3c2.8,0,5.3-0.6,6.8-2.2c1.9-1.6,2.5-3.7,2.8-5.6
				C362.2,287.1,361.6,285.2,360.3,283.4z M359.7,290.5c0,0-1.2,6.5-12.8,4.7c-3.1-0.9-6.8-3.1-8.1-5.9c-0.3-0.6-0.3-1.2-0.3-1.6
				v-0.3c0.3-3.7,6.2-6.8,10.3-6.8h0.3C354.4,280.6,361.2,284,359.7,290.5z"/>
			
				<linearGradient id="SVGID_19_" gradientUnits="userSpaceOnUse" x1="337.0989" y1="315.058" x2="358.5036" y2="315.058" gradientTransform="matrix(1 -1.834557e-03 -1.834557e-03 -1 1.9063 603.7492)">
				<stop  offset="0" style="stop-color:#F2D397"/>
				<stop  offset="0.4319" style="stop-color:#F3D195"/>
				<stop  offset="0.7526" style="stop-color:#F5CC8F"/>
				<stop  offset="1" style="stop-color:#F3B699"/>
			</linearGradient>
			<path class="st34" d="M359.7,290.5c0,0-1.2,6.5-12.8,4.7c-3.1-0.9-6.8-3.1-8.1-5.9c-0.3-0.6-0.3-1.2-0.3-1.6v-0.3
				c0.3-3.7,6.2-6.8,10.3-6.8h0.3C354.4,280.6,361.2,284,359.7,290.5z"/>
			
				<linearGradient id="SVGID_20_" gradientUnits="userSpaceOnUse" x1="311.2357" y1="319.3173" x2="324.2171" y2="319.3173" gradientTransform="matrix(1 -1.834557e-03 -1.834557e-03 -1 1.9063 603.7492)">
				<stop  offset="0" style="stop-color:#F2D397"/>
				<stop  offset="0.4319" style="stop-color:#F3D195"/>
				<stop  offset="0.7526" style="stop-color:#F5CC8F"/>
				<stop  offset="1" style="stop-color:#F3B699"/>
			</linearGradient>
			<path class="st35" d="M320.8,286.8c-3.1,1.6-6.2,1.2-8.1,0.9c1.6,0.9,3.7,1.2,6.5,0.6c0.9-0.3,2.2-0.9,3.1-1.6
				c1.2-0.9,3.1-2.8,3.1-5.6c0-0.9,0-1.6-0.3-2.2C325.2,280.9,324.5,285.2,320.8,286.8z"/>
			
				<linearGradient id="SVGID_21_" gradientUnits="userSpaceOnUse" x1="311.7269" y1="313.8486" x2="327.1725" y2="313.8486" gradientTransform="matrix(1 -1.834557e-03 -1.834557e-03 -1 1.9063 603.7492)">
				<stop  offset="0" style="stop-color:#F2D397"/>
				<stop  offset="0.4319" style="stop-color:#F3D195"/>
				<stop  offset="0.7526" style="stop-color:#F5CC8F"/>
				<stop  offset="1" style="stop-color:#F3B699"/>
			</linearGradient>
			<path class="st36" d="M328.6,288.7c-1.2-0.9-2.8-1.2-4.4-1.6c-0.3,0.3-0.6,0.6-1.2,0.9c-2.5,1.9-5.6,2.8-7.8,2.8
				c-0.6,0-0.9,0-1.2,0c-0.3,0-0.6-0.3-0.9-0.3C313,290.2,319.9,294,328.6,288.7z"/>
			
				<linearGradient id="SVGID_22_" gradientUnits="userSpaceOnUse" x1="310.2811" y1="295.0536" x2="329.9665" y2="295.0536" gradientTransform="matrix(1 -1.834557e-03 -1.834557e-03 -1 1.9063 603.7492)">
				<stop  offset="0" style="stop-color:#F2D397"/>
				<stop  offset="0.4319" style="stop-color:#F3D195"/>
				<stop  offset="0.7526" style="stop-color:#F5CC8F"/>
				<stop  offset="1" style="stop-color:#F3B699"/>
			</linearGradient>
			<path class="st37" d="M326.1,305.5c-0.9,0-2.2,0.3-3.1,0.3c-2.2,0-4.4,0.3-6.2-0.3c-0.9-0.3-1.6-0.3-2.5-0.9
				c-0.3,0-1.9-1.2-1.9-1.2s-0.3,0.3-0.6,0.3c1.6,1.2,5.3,3.4,9,3.4c5.3,0,8.4,1.6,9.3,4.4c0.3,0.6,0.6,0.9,0.9,1.6
				c0.6-2.8-0.6-5.9-2.2-8.1C328.9,304.8,326.1,305.5,326.1,305.5z"/>
			
				<linearGradient id="SVGID_23_" gradientUnits="userSpaceOnUse" x1="337.0989" y1="314.2604" x2="355.2679" y2="314.2604" gradientTransform="matrix(1 -1.834557e-03 -1.834557e-03 -1 1.9063 603.7492)">
				<stop  offset="0" style="stop-color:#F2D397"/>
				<stop  offset="0.4319" style="stop-color:#F3D195"/>
				<stop  offset="0.7526" style="stop-color:#F5CC8F"/>
				<stop  offset="1" style="stop-color:#F3B699"/>
			</linearGradient>
			<path class="st38" d="M344.1,289c-2.5-2.5-2.2-5.3-1.6-6.8c-2.2,1.2-4,3.1-4,5.3v0.3c0,0.6,0,1.2,0.3,1.6c1.2,3.1,5,5,8.1,5.9
				c4.7,0.9,7.8,0,9.6-0.9C353.5,294,347.9,292.7,344.1,289z"/>
		</g>
	</g>
	<g>
		<g>
			<g>
				<polygon class="st9" points="263.6,223 220.3,207.5 222.2,203.1 265.1,219 264.5,220.2 223.1,205 222.2,206.2 263.9,221.8 				
					"/>
			</g>
			
				<linearGradient id="SVGID_24_" gradientUnits="userSpaceOnUse" x1="221.1944" y1="211.8261" x2="262.749" y2="211.8261" gradientTransform="matrix(1 -1.834557e-03 1.834557e-03 1 0.8019 1.9859)">
				<stop  offset="0" style="stop-color:#898989"/>
				<stop  offset="0.5212" style="stop-color:#DCDDDD"/>
				<stop  offset="1" style="stop-color:#9FA0A0"/>
			</linearGradient>
			<polygon class="st39" points="222.2,206.2 223.1,205 263.9,220.2 263.6,221.8 			"/>
		</g>
	</g>
	<g>
		<g>
			<g>
				<polygon class="st9" points="262.9,223 220.3,207.5 221.9,203.1 264.5,219 264.2,220.2 222.5,205 221.9,206.2 263.6,221.8 				
					"/>
			</g>
			
				<linearGradient id="SVGID_25_" gradientUnits="userSpaceOnUse" x1="220.8901" y1="211.8249" x2="262.445" y2="211.8249" gradientTransform="matrix(1 -1.834557e-03 1.834557e-03 1 0.8019 1.9859)">
				<stop  offset="0" style="stop-color:#898989"/>
				<stop  offset="0.5212" style="stop-color:#DCDDDD"/>
				<stop  offset="1" style="stop-color:#9FA0A0"/>
			</linearGradient>
			<polygon class="st40" points="221.9,206.2 222.5,205 263.9,220.2 262.9,221.8 			"/>
		</g>
	</g>
</g>
</svg>
