<?xml version="1.0" encoding="utf-8"?>
<!-- Generator: Adobe Illustrator 21.0.0, SVG Export Plug-In . SVG Version: 6.00 Build 0)  -->
<svg version="1.1" id="圖層_1" xmlns="http://www.w3.org/2000/svg" xmlns:xlink="http://www.w3.org/1999/xlink" x="0px" y="0px"
	 viewBox="0 0 822.9 601.4" style="enable-background:new 0 0 822.9 601.4;" xml:space="preserve">
<style type="text/css">
	.st0{fill:url(#SVGID_1_);}
	.st1{fill:#E1BE3F;}
	.st2{fill:#AB6C21;}
	.st3{opacity:0.6;fill:#E1BE3F;}
	.st4{fill:url(#SVGID_2_);}
	.st5{fill:#66411D;}
	.st6{fill:url(#SVGID_3_);}
	.st7{fill:#D9B974;}
	.st8{fill:#DCBF93;}
	.st9{fill:url(#SVGID_4_);}
	.st10{fill:url(#SVGID_5_);}
	.st11{fill:url(#SVGID_6_);}
	.st12{fill:url(#SVGID_7_);}
	.st13{fill:#8C5924;}
	.st14{fill:url(#SVGID_8_);}
	.st15{fill:url(#SVGID_9_);}
	.st16{fill:url(#SVGID_10_);}
	.st17{fill:url(#SVGID_11_);}
	.st18{fill:#F4E3A5;}
	.st19{fill:#DEB87D;}
	.st20{fill:url(#SVGID_12_);}
	.st21{fill:url(#SVGID_13_);}
	.st22{fill:#3F210F;}
	.st23{opacity:0.25;fill:#E1BE3F;}
	.st24{opacity:0.5;fill:#E1BE3F;}
	.st25{fill:#F8E5A9;}
	.st26{fill:#DDBC90;}
	.st27{opacity:0.4;fill:#E1BE3F;}
	.st28{fill:#875424;}
	.st29{fill:#3F210E;}
	.st30{fill:#C88E2C;}
	.st31{fill:#AC7327;}
	.st32{fill:#FFFFFF;}
	.st33{fill:#814323;}
	.st34{fill:#D7C6A6;}
	.st35{fill:url(#SVGID_14_);}
	.st36{fill:#4A1E0E;}
	.st37{fill:#3A1D13;}
	.st38{fill:url(#SVGID_15_);}
	.st39{fill:#EAA593;}
	.st40{fill:url(#SVGID_16_);}
	.st41{fill:url(#SVGID_17_);}
	.st42{fill:#D59543;}
	.st43{opacity:0.6;fill:#D59543;}
	.st44{fill:url(#SVGID_18_);}
	.st45{fill:url(#SVGID_19_);}
	.st46{fill:url(#SVGID_20_);}
	.st47{fill:#AC6D21;}
	.st48{fill:url(#SVGID_21_);}
	.st49{fill:url(#SVGID_22_);}
	.st50{fill:url(#SVGID_23_);}
	.st51{fill:url(#SVGID_24_);}
	.st52{opacity:0.6;fill:#D69644;}
	.st53{fill:#D6DCE7;}
	.st54{fill:#5D89BA;}
	.st55{fill:#E0D9D1;}
	.st56{fill:url(#SVGID_25_);}
	.st57{fill:#BFB7AC;}
	.st58{fill:#456E92;}
	.st59{fill:#8EC0DA;}
	.st60{opacity:0.8;fill:#FFFFFF;}
	.st61{fill:#A8B8D1;}
	.st62{fill:#B4B4B5;}
	.st63{fill:url(#SVGID_26_);}
</style>
<g>
	<g>
		<linearGradient id="SVGID_1_" gradientUnits="userSpaceOnUse" x1="303.0409" y1="346.2184" x2="375.2643" y2="346.2184">
			<stop  offset="0" style="stop-color:#F2D397"/>
			<stop  offset="0.5331" style="stop-color:#F3D093"/>
			<stop  offset="0.7526" style="stop-color:#F5CC8F"/>
			<stop  offset="1" style="stop-color:#F3B699"/>
		</linearGradient>
		<path class="st0" d="M367.2,325.2c-1.8-3.5-6.1-10.2-13.6-13.3l-8.4,10.7l-12.1,13.6l-16.9,14l-13.8,10.3c0,0,0.8,13.3,16.9,17.5
			c12.4,3.2,25.9,2.7,31.5,2.3C354.4,358.4,360.9,339.6,367.2,325.2z"/>
		<path class="st47" d="M353.6,379c-0.3-0.8-1.1-1.2-1.9-1c-0.1,0-9.3,2.8-27-0.3c-16.3-2.9-19.2-13.1-19.5-14.4l-0.5-0.5l-0.7,0
			l-1.3-0.3l-0.5,0.7c-0.1,0.2-0.1,0.4,0,0.7c0.1,0.5,2.8,13.5,22,16.9c6.6,1.2,12,1.6,16.3,1.6c7.8,0,11.8-1.2,12.1-1.3
			C353.4,380.6,353.8,379.8,353.6,379z"/>
		<path class="st47" d="M354.7,309.2L354.7,309.2l-3.2,1c0,0-15.4,17.9-18.5,22.7l0.7,0.3l3.3-0.3l2.9-1.4l14.7-18.3l1.1-1.4
			l0.3-1.6C356.2,310,355.8,308.5,354.7,309.2z"/>
		<path class="st47" d="M328.4,359.3c0,0,0.5,5,4.9,5.4l-0.6,0.8l-4.1-1.5L328.4,359.3z"/>
		<linearGradient id="SVGID_2_" gradientUnits="userSpaceOnUse" x1="339.0388" y1="329.5719" x2="341.7055" y2="363.3497">
			<stop  offset="0" style="stop-color:#F2D397"/>
			<stop  offset="0.5331" style="stop-color:#F3D093"/>
			<stop  offset="0.7526" style="stop-color:#F5CC8F"/>
			<stop  offset="1" style="stop-color:#F3B699"/>
		</linearGradient>
		<path class="st4" d="M353.1,343.5c0.9,6.2,0.3,13.1-1.4,15.1c-3.1,3.7-12.6,9.6-22.5,4.7c-0.5-2.1-3.5-14.6,1.5-23.7
			c1.1-2,2.3-3.6,3.7-4.7c4.9-4.1,11-2.7,15.1,0C351.2,335.9,352.5,339,353.1,343.5z"/>
		<linearGradient id="SVGID_3_" gradientUnits="userSpaceOnUse" x1="318.3947" y1="331.1954" x2="321.0613" y2="364.9731">
			<stop  offset="0" style="stop-color:#F2D397"/>
			<stop  offset="0.5331" style="stop-color:#F3D093"/>
			<stop  offset="0.7526" style="stop-color:#F5CC8F"/>
			<stop  offset="1" style="stop-color:#F3B699"/>
		</linearGradient>
		<path class="st6" d="M314.6,332.2c6.9-2.7,13.8,0,17.1,1.6c-2.5,2-4.9,5.4-5.9,10.8c-2.2,11,0.1,16.3,1.6,18.6
			c-16.6,2.9-18.3-2.4-19.3-5.6c-0.1-0.4-0.2-0.7-0.3-1c-0.8-2-1.6-11.7,1.3-18.5C310.3,335.2,312.2,333.2,314.6,332.2z"/>
		<linearGradient id="SVGID_4_" gradientUnits="userSpaceOnUse" x1="301.0461" y1="332.5713" x2="303.7127" y2="366.3491">
			<stop  offset="0" style="stop-color:#F2D397"/>
			<stop  offset="0.5331" style="stop-color:#F3D093"/>
			<stop  offset="0.7526" style="stop-color:#F5CC8F"/>
			<stop  offset="1" style="stop-color:#F3B699"/>
		</linearGradient>
		<path class="st9" d="M295.6,358.8c-2-1.8-3.1-5.6-2.9-10.2c0.2-5.8,2.3-11.1,5.2-13.3c4-3,9.9-2.9,12.9-2.6
			c-2.6,2.1-6,6.4-6.4,14.5c-0.4,7.8,1.1,12,3.4,14.5C305,362,299.3,362,295.6,358.8z"/>
		<linearGradient id="SVGID_5_" gradientUnits="userSpaceOnUse" x1="291.2119" y1="333.3477" x2="293.8785" y2="367.1255">
			<stop  offset="0" style="stop-color:#F2D397"/>
			<stop  offset="0.5331" style="stop-color:#F3D093"/>
			<stop  offset="0.7526" style="stop-color:#F5CC8F"/>
			<stop  offset="1" style="stop-color:#F3B699"/>
		</linearGradient>
		<path class="st10" d="M299.3,332.7c-2.5,1.1-5.8,3.5-7.6,8.5c-1.1,2.8-1.7,6-1.6,9c-1.7-0.8-3.9-2.1-5.1-4.3
			c-1.1-1.9-1.3-4.2-0.6-6.8C286.7,330.6,289.7,331,299.3,332.7z"/>
		<path class="st52" d="M299.3,332.7c-5.6-1-8.9-1.5-11.2-0.1c0.4-0.1,4.6-0.9,6.6,1.4c0,0-8.5,6.7-4.6,16.1c-0.1-3,0.6-6.2,1.6-9
			C293.5,336.2,296.8,333.8,299.3,332.7z"/>
		<path class="st52" d="M297.9,335.4c-1.7,1.3-3.1,3.6-4,6.5l2-4.3c0,0,5-1.6,9-0.5c0,0-7,10.9,1.3,22.2l0,0
			c-1.3-2.6-2.1-6.4-1.8-12.1c0.5-8.1,3.8-12.4,6.4-14.5C307.8,332.4,302,332.3,297.9,335.4z"/>
		<path class="st52" d="M314.6,332.2c-2.4,1-4.3,3-5.6,6c0,0,7.7-4.9,18.1-1.6c0,0-5.8,8.9-2.2,15.8l0,0c0-2.2,0.3-4.8,0.9-7.7
			c1.1-5.5,3.4-8.8,5.9-10.8C328.5,332.2,321.5,329.5,314.6,332.2z"/>
		<path class="st52" d="M349.5,334.8c-4.1-2.7-10.2-4-15.1,0c-1,0.8-1.8,1.8-2.7,3c5.1-0.5,14.8-0.6,21.1,4.1
			C352.2,338.3,351,335.7,349.5,334.8z"/>
		<path class="st47" d="M302.2,363.1c0,0,2,0.2,3,0.2c0,0,0,0,0,0c0.1,0,0.1,0,0.2,0c1.8,0,3.2-0.2,3.9-0.3c1.4,1,2.9,1.6,4.4,2.1
			l0-0.1c1.4,0.4,3.2,0.6,5.3,0.6c2.6,0,5.7-0.3,9.5-1c2.9,1.4,5.8,2,8.5,2c7.3,0,13.4-4.2,15.9-7.1c2.2-2.6,2.7-10.3,1.8-16.3
			c-0.4-2.9-1.5-7.9-4.3-9.7c-2.4-1.5-5.4-2.7-8.5-2.8c0,0,0,0,0,0c0,0-4.5-0.6-8.8,2.1c-3-1.7-10.9-5.2-19-2.1c0,0-0.5,0.2-1.4,0.6
			c-1.3-0.2-5.8-0.8-10.3,0.3c-0.9-0.2-1.8-0.3-2.7-0.5c-5-0.9-8.5-1.5-11.2-0.5c0,0,0,0,0,0c0,0-5.6,1.5-6.9,8
			c-1.2,6.3,0,10.8,8.6,14.2c0.7,4,3,7.5,7.7,9.1l0,0C299.3,362.5,300.8,362.9,302.2,363.1z M334.4,334.8c4.9-4.1,11-2.7,15.1,0
			c1.7,1.1,3,4.2,3.6,8.7c0.9,6.2,0.3,13.1-1.4,15.1c-3.1,3.7-12.6,9.6-22.5,4.7c-0.5-2.1-3.5-14.6,1.5-23.7
			C331.8,337.6,333,336,334.4,334.8z M314.6,332.2c6.9-2.7,13.8,0,17.1,1.6c-2.5,2-4.9,5.4-5.9,10.8c-2.2,11,0.1,16.3,1.6,18.6
			c-16.6,2.9-18.3-2.4-19.3-5.6c-0.1-0.4-0.2-0.7-0.3-1c-0.8-2-1.6-11.7,1.3-18.5C310.3,335.2,312.2,333.2,314.6,332.2z M290,350.1
			c-1.7-0.8-3.9-2.1-5.1-4.3c-1.1-1.9-1.3-4.2-0.6-6.8c2.5-8.5,5.4-8.1,15-6.4c-2.5,1.1-5.8,3.5-7.6,8.5
			C290.6,344,289.9,347.1,290,350.1z M292.7,348.6c0.2-5.8,2.3-11.1,5.2-13.3c4-3,9.9-2.9,12.9-2.6c-2.6,2.1-6,6.4-6.4,14.5
			c-0.4,7.8,1.1,12,3.4,14.5c-2.8,0.3-8.6,0.3-12.2-2.9C293.6,357,292.5,353.2,292.7,348.6z"/>
	</g>
	<g>
		<path class="st32" d="M263.1,284.1c5-5.7,16.2-5.5,16.3-5.5h48l-10.3,16.4h-63.3C255.5,292.9,259.3,288.5,263.1,284.1z"/>
		<polygon class="st53" points="263,283.3 276.8,283.3 268.3,294.9 252.2,295.4 		"/>
		<polygon class="st53" points="283,283.8 302.3,283.8 293.7,295.4 273.4,295.9 		"/>
		<polygon class="st53" points="307.3,283.8 324.9,283.8 317.4,295.4 298.6,295.4 		"/>
		<polygon class="st54" points="328.8,274.2 293,275 289.8,278.3 328.8,278.3 332.2,274.2 		"/>
		<path class="st55" d="M356,278.6v16.1h-8.9c-1.1,0-2-0.6-2.6-1.5c-0.5-0.9-0.6-2,0-3l6.6-11.7H356z"/>
		<linearGradient id="SVGID_6_" gradientUnits="userSpaceOnUse" x1="242.0458" y1="304.2362" x2="448.2682" y2="302.6806">
			<stop  offset="0" style="stop-color:#FFFFFF"/>
			<stop  offset="1" style="stop-color:#FFFCE4"/>
		</linearGradient>
		<path class="st11" d="M384.9,331.7H265c-1.8-1.2-17.4-11.9-26.8-35.3h79.3c0.3,0,0.5-0.1,0.6-0.4l12.9-20.4
			c0.1-0.2,0.1-0.4,0.1-0.6h20.4l-8.2,14.5c-0.8,1.4-0.8,3.1,0.1,4.5c0.8,1.4,2.3,2.2,3.9,2.2h21.9v10.5c0,0.4,0.3,0.8,0.8,0.8h21.8
			L384.9,331.7z"/>
		<path class="st57" d="M332.2,297.4c-2.7,0-4.9-2.2-4.9-4.9c0-2.7,2.2-4.9,4.9-4.9c2.7,0,4.9,2.2,4.9,4.9
			C337.1,295.2,334.9,297.4,332.2,297.4z M332.2,289.2c-1.9,0-3.4,1.5-3.4,3.4c0,1.9,1.5,3.4,3.4,3.4c1.9,0,3.4-1.5,3.4-3.4
			C335.6,290.7,334.1,289.2,332.2,289.2z"/>
		<path class="st58" d="M289.2,278.6c-0.2,0-0.4-0.1-0.5-0.2c-0.3-0.3-0.3-0.8,0-1.1l3.4-3.6c0.1-0.1,0.3-0.2,0.5-0.2h35.4
			c0.4,0,0.8,0.3,0.8,0.8c0,0.4-0.3,0.8-0.8,0.8H293l-3.2,3.3C289.6,278.5,289.4,278.6,289.2,278.6z"/>
		<path class="st59" d="M391.2,313.1H245.7c-0.4,0-0.7-0.3-0.7-0.8c0-0.4,0.3-0.8,0.7-0.8h145.5c0.4,0,0.7,0.3,0.7,0.8
			C391.9,312.8,391.6,313.1,391.2,313.1z"/>
		<path class="st59" d="M389.8,317.8H248.9c-0.4,0-0.8-0.3-0.8-0.8s0.3-0.8,0.8-0.8h140.8c0.4,0,0.8,0.3,0.8,0.8
			S390.2,317.8,389.8,317.8z"/>
		<path class="st59" d="M388.5,322.5H252.9c-0.4,0-0.7-0.3-0.7-0.8s0.3-0.8,0.7-0.8h135.5c0.4,0,0.7,0.3,0.7,0.8
			S388.9,322.5,388.5,322.5z"/>
		<path class="st59" d="M387.2,327.3H258.3c-0.4,0-0.7-0.3-0.7-0.8c0-0.4,0.3-0.8,0.7-0.8h128.9c0.4,0,0.7,0.3,0.7,0.8
			C387.9,326.9,387.6,327.3,387.2,327.3z"/>
		<circle class="st32" cx="332.2" cy="292.6" r="3.4"/>
		<path class="st60" d="M243.2,296.4h-5.1c9.4,23.5,25,34.1,26.8,35.3h2.8C250.4,319.2,244.5,300.9,243.2,296.4z"/>
		<polygon class="st32" points="299.7,294 314.6,283.8 311.1,283.8 303.3,289 		"/>
		<polygon class="st32" points="267.9,283.3 255.4,291.8 252.2,295.4 253.8,295.3 271.5,283.3 		"/>
		<polygon class="st32" points="285.1,295.6 302.2,284 302.3,283.8 293.6,283.8 275.9,295.9 		"/>
		<g>
			<path class="st61" d="M324.5,282.9h-17.1c0,0,0,0-0.1,0c-0.1,0-0.1,0-0.2,0c0,0-0.1,0-0.1,0c0,0-0.1,0-0.1,0.1
				c0,0-0.1,0.1-0.1,0.1c0,0,0,0,0,0l-9.1,12.1c-0.2,0.3-0.2,0.8,0.1,1.1c0.1,0.1,0.3,0.2,0.5,0.2c0.2,0,0.5-0.1,0.6-0.3l8.9-11.8
				h16.7c0.4,0,0.8-0.3,0.8-0.8C325.2,283.2,324.9,282.9,324.5,282.9z"/>
			<path class="st61" d="M277.9,284c0,0,0-0.1,0.1-0.1c0-0.1,0-0.1,0-0.2c0,0,0-0.1,0-0.1c0,0,0,0,0,0c0-0.1,0-0.1,0-0.2
				c0,0,0-0.1,0-0.1c0,0,0-0.1-0.1-0.1c0,0-0.1-0.1-0.1-0.1c0,0,0,0,0,0c0,0-0.1,0-0.1,0c0,0-0.1,0-0.1-0.1c-0.1,0-0.1,0-0.2,0
				c0,0-0.1,0-0.1,0h-14.7c-0.4,0-0.8,0.3-0.8,0.8c0,0.4,0.3,0.8,0.8,0.8h13.2l-8.2,10.9c-0.2,0.3-0.2,0.8,0.1,1.1
				c0.1,0.1,0.3,0.2,0.5,0.2c0.2,0,0.5-0.1,0.6-0.3L277.9,284C277.9,284,277.9,284,277.9,284z"/>
			<path class="st61" d="M303.2,284c0,0,0-0.1,0.1-0.1c0-0.1,0-0.1,0-0.2c0,0,0-0.1,0-0.1c0,0,0,0,0,0c0-0.1,0-0.1,0-0.2
				c0,0,0-0.1,0-0.1c0,0,0-0.1-0.1-0.1c0,0-0.1-0.1-0.1-0.1c0,0,0,0,0,0c0,0-0.1,0-0.1,0c0,0-0.1,0-0.1-0.1c-0.1,0-0.1,0-0.2,0
				c0,0-0.1,0-0.1,0H283c0,0,0,0-0.1,0c-0.1,0-0.1,0-0.2,0c0,0-0.1,0-0.1,0c0,0-0.1,0-0.1,0.1c0,0-0.1,0.1-0.1,0.1c0,0,0,0,0,0
				l-9.1,12.1c-0.2,0.3-0.2,0.8,0.1,1.1c0.1,0.1,0.3,0.2,0.5,0.2c0.2,0,0.5-0.1,0.6-0.3l8.9-11.8h17.8l-8.2,10.9
				c-0.2,0.3-0.2,0.8,0.1,1.1c0.1,0.1,0.3,0.2,0.5,0.2c0.2,0,0.5-0.1,0.6-0.3L303.2,284C303.2,284,303.2,284,303.2,284z"/>
		</g>
		<path class="st62" d="M393.2,306.3c-0.1-0.2-0.4-0.3-0.6-0.3h-22.1v-10.5c0-0.4-0.3-0.8-0.8-0.8h-12.3v-16.9
			c0-0.4-0.3-0.8-0.8-0.8H352l0.8-1.5c0.2-0.4,0.1-0.8-0.3-1c-0.1-0.1-0.2-0.1-0.3-0.1v0H330v0.1c-0.1,0.1-0.2,0.1-0.3,0.2l-1.4,2.2
			h-48.9c-0.5,0-11.9-0.2-17.4,6c-4.7,5.3-9.1,10.6-10.2,11.8h-14.8c-0.2,0-0.5,0.1-0.6,0.3c-0.1,0.2-0.2,0.5-0.1,0.7
			c10,26,27.8,37.1,28,37.2c0.1,0.1,0.3,0.1,0.4,0.1h120.7c0.3,0,0.6-0.2,0.7-0.6l7.1-25.8C393.4,306.7,393.4,306.4,393.2,306.3z
			 M356,278.6v16.1h-8.9c-1.1,0-2-0.6-2.6-1.5c-0.5-0.9-0.6-2,0-3l6.6-11.7H356z M263.1,284.1c5-5.7,16.2-5.5,16.3-5.5h48
			l-10.3,16.4h-63.3C255.5,292.9,259.3,288.5,263.1,284.1z M384.9,331.7H265c-1.8-1.2-17.4-11.9-26.8-35.3h79.3
			c0.3,0,0.5-0.1,0.6-0.4l12.9-20.4c0.1-0.2,0.1-0.4,0.1-0.6h20.4l-8.2,14.5c-0.8,1.4-0.8,3.1,0.1,4.5c0.8,1.4,2.3,2.2,3.9,2.2h21.9
			v10.5c0,0.4,0.3,0.8,0.8,0.8h21.8L384.9,331.7z"/>
		<path class="st58" d="M359.7,275h-31.7c-0.4,0-0.8-0.3-0.8-0.8v-2.9c0-0.4,0.3-0.8,0.8-0.8h31.7c0.4,0,0.8,0.3,0.8,0.8v2.9
			C360.5,274.6,360.2,275,359.7,275z M328.8,273.5H359v-1.4h-30.2V273.5z"/>
		<rect x="328.8" y="272.1" class="st54" width="30.2" height="1.4"/>
	</g>
</g>
<g>
	<g>
		
			<linearGradient id="SVGID_7_" gradientUnits="userSpaceOnUse" x1="3452.4932" y1="381.7801" x2="3537.5642" y2="381.7801" gradientTransform="matrix(-1 0 0 1 4056.4385 0)">
			<stop  offset="0" style="stop-color:#F2D397"/>
			<stop  offset="0.5331" style="stop-color:#F3D093"/>
			<stop  offset="0.7526" style="stop-color:#F5CC8F"/>
			<stop  offset="1" style="stop-color:#F3B699"/>
		</linearGradient>
		<path class="st12" d="M518.7,357.6l8.1-18.4c0-0.5,0.1-1,0.2-1.5c0-0.2,0.1-0.3,0.1-0.5c0.1-0.4,0.1-0.7,0.2-1.1
			c0-0.2,0.1-0.4,0.1-0.5c0.1-0.4,0.2-0.8,0.4-1.2c0-0.1,0.1-0.3,0.1-0.4c0.2-0.5,0.4-1.1,0.6-1.6c0.1-0.1,0.1-0.3,0.2-0.4
			c0.2-0.4,0.3-0.8,0.5-1.2c0.1-0.2,0.2-0.4,0.3-0.6c0.2-0.4,0.4-0.7,0.5-1.1c0.1-0.2,0.2-0.4,0.3-0.6c3-5.6,7.1-11,10.1-14.5
			c0.1-0.1,0.2-0.2,0.3-0.4c15.8,19.9,33.8,47.3,47.8,81.6c0,0,13,12.4,13,29.8c0,17.4-13.3,23.1-20.6,21.5v0
			c-8.2,7-19.6,2.7-21.9-8.7l-0.1-0.2c-0.5,0.3-1,0.6-1.6,0.9c-4.9,2.4-11.3-0.6-13.3-5l0,0l0,0c-0.1-0.2-0.2-0.3-0.2-0.5l0.2-0.1
			l-1.6-14.1l0.5-0.1v-3.6l0.7-2.5c-0.3-0.7-0.6-1.5-0.9-2.3l-0.7-1l-0.9-2.4l-0.1-0.7c-2.7-6.5-6.6-15.4-11.8-26
			c-3.4-7-7.4-14.3-11.2-21L518.7,357.6z"/>
	</g>
	<path class="st42" d="M569.3,417.7c0,0,2.5,19.1-8.3,25.4l-2-5.3C559,437.8,570.6,431.8,569.3,417.7z"/>
	<path class="st42" d="M587.9,423.7c0,0,5,12.8,1.3,21.9c0,0-3.4,1.3-8.4,0.9C580.9,446.5,589.4,442.1,587.9,423.7z"/>
	<path class="st2" d="M569.6,423.7c0,0,0.1,11.4-9.5,15.7l-0.4-1.7C559.7,437.7,569.8,428.6,569.6,423.7z"/>
	<path class="st2" d="M588.8,430.4c0,0,0.7,10.6-5,16.2l-3.5-0.3C580.3,446.4,587.9,439.3,588.8,430.4z"/>
	<path class="st43" d="M518.7,357.6l8.1-18.4c0-0.5,0.1-1,0.2-1.5c0-0.2,0.1-0.3,0.1-0.5c0.1-0.4,0.1-0.7,0.2-1.1
		c0-0.2,0.1-0.4,0.1-0.5c0.1-0.4,0.2-0.8,0.4-1.2c0-0.1,0.1-0.3,0.1-0.4c0.2-0.5,0.4-1.1,0.6-1.6c0.1-0.1,0.1-0.3,0.2-0.4
		c0.2-0.4,0.3-0.8,0.5-1.2c0.1-0.2,0.2-0.4,0.3-0.6c0.2-0.4,0.4-0.7,0.5-1.1c0.1-0.2,0.2-0.4,0.3-0.6c0-0.1,0.1-0.2,0.1-0.2
		c10.8,21.3,22.4,49.5,23.1,73.6c0,0-13.4,17-8.5,33.3c-0.4-0.5-0.7-1-0.9-1.6l0,0l0,0c-0.1-0.2-0.2-0.3-0.2-0.5l0.2-0.1l-1.6-14.1
		l0.5-0.1v-3.6l0.9-3.1l-1.8-2.7l-1-2.5l-20-43.6c0,0-1.1-1.3-2.9-4.2L518.7,357.6z"/>
	<g>
		<path class="st2" d="M542.9,413.8l-0.5-1.1c0,0,0,0,0-0.1c-0.2-0.4-13.2-29-24.9-52l1.3-3l0,0c10.8,20.8,22.7,47,25.4,52.8
			c0.5-1.2,0.9-1.7,0.9-1.7l0,0c1.1-1.9,2.4-3.5,2.5-3.6c0.2-0.3,0.6-0.3,0.9-0.1c0.3,0.2,0.3,0.6,0.1,0.9c-0.2,0.3-0.5,0.6-0.9,1.1
			c0,0-7,10.6-3.1,25.8h0c0.8,2.2,2.8,4.2,5.4,5.3c2.5,1,5.1,1,7.2-0.1c8.5-4.3,13.1-13.4,11.2-22.3c-0.1-0.3,0.1-0.7,0.5-0.8
			c0.3-0.1,0.7,0.1,0.8,0.5c1.9,8.7-2.1,17.6-9.9,22.5c1.2,5.4,4.6,9.5,9.1,10.9c4.4,1.3,8.9,0,12.6-3.6c8.9-8.9,5.5-22.4,5.5-22.5
			c-0.1-0.3,0.1-0.7,0.5-0.8c0.3-0.1,0.7,0.1,0.8,0.5c0,0.1,3.6,14.3-5.8,23.8c0,0,0,0,0,0c3,0.3,7.3-0.5,11.2-3.7
			c3.3-2.7,7.3-7.9,7.3-17.4c0-17-12.6-29.2-12.8-29.3c-0.1-0.1-0.1-0.1-0.2-0.2c-14-34.3-32-61.5-47.7-81.3
			c0.1-0.1,0.1-0.2,0.2-0.2c1.1-1.3,2.1-2.4,2.7-3c0,0,0,0,0,0c5.2,6.5,10.7,13.8,16,22l0,0c0,0,25.9,38.6,31.6,60.1
			c7,9.1,20.2,30.1,7.6,46.1c-1.2,1.8-2.6,3.2-3.9,4.3c-0.5,0.4-1,0.8-1.6,1.1c-0.1,0.1-0.2,0.1-0.2,0.1c0,0,0.1,0,0.1-0.1
			c-2.9,1.8-6.1,2.8-9.2,2.8c-0.8,0-1.6-0.1-2.4-0.2c-2.7,2.2-5.8,3.4-8.9,3.4c-1.2,0-2.5-0.2-3.7-0.5c-4.9-1.5-8.6-5.7-9.9-11.4
			c-0.3,0.2-0.6,0.3-0.9,0.5c-1.2,0.6-2.6,0.9-4.1,0.9c-1.4,0-2.8-0.3-4.2-0.8c-2.7-1.1-4.8-3.1-5.9-5.4h0c0,0,0-0.1-0.1-0.2
			c-0.1-0.1-0.1-0.3-0.2-0.4c0,0,0,0,0,0c0,0-1.1-2.6-1.4-7c-0.2-1.8-0.2-3.7-0.1-5.9C541.9,417.7,542.4,415.5,542.9,413.8z"/>
	</g>
</g>
</svg>
