<?xml version="1.0" encoding="utf-8"?>
<!-- Generator: Adobe Illustrator 21.0.0, SVG Export Plug-In . SVG Version: 6.00 Build 0)  -->
<svg version="1.1" id="圖層_1" xmlns="http://www.w3.org/2000/svg" xmlns:xlink="http://www.w3.org/1999/xlink" x="0px" y="0px"
	 viewBox="0 0 822.9 601.4" style="enable-background:new 0 0 822.9 601.4;" xml:space="preserve">
<style type="text/css">
	.st0{fill:url(#SVGID_1_);}
	.st1{fill:#A7B3BD;}
	.st2{opacity:0.5;fill:#DEE6EE;}
	.st3{opacity:0.6;clip-path:url(#SVGID_3_);}
	.st4{fill:#C8D5E2;}
	.st5{fill:#A3372A;}
	.st6{fill:#D2503A;}
	.st7{fill:url(#SVGID_4_);}
	.st8{fill:#C9A990;}
	.st9{fill:#231815;}
	.st10{fill:#C78C38;}
	.st11{fill:#F0C455;}
	.st12{opacity:0.7;fill:url(#SVGID_5_);}
	.st13{opacity:0.7;fill:url(#SVGID_6_);}
	.st14{fill:url(#SVGID_7_);}
	.st15{fill:url(#SVGID_8_);}
	.st16{fill:url(#SVGID_9_);}
	.st17{fill:url(#SVGID_10_);}
	.st18{fill:url(#SVGID_11_);}
	.st19{fill:url(#SVGID_12_);}
	.st20{fill:#9A7138;}
	.st21{fill:#C69551;}
	.st22{opacity:0.6;fill:#BDB054;}
	.st23{fill:url(#SVGID_13_);}
	.st24{fill:url(#SVGID_14_);}
	.st25{fill:url(#SVGID_15_);}
	.st26{fill:url(#SVGID_16_);}
	.st27{fill:url(#SVGID_17_);}
	.st28{fill:url(#SVGID_18_);}
	.st29{fill:url(#SVGID_19_);}
	.st30{fill:url(#SVGID_20_);}
	.st31{fill:url(#SVGID_21_);}
	.st32{fill:#9B7B66;}
	.st33{fill:#A5AAB0;}
	.st34{fill:#DBB296;}
	.st35{fill:#58381F;}
	.st36{fill:url(#SVGID_22_);}
	.st37{opacity:0.5;fill:#A3842F;}
	.st38{opacity:0.61;fill:#58381F;}
	.st39{fill:#C6A668;}
	.st40{fill:#A4A626;}
	.st41{fill:url(#SVGID_23_);}
	.st42{opacity:0.6;fill:#D6D97E;}
	.st43{opacity:0.6;}
	.st44{fill:url(#SVGID_24_);}
	.st45{fill:url(#SVGID_25_);}
	.st46{fill:url(#SVGID_26_);}
	.st47{fill:url(#SVGID_27_);}
	.st48{opacity:0.5;}
	.st49{fill:url(#SVGID_28_);}
	.st50{fill:#9DA445;}
	.st51{fill:#B24422;}
	.st52{fill:url(#SVGID_29_);}
	.st53{fill:#FFFFFF;}
	.st54{fill:#886343;}
	.st55{fill:#6D4620;}
	.st56{opacity:0.4;fill:#D2503A;}
	.st57{fill:#F3B699;}
	.st58{fill:url(#SVGID_30_);}
	.st59{fill:url(#SVGID_31_);}
	.st60{fill:url(#SVGID_32_);}
	.st61{fill:url(#SVGID_33_);}
	.st62{fill:url(#SVGID_34_);}
	.st63{fill:#E1BE3F;}
	.st64{fill:#AB6C21;}
	.st65{opacity:0.6;fill:#E1BE3F;}
	.st66{fill:url(#SVGID_35_);}
	.st67{fill:#66411D;}
	.st68{fill:url(#SVGID_36_);}
	.st69{fill:#D9B974;}
	.st70{fill:#DCBF93;}
	.st71{fill:url(#SVGID_37_);}
	.st72{fill:url(#SVGID_38_);}
	.st73{fill:url(#SVGID_39_);}
	.st74{fill:url(#SVGID_40_);}
	.st75{fill:#8C5924;}
	.st76{fill:url(#SVGID_41_);}
	.st77{fill:url(#SVGID_42_);}
	.st78{fill:url(#SVGID_43_);}
	.st79{fill:url(#SVGID_44_);}
	.st80{fill:#F4E3A5;}
	.st81{fill:#DEB87D;}
	.st82{fill:url(#SVGID_45_);}
	.st83{fill:url(#SVGID_46_);}
	.st84{fill:#3F210F;}
	.st85{opacity:0.25;fill:#E1BE3F;}
	.st86{opacity:0.5;fill:#E1BE3F;}
	.st87{fill:#F8E5A9;}
	.st88{fill:#DDBC90;}
	.st89{opacity:0.4;fill:#E1BE3F;}
	.st90{fill:#875424;}
	.st91{fill:#3F210E;}
	.st92{fill:#C88E2C;}
	.st93{fill:#AC7327;}
	.st94{fill:#814323;}
	.st95{fill:#D7C6A6;}
	.st96{fill:url(#SVGID_47_);}
	.st97{fill:#4A1E0E;}
	.st98{fill:#3A1D13;}
	.st99{fill:url(#SVGID_48_);}
	.st100{fill:#EAA593;}
	.st101{fill:url(#SVGID_49_);}
	.st102{fill:url(#SVGID_50_);}
	.st103{fill:#2C2C2C;}
	.st104{fill:#767776;}
	.st105{fill:#B1B0B0;}
	.st106{fill:#D2D2D3;}
	.st107{fill:#5A5756;}
	.st108{opacity:0.8;fill:#2C2C2C;}
	.st109{fill:#151515;}
	.st110{fill:#383737;}
	.st111{fill:url(#SVGID_51_);}
	.st112{fill:#517F99;}
	.st113{fill:url(#SVGID_52_);}
	.st114{fill:url(#SVGID_53_);}
	.st115{fill:url(#SVGID_54_);}
	.st116{fill:url(#SVGID_55_);}
	.st117{fill:url(#SVGID_56_);}
	.st118{fill:#4E7392;}
	.st119{fill:#3B627C;}
	.st120{fill:#2C404B;}
	.st121{fill:#4E6673;}
	.st122{fill:url(#SVGID_57_);}
	.st123{opacity:0.6;fill:#D59543;}
	.st124{fill:url(#SVGID_58_);}
	.st125{fill:url(#SVGID_59_);}
	.st126{fill:#E5A852;}
	.st127{fill:#D6B092;}
	.st128{fill:url(#SVGID_60_);}
	.st129{opacity:0.8;fill:#D59543;}
	.st130{fill:url(#SVGID_61_);}
	.st131{fill:url(#SVGID_62_);}
	.st132{fill:url(#SVGID_63_);}
	.st133{fill:url(#SVGID_64_);}
	.st134{fill:url(#SVGID_65_);}
	.st135{fill:url(#SVGID_66_);}
	.st136{fill:url(#SVGID_67_);}
	.st137{fill:url(#SVGID_68_);}
	.st138{opacity:0.25;fill:#D59543;}
	.st139{opacity:0.5;fill:#D59543;}
	.st140{fill:#FAF4C2;}
	.st141{fill:#C9793C;}
	.st142{fill:#9E5929;}
	.st143{fill:url(#SVGID_69_);}
	.st144{fill:#883828;}
	.st145{fill:url(#SVGID_70_);}
	.st146{fill:url(#SVGID_71_);}
	.st147{fill:url(#SVGID_72_);}
	.st148{fill:#A75D35;}
	.st149{fill:#EED29C;}
	.st150{fill:#7D4320;}
	.st151{fill:url(#SVGID_73_);}
	.st152{fill:#D59543;}
	.st153{fill:url(#SVGID_74_);}
	.st154{fill:url(#SVGID_75_);}
	.st155{fill:url(#SVGID_76_);}
	.st156{fill:url(#SVGID_77_);}
	.st157{fill:url(#SVGID_78_);}
	.st158{fill:url(#SVGID_79_);}
	.st159{fill:url(#SVGID_80_);}
	.st160{fill:url(#SVGID_81_);}
	.st161{fill:url(#SVGID_82_);}
	.st162{opacity:0.3;fill:#81BB5B;}
	.st163{fill:#F8E285;}
	.st164{fill:#5D8E3F;}
	.st165{fill:#8F5237;}
	.st166{fill:url(#SVGID_83_);}
	.st167{fill:url(#SVGID_84_);}
	.st168{fill:#CEA686;}
	.st169{fill:url(#SVGID_85_);}
	.st170{fill:url(#SVGID_86_);}
	.st171{fill:#AC6D21;}
	.st172{fill:url(#SVGID_87_);}
	.st173{fill:url(#SVGID_88_);}
	.st174{fill:url(#SVGID_89_);}
	.st175{fill:url(#SVGID_90_);}
	.st176{opacity:0.6;fill:#D69644;}
	.st177{fill:url(#SVGID_91_);}
	.st178{fill:url(#SVGID_92_);}
	.st179{fill:url(#SVGID_93_);}
	.st180{fill:url(#SVGID_94_);}
	.st181{fill:url(#SVGID_95_);}
</style>
<g>
	<g>
		<linearGradient id="SVGID_1_" gradientUnits="userSpaceOnUse" x1="303.4196" y1="345.9816" x2="375.6429" y2="345.9816">
			<stop  offset="0" style="stop-color:#F2D397"/>
			<stop  offset="0.5331" style="stop-color:#F3D093"/>
			<stop  offset="0.7526" style="stop-color:#F5CC8F"/>
			<stop  offset="1" style="stop-color:#F3B699"/>
		</linearGradient>
		<path class="st0" d="M367.5,324.9c-1.8-3.5-6.1-10.2-13.6-13.3l-8.4,10.7l-12.1,13.6l-16.9,14l-13.8,10.3c0,0,0.8,13.3,16.9,17.5
			c12.4,3.2,25.9,2.7,31.5,2.3C354.8,358.2,361.3,339.4,367.5,324.9z"/>
		<path class="st171" d="M354,378.8c-0.3-0.8-1.1-1.2-1.9-1c-0.1,0-9.3,2.8-27-0.3c-16.3-2.9-19.2-13.1-19.5-14.4l-0.5-0.5l-0.7,0
			l-1.3-0.3l-0.5,0.7c-0.1,0.2-0.1,0.4,0,0.7c0.1,0.5,2.8,13.5,22,16.9c6.6,1.2,12,1.6,16.3,1.6c7.8,0,11.8-1.2,12.1-1.3
			C353.8,380.4,354.2,379.6,354,378.8z"/>
		<path class="st171" d="M355.1,308.9L355.1,308.9l-3.2,1c0,0-15.4,17.9-18.5,22.7l0.7,0.3l3.3-0.3l2.9-1.4l14.7-18.3l1.1-1.4
			l0.3-1.6C356.6,309.8,356.2,308.3,355.1,308.9z"/>
		<path class="st171" d="M328.8,359.1c0,0,0.5,5,4.9,5.4l-0.6,0.8l-4.1-1.5L328.8,359.1z"/>
		<linearGradient id="SVGID_3_" gradientUnits="userSpaceOnUse" x1="339.4175" y1="329.3351" x2="342.0842" y2="363.1129">
			<stop  offset="0" style="stop-color:#F2D397"/>
			<stop  offset="0.5331" style="stop-color:#F3D093"/>
			<stop  offset="0.7526" style="stop-color:#F5CC8F"/>
			<stop  offset="1" style="stop-color:#F3B699"/>
		</linearGradient>
		<path style="fill:url(#SVGID_3_);" d="M353.5,343.2c0.9,6.2,0.3,13.1-1.4,15.1c-3.1,3.7-12.6,9.6-22.5,4.7
			c-0.5-2.1-3.5-14.6,1.5-23.7c1.1-2,2.3-3.6,3.7-4.7c4.9-4.1,11-2.7,15.1,0C351.5,335.6,352.9,338.8,353.5,343.2z"/>
		<linearGradient id="SVGID_4_" gradientUnits="userSpaceOnUse" x1="318.7733" y1="330.9586" x2="321.44" y2="364.7363">
			<stop  offset="0" style="stop-color:#F2D397"/>
			<stop  offset="0.5331" style="stop-color:#F3D093"/>
			<stop  offset="0.7526" style="stop-color:#F5CC8F"/>
			<stop  offset="1" style="stop-color:#F3B699"/>
		</linearGradient>
		<path class="st7" d="M315,332c6.9-2.7,13.8,0,17.1,1.6c-2.5,2-4.9,5.4-5.9,10.8c-2.2,11,0.1,16.3,1.6,18.6
			c-16.6,2.9-18.3-2.4-19.3-5.6c-0.1-0.4-0.2-0.7-0.3-1c-0.8-2-1.6-11.7,1.3-18.5C310.7,334.9,312.6,332.9,315,332z"/>
		<linearGradient id="SVGID_5_" gradientUnits="userSpaceOnUse" x1="301.4247" y1="332.3344" x2="304.0914" y2="366.1124">
			<stop  offset="0" style="stop-color:#F2D397"/>
			<stop  offset="0.5331" style="stop-color:#F3D093"/>
			<stop  offset="0.7526" style="stop-color:#F5CC8F"/>
			<stop  offset="1" style="stop-color:#F3B699"/>
		</linearGradient>
		<path style="fill:url(#SVGID_5_);" d="M296,358.5c-2-1.8-3.1-5.6-2.9-10.2c0.2-5.8,2.3-11.1,5.2-13.3c4-3,9.9-2.9,12.9-2.6
			c-2.6,2.1-6,6.4-6.4,14.5c-0.4,7.8,1.1,12,3.4,14.5C305.4,361.7,299.6,361.8,296,358.5z"/>
		<linearGradient id="SVGID_6_" gradientUnits="userSpaceOnUse" x1="291.5905" y1="333.1108" x2="294.2572" y2="366.8885">
			<stop  offset="0" style="stop-color:#F2D397"/>
			<stop  offset="0.5331" style="stop-color:#F3D093"/>
			<stop  offset="0.7526" style="stop-color:#F5CC8F"/>
			<stop  offset="1" style="stop-color:#F3B699"/>
		</linearGradient>
		<path style="fill:url(#SVGID_6_);" d="M299.6,332.5c-2.5,1.1-5.8,3.5-7.6,8.5c-1.1,2.8-1.7,6-1.6,9c-1.7-0.8-3.9-2.1-5.1-4.3
			c-1.1-1.9-1.3-4.2-0.6-6.8C287.1,330.3,290,330.8,299.6,332.5z"/>
		<path class="st176" d="M299.6,332.5c-5.6-1-8.9-1.5-11.2-0.1c0.4-0.1,4.6-0.9,6.6,1.4c0,0-8.5,6.7-4.6,16.1c-0.1-3,0.6-6.2,1.6-9
			C293.9,336,297.2,333.6,299.6,332.5z"/>
		<path class="st176" d="M298.3,335.1c-1.7,1.3-3.1,3.6-4,6.5l2-4.3c0,0,5-1.6,9-0.5c0,0-7,10.9,1.3,22.2l0,0
			c-1.3-2.6-2.1-6.4-1.8-12.1c0.5-8.1,3.8-12.4,6.4-14.5C308.2,332.2,302.3,332.1,298.3,335.1z"/>
		<path class="st176" d="M315,332c-2.4,1-4.3,3-5.6,6c0,0,7.7-4.9,18.1-1.6c0,0-5.8,8.9-2.2,15.8l0,0c0-2.2,0.3-4.8,0.9-7.7
			c1.1-5.5,3.4-8.8,5.9-10.8C328.8,332,321.9,329.3,315,332z"/>
		<path class="st176" d="M349.9,334.6c-4.1-2.7-10.2-4-15.1,0c-1,0.8-1.8,1.8-2.7,3c5.1-0.5,14.8-0.6,21.1,4.1
			C352.5,338,351.3,335.5,349.9,334.6z"/>
		<path class="st171" d="M302.6,362.9c0,0,2,0.2,3,0.2c0,0,0,0,0,0c0.1,0,0.1,0,0.2,0c1.8,0,3.2-0.2,3.9-0.3c1.4,1,2.9,1.6,4.4,2.1
			l0-0.1c1.4,0.4,3.2,0.6,5.3,0.6c2.6,0,5.7-0.3,9.5-1c2.9,1.4,5.8,2,8.5,2c7.3,0,13.4-4.2,15.9-7.1c2.2-2.6,2.7-10.3,1.8-16.3
			c-0.4-2.9-1.5-7.9-4.3-9.7c-2.4-1.5-5.4-2.7-8.5-2.8c0,0,0,0,0,0c0,0-4.5-0.6-8.8,2.1c-3-1.7-10.9-5.2-19-2.1c0,0-0.5,0.2-1.4,0.6
			c-1.3-0.2-5.8-0.8-10.3,0.3c-0.9-0.2-1.8-0.3-2.7-0.5c-5-0.9-8.5-1.5-11.2-0.5c0,0,0,0,0,0c0,0-5.6,1.5-6.9,8
			c-1.2,6.3,0,10.8,8.6,14.2c0.7,4,3,7.5,7.7,9.1l0,0C299.7,362.3,301.2,362.7,302.6,362.9z M334.8,334.6c4.9-4.1,11-2.7,15.1,0
			c1.7,1.1,3,4.2,3.6,8.7c0.9,6.2,0.3,13.1-1.4,15.1c-3.1,3.7-12.6,9.6-22.5,4.7c-0.5-2.1-3.5-14.6,1.5-23.7
			C332.2,337.4,333.4,335.8,334.8,334.6z M315,332c6.9-2.7,13.8,0,17.1,1.6c-2.5,2-4.9,5.4-5.9,10.8c-2.2,11,0.1,16.3,1.6,18.6
			c-16.6,2.9-18.3-2.4-19.3-5.6c-0.1-0.4-0.2-0.7-0.3-1c-0.8-2-1.6-11.7,1.3-18.5C310.7,334.9,312.6,332.9,315,332z M290.4,349.9
			c-1.7-0.8-3.9-2.1-5.1-4.3c-1.1-1.9-1.3-4.2-0.6-6.8c2.5-8.5,5.4-8.1,15-6.4c-2.5,1.1-5.8,3.5-7.6,8.5
			C291,343.8,290.3,346.9,290.4,349.9z M293.1,348.4c0.2-5.8,2.3-11.1,5.2-13.3c4-3,9.9-2.9,12.9-2.6c-2.6,2.1-6,6.4-6.4,14.5
			c-0.4,7.8,1.1,12,3.4,14.5c-2.8,0.3-8.6,0.3-12.2-2.9C294,356.8,292.9,353,293.1,348.4z"/>
	</g>
	<g>
		<g>
			<linearGradient id="SVGID_7_" gradientUnits="userSpaceOnUse" x1="292.3334" y1="240.18" x2="317.5186" y2="256.6245">
				<stop  offset="0" style="stop-color:#F8E285"/>
				<stop  offset="0.2803" style="stop-color:#DAD97B"/>
				<stop  offset="0.8867" style="stop-color:#8FC060"/>
				<stop  offset="1" style="stop-color:#81BB5B"/>
			</linearGradient>
			<path class="st14" d="M320.4,256.4c-11.9,1.8-19.8,0.3-23.7-4.3c-3.5-4.2-2.5-10-1.9-12.5c1.6,1.1,5.6,2.6,14.5,4.1
				c4.8,0.8,8.1,2.6,9.9,5.4C321,252,320.6,255.2,320.4,256.4z"/>
			<linearGradient id="SVGID_8_" gradientUnits="userSpaceOnUse" x1="331.6416" y1="245.9328" x2="332.3823" y2="258.6736">
				<stop  offset="0" style="stop-color:#F8E285"/>
				<stop  offset="0.2803" style="stop-color:#DAD97B"/>
				<stop  offset="0.8867" style="stop-color:#8FC060"/>
				<stop  offset="1" style="stop-color:#81BB5B"/>
			</linearGradient>
			<path class="st15" d="M328.7,259.5c0,0-4.1,0.8-6.6-0.6c0.2-1.9,1.8-9.3,12.5-10.8c1-0.1,5.2-0.5,7.4-1.1
				C341.9,249.9,340.6,258,328.7,259.5z"/>
			<path class="st162" d="M320.4,256.4c0,0-2.7-5-7.8-6.3c-5-1.3-10.7-3.7-11.1-4.3c-0.4-0.6,1.6,3.3,10.4,6.1c8.7,2.8,9,6,9,6
				L320.4,256.4z"/>
			<path class="st162" d="M320.6,259.3c0,0,5.4-7.1,11.5-7.5c0,0,6-1,8-2.4c0,0-3.8,3.1-8,4C327.9,254.4,320.6,259.3,320.6,259.3z"
				/>
			<path class="st163" d="M319.7,250c-0.2-0.3-0.3-0.6-0.5-1c-1.8-2.8-5.1-4.6-9.9-5.4c-8.9-1.5-12.8-2.9-14.5-4.1
				c0,0,3.3,4.6,9,5.2C309.6,245.4,316.3,244.6,319.7,250z"/>
			<path class="st164" d="M343.5,246c0-0.2-0.2-0.5-0.4-0.6c-0.2-0.1-0.5-0.1-0.7,0c-0.9,0.4-5.3,1-8,1.3c-7.2,1-10.7,4.6-12.3,7.7
				c0-1.7-0.3-3.9-1.7-6.1c-2-3.2-5.7-5.3-10.9-6.1c-12.5-2.1-14.2-4-14.3-4.2c-0.1-0.3-0.3-0.5-0.6-0.6c-0.4-0.1-0.7,0.1-0.8,0.5
				c-0.1,0.4-3.2,9.1,1.8,15.2c3.1,3.7,8.4,5.6,15.9,5.6c2.8,0,5.9-0.3,9.3-0.8c-0.2,0.9-0.2,1.4-0.2,1.4c0,0,0,0,0,0c0,0,0,0,0,0
				v17.3c0,0.4,0.3,0.8,0.8,0.8c0.4,0,0.8-0.3,0.8-0.8v-16.1c1.3,0.6,2.9,0.7,4.1,0.7c1.5,0,2.7-0.2,2.7-0.2
				C344.5,259.1,343.5,246.1,343.5,246z M320.4,256.4c-11.9,1.8-19.8,0.3-23.7-4.3c-3.5-4.2-2.5-10-1.9-12.5
				c1.6,1.1,5.6,2.6,14.5,4.1c4.8,0.8,8.1,2.6,9.9,5.4C321,252,320.6,255.2,320.4,256.4z M328.7,259.5c0,0-4.1,0.8-6.6-0.6
				c0.2-1.9,1.8-9.3,12.5-10.8c1-0.1,5.2-0.5,7.4-1.1C341.9,249.9,340.6,258,328.7,259.5z"/>
		</g>
		<path class="st165" d="M353.6,275.9h-66.1c-0.4,0-0.8,0.3-0.8,0.8v16.8c0,0.4,0.3,0.8,0.8,0.8h3.2l3.9,45.6c0,0.4,0.4,0.7,0.7,0.7
			h49.8c0.4,0,0.7-0.3,0.7-0.7l4.9-45.7h2.7c0.4,0,0.8-0.3,0.8-0.8v-16.8C354.3,276.2,354,275.9,353.6,275.9z M344.5,339h-48.5
			l-3.9-44.8h57.2L344.5,339z M352.8,292.6h-2.6h-58.8h-3.2v-15.3h64.6V292.6z"/>
		<linearGradient id="SVGID_9_" gradientUnits="userSpaceOnUse" x1="292.0842" y1="316.3833" x2="349.2612" y2="316.701">
			<stop  offset="0" style="stop-color:#AD7D50"/>
			<stop  offset="1" style="stop-color:#AF6038"/>
		</linearGradient>
		<polygon class="st16" points="344.5,339 296.1,339 292.2,294.1 349.4,294.1 		"/>
		<linearGradient id="SVGID_10_" gradientUnits="userSpaceOnUse" x1="288.1829" y1="284.8182" x2="352.8742" y2="285.1776">
			<stop  offset="0" style="stop-color:#AD7D50"/>
			<stop  offset="1" style="stop-color:#AF6038"/>
		</linearGradient>
		<polygon class="st17" points="352.8,292.6 350.2,292.6 291.4,292.6 288.2,292.6 288.2,277.4 352.8,277.4 		"/>
		<path class="st168" d="M292.2,277.4h-4v15.3h3.2h0.7l-0.2-2.1c0,0-0.1-6.4,0-10.8C291.9,278.7,292,278,292.2,277.4z"/>
		<polygon class="st168" points="294.1,294.1 292.2,294.1 296.1,339 298,339 		"/>
	</g>
</g>
<g>
	<g>
		
			<linearGradient id="SVGID_11_" gradientUnits="userSpaceOnUse" x1="3452.4932" y1="381.7801" x2="3537.5642" y2="381.7801" gradientTransform="matrix(-1 0 0 1 4056.4385 0)">
			<stop  offset="0" style="stop-color:#F2D397"/>
			<stop  offset="0.5331" style="stop-color:#F3D093"/>
			<stop  offset="0.7526" style="stop-color:#F5CC8F"/>
			<stop  offset="1" style="stop-color:#F3B699"/>
		</linearGradient>
		<path class="st18" d="M518.7,357.6l8.1-18.4c0-0.5,0.1-1,0.2-1.5c0-0.2,0.1-0.3,0.1-0.5c0.1-0.4,0.1-0.7,0.2-1.1
			c0-0.2,0.1-0.4,0.1-0.5c0.1-0.4,0.2-0.8,0.4-1.2c0-0.1,0.1-0.3,0.1-0.4c0.2-0.5,0.4-1.1,0.6-1.6c0.1-0.1,0.1-0.3,0.2-0.4
			c0.2-0.4,0.3-0.8,0.5-1.2c0.1-0.2,0.2-0.4,0.3-0.6c0.2-0.4,0.4-0.7,0.5-1.1c0.1-0.2,0.2-0.4,0.3-0.6c3-5.6,7.1-11,10.1-14.5
			c0.1-0.1,0.2-0.2,0.3-0.4c15.8,19.9,33.8,47.3,47.8,81.6c0,0,13,12.4,13,29.8c0,17.4-13.3,23.1-20.6,21.5v0
			c-8.2,7-19.6,2.7-21.9-8.7l-0.1-0.2c-0.5,0.3-1,0.6-1.6,0.9c-4.9,2.4-11.3-0.6-13.3-5l0,0l0,0c-0.1-0.2-0.2-0.3-0.2-0.5l0.2-0.1
			l-1.6-14.1l0.5-0.1v-3.6l0.7-2.5c-0.3-0.7-0.6-1.5-0.9-2.3l-0.7-1l-0.9-2.4l-0.1-0.7c-2.7-6.5-6.6-15.4-11.8-26
			c-3.4-7-7.4-14.3-11.2-21L518.7,357.6z"/>
	</g>
	<path class="st152" d="M569.3,417.7c0,0,2.5,19.1-8.3,25.4l-2-5.3C559,437.8,570.6,431.8,569.3,417.7z"/>
	<path class="st152" d="M587.9,423.7c0,0,5,12.8,1.3,21.9c0,0-3.4,1.3-8.4,0.9C580.9,446.5,589.4,442.1,587.9,423.7z"/>
	<path class="st64" d="M569.6,423.7c0,0,0.1,11.4-9.5,15.7l-0.4-1.7C559.7,437.7,569.8,428.6,569.6,423.7z"/>
	<path class="st64" d="M588.8,430.4c0,0,0.7,10.6-5,16.2l-3.5-0.3C580.3,446.4,587.9,439.3,588.8,430.4z"/>
	<path class="st123" d="M518.7,357.6l8.1-18.4c0-0.5,0.1-1,0.2-1.5c0-0.2,0.1-0.3,0.1-0.5c0.1-0.4,0.1-0.7,0.2-1.1
		c0-0.2,0.1-0.4,0.1-0.5c0.1-0.4,0.2-0.8,0.4-1.2c0-0.1,0.1-0.3,0.1-0.4c0.2-0.5,0.4-1.1,0.6-1.6c0.1-0.1,0.1-0.3,0.2-0.4
		c0.2-0.4,0.3-0.8,0.5-1.2c0.1-0.2,0.2-0.4,0.3-0.6c0.2-0.4,0.4-0.7,0.5-1.1c0.1-0.2,0.2-0.4,0.3-0.6c0-0.1,0.1-0.2,0.1-0.2
		c10.8,21.3,22.4,49.5,23.1,73.6c0,0-13.4,17-8.5,33.3c-0.4-0.5-0.7-1-0.9-1.6l0,0l0,0c-0.1-0.2-0.2-0.3-0.2-0.5l0.2-0.1l-1.6-14.1
		l0.5-0.1v-3.6l0.9-3.1l-1.8-2.7l-1-2.5l-20-43.6c0,0-1.1-1.3-2.9-4.2L518.7,357.6z"/>
	<g>
		<path class="st64" d="M542.9,413.8l-0.5-1.1c0,0,0,0,0-0.1c-0.2-0.4-13.2-29-24.9-52l1.3-3l0,0c10.8,20.8,22.7,47,25.4,52.8
			c0.5-1.2,0.9-1.7,0.9-1.7l0,0c1.1-1.9,2.4-3.5,2.5-3.6c0.2-0.3,0.6-0.3,0.9-0.1c0.3,0.2,0.3,0.6,0.1,0.9c-0.2,0.3-0.5,0.6-0.9,1.1
			c0,0-7,10.6-3.1,25.8h0c0.8,2.2,2.8,4.2,5.4,5.3c2.5,1,5.1,1,7.2-0.1c8.5-4.3,13.1-13.4,11.2-22.3c-0.1-0.3,0.1-0.7,0.5-0.8
			c0.3-0.1,0.7,0.1,0.8,0.5c1.9,8.7-2.1,17.6-9.9,22.5c1.2,5.4,4.6,9.5,9.1,10.9c4.4,1.3,8.9,0,12.6-3.6c8.9-8.9,5.5-22.4,5.5-22.5
			c-0.1-0.3,0.1-0.7,0.5-0.8c0.3-0.1,0.7,0.1,0.8,0.5c0,0.1,3.6,14.3-5.8,23.8c0,0,0,0,0,0c3,0.3,7.3-0.5,11.2-3.7
			c3.3-2.7,7.3-7.9,7.3-17.4c0-17-12.6-29.2-12.8-29.3c-0.1-0.1-0.1-0.1-0.2-0.2c-14-34.3-32-61.5-47.7-81.3
			c0.1-0.1,0.1-0.2,0.2-0.2c1.1-1.3,2.1-2.4,2.7-3c0,0,0,0,0,0c5.2,6.5,10.7,13.8,16,22l0,0c0,0,25.9,38.6,31.6,60.1
			c7,9.1,20.2,30.1,7.6,46.1c-1.2,1.8-2.6,3.2-3.9,4.3c-0.5,0.4-1,0.8-1.6,1.1c-0.1,0.1-0.2,0.1-0.2,0.1c0,0,0.1,0,0.1-0.1
			c-2.9,1.8-6.1,2.8-9.2,2.8c-0.8,0-1.6-0.1-2.4-0.2c-2.7,2.2-5.8,3.4-8.9,3.4c-1.2,0-2.5-0.2-3.7-0.5c-4.9-1.5-8.6-5.7-9.9-11.4
			c-0.3,0.2-0.6,0.3-0.9,0.5c-1.2,0.6-2.6,0.9-4.1,0.9c-1.4,0-2.8-0.3-4.2-0.8c-2.7-1.1-4.8-3.1-5.9-5.4h0c0,0,0-0.1-0.1-0.2
			c-0.1-0.1-0.1-0.3-0.2-0.4c0,0,0,0,0,0c0,0-1.1-2.6-1.4-7c-0.2-1.8-0.2-3.7-0.1-5.9C541.9,417.7,542.4,415.5,542.9,413.8z"/>
	</g>
</g>
</svg>
