<?xml version="1.0" encoding="utf-8"?>
<!-- Generator: Adobe Illustrator 21.0.0, SVG Export Plug-In . SVG Version: 6.00 Build 0)  -->
<svg version="1.1" id="圖層_1" xmlns="http://www.w3.org/2000/svg" xmlns:xlink="http://www.w3.org/1999/xlink" x="0px" y="0px"
	 viewBox="0 0 822.9 601.4" style="enable-background:new 0 0 822.9 601.4;" xml:space="preserve">
<style type="text/css">
	.st0{fill:url(#SVGID_1_);}
	.st1{fill:#D59543;}
	.st2{fill:#AB6C21;}
	.st3{opacity:0.6;fill:#D59543;enable-background:new    ;}
	.st4{fill:url(#SVGID_2_);}
	.st5{fill:url(#SVGID_3_);}
	.st6{fill:#9F7433;}
	.st7{fill:#746766;}
	.st8{opacity:0.5;}
	.st9{fill:#2F2A28;}
	.st10{opacity:0.5;fill:#2F2A28;enable-background:new    ;}
	.st11{fill:#865C25;}
	.st12{fill:#755325;}
	.st13{fill:none;stroke:#746766;stroke-width:0.8163;stroke-linecap:round;stroke-miterlimit:10;}
	.st14{fill:url(#SVGID_4_);}
	.st15{fill:url(#SVGID_5_);}
	.st16{fill:#E2BF40;}
	.st17{fill:#AC6D21;}
	.st18{opacity:0.6;fill:#E2BF40;enable-background:new    ;}
	.st19{fill:url(#SVGID_6_);}
	.st20{fill:url(#SVGID_7_);}
	.st21{fill:#CE9245;}
	.st22{fill:#A66A22;}
	.st23{opacity:0.6;fill:#CE9245;enable-background:new    ;}
	.st24{fill:url(#SVGID_8_);}
	.st25{fill:url(#SVGID_9_);}
	.st26{fill:url(#SVGID_10_);}
	.st27{fill:url(#SVGID_11_);}
	.st28{opacity:0.8;}
	.st29{fill:url(#SVGID_12_);}
	.st30{fill:url(#SVGID_13_);}
	.st31{fill:url(#SVGID_14_);}
	.st32{fill:url(#SVGID_15_);}
	.st33{fill:url(#SVGID_16_);}
	.st34{fill:url(#SVGID_17_);}
	.st35{fill:url(#SVGID_18_);}
	.st36{fill:#3C3A39;}
	.st37{fill:url(#SVGID_19_);}
	.st38{fill:url(#SVGID_20_);}
	.st39{fill:url(#SVGID_21_);}
	.st40{fill:#532817;}
	.st41{fill:#48210E;}
	.st42{fill:url(#SVGID_22_);}
	.st43{fill:#D69644;}
	.st44{fill:url(#SVGID_23_);}
	.st45{fill:url(#SVGID_24_);}
	.st46{fill:url(#SVGID_25_);}
	.st47{fill:#A46723;}
	.st48{fill:url(#SVGID_26_);}
	.st49{fill:url(#SVGID_27_);}
	.st50{fill:url(#SVGID_28_);}
	.st51{fill:url(#SVGID_29_);}
	.st52{fill:url(#SVGID_30_);}
	.st53{fill:url(#SVGID_31_);}
	.st54{fill:url(#SVGID_32_);}
	.st55{fill:url(#SVGID_33_);}
	.st56{fill:url(#SVGID_34_);}
	.st57{fill:url(#SVGID_35_);}
	.st58{fill:url(#SVGID_36_);}
	.st59{fill:url(#SVGID_37_);}
	.st60{fill:url(#SVGID_38_);}
	.st61{fill:url(#SVGID_39_);}
	.st62{fill:url(#SVGID_40_);}
	.st63{fill:url(#SVGID_41_);}
	.st64{fill:url(#SVGID_42_);}
	.st65{fill:url(#SVGID_43_);}
	.st66{fill:url(#SVGID_44_);}
	.st67{fill:url(#SVGID_45_);}
	.st68{fill:url(#SVGID_46_);}
	.st69{fill:url(#SVGID_47_);}
	.st70{fill:url(#SVGID_48_);}
	.st71{fill:url(#SVGID_49_);}
	.st72{fill:url(#SVGID_50_);}
	.st73{fill:url(#SVGID_51_);}
	.st74{fill:url(#SVGID_52_);}
	.st75{fill:url(#SVGID_53_);}
	.st76{fill:url(#SVGID_54_);}
	.st77{fill:url(#SVGID_55_);}
	.st78{fill:url(#SVGID_56_);}
	.st79{fill:url(#SVGID_57_);}
	.st80{fill:url(#SVGID_58_);}
	.st81{fill:url(#SVGID_59_);}
	.st82{fill:url(#SVGID_60_);}
	.st83{fill:url(#SVGID_61_);}
	.st84{fill:url(#SVGID_62_);}
	.st85{fill:url(#SVGID_63_);}
	.st86{fill:url(#SVGID_64_);}
	.st87{fill:url(#SVGID_65_);}
	.st88{fill:url(#SVGID_66_);}
	.st89{fill:url(#SVGID_67_);}
	.st90{fill:url(#SVGID_68_);}
	.st91{fill:url(#SVGID_69_);}
	.st92{fill:url(#SVGID_70_);}
	.st93{fill:url(#SVGID_71_);}
	.st94{fill:url(#SVGID_72_);}
	.st95{fill:url(#SVGID_73_);}
	.st96{fill:url(#SVGID_74_);}
	.st97{fill:url(#SVGID_75_);}
	.st98{fill:url(#SVGID_76_);}
	.st99{fill:url(#SVGID_77_);}
	.st100{fill:url(#SVGID_78_);}
	.st101{fill:url(#SVGID_79_);}
	.st102{fill:url(#SVGID_80_);}
	.st103{fill:url(#SVGID_81_);}
	.st104{fill:url(#SVGID_82_);}
	.st105{fill:url(#SVGID_83_);}
	.st106{fill:url(#SVGID_84_);}
	.st107{fill:url(#SVGID_85_);}
	.st108{fill:url(#SVGID_86_);}
	.st109{fill:url(#SVGID_87_);}
	.st110{fill:url(#SVGID_88_);}
	.st111{fill:url(#SVGID_89_);}
	.st112{fill:url(#SVGID_90_);}
	.st113{fill:url(#SVGID_91_);}
	.st114{fill:url(#SVGID_92_);}
	.st115{fill:url(#SVGID_93_);}
	.st116{fill:url(#SVGID_94_);}
	.st117{fill:url(#SVGID_95_);}
	.st118{fill:url(#SVGID_96_);}
	.st119{fill:url(#SVGID_97_);}
	.st120{fill:url(#SVGID_98_);}
	.st121{fill:url(#SVGID_99_);}
	.st122{fill:url(#SVGID_100_);}
	.st123{fill:url(#SVGID_101_);}
	.st124{fill:url(#SVGID_102_);}
	.st125{fill:url(#SVGID_103_);}
	.st126{fill:url(#SVGID_104_);}
	.st127{fill:url(#SVGID_105_);}
	.st128{fill:url(#SVGID_106_);}
	.st129{fill:url(#SVGID_107_);}
</style>
<g>
	<g>
		<g>
			<g>
				
					<linearGradient id="SVGID_1_" gradientUnits="userSpaceOnUse" x1="754.769" y1="219.3428" x2="839.4786" y2="219.3428" gradientTransform="matrix(-1 0 0 -1 1358.0383 602)">
					<stop  offset="0" style="stop-color:#EFD980"/>
					<stop  offset="0.2037" style="stop-color:#EFD87C"/>
					<stop  offset="0.3836" style="stop-color:#EED572"/>
					<stop  offset="0.5546" style="stop-color:#EDCF5F"/>
					<stop  offset="0.7191" style="stop-color:#EBC743"/>
					<stop  offset="0.7526" style="stop-color:#EBC63C"/>
					<stop  offset="1" style="stop-color:#E7AE17"/>
				</linearGradient>
				<path class="st0" d="M518.5,358.2l8-18.4c0-0.4,0-1.1,0-1.4v-0.4c0-0.4,0-0.7,0.4-1.1v-0.4c0-0.4,0.4-0.7,0.4-1.1V335
					c0-0.4,0.4-1.1,0.7-1.4v-0.4c0-0.4,0.4-0.7,0.4-1.1c0-0.4,0-0.4,0.4-0.7c0-0.4,0.4-0.7,0.4-1.1c0-0.4,0.4-0.4,0.4-0.7
					c2.9-5.8,7.2-10.9,10.1-14.5l0.4-0.4c15.6,19.9,33.6,47,47.7,81.4c0,0,13,12.3,13,29.7S587.2,449,580,447.2l0,0
					c-8.3,6.9-19.5,2.9-21.7-8.7l0,0c-0.4,0.4-1.1,0.7-1.4,0.7c-4.7,2.5-11.2-0.7-13.4-5.1l0,0l0,0c0,0,0-0.4-0.4-0.4l0,0l-1.4-14.1
					h0.4v-3.6l0.7-2.5c-0.4-0.7-0.7-1.4-0.7-2.2l-0.7-1.1l-1.1-2.5V407c-2.5-6.5-6.5-15.6-11.9-26c-3.3-6.9-7.2-14.1-11.2-21
					L518.5,358.2z"/>
			</g>
			<path class="st16" d="M568.8,418.2c0,0,2.5,19.2-8.3,25.3l-1.8-5.4C558.6,438.1,569.8,432.3,568.8,418.2z"/>
			<path class="st16" d="M587.2,424c0,0,5.1,12.7,1.4,21.7c0,0-3.3,1.4-8.3,1.1C580.3,446.8,588.7,442.5,587.2,424z"/>
			<path class="st17" d="M569.1,424c0,0,0,11.2-9.4,15.6l-0.4-1.8C559,438.1,569.1,429.1,569.1,424z"/>
			<path class="st17" d="M588.3,430.9c0,0,0.7,10.5-5.1,16.3l-3.6-0.4C579.6,446.8,587.2,439.6,588.3,430.9z"/>
			<path class="st18" d="M518.5,358.2l8-18.4c0-0.4,0-1.1,0-1.4v-0.4c0-0.4,0-0.7,0.4-1.1v-0.4c0-0.4,0.4-0.7,0.4-1.1V335
				c0-0.4,0.4-1.1,0.7-1.4v-0.4c0-0.4,0.4-0.7,0.4-1.1c0-0.4,0-0.4,0.4-0.7c0-0.4,0.4-0.7,0.4-1.1c0-0.4,0.4-0.4,0.4-0.7
				c0,0,0,0,0-0.4c10.9,21.3,22.4,49.2,22.8,73.1c0,0-13.4,17-8.3,33.3c-0.4-0.4-0.7-1.1-1.1-1.4l0,0l0,0c0,0,0-0.4-0.4-0.4l0,0
				l-1.4-14.1h0.4v-3.6l0.7-3.3l-1.8-2.5l-1.1-2.5l-19.9-43.4c0,0-1.1-1.4-2.9-4.3L518.5,358.2z"/>
			<g>
				<path class="st17" d="M542.4,414.2l-0.7-1.1l0,0c-0.4-0.4-13-28.9-25-51.7l1.4-2.9l0,0c10.9,20.6,22.8,46.7,25.3,52.4
					c0.4-1.1,0.7-1.8,0.7-1.8l0,0c1.1-1.8,2.5-3.6,2.5-3.6c0.4-0.4,0.7-0.4,0.7,0c0.4,0.4,0.4,0.7,0,0.7c-0.4,0.4-0.4,0.7-0.7,1.1
					c0,0-6.9,10.5-3.3,25.7l0,0c0.7,2.2,2.9,4.3,5.4,5.1c2.5,1.1,5.1,1.1,7.2,0c8.3-4.3,13-13.4,11.2-22.1c0-0.4,0-0.7,0.4-0.7
					c0.4,0,0.7,0,0.7,0.4c1.8,8.7-2.2,17.7-9.8,22.4c1.1,5.4,4.7,9.4,9,10.9c4.3,1.4,9,0,12.7-3.6c8.7-8.7,5.4-22.4,5.4-22.4
					c0-0.4,0-0.7,0.4-0.7s0.7,0,0.7,0.4c0,0,3.6,14.1-5.8,23.5l0,0c2.9,0.4,7.2-0.4,11.2-3.6c3.3-2.5,7.2-8,7.2-17.4
					c0-17-12.7-28.9-12.7-29.3c0,0,0,0,0-0.4c-13.4-33.6-31.5-60.8-47-80.3c0,0,0,0,0.4-0.4c1.1-1.4,2.2-2.5,2.5-2.9l0,0
					c5.1,6.5,10.5,13.7,15.9,22.1l0,0c0,0,25.7,38.3,31.5,59.7c6.9,9,20.3,30,7.6,45.9c-1.1,1.8-2.5,3.3-4,4.3
					c-0.4,0.4-1.1,0.7-1.4,1.1h-0.4l0,0c-2.9,1.8-6.1,2.9-9,2.9c-0.7,0-1.4,0-2.2-0.4c-2.5,2.2-5.8,3.3-9,3.3c-1.1,0-2.5,0-3.6-0.4
					c-5.1-1.4-8.7-5.8-9.8-11.2c-0.4,0-0.7,0.4-0.7,0.4c-1.1,0.7-2.5,1.1-4,1.1c-1.4,0-2.9-0.4-4-0.7c-2.5-1.1-4.7-2.9-5.8-5.4l0,0
					c0,0,0,0,0-0.4v-0.4l0,0c0,0-1.1-2.5-1.4-6.9c0-1.8-0.4-3.6,0-5.8C541.6,418.2,542,416.1,542.4,414.2z"/>
			</g>
		</g>
		<g>
			<g>
				
					<linearGradient id="SVGID_2_" gradientUnits="userSpaceOnUse" x1="3259.9832" y1="1472.9432" x2="3344.8982" y2="1472.9432" gradientTransform="matrix(-1 0 0 1 3863.6133 -1091.3303)">
					<stop  offset="0" style="stop-color:#EDCF95"/>
					<stop  offset="0.5331" style="stop-color:#EECC91"/>
					<stop  offset="0.7526" style="stop-color:#EFC88D"/>
					<stop  offset="1" style="stop-color:#EDB397"/>
				</linearGradient>
				<path class="st4" d="M518.5,357.8l8-18.4c0-0.4,0-1.1,0.4-1.4c0-0.4,0-0.4,0-0.4c0-0.4,0.4-0.7,0.4-1.1s0-0.4,0.4-0.7
					c0.4-0.4,0.4-0.7,0.4-1.1c0-0.4,0-0.4,0.4-0.4c0.4-0.7,0.4-1.1,0.7-1.8c0-0.4,0.4-0.4,0.4-0.4c0.4-0.4,0.4-0.7,0.7-1.1
					c0-0.4,0.4-0.4,0.4-0.7c0.4-0.4,0.4-0.7,0.7-1.1c0-0.4,0.4-0.4,0.4-0.7c2.9-5.8,7.2-10.9,10.1-14.5c0.4-0.4,0.4-0.4,0.4-0.4
					c15.9,19.9,33.6,47,47.7,81.4c0,0,13,12.3,13,29.7c0,17.4-13.4,23.1-20.6,21.3l0,0c-8,7.2-19.5,2.5-21.7-8.7V437
					c-0.4,0.4-1.1,0.7-1.8,0.7c-4.7,2.5-11.2-0.7-13.4-5.1l0,0l0,0c0-0.4-0.4-0.4-0.4-0.7l0.4-0.4l-1.8-14.1h0.4v-3.6l0.7-2.5
					c-0.4-0.7-0.7-1.4-0.7-2.2l-0.7-1.1l-0.7-2.5v-0.7c-2.5-6.5-6.5-15.6-11.9-26c-3.3-6.9-7.2-14.1-11.2-21L518.5,357.8z"/>
			</g>
			<path class="st21" d="M569.1,417.9c0,0,2.5,19.2-8.3,25.3l-1.8-5.4C559,437.8,570.2,432,569.1,417.9z"/>
			<path class="st21" d="M587.6,424c0,0,5.1,12.7,1.1,21.7c0,0-3.3,1.1-8.3,0.7C580.7,446.8,589.4,442.1,587.6,424z"/>
			<path class="st22" d="M569.5,424c0,0,0.4,11.6-9.4,15.6l-0.4-1.8C559.4,437.8,569.5,428.7,569.5,424z"/>
			<path class="st22" d="M588.7,430.5c0,0,0.7,10.5-5.1,16.3l-3.6-0.4C580,446.8,587.6,439.2,588.7,430.5z"/>
			<path class="st23" d="M518.5,357.8l8-18.4c0-0.4,0-1.1,0.4-1.4c0-0.4,0-0.4,0-0.4c0-0.4,0.4-0.7,0.4-1.1s0-0.4,0.4-0.7
				c0.4-0.4,0.4-0.7,0.4-1.1c0-0.4,0-0.4,0.4-0.4c0.4-0.7,0.4-1.1,0.7-1.8c0-0.4,0.4-0.4,0.4-0.4c0.4-0.4,0.4-0.7,0.7-1.1
				c0-0.4,0.4-0.4,0.4-0.7c0.4-0.4,0.4-0.7,0.7-1.1c0-0.4,0.4-0.4,0.4-0.7c0,0,0-0.4,0.4-0.4c10.9,21.3,22.4,49.6,23.1,73.4
				c0,0-13.4,17-8.7,33.3c-0.4-0.4-0.7-1.1-0.7-1.8l0,0l0,0c0-0.4-0.4-0.4-0.4-0.7l0.4-0.4l-1.8-14.1h0.4v-3.6l0.7-3.3l-1.8-2.5
				l-1.1-2.5l-19.9-43.4c0,0-1.1-1.1-2.9-4L518.5,357.8z"/>
			<g>
				<path class="st22" d="M542.7,413.9l-0.7-1.1l0,0c-0.4-0.4-13-28.9-25-52.1l1.1-2.9l0,0c10.9,20.6,22.8,47,25.3,52.4
					c0.4-1.1,0.7-1.8,0.7-1.8l0,0c1.1-1.8,2.2-3.6,2.5-3.6c0.4-0.4,0.7-0.4,0.7,0c0.4,0.4,0.4,0.7,0,0.7c-0.4,0.4-0.7,0.7-0.7,1.1
					c0,0-6.9,10.5-3.3,25.7l0,0c0.7,2.2,2.9,4,5.4,5.1s5.1,1.1,7.2,0c8.7-4,13-13.4,11.2-22.4c0-0.4,0.4-0.7,0.4-0.7
					c0.4,0,0.7,0.4,0.7,0.4c1.8,8.7-2.2,17.7-9.8,22.4c1.1,5.4,4.7,9.4,9,10.9c4.3,1.1,9,0,12.3-3.6c9-9,5.4-22.4,5.4-22.4
					c0-0.4,0.4-0.7,0.4-0.7c0.4,0,0.7,0.4,0.7,0.4c0,0.4,3.6,14.5-5.8,23.9l0,0c2.9,0.4,7.2-0.7,11.2-3.6c3.3-2.5,7.2-8,7.2-17.4
					c0-17-12.7-28.9-12.7-29.3l-0.4-0.4c-12.7-33.6-30.7-60.4-46.3-80.3l0.4-0.4c1.1-1.1,2.2-2.2,2.5-3.3l0,0
					c5.1,6.5,10.5,13.7,15.9,22.1l0,0c0,0,25.7,38.3,31.5,60c7.2,9,20.3,30,7.6,45.9c-1.1,1.8-2.5,3.3-4,4.3
					c-0.4,0.4-1.1,0.7-1.8,1.1c-0.4,0-0.4,0.4-0.4,0.4l0,0c-2.9,1.8-6.1,2.5-9,2.5c-0.7,0-1.8,0-2.2-0.4c-2.5,2.2-5.8,3.3-9,3.3
					c-1.1,0-2.5-0.4-3.6-0.7c-5.1-1.4-8.7-5.8-10.1-11.6c-0.4,0.4-0.7,0.4-0.7,0.4c-1.1,0.7-2.5,0.7-4,0.7c-1.4,0-2.5-0.4-4-0.7
					c-2.5-1.1-4.7-3.3-5.8-5.4l0,0c0,0,0,0,0-0.4c0-0.4-0.4-0.4-0.4-0.4l0,0c0,0-1.1-2.5-1.4-7.2c-0.4-1.8-0.4-3.6,0-5.8
					C542,417.9,542.4,415.7,542.7,413.9z"/>
			</g>
		</g>
	</g>
	<g>
		<g>
			
				<linearGradient id="SVGID_3_" gradientUnits="userSpaceOnUse" x1="311.8274" y1="272.6901" x2="369.558" y2="272.6901" gradientTransform="matrix(1 0 0 -1 0 602)">
				<stop  offset="0" style="stop-color:#F2D397"/>
				<stop  offset="0.4319" style="stop-color:#F3D195"/>
				<stop  offset="0.7526" style="stop-color:#F5CC8F"/>
				<stop  offset="1" style="stop-color:#F3B699"/>
			</linearGradient>
			<path class="st5" d="M335.8,305.7c-8.3-1.1-13.7,0-17,1.8l-2.5-9.8c-2.2,6.9-3.6,17-3.6,17l0,0c-0.7,1.8-0.7,2.9-0.7,2.9
				s-0.7,6.9,1.1,14.1c2.2,7.2,6.1,17.7,16.6,22.4c10.5,4.7,13.4,7.2,23.9,6.5c0.7,0,1.4,0,2.2,0c3.6-14.8,8.7-27.5,13.4-38
				C363.7,317,351.8,308.3,335.8,305.7z"/>
			<path class="st17" d="M356.8,360.4c0.4,0,0.7-0.7,0.7-1.1s-0.7-0.7-1.1-0.7c-16.6,2.9-34-8.3-39.1-20.3c-4-9-3.6-15.9-3.6-18.8
				l-1.8-1.8l-0.7,1.1c0,0-4,19.2,10.9,31.8c14.8,12.7,30.7,12.7,34.4,11.9l0.7-2.2L356.8,360.4z M355,360.7L355,360.7L355,360.7
				L355,360.7z"/>
		</g>
		<g>
			<g class="st28">
				
					<linearGradient id="SVGID_4_" gradientUnits="userSpaceOnUse" x1="572" y1="515.3424" x2="603.0298" y2="487.1338" gradientTransform="matrix(1 0 0 -1 0 602)">
					<stop  offset="0" style="stop-color:#837E7D"/>
					<stop  offset="0.3862" style="stop-color:#625E5D"/>
					<stop  offset="0.6005" style="stop-color:#7D7776"/>
					<stop  offset="0.881" style="stop-color:#373535"/>
				</linearGradient>
				<path class="st14" d="M588.7,71.4l-6.1,64.4h1.4l6.1-68c0-1.1,0.7-1.8,1.8-2.5l0,0C591.9,65.6,589,65.9,588.7,71.4z"/>
				
					<linearGradient id="SVGID_5_" gradientUnits="userSpaceOnUse" x1="591.2368" y1="519.6212" x2="626.1507" y2="487.8814" gradientTransform="matrix(1 0 0 -1 0 602)">
					<stop  offset="0" style="stop-color:#837E7D"/>
					<stop  offset="0.3862" style="stop-color:#625E5D"/>
					<stop  offset="0.6005" style="stop-color:#7D7776"/>
					<stop  offset="0.881" style="stop-color:#373535"/>
				</linearGradient>
				<path class="st15" d="M613.6,58c0,5.1-0.4,11.6-1.4,19.5l-9,60.4h1.4c1.1-8,9-62.9,9.8-74.5C614.7,61.2,614.3,59.4,613.6,58z"/>
				<g>
					
						<linearGradient id="SVGID_6_" gradientUnits="userSpaceOnUse" x1="558.0302" y1="486.5969" x2="570.0106" y2="475.7056" gradientTransform="matrix(1 0 0 -1 0 602)">
						<stop  offset="0" style="stop-color:#837E7D"/>
						<stop  offset="0.3862" style="stop-color:#625E5D"/>
						<stop  offset="0.6005" style="stop-color:#7D7776"/>
						<stop  offset="0.881" style="stop-color:#373535"/>
					</linearGradient>
					<path class="st19" d="M565.5,107.2c-0.4,1.1-1.1,2.2-1.4,3.3l-2.2,23.5h1.4L565.5,107.2z"/>
					
						<linearGradient id="SVGID_7_" gradientUnits="userSpaceOnUse" x1="563.748" y1="528.0067" x2="572.9774" y2="519.616" gradientTransform="matrix(1 0 0 -1 0 602)">
						<stop  offset="0" style="stop-color:#837E7D"/>
						<stop  offset="0.3862" style="stop-color:#625E5D"/>
						<stop  offset="0.6005" style="stop-color:#7D7776"/>
						<stop  offset="0.881" style="stop-color:#373535"/>
					</linearGradient>
					<path class="st20" d="M567.3,88.4l1.8-20.6l-1.1,1.4l-1.4,16.3C567,86.6,567.3,87.6,567.3,88.4z"/>
				</g>
			</g>
			<g>
				
					<linearGradient id="SVGID_8_" gradientUnits="userSpaceOnUse" x1="546.469" y1="548.7706" x2="620.4338" y2="481.5301" gradientTransform="matrix(1 0 0 -1 0 602)">
					<stop  offset="0" style="stop-color:#837E7D"/>
					<stop  offset="0.3862" style="stop-color:#625E5D"/>
					<stop  offset="0.6005" style="stop-color:#7D7776"/>
					<stop  offset="0.881" style="stop-color:#373535"/>
				</linearGradient>
				<path class="st24" d="M612.2,55.5c-3.3-3.6-9.4-3.3-9.4-3.3l0,0l-49.9-1.8c-7.2,0.7-8,5.8-8,6.1l-1.1,9c2.5,0.7,5.1,1.4,7.2,2.5
					l0.4-2.2c0-1.4,1.4-2.5,2.9-2.5h2.9c0.7,0,1.4,0.4,2.2,1.1c0.4,0.7,0.7,1.4,0.7,2.2l-1.1,7.2c2.5,2.5,4.7,5.4,6.5,8.7
					c0.7,1.8,1.4,4,1.8,5.8l2.2-21.3c0-1.4,1.4-2.5,2.9-2.5h4c0.7,0,1.4,0.4,2.2,1.1c0.4,0.7,0.7,1.4,0.7,2.2l-6.5,66.9l11.2,1.1
					l6.1-68c0-1.4,1.4-2.5,2.9-2.5l0,0h6.1c0.7,0,1.4,0.4,2.2,1.1c0.4,0.7,0.7,1.4,0.7,2.2c-0.7,10.5-6.9,60.8-8,68.4l10.5,1.1
					c1.1-8,9-62.9,9.8-74.5C614.7,60.2,614,57.3,612.2,55.5z"/>
				
					<linearGradient id="SVGID_9_" gradientUnits="userSpaceOnUse" x1="556.1727" y1="484.5537" x2="568.153" y2="473.6623" gradientTransform="matrix(1 0 0 -1 0 602)">
					<stop  offset="0" style="stop-color:#837E7D"/>
					<stop  offset="0.3862" style="stop-color:#625E5D"/>
					<stop  offset="0.6005" style="stop-color:#7D7776"/>
					<stop  offset="0.881" style="stop-color:#373535"/>
				</linearGradient>
				<path class="st25" d="M553.9,120.6l-1.4,12.3l10.5,1.1l2.5-26.8C563.3,112.6,559,117.3,553.9,120.6z"/>
			</g>
			<g>
				<path class="st36" d="M546.3,123.8c-0.7,0-1.4,0.4-2.2,0.4v0.4c0.7,0.7,1.1,1.4,1.8,2.2L546.3,123.8z"/>
				<path class="st36" d="M557.2,63.8h-2.9c-1.4,0-2.9,1.1-2.9,2.5l-0.4,1.8c0.7,0.4,1.1,0.7,1.8,1.1l0.4-2.9c0-0.4,0.4-0.7,1.1-0.7
					h2.9c0.4,0,0.4,0,0.7,0.4c0,0.4,0.4,0.4,0.4,0.7l-0.7,5.4c0.7,0.4,1.1,1.1,1.8,1.4l0.7-6.9c0-0.7,0-1.4-0.7-2.2
					C558.6,64.1,557.9,63.8,557.2,63.8z"/>
				<path class="st36" d="M613.6,54c-4-4-10.1-4-10.9-3.6l-49.9-1.8l0,0c-9,0.7-9.8,8-9.8,8l-1.1,8.7c0.7,0,1.4,0.4,1.8,0.4l1.1-9
					c0-0.4,0.7-5.4,8-6.1l49.6,1.8l0,0c0,0,5.8-0.4,9.4,3.3c1.8,1.8,2.5,4.3,2.5,8c-0.7,11.9-8.7,66.5-9.8,74.5l-10.5-1.1
					c1.1-7.6,7.2-57.9,8-68.4c0-0.7-0.4-1.4-0.7-2.2c-0.4-0.7-1.4-1.1-2.2-1.1H593l0,0c-1.4,0-2.9,1.1-2.9,2.5l-6.1,68l-11.2-1.1
					l6.5-66.9c0-0.7,0-1.4-0.7-2.2c-0.4-0.7-1.1-1.1-2.2-1.1h-4c-1.4,0-2.9,1.1-2.9,2.5l-2.2,21.3c1.1,5.1,1.1,10.5-0.7,15.6l0,0
					c-0.4,1.1-0.7,2.2-1.1,2.9l-2.5,26.8l-10.5-1.1l1.4-12.3c-0.7,0.4-1.4,0.7-2.2,1.1l-1.1,11.9c0.4,0.7,0.7,1.1,1.1,1.8l12.3,1.1
					c0.4,0,0.4,0,0.7-0.4c0.4,0,0.4-0.4,0.4-0.7l6.5-67.6c0-0.4,0.4-0.7,1.1-0.7h4c0.4,0,0.4,0,0.7,0.4c0,0.4,0.4,0.4,0.4,0.7
					l-6.5,68c0,0.4,0,0.4,0.4,0.7c0,0.4,0.4,0.4,0.7,0.4l13,1.1c0.4,0,0.4,0,0.7-0.4c0.4,0,0.4-0.4,0.4-0.7l5.4-68.7
					c0-0.4,0.4-0.7,1.1-0.7h6.1c0.4,0,0.4,0,0.7,0.4c0,0.4,0.4,0.4,0.4,0.7c-0.7,11.6-8,68.7-8,69.4c0,0.4,0,0.4,0.4,0.7
					c0,0.4,0.4,0.4,0.7,0.4l12.3,1.1l0,0c0.4,0,1.1-0.4,1.1-0.7c0-0.7,9-62.9,10.1-75.6C616.5,59.4,615.8,56.5,613.6,54z"/>
			</g>
			
				<linearGradient id="SVGID_10_" gradientUnits="userSpaceOnUse" x1="568.4683" y1="565.1161" x2="601.6934" y2="551.0026" gradientTransform="matrix(1 0 0 -1 0 602)">
				<stop  offset="0" style="stop-color:#837E7D"/>
				<stop  offset="0.3862" style="stop-color:#625E5D"/>
				<stop  offset="0.6005" style="stop-color:#7D7776"/>
				<stop  offset="0.881" style="stop-color:#373535"/>
			</linearGradient>
			<polygon class="st26" points="566.6,42.1 574.2,33.4 593.7,33.8 591.9,50.8 584.7,57.6 			"/>
			<path class="st36" d="M595.2,34.1C595.2,33.8,595.2,33.8,595.2,34.1c0-0.4,0-0.4,0-0.4l0,0l0,0l0,0c0,0,0,0-0.4-0.4l0,0
				c0,0,0,0-0.4,0l0,0l0,0l0,0h-19.9c-0.4,0-0.7,0-0.7,0.4l-7.2,8c-0.4,0.4-0.4,1.1,0,1.4c0.4,0.4,1.1,0.4,1.4,0l6.9-7.6h17.4
				l-5.1,6.1l0,0c0,0,0,0,0,0.4l0,0l0,0l-1.1,14.8c0,0.4,0.4,0.7,0.7,1.1h0.4c0.4,0,0.4,0,0.7-0.4l5.8-6.5c0,0,0.4-0.4,0.4-0.7
				L595.2,34.1L595.2,34.1z M587.9,53.6l1.1-11.6l4-5.1l-1.4,12.7L587.9,53.6z"/>
			<g>
				
					<linearGradient id="SVGID_11_" gradientUnits="userSpaceOnUse" x1="560.8124" y1="552.0471" x2="569.2027" y2="544.42" gradientTransform="matrix(1 0 0 -1 0 602)">
					<stop  offset="0" style="stop-color:#8D5435"/>
					<stop  offset="1" style="stop-color:#5D3017"/>
				</linearGradient>
				<path class="st27" d="M558.6,73.5l26.8-30.7h-18.1l-21,23.5C551,68.1,555.4,70.3,558.6,73.5z"/>
				
					<linearGradient id="SVGID_12_" gradientUnits="userSpaceOnUse" x1="301.9904" y1="260.2811" x2="312.0328" y2="251.1519" gradientTransform="matrix(1 0 0 -1 0 602)">
					<stop  offset="0" style="stop-color:#8D5435"/>
					<stop  offset="1" style="stop-color:#5D3017"/>
				</linearGradient>
				<path class="st29" d="M368.4,268.8l-131.3,149c0,0.7,0,3.6,2.2,5.8c1.8,1.8,4.7,2.9,8.3,2.9l133.5-151.9
					C377.1,273.2,372.7,271.4,368.4,268.8z"/>
			</g>
			<path class="st40" d="M559.4,73.9c1.8,1.8,3.3,3.6,4.7,5.8c4-3.3,7.6-6.5,9-8.7c5.4-7.6,14.5-15.6,14.5-15.6l0.4-14.1L559.4,73.9
				z"/>
			<g>
				<path class="st41" d="M588.7,41.3c0-0.4-0.4-0.7-0.7-0.7h-20.6c-0.4,0-0.7,0-0.7,0.4l-21.7,24.6c0.7,0.4,1.4,0.4,2.2,0.7
					l20.6-23.5h18.1L559,73.5c0.4,0.4,1.1,1.1,1.4,1.4l26.4-30l-0.7,10.9l0,0c0,0-12.7,13.4-22.8,22.8c0.4,0.7,0.7,1.1,1.1,1.8
					c10.1-9,22.4-22.4,23.1-23.1l0,0c0.4,0,0.4-0.4,0.4-0.7l0.7-14.1C588.7,42.1,588.7,41.7,588.7,41.3z"/>
				<path class="st41" d="M381.4,275L248,426.9c-3.6,0-6.5-1.1-8.3-2.9c-1.8-2.2-2.2-5.1-2.2-5.8l131.3-149
					c-0.7-0.4-1.1-0.7-1.8-1.1L236,417.1c0,0-0.4,0.4-0.4,0.7c0,0.4-0.4,4.3,2.5,7.6c2.2,2.2,5.4,3.6,9.8,3.6c0.4,0,0.4,0,0.7,0
					c0.4,0,0.4,0,0.7-0.4l134.2-152.6C382.5,275.4,381.8,275,381.4,275z"/>
			</g>
		</g>
		<g>
			
				<linearGradient id="SVGID_13_" gradientUnits="userSpaceOnUse" x1="315.7057" y1="309.1942" x2="382.5373" y2="309.1942" gradientTransform="matrix(1 0 0 -1 0 602)">
				<stop  offset="0" style="stop-color:#F2D397"/>
				<stop  offset="0.4319" style="stop-color:#F3D195"/>
				<stop  offset="0.7526" style="stop-color:#F5CC8F"/>
				<stop  offset="1" style="stop-color:#F3B699"/>
			</linearGradient>
			<path class="st30" d="M316.7,292c0,0,6.1-24.2,27.8-29.3c21.7-5.1,34.4,10.5,37.3,17.4c0,0,4.3,12.7-6.9,19.5l-3.6,5.4
				c0,0-5.1,8.7-11.9,9.8c0,0-2.2,13-25.3,8c0,0-16.3-6.1-18.4-26L316.7,292z"/>
			<g>
				<path class="st43" d="M382.5,282.6c-0.7-2.9-2.2-5.8-4-8c0,2.9-0.7,8.7-7.6,11.6c0,0-2.5,18.4-14.5,17c0,0-6.9,18.4-25,17.7
					c0,0-0.4,0-0.4-0.4c21,11.6,27.8-5.8,27.8-5.8c10.9-1.8,14.8-14.8,14.8-14.8S385.8,293.1,382.5,282.6z"/>
			</g>
			<g>
				<path class="st17" d="M356.5,261.3c-10.9-1.4-20.3,4-25,7.6c0,0-2.2,1.8-3.3,2.9c0,0.4,0,0.4,0.4,0.7c0.4,0.4,0.7,0.4,1.1,0
					c0,0,12.3-11.9,26.8-9.8c3.6,0.7,7.2,1.8,10.1,3.3c1.1,0.7,13,6.9,14.8,18.8c0,0.4,0.4,3.6-0.7,6.1l0,0c0,0,0,0.4-0.4,0.4
					c-1.1,2.2-2.9,5.1-4.7,6.1l0,0c0-0.7,0-1.1,0-1.8c-1.1-13.4-15.2-22.1-15.9-22.4c-0.4-0.4-0.7,0-1.1,0.4c-0.4,0.4,0,0.7,0.4,1.1
					c0,0,5.4,3.3,9.8,8.7c0,0.4,8,12.3,1.8,21.7c0,0-4,5.4-9.8,8.3c0.4-13.4-14.1-21.3-14.1-21.3l0,0c-1.4-1.1-2.5-1.4-2.9-1.8
					c-0.4-0.4-0.7,0-1.1,0.4c-0.4,0.4,0,0.7,0.4,1.1c0,0,15.2,8,15.6,21c0,3.3-1.1,6.1-3.6,8c-5.4,4-15.2,2.9-17,2.2h-0.4
					c-14.8-5.1-18.8-15.9-19.5-24.6c0-0.4-0.4-0.7-0.7-0.7c-0.4,0-0.7,0.4-0.7,0.7c0.7,7.6,4,17.7,14.8,23.5l0,0
					c1.4,1.1,3.3,1.8,5.8,2.5l0,0h0.4c0.4,0,1.4,0.4,2.5,0.4c8,1.4,18.1,0,20.3-8c2.2-1.1,11.6-6.1,14.5-14.5
					c1.4-1.1,10.1-8.7,9.8-17C383.9,276.4,371.6,263.4,356.5,261.3z"/>
			</g>
			<path class="st17" d="M310.9,321.7c0,0,0.4-39.1,19.5-51.7v2.2c0,0-15.9,11.2-16.3,47.7l-1.8,3.3L310.9,321.7z"/>
		</g>
	</g>
</g>
</svg>
