<?xml version="1.0" encoding="utf-8"?>
<!-- Generator: Adobe Illustrator 21.0.0, SVG Export Plug-In . SVG Version: 6.00 Build 0)  -->
<svg version="1.1" id="圖層_1" xmlns="http://www.w3.org/2000/svg" xmlns:xlink="http://www.w3.org/1999/xlink" x="0px" y="0px"
	 viewBox="0 0 822.9 601.4" style="enable-background:new 0 0 822.9 601.4;" xml:space="preserve">
<style type="text/css">
	.st0{fill:url(#SVGID_1_);}
	.st1{fill:#E1BE3F;}
	.st2{fill:#AB6C21;}
	.st3{opacity:0.6;fill:#E1BE3F;}
	.st4{fill:url(#SVGID_2_);}
	.st5{fill:#66411D;}
	.st6{fill:url(#SVGID_3_);}
	.st7{fill:#D9B974;}
	.st8{fill:#DCBF93;}
	.st9{fill:url(#SVGID_4_);}
	.st10{fill:url(#SVGID_5_);}
	.st11{fill:url(#SVGID_6_);}
	.st12{fill:url(#SVGID_7_);}
	.st13{fill:#8C5924;}
	.st14{fill:url(#SVGID_8_);}
	.st15{fill:url(#SVGID_9_);}
	.st16{fill:url(#SVGID_10_);}
	.st17{fill:url(#SVGID_11_);}
	.st18{fill:#F4E3A5;}
	.st19{fill:#DEB87D;}
	.st20{fill:url(#SVGID_12_);}
	.st21{fill:url(#SVGID_13_);}
	.st22{fill:#3F210F;}
	.st23{opacity:0.25;fill:#E1BE3F;}
	.st24{opacity:0.5;fill:#E1BE3F;}
	.st25{fill:#F8E5A9;}
	.st26{fill:#DDBC90;}
	.st27{opacity:0.4;fill:#E1BE3F;}
	.st28{fill:#875424;}
	.st29{fill:#3F210E;}
	.st30{fill:#C88E2C;}
	.st31{fill:#AC7327;}
	.st32{fill:#FFFFFF;}
	.st33{fill:#814323;}
	.st34{fill:#D7C6A6;}
	.st35{fill:url(#SVGID_14_);}
	.st36{fill:#4A1E0E;}
	.st37{fill:#3A1D13;}
	.st38{fill:url(#SVGID_15_);}
	.st39{fill:#EAA593;}
	.st40{fill:url(#SVGID_16_);}
	.st41{fill:url(#SVGID_17_);}
	.st42{fill:#D59543;}
	.st43{opacity:0.6;fill:#D59543;}
	.st44{fill:url(#SVGID_18_);}
	.st45{fill:#AC6D21;}
	.st46{fill:url(#SVGID_19_);}
	.st47{fill:url(#SVGID_20_);}
	.st48{fill:url(#SVGID_21_);}
	.st49{opacity:0.6;}
	.st50{fill:#D69644;}
	.st51{filter:url(#Adobe_OpacityMaskFilter);}
	.st52{mask:url(#SVGID_22_);}
	.st53{fill:#949EA6;}
	.st54{fill:url(#SVGID_23_);}
	.st55{fill:url(#SVGID_24_);}
	.st56{fill:url(#SVGID_25_);}
	.st57{fill:url(#SVGID_26_);}
	.st58{opacity:0.5;}
	.st59{fill:url(#SVGID_27_);}
	.st60{fill:url(#SVGID_28_);}
	.st61{fill:url(#SVGID_29_);}
</style>
<g>
	<g>
		<path class="st45" d="M367.1,319.2c-0.2-1-6.1-24.3-19.7-36c-0.2-4.8-3.2-44.6-38.7-46.3c-0.5,0-12.9-1-20.2,5.7
			c-3.4,3.1-5.1,7.3-5.1,12.6c0,0.1,0.1,1.5,0.8,3.2c-2.7,1.5-10.7,7.1-7.1,16.8c0.7,1.9,1.8,3.4,3.2,4.7c-0.8,1.8-2.4,6.8-0.6,11.2
			c1.2,2.9,3.5,5,7.1,6.2c2.4,0.8,4.5,1.2,6.5,1.2c1.4,0,2.7-0.2,3.9-0.5c0.1,0.6,4.2,25.7,11.2,37.4v0c0.2,0.3,0.3,0.6,0.5,1
			c6.4,12.8,25.4,27.5,41.3,27.5c2.8,0,5.5-0.5,8.1-1.5c0.4-0.2,0.6-0.6,0.4-1c-0.2-0.4-0.6-0.6-1-0.4c-0.7,0.3-1.5,0.5-2.2,0.7
			l0.7-3.5c-22.2,7.4-39.5-14.8-46.2-25.3c-3.5-5.7-8.2-21.7-8.3-22c-1.9-7.5-2.9-13.1-3-13.2c0,0,0,0,0-0.1c1.8-0.6,3.2-1.3,4.2-2
			c3.8-2.5,6.5-6.3,6.7-9.6c0-0.1,0.4-2.3-0.6-5.1c0.7,0.4,1.3,0.8,2,1.1c1.9,0.9,4.6,1.8,7.9,1.8c3.8,0,8.2-1.2,13-4.9
			c0.4-0.3,0.5-1,0.2-1.4c-0.3-0.4-1-0.5-1.4-0.2c-6,4.7-12.7,5.7-18.8,2.9c-6-2.7-10.5-9-10.8-14.8c-0.1-2.9,0.7-6.8,5.4-9.5
			c15.5-8.9,26.2,6.5,26.6,7.1c0.3,0.5,0.9,0.6,1.4,0.3c0.5-0.3,0.6-0.9,0.3-1.4c-0.1-0.2-12.2-17.5-29.3-7.7
			c-3.9,2.3-6.2,5.8-6.4,10.1c-4,0.6-7.2-0.1-9.6-1.9c-3.6-2.7-4.1-7.3-4.1-7.3c0-4.6,1.5-8.3,4.4-11c6.6-6.1,18.5-5.2,18.7-5.2
			c15,0.7,25.7,8.4,32,22.9c4.7,10.9,4.9,21.8,4.9,21.9c0,0.3,0.1,0.6,0.4,0.8c13.3,11.1,19.3,35,19.4,35.2c0.1,0.5,0.5,0.8,1,0.8
			c0.1,0,0.2,0,0.2,0C366.9,320.3,367.2,319.8,367.1,319.2z M304.4,277.3c3.9,4.1,3.2,8.3,3.2,8.6c-0.2,2.8-2.6,6.1-5.8,8.2
			c-2.4,1.6-7.5,3.9-14.3,1.5c-3-1.1-4.9-2.8-5.9-5.1c-1.4-3.4-0.3-7.4,0.4-9.3c1.7,1.1,3.8,1.7,6.2,1.9c0.4,0,0.8,0,1.2,0
			c5.7,0,11.4-2.8,14.1-6.9C303.8,276.6,304.1,277,304.4,277.3z M288.3,264.1c2.8,2.1,6.4,2.9,10.9,2.3c0.3,2.8,1.3,5.6,3,8.1
			c-2.2,4.1-8.3,7-13.9,6.6c-2.6-0.2-7.3-1.3-9.3-6.5c-3.1-8.3,3.6-12.9,6-14.3C285.8,261.6,286.9,263,288.3,264.1z"/>
		<linearGradient id="SVGID_1_" gradientUnits="userSpaceOnUse" x1="278.2986" y1="270.7102" x2="302.2127" y2="270.7102">
			<stop  offset="0" style="stop-color:#F2D397"/>
			<stop  offset="0.5331" style="stop-color:#F3D093"/>
			<stop  offset="0.7526" style="stop-color:#F5CC8F"/>
			<stop  offset="1" style="stop-color:#F3B699"/>
		</linearGradient>
		<path class="st0" d="M279.1,274.6c-3.1-8.3,3.6-12.9,6-14.3c0.7,1.3,1.7,2.7,3.2,3.8c2.8,2.1,6.4,2.9,10.9,2.3
			c0.3,2.8,1.3,5.6,3,8.1c-2.2,4.1-8.3,7-13.9,6.6C285.7,280.9,281,279.8,279.1,274.6z"/>
		<linearGradient id="SVGID_2_" gradientUnits="userSpaceOnUse" x1="280.9594" y1="286.4357" x2="307.6903" y2="286.4357">
			<stop  offset="0" style="stop-color:#F2D397"/>
			<stop  offset="0.5331" style="stop-color:#F3D093"/>
			<stop  offset="0.7526" style="stop-color:#F5CC8F"/>
			<stop  offset="1" style="stop-color:#F3B699"/>
		</linearGradient>
		<path class="st4" d="M287.5,295.6c-3-1.1-4.9-2.8-5.9-5.1c-1.4-3.4-0.3-7.4,0.4-9.3c1.7,1.1,3.8,1.7,6.2,1.9c0.4,0,0.8,0,1.2,0
			c5.7,0,11.4-2.8,14.1-6.9c0.3,0.4,0.6,0.7,0.9,1.1c3.9,4.1,3.2,8.3,3.2,8.6c-0.2,2.8-2.6,6.1-5.8,8.2
			C299.3,295.7,294.2,298,287.5,295.6z"/>
		<linearGradient id="SVGID_3_" gradientUnits="userSpaceOnUse" x1="285.4901" y1="299.382" x2="368.2672" y2="299.382">
			<stop  offset="0" style="stop-color:#F2D397"/>
			<stop  offset="0.5331" style="stop-color:#F3D093"/>
			<stop  offset="0.7526" style="stop-color:#F5CC8F"/>
			<stop  offset="1" style="stop-color:#F3B699"/>
		</linearGradient>
		<path class="st6" d="M309.9,333.1c-3.5-5.7-8.2-21.7-8.3-22c-1.9-7.5-2.9-13.1-3-13.2c0,0,0,0,0-0.1c1.8-0.6,3.2-1.3,4.2-2
			c3.8-2.5,6.5-6.3,6.7-9.6c0-0.1,0.4-2.3-0.6-5.1c0.7,0.4,1.3,0.8,2,1.1c1.9,0.9,4.6,1.8,7.9,1.8c3.8,0,8.2-1.2,13-4.9
			c0.4-0.3,0.5-1,0.2-1.4c-0.3-0.4-1-0.5-1.4-0.2c-6,4.7-12.7,5.7-18.8,2.9c-6-2.7-10.5-9-10.8-14.8c-0.1-2.9,0.7-6.8,5.4-9.5
			c15.5-8.9,26.2,6.5,26.6,7.1c0.3,0.5,0.9,0.6,1.4,0.3c0.5-0.3,0.6-0.9,0.3-1.4c-0.1-0.2-12.2-17.5-29.3-7.7
			c-3.9,2.3-6.2,5.8-6.4,10.1c-4,0.6-7.2-0.1-9.6-1.9c-3.6-2.7-4.1-7.3-4.1-7.3c0-4.6,1.5-8.3,4.4-11c6.6-6.1,18.5-5.2,18.7-5.2
			c15,0.7,25.7,8.4,32,22.9c4.7,10.9,4.9,21.8,4.9,21.9c0,0.3,0.1,0.6,0.4,0.8c13.3,11.1,19.3,35,19.4,35.2c0,0.1,0.1,0.3,0.2,0.4v0
			l0,0c0.1,0.1,0.1,0.1,0.2,0.2l2.7,2.8c0,0-2.6,6-5.9,14.5c-3.3,8.4-6.6,20.6-6.6,20.9C333.8,365.5,316.6,343.6,309.9,333.1z"/>
		<g class="st49">
			<path class="st50" d="M305.5,254.3c0.7-0.4,1.5-0.8,2.2-1.1c-3.6,1.4-8.8,3.6-11.5,6.2c-4.5,4.3-8.7,0.8-8.7,0.8
				c0.5,0.8,1.2,1.6,2.1,2.2c2.4,1.8,5.6,2.4,9.6,1.9C299.3,260.1,301.6,256.6,305.5,254.3z"/>
			<polygon class="st50" points="311.7,251.8 311.7,251.8 311.7,251.8 			"/>
		</g>
		<defs>
			<filter id="Adobe_OpacityMaskFilter" filterUnits="userSpaceOnUse" x="281" y="207.6" width="65.6" height="104.1">
				<feColorMatrix  type="matrix" values="1 0 0 0 0  0 1 0 0 0  0 0 1 0 0  0 0 0 1 0"/>
			</filter>
		</defs>
		<mask maskUnits="userSpaceOnUse" x="281" y="207.6" width="65.6" height="104.1" id="SVGID_4_">
			<g class="st51">
				<path class="st32" d="M325.5,253.9c0,0-9.2-6.9-22,1.9c0,0-7.2,5.1-3.1,15.4c0,0,5,10.9,15.7,12.6l-5.4,28c0,0-6.4,30.6-27,9
					C263.2,299,263.2,299,263.2,299l3.9-34.4l37.9-42.6l24.7-20.2l15.5-2.1l12.2,11.9L325.5,253.9z"/>
			</g>
		</mask>
		<g style="mask:url(#SVGID_4_);">
			<path class="st53" d="M346.5,211.1c-0.2-1.3-0.8-2.3-1.7-2.9c-1.6-1-3.5-0.4-3.6-0.4c-0.2,0.1-0.3,0.2-0.4,0.3l-2.4,3.9
				c-0.6-0.1-1.2,0-1.7,0.2c-1.2,0.4-2.3,1.2-2.9,2.3l-47.6,76.9c0,0,0,0,0,0c0,0,0,0.1,0,0.1c0,0,0,0.1,0,0.1l-5,19.1
				c-0.1,0.3,0.1,0.7,0.3,0.8c0.1,0.1,0.3,0.1,0.5,0.1c0.2,0,0.3-0.1,0.4-0.2l14.8-13.1c0,0,0.1-0.1,0.1-0.1c0,0,0,0,0.1-0.1
				c0,0,0,0,0,0l47.6-76.9c0.7-1.1,1-2.4,0.8-3.7c-0.2-1-0.6-1.8-1.3-2.4l2.2-3.6C346.5,211.4,346.5,211.2,346.5,211.1z
				 M287.4,292.1c0.5-0.8,1.2-1.3,2.1-1.6c0.8-0.2,1.6-0.2,2.3,0.3l3.3,2.1c0.7,0.4,1.1,1.1,1.3,2c0.1,0.9,0,1.8-0.5,2.6l-12.8,11.4
				L287.4,292.1z M343.4,220.5l-45.6,73.7c-0.3-1.1-0.9-2.1-1.9-2.7l-3.3-2.1c-0.8-0.5-1.7-0.7-2.6-0.6c-0.2,0-0.4,0.1-0.6,0.1
				l45.6-73.7c0.5-0.8,1.3-1.4,2.1-1.7c0.8-0.2,1.6-0.2,2.3,0.3l3.3,2.1c0.7,0.4,1.1,1.1,1.3,2C344.1,218.8,343.9,219.7,343.4,220.5
				z M342.9,214.3l-2.8-1.7c-0.1-0.1-0.2-0.1-0.3-0.1l2-3.3c0.4-0.1,1.4-0.1,2.1,0.3c0.5,0.3,0.8,0.8,1,1.6L342.9,214.3z"/>
			
				<linearGradient id="SVGID_5_" gradientUnits="userSpaceOnUse" x1="374.8728" y1="68.7692" x2="389.3993" y2="68.7692" gradientTransform="matrix(0.9959 -9.080000e-02 9.080000e-02 0.9959 -97.3136 265.5151)">
				<stop  offset="0" style="stop-color:#FCF1DA"/>
				<stop  offset="1" style="stop-color:#DEE6EE"/>
			</linearGradient>
			<path class="st10" d="M287.4,292.1c0.5-0.8,1.2-1.3,2.1-1.6c0.8-0.2,1.6-0.2,2.3,0.3l3.3,2.1c0.7,0.4,1.1,1.1,1.3,2
				c0.1,0.9,0,1.8-0.5,2.6l-12.8,11.4L287.4,292.1z"/>
			
				<linearGradient id="SVGID_6_" gradientUnits="userSpaceOnUse" x1="382.9083" y1="26.0884" x2="443.7581" y2="26.0884" gradientTransform="matrix(0.9959 -9.080000e-02 9.080000e-02 0.9959 -97.3136 265.5151)">
				<stop  offset="0" style="stop-color:#FCF1DA"/>
				<stop  offset="1" style="stop-color:#DEE6EE"/>
			</linearGradient>
			<path class="st11" d="M343.4,220.5l-45.6,73.7c-0.3-1.1-0.9-2.1-1.9-2.7l-3.3-2.1c-0.8-0.5-1.7-0.7-2.6-0.6
				c-0.2,0-0.4,0.1-0.6,0.1l45.6-73.7c0.5-0.8,1.3-1.4,2.1-1.7c0.8-0.2,1.6-0.2,2.3,0.3l3.3,2.1c0.7,0.4,1.1,1.1,1.3,2
				C344.1,218.8,343.9,219.7,343.4,220.5z"/>
			
				<linearGradient id="SVGID_7_" gradientUnits="userSpaceOnUse" x1="440.1594" y1="-13.6261" x2="445.3892" y2="-13.6261" gradientTransform="matrix(0.9959 -9.080000e-02 9.080000e-02 0.9959 -97.3136 265.5151)">
				<stop  offset="0" style="stop-color:#FCF1DA"/>
				<stop  offset="1" style="stop-color:#DEE6EE"/>
			</linearGradient>
			<path class="st12" d="M342.9,214.3l-2.8-1.7c-0.1-0.1-0.2-0.1-0.3-0.1l2-3.3c0.4-0.1,1.4-0.1,2.1,0.3c0.5,0.3,0.8,0.8,1,1.6
				L342.9,214.3z"/>
			<path class="st53" d="M342.9,220.1c-0.1,0-0.2,0-0.2-0.1c-2.8-4.2-6.5-3.9-6.6-3.9c-0.1,0-0.3-0.1-0.3-0.2c0-0.1,0.1-0.3,0.2-0.3
				c0,0,0,0,0,0c0.2,0,4.1-0.3,7,4.2c0.1,0.1,0,0.3-0.1,0.3C342.9,220.1,342.9,220.1,342.9,220.1z"/>
		</g>
	</g>
	<g>
		<g>
			<path class="st53" d="M350.1,407.5c-0.1,0-0.1,0-0.2,0l-129.8-29.1c-0.3-0.1-0.5-0.2-0.5-0.5l-32.4-92.8c-0.1-0.3,0-0.5,0.2-0.7
				c0.2-0.2,0.5-0.3,0.7-0.2l136.6,32.4c0.3,0.1,0.5,0.3,0.5,0.5l25.6,89.5c0.1,0.3,0,0.5-0.2,0.7
				C350.5,407.4,350.3,407.5,350.1,407.5z M220.8,377L349,405.8l-25.2-87.8l-134.8-32L220.8,377z"/>
			<linearGradient id="SVGID_8_" gradientUnits="userSpaceOnUse" x1="189.0376" y1="345.8395" x2="349.0153" y2="345.8395">
				<stop  offset="0" style="stop-color:#FCF1DA"/>
				<stop  offset="1" style="stop-color:#DEE6EE"/>
			</linearGradient>
			<polygon class="st14" points="220.8,377 349,405.8 323.8,317.9 189,285.9 			"/>
		</g>
		<g class="st58">
			<linearGradient id="SVGID_9_" gradientUnits="userSpaceOnUse" x1="279.212" y1="390.0988" x2="279.213" y2="390.0988">
				<stop  offset="0" style="stop-color:#FCF1DA"/>
				<stop  offset="1" style="stop-color:#DEE6EE"/>
			</linearGradient>
			<polygon class="st15" points="279.2,390.1 279.2,390.1 279.2,390.1 			"/>
			<linearGradient id="SVGID_10_" gradientUnits="userSpaceOnUse" x1="288.2477" y1="369.382" x2="349.0153" y2="369.382">
				<stop  offset="0" style="stop-color:#FCF1DA"/>
				<stop  offset="1" style="stop-color:#DEE6EE"/>
			</linearGradient>
			<path class="st16" d="M328.2,333c1.4,19.7,0.5,65.1-39.9,59.1l60.8,13.6L328.2,333z"/>
		</g>
	</g>
</g>
<g>
	<g>
		
			<linearGradient id="SVGID_11_" gradientUnits="userSpaceOnUse" x1="3452.4932" y1="381.7801" x2="3537.5642" y2="381.7801" gradientTransform="matrix(-1 0 0 1 4056.4385 0)">
			<stop  offset="0" style="stop-color:#F2D397"/>
			<stop  offset="0.5331" style="stop-color:#F3D093"/>
			<stop  offset="0.7526" style="stop-color:#F5CC8F"/>
			<stop  offset="1" style="stop-color:#F3B699"/>
		</linearGradient>
		<path class="st17" d="M518.7,357.6l8.1-18.4c0-0.5,0.1-1,0.2-1.5c0-0.2,0.1-0.3,0.1-0.5c0.1-0.4,0.1-0.7,0.2-1.1
			c0-0.2,0.1-0.4,0.1-0.5c0.1-0.4,0.2-0.8,0.4-1.2c0-0.1,0.1-0.3,0.1-0.4c0.2-0.5,0.4-1.1,0.6-1.6c0.1-0.1,0.1-0.3,0.2-0.4
			c0.2-0.4,0.3-0.8,0.5-1.2c0.1-0.2,0.2-0.4,0.3-0.6c0.2-0.4,0.4-0.7,0.5-1.1c0.1-0.2,0.2-0.4,0.3-0.6c3-5.6,7.1-11,10.1-14.5
			c0.1-0.1,0.2-0.2,0.3-0.4c15.8,19.9,33.8,47.3,47.8,81.6c0,0,13,12.4,13,29.8c0,17.4-13.3,23.1-20.6,21.5v0
			c-8.2,7-19.6,2.7-21.9-8.7l-0.1-0.2c-0.5,0.3-1,0.6-1.6,0.9c-4.9,2.4-11.3-0.6-13.3-5l0,0l0,0c-0.1-0.2-0.2-0.3-0.2-0.5l0.2-0.1
			l-1.6-14.1l0.5-0.1v-3.6l0.7-2.5c-0.3-0.7-0.6-1.5-0.9-2.3l-0.7-1l-0.9-2.4l-0.1-0.7c-2.7-6.5-6.6-15.4-11.8-26
			c-3.4-7-7.4-14.3-11.2-21L518.7,357.6z"/>
	</g>
	<path class="st42" d="M569.3,417.7c0,0,2.5,19.1-8.3,25.4l-2-5.3C559,437.8,570.6,431.8,569.3,417.7z"/>
	<path class="st42" d="M587.9,423.7c0,0,5,12.8,1.3,21.9c0,0-3.4,1.3-8.4,0.9C580.9,446.5,589.4,442.1,587.9,423.7z"/>
	<path class="st2" d="M569.6,423.7c0,0,0.1,11.4-9.5,15.7l-0.4-1.7C559.7,437.7,569.8,428.6,569.6,423.7z"/>
	<path class="st2" d="M588.8,430.4c0,0,0.7,10.6-5,16.2l-3.5-0.3C580.3,446.4,587.9,439.3,588.8,430.4z"/>
	<path class="st43" d="M518.7,357.6l8.1-18.4c0-0.5,0.1-1,0.2-1.5c0-0.2,0.1-0.3,0.1-0.5c0.1-0.4,0.1-0.7,0.2-1.1
		c0-0.2,0.1-0.4,0.1-0.5c0.1-0.4,0.2-0.8,0.4-1.2c0-0.1,0.1-0.3,0.1-0.4c0.2-0.5,0.4-1.1,0.6-1.6c0.1-0.1,0.1-0.3,0.2-0.4
		c0.2-0.4,0.3-0.8,0.5-1.2c0.1-0.2,0.2-0.4,0.3-0.6c0.2-0.4,0.4-0.7,0.5-1.1c0.1-0.2,0.2-0.4,0.3-0.6c0-0.1,0.1-0.2,0.1-0.2
		c10.8,21.3,22.4,49.5,23.1,73.6c0,0-13.4,17-8.5,33.3c-0.4-0.5-0.7-1-0.9-1.6l0,0l0,0c-0.1-0.2-0.2-0.3-0.2-0.5l0.2-0.1l-1.6-14.1
		l0.5-0.1v-3.6l0.9-3.1l-1.8-2.7l-1-2.5l-20-43.6c0,0-1.1-1.3-2.9-4.2L518.7,357.6z"/>
	<g>
		<path class="st2" d="M542.9,413.8l-0.5-1.1c0,0,0,0,0-0.1c-0.2-0.4-13.2-29-24.9-52l1.3-3l0,0c10.8,20.8,22.7,47,25.4,52.8
			c0.5-1.2,0.9-1.7,0.9-1.7l0,0c1.1-1.9,2.4-3.5,2.5-3.6c0.2-0.3,0.6-0.3,0.9-0.1c0.3,0.2,0.3,0.6,0.1,0.9c-0.2,0.3-0.5,0.6-0.9,1.1
			c0,0-7,10.6-3.1,25.8h0c0.8,2.2,2.8,4.2,5.4,5.3c2.5,1,5.1,1,7.2-0.1c8.5-4.3,13.1-13.4,11.2-22.3c-0.1-0.3,0.1-0.7,0.5-0.8
			c0.3-0.1,0.7,0.1,0.8,0.5c1.9,8.7-2.1,17.6-9.9,22.5c1.2,5.4,4.6,9.5,9.1,10.9c4.4,1.3,8.9,0,12.6-3.6c8.9-8.9,5.5-22.4,5.5-22.5
			c-0.1-0.3,0.1-0.7,0.5-0.8c0.3-0.1,0.7,0.1,0.8,0.5c0,0.1,3.6,14.3-5.8,23.8c0,0,0,0,0,0c3,0.3,7.3-0.5,11.2-3.7
			c3.3-2.7,7.3-7.9,7.3-17.4c0-17-12.6-29.2-12.8-29.3c-0.1-0.1-0.1-0.1-0.2-0.2c-14-34.3-32-61.5-47.7-81.3
			c0.1-0.1,0.1-0.2,0.2-0.2c1.1-1.3,2.1-2.4,2.7-3c0,0,0,0,0,0c5.2,6.5,10.7,13.8,16,22l0,0c0,0,25.9,38.6,31.6,60.1
			c7,9.1,20.2,30.1,7.6,46.1c-1.2,1.8-2.6,3.2-3.9,4.3c-0.5,0.4-1,0.8-1.6,1.1c-0.1,0.1-0.2,0.1-0.2,0.1c0,0,0.1,0,0.1-0.1
			c-2.9,1.8-6.1,2.8-9.2,2.8c-0.8,0-1.6-0.1-2.4-0.2c-2.7,2.2-5.8,3.4-8.9,3.4c-1.2,0-2.5-0.2-3.7-0.5c-4.9-1.5-8.6-5.7-9.9-11.4
			c-0.3,0.2-0.6,0.3-0.9,0.5c-1.2,0.6-2.6,0.9-4.1,0.9c-1.4,0-2.8-0.3-4.2-0.8c-2.7-1.1-4.8-3.1-5.9-5.4h0c0,0,0-0.1-0.1-0.2
			c-0.1-0.1-0.1-0.3-0.2-0.4c0,0,0,0,0,0c0,0-1.1-2.6-1.4-7c-0.2-1.8-0.2-3.7-0.1-5.9C541.9,417.7,542.4,415.5,542.9,413.8z"/>
	</g>
</g>
</svg>
