<?xml version="1.0" encoding="utf-8"?>
<!-- Generator: Adobe Illustrator 21.0.0, SVG Export Plug-In . SVG Version: 6.00 Build 0)  -->
<svg version="1.1" id="圖層_1" xmlns="http://www.w3.org/2000/svg" xmlns:xlink="http://www.w3.org/1999/xlink" x="0px" y="0px"
	 viewBox="0 0 822.9 601.4" style="enable-background:new 0 0 822.9 601.4;" xml:space="preserve">
<style type="text/css">
	.st0{fill:url(#SVGID_1_);}
	.st1{fill:#D59543;}
	.st2{fill:#AB6C21;}
	.st3{opacity:0.6;fill:#D59543;enable-background:new    ;}
	.st4{fill:url(#SVGID_2_);}
	.st5{fill:url(#SVGID_3_);}
	.st6{fill:#E1BE3F;}
	.st7{opacity:0.6;fill:#E1BE3F;enable-background:new    ;}
	.st8{fill:url(#SVGID_4_);}
	.st9{fill:#9E9E9F;}
	.st10{fill:#5693AE;}
	.st11{fill:url(#SVGID_5_);}
	.st12{fill:url(#SVGID_6_);}
	.st13{fill:url(#SVGID_7_);}
	.st14{fill:url(#SVGID_8_);}
	.st15{fill:url(#SVGID_9_);}
	.st16{fill:url(#SVGID_10_);}
	.st17{fill:url(#SVGID_11_);}
	.st18{fill:url(#SVGID_12_);}
	.st19{fill:url(#SVGID_13_);}
	.st20{fill:url(#SVGID_14_);}
	.st21{fill:url(#SVGID_15_);}
	.st22{fill:url(#SVGID_16_);}
	.st23{fill:url(#SVGID_17_);}
	.st24{fill:url(#SVGID_18_);}
	.st25{fill:url(#SVGID_19_);}
	.st26{fill:#0D2B47;}
	.st27{opacity:0.53;fill:#21477A;enable-background:new    ;}
	.st28{opacity:0.8;fill:#21477A;enable-background:new    ;}
	.st29{opacity:0.3;fill:#21477A;enable-background:new    ;}
	.st30{fill:url(#SVGID_20_);}
	.st31{fill:#AC6D21;}
	.st32{fill:#B5B5B6;}
	.st33{fill:#8AB350;}
	.st34{fill:url(#SVGID_21_);}
	.st35{fill:#F7F8F8;}
	.st36{fill:url(#SVGID_22_);}
	.st37{fill:url(#SVGID_23_);}
	.st38{opacity:0.51;fill:#C9CACA;enable-background:new    ;}
	.st39{fill:url(#SVGID_24_);}
	.st40{fill:url(#SVGID_25_);}
	.st41{fill:url(#SVGID_26_);}
	.st42{opacity:0.6;fill:#E2BF40;enable-background:new    ;}
	.st43{fill:url(#SVGID_27_);}
	.st44{fill:url(#SVGID_28_);}
	.st45{fill:url(#SVGID_29_);}
	.st46{fill:#E2BF40;}
	.st47{fill:url(#SVGID_30_);}
	.st48{fill:url(#SVGID_32_);}
	.st49{fill:#FFFFFF;}
	.st50{fill:#824323;}
	.st51{fill:#F4E3A5;}
	.st52{fill:#C88E2C;}
	.st53{fill:#AD7327;}
	.st54{fill:url(#SVGID_33_);}
	.st55{fill:url(#SVGID_34_);}
	.st56{fill:#EBA794;}
	.st57{fill:#40210F;}
	.st58{opacity:0.25;fill:#E2BF40;enable-background:new    ;}
	.st59{opacity:0.5;fill:#E2BF40;enable-background:new    ;}
	.st60{fill:#F9E6AA;}
	.st61{fill:#DEBD91;}
	.st62{fill:#D8C7A7;}
	.st63{fill:url(#SVGID_35_);}
	.st64{fill:#4B1F0E;}
	.st65{opacity:0.4;fill:#E2BF40;enable-background:new    ;}
	.st66{opacity:0.72;fill:#E2BF40;enable-background:new    ;}
	.st67{fill:#895424;}
	.st68{fill:#3F210E;}
	.st69{fill:#391E13;}
	.st70{fill:url(#SVGID_36_);}
	.st71{fill:#DCC094;}
	.st72{fill:#DABB74;}
	.st73{fill:#8C5924;}
	.st74{fill:url(#SVGID_37_);}
	.st75{fill:url(#SVGID_38_);}
	.st76{fill:url(#SVGID_39_);}
	.st77{fill:url(#SVGID_40_);}
	.st78{fill:url(#SVGID_41_);}
	.st79{fill:#647D3D;}
	.st80{fill:#303A22;}
	.st81{opacity:0.8;fill:url(#SVGID_42_);enable-background:new    ;}
	.st82{opacity:0.5;fill:url(#SVGID_43_);enable-background:new    ;}
	.st83{opacity:0.8;fill:url(#SVGID_44_);enable-background:new    ;}
	.st84{opacity:0.8;fill:url(#SVGID_45_);enable-background:new    ;}
	.st85{opacity:0.5;fill:url(#SVGID_46_);enable-background:new    ;}
	.st86{opacity:0.5;fill:url(#SVGID_47_);enable-background:new    ;}
	.st87{opacity:0.5;fill:url(#SVGID_48_);enable-background:new    ;}
	.st88{fill:#FBF9D1;}
	.st89{fill:url(#SVGID_49_);}
	.st90{fill:url(#SVGID_50_);}
	.st91{fill:url(#SVGID_51_);}
	.st92{fill:url(#SVGID_52_);}
	.st93{fill:url(#SVGID_53_);}
	.st94{fill:#933223;}
	.st95{fill:url(#SVGID_54_);}
	.st96{fill:url(#SVGID_55_);}
	.st97{fill:url(#SVGID_56_);}
	.st98{fill:url(#SVGID_57_);}
	.st99{fill:url(#SVGID_58_);}
	.st100{fill:url(#SVGID_59_);}
	.st101{fill:url(#SVGID_60_);}
	.st102{fill:url(#SVGID_61_);}
	.st103{fill:url(#SVGID_62_);}
	.st104{fill:url(#SVGID_63_);}
	.st105{fill:url(#SVGID_64_);}
	.st106{fill:url(#SVGID_65_);}
	.st107{fill:url(#SVGID_66_);}
	.st108{fill:url(#SVGID_67_);}
	.st109{fill:url(#SVGID_68_);}
	.st110{fill:url(#SVGID_69_);}
	.st111{fill:url(#SVGID_70_);}
	.st112{fill:url(#SVGID_71_);}
	.st113{fill:url(#SVGID_72_);}
	.st114{fill:url(#SVGID_73_);}
	.st115{fill:url(#SVGID_74_);}
	.st116{fill:url(#SVGID_75_);}
	.st117{fill:#F39F65;}
	.st118{opacity:0.6;}
	.st119{fill:url(#SVGID_76_);}
	.st120{fill:url(#SVGID_77_);}
	.st121{fill:url(#SVGID_78_);}
	.st122{fill:url(#SVGID_79_);}
	.st123{fill:url(#SVGID_80_);}
	.st124{opacity:0.6;fill:url(#SVGID_81_);enable-background:new    ;}
	.st125{opacity:0.6;fill:url(#SVGID_82_);enable-background:new    ;}
	.st126{opacity:0.6;fill:url(#SVGID_83_);enable-background:new    ;}
	.st127{opacity:0.6;fill:url(#SVGID_84_);enable-background:new    ;}
	.st128{opacity:0.6;fill:url(#SVGID_85_);enable-background:new    ;}
	.st129{opacity:0.6;fill:url(#SVGID_86_);enable-background:new    ;}
	.st130{opacity:0.6;fill:url(#SVGID_87_);enable-background:new    ;}
	.st131{opacity:0.6;fill:url(#SVGID_88_);enable-background:new    ;}
	.st132{fill:#F9C9A7;}
	.st133{fill:url(#SVGID_89_);}
	.st134{fill:url(#SVGID_90_);}
	.st135{fill:#D6988B;}
	.st136{fill:url(#SVGID_91_);}
	.st137{opacity:0.5;fill:#D6988B;enable-background:new    ;}
	.st138{opacity:0.4;fill:#F3B699;enable-background:new    ;}
	.st139{fill:url(#SVGID_92_);}
	.st140{fill:url(#SVGID_93_);}
	.st141{fill:url(#SVGID_94_);}
	.st142{fill:url(#SVGID_95_);}
	.st143{fill:url(#SVGID_96_);}
	.st144{fill:#236086;}
	.st145{fill:url(#SVGID_97_);}
	.st146{fill:url(#SVGID_98_);}
	.st147{fill:url(#SVGID_99_);}
	.st148{fill:url(#SVGID_100_);}
	.st149{fill:url(#SVGID_101_);}
	.st150{fill:url(#SVGID_102_);}
	.st151{fill:url(#SVGID_103_);}
	.st152{fill:url(#SVGID_104_);}
	.st153{fill:url(#SVGID_105_);}
	.st154{fill:url(#SVGID_106_);}
	.st155{opacity:0.6;fill:url(#SVGID_107_);enable-background:new    ;}
	.st156{fill:url(#SVGID_108_);}
	.st157{fill:url(#SVGID_109_);}
	.st158{fill:url(#SVGID_110_);}
	.st159{fill:url(#SVGID_111_);}
	.st160{opacity:0.6;fill:#8EC0DA;enable-background:new    ;}
	
		.st161{opacity:0.6;fill:none;stroke:#8EC0DA;stroke-width:1.1827;stroke-linecap:round;stroke-miterlimit:10;enable-background:new    ;}
	.st162{fill:#95D2E9;}
	.st163{fill:#FFF9F0;}
	.st164{fill:#C5BAAE;}
	.st165{fill:none;stroke:#95D2E9;stroke-width:0.5916;stroke-miterlimit:10;}
	.st166{fill:none;stroke:#95D2E9;stroke-width:0.5294;stroke-miterlimit:10;}
	.st167{fill:url(#SVGID_112_);}
	.st168{fill:url(#SVGID_113_);}
	.st169{fill:url(#SVGID_114_);}
	.st170{fill:#FCF1CD;}
	.st171{fill:url(#SVGID_115_);}
	.st172{fill:#AC6E21;}
	.st173{fill:url(#SVGID_116_);}
	.st174{fill:url(#SVGID_117_);}
	.st175{opacity:0.3;fill:url(#SVGID_118_);enable-background:new    ;}
	.st176{fill:#E9D288;}
	.st177{opacity:0.6;fill:#AC6E21;enable-background:new    ;}
	.st178{fill:url(#SVGID_119_);}
	.st179{fill:url(#SVGID_120_);}
	.st180{fill:url(#SVGID_121_);}
	.st181{fill:url(#SVGID_122_);}
	.st182{fill:url(#SVGID_123_);}
	.st183{fill:#CE9245;}
	.st184{fill:#A66A22;}
	.st185{opacity:0.6;fill:#CE9245;enable-background:new    ;}
	.st186{fill:url(#SVGID_124_);}
	.st187{fill:url(#SVGID_125_);}
	.st188{fill:url(#SVGID_126_);}
	.st189{fill:#E6A952;}
	.st190{fill:#BB7F37;}
	.st191{fill:url(#SVGID_127_);}
	.st192{fill:url(#SVGID_128_);}
	.st193{fill:url(#SVGID_129_);}
	.st194{opacity:0.25;fill:#D69644;enable-background:new    ;}
	.st195{opacity:0.5;fill:#D69644;enable-background:new    ;}
	.st196{fill:#FBF4C3;}
	.st197{fill:url(#SVGID_130_);}
	.st198{fill:#893827;}
	.st199{opacity:0.6;fill:#D69644;enable-background:new    ;}
	.st200{fill:#D7B093;}
	.st201{fill:#EFD39D;}
	.st202{fill:url(#SVGID_131_);}
	.st203{fill:url(#SVGID_132_);}
	.st204{fill:url(#SVGID_133_);}
	.st205{fill:url(#SVGID_134_);}
	.st206{fill:url(#SVGID_135_);}
	.st207{opacity:0.8;fill:url(#SVGID_136_);enable-background:new    ;}
	.st208{opacity:0.5;fill:url(#SVGID_137_);enable-background:new    ;}
	.st209{opacity:0.8;fill:url(#SVGID_138_);enable-background:new    ;}
	.st210{opacity:0.8;fill:url(#SVGID_139_);enable-background:new    ;}
	.st211{opacity:0.5;fill:url(#SVGID_140_);enable-background:new    ;}
	.st212{opacity:0.5;fill:url(#SVGID_141_);enable-background:new    ;}
	.st213{opacity:0.5;fill:url(#SVGID_142_);enable-background:new    ;}
</style>
<g>
	<g>
		<path class="st49" d="M394.4,77.5c0,0,67.7-14.4,99.2-3.5L518,100l-3.5,17.1L480.7,128h-82.1L394.4,77.5z"/>
	</g>
	<g>
		<g>
			<g>
				<linearGradient id="SVGID_1_" gradientUnits="userSpaceOnUse" x1="284.1998" y1="392.3782" x2="375.2904" y2="392.3782">
					<stop  offset="0" style="stop-color:#EFD980"/>
					<stop  offset="0.2037" style="stop-color:#EFD87C"/>
					<stop  offset="0.3836" style="stop-color:#EED572"/>
					<stop  offset="0.5546" style="stop-color:#EDCF5F"/>
					<stop  offset="0.7191" style="stop-color:#EBC743"/>
					<stop  offset="0.7526" style="stop-color:#EBC63C"/>
					<stop  offset="1" style="stop-color:#E7AE17"/>
				</linearGradient>
				<path class="st0" d="M375.7,366.1l-8.6-19.8c0-0.4,0-1.2,0-1.6v-0.4c0-0.4,0-0.8-0.4-1.2v-0.4c0-0.4-0.4-0.8-0.4-1.2v-0.4
					c0-0.4-0.4-1.2-0.8-1.6v-0.4c0-0.4-0.4-0.8-0.4-1.2c0-0.4,0-0.4-0.4-0.8c0-0.4-0.4-0.8-0.4-1.2c0-0.4-0.4-0.4-0.4-0.8
					c-3.1-6.2-7.8-11.7-10.9-15.6l-0.4-0.4c-16.7,21.4-36.2,50.6-51.3,87.5c0,0-14,13.2-14,31.9c0,18.7,14.4,24.9,22.2,22.9l0,0
					c8.9,7.4,21,3.1,23.3-9.3l0,0c0.4,0.4,1.2,0.8,1.6,0.8c5.1,2.7,12.1-0.8,14.4-5.4l0,0l0,0c0,0,0-0.4,0.4-0.4l0,0l1.6-15.2h-0.4
					v-3.9l-0.8-2.7c0.4-0.8,0.8-1.6,0.8-2.3l0.8-1.2l1.2-2.7v-0.8c2.7-7,7-16.7,12.8-28c3.5-7.4,7.8-15.2,12.1-22.6L375.7,366.1z"/>
			</g>
			<path class="st46" d="M321.3,430.2c0,0-2.7,20.6,8.9,27.2l1.9-5.8C332.1,451.6,320.1,445.4,321.3,430.2z"/>
			<path class="st46" d="M301.4,436.8c0,0-5.4,13.6-1.6,23.3c0,0,3.5,1.6,8.9,1.2C308.8,461,299.9,456.3,301.4,436.8z"/>
			<path class="st31" d="M320.9,436.8c0,0,0,12.1,10.1,16.7l0.4-1.9C331.8,451.6,320.9,441.9,320.9,436.8z"/>
			<path class="st31" d="M300.3,443.8c0,0-0.8,11.3,5.4,17.5l3.9-0.4C309.6,461,301.4,453.2,300.3,443.8z"/>
			<path class="st42" d="M375.7,366.1l-8.6-19.8c0-0.4,0-1.2,0-1.6v-0.4c0-0.4,0-0.8-0.4-1.2v-0.4c0-0.4-0.4-0.8-0.4-1.2v-0.4
				c0-0.4-0.4-1.2-0.8-1.6v-0.4c0-0.4-0.4-0.8-0.4-1.2c0-0.4,0-0.4-0.4-0.8c0-0.4-0.4-0.8-0.4-1.2c0-0.4-0.4-0.4-0.4-0.8
				c0,0,0,0,0-0.4c-11.7,22.9-24.1,52.9-24.5,78.6c0,0,14.4,18.3,8.9,35.8c0.4-0.4,0.8-1.2,1.2-1.6l0,0l0,0c0,0,0-0.4,0.4-0.4l0,0
				l1.6-15.2h-0.4v-3.9l-0.8-3.5l1.9-2.7l1.2-2.7l21.4-46.7c0,0,1.2-1.6,3.1-4.7L375.7,366.1z"/>
			<g>
				<path class="st31" d="M349.6,426l0.4-1.2l0,0c0.4-0.4,14-31.1,26.8-55.6l-1.2-3.1l0,0c-11.7,22.2-24.5,50.2-27.2,56.4
					c-0.4-1.2-0.8-1.9-0.8-1.9l0,0c-1.2-1.9-2.7-3.9-2.7-3.9c-0.4-0.4-0.8-0.4-0.8,0c-0.4,0.4-0.4,0.8,0,0.8
					c0.4,0.4,0.4,0.8,0.8,1.2c0,0,7.4,11.3,3.5,27.6l0,0c-0.8,2.3-3.1,4.7-5.8,5.4c-2.7,1.2-5.4,1.2-7.8,0
					c-8.9-4.7-14-14.4-12.1-23.7c0-0.4,0-0.8-0.4-0.8c-0.4,0-0.8,0-0.8,0.4c-1.9,9.3,2.3,19.1,10.5,24.1c-1.2,5.8-5.1,10.1-9.7,11.7
					c-4.7,1.6-9.7,0-13.6-3.9c-9.3-9.3-5.8-24.1-5.8-24.1c0-0.4,0-0.8-0.4-0.8c-0.4,0-0.8,0-0.8,0.4c0,0-3.9,15.2,6.2,25.3l0,0
					c-3.1,0.4-7.8-0.4-12.1-3.9c-3.5-2.7-7.8-8.6-7.8-18.7c0-18.3,13.6-31.1,13.6-31.5c0,0,0,0,0-0.4c15.2-36.6,34.2-65.7,50.9-87.1
					c0,0,0,0-0.4-0.4c-1.2-1.6-2.3-2.7-2.7-3.1l0,0c-5.4,7-11.3,14.8-17.1,23.7l0,0c0,0-27.6,41.2-33.8,64.2
					c-7.4,9.7-21.8,32.3-8.2,49.4c1.2,1.9,2.7,3.5,4.3,4.7c0.4,0.4,1.2,0.8,1.6,1.2h0.4l0,0c3.1,1.9,6.6,3.1,9.7,3.1
					c0.8,0,1.6,0,2.3-0.4c2.7,2.3,6.2,3.5,9.7,3.5c1.2,0,2.7,0,3.9-0.4c5.4-1.6,9.3-6.2,10.5-12.1c0.4,0,0.8,0.4,0.8,0.4
					c1.2,0.8,2.7,1.2,4.3,1.2c1.6,0,3.1-0.4,4.3-0.8c2.7-1.2,5.1-3.1,6.2-5.8l0,0c0,0,0,0,0-0.4v-0.4l0,0c0,0,1.2-2.7,1.6-7.4
					c0-1.9,0.4-3.9,0-6.2C350.4,430.2,350,427.9,349.6,426z"/>
			</g>
		</g>
		<g>
			<g>
				
					<linearGradient id="SVGID_2_" gradientUnits="userSpaceOnUse" x1="226.2057" y1="396.2675" x2="317.2959" y2="396.2675" gradientTransform="matrix(-1 0 0 1 842.036 0)">
					<stop  offset="0" style="stop-color:#EFD980"/>
					<stop  offset="0.2037" style="stop-color:#EFD87C"/>
					<stop  offset="0.3836" style="stop-color:#EED572"/>
					<stop  offset="0.5546" style="stop-color:#EDCF5F"/>
					<stop  offset="0.7191" style="stop-color:#EBC743"/>
					<stop  offset="0.7526" style="stop-color:#EBC63C"/>
					<stop  offset="1" style="stop-color:#E7AE17"/>
				</linearGradient>
				<path class="st4" d="M524.7,370l8.6-19.8c0-0.4,0-1.2,0-1.6v-0.4c0-0.4,0-0.8,0.4-1.2v-0.4c0-0.4,0.4-0.8,0.4-1.2v-0.4
					c0-0.4,0.4-1.2,0.8-1.6v-0.4c0-0.4,0.4-0.8,0.4-1.2s0-0.4,0.4-0.8c0-0.4,0.4-0.8,0.4-1.2c0-0.4,0.4-0.4,0.4-0.8
					c3.1-6.2,7.8-11.7,10.9-15.6l0.4-0.4c16.7,21.4,36.2,50.6,51.3,87.5c0,0,14,13.2,14,31.9c0,18.7-14.4,24.9-22.2,22.9l0,0
					c-8.9,7.4-21,3.1-23.3-9.3l0,0c-0.4,0.4-1.2,0.8-1.6,0.8c-5.1,2.7-12.1-0.8-14.4-5.4l0,0l0,0c0,0,0-0.4-0.4-0.4l0,0l-1.6-15.2
					h0.4v-3.9l0.8-2.7c-0.4-0.8-0.8-1.6-0.8-2.3l-0.8-1.2l-1.2-2.7v-0.8c-2.7-7-7-16.7-12.8-28c-3.5-7.4-7.8-15.2-12.1-22.6
					L524.7,370z"/>
			</g>
			<path class="st46" d="M578.7,434.1c0,0,2.7,20.6-8.9,27.2l-1.9-5.8C567.8,455.5,580.3,449.3,578.7,434.1z"/>
			<path class="st46" d="M598.6,440.7c0,0,5.4,13.6,1.6,23.3c0,0-3.5,1.6-8.9,1.2C591.2,464.8,600.1,460.2,598.6,440.7z"/>
			<path class="st31" d="M579.1,440.7c0,0,0,12.1-10.1,16.7l-0.4-1.9C568.2,455.5,579.1,445.8,579.1,440.7z"/>
			<path class="st31" d="M599.7,447.7c0,0,0.8,11.3-5.4,17.5l-3.9-0.4C590.4,464.8,598.6,457.1,599.7,447.7z"/>
			<path class="st42" d="M524.7,370l8.6-19.8c0-0.4,0-1.2,0-1.6v-0.4c0-0.4,0-0.8,0.4-1.2v-0.4c0-0.4,0.4-0.8,0.4-1.2v-0.4
				c0-0.4,0.4-1.2,0.8-1.6v-0.4c0-0.4,0.4-0.8,0.4-1.2s0-0.4,0.4-0.8c0-0.4,0.4-0.8,0.4-1.2c0-0.4,0.4-0.4,0.4-0.8c0,0,0,0,0-0.4
				c11.7,22.9,24.1,52.9,24.5,78.6c0,0-14.4,18.3-8.9,35.8c-0.4-0.4-0.8-1.2-1.2-1.6l0,0l0,0c0,0,0-0.4-0.4-0.4l0,0l-1.6-15.2h0.4
				v-3.9l0.8-3.5L548,426l-1.2-2.7l-21.4-46.7c0,0-1.2-1.6-3.1-4.7L524.7,370z"/>
			<g>
				<path class="st31" d="M550.3,429.8l-0.4-1.2l0,0c-0.4-0.4-14-31.1-26.8-55.6l1.6-3.1l0,0c11.7,22.2,24.5,50.2,27.2,56.4
					c0.4-1.2,0.8-1.9,0.8-1.9l0,0c1.2-1.9,2.7-3.9,2.7-3.9c0.4-0.4,0.8-0.4,0.8,0c0.4,0.4,0.4,0.8,0,0.8c-0.4,0.4-0.4,0.8-0.8,1.2
					c0,0-7.4,11.3-3.5,27.6l0,0c0.8,2.3,3.1,4.7,5.8,5.4c2.7,1.2,5.4,1.2,7.8,0c8.9-4.7,14-14.4,12.1-23.7c0-0.4,0-0.8,0.4-0.8
					s0.8,0,0.8,0.4c1.9,9.3-2.3,19.1-10.5,24.1c1.2,5.8,5.1,10.1,9.7,11.7c4.7,1.6,9.7,0,13.6-3.9c9.3-9.3,5.8-24.1,5.8-24.1
					c0-0.4,0-0.8,0.4-0.8c0.4,0,0.8,0,0.8,0.4c0,0,3.9,15.2-6.2,25.3l0,0c3.1,0.4,7.8-0.4,12.1-3.9c3.5-2.7,7.8-8.6,7.8-18.7
					c0-18.3-13.6-31.1-13.6-31.5c0,0,0,0,0-0.4c-15.2-36.6-34.2-65.7-50.9-87.1c0,0,0,0,0.4-0.4c1.2-1.6,2.3-2.7,2.7-3.1l0,0
					c5.4,7,11.3,14.8,17.1,23.7l0,0c0,0,27.6,41.2,33.8,64.2c7.4,9.7,21.8,32.3,8.2,49.4c-1.2,1.9-2.7,3.5-4.3,4.7
					c-0.4,0.4-1.2,0.8-1.6,1.2h-0.4l0,0c-3.1,1.9-6.6,3.1-9.7,3.1c-0.8,0-1.6,0-2.3-0.4c-2.7,2.3-6.2,3.5-9.7,3.5
					c-1.2,0-2.7,0-3.9-0.4c-5.4-1.6-9.3-6.2-10.5-12.1c-0.4,0-0.8,0.4-0.8,0.4c-1.2,0.8-2.7,1.2-4.3,1.2s-3.1-0.4-4.3-0.8
					c-2.7-1.2-5.1-3.1-6.2-5.8l0,0c0,0,0,0,0-0.4v-0.4l0,0c0,0-1.2-2.7-1.6-7.4c0-1.9-0.4-3.9,0-6.2
					C549.6,434.1,549.9,431.8,550.3,429.8z"/>
			</g>
		</g>
		<g>
			<g>
				
					<linearGradient id="SVGID_3_" gradientUnits="userSpaceOnUse" x1="283.7759" y1="-880.5856" x2="375.087" y2="-880.5856" gradientTransform="matrix(1 0 0 -1 0 -489.3303)">
					<stop  offset="0" style="stop-color:#EDCF95"/>
					<stop  offset="0.5331" style="stop-color:#EECC91"/>
					<stop  offset="0.7526" style="stop-color:#EFC88D"/>
					<stop  offset="1" style="stop-color:#EDB397"/>
				</linearGradient>
				<path class="st5" d="M375.3,365.3l-8.9-19.4c0-0.4,0-1.2-0.4-1.6c0-0.4,0-0.4,0-0.4c0-0.4-0.4-0.8-0.4-1.2s0-0.4-0.4-0.8
					c-0.4-0.4-0.4-0.8-0.4-1.2c0-0.4,0-0.4-0.4-0.4c-0.4-0.8-0.4-1.2-0.8-1.9c0-0.4-0.4-0.4-0.4-0.4c-0.4-0.4-0.4-0.8-0.8-1.2
					c0-0.4-0.4-0.4-0.4-0.8c-0.4-0.4-0.4-0.8-0.8-1.2c0-0.4-0.4-0.4-0.4-0.8c-3.1-6.2-7.8-11.7-10.9-15.6c-0.4-0.4-0.4-0.4-0.4-0.4
					c-17.1,21.4-36.2,50.6-51.3,87.5c0,0-14,13.2-14,31.9s14.4,24.9,22.2,22.9l0,0c8.6,7.8,21,2.7,23.3-9.3v-0.4
					c0.4,0.4,1.2,0.8,1.9,0.8c5.1,2.7,12.1-0.8,14.4-5.4l0,0l0,0c0-0.4,0.4-0.4,0.4-0.8l-0.4-0.4l1.9-15.2h-0.4V426l-0.8-2.7
					c0.4-0.8,0.8-1.6,0.8-2.3l0.8-1.2l0.8-2.7v-0.8c2.7-7,7-16.7,12.8-28c3.5-7.4,7.8-15.2,12.1-22.6L375.3,365.3z"/>
			</g>
			<path class="st183" d="M320.9,429.8c0,0-2.7,20.6,8.9,27.2l1.9-5.8C332.1,451.6,319.7,445.4,320.9,429.8z"/>
			<path class="st183" d="M301,436.5c0,0-5.4,13.6-1.2,23.3c0,0,3.5,1.2,8.9,0.8C308.8,461,299.1,456.3,301,436.5z"/>
			<path class="st184" d="M320.9,436.5c0,0-0.4,12.4,10.1,16.7l0.4-1.9C331.4,451.6,320.5,441.5,320.9,436.5z"/>
			<path class="st184" d="M300.3,443.8c0,0-0.8,11.3,5.4,17.5l3.9-0.4C309.2,461,301,453.2,300.3,443.8z"/>
			<path class="st185" d="M375.3,365.3l-8.9-19.4c0-0.4,0-1.2-0.4-1.6c0-0.4,0-0.4,0-0.4c0-0.4-0.4-0.8-0.4-1.2s0-0.4-0.4-0.8
				c-0.4-0.4-0.4-0.8-0.4-1.2c0-0.4,0-0.4-0.4-0.4c-0.4-0.8-0.4-1.2-0.8-1.9c0-0.4-0.4-0.4-0.4-0.4c-0.4-0.4-0.4-0.8-0.8-1.2
				c0-0.4-0.4-0.4-0.4-0.8c-0.4-0.4-0.4-0.8-0.8-1.2c0-0.4-0.4-0.4-0.4-0.8c0,0,0-0.4-0.4-0.4c-11.7,22.9-24.1,53.3-24.9,79
				c0,0,14.4,18.3,9.3,35.8c0.4-0.4,0.8-1.2,0.8-1.9l0,0l0,0c0-0.4,0.4-0.4,0.4-0.8l-0.4-0.4l1.9-15.2h-0.4v-3.9l-0.8-3.5l1.9-2.7
				l1.2-2.7l21.4-46.7c0,0,1.2-1.2,3.1-4.3L375.3,365.3z"/>
			<g>
				<path class="st184" d="M349.3,426l0.8-1.2l0,0c0.4-0.4,14-31.1,26.8-56l-1.6-3.5l0,0c-11.7,22.2-24.5,50.6-27.2,56.4
					c-0.4-1.2-0.8-1.9-0.8-1.9l0,0c-1.2-1.9-2.3-3.9-2.7-3.9c-0.4-0.4-0.8-0.4-0.8,0c-0.4,0.4-0.4,0.8,0,0.8
					c0.4,0.4,0.8,0.8,0.8,1.2c0,0,7.4,11.3,3.5,27.6l0,0c-0.8,2.3-3.1,4.3-5.8,5.4c-2.7,1.2-5.4,1.2-7.8,0
					c-9.3-4.3-14-14.4-12.1-24.1c0-0.4-0.4-0.8-0.4-0.8c-0.4,0-0.8,0.4-0.8,0.4c-1.9,9.3,2.3,19.1,10.5,24.1
					c-1.2,5.8-5.1,10.1-9.7,11.7c-4.7,1.2-9.7,0-13.2-3.9c-9.7-9.7-5.8-24.1-5.8-24.1c0-0.4-0.4-0.8-0.4-0.8c-0.4,0-0.8,0.4-0.8,0.4
					c0,0.4-3.9,15.6,6.2,25.7l0,0c-3.1,0.4-7.8-0.8-12.1-3.9c-3.5-2.7-7.8-8.6-7.8-18.7c0-18.3,13.6-31.1,13.6-31.5l0.4-0.4
					c14-35.8,33.4-65,50.2-86.3l0,0c-1.2-1.2-2.3-2.3-2.7-3.5l0,0c-5.4,7-11.3,14.8-17.1,23.7l0,0c0,0-27.6,41.2-33.8,64.6
					c-7.8,9.7-21.8,32.3-8.2,49.4c1.2,1.9,2.7,3.5,4.3,4.7c0.4,0.4,1.2,0.8,1.9,1.2c0.4,0,0.4,0.4,0.4,0.4l0,0
					c3.1,1.9,6.6,2.7,9.7,2.7c0.8,0,1.9,0,2.3-0.4c2.7,2.3,6.2,3.5,9.7,3.5c1.2,0,2.7-0.4,3.9-0.8c5.4-1.6,9.3-6.2,10.9-12.4
					c0.4,0.4,0.8,0.4,0.8,0.4c1.2,0.8,2.7,0.8,4.3,0.8c1.6,0,2.7-0.4,4.3-0.8c2.7-1.2,5.1-3.5,6.2-5.8l0,0c0,0,0,0,0-0.4
					s0.4-0.4,0.4-0.4l0,0c0,0,1.2-2.7,1.6-7.8c0.4-1.9,0.4-3.9,0-6.2C350.4,429.8,349.6,427.5,349.3,426z"/>
			</g>
		</g>
		<g>
			<g>
				
					<linearGradient id="SVGID_4_" gradientUnits="userSpaceOnUse" x1="2731.3931" y1="-884.0859" x2="2822.7046" y2="-884.0859" gradientTransform="matrix(-1 0 0 -1 3347.6108 -489.3303)">
					<stop  offset="0" style="stop-color:#EDCF95"/>
					<stop  offset="0.5331" style="stop-color:#EECC91"/>
					<stop  offset="0.7526" style="stop-color:#EFC88D"/>
					<stop  offset="1" style="stop-color:#EDB397"/>
				</linearGradient>
				<path class="st8" d="M524.7,369.2l8.6-19.8c0-0.4,0-1.2,0.4-1.6c0-0.4,0-0.4,0-0.4c0-0.4,0.4-0.8,0.4-1.2s0-0.4,0.4-0.8
					s0.4-0.8,0.4-1.2c0-0.4,0-0.4,0.4-0.4c0.4-0.8,0.4-1.2,0.8-1.9c0-0.4,0.4-0.4,0.4-0.4c0.4-0.4,0.4-0.8,0.8-1.2
					c0-0.4,0.4-0.4,0.4-0.8c0.4-0.4,0.4-0.8,0.8-1.2c0-0.4,0.4-0.4,0.4-0.8c3.1-6.2,7.8-11.7,10.9-15.6c0.4-0.4,0.4-0.4,0.4-0.4
					c17.1,21.4,36.2,50.6,51.3,87.5c0,0,14,13.2,14,31.9c0,18.7-14.4,24.9-22.2,22.9l0,0c-8.6,7.8-21,2.7-23.3-9.3l0,0
					c-0.4,0.4-1.2,0.8-1.9,0.8c-5.1,2.7-12.1-0.8-14.4-5.4l0,0l0,0c0-0.4-0.4-0.4-0.4-0.8l0.4-0.4l-1.9-15.2h-0.8v-3.9l0.8-2.7
					c-0.4-0.8-0.8-1.6-0.8-2.3l-0.8-1.2l-0.8-2.7v-0.8c-2.7-7-7-16.7-12.8-28c-3.5-7.4-7.8-15.2-12.1-22.6L524.7,369.2z"/>
			</g>
			<path class="st183" d="M579.1,433.7c0,0,2.7,20.6-8.9,27.2l-1.9-5.8C568.2,455.5,580.3,449.3,579.1,433.7z"/>
			<path class="st183" d="M598.9,440.3c0,0,5.4,13.6,1.2,23.3c0,0-3.5,1.2-8.9,0.8C591.6,464.8,600.9,460.2,598.9,440.3z"/>
			<path class="st184" d="M579.5,440.3c0,0,0.4,12.4-10.1,16.7l-0.4-1.9C568.6,455.5,579.5,445.4,579.5,440.3z"/>
			<path class="st184" d="M600.1,447.7c0,0,0.8,11.3-5.4,17.5l-3.9-0.4C590.8,464.8,598.9,457.1,600.1,447.7z"/>
			<path class="st185" d="M524.7,369.2l8.6-19.8c0-0.4,0-1.2,0.4-1.6c0-0.4,0-0.4,0-0.4c0-0.4,0.4-0.8,0.4-1.2s0-0.4,0.4-0.8
				s0.4-0.8,0.4-1.2c0-0.4,0-0.4,0.4-0.4c0.4-0.8,0.4-1.2,0.8-1.9c0-0.4,0.4-0.4,0.4-0.4c0.4-0.4,0.4-0.8,0.8-1.2
				c0-0.4,0.4-0.4,0.4-0.8c0.4-0.4,0.4-0.8,0.8-1.2c0-0.4,0.4-0.4,0.4-0.8c0,0,0-0.4,0.4-0.4c11.7,22.9,24.1,53.3,24.9,79
				c0,0-14.4,18.3-9.3,35.8c-0.4-0.4-0.8-1.2-0.8-1.9l0,0l0,0c0-0.4-0.4-0.4-0.4-0.8l0.4-0.4l-1.9-15.2h0.4v-3.9l0.8-3.5l-1.9-2.7
				l-1.2-2.7l-21.4-46.7c0,0-1.2-1.2-3.1-4.3L524.7,369.2z"/>
			<g>
				<path class="st184" d="M550.7,429.8l-0.8-1.2l0,0c-0.4-0.4-14-31.1-26.8-56l1.2-3.1l0,0c11.7,22.2,24.5,50.6,27.2,56.4
					c0.4-1.2,0.8-1.9,0.8-1.9l0,0c1.2-1.9,2.3-3.9,2.7-3.9c0.4-0.4,0.8-0.4,0.8,0c0.4,0.4,0.4,0.8,0,0.8c-0.4,0.4-0.8,0.8-0.8,1.2
					c0,0-7.4,11.3-3.5,27.6l0,0c0.8,2.3,3.1,4.3,5.8,5.4c2.7,1.2,5.4,1.2,7.8,0c9.3-4.3,14-14.4,12.1-24.1c0-0.4,0.4-0.8,0.4-0.8
					c0.4,0,0.8,0.4,0.8,0.4c1.9,9.3-2.3,19.1-10.5,24.1c1.2,5.8,5.1,10.1,9.7,11.7c4.7,1.2,9.7,0,13.2-3.9
					c9.7-9.7,5.8-24.1,5.8-24.1c0-0.4,0.4-0.8,0.4-0.8c0.4,0,0.8,0.4,0.8,0.4c0,0.4,3.9,15.6-6.2,25.7l0,0c3.1,0.4,7.8-0.8,12.1-3.9
					c3.5-2.7,7.8-8.6,7.8-18.7c0-18.3-13.6-31.1-13.6-31.5l-0.4-0.4c-15.2-36.9-34.6-66.1-51.3-87.1l0.4-0.4
					c1.2-1.2,2.3-2.3,2.7-3.5l0,0c5.4,7,11.3,14.8,17.1,23.7l0,0c0,0,27.6,41.2,33.8,64.6c7.8,9.7,21.8,32.3,8.2,49.4
					c-1.2,1.9-2.7,3.5-4.3,4.7c-0.4,0.4-1.2,0.8-1.9,1.2c-0.4,0-0.4,0.4-0.4,0.4l0,0c-3.1,1.9-6.6,2.7-9.7,2.7c-0.8,0-1.9,0-2.3-0.4
					c-2.7,2.3-6.2,3.5-9.7,3.5c-1.2,0-2.7-0.4-3.9-0.8c-5.4-1.6-9.3-6.2-10.9-12.4c-0.4,0.4-0.8,0.4-0.8,0.4
					c-1.2,0.8-2.7,0.8-4.3,0.8s-2.7-0.4-4.3-0.8c-2.7-1.2-5.1-3.5-6.2-5.8l0,0c0,0,0,0,0-0.4s-0.4-0.4-0.4-0.4l0,0
					c0,0-1.2-2.7-1.6-7.8c-0.4-1.9-0.4-3.9,0-6.2C549.9,433.7,550.3,431.4,550.7,429.8z"/>
			</g>
		</g>
	</g>
	<g>
		<g>
			<g>
				<linearGradient id="SVGID_5_" gradientUnits="userSpaceOnUse" x1="331.6357" y1="95.2274" x2="525.3737" y2="193.6935">
					<stop  offset="0" style="stop-color:#F2D397"/>
					<stop  offset="0.4319" style="stop-color:#F3D195"/>
					<stop  offset="0.7526" style="stop-color:#F5CC8F"/>
					<stop  offset="1" style="stop-color:#F3B699"/>
				</linearGradient>
				<path class="st11" d="M556.2,120.3c-1.9-2.7-3.9-5.4-6.2-7.8c21-2.3,34.6-29.6,17.9-48.6c-28.8-29.2-60.7-3.1-59.5,16.7
					C492,73.2,473.7,69.3,455,69.3c-22.2,0-44.7,4.7-64.6,14.4c5.1-19.8-28.8-50.6-59.5-19.8c-17.1,19.4-1.9,47.8,19.8,48.6
					c-0.8,0.8-1.6,1.6-2.3,2.3c-26.1,29.2-36.9,70.8-22.9,108.1c1.9,5.4,4.7,10.5,7.8,15.2c20.2,31.1,61.1,43.2,96.8,46.7
					c5.1,0.4,9.7,0.8,14.8,0.8c28.8,0.4,58.3-5.4,84-19.1c22.2-11.7,42-28.4,48.2-53.7C584.6,181.7,574.8,146.3,556.2,120.3z"/>
				<path class="st49" d="M497.8,146.7c0,0,11.3-2.7,19.4,4.7c8.2,7,15.9,18.3,9.7,42c0,0-19.8-5.1-26.1-5.4l-24.5-1.6
					C476.4,186.4,470.6,151.8,497.8,146.7z"/>
				<path class="st50" d="M422.8,186.4c0,0-25.7-1.2-49.4,6.2l0.4,1.2C374.1,193.4,399,187.2,422.8,186.4z"/>
				<linearGradient id="SVGID_6_" gradientUnits="userSpaceOnUse" x1="336.9383" y1="88.5781" x2="372.2377" y2="88.5781">
					<stop  offset="0" style="stop-color:#FEECD2"/>
					<stop  offset="0.6938" style="stop-color:#FBEABC"/>
					<stop  offset="1" style="stop-color:#F9E9B0"/>
				</linearGradient>
				<path class="st12" d="M358.2,105.1c-5.1-0.8-8.6-1.2-12.8-3.9c-3.9-2.7-7.4-7-8.2-12.1c-1.2-4.7,0.4-10.1,4.3-13.6
					c5.1-4.3,14-4.7,19.4-0.8s9.7,10.9,11.3,17.5l-0.4,0.8L358.2,105.1z"/>
				<g>
					<g>
						<path class="st50" d="M371,193.4l-1.6,1.9c2.3-1.2,5.1-1.9,5.1-1.9l-0.4-1.2l0,0l0,0c-18.7-52.1,54.4-63.4,48.2-5.8
							C432.1,125.7,352.8,135.4,371,193.4z"/>
					</g>
				</g>
				<g>
					
						<ellipse transform="matrix(0.9894 -0.1449 0.1449 0.9894 -14.8538 58.3612)" class="st189" cx="393.2" cy="131.1" rx="13.2" ry="7.8"/>
					<path class="st190" d="M391.3,139.3c-2.3,0-4.7-0.4-6.6-1.2c-2.7-1.2-4.7-3.1-5.1-5.1l0,0c-0.8-4.3,5.1-8.9,12.4-10.1
						c3.5-0.4,7-0.4,9.7,0.8c2.7,1.2,4.7,3.1,5.1,5.1c0.4,2.3-0.8,4.7-3.1,6.2c-2.3,1.9-5.4,3.1-8.9,3.5
						C393.2,139.3,392,139.3,391.3,139.3z M395.1,123.8c-1.2,0-1.9,0-3.1,0.4c-7,1.2-12.1,5.1-11.3,8.9l0,0c0.4,1.9,1.9,3.5,4.3,4.3
						c2.7,1.2,5.8,1.2,9.3,0.8c3.5-0.4,6.6-1.6,8.6-3.5c1.9-1.6,3.1-3.5,2.7-5.4c-0.4-1.9-1.9-3.5-4.3-4.3
						C399.8,124.1,397.5,123.8,395.1,123.8z"/>
				</g>
				<ellipse class="st50" cx="402.1" cy="169.7" rx="9.7" ry="13.2"/>
				<linearGradient id="SVGID_7_" gradientUnits="userSpaceOnUse" x1="526.5537" y1="88.5781" x2="561.8535" y2="88.5781">
					<stop  offset="0" style="stop-color:#FEECD2"/>
					<stop  offset="0.6938" style="stop-color:#FBEABC"/>
					<stop  offset="1" style="stop-color:#F9E9B0"/>
				</linearGradient>
				<path class="st13" d="M540.6,105.1c5.1-0.8,8.6-1.2,12.8-3.9c3.9-2.7,7.4-7,8.2-12.1c1.2-4.7-0.4-10.1-4.3-13.6
					c-5.1-4.3-14-4.7-19.4-0.8c-5.4,3.9-9.7,10.9-11.3,17.5L527,93L540.6,105.1z"/>
				<g>
					
						<ellipse transform="matrix(0.1449 -0.9894 0.9894 0.1449 302.6461 612.5173)" class="st189" cx="505.7" cy="131.2" rx="7.8" ry="13.2"/>
					<path class="st190" d="M507.5,139.3c-1.2,0-2.3,0-3.1-0.4c-3.5-0.4-6.6-1.9-8.9-3.5c-2.3-1.9-3.5-4.3-3.1-6.2
						c0.8-4.3,7.4-7,14.8-6.2c3.5,0.4,6.6,1.9,8.9,3.5c2.3,1.9,3.5,4.3,3.1,6.2l0,0C518.4,137,513.8,139.3,507.5,139.3z
						 M503.3,123.8c-5.4,0-9.7,2.3-10.5,5.4c-0.4,1.9,0.8,3.9,2.7,5.4c2.3,1.6,5.1,3.1,8.6,3.5c7,1.2,12.8-1.2,13.6-5.1h0.4h-0.4
						c0.4-1.9-0.8-3.9-2.7-5.4c-2.3-1.6-5.1-3.1-8.6-3.5C505.6,123.8,504.4,123.8,503.3,123.8z"/>
				</g>
				<ellipse class="st50" cx="496.7" cy="169.7" rx="9.7" ry="13.2"/>
				<path class="st49" d="M401,146.7c0,0-11.3-2.7-19.4,4.7c-8.2,7-15.9,18.3-9.7,42c0,0,19.8-5.1,26.1-5.4l24.5-1.6
					C422.4,186.4,428.2,151.8,401,146.7z"/>
				
					<linearGradient id="SVGID_8_" gradientUnits="userSpaceOnUse" x1="-240.263" y1="168.9529" x2="-198.309" y2="168.9529" gradientTransform="matrix(-1 0 0 1 182.6785 0)">
					<stop  offset="0" style="stop-color:#844E2F"/>
					<stop  offset="0.5308" style="stop-color:#71432D"/>
					<stop  offset="1" style="stop-color:#5E3828"/>
				</linearGradient>
				<path class="st14" d="M405.3,148.3c0,0,14.4,2.3,17.5,26.8c0,0,0,8.2-0.8,10.9l-7.8,0.4c0,0-26.4,1.9-28.4,3.5
					C374.9,173.9,382.7,145.2,405.3,148.3z"/>
				<linearGradient id="SVGID_9_" gradientUnits="userSpaceOnUse" x1="330.5867" y1="239.8632" x2="567.4431" y2="239.8632">
					<stop  offset="0" style="stop-color:#FEECD2"/>
					<stop  offset="0.6938" style="stop-color:#FBEABC"/>
					<stop  offset="1" style="stop-color:#F9E9B0"/>
				</linearGradient>
				<path class="st15" d="M460.5,193.8h-22.9c-81.7,0-107,40.4-107,40.8c0.8,1.2,1.6,2.7,2.3,3.9c20.2,31.1,61.1,43.2,96.8,46.7
					c5.1,0.4,9.7,0.8,14.8,0.8c28.8,0.4,58.3-5.4,84-19.1c15.2-8.2,29.6-18.7,38.9-32.7C565.1,231.1,538.7,193.8,460.5,193.8z"/>
				<path class="st56" d="M386.2,234.6c0-27.6-22.2-49.8-49.8-49.8c-6.2,0-11.7,1.2-17.1,3.1c0,11.7,1.9,23.7,6.2,35.4
					c1.9,5.4,4.7,10.5,7.8,15.2c9.3,14.4,22.9,24.5,38.1,31.9C380.4,261.1,386.2,248.6,386.2,234.6z"/>
				<path class="st56" d="M513.8,234.6c0,12.8,4.7,24.5,12.8,33.4c0.8-0.4,1.2-0.8,1.9-1.2c22.2-11.7,42-28.4,48.2-53.7
					c1.9-8.6,3.1-17.1,2.7-26.1c-5.1-1.6-10.1-2.7-15.9-2.7C535.9,184.8,513.8,207,513.8,234.6z"/>
				<path class="st57" d="M446.5,190.7c0,0,7,0,10.1,0.4c3.1,0.8,6.2,1.9,3.5,5.8c-3.1,4.3-10.9,6.6-10.9,6.6s-8.2-2.3-10.9-6.6
					c-2.3-3.9,0.4-5.1,3.5-5.8c3.1-0.8,10.1-0.4,10.1-0.4"/>
				<path class="st194" d="M440.3,285.9c1.6,0,2.7,0,4.3,0c28.8,0.4,58.3-5.4,84-19.1c22.2-11.7,42-28.4,48.2-53.7
					c7.8-31.9-1.9-66.9-20.2-93c-1.9-2.7-3.9-5.4-6.2-7.8C550.3,112.5,614.9,265.7,440.3,285.9z"/>
				<path class="st195" d="M338.8,126.9c14.4-13.2,21.4-15.9,21.4-15.9c-34.2-1.2-31.9-42.8-31.9-43.9
					c-13.2,19.1,1.6,44.7,22.2,45.5c-0.8,0.8-1.6,1.6-2.3,2.3C344.6,118.7,341.5,122.6,338.8,126.9z"/>
				<path class="st194" d="M560.1,126.9c-14.4-13.2-21.4-15.9-21.4-15.9c34.2-1.2,31.9-42.8,31.9-43.9c12.4,15.9,0,44.3-20.6,45.1
					c0.8,0.8,1.6,1.6,2.3,2.3C555.8,118.3,557.3,122.6,560.1,126.9z"/>
				<path class="st196" d="M350.4,112.5c-0.8,0.8-1.6,1.6-2.3,2.3c-26.1,29.2-36.9,70.8-22.9,108.1c1.9,5.4,4.7,10.5,7.8,15.2
					c7,10.9,16.3,19.1,27.2,25.7l0,0C292.5,196.5,350.4,112.5,350.4,112.5z"/>
				<path class="st61" d="M360.9,75.1c-3.5-2.7-8.6-3.5-12.8-2.3l0,0c0,0,21.8,9.3,19.1,24.5l4.3-3.9l0.4-0.8
					C370.3,86,366.4,79,360.9,75.1z"/>
				<path class="st61" d="M537.9,75.1c3.5-2.7,8.6-3.5,12.8-2.3l0,0c0,0-21.8,9.3-19.1,24.5l-4.3-4.3l-0.4-0.8
					C528.6,86,532.4,79,537.9,75.1z"/>
				<path class="st62" d="M477.6,165c0,0,40.1,0,50.9,7.4c0,0-1.9-29.2-31.9-25.3C496.7,147.1,483,149.8,477.6,165z"/>
				<linearGradient id="SVGID_10_" gradientUnits="userSpaceOnUse" x1="475.8505" y1="168.9529" x2="517.8044" y2="168.9529">
					<stop  offset="0" style="stop-color:#844E2F"/>
					<stop  offset="0.5308" style="stop-color:#71432D"/>
					<stop  offset="1" style="stop-color:#5E3828"/>
				</linearGradient>
				<path class="st16" d="M493.5,148.3c0,0-14.4,2.3-17.5,26.8c0,0,0,8.2,0.8,10.9l7.8,0.4c0,0,26.4,1.9,28.4,3.5
					C523.9,173.9,516.1,145.2,493.5,148.3z"/>
				<path class="st198" d="M517.3,168.5c-1.9-12.1-10.1-22.2-24.1-20.2c0,0-0.4,0-1.2,0.4c-2.3,1.2-5.8,3.1-8.6,6.2
					c-1.9,2.3-3.9,5.8-5.4,10.1C481.9,165,502.9,165.4,517.3,168.5z"/>
				<path class="st62" d="M421.2,165c0,0-40.1,0-50.9,7.4c0,0,1.9-29.2,31.9-25.3C402.1,147.1,415.8,149.8,421.2,165z"/>
				<path class="st198" d="M381.1,168.5c1.9-12.1,10.1-22.2,24.1-20.2c0,0,0.4,0,1.2,0.4c2.3,1.2,5.8,3.1,8.6,6.2
					c1.9,2.3,3.9,5.8,5.4,10.1C416.5,165,395.9,165.4,381.1,168.5z"/>
				<path class="st65" d="M409.5,225.3c0,0,18.3,8.9,36.9,0c0,0,0.8,1.2,5.4,0c0,0,17.1,8.9,36.6,0c0,0-23.3,8.9-37.7-4.7l-1.2-1.6
					l-1.2,1.6C448.4,220.6,434.8,233.8,409.5,225.3z"/>
				<path class="st65" d="M456.6,200.4c0,0-7,7.4-7,13.6c0,0-2.3-8.6-7-12.8l7,3.5L456.6,200.4z"/>
				<path class="st199" d="M398.3,145.2c0,0-19.1-3.5-28.8,12.8c-9.7,16.3,0,36.9,0,36.9l3.9-2.7l-3.5-9.7
					C370.3,182.9,362.9,150.6,398.3,145.2z"/>
				<path class="st199" d="M500.9,145.2c0,0,19.1-3.5,28.8,12.8c9.7,16.3,0,36.9,0,36.9l-3.9-2.7l3.5-9.7
					C528.9,182.9,536.3,150.6,500.9,145.2z"/>
				<path class="st68" d="M377.6,153.3c0,0-5.4,0.4-10.5-1.9c0,0,2.7,7.4,6.2,8.2l3.5-2.7L377.6,153.3z"/>
				<path class="st68" d="M520.8,153.3c0,0,5.4,0.4,10.5-1.9c0,0-2.7,7.4-6.2,8.2l-3.5-2.7L520.8,153.3z"/>
				<path class="st67" d="M426.7,229.2c-2.3,0-5.1,0-7.8-0.8c-16.7-2.3-17.5-10.9-17.9-11.3c0-0.4,0.4-0.8,0.8-0.8
					c0.4,0,0.8,0.4,0.8,0.8c0,0,1.2,7.4,16.7,9.7c15.9,2.3,23.7-2.7,29.9-7.8c0.4-0.4,0.8-0.4,0.8,0c0.4,0.4,0.4,0.8,0,0.8
					C444.2,224.9,437.5,229.2,426.7,229.2z"/>
				<path class="st31" d="M358.2,105.5L358.2,105.5l-1.6-0.4c-4.3-0.8-7.8-1.2-11.7-3.9c-4.3-2.7-7.4-7.4-8.2-12.1
					c-1.2-5.4,0.8-10.9,4.3-14c5.4-4.7,14.4-5.1,19.8-0.8c5.1,3.5,9.7,10.5,11.7,17.9v0.4c0,0,0,0-0.4,0.4c0,0.4-0.4,0.4-0.4,0.4
					l0,0L358.2,105.5C358.6,105.5,358.2,105.5,358.2,105.5z M351.6,72.8c-3.5,0-7.4,1.2-10.1,3.5c-3.5,3.1-5.1,8.2-4.3,13.2
					c0.8,4.3,3.9,8.6,8.2,11.7c3.5,2.3,7,3.1,11.3,3.5h1.2L371,93c0,0,0,0,0-0.4c0,0,0,0,0-0.4c-1.9-7-6.2-13.6-11.3-17.1
					C358.2,73.6,355.1,72.8,351.6,72.8z"/>
				<path class="st67" d="M472.2,229.2c-10.9,0-17.5-4.3-23.3-8.9c-0.4-0.4-0.4-0.8,0-0.8c0.4-0.4,0.8-0.4,0.8,0
					c6.2,5.1,14,10.5,29.9,7.8c15.6-2.3,16.7-9.7,16.7-9.7c0-0.4,0.4-0.8,0.8-0.8c0.4,0,0.8,0.4,0.8,0.8c0,0.4-1.2,8.6-17.9,11.3
					C477.2,228.8,474.5,229.2,472.2,229.2z"/>
				<path class="st31" d="M540.6,105.5C540.6,105.5,540.2,105.5,540.6,105.5l-14-12.1l0,0l-0.4-0.4c0,0,0-0.4-0.4-0.4v-0.4
					c1.9-7.4,6.6-14,11.7-17.9c5.8-4.3,14.8-3.9,19.8,0.8c3.9,3.1,5.4,8.6,4.3,14c-0.8,4.7-3.9,8.9-8.6,12.1
					c-3.9,2.7-7.4,3.1-11.7,3.9L540.6,105.5L540.6,105.5z M527.4,93l13.2,11.7h1.2c4.3-0.8,7.8-1.2,11.3-3.5c4.3-3.1,7-7,8.2-11.7
					c1.2-5.1-0.8-10.1-4.3-13.2c-5.1-4.3-13.6-4.7-18.7-0.8C533.2,79,528.9,85.6,527.4,93C527,92.3,527,92.6,527.4,93
					C527.4,92.6,527.4,92.6,527.4,93z"/>
				<path class="st67" d="M449.2,220.2c-0.4,0-0.8-0.4-0.8-0.8v-15.2c0-0.4,0.4-0.8,0.8-0.8c0.4,0,0.8,0.4,0.8,0.8v15.2
					C450,220.2,449.6,220.2,449.2,220.2z"/>
				<path class="st67" d="M450,217.9c0,0,0,1.9,1.9,3.1h-0.4l-1.9-0.8v-0.8L450,217.9z"/>
				<path class="st67" d="M448.8,217.9c0,0,0,1.9-1.9,3.1h0.4l1.9-0.8l0.4-0.8L448.8,217.9z"/>
				<path class="st68" d="M438.3,204.7L438.3,204.7l-19.1-2.7c-0.4,0-0.4-0.4-0.4-0.4c0-0.4,0.4-0.4,0.4-0.4l19.1,2.7
					c0.4,0,0.4,0.4,0.4,0.4C438.7,204.3,438.3,204.7,438.3,204.7z"/>
				<path class="st68" d="M420,214.8C419.7,214.8,419.7,214.8,420,214.8c-0.4-0.8-0.4-0.8,0-0.8l17.9-4.3c0.4,0,0.4,0,0.4,0.4
					c0,0.4,0,0.4-0.4,0.4L420,214.8L420,214.8z"/>
				<path class="st68" d="M460.5,204.7C460.1,204.7,460.1,204.7,460.5,204.7c-0.4-0.8-0.4-0.8,0-0.8l19.1-2.7c0.4,0,0.4,0,0.4,0.4
					c0,0.4,0,0.4-0.4,0.4L460.5,204.7L460.5,204.7z"/>
				<path class="st68" d="M478.8,214.8L478.8,214.8l-18.3-4.3c-0.4,0-0.4-0.4-0.4-0.4c0-0.4,0.4-0.4,0.4-0.4l17.9,4.3
					C478.8,214,478.8,214.4,478.8,214.8C479.2,214.8,478.8,214.8,478.8,214.8z"/>
				<path class="st68" d="M385.8,190.7C385.4,190.7,385.4,190.7,385.8,190.7c-6.6-9.7-7-24.1-0.8-33.8c4.7-7.4,12.1-10.9,21-9.3
					c0.4,0,0.8,0.4,0.4,0.8c0,0.4-0.4,0.8-0.8,0.4c-8.2-1.2-15.2,1.9-19.4,8.9c-5.8,8.9-5.4,22.9,0.4,31.9
					C386.6,189.9,386.6,190.3,385.8,190.7C386.2,190.7,385.8,190.7,385.8,190.7z"/>
				<path class="st57" d="M422.8,186.4c0,0-25.7-1.2-49.4,6.2l0.4,1.2C374.1,193.4,399,187.2,422.8,186.4z"/>
				<g>
					<g>
						<path class="st68" d="M371,193.4l-1.6,1.9c2.3-1.2,5.1-1.9,5.1-1.9l-0.4-1.2l0,0l0,0c-18.7-52.1,54.4-63.4,48.2-5.8
							C432.1,125.7,352.8,135.4,371,193.4z"/>
					</g>
				</g>
				<ellipse class="st69" cx="402.1" cy="169.7" rx="9.7" ry="13.2"/>
				<path class="st68" d="M513,190.7C513,190.7,512.6,190.7,513,190.7c-0.8-0.4-0.8-0.8-0.4-1.2c5.8-8.9,6.2-22.9,0.4-31.9
					c-4.3-7-11.3-10.1-19.4-8.9c-0.4,0-0.8-0.4-0.8-0.4c0-0.4,0.4-0.8,0.4-0.8c8.9-1.2,16.3,2.3,21,9.3c5.8,9.3,5.8,23.7-0.4,33.4
					C513.4,190.7,513.4,190.7,513,190.7z"/>
				<path class="st57" d="M475.7,186.4c0,0,25.7-1.2,49.4,6.2l-0.4,1.2C524.7,193.4,499.8,187.2,475.7,186.4z"/>
				<g>
					<g>
						<path class="st57" d="M476.4,186.4c-6.2-57.6,66.9-46.3,48.2,5.8l0,0l0,0l-0.4,1.2c0,0,2.7,0.8,5.1,1.9l-1.6-1.9
							C546.1,135.4,466.7,125.7,476.4,186.4z"/>
					</g>
				</g>
				<ellipse class="st69" cx="496.7" cy="169.7" rx="9.7" ry="13.2"/>
				<circle class="st49" cx="392.8" cy="160.7" r="6.6"/>
				<circle class="st49" cx="488.5" cy="160.7" r="6.6"/>
				<path class="st68" d="M377.3,153.3c0,0-3.1,1.6-7.8-0.8c0,0,3.1,5.4,5.1,5.4L377.3,153.3z"/>
				<path class="st68" d="M521.2,153.3c0,0,3.1,1.6,7.8-0.8c0,0-3.1,5.4-5.1,5.4L521.2,153.3z"/>
				<path class="st31" d="M556.9,119.9c-1.6-1.9-3.1-4.3-4.7-6.2c3.5-0.4,5.8-1.2,5.8-1.2c0.4,0,0.8-0.4,1.2-0.4
					c8.2-3.9,14.4-10.9,17.1-19.4c2.7-7.4,1.9-15.6-1.2-22.9c-6.2-14-22.6-20.6-36.9-19.4c-2.7,0.4-5.4,0.8-8.2,1.6
					c-0.4,0-0.8,0.4-1.2,0.4c-0.4,0.4-1.2,0.4-1.6,0.8c-10.9,4.7-18.7,15.2-19.4,24.9l-7.4-3.1c-8.2-3.1-17.5-4.7-26.4-5.8
					c-9.3-1.2-18.7-1.6-28-1.2c-0.4,0-0.4,0-0.8,0c-1.2,0-2.3,0-3.9,0.4c-8.9,0.8-17.5,1.9-26.4,4.3c-5.8,1.6-11.3,3.5-16.7,5.4l0,0
					l0,0c-2.3,0.8-5.4,2.3-7,3.1c0.8-7.8-3.9-17.1-11.3-23.3l0,0l0,0c-0.4-0.4-0.8-0.8-1.2-0.8s-0.4-0.4-0.4-0.4
					c-0.8-0.4-1.2-0.8-1.9-1.2c-1.2-0.8-2.7-1.6-4.3-2.3c-1.2-0.8-2.7-1.2-4.3-1.6c-1.9-0.8-4.3-1.2-6.2-1.2
					c-14.4-1.6-30.7,5.4-36.9,19.4c-1.9,3.9-2.7,8.6-2.7,13.2c0,0-0.8,10.5,6.6,19.8c1.6,2.3,3.1,3.9,4.3,4.7c1.6,1.6,7,5.4,12.1,7
					c-6.6,8.2-40.1,50.9-22.2,103.5c0,0-0.4-0.8-0.4-2.7c0.8,3.1,1.6,5.8,2.7,8.6c1.9,5.4,4.7,10.5,7.8,15.6
					c21.8,33.1,65,43.9,97.6,47.1c5.1,0.4,10.1,0.8,14.8,0.8c1.2,0,2.3,0,3.9,0c29.2,0,56.8-6.6,80.5-19.1
					c27.2-14.4,43.2-32.3,48.6-54.1C584.6,183.3,577.2,148.3,556.9,119.9z M569,222.9c-21.8,47.8-105,71.6-173.9,55.2
					c-23.7-6.6-47.4-18.3-61.8-40.1c-3.1-4.7-5.8-9.7-7.8-15.2c-13.2-35.8-4.3-77,22.9-107.7c0.8-0.8,1.2-1.6,1.9-2.3
					c0.4,0,0.4,0,0.8,0c3.1,0,6.2-0.4,9.7-1.6c0.4,0,0.4-0.4,0.4-0.8c0-0.4-0.4-0.4-0.8-0.4c-11.7,4.3-24.1,0-31.5-10.9
					c-5.8-8.6-8.6-22.9,1.9-35c6.6-6.6,13.2-10.1,19.1-11.7c0.8-0.4,1.9-0.4,2.7-0.8c9.3-1.6,17.1,1.6,21,3.9
					c11.3,6.2,17.9,18.3,15.6,27.6l0,0l0,0l0,0l0,0c0,0,0,0,0.4,0.4l0,0l0,0l0,0l0,0c0,0,0,0,0.4,0l0,0c3.9-1.9,7.4-3.5,11.3-4.7
					l5.1-1.9c16.7-4.7,34.6-6.6,52.1-6.2c10.5,0.4,21,1.6,31.5,3.5c3.5,0.8,6.6,1.9,10.1,3.1c2.3,0.8,5.1,1.9,7.4,3.1h0.4l0,0l0,0
					l0,0l0,0l0,0l0,0l0,0c-0.8-10.1,7.4-21.4,18.7-26.4c13.2-5.8,28-2.3,40.1,9.7c10.9,12.1,7.8,26.4,2.3,35
					c-7.4,10.9-19.4,15.2-31.5,10.9c-0.4,0-0.8,0-0.8,0.4c0,0.4,0,0.8,0.4,0.8h0.4c2.7,2.7,7.8,2.7,12.1,2.3
					C556.2,121.8,590.8,175.1,569,222.9z"/>
			</g>
			<g>
				<path class="st194" d="M409.5,87.6c0,0-1.6,21,6.6,29.9c0,0-2.3-8.6,2.3-13.2c0,0,10.5,17.9,49,15.2c0,0,3.9-0.4,5.8,1.6
					c1.6,1.9-3.5-8.2-3.5-8.2l2.3-2.3l4.3,3.5c0,0,8.6,4.3,16.3,4.7c0,0-2.3-3.1-3.5-5.8c-1.6-2.7-1.9-10.1-1.9-10.1l1.9-7.4
					l2.3,9.7c0,0,7,7,15.6,7c0,0-6.6-3.9-8.9-8.9c-1.9-5.4-12.8-13.6-12.8-13.6h-32.3L409.5,87.6z"/>
				<path class="st189" d="M492.4,104.3c-1.9-1.6-3.5-3.5-4.7-5.8c-0.8-1.2-1.2-2.7-1.9-3.9V95c0.4,1.6,1.2,3.1,1.6,4.7
					c0.8,1.6,1.2,3.1,1.6,4.7c0,0.4,0.4,1.2,0.4,1.6c0.8,2.7,1.6,5.4,2.3,7.8c0,0.4,0.4,0.8,0.8,1.2c0,0.4,0.4,0.4,0.4,0.8l0.4,0.4
					h-0.8H492c-0.8,0-1.6,0-2.7,0c-1.9,0-3.9,0-6.2-0.4c-5.1-0.4-8.9-1.6-12.8-3.1c-2.7-1.2-5.1-2.7-8.2-5.1c-2.3-1.6-4.7-3.5-7-5.1
					l-1.6-1.2c5.1,6.2,10.5,10.5,17.5,12.8h0.4v0.8H471c-0.4,0-0.4,0-0.8,0s-1.2,0.4-1.6,0.4c-5.1,0.4-9.7-1.6-14.4-5.1
					c-2.3-1.9-4.7-4.3-7-7.4c-0.4-0.8-0.8-1.2-1.2-1.9c0,0,0-0.4-0.4-0.4c0,0,0,0.4,0.4,0.4v0.4c0.8,1.9,1.6,3.9,2.7,5.1
					c1.2,1.2,2.3,2.7,3.5,3.9l0.4,0.4c1.9,1.6,3.9,3.1,6.6,4.3c0.8,0.4,1.9,0.8,2.7,1.2c0.8,0.4,1.9,0.8,2.7,1.2l1.2,0.4h-0.8
					c-0.8,0-1.2,0-1.9,0c-0.8,0-1.2,0-1.9,0s-1.6,0-2.3,0c-1.6,0-2.7,0-4.3-0.4h-0.8c-3.1-0.4-6.2-0.8-9.3-1.6
					c-6.6-1.6-12.4-4.3-17.5-7.8c-1.2-0.8-2.7-1.9-3.9-3.1c-3.5-3.1-5.1-7-5.1-11.7c0-1.2,0.4-2.7,0.8-3.9c0-0.4,0-0.8,0.4-0.8
					c0.4-1.2,0.8-2.7,1.2-3.9l0.4-0.8c0-0.4,0.4-0.4,0.4-0.8c-1.2,1.9-2.3,4.3-3.5,7c-0.8,2.3-1.6,4.7-1.6,7c0,0.4,0,1.2,0,1.6
					s0,0.8,0,1.6c0,0.4,0,0.8,0,1.6c0,0.8,0,1.9,0,2.7c0,1.2,0,2.7,0,3.9c0,0.8,0,1.2,0,1.9c0,0,0,0,0,0.4l0,0v0.4l-1.6-1.6
					c-0.4-0.4-0.8-0.8-1.2-1.6c-2.3-2.7-3.5-6.2-3.9-9.7c-1.2-5.4-0.4-10.5,0.4-14.8c0.8-3.5,1.6-6.2,2.3-8.9
					c1.2-3.1,2.7-5.8,5.1-8.2c1.6-1.9,3.1-3.5,4.7-5.1c2.7-2.7,5.4-3.9,8.9-4.3c1.2,0,2.3,0,3.1,0c0.4,0,0.8,0,1.6,0h0.4
					c0.4,0,0.4,0,0.8,0c0,0,0.4,0,0.4-0.4c0-0.8,0.4-1.2,0.8-1.2l0,0c1.9-1.6,3.9-1.9,5.8-2.3c2.7-0.8,6.2-0.8,9.7-0.8
					c5.1,0.4,8.9,1.2,12.4,2.7c0.8,0.4,1.6,1.2,2.3,1.6c4.3,3.5,7.8,8.2,10.5,14.4c0.8,1.6,1.2,2.7,1.9,4.3c0.4,0.4,0.4,1.2,0.8,1.6
					c-1.6-7.8-4.3-14-9.3-19.1l0,0l0.4-0.4l0,0h0.4c0.4,0,0.8,0,0.8,0c2.7,0.8,5.8,2.3,8.6,4.7c3.1,2.7,5.4,5.8,7.4,10.1
					c1.2,2.7,2.3,5.4,3.1,7.8c0.4,1.2,0.8,2.7,1.2,3.9c0.4,0.8,0.4,1.6,0.8,2.7c0.4,1.2,0.8,1.9,0.8,3.1c0.8,3.1,1.9,6.2,3.1,9.3
					c1.6,3.5,3.5,6.6,6.6,8.9c0,0,0,0,0,0.4l0,0l0.4,0.4h-0.4c-0.4,0-0.4,0-0.8,0c-0.4,0-0.8,0-1.2,0
					C499,108.2,495.5,106.6,492.4,104.3z"/>
				<path class="st200" d="M439.9,89.5c0,0-8.2-13.2-4.7-26.1C435.6,63.5,434,77.9,439.9,89.5z"/>
				<path class="st200" d="M421.2,82.1c-0.4,0.4-0.4,1.2-0.8,1.6c-0.4,1.6-1.2,3.1-1.6,4.7c-0.4,1.6-1.2,3.1-1.2,5.1
					c0,4.7,1.9,8.6,5.1,11.7c1.2,1.2,2.7,2.3,4.3,3.1c0.4,0.4,0.8,0.4,1.2,0.8C423.2,102.4,418.9,93,421.2,82.1z"/>
				<path class="st201" d="M429.8,56.9c-3.5,0.4-6.2,1.9-8.9,4.3c-1.6,1.6-3.1,3.5-4.7,5.1c-1.9,2.7-3.5,5.4-5.1,8.2
					c-1.2,3.1-1.9,5.8-2.7,8.9c-0.8,5.1-1.2,9.7-0.4,14.8c0,0.4,0,0.8,0.4,1.2c-2.7-33.1,25.3-43.2,25.3-43.2
					C432.9,56.9,431.3,56.9,429.8,56.9z"/>
				<path class="st201" d="M456.6,53c0,0,17.1,5.4,23.3,31.1c0,0,1.2,8.2,5.1,13.2c0,0-3.9-21.4-5.1-25.7
					C479.5,71.6,474.1,53,456.6,53z"/>
				<path class="st201" d="M495.5,116.4c0,0-21.8-7.8-29.6-22.2c0,0,12.4,14.4,25.3,17.5L495.5,116.4z"/>
				<g>
					<path class="st200" d="M453.5,106.3c0,0-10.5-8.9-12.4-14c0,0,2.7,6.2,6.6,11.7c0.4,3.9,1.9,8.9,3.5,13.2
						c1.6,0.4,2.7,0.4,4.3,0.4c1.6,0,3.5,0.4,5.1,0.4c1.9,0,5.1,0,7,0c-1.9-0.8-4.3-1.9-6.2-2.7c-2.3-1.2-5.1-1.9-7-3.9
						c-0.4-0.4-0.8-0.8-1.2-1.2V109c0.4,0.4,1.2,1.2,1.9,1.6c4.3,3.5,8.9,5.4,14.4,5.1c0.8,0,1.6-0.4,2.3-0.4l1.2-0.8
						c-3.1-1.2-3.1-0.8-5.8-2.7C463.6,110.5,457.8,108.2,453.5,106.3z"/>
					<path class="st200" d="M492.8,114.4c-0.4-1.2-0.4-1.2-0.4-1.9c-17.1-5.1-26.1-18.7-26.1-18.7c5.1,12.4,15.9,19.4,20.6,22.2
						c1.9,0,3.9,0,5.8,0.4c0.4,0,0.4,0,0.8,0C493.2,115.6,493.2,114.8,492.8,114.4z"/>
				</g>
				<path class="st73" d="M494.3,107c1.6,0.8,3.1,1.6,4.7,2.3c3.5,1.2,7,1.2,11.7,0c-0.4,0-0.4-0.4-0.8-0.4
					c-0.8-0.4-1.6-1.2-2.7-1.6c-2.7-1.9-5.1-4.3-6.2-6.6c-1.9-3.5-3.5-7.4-4.7-11.7v-1.6c-0.4-1.9-1.2-3.9-1.6-6.2
					c-1.2-3.1-2.3-6.2-3.5-8.9c-1.2-2.7-2.7-5.4-5.4-8.6c-0.4-0.4-0.4-0.4-0.8-0.8c-0.8-1.2-1.9-2.3-3.1-3.1
					c-1.9-1.6-3.9-2.3-5.8-3.1c-1.9-0.8-3.5-1.2-5.8-0.8c-0.4,0-0.4,0-0.8,0c-0.8-0.4-1.6-0.8-2.3-1.2c-3.9-1.9-8.2-3.1-13.6-3.5
					c-2.3,0-4.7,0-7.4,0.4c-1.9,0.4-3.9,0.8-6.2,1.2c-1.9,0.4-3.9,1.6-5.1,3.5c0,0.4-0.4,0.4-0.8,0.4c-0.4,0-0.8,0-1.2-0.4
					c-0.8,0-1.2-0.4-1.9-0.4c-3.5,0-6.6,0.8-9.7,2.7c-2.3,1.6-4.3,3.5-6.6,6.2c-2.3,3.1-4.3,5.8-5.4,8.9c-0.8,1.9-1.6,4.3-1.9,6.2
					c-0.8,2.3-1.2,4.7-1.6,7.8c-0.4,2.3-0.4,4.7,0,6.2c0.4,3.5,0.8,6.6,1.9,9.7c2.7,5.4,6.2,9.3,10.9,12.4l0,0
					c-1.2-3.9-1.6-7.8-1.9-11.7c0-0.8,0-1.6,0-2.3V102h0.4c0.4,0,0.4,0,0.4,0.4c0.4,0.4,1.2,1.2,1.6,1.6c1.2,1.2,2.3,2.7,3.9,3.5
					c3.1,2.7,6.6,4.3,9.7,5.8c6.6,3.1,13.2,4.7,20.6,5.1c2.3,0,4.3,0,6.6,0c0.8,0,1.9,0,2.7,0s1.2,0,1.9,0c1.2,0,1.9,0,3.1,0
					c0.8,0,1.2,0,1.9,0c1.9,0,3.9,0.8,5.8,1.9c-0.8-1.2-1.6-1.9-2.7-2.7h-0.4v-0.4l0,0l0,0c0.4,0,0.4,0,0.8-0.4
					c0.4,0,1.2-0.4,1.2-0.8h0.4l0,0c0.8,0,1.2,0,1.9,0.4c1.6,0,2.7,0.4,4.3,0.4c1.2,0,1.9,0,3.1,0h0.4c3.1,0,6.2,0,9.3,0l0,0l0,0
					l0,0c-1.6-1.6-1.9-3.1-2.3-5.1c0-0.4,0-0.8-0.4-1.2c-0.4-0.8-0.4-1.6-0.4-2.7c0-0.4,0-0.8,0-1.2v-0.4v-0.8l0.8,0.4
					c0,0,0.4,0,0.4,0.4C493.5,106.6,493.9,106.6,494.3,107z M492.4,104.3c-1.9-1.6-3.5-3.5-4.7-5.8c-0.8-1.2-1.2-2.7-1.9-3.9V95
					c0.4,1.6,1.2,3.1,1.6,4.7c0.8,1.6,1.2,3.1,1.6,4.7c0,0.4,0.4,1.2,0.4,1.6c0.8,2.7,1.6,5.4,2.3,7.8c0,0.4,0.4,0.8,0.8,1.2
					c0,0.4,0.4,0.4,0.4,0.8l0.4,0.4h-0.8H492c-0.8,0-1.6,0-2.7,0c-1.9,0-3.9,0-6.2-0.4c-5.1-0.4-8.9-1.6-12.8-3.1
					c-2.7-1.2-5.1-2.7-8.2-5.1c-2.3-1.6-4.7-3.5-7-5.1l-1.6-1.2c5.1,6.2,10.5,10.5,17.5,12.8h0.4v0.8H471c-0.4,0-0.4,0-0.8,0
					s-1.2,0.4-1.6,0.4c-5.1,0.4-9.7-1.6-14.4-5.1c-2.3-1.9-4.7-4.3-7-7.4c-0.4-0.8-0.8-1.2-1.2-1.9c0,0,0-0.4-0.4-0.4
					c0,0,0,0.4,0.4,0.4v0.4c0.8,1.9,1.6,3.9,2.7,5.1c1.2,1.2,2.3,2.7,3.5,3.9l0.4,0.4c1.9,1.6,3.9,3.1,6.6,4.3
					c0.8,0.4,1.9,0.8,2.7,1.2c0.8,0.4,1.9,0.8,2.7,1.2l1.2,0.4h-0.8c-0.8,0-1.2,0-1.9,0c-0.8,0-1.2,0-1.9,0s-1.6,0-2.3,0
					c-1.6,0-2.7,0-4.3-0.4h-0.8c-3.1-0.4-6.2-0.8-9.3-1.6c-6.6-1.6-12.4-4.3-17.5-7.8c-1.2-0.8-2.7-1.9-3.9-3.1
					c-3.5-3.1-5.1-7-5.1-11.7c0-1.2,0.4-2.7,0.8-3.9c0-0.4,0-0.8,0.4-0.8c0.4-1.2,0.8-2.7,1.2-3.9l0.4-0.8c0-0.4,0.4-0.4,0.4-0.8
					c-1.2,1.9-2.3,4.3-3.5,7c-0.8,2.3-1.6,4.7-1.6,7c0,0.4,0,1.2,0,1.6s0,0.8,0,1.6c0,0.4,0,0.8,0,1.6c0,0.8,0,1.9,0,2.7
					c0,1.2,0,2.7,0,3.9c0,0.8,0,1.2,0,1.9c0,0,0,0,0,0.4l0,0v0.4l-1.6-1.6c-0.4-0.4-0.8-0.8-1.2-1.6c-2.3-2.7-3.5-6.2-3.9-9.7
					c-1.2-5.4-0.4-10.5,0.4-14.8c0.8-3.5,1.6-6.2,2.3-8.9c1.2-3.1,2.7-5.8,5.1-8.2c1.6-1.9,3.1-3.5,4.7-5.1c2.7-2.7,5.4-3.9,8.9-4.3
					c1.2,0,2.3,0,3.1,0c0.4,0,0.8,0,1.6,0h0.4c0.4,0,0.4,0,0.8,0c0,0,0.4,0,0.4-0.4c0-0.8,0.4-1.2,0.8-1.2l0,0
					c1.9-1.6,3.9-1.9,5.8-2.3c2.7-0.8,6.2-0.8,9.7-0.8c5.1,0.4,8.9,1.2,12.4,2.7c0.8,0.4,1.6,1.2,2.3,1.6c4.3,3.5,7.8,8.2,10.5,14.4
					c0.8,1.6,1.2,2.7,1.9,4.3c0.4,0.4,0.4,1.2,0.8,1.6c-1.6-7.8-4.3-14-9.3-19.1l0,0l0.4-0.4l0,0h0.4c0.4,0,0.8,0,0.8,0
					c2.7,0.8,5.8,2.3,8.6,4.7c3.1,2.7,5.4,5.8,7.4,10.1c1.2,2.7,2.3,5.4,3.1,7.8c0.4,1.2,0.8,2.7,1.2,3.9c0.4,0.8,0.4,1.6,0.8,2.7
					c0.4,1.2,0.8,1.9,0.8,3.1c0.8,3.1,1.9,6.2,3.1,9.3c1.6,3.5,3.5,6.6,6.6,8.9c0,0,0,0,0,0.4l0,0l0.4,0.4h-0.4c-0.4,0-0.4,0-0.8,0
					c-0.4,0-0.8,0-1.2,0C499,108.2,495.5,106.6,492.4,104.3z"/>
			</g>
		</g>
		<g>
			<linearGradient id="SVGID_11_" gradientUnits="userSpaceOnUse" x1="244.9934" y1="190.4424" x2="570.1151" y2="386.8309">
				<stop  offset="0" style="stop-color:#F2ED56"/>
				<stop  offset="1" style="stop-color:#B6D88B"/>
			</linearGradient>
			<path class="st17" d="M376.9,280.9c14.8,4.3,32.3,7.4,53.3,9.3c5.4,0.4,10.9,0.8,16.3,1.2c-1.6,1.2-4.7,3.5-8.9,4.7
				c-1.9,0.4-7.8,0.4-15.6,0l0,0c-1.9,0-3.9-0.4-5.8-0.4c-5.8-0.4-12.1-0.8-17.9-1.6c-16.7-1.9-23.3-4.3-25.7-5.8h0.4
				C372.2,284,375.7,281.7,376.9,280.9z"/>
			<linearGradient id="SVGID_12_" gradientUnits="userSpaceOnUse" x1="229.6964" y1="215.766" x2="554.8185" y2="412.1545">
				<stop  offset="0" style="stop-color:#F2ED56"/>
				<stop  offset="1" style="stop-color:#B6D88B"/>
			</linearGradient>
			<path class="st18" d="M422,359.8C422,359.8,421.6,359.8,422,359.8c-2.7-0.8-52.5-12.4-85.2-24.5c9.7-20.2,31.1-40.1,35-43.6
				c8.6,2.7,60.3,7.4,66.5,5.4c4.3-1.2,7.4-3.5,9.3-4.7C444.5,306.9,424.3,354.4,422,359.8z"/>
			<linearGradient id="SVGID_13_" gradientUnits="userSpaceOnUse" x1="267.1128" y1="153.8235" x2="592.2346" y2="350.212">
				<stop  offset="0" style="stop-color:#F2ED56"/>
				<stop  offset="1" style="stop-color:#B6D88B"/>
			</linearGradient>
			<path class="st19" d="M466.7,290.2L466.7,290.2c21.8-1.9,39.7-5.1,54.4-9.3c1.6,0.8,4.7,3.1,3.9,7.4h0.4
				c-2.3,1.6-8.2,3.9-22.9,5.4c-17.5,1.9-38.9,3.1-42.4,1.9c-4.3-1.2-7.4-3.1-8.9-4.7c5.1,0,10.1-0.4,14.8-0.8l0,0
				C465.9,290.2,466.3,290.2,466.7,290.2z"/>
			<linearGradient id="SVGID_14_" gradientUnits="userSpaceOnUse" x1="253.5247" y1="176.3184" x2="578.6469" y2="372.7069">
				<stop  offset="0" style="stop-color:#F2ED56"/>
				<stop  offset="1" style="stop-color:#B6D88B"/>
			</linearGradient>
			<path class="st20" d="M450.4,292.6c1.9,1.6,5.1,3.5,9.3,4.7c3.5,1.2,20.6,0,36.2-1.2c8.2-0.8,15.9-1.6,21.4-2.3
				c5.1-0.8,7.4-1.2,8.9-1.6c3.9,3.5,25.3,23.3,35.4,43.2c-33.8,12.4-85.2,24.5-85.2,24.5C473.7,354.4,453.1,306.9,450.4,292.6z"/>
			<linearGradient id="SVGID_15_" gradientUnits="userSpaceOnUse" x1="314.2728" y1="75.7496" x2="639.3946" y2="272.1382">
				<stop  offset="0" style="stop-color:#F2ED56"/>
				<stop  offset="1" style="stop-color:#B6D88B"/>
			</linearGradient>
			<path class="st21" d="M556.6,114.8c0-0.4,0-0.4,0-0.8c0-0.4,0.4-0.4,0.8-0.4c5.4-0.4,10.5-2.7,14.4-7.4
				c5.4-6.2,8.2-15.2,7.4-25.3c-0.4-8.9-5.1-17.5-12.8-23.3c-8.9-7-20.6-9.7-32.7-7.8c-22.6,3.9-26.8,22.9-26.8,22.9
				c0,0.4,0,0.4-0.4,0.4c0,0-0.4,0-0.8,0s-28.8-8.6-57.2-8.6H448c-28.4,0-56.8,8.6-57.2,8.6s-0.4,0-0.8,0l-0.4-0.4
				c0,0-4.3-19.1-26.8-22.9c-11.7-1.9-23.7,0.8-32.7,7.8c-7.8,5.8-12.1,14.4-12.8,23.3c-0.8,10.1,1.9,19.4,7.4,25.3
				c3.9,4.3,8.9,7,14.4,7.4c0.4,0,0.4,0,0.8,0.4c0,0.4,0,0.4,0,0.8c1.2,0.8-38.1,63.8-29.2,121.7c0.4,0.8,2.7,5.4,8.2,10.1
				c0.4,0.4,38.9,39.7,127.2,42.8c-0.4-0.4-0.8-0.8-1.6-1.2l0,0c-10.1-7-14.4-7.4-14.4-7.4c-9.3-1.6-22.6-8.9-22.6-8.9l0,0
				c-32.7-15.6-63-47.8-65.7-68.1c-5.8-45.5,9.3-75.1,45.5-87.5c5.4-1.9,10.9-3.5,17.1-4.7c15.2-3.1,29.9-4.7,44.3-4.7
				c0.8,0,1.2,0,1.9,0c21,0,40.8,3.1,58.7,9.3c36.2,12.4,51.3,41.6,45.5,87.5c-2.7,20.2-33.1,52.5-65.7,68.1l0,0
				c0,0-12.8,7.4-22.6,8.9c0,0-4.3,0.4-14.4,7.4l0,0c-0.4,0.4-0.8,0.8-1.6,1.2c88.3-3.5,126.4-42.4,126.8-42.8
				c5.8-4.7,8.2-9.3,8.6-10.1C596.2,178.6,556.9,115.6,556.6,114.8z"/>
			<ellipse class="st79" cx="453.1" cy="77.1" rx="1.2" ry="4.3"/>
			<circle class="st80" cx="544.1" cy="82.1" r="15.2"/>
			<ellipse class="st79" cx="444.9" cy="77.1" rx="1.2" ry="4.3"/>
			<circle class="st80" cx="353.9" cy="82.1" r="15.2"/>
			<path class="st79" d="M499.4,89.5c-0.4,0-5.1-2.7-16.7,3.5c-11.3,6.2-18.7,5.1-22.6,3.1c-7.4-3.5-14.8-3.5-22.2,0
				c-4.3,1.9-11.7,3.1-22.6-3.1c-11.7-6.2-16.3-3.5-16.7-3.5c-0.4,0.4-0.4,0.8-0.4,1.2c0.4,0.4,0.8,0.4,1.2,0.4
				c0,0,4.7-2.3,15.2,3.5c11.7,6.6,19.4,5.4,24.1,3.1c7-3.5,13.6-3.5,21,0c1.9,1.2,4.7,1.9,8.2,1.9c4.3,0,9.7-1.2,15.9-5.1
				c10.5-5.8,15.2-3.5,15.2-3.5c0.4,0.4,0.8,0,1.2-0.4C500.2,90.3,499.8,89.9,499.4,89.5z"/>
			<path class="st33" d="M591.9,216.7c-0.8-50.6-25.3-92.6-30.3-100.7l0,0c1.9-0.8,3.9-1.6,5.8-2.7c1.2-0.8,2.3-1.6,3.5-2.3
				c12.4-9.7,14.8-28.8,8.6-42.8c-3.1-7-8.6-12.4-15.6-16.3c-7-3.9-15.2-5.4-23.3-5.4c-26.1,0-33.4,19.4-35,24.1
				c-6.2-1.9-30.7-8.6-56.4-8.6c-25.3,0-49.4,6.2-56.4,8.2c-1.6-4.7-9.3-23.7-35-23.7c-8.2,0-16.3,1.6-23.3,5.4
				c-7,3.9-12.1,8.9-15.6,16.3c-6.2,14-4.3,32.7,8.6,42.8c1.2,0.8,2.3,1.6,3.5,2.3c1.9,1.2,3.9,1.9,5.8,2.7l0,0
				c-5.1,8.2-29.6,50.2-30.3,100.7c0,0-1.2,17.1,1.9,21.8c0,0,13.2,25.7,65.7,41.6c0,0,0,0,0,0.4l-1.6,0.8l-1.9,3.1v3.1l0,0
				c-3.1,2.7-21.8,18.7-39.7,48.6c0,0.4,0,0.4,0,0.8c0,0.4,0.4,0.4,0.4,0.4c0.8,0.4,63.4,21.8,91,24.5l0,0c0.4,0,0.8,0,0.8-0.4
				c0.8-2.3,21.8-50.6,25.7-66.9c3.9,16.7,24.9,64.6,25.7,66.9c0,0.4,0.4,0.4,0.8,0.4l0,0c27.6-2.7,90.2-24.5,91-24.5
				c0.4,0,0.4-0.4,0.4-0.4c0-0.4,0-0.4,0-0.8c-17.9-29.9-35.8-45.1-38.9-47.4c0.8-4.3-1.2-7-2.7-8.6c51.7-15.6,64.6-41.2,64.6-41.2
				C593.1,233.8,591.9,216.7,591.9,216.7z M376.9,280.9c14.8,4.3,32.3,7.4,53.3,9.3c5.4,0.4,10.9,0.8,16.3,1.2
				c-1.6,1.2-4.7,3.5-8.9,4.7c-1.9,0.4-7.8,0.4-15.6,0l0,0c-1.9,0-3.9-0.4-5.8-0.4c-5.8-0.4-12.1-0.8-17.9-1.6
				c-16.7-1.9-23.3-4.3-25.7-5.8h0.4C372.2,284,375.7,281.7,376.9,280.9z M422,359.8C422,359.8,421.6,359.8,422,359.8
				c-2.7-0.8-52.5-12.4-85.2-24.5c9.7-20.2,31.1-40.1,35-43.6c8.6,2.7,60.3,7.4,66.5,5.4c4.3-1.2,7.4-3.5,9.3-4.7
				C444.5,306.9,424.3,354.4,422,359.8z M444.9,286.7c-4.7-3.5-9.7-7.4-15.2-8.6c-38.9-8.2-82.8-50.2-86-74.3
				c-2.3-17.5-1.2-32.7,2.7-45.1v0.8c8.9-29.2,42.4-41.2,60.7-45.9c14.4-2.7,28.4-4.3,42-4.3c10.5,0,20.6,0.8,30.7,1.9
				c9.7,1.6,59.1,11.3,71.2,47.4c4.3,12.8,5.1,28,2.7,45.5c-3.1,24.1-47.1,66.1-85.6,74.3c-5.4,1.2-10.5,5.1-15.2,8.6
				c-1.6,1.2-2.7,1.9-3.9,3.1C447.7,288.7,446.5,287.9,444.9,286.7z M466.7,290.2L466.7,290.2c21.8-1.9,39.7-5.1,54.4-9.3
				c1.6,0.8,4.7,3.1,3.9,7.4h0.4c-2.3,1.6-8.2,3.9-22.9,5.4c-17.5,1.9-38.9,3.1-42.4,1.9c-4.3-1.2-7.4-3.1-8.9-4.7
				c5.1,0,10.1-0.4,14.8-0.8l0,0C465.9,290.2,466.3,290.2,466.7,290.2z M450.4,292.6c1.9,1.6,5.1,3.5,9.3,4.7
				c3.5,1.2,20.6,0,36.2-1.2c8.2-0.8,15.9-1.6,21.4-2.3c5.1-0.8,7.4-1.2,8.9-1.6c3.9,3.5,25.3,23.3,35.4,43.2
				c-33.8,12.4-85.2,24.5-85.2,24.5C473.7,354.4,453.1,306.9,450.4,292.6z M586.9,236.5c-0.4,0.8-2.7,5.4-8.6,10.1
				c-0.4,0.4-38.5,39.3-126.8,42.8c0.4-0.4,0.8-0.8,1.6-1.2l0,0c10.1-7,14.4-7.4,14.4-7.4c9.3-1.6,22.6-8.9,22.6-8.9l0,0
				c32.7-15.6,63-47.8,65.7-68.1c5.8-45.5-9.3-75.1-45.5-87.5c-17.9-6.2-37.7-9.3-58.7-9.3c-0.8,0-1.2,0-1.9,0
				c-14.4,0-29.2,1.6-44.3,4.7c-6.2,1.2-12.1,2.7-17.1,4.7c-36.2,12.4-51.3,41.6-45.5,87.5c2.7,20.2,33.1,52.5,65.7,68.1l0,0
				c0,0,12.8,7.4,22.6,8.9c0,0,4.3,0.4,14.4,7.4l0,0c0.4,0.4,0.8,0.8,1.6,1.2c-88.3-3.5-126.4-42.4-127.2-42.8
				c-5.8-4.7-8.2-9.3-8.2-10.1c-9.3-58.3,29.9-121.3,30.3-121.7c0-0.4,0-0.4,0-0.8c0-0.4-0.4-0.4-0.8-0.4
				c-5.4-0.4-10.5-2.7-14.4-7.4c-5.4-6.2-8.2-15.2-7.4-25.3c0.4-8.9,5.1-17.5,12.8-23.3c8.2-7.4,20.2-10.1,31.9-8.2
				c22.6,3.9,26.8,22.9,26.8,22.9c0,0.4,0,0.4,0.4,0.4c0,0,0.4,0,0.8,0s28.8-8.6,57.2-8.6h0.4c28.4,0,56.8,8.6,57.2,8.6
				c0.4,0,0.4,0,0.8,0l0.4-0.4c0,0,4.3-19.1,26.8-22.9c11.7-1.9,23.7,0.8,32.7,7.8c7.8,5.8,12.1,14.4,12.8,23.3
				c0.8,10.1-1.9,19.4-7.4,25.3c-3.9,4.3-8.9,7-14.4,7.4c-0.4,0-0.4,0-0.8,0.4c0,0.4,0,0.4,0,0.8
				C556.9,115.6,596.2,178.6,586.9,236.5z"/>
			<linearGradient id="SVGID_16_" gradientUnits="userSpaceOnUse" x1="497.7171" y1="211.9175" x2="589.4532" y2="267.3306">
				<stop  offset="0" style="stop-color:#F1EF85"/>
				<stop  offset="1" style="stop-color:#B6D88B"/>
			</linearGradient>
			<path style="opacity:0.8;fill:url(#SVGID_16_);enable-background:new    ;" d="M578.7,246.7c5.8-4.7,8.2-9.3,8.6-10.1
				c4.7-29.6-3.1-60.3-12.1-83.6c4.7,31.9,6.6,93.3-41.6,107c-15.9,4.7-28.8,7.8-39.3,10.1c-1.6,0.8-3.1,1.6-4.3,2.3l0,0
				c0,0-12.8,7.4-22.6,8.9c0,0-4.3,0.4-14.4,7.4l0,0c-0.4,0.4-0.8,0.8-1.6,1.2C540.2,286.3,578.3,247,578.7,246.7z"/>
			<linearGradient id="SVGID_17_" gradientUnits="userSpaceOnUse" x1="324.3935" y1="233.9619" x2="460.9106" y2="316.4245">
				<stop  offset="0" style="stop-color:#F1EF85"/>
				<stop  offset="1" style="stop-color:#B6D88B"/>
			</linearGradient>
			<path style="opacity:0.5;fill:url(#SVGID_17_);enable-background:new    ;" d="M444.9,288.7L444.9,288.7
				c-10.1-7-14.4-7.4-14.4-7.4c-4.3-0.8-9.3-2.7-13.6-4.7c-2.3,0-4.7,0-7-0.4c-14.8-1.2-65.3-20.2-91.4-29.9c0.4,0,0.4,0.4,0.8,0.4
				c0.4,0.4,38.9,39.7,127.2,42.8C445.7,289.4,445.3,289.1,444.9,288.7z"/>
			<linearGradient id="SVGID_18_" gradientUnits="userSpaceOnUse" x1="506.2167" y1="284.1361" x2="525.2772" y2="295.6495">
				<stop  offset="0" style="stop-color:#F1EF85"/>
				<stop  offset="1" style="stop-color:#B6D88B"/>
			</linearGradient>
			<path style="opacity:0.8;fill:url(#SVGID_18_);enable-background:new    ;" d="M525.4,288.3L525.4,288.3c0.4-4.3-2.7-6.6-4.3-7.4
				c-2.7,0.8-5.4,1.6-8.2,1.9c-1.2,1.6-3.1,3.5-6.6,5.4c-4.7,2.3-5.4,4.3-4.7,5.4c0.4,0,0.8,0,0.8,0
				C517.3,292.2,523.1,289.8,525.4,288.3z"/>
			<linearGradient id="SVGID_19_" gradientUnits="userSpaceOnUse" x1="384.6748" y1="228.6985" x2="578.6796" y2="345.8864">
				<stop  offset="0" style="stop-color:#F1EF85"/>
				<stop  offset="1" style="stop-color:#B6D88B"/>
			</linearGradient>
			<path style="opacity:0.8;fill:url(#SVGID_19_);enable-background:new    ;" d="M525.8,291.8c-1.6,0.4-3.9,1.2-8.9,1.6
				c-3.9,0.4-8.2,1.2-13.2,1.6c3.5,1.2,10.1,1.2,10.1,1.2s15.6,22.2,22.9,46.7c8.6-2.7,17.1-5.4,24.5-8.2
				C551.5,315.1,529.7,295.3,525.8,291.8z"/>
			<linearGradient id="SVGID_20_" gradientUnits="userSpaceOnUse" x1="277.4722" y1="212.2729" x2="536.7017" y2="368.8595">
				<stop  offset="0" style="stop-color:#F1EF85"/>
				<stop  offset="1" style="stop-color:#B6D88B"/>
			</linearGradient>
			<path style="opacity:0.5;fill:url(#SVGID_20_);enable-background:new    ;" d="M443.8,305.4c1.9-5.4,3.1-9.7,3.9-12.8
				c-1.9,1.6-5.1,3.5-9.3,4.7c-6.2,1.9-58-2.3-66.5-5.4c0,0,38.1,13.6,48.6,13.6C427.4,305.4,437.5,305.4,443.8,305.4z"/>
			<linearGradient id="SVGID_21_" gradientUnits="userSpaceOnUse" x1="314.1612" y1="225.3052" x2="527.6208" y2="354.2445">
				<stop  offset="0" style="stop-color:#F1EF85"/>
				<stop  offset="1" style="stop-color:#B6D88B"/>
			</linearGradient>
			<path style="opacity:0.5;fill:url(#SVGID_21_);enable-background:new    ;" d="M430.2,290.2c-11.3-0.8-21.8-2.3-31.1-4.3l7.4,8.9
				c3.5,0.4,6.6,0.4,9.7,0.8c1.9,0,3.9,0.4,5.8,0.4l0,0c7.8,0.4,14,0.4,15.6,0c4.3-1.2,7.4-3.1,8.9-4.7
				C441,291,435.6,290.6,430.2,290.2z"/>
			<linearGradient id="SVGID_22_" gradientUnits="userSpaceOnUse" x1="565.0099" y1="95.2959" x2="577.125" y2="102.6136">
				<stop  offset="0" style="stop-color:#F1EF85"/>
				<stop  offset="1" style="stop-color:#B6D88B"/>
			</linearGradient>
			<path style="opacity:0.5;fill:url(#SVGID_22_);enable-background:new    ;" d="M556.9,113.6L556.9,113.6
				c5.8-0.4,10.9-2.7,14.8-7.4c5.4-6.2,8.2-15.2,7.4-25.3v-0.4c-1.2,11.3-6.2,26.8-24.1,31.5L556.9,113.6z"/>
			<path class="st88" d="M331.4,57.3c-7.8,5.8-12.1,14.4-12.8,23.3c-0.8,10.1,1.9,19.4,7.4,25.3C305.7,53,364,49.5,364,49.5
				C352.4,47.5,340.3,50.3,331.4,57.3z"/>
			<path class="st88" d="M341.5,114.8c-0.4,0.8-39.7,63.8-30.7,121.7c0.4,0.8,2.7,5.4,8.2,10.1c0,0,2.3,2.3,7.4,6.2
				C297.1,203.5,341.5,114.8,341.5,114.8z"/>
			<path class="st88" d="M336.4,335.3c2.7,0.8,5.4,1.9,8.2,2.7c7.8-21,22.2-40.1,26.1-44.7c0.8-0.8,1.2-1.2,1.2-1.2
				C367.9,295.3,346.5,315.1,336.4,335.3z"/>
		</g>
	</g>
</g>
</svg>
