<?xml version="1.0" encoding="utf-8"?>
<!-- Generator: Adobe Illustrator 21.0.0, SVG Export Plug-In . SVG Version: 6.00 Build 0)  -->
<svg version="1.1" id="圖層_1" xmlns="http://www.w3.org/2000/svg" xmlns:xlink="http://www.w3.org/1999/xlink" x="0px" y="0px"
	 viewBox="0 0 822.9 601.4" style="enable-background:new 0 0 822.9 601.4;" xml:space="preserve">
<style type="text/css">
	.st0{fill:url(#SVGID_1_);}
	.st1{fill:#D59543;}
	.st2{fill:#AB6C21;}
	.st3{opacity:0.6;fill:#D59543;enable-background:new    ;}
	.st4{fill:url(#SVGID_2_);}
	.st5{fill:url(#SVGID_3_);}
	.st6{fill:#E2BF40;}
	.st7{fill:#AC6D21;}
	.st8{opacity:0.6;fill:#E2BF40;enable-background:new    ;}
	.st9{fill:url(#SVGID_4_);}
	.st10{fill:url(#SVGID_5_);}
	.st11{opacity:0.6;}
	.st12{fill:url(#SVGID_6_);}
	.st13{fill:#FCE4B4;}
	.st14{opacity:0.5;fill:#DA9E36;enable-background:new    ;}
	.st15{fill:url(#SVGID_7_);}
	.st16{fill:url(#SVGID_8_);}
	.st17{fill:url(#SVGID_9_);}
	.st18{opacity:0.4;fill:#C49358;enable-background:new    ;}
	.st19{opacity:0.5;}
	.st20{fill:url(#SVGID_10_);}
	.st21{fill:url(#SVGID_11_);}
	.st22{fill:url(#SVGID_12_);}
	.st23{fill:url(#SVGID_13_);}
	.st24{fill:url(#SVGID_14_);}
	.st25{fill:url(#SVGID_15_);}
	.st26{fill:#7D5223;}
	.st27{fill:url(#SVGID_16_);}
	.st28{opacity:0.5;fill:url(#SVGID_17_);enable-background:new    ;}
	.st29{fill:#CC7C5C;}
	.st30{fill:url(#SVGID_18_);}
	.st31{fill:url(#SVGID_19_);}
	.st32{fill:#D69644;}
	.st33{fill:url(#SVGID_20_);}
	.st34{fill:url(#SVGID_21_);}
	.st35{fill:url(#SVGID_22_);}
	.st36{fill:url(#SVGID_23_);}
	.st37{fill:url(#SVGID_24_);}
	.st38{fill:url(#SVGID_25_);}
	.st39{fill:url(#SVGID_26_);}
	.st40{fill:url(#SVGID_27_);}
	.st41{fill:url(#SVGID_28_);}
	.st42{fill:url(#SVGID_29_);}
	.st43{fill:url(#SVGID_30_);}
	.st44{opacity:0.5;fill:url(#SVGID_31_);enable-background:new    ;}
	.st45{fill:url(#SVGID_32_);}
	.st46{fill:#CE9245;}
	.st47{fill:#A66A22;}
	.st48{opacity:0.6;fill:#CE9245;enable-background:new    ;}
	.st49{fill:url(#SVGID_33_);}
	.st50{fill:url(#SVGID_34_);}
	.st51{fill:url(#SVGID_35_);}
	.st52{fill:url(#SVGID_36_);}
	.st53{fill:#898989;}
	.st54{fill:#C9CACA;}
	.st55{fill:url(#SVGID_37_);}
	.st56{fill:url(#SVGID_38_);}
	.st57{fill:#9F7433;}
	.st58{fill:#746766;}
	.st59{fill:#2F2A28;}
	.st60{opacity:0.5;fill:#2F2A28;enable-background:new    ;}
	.st61{fill:#865C25;}
	.st62{fill:#755325;}
	.st63{fill:none;stroke:#746766;stroke-width:0.8163;stroke-linecap:round;stroke-miterlimit:10;}
	.st64{fill:url(#SVGID_39_);}
	.st65{fill:url(#SVGID_40_);}
	.st66{fill:url(#SVGID_41_);}
	.st67{fill:url(#SVGID_42_);}
	.st68{fill:url(#SVGID_43_);}
	.st69{fill:url(#SVGID_44_);}
	.st70{fill:url(#SVGID_45_);}
	.st71{fill:url(#SVGID_46_);}
	.st72{fill:url(#SVGID_47_);}
	.st73{opacity:0.8;}
	.st74{fill:url(#SVGID_48_);}
	.st75{fill:url(#SVGID_49_);}
	.st76{fill:url(#SVGID_50_);}
	.st77{fill:url(#SVGID_51_);}
	.st78{fill:url(#SVGID_52_);}
	.st79{fill:url(#SVGID_53_);}
	.st80{fill:url(#SVGID_54_);}
	.st81{fill:#3C3A39;}
	.st82{fill:url(#SVGID_55_);}
	.st83{fill:url(#SVGID_56_);}
	.st84{fill:url(#SVGID_57_);}
	.st85{fill:#532817;}
	.st86{fill:#48210E;}
	.st87{fill:url(#SVGID_58_);}
	.st88{fill:url(#SVGID_59_);}
	.st89{fill:url(#SVGID_60_);}
	.st90{fill:url(#SVGID_61_);}
	.st91{fill:url(#SVGID_62_);}
	.st92{fill:url(#SVGID_63_);}
	.st93{fill:url(#SVGID_64_);}
	.st94{fill:url(#SVGID_65_);}
	.st95{fill:url(#SVGID_66_);}
	.st96{fill:url(#SVGID_67_);}
	.st97{fill:url(#SVGID_68_);}
	.st98{fill:url(#SVGID_69_);}
	.st99{fill:url(#SVGID_70_);}
	.st100{fill:url(#SVGID_71_);}
	.st101{fill:url(#SVGID_72_);}
	.st102{fill:url(#SVGID_73_);}
	.st103{fill:#A46723;}
	.st104{fill:url(#SVGID_74_);}
	.st105{fill:url(#SVGID_75_);}
	.st106{fill:url(#SVGID_76_);}
	.st107{fill:url(#SVGID_77_);}
	.st108{fill:url(#SVGID_78_);}
	.st109{fill:url(#SVGID_79_);}
	.st110{fill:url(#SVGID_80_);}
	.st111{fill:url(#SVGID_81_);}
	.st112{fill:url(#SVGID_82_);}
	.st113{fill:url(#SVGID_83_);}
	.st114{fill:url(#SVGID_84_);}
	.st115{fill:url(#SVGID_85_);}
	.st116{fill:url(#SVGID_86_);}
	.st117{fill:url(#SVGID_87_);}
	.st118{fill:url(#SVGID_88_);}
	.st119{fill:url(#SVGID_89_);}
	.st120{fill:url(#SVGID_90_);}
	.st121{fill:url(#SVGID_91_);}
	.st122{fill:url(#SVGID_92_);}
	.st123{fill:url(#SVGID_93_);}
	.st124{fill:url(#SVGID_94_);}
	.st125{fill:url(#SVGID_95_);}
	.st126{fill:url(#SVGID_96_);}
	.st127{fill:url(#SVGID_97_);}
	.st128{fill:url(#SVGID_98_);}
	.st129{fill:url(#SVGID_99_);}
	.st130{fill:url(#SVGID_100_);}
	.st131{fill:url(#SVGID_101_);}
	.st132{fill:url(#SVGID_102_);}
	.st133{fill:url(#SVGID_103_);}
	.st134{fill:url(#SVGID_104_);}
	.st135{fill:url(#SVGID_105_);}
	.st136{fill:url(#SVGID_106_);}
	.st137{fill:url(#SVGID_107_);}
	.st138{fill:url(#SVGID_108_);}
	.st139{fill:url(#SVGID_109_);}
	.st140{fill:url(#SVGID_110_);}
	.st141{fill:url(#SVGID_111_);}
	.st142{fill:url(#SVGID_112_);}
	.st143{fill:url(#SVGID_113_);}
	.st144{fill:url(#SVGID_114_);}
	.st145{fill:url(#SVGID_115_);}
	.st146{fill:url(#SVGID_116_);}
	.st147{fill:url(#SVGID_117_);}
	.st148{fill:url(#SVGID_118_);}
	.st149{fill:url(#SVGID_119_);}
	.st150{fill:url(#SVGID_120_);}
	.st151{fill:url(#SVGID_121_);}
	.st152{fill:url(#SVGID_122_);}
	.st153{fill:url(#SVGID_123_);}
	.st154{fill:url(#SVGID_124_);}
	.st155{fill:url(#SVGID_125_);}
	.st156{fill:url(#SVGID_126_);}
	.st157{fill:url(#SVGID_127_);}
	.st158{fill:url(#SVGID_128_);}
	.st159{fill:url(#SVGID_129_);}
	.st160{fill:url(#SVGID_130_);}
	.st161{fill:url(#SVGID_131_);}
	.st162{fill:url(#SVGID_132_);}
	.st163{fill:url(#SVGID_133_);}
	.st164{fill:url(#SVGID_134_);}
	.st165{fill:url(#SVGID_135_);}
	.st166{fill:url(#SVGID_136_);}
	.st167{fill:url(#SVGID_137_);}
	.st168{fill:url(#SVGID_138_);}
	.st169{fill:url(#SVGID_139_);}
	.st170{fill:url(#SVGID_140_);}
	.st171{fill:url(#SVGID_141_);}
	.st172{fill:url(#SVGID_142_);}
	.st173{fill:url(#SVGID_143_);}
	.st174{fill:url(#SVGID_144_);}
	.st175{fill:url(#SVGID_145_);}
	.st176{fill:url(#SVGID_146_);}
	.st177{fill:url(#SVGID_147_);}
	.st178{fill:url(#SVGID_148_);}
	.st179{fill:url(#SVGID_149_);}
	.st180{fill:url(#SVGID_150_);}
	.st181{fill:url(#SVGID_151_);}
	.st182{fill:url(#SVGID_152_);}
	.st183{fill:url(#SVGID_153_);}
	.st184{fill:url(#SVGID_154_);}
	.st185{fill:url(#SVGID_155_);}
	.st186{fill:url(#SVGID_156_);}
	.st187{fill:#BED26B;}
	.st188{fill:#FFFFFF;}
	.st189{fill:#F3E4A2;}
	.st190{fill:#8EA63A;}
	.st191{fill:none;stroke:#BED26B;stroke-width:1.0883;stroke-miterlimit:10;}
	.st192{opacity:0.6;fill:#DCCFB8;enable-background:new    ;}
	.st193{fill:url(#SVGID_157_);}
	.st194{fill:url(#SVGID_158_);}
	.st195{fill:#888888;}
	.st196{fill:#456430;}
	.st197{fill:#709846;}
	.st198{fill:url(#SVGID_159_);}
	.st199{fill:url(#SVGID_160_);}
	.st200{fill:#C8C9CA;}
	.st201{fill:url(#SVGID_161_);}
	.st202{opacity:0.6;fill:#709846;enable-background:new    ;}
	.st203{fill:#211714;}
	.st204{fill:url(#SVGID_162_);}
	.st205{fill:url(#SVGID_163_);}
	.st206{opacity:0.6;fill:#D69644;enable-background:new    ;}
	.st207{fill:url(#SVGID_164_);}
</style>
<g>
	<g>
		
			<linearGradient id="SVGID_1_" gradientUnits="userSpaceOnUse" x1="309.5385" y1="272.4086" x2="367.8059" y2="272.4086" gradientTransform="matrix(1 0 0 -1 0 602)">
			<stop  offset="0" style="stop-color:#EFD980"/>
			<stop  offset="0.2037" style="stop-color:#EFD87C"/>
			<stop  offset="0.3836" style="stop-color:#EED572"/>
			<stop  offset="0.5546" style="stop-color:#EDCF5F"/>
			<stop  offset="0.7191" style="stop-color:#EBC743"/>
			<stop  offset="0.7526" style="stop-color:#EBC63C"/>
			<stop  offset="1" style="stop-color:#E7AE17"/>
		</linearGradient>
		<path class="st0" d="M333.8,305.8c-8.4-1.1-13.9,0-17.2,1.8l-2.6-9.9c-2.2,6.9-3.7,17.2-3.7,17.2l0,0c-0.7,1.8-0.7,2.9-0.7,2.9
			s-0.7,6.9,1.1,14.2c2.2,7.3,6.2,17.9,16.8,22.6c10.6,4.7,13.5,7.3,24.1,6.6c0.7,0,1.5,0,2.2,0c3.7-15,8.8-27.7,13.5-38.3
			C361.9,317.1,349.8,308.4,333.8,305.8z"/>
		<path class="st7" d="M354.9,360.9c0.4,0,0.7-0.7,0.7-1.1c0-0.4-0.7-0.7-1.1-0.7c-16.8,2.9-34.3-8.4-39.4-20.4
			c-4-9.1-3.7-16.1-3.7-19l-1.8-1.8l-0.7,1.1c0,0-4,19.3,11,32.1c15,12.8,31,12.8,34.7,12l0.7-2.2L354.9,360.9z M353.1,361.3
			L353.1,361.3L353.1,361.3L353.1,361.3z"/>
	</g>
	<g>
		
			<linearGradient id="SVGID_2_" gradientUnits="userSpaceOnUse" x1="311.0385" y1="270.6641" x2="369.3059" y2="270.6641" gradientTransform="matrix(1 0 0 -1 0 602)">
			<stop  offset="0" style="stop-color:#F2D397"/>
			<stop  offset="0.4319" style="stop-color:#F3D195"/>
			<stop  offset="0.7526" style="stop-color:#F5CC8F"/>
			<stop  offset="1" style="stop-color:#F3B699"/>
		</linearGradient>
		<path class="st4" d="M335.3,307.5c-8.4-1.1-13.9,0-17.2,1.8l-2.6-9.9c-2.2,6.9-3.7,17.2-3.7,17.2l0,0c-0.7,1.8-0.7,2.9-0.7,2.9
			s-0.7,6.9,1.1,14.2c2.2,7.3,6.2,17.9,16.8,22.6c10.6,4.7,13.5,7.3,24.1,6.6c0.7,0,1.5,0,2.2,0c3.7-15,8.8-27.7,13.5-38.3
			C363.4,318.9,351.3,310.1,335.3,307.5z"/>
		<path class="st7" d="M356.4,362.7c0.4,0,0.7-0.7,0.7-1.1c0-0.4-0.7-0.7-1.1-0.7c-16.8,2.9-34.3-8.4-39.4-20.4
			c-4-9.1-3.7-16.1-3.7-19l-1.8-1.8l-0.7,1.1c0,0-4,19.3,11,32.1c15,12.8,31,12.8,34.7,12l0.7-2.2L356.4,362.7z M354.6,363
			L354.6,363L354.6,363L354.6,363z"/>
	</g>
	<g>
		<g>
			
				<linearGradient id="SVGID_3_" gradientUnits="userSpaceOnUse" x1="3260.0583" y1="1473.0446" x2="3345.7629" y2="1473.0446" gradientTransform="matrix(-1 0 0 1 3863.6133 -1091.3303)">
				<stop  offset="0" style="stop-color:#EDCF95"/>
				<stop  offset="0.5331" style="stop-color:#EECC91"/>
				<stop  offset="0.7526" style="stop-color:#EFC88D"/>
				<stop  offset="1" style="stop-color:#EDB397"/>
			</linearGradient>
			<path class="st5" d="M517.6,357.7l8-18.6c0-0.4,0-1.1,0.4-1.5c0-0.4,0-0.4,0-0.4c0-0.4,0.4-0.7,0.4-1.1s0-0.4,0.4-0.7
				c0.4-0.4,0.4-0.7,0.4-1.1s0-0.4,0.4-0.4c0.4-0.7,0.4-1.1,0.7-1.8c0-0.4,0.4-0.4,0.4-0.4c0.4-0.4,0.4-0.7,0.7-1.1
				c0-0.4,0.4-0.4,0.4-0.7c0.4-0.4,0.4-0.7,0.7-1.1c0-0.4,0.4-0.4,0.4-0.7c2.9-5.8,7.3-11,10.2-14.6c0.4-0.4,0.4-0.4,0.4-0.4
				c16.1,20.1,33.9,47.5,48.2,82.1c0,0,13.1,12.4,13.1,29.9s-13.5,23.4-20.8,21.5l0,0c-8,7.3-19.7,2.6-21.9-8.8v-0.4
				c-0.4,0.4-1.1,0.7-1.8,0.7c-4.7,2.6-11.3-0.7-13.5-5.1l0,0l0,0c0-0.4-0.4-0.4-0.4-0.7l0.4-0.4l-1.8-14.2h0.4v-3.7l0.7-2.6
				c-0.4-0.7-0.7-1.5-0.7-2.2l-0.7-1.1l-0.7-2.6v-0.7c-2.6-6.6-6.6-15.7-12-26.3c-3.3-6.9-7.3-14.2-11.3-21.2L517.6,357.7z"/>
		</g>
		<path class="st46" d="M568.7,418.3c0,0,2.6,19.3-8.4,25.6l-1.8-5.5C558.5,438.4,569.8,432.5,568.7,418.3z"/>
		<path class="st46" d="M587.3,424.5c0,0,5.1,12.8,1.1,21.9c0,0-3.3,1.1-8.4,0.7C580.4,447.5,589.2,442.8,587.3,424.5z"/>
		<path class="st47" d="M569.1,424.5c0,0,0.4,11.7-9.5,15.7l-0.4-1.8C558.9,438.4,569.1,429.3,569.1,424.5z"/>
		<path class="st47" d="M588.4,431.1c0,0,0.7,10.6-5.1,16.4l-3.7-0.4C579.7,447.5,587.3,439.8,588.4,431.1z"/>
		<path class="st48" d="M517.6,357.7l8-18.6c0-0.4,0-1.1,0.4-1.5c0-0.4,0-0.4,0-0.4c0-0.4,0.4-0.7,0.4-1.1s0-0.4,0.4-0.7
			c0.4-0.4,0.4-0.7,0.4-1.1s0-0.4,0.4-0.4c0.4-0.7,0.4-1.1,0.7-1.8c0-0.4,0.4-0.4,0.4-0.4c0.4-0.4,0.4-0.7,0.7-1.1
			c0-0.4,0.4-0.4,0.4-0.7c0.4-0.4,0.4-0.7,0.7-1.1c0-0.4,0.4-0.4,0.4-0.7c0,0,0-0.4,0.4-0.4c11,21.5,22.6,50,23.4,74.1
			c0,0-13.5,17.2-8.8,33.6c-0.4-0.4-0.7-1.1-0.7-1.8l0,0l0,0c0-0.4-0.4-0.4-0.4-0.7l0.4-0.4l-1.8-14.2h0.4v-3.7l0.7-3.3l-1.8-2.6
			l-1.1-2.6l-20.1-43.8c0,0-1.1-1.1-2.9-4L517.6,357.7z"/>
		<g>
			<path class="st47" d="M542.1,414.3l-0.7-1.1l0,0c-0.4-0.4-13.1-29.2-25.2-52.6l1.1-2.9l0,0c11,20.8,23,47.5,25.6,52.9
				c0.4-1.1,0.7-1.8,0.7-1.8l0,0c1.1-1.8,2.2-3.7,2.6-3.7c0.4-0.4,0.7-0.4,0.7,0c0.4,0.4,0.4,0.7,0,0.7c-0.4,0.4-0.7,0.7-0.7,1.1
				c0,0-6.9,10.6-3.3,25.9l0,0c0.7,2.2,2.9,4,5.5,5.1c2.6,1.1,5.1,1.1,7.3,0c8.8-4,13.1-13.5,11.3-22.6c0-0.4,0.4-0.7,0.4-0.7
				c0.4,0,0.7,0.4,0.7,0.4c1.8,8.8-2.2,17.9-9.9,22.6c1.1,5.5,4.7,9.5,9.1,11c4.4,1.1,9.1,0,12.4-3.7c9.1-9.1,5.5-22.6,5.5-22.6
				c0-0.4,0.4-0.7,0.4-0.7c0.4,0,0.7,0.4,0.7,0.4c0,0.4,3.7,14.6-5.8,24.1l0,0c2.9,0.4,7.3-0.7,11.3-3.7c3.3-2.6,7.3-8,7.3-17.5
				c0-17.2-12.8-29.2-12.8-29.6l-0.4-0.4c-12.8-33.9-31-61-46.7-81l0.4-0.4c1.1-1.1,2.2-2.2,2.6-3.3l0,0
				c5.1,6.6,10.6,13.9,16.1,22.3l0,0c0,0,25.9,38.7,31.8,60.6c7.3,9.1,20.4,30.3,7.7,46.4c-1.1,1.8-2.6,3.3-4,4.4
				c-0.4,0.4-1.1,0.7-1.8,1.1c-0.4,0-0.4,0.4-0.4,0.4l0,0c-2.9,1.8-6.2,2.6-9.1,2.6c-0.7,0-1.8,0-2.2-0.4c-2.6,2.2-5.8,3.3-9.1,3.3
				c-1.1,0-2.6-0.4-3.7-0.7c-5.1-1.5-8.8-5.8-10.2-11.7c-0.4,0.4-0.7,0.4-0.7,0.4c-1.1,0.7-2.6,0.7-4,0.7c-1.5,0-2.6-0.4-4-0.7
				c-2.6-1.1-4.7-3.3-5.8-5.5l0,0c0,0,0,0,0-0.4c0-0.4-0.4-0.4-0.4-0.4l0,0c0,0-1.1-2.6-1.5-7.3c-0.4-1.8-0.4-3.7,0-5.8
				C541.4,418.3,541.7,416.1,542.1,414.3z"/>
		</g>
	</g>
	<g>
		<g>
			
				<linearGradient id="SVGID_4_" gradientUnits="userSpaceOnUse" x1="538.425" y1="217.8463" x2="603.9953" y2="150.4111" gradientTransform="matrix(1 0 0 -1 0 602)">
				<stop  offset="0" style="stop-color:#F7F8F8"/>
				<stop  offset="1" style="stop-color:#DCDDDD"/>
			</linearGradient>
			<path class="st9" d="M542.3,382c0,0,32.9-3.7,46.4,2.2l0.7,5.8l2.6,5.8c0,0,17.5,17.9,11,38c-6.6,20.1-20.8,17.9-20.8,17.9
				l-8.4,3.3c0,0-15.3-0.7-18.3-12.8l-12-1.5c0,0,1.5-24.1,1.1-31.4C544.1,402.1,542.3,382,542.3,382z"/>
			<path class="st53" d="M584.2,390.8L584.2,390.8c0.4,0,0.7-0.4,0.7-0.7s-0.4-0.7-0.7-0.7c-16.1-2.6-32.1-1.5-32.1-1.5
				c-0.4,0-0.7,0.4-0.7,0.7c0,0.4,0.4,0.7,0.7,0.7C552.8,389.3,568.5,388.2,584.2,390.8z"/>
			<g>
				<path class="st54" d="M572.6,390.8c-14.2-0.7-24.5-0.4-29.6,0c0,1.5,0.4,3.3,0.4,5.1C551.7,390.8,572.6,390.8,572.6,390.8z"/>
				<path class="st54" d="M573.7,455l8.4-3.3c0,0,2.6,0.4,5.8-0.7c-3.7-3.7-2.6-7.3-2.6-7.3c-17.5,10.2-18.3-8.8-18.3-8.8
					c-12.8,2.6-19.3-2.2-22.6-7.7c-0.4,6.9-0.7,13.5-0.7,13.5l12,1.5C558.3,454.7,573.7,455,573.7,455z"/>
			</g>
			<path class="st53" d="M605,423.6L605,423.6c0-16.8-12.8-28.5-12.8-28.8c0-1.5-1.5-4-2.2-5.1c0.7-4.7-0.7-6.2-1.1-6.6h-0.4
				c-20.1-4.7-40.2-2.6-47.1-1.8c0,0.4,0,1.1,0.4,1.5c6.6-1.1,25.6-2.9,44.9,1.5c0.4,0,2.2,1.1,1.8,5.1c0,0.4,0,0.4,0,0.7
				s0,0.4,0,0.7c1.1,1.5,2.2,3.7,2.2,4.4c0,0.7,0.7,1.8,2.6,4c0.4,0.4,0.7,0.7,0.7,1.1c2.6,4,4.7,8,6.6,12c2.6,5.8,2.9,12.8,1.8,19
				c-0.4,1.8-4.7,18.3-19,19.3c6.6-8,6.6-21.5,6.6-22.3c0-0.4-0.4-0.7-0.7-0.7l0,0c-0.4,0-0.7,0.4-0.7,0.7c0,0,0,6.2-1.8,12.4l0,0
				c-0.7,2.2-7.3,14.6-16.8,13.1c-9.5-1.8-11.7-9.9-11.7-9.9l0,0c3.7-1.1,6.6-2.9,8.8-5.5c5.8-8,2.6-19.7,2.2-20.4
				c0-0.4-0.7-0.7-1.1-0.4c-0.4,0-0.7,0.7-0.4,1.1c0,0,1.5,5.1,0.7,10.6c0,0.4-4,19.7-24.5,10.6l-0.4,3.3c2.9,1.8,7.3,2.2,7.7,2.2
				l0,0c1.1,0,2.6,0,3.7-0.4c4,9.1,13.1,11.3,13.5,11.3c0.4,0,0.4,0,0.7,0c1.5,0.4,2.9,0.4,4.7,0c2.6-0.4,4.7-1.5,6.9-2.9
				c0.4,0,0.7,0,0.7,0c7.3,0,13.1-2.9,17.5-9.1c1.5-2.2,2.9-4.7,3.7-7.7l0,0C605.4,429.8,605,423.6,605,423.6z"/>
			<path class="st54" d="M567.8,403.9c0,1.1,0,2.2,0,3.3c0,0.7,0.4,1.5,0.7,1.8s0.4,0.4,0.7,0.7c0.4,0,0.7,0.4,1.1,0.4
				c0.7,0,1.5-0.4,1.8-0.7c0.4-0.4,0.7-1.1,0.7-1.8c0-1.1,0-2.2,0-3.3c0-0.7-0.4-1.5-0.7-1.8s-0.4-0.4-0.7-0.7
				c-0.4,0-0.7-0.4-1.1-0.4c-0.7,0-1.5,0.4-1.8,0.7C568.2,402.8,567.8,403.2,567.8,403.9L567.8,403.9z"/>
			<path class="st54" d="M575.5,398.8c1.5,5.5,1.8,10.6,1.1,16.4c0,1.5,1.5,2.9,2.9,2.9c1.8,0,2.6-1.1,2.9-2.9
				c0.7-5.8,0.4-12-1.5-17.9c-0.4-1.5-1.8-2.6-3.3-1.8C575.8,395.9,575.1,397.3,575.5,398.8L575.5,398.8z"/>
			<path class="st54" d="M585.3,402.5c0.7,3.3,1.1,6.6,1.8,9.9c0,0.7,0.7,1.5,1.1,1.8c0.7,0.4,1.5,0.4,2.2,0.4
				c1.5-0.4,2.2-1.8,1.8-3.3c-0.7-3.3-1.1-6.6-1.8-9.9c0-0.7-0.7-1.5-1.1-1.8c-0.7-0.4-1.5-0.4-2.2-0.4
				C585.7,399.5,585,400.6,585.3,402.5L585.3,402.5z"/>
		</g>
		<g>
			
				<linearGradient id="SVGID_5_" gradientUnits="userSpaceOnUse" x1="317.5268" y1="326.724" x2="375.7111" y2="284.7551" gradientTransform="matrix(1 0 0 -1 0 602)">
				<stop  offset="0" style="stop-color:#F7F8F8"/>
				<stop  offset="1" style="stop-color:#DCDDDD"/>
			</linearGradient>
			<path class="st10" d="M331.6,271c0,0,16.1-12,28.5-8.8c12.8,3.3,22.3,10.6,25.6,21.2c3.3,10.6-8.8,18.3-8.8,18.3
				s-4.4,13.1-15.3,15c0,0-8.8,21.5-35.4,1.1l-6.2,6.9c0,0-14.6-9.1-11.7-27C311.2,279.8,326.5,271,331.6,271z"/>
			<g>
				<path class="st54" d="M319.9,325.1l6.2-6.9c1.1,0.7,2.2,1.5,3.3,2.2c-4-2.9-9.1-8.4-10.6-17.5c0,0-9.1,2.6-5.1,16.1
					C316.3,322.9,319.9,325.1,319.9,325.1z"/>
				<path class="st54" d="M385.7,283.5c-1.1-2.9-2.6-5.8-4.4-8.4c0,2.9-0.7,9.1-7.7,12c0,0-2.6,18.6-15,17.5c0,0-6.9,19-25.6,18.3
					c0,0-0.4,0-0.4-0.4c21.5,12,28.5-5.8,28.5-5.8c11-1.8,15.3-15,15.3-15S388.9,294,385.7,283.5z"/>
			</g>
			<path class="st54" d="M332,272.5c0,0-8.4,5.1-12.8,15c0,0-1.1-5.8,9.9-16.1"/>
			<path class="st53" d="M359,261.6c-11.3-1.8-20.8,4-25.6,7.7l0,0c0,0-18.3,2.9-24.1,19.7c-5.8,16.8,0,30.3,9.5,37.2l1.8-1.8
				c-9.5-8-15-23-7.7-36.9c4.7-9.5,12.8-13.5,17.2-15c0,0.4,0,0.7,0.4,0.7c0.4,0.4,0.7,0.4,1.1,0c0,0,12.8-12,27.4-9.9
				c3.7,0.7,7.3,1.8,10.6,3.3c1.1,0.7,13.5,6.9,15,19.3c0,0.4,0.4,3.7-0.7,6.2l0,0c0,0,0,0.4-0.4,0.4c-1.1,2.2-2.9,5.1-5.1,6.2l0,0
				c0-0.7,0-1.1,0-1.8c-1.1-13.5-15.7-22.6-16.4-23c-0.4-0.4-0.7,0-1.1,0.4c-0.4,0.4,0,0.7,0.4,1.1c0,0,5.5,3.3,9.9,8.8
				c0,0.4,8,12.4,1.8,22.3c0,0-4,5.5-9.9,8.8c0.4-13.5-14.6-21.9-14.6-21.9l0,0c-1.5-1.1-2.9-1.5-2.9-1.8c-0.4-0.4-0.7,0-1.1,0.4
				c-0.4,0.4,0,0.7,0.4,1.1c0,0,15.7,8,16.1,21.5c0,3.7-1.1,6.2-3.7,8c-5.5,4-15.7,2.9-17.5,2.6h-0.4c-15-5.1-19.3-16.4-20.1-25.2
				c0-0.4-0.4-0.7-0.7-0.7c-0.4,0-0.7,0.4-0.7,0.7c0.7,8,4,17.9,15.3,24.1l0,0c1.5,1.1,3.3,1.8,5.8,2.6l0,0h0.4
				c0.4,0,1.5,0.4,2.6,0.4c8.4,1.5,18.6,0,20.8-8c2.2-1.1,12-6.2,15-15c1.5-1.1,10.6-9.1,10.2-17.2
				C387.1,276.9,374.3,263.7,359,261.6z"/>
			<path class="st54" d="M342.6,272.9c1.5,0,2.9,0,4.4,0.4c-0.4,0-0.4,0-0.7,0c1.8,0.4,3.3,0.7,5.1,1.1c1.5,0.4,2.9-0.4,3.3-1.8
				c0.4-1.5-0.4-2.9-1.8-3.3c-3.3-1.1-6.6-1.5-10.2-1.5c-1.5,0-2.9,1.1-2.6,2.6C340,271.8,341.1,272.9,342.6,272.9L342.6,272.9z"/>
			<path class="st54" d="M342.2,279.8h0.4C342.6,279.8,342.2,279.8,342.2,279.8c0.4,0,1.1,0.4,1.8,0.7c-0.4,0-0.4,0-0.7-0.4
				c0.4,0.4,1.1,0.4,1.5,0.7c0.4,0.4,0.7,0.4,1.1,0.4c0.4,0,0.7,0,1.1,0c0.7,0,1.5-0.7,1.5-1.1c0.4-0.7,0.4-1.5,0.4-2.2
				c-0.4-0.7-0.7-1.1-1.1-1.5c-1.5-1.1-3.7-1.5-5.5-1.8c-0.4,0-0.7,0-1.1,0.4c-0.4,0-0.7,0.4-0.7,0.7c-0.4,0.4-0.7,1.1-0.7,1.8
				s0.4,1.5,0.7,1.8l0.4,0.4C341.1,279.8,341.8,279.8,342.2,279.8L342.2,279.8z"/>
			<path class="st54" d="M337.8,285.6c0.4,0,0.4,0,0.7,0C338.6,285.6,338.2,285.6,337.8,285.6c0.4,0,0.7,0,1.1,0.4
				c-0.4,0-0.4,0-0.7-0.4c0,0,0,0,0.4,0c0.4,0.4,0.7,0.4,1.1,0.4c0.4,0,0.7,0,1.1,0s0.7-0.4,0.7-0.4c0.4-0.4,0.4-0.4,0.7-0.7
				c0-0.4,0-0.4,0.4-0.7c0-0.4,0-1.1,0-1.5c0-0.4,0-0.4-0.4-0.7c-0.4-0.4-0.7-0.7-1.1-1.1c-0.4-0.4-1.1-0.4-1.8-0.7
				c-0.4,0-0.7,0-1.1,0c-0.4,0-0.4,0-0.7,0s-0.7,0-1.1,0.4c-0.4,0-0.7,0.4-0.7,0.7c-0.4,0.4-0.4,0.4-0.7,0.7c0,0.4-0.4,0.7-0.4,1.1
				c0,0.4,0,0.4,0,0.7c0,0.4,0.4,0.7,0.7,1.1l0.4,0.4C337.1,285.3,337.5,285.6,337.8,285.6L337.8,285.6z"/>
		</g>
	</g>
</g>
</svg>
