<?xml version="1.0" encoding="utf-8"?>
<!-- Generator: Adobe Illustrator 21.0.0, SVG Export Plug-In . SVG Version: 6.00 Build 0)  -->
<svg version="1.1" id="圖層_1" xmlns="http://www.w3.org/2000/svg" xmlns:xlink="http://www.w3.org/1999/xlink" x="0px" y="0px"
	 viewBox="0 0 822.9 601.4" style="enable-background:new 0 0 822.9 601.4;" xml:space="preserve">
<style type="text/css">
	.st0{fill:url(#SVGID_1_);}
	.st1{fill:#D59543;}
	.st2{fill:#AB6C21;}
	.st3{opacity:0.6;fill:#D59543;enable-background:new    ;}
	.st4{fill:url(#SVGID_2_);}
	.st5{fill:url(#SVGID_3_);}
	.st6{fill:url(#SVGID_4_);}
	.st7{fill:#AC6D21;}
	.st8{fill:url(#SVGID_5_);}
	.st9{fill:#5F5F5F;}
	.st10{opacity:0.8;fill:url(#SVGID_6_);enable-background:new    ;}
	.st11{opacity:0.6;fill:#5F5F5F;enable-background:new    ;}
	.st12{opacity:0.5;fill:url(#SVGID_7_);enable-background:new    ;}
	.st13{fill:url(#SVGID_8_);}
	.st14{fill:url(#SVGID_9_);}
	.st15{opacity:0.8;fill:#FFFFFF;enable-background:new    ;}
	.st16{opacity:0.5;fill:url(#SVGID_10_);enable-background:new    ;}
	.st17{fill:url(#SVGID_11_);}
	.st18{fill:url(#SVGID_12_);}
	.st19{fill:url(#SVGID_13_);}
	.st20{fill:url(#SVGID_14_);}
	.st21{opacity:0.6;fill:#D69644;enable-background:new    ;}
</style>
<g>
	<g>
		
			<linearGradient id="SVGID_1_" gradientUnits="userSpaceOnUse" x1="291.1434" y1="219.8923" x2="376.1833" y2="219.8923" gradientTransform="matrix(1 0 0 -1 0 602)">
			<stop  offset="0" style="stop-color:#F2D397"/>
			<stop  offset="0.5331" style="stop-color:#F3D093"/>
			<stop  offset="0.7526" style="stop-color:#F5CC8F"/>
			<stop  offset="1" style="stop-color:#F3B699"/>
		</linearGradient>
		<path class="st0" d="M376.3,358.1l-8.1-18.3c0-0.4,0-1-0.2-1.5c0-0.2,0-0.4,0-0.4c0-0.4-0.2-0.8-0.2-1s0-0.4-0.2-0.6
			c-0.2-0.4-0.2-0.8-0.4-1.2c0-0.2,0-0.2-0.2-0.4c-0.2-0.6-0.4-1-0.6-1.7c0-0.2-0.2-0.2-0.2-0.4c-0.2-0.4-0.4-0.8-0.6-1.2
			c0-0.2-0.2-0.4-0.2-0.6c-0.2-0.4-0.4-0.8-0.6-1c0-0.2-0.2-0.4-0.2-0.6c-2.9-5.6-7.1-11-10-14.6c-0.2-0.2-0.2-0.2-0.4-0.4
			c-15.8,20-33.7,47.3-47.9,81.6c0,0-12.9,12.3-12.9,29.8s13.3,23.1,20.6,21.4l0,0c8.1,7.1,19.6,2.7,21.9-8.7v-0.2
			c0.4,0.2,1,0.6,1.7,0.8c4.8,2.5,11.2-0.6,13.3-5l0,0l0,0c0-0.2,0.2-0.4,0.2-0.6l-0.2-0.2l1.7-14.2H352v-3.5l-0.6-2.5
			c0.2-0.6,0.6-1.5,0.8-2.3l0.6-1l0.8-2.5v-0.6c2.7-6.5,6.7-15.4,11.9-26c3.3-6.9,7.3-14.2,11.2-21L376.3,358.1z"/>
	</g>
	<path class="st1" d="M325.7,418.3c0,0-2.5,19.2,8.3,25.4l1.9-5.4C336.1,438.3,324.5,432.4,325.7,418.3z"/>
	<path class="st1" d="M307.2,424.3c0,0-5,12.7-1.2,21.9c0,0,3.3,1.2,8.3,0.8C314.3,447,305.5,442.7,307.2,424.3z"/>
	<path class="st2" d="M325.5,424.3c0,0-0.2,11.5,9.6,15.6l0.4-1.7C335.5,438.3,325.3,429.1,325.5,424.3z"/>
	<path class="st2" d="M306.4,431c0,0-0.6,10.6,5,16.2l3.5-0.2C314.9,447,307.2,439.7,306.4,431z"/>
	<path class="st3" d="M376.3,358.1l-8.1-18.3c0-0.4,0-1-0.2-1.5c0-0.2,0-0.4,0-0.4c0-0.4-0.2-0.8-0.2-1s0-0.4-0.2-0.6
		c-0.2-0.4-0.2-0.8-0.4-1.2c0-0.2,0-0.2-0.2-0.4c-0.2-0.6-0.4-1-0.6-1.7c0-0.2-0.2-0.2-0.2-0.4c-0.2-0.4-0.4-0.8-0.6-1.2
		c0-0.2-0.2-0.4-0.2-0.6c-0.2-0.4-0.4-0.8-0.6-1c0-0.2-0.2-0.4-0.2-0.6c0,0,0-0.2-0.2-0.2c-10.8,21.2-22.5,49.6-23.1,73.5
		c0,0,13.3,16.9,8.5,33.3c0.4-0.4,0.6-1,0.8-1.7l0,0l0,0c0-0.2,0.2-0.4,0.2-0.6l-0.2-0.2l1.7-14.2h-0.4v-3.5l-0.8-3.1l1.9-2.7l1-2.5
		l20-43.5c0,0,1-1.2,2.9-4.2L376.3,358.1z"/>
	<g>
		<path class="st2" d="M352.2,414.3l0.6-1.2l0,0c0.2-0.4,13.1-28.9,25-52.1l-1.2-2.9l0,0c-10.8,20.8-22.7,47.1-25.4,52.7
			c-0.4-1.2-0.8-1.7-0.8-1.7l0,0c-1-1.9-2.3-3.5-2.5-3.5c-0.2-0.2-0.6-0.2-0.8,0c-0.2,0.2-0.2,0.6,0,0.8c0.2,0.2,0.6,0.6,0.8,1
			c0,0,6.9,10.6,3.1,25.8l0,0c-0.8,2.3-2.9,4.2-5.4,5.2c-2.5,1-5.2,1-7.3,0c-8.5-4.2-13.1-13.3-11.2-22.3c0-0.4-0.2-0.6-0.4-0.8
			c-0.4,0-0.6,0.2-0.8,0.4c-1.9,8.7,2.1,17.7,9.8,22.5c-1.2,5.4-4.6,9.4-9.2,10.8c-4.4,1.2-9,0-12.5-3.5c-9-9-5.4-22.5-5.4-22.5
			c0-0.4-0.2-0.6-0.4-0.8c-0.4,0-0.6,0.2-0.8,0.4c0,0.2-3.5,14.4,5.8,23.7l0,0c-2.9,0.2-7.3-0.6-11.2-3.7c-3.3-2.7-7.3-7.9-7.3-17.3
			c0-16.9,12.7-29.1,12.7-29.4l0.2-0.2c14-34.4,32.1-61.4,47.7-81.2l-0.2-0.2c-1-1.2-2.1-2.3-2.7-3.1l0,0
			c-5.2,6.5-10.6,13.7-16,22.1l0,0c0,0-25.8,38.5-31.6,60.2c-7.1,9.2-20.2,30.2-7.7,46c1.2,1.9,2.7,3.3,4,4.4c0.4,0.4,1,0.8,1.7,1
			c0.2,0,0.2,0.2,0.2,0.2l0,0c2.9,1.9,6,2.7,9.2,2.7c0.8,0,1.7,0,2.3-0.2c2.7,2.3,5.8,3.3,9,3.3c1.2,0,2.5-0.2,3.7-0.6
			c5-1.5,8.5-5.6,10-11.5c0.2,0.2,0.6,0.4,0.8,0.4c1.2,0.6,2.7,0.8,4.2,0.8c1.5,0,2.7-0.2,4.2-0.8c2.7-1,4.8-3.1,5.8-5.4l0,0
			c0,0,0,0,0-0.2s0.2-0.2,0.2-0.4l0,0c0,0,1-2.7,1.5-7.1c0.2-1.7,0.2-3.7,0-5.8C353.2,418.3,352.6,416,352.2,414.3z"/>
	</g>
</g>
<g>
	<g>
		<linearGradient id="SVGID_2_" gradientUnits="userSpaceOnUse" x1="524.5279" y1="335.8874" x2="587.3029" y2="335.8874">
			<stop  offset="0" style="stop-color:#F2D397"/>
			<stop  offset="0.4319" style="stop-color:#F3D195"/>
			<stop  offset="0.7526" style="stop-color:#F5CC8F"/>
			<stop  offset="1" style="stop-color:#F3B699"/>
		</linearGradient>
		<path class="st4" d="M581.8,320.7l-10.1-7.4l-15.2-3.3c0,0-13.4,2.4-20.2,4.5c-5.1,1.5-9.5,5.1-11.6,6.8
			c5.1,10.4,10.4,24.4,14.6,40.2c23.2,3,45.6-22.3,45.6-22.3s2.1-5.1,2.4-7.4C587.8,329.4,581.8,320.7,581.8,320.7z"/>
		<path class="st7" d="M550.5,311.2l-0.6-1.2c-15.2,0.9-23.5,8.9-23.5,8.9c-0.6,0.3-0.6,0.9-0.3,1.5c0.3,0.3,0.6,0.6,0.9,0.6
			s0.3,0,0.6-0.3c11.9-7.4,22-7.7,22.3-7.7c0.6,0,0.9-0.3,0.9-0.9C550.8,311.5,550.8,311.5,550.5,311.2z"/>
		<path class="st7" d="M584.8,339.5C585.1,339.5,585.1,339.2,584.8,339.5c0.6-0.6,0.6-1.2,0-1.8c-0.3-0.3-0.9-0.3-1.5,0
			c-0.3,0.3-21.1,24.4-42.9,21.7l-2.7-0.3l1.2,3.3c0,0,1.5,0.3,2.1,0.3c0,0,0,0,0.3,0l0,0l0,0l0,0l0,0c1.5,0.3,5.4,0,6-0.3
			c2.1-0.3,4.2-0.6,6.6-1.2c4.8-1.5,8.9-3.6,13.1-6c4.8-3,9.2-6.6,13.4-10.4c0.3-0.3,5.1-5.1,4.8-5.1
			C585.4,340.1,585.1,339.8,584.8,339.5z"/>
	</g>
	<g>
		<linearGradient id="SVGID_3_" gradientUnits="userSpaceOnUse" x1="562.4489" y1="312.9231" x2="591.3649" y2="312.9231">
			<stop  offset="0" style="stop-color:#898989"/>
			<stop  offset="0.5212" style="stop-color:#DCDDDD"/>
			<stop  offset="1" style="stop-color:#9FA0A0"/>
		</linearGradient>
		<path class="st5" d="M590.7,298.7c-0.3,0.3-1.2,1.2-2.1,1.8c-0.3,0.3-0.3,0.6-0.3,0.9c0,0.3,0.3,0.6,0.6,0.9
			c1.2,0.6,1.5,0.9,1.5,1.2s-0.9,1.2-1.5,1.5c-0.3,0.3-0.6,0.6-0.6,0.9c0,0.3,0,0.6,0.3,0.9c1.5,0.9,1.5,1.5,1.5,1.8
			c0,0.6-0.9,0.9-1.2,1.2c-0.3,0-0.6,0.3-0.6,0.9c0,0.3,0,0.6,0.3,0.9c1.2,0.9,1.5,1.5,1.5,1.8s-0.6,0.9-1.2,0.9
			c-0.3,0-0.6,0.6-0.6,0.9c0,0.3,0.3,0.9,0.6,0.9c0.6,0.3,0.9,0.6,0.9,0.9c0,0.6-0.6,1.5-0.9,2.1c-0.3,0.3-0.3,0.6-0.3,0.9
			c0,0.3,0.3,0.6,0.6,0.6s0.6,0.3,0.9,0.6s-0.3,1.2-0.3,1.5v0.3c-0.3,0.6-2.7,1.8-4.5,3c0,0,0,0-0.3,0c-7.4,6.3-16.7,0.3-17,0l0,0
			c-1.5-0.6-2.7-1.5-2.7-2.4c0-0.6,0.3-0.9,0.3-0.9c0.3-0.3,0.3-0.6,0.3-0.9c0-0.3-0.3-0.6-0.6-0.6c-1.8-0.9-2.1-1.5-2.1-1.8
			c0-0.3,0.9-1.5,1.8-1.8c0.3-0.3,0.6-0.6,0.6-0.9c0-0.3-0.3-0.6-0.6-0.9c-1.2-0.3-1.5-0.9-1.5-0.9c0-0.3,0.9-1.2,1.5-1.5
			c0.3-0.3,0.6-0.6,0.6-0.9c0-0.3-0.3-0.6-0.6-0.9c-1.5-0.6-1.8-1.2-1.8-1.2c0-0.3,0.9-1.2,1.8-1.5c0.3-0.3,0.6-0.6,0.6-0.9
			c0-0.3-0.3-0.9-0.6-0.9c-1.8-0.9-2.1-1.2-2.1-1.2c0-0.3,0.9-0.6,1.8-0.9c0.3,0,0.6-0.6,0.6-0.9v-0.9c0-0.3-0.3-0.9-0.6-0.9
			c-1.8-0.6-1.8-0.9-1.8-2.1c0-0.9-0.3-2.1-0.6-3c1.8,0.6,6.8,1.8,14,1.8c4.5,0,9.2-0.6,14.9-1.8C591.3,297.5,591,298.4,590.7,298.7
			z"/>
		<path class="st9" d="M577.6,330.3c-5.4,0-9.8-2.7-10.4-3c-2.4-0.9-3.6-2.4-3.9-3.6c0-0.6,0-1.2,0-1.5c-0.9-0.3-2.1-1.2-2.1-2.4
			c-0.3-1.2,0.6-2.1,1.2-2.7c-0.6-0.6-1.2-1.2-1.2-1.8c0-0.9,0.6-1.8,1.2-2.4c-0.9-0.6-1.5-1.2-1.5-2.4c0-0.9,0.6-1.8,1.5-2.4
			c-0.9-0.6-1.5-1.5-1.5-2.4c0-1.2,1.2-1.8,2.1-2.1c-1.5-0.9-1.8-1.8-1.8-3.6c0-1.2-0.6-3.6-0.9-4.5c-0.3-0.6,0-1.2,0.6-1.2
			c0.6-0.3,1.2,0,1.2,0.6c0,0.3,1.2,3.3,1.2,5.1c0,1.2,0,1.5,1.8,2.1c0.3,0,0.6,0.6,0.6,0.9v0.9c0,0.6-0.3,0.9-0.6,0.9
			c-0.9,0.3-1.8,0.6-1.8,0.9l0,0c0,0,0.3,0.6,2.1,1.2c0.3,0.3,0.6,0.6,0.6,0.9c0,0.3-0.3,0.9-0.6,0.9c-0.9,0.3-1.8,1.2-1.8,1.5
			c0,0,0.3,0.6,1.8,1.2c0.3,0,0.6,0.6,0.6,0.9c0,0.3-0.3,0.6-0.6,0.9c-0.6,0.3-1.5,1.2-1.5,1.5c0,0,0.3,0.6,1.5,0.9
			c0.3,0,0.6,0.6,0.6,0.9c0,0.3,0,0.6-0.6,0.9c-0.9,0.6-1.8,1.5-1.8,1.8s0.6,0.6,1.8,1.2c0.3,0,0.6,0.3,0.6,0.6s0,0.6-0.3,0.9
			c0,0-0.3,0.3-0.3,0.9c0,0.6,1.2,1.5,2.7,2.4l0,0c0.3,0.3,9.5,6.3,17,0c0,0,0,0,0.3,0c1.8-1.2,4.2-2.4,4.5-3v-0.3
			c0.3-0.3,0.6-1.2,0.3-1.5c0-0.3-0.6-0.6-0.9-0.6c-0.3,0-0.6-0.3-0.6-0.6c0-0.3,0-0.6,0.3-0.9c0.3-0.3,1.2-1.2,0.9-2.1
			c0-0.3-0.3-0.6-0.9-0.9c-0.3-0.3-0.6-0.6-0.6-0.9c0-0.3,0.3-0.9,0.6-0.9s1.2-0.6,1.2-0.9c0-0.3-0.3-0.9-1.5-1.8
			c-0.3-0.3-0.6-0.6-0.3-0.9c0-0.3,0.3-0.6,0.6-0.9c0.3-0.3,1.2-0.6,1.2-1.2c0-0.3,0-0.6-1.5-1.8c-0.3-0.3-0.6-0.6-0.3-0.9
			c0-0.3,0.3-0.6,0.6-0.9c0.6-0.3,1.5-1.2,1.5-1.5s-0.3-0.6-1.5-1.2c-0.3,0-0.6-0.3-0.6-0.9c0-0.3,0-0.6,0.3-0.9
			c0.9-0.6,1.8-1.8,2.1-1.8c0-0.3,0.6-1.5,0.6-2.4c0.3-0.9,0.3-1.2,0.3-1.5c0.3-0.6,0.9-0.9,1.2-0.6c0.6,0.3,0.9,0.9,0.6,1.2
			c0,0-0.3,0.6-0.3,1.2c-0.3,1.8-0.6,2.7-0.9,3c-0.3,0.3-0.6,0.9-1.2,1.2c0.9,0.6,1.5,1.2,1.5,2.1c0,1.2-0.6,2.1-1.5,2.7
			c0.9,0.9,1.2,1.8,1.2,2.7s-0.6,1.5-1.2,2.1c0.9,0.9,1.2,1.8,1.2,2.7c0,0.6-0.6,1.2-0.9,1.5c0.6,0.6,0.6,0.9,0.6,1.5
			c0.3,1.2-0.3,2.1-0.9,2.7c0.3,0.3,0.6,0.6,0.9,0.9c0.6,1.2,0,2.4-0.3,3.3v0.3c-0.3,0.9-3,2.7-5.4,3.9
			C583.6,329.4,580.3,330.3,577.6,330.3z"/>
		<linearGradient id="SVGID_4_" gradientUnits="userSpaceOnUse" x1="563.7646" y1="312.4765" x2="591.3911" y2="312.4765">
			<stop  offset="0" style="stop-color:#898989"/>
			<stop  offset="0.5212" style="stop-color:#DCDDDD"/>
			<stop  offset="1" style="stop-color:#9FA0A0"/>
		</linearGradient>
		<path style="opacity:0.8;fill:url(#SVGID_4_);enable-background:new    ;" d="M588.9,317.2c0,0-11,3-24.7,3h0.3
			c4.2,0.3,16.7,1.5,24.4,0.9c0,0-8.3,3.9-20.8,4.5l0,0c0.3,0.3,9.5,6.3,17,0c0,0,0,0,0.3,0c1.8-1.2,4.2-2.4,4.5-3v-0.3
			c0.3-0.3,0.6-1.2,0.3-1.5c0-0.3-0.6-0.6-0.9-0.6s-0.6-0.3-0.6-0.6s0-0.6,0.3-0.9c0.3-0.3,1.2-1.2,0.9-2.1c0-0.3-0.3-0.6-0.9-0.9
			c-0.3-0.3-0.6-0.6-0.6-0.9s0.3-0.9,0.6-0.9s1.2-0.6,1.2-0.9c0-0.3-0.3-0.9-1.5-1.8c-0.3-0.3-0.6-0.6-0.3-0.9
			c0-0.3,0.3-0.6,0.6-0.9c0.3-0.3,1.2-0.6,1.2-1.2c0-0.3,0-0.6-1.5-1.8c-0.3-0.3-0.6-0.6-0.3-0.9c0-0.3,0.3-0.6,0.6-0.9
			c0.6-0.3,1.5-1.2,1.5-1.5s-0.3-0.6-1.5-1.2c-0.3,0-0.6-0.3-0.6-0.9c0-0.3,0-0.6,0.3-0.9c0.9-0.6,1.8-1.8,2.1-1.8
			c0-0.3,0.3-1.2,0.6-1.8c-0.6,0.3-1.2,0.3-1.8,0.3c-3,1.8-9.8,3.9-25.3,4.8h0.3c0,0,0.3,0,0.3,0.3c4.5,0.3,13.7,1.2,23.8,0.9
			c0,0-10.4,3.3-24.1,3.9l0,0h0.3c5.7,0.3,19.4,0.9,23.8,0.6c0,0-11.3,3.9-24.7,3.6h0.3c4.2,0.3,15.5,1.5,24.4,0.9
			c0,0-16.7,3.3-25,3c0,0,0.3,0,0.3,0.3C569,316,584.8,318.1,588.9,317.2z"/>
		<path class="st11" d="M572.9,307c-4.2,0-7.1-0.3-7.1-0.3s-0.3,0-0.3-0.3c0,0,0-0.3,0.3-0.3c0,0,12.8,0.9,22.3-0.9
			c0,0,0.3,0,0.3,0.3c0,0,0,0.3-0.3,0.3C583,306.7,577.3,307,572.9,307z"/>
		<path class="st11" d="M566.9,302.9c-0.9,0-1.2,0-1.5,0c0,0-0.3,0-0.3-0.3c0,0,0-0.3,0.3-0.3l0,0c0.3,0,18.5,0,22.3-0.9
			c0,0,0.3,0,0.3,0.3c0,0,0,0.3-0.3,0.3C584.8,302.6,571.4,302.9,566.9,302.9z"/>
		<path class="st11" d="M573.5,312.1c-4.5,0-7.7-0.3-7.7-0.3s-0.3,0-0.3-0.3c0,0,0-0.3,0.3-0.3c0,0,14.3,0.9,22.3-1.2
			c0,0,0.3,0,0.3,0.3c0,0,0,0.3-0.3,0.3C583.9,311.8,577.9,312.1,573.5,312.1z"/>
		<path class="st11" d="M571.1,316c-3,0-5.1,0-5.1,0s-0.3,0-0.3-0.3c0,0,0-0.3,0.3-0.3s15.5,0.6,21.7-1.2c0,0,0.3,0,0.3,0.3
			c0,0,0,0.3-0.3,0.3C583.9,315.7,576.1,316,571.1,316z"/>
		<path class="st11" d="M572.9,321c-3.9,0-6.8,0-6.8-0.3c0,0-0.3,0-0.3-0.3c0,0,0-0.3,0.3-0.3s15.5,0.9,21.7-1.2h0.3v0.3
			C584.2,320.7,577.9,321,572.9,321z"/>
		<path class="st11" d="M576.7,325.5c-5.1,0-9.5-0.6-9.5-0.6s-0.3,0-0.3-0.3c0,0,0-0.3,0.3-0.3c0,0,13.1,1.8,19.9-0.6h0.3v0.3
			C584.2,325.2,580.3,325.5,576.7,325.5z"/>
		<linearGradient id="SVGID_5_" gradientUnits="userSpaceOnUse" x1="542.5979" y1="252.73" x2="612.1383" y2="252.73">
			<stop  offset="0" style="stop-color:#F2D397"/>
			<stop  offset="0.4319" style="stop-color:#F3D195"/>
			<stop  offset="0.7526" style="stop-color:#F5CC8F"/>
			<stop  offset="1" style="stop-color:#F3B699"/>
		</linearGradient>
		<path style="opacity:0.5;fill:url(#SVGID_5_);enable-background:new    ;" d="M576.7,208.5c-18.8,0-34.2,14-34.2,31.3
			c0,0.3-0.3,12.8,6.3,22c7.1,9.8,10.1,19.9,10.1,24.4v1.2c0,4.5,0.3,6.8,3.3,7.7c0.3,0,12.8,4.2,29.2,0c3-0.9,3.3-3.3,3.3-7.7v-1.2
			c0-4.5,3-14.3,10.1-24.4c6.3-8.6,6.3-20.5,6.3-21.7l0,0h0.9H611C611.3,222.5,595.8,208.5,576.7,208.5z"/>
		<linearGradient id="SVGID_6_" gradientUnits="userSpaceOnUse" x1="540.629" y1="252.548" x2="613.1217" y2="252.548">
			<stop  offset="0" style="stop-color:#F2D397"/>
			<stop  offset="0.4319" style="stop-color:#F3D195"/>
			<stop  offset="0.7526" style="stop-color:#F5CC8F"/>
			<stop  offset="1" style="stop-color:#F3B699"/>
		</linearGradient>
		<path style="fill:url(#SVGID_6_);" d="M576.4,298.7c-8.6,0-14.3-1.8-14.9-2.1c-4.5-1.2-4.8-5.7-4.8-9.5v-1.2
			c0-4.2-2.7-13.7-9.8-23.2c-7.1-9.5-6.6-22.6-6.6-23.2c0-18.2,16.4-33,36.3-33c19.9,0,36.3,14.9,36.3,33l0,0c0,1.5,0,13.7-6.6,22.9
			c-6.8,9.5-9.5,19.1-9.8,23.2v1.2c0,4.2,0,8.3-4.8,9.5C586.3,298.1,580.9,298.7,576.4,298.7z M576.7,208.5
			c-18.8,0-34.2,14-34.2,31.3c0,0.3-0.3,12.8,6.3,22c7.1,9.8,10.1,19.9,10.1,24.4v1.2c0,4.5,0.3,6.8,3.3,7.7c0.3,0,12.8,4.2,29.2,0
			c3-0.9,3.3-3.3,3.3-7.7v-1.2c0-4.5,3-14.3,10.1-24.4c6.3-8.6,6.3-20.5,6.3-21.7l0,0h0.9H611C611.3,222.5,595.8,208.5,576.7,208.5z
			"/>
		<linearGradient id="SVGID_7_" gradientUnits="userSpaceOnUse" x1="558.0835" y1="270.9416" x2="595.7702" y2="270.9416">
			<stop  offset="0" style="stop-color:#F2D397"/>
			<stop  offset="0.4319" style="stop-color:#F3D195"/>
			<stop  offset="0.7526" style="stop-color:#F5CC8F"/>
			<stop  offset="1" style="stop-color:#F3B699"/>
		</linearGradient>
		<path style="fill:url(#SVGID_7_);" d="M595.8,244.5C595.8,244.2,595.8,244.2,595.8,244.5C595.5,244.2,595.5,244.2,595.8,244.5
			c-0.3-0.3-1.2,1.5-2.7,4.2c-2.7-0.9-5.7-0.9-8.3-0.6c-0.9,0-1.8,0.3-2.4,0.6c-1.2-0.6-3.6-0.3-4.5,0c-0.3,0-0.9,0-1.2,0.3
			c-1.5-1.5-4.8-1.2-6.3-0.6l0,0c-1.2-0.3-2.7,0-3.6,0c-1.8,0.3-3.3,0.9-5.1,1.2c-1.5-3.3-2.7-5.7-2.7-5.7s-0.3-0.3-0.3,0
			c0,0-0.3,0.3,0,0.3c0,0.3,11.6,23.2,13.1,25.9c1.2,2.4,1.5,4.5,1.5,5.4c-0.3,0-0.6,0.3-0.6,0.3l0,0l-0.6,6.6
			c-0.3,1.2-0.6,2.4-0.9,2.7c-0.3,0.3-0.3,4.5-0.3,12.5c0,0,0,0.3,0.3,0.3l0,0c0,0,0.3,0,0.3-0.3c0-4.5,0-11.6,0-12.2
			c0.3-0.3,0.9-2.1,0.9-2.7l0.6-6.6l0.3-0.3c0,0,0.3,0,0.3,0.9c0.3,2.1,1.2,5.1,1.8,6.3c0.3,0.6,0.6,0.6,0.6,0.9c0,0,0,0,0.3,1.2
			c0,2.1,0,11.9,0,12.2c0,0,0,0.3,0.3,0.3l0,0c0,0,0.3,0,0.3-0.3c0,0,0-10.1,0-12.2c0-1.2,0-1.5-0.3-1.5c0,0-0.3,0-0.6-0.6
			c-0.6-1.5-1.5-4.2-1.8-6.3c0-0.6-0.3-0.9-0.6-1.2c0-0.6,0-3-1.5-5.7c-1.2-1.8-6.6-12.8-10.1-19.9c1.5-0.3,3-0.9,4.8-1.2
			c0.9-0.3,1.8-0.3,2.7-0.3c0.3,0,0.3,0,0.6,0c-1.2,0.6-3,2.1-1.2,3c1.5,0.6,4.2-1.8,2.4-3c0.6-0.3,1.5-0.3,2.1-0.3
			c0.9,0,1.5,0,2.4,0.3c0.3,0,0.3,0.3,0.6,0.3c-0.6,0.3-1.2,0.3-1.5,0.6c-0.3,0.3-0.3,0.9,0.3,1.2c1.2,0.6,3-0.6,2.1-1.5
			c0.3,0,0.6,0,0.9,0c0.9-0.3,2.1-0.3,3-0.3c0.3,0,0.3,0,0.6,0l0,0l0,0c-0.6,0.3-1.8,0.6-1.8,1.5c0,1.8,2.7,0.9,3-0.3
			c0.3-0.3,0-0.9,0-0.9c0.3,0,0.6,0,0.9-0.3c3-0.6,6.6-0.6,9.5,0.3c-3.6,6.8-9.5,19.1-10.7,21.1c-1.5,2.7-1.5,5.1-1.5,5.7
			c-0.3,0.3-0.3,0.6-0.6,1.2c-0.3,1.8-1.2,4.8-1.8,6.3c-0.3,0.6-0.3,0.6-0.6,0.6c-0.3,0.3-0.3,0.3-0.3,1.5c0,2.1,0,11.9,0,12.2
			c0,0,0,0.3,0.3,0.3l0,0c0,0,0.3,0,0.3-0.3c0,0,0-9.8,0-12.2c0-1.2,0-1.2,0.3-1.2c0.3,0,0.3-0.3,0.6-0.9c0.6-1.5,1.5-4.5,1.8-6.3
			c0-0.9,0.3-0.9,0.3-0.9s0.3,0,0.3,0.3l0.6,6.6c0,0.6,0.6,2.4,0.9,2.7c0.3,0.6,0.3,7.7,0,12.2c0,0,0,0.3,0.3,0.3l0,0
			c0,0,0.3,0,0.3-0.3c0-8,0-12.2-0.3-12.5c-0.3-0.3-0.6-1.5-0.9-2.4l-0.6-6.6l0,0c0,0-0.3-0.3-0.6-0.3c0-0.9,0.3-3,1.5-5.4
			C584.2,267.4,595.5,244.5,595.8,244.5z M570.2,250.2c-0.3,0.3-0.9,1.2-1.5,0.9c-1.8-0.6,0.3-1.8,1.2-2.4
			C570.8,249.3,570.8,249.6,570.2,250.2z M575.8,250.5c-0.3,0-0.6,0.3-0.6,0c-0.6-0.3-0.6-0.6,0-0.9c0.3-0.3,0.6-0.3,0.9-0.3
			C576.4,249.6,576.4,250.2,575.8,250.5z M581.2,250.8c-0.3-0.3-0.3-0.6-0.6-1.2c0.3,0,0.6-0.3,0.9-0.3l0,0
			C582.1,250.2,581.8,250.5,581.2,250.8z"/>
		<path class="st15" d="M588.9,210.3c-3.9-1.2-7.7-2.1-11.9-2.1c-18.8,0-34.2,14-34.2,31.3c0,0.3-0.3,12.8,6.3,22
			c7.1,9.8,10.1,19.9,10.1,24.4v1.2c0,4.5,0.3,6.8,3.3,7.7c0,0,0.9,0.3,2.1,0.6c0-2.7-0.3-5.4-0.3-8.6c-0.6-12.8-6-19.9-6-19.9
			s-14.3-16.7-6.3-37.5C558,213.2,579.4,210.9,588.9,210.3z"/>
		<linearGradient id="SVGID_8_" gradientUnits="userSpaceOnUse" x1="574.2503" y1="266.1323" x2="612.1383" y2="266.1323">
			<stop  offset="0" style="stop-color:#F2D397"/>
			<stop  offset="0.4319" style="stop-color:#F3D195"/>
			<stop  offset="0.7526" style="stop-color:#F5CC8F"/>
			<stop  offset="1" style="stop-color:#F3B699"/>
		</linearGradient>
		<path style="opacity:0.5;fill:url(#SVGID_8_);enable-background:new    ;" d="M574.4,296.6c4.8,0.3,10.7-0.3,17.3-1.8
			c3-0.9,3.3-3.3,3.3-7.7v-1.2c0-4.5,3-14.3,10.1-24.4c6.3-8.6,6.3-20.5,6.3-21.7l0,0h0.9h-0.9c0-1.5,0-3-0.3-4.2
			c-2.4,11.3-7.7,31.6-19.4,37.5c0,0-3,0.9-2.7,10.4C588.9,283.2,590.7,293.9,574.4,296.6z"/>
		
			<ellipse transform="matrix(0.8844 -0.4668 0.4668 0.8844 -37.9795 305.9201)" class="st15" cx="598.5" cy="229.6" rx="4.2" ry="6"/>
	</g>
	<g>
		<path class="st7" d="M606.5,297.8c-0.3-2.1-1.2-3.6-2.4-5.1c-1.2-1.5-2.7-2.4-4.5-3c-1.5-0.6-3.3-1.2-5.1-1.5s-3.3-0.3-5.1-0.3
			s-3.3,0.3-5.1,0.6c-3.3,0.9-6.6,3.3-7.4,6.8c-0.3,1.5-0.6,3.3-0.3,5.1s1.2,3.3,2.1,4.8c0.6,0.9,1.5,1.5,2.4,2.1
			c-1.8,0.9-3.3,2.4-4.2,4.2c-0.6,1.2-0.9,2.7-0.6,3.9c0,1.2,0.6,2.7,1.2,3.6s1.2,1.8,2.1,2.4c-1.8,1.2-3.3,3-3.9,5.1
			c-0.9,2.4-0.6,5.1,0.6,7.4c1.2,2.1,3.3,3.9,5.4,5.1c2.1,1.2,4.8,1.8,7.1,1.8c2.4,0.3,4.8,0,7.1-0.6c2.4-0.6,4.8-1.8,6.6-3.9
			c0.9-1.2,1.5-2.4,1.8-3.6c0-0.3,0-0.6,0-0.9v-0.6c0-3.6-1.8-8.3-1.8-8.3c0.6-0.9,1.5-2.1,1.8-3.3c0.6-1.2,0.9-2.7,0.9-4.2
			c0.3-5.4-2.4-7.4-2.4-7.4l0,0c1.2-1.2,1.8-2.7,2.4-4.2c0.3-0.9,0.3-1.8,0.6-2.7c0-0.3,0-0.9,0-1.2
			C606.5,299,606.5,298.4,606.5,297.8z M602,331.2c0,0.3,0,0.6,0,0.6c-0.3,0.9-0.6,1.8-1.2,2.4c-1.2,1.5-3,2.7-5.1,3.3
			c-2.1,0.6-4.2,0.9-6.6,0.6c-2.4,0-4.2-0.6-6.3-1.5c-1.8-0.9-3.6-2.4-4.8-4.2c-1.2-1.8-1.5-3.9-0.9-6c0.6-1.8,2.1-3.3,3.6-4.5
			c0.3,0.3,0.9,0.6,1.5,0.9l0,0c8.9,6.8,17,2.1,17,2.1c0.6-0.3,1.2-0.9,1.8-1.5c0.3,1.5,0.6,3.3,0.9,4.8c0,0.6,0,1.2,0,1.5
			C602.3,330.9,602,331.2,602,331.2z M603.8,313.9c0,2.1-0.6,4.5-1.8,6.3c-1.2,1.8-3,3.3-4.8,4.2c-2.1,0.9-4.5,1.2-6.6,0.9
			c-2.1-0.3-4.5-1.2-6.3-2.4c-0.9-0.6-1.8-1.2-2.7-2.1c-0.9-0.9-1.5-1.5-2.1-2.4c-1.2-1.8-1.5-4.2-0.6-6c0.9-1.8,2.7-3,4.5-3.9
			c0,0,0,0,0.3,0c1.5,0.6,3.3,1.2,4.8,1.5c3.3,0.6,6.6,1.2,10.1,0.3c1.2-0.3,2.4-0.9,3.6-1.5C603.2,310,603.8,312.1,603.8,313.9z
			 M603.8,299.3c0,0.3,0,0.9,0,1.2c0,0.9-0.3,1.5-0.3,2.1c-0.3,1.5-0.9,2.7-2.1,3.6c-0.9,0.9-2.1,1.5-3.6,2.1c-3,0.9-6,0.6-9.2,0
			c-3-0.6-6.3-1.5-8-3.6c-0.9-1.2-1.8-2.4-2.1-3.9c-0.3-1.5,0-3,0.3-4.5c0.3-1.2,1.2-2.7,2.4-3.6c1.2-0.9,2.4-1.5,3.9-1.8
			c3-0.6,6.3-0.3,9.2,0c3,0.6,6,1.8,7.7,3.9c0.9,0.9,1.5,2.4,1.8,3.6c0,0.3,0,0.3,0,0.6C603.8,298.7,603.8,299,603.8,299.3z"/>
		<linearGradient id="SVGID_9_" gradientUnits="userSpaceOnUse" x1="577.4254" y1="330.3159" x2="602.207" y2="330.3159">
			<stop  offset="0" style="stop-color:#F2D397"/>
			<stop  offset="0.4319" style="stop-color:#F3D195"/>
			<stop  offset="0.7526" style="stop-color:#F5CC8F"/>
			<stop  offset="1" style="stop-color:#F3B699"/>
		</linearGradient>
		<path class="st14" d="M602.3,330.6c0,0.3,0,0.6,0,0.9c0,0.3,0,0.6,0,0.6c-0.3,0.9-0.6,1.8-1.2,2.4c-1.2,1.5-3,2.7-5.1,3.3
			c-2.1,0.6-4.2,0.9-6.6,0.6c-2.4,0-4.2-0.6-6.3-1.5c-1.8-0.9-3.6-2.4-4.8-4.2c-1.2-1.8-1.5-3.9-0.9-6c0.6-1.8,2.1-3.3,3.6-4.5
			c0.3,0.3,0.9,0.6,1.5,0.9l0,0c8.9,6.8,17,2.1,17,2.1c0.6-0.3,1.2-0.9,1.8-1.5c0.3,1.5,0.6,3.3,0.9,4.8
			C602,329.4,602.3,330,602.3,330.6z"/>
		<linearGradient id="SVGID_10_" gradientUnits="userSpaceOnUse" x1="578.3904" y1="316.9151" x2="603.7707" y2="316.9151">
			<stop  offset="0" style="stop-color:#F2D397"/>
			<stop  offset="0.4319" style="stop-color:#F3D195"/>
			<stop  offset="0.7526" style="stop-color:#F5CC8F"/>
			<stop  offset="1" style="stop-color:#F3B699"/>
		</linearGradient>
		<path style="fill:url(#SVGID_10_);" d="M603.8,313.9c0,2.1-0.6,4.5-1.8,6.3c-1.2,1.8-3,3.3-4.8,4.2c-2.1,0.9-4.5,1.2-6.6,0.9
			c-2.1-0.3-4.5-1.2-6.3-2.4c-0.9-0.6-1.8-1.2-2.7-2.1c-0.9-0.9-1.5-1.5-2.1-2.4c-1.2-1.8-1.5-4.2-0.6-6c0.9-1.8,2.7-3,4.5-3.9
			c0,0,0,0,0.3,0c1.5,0.6,3.3,1.2,4.8,1.5c3.3,0.6,6.6,1.2,10.1,0.3c1.2-0.3,2.4-0.9,3.6-1.5C603.2,310,603.8,312.1,603.8,313.9z"/>
		<linearGradient id="SVGID_11_" gradientUnits="userSpaceOnUse" x1="578.5169" y1="299.7005" x2="603.9479" y2="299.7005">
			<stop  offset="0" style="stop-color:#F2D397"/>
			<stop  offset="0.4319" style="stop-color:#F3D195"/>
			<stop  offset="0.7526" style="stop-color:#F5CC8F"/>
			<stop  offset="1" style="stop-color:#F3B699"/>
		</linearGradient>
		<path class="st17" d="M603.8,299.3c0,0.3,0,0.9,0,1.2c0,0.9-0.3,1.5-0.3,2.1c-0.3,1.5-0.9,2.7-2.1,3.6c-0.9,0.9-2.1,1.5-3.6,2.1
			c-3,0.9-6,0.6-9.2,0c-3-0.6-6.3-1.5-8-3.6c-0.9-1.2-1.8-2.4-2.1-3.9c-0.3-1.5,0-3,0.3-4.5c0.3-1.2,1.2-2.7,2.4-3.6
			c1.2-0.9,2.4-1.5,3.9-1.8c3-0.6,6.3-0.3,9.2,0c3,0.6,6,1.8,7.7,3.9c0.9,0.9,1.5,2.4,1.8,3.6c0,0.3,0,0.3,0,0.6
			C603.8,298.7,603.8,299,603.8,299.3z"/>
		<path class="st7" d="M572.9,307.9c-0.9-3.9-4.2-8-8.3-10.1c-3-1.8-6-2.1-8.3-0.9c-4.2,1.8-6.8,5.7-6.8,10.4
			c0,6.6,4.2,14,11.3,15.5c0.9,0,1.8,0.3,2.4,0.3c2.7,0,5.1-0.9,6.8-2.7C573.2,316.9,573.5,311.5,572.9,307.9z M568.7,319.2
			c-1.8,2.1-4.5,2.7-8,2.1c-1.2-0.3-2.4-0.6-3.6-1.5c-3.6-2.7-7.1-9.5-5.7-14.9c1.2-5.4,5.4-6.8,6-6.8c1.8-0.3,3.9,0,6.3,1.2
			c3.9,2.1,6.8,5.7,7.7,9.2C572,311.8,571.7,316.3,568.7,319.2z"/>
		<linearGradient id="SVGID_12_" gradientUnits="userSpaceOnUse" x1="551.2659" y1="309.7693" x2="571.6564" y2="309.7693">
			<stop  offset="0" style="stop-color:#F2D397"/>
			<stop  offset="0.4319" style="stop-color:#F3D195"/>
			<stop  offset="0.7526" style="stop-color:#F5CC8F"/>
			<stop  offset="1" style="stop-color:#F3B699"/>
		</linearGradient>
		<path class="st18" d="M568.7,319.2c-1.8,2.1-4.5,2.7-8,2.1c-1.2-0.3-2.4-0.6-3.6-1.5c-3.6-2.7-7.1-9.5-5.7-14.9
			c1.2-5.4,5.4-6.8,6-6.8c1.8-0.3,3.9,0,6.3,1.2c3.9,2.1,6.8,5.7,7.7,9.2C572,311.8,571.7,316.3,568.7,319.2z"/>
		<path class="st21" d="M585.4,311.5c9.5,1.2,14.9-1.2,17-2.4c0,0,0-0.3-0.3-0.3c-1.2,0.6-2.4,1.2-3.6,1.5
			c-3.6,0.9-6.8,0.3-10.1-0.3c-1.5-0.3-3.3-0.9-4.8-1.5c0,0,0,0-0.3,0c-1.8,0.9-3.6,2.1-4.5,3.9c-0.9,1.8-0.6,4.2,0.6,6
			C578.5,312.4,585.4,311.5,585.4,311.5z"/>
		<path class="st21" d="M601.8,325.5c0-0.3-0.3-0.9-0.3-1.2c-0.6,0.6-1.2,0.9-1.8,1.5c0,0-7.7,4.8-17-2.1l0,0
			c-0.6-0.3-0.9-0.6-1.5-0.9c-1.8,1.2-3,2.7-3.6,4.5c-0.6,1.5-0.3,3.3,0.3,5.1c1.5-2.1,4.8-5.1,10.4-3.9
			C594.3,329.1,599.4,326.7,601.8,325.5z"/>
		<path class="st21" d="M551.4,309.7c0.6,4.2,3.3,8.3,6,10.1c1.2,0.6,2.4,1.2,3.6,1.5c3.3,0.6,6,0,8-2.1c1.2-1.2,1.8-2.7,2.4-4.2
			c-0.9,0.3-2.4,0.9-4.5,1.2C558.6,317.8,552.6,311.2,551.4,309.7z"/>
		<path class="st21" d="M594.3,290.7c-3-0.6-6.3-0.9-9.2,0c-1.5,0.3-3,0.9-3.9,1.8c-1.2,0.9-2.1,2.1-2.4,3.6c-0.3,1.5-0.6,3-0.3,4.5
			c0.3,1.5,0.9,2.7,2.1,3.9l0,0c0-1.8,0-3.9,0.6-6.3c1.8-7.1,14.3-7.4,14.3-7.4C595.2,291,594.9,291,594.3,290.7z"/>
	</g>
</g>
</svg>
