<?xml version="1.0" encoding="utf-8"?>
<!-- Generator: Adobe Illustrator 21.0.0, SVG Export Plug-In . SVG Version: 6.00 Build 0)  -->
<svg version="1.1" id="圖層_1" xmlns="http://www.w3.org/2000/svg" xmlns:xlink="http://www.w3.org/1999/xlink" x="0px" y="0px"
	 viewBox="0 0 822.9 601.4" style="enable-background:new 0 0 822.9 601.4;" xml:space="preserve">
<style type="text/css">
	.st0{fill:url(#SVGID_1_);}
	.st1{fill:#D59543;}
	.st2{fill:#AB6C21;}
	.st3{opacity:0.6;fill:#D59543;enable-background:new    ;}
	.st4{fill:url(#SVGID_2_);}
	.st5{fill:url(#SVGID_3_);}
	.st6{fill:url(#SVGID_4_);}
	.st7{fill:#E1BE3F;}
	.st8{opacity:0.6;fill:#E1BE3F;enable-background:new    ;}
	.st9{fill:url(#SVGID_5_);}
	.st10{fill:#5F5F5F;}
	.st11{fill:url(#SVGID_6_);}
	.st12{opacity:0.6;fill:url(#SVGID_7_);enable-background:new    ;}
	.st13{fill:url(#SVGID_8_);}
	.st14{fill:url(#SVGID_9_);}
	.st15{opacity:0.6;}
	.st16{fill:#E2BF40;}
	.st17{fill:#AC6D21;}
	.st18{fill:url(#SVGID_10_);}
	.st19{fill:#FFFFFF;}
	.st20{fill:#814323;}
	.st21{fill:#F4E3A5;}
	.st22{fill:#C88E2C;}
	.st23{fill:#AC7327;}
	.st24{fill:url(#SVGID_11_);}
	.st25{fill:url(#SVGID_12_);}
	.st26{fill:#EAA593;}
	.st27{fill:#3F210F;}
	.st28{opacity:0.25;fill:#E1BE3F;enable-background:new    ;}
	.st29{opacity:0.5;fill:#E1BE3F;enable-background:new    ;}
	.st30{fill:#F8E5A9;}
	.st31{fill:#DDBC90;}
	.st32{fill:#D7C6A6;}
	.st33{fill:url(#SVGID_13_);}
	.st34{fill:#4A1E0E;}
	.st35{opacity:0.4;fill:#E1BE3F;enable-background:new    ;}
	.st36{opacity:0.72;fill:#E1BE3F;enable-background:new    ;}
	.st37{fill:#875424;}
	.st38{fill:#3F210E;}
	.st39{fill:#3A1D13;}
	.st40{fill:url(#SVGID_14_);}
	.st41{fill:url(#SVGID_15_);}
	.st42{fill:#C58333;}
	.st43{fill:url(#SVGID_16_);}
	.st44{fill:url(#SVGID_17_);}
	.st45{fill:url(#SVGID_18_);}
	.st46{fill:url(#SVGID_19_);}
	.st47{fill:#FDEDD0;}
	.st48{fill:none;stroke:#FDEDD0;stroke-width:0.8715;stroke-linecap:round;stroke-linejoin:round;stroke-miterlimit:10;}
	.st49{fill:url(#SVGID_20_);}
	.st50{fill:url(#SVGID_21_);}
	.st51{opacity:0.8;fill:url(#SVGID_22_);enable-background:new    ;}
	.st52{opacity:0.6;fill:#5F5F5F;enable-background:new    ;}
	.st53{opacity:0.5;fill:url(#SVGID_23_);enable-background:new    ;}
	.st54{fill:url(#SVGID_24_);}
	.st55{fill:url(#SVGID_25_);}
	.st56{opacity:0.8;fill:#FFFFFF;enable-background:new    ;}
	.st57{opacity:0.5;fill:url(#SVGID_26_);enable-background:new    ;}
	.st58{fill:url(#SVGID_27_);}
	.st59{fill:url(#SVGID_28_);}
	.st60{fill:url(#SVGID_29_);}
	.st61{fill:url(#SVGID_30_);}
	.st62{opacity:0.6;fill:#E2BF40;enable-background:new    ;}
	.st63{fill:url(#SVGID_31_);}
	.st64{fill:url(#SVGID_32_);}
	.st65{fill:url(#SVGID_33_);}
	.st66{fill:#2D613A;}
	.st67{fill:#E2F0E3;}
	.st68{opacity:0.6;fill:#B9DCB9;enable-background:new    ;}
	.st69{fill:none;stroke:#FFFFFF;stroke-width:1.1894;stroke-linecap:round;stroke-miterlimit:10;}
	.st70{fill:url(#SVGID_34_);}
	.st71{fill:#C8C9CA;}
	.st72{fill:#E4CEA9;}
	.st73{fill:#CF361C;}
	.st74{fill:#C9A675;}
	.st75{fill:#B8761E;}
	.st76{fill:#8A2221;}
	.st77{fill:url(#SVGID_35_);}
	.st78{fill:url(#SVGID_36_);}
	.st79{fill:url(#SVGID_37_);}
	.st80{fill:#888888;}
	.st81{fill:#DBDCDC;}
	.st82{fill:#73291B;}
	.st83{fill:url(#SVGID_38_);}
	.st84{fill:url(#SVGID_39_);}
	.st85{fill:url(#SVGID_40_);}
	.st86{fill:url(#SVGID_41_);}
	.st87{fill:url(#SVGID_42_);}
	.st88{fill:url(#SVGID_43_);}
	.st89{fill:#33AEAA;}
	.st90{fill:#2B7470;}
	.st91{fill:url(#SVGID_44_);}
	.st92{fill:url(#SVGID_45_);}
	.st93{fill:url(#SVGID_46_);}
	.st94{fill:url(#SVGID_47_);}
	.st95{fill:url(#SVGID_48_);}
	.st96{fill:url(#SVGID_49_);}
	.st97{fill:url(#SVGID_50_);}
	.st98{opacity:0.6;fill:none;stroke:#33AEAA;stroke-width:1.3823;stroke-miterlimit:10;enable-background:new    ;}
	.st99{opacity:0.6;fill:none;stroke:#33AEAA;stroke-width:1.2333;stroke-miterlimit:10;enable-background:new    ;}
	.st100{fill:#C2E4EA;}
	.st101{opacity:0.5;fill:url(#SVGID_51_);enable-background:new    ;}
	.st102{opacity:0.5;fill:url(#SVGID_52_);enable-background:new    ;}
	.st103{fill:url(#SVGID_53_);}
	.st104{fill:url(#SVGID_54_);}
	.st105{fill:url(#SVGID_55_);}
	.st106{fill:#ACB530;}
	.st107{fill:url(#SVGID_56_);}
	.st108{fill:url(#SVGID_57_);}
	.st109{fill:url(#SVGID_58_);}
	.st110{fill:none;stroke:#ACB530;stroke-width:1.1805;stroke-miterlimit:10;}
	.st111{opacity:0.6;fill:url(#SVGID_59_);enable-background:new    ;}
	.st112{fill:url(#SVGID_60_);}
	.st113{fill:url(#SVGID_61_);}
	.st114{fill:url(#SVGID_62_);}
	.st115{fill:url(#SVGID_63_);}
	.st116{fill:url(#SVGID_64_);}
	.st117{fill:url(#SVGID_65_);}
	.st118{fill:url(#SVGID_66_);}
	.st119{fill:url(#SVGID_67_);}
	.st120{fill:url(#SVGID_68_);}
	.st121{fill:url(#SVGID_69_);}
	.st122{fill:#933023;}
	.st123{fill:#13535D;}
	.st124{fill:#0A1315;}
	.st125{fill:#121F22;}
	.st126{fill:#223237;}
	.st127{fill:url(#SVGID_70_);}
	.st128{fill:#B4412A;}
	.st129{fill:url(#SVGID_71_);}
	.st130{opacity:0.4;fill:#223237;enable-background:new    ;}
	.st131{opacity:0.6;fill:#247082;enable-background:new    ;}
	.st132{opacity:0.7;fill:#223237;enable-background:new    ;}
	.st133{fill:url(#SVGID_72_);}
	.st134{fill:url(#SVGID_73_);}
	.st135{fill:url(#SVGID_74_);}
	.st136{fill:url(#SVGID_75_);}
	.st137{fill:url(#SVGID_76_);}
	.st138{fill:url(#SVGID_77_);}
	.st139{fill:url(#SVGID_78_);}
	.st140{fill:url(#SVGID_79_);}
	.st141{fill:url(#SVGID_80_);}
	.st142{fill:url(#SVGID_81_);}
	.st143{fill:url(#SVGID_82_);}
	.st144{fill:url(#SVGID_83_);}
	.st145{fill:url(#SVGID_84_);}
	.st146{fill:url(#SVGID_85_);}
	.st147{fill:url(#SVGID_86_);}
	.st148{fill:url(#SVGID_87_);}
	.st149{fill:#D69644;}
</style>
<g>
	<g>
		
			<linearGradient id="SVGID_1_" gradientUnits="userSpaceOnUse" x1="292.0154" y1="220.8728" x2="377.0554" y2="220.8728" gradientTransform="matrix(1 0 0 -1 0 602)">
			<stop  offset="0" style="stop-color:#F2D397"/>
			<stop  offset="0.5331" style="stop-color:#F3D093"/>
			<stop  offset="0.7526" style="stop-color:#F5CC8F"/>
			<stop  offset="1" style="stop-color:#F3B699"/>
		</linearGradient>
		<path class="st0" d="M377.2,357.1l-8.1-18.3c0-0.4,0-1-0.2-1.5c0-0.2,0-0.4,0-0.4c0-0.4-0.2-0.8-0.2-1s0-0.4-0.2-0.6
			c-0.2-0.4-0.2-0.8-0.4-1.2c0-0.2,0-0.2-0.2-0.4c-0.2-0.6-0.4-1-0.6-1.7c0-0.2-0.2-0.2-0.2-0.4c-0.2-0.4-0.4-0.8-0.6-1.2
			c0-0.2-0.2-0.4-0.2-0.6c-0.2-0.4-0.4-0.8-0.6-1c0-0.2-0.2-0.4-0.2-0.6c-2.9-5.6-7.1-11-10-14.6c-0.2-0.2-0.2-0.2-0.4-0.4
			c-15.8,20-33.7,47.3-47.9,81.6c0,0-12.9,12.3-12.9,29.8c0,17.5,13.3,23.1,20.6,21.4l0,0c8.1,7.1,19.6,2.7,21.9-8.7v-0.2
			c0.4,0.2,1,0.6,1.7,0.8c4.8,2.5,11.2-0.6,13.3-5l0,0l0,0c0-0.2,0.2-0.4,0.2-0.6l-0.2-0.2l1.7-14.2h-0.4v-3.5l-0.6-2.5
			c0.2-0.6,0.6-1.5,0.8-2.3l0.6-1l0.8-2.5v-0.6c2.7-6.5,6.7-15.4,11.9-26c3.3-6.9,7.3-14.2,11.2-21L377.2,357.1z"/>
	</g>
	<path class="st1" d="M326.6,417.3c0,0-2.5,19.2,8.3,25.4l1.9-5.4C337,437.3,325.4,431.5,326.6,417.3z"/>
	<path class="st1" d="M308.1,423.3c0,0-5,12.7-1.2,21.9c0,0,3.3,1.2,8.3,0.8C315.2,446,306.4,441.7,308.1,423.3z"/>
	<path class="st2" d="M326.4,423.3c0,0-0.2,11.5,9.6,15.6l0.4-1.7C336.4,437.3,326.2,428.1,326.4,423.3z"/>
	<path class="st2" d="M307.2,430c0,0-0.6,10.6,5,16.2l3.5-0.2C315.8,446,308.1,438.8,307.2,430z"/>
	<path class="st3" d="M377.2,357.1l-8.1-18.3c0-0.4,0-1-0.2-1.5c0-0.2,0-0.4,0-0.4c0-0.4-0.2-0.8-0.2-1s0-0.4-0.2-0.6
		c-0.2-0.4-0.2-0.8-0.4-1.2c0-0.2,0-0.2-0.2-0.4c-0.2-0.6-0.4-1-0.6-1.7c0-0.2-0.2-0.2-0.2-0.4c-0.2-0.4-0.4-0.8-0.6-1.2
		c0-0.2-0.2-0.4-0.2-0.6c-0.2-0.4-0.4-0.8-0.6-1c0-0.2-0.2-0.4-0.2-0.6c0,0,0-0.2-0.2-0.2c-10.8,21.2-22.5,49.6-23.1,73.5
		c0,0,13.3,16.9,8.5,33.3c0.4-0.4,0.6-1,0.8-1.7l0,0l0,0c0-0.2,0.2-0.4,0.2-0.6l-0.2-0.2l1.7-14.2h-0.4v-3.5l-0.8-3.1l1.9-2.7l1-2.5
		l20-43.5c0,0,1-1.2,2.9-4.2L377.2,357.1z"/>
	<g>
		<path class="st2" d="M353,413.4l0.6-1.2l0,0c0.2-0.4,13.1-28.9,25-52.1l-1.2-2.9l0,0c-10.8,20.8-22.7,47.1-25.4,52.7
			c-0.4-1.2-0.8-1.7-0.8-1.7l0,0c-1-1.9-2.3-3.5-2.5-3.5c-0.2-0.2-0.6-0.2-0.8,0c-0.2,0.2-0.2,0.6,0,0.8c0.2,0.2,0.6,0.6,0.8,1
			c0,0,6.9,10.6,3.1,25.8l0,0c-0.8,2.3-2.9,4.2-5.4,5.2c-2.5,1-5.2,1-7.3,0c-8.5-4.2-13.1-13.3-11.2-22.3c0-0.4-0.2-0.6-0.4-0.8
			c-0.4,0-0.6,0.2-0.8,0.4c-1.9,8.7,2.1,17.7,9.8,22.5c-1.2,5.4-4.6,9.4-9.2,10.8c-4.4,1.2-9,0-12.5-3.5c-9-9-5.4-22.5-5.4-22.5
			c0-0.4-0.2-0.6-0.4-0.8c-0.4,0-0.6,0.2-0.8,0.4c0,0.2-3.5,14.4,5.8,23.7l0,0c-2.9,0.2-7.3-0.6-11.2-3.7c-3.3-2.7-7.3-7.9-7.3-17.3
			c0-16.9,12.7-29.1,12.7-29.4l0.2-0.2c14-34.4,32.1-61.4,47.7-81.2l-0.2-0.2c-1-1.2-2.1-2.3-2.7-3.1l0,0
			c-5.2,6.5-10.6,13.7-16,22.1l0,0c0,0-25.8,38.5-31.6,60.2c-7.1,9.2-20.2,30.2-7.7,46c1.2,1.9,2.7,3.3,4,4.4c0.4,0.4,1,0.8,1.7,1
			c0.2,0,0.2,0.2,0.2,0.2l0,0c2.9,1.9,6,2.7,9.2,2.7c0.8,0,1.7,0,2.3-0.2c2.7,2.3,5.8,3.3,9,3.3c1.2,0,2.5-0.2,3.7-0.6
			c5-1.5,8.5-5.6,10-11.5c0.2,0.2,0.6,0.4,0.8,0.4c1.2,0.6,2.7,0.8,4.2,0.8c1.5,0,2.7-0.2,4.2-0.8c2.7-1,4.8-3.1,5.8-5.4l0,0
			c0,0,0,0,0-0.2c0-0.2,0.2-0.2,0.2-0.4l0,0c0,0,1-2.7,1.5-7.1c0.2-1.7,0.2-3.7,0-5.8C354.1,417.3,353.5,415,353,413.4z"/>
	</g>
</g>
<g>
	<g>
		
			<linearGradient id="SVGID_2_" gradientUnits="userSpaceOnUse" x1="605.8326" y1="237.511" x2="720.2209" y2="426.5526" gradientTransform="matrix(0.9745 -0.2242 0.2242 0.9745 -253.8101 188.6177)">
			<stop  offset="0" style="stop-color:#888888"/>
			<stop  offset="0.5212" style="stop-color:#DBDCDC"/>
			<stop  offset="1" style="stop-color:#9E9E9F"/>
		</linearGradient>
		<path class="st4" d="M454.3,282.5c-0.8-0.8-1.2-1.6-2-2.8s-2-2-3.2-2.8l0,0c0.4,1.6,1.2,3.6,2,5.6c1.2,3.6,2.4,7.2,2.8,9.2
			c0,0.4,0,0.4,0,0.8c0,0.4-2,2.8-9.6,4.8c-7.6,1.6-10.4,0-10.4,0c-0.4,0-0.8,0-0.8-0.4c-0.4-2-0.8-6-1.6-9.6
			c-0.4-2.4-0.4-4.4-0.8-6l0,0c-0.8,1.2-1.2,2.4-1.6,4c-0.4,1.2-0.4,2-0.8,3.2c-1.6,7.2-3.6,16-0.4,21.2c0.8,0.8,6,2,10.8,2.8h0.4
			c0.4,0,1.2,0.4,1.2,0.8l20.8,89.8c0,0.4,0,0.8-0.4,0.8c-4,3.6-5.6,9.2-4.4,14.4c2,8.4,10,13.6,18.4,11.6c8.4-2,13.6-10,11.6-18.4
			c-1.2-5.2-4.8-9.2-10-11.2c-0.4,0-0.4-0.4-0.8-0.8l-20.8-89.8c0-0.4,0-0.8,0.4-1.2c4.4-3.2,8-6.4,8.4-7.2
			C464.3,295.4,458.7,288.6,454.3,282.5z M479.1,413.2c0.8,4.4-1.6,8.4-6,9.6c-4.4,0.8-8.4-1.6-9.6-6c-1.2-4.4,1.6-8.4,6-9.6
			C473.9,406,478.3,408.8,479.1,413.2z"/>
		
			<linearGradient id="SVGID_3_" gradientUnits="userSpaceOnUse" x1="628.4579" y1="277.4893" x2="691.7662" y2="382.1148" gradientTransform="matrix(0.9745 -0.2242 0.2242 0.9745 -253.8101 188.6177)">
			<stop  offset="0" style="stop-color:#888888"/>
			<stop  offset="0.5212" style="stop-color:#DBDCDC"/>
			<stop  offset="1" style="stop-color:#9E9E9F"/>
		</linearGradient>
		<path class="st5" d="M467.9,399.6L467.9,399.6c-2.4,0.4-4.8-0.8-5.2-3.2l-18-78.2c-0.4-2.4,0.8-4.8,3.2-5.2l0,0
			c2.4-0.4,4.8,0.8,5.2,3.2l18,78.2C471.9,396.8,470.3,398.8,467.9,399.6z"/>
		
			<linearGradient id="SVGID_4_" gradientUnits="userSpaceOnUse" x1="647.7703" y1="241.8304" x2="666.8362" y2="273.3391" gradientTransform="matrix(0.9745 -0.2242 0.2242 0.9745 -253.8101 188.6177)">
			<stop  offset="0" style="stop-color:#888888"/>
			<stop  offset="0.5212" style="stop-color:#DBDCDC"/>
			<stop  offset="1" style="stop-color:#9E9E9F"/>
		</linearGradient>
		<path class="st6" d="M431.4,285.4c0,4.8-0.8,10.4,0.4,13.2c2,5.2,23.2,0.4,23.2-5.2c0-3.2-3.6-10.8-6.4-16.4l0,0
			c0.4,1.6,1.2,3.6,2,5.6c1.2,3.6,2.4,7.2,2.8,9.2c0,0.4,0,0.4,0,0.8c0,0.4-2,2.8-9.6,4.8c-7.6,1.6-10.4,0-10.4,0s-0.4,0-0.4-0.4
			c-0.4-2-0.8-6-1.6-9.6C431.8,286.6,431.4,286.2,431.4,285.4z"/>
		
			<linearGradient id="SVGID_5_" gradientUnits="userSpaceOnUse" x1="654.3928" y1="373.6474" x2="667.8646" y2="395.9116" gradientTransform="matrix(0.9745 -0.2242 0.2242 0.9745 -253.8101 188.6177)">
			<stop  offset="0" style="stop-color:#888888"/>
			<stop  offset="0.5212" style="stop-color:#DBDCDC"/>
			<stop  offset="1" style="stop-color:#9E9E9F"/>
		</linearGradient>
		<path class="st9" d="M481.9,412c-2-6.8-8.8-6.8-8.8-6.8l-0.4,2c3.2,0.4,5.6,2.8,6.4,6c0.8,3.6-1.2,7.6-4.4,9.2l0.8,2
			C480.7,422,483.9,418.4,481.9,412z"/>
		<g>
			<path class="st10" d="M475.5,432.1c-9.2,2-18.8-3.6-20.8-13.2c-1.2-5.6,0.4-11.6,4.4-16l-20.4-88.2c-7.6-1.2-11.6-2.4-12-3.6
				c-3.2-6-1.2-15.2,0.4-22.8c0.4-1.2,0.4-2,0.8-3.2c0.4-1.6,0.8-3.2,1.6-4.4l0.8-1.2c0.4-0.4,1.2-0.8,1.6-0.8
				c0.8,0,1.2,0.8,1.2,1.2c0.4,1.6,0.8,4.4,1.2,7.2c0.4,3.6,0.8,6.8,1.2,9.2c0.8,0.4,3.2,0.8,8.4-0.4c5.2-1.2,7.2-2.8,8-3.6
				c-0.4-2-1.6-5.6-2.8-8.8c-0.8-2.8-1.6-5.2-2.4-6.8c0-0.8,0-1.2,0.4-1.6c0.4-0.4,1.2-0.4,2,0l1.2,0.8c1.2,0.8,2.4,2,3.6,3.2
				c0.8,0.8,1.2,1.6,2,2.4c4.8,6,10.4,13.6,10,20.4c0,0.4,0,2-8.8,8.4l20.4,88.6c5.6,2,9.6,6.8,10.8,12.4
				C490.7,420.4,484.7,429.7,475.5,432.1z M438.6,312.6L438.6,312.6c0.8,0,1.2,0,1.6,0.8l20.8,89.8c0,0.4,0,0.8-0.4,0.8
				c-4,3.6-5.6,9.2-4.4,14.4c2,8.4,10,13.6,18.4,11.6c8.4-2,13.6-10,11.6-18.4c-1.2-5.2-4.8-9.2-10-11.2c-0.4,0-0.4-0.4-0.8-0.8
				l-20.8-89.8c0-0.4,0-0.8,0.4-1.2c4.4-3.2,8-6.4,8.4-7.2c0.4-6-5.2-13.2-9.6-18.8c-0.8-0.8-1.2-1.6-2-2.8l0,0
				c-0.8-1.2-2-2-3.2-2.8l0,0c0.4,1.6,1.2,3.6,2,5.6c1.2,3.6,2.4,7.2,2.8,9.2c0,0.4,0,0.4,0,0.8c0,0.4-2,2.8-9.6,4.8
				c-7.6,1.6-10.4,0-10.4,0s-0.4,0-0.4-0.4c-0.4-2-0.8-6-1.6-9.6c-0.4-2.4-0.4-4.4-0.8-6l0,0c-0.8,1.2-1.2,2.4-1.6,4
				c-0.4,1.2-0.4,2-0.8,3.2c-1.6,7.2-3.6,16-0.4,21.2C429,310.6,434.2,311.8,438.6,312.6z M463.9,301.4L463.9,301.4L463.9,301.4z
				 M473.5,424.8c-5.2,1.2-10.8-2-12-7.6c-1.2-5.2,2-10.8,7.6-12c5.2-1.2,10.8,2,12,7.6C482.3,418,479.1,423.6,473.5,424.8z
				 M469.5,407.2c-4.4,0.8-6.8,5.2-6,9.6c0.8,4.4,5.2,6.8,9.6,6s6.8-5.2,6-9.6C478.3,408.8,473.9,406,469.5,407.2z"/>
			<path class="st10" d="M469.1,405.2c-5.2,1.2-8.8,6.8-7.6,12s6.8,8.8,12,7.6c5.2-1.2,8.8-6.8,7.6-12
				C479.9,407.2,474.7,404,469.1,405.2z M473.1,422.8c-4.4,0.8-8.4-1.6-9.6-6c-1.2-4.4,1.6-8.4,6-9.6c4.4-0.8,8.4,1.6,9.6,6
				C480.3,417.2,477.5,421.6,473.1,422.8z"/>
		</g>
	</g>
	<g>
		<g>
			
				<linearGradient id="SVGID_6_" gradientUnits="userSpaceOnUse" x1="706.6328" y1="317.1132" x2="835.8947" y2="390.4212" gradientTransform="matrix(-1 0 0 1 1267.9242 0)">
				<stop  offset="0" style="stop-color:#F2D397"/>
				<stop  offset="0.5331" style="stop-color:#F3D093"/>
				<stop  offset="0.7526" style="stop-color:#F5CC8F"/>
				<stop  offset="1" style="stop-color:#F3B699"/>
			</linearGradient>
			<path class="st11" d="M456.7,348.3c0.4,0,0.8-0.4,0.4-0.8c0-0.4-0.4-0.8-0.8-0.4c-0.4,0-0.8,0-1.2,0.4l0,0c0,0-12.8,2-19.2,10
				c-2-4-2.8-8-1.6-11.6c1.6-4.8,6.4-8.8,14-11.6c18-6.4,41.3,0,41.3,0c0.4,0,0.4,0,0.8,0c11.6-11.6,35.3-12.4,35.7-12.4h0.4
				l-0.4-1.2c0,0,4.4-4.8,12-6c0,0,5.2,6.8,8.8,15.2c0.4,0.8,0.4,1.2,0.8,2l0,0l0,0c1.2,2.8,1.6,5.6,2.4,8.4
				c2.4,10.8,1.2,23.6-5.2,32.5c-0.4,0.4-12,13.6-40.1,10.8c-0.4,0-0.4,0-0.8,0l0,0c-12.4-1.6-12.4-1.6-12.8-0.8
				c-3.2,6.4-12.4,9.6-19.2,11.6c-6,1.6-13.2,3.2-18.8,1.6c-3.6-0.8-6.8-3.6-8.4-7.2c-2-4-2-8.4,0-12c4-8,14.4-8.4,14.4-8.4
				c0.4,0,0.8-0.4,0.8-0.8c0-0.4-0.4-2-0.8-2c-0.4,0-2.4,0-5.6,0.8l0,0c0,0-2.4,0.4-4.8,2l0,0c0,0-6.4,2.8-8,10
				c-0.8,0-1.2-0.4-2-0.8c-2.8-1.6-4-4.8-4.4-6.8c-0.8-4,0.4-8.4,2.8-11.6C441.4,354.3,447.9,350.7,456.7,348.3z"/>
		</g>
		<g class="st15">
			<path class="st149" d="M444.6,387.2c-1.6-3.2-1.6-6.8-0.8-10c1.6,6,5.6,15.6,18,15.2c14-0.4,20.8-4,23.2-5.2
				c-4,2.8-9.2,4.4-13.2,5.6c-6,1.6-13.2,3.2-18.8,1.6C449.5,393.6,446.6,391.2,444.6,387.2z"/>
			<path class="st149" d="M436.2,357.5c-2-4-2.8-8-1.6-11.6c0.8-2.8,2.8-5.2,5.6-7.6c-0.8,2-2.4,6.4,0.8,10c1.6,1.6,3.6,2,5.6,1.6
				C443,351.5,439,353.9,436.2,357.5z"/>
			<path class="st149" d="M439.4,377.1c-2.8-1.6-4-4.8-4.4-6.8c-0.4-2.8,0-6,1.2-8.8c0.4,4.4,2,10.4,7.2,11.6l0,0
				c-0.8,1.2-1.6,2.8-2,4.8C440.6,377.9,439.8,377.5,439.4,377.1z"/>
			<path class="st149" d="M452.7,347.9L452.7,347.9l1.2-0.8C453.5,347.1,453.1,347.5,452.7,347.9z"/>
		</g>
		<path class="st149" d="M551.3,346.7c0.4,8.8-1.2,18-6.4,25.3c-0.4,0.4-12,13.6-40.1,10.8c-0.4,0-0.4,0-0.8,0l0,0
			c-1.2,0-2.4-0.4-3.2-0.4C544.9,382,550.9,347.5,551.3,346.7z"/>
		<path class="st2" d="M434.6,359.5c-2.8-3.6-10.4-20.4,10.8-27.7c18-6,35.3-2.8,42.5-0.8l0,0c10-8,28.1-10.4,34.5-11.2
			c0.8,0,1.6,0,2,0c-0.4,0-0.4,0-0.8,0c1.6,0,2.4,0,2.8,0s0.8,0.4,0.8,0.8c0,0.4-0.8,0.8-1.2,0.8c-0.4,0-24.1,0.8-35.7,12.4
			c0,0-0.4,0.4-0.8,0c-0.4,0-23.6-6.4-41.3,0c-7.6,2.8-12.4,6.8-14,11.6c-1.2,4-0.4,8,2,12c6.4-8,19.2-10,19.2-10l0,0
			c0.4,0,0.8-0.4,1.2-0.4c0.4,0,0.8,0,0.8,0.4c0,0.4,0,0.8-0.4,0.8c-8.8,2-15.2,5.6-18.8,10.4c-2.4,3.2-3.6,7.6-2.8,11.6
			c0.4,2,1.6,4.8,4.4,6.8c0.4,0.4,1.2,0.8,2,0.8c1.6-7.2,8-10,8-10l0,0c2.4-1.6,4.8-2,4.8-2l0,0c2.8-0.8,5.2-0.8,5.6-0.8
			s0.8,0.4,0.8,0.8c0,0.4-0.4,0.8-0.8,0.8c0,0-10.4,0-14.4,8.4c-1.6,3.6-1.6,8,0,12c1.6,3.6,4.8,6.4,8.4,7.2c6,1.6,12.8,0,18.8-1.6
			c6.4-2,15.6-5.2,19.2-11.6c0.4-0.8,0.4-0.8,12.8,0.8l0,0c0.4,0,0.4,0,0.8,0c28.1,2.8,40.1-10.4,40.1-10.8
			c6.4-8.8,7.6-21.6,5.2-32.5c-0.4-2.4-1.2-5.2-2-7.2c-1.2-2.8-4.8-11.6-11.2-19.2v-2h4c0,0,14.4,17.2,14.8,40.5l0,0
			c0.4,22-16,30.1-25.3,32.1c0,0,0,0,0.4,0c-1.2,0.4-2,0.8-3.2,0.8l0,0l0,0c-4.4,0.8-9.2,1.2-15.2,1.2c-0.8,0-3.6-0.4-7.6-0.8
			c-4.4-0.4-10.8-1.6-12-1.6c-2,3.6-5.6,6-9.6,8l0,0c-16.4,8.4-37.3,9.6-40.9-2.8l0,0c-0.8-2.8-1.2-5.2-1.2-7.2
			c-10-3.6-8.4-13.2-8.4-13.2C432.2,364.3,433.4,361.9,434.6,359.5z"/>
	</g>
</g>
</svg>
