<?xml version="1.0" encoding="utf-8"?>
<!-- Generator: Adobe Illustrator 21.0.0, SVG Export Plug-In . SVG Version: 6.00 Build 0)  -->
<svg version="1.1" id="圖層_1" xmlns="http://www.w3.org/2000/svg" xmlns:xlink="http://www.w3.org/1999/xlink" x="0px" y="0px"
	 viewBox="0 0 822.9 601.4" style="enable-background:new 0 0 822.9 601.4;" xml:space="preserve">
<style type="text/css">
	.st0{fill:url(#SVGID_1_);}
	.st1{fill:#D59543;}
	.st2{fill:#AB6C21;}
	.st3{opacity:0.6;fill:#D59543;enable-background:new    ;}
	.st4{fill:url(#SVGID_2_);}
	.st5{fill:url(#SVGID_3_);}
	.st6{fill:#CE9245;}
	.st7{fill:#A66A22;}
	.st8{opacity:0.6;fill:#CE9245;enable-background:new    ;}
	.st9{fill:url(#SVGID_4_);}
	.st10{fill:url(#SVGID_5_);}
	.st11{opacity:0.6;}
	.st12{fill:#D69644;}
	.st13{fill:#AC6D21;}
	.st14{fill:url(#SVGID_6_);}
	.st15{fill:#FCE4B4;}
	.st16{opacity:0.5;fill:#DA9E36;enable-background:new    ;}
	.st17{fill:url(#SVGID_7_);}
	.st18{fill:url(#SVGID_8_);}
	.st19{fill:url(#SVGID_9_);}
	.st20{opacity:0.4;fill:#C49358;enable-background:new    ;}
	.st21{opacity:0.5;}
	.st22{fill:url(#SVGID_10_);}
	.st23{fill:url(#SVGID_11_);}
	.st24{fill:url(#SVGID_12_);}
	.st25{fill:url(#SVGID_13_);}
	.st26{fill:url(#SVGID_14_);}
	.st27{fill:url(#SVGID_15_);}
	.st28{fill:#7D5223;}
	.st29{fill:url(#SVGID_16_);}
	.st30{opacity:0.5;fill:url(#SVGID_17_);enable-background:new    ;}
	.st31{fill:#CC7C5C;}
	.st32{fill:url(#SVGID_18_);}
	.st33{fill:#9F7433;}
	.st34{fill:#746766;}
	.st35{fill:#2F2A28;}
	.st36{opacity:0.5;fill:#2F2A28;enable-background:new    ;}
	.st37{fill:#865C25;}
	.st38{fill:#755325;}
	.st39{fill:none;stroke:#746766;stroke-width:0.8163;stroke-linecap:round;stroke-miterlimit:10;}
	.st40{fill:url(#SVGID_19_);}
	.st41{fill:url(#SVGID_20_);}
	.st42{fill:#E2BF40;}
	.st43{opacity:0.6;fill:#E2BF40;enable-background:new    ;}
	.st44{fill:url(#SVGID_21_);}
	.st45{fill:url(#SVGID_22_);}
	.st46{fill:url(#SVGID_23_);}
	.st47{fill:url(#SVGID_24_);}
	.st48{fill:url(#SVGID_25_);}
	.st49{fill:url(#SVGID_26_);}
	.st50{fill:url(#SVGID_27_);}
	.st51{opacity:0.8;}
	.st52{fill:url(#SVGID_28_);}
	.st53{fill:url(#SVGID_29_);}
	.st54{fill:url(#SVGID_30_);}
	.st55{fill:url(#SVGID_31_);}
	.st56{fill:url(#SVGID_32_);}
	.st57{fill:url(#SVGID_33_);}
	.st58{fill:url(#SVGID_34_);}
	.st59{fill:#3C3A39;}
	.st60{fill:url(#SVGID_35_);}
	.st61{fill:url(#SVGID_36_);}
	.st62{fill:url(#SVGID_37_);}
	.st63{fill:#532817;}
	.st64{fill:#48210E;}
	.st65{fill:url(#SVGID_38_);}
	.st66{fill:url(#SVGID_39_);}
	.st67{fill:url(#SVGID_40_);}
	.st68{fill:url(#SVGID_41_);}
	.st69{fill:url(#SVGID_42_);}
	.st70{fill:url(#SVGID_43_);}
	.st71{fill:url(#SVGID_44_);}
	.st72{fill:url(#SVGID_45_);}
	.st73{fill:url(#SVGID_46_);}
	.st74{fill:url(#SVGID_47_);}
	.st75{fill:url(#SVGID_48_);}
	.st76{fill:url(#SVGID_49_);}
	.st77{fill:url(#SVGID_50_);}
	.st78{fill:url(#SVGID_51_);}
	.st79{fill:url(#SVGID_52_);}
	.st80{fill:url(#SVGID_53_);}
	.st81{fill:#A46723;}
	.st82{fill:url(#SVGID_54_);}
	.st83{fill:url(#SVGID_55_);}
	.st84{fill:url(#SVGID_56_);}
	.st85{fill:url(#SVGID_57_);}
	.st86{fill:url(#SVGID_58_);}
	.st87{fill:url(#SVGID_59_);}
	.st88{fill:url(#SVGID_60_);}
	.st89{fill:url(#SVGID_61_);}
	.st90{fill:url(#SVGID_62_);}
	.st91{fill:url(#SVGID_63_);}
	.st92{fill:url(#SVGID_64_);}
	.st93{fill:url(#SVGID_65_);}
	.st94{fill:url(#SVGID_66_);}
	.st95{fill:url(#SVGID_67_);}
	.st96{fill:url(#SVGID_68_);}
	.st97{fill:url(#SVGID_69_);}
	.st98{fill:url(#SVGID_70_);}
	.st99{fill:url(#SVGID_71_);}
	.st100{fill:url(#SVGID_72_);}
	.st101{fill:url(#SVGID_73_);}
	.st102{fill:url(#SVGID_74_);}
	.st103{fill:url(#SVGID_75_);}
	.st104{fill:url(#SVGID_76_);}
	.st105{fill:url(#SVGID_77_);}
	.st106{fill:url(#SVGID_78_);}
	.st107{fill:url(#SVGID_79_);}
	.st108{fill:url(#SVGID_80_);}
	.st109{fill:url(#SVGID_81_);}
	.st110{fill:url(#SVGID_82_);}
	.st111{fill:url(#SVGID_83_);}
	.st112{fill:url(#SVGID_84_);}
	.st113{fill:url(#SVGID_85_);}
	.st114{fill:url(#SVGID_86_);}
	.st115{fill:url(#SVGID_87_);}
	.st116{fill:url(#SVGID_88_);}
	.st117{fill:url(#SVGID_89_);}
	.st118{fill:url(#SVGID_90_);}
	.st119{fill:url(#SVGID_91_);}
	.st120{fill:url(#SVGID_92_);}
	.st121{fill:url(#SVGID_93_);}
	.st122{fill:url(#SVGID_94_);}
	.st123{fill:url(#SVGID_95_);}
	.st124{fill:url(#SVGID_96_);}
	.st125{fill:url(#SVGID_97_);}
	.st126{fill:url(#SVGID_98_);}
	.st127{fill:url(#SVGID_99_);}
	.st128{fill:url(#SVGID_100_);}
	.st129{fill:url(#SVGID_101_);}
	.st130{fill:url(#SVGID_102_);}
	.st131{fill:url(#SVGID_103_);}
	.st132{fill:url(#SVGID_104_);}
	.st133{fill:url(#SVGID_105_);}
	.st134{fill:url(#SVGID_106_);}
	.st135{fill:url(#SVGID_107_);}
	.st136{fill:url(#SVGID_108_);}
	.st137{fill:url(#SVGID_109_);}
	.st138{fill:url(#SVGID_110_);}
	.st139{fill:url(#SVGID_111_);}
	.st140{fill:url(#SVGID_112_);}
	.st141{fill:url(#SVGID_113_);}
	.st142{fill:url(#SVGID_114_);}
	.st143{fill:url(#SVGID_115_);}
	.st144{fill:url(#SVGID_116_);}
	.st145{fill:url(#SVGID_117_);}
	.st146{fill:url(#SVGID_118_);}
	.st147{fill:url(#SVGID_119_);}
	.st148{fill:url(#SVGID_120_);}
	.st149{fill:url(#SVGID_121_);}
	.st150{fill:url(#SVGID_122_);}
	.st151{fill:url(#SVGID_123_);}
	.st152{fill:url(#SVGID_124_);}
	.st153{fill:url(#SVGID_125_);}
	.st154{fill:url(#SVGID_126_);}
	.st155{fill:url(#SVGID_127_);}
	.st156{fill:url(#SVGID_128_);}
	.st157{fill:url(#SVGID_129_);}
	.st158{fill:url(#SVGID_130_);}
	.st159{fill:url(#SVGID_131_);}
	.st160{fill:url(#SVGID_132_);}
	.st161{fill:url(#SVGID_133_);}
	.st162{fill:url(#SVGID_134_);}
	.st163{fill:url(#SVGID_135_);}
</style>
<g>
	<g>
		<g>
			
				<linearGradient id="SVGID_1_" gradientUnits="userSpaceOnUse" x1="299.8755" y1="-861.0219" x2="374.0088" y2="-861.0219" gradientTransform="matrix(1 0 0 -1 0 -489.3303)">
				<stop  offset="0" style="stop-color:#EDCF95"/>
				<stop  offset="0.5331" style="stop-color:#EECC91"/>
				<stop  offset="0.7526" style="stop-color:#EFC88D"/>
				<stop  offset="1" style="stop-color:#EDB397"/>
			</linearGradient>
			<path class="st0" d="M374,350.9l-6.9-16.1c0-0.3,0-0.9-0.3-1.3c0-0.3,0-0.3,0-0.3c0-0.3-0.3-0.6-0.3-0.9c0-0.3,0-0.3-0.3-0.6
				c-0.3-0.3-0.3-0.6-0.3-0.9s0-0.3-0.3-0.3c-0.3-0.6-0.3-0.9-0.6-1.6c0-0.3-0.3-0.3-0.3-0.3c-0.3-0.3-0.3-0.6-0.6-0.9
				c0-0.3-0.3-0.3-0.3-0.6c-0.3-0.3-0.3-0.6-0.6-0.9c0-0.3-0.3-0.3-0.3-0.6c-2.5-5.1-6.3-9.5-8.8-12.6c-0.3-0.3-0.3-0.3-0.3-0.3
				c-13.9,17.4-29.4,41-41.7,71c0,0-11.4,10.7-11.4,25.9c0,15.2,11.7,20.2,18,18.6l0,0c6.9,6.3,17.1,2.2,18.9-7.6v-0.3
				c0.3,0.3,0.9,0.6,1.6,0.6c4.1,2.2,9.8-0.6,11.7-4.4l0,0l0,0c0-0.3,0.3-0.3,0.3-0.6l-0.3-0.3l1.6-12.3h-0.3v-3.2l-0.6-2.2
				c0.3-0.6,0.6-1.3,0.6-1.9l0.6-0.9l0.6-2.2V392c2.2-5.7,5.7-13.6,10.4-22.7c2.8-6,6.3-12.3,9.8-18.3L374,350.9z"/>
		</g>
		<path class="st6" d="M330.1,403.3c0,0-2.2,16.7,7.3,22.1l1.6-4.7C339,420.7,328.9,415.7,330.1,403.3z"/>
		<path class="st6" d="M314,408.7c0,0-4.4,11.1-0.9,18.9c0,0,2.8,0.9,7.3,0.6C320,428.6,312.4,424.5,314,408.7z"/>
		<path class="st7" d="M329.8,408.7c0,0-0.3,10.1,8.2,13.6l0.3-1.6C338.6,420.7,329.8,412.8,329.8,408.7z"/>
		<path class="st7" d="M313.1,414.4c0,0-0.6,9.2,4.4,14.2l3.2-0.3C320.6,428.6,314,422,313.1,414.4z"/>
		<path class="st8" d="M374,350.9l-6.9-16.1c0-0.3,0-0.9-0.3-1.3c0-0.3,0-0.3,0-0.3c0-0.3-0.3-0.6-0.3-0.9c0-0.3,0-0.3-0.3-0.6
			c-0.3-0.3-0.3-0.6-0.3-0.9s0-0.3-0.3-0.3c-0.3-0.6-0.3-0.9-0.6-1.6c0-0.3-0.3-0.3-0.3-0.3c-0.3-0.3-0.3-0.6-0.6-0.9
			c0-0.3-0.3-0.3-0.3-0.6c-0.3-0.3-0.3-0.6-0.6-0.9c0-0.3-0.3-0.3-0.3-0.6c0,0,0-0.3-0.3-0.3c-9.5,18.6-19.6,43.3-20.2,64.1
			c0,0,11.7,14.8,7.6,29c0.3-0.3,0.6-0.9,0.6-1.6l0,0l0,0c0-0.3,0.3-0.3,0.3-0.6l-0.3-0.3l1.6-12.3h-0.3v-3.2l-0.6-2.8l1.6-2.2
			l0.9-2.2l17.4-37.9c0,0,0.9-0.9,2.5-3.5L374,350.9z"/>
		<g>
			<path class="st7" d="M353.2,399.9l0.6-0.9l0,0c0.3-0.3,11.4-25.3,21.8-45.5l-0.9-2.5l0,0c-9.5,18-19.9,41-22.1,45.8
				c-0.3-0.9-0.6-1.6-0.6-1.6l0,0c-0.9-1.6-1.9-3.2-2.2-3.2c-0.3-0.3-0.6-0.3-0.6,0c-0.3,0.3-0.3,0.6,0,0.6c0.3,0.3,0.6,0.6,0.6,0.9
				c0,0,6,9.2,2.8,22.4l0,0c-0.6,1.9-2.5,3.5-4.7,4.4s-4.4,0.9-6.3,0c-7.6-3.5-11.4-11.7-9.8-19.6c0-0.3-0.3-0.6-0.3-0.6
				c-0.3,0-0.6,0.3-0.6,0.3c-1.6,7.6,1.9,15.5,8.5,19.6c-0.9,4.7-4.1,8.2-7.9,9.5c-3.8,0.9-7.9,0-10.7-3.2
				c-7.9-7.9-4.7-19.6-4.7-19.6c0-0.3-0.3-0.6-0.3-0.6c-0.3,0-0.6,0.3-0.6,0.3c0,0.3-3.2,12.6,5.1,20.8l0,0
				c-2.5,0.3-6.3-0.6-9.8-3.2c-2.8-2.2-6.3-6.9-6.3-15.2c0-14.8,11.1-25.3,11.1-25.6l0.3-0.3c12.3-30,28.1-53.7,41.7-70.7l-1.6,0.3
				c-0.9-0.9-1.9-1.9-2.2-2.8l0,0c-4.4,5.7-9.2,12-13.9,19.3l0,0c0,0-22.4,33.5-27.5,52.4c-6.3,7.9-17.7,26.2-6.6,40.1
				c0.9,1.6,2.2,2.8,3.5,3.8c0.3,0.3,0.9,0.6,1.6,0.9c0.3,0,0.3,0.3,0.3,0.3l0,0c2.5,1.6,5.4,2.2,7.9,2.2c0.6,0,1.6,0,1.9-0.3
				c2.2,1.9,5.1,2.8,7.9,2.8c0.9,0,2.2-0.3,3.2-0.6c4.4-1.3,7.6-5.1,8.8-10.1c0.3,0.3,0.6,0.3,0.6,0.3c0.9,0.6,2.2,0.6,3.5,0.6
				s2.2-0.3,3.5-0.6c2.2-0.9,4.1-2.8,5.1-4.7l0,0c0,0,0,0,0-0.3s0.3-0.3,0.3-0.3l0,0c0,0,0.9-2.2,1.3-6.3c0.3-1.6,0.3-3.2,0-5.1
				C354.1,403.3,353.5,401.4,353.2,399.9z"/>
		</g>
	</g>
	<g>
		<g>
			<linearGradient id="SVGID_2_" gradientUnits="userSpaceOnUse" x1="477.992" y1="356.9636" x2="560.3547" y2="356.9636">
				<stop  offset="0" style="stop-color:#F2D397"/>
				<stop  offset="0.4319" style="stop-color:#F3D195"/>
				<stop  offset="0.7526" style="stop-color:#F5CC8F"/>
				<stop  offset="1" style="stop-color:#F3B699"/>
			</linearGradient>
			<path class="st4" d="M539.2,310.1l4,5.1l10.9,14.1l4.7,10.1l1.1,5.8l-3.6,10.5l-8.7,12l-7.6,6.2l-1.8,2.5l-3.6,5.8
				c0,0,3.6,32.6-26.8,17.8c0,0-13,2.2-18.1-6.2c0,0-13.4-1.1-11.2-15.2c1.8-14.1,12-20.3,22.1-25c0,0,14.1-27.5,26.1-32.3
				C526.2,321.7,534.5,312.3,539.2,310.1z"/>
			<linearGradient id="SVGID_3_" gradientUnits="userSpaceOnUse" x1="475.389" y1="368.7981" x2="484.9707" y2="368.7981">
				<stop  offset="0" style="stop-color:#F2D397"/>
				<stop  offset="0.4319" style="stop-color:#F3D195"/>
				<stop  offset="0.7526" style="stop-color:#F5CC8F"/>
				<stop  offset="1" style="stop-color:#F3B699"/>
			</linearGradient>
			<path class="st5" d="M476.2,376c-1.1-1.4-1.1-4-0.4-6.9c1.1-4.7,5.4-6.9,9.1-8.3c-3.6,3.6-6.9,8.7-8,15.9
				C476.9,376.8,476.5,376.4,476.2,376z"/>
			<g class="st11">
				<path class="st12" d="M507.7,396.3c0.4,1.4,1.4,2.9,2.2,3.6c2.5,2.5,6.9,3.3,13,2.9c2.5-0.4,4.3-1.1,6.2-2.9
					C520.4,404.7,511.3,399.2,507.7,396.3z"/>
				<path class="st12" d="M489.9,390.5c0,0,0.7,4,4.3,6.5c2.9,2.2,6.9,2.9,11.6,2.5c-1.1-1.4-1.1-2.9-1.1-2.9c0-0.4,0-0.7,0-1.1
					c-4.3,2.2-11.2-4-14.9-7.2C489.9,389.1,489.9,389.8,489.9,390.5z"/>
				<path class="st12" d="M488.1,392.4c-0.7-2.2-0.7-4.3-0.7-6.5l0,0c-6.9,0-8-4.7-8-4.7C479.4,381.5,478.7,389.5,488.1,392.4z"/>
			</g>
			<g>
				<path class="st13" d="M505.2,401.1L505.2,401.1h0.7c0.4,0,0.4,0,0.7-0.4l0,0l0,0c1.4,1.8,4.3,4,8.7,4.7c0.4,0,1.1,0,1.4,0.4l0,0
					h0.4c0.4,0,0.7,0,1.1,0h0.4c0.4,0,0.4,0,0.7,0s0.4,0,0.7,0c0,0,0,0,0.4,0s0.7,0,1.4,0h0.4c0.4,0,0.4,0,0.7,0h0.4
					c0.4,0,0.4,0,0.7,0s0.4,0,0.7-0.4h0.4c0.4,0,0.4-0.4,0.7-0.4h0.4c0,0,0,0,0.4,0s0.4-0.4,0.7-0.4l0,0c0.4,0,0.7-0.4,1.1-0.4
					c0.4-0.4,0.7-0.4,1.1-0.7c4.3-3.6,5.1-10.5,5.1-10.5l0,0c0.4-1.4,0.4-2.9,0.7-4.3v-0.4c0-1.4,0-3.3,0-5.1v-0.4
					c0.7-1.1,3.6-4.3,5.1-7.2c0.7-0.4,2.5-1.8,5.1-3.6c12.3-8.3,16.3-18.1,16.7-25.7l0,0V346v-0.4c0-1.8-0.4-3.6-0.7-5.1
					c0-0.4-0.4-0.7-0.4-1.4c-1.1-2.9-2.2-5.1-2.2-5.1c-3.6-5.8-9.4-13.8-13.8-19.6c-0.4,0-1.1,0-1.4,0.4l-0.7-0.7
					c-0.7,0-1.1,0.4-1.8,0.4c17.4,21.4,17.8,29.4,17.8,30.8c0,1.1-0.4,2.2-0.7,3.6c-3.6,15.2-18.8,24.6-19.2,24.6l-0.4,0.4
					c-1.4,3.3-5.1,7.2-5.1,7.2s-0.4,0.4-0.4,0.7v0.7c0,13.4-3.3,20.3-10.5,20.7c-6.2,0.4-10.5-0.4-13-2.9c-2.2-1.8-3.3-5.1-2.9-9.1
					c0-8.7,4-12.7,4-12.7l0.4-0.4l0.4-1.4c0-0.4,0-1.1-0.7-1.1c-0.4,0-1.1,0-1.1,0.7l-0.4,1.1c0,0-6.9,6.2-4.7,19.2
					c0,0,0.4,1.1,1.1,2.9c-4.7,0.4-8.7-0.4-11.6-2.5c-3.6-2.5-4.3-6.2-4.3-6.5c-2.2-11.6,10.5-22.1,10.5-22.1c0.4-0.4,0.4-0.7,0-1.1
					s-0.7-0.4-1.1,0c0,0-0.4,0.4-0.7,0.7c0,0-14.9,10.9-10.9,24.3c-9.4-2.9-8.7-10.9-8.7-11.2l0,0c0-20.3,19.9-25,21-25.4
					c0.4,0,0.4-0.4,0.7-0.4c0-0.4,13.8-29.4,27.2-33.3c0.4,0,0.7-0.7,0.7-1.1s-0.7-0.7-1.1-0.7c0,0-0.7,0-2.5,0.7l0,0
					c-3.6,1.8-10.5,6.2-18.1,18.1c0,0,0,0.4-0.4,0.4c-0.4,0.7-0.7,1.4-1.1,2.2v0.4c-0.4,0.7-0.7,1.4-1.4,2.2c0,0,0,0,0,0.4
					c-0.4,0.7-0.7,1.8-1.4,2.5l0,0c-0.4,1.1-1.1,1.8-1.4,2.9c-0.4,1.1-1.1,2.2-1.4,3.3c0,0-0.4,0-0.7,0l0,0
					c-2.2,0.7-6.2,2.2-10.1,4.7l0,0c0,0-14.9,1.4-15.6,14.1c0,0-0.4,5.8,4,7.2v0.4c0,0-1.8,13,12.3,15.2c0,0.4,0.4,0.4,0.4,0.7
					c0,0,5.4,7.2,15.2,5.4C504.8,401.4,505.2,401.4,505.2,401.1z M545.4,371C545.4,371.3,545,371.3,545.4,371
					C545.4,371.3,545.4,371,545.4,371z M476.2,376c-1.1-1.4-1.1-4-0.4-6.9c1.1-4.7,5.4-6.9,9.1-8.3c-3.6,3.6-6.9,8.7-8,15.9
					C476.9,376.8,476.5,376.4,476.2,376z"/>
				<path class="st13" d="M538.5,311.5c1.1-0.4,2.5-0.7,3.6-0.7h0.4c-2.2-2.5-3.6-4.3-3.6-4.3l-1.8,0.4l0.7,4.3
					C538.2,311.2,538.2,311.2,538.5,311.5z"/>
			</g>
		</g>
		<g>
			<linearGradient id="SVGID_4_" gradientUnits="userSpaceOnUse" x1="506.4782" y1="394.4137" x2="613.5927" y2="394.4137">
				<stop  offset="0" style="stop-color:#BE8C40"/>
				<stop  offset="1" style="stop-color:#D7B661"/>
			</linearGradient>
			<path class="st9" d="M611.4,375c-0.4-1.1-0.4-1.8-0.7-2.9l-2.2-10.5c-2.9,6.5-12.7,15.2-41,22.8c-2.9,0.7-5.8,1.4-8.7,2.2h-0.4
				l0,0c-2.5,0.7-5.1,1.1-7.6,1.4c-6.2,1.1-11.6,1.8-16.3,2.2c0,0.7-0.4,1.4-0.4,2.2l0,0c0,0-1.1,9.1-6.9,12l0,0
				c-1.8,1.1-5.1,2.2-10.5,1.4c-5.4-0.4-8.3-2.5-10.1-4.7h-0.4c1.4,6.5,3.3,12.7,8.7,18.1c6.2,6.2,14.5,8.7,23.6,8
				c0.4,0,25-2.9,55.5-12.3c8.3-2.5,14.9-8.7,18.1-17C615,389.8,613.2,382.6,611.4,375z"/>
			<path class="st15" d="M607.8,405c1.8-2.2,2.9-4.7,4-7.2c2.9-8,1.4-15.2-0.4-22.8c-0.4-1.1-0.4-1.8-0.7-2.9l-2.2-10.5
				c-0.7,1.1-1.4,2.5-2.5,3.6c2.2,7.6,5.8,20.3,5.4,24.6C611,393.1,609.9,398.2,607.8,405z"/>
			<g>
				<path class="st16" d="M539.6,399.6c2.2-0.4,4.7-0.7,6.9-1.1c0.7,0,0.4-1.1-0.4-0.7c-2.2,0.7-4.7,1.1-6.9,1.1
					C538.9,398.9,538.9,399.6,539.6,399.6L539.6,399.6z"/>
				<path class="st16" d="M551.9,397.1c0.4,0,0.7-0.4,1.1-0.4c0,0,0,0,0.4,0l0,0v-0.4c0,0,0-0.4-0.4-0.4h-0.4
					c-0.4,0-0.7,0.4-1.1,0.4c0,0,0,0-0.4,0l0,0v0.4C551.2,396.7,551.2,397.1,551.9,397.1C551.6,397.1,551.9,397.1,551.9,397.1
					L551.9,397.1z"/>
				<path class="st16" d="M607,370.2c-2.5,2.2-5.1,4-8,5.8c-0.7,0.4,0,1.4,0.4,1.1c2.9-1.4,5.4-3.6,8-5.8
					C608.1,370.6,607.4,369.9,607,370.2L607,370.2z"/>
				<path class="st16" d="M609.2,372.4c-2.2,1.4-4,2.9-6.2,4.3c-0.4,0-0.4,0.7,0,0.7c0.4,0.4,0.7,0.4,0.7,0c2.2-1.4,4-2.9,6.2-4.3
					c0.4,0,0.4-0.7,0-0.7C609.9,372.1,609.6,372.1,609.2,372.4L609.2,372.4z"/>
				<path class="st16" d="M609.6,375.7c-5.1,3.6-10.5,6.2-16.3,8.3c-0.7,0-0.4,1.1,0.4,0.7c5.8-1.8,11.6-4.7,16.7-8.3
					C610.3,376,609.9,375.3,609.6,375.7L609.6,375.7z"/>
				<path class="st16" d="M595.1,381.5c0.4,1.1,0.7,1.8,1.1,2.9c0,0.4,0.4,0.4,0.7,0.4s0.4-0.4,0.4-0.7c-0.4-1.1-0.7-2.2-1.1-3.3
					c0-0.4-0.4-0.4-0.7-0.4C595.1,380.8,595.1,381.1,595.1,381.5L595.1,381.5z"/>
				<path class="st16" d="M598,378.9c0.7,2.9,1.4,5.8,1.8,8.7c0,0.7,1.1,0.4,0.7-0.4c-0.4-2.9-1.1-5.8-1.8-8.7
					C598.7,377.9,597.6,378.2,598,378.9L598,378.9z"/>
				<path class="st16" d="M602.7,380.4c0.4,1.1,0.4,1.8,0.7,2.9c0,0.4,0.4,0.4,0.7,0.4s0.4-0.4,0.4-0.7c-0.4-1.1-0.4-1.8-0.7-2.9
					c0-0.4-0.4-0.4-0.7-0.4C603,379.7,602.7,380,602.7,380.4L602.7,380.4z"/>
				<path class="st16" d="M605.2,379.7c0,0.4,0.4,0.7,0.4,1.1c0,0,0,0,0,0.4l0,0h0.4c0,0,0.4,0,0.4-0.4v-0.4c0-0.4-0.4-0.7-0.4-1.1
					c0,0,0,0,0-0.4l0,0h-0.4C605.6,378.9,605.2,378.9,605.2,379.7L605.2,379.7L605.2,379.7z"/>
				<path class="st16" d="M610.3,390.5c-2.2,4-6.2,6.9-10.1,9.1c-4,2.2-8.3,4-12.7,5.8c-0.4,0.4,0,1.1,0.4,0.7
					c4.3-1.8,9.1-3.6,13.4-6.2c3.6-2.2,7.6-5.1,9.8-9.1C611.4,390.5,610.7,390.2,610.3,390.5L610.3,390.5z"/>
				<path class="st16" d="M602.3,396c0.4,1.4,0.7,2.9,1.1,4.7c0,0.4,0.4,0.4,0.4,0.4c0.4,0,0.4-0.4,0.4-0.4c0-1.4-0.4-3.3-1.1-4.7
					C603,395.6,602.7,395.6,602.3,396C602.7,395.6,602.3,395.6,602.3,396L602.3,396z"/>
				<path class="st16" d="M600.1,394.2c0.7,3.3,1.4,6.5,2.2,9.8c0,0.7,1.1,0.4,0.7-0.4c-0.4-3.3-1.1-6.5-2.2-9.8
					C600.9,393.4,599.8,393.8,600.1,394.2L600.1,394.2z"/>
				<path class="st16" d="M597.2,398.5c0.7,3.3,1.1,6.5,0.7,9.4c0,0.7,1.1,0.7,1.1,0c0.4-3.3,0.4-6.5-0.7-9.8
					C598,397.4,596.9,397.8,597.2,398.5L597.2,398.5z"/>
				<path class="st16" d="M605.6,385.8c0.4,0.7,0.7,1.8,0.7,2.9c0,0.4,0.4,0.4,0.4,0.4c0.4,0,0.4-0.4,0.4-0.4c0-1.1-0.4-1.8-0.7-2.9
					C606.3,385.5,605.9,385.5,605.6,385.8C605.6,385.5,605.6,385.8,605.6,385.8L605.6,385.8z"/>
				<path class="st16" d="M607,382.6c1.1,2.5,1.4,5.1,1.8,8c0,0.7,1.1,0.7,0.7,0c-0.4-2.9-0.7-5.8-1.8-8.3
					C607.8,381.5,606.7,381.8,607,382.6L607,382.6z"/>
				<path class="st16" d="M599.1,371.7c0.7,1.8,1.1,3.6,1.1,5.4c0,0.4,0.4,0.7,0.4,0.7c0.4,0,0.7-0.4,0.7-0.4c0-2.2-0.4-4-1.1-5.8
					C600.1,371.3,599.8,371.3,599.1,371.7C599.1,371,599.1,371.3,599.1,371.7L599.1,371.7z"/>
				<path class="st16" d="M600.9,371.7C600.9,371.7,600.9,372.1,600.9,371.7C600.9,372.1,600.9,372.4,600.9,371.7
					C600.9,372.1,600.9,372.1,600.9,371.7c0.4,0.7,0.4,0.7,0.4,1.1c0,0.4,0.4,0.7,0.4,1.1c0,0.4,0.4,0.4,0.7,0.4s0.4-0.4,0.4-0.7
					c0-0.7-0.4-1.8-0.7-2.5c0-0.4-0.4-0.4-0.7-0.4C600.5,371.3,600.5,371.3,600.9,371.7L600.9,371.7z"/>
				<path class="st16" d="M603,369.9c0,0.4,0,0.7,0.4,1.1c0,0,0,0.4,0.4,0.4h0.4c0,0,0.4,0,0.4-0.4v-0.4c0-0.4,0-0.7-0.4-1.1
					c0,0,0-0.4-0.4-0.4h-0.4C603.4,369.2,603,369.2,603,369.9L603,369.9L603,369.9z"/>
				<path class="st16" d="M517.9,408.7c2.2,0.4,4.7,0.4,6.9,0c0.4,0,0.7-0.4,0.7-0.4c0-0.4-0.4-0.7-0.4-0.7c-2.2,0-4.7,0-6.9,0
					C517.1,407.6,517.1,408.7,517.9,408.7L517.9,408.7z"/>
				<path class="st16" d="M527.6,415.2c1.1,0.4,2.5,0.4,4,0.7c0.4,0,0.7-0.4,0.7-0.4c0-0.4-0.4-0.7-0.4-0.7c-1.1,0-2.5-0.4-3.6-0.4
					C528,414.5,527.6,414.5,527.6,415.2C526.9,414.8,527.3,415.2,527.6,415.2L527.6,415.2z"/>
				<path class="st16" d="M555.6,413.7c8-1.1,15.9-2.5,23.6-4.7c0.4,0,0.4-0.7,0-0.7c-8,2.2-15.6,3.6-23.6,4.7
					C554.8,413.4,555.2,413.7,555.6,413.7L555.6,413.7z"/>
				<path class="st16" d="M573,414.1c4.7-1.1,9.1-2.5,13.8-3.6c0.7-0.4,0.4-1.4-0.4-1.1c-4.3,1.4-9.1,2.5-13.8,3.6
					C572.2,413,572.2,414.1,573,414.1L573,414.1z"/>
				<path class="st16" d="M574,405.8c0.7,2.2,1.4,4.7,1.4,7.2c0,0.4,0.7,0.4,0.7,0c0-2.5-0.7-5.1-1.4-7.2
					C574.4,405,573.7,405,574,405.8L574,405.8z"/>
				<path class="st16" d="M576.2,402.9c1.1,4.3,1.4,9.1,1.8,13.8c0,0.4,0.7,0.4,0.7,0c0-4.7-0.7-9.4-1.8-13.8
					C576.9,402.1,576.2,402.5,576.2,402.9L576.2,402.9z"/>
				<path class="st16" d="M586,398.2c0.7-0.4,1.8-0.7,2.5-1.1c0.4,0,0.4-0.4,0.4-0.7s-0.4-0.4-0.7-0.4c-0.7,0.4-1.8,0.7-2.5,1.1
					c-0.4,0-0.4,0.4-0.4,0.7C585.3,398.2,585.6,398.2,586,398.2L586,398.2z"/>
				<path class="st16" d="M585.3,400.3c1.1-0.7,2.2-1.1,3.3-1.8c0.4,0,0.4-0.4,0.4-0.7s-0.4-0.4-0.7-0.4c-1.1,0.7-2.2,1.1-3.3,1.8
					c-0.4,0-0.4,0.4-0.4,0.7S584.9,400.3,585.3,400.3L585.3,400.3z"/>
				<path class="st16" d="M574.4,393.4c4.3-1.4,8.7-2.9,13-4.7c0.4,0,0-0.7-0.4-0.7c-4.3,1.8-8.7,3.6-13,4.7
					C574,393.1,574,393.8,574.4,393.4L574.4,393.4z"/>
				<path class="st16" d="M583.1,392.7c2.2-0.7,4-1.4,6.2-2.5c0.4,0,0.4-0.4,0.4-0.7s-0.4-0.4-0.7-0.4c-2.2,0.7-4,1.4-6.2,2.5
					c-0.4,0-0.4,0.4-0.4,0.7S582.7,392.7,583.1,392.7L583.1,392.7z"/>
				<path class="st16" d="M584.6,385.1c0.7,2.2,1.4,4,1.8,6.2c0,0.7,1.1,0.4,1.1-0.4c-0.4-2.2-1.1-4.3-1.8-6.5
					c0-0.4-0.4-0.4-0.7-0.4C584.6,384.4,584.6,384.7,584.6,385.1L584.6,385.1z"/>
				<path class="st16" d="M588.9,382.2c0.7,2.5,1.4,5.4,2.2,8.3c0,0.7,1.1,0.4,1.1-0.4c-0.7-2.9-1.1-5.4-2.2-8.3
					C589.6,381.5,588.5,381.5,588.9,382.2L588.9,382.2z"/>
				<path class="st16" d="M595.1,386.6c0,0.7,0.4,1.1,0.4,1.8c0,0.4,0.4,0.4,0.7,0.4s0.4-0.4,0.4-0.7v-0.4l0,0
					c0-0.4-0.4-0.7-0.4-1.1c0,0,0-0.4-0.4-0.4L595.1,386.6C595.4,386.2,595.1,386.2,595.1,386.6
					C595.1,386.2,595.1,386.2,595.1,386.6C594.7,386.2,594.7,386.6,595.1,386.6L595.1,386.6z"/>
				<path class="st16" d="M593.6,387.6c0.4,1.1,0.4,2.5,0.4,4c0,0.4,0.4,0.7,0.4,0.7c0.4,0,0.7-0.4,0.7-0.4c0-1.4,0-2.9-0.4-4
					C594.7,387.6,594.3,387.6,593.6,387.6C593.6,387.3,593.6,387.6,593.6,387.6L593.6,387.6z"/>
				<path class="st16" d="M594.3,394.9c1.4-0.4,2.9-0.7,4-1.4c0.4,0,0.4-0.4,0.4-0.7s-0.4-0.4-0.7-0.4c-1.1,0.7-2.5,1.1-3.6,1.4
					C594,393.8,594,394.2,594.3,394.9C593.6,394.5,594,394.9,594.3,394.9L594.3,394.9z"/>
				<path class="st16" d="M595.4,392c0,0.4,0,0.4,0,0.7v0.4l0,0l0,0c0,0.4,0,0.7,0,1.4c0,0.4,0.4,0.7,0.4,0.7c0.4,0,0.7-0.4,0.7-0.4
					c0-1.1,0-1.8-0.4-2.9c0-0.4-0.4-0.4-0.7-0.4C595.8,391.3,595.4,391.6,595.4,392L595.4,392z"/>
				<path class="st16" d="M533.1,407.6c0.4,1.4,0.7,2.9,1.4,4.3c0,0.4,0.4,0.4,0.7,0.4s0.4-0.4,0.4-0.7c-0.7-1.4-1.1-2.5-1.1-4
					C533.8,406.9,532.7,406.9,533.1,407.6L533.1,407.6z"/>
				<path class="st16" d="M535.6,407.6c0.4,1.4,1.1,2.9,1.5,4.3c0,0.4,0.4,0.4,0.7,0.4c0.4,0,0.4-0.4,0.4-0.7
					c-0.4-1.4-1.1-2.9-1.4-4.3c0-0.4-0.4-0.4-0.7-0.4C536,406.9,535.6,407.2,535.6,407.6L535.6,407.6z"/>
				<path class="st16" d="M535.3,410.1c2.2,0,4.3,0,6.5-0.4c0.7,0,0.4-1.1-0.4-1.1c-2.2,0.4-4.3,0.4-6.2,0.4
					C534.5,409,534.5,410.1,535.3,410.1L535.3,410.1z"/>
				<path class="st16" d="M534.9,404.7c2.2,0,4.3-0.4,6.5-0.7c0.7,0,0.4-1.4-0.4-1.1c-2.2,0.4-4,0.7-6.2,0.7
					C534.2,403.6,534.2,404.7,534.9,404.7L534.9,404.7z"/>
				<path class="st16" d="M519.7,418.8c1.4,0,2.5,0,4,0c0.4,0,0.7-0.4,0.7-0.4c0-0.4-0.4-0.7-0.4-0.7c-1.4,0-2.5,0-4,0
					c-0.4,0-0.7,0.4-0.7,0.4C519.3,418.8,519.3,418.8,519.7,418.8L519.7,418.8z"/>
				<path class="st16" d="M525.1,421.4c0.4,0,1.1,0,1.4,0s0.7-0.4,0.7-0.4c0-0.4-0.4-0.7-0.4-0.7c-0.4,0-1.1,0-1.4,0
					s-0.7,0.4-0.7,0.4C524.4,421,524.7,421.4,525.1,421.4L525.1,421.4z"/>
				<path class="st16" d="M595.8,408.7c1.8-0.7,3.6-1.4,5.1-2.5c0.4,0,0.4-0.4,0.4-0.7s-0.4-0.4-0.7-0.4c-1.4,1.1-3.3,1.8-5.1,2.5
					c-0.4,0-0.4,0.4-0.4,0.7S595.4,408.7,595.8,408.7L595.8,408.7z"/>
				<path class="st16" d="M569.7,384c0.4,1.1,0.7,1.8,0.7,2.9c0,0.4,0.4,0.4,0.7,0.4s0.4-0.4,0.4-0.7c0-1.1-0.4-1.8-0.7-2.9
					c0,0,0-0.4-0.4-0.4h-0.4C569.7,383.7,569.7,384,569.7,384L569.7,384z"/>
				<path class="st16" d="M571.1,384.4C571.1,384.4,571.1,384.7,571.1,384.4L571.1,384.4c0.4,0.7,0.4,1.1,0.7,1.1l0,0
					c0,0.4,0,0.4,0,0.7c0,0.4,0.4,0.7,0.4,0.7c0.4,0,0.7-0.4,0.7-0.4c0-0.7,0-1.4-0.4-2.2c0-0.4-0.4-0.4-0.7-0.4
					C571.1,383.7,571.1,384,571.1,384.4L571.1,384.4z"/>
				<path class="st16" d="M574,383.3C574,383.7,574,383.7,574,383.3C574,383.7,574,383.7,574,383.3C574,383.7,574.4,383.7,574,383.3
					c0.4,0.4,0.4,0.4,0.7,0.4c0,0,0,0,0.4,0l0,0c0,0,0,0,0.4-0.4l0,0v-0.4l0,0c0,0,0,0,0-0.4l0,0c0,0,0,0-0.4,0c0,0,0,0-0.4,0l0,0
					C574.8,382.6,574.8,382.6,574,383.3C574,382.9,574,383.3,574,383.3L574,383.3L574,383.3z"/>
				<path class="st16" d="M605.2,360.1L605.2,360.1C605.2,360.5,605.2,360.8,605.2,360.1c0,0.4,0,0.4,0,0.7s0,0.4,0,0.7
					c0,0,0,0.4,0,0c0,0,0,0,0,0.4v0.4v0.4l0,0l0,0l0,0c0,0.4,0,0.7,0,0.7c0.4,0,0.7,0,0.7,0c0.7-1.1,0.7-2.2,0.4-3.3
					c0-0.4-0.4-0.4-0.7-0.4C605.2,359.4,604.9,359.7,605.2,360.1L605.2,360.1z"/>
				<path class="st16" d="M602.7,363c0,1.4-0.4,2.9-0.7,4c0,0.4,0,0.7,0.4,0.7s0.7,0,0.7-0.4c0.7-1.4,0.7-2.9,1.1-4.3
					c0-0.4-0.4-0.7-0.4-0.7C602.7,362.6,602.7,362.6,602.7,363L602.7,363z"/>
				<path class="st16" d="M600.1,364.8c0,0.7,0,1.1,0,1.8c0,0,0,0.4,0,0c0,0,0,0,0,0.4v0.4c0,0.4,0,0.4-0.4,0.7c0,0.4,0,0.7,0.4,0.7
					s0.7,0,0.7-0.4c0.4-1.1,0.7-2.2,0.7-3.3c0-0.4-0.4-0.7-0.4-0.7C600.5,364.4,600.1,364.4,600.1,364.8L600.1,364.8z"/>
				<path class="st16" d="M596.9,368.1c0,0.4,0,0.4,0,0.7c0,0,0,0,0,0.4l0,0l0,0v0.4c0,0.4,0,0.4-0.4,0.7l0,0l0,0l0,0
					c0,0,0,0.4-0.4,0.4c0,0.4,0,0.7,0,0.7c0.4,0,0.7,0,0.7,0c0.7-1.1,1.1-2.2,1.1-3.3c0-0.4-0.4-0.7-0.4-0.7
					C597.2,367.3,596.9,367.7,596.9,368.1L596.9,368.1z"/>
				<path class="st16" d="M593.3,370.2c0,1.1-0.4,1.8-0.7,2.5v0.4h0.4C593.6,372.4,593.6,371.3,593.3,370.2
					C594,370.2,593.6,369.9,593.3,370.2C593.3,369.9,593.3,370.2,593.3,370.2L593.3,370.2z"/>
				<path class="st16" d="M590,372.4c-0.4,1.1-0.7,1.8-1.1,2.9v0.4h0.4c0.7-0.7,1.1-1.8,1.4-2.9C590.7,372.8,590.7,372.4,590,372.4
					C590.4,372.1,590,372.1,590,372.4L590,372.4z"/>
				<path class="st16" d="M582.7,375.7L582.7,375.7C582.7,376,582.7,376,582.7,375.7L582.7,375.7L582.7,375.7c0,0.7,0,0.7,0,1.1
					c0,0.4,0,0.4-0.4,0.7l0,0l0,0l0,0v0.4c0,0.4,0,0.7,0,0.7c0.4,0,0.7,0,0.7,0c0.4-0.7,0.7-1.8,1.1-2.9c0-0.4-0.4-0.7-0.4-0.7
					C583.1,375,582.7,375.3,582.7,375.7L582.7,375.7z"/>
				<path class="st16" d="M563.2,381.5C563.2,381.8,563.2,381.8,563.2,381.5C563.2,381.8,563.2,381.8,563.2,381.5
					c0,0.4,0,0.7-0.4,1.1l0,0c0,0,0,0.4-0.4,0.4v0.4c0,0,0,0.4,0.4,0.4s0.7,0,0.7,0c0.4-0.4,0.4-1.1,0.7-1.8c0-0.4-0.4-0.7-0.4-0.7
					C563.5,381.1,563.2,381.1,563.2,381.5L563.2,381.5z"/>
				<path class="st16" d="M561,382.2c-0.4,0.7-1.1,1.4-1.4,1.8c0,0.4,0,0.7,0,0.7c0.4,0,0.7,0,0.7,0c0.4-0.7,1.1-1.4,1.5-1.8
					c0-0.4,0-0.7,0-0.7C561.7,381.8,561.4,382.2,561,382.2L561,382.2z"/>
				<path class="st16" d="M546.9,394.9c-4.3,1.1-9.1,1.4-13.4,1.4c0,0.4-0.4,0.7-0.4,0.7c4.7,0,9.4-0.7,14.1-1.4
					C547.6,395.6,547.6,394.9,546.9,394.9z"/>
				<path class="st16" d="M532,402.5c-0.7,0-1.8,0-2.5,0c-0.4,0.4-0.7,0.7-1.1,1.1c1.1,0,2.5,0,3.6-0.4
					C532.7,403.2,532.7,402.5,532,402.5z"/>
				<path class="st16" d="M520.8,405.8c-0.4,0-0.7,0-1.1,0c0.7,2.9,1.4,5.4,2.5,8.3c0.4,0.4,1.1,0.4,0.7-0.4
					C522.2,411.2,521.5,408.3,520.8,405.8z"/>
				<path class="st16" d="M525.8,405C525.5,405,525.5,405,525.8,405c-2.2,0.7-5.1,1.1-8.7,0.7c-0.4,0-1.1,0-1.4-0.4
					c0,0.4,0,0.4,0.4,0.7c3.3,0.4,6.5,0.4,9.4,0C526.6,406.1,526.6,405,525.8,405z"/>
				<path class="st16" d="M518.2,405.8c-0.4,0-0.7,0-1.1,0c0.4,0.7,0.4,1.4,0.7,2.2c0,0.4,0.4,0.4,0.7,0.4s0.4-0.4,0.4-0.7
					C518.6,406.9,518.6,406.5,518.2,405.8z"/>
			</g>
			<g>
				<linearGradient id="SVGID_5_" gradientUnits="userSpaceOnUse" x1="535.1147" y1="361.3671" x2="605.934" y2="361.3671">
					<stop  offset="0" style="stop-color:#E7AB5E"/>
					<stop  offset="7.103980e-03" style="stop-color:#E7AB5E"/>
					<stop  offset="1" style="stop-color:#ECAB8C"/>
				</linearGradient>
				<path class="st10" d="M604.5,350.3c-4.7-6.5-6.5-6.5-10.5-9.1c-4.3-2.5-19.2-3.6-22.8-4c-1.5,0-4.7,0.4-9.1,1.4
					c1.1,8.7-0.7,21.4-16.7,32.3c-2.5,1.8-4.3,3.3-5.1,3.6c-1.4,2.9-4.3,6.2-5.1,7.2v0.4c0,1.1,0,2.2,0,3.3
					c12.7-0.7,38.8-3.6,56.5-15.6C591.8,370.2,611.4,360.1,604.5,350.3z"/>
			</g>
			<linearGradient id="SVGID_6_" gradientUnits="userSpaceOnUse" x1="534.8965" y1="372.2418" x2="607.6609" y2="372.2418">
				<stop  offset="0" style="stop-color:#BE8C40"/>
				<stop  offset="1" style="stop-color:#D7B661"/>
			</linearGradient>
			<path class="st14" d="M606.7,355.7c-1.4,9.8-21.7,21.7-48.6,27.5c-8,1.8-15.9,2.9-22.8,3.3c0,0.7,0,1.4-0.4,2.2
				c4.7-0.4,9.8-1.1,15.9-2.2c2.5-0.4,5.1-0.7,7.6-1.4l0,0l0,0c2.9-0.7,5.8-1.4,8.7-2.2c29.4-8,38.1-16.7,40.6-22.8
				C607.4,359.7,607,358.3,606.7,355.7z"/>
			<path class="st20" d="M550.8,412.3c-12-2.5-15.9-10.9-17-17c-0.7,2.9-2.5,6.9-6.2,8.7l0,0c-1.8,1.1-5.1,2.2-10.5,1.4
				c-5.4-0.4-8.3-2.5-10.1-4.7h-0.4c1.4,6.5,3.3,12.7,8.7,18.1c6.2,6.2,14.5,8.7,23.6,8c0.4,0,25-2.9,55.5-12.3
				c4.7-1.4,9.1-4,12.3-7.6C590.7,413.4,570.1,416.3,550.8,412.3z"/>
			<g class="st21">
				
					<linearGradient id="SVGID_7_" gradientUnits="userSpaceOnUse" x1="559.861" y1="-63.8164" x2="573.874" y2="-63.8164" gradientTransform="matrix(0.9769 -0.2137 0.2137 0.9769 55.0668 540.0567)">
					<stop  offset="0" style="stop-color:#E7AB5E"/>
					<stop  offset="7.103980e-03" style="stop-color:#E7AB5E"/>
					<stop  offset="1" style="stop-color:#ECAB8C"/>
				</linearGradient>
				<path class="st17" d="M596.9,343.1c-1.4,3.3-3.6,8.3-5.1,13.4c-1.1,4.7-1.1,10.1-0.7,14.1c0.4,0,0.4-0.4,0.7-0.4
					c0,0,1.1-0.7,2.9-1.8c0-3.3,0-7.2,0.7-11.2c1.1-4.3,2.9-9.1,4.3-12.3C599.1,344.5,598,343.8,596.9,343.1z"/>
				
					<linearGradient id="SVGID_8_" gradientUnits="userSpaceOnUse" x1="529.1822" y1="-66.417" x2="555.0914" y2="-66.417" gradientTransform="matrix(0.9769 -0.2137 0.2137 0.9769 55.0668 540.0567)">
					<stop  offset="0" style="stop-color:#E7AB5E"/>
					<stop  offset="7.103980e-03" style="stop-color:#E7AB5E"/>
					<stop  offset="1" style="stop-color:#ECAB8C"/>
				</linearGradient>
				<path class="st18" d="M565.7,380.4L565.7,380.4c0,0-0.4-6.5,0-12.7c0.4-3.3,1.1-5.4,2.2-8c0.7-1.4,1.8-3.6,2.2-5.8
					c1.1-4,6.2-12.3,8.7-15.9c-1.4,0-2.9-0.4-4-0.4c-2.5,4.3-6.9,11.6-8,15.6c-0.7,2.2-1.4,3.6-2.2,5.4c-1.1,2.5-2.2,5.1-2.5,9.1
					c-0.4,6.2,0,12.3,0,12.7v1.4c1.1-0.4,2.5-0.7,3.6-0.7L565.7,380.4z"/>
				
					<linearGradient id="SVGID_9_" gradientUnits="userSpaceOnUse" x1="548.4694" y1="-64.8512" x2="566.7562" y2="-64.8512" gradientTransform="matrix(0.9769 -0.2137 0.2137 0.9769 55.0668 540.0567)">
					<stop  offset="0" style="stop-color:#E7AB5E"/>
					<stop  offset="7.103980e-03" style="stop-color:#E7AB5E"/>
					<stop  offset="1" style="stop-color:#ECAB8C"/>
				</linearGradient>
				<path class="st19" d="M583.8,373.9c0-0.7,0-1.4-0.4-2.2c0-1.8,0.7-5.4,1.4-9.4c0.4-1.8,0.7-3.6,1.1-5.4
					c0.7-4.3,3.6-11.6,5.4-16.3c-1.1-0.4-2.2-0.7-3.6-0.7c-1.8,4.7-4.7,12-5.4,16.3c-0.4,1.8-0.7,3.6-1.1,5.4
					c-0.7,4.7-1.4,8.3-1.4,10.5c0,0.7,0,1.4,0.4,2.2c0,0.7,0,1.1,0.4,1.8c1.1-0.4,2.2-1.1,3.6-1.4
					C584.2,374.2,584.2,373.9,583.8,373.9z"/>
				<g>
					<linearGradient id="SVGID_10_" gradientUnits="userSpaceOnUse" x1="561.4161" y1="341.2491" x2="566.0204" y2="341.2491">
						<stop  offset="0" style="stop-color:#E7AB5E"/>
						<stop  offset="7.103980e-03" style="stop-color:#E7AB5E"/>
						<stop  offset="1" style="stop-color:#ECAB8C"/>
					</linearGradient>
					<path class="st22" d="M566.1,338c-1.1,0.4-2.9,0.7-4.7,1.1c0.4,1.8,0.7,3.6,0.7,5.4C563.5,342,565,339.8,566.1,338z"/>
					<linearGradient id="SVGID_11_" gradientUnits="userSpaceOnUse" x1="544.8131" y1="375.8666" x2="551.4727" y2="375.8666">
						<stop  offset="0" style="stop-color:#E7AB5E"/>
						<stop  offset="7.103980e-03" style="stop-color:#E7AB5E"/>
						<stop  offset="1" style="stop-color:#ECAB8C"/>
					</linearGradient>
					<path class="st23" d="M546.1,370.6c-0.7,4.3-1.1,9.8-1.4,14.5c1.1,0,2.5-0.4,3.6-0.4c0.4-6.5,1.1-14.1,2.2-16.7
						c0.4-0.4,0.4-1.1,0.7-1.4C549.8,367.7,548.3,369.2,546.1,370.6z"/>
				</g>
			</g>
			<path class="st20" d="M507,339.1c1.1-2.2,2.2-4,3.6-5.8c0.4-1.8,1.1-3.6,1.4-4.7c-1.4,1.8-2.9,3.6-4.3,5.4
				c-2.9,4.7-5.1,9.8-6.5,15.6C503,345.6,504.8,342.3,507,339.1z"/>
			<linearGradient id="SVGID_12_" gradientUnits="userSpaceOnUse" x1="501.0264" y1="333.539" x2="608.3228" y2="333.539">
				<stop  offset="0" style="stop-color:#BE8C40"/>
				<stop  offset="1" style="stop-color:#D7B661"/>
			</linearGradient>
			<path class="st24" d="M608.1,354.7l-0.4-2.5c0,0-3.3-13-12.7-24.6c-12.7-15.2-30.1-20.7-51.8-15.9l-0.7,0.4
				c-2.2,0.4-4.3,1.1-6.2,1.4c-12.7,4-22.5,11.2-28.6,20.7c-2.9,4.7-5.1,9.8-6.5,15.6c1.8-4,4-7.6,5.8-10.5
				c5.4-11.2,15.9-22.1,35.9-26.5l0.7-0.4c14.9-3.3,27.9-1.4,38.8,5.8c11.2,7.2,17.8,18.5,22.1,27.5v0.4c2.2,4.7,3.3,8.7,4,11.2
				C608.5,356.5,608.5,355.4,608.1,354.7z"/>
			<g>
				<path class="st28" d="M613.2,374.6c-0.4-1.1-0.4-1.8-0.7-2.9l-2.9-13.4c0,0,0,0,0-0.4c0.4-1.4,0-2.5,0-3.6l-0.4-2.5
					c0,0-3.3-13.4-13-25.4c-9.1-10.9-25.7-22.5-53.3-16.7l-0.7,0.7c-2.2,0.4-4.3,1.1-6.2,1.8c-13,4-23.2,11.2-29.4,21.4
					c-3.6,5.8-6.2,12.3-7.2,19.6c0.4,0,0.4,0,0.7,0c0.4-1.1,1.1-2.2,1.4-3.3c1.4-5.8,3.6-10.9,6.5-15.6c6.2-9.8,15.9-17,28.6-20.7
					c1.8-0.7,4-1.1,6.2-1.4l0.7-0.4c21.4-4.7,39.1,0.7,51.8,15.9c9.4,11.6,12.7,24.6,12.7,24.6l0.4,2.5c0,0.7,0,1.4,0,2.5
					c-0.7-2.5-1.8-6.5-4-11.2V346c-4-9.1-10.9-20.3-22.1-27.5c-10.9-7.2-23.9-9.1-38.8-5.8l-0.7,0.4c-19.9,4.3-30.4,15.2-35.9,26.5
					c7.6-12,14.9-16.7,18.1-18.5c5.1-3.3,10.9-5.4,17.8-6.9l0.7-0.4c14.5-3.3,27.2-1.4,37.7,5.4c10.1,6.5,16.7,16.3,20.7,25
					c-1.1-0.7-2.2-1.1-3.6-1.4c-1.4-0.7-2.9-1.1-4.7-1.4c2.5,1.4,4.3,2.2,6.2,3.6c1.1,0.4,2.2,1.1,2.9,1.8c0.4,1.1,0.7,1.8,1.1,2.9
					c-0.4-0.4-0.7-0.7-1.1-0.7c0.4,0.7,0.7,1.1,1.1,1.8l-0.7,0.7c0.7,0.7,1.1,1.8,1.5,2.5c1.8,8.3-16.7,21.7-47.5,28.6
					c-8.3,1.8-15.9,2.9-22.5,3.3c0,0.4,0,0.7,0,1.4c7.2-0.4,14.9-1.4,22.8-3.3c26.5-5.8,47.1-17.8,48.6-27.5c0.7,2.2,1.1,4,1.1,4.3
					c-1.8,5.4-10.9,14.1-39.9,22.1c-2.9,0.7-5.8,1.4-8.7,2.2l0,0l0,0c-2.5,0.7-5.1,1.1-7.6,1.4c-5.8,1.1-11.2,1.8-15.9,2.2
					c0,0.4,0,1.1,0,1.4c4.7-0.4,10.1-1.1,16.3-2.2c2.5-0.4,5.1-0.7,7.6-1.4l0,0h0.4c2.9-0.7,5.8-1.4,8.7-2.2
					c28.3-7.6,38.1-16.7,41-22.8l2.2,10.5c0.4,1.1,0.4,2.2,0.7,2.9c1.8,7.6,3.3,14.9,0.4,22.8c-3.3,8.3-9.8,14.1-18.1,17
					c-30.4,9.4-55.5,12-55.5,12.3c-9.1,1.1-17.4-1.8-23.6-8c-5.4-5.1-7.2-11.2-8.7-18.1c-0.7,0-1.1,0.4-1.8,0.4
					c1.4,6.9,3.3,13.4,9.1,18.8c6.5,6.2,15.6,9.4,25,8.3c0,0,11.2-1.1,27.9-4.7c8.3-1.8,17.8-4.3,28.3-7.2
					c8.7-2.9,15.9-9.4,19.2-18.1C616.8,389.8,615,382.6,613.2,374.6z"/>
			</g>
			<linearGradient id="SVGID_13_" gradientUnits="userSpaceOnUse" x1="535.1147" y1="374.5979" x2="593.0943" y2="374.5979">
				<stop  offset="0" style="stop-color:#E7AB5E"/>
				<stop  offset="7.103980e-03" style="stop-color:#E7AB5E"/>
				<stop  offset="1" style="stop-color:#ECAB8C"/>
			</linearGradient>
			<path style="opacity:0.5;fill:url(#SVGID_13_);enable-background:new    ;" d="M593.3,369.5l-1.1-1.1c0,0-3.3,1.1-12.3,0.4
				c-8.7-0.7-19.2-3.6-19.2-3.6s-2.9-1.1-6.5-1.8c-2.2,2.5-5.4,5.4-9.1,8c-2.5,1.8-4.3,3.3-5.1,3.6c-1.4,2.9-4.3,6.2-5.1,7.2v0.4
				c0,1.1,0,2.2,0,3.3c12.7-0.7,38.8-3.6,56.5-15.6C591.8,370.2,592.2,369.9,593.3,369.5z"/>
			<path class="st31" d="M603.8,348.1L603.8,348.1L603.8,348.1c-3.3-3.6-4.7-4.7-7.2-6.2c-0.7-0.4-1.4-0.7-2.5-1.4
				c-4-2.5-16.3-3.6-21.7-4c-0.7,0-1.1,0-1.4,0c-1.5,0-5.4,0.4-10.1,1.4c0,0.7,0.4,1.1,0.4,1.8c4.7-1.1,8.3-1.4,9.4-1.4
				c0.4,0,0.7,0,1.4,0c4.7,0.4,17.4,1.4,21,3.6c1.1,0.7,1.8,1.1,2.5,1.4c2.5,1.4,4.3,2.5,7.6,6.9c0.4,0.4,2.5,4,2.5,4.7
				C605.9,355.4,606.3,353.6,603.8,348.1z"/>
		</g>
	</g>
</g>
</svg>
