<?xml version="1.0" encoding="utf-8"?>
<!-- Generator: Adobe Illustrator 21.0.0, SVG Export Plug-In . SVG Version: 6.00 Build 0)  -->
<svg version="1.1" id="圖層_1" xmlns="http://www.w3.org/2000/svg" xmlns:xlink="http://www.w3.org/1999/xlink" x="0px" y="0px"
	 viewBox="0 0 822.9 601.4" style="enable-background:new 0 0 822.9 601.4;" xml:space="preserve">
<style type="text/css">
	.st0{fill:url(#SVGID_1_);}
	.st1{fill:#AC6D21;}
	.st2{fill:url(#SVGID_2_);}
	.st3{fill:url(#SVGID_3_);}
	.st4{fill:url(#SVGID_4_);}
	.st5{fill:url(#SVGID_5_);}
	.st6{opacity:0.6;fill:#D69644;}
	.st7{fill:#949EA6;}
	.st8{fill:url(#SVGID_6_);}
	.st9{fill:url(#SVGID_7_);}
	.st10{fill:url(#SVGID_8_);}
	.st11{fill:url(#SVGID_9_);}
	.st12{fill:url(#SVGID_10_);}
	.st13{fill:#FFFFFF;}
	.st14{opacity:0.5;fill:url(#SVGID_11_);}
	.st15{opacity:0.5;fill:url(#SVGID_12_);}
	.st16{opacity:0.6;fill:#FFFFFF;}
	.st17{fill:url(#SVGID_13_);}
	.st18{fill:#E1BE3F;}
	.st19{fill:#AB6C21;}
	.st20{opacity:0.6;fill:#E1BE3F;}
	.st21{fill:url(#SVGID_14_);}
	.st22{fill:#66411D;}
	.st23{fill:url(#SVGID_15_);}
	.st24{fill:#D9B974;}
	.st25{fill:#DCBF93;}
	.st26{fill:url(#SVGID_16_);}
	.st27{fill:url(#SVGID_17_);}
	.st28{fill:url(#SVGID_18_);}
	.st29{fill:url(#SVGID_19_);}
	.st30{fill:#8C5924;}
	.st31{fill:url(#SVGID_20_);}
	.st32{fill:url(#SVGID_21_);}
	.st33{fill:url(#SVGID_22_);}
	.st34{fill:url(#SVGID_23_);}
	.st35{fill:#F4E3A5;}
	.st36{fill:#DEB87D;}
	.st37{fill:url(#SVGID_24_);}
	.st38{fill:url(#SVGID_25_);}
	.st39{fill:#3F210F;}
	.st40{opacity:0.25;fill:#E1BE3F;}
	.st41{opacity:0.5;fill:#E1BE3F;}
	.st42{fill:#F8E5A9;}
	.st43{fill:#DDBC90;}
	.st44{opacity:0.4;fill:#E1BE3F;}
	.st45{fill:#875424;}
	.st46{fill:#3F210E;}
	.st47{fill:#C88E2C;}
	.st48{fill:#AC7327;}
	.st49{fill:#814323;}
	.st50{fill:#D7C6A6;}
	.st51{fill:url(#SVGID_26_);}
	.st52{fill:#4A1E0E;}
	.st53{fill:#3A1D13;}
	.st54{fill:url(#SVGID_27_);}
	.st55{fill:#EAA593;}
	.st56{fill:url(#SVGID_28_);}
	.st57{fill:url(#SVGID_29_);}
	.st58{fill:#D59543;}
	.st59{opacity:0.6;fill:#D59543;}
	.st60{fill:url(#SVGID_30_);}
	.st61{fill:url(#SVGID_31_);}
</style>
<g>
	<g>
		<linearGradient id="SVGID_1_" gradientUnits="userSpaceOnUse" x1="303.981" y1="345.8741" x2="376.2043" y2="345.8741">
			<stop  offset="0" style="stop-color:#F2D397"/>
			<stop  offset="0.5331" style="stop-color:#F3D093"/>
			<stop  offset="0.7526" style="stop-color:#F5CC8F"/>
			<stop  offset="1" style="stop-color:#F3B699"/>
		</linearGradient>
		<path class="st0" d="M368.1,324.8c-1.8-3.5-6.1-10.2-13.6-13.3l-8.4,10.7L334,335.8l-16.9,14l-13.8,10.3c0,0,0.8,13.3,16.9,17.5
			c12.4,3.2,25.9,2.7,31.5,2.3C355.4,358.1,361.8,339.3,368.1,324.8z"/>
		<path class="st1" d="M354.5,378.7c-0.3-0.8-1.1-1.2-1.9-1c-0.1,0-9.3,2.8-27-0.3c-16.3-2.9-19.2-13.1-19.5-14.4l-0.5-0.5l-0.7,0
			l-1.3-0.3l-0.5,0.7c-0.1,0.2-0.1,0.4,0,0.7c0.1,0.5,2.8,13.5,22,16.9c6.6,1.2,12,1.6,16.3,1.6c7.8,0,11.8-1.2,12.1-1.3
			C354.3,380.3,354.8,379.5,354.5,378.7z"/>
		<path class="st1" d="M355.7,308.8L355.7,308.8l-3.2,1c0,0-15.4,17.9-18.5,22.7l0.7,0.3l3.3-0.3l2.9-1.4l14.7-18.3l1.1-1.4l0.3-1.6
			C357.1,309.7,356.8,308.2,355.7,308.8z"/>
		<path class="st1" d="M329.4,359c0,0,0.5,5,4.9,5.4l-0.6,0.8l-4.1-1.5L329.4,359z"/>
		<linearGradient id="SVGID_2_" gradientUnits="userSpaceOnUse" x1="339.9789" y1="329.2275" x2="342.6455" y2="363.0053">
			<stop  offset="0" style="stop-color:#F2D397"/>
			<stop  offset="0.5331" style="stop-color:#F3D093"/>
			<stop  offset="0.7526" style="stop-color:#F5CC8F"/>
			<stop  offset="1" style="stop-color:#F3B699"/>
		</linearGradient>
		<path class="st2" d="M354.1,343.1c0.9,6.2,0.3,13.1-1.4,15.1c-3.1,3.7-12.6,9.6-22.5,4.7c-0.5-2.1-3.5-14.6,1.5-23.7
			c1.1-2,2.3-3.6,3.7-4.7c4.9-4.1,11-2.7,15.1,0C352.1,335.5,353.4,338.7,354.1,343.1z"/>
		<linearGradient id="SVGID_3_" gradientUnits="userSpaceOnUse" x1="319.3347" y1="330.851" x2="322.0013" y2="364.6287">
			<stop  offset="0" style="stop-color:#F2D397"/>
			<stop  offset="0.5331" style="stop-color:#F3D093"/>
			<stop  offset="0.7526" style="stop-color:#F5CC8F"/>
			<stop  offset="1" style="stop-color:#F3B699"/>
		</linearGradient>
		<path class="st3" d="M315.6,331.9c6.9-2.7,13.8,0,17.1,1.6c-2.5,2-4.9,5.4-5.9,10.8c-2.2,11,0.1,16.3,1.6,18.6
			c-16.6,2.9-18.3-2.4-19.3-5.6c-0.1-0.4-0.2-0.7-0.3-1c-0.8-2-1.6-11.7,1.3-18.5C311.3,334.8,313.2,332.8,315.6,331.9z"/>
		<linearGradient id="SVGID_4_" gradientUnits="userSpaceOnUse" x1="301.9861" y1="332.2269" x2="304.6527" y2="366.0047">
			<stop  offset="0" style="stop-color:#F2D397"/>
			<stop  offset="0.5331" style="stop-color:#F3D093"/>
			<stop  offset="0.7526" style="stop-color:#F5CC8F"/>
			<stop  offset="1" style="stop-color:#F3B699"/>
		</linearGradient>
		<path class="st4" d="M296.5,358.4c-2-1.8-3.1-5.6-2.9-10.2c0.2-5.8,2.3-11.1,5.2-13.3c4-3,9.9-2.9,12.9-2.6
			c-2.6,2.1-6,6.4-6.4,14.5c-0.4,7.8,1.1,12,3.4,14.5C305.9,361.6,300.2,361.7,296.5,358.4z"/>
		<linearGradient id="SVGID_5_" gradientUnits="userSpaceOnUse" x1="292.1519" y1="333.0033" x2="294.8186" y2="366.7811">
			<stop  offset="0" style="stop-color:#F2D397"/>
			<stop  offset="0.5331" style="stop-color:#F3D093"/>
			<stop  offset="0.7526" style="stop-color:#F5CC8F"/>
			<stop  offset="1" style="stop-color:#F3B699"/>
		</linearGradient>
		<path class="st5" d="M300.2,332.4c-2.5,1.1-5.8,3.5-7.6,8.5c-1.1,2.8-1.7,6-1.6,9c-1.7-0.8-3.9-2.1-5.1-4.3
			c-1.1-1.9-1.3-4.2-0.6-6.8C287.7,330.2,290.6,330.7,300.2,332.4z"/>
		<path class="st6" d="M300.2,332.4c-5.6-1-8.9-1.5-11.2-0.1c0.4-0.1,4.6-0.9,6.6,1.4c0,0-8.5,6.7-4.6,16.1c-0.1-3,0.6-6.2,1.6-9
			C294.4,335.9,297.7,333.5,300.2,332.4z"/>
		<path class="st6" d="M298.9,335c-1.7,1.3-3.1,3.6-4,6.5l2-4.3c0,0,5-1.6,9-0.5c0,0-7,10.9,1.3,22.2l0,0c-1.3-2.6-2.1-6.4-1.8-12.1
			c0.5-8.1,3.8-12.4,6.4-14.5C308.8,332.1,302.9,332,298.9,335z"/>
		<path class="st6" d="M315.6,331.9c-2.4,1-4.3,3-5.6,6c0,0,7.7-4.9,18.1-1.6c0,0-5.8,8.9-2.2,15.8l0,0c0-2.2,0.3-4.8,0.9-7.7
			c1.1-5.5,3.4-8.8,5.9-10.8C329.4,331.9,322.4,329.2,315.6,331.9z"/>
		<path class="st6" d="M350.5,334.4c-4.1-2.7-10.2-4-15.1,0c-1,0.8-1.8,1.8-2.7,3c5.1-0.5,14.8-0.6,21.1,4.1
			C353.1,337.9,351.9,335.4,350.5,334.4z"/>
		<path class="st1" d="M303.2,362.8c0,0,2,0.2,3,0.2c0,0,0,0,0,0c0.1,0,0.1,0,0.2,0c1.8,0,3.2-0.2,3.9-0.3c1.4,1,2.9,1.6,4.4,2.1
			l0-0.1c1.4,0.4,3.2,0.6,5.3,0.6c2.6,0,5.7-0.3,9.5-1c2.9,1.4,5.8,2,8.5,2c7.3,0,13.4-4.2,15.9-7.1c2.2-2.6,2.7-10.3,1.8-16.3
			c-0.4-2.9-1.5-7.9-4.3-9.7c-2.4-1.5-5.4-2.7-8.5-2.8c0,0,0,0,0,0c0,0-4.5-0.6-8.8,2.1c-3-1.7-10.9-5.2-19-2.1c0,0-0.5,0.2-1.4,0.6
			c-1.3-0.2-5.8-0.8-10.3,0.3c-0.9-0.2-1.8-0.3-2.7-0.5c-5-0.9-8.5-1.5-11.2-0.5c0,0,0,0,0,0c0,0-5.6,1.5-6.9,8
			c-1.2,6.3,0,10.8,8.6,14.2c0.7,4,3,7.5,7.7,9.1l0,0C300.3,362.2,301.7,362.6,303.2,362.8z M335.4,334.5c4.9-4.1,11-2.7,15.1,0
			c1.7,1.1,3,4.2,3.6,8.7c0.9,6.2,0.3,13.1-1.4,15.1c-3.1,3.7-12.6,9.6-22.5,4.7c-0.5-2.1-3.5-14.6,1.5-23.7
			C332.7,337.2,334,335.7,335.4,334.5z M315.6,331.9c6.9-2.7,13.8,0,17.1,1.6c-2.5,2-4.9,5.4-5.9,10.8c-2.2,11,0.1,16.3,1.6,18.6
			c-16.6,2.9-18.3-2.4-19.3-5.6c-0.1-0.4-0.2-0.7-0.3-1c-0.8-2-1.6-11.7,1.3-18.5C311.3,334.8,313.2,332.8,315.6,331.9z
			 M290.9,349.8c-1.7-0.8-3.9-2.1-5.1-4.3c-1.1-1.9-1.3-4.2-0.6-6.8c2.5-8.5,5.4-8.1,15-6.4c-2.5,1.1-5.8,3.5-7.6,8.5
			C291.5,343.6,290.9,346.8,290.9,349.8z M293.6,348.3c0.2-5.8,2.3-11.1,5.2-13.3c4-3,9.9-2.9,12.9-2.6c-2.6,2.1-6,6.4-6.4,14.5
			c-0.4,7.8,1.1,12,3.4,14.5c-2.8,0.3-8.6,0.3-12.2-2.9C294.5,356.7,293.4,352.8,293.6,348.3z"/>
	</g>
	<g>
		<path class="st7" d="M426.7,296.6c0-0.1,0-0.2,0-0.2c0,0,0,0,0,0c0,0,0,0,0,0c0-0.1-0.1-0.1-0.1-0.2c0,0,0,0,0,0
			c-0.1-0.1-0.1-0.1-0.2-0.1c0,0,0,0,0,0c-0.1,0-0.1,0-0.2-0.1l-39.7-3.7l-8.4-53.2c-0.1-0.4-0.4-0.6-0.7-0.6l-126.8-3
			c-0.2,0-0.4,0.1-0.6,0.3c-0.1,0.2-0.2,0.4-0.2,0.6l14.9,91.3c-0.4,0.4-1.1,1.3-1.2,2.6c-0.2,1.4,0.3,2.8,1.5,4.1
			c0.1,0.2,0.3,0.3,0.5,0.3l126.8,5.4c0,0,0,0,0,0c0.2,0,0.3-0.1,0.5-0.2c0.1,0,1-0.8,1.5-2l32.4-36.2c0.1-0.1,0.2-0.3,0.2-0.5
			L426.7,296.6C426.7,296.6,426.7,296.6,426.7,296.6z M424.4,297.2l-31.8,35l-1.5-9.6l19.8-20.4c0.2-0.2,0.3-0.5,0.2-0.8
			c-0.1-0.3-0.3-0.5-0.6-0.5l-23.1-2.1l-0.8-5.1L424.4,297.2z M387.6,300.4l21.2,1.9l-17.9,18.5L387.6,300.4z M376.5,239.9
			l14.8,93.2L266,327.1l-14.8-90.2L376.5,239.9z M391.8,338.5l-126.1-5.4c-0.7-1-1-1.9-0.9-2.7c0.1-0.9,0.6-1.5,0.8-1.8l126.2,6
			c0.7,0.6,1.1,1.1,1.1,1.8C392.9,337.3,392.2,338.2,391.8,338.5z M394.3,335.4c-0.2-0.6-0.6-1.1-1.1-1.6l32-35.2v2.3L394.3,335.4z"
			/>
		<linearGradient id="SVGID_6_" gradientUnits="userSpaceOnUse" x1="386.5089" y1="312.9535" x2="424.3685" y2="312.9535">
			<stop  offset="0" style="stop-color:#FCF1DA"/>
			<stop  offset="1" style="stop-color:#DEE6EE"/>
		</linearGradient>
		<path class="st8" d="M424.4,297.2l-31.8,35l-1.5-9.6l19.8-20.4c0.2-0.2,0.3-0.5,0.2-0.8c-0.1-0.3-0.3-0.5-0.6-0.5l-23.1-2.1
			l-0.8-5.1L424.4,297.2z"/>
		<linearGradient id="SVGID_7_" gradientUnits="userSpaceOnUse" x1="387.5602" y1="310.533" x2="408.7259" y2="310.533">
			<stop  offset="0" style="stop-color:#FCF1DA"/>
			<stop  offset="1" style="stop-color:#DEE6EE"/>
		</linearGradient>
		<polygon class="st9" points="387.6,300.4 408.7,302.3 390.8,320.7 		"/>
		<linearGradient id="SVGID_8_" gradientUnits="userSpaceOnUse" x1="251.2142" y1="284.9901" x2="391.222" y2="284.9901">
			<stop  offset="0" style="stop-color:#FCF1DA"/>
			<stop  offset="1" style="stop-color:#DEE6EE"/>
		</linearGradient>
		<polygon class="st10" points="376.5,239.9 391.2,333.1 266,327.1 251.2,236.9 		"/>
		<linearGradient id="SVGID_9_" gradientUnits="userSpaceOnUse" x1="264.7559" y1="333.5759" x2="392.9153" y2="333.5759">
			<stop  offset="0" style="stop-color:#FCF1DA"/>
			<stop  offset="1" style="stop-color:#DEE6EE"/>
		</linearGradient>
		<path class="st11" d="M391.8,338.5l-126.1-5.4c-0.7-1-1-1.9-0.9-2.7c0.1-0.9,0.6-1.5,0.8-1.8l126.2,6c0.7,0.6,1.1,1.1,1.1,1.8
			C392.9,337.3,392.2,338.2,391.8,338.5z"/>
		<linearGradient id="SVGID_10_" gradientUnits="userSpaceOnUse" x1="393.1769" y1="317.0009" x2="425.1839" y2="317.0009">
			<stop  offset="0" style="stop-color:#CEC5B4"/>
			<stop  offset="1" style="stop-color:#DEE6EE"/>
		</linearGradient>
		<path class="st12" d="M394.3,335.4c-0.2-0.6-0.6-1.1-1.1-1.6l32-35.2v2.3L394.3,335.4z"/>
		<g>
			<path class="st13" d="M327.3,308.2c-1.7,0-3.2-0.7-4.6-2c-1.8-1.8-3.7-2.2-5.7-1.4c-0.8,0.3-1.5,0.9-2,1.4
				c-2.2,2-4.7,2.5-7.4,1.4c-2.7-1.1-4.2-3.6-4.2-7c0,0,0,0,0,0c0.1-2.7,1.1-5.2,2.9-7.1c2.6-2.8,5.5-5.6,8.6-8.7
				c2.2-2.1,5.6-2.1,7.7,0c2.9,2.7,5.9,5.7,8.7,8.8c2.3,2.6,3.3,5.7,2.7,9c-0.4,2.6-2.1,4.4-4.7,5.2
				C328.7,308.1,328,308.2,327.3,308.2z"/>
			<path class="st13" d="M319,303.6c1.5,0,3,0.7,4.4,2c1.7,1.7,3.7,2.2,5.9,1.4c2.3-0.7,3.7-2.3,4.1-4.6c0.5-3.1-0.3-6-2.5-8.3
				c-2.8-3.1-5.9-6-8.7-8.8c-1.8-1.8-4.7-1.7-6.6,0c-3.1,3-6,5.8-8.6,8.6c-2.2,2.3-2.6,5.1-2.7,6.6c0,3,1.3,5.2,3.7,6.2
				c2.4,1,4.6,0.6,6.6-1.3c0.6-0.5,1.4-1.2,2.3-1.5C317.5,303.8,318.2,303.6,319,303.6z"/>
			<path class="st13" d="M332.9,290.2c-1,0-2-0.3-2.9-0.9c-1.6-1-2.6-2.9-2.5-4.9c0.1-1.8,1.1-3.4,2.7-4.2c2.7-1.4,4.6-3.4,6.7-5.8
				c0.3-0.4,0.6-0.7,0.9-1l0.1-0.1c0.1-0.1,0.3-0.1,0.4-0.2l0.1,0c0.1,0,0.2,0,0.3,0.1c0.1,0.1,0.1,0.2,0.1,0.3v4c0,0.7,0,1.4,0,2.1
				c0,1.6,0,3.2,0,4.8c-0.1,2.3-1.2,4-3.2,5.1C334.7,290,333.8,290.2,332.9,290.2z"/>
			<path class="st13" d="M338,274.3c-0.2,0.2-0.4,0.4-0.6,0.6c-2.1,2.4-4.1,4.6-6.9,6c-1.3,0.7-2.2,2-2.3,3.5
				c-0.1,1.7,0.7,3.3,2.1,4.2c1.5,1,3.2,1,4.8,0.1c1.8-0.9,2.7-2.4,2.8-4.4c0-1.6,0-3.2,0-4.8c0-0.7,0-1.4,0-2.1V274.3z"/>
			<path class="st13" d="M304.9,290.2c-2.7,0-5-1.8-5.7-4.3c-0.1-0.5-0.2-1-0.2-1.4c0-3,0-5.9,0-8.9l0-1.7c0-0.1,0-0.2,0-0.3l0-0.3
				c0-0.2,0.1-0.3,0.3-0.3c0.2-0.1,0.3,0,0.4,0.1c0.4,0.5,0.8,0.9,1.1,1.3c0.8,0.9,1.6,1.8,2.4,2.6c1.2,1.2,2.5,2.1,3.6,2.7
				c2.6,1.4,3.8,3.7,3.3,6c-0.5,2.5-2.6,4.3-5,4.4C305.1,290.2,305,290.2,304.9,290.2z"/>
			<path class="st13" d="M299.7,274.3l0,1.3c0,3,0,5.9,0,8.9c0,0.3,0.1,0.7,0.2,1.2c0.6,2.2,2.8,3.8,5.2,3.7
				c2.1-0.1,3.8-1.6,4.3-3.7c0.4-2-0.7-3.9-2.9-5.2c-1.2-0.7-2.5-1.6-3.8-2.8c-0.9-0.8-1.6-1.7-2.5-2.7
				C300.1,274.7,299.9,274.5,299.7,274.3z"/>
			<path class="st13" d="M312.1,278.9c-1,0-2-0.3-2.8-0.9c-1.7-1.1-2.4-3.1-2-5.1c0.5-2.1,3.3-8.7,4.5-10.4c0.1-0.1,0.2-0.2,0.4-0.2
				c0.1,0,0.3,0.1,0.3,0.2l1,2.1c0.8,1.7,1.6,3.5,2.3,5.2c0.4,0.9,0.7,1.8,1,3c0.5,1.9-0.3,3.9-2,5.1
				C314.1,278.6,313.1,278.9,312.1,278.9z"/>
			<path class="st13" d="M312.2,263.6c-1.3,2.1-3.6,7.5-4,9.5c-0.4,1.6,0.3,3.3,1.6,4.3c1.4,1,3.3,1,4.7,0c1.4-1,2-2.6,1.6-4.2
				c-0.3-1.1-0.6-2-1-2.9c-0.7-1.7-1.5-3.4-2.3-5.2L312.2,263.6z"/>
			<path class="st13" d="M325.6,278.9c-1,0-1.9-0.3-2.7-0.8c-1.6-1.1-2.5-3.1-2.1-4.9c0.5-2.2,3-8.2,4.5-10.6
				c0.1-0.1,0.2-0.2,0.4-0.2c0.1,0,0.3,0.1,0.3,0.2c0.3,0.5,0.5,1.1,0.8,1.6c1.5,3,2.8,5.8,3.6,8.9c0.4,1.8-0.4,3.8-2,4.9
				C327.6,278.6,326.6,278.9,325.6,278.9z"/>
			<path class="st13" d="M325.6,263.6c-1.5,2.6-3.6,7.8-4,9.7c-0.3,1.5,0.4,3.2,1.7,4.1c1.4,0.9,3.2,0.9,4.6,0
				c1.4-0.9,2.1-2.6,1.7-4c-0.8-3-2.1-5.8-3.6-8.8C325.9,264.3,325.8,264,325.6,263.6z"/>
		</g>
		<linearGradient id="SVGID_11_" gradientUnits="userSpaceOnUse" x1="308.0812" y1="284.8452" x2="379.2123" y2="284.8452">
			<stop  offset="0" style="stop-color:#FCF1DA"/>
			<stop  offset="1" style="stop-color:#DEE6EE"/>
		</linearGradient>
		<polygon class="st14" points="372.2,239.8 308.1,329.1 327.6,329.9 379.2,257.2 376.5,239.9 		"/>
		<linearGradient id="SVGID_12_" gradientUnits="userSpaceOnUse" x1="341.2005" y1="302.9239" x2="383.6084" y2="302.9239">
			<stop  offset="0" style="stop-color:#FCF1DA"/>
			<stop  offset="1" style="stop-color:#DEE6EE"/>
		</linearGradient>
		<polygon class="st15" points="341.2,330.7 349.5,331.1 383.6,285 383.6,285 382,274.8 		"/>
		<polygon class="st16" points="257.2,273.6 259.2,286 298.6,238 287.3,237.8 		"/>
		<polygon class="st7" points="406.8,305.6 388,304.1 388.1,303.6 406.9,305.1 		"/>
		<polygon class="st7" points="400.3,311.8 388.5,310.8 388.6,310.3 400.3,311.3 		"/>
		
			<rect x="393" y="309.8" transform="matrix(0.1143 -0.9934 0.9934 0.1143 36.3179 668.838)" class="st7" width="0.5" height="8.4"/>
		<polygon class="st7" points="394.4,317.9 389.6,317.4 389.6,317 394.5,317.4 		"/>
		
			<rect x="386.5" y="307.1" transform="matrix(0.7414 -0.6711 0.6711 0.7414 -103.9134 345.0441)" class="st7" width="18.5" height="0.5"/>
		<polygon class="st7" points="403.1,308.9 387.4,307.5 395.8,300.5 396.2,300.9 388.7,307.1 403.1,308.4 		"/>
	</g>
</g>
<g>
	<g>
		
			<linearGradient id="SVGID_13_" gradientUnits="userSpaceOnUse" x1="3452.4932" y1="381.7801" x2="3537.5642" y2="381.7801" gradientTransform="matrix(-1 0 0 1 4056.4385 0)">
			<stop  offset="0" style="stop-color:#F2D397"/>
			<stop  offset="0.5331" style="stop-color:#F3D093"/>
			<stop  offset="0.7526" style="stop-color:#F5CC8F"/>
			<stop  offset="1" style="stop-color:#F3B699"/>
		</linearGradient>
		<path class="st17" d="M518.7,357.6l8.1-18.4c0-0.5,0.1-1,0.2-1.5c0-0.2,0.1-0.3,0.1-0.5c0.1-0.4,0.1-0.7,0.2-1.1
			c0-0.2,0.1-0.4,0.1-0.5c0.1-0.4,0.2-0.8,0.4-1.2c0-0.1,0.1-0.3,0.1-0.4c0.2-0.5,0.4-1.1,0.6-1.6c0.1-0.1,0.1-0.3,0.2-0.4
			c0.2-0.4,0.3-0.8,0.5-1.2c0.1-0.2,0.2-0.4,0.3-0.6c0.2-0.4,0.4-0.7,0.5-1.1c0.1-0.2,0.2-0.4,0.3-0.6c3-5.6,7.1-11,10.1-14.5
			c0.1-0.1,0.2-0.2,0.3-0.4c15.8,19.9,33.8,47.3,47.8,81.6c0,0,13,12.4,13,29.8c0,17.4-13.3,23.1-20.6,21.5v0
			c-8.2,7-19.6,2.7-21.9-8.7l-0.1-0.2c-0.5,0.3-1,0.6-1.6,0.9c-4.9,2.4-11.3-0.6-13.3-5l0,0l0,0c-0.1-0.2-0.2-0.3-0.2-0.5l0.2-0.1
			l-1.6-14.1l0.5-0.1v-3.6l0.7-2.5c-0.3-0.7-0.6-1.5-0.9-2.3l-0.7-1l-0.9-2.4l-0.1-0.7c-2.7-6.5-6.6-15.4-11.8-26
			c-3.4-7-7.4-14.3-11.2-21L518.7,357.6z"/>
	</g>
	<path class="st58" d="M569.3,417.7c0,0,2.5,19.1-8.3,25.4l-2-5.3C559,437.8,570.6,431.8,569.3,417.7z"/>
	<path class="st58" d="M587.9,423.7c0,0,5,12.8,1.3,21.9c0,0-3.4,1.3-8.4,0.9C580.9,446.5,589.4,442.1,587.9,423.7z"/>
	<path class="st19" d="M569.6,423.7c0,0,0.1,11.4-9.5,15.7l-0.4-1.7C559.7,437.7,569.8,428.6,569.6,423.7z"/>
	<path class="st19" d="M588.8,430.4c0,0,0.7,10.6-5,16.2l-3.5-0.3C580.3,446.4,587.9,439.3,588.8,430.4z"/>
	<path class="st59" d="M518.7,357.6l8.1-18.4c0-0.5,0.1-1,0.2-1.5c0-0.2,0.1-0.3,0.1-0.5c0.1-0.4,0.1-0.7,0.2-1.1
		c0-0.2,0.1-0.4,0.1-0.5c0.1-0.4,0.2-0.8,0.4-1.2c0-0.1,0.1-0.3,0.1-0.4c0.2-0.5,0.4-1.1,0.6-1.6c0.1-0.1,0.1-0.3,0.2-0.4
		c0.2-0.4,0.3-0.8,0.5-1.2c0.1-0.2,0.2-0.4,0.3-0.6c0.2-0.4,0.4-0.7,0.5-1.1c0.1-0.2,0.2-0.4,0.3-0.6c0-0.1,0.1-0.2,0.1-0.2
		c10.8,21.3,22.4,49.5,23.1,73.6c0,0-13.4,17-8.5,33.3c-0.4-0.5-0.7-1-0.9-1.6l0,0l0,0c-0.1-0.2-0.2-0.3-0.2-0.5l0.2-0.1l-1.6-14.1
		l0.5-0.1v-3.6l0.9-3.1l-1.8-2.7l-1-2.5l-20-43.6c0,0-1.1-1.3-2.9-4.2L518.7,357.6z"/>
	<g>
		<path class="st19" d="M542.9,413.8l-0.5-1.1c0,0,0,0,0-0.1c-0.2-0.4-13.2-29-24.9-52l1.3-3l0,0c10.8,20.8,22.7,47,25.4,52.8
			c0.5-1.2,0.9-1.7,0.9-1.7l0,0c1.1-1.9,2.4-3.5,2.5-3.6c0.2-0.3,0.6-0.3,0.9-0.1c0.3,0.2,0.3,0.6,0.1,0.9c-0.2,0.3-0.5,0.6-0.9,1.1
			c0,0-7,10.6-3.1,25.8h0c0.8,2.2,2.8,4.2,5.4,5.3c2.5,1,5.1,1,7.2-0.1c8.5-4.3,13.1-13.4,11.2-22.3c-0.1-0.3,0.1-0.7,0.5-0.8
			c0.3-0.1,0.7,0.1,0.8,0.5c1.9,8.7-2.1,17.6-9.9,22.5c1.2,5.4,4.6,9.5,9.1,10.9c4.4,1.3,8.9,0,12.6-3.6c8.9-8.9,5.5-22.4,5.5-22.5
			c-0.1-0.3,0.1-0.7,0.5-0.8c0.3-0.1,0.7,0.1,0.8,0.5c0,0.1,3.6,14.3-5.8,23.8c0,0,0,0,0,0c3,0.3,7.3-0.5,11.2-3.7
			c3.3-2.7,7.3-7.9,7.3-17.4c0-17-12.6-29.2-12.8-29.3c-0.1-0.1-0.1-0.1-0.2-0.2c-14-34.3-32-61.5-47.7-81.3
			c0.1-0.1,0.1-0.2,0.2-0.2c1.1-1.3,2.1-2.4,2.7-3c0,0,0,0,0,0c5.2,6.5,10.7,13.8,16,22l0,0c0,0,25.9,38.6,31.6,60.1
			c7,9.1,20.2,30.1,7.6,46.1c-1.2,1.8-2.6,3.2-3.9,4.3c-0.5,0.4-1,0.8-1.6,1.1c-0.1,0.1-0.2,0.1-0.2,0.1c0,0,0.1,0,0.1-0.1
			c-2.9,1.8-6.1,2.8-9.2,2.8c-0.8,0-1.6-0.1-2.4-0.2c-2.7,2.2-5.8,3.4-8.9,3.4c-1.2,0-2.5-0.2-3.7-0.5c-4.9-1.5-8.6-5.7-9.9-11.4
			c-0.3,0.2-0.6,0.3-0.9,0.5c-1.2,0.6-2.6,0.9-4.1,0.9c-1.4,0-2.8-0.3-4.2-0.8c-2.7-1.1-4.8-3.1-5.9-5.4h0c0,0,0-0.1-0.1-0.2
			c-0.1-0.1-0.1-0.3-0.2-0.4c0,0,0,0,0,0c0,0-1.1-2.6-1.4-7c-0.2-1.8-0.2-3.7-0.1-5.9C541.9,417.7,542.4,415.5,542.9,413.8z"/>
	</g>
</g>
</svg>
