<?xml version="1.0" encoding="utf-8"?>
<!-- Generator: Adobe Illustrator 21.0.0, SVG Export Plug-In . SVG Version: 6.00 Build 0)  -->
<svg version="1.1" id="圖層_1" xmlns="http://www.w3.org/2000/svg" xmlns:xlink="http://www.w3.org/1999/xlink" x="0px" y="0px"
	 viewBox="0 0 822.9 601.4" style="enable-background:new 0 0 822.9 601.4;" xml:space="preserve">
<style type="text/css">
	.st0{fill:url(#SVGID_1_);}
	.st1{fill:#D59543;}
	.st2{fill:#AB6C21;}
	.st3{opacity:0.6;fill:#D59543;enable-background:new    ;}
	.st4{fill:url(#SVGID_2_);}
	.st5{fill:#73291B;}
	.st6{fill:url(#SVGID_3_);}
	.st7{fill:url(#SVGID_4_);}
	.st8{fill:url(#SVGID_5_);}
	.st9{fill:#FFFFFF;}
	.st10{fill:url(#SVGID_6_);}
	.st11{fill:url(#SVGID_7_);}
	.st12{fill:url(#SVGID_8_);}
	.st13{fill:url(#SVGID_9_);}
	.st14{fill:url(#SVGID_10_);}
	.st15{fill:url(#SVGID_11_);}
	.st16{fill:url(#SVGID_12_);}
	.st17{fill:url(#SVGID_13_);}
	.st18{fill:url(#SVGID_14_);}
	.st19{fill:#C8C9CA;}
	.st20{fill:#F4E3A5;}
	.st21{fill:#F3B699;}
	.st22{fill:url(#SVGID_15_);}
	.st23{fill:#E2BF40;}
	.st24{fill:#AC6D21;}
	.st25{opacity:0.6;fill:#E2BF40;enable-background:new    ;}
	.st26{fill:url(#SVGID_16_);}
	.st27{fill:url(#SVGID_17_);}
	.st28{opacity:0.6;}
	.st29{fill:url(#SVGID_18_);}
	.st30{fill:#FCE4B4;}
	.st31{opacity:0.5;fill:#DA9E36;enable-background:new    ;}
	.st32{fill:url(#SVGID_19_);}
	.st33{fill:url(#SVGID_20_);}
	.st34{fill:url(#SVGID_21_);}
	.st35{opacity:0.4;fill:#C49358;enable-background:new    ;}
	.st36{opacity:0.5;}
	.st37{fill:url(#SVGID_22_);}
	.st38{fill:url(#SVGID_23_);}
	.st39{fill:url(#SVGID_24_);}
	.st40{fill:url(#SVGID_25_);}
	.st41{fill:url(#SVGID_26_);}
	.st42{fill:url(#SVGID_27_);}
	.st43{fill:#7D5223;}
	.st44{fill:url(#SVGID_28_);}
	.st45{opacity:0.5;fill:url(#SVGID_29_);enable-background:new    ;}
	.st46{fill:#CC7C5C;}
	.st47{fill:url(#SVGID_30_);}
	.st48{fill:url(#SVGID_31_);}
	.st49{fill:#D69644;}
	.st50{fill:url(#SVGID_32_);}
	.st51{fill:url(#SVGID_33_);}
	.st52{fill:url(#SVGID_34_);}
	.st53{fill:url(#SVGID_35_);}
	.st54{fill:url(#SVGID_36_);}
	.st55{fill:url(#SVGID_37_);}
	.st56{fill:url(#SVGID_38_);}
	.st57{fill:url(#SVGID_39_);}
	.st58{fill:url(#SVGID_40_);}
	.st59{fill:url(#SVGID_41_);}
	.st60{fill:url(#SVGID_42_);}
	.st61{opacity:0.5;fill:url(#SVGID_43_);enable-background:new    ;}
	.st62{fill:url(#SVGID_44_);}
	.st63{fill:#CE9245;}
	.st64{fill:#A66A22;}
	.st65{opacity:0.6;fill:#CE9245;enable-background:new    ;}
	.st66{fill:url(#SVGID_45_);}
	.st67{fill:url(#SVGID_46_);}
	.st68{fill:url(#SVGID_47_);}
	.st69{fill:url(#SVGID_48_);}
	.st70{fill:url(#SVGID_49_);}
	.st71{fill:url(#SVGID_50_);}
	.st72{fill:#898989;}
	.st73{fill:#C9CACA;}
	.st74{fill:url(#SVGID_51_);}
	.st75{fill:url(#SVGID_52_);}
	.st76{fill:#9F7433;}
	.st77{fill:#746766;}
	.st78{fill:#2F2A28;}
	.st79{opacity:0.5;fill:#2F2A28;enable-background:new    ;}
	.st80{fill:#865C25;}
	.st81{fill:#755325;}
	.st82{fill:none;stroke:#746766;stroke-width:0.8163;stroke-linecap:round;stroke-miterlimit:10;}
	.st83{fill:url(#SVGID_53_);}
	.st84{fill:url(#SVGID_54_);}
	.st85{fill:url(#SVGID_55_);}
	.st86{fill:url(#SVGID_56_);}
	.st87{fill:url(#SVGID_57_);}
	.st88{fill:url(#SVGID_58_);}
	.st89{fill:url(#SVGID_59_);}
	.st90{fill:url(#SVGID_60_);}
	.st91{fill:url(#SVGID_61_);}
	.st92{opacity:0.8;}
	.st93{fill:url(#SVGID_62_);}
	.st94{fill:url(#SVGID_63_);}
	.st95{fill:url(#SVGID_64_);}
	.st96{fill:url(#SVGID_65_);}
	.st97{fill:url(#SVGID_66_);}
	.st98{fill:url(#SVGID_67_);}
	.st99{fill:url(#SVGID_68_);}
	.st100{fill:#3C3A39;}
	.st101{fill:url(#SVGID_69_);}
	.st102{fill:url(#SVGID_70_);}
	.st103{fill:url(#SVGID_71_);}
	.st104{fill:#532817;}
	.st105{fill:#48210E;}
	.st106{fill:url(#SVGID_72_);}
	.st107{fill:url(#SVGID_73_);}
	.st108{fill:url(#SVGID_74_);}
	.st109{fill:url(#SVGID_75_);}
	.st110{fill:url(#SVGID_76_);}
	.st111{fill:url(#SVGID_77_);}
	.st112{fill:url(#SVGID_78_);}
	.st113{fill:url(#SVGID_79_);}
	.st114{fill:url(#SVGID_80_);}
	.st115{fill:url(#SVGID_81_);}
	.st116{fill:url(#SVGID_82_);}
	.st117{fill:url(#SVGID_83_);}
	.st118{fill:url(#SVGID_84_);}
	.st119{fill:url(#SVGID_85_);}
	.st120{fill:url(#SVGID_86_);}
	.st121{fill:url(#SVGID_87_);}
	.st122{fill:#A46723;}
	.st123{fill:url(#SVGID_88_);}
	.st124{fill:url(#SVGID_89_);}
	.st125{fill:url(#SVGID_90_);}
	.st126{fill:url(#SVGID_91_);}
	.st127{fill:url(#SVGID_92_);}
	.st128{fill:url(#SVGID_93_);}
	.st129{fill:url(#SVGID_94_);}
	.st130{fill:url(#SVGID_95_);}
	.st131{fill:url(#SVGID_96_);}
	.st132{fill:url(#SVGID_97_);}
	.st133{fill:url(#SVGID_98_);}
	.st134{fill:url(#SVGID_99_);}
	.st135{fill:url(#SVGID_100_);}
	.st136{fill:url(#SVGID_101_);}
	.st137{fill:url(#SVGID_102_);}
	.st138{fill:url(#SVGID_103_);}
	.st139{fill:url(#SVGID_104_);}
	.st140{fill:url(#SVGID_105_);}
	.st141{fill:url(#SVGID_106_);}
	.st142{fill:url(#SVGID_107_);}
	.st143{fill:url(#SVGID_108_);}
	.st144{fill:url(#SVGID_109_);}
	.st145{fill:url(#SVGID_110_);}
	.st146{fill:url(#SVGID_111_);}
	.st147{fill:url(#SVGID_112_);}
	.st148{fill:url(#SVGID_113_);}
	.st149{fill:url(#SVGID_114_);}
	.st150{fill:url(#SVGID_115_);}
	.st151{fill:url(#SVGID_116_);}
	.st152{fill:url(#SVGID_117_);}
	.st153{fill:url(#SVGID_118_);}
	.st154{fill:url(#SVGID_119_);}
	.st155{fill:url(#SVGID_120_);}
	.st156{fill:url(#SVGID_121_);}
	.st157{fill:url(#SVGID_122_);}
	.st158{fill:url(#SVGID_123_);}
	.st159{fill:url(#SVGID_124_);}
	.st160{fill:url(#SVGID_125_);}
	.st161{fill:url(#SVGID_126_);}
	.st162{fill:url(#SVGID_127_);}
	.st163{fill:url(#SVGID_128_);}
	.st164{fill:url(#SVGID_129_);}
	.st165{fill:url(#SVGID_130_);}
	.st166{fill:url(#SVGID_131_);}
	.st167{fill:url(#SVGID_132_);}
	.st168{fill:url(#SVGID_133_);}
	.st169{fill:url(#SVGID_134_);}
	.st170{fill:url(#SVGID_135_);}
	.st171{fill:url(#SVGID_136_);}
	.st172{fill:url(#SVGID_137_);}
	.st173{fill:url(#SVGID_138_);}
	.st174{fill:url(#SVGID_139_);}
	.st175{fill:url(#SVGID_140_);}
	.st176{fill:url(#SVGID_141_);}
	.st177{fill:url(#SVGID_142_);}
	.st178{fill:url(#SVGID_143_);}
	.st179{fill:url(#SVGID_144_);}
	.st180{fill:url(#SVGID_145_);}
	.st181{fill:url(#SVGID_146_);}
	.st182{fill:url(#SVGID_147_);}
	.st183{fill:url(#SVGID_148_);}
	.st184{fill:url(#SVGID_149_);}
	.st185{fill:url(#SVGID_150_);}
	.st186{fill:url(#SVGID_151_);}
	.st187{fill:url(#SVGID_152_);}
	.st188{fill:url(#SVGID_153_);}
	.st189{fill:url(#SVGID_154_);}
	.st190{fill:url(#SVGID_155_);}
	.st191{fill:url(#SVGID_156_);}
	.st192{fill:url(#SVGID_157_);}
	.st193{fill:url(#SVGID_158_);}
	.st194{fill:url(#SVGID_159_);}
	.st195{fill:url(#SVGID_160_);}
	.st196{fill:url(#SVGID_161_);}
	.st197{fill:url(#SVGID_162_);}
	.st198{fill:url(#SVGID_163_);}
	.st199{fill:url(#SVGID_164_);}
	.st200{fill:url(#SVGID_165_);}
	.st201{fill:url(#SVGID_166_);}
	.st202{fill:url(#SVGID_167_);}
	.st203{fill:url(#SVGID_168_);}
	.st204{fill:url(#SVGID_169_);}
	.st205{fill:url(#SVGID_170_);}
	.st206{fill:#BED26B;}
	.st207{fill:#F3E4A2;}
	.st208{fill:#8EA63A;}
	.st209{fill:none;stroke:#BED26B;stroke-width:1.0883;stroke-miterlimit:10;}
	.st210{opacity:0.6;fill:#DCCFB8;enable-background:new    ;}
	.st211{fill:url(#SVGID_171_);}
	.st212{fill:url(#SVGID_172_);}
	.st213{fill:#888888;}
	.st214{fill:#456430;}
	.st215{fill:#709846;}
	.st216{fill:url(#SVGID_173_);}
	.st217{fill:url(#SVGID_174_);}
	.st218{fill:url(#SVGID_175_);}
	.st219{opacity:0.6;fill:#709846;enable-background:new    ;}
	.st220{fill:#211714;}
	.st221{fill:url(#SVGID_176_);}
	.st222{fill:url(#SVGID_177_);}
	.st223{opacity:0.6;fill:#D69644;enable-background:new    ;}
	.st224{fill:url(#SVGID_178_);}
</style>
<g>
	<g>
		<g>
			
				<linearGradient id="SVGID_1_" gradientUnits="userSpaceOnUse" x1="291.1434" y1="219.7976" x2="376.1833" y2="219.7976" gradientTransform="matrix(1 0 0 -1 0 602)">
				<stop  offset="0" style="stop-color:#F2D397"/>
				<stop  offset="0.5331" style="stop-color:#F3D093"/>
				<stop  offset="0.7526" style="stop-color:#F5CC8F"/>
				<stop  offset="1" style="stop-color:#F3B699"/>
			</linearGradient>
			<path class="st0" d="M376.3,358.2l-8.1-18.3c0-0.4,0-1-0.2-1.5c0-0.2,0-0.4,0-0.4c0-0.4-0.2-0.8-0.2-1s0-0.4-0.2-0.6
				c-0.2-0.4-0.2-0.8-0.4-1.2c0-0.2,0-0.2-0.2-0.4c-0.2-0.6-0.4-1-0.6-1.7c0-0.2-0.2-0.2-0.2-0.4c-0.2-0.4-0.4-0.8-0.6-1.2
				c0-0.2-0.2-0.4-0.2-0.6c-0.2-0.4-0.4-0.8-0.6-1c0-0.2-0.2-0.4-0.2-0.6c-2.9-5.6-7.1-11-10-14.6c-0.2-0.2-0.2-0.2-0.4-0.4
				c-15.8,20-33.7,47.3-47.9,81.6c0,0-12.9,12.3-12.9,29.8c0,17.5,13.3,23.1,20.6,21.4l0,0c8.1,7.1,19.6,2.7,21.9-8.7V438
				c0.4,0.2,1,0.6,1.7,0.8c4.8,2.5,11.2-0.6,13.3-5l0,0l0,0c0-0.2,0.2-0.4,0.2-0.6l-0.2-0.2l1.7-14.2H352v-3.5l-0.6-2.5
				c0.2-0.6,0.6-1.5,0.8-2.3l0.6-1l0.8-2.5v-0.6c2.7-6.5,6.7-15.4,11.9-26c3.3-6.9,7.3-14.2,11.2-21L376.3,358.2z"/>
		</g>
		<path class="st1" d="M325.7,418.4c0,0-2.5,19.2,8.3,25.4l1.9-5.4C336.1,438.4,324.5,432.5,325.7,418.4z"/>
		<path class="st1" d="M307.2,424.4c0,0-5,12.7-1.2,21.9c0,0,3.3,1.2,8.3,0.8C314.3,447.1,305.5,442.7,307.2,424.4z"/>
		<path class="st2" d="M325.5,424.4c0,0-0.2,11.5,9.6,15.6l0.4-1.7C335.5,438.4,325.3,429.2,325.5,424.4z"/>
		<path class="st2" d="M306.4,431.1c0,0-0.6,10.6,5,16.2l3.5-0.2C314.9,447.1,307.2,439.8,306.4,431.1z"/>
		<path class="st3" d="M376.3,358.2l-8.1-18.3c0-0.4,0-1-0.2-1.5c0-0.2,0-0.4,0-0.4c0-0.4-0.2-0.8-0.2-1s0-0.4-0.2-0.6
			c-0.2-0.4-0.2-0.8-0.4-1.2c0-0.2,0-0.2-0.2-0.4c-0.2-0.6-0.4-1-0.6-1.7c0-0.2-0.2-0.2-0.2-0.4c-0.2-0.4-0.4-0.8-0.6-1.2
			c0-0.2-0.2-0.4-0.2-0.6c-0.2-0.4-0.4-0.8-0.6-1c0-0.2-0.2-0.4-0.2-0.6c0,0,0-0.2-0.2-0.2c-10.8,21.2-22.5,49.6-23.1,73.5
			c0,0,13.3,16.9,8.5,33.3c0.4-0.4,0.6-1,0.8-1.7l0,0l0,0c0-0.2,0.2-0.4,0.2-0.6l-0.2-0.2l1.7-14.2h-0.4v-3.5l-0.8-3.1l1.9-2.7
			l1-2.5l20-43.5c0,0,1-1.2,2.9-4.2L376.3,358.2z"/>
		<g>
			<path class="st2" d="M352.2,414.4l0.6-1.2l0,0c0.2-0.4,13.1-28.9,25-52.1l-1.2-2.9l0,0c-10.8,20.8-22.7,47.1-25.4,52.7
				c-0.4-1.2-0.8-1.7-0.8-1.7l0,0c-1-1.9-2.3-3.5-2.5-3.5c-0.2-0.2-0.6-0.2-0.8,0c-0.2,0.2-0.2,0.6,0,0.8c0.2,0.2,0.6,0.6,0.8,1
				c0,0,6.9,10.6,3.1,25.8l0,0c-0.8,2.3-2.9,4.2-5.4,5.2c-2.5,1-5.2,1-7.3,0c-8.5-4.2-13.1-13.3-11.2-22.3c0-0.4-0.2-0.6-0.4-0.8
				c-0.4,0-0.6,0.2-0.8,0.4c-1.9,8.7,2.1,17.7,9.8,22.5c-1.2,5.4-4.6,9.4-9.2,10.8c-4.4,1.2-9,0-12.5-3.5c-9-9-5.4-22.5-5.4-22.5
				c0-0.4-0.2-0.6-0.4-0.8c-0.4,0-0.6,0.2-0.8,0.4c0,0.2-3.5,14.4,5.8,23.7l0,0c-2.9,0.2-7.3-0.6-11.2-3.7
				c-3.3-2.7-7.3-7.9-7.3-17.3c0-16.9,12.7-29.1,12.7-29.4l0.2-0.2c14-34.4,32.1-61.4,47.7-81.2l-0.2-0.2c-1-1.2-2.1-2.3-2.7-3.1
				l0,0c-5.2,6.5-10.6,13.7-16,22.1l0,0c0,0-25.8,38.5-31.6,60.2c-7.1,9.2-20.2,30.2-7.7,46c1.2,1.9,2.7,3.3,4,4.4
				c0.4,0.4,1,0.8,1.7,1c0.2,0,0.2,0.2,0.2,0.2l0,0c2.9,1.9,6,2.7,9.2,2.7c0.8,0,1.7,0,2.3-0.2c2.7,2.3,5.8,3.3,9,3.3
				c1.2,0,2.5-0.2,3.7-0.6c5-1.5,8.5-5.6,10-11.5c0.2,0.2,0.6,0.4,0.8,0.4c1.2,0.6,2.7,0.8,4.2,0.8c1.5,0,2.7-0.2,4.2-0.8
				c2.7-1,4.8-3.1,5.8-5.4l0,0c0,0,0,0,0-0.2s0.2-0.2,0.2-0.4l0,0c0,0,1-2.7,1.5-7.1c0.2-1.7,0.2-3.7,0-5.8
				C353.2,418.4,352.6,416.1,352.2,414.4z"/>
		</g>
	</g>
	<g>
		<g>
			
				<linearGradient id="SVGID_2_" gradientUnits="userSpaceOnUse" x1="3519.5813" y1="219.7976" x2="3604.6213" y2="219.7976" gradientTransform="matrix(-1 0 0 -1 4123.6563 602)">
				<stop  offset="0" style="stop-color:#F2D397"/>
				<stop  offset="0.5331" style="stop-color:#F3D093"/>
				<stop  offset="0.7526" style="stop-color:#F5CC8F"/>
				<stop  offset="1" style="stop-color:#F3B699"/>
			</linearGradient>
			<path class="st4" d="M518.9,358.2l8.1-18.3c0-0.4,0-1,0.2-1.5c0-0.2,0-0.4,0-0.4c0-0.4,0.2-0.8,0.2-1s0-0.4,0.2-0.6
				c0.2-0.4,0.2-0.8,0.4-1.2c0-0.2,0-0.2,0.2-0.4c0.2-0.6,0.4-1,0.6-1.7c0-0.2,0.2-0.2,0.2-0.4c0.2-0.4,0.4-0.8,0.6-1.2
				c0-0.2,0.2-0.4,0.2-0.6c0.2-0.4,0.4-0.8,0.6-1c0-0.2,0.2-0.4,0.2-0.6c2.9-5.6,7.1-11,10-14.6c0.2-0.2,0.2-0.2,0.4-0.4
				c15.8,20,33.7,47.3,47.9,81.6c0,0,12.9,12.3,12.9,29.8c0,17.5-13.3,23.1-20.6,21.4l0,0c-8.1,7.1-19.6,2.7-21.9-8.7V438
				c-0.4,0.2-1,0.6-1.7,0.8c-4.8,2.5-11.2-0.6-13.3-5l0,0l0,0c0-0.2-0.2-0.4-0.2-0.6l0.2-0.2l-1.7-14.2h0.4v-3.5l0.6-2.5
				c-0.2-0.6-0.6-1.5-0.8-2.3l-0.6-1l-0.8-2.5v-0.6c-2.7-6.5-6.7-15.4-11.9-26c-3.3-6.9-7.3-14.2-11.2-21L518.9,358.2z"/>
		</g>
		<path class="st1" d="M569.5,418.4c0,0,2.5,19.2-8.3,25.4l-1.9-5.4C559.3,438.4,570.7,432.5,569.5,418.4z"/>
		<path class="st1" d="M588,424.4c0,0,5,12.7,1.2,21.9c0,0-3.3,1.2-8.3,0.8C581.1,447.1,589.6,442.7,588,424.4z"/>
		<path class="st2" d="M569.9,424.4c0,0,0.2,11.5-9.6,15.6l-0.4-1.7C559.9,438.4,569.9,429.2,569.9,424.4z"/>
		<path class="st2" d="M589,431.1c0,0,0.6,10.6-5,16.2l-3.5-0.2C580.5,447.1,588,439.8,589,431.1z"/>
		<path class="st3" d="M518.9,358.2l8.1-18.3c0-0.4,0-1,0.2-1.5c0-0.2,0-0.4,0-0.4c0-0.4,0.2-0.8,0.2-1s0-0.4,0.2-0.6
			c0.2-0.4,0.2-0.8,0.4-1.2c0-0.2,0-0.2,0.2-0.4c0.2-0.6,0.4-1,0.6-1.7c0-0.2,0.2-0.2,0.2-0.4c0.2-0.4,0.4-0.8,0.6-1.2
			c0-0.2,0.2-0.4,0.2-0.6c0.2-0.4,0.4-0.8,0.6-1c0-0.2,0.2-0.4,0.2-0.6c0,0,0-0.2,0.2-0.2c10.8,21.2,22.5,49.6,23.1,73.5
			c0,0-13.3,16.9-8.5,33.3c-0.4-0.4-0.6-1-0.8-1.7l0,0l0,0c0-0.2-0.2-0.4-0.2-0.6l0.2-0.2L543,419h0.4v-3.5l0.8-3.1l-1.9-2.7l-1-2.5
			l-20-43.5c0,0-1-1.2-2.9-4.2L518.9,358.2z"/>
		<g>
			<path class="st2" d="M543,414.4l-0.6-1.2l0,0c-0.2-0.4-13.1-28.9-25-52.1l1.2-2.9l0,0c10.8,20.8,22.7,47.1,25.4,52.7
				c0.4-1.2,0.8-1.7,0.8-1.7l0,0c1-1.9,2.3-3.5,2.5-3.5c0.2-0.2,0.6-0.2,0.8,0s0.2,0.6,0,0.8c-0.2,0.2-0.6,0.6-0.8,1
				c0,0-6.9,10.6-3.1,25.8l0,0c0.8,2.3,2.9,4.2,5.4,5.2s5.2,1,7.3,0c8.5-4.2,13.1-13.3,11.2-22.3c0-0.4,0.2-0.6,0.4-0.8
				c0.4,0,0.6,0.2,0.8,0.4c1.9,8.7-2.1,17.7-9.8,22.5c1.2,5.4,4.6,9.4,9.2,10.8c4.4,1.2,9,0,12.5-3.5c9-9,5.4-22.5,5.4-22.5
				c0-0.4,0.2-0.6,0.4-0.8c0.4,0,0.6,0.2,0.8,0.4c0,0.2,3.5,14.4-5.8,23.7l0,0c2.9,0.2,7.3-0.6,11.2-3.7c3.3-2.7,7.3-7.9,7.3-17.3
				c0-16.9-12.7-29.1-12.7-29.4l-0.2-0.2c-14-34.4-32.1-61.4-47.7-81.2l0.2-0.2c1-1.2,2.1-2.3,2.7-3.1l0,0
				c5.2,6.5,10.6,13.7,16,22.1l0,0c0,0,25.8,38.5,31.6,60.2c7.1,9.2,20.2,30.2,7.7,46c-1.2,1.9-2.7,3.3-4,4.4c-0.4,0.4-1,0.8-1.7,1
				c-0.2,0-0.2,0.2-0.2,0.2l0,0c-2.9,1.9-6,2.7-9.2,2.7c-0.8,0-1.7,0-2.3-0.2c-2.7,2.3-5.8,3.3-9,3.3c-1.2,0-2.5-0.2-3.7-0.6
				c-5-1.5-8.5-5.6-10-11.5c-0.2,0.2-0.6,0.4-0.8,0.4c-1.2,0.6-2.7,0.8-4.2,0.8c-1.5,0-2.7-0.2-4.2-0.8c-2.7-1-4.8-3.1-5.8-5.4l0,0
				c0,0,0,0,0-0.2s-0.2-0.2-0.2-0.4l0,0c0,0-1-2.7-1.5-7.1c-0.2-1.7-0.2-3.7,0-5.8C542.2,418.4,542.6,416.1,543,414.4z"/>
		</g>
	</g>
</g>
<g>
	<path class="st5" d="M351.2,498.9c0-0.8-1.7-17.1-10.4-20v-8.3c0-6.3-21.3-8.3-30.5-9.2c-3.3-1.3-6.7-2.1-9.6-2.5
		c-10-1.3-20,1.7-21.3,2.1c-17.5,0.8-38.4,3.8-38.4,9.6v32.6l-23.8-19.2c0-0.4,0-0.4,0-0.8c1.3-6.3,0.4-11.7-2.9-15
		c-2.1-2.5-5.4-3.3-9.6-3.3c-7.5,0-16.3,4.2-21.3,10c-6.3,7.5-8.8,19.6-2.5,26.7c2.5,2.9,5.8,4.2,10,4.2c2.1,0,4.6-0.4,6.7-1.3
		c3.3,2.9,25.5,23,43,38v20.9c0,7.5,25.9,11.7,50.1,11.7c24.2,0,50.1-4.2,50.1-11.7v-12.1c1.7-1.3,9.6-7.9,10.4-14.6
		C351.6,529.8,351.2,500.2,351.2,498.9z M339.1,470.6c0,0.8-1.7,2.1-4.2,2.9c-3.3-2.9-10.4-6.7-17.9-9.6
		C332.8,466,339.1,468.9,339.1,470.6z M300.2,461c9.6,1.3,25.5,8.8,32.1,13.4c-3.8,1.3-8.8,2.1-15,2.9c-11.7-11.7-24.2-15-31.7-15.9
		C289.8,460.5,295.2,460.1,300.2,461z M279.4,463L279.4,463L279.4,463c0.4,0,18.8-1.7,35.9,14.6c-7.1,0.8-15,1.3-24.6,1.3
		c-30,0-48.4-4.6-48.4-7.9C242.6,468.1,254.3,463.9,279.4,463z M182.5,500.6c-5.8-6.3-3.3-17.9,2.5-24.6c4.6-5.4,12.9-9.2,20-9.6
		c0,0,0,0,0.4,0c2.5,0,5.8,0.4,7.9,2.9c2.5,2.9,3.8,7.9,2.5,13.4c-1.3,5.4-4.2,10.4-7.9,13.8C200.1,503.5,188.4,506.9,182.5,500.6z
		 M208.8,498.1c3.3-2.9,6.3-7.5,7.5-12.1l37.6,30l0,0c0,0,15,9.2,15,28c0,10.4-2.1,13.4-3.3,14.2s-2.5,0-2.5,0
		c-1.3-0.8-5.8-4.2-20.5-16.7c-16.3-14.2-37.6-33-42.6-37.6C203,502.7,205.9,500.6,208.8,498.1z M290.6,573.6
		c-28.4,0-48.4-5-48.4-10V544c11.3,9.6,17.5,14.6,19.2,15.4c0,0,1.3,0.8,2.5,0.8c0.4,0,1.3,0,2.1-0.4c2.9-1.7,4.6-7.1,4.6-15.9
		c0-19.2-15-28.8-15.9-29.6l-12.1-10v-31.3c6.3,4.6,27.1,7.1,48.4,7.1c21.3,0,42.2-2.5,48.4-7.1v90.1
		C339.1,568.2,319,573.6,290.6,573.6z M349.1,536.9c-0.4,5-5.8,10-8.3,12.5V481c7.1,2.9,8.3,17.9,8.3,18.4
		C349.1,499.4,349.9,529.8,349.1,536.9z"/>
	<linearGradient id="SVGID_3_" gradientUnits="userSpaceOnUse" x1="316.5893" y1="468.6819" x2="338.9527" y2="468.6819">
		<stop  offset="0" style="stop-color:#D65B49"/>
		<stop  offset="1" style="stop-color:#CF361C"/>
	</linearGradient>
	<path class="st6" d="M339.1,470.6c0,0.8-1.7,2.1-4.2,2.9c-3.3-2.9-10.4-6.7-17.9-9.6C332.8,466,339.1,468.9,339.1,470.6z"/>
	<linearGradient id="SVGID_4_" gradientUnits="userSpaceOnUse" x1="285.9409" y1="468.8718" x2="332.4949" y2="468.8718">
		<stop  offset="0" style="stop-color:#D65B49"/>
		<stop  offset="1" style="stop-color:#CF361C"/>
	</linearGradient>
	<path class="st7" d="M300.2,461c9.6,1.3,25.5,8.8,32.1,13.4c-3.8,1.3-8.8,2.1-15,2.9c-11.7-11.7-24.2-15-31.7-15.9
		C289.8,460.5,295.2,460.1,300.2,461z"/>
	<linearGradient id="SVGID_5_" gradientUnits="userSpaceOnUse" x1="242.5312" y1="470.9533" x2="315.3168" y2="470.9533">
		<stop  offset="0" style="stop-color:#D65B49"/>
		<stop  offset="1" style="stop-color:#CF361C"/>
	</linearGradient>
	<path class="st8" d="M279.4,463L279.4,463L279.4,463c0.4,0,18.8-1.7,35.9,14.6c-7.1,0.8-15,1.3-24.6,1.3c-30,0-48.4-4.6-48.4-7.9
		C242.6,468.1,254.3,463.9,279.4,463z"/>
	<path class="st9" d="M182.5,500.6c-5.8-6.3-3.3-17.9,2.5-24.6c4.6-5.4,12.9-9.2,20-9.6c0,0,0,0,0.4,0c2.5,0,5.8,0.4,7.9,2.9
		c2.5,2.9,3.8,7.9,2.5,13.4c-1.3,5.4-4.2,10.4-7.9,13.8C200.1,503.5,188.4,506.9,182.5,500.6z"/>
	<linearGradient id="SVGID_6_" gradientUnits="userSpaceOnUse" x1="211.7092" y1="491.3759" x2="264.07" y2="552.1035">
		<stop  offset="0" style="stop-color:#D65B49"/>
		<stop  offset="1" style="stop-color:#CF361C"/>
	</linearGradient>
	<path class="st10" d="M208.8,498.1c3.3-2.9,6.3-7.5,7.5-12.1l37.6,30l0,0c0,0,15,9.2,15,28c0,10.4-2.1,13.4-3.3,14.2s-2.5,0-2.5,0
		c-1.3-0.8-5.8-4.2-20.5-16.7c-16.3-14.2-37.6-33-42.6-37.6C203,502.7,205.9,500.6,208.8,498.1z"/>
	<linearGradient id="SVGID_7_" gradientUnits="userSpaceOnUse" x1="240.0767" y1="476.7446" x2="343.7181" y2="562.8427">
		<stop  offset="0" style="stop-color:#D65B49"/>
		<stop  offset="1" style="stop-color:#CF361C"/>
	</linearGradient>
	<path class="st11" d="M290.6,573.6c-28.4,0-48.4-5-48.4-10V544c11.3,9.6,17.5,14.6,19.2,15.4c0,0,1.3,0.8,2.5,0.8
		c0.4,0,1.3,0,2.1-0.4c2.9-1.7,4.6-7.1,4.6-15.9c0-19.2-15-28.8-15.9-29.6l-12.1-10v-31.3c6.3,4.6,27.1,7.1,48.4,7.1
		c21.3,0,42.2-2.5,48.4-7.1v90.1C339.1,568.2,319,573.6,290.6,573.6z"/>
	<linearGradient id="SVGID_8_" gradientUnits="userSpaceOnUse" x1="345.264" y1="482.3288" x2="344.724" y2="544.6754">
		<stop  offset="0" style="stop-color:#D65B49"/>
		<stop  offset="1" style="stop-color:#CF361C"/>
	</linearGradient>
	<path class="st12" d="M349.1,536.9c-0.4,5-5.8,10-8.3,12.5V481c7.1,2.9,8.3,17.9,8.3,18.4C349.1,499.4,349.9,529.8,349.1,536.9z"/>
	<linearGradient id="SVGID_9_" gradientUnits="userSpaceOnUse" x1="286.379" y1="527.2724" x2="336.706" y2="569.0806">
		<stop  offset="0" style="stop-color:#D65B49"/>
		<stop  offset="1" style="stop-color:#CF361C"/>
	</linearGradient>
	<path class="st13" d="M339.1,563.6v-63.4c-0.4,0,0,5,0,5.4c0,4.6-0.4,8.8-1.3,13.4c-1.3,11.3-3.8,23-10,32.6
		c-6.7,10.9-19.6,13.8-31.7,15.9c-15,2.5-29.6,3.8-44.7,1.7c8.3,2.5,22.1,4.2,39.2,4.2C319,573.6,339.1,568.2,339.1,563.6z"/>
	<linearGradient id="SVGID_10_" gradientUnits="userSpaceOnUse" x1="344.8966" y1="489.5157" x2="344.415" y2="545.1653">
		<stop  offset="0" style="stop-color:#D65B49"/>
		<stop  offset="1" style="stop-color:#CF361C"/>
	</linearGradient>
	<path class="st14" d="M348.7,539c-2.9-2.9-2.9-10.9-2.9-10.9s0.4-11.7,0-25c-0.4-8.8-3.3-12.9-5-14.6v60.9
		C343.2,547.4,347.4,543.2,348.7,539z"/>
	<linearGradient id="SVGID_11_" gradientUnits="userSpaceOnUse" x1="285.7263" y1="465.5259" x2="285.6202" y2="477.78">
		<stop  offset="0" style="stop-color:#D65B49"/>
		<stop  offset="1" style="stop-color:#CF361C"/>
	</linearGradient>
	<path class="st15" d="M256,476c8.3,1.7,20,2.5,34.6,2.5c9.6,0,17.5-0.4,24.6-1.3c-7.1-6.7-14.2-10-20-12.1
		c5.4,2.5,11.3,6.3,13.8,10.4C308.6,475.6,273.5,477.7,256,476z"/>
	<linearGradient id="SVGID_12_" gradientUnits="userSpaceOnUse" x1="309.2623" y1="461.937" x2="309.1396" y2="476.131">
		<stop  offset="0" style="stop-color:#D65B49"/>
		<stop  offset="1" style="stop-color:#CF361C"/>
	</linearGradient>
	<path class="st16" d="M332.4,474.3c-1.3-0.8-2.5-1.7-4.2-2.5c-1.7,1.3-4.2,2.5-7.5,3.8c0,0-17.9-12.9-34.6-14.2
		c7.5,0.8,20,4.2,31.7,15.9C324,476.4,329,475.6,332.4,474.3z"/>
	<linearGradient id="SVGID_13_" gradientUnits="userSpaceOnUse" x1="329.7011" y1="470.3514" x2="338.9527" y2="470.3514">
		<stop  offset="0" style="stop-color:#D65B49"/>
		<stop  offset="1" style="stop-color:#CF361C"/>
	</linearGradient>
	<path class="st17" d="M334.5,473.9c2.9-0.8,4.2-2.1,4.2-2.9c0-1.3-2.1-2.5-7.5-4.2c0,1.3-0.8,2.5-1.7,3.8
		C331.5,471.8,333.2,472.6,334.5,473.9z"/>
	<linearGradient id="SVGID_14_" gradientUnits="userSpaceOnUse" x1="206.5452" y1="498.1113" x2="212.0832" y2="504.5344">
		<stop  offset="0" style="stop-color:#D65B49"/>
		<stop  offset="1" style="stop-color:#CF361C"/>
	</linearGradient>
	<path class="st18" d="M213.4,492.3c-1.3,2.1-2.9,4.2-4.6,5.8c-2.9,2.5-5.8,4.6-9.2,5.8c1.3,1.3,3.8,3.3,7.1,6.3
		c0.4-1.7,1.3-3.8,2.5-6.3C211.3,499.8,212.6,495.6,213.4,492.3z"/>
	<path class="st19" d="M207.6,496.9c3.8-3.3,6.7-8.8,7.9-13.8c1.3-5.4,0.4-10.4-2.5-13.4c0,0,7.1,14.2-7.1,26.7
		c-13.4,12.1-23.4,4.2-23.4,4.2C188.4,506.9,200.1,503.5,207.6,496.9z"/>
	<path class="st20" d="M279.4,463L279.4,463L279.4,463c-25,1.3-36.7,5.4-36.7,7.9v0.4l1.3,1.3c1.3-7.1,32.6-9.2,38.8-9.6
		C280.6,463,279.4,463,279.4,463z"/>
	<path class="st20" d="M332.4,474.3c-6.7-5-23-12.1-32.1-13.4c-3.8-0.4-7.1-0.4-10.4,0c1.7,0,12.9-0.4,23.4,5.8
		c8.3,5,12.1,7.9,14.6,9.2C329.5,475.2,331.1,474.7,332.4,474.3z"/>
	<path class="st21" d="M339.1,478.9v-5.4c-6.3,4.6-27.1,7.1-48.4,7.1c-16.7,0-33.4-1.7-43-4.6l0,0
		C248.1,476,291.5,491.8,339.1,478.9z"/>
	<circle class="st21" cx="197.6" cy="471" r="0.8"/>
	<circle class="st21" cx="201.3" cy="472.2" r="0.8"/>
	<circle class="st21" cx="205.5" cy="474.7" r="0.8"/>
	<circle class="st21" cx="210.5" cy="476.8" r="0.8"/>
	<circle class="st21" cx="205.9" cy="478.5" r="0.8"/>
	
		<ellipse transform="matrix(0.4247 -0.9053 0.9053 0.4247 -315.7053 456.2865)" class="st21" cx="201.2" cy="476.6" rx="0.8" ry="0.8"/>
	
		<ellipse transform="matrix(0.4246 -0.9054 0.9054 0.4246 -315.9091 450.7233)" class="st21" cx="196.6" cy="473.9" rx="0.8" ry="0.8"/>
	
		<ellipse transform="matrix(0.4246 -0.9054 0.9054 0.4246 -307.9337 452.4252)" class="st21" cx="202" cy="468.5" rx="0.8" ry="0.8"/>
	
		<ellipse transform="matrix(0.4246 -0.9054 0.9054 0.4246 -307.1938 456.6463)" class="st21" cx="205.7" cy="470" rx="0.8" ry="0.8"/>
	
		<ellipse transform="matrix(0.4246 -0.9054 0.9054 0.4246 -307.6518 461.3113)" class="st21" cx="209.1" cy="472.7" rx="0.8" ry="0.8"/>
	
		<ellipse transform="matrix(0.5462 -0.8377 0.8377 0.5462 -310.8542 375.859)" class="st21" cx="191.5" cy="474.8" rx="0.8" ry="0.8"/>
	
		<ellipse transform="matrix(0.6503 -0.7597 0.7597 0.6503 -294.675 315.2916)" class="st21" cx="195.1" cy="477.7" rx="0.8" ry="0.8"/>
	
		<ellipse transform="matrix(0.6503 -0.7597 0.7597 0.6503 -294.9591 319.6936)" class="st21" cx="199.8" cy="480.2" rx="0.8" ry="0.8"/>
	
		<ellipse transform="matrix(0.6503 -0.7596 0.7596 0.6503 -298.705 327.0456)" class="st21" cx="205.9" cy="488" rx="0.8" ry="0.8"/>
	
		<ellipse transform="matrix(0.6503 -0.7596 0.7596 0.6503 -295.3777 325.2352)" class="st21" cx="205.6" cy="483.5" rx="0.8" ry="0.8"/>
	
		<ellipse transform="matrix(0.6503 -0.7597 0.7597 0.6503 -297.618 321.2014)" class="st21" cx="200.1" cy="483.9" rx="0.8" ry="0.8"/>
	
		<ellipse transform="matrix(0.6503 -0.7597 0.7597 0.6503 -297.584 316.187)" class="st21" cx="194.6" cy="481.3" rx="0.8" ry="0.8"/>
	
		<ellipse transform="matrix(0.6503 -0.7597 0.7597 0.6503 -297.8079 311.8234)" class="st21" cx="189.8" cy="479.4" rx="0.8" ry="0.8"/>
	
		<ellipse transform="matrix(0.6503 -0.7597 0.7597 0.6503 -300.3316 308.7238)" class="st21" cx="185.2" cy="480.6" rx="0.8" ry="0.8"/>
	
		<ellipse transform="matrix(0.6503 -0.7597 0.7597 0.6503 -300.9716 313.2587)" class="st21" cx="189.8" cy="483.5" rx="0.8" ry="0.8"/>
	
		<ellipse transform="matrix(0.6503 -0.7597 0.7597 0.6503 -301.2498 318.2563)" class="st21" cx="195.1" cy="486.3" rx="0.8" ry="0.8"/>
	
		<ellipse transform="matrix(0.6503 -0.7597 0.7597 0.6503 -302.373 323.8009)" class="st21" cx="200.5" cy="490.3" rx="0.8" ry="0.8"/>
	
		<ellipse transform="matrix(0.6503 -0.7597 0.7597 0.6503 -304.7882 320.0399)" class="st21" cx="195.2" cy="491.1" rx="0.8" ry="0.8"/>
	
		<ellipse transform="matrix(0.6503 -0.7597 0.7597 0.6503 -304.4221 314.7325)" class="st21" cx="189.6" cy="488" rx="0.8" ry="0.8"/>
	
		<ellipse transform="matrix(0.6503 -0.7597 0.7597 0.6503 -305.6882 324.475)" class="st21" cx="199.6" cy="494.3" rx="0.8" ry="0.8"/>
	
		<ellipse transform="matrix(0.6503 -0.7597 0.7597 0.6503 -304.095 309.8631)" class="st21" cx="184.5" cy="485.2" rx="0.8" ry="0.8"/>
	
		<ellipse transform="matrix(0.6503 -0.7597 0.7597 0.6503 -307.3033 308.8092)" class="st21" cx="181.8" cy="488.2" rx="0.8" ry="0.8"/>
	
		<ellipse transform="matrix(0.6503 -0.7597 0.7597 0.6503 -307.9432 312.2333)" class="st21" cx="185.2" cy="490.6" rx="0.8" ry="0.8"/>
	
		<ellipse transform="matrix(0.6503 -0.7597 0.7597 0.6503 -308.9695 316.8726)" class="st21" cx="189.7" cy="494" rx="0.8" ry="0.8"/>
	
		<ellipse transform="matrix(0.6503 -0.7596 0.7596 0.6503 -309.3011 321.8398)" class="st21" cx="195" cy="496.9" rx="0.8" ry="0.8"/>
	
		<ellipse transform="matrix(0.6503 -0.7597 0.7597 0.6503 -311.7392 318.1761)" class="st21" cx="189.7" cy="497.7" rx="0.8" ry="0.8"/>
	
		<ellipse transform="matrix(0.6503 -0.7597 0.7597 0.6503 -311.8002 313.1347)" class="st21" cx="184.2" cy="495.2" rx="0.8" ry="0.8"/>
</g>
</svg>
