<?xml version="1.0" encoding="utf-8"?>
<!-- Generator: Adobe Illustrator 21.0.0, SVG Export Plug-In . SVG Version: 6.00 Build 0)  -->
<svg version="1.1" id="圖層_1" xmlns="http://www.w3.org/2000/svg" xmlns:xlink="http://www.w3.org/1999/xlink" x="0px" y="0px"
	 viewBox="0 0 822.9 601.4" style="enable-background:new 0 0 822.9 601.4;" xml:space="preserve">
<style type="text/css">
	.st0{fill:url(#SVGID_1_);}
	.st1{fill:#AB6C21;}
	.st2{fill:url(#SVGID_2_);}
	.st3{fill:url(#SVGID_3_);}
	.st4{fill:url(#SVGID_4_);}
	.st5{fill:url(#SVGID_5_);}
	.st6{opacity:0.6;fill:#E1BE3F;}
	.st7{fill:url(#SVGID_6_);}
	.st8{fill:url(#SVGID_7_);}
	.st9{fill:url(#SVGID_8_);}
	.st10{fill:url(#SVGID_9_);}
	.st11{fill:url(#SVGID_10_);}
	.st12{fill:#A8B8D1;}
	.st13{fill:url(#SVGID_11_);}
	.st14{fill:url(#SVGID_12_);}
	.st15{fill:url(#SVGID_13_);}
	.st16{fill:url(#SVGID_14_);}
	.st17{fill:url(#SVGID_15_);}
	.st18{fill:url(#SVGID_16_);}
	.st19{fill:url(#SVGID_17_);}
	.st20{fill:url(#SVGID_18_);}
	.st21{fill:url(#SVGID_19_);}
	.st22{fill:url(#SVGID_20_);}
	.st23{fill:url(#SVGID_21_);}
	.st24{fill:url(#SVGID_22_);}
	.st25{fill:url(#SVGID_23_);}
	.st26{fill:url(#SVGID_24_);}
	.st27{fill:url(#SVGID_25_);}
	.st28{fill:#FFFFFF;}
	.st29{fill:#B4B4B5;}
	.st30{fill:#D2503A;}
	.st31{opacity:0.8;fill:#E8E5CB;}
	.st32{fill:url(#SVGID_26_);}
	.st33{fill:#E1BE3F;}
	.st34{fill:url(#SVGID_27_);}
	.st35{fill:#66411D;}
	.st36{fill:url(#SVGID_28_);}
	.st37{fill:#D9B974;}
	.st38{fill:#DCBF93;}
	.st39{fill:url(#SVGID_29_);}
	.st40{fill:url(#SVGID_30_);}
	.st41{fill:url(#SVGID_31_);}
	.st42{fill:url(#SVGID_32_);}
	.st43{fill:#8C5924;}
	.st44{fill:url(#SVGID_33_);}
	.st45{fill:url(#SVGID_34_);}
	.st46{fill:url(#SVGID_35_);}
	.st47{fill:url(#SVGID_36_);}
	.st48{fill:#F4E3A5;}
	.st49{fill:#DEB87D;}
	.st50{fill:url(#SVGID_37_);}
	.st51{fill:url(#SVGID_38_);}
	.st52{fill:#3F210F;}
	.st53{opacity:0.25;fill:#E1BE3F;}
	.st54{opacity:0.5;fill:#E1BE3F;}
	.st55{fill:#F8E5A9;}
	.st56{fill:#DDBC90;}
	.st57{opacity:0.4;fill:#E1BE3F;}
	.st58{fill:#875424;}
	.st59{fill:#3F210E;}
	.st60{fill:#C88E2C;}
	.st61{fill:#AC7327;}
	.st62{fill:#814323;}
	.st63{fill:#D7C6A6;}
	.st64{fill:url(#SVGID_39_);}
	.st65{fill:#4A1E0E;}
	.st66{fill:#3A1D13;}
	.st67{fill:url(#SVGID_40_);}
	.st68{fill:#EAA593;}
	.st69{fill:url(#SVGID_41_);}
	.st70{fill:url(#SVGID_42_);}
	.st71{fill:#D59543;}
	.st72{opacity:0.6;fill:#D59543;}
	.st73{fill:url(#SVGID_43_);}
	.st74{fill:url(#SVGID_44_);}
	.st75{fill:#AC6D21;}
	.st76{fill:url(#SVGID_45_);}
	.st77{fill:url(#SVGID_46_);}
	.st78{fill:url(#SVGID_47_);}
	.st79{fill:url(#SVGID_48_);}
	.st80{opacity:0.6;fill:#D69644;}
	.st81{fill:url(#SVGID_49_);}
	.st82{fill:url(#SVGID_50_);}
	.st83{fill:url(#SVGID_51_);}
	.st84{fill:url(#SVGID_52_);}
	.st85{fill:url(#SVGID_53_);}
	.st86{fill:url(#SVGID_54_);}
	.st87{fill:url(#SVGID_55_);}
	.st88{fill:url(#SVGID_56_);}
	.st89{fill:url(#SVGID_57_);}
	.st90{fill:url(#SVGID_58_);}
	.st91{fill:url(#SVGID_59_);}
	.st92{fill:url(#SVGID_60_);}
	.st93{fill:url(#SVGID_61_);}
	.st94{fill:url(#SVGID_62_);}
	.st95{fill:url(#SVGID_63_);}
	.st96{fill:url(#SVGID_64_);}
	.st97{fill:url(#SVGID_65_);}
	.st98{fill:url(#SVGID_66_);}
	.st99{fill:url(#SVGID_67_);}
	.st100{fill:url(#SVGID_68_);}
	.st101{fill:url(#SVGID_69_);}
</style>
<g>
	<g>
		<linearGradient id="SVGID_1_" gradientUnits="userSpaceOnUse" x1="303.5638" y1="346.4785" x2="375.7872" y2="346.4785">
			<stop  offset="0" style="stop-color:#F2D397"/>
			<stop  offset="0.5331" style="stop-color:#F3D093"/>
			<stop  offset="0.7526" style="stop-color:#F5CC8F"/>
			<stop  offset="1" style="stop-color:#F3B699"/>
		</linearGradient>
		<path class="st0" d="M367.7,325.4c-1.8-3.5-6.1-10.2-13.6-13.3l-8.4,10.7l-12.1,13.6l-16.9,14l-13.8,10.3c0,0,0.8,13.3,16.9,17.5
			c12.4,3.2,25.9,2.7,31.5,2.3C355,358.7,361.4,339.9,367.7,325.4z"/>
		<path class="st75" d="M354.1,379.3c-0.3-0.8-1.1-1.2-1.9-1c-0.1,0-9.3,2.8-27-0.3c-16.3-2.9-19.2-13.1-19.5-14.4l-0.5-0.5l-0.7,0
			l-1.3-0.3l-0.5,0.7c-0.1,0.2-0.1,0.4,0,0.7c0.1,0.5,2.8,13.5,22,16.9c6.6,1.2,12,1.6,16.3,1.6c7.8,0,11.8-1.2,12.1-1.3
			C353.9,380.9,354.3,380.1,354.1,379.3z"/>
		<path class="st75" d="M355.3,309.4L355.3,309.4l-3.2,1c0,0-15.4,17.9-18.5,22.7l0.7,0.3l3.3-0.3l2.9-1.4l14.7-18.3l1.1-1.4
			l0.3-1.6C356.7,310.3,356.4,308.8,355.3,309.4z"/>
		<path class="st75" d="M328.9,359.6c0,0,0.5,5,4.9,5.4l-0.6,0.8l-4.1-1.5L328.9,359.6z"/>
		<linearGradient id="SVGID_2_" gradientUnits="userSpaceOnUse" x1="339.5617" y1="329.8319" x2="342.2284" y2="363.6097">
			<stop  offset="0" style="stop-color:#F2D397"/>
			<stop  offset="0.5331" style="stop-color:#F3D093"/>
			<stop  offset="0.7526" style="stop-color:#F5CC8F"/>
			<stop  offset="1" style="stop-color:#F3B699"/>
		</linearGradient>
		<path class="st2" d="M353.7,343.7c0.9,6.2,0.3,13.1-1.4,15.1c-3.1,3.7-12.6,9.6-22.5,4.7c-0.5-2.1-3.5-14.6,1.5-23.7
			c1.1-2,2.3-3.6,3.7-4.7c4.9-4.1,11-2.7,15.1,0C351.7,336.1,353,339.3,353.7,343.7z"/>
		<linearGradient id="SVGID_3_" gradientUnits="userSpaceOnUse" x1="318.9176" y1="331.4555" x2="321.5843" y2="365.2331">
			<stop  offset="0" style="stop-color:#F2D397"/>
			<stop  offset="0.5331" style="stop-color:#F3D093"/>
			<stop  offset="0.7526" style="stop-color:#F5CC8F"/>
			<stop  offset="1" style="stop-color:#F3B699"/>
		</linearGradient>
		<path class="st3" d="M315.2,332.5c6.9-2.7,13.8,0,17.1,1.6c-2.5,2-4.9,5.4-5.9,10.8c-2.2,11,0.1,16.3,1.6,18.6
			c-16.6,2.9-18.3-2.4-19.3-5.6c-0.1-0.4-0.2-0.7-0.3-1c-0.8-2-1.6-11.7,1.3-18.5C310.8,335.4,312.7,333.4,315.2,332.5z"/>
		<linearGradient id="SVGID_4_" gradientUnits="userSpaceOnUse" x1="301.569" y1="332.8313" x2="304.2357" y2="366.6091">
			<stop  offset="0" style="stop-color:#F2D397"/>
			<stop  offset="0.5331" style="stop-color:#F3D093"/>
			<stop  offset="0.7526" style="stop-color:#F5CC8F"/>
			<stop  offset="1" style="stop-color:#F3B699"/>
		</linearGradient>
		<path class="st4" d="M296.1,359c-2-1.8-3.1-5.6-2.9-10.2c0.2-5.8,2.3-11.1,5.2-13.3c4-3,9.9-2.9,12.9-2.6c-2.6,2.1-6,6.4-6.4,14.5
			c-0.4,7.8,1.1,12,3.4,14.5C305.5,362.2,299.8,362.3,296.1,359z"/>
		<linearGradient id="SVGID_5_" gradientUnits="userSpaceOnUse" x1="291.7348" y1="333.6077" x2="294.4015" y2="367.3855">
			<stop  offset="0" style="stop-color:#F2D397"/>
			<stop  offset="0.5331" style="stop-color:#F3D093"/>
			<stop  offset="0.7526" style="stop-color:#F5CC8F"/>
			<stop  offset="1" style="stop-color:#F3B699"/>
		</linearGradient>
		<path class="st5" d="M299.8,333c-2.5,1.1-5.8,3.5-7.6,8.5c-1.1,2.8-1.7,6-1.6,9c-1.7-0.8-3.9-2.1-5.1-4.3
			c-1.1-1.9-1.3-4.2-0.6-6.8C287.2,330.8,290.2,331.3,299.8,333z"/>
		<path class="st80" d="M299.8,333c-5.6-1-8.9-1.5-11.2-0.1c0.4-0.1,4.6-0.9,6.6,1.4c0,0-8.5,6.7-4.6,16.1c-0.1-3,0.6-6.2,1.6-9
			C294,336.5,297.3,334.1,299.8,333z"/>
		<path class="st80" d="M298.4,335.6c-1.7,1.3-3.1,3.6-4,6.5l2-4.3c0,0,5-1.6,9-0.5c0,0-7,10.9,1.3,22.2l0,0
			c-1.3-2.6-2.1-6.4-1.8-12.1c0.5-8.1,3.8-12.4,6.4-14.5C308.4,332.7,302.5,332.6,298.4,335.6z"/>
		<path class="st80" d="M315.2,332.5c-2.4,1-4.3,3-5.6,6c0,0,7.7-4.9,18.1-1.6c0,0-5.8,8.9-2.2,15.8l0,0c0-2.2,0.3-4.8,0.9-7.7
			c1.1-5.5,3.4-8.8,5.9-10.8C329,332.5,322,329.8,315.2,332.5z"/>
		<path class="st80" d="M350,335c-4.1-2.7-10.2-4-15.1,0c-1,0.8-1.8,1.8-2.7,3c5.1-0.5,14.8-0.6,21.1,4.1
			C352.7,338.5,351.5,336,350,335z"/>
		<path class="st75" d="M302.8,363.4c0,0,2,0.2,3,0.2c0,0,0,0,0,0c0.1,0,0.1,0,0.2,0c1.8,0,3.2-0.2,3.9-0.3c1.4,1,2.9,1.6,4.4,2.1
			l0-0.1c1.4,0.4,3.2,0.6,5.3,0.6c2.6,0,5.7-0.3,9.5-1c2.9,1.4,5.8,2,8.5,2c7.3,0,13.4-4.2,15.9-7.1c2.2-2.6,2.7-10.3,1.8-16.3
			c-0.4-2.9-1.5-7.9-4.3-9.7c-2.4-1.5-5.4-2.7-8.5-2.8c0,0,0,0,0,0c0,0-4.5-0.6-8.8,2.1c-3-1.7-10.9-5.2-19-2.1c0,0-0.5,0.2-1.4,0.6
			c-1.3-0.2-5.8-0.8-10.3,0.3c-0.9-0.2-1.8-0.3-2.7-0.5c-5-0.9-8.5-1.5-11.2-0.5c0,0,0,0,0,0c0,0-5.6,1.5-6.9,8
			c-1.2,6.3,0,10.8,8.6,14.2c0.7,4,3,7.5,7.7,9.1l0,0C299.8,362.8,301.3,363.2,302.8,363.4z M335,335.1c4.9-4.1,11-2.7,15.1,0
			c1.7,1.1,3,4.2,3.6,8.7c0.9,6.2,0.3,13.1-1.4,15.1c-3.1,3.7-12.6,9.6-22.5,4.7c-0.5-2.1-3.5-14.6,1.5-23.7
			C332.3,337.9,333.6,336.3,335,335.1z M315.2,332.5c6.9-2.7,13.8,0,17.1,1.6c-2.5,2-4.9,5.4-5.9,10.8c-2.2,11,0.1,16.3,1.6,18.6
			c-16.6,2.9-18.3-2.4-19.3-5.6c-0.1-0.4-0.2-0.7-0.3-1c-0.8-2-1.6-11.7,1.3-18.5C310.8,335.4,312.7,333.4,315.2,332.5z
			 M290.5,350.4c-1.7-0.8-3.9-2.1-5.1-4.3c-1.1-1.9-1.3-4.2-0.6-6.8c2.5-8.5,5.4-8.1,15-6.4c-2.5,1.1-5.8,3.5-7.6,8.5
			C291.1,344.2,290.5,347.4,290.5,350.4z M293.2,348.9c0.2-5.8,2.3-11.1,5.2-13.3c4-3,9.9-2.9,12.9-2.6c-2.6,2.1-6,6.4-6.4,14.5
			c-0.4,7.8,1.1,12,3.4,14.5c-2.8,0.3-8.6,0.3-12.2-2.9C294.1,357.3,293,353.5,293.2,348.9z"/>
	</g>
	<g>
		<linearGradient id="SVGID_6_" gradientUnits="userSpaceOnUse" x1="247.9287" y1="269.085" x2="410.5594" y2="269.085">
			<stop  offset="0" style="stop-color:#FFFFFF"/>
			<stop  offset="1" style="stop-color:#FFFCE4"/>
		</linearGradient>
		<path class="st7" d="M285.9,247.2l107.1,4.7l-0.6,13.4c0,0.4,0.3,0.8,0.7,0.8l9.5,0.4l-0.5,12c0,0.2,0.1,0.4,0.2,0.5
			c0.1,0.1,0.3,0.2,0.5,0.2l7.7,0.3l-0.5,11.3l-162.1-7.1C252.1,278.1,271.8,252.4,285.9,247.2z"/>
		<linearGradient id="SVGID_7_" gradientUnits="userSpaceOnUse" x1="263.9275" y1="282.9789" x2="337.6375" y2="282.9789">
			<stop  offset="0" style="stop-color:#FFFFFF"/>
			<stop  offset="1" style="stop-color:#D7DDE8"/>
		</linearGradient>
		<polygon class="st8" points="264.2,278.2 337.6,280.9 336.8,287.7 263.9,284.5 		"/>
		<linearGradient id="SVGID_8_" gradientUnits="userSpaceOnUse" x1="353.1394" y1="247.179" x2="388.6951" y2="247.179">
			<stop  offset="0" style="stop-color:#FFFFFF"/>
			<stop  offset="1" style="stop-color:#FFFCE4"/>
		</linearGradient>
		<polygon class="st9" points="353.3,244.1 388.7,245.7 388.5,250.2 353.1,248.7 		"/>
		<linearGradient id="SVGID_9_" gradientUnits="userSpaceOnUse" x1="292.531" y1="244.7538" x2="338.7429" y2="244.7538">
			<stop  offset="0" style="stop-color:#FFFFFF"/>
			<stop  offset="1" style="stop-color:#FFFCE4"/>
		</linearGradient>
		<polygon class="st10" points="292.7,241.5 338.7,243.5 338.5,248 292.5,246 		"/>
		<linearGradient id="SVGID_10_" gradientUnits="userSpaceOnUse" x1="208.7986" y1="309.8211" x2="415.9197" y2="309.8211">
			<stop  offset="0" style="stop-color:#FFFFFF"/>
			<stop  offset="0.5929" style="stop-color:#FFFDF1"/>
			<stop  offset="1" style="stop-color:#FFFCE4"/>
		</linearGradient>
		<path class="st11" d="M413.1,333.7c-1.2,1.2-3.9,2.6-9.9,2.3L239,328.8c-1.9-1.4-19.1-14.5-30.2-45.2l207.1,9.1l-1.7,38.7
			C414.2,331.4,414.2,332.6,413.1,333.7z"/>
		<path class="st12" d="M338.6,263.7C338.6,263.7,338.6,263.7,338.6,263.7l-55.1-2.4c-0.4,0-0.7-0.4-0.7-0.8l0.3-7.8
			c0-0.2,0.1-0.4,0.2-0.5c0.1-0.1,0.3-0.2,0.5-0.2l55.1,2.4c0.2,0,0.4,0.1,0.5,0.2c0.1,0.1,0.2,0.3,0.2,0.5l-0.3,7.8
			C339.4,263.4,339,263.7,338.6,263.7z M284.4,259.8l53.6,2.4l0.3-6.3l-53.6-2.4L284.4,259.8z"/>
		<path class="st12" d="M388.6,265.9C388.6,265.9,388.6,265.9,388.6,265.9l-41-1.8c-0.4,0-0.7-0.4-0.7-0.8l0.3-7.8
			c0-0.2,0.1-0.4,0.2-0.5c0.1-0.1,0.3-0.2,0.5-0.2l41,1.8c0.4,0,0.7,0.4,0.7,0.8l-0.3,7.8c0,0.2-0.1,0.4-0.2,0.5
			C389,265.8,388.8,265.9,388.6,265.9z M348.4,262.6l39.5,1.7l0.3-6.3l-39.5-1.7L348.4,262.6z"/>
		<path class="st12" d="M338.1,276.5C338.1,276.5,338.1,276.5,338.1,276.5l-64.4-2.8c-0.4,0-0.7-0.4-0.7-0.8l0.3-7.8
			c0-0.4,0.4-0.7,0.8-0.7l64.4,2.8c0.4,0,0.7,0.4,0.7,0.8l-0.3,7.8c0,0.2-0.1,0.4-0.2,0.5C338.4,276.4,338.3,276.5,338.1,276.5z
			 M274.5,272.2l62.9,2.8l0.3-6.3l-62.9-2.8L274.5,272.2z"/>
		<path class="st12" d="M396.7,279.1C396.7,279.1,396.7,279.1,396.7,279.1l-49.7-2.2c-0.2,0-0.4-0.1-0.5-0.2
			c-0.1-0.1-0.2-0.3-0.2-0.5l0.3-7.8c0-0.4,0.4-0.7,0.8-0.7l49.6,2.2c0.4,0,0.7,0.4,0.7,0.8l-0.3,7.8c0,0.2-0.1,0.4-0.2,0.5
			C397.1,279,396.9,279.1,396.7,279.1z M347.8,275.4l48.1,2.1l0.3-6.3l-48.1-2.1L347.8,275.4z"/>
		<linearGradient id="SVGID_11_" gradientUnits="userSpaceOnUse" x1="284.3631" y1="257.8715" x2="338.198" y2="257.8715">
			<stop  offset="0" style="stop-color:#FFFFFF"/>
			<stop  offset="1" style="stop-color:#D7DDE8"/>
		</linearGradient>
		<polygon class="st13" points="284.4,259.8 337.9,262.2 338.2,255.9 284.6,253.6 		"/>
		<linearGradient id="SVGID_12_" gradientUnits="userSpaceOnUse" x1="348.4021" y1="260.3724" x2="388.1492" y2="260.3724">
			<stop  offset="0" style="stop-color:#FFFFFF"/>
			<stop  offset="1" style="stop-color:#D7DDE8"/>
		</linearGradient>
		<polygon class="st14" points="348.4,262.6 387.9,264.4 388.1,258.1 348.7,256.4 		"/>
		<linearGradient id="SVGID_13_" gradientUnits="userSpaceOnUse" x1="274.4783" y1="270.4325" x2="337.6375" y2="270.4325">
			<stop  offset="0" style="stop-color:#FFFFFF"/>
			<stop  offset="1" style="stop-color:#D7DDE8"/>
		</linearGradient>
		<polygon class="st15" points="274.5,272.2 337.4,274.9 337.6,268.7 274.8,265.9 		"/>
		<linearGradient id="SVGID_14_" gradientUnits="userSpaceOnUse" x1="347.8416" y1="273.328" x2="396.2478" y2="273.328">
			<stop  offset="0" style="stop-color:#FFFFFF"/>
			<stop  offset="1" style="stop-color:#D7DDE8"/>
		</linearGradient>
		<polygon class="st16" points="347.8,275.4 396,277.5 396.2,271.2 348.1,269.1 		"/>
		<path class="st12" d="M404.8,292.2C404.8,292.2,404.8,292.2,404.8,292.2l-58.3-2.6c-0.4,0-0.7-0.4-0.7-0.8l0.3-7.8
			c0-0.2,0.1-0.4,0.2-0.5c0.1-0.1,0.3-0.2,0.5-0.2l58.3,2.6c0.4,0,0.7,0.4,0.7,0.8l-0.3,7.8c0,0.2-0.1,0.4-0.2,0.5
			C405.2,292.1,405,292.2,404.8,292.2z M347.3,288.2l56.8,2.5l0.3-6.3l-56.8-2.5L347.3,288.2z"/>
		<path class="st12" d="M236.7,295.9C236.7,295.9,236.7,295.9,236.7,295.9l-8.7-0.4c-0.4,0-0.7-0.4-0.7-0.8l0.2-5.3
			c0-0.2,0.1-0.4,0.2-0.5c0.1-0.1,0.3-0.2,0.5-0.2l8.7,0.4c0.2,0,0.4,0.1,0.5,0.2c0.1,0.1,0.2,0.3,0.2,0.5l-0.2,5.3
			C237.4,295.6,237.1,295.9,236.7,295.9z M228.8,294.1l7.2,0.3l0.2-3.8l-7.2-0.3L228.8,294.1z"/>
		<path class="st12" d="M254.7,296.7C254.7,296.7,254.6,296.7,254.7,296.7l-8.7-0.4c-0.2,0-0.4-0.1-0.5-0.2
			c-0.1-0.1-0.2-0.3-0.2-0.5l0.2-5.3c0-0.4,0.4-0.8,0.8-0.7l8.7,0.4c0.2,0,0.4,0.1,0.5,0.2c0.1,0.1,0.2,0.3,0.2,0.5l-0.2,5.3
			C255.4,296.4,255.1,296.7,254.7,296.7z M246.8,294.9l7.2,0.3l0.2-3.8l-7.2-0.3L246.8,294.9z"/>
		<path class="st12" d="M272.6,297.5C272.6,297.5,272.6,297.5,272.6,297.5l-8.7-0.4c-0.4,0-0.7-0.4-0.7-0.8l0.2-5.3
			c0-0.2,0.1-0.4,0.2-0.5c0.1-0.1,0.3-0.2,0.5-0.2l8.7,0.4c0.4,0,0.7,0.4,0.7,0.8l-0.2,5.3c0,0.2-0.1,0.4-0.2,0.5
			C273,297.5,272.8,297.5,272.6,297.5z M264.8,295.7l7.2,0.3l0.2-3.8l-7.2-0.3L264.8,295.7z"/>
		<path class="st12" d="M290.6,298.3C290.6,298.3,290.6,298.3,290.6,298.3l-8.7-0.4c-0.4,0-0.7-0.4-0.7-0.8l0.2-5.3
			c0-0.2,0.1-0.4,0.2-0.5c0.1-0.1,0.3-0.2,0.5-0.2l8.7,0.4c0.4,0,0.7,0.4,0.7,0.8l-0.2,5.3c0,0.2-0.1,0.4-0.2,0.5
			C291,298.2,290.8,298.3,290.6,298.3z M282.8,296.5l7.2,0.3l0.2-3.8l-7.2-0.3L282.8,296.5z"/>
		<path class="st12" d="M308.6,299.1C308.6,299.1,308.6,299.1,308.6,299.1l-8.7-0.4c-0.2,0-0.4-0.1-0.5-0.2
			c-0.1-0.1-0.2-0.3-0.2-0.5l0.2-5.3c0-0.4,0.4-0.8,0.8-0.7l8.7,0.4c0.2,0,0.4,0.1,0.5,0.2c0.1,0.1,0.2,0.3,0.2,0.5l-0.2,5.3
			C309.3,298.8,309,299.1,308.6,299.1z M300.7,297.3l7.2,0.3l0.2-3.8l-7.2-0.3L300.7,297.3z"/>
		<path class="st12" d="M326.6,299.9C326.6,299.9,326.6,299.9,326.6,299.9l-8.7-0.4c-0.2,0-0.4-0.1-0.5-0.2
			c-0.1-0.1-0.2-0.3-0.2-0.5l0.2-5.3c0-0.4,0.4-0.7,0.8-0.7l8.7,0.4c0.4,0,0.7,0.4,0.7,0.8l-0.2,5.3c0,0.2-0.1,0.4-0.2,0.5
			C327,299.8,326.8,299.9,326.6,299.9z M318.7,298l7.2,0.3l0.2-3.8l-7.2-0.3L318.7,298z"/>
		<path class="st12" d="M344.6,300.7C344.6,300.7,344.6,300.7,344.6,300.7l-8.7-0.4c-0.4,0-0.7-0.4-0.7-0.8l0.2-5.3
			c0-0.2,0.1-0.4,0.2-0.5c0.1-0.1,0.3-0.2,0.5-0.2l8.7,0.4c0.4,0,0.7,0.4,0.7,0.8l-0.2,5.3c0,0.2-0.1,0.4-0.2,0.5
			C344.9,300.6,344.8,300.7,344.6,300.7z M336.7,298.8l7.2,0.3l0.2-3.8l-7.2-0.3L336.7,298.8z"/>
		<path class="st12" d="M362.6,301.5C362.6,301.5,362.5,301.5,362.6,301.5l-8.7-0.4c-0.4,0-0.7-0.4-0.7-0.8l0.2-5.3
			c0-0.2,0.1-0.4,0.2-0.5c0.1-0.1,0.3-0.2,0.5-0.2l8.7,0.4c0.2,0,0.4,0.1,0.5,0.2c0.1,0.1,0.2,0.3,0.2,0.5l-0.2,5.3
			C363.3,301.2,363,301.5,362.6,301.5z M354.7,299.6l7.2,0.3l0.2-3.8l-7.2-0.3L354.7,299.6z"/>
		<path class="st12" d="M380.5,302.3C380.5,302.3,380.5,302.3,380.5,302.3l-8.7-0.4c-0.2,0-0.4-0.1-0.5-0.2
			c-0.1-0.1-0.2-0.3-0.2-0.5l0.2-5.3c0-0.4,0.4-0.7,0.8-0.7l8.7,0.4c0.2,0,0.4,0.1,0.5,0.2c0.1,0.1,0.2,0.3,0.2,0.5l-0.2,5.3
			C381.3,301.9,380.9,302.3,380.5,302.3z M372.7,300.4l7.2,0.3l0.2-3.8l-7.2-0.3L372.7,300.4z"/>
		<path class="st12" d="M398.5,303C398.5,303,398.5,303,398.5,303l-8.7-0.4c-0.4,0-0.7-0.4-0.7-0.8l0.2-5.3c0-0.2,0.1-0.4,0.2-0.5
			c0.1-0.1,0.3-0.2,0.5-0.2l8.7,0.4c0.4,0,0.7,0.4,0.7,0.8l-0.2,5.3c0,0.2-0.1,0.4-0.2,0.5C398.9,303,398.7,303,398.5,303z
			 M390.7,301.2l7.2,0.3l0.2-3.8l-7.2-0.3L390.7,301.2z"/>
		<linearGradient id="SVGID_15_" gradientUnits="userSpaceOnUse" x1="347.282" y1="286.2835" x2="404.3455" y2="286.2835">
			<stop  offset="0" style="stop-color:#FFFFFF"/>
			<stop  offset="1" style="stop-color:#D7DDE8"/>
		</linearGradient>
		<polygon class="st17" points="347.6,281.9 404.3,284.4 404.1,290.7 347.3,288.2 		"/>
		<linearGradient id="SVGID_16_" gradientUnits="userSpaceOnUse" x1="228.8074" y1="292.3387" x2="236.1355" y2="292.3387">
			<stop  offset="0" style="stop-color:#FFFFFF"/>
			<stop  offset="1" style="stop-color:#D7DDE8"/>
		</linearGradient>
		<polygon class="st18" points="228.8,294.1 236,294.4 236.1,290.6 229,290.3 		"/>
		<linearGradient id="SVGID_17_" gradientUnits="userSpaceOnUse" x1="246.7898" y1="293.1278" x2="254.1179" y2="293.1278">
			<stop  offset="0" style="stop-color:#FFFFFF"/>
			<stop  offset="1" style="stop-color:#D7DDE8"/>
		</linearGradient>
		<polygon class="st19" points="246.8,294.9 253.9,295.2 254.1,291.4 247,291.1 		"/>
		<linearGradient id="SVGID_18_" gradientUnits="userSpaceOnUse" x1="264.7732" y1="293.9169" x2="272.1004" y2="293.9169">
			<stop  offset="0" style="stop-color:#FFFFFF"/>
			<stop  offset="1" style="stop-color:#D7DDE8"/>
		</linearGradient>
		<polygon class="st20" points="264.8,295.7 271.9,296 272.1,292.2 264.9,291.8 		"/>
		<linearGradient id="SVGID_19_" gradientUnits="userSpaceOnUse" x1="282.7556" y1="294.706" x2="290.0828" y2="294.706">
			<stop  offset="0" style="stop-color:#FFFFFF"/>
			<stop  offset="1" style="stop-color:#D7DDE8"/>
		</linearGradient>
		<polygon class="st21" points="282.8,296.5 289.9,296.8 290.1,292.9 282.9,292.6 		"/>
		<linearGradient id="SVGID_20_" gradientUnits="userSpaceOnUse" x1="300.7381" y1="295.495" x2="308.0662" y2="295.495">
			<stop  offset="0" style="stop-color:#FFFFFF"/>
			<stop  offset="1" style="stop-color:#D7DDE8"/>
		</linearGradient>
		<polygon class="st22" points="300.7,297.3 307.9,297.6 308.1,293.7 300.9,293.4 		"/>
		<linearGradient id="SVGID_21_" gradientUnits="userSpaceOnUse" x1="318.7205" y1="296.2841" x2="326.0486" y2="296.2841">
			<stop  offset="0" style="stop-color:#FFFFFF"/>
			<stop  offset="1" style="stop-color:#D7DDE8"/>
		</linearGradient>
		<polygon class="st23" points="318.7,298 325.9,298.4 326,294.5 318.9,294.2 		"/>
		<linearGradient id="SVGID_22_" gradientUnits="userSpaceOnUse" x1="336.7039" y1="297.0732" x2="344.031" y2="297.0732">
			<stop  offset="0" style="stop-color:#FFFFFF"/>
			<stop  offset="1" style="stop-color:#D7DDE8"/>
		</linearGradient>
		<polygon class="st24" points="336.7,298.8 343.9,299.1 344,295.3 336.9,295 		"/>
		<linearGradient id="SVGID_23_" gradientUnits="userSpaceOnUse" x1="354.6863" y1="297.8622" x2="362.0144" y2="297.8622">
			<stop  offset="0" style="stop-color:#FFFFFF"/>
			<stop  offset="1" style="stop-color:#D7DDE8"/>
		</linearGradient>
		<polygon class="st25" points="354.7,299.6 361.8,299.9 362,296.1 354.9,295.8 		"/>
		<linearGradient id="SVGID_24_" gradientUnits="userSpaceOnUse" x1="372.6687" y1="298.6512" x2="379.9969" y2="298.6512">
			<stop  offset="0" style="stop-color:#FFFFFF"/>
			<stop  offset="1" style="stop-color:#D7DDE8"/>
		</linearGradient>
		<polygon class="st26" points="372.7,300.4 379.8,300.7 380,296.9 372.8,296.6 		"/>
		<linearGradient id="SVGID_25_" gradientUnits="userSpaceOnUse" x1="390.6521" y1="299.4403" x2="397.9793" y2="299.4403">
			<stop  offset="0" style="stop-color:#FFFFFF"/>
			<stop  offset="1" style="stop-color:#D7DDE8"/>
		</linearGradient>
		<polygon class="st27" points="390.7,301.2 397.8,301.5 398,297.7 390.8,297.4 		"/>
		<g>
			<polygon class="st28" points="294.7,260.3 299.9,254.2 296.1,254.1 290.9,260.1 			"/>
			<polygon class="st28" points="335.1,255.8 328.5,255.5 323.4,261.5 330,261.8 			"/>
			<polygon class="st28" points="305.4,254.5 302.8,254.4 297.7,260.4 300.2,260.5 			"/>
		</g>
		<g>
			<polygon class="st28" points="284.3,272.6 289.4,266.6 285.6,266.4 280.5,272.5 			"/>
			<polygon class="st28" points="294.9,266.8 292.4,266.7 287.3,272.7 289.8,272.9 			"/>
			<polygon class="st28" points="324.7,268.1 318,267.8 312.9,273.9 319.6,274.2 			"/>
		</g>
		<g>
			<polygon class="st28" points="273.9,285 279.1,278.8 275.3,278.6 270.1,284.8 			"/>
			<polygon class="st28" points="314.5,280.1 307.9,279.8 302.5,286.2 309.1,286.5 			"/>
			<polygon class="st28" points="284.6,279 282.1,278.9 276.8,285.1 279.4,285.2 			"/>
		</g>
		<g>
			<polygon class="st28" points="388,262.5 388.1,259 383.7,264.2 386.4,264.3 			"/>
			<polygon class="st28" points="373.2,263.7 378.4,257.7 371.7,257.4 366.6,263.4 			"/>
		</g>
		<g>
			<polygon class="st28" points="362.8,276.1 367.9,270 361.3,269.7 356.1,275.8 			"/>
			<polygon class="st28" points="381.1,270.6 378.4,270.5 373.3,276.5 376,276.6 			"/>
		</g>
		<g>
			<polygon class="st28" points="357.5,282.3 350.8,282 347.4,286.1 347.3,288.2 352.3,288.4 			"/>
			<polygon class="st28" points="370.7,282.9 368,282.8 362.8,288.9 365.6,289 			"/>
		</g>
		<path class="st12" d="M337.5,289.2C337.5,289.2,337.5,289.2,337.5,289.2l-74.4-3.3c-0.2,0-0.4-0.1-0.5-0.2
			c-0.1-0.1-0.2-0.3-0.2-0.5l0.3-7.8c0-0.4,0.4-0.8,0.8-0.7l74.4,3.3c0.4,0,0.7,0.4,0.7,0.8l-0.3,7.8c0,0.2-0.1,0.4-0.2,0.5
			C337.9,289.2,337.7,289.2,337.5,289.2z M263.9,284.5l72.9,3.2l0.3-6.3l-72.9-3.2L263.9,284.5z"/>
		<path class="st29" d="M417.5,292c0-0.2-0.1-0.4-0.2-0.5c-0.1-0.1-0.3-0.2-0.5-0.2l-5.2-0.2l0.5-12c0-0.2-0.1-0.4-0.2-0.5
			c-0.1-0.1-0.3-0.2-0.5-0.2l-7.7-0.3l0.5-12c0-0.2-0.1-0.4-0.2-0.5c-0.1-0.1-0.3-0.2-0.5-0.2l-9.5-0.4l0.6-13.4
			c0-0.4-0.3-0.8-0.7-0.8l-3.9-0.2l0.2-5.3c0-0.2-0.1-0.4-0.2-0.5c-0.1-0.1-0.3-0.2-0.5-0.2l-36.9-1.6c-0.4,0-0.8,0.3-0.8,0.7
			l-0.2,5.3l-11.6-0.5l0.2-5.3c0-0.2-0.1-0.4-0.2-0.5c-0.1-0.1-0.3-0.2-0.5-0.2l-47.5-2.1c-0.4,0-0.8,0.3-0.8,0.7L291,246l-5.2-0.2
			c-0.1,0-0.2,0-0.3,0c-15.6,5.6-36.9,34.4-39.5,38l-38.4-1.7c-0.3,0-0.5,0.1-0.6,0.3c-0.1,0.2-0.2,0.5-0.1,0.7
			c11.8,33.6,31.1,47,31.3,47.1c0.1,0.1,0.2,0.1,0.4,0.1l164.4,7.2c0.5,0,1,0,1.5,0c4.5,0,7.7-0.9,9.5-2.8c1.6-1.6,1.5-3.4,1.5-3.4
			L417.5,292z M353.3,244.1l35.4,1.6l-0.2,4.6l-35.4-1.6L353.3,244.1z M292.7,241.5l46,2l-0.2,4.6l-46-2L292.7,241.5z M285.9,247.2
			l107.1,4.7l-0.6,13.4c0,0.4,0.3,0.8,0.7,0.8l9.5,0.4l-0.5,12c0,0.2,0.1,0.4,0.2,0.5c0.1,0.1,0.3,0.2,0.5,0.2l7.7,0.3l-0.5,11.3
			l-162.1-7.1C252.1,278.1,271.8,252.4,285.9,247.2z M413.1,333.7c-1.2,1.2-3.9,2.6-9.9,2.3L239,328.8c-1.9-1.4-19.1-14.5-30.2-45.2
			l207.1,9.1l-1.7,38.7C414.2,331.4,414.2,332.6,413.1,333.7z"/>
		<path class="st30" d="M225.9,315.4c6.6,8.5,12.1,12.7,13.1,13.4l164.2,7.2c6,0.3,8.7-1.1,9.9-2.3c1.2-1.1,1.1-2.3,1.1-2.3l0.3-7.6
			L225.9,315.4z"/>
		<polygon class="st30" points="415.9,294.7 208.7,285.3 208.8,284.8 415.9,294.2 		"/>
		<path class="st31" d="M414.2,331.4l1-23c-4.6,8.4-72.7,17.4-110.8,23.3l98.8,4.3c6,0.3,8.7-1.1,9.9-2.3
			C414.2,332.6,414.2,331.4,414.2,331.4z"/>
	</g>
</g>
<g>
	<g>
		
			<linearGradient id="SVGID_26_" gradientUnits="userSpaceOnUse" x1="3452.4932" y1="381.7801" x2="3537.5642" y2="381.7801" gradientTransform="matrix(-1 0 0 1 4056.4385 0)">
			<stop  offset="0" style="stop-color:#F2D397"/>
			<stop  offset="0.5331" style="stop-color:#F3D093"/>
			<stop  offset="0.7526" style="stop-color:#F5CC8F"/>
			<stop  offset="1" style="stop-color:#F3B699"/>
		</linearGradient>
		<path class="st32" d="M518.7,357.6l8.1-18.4c0-0.5,0.1-1,0.2-1.5c0-0.2,0.1-0.3,0.1-0.5c0.1-0.4,0.1-0.7,0.2-1.1
			c0-0.2,0.1-0.4,0.1-0.5c0.1-0.4,0.2-0.8,0.4-1.2c0-0.1,0.1-0.3,0.1-0.4c0.2-0.5,0.4-1.1,0.6-1.6c0.1-0.1,0.1-0.3,0.2-0.4
			c0.2-0.4,0.3-0.8,0.5-1.2c0.1-0.2,0.2-0.4,0.3-0.6c0.2-0.4,0.4-0.7,0.5-1.1c0.1-0.2,0.2-0.4,0.3-0.6c3-5.6,7.1-11,10.1-14.5
			c0.1-0.1,0.2-0.2,0.3-0.4c15.8,19.9,33.8,47.3,47.8,81.6c0,0,13,12.4,13,29.8c0,17.4-13.3,23.1-20.6,21.5v0
			c-8.2,7-19.6,2.7-21.9-8.7l-0.1-0.2c-0.5,0.3-1,0.6-1.6,0.9c-4.9,2.4-11.3-0.6-13.3-5l0,0l0,0c-0.1-0.2-0.2-0.3-0.2-0.5l0.2-0.1
			l-1.6-14.1l0.5-0.1v-3.6l0.7-2.5c-0.3-0.7-0.6-1.5-0.9-2.3l-0.7-1l-0.9-2.4l-0.1-0.7c-2.7-6.5-6.6-15.4-11.8-26
			c-3.4-7-7.4-14.3-11.2-21L518.7,357.6z"/>
	</g>
	<path class="st71" d="M569.3,417.7c0,0,2.5,19.1-8.3,25.4l-2-5.3C559,437.8,570.6,431.8,569.3,417.7z"/>
	<path class="st71" d="M587.9,423.7c0,0,5,12.8,1.3,21.9c0,0-3.4,1.3-8.4,0.9C580.9,446.5,589.4,442.1,587.9,423.7z"/>
	<path class="st1" d="M569.6,423.7c0,0,0.1,11.4-9.5,15.7l-0.4-1.7C559.7,437.7,569.8,428.6,569.6,423.7z"/>
	<path class="st1" d="M588.8,430.4c0,0,0.7,10.6-5,16.2l-3.5-0.3C580.3,446.4,587.9,439.3,588.8,430.4z"/>
	<path class="st72" d="M518.7,357.6l8.1-18.4c0-0.5,0.1-1,0.2-1.5c0-0.2,0.1-0.3,0.1-0.5c0.1-0.4,0.1-0.7,0.2-1.1
		c0-0.2,0.1-0.4,0.1-0.5c0.1-0.4,0.2-0.8,0.4-1.2c0-0.1,0.1-0.3,0.1-0.4c0.2-0.5,0.4-1.1,0.6-1.6c0.1-0.1,0.1-0.3,0.2-0.4
		c0.2-0.4,0.3-0.8,0.5-1.2c0.1-0.2,0.2-0.4,0.3-0.6c0.2-0.4,0.4-0.7,0.5-1.1c0.1-0.2,0.2-0.4,0.3-0.6c0-0.1,0.1-0.2,0.1-0.2
		c10.8,21.3,22.4,49.5,23.1,73.6c0,0-13.4,17-8.5,33.3c-0.4-0.5-0.7-1-0.9-1.6l0,0l0,0c-0.1-0.2-0.2-0.3-0.2-0.5l0.2-0.1l-1.6-14.1
		l0.5-0.1v-3.6l0.9-3.1l-1.8-2.7l-1-2.5l-20-43.6c0,0-1.1-1.3-2.9-4.2L518.7,357.6z"/>
	<g>
		<path class="st1" d="M542.9,413.8l-0.5-1.1c0,0,0,0,0-0.1c-0.2-0.4-13.2-29-24.9-52l1.3-3l0,0c10.8,20.8,22.7,47,25.4,52.8
			c0.5-1.2,0.9-1.7,0.9-1.7l0,0c1.1-1.9,2.4-3.5,2.5-3.6c0.2-0.3,0.6-0.3,0.9-0.1c0.3,0.2,0.3,0.6,0.1,0.9c-0.2,0.3-0.5,0.6-0.9,1.1
			c0,0-7,10.6-3.1,25.8h0c0.8,2.2,2.8,4.2,5.4,5.3c2.5,1,5.1,1,7.2-0.1c8.5-4.3,13.1-13.4,11.2-22.3c-0.1-0.3,0.1-0.7,0.5-0.8
			c0.3-0.1,0.7,0.1,0.8,0.5c1.9,8.7-2.1,17.6-9.9,22.5c1.2,5.4,4.6,9.5,9.1,10.9c4.4,1.3,8.9,0,12.6-3.6c8.9-8.9,5.5-22.4,5.5-22.5
			c-0.1-0.3,0.1-0.7,0.5-0.8c0.3-0.1,0.7,0.1,0.8,0.5c0,0.1,3.6,14.3-5.8,23.8c0,0,0,0,0,0c3,0.3,7.3-0.5,11.2-3.7
			c3.3-2.7,7.3-7.9,7.3-17.4c0-17-12.6-29.2-12.8-29.3c-0.1-0.1-0.1-0.1-0.2-0.2c-14-34.3-32-61.5-47.7-81.3
			c0.1-0.1,0.1-0.2,0.2-0.2c1.1-1.3,2.1-2.4,2.7-3c0,0,0,0,0,0c5.2,6.5,10.7,13.8,16,22l0,0c0,0,25.9,38.6,31.6,60.1
			c7,9.1,20.2,30.1,7.6,46.1c-1.2,1.8-2.6,3.2-3.9,4.3c-0.5,0.4-1,0.8-1.6,1.1c-0.1,0.1-0.2,0.1-0.2,0.1c0,0,0.1,0,0.1-0.1
			c-2.9,1.8-6.1,2.8-9.2,2.8c-0.8,0-1.6-0.1-2.4-0.2c-2.7,2.2-5.8,3.4-8.9,3.4c-1.2,0-2.5-0.2-3.7-0.5c-4.9-1.5-8.6-5.7-9.9-11.4
			c-0.3,0.2-0.6,0.3-0.9,0.5c-1.2,0.6-2.6,0.9-4.1,0.9c-1.4,0-2.8-0.3-4.2-0.8c-2.7-1.1-4.8-3.1-5.9-5.4h0c0,0,0-0.1-0.1-0.2
			c-0.1-0.1-0.1-0.3-0.2-0.4c0,0,0,0,0,0c0,0-1.1-2.6-1.4-7c-0.2-1.8-0.2-3.7-0.1-5.9C541.9,417.7,542.4,415.5,542.9,413.8z"/>
	</g>
</g>
</svg>
