<?xml version="1.0" encoding="utf-8"?>
<!-- Generator: Adobe Illustrator 21.0.0, SVG Export Plug-In . SVG Version: 6.00 Build 0)  -->
<svg version="1.1" id="圖層_1" xmlns="http://www.w3.org/2000/svg" xmlns:xlink="http://www.w3.org/1999/xlink" x="0px" y="0px"
	 viewBox="0 0 822.9 601.4" style="enable-background:new 0 0 822.9 601.4;" xml:space="preserve">
<style type="text/css">
	.st0{fill:url(#SVGID_1_);}
	.st1{fill:#E1BE3F;}
	.st2{fill:#AB6C21;}
	.st3{opacity:0.6;fill:#E1BE3F;}
	.st4{fill:url(#SVGID_2_);}
	.st5{fill:#66411D;}
	.st6{fill:url(#SVGID_3_);}
	.st7{fill:#D9B974;}
	.st8{fill:#DCBF93;}
	.st9{fill:url(#SVGID_4_);}
	.st10{fill:url(#SVGID_5_);}
	.st11{fill:url(#SVGID_6_);}
	.st12{fill:url(#SVGID_7_);}
	.st13{fill:#8C5924;}
	.st14{fill:url(#SVGID_8_);}
	.st15{fill:url(#SVGID_9_);}
	.st16{fill:url(#SVGID_10_);}
	.st17{fill:url(#SVGID_11_);}
	.st18{fill:#F4E3A5;}
	.st19{fill:#DEB87D;}
	.st20{fill:url(#SVGID_12_);}
	.st21{fill:url(#SVGID_13_);}
	.st22{fill:#3F210F;}
	.st23{opacity:0.25;fill:#E1BE3F;}
	.st24{opacity:0.5;fill:#E1BE3F;}
	.st25{fill:#F8E5A9;}
	.st26{fill:#DDBC90;}
	.st27{opacity:0.4;fill:#E1BE3F;}
	.st28{fill:#875424;}
	.st29{fill:#3F210E;}
	.st30{fill:#C88E2C;}
	.st31{fill:#AC7327;}
	.st32{fill:#FFFFFF;}
	.st33{fill:#814323;}
	.st34{fill:#D7C6A6;}
	.st35{fill:url(#SVGID_14_);}
	.st36{fill:#4A1E0E;}
	.st37{fill:#3A1D13;}
	.st38{fill:url(#SVGID_15_);}
	.st39{fill:#EAA593;}
	.st40{fill:url(#SVGID_16_);}
	.st41{fill:url(#SVGID_17_);}
	.st42{fill:#D59543;}
	.st43{opacity:0.6;fill:#D59543;}
	.st44{fill:url(#SVGID_18_);}
	.st45{fill:url(#SVGID_19_);}
	.st46{fill:#2C2C2C;}
	.st47{fill:#231815;}
	.st48{fill:#767776;}
	.st49{fill:#B1B0B0;}
	.st50{fill:#D2D2D3;}
	.st51{fill:#5A5756;}
	.st52{opacity:0.8;fill:#2C2C2C;}
	.st53{fill:#151515;}
	.st54{fill:#383737;}
	.st55{fill:url(#SVGID_20_);}
	.st56{fill:#517F99;}
	.st57{fill:url(#SVGID_21_);}
	.st58{fill:url(#SVGID_22_);}
	.st59{fill:url(#SVGID_23_);}
	.st60{fill:url(#SVGID_24_);}
	.st61{fill:url(#SVGID_25_);}
	.st62{fill:#4E7392;}
	.st63{fill:#3B627C;}
	.st64{fill:#2C404B;}
	.st65{fill:#4E6673;}
</style>
<g>
	<g>
		<g>
			<linearGradient id="SVGID_1_" gradientUnits="userSpaceOnUse" x1="290.8477" y1="381.7801" x2="375.9187" y2="381.7801">
				<stop  offset="0" style="stop-color:#F2D397"/>
				<stop  offset="0.5331" style="stop-color:#F3D093"/>
				<stop  offset="0.7526" style="stop-color:#F5CC8F"/>
				<stop  offset="1" style="stop-color:#F3B699"/>
			</linearGradient>
			<path class="st0" d="M376.1,357.6l-8.1-18.4c0-0.5-0.1-1-0.2-1.5c0-0.2-0.1-0.3-0.1-0.5c-0.1-0.4-0.1-0.7-0.2-1.1
				c0-0.2-0.1-0.4-0.1-0.5c-0.1-0.4-0.2-0.8-0.4-1.2c0-0.1-0.1-0.3-0.1-0.4c-0.2-0.5-0.4-1.1-0.6-1.6c-0.1-0.1-0.1-0.3-0.2-0.4
				c-0.2-0.4-0.3-0.8-0.5-1.2c-0.1-0.2-0.2-0.4-0.3-0.6c-0.2-0.4-0.4-0.7-0.5-1.1c-0.1-0.2-0.2-0.4-0.3-0.6c-3-5.6-7.1-11-10.1-14.5
				c-0.1-0.1-0.2-0.2-0.3-0.4c-15.8,19.9-33.8,47.3-47.8,81.6c0,0-13,12.4-13,29.8c0,17.4,13.3,23.1,20.6,21.5v0
				c8.2,7,19.6,2.7,21.9-8.7l0.1-0.2c0.5,0.3,1,0.6,1.6,0.9c4.9,2.4,11.3-0.6,13.3-5l0,0l0,0c0.1-0.2,0.2-0.3,0.2-0.5l-0.2-0.1
				l1.6-14.1l-0.5-0.1v-3.6l-0.7-2.5c0.3-0.7,0.6-1.5,0.9-2.3l0.7-1l0.9-2.4l0.1-0.7c2.7-6.5,6.6-15.4,11.8-26
				c3.4-7,7.4-14.3,11.2-21L376.1,357.6z"/>
		</g>
		<path class="st42" d="M325.5,417.7c0,0-2.5,19.1,8.3,25.4l2-5.3C335.8,437.8,324.2,431.8,325.5,417.7z"/>
		<path class="st42" d="M306.9,423.7c0,0-5,12.8-1.3,21.9c0,0,3.4,1.3,8.4,0.9C313.9,446.5,305.3,442.1,306.9,423.7z"/>
		<path class="st2" d="M325.2,423.7c0,0-0.1,11.4,9.5,15.7l0.4-1.7C335.1,437.7,325,428.6,325.2,423.7z"/>
		<path class="st2" d="M306,430.4c0,0-0.7,10.6,5,16.2l3.5-0.3C314.5,446.4,306.9,439.3,306,430.4z"/>
		<path class="st43" d="M376.1,357.6l-8.1-18.4c0-0.5-0.1-1-0.2-1.5c0-0.2-0.1-0.3-0.1-0.5c-0.1-0.4-0.1-0.7-0.2-1.1
			c0-0.2-0.1-0.4-0.1-0.5c-0.1-0.4-0.2-0.8-0.4-1.2c0-0.1-0.1-0.3-0.1-0.4c-0.2-0.5-0.4-1.1-0.6-1.6c-0.1-0.1-0.1-0.3-0.2-0.4
			c-0.2-0.4-0.3-0.8-0.5-1.2c-0.1-0.2-0.2-0.4-0.3-0.6c-0.2-0.4-0.4-0.7-0.5-1.1c-0.1-0.2-0.2-0.4-0.3-0.6c0-0.1-0.1-0.2-0.1-0.2
			c-10.8,21.3-22.4,49.5-23.1,73.6c0,0,13.4,17,8.5,33.3c0.4-0.5,0.7-1,0.9-1.6l0,0l0,0c0.1-0.2,0.2-0.3,0.2-0.5l-0.2-0.1l1.6-14.1
			l-0.5-0.1v-3.6L351,412l1.8-2.7l1-2.5l20-43.6c0,0,1.1-1.3,2.9-4.2L376.1,357.6z"/>
		<g>
			<path class="st2" d="M351.9,413.8l0.5-1.1c0,0,0,0,0-0.1c0.2-0.4,13.2-29,24.9-52l-1.3-3l0,0c-10.8,20.8-22.7,47-25.4,52.8
				c-0.5-1.2-0.9-1.7-0.9-1.7l0,0c-1.1-1.9-2.4-3.5-2.5-3.6c-0.2-0.3-0.6-0.3-0.9-0.1c-0.3,0.2-0.3,0.6-0.1,0.9
				c0.2,0.3,0.5,0.6,0.9,1.1c0,0,7,10.6,3.1,25.8h0c-0.8,2.2-2.8,4.2-5.4,5.3c-2.5,1-5.1,1-7.2-0.1c-8.5-4.3-13.1-13.4-11.2-22.3
				c0.1-0.3-0.1-0.7-0.5-0.8c-0.3-0.1-0.7,0.1-0.8,0.5c-1.9,8.7,2.1,17.6,9.9,22.5c-1.2,5.4-4.6,9.5-9.1,10.9
				c-4.4,1.3-8.9,0-12.6-3.6c-8.9-8.9-5.5-22.4-5.5-22.5c0.1-0.3-0.1-0.7-0.5-0.8c-0.3-0.1-0.7,0.1-0.8,0.5c0,0.1-3.6,14.3,5.8,23.8
				c0,0,0,0,0,0c-3,0.3-7.3-0.5-11.2-3.7c-3.3-2.7-7.3-7.9-7.3-17.4c0-17,12.6-29.2,12.8-29.3c0.1-0.1,0.1-0.1,0.2-0.2
				c14-34.3,32-61.5,47.7-81.3c-0.1-0.1-0.1-0.2-0.2-0.2c-1.1-1.3-2.1-2.4-2.7-3c0,0,0,0,0,0c-5.2,6.5-10.7,13.8-16,22l0,0
				c0,0-25.9,38.6-31.6,60.1c-7,9.1-20.2,30.1-7.6,46.1c1.2,1.8,2.6,3.2,3.9,4.3c0.5,0.4,1,0.8,1.6,1.1c0.1,0.1,0.2,0.1,0.2,0.1
				c0,0-0.1,0-0.1-0.1c2.9,1.8,6.1,2.8,9.2,2.8c0.8,0,1.6-0.1,2.4-0.2c2.7,2.2,5.8,3.4,8.9,3.4c1.2,0,2.5-0.2,3.7-0.5
				c4.9-1.5,8.6-5.7,9.9-11.4c0.3,0.2,0.6,0.3,0.9,0.5c1.2,0.6,2.6,0.9,4.1,0.9c1.4,0,2.8-0.3,4.2-0.8c2.7-1.1,4.8-3.1,5.9-5.4h0
				c0,0,0-0.1,0.1-0.2c0.1-0.1,0.1-0.3,0.2-0.4c0,0,0,0,0,0c0,0,1.1-2.6,1.4-7c0.2-1.8,0.2-3.7,0.1-5.9
				C352.9,417.7,352.4,415.5,351.9,413.8z"/>
		</g>
	</g>
	<g>
		<g>
			
				<linearGradient id="SVGID_2_" gradientUnits="userSpaceOnUse" x1="3452.2437" y1="381.7801" x2="3537.3147" y2="381.7801" gradientTransform="matrix(-1 0 0 1 4056.4385 0)">
				<stop  offset="0" style="stop-color:#F2D397"/>
				<stop  offset="0.5331" style="stop-color:#F3D093"/>
				<stop  offset="0.7526" style="stop-color:#F5CC8F"/>
				<stop  offset="1" style="stop-color:#F3B699"/>
			</linearGradient>
			<path class="st4" d="M518.9,357.6l8.1-18.4c0-0.5,0.1-1,0.2-1.5c0-0.2,0.1-0.3,0.1-0.5c0.1-0.4,0.1-0.7,0.2-1.1
				c0-0.2,0.1-0.4,0.1-0.5c0.1-0.4,0.2-0.8,0.4-1.2c0-0.1,0.1-0.3,0.1-0.4c0.2-0.5,0.4-1.1,0.6-1.6c0.1-0.1,0.1-0.3,0.2-0.4
				c0.2-0.4,0.3-0.8,0.5-1.2c0.1-0.2,0.2-0.4,0.3-0.6c0.2-0.4,0.4-0.7,0.5-1.1c0.1-0.2,0.2-0.4,0.3-0.6c3-5.6,7.1-11,10.1-14.5
				c0.1-0.1,0.2-0.2,0.3-0.4c15.8,19.9,33.8,47.3,47.8,81.6c0,0,13,12.4,13,29.8c0,17.4-13.3,23.1-20.6,21.5v0
				c-8.2,7-19.6,2.7-21.9-8.7l-0.1-0.2c-0.5,0.3-1,0.6-1.6,0.9c-4.9,2.4-11.3-0.6-13.3-5l0,0l0,0c-0.1-0.2-0.2-0.3-0.2-0.5l0.2-0.1
				l-1.6-14.1l0.5-0.1v-3.6l0.7-2.5c-0.3-0.7-0.6-1.5-0.9-2.3l-0.7-1l-0.9-2.4l-0.1-0.7c-2.7-6.5-6.6-15.4-11.8-26
				c-3.4-7-7.4-14.3-11.2-21L518.9,357.6z"/>
		</g>
		<path class="st42" d="M569.6,417.7c0,0,2.5,19.1-8.3,25.4l-2-5.3C559.3,437.8,570.8,431.8,569.6,417.7z"/>
		<path class="st42" d="M588.2,423.7c0,0,5,12.8,1.3,21.9c0,0-3.4,1.3-8.4,0.9C581.1,446.5,589.7,442.1,588.2,423.7z"/>
		<path class="st2" d="M569.9,423.7c0,0,0.1,11.4-9.5,15.7l-0.4-1.7C559.9,437.7,570,428.6,569.9,423.7z"/>
		<path class="st2" d="M589,430.4c0,0,0.7,10.6-5,16.2l-3.5-0.3C580.5,446.4,588.2,439.3,589,430.4z"/>
		<path class="st43" d="M518.9,357.6l8.1-18.4c0-0.5,0.1-1,0.2-1.5c0-0.2,0.1-0.3,0.1-0.5c0.1-0.4,0.1-0.7,0.2-1.1
			c0-0.2,0.1-0.4,0.1-0.5c0.1-0.4,0.2-0.8,0.4-1.2c0-0.1,0.1-0.3,0.1-0.4c0.2-0.5,0.4-1.1,0.6-1.6c0.1-0.1,0.1-0.3,0.2-0.4
			c0.2-0.4,0.3-0.8,0.5-1.2c0.1-0.2,0.2-0.4,0.3-0.6c0.2-0.4,0.4-0.7,0.5-1.1c0.1-0.2,0.2-0.4,0.3-0.6c0-0.1,0.1-0.2,0.1-0.2
			c10.8,21.3,22.4,49.5,23.1,73.6c0,0-13.4,17-8.5,33.3c-0.4-0.5-0.7-1-0.9-1.6l0,0l0,0c-0.1-0.2-0.2-0.3-0.2-0.5l0.2-0.1l-1.6-14.1
			l0.5-0.1v-3.6l0.9-3.1l-1.8-2.7l-1-2.5l-20-43.6c0,0-1.1-1.3-2.9-4.2L518.9,357.6z"/>
		<g>
			<path class="st2" d="M543.1,413.8l-0.5-1.1c0,0,0,0,0-0.1c-0.2-0.4-13.2-29-24.9-52l1.3-3l0,0c10.8,20.8,22.7,47,25.4,52.8
				c0.5-1.2,0.9-1.7,0.9-1.7l0,0c1.1-1.9,2.4-3.5,2.5-3.6c0.2-0.3,0.6-0.3,0.9-0.1c0.3,0.2,0.3,0.6,0.1,0.9
				c-0.2,0.3-0.5,0.6-0.9,1.1c0,0-7,10.6-3.1,25.8h0c0.8,2.2,2.8,4.2,5.4,5.3c2.5,1,5.1,1,7.2-0.1c8.5-4.3,13.1-13.4,11.2-22.3
				c-0.1-0.3,0.1-0.7,0.5-0.8c0.3-0.1,0.7,0.1,0.8,0.5c1.9,8.7-2.1,17.6-9.9,22.5c1.2,5.4,4.6,9.5,9.1,10.9c4.4,1.3,8.9,0,12.6-3.6
				c8.9-8.9,5.5-22.4,5.5-22.5c-0.1-0.3,0.1-0.7,0.5-0.8c0.3-0.1,0.7,0.1,0.8,0.5c0,0.1,3.6,14.3-5.8,23.8c0,0,0,0,0,0
				c3,0.3,7.3-0.5,11.2-3.7c3.3-2.7,7.3-7.9,7.3-17.4c0-17-12.6-29.2-12.8-29.3c-0.1-0.1-0.1-0.1-0.2-0.2
				c-14-34.3-32-61.5-47.7-81.3c0.1-0.1,0.1-0.2,0.2-0.2c1.1-1.3,2.1-2.4,2.7-3c0,0,0,0,0,0c5.2,6.5,10.7,13.8,16,22l0,0
				c0,0,25.9,38.6,31.6,60.1c7,9.1,20.2,30.1,7.6,46.1c-1.2,1.8-2.6,3.2-3.9,4.3c-0.5,0.4-1,0.8-1.6,1.1c-0.1,0.1-0.2,0.1-0.2,0.1
				c0,0,0.1,0,0.1-0.1c-2.9,1.8-6.1,2.8-9.2,2.8c-0.8,0-1.6-0.1-2.4-0.2c-2.7,2.2-5.8,3.4-8.9,3.4c-1.2,0-2.5-0.2-3.7-0.5
				c-4.9-1.5-8.6-5.7-9.9-11.4c-0.3,0.2-0.6,0.3-0.9,0.5c-1.2,0.6-2.6,0.9-4.1,0.9c-1.4,0-2.8-0.3-4.2-0.8c-2.7-1.1-4.8-3.1-5.9-5.4
				h0c0,0,0-0.1-0.1-0.2c-0.1-0.1-0.1-0.3-0.2-0.4c0,0,0,0,0,0c0,0-1.1-2.6-1.4-7c-0.2-1.8-0.2-3.7-0.1-5.9
				C542.2,417.7,542.6,415.5,543.1,413.8z"/>
		</g>
	</g>
</g>
<g>
	<linearGradient id="SVGID_3_" gradientUnits="userSpaceOnUse" x1="701.0633" y1="525.6142" x2="720.73" y2="525.6142">
		<stop  offset="0" style="stop-color:#B0DAF4"/>
		<stop  offset="1" style="stop-color:#689BBD"/>
	</linearGradient>
	<polygon class="st6" points="701.1,520.9 720.7,523.8 717,530.3 704.9,528 	"/>
	<g>
		<path class="st46" d="M764.3,499.1c-27.4,0-49.6,22.3-49.6,49.6s22.3,49.6,49.6,49.6c27.4,0,49.6-22.3,49.6-49.6
			S791.6,499.1,764.3,499.1z"/>
		<path class="st47" d="M764.3,599.8c-28.2,0-51.1-22.9-51.1-51.1c0-28.2,22.9-51.1,51.1-51.1c28.2,0,51.1,22.9,51.1,51.1
			C815.4,576.9,792.4,599.8,764.3,599.8z M764.3,499.1c-27.4,0-49.6,22.3-49.6,49.6s22.3,49.6,49.6,49.6c27.4,0,49.6-22.3,49.6-49.6
			S791.6,499.1,764.3,499.1z"/>
		<path class="st48" d="M767.3,585.7c-18,0-32.7-14.7-32.7-32.7c0-18,14.7-32.7,32.7-32.7c18,0,32.7,14.7,32.7,32.7
			C800,571,785.3,585.7,767.3,585.7z M767.3,521.8c-17.2,0-31.2,14-31.2,31.2c0,17.2,14,31.2,31.2,31.2c17.2,0,31.2-14,31.2-31.2
			C798.5,535.8,784.5,521.8,767.3,521.8z"/>
		<path class="st49" d="M767.3,521.8c-17.2,0-31.2,14-31.2,31.2c0,17.2,14,31.2,31.2,31.2c17.2,0,31.2-14,31.2-31.2
			C798.5,535.8,784.5,521.8,767.3,521.8z"/>
		<path class="st50" d="M767.3,568.4c-8.5,0-15.4-6.9-15.4-15.4c0-8.5,6.9-15.4,15.4-15.4c8.5,0,15.4,6.9,15.4,15.4
			C782.7,561.5,775.8,568.4,767.3,568.4z M767.3,539.1c-7.7,0-13.9,6.3-13.9,13.9c0,7.7,6.3,13.9,13.9,13.9
			c7.7,0,13.9-6.3,13.9-13.9C781.2,545.3,774.9,539.1,767.3,539.1z"/>
		<path class="st50" d="M767.3,563.1c-5.6,0-10.1-4.5-10.1-10.1c0-5.6,4.5-10.1,10.1-10.1c5.6,0,10.1,4.5,10.1,10.1
			C777.4,558.6,772.8,563.1,767.3,563.1z M767.3,544.4c-4.8,0-8.6,3.9-8.6,8.6s3.9,8.6,8.6,8.6c4.8,0,8.6-3.9,8.6-8.6
			S772,544.4,767.3,544.4z"/>
		<path class="st51" d="M767.3,579.6L767.3,579.6c-2.1,0-3.8-1.7-3.8-3.7c0-2.1,1.7-3.8,3.7-3.8c3.4,0,6.7-0.9,9.5-2.6
			c0.9-0.5,1.9-0.6,2.8-0.4c1,0.3,1.8,0.9,2.3,1.7c1,1.8,0.4,4.1-1.4,5.1C776.5,578.3,772,579.6,767.3,579.6z M778.7,570.5
			c-0.4,0-0.8,0.1-1.1,0.3c-3.1,1.8-6.7,2.8-10.3,2.8c-1.2,0-2.2,1-2.2,2.3c0,1.2,1,2.2,2.3,2.2h0c4.4,0,8.7-1.2,12.5-3.4
			c0.5-0.3,0.9-0.8,1-1.4c0.2-0.6,0.1-1.2-0.2-1.7c-0.3-0.5-0.8-0.9-1.4-1C779.1,570.5,778.9,570.5,778.7,570.5z M755.9,576.5
			c-0.7,0-1.3-0.2-1.9-0.5c-4-2.3-7.4-5.7-9.7-9.7c-1-1.8-0.4-4.1,1.4-5.1c1.8-1,4.1-0.4,5.1,1.4c1.7,2.9,4.1,5.3,7,7
			c1.8,1,2.4,3.3,1.4,5.1C758.4,575.8,757.2,576.5,755.9,576.5z M747.5,562.2c-0.4,0-0.8,0.1-1.1,0.3c-1.1,0.6-1.4,2-0.8,3.1
			c2.2,3.8,5.4,7,9.2,9.2c1,0.6,2.5,0.2,3.1-0.8c0.3-0.5,0.4-1.1,0.2-1.7c-0.2-0.6-0.5-1.1-1-1.4c-3.1-1.8-5.7-4.4-7.5-7.5
			C749,562.6,748.3,562.2,747.5,562.2z M787,568.2c-0.7,0-1.3-0.2-1.9-0.5c-0.9-0.5-1.5-1.3-1.7-2.3c-0.3-1-0.1-2,0.4-2.8
			c1.7-2.9,2.5-6.2,2.5-9.5c0-2.1,1.7-3.8,3.8-3.8c2.1,0,3.8,1.7,3.8,3.7c0,4.8-1.2,9.4-3.6,13.4C789.6,567.4,788.4,568.2,787,568.2
			z M790.1,550.7c-1.2,0-2.3,1.1-2.3,2.3c0,3.6-1,7.2-2.7,10.3c-0.3,0.5-0.4,1.1-0.2,1.7c0.2,0.6,0.5,1.1,1,1.4
			c1,0.6,2.5,0.2,3.1-0.8c2.2-3.8,3.4-8.1,3.4-12.5C792.3,551.7,791.4,550.7,790.1,550.7z M744.4,556.8c-2.1,0-3.8-1.7-3.8-3.7
			c0-4.7,1.2-9.3,3.5-13.3c1-1.8,3.3-2.4,5.1-1.4c0.9,0.5,1.5,1.3,1.8,2.3c0.3,1,0.1,2-0.4,2.8c-1.7,2.9-2.5,6.2-2.5,9.5
			C748.2,555.1,746.5,556.8,744.4,556.8z M747.5,539.4c-0.8,0-1.5,0.4-2,1.1c-2.2,3.8-3.3,8.1-3.3,12.5c0,1.3,1,2.3,2.3,2.3
			c1.2,0,2.3-1,2.3-2.3c0-3.6,0.9-7.1,2.7-10.2c0.3-0.5,0.4-1.1,0.2-1.7c-0.2-0.6-0.5-1.1-1.1-1.4
			C748.2,539.5,747.8,539.4,747.5,539.4z M787,545.3c-1.3,0-2.6-0.7-3.2-1.9c-1.7-2.9-4.1-5.3-7-7c-0.9-0.5-1.5-1.3-1.8-2.3
			c-0.3-1-0.1-2,0.4-2.8c0.5-0.9,1.3-1.5,2.3-1.8c1-0.3,2-0.1,2.8,0.4c4,2.3,7.4,5.7,9.8,9.7c0.5,0.9,0.6,1.9,0.4,2.8
			c-0.3,1-0.9,1.8-1.7,2.3C788.3,545.1,787.7,545.3,787,545.3z M778.6,530.9c-0.2,0-0.4,0-0.6,0.1c-0.6,0.2-1.1,0.5-1.4,1.1
			c-0.3,0.5-0.4,1.1-0.2,1.7c0.2,0.6,0.5,1.1,1.1,1.4c3.1,1.8,5.7,4.4,7.6,7.5c0.6,1,2,1.4,3.1,0.8c0.5-0.3,0.9-0.8,1-1.4
			c0.2-0.6,0.1-1.2-0.2-1.7c-2.2-3.8-5.4-7-9.2-9.1C779.4,531,779,530.9,778.6,530.9z M755.8,537c-1.3,0-2.6-0.7-3.2-1.9
			c-1-1.8-0.4-4.1,1.4-5.1c4-2.3,8.6-3.6,13.3-3.6c2.1,0,3.8,1.7,3.8,3.7c0,2.1-1.7,3.8-3.7,3.8c-3.4,0-6.6,0.9-9.5,2.6
			C757.1,536.8,756.4,537,755.8,537z M767.2,527.9c-4.4,0-8.7,1.2-12.5,3.4c-1.1,0.6-1.4,2-0.8,3.1c0.6,1,2,1.4,3.1,0.8
			c3.1-1.8,6.7-2.8,10.3-2.8c1.2,0,2.2-1,2.2-2.3C769.4,528.9,768.4,527.9,767.2,527.9z"/>
		<path class="st48" d="M778.7,570.5c-0.4,0-0.8,0.1-1.1,0.3c-3.1,1.8-6.7,2.8-10.3,2.8c-1.2,0-2.2,1-2.2,2.3c0,1.2,1,2.2,2.3,2.2h0
			c4.4,0,8.7-1.2,12.5-3.4c0.5-0.3,0.9-0.8,1-1.4c0.2-0.6,0.1-1.2-0.2-1.7c-0.3-0.5-0.8-0.9-1.4-1
			C779.1,570.5,778.9,570.5,778.7,570.5z"/>
		<path class="st48" d="M747.5,562.2c-0.4,0-0.8,0.1-1.1,0.3c-1.1,0.6-1.4,2-0.8,3.1c2.2,3.8,5.4,7,9.2,9.2c1,0.6,2.5,0.2,3.1-0.8
			c0.3-0.5,0.4-1.1,0.2-1.7c-0.2-0.6-0.5-1.1-1-1.4c-3.1-1.8-5.7-4.4-7.5-7.5C749,562.6,748.3,562.2,747.5,562.2z"/>
		<path class="st48" d="M790.1,550.7c-1.2,0-2.3,1.1-2.3,2.3c0,3.6-1,7.2-2.7,10.3c-0.3,0.5-0.4,1.1-0.2,1.7c0.2,0.6,0.5,1.1,1,1.4
			c1,0.6,2.5,0.2,3.1-0.8c2.2-3.8,3.4-8.1,3.4-12.5C792.3,551.7,791.4,550.7,790.1,550.7z"/>
		<path class="st48" d="M747.5,539.4c-0.8,0-1.5,0.4-2,1.1c-2.2,3.8-3.3,8.1-3.3,12.5c0,1.3,1,2.3,2.3,2.3c1.2,0,2.3-1,2.3-2.3
			c0-3.6,0.9-7.1,2.7-10.2c0.3-0.5,0.4-1.1,0.2-1.7c-0.2-0.6-0.5-1.1-1.1-1.4C748.2,539.5,747.8,539.4,747.5,539.4z"/>
		<path class="st48" d="M778.6,530.9c-0.2,0-0.4,0-0.6,0.1c-0.6,0.2-1.1,0.5-1.4,1.1c-0.3,0.5-0.4,1.1-0.2,1.7
			c0.2,0.6,0.5,1.1,1.1,1.4c3.1,1.8,5.7,4.4,7.6,7.5c0.6,1,2,1.4,3.1,0.8c0.5-0.3,0.9-0.8,1-1.4c0.2-0.6,0.1-1.2-0.2-1.7
			c-2.2-3.8-5.4-7-9.2-9.1C779.4,531,779,530.9,778.6,530.9z"/>
		<path class="st48" d="M767.2,527.9c-4.4,0-8.7,1.2-12.5,3.4c-1.1,0.6-1.4,2-0.8,3.1c0.6,1,2,1.4,3.1,0.8c3.1-1.8,6.7-2.8,10.3-2.8
			c1.2,0,2.2-1,2.2-2.3C769.4,528.9,768.4,527.9,767.2,527.9z"/>
		<path class="st52" d="M813.6,543.1c-1,30.3-25.9,54.6-56.4,54.6c-0.2,0-0.4,0-0.6,0c2.5,0.4,5.1,0.6,7.7,0.6
			c27.4,0,49.6-22.3,49.6-49.6C813.9,546.8,813.8,545,813.6,543.1z"/>
		<g>
			<path class="st53" d="M718.9,558.7c0.5-0.6,0.6-1.5,0-2.1c-1.4-1.4-2.8-2.9-4.1-4.4c0.1,1.7,0.3,3.4,0.6,5.1
				c0.5,0.5,0.9,0.9,1.4,1.4C717.3,559.3,718.3,559.3,718.9,558.7z"/>
			<path class="st53" d="M721.8,530.7c0.2,0.3,0.5,0.6,0.9,0.7c0.4,0.1,0.8,0.1,1.2-0.2c0.3-0.2,0.6-0.5,0.7-0.9
				c0.1-0.4,0.1-0.8-0.2-1.2c-1.2-1.5-2.3-3-3.5-4.5c-0.5,1-1,1.9-1.5,2.9C720.2,528.6,721,529.6,721.8,530.7z"/>
			<path class="st53" d="M716.7,543.6c0.4,0.7,1.4,1,2.1,0.5c0.7-0.5,0.9-1.3,0.5-2.1c-1-1.8-2-3.6-3.2-5.3
				c-0.3,1.4-0.6,2.8-0.9,4.3C715.7,541.9,716.2,542.8,716.7,543.6z"/>
			<path class="st53" d="M755.2,508.5c0.2,0.7,1.1,1.3,1.8,1c0.7-0.2,1.3-1,1-1.8c-0.8-2.6-1.9-5.2-3.2-7.7c-1,0.2-2,0.4-3,0.7
				C753.2,503.2,754.3,505.6,755.2,508.5z"/>
			<path class="st53" d="M799.6,516.6c-0.7-1.7-1.5-3.3-2.4-5c-1.2-1.1-2.5-2.1-3.9-3.1c-0.4,0.5-0.5,1.1-0.2,1.7
				c1.4,2.6,2.6,5.2,3.8,7.9c0.3,0.7,1.4,0.9,2.1,0.5C799.8,518.2,799.9,517.4,799.6,516.6z"/>
			<path class="st53" d="M740.4,513.5c0.2,0.7,1,1.3,1.8,1c0.7-0.2,1.3-1,1-1.8c-0.8-2.5-1.9-5-3.2-7.3c-0.9,0.5-1.7,1-2.6,1.5
				C738.7,509,739.6,511.2,740.4,513.5z"/>
			<path class="st53" d="M732,521.7c0.7-0.5,0.9-1.3,0.5-2.1c-1-2-2.2-4-3.5-5.9c-0.7,0.7-1.4,1.5-2.1,2.3c1.1,1.7,2.1,3.4,3,5.2
				C730.3,521.9,731.3,522.2,732,521.7z"/>
			<path class="st53" d="M766.7,500c0.1,0.1,0.2,0.3,0.4,0.4c0.1,0.1,0.1,0.1,0.2,0.2c0,0,0.1,0.1,0.1,0.1c0,0,0.1,0.1,0.1,0.1
				c0.1,0.1,0.1,0.2,0.2,0.3c0.1,0.2,0.2,0.3,0.3,0.5c0.2,0.3,0.4,0.7,0.7,1c0.2,0.3,0.4,0.6,0.5,1c0,0.1,0.1,0.2,0.1,0.3
				c0,0,0,0.1,0.1,0.1c0,0.1,0.1,0.2,0.1,0.2c0,0.1,0.1,0.2,0.1,0.3c0.1,0.3,0.2,0.7,0.3,1.1c0,0.1,0,0.2,0.1,0.3c0,0,0,0,0,0
				c0,0.2,0,0.4,0,0.6c0,0.8,0.7,1.5,1.5,1.5c0.8,0,1.5-0.7,1.5-1.5c-0.1-2.7-1.3-5-2.9-7.2c-1.3-0.2-2.7-0.3-4.1-0.3
				C766.2,499.4,766.4,499.7,766.7,500z"/>
			<path class="st53" d="M779.9,502.5c2.4,2.7,4.4,5.6,6.1,8.9c0.4,0.7,1.4,1,2.1,0.5c0.7-0.5,0.9-1.3,0.5-2.1
				c-1.2-2.3-2.6-4.4-4.2-6.4c-1.6-0.7-3.3-1.4-5-1.9C779.5,501.8,779.6,502.2,779.9,502.5z"/>
		</g>
		<path class="st54" d="M723.5,573.7c-0.2,0-0.4-0.1-0.5-0.3c-2.3-5.7-3.5-11.7-3.5-17.9c0-26.3,21.4-47.8,47.8-47.8
			c16.9,0,32.6,9,41.2,23.6c0.1,0.2,0.1,0.5-0.2,0.7c-0.2,0.1-0.5,0.1-0.7-0.2c-8.4-14.2-23.8-23.1-40.3-23.1
			c-25.8,0-46.8,21-46.8,46.8c0,6.1,1.1,12,3.4,17.6c0.1,0.3,0,0.5-0.3,0.7C723.6,573.7,723.5,573.7,723.5,573.7z"/>
	</g>
	<linearGradient id="SVGID_4_" gradientUnits="userSpaceOnUse" x1="697.8643" y1="535.5648" x2="710.2871" y2="535.5648">
		<stop  offset="0" style="stop-color:#B0DAF4"/>
		<stop  offset="1" style="stop-color:#689BBD"/>
	</linearGradient>
	<path class="st9" d="M710.3,548.2l-5.8-0.9l-6.5-20.4c0.1-0.2,0.1-0.5,0-0.7c-0.4-1.3,0.3-2.7,1.6-3.1c1.3-0.4,2.7,0.3,3.1,1.6
		L710.3,548.2z"/>
	<polygon class="st56" points="577.8,527.9 575.9,509 581.5,509.9 583.4,528.7 	"/>
	<linearGradient id="SVGID_5_" gradientUnits="userSpaceOnUse" x1="577.1768" y1="495.3849" x2="695.948" y2="532.421">
		<stop  offset="0" style="stop-color:#B0DAF4"/>
		<stop  offset="1" style="stop-color:#689BBD"/>
	</linearGradient>
	<path class="st10" d="M699,521.2c-2.1,0.7-3.4,2.8-3.1,4.9l-120-18.6l0.4-2.1c0.2-1.1-0.1-2.2-0.7-3.2c-0.1-0.2-0.2-0.3-0.4-0.4
		L699.5,521C699.3,521.1,699.2,521.1,699,521.2z"/>
	<linearGradient id="SVGID_6_" gradientUnits="userSpaceOnUse" x1="470.2334" y1="496.0783" x2="569.9753" y2="496.0783">
		<stop  offset="0" style="stop-color:#B0DAF4"/>
		<stop  offset="1" style="stop-color:#689BBD"/>
	</linearGradient>
	<path class="st11" d="M472.6,491.5c-1.5-0.2-2.5-1.6-2.3-3.1c0.1-0.7,0.5-1.4,1.1-1.8c0.6-0.4,1.3-0.6,2-0.5l96.6,15
		c-0.1,0.1-0.2,0.1-0.3,0.2c-0.9,0.7-1.6,1.6-1.8,2.8l-0.4,2.2L472.6,491.5z"/>
	<linearGradient id="SVGID_7_" gradientUnits="userSpaceOnUse" x1="565.5527" y1="514.3583" x2="574.8188" y2="514.3583">
		<stop  offset="0" style="stop-color:#B0DAF4"/>
		<stop  offset="1" style="stop-color:#689BBD"/>
	</linearGradient>
	<path class="st12" d="M569.4,504.2c0.1-0.7,0.5-1.4,1.1-1.8c0.6-0.4,1.3-0.6,2-0.5c0.7,0.1,1.4,0.5,1.8,1.1
		c0.4,0.6,0.6,1.3,0.5,2.1l-3.8,21.7l-5.4-0.8L569.4,504.2z"/>
	<linearGradient id="SVGID_8_" gradientUnits="userSpaceOnUse" x1="567.8539" y1="565.7221" x2="586.416" y2="565.7221">
		<stop  offset="0" style="stop-color:#B0DAF4"/>
		<stop  offset="1" style="stop-color:#689BBD"/>
	</linearGradient>
	<path class="st14" d="M586.4,558.4c0,0.2,0,0.4,0,0.6l-4.2,35.1c-0.2,1.4-1.3,2.4-2.7,2.4c-1.3,0-2.5-1-2.7-2.3l-8.9-59.2
		c0,0,0,0,0-0.1l5.7,0.9l4.8,31.9c0,0.1,0.1,0.2,0.1,0.3l2,13.3c0.1,0.4,0.4,0.6,0.7,0.6c0,0,0.1,0,0.1,0c0.4-0.1,0.7-0.4,0.6-0.9
		l-2.1-13.9l1-8.5c0-0.1,0-0.1,0-0.2l-2.2-22l5.6,0.9L586.4,558.4z"/>
	<linearGradient id="SVGID_9_" gradientUnits="userSpaceOnUse" x1="466.76" y1="535.3533" x2="804.4322" y2="535.3533">
		<stop  offset="0" style="stop-color:#B0DAF4"/>
		<stop  offset="1" style="stop-color:#689BBD"/>
	</linearGradient>
	<path class="st15" d="M801.8,553.5l-73.9,4.4l-0.2,0c-0.1,0-0.3,0-0.4,0l-258.3-39.6c-0.7-0.1-1.4-0.5-1.8-1.1s-0.6-1.3-0.5-2
		c0.2-1.4,1.4-2.3,2.7-2.3c0.1,0,0.3,0,0.4,0l257.9,39.6c0.1,0,0.1,0,0.2,0l73.5-4.4c1.5-0.1,2.8,1.1,2.9,2.6
		C804.5,552.1,803.4,553.4,801.8,553.5z"/>
	<path class="st62" d="M801.4,546.5l-73.5,4.4l-15.5-2.4c0,0,0-0.1,0-0.1l-6.2-19.2l10.1,1.6c0.1-0.2,0.3-0.7,0.6-1.4l-11.2-1.7
		l-1.1-3.5c-0.4-1.1-1.1-2-2.1-2.5l16.8,2.6c0.3-0.5,0.5-1,0.8-1.4c0,0,0,0-0.1,0l-246.5-38.2c-1.1-0.2-2.2,0.1-3.2,0.8
		c-0.9,0.7-1.5,1.7-1.7,2.8c-0.2,1.1,0.1,2.2,0.8,3.2c0.7,0.9,1.7,1.5,2.8,1.7l94.9,14.7l-3.2,18.1l-93.9-14.4
		c-2.3-0.4-4.5,1.2-4.8,3.6c-0.2,1.1,0.1,2.2,0.8,3.2c0.7,0.9,1.7,1.5,2.8,1.7l97.5,15c0,0.2,0,0.3,0,0.5l8.9,59.2
		c0.3,2.1,2.1,3.6,4.3,3.6c2.1,0,3.9-1.6,4.2-3.7l4.2-35.1c0-0.3,0-0.6,0-0.9l-2.1-20.6l141.3,21.7c0.2,0,0.4,0,0.6,0
		c0.1,0,0.2,0,0.3,0l73.9-4.4c2.3-0.1,4.1-2.2,4-4.5C805.8,548.2,803.8,546.4,801.4,546.5z M702.7,524.7l7.5,23.5l-5.8-0.9
		l-6.5-20.4c0.1-0.2,0.1-0.5,0-0.7c-0.4-1.3,0.3-2.7,1.6-3.1C700.9,522.6,702.3,523.4,702.7,524.7z M583,510.1l113.6,17.6l6.2,19.4
		l-117.9-18.1L583,510.1z M583.4,528.7l-5.6-0.9l-1.9-18.9l5.6,0.9L583.4,528.7z M699.5,521c-0.2,0-0.3,0.1-0.5,0.1
		c-2.1,0.7-3.4,2.8-3.1,4.9l-120-18.6l0.4-2.1c0.2-1.1-0.1-2.2-0.7-3.2c-0.1-0.2-0.2-0.3-0.4-0.4L699.5,521z M576.3,527.6l-3.8-0.6
		l2.4-13.5L576.3,527.6z M472.6,491.5c-1.5-0.2-2.5-1.6-2.3-3.1c0.1-0.7,0.5-1.4,1.1-1.8c0.6-0.4,1.3-0.6,2-0.5l96.6,15
		c-0.1,0.1-0.2,0.1-0.3,0.2c-0.9,0.7-1.6,1.6-1.8,2.8l-0.4,2.2L472.6,491.5z M569.4,504.2c0.1-0.7,0.5-1.4,1.1-1.8
		c0.6-0.4,1.3-0.6,2-0.5c0.7,0.1,1.4,0.5,1.8,1.1c0.4,0.6,0.6,1.3,0.5,2.1l-3.8,21.7l-5.4-0.8L569.4,504.2z M586.4,558.4
		c0,0.2,0,0.4,0,0.6l-4.2,35.1c-0.2,1.4-1.3,2.4-2.7,2.4c-1.3,0-2.5-1-2.7-2.3l-8.9-59.2c0,0,0,0,0-0.1l5.7,0.9l4.8,31.9
		c0,0.1,0.1,0.2,0.1,0.3l2,13.3c0.1,0.4,0.4,0.6,0.7,0.6c0,0,0.1,0,0.1,0c0.4-0.1,0.7-0.4,0.6-0.9l-2.1-13.9l1-8.5
		c0-0.1,0-0.1,0-0.2l-2.2-22l5.6,0.9L586.4,558.4z M575.1,536l2,0.3l2.3,22.3l-0.4,3.1l-3.2-21.1c0,0,0,0,0,0L575.1,536z
		 M801.8,553.5l-73.9,4.4l-0.2,0c-0.1,0-0.3,0-0.4,0l-258.3-39.6c-0.7-0.1-1.4-0.5-1.8-1.1s-0.6-1.3-0.5-2c0.2-1.4,1.4-2.3,2.7-2.3
		c0.1,0,0.3,0,0.4,0l257.9,39.6c0.1,0,0.1,0,0.2,0l73.5-4.4c1.5-0.1,2.8,1.1,2.9,2.6C804.5,552.1,803.4,553.4,801.8,553.5z"/>
	<g>
		<path class="st63" d="M711.5,549.7c-0.1,0-0.3,0-0.4-0.1c-0.5-0.2-0.7-0.8-0.5-1.3l17.3-39.3c0.1-0.3,0.4-0.5,0.8-0.6l89.4-13.9
			l-17.1-17.8L716.8,490l-12.6,33.1c-0.2,0.5-0.8,0.8-1.3,0.6c-0.5-0.2-0.8-0.8-0.6-1.3l12.8-33.6c0.1-0.3,0.4-0.6,0.8-0.6
			l85.2-13.5c0.3-0.1,0.7,0.1,0.9,0.3l18.8,19.6c0.3,0.3,0.3,0.7,0.2,1c-0.1,0.4-0.4,0.6-0.8,0.7l-90.7,14.1l-17.1,38.8
			C712.2,549.5,711.9,549.7,711.5,549.7z"/>
		<path class="st63" d="M728.8,510.4c-0.3,0-0.7-0.2-0.8-0.5l-12.7-20.3c-0.3-0.5-0.2-1.1,0.3-1.4c0.5-0.3,1.1-0.2,1.4,0.3
			l12.7,20.3c0.3,0.5,0.2,1.1-0.3,1.4C729.2,510.3,729,510.4,728.8,510.4z"/>
		<path class="st63" d="M759,505.7c-0.3,0-0.6-0.1-0.8-0.4l-14.5-20.1c-0.3-0.4-0.2-1.1,0.2-1.4c0.4-0.3,1.1-0.2,1.4,0.2l14.5,20.1
			c0.3,0.4,0.2,1.1-0.2,1.4C759.4,505.6,759.2,505.7,759,505.7z"/>
		<path class="st63" d="M791.3,500.7c-0.3,0-0.6-0.1-0.8-0.4l-16.7-19.8c-0.4-0.4-0.3-1.1,0.1-1.4c0.4-0.4,1.1-0.3,1.4,0.1
			l16.7,19.8c0.4,0.4,0.3,1.1-0.1,1.4C791.7,500.6,791.5,500.7,791.3,500.7z"/>
		<path class="st63" d="M802.1,548.3C802.1,548.3,802,548.3,802.1,548.3c-0.6,0-1-0.5-1-1l1.5-49.5c0-0.5,0.5-1,1-1c0,0,0,0,0,0
			c0.6,0,1,0.5,1,1l-1.5,49.5C803,547.8,802.6,548.3,802.1,548.3z"/>
		<path class="st63" d="M705.9,530.3c-0.1,0-0.3,0-0.4-0.1c-0.5-0.2-0.7-0.8-0.5-1.3l14.4-33.5c0.1-0.3,0.4-0.5,0.8-0.6l86.7-14.3
			c0.5-0.1,1.1,0.3,1.1,0.8c0.1,0.5-0.3,1.1-0.8,1.1l-86.1,14.2l-14.1,33C706.6,530.1,706.3,530.3,705.9,530.3z"/>
		<path class="st63" d="M708.8,541.3c-0.1,0-0.3,0-0.4-0.1c-0.5-0.2-0.7-0.8-0.5-1.3l15.8-37.6c0.1-0.3,0.4-0.5,0.8-0.6l88.2-15.1
			c0.6-0.1,1.1,0.3,1.2,0.8c0.1,0.5-0.3,1.1-0.8,1.2l-87.7,15l-15.6,37.1C709.6,541.1,709.2,541.3,708.8,541.3z"/>
		<path class="st63" d="M698.6,533.3c0,0-0.1,0-0.2,0l-124.3-19.1c-0.5-0.1-0.9-0.6-0.8-1.1s0.6-0.9,1.1-0.8l124.3,19.1
			c0.5,0.1,0.9,0.6,0.8,1.1C699.5,532.9,699.1,533.3,698.6,533.3z"/>
		<path class="st63" d="M701.6,541.7c-0.1,0-0.1,0-0.2,0l-128.8-19.9c-0.5-0.1-0.9-0.6-0.8-1.1s0.6-0.9,1.1-0.8l128.8,19.9
			c0.5,0.1,0.9,0.6,0.8,1.1C702.5,541.4,702.1,541.7,701.6,541.7z"/>
		<path class="st63" d="M637.2,538.2C637.2,538.2,637.2,538.2,637.2,538.2c-0.6,0-1-0.5-1-1.1l1.1-19.4c0-0.6,0.5-1,1.1-0.9
			c0.6,0,1,0.5,0.9,1.1l-1.1,19.4C638.2,537.8,637.7,538.2,637.2,538.2z"/>
	</g>
	<g>
		<path class="st56" d="M583.4,537.3l-4.7-0.7l2.2,22c0,0.1,0,0.1,0,0.2l-1,8.5l1.8,11.6l3.5-20.2L583.4,537.3z"/>
	</g>
	<path class="st64" d="M432.3,526.3c-2.6,0-4.8-1.9-5.2-4.5c-0.4-2.9,1.6-5.5,4.5-5.9l38.7-5.5c2.9-0.4,5.5,1.6,5.9,4.5
		c0.4,2.9-1.6,5.5-4.5,5.9l-38.7,5.5C432.8,526.3,432.6,526.3,432.3,526.3z M471,511.8c-0.2,0-0.3,0-0.5,0l-38.7,5.5
		c-2,0.3-3.5,2.2-3.2,4.2c0.3,2,2.2,3.5,4.2,3.2l38.7-5.5c1-0.1,1.9-0.7,2.5-1.5c0.6-0.8,0.9-1.8,0.7-2.8
		C474.5,513.1,472.9,511.8,471,511.8z"/>
	<path class="st64" d="M434.3,499.5c-2.6,0-4.8-1.9-5.2-4.5c-0.2-1.4,0.2-2.8,1-3.9c0.8-1.1,2.1-1.8,3.5-2l38.7-5.5
		c2.9-0.4,5.5,1.6,5.9,4.5c0.4,2.9-1.6,5.5-4.5,5.9l-38.7,5.5C434.8,499.5,434.5,499.5,434.3,499.5z M473,485c-0.2,0-0.4,0-0.5,0
		l-38.7,5.5c-1,0.1-1.9,0.7-2.5,1.5c-0.6,0.8-0.9,1.8-0.7,2.8c0.3,2,2.2,3.5,4.2,3.2l38.7-5.5c1-0.1,1.9-0.7,2.5-1.5
		c0.6-0.8,0.9-1.8,0.7-2.8C476.4,486.3,474.8,485,473,485z"/>
	<path class="st65" d="M471,511.8c-0.2,0-0.3,0-0.5,0l-38.7,5.5c-2,0.3-3.5,2.2-3.2,4.2c0.3,2,2.2,3.5,4.2,3.2l38.7-5.5
		c1-0.1,1.9-0.7,2.5-1.5c0.6-0.8,0.9-1.8,0.7-2.8C474.5,513.1,472.9,511.8,471,511.8z"/>
	<path class="st65" d="M473,485c-0.2,0-0.4,0-0.5,0l-38.7,5.5c-1,0.1-1.9,0.7-2.5,1.5c-0.6,0.8-0.9,1.8-0.7,2.8
		c0.3,2,2.2,3.5,4.2,3.2l38.7-5.5c1-0.1,1.9-0.7,2.5-1.5c0.6-0.8,0.9-1.8,0.7-2.8C476.4,486.3,474.8,485,473,485z"/>
</g>
</svg>
