<?xml version="1.0" encoding="utf-8"?>
<!-- Generator: Adobe Illustrator 21.0.0, SVG Export Plug-In . SVG Version: 6.00 Build 0)  -->
<svg version="1.1" id="圖層_1" xmlns="http://www.w3.org/2000/svg" xmlns:xlink="http://www.w3.org/1999/xlink" x="0px" y="0px"
	 viewBox="0 0 822.9 601.4" style="enable-background:new 0 0 822.9 601.4;" xml:space="preserve">
<style type="text/css">
	.st0{fill:url(#SVGID_1_);}
	.st1{fill:#E1BE3F;}
	.st2{fill:#AB6C21;}
	.st3{opacity:0.6;fill:#E1BE3F;}
	.st4{fill:url(#SVGID_2_);}
	.st5{fill:#66411D;}
	.st6{fill:url(#SVGID_3_);}
	.st7{fill:#D9B974;}
	.st8{fill:#DCBF93;}
	.st9{fill:url(#SVGID_4_);}
	.st10{fill:url(#SVGID_5_);}
	.st11{fill:url(#SVGID_6_);}
	.st12{fill:url(#SVGID_7_);}
	.st13{fill:#8C5924;}
	.st14{fill:url(#SVGID_8_);}
	.st15{fill:url(#SVGID_9_);}
	.st16{fill:url(#SVGID_10_);}
	.st17{fill:url(#SVGID_11_);}
	.st18{fill:#F4E3A5;}
	.st19{fill:#DEB87D;}
	.st20{fill:url(#SVGID_12_);}
	.st21{fill:url(#SVGID_13_);}
	.st22{fill:#3F210F;}
	.st23{opacity:0.25;fill:#E1BE3F;}
	.st24{opacity:0.5;fill:#E1BE3F;}
	.st25{fill:#F8E5A9;}
	.st26{fill:#DDBC90;}
	.st27{opacity:0.4;fill:#E1BE3F;}
	.st28{fill:#875424;}
	.st29{fill:#3F210E;}
	.st30{fill:#C88E2C;}
	.st31{fill:#AC7327;}
	.st32{fill:#FFFFFF;}
	.st33{fill:#814323;}
	.st34{fill:#D7C6A6;}
	.st35{fill:url(#SVGID_14_);}
	.st36{fill:#4A1E0E;}
	.st37{fill:#3A1D13;}
	.st38{fill:url(#SVGID_15_);}
	.st39{fill:#EAA593;}
	.st40{fill:url(#SVGID_16_);}
	.st41{fill:url(#SVGID_17_);}
	.st42{fill:#D59543;}
	.st43{opacity:0.6;fill:#D59543;}
	.st44{fill:url(#SVGID_18_);}
	.st45{fill:url(#SVGID_19_);}
	.st46{fill:url(#SVGID_20_);}
	.st47{fill:#888888;}
	.st48{opacity:0.4;fill:#FFFFFF;}
</style>
<g>
	<g>
		<g>
			<linearGradient id="SVGID_1_" gradientUnits="userSpaceOnUse" x1="290.5959" y1="381.7801" x2="375.6668" y2="381.7801">
				<stop  offset="0" style="stop-color:#F2D397"/>
				<stop  offset="0.5331" style="stop-color:#F3D093"/>
				<stop  offset="0.7526" style="stop-color:#F5CC8F"/>
				<stop  offset="1" style="stop-color:#F3B699"/>
			</linearGradient>
			<path class="st0" d="M375.9,357.6l-8.1-18.4c0-0.5-0.1-1-0.2-1.5c0-0.2-0.1-0.3-0.1-0.5c-0.1-0.4-0.1-0.7-0.2-1.1
				c0-0.2-0.1-0.4-0.1-0.5c-0.1-0.4-0.2-0.8-0.4-1.2c0-0.1-0.1-0.3-0.1-0.4c-0.2-0.5-0.4-1.1-0.6-1.6c-0.1-0.1-0.1-0.3-0.2-0.4
				c-0.2-0.4-0.3-0.8-0.5-1.2c-0.1-0.2-0.2-0.4-0.3-0.6c-0.2-0.4-0.4-0.7-0.5-1.1c-0.1-0.2-0.2-0.4-0.3-0.6c-3-5.6-7.1-11-10.1-14.5
				c-0.1-0.1-0.2-0.2-0.3-0.4c-15.8,19.9-33.8,47.3-47.8,81.6c0,0-13,12.4-13,29.8c0,17.4,13.3,23.1,20.6,21.5v0
				c8.2,7,19.6,2.7,21.9-8.7l0.1-0.2c0.5,0.3,1,0.6,1.6,0.9c4.9,2.4,11.3-0.6,13.3-5l0,0l0,0c0.1-0.2,0.2-0.3,0.2-0.5l-0.2-0.1
				l1.6-14.1l-0.5-0.1v-3.6l-0.7-2.5c0.3-0.7,0.6-1.5,0.9-2.3l0.7-1l0.9-2.4l0.1-0.7c2.7-6.5,6.6-15.4,11.8-26
				c3.4-7,7.4-14.3,11.2-21L375.9,357.6z"/>
		</g>
		<path class="st42" d="M325.2,417.7c0,0-2.5,19.1,8.3,25.4l2-5.3C335.5,437.8,324,431.8,325.2,417.7z"/>
		<path class="st42" d="M306.6,423.7c0,0-5,12.8-1.3,21.9c0,0,3.4,1.3,8.4,0.9C313.7,446.5,305.1,442.1,306.6,423.7z"/>
		<path class="st2" d="M324.9,423.7c0,0-0.1,11.4,9.5,15.7l0.4-1.7C334.9,437.7,324.7,428.6,324.9,423.7z"/>
		<path class="st2" d="M305.7,430.4c0,0-0.7,10.6,5,16.2l3.5-0.3C314.3,446.4,306.6,439.3,305.7,430.4z"/>
		<path class="st43" d="M375.9,357.6l-8.1-18.4c0-0.5-0.1-1-0.2-1.5c0-0.2-0.1-0.3-0.1-0.5c-0.1-0.4-0.1-0.7-0.2-1.1
			c0-0.2-0.1-0.4-0.1-0.5c-0.1-0.4-0.2-0.8-0.4-1.2c0-0.1-0.1-0.3-0.1-0.4c-0.2-0.5-0.4-1.1-0.6-1.6c-0.1-0.1-0.1-0.3-0.2-0.4
			c-0.2-0.4-0.3-0.8-0.5-1.2c-0.1-0.2-0.2-0.4-0.3-0.6c-0.2-0.4-0.4-0.7-0.5-1.1c-0.1-0.2-0.2-0.4-0.3-0.6c0-0.1-0.1-0.2-0.1-0.2
			c-10.8,21.3-22.4,49.5-23.1,73.6c0,0,13.4,17,8.5,33.3c0.4-0.5,0.7-1,0.9-1.6l0,0l0,0c0.1-0.2,0.2-0.3,0.2-0.5l-0.2-0.1l1.6-14.1
			l-0.5-0.1v-3.6l-0.9-3.1l1.8-2.7l1-2.5l20-43.6c0,0,1.1-1.3,2.9-4.2L375.9,357.6z"/>
		<g>
			<path class="st2" d="M351.7,413.8l0.5-1.1c0,0,0,0,0-0.1c0.2-0.4,13.2-29,24.9-52l-1.3-3l0,0c-10.8,20.8-22.7,47-25.4,52.8
				c-0.5-1.2-0.9-1.7-0.9-1.7l0,0c-1.1-1.9-2.4-3.5-2.5-3.6c-0.2-0.3-0.6-0.3-0.9-0.1c-0.3,0.2-0.3,0.6-0.1,0.9
				c0.2,0.3,0.5,0.6,0.9,1.1c0,0,7,10.6,3.1,25.8h0c-0.8,2.2-2.8,4.2-5.4,5.3c-2.5,1-5.1,1-7.2-0.1c-8.5-4.3-13.1-13.4-11.2-22.3
				c0.1-0.3-0.1-0.7-0.5-0.8c-0.3-0.1-0.7,0.1-0.8,0.5c-1.9,8.7,2.1,17.6,9.9,22.5c-1.2,5.4-4.6,9.5-9.1,10.9
				c-4.4,1.3-8.9,0-12.6-3.6c-8.9-8.9-5.5-22.4-5.5-22.5c0.1-0.3-0.1-0.7-0.5-0.8c-0.3-0.1-0.7,0.1-0.8,0.5c0,0.1-3.6,14.3,5.8,23.8
				c0,0,0,0,0,0c-3,0.3-7.3-0.5-11.2-3.7c-3.3-2.7-7.3-7.9-7.3-17.4c0-17,12.6-29.2,12.8-29.3c0.1-0.1,0.1-0.1,0.2-0.2
				c14-34.3,32-61.5,47.7-81.3c-0.1-0.1-0.1-0.2-0.2-0.2c-1.1-1.3-2.1-2.4-2.7-3c0,0,0,0,0,0c-5.2,6.5-10.7,13.8-16,22l0,0
				c0,0-25.9,38.6-31.6,60.1c-7,9.1-20.2,30.1-7.6,46.1c1.2,1.8,2.6,3.2,3.9,4.3c0.5,0.4,1,0.8,1.6,1.1c0.1,0.1,0.2,0.1,0.2,0.1
				c0,0-0.1,0-0.1-0.1c2.9,1.8,6.1,2.8,9.2,2.8c0.8,0,1.6-0.1,2.4-0.2c2.7,2.2,5.8,3.4,8.9,3.4c1.2,0,2.5-0.2,3.7-0.5
				c4.9-1.5,8.6-5.7,9.9-11.4c0.3,0.2,0.6,0.3,0.9,0.5c1.2,0.6,2.6,0.9,4.1,0.9c1.4,0,2.8-0.3,4.2-0.8c2.7-1.1,4.8-3.1,5.9-5.4h0
				c0,0,0-0.1,0.1-0.2c0.1-0.1,0.1-0.3,0.2-0.4c0,0,0,0,0,0c0,0,1.1-2.6,1.4-7c0.2-1.8,0.2-3.7,0.1-5.9
				C352.6,417.7,352.2,415.5,351.7,413.8z"/>
		</g>
	</g>
	<g>
		<g>
			
				<linearGradient id="SVGID_2_" gradientUnits="userSpaceOnUse" x1="3452.4956" y1="381.7801" x2="3537.5667" y2="381.7801" gradientTransform="matrix(-1 0 0 1 4056.4385 0)">
				<stop  offset="0" style="stop-color:#F2D397"/>
				<stop  offset="0.5331" style="stop-color:#F3D093"/>
				<stop  offset="0.7526" style="stop-color:#F5CC8F"/>
				<stop  offset="1" style="stop-color:#F3B699"/>
			</linearGradient>
			<path class="st4" d="M518.7,357.6l8.1-18.4c0-0.5,0.1-1,0.2-1.5c0-0.2,0.1-0.3,0.1-0.5c0.1-0.4,0.1-0.7,0.2-1.1
				c0-0.2,0.1-0.4,0.1-0.5c0.1-0.4,0.2-0.8,0.4-1.2c0-0.1,0.1-0.3,0.1-0.4c0.2-0.5,0.4-1.1,0.6-1.6c0.1-0.1,0.1-0.3,0.2-0.4
				c0.2-0.4,0.3-0.8,0.5-1.2c0.1-0.2,0.2-0.4,0.3-0.6c0.2-0.4,0.4-0.7,0.5-1.1c0.1-0.2,0.2-0.4,0.3-0.6c3-5.6,7.1-11,10.1-14.5
				c0.1-0.1,0.2-0.2,0.3-0.4c15.8,19.9,33.8,47.3,47.8,81.6c0,0,13,12.4,13,29.8c0,17.4-13.3,23.1-20.6,21.5v0
				c-8.2,7-19.6,2.7-21.9-8.7l-0.1-0.2c-0.5,0.3-1,0.6-1.6,0.9c-4.9,2.4-11.3-0.6-13.3-5l0,0l0,0c-0.1-0.2-0.2-0.3-0.2-0.5l0.2-0.1
				l-1.6-14.1l0.5-0.1v-3.6l0.7-2.5c-0.3-0.7-0.6-1.5-0.9-2.3l-0.7-1l-0.9-2.4l-0.1-0.7c-2.7-6.5-6.6-15.4-11.8-26
				c-3.4-7-7.4-14.3-11.2-21L518.7,357.6z"/>
		</g>
		<path class="st42" d="M569.3,417.7c0,0,2.5,19.1-8.3,25.4l-2-5.3C559,437.8,570.6,431.8,569.3,417.7z"/>
		<path class="st42" d="M587.9,423.7c0,0,5,12.8,1.3,21.9c0,0-3.4,1.3-8.4,0.9C580.9,446.5,589.4,442.1,587.9,423.7z"/>
		<path class="st2" d="M569.6,423.7c0,0,0.1,11.4-9.5,15.7l-0.4-1.7C559.6,437.7,569.8,428.6,569.6,423.7z"/>
		<path class="st2" d="M588.8,430.4c0,0,0.7,10.6-5,16.2l-3.5-0.3C580.3,446.4,587.9,439.3,588.8,430.4z"/>
		<path class="st43" d="M518.7,357.6l8.1-18.4c0-0.5,0.1-1,0.2-1.5c0-0.2,0.1-0.3,0.1-0.5c0.1-0.4,0.1-0.7,0.2-1.1
			c0-0.2,0.1-0.4,0.1-0.5c0.1-0.4,0.2-0.8,0.4-1.2c0-0.1,0.1-0.3,0.1-0.4c0.2-0.5,0.4-1.1,0.6-1.6c0.1-0.1,0.1-0.3,0.2-0.4
			c0.2-0.4,0.3-0.8,0.5-1.2c0.1-0.2,0.2-0.4,0.3-0.6c0.2-0.4,0.4-0.7,0.5-1.1c0.1-0.2,0.2-0.4,0.3-0.6c0-0.1,0.1-0.2,0.1-0.2
			c10.8,21.3,22.4,49.5,23.1,73.6c0,0-13.4,17-8.5,33.3c-0.4-0.5-0.7-1-0.9-1.6l0,0l0,0c-0.1-0.2-0.2-0.3-0.2-0.5l0.2-0.1l-1.6-14.1
			l0.5-0.1v-3.6l0.9-3.1l-1.8-2.7l-1-2.5l-20-43.6c0,0-1.1-1.3-2.9-4.2L518.7,357.6z"/>
		<g>
			<path class="st2" d="M542.9,413.8l-0.5-1.1c0,0,0,0,0-0.1c-0.2-0.4-13.2-29-24.9-52l1.3-3l0,0c10.8,20.8,22.7,47,25.4,52.8
				c0.5-1.2,0.9-1.7,0.9-1.7l0,0c1.1-1.9,2.4-3.5,2.5-3.6c0.2-0.3,0.6-0.3,0.9-0.1c0.3,0.2,0.3,0.6,0.1,0.9
				c-0.2,0.3-0.5,0.6-0.9,1.1c0,0-7,10.6-3.1,25.8h0c0.8,2.2,2.8,4.2,5.4,5.3c2.5,1,5.1,1,7.2-0.1c8.5-4.3,13.1-13.4,11.2-22.3
				c-0.1-0.3,0.1-0.7,0.5-0.8c0.3-0.1,0.7,0.1,0.8,0.5c1.9,8.7-2.1,17.6-9.9,22.5c1.2,5.4,4.6,9.5,9.1,10.9c4.4,1.3,8.9,0,12.6-3.6
				c8.9-8.9,5.5-22.4,5.5-22.5c-0.1-0.3,0.1-0.7,0.5-0.8c0.3-0.1,0.7,0.1,0.8,0.5c0,0.1,3.6,14.3-5.8,23.8c0,0,0,0,0,0
				c3,0.3,7.3-0.5,11.2-3.7c3.3-2.7,7.3-7.9,7.3-17.4c0-17-12.6-29.2-12.8-29.3c-0.1-0.1-0.1-0.1-0.2-0.2
				c-14-34.3-32-61.5-47.7-81.3c0.1-0.1,0.1-0.2,0.2-0.2c1.1-1.3,2.1-2.4,2.7-3c0,0,0,0,0,0c5.2,6.5,10.7,13.8,16,22l0,0
				c0,0,25.9,38.6,31.6,60.1c7,9.1,20.2,30.1,7.6,46.1c-1.2,1.8-2.6,3.2-3.9,4.3c-0.5,0.4-1,0.8-1.6,1.1c-0.1,0.1-0.2,0.1-0.2,0.1
				c0,0,0.1,0,0.1-0.1c-2.9,1.8-6.1,2.8-9.2,2.8c-0.8,0-1.6-0.1-2.4-0.2c-2.7,2.2-5.8,3.4-8.9,3.4c-1.2,0-2.5-0.2-3.7-0.5
				c-4.9-1.5-8.6-5.7-9.9-11.4c-0.3,0.2-0.6,0.3-0.9,0.5c-1.2,0.6-2.6,0.9-4.1,0.9c-1.4,0-2.8-0.3-4.2-0.8c-2.7-1.1-4.8-3.1-5.9-5.4
				h0c0,0,0-0.1-0.1-0.2c-0.1-0.1-0.1-0.3-0.2-0.4c0,0,0,0,0,0c0,0-1.1-2.6-1.4-7c-0.2-1.8-0.2-3.7-0.1-5.9
				C541.9,417.7,542.4,415.5,542.9,413.8z"/>
		</g>
	</g>
</g>
<g>
	<path class="st32" d="M554.7,155.3c-4.2-7.7-13.6-12-28.1-12.7c-30.5-1.4-57.7-2.2-82.9-2.2c-16.7,0-32.4,0.3-47.8,0.9
		c-9.1,0.4-18.5,0.8-27.9,1.2c-14.5,0.7-23.9,4.9-28.1,12.7c-6.8,12.5,3,29.5,3.4,30.2l5.4,11c0.4,0.8,0.7,1.5,1.1,2.3
		c3.7,7.7,6.6,13.8,17.7,12.3c6.2-0.9,45-4.8,56.8-6c3.2-0.3,6-1.8,8-4.3c2.8-3.5,8.5-9.3,15.1-9.4c6.6,0.1,12.3,5.9,15.1,9.4
		c2,2.4,4.8,4,8,4.3c11.7,1.2,50.5,5.1,56.8,6c1.1,0.2,2.2,0.2,3.2,0.2c8.5,0,11.3-5.8,14.5-12.5c0.3-0.7,0.7-1.5,1.1-2.3l5.4-10.9
		C551.7,184.8,561.4,167.8,554.7,155.3z M547.8,183.6l-5.5,11.2c-0.4,0.7-0.7,1.5-1.1,2.2l-0.1,0.1c-3.5,7.4-5.3,11.2-13.5,10
		c-6.1-0.8-41.8-4.5-56.9-6c-2.1-0.2-4-1.2-5.3-2.8c-3.2-3.9-9.8-10.6-17.8-10.9c-0.1,0-0.1,0-0.2,0h-0.3c-0.1,0-0.2,0-0.2,0
		c-8.1,0.3-14.6,6.9-17.8,10.9c-1.3,1.6-3.2,2.6-5.3,2.8c-18.8,1.9-51.1,5.2-56.9,6c-8.2,1.1-10-2.6-13.5-10
		c-0.4-0.7-0.7-1.5-1.1-2.3l-5.4-11c0-0.1-0.1-0.1-0.1-0.2c-0.1-0.2-9.1-15.7-3.3-26.4c3.5-6.4,11.8-10,24.8-10.6
		c9.4-0.4,18.8-0.9,27.9-1.2c15.3-0.6,31-0.9,47.6-0.9c25.2,0,52.3,0.7,82.7,2.2c13,0.6,21.3,4.2,24.7,10.6
		C556.9,167.8,547.9,183.4,547.8,183.6z"/>
	<path class="st47" d="M530.3,212.8c-1.1,0-2.2-0.1-3.4-0.3c-6.2-0.9-45-4.8-56.7-6c-3.6-0.4-6.8-2.1-9-4.8c-2.7-3.3-8-8.8-13.9-8.9
		c-5.9,0.1-11.3,5.6-13.9,8.9c-2.2,2.8-5.4,4.5-9,4.8c-11.7,1.2-50.5,5.1-56.7,6c-12.2,1.7-15.6-5.5-19.3-13.1
		c-0.3-0.7-0.7-1.5-1.1-2.2l-5.4-10.9c-1.1-1.8-10.4-18.7-3.4-31.7c4.4-8.2,14.3-12.8,29.3-13.5c9.4-0.4,18.8-0.9,28-1.2
		c38.5-1.6,80.1-1.2,130.8,1.2c15,0.7,24.9,5.2,29.3,13.5c7,13-2.3,29.8-3.4,31.7l-5.3,10.9c-0.4,0.8-0.7,1.5-1.1,2.2
		C542.9,206.3,539.8,212.8,530.3,212.8z M443.6,140.4c-16.7,0-32.4,0.3-47.8,0.9c-9.1,0.4-18.5,0.8-27.9,1.2
		c-14.5,0.7-23.9,4.9-28.1,12.7c-6.8,12.5,3,29.5,3.4,30.2l5.4,11c0.4,0.8,0.7,1.5,1.1,2.3c3.7,7.7,6.6,13.8,17.7,12.3
		c6.2-0.9,45-4.8,56.8-6c3.2-0.3,6-1.8,8-4.3c2.8-3.5,8.5-9.3,15.1-9.4c6.6,0.1,12.3,5.9,15.1,9.4c2,2.4,4.8,4,8,4.3
		c11.7,1.2,50.5,5.1,56.8,6c1.1,0.2,2.2,0.2,3.2,0.2c8.5,0,11.3-5.8,14.5-12.5c0.3-0.7,0.7-1.5,1.1-2.3l5.4-10.9
		c0.4-0.8,10.2-17.8,3.4-30.3c-4.2-7.7-13.6-12-28.1-12.7C496.1,141.2,468.9,140.4,443.6,140.4z M364.2,208.8
		c-6.9,0-9-4.4-12.2-11.1c-0.4-0.7-0.7-1.5-1.1-2.3l-5.4-11.1c-0.1-0.2-9.5-16.4-3.4-27.8c3.7-6.9,12.5-10.7,26-11.4
		c9.4-0.4,18.8-0.9,27.9-1.2c38.4-1.6,79.9-1.2,130.5,1.2c13.5,0.6,22.3,4.5,26,11.4c6.2,11.4-3.3,27.7-3.4,27.9l0,0.1l-5.4,11
		c-0.4,0.7-0.7,1.5-1,2.2l-0.1,0.1c-3.6,7.6-5.8,12.2-15.1,10.9c-6.1-0.8-41.8-4.5-56.9-6c-2.5-0.3-4.7-1.4-6.3-3.4
		c-3-3.7-9.3-10.1-16.7-10.3l-0.5,0l-0.1,0c-7.5,0.3-13.7,6.6-16.8,10.3c-1.6,1.9-3.8,3.1-6.3,3.4c-18.7,1.9-51,5.2-56.9,6
		C366,208.7,365.1,208.8,364.2,208.8z M443.7,144.4c-16.6,0-32.3,0.3-47.6,0.9c-9.1,0.4-18.5,0.8-27.9,1.2
		c-13,0.6-21.3,4.2-24.8,10.6c-5.8,10.6,3.2,26.2,3.3,26.4c0,0.1,0.1,0.1,0.1,0.2l5.4,11c0.4,0.8,0.7,1.5,1.1,2.3
		c3.6,7.4,5.3,11.2,13.5,10c5.8-0.8,38.2-4.1,56.9-6c2.1-0.2,4-1.2,5.3-2.8c3.2-3.9,9.8-10.6,17.8-10.9c0,0,0.1,0,0.2,0h0.3
		c0.1,0,0.2,0,0.2,0c8.1,0.3,14.6,6.9,17.8,10.9c1.3,1.6,3.2,2.6,5.3,2.8c15.1,1.5,50.8,5.2,56.9,6c8.2,1.1,10-2.6,13.5-10l0.1-0.1
		c0.3-0.7,0.7-1.4,1.1-2.2l5.5-11.2c0.1-0.2,9.1-15.8,3.3-26.4c-3.5-6.4-11.8-10-24.7-10.6C496,145.2,468.8,144.4,443.7,144.4z"/>
	<g>
		<path class="st48" d="M485.8,204.1l56.7-55.9c-1.5-0.6-3.2-1.2-5-1.6l-57.7,56.9C481.7,203.6,483.7,203.9,485.8,204.1z"/>
		<path class="st48" d="M350.9,195.4c0.4,0.8,0.7,1.5,1.1,2.3c0.1,0.3,0.3,0.5,0.4,0.8l55.7-55c-4.1,0.1-8.1,0.3-12.1,0.4
			c-9.1,0.4-18.5,0.8-27.9,1.2c-13.5,0.6-22.3,4.5-26,11.4c-6.2,11.4,3.3,27.7,3.4,27.8L350.9,195.4z"/>
		<path class="st48" d="M547.9,151.2l-54.4,53.7c14.7,1.5,30.1,3.2,33.9,3.7c9.3,1.3,11.5-3.3,15.1-10.9l0.1-0.1
			c0.3-0.7,0.7-1.4,1-2.2l5.4-11l0-0.1c0.1-0.2,9.5-16.5,3.4-27.9C551.4,154.4,549.8,152.7,547.9,151.2z"/>
		<path class="st48" d="M447.1,188.8l0.5,0c6.1,0.2,11.3,4.4,14.7,8l52.9-52.2c-30.3-1.3-57.3-1.8-82.4-1.6l-66.5,65.6
			c0.3,0,0.5,0,0.8-0.1c5.8-0.8,38.1-4.1,56.9-6c2.5-0.3,4.7-1.4,6.3-3.4c3-3.7,9.3-10.1,16.8-10.3L447.1,188.8z"/>
	</g>
</g>
</svg>
