<?xml version="1.0" encoding="utf-8"?>
<!-- Generator: Adobe Illustrator 21.0.0, SVG Export Plug-In . SVG Version: 6.00 Build 0)  -->
<svg version="1.1" id="圖層_1" xmlns="http://www.w3.org/2000/svg" xmlns:xlink="http://www.w3.org/1999/xlink" x="0px" y="0px"
	 viewBox="0 0 822.9 601.4" style="enable-background:new 0 0 822.9 601.4;" xml:space="preserve">
<style type="text/css">
	.st0{fill:url(#SVGID_1_);}
	.st1{fill:#CE9245;}
	.st2{fill:#A66A22;}
	.st3{opacity:0.6;fill:#CE9245;enable-background:new    ;}
	.st4{fill:#AC6D21;}
	.st5{fill:url(#SVGID_2_);}
	.st6{fill:url(#SVGID_3_);}
	.st7{fill:url(#SVGID_4_);}
	.st8{fill:url(#SVGID_5_);}
	.st9{fill:url(#SVGID_6_);}
	.st10{opacity:0.6;fill:#D69644;enable-background:new    ;}
	.st11{fill:#070505;}
	.st12{fill:#22201E;}
	.st13{fill:url(#SVGID_7_);}
	.st14{fill:#DC827B;}
	.st15{fill:#9B2724;}
	.st16{fill:#8F2022;}
	.st17{fill:#C7812F;}
	.st18{fill:#DCB7A7;}
	.st19{fill:#FEF6F2;}
	.st20{fill:#E5BE51;}
	.st21{fill:#CF361C;}
	.st22{fill:#E9DED9;}
	.st23{fill:#FFFFFF;}
	.st24{fill:none;stroke:#DCB7A7;stroke-width:0.8656;stroke-linecap:round;stroke-miterlimit:10;}
	.st25{fill:#9E9E9E;}
	.st26{fill:#E2DFDE;}
	.st27{fill:none;stroke:#9B2724;stroke-width:0.5638;stroke-linecap:round;stroke-linejoin:round;stroke-miterlimit:10;}
	.st28{fill:url(#SVGID_8_);}
	.st29{fill:url(#SVGID_9_);}
	.st30{fill:#D69644;}
	.st31{fill:#D04B22;}
	.st32{fill:url(#SVGID_10_);}
	.st33{fill:url(#SVGID_11_);}
	.st34{fill:url(#SVGID_12_);}
	.st35{fill:url(#SVGID_13_);}
	.st36{fill:url(#SVGID_14_);}
	.st37{fill:url(#SVGID_15_);}
	.st38{fill:url(#SVGID_16_);}
	.st39{fill:#FBEEBA;}
	.st40{fill:#F3B699;}
	.st41{fill:#FCF0CA;}
	.st42{fill:none;stroke:#FCF0CA;stroke-width:0.5868;stroke-miterlimit:10;}
	.st43{fill:url(#SVGID_17_);}
	.st44{fill:url(#SVGID_18_);}
	.st45{fill:url(#SVGID_19_);}
	.st46{fill:url(#SVGID_20_);}
	.st47{fill:#EEE9E5;}
	.st48{fill:#323130;}
	.st49{fill:#181717;}
	.st50{fill:#A4A09F;}
	.st51{fill:#546B7F;}
	.st52{fill:#92A2AD;}
	.st53{opacity:0.6;fill:#A4A09F;enable-background:new    ;}
	.st54{fill:none;stroke:#A4A09F;stroke-width:0.6175;stroke-linecap:round;stroke-miterlimit:10;}
	.st55{fill:#7B8C9F;}
	.st56{fill:#C1E0F6;}
	.st57{fill:url(#SVGID_21_);}
	.st58{opacity:0.6;}
	.st59{fill:#E2BF40;}
	.st60{fill:url(#SVGID_22_);}
	.st61{fill:url(#SVGID_23_);}
	.st62{fill:url(#SVGID_24_);}
	.st63{fill:none;stroke:#FFFFFF;stroke-width:1.8107;stroke-linecap:round;stroke-miterlimit:10;}
	.st64{opacity:0.6;fill:#E2BF40;enable-background:new    ;}
	.st65{fill:#3F210E;}
	.st66{opacity:0.35;fill:#FFFFFF;enable-background:new    ;}
</style>
<g>
	<g>
		
			<linearGradient id="SVGID_1_" gradientUnits="userSpaceOnUse" x1="3004.8875" y1="-1247.6392" x2="3086.1111" y2="-1247.6392" gradientTransform="matrix(-1 0 0 -1 3605.6123 -870.0905)">
			<stop  offset="0" style="stop-color:#EDCF95"/>
			<stop  offset="0.5331" style="stop-color:#EECC91"/>
			<stop  offset="0.7526" style="stop-color:#EFC88D"/>
			<stop  offset="1" style="stop-color:#EDB397"/>
		</linearGradient>
		<path class="st0" d="M519.3,354.8l7.6-17.6c0-0.3,0-1,0.3-1.4c0-0.3,0-0.3,0-0.3c0-0.3,0.3-0.7,0.3-1c0-0.3,0-0.3,0.3-0.7
			c0.3-0.3,0.3-0.7,0.3-1c0-0.3,0-0.3,0.3-0.3c0.3-0.7,0.3-1,0.7-1.7c0-0.3,0.3-0.3,0.3-0.3c0.3-0.3,0.3-0.7,0.7-1
			c0-0.3,0.3-0.3,0.3-0.7c0.3-0.3,0.3-0.7,0.7-1c0-0.3,0.3-0.3,0.3-0.7c2.8-5.5,6.9-10.4,9.7-13.8c0.3-0.3,0.3-0.3,0.3-0.3
			c15.2,19,32.2,45,45.7,77.8c0,0,12.5,11.8,12.5,28.4c0,16.6-12.8,22.1-19.7,20.4l0,0c-7.6,6.9-18.7,2.4-20.8-8.3v-0.3
			c-0.3,0.3-1,0.7-1.7,0.7c-4.5,2.4-10.7-0.7-12.8-4.8l0,0l0,0c0-0.3-0.3-0.3-0.3-0.7l0.3-0.3l-1.7-13.5h0.3v-3.5l0.7-2.4
			c-0.3-0.7-0.7-1.4-0.7-2.1l-0.7-1l-0.7-2.4v-0.7c-2.4-6.2-6.2-14.9-11.4-24.9c-3.1-6.6-6.9-13.5-10.7-20.1L519.3,354.8z"/>
	</g>
	<path class="st1" d="M567.7,412.2c0,0,2.4,18.3-8,24.2l-1.7-5.2C558,431.2,568.8,425.7,567.7,412.2z"/>
	<path class="st1" d="M585.4,418.1c0,0,4.8,12.1,1,20.8c0,0-3.1,1-8,0.7C578.8,439.9,587.1,435.7,585.4,418.1z"/>
	<path class="st2" d="M568.1,418.1c0,0,0.3,11.1-9,14.9l-0.3-1.7C558.4,431.2,568.1,422.6,568.1,418.1z"/>
	<path class="st2" d="M586.4,424.3c0,0,0.7,10-4.8,15.6l-3.5-0.3C578.1,439.9,585.4,432.6,586.4,424.3z"/>
	<path class="st3" d="M519.3,354.8l7.6-17.6c0-0.3,0-1,0.3-1.4c0-0.3,0-0.3,0-0.3c0-0.3,0.3-0.7,0.3-1c0-0.3,0-0.3,0.3-0.7
		c0.3-0.3,0.3-0.7,0.3-1c0-0.3,0-0.3,0.3-0.3c0.3-0.7,0.3-1,0.7-1.7c0-0.3,0.3-0.3,0.3-0.3c0.3-0.3,0.3-0.7,0.7-1
		c0-0.3,0.3-0.3,0.3-0.7c0.3-0.3,0.3-0.7,0.7-1c0-0.3,0.3-0.3,0.3-0.7c0,0,0-0.3,0.3-0.3c10.4,20.4,21.4,47.4,22.1,70.2
		c0,0-12.8,16.3-8.3,31.8c-0.3-0.3-0.7-1-0.7-1.7l0,0l0,0c0-0.3-0.3-0.3-0.3-0.7l0.3-0.3l-1.7-13.5h0.3v-3.5l0.7-3.1l-1.7-2.4
		l-1-2.4l-19-41.5c0,0-1-1-2.8-3.8L519.3,354.8z"/>
	<g>
		<path class="st2" d="M542.5,408.4l-0.7-1l0,0c-0.3-0.3-12.5-27.7-23.9-49.8l1-2.8l0,0c10.4,19.7,21.8,45,24.2,50.2
			c0.3-1,0.7-1.7,0.7-1.7l0,0c1-1.7,2.1-3.5,2.4-3.5c0.3-0.3,0.7-0.3,0.7,0c0.3,0.3,0.3,0.7,0,0.7c-0.3,0.3-0.7,0.7-0.7,1
			c0,0-6.6,10-3.1,24.6l0,0c0.7,2.1,2.8,3.8,5.2,4.8c2.4,1,4.8,1,6.9,0c8.3-3.8,12.5-12.8,10.7-21.4c0-0.3,0.3-0.7,0.3-0.7
			c0.3,0,0.7,0.3,0.7,0.3c1.7,8.3-2.1,17-9.3,21.4c1,5.2,4.5,9,8.6,10.4c4.2,1,8.6,0,11.8-3.5c8.6-8.6,5.2-21.4,5.2-21.4
			c0-0.3,0.3-0.7,0.3-0.7c0.3,0,0.7,0.3,0.7,0.3c0,0.3,3.5,13.8-5.5,22.8l0,0c2.8,0.3,6.9-0.7,10.7-3.5c3.1-2.4,6.9-7.6,6.9-16.6
			c0-16.3-12.1-27.7-12.1-28l-0.3-0.3c-13.5-32.9-30.8-58.8-45.7-77.5l0.3-0.3c1-1,2.1-2.1,2.4-3.1l0,0c4.8,6.2,10,13.1,15.2,21.1
			l0,0c0,0,24.6,36.7,30.1,57.4c6.9,8.6,19.4,28.7,7.3,43.9c-1,1.7-2.4,3.1-3.8,4.2c-0.3,0.3-1,0.7-1.7,1c-0.3,0-0.3,0.3-0.3,0.3
			l0,0c-2.8,1.7-5.9,2.4-8.6,2.4c-0.7,0-1.7,0-2.1-0.3c-2.4,2.1-5.5,3.1-8.6,3.1c-1,0-2.4-0.3-3.5-0.7c-4.8-1.4-8.3-5.5-9.7-11.1
			c-0.3,0.3-0.7,0.3-0.7,0.3c-1,0.7-2.4,0.7-3.8,0.7s-2.4-0.3-3.8-0.7c-2.4-1-4.5-3.1-5.5-5.2l0,0c0,0,0,0,0-0.3s-0.3-0.3-0.3-0.3
			l0,0c0,0-1-2.4-1.4-6.9c-0.3-1.7-0.3-3.5,0-5.5C541.8,412.2,542.1,410.1,542.5,408.4z"/>
	</g>
</g>
<g>
	<g>
		<g>
			
				<linearGradient id="SVGID_2_" gradientUnits="userSpaceOnUse" x1="294.5503" y1="-1248.2614" x2="375.6113" y2="-1248.2614" gradientTransform="matrix(1 0 0 -1 0 -870.0905)">
				<stop  offset="0" style="stop-color:#EDCF95"/>
				<stop  offset="0.5331" style="stop-color:#EECC91"/>
				<stop  offset="0.7526" style="stop-color:#EFC88D"/>
				<stop  offset="1" style="stop-color:#EDB397"/>
			</linearGradient>
			<path class="st5" d="M375.9,355.5l-7.9-17.6c0-0.3,0-1-0.3-1.4c0-0.3,0-0.3,0-0.3c0-0.3-0.3-0.7-0.3-1s0-0.3-0.3-0.7
				c-0.3-0.3-0.3-0.7-0.3-1c0-0.3,0-0.3-0.3-0.3c-0.3-0.7-0.3-1-0.7-1.7c0-0.3-0.3-0.3-0.3-0.3c-0.3-0.3-0.3-0.7-0.7-1
				c0-0.3-0.3-0.3-0.3-0.7c-0.3-0.3-0.3-0.7-0.7-1c0-0.3-0.3-0.3-0.3-0.7c-2.8-5.5-6.9-10.4-9.7-13.8c-0.3-0.3-0.3-0.3-0.3-0.3
				c-15.2,19-32.1,44.9-45.6,77.7c0,0-12.4,11.7-12.4,28.3c0,16.6,12.8,22.1,19.7,20.4l0,0c7.6,6.9,18.6,2.4,20.7-8.3v-0.3
				c0.3,0.3,1,0.7,1.7,0.7c4.5,2.4,10.7-0.7,12.8-4.8l0,0l0,0c0-0.3,0.3-0.3,0.3-0.7l-0.3-0.3l1.7-13.5h-0.3V409l-0.7-2.4
				c0.3-0.7,0.7-1.4,0.7-2.1l0.7-1l0.7-2.4v-0.7c2.4-6.2,6.2-14.8,11.4-24.9c3.1-6.6,6.9-13.5,10.7-20L375.9,355.5z"/>
		</g>
		<path class="st1" d="M327.5,412.8c0,0-2.4,18.3,7.9,24.2l1.7-5.2C337.5,431.8,326.5,426.2,327.5,412.8z"/>
		<path class="st1" d="M309.9,418.6c0,0-4.8,12.1-1,20.7c0,0,3.1,1,7.9,0.7C316.5,440,308.2,435.9,309.9,418.6z"/>
		<path class="st2" d="M327.2,418.6c0,0-0.3,11,9,14.8l0.3-1.7C336.8,431.8,327.2,423.1,327.2,418.6z"/>
		<path class="st2" d="M309.2,424.9c0,0-0.7,10,4.8,15.5l3.5-0.3C317.2,440,309.9,433.1,309.2,424.9z"/>
		<path class="st3" d="M375.9,355.5l-7.9-17.6c0-0.3,0-1-0.3-1.4c0-0.3,0-0.3,0-0.3c0-0.3-0.3-0.7-0.3-1s0-0.3-0.3-0.7
			c-0.3-0.3-0.3-0.7-0.3-1c0-0.3,0-0.3-0.3-0.3c-0.3-0.7-0.3-1-0.7-1.7c0-0.3-0.3-0.3-0.3-0.3c-0.3-0.3-0.3-0.7-0.7-1
			c0-0.3-0.3-0.3-0.3-0.7c-0.3-0.3-0.3-0.7-0.7-1c0-0.3-0.3-0.3-0.3-0.7c0,0,0-0.3-0.3-0.3c-10.4,20.4-21.4,47.3-22.1,70.1
			c0,0,12.8,16.2,8.3,31.8c0.3-0.3,0.7-1,0.7-1.7l0,0l0,0c0-0.3,0.3-0.3,0.3-0.7l-0.3-0.3l1.7-13.5H351v-3.5l-0.7-3.1l1.7-2.4l1-2.4
			l19-41.4c0,0,1-1,2.8-3.8L375.9,355.5z"/>
		<g>
			<path class="st2" d="M352.7,409l0.7-1l0,0c0.3-0.3,12.4-27.6,23.8-49.7l-1-2.8l0,0c-10.4,19.7-21.8,44.9-24.2,50.1
				c-0.3-1-0.7-1.7-0.7-1.7l0,0c-1-1.7-2.1-3.5-2.4-3.5c-0.3-0.3-0.7-0.3-0.7,0c-0.3,0.3-0.3,0.7,0,0.7c0.3,0.3,0.7,0.7,0.7,1
				c0,0,6.6,10,3.1,24.5l0,0c-0.7,2.1-2.8,3.8-5.2,4.8c-2.4,1-4.8,1-6.9,0c-8.3-3.8-12.4-12.8-10.7-21.4c0-0.3-0.3-0.7-0.3-0.7
				c-0.3,0-0.7,0.3-0.7,0.3c-1.7,8.3,2.1,16.9,9.3,21.4c-1,5.2-4.5,9-8.6,10.4c-4.1,1-8.6,0-11.7-3.5c-8.6-8.6-5.2-21.4-5.2-21.4
				c0-0.3-0.3-0.7-0.3-0.7c-0.3,0-0.7,0.3-0.7,0.3c0,0.3-3.5,13.8,5.5,22.8l0,0c-2.8,0.3-6.9-0.7-10.7-3.5
				c-3.1-2.4-6.9-7.6-6.9-16.6c0-16.2,12.1-27.6,12.1-28l0.3-0.3c13.5-32.8,30.7-58.7,45.6-77.3l-1.7,0.3c-1-1-2.1-2.1-2.4-3.1l0,0
				c-4.8,6.2-10,13.1-15.2,21.1l0,0c0,0-24.5,36.6-30,57.3c-6.9,8.6-19.3,28.7-7.3,43.8c1,1.7,2.4,3.1,3.8,4.1c0.3,0.3,1,0.7,1.7,1
				c0.3,0,0.3,0.3,0.3,0.3l0,0c2.8,1.7,5.9,2.4,8.6,2.4c0.7,0,1.7,0,2.1-0.3c2.4,2.1,5.5,3.1,8.6,3.1c1,0,2.4-0.3,3.5-0.7
				c4.8-1.4,8.3-5.5,9.7-11c0.3,0.3,0.7,0.3,0.7,0.3c1,0.7,2.4,0.7,3.8,0.7s2.4-0.3,3.8-0.7c2.4-1,4.5-3.1,5.5-5.2l0,0
				c0,0,0,0,0-0.3c0-0.3,0.3-0.3,0.3-0.3l0,0c0,0,1-2.4,1.4-6.9c0.3-1.7,0.3-3.5,0-5.5C353.8,412.8,353.1,410.7,352.7,409z"/>
		</g>
	</g>
	<g>
		<path class="st63" d="M370.3,90.6c1.5-17.3,15.8-30.8,33.4-30.8c1.5,0,3,0,4.5,0.4"/>
		<path class="st63" d="M458.1,90.6c1.5-17.3,15.8-30.8,33.4-30.8c1.5,0,3,0,4.5,0.4"/>
		<path class="st64" d="M522.3,76.7c1.5,3.4,3.4,8.6,3.4,14.6c0,11.3-3,25.9-16.5,31.5c-13.5,5.6-34.1,8.6-45.4-8.6
			c-7.1-10.9-7.9-21.4-6-30.4c-1.5,3.8-2.3,7.5-2.3,11.6c0,1.9,0,3.8,0.4,5.3l-6.4-3l-7.9,0.8l-2.3,1.5c0.4-1.5,0.4-3,0.4-4.9
			c0-4.1-0.8-7.9-2.3-11.6c2.3,8.6,1.1,19.5-6,30.4c-10.9,16.9-31.5,13.9-45.4,8.6c-13.5-5.6-16.5-20.3-16.5-31.5
			c0-6,1.9-11.3,3.4-14.6c-3.8,5.6-6,12-6,19.1c0,19.1,16.1,34.9,36.4,34.9c17.6,0,32.3-12,35.7-27.8c2.3-1.1,10.1-4.9,17.6,0
			c3.4,15.8,18,27.8,35.7,27.8c20.3,0,36.4-15.8,36.4-34.9C528.7,88.7,526.4,82.3,522.3,76.7z"/>
		<path class="st65" d="M491.9,56.8c-19.9,0-36,16.1-36,36c0,1.9,0,3.8,0.4,5.3c-7.1-2.6-13.5-1.1-16.5,0c0.4-1.9,0.4-3.4,0.4-5.3
			c0-19.9-16.1-36-36-36s-36,16.1-36,36s16.1,36,36,36c16.9,0,31.1-11.6,35.3-27.8c1.1-0.4,9-3.8,17.6,0c3.8,15.8,18,27.8,35.3,27.8
			c19.9,0,36-16.1,36-36S511.8,56.8,491.9,56.8z M403.7,126.6c-18.4,0-33.4-15-33.4-33.4s15-33.4,33.4-33.4
			c18.4,0,33.4,15,33.4,33.4S422.1,126.6,403.7,126.6z M491.9,126.6c-18.4,0-33.4-15-33.4-33.4s15-33.4,33.4-33.4s33.4,15,33.4,33.4
			S510.3,126.6,491.9,126.6z"/>
		<path class="st66" d="M422.1,65.1c-5.3-3.4-11.6-5.6-18.4-5.6c-18.4,0-33.4,15-33.4,33.4c0,1.1,0,2.3,0,3L422.1,65.1z"/>
		<path class="st66" d="M379.3,116.1c6,6.4,14.6,10.5,24.4,10.5c18.4,0,33.4-15,33.4-33.4c0-3.8-0.8-7.5-1.9-10.5L379.3,116.1z"/>
		<path class="st66" d="M466,114.6c6,7.1,15.4,12,25.5,12c18.4,0,33.4-15,33.4-33.4c0-4.5-0.8-8.6-2.3-12.4L466,114.6z"/>
		<path class="st66" d="M508.4,64c-4.9-2.6-10.5-4.5-16.5-4.5c-18.4,0-33.4,15-33.4,33.4c0,0.4,0,0.8,0,1.1L508.4,64z"/>
	</g>
</g>
</svg>
