<?xml version="1.0" encoding="utf-8"?>
<!-- Generator: Adobe Illustrator 21.0.0, SVG Export Plug-In . SVG Version: 6.00 Build 0)  -->
<svg version="1.1" id="圖層_1" xmlns="http://www.w3.org/2000/svg" xmlns:xlink="http://www.w3.org/1999/xlink" x="0px" y="0px"
	 viewBox="0 0 822.9 601.4" style="enable-background:new 0 0 822.9 601.4;" xml:space="preserve">
<style type="text/css">
	.st0{fill:url(#SVGID_1_);}
	.st1{fill:#F5B38E;}
	.st2{fill:#B56D4C;}
	.st3{fill:#DA9B58;}
	.st4{fill:#AB6C21;}
	.st5{fill:url(#SVGID_2_);}
	.st6{fill:#C96046;stroke:#A64030;stroke-width:2;stroke-miterlimit:10;}
</style>
<g>
	<linearGradient id="SVGID_1_" gradientUnits="userSpaceOnUse" x1="336.3775" y1="326.2289" x2="443.5216" y2="326.2289">
		<stop  offset="0" style="stop-color:#F2D397"/>
		<stop  offset="0.5331" style="stop-color:#F3D093"/>
		<stop  offset="0.7526" style="stop-color:#F5CC8F"/>
		<stop  offset="1" style="stop-color:#F3B699"/>
	</linearGradient>
	<path class="st0" d="M353.2,313.6l5.1,2.7c0,0,4.9-5.6,19.5-2.4h2.9c0,0,1-6.2,6.8-13.9c5.8-7.7,15.2-15.8,25.2-14.5l11.4,4.9
		c0,0,10.8-0.7,14.7,9.3c0,0,6.8,3.1,4.1,14.4c0,0-3.1,5.9-12.9,6.8c0,0-4.9,0.8-4.7,6.9c0,0,10.5-1.1,13.5,10.7
		c0,0,3.6,14.5-15.7,13.5l-5.9-2.2c0,0-9.6,3-14.6,2.3c0,0-18.7,14.5-35.6,14.8c0,0-30.9,3.1-30.6-25.9
		C336.4,341,336.9,325.9,353.2,313.6z"/>
	<path class="st1" d="M407,322.6c0,0,4.9-5.5,6.6-5.3c1.7,0.1,3.7,1.1,3.7,1.1l1.3,3.9l-2.3,8.4l-0.4,6.6l-2,1.2l-4.4-2.6l-4.4-2.7
		l-2.5-2.5l-1-3.5l2.1-3L407,322.6z"/>
	<polygon class="st1" points="413.3,308.3 411,308.3 411,303.7 416.3,300.9 419.2,300.2 421.8,301.3 421.8,303.7 419.8,306.3 
		417.2,308.3 413.9,309.2 	"/>
	<path class="st1" d="M425.3,314.5c0,0-3.1-1.7-0.9-4.6c2.2-2.9,6.9-3.6,6.9-3.6l2,0.6l1.2,1.6c0,0-1.8,2.9-3.8,3.4
		C428.8,312.5,425.3,314.5,425.3,314.5z"/>
	<path class="st1" d="M430.8,320.4c0,0-1.7-1.2,0-3.6c1.7-2.4,6.7-2.5,6.7-2.5l2.5,0.3l0.3,1.8l-2.2,2l-5.1,2H430.8z"/>
	<path class="st1" d="M421.8,336.5c0,0,1.4-2,3.5-2.4c2.1-0.4,4.7,3.3,4.7,3.3l-1.3,4.6l-2.5,0.8h-2l-1.8-0.8l-1.6-0.9L421.8,336.5z
		"/>
	<path class="st2" d="M414.5,310c-4,0-4.8-2-5-2.9c-0.5-2.7,2.4-6.1,6.3-7.5c2.1-0.8,3.8-0.7,5.1,0.2c2,1.4,2.1,4.2,2.1,4.3
		c0,0.6-0.4,1-1,1c-0.6,0-1-0.4-1-1c0,0-0.1-1.9-1.3-2.7c-0.8-0.5-1.9-0.5-3.3,0c-3.2,1.1-5.3,3.8-5,5.3c0.2,1.2,2.3,1.3,3.2,1.3
		c0,0,0,0,0,0c0.5,0,1,0.4,1,1c0,0.6-0.4,1-1,1C414.6,310,414.6,310,414.5,310z"/>
	<path class="st2" d="M425.4,314.5c0,0-0.1,0-0.2,0c-2.2-0.3-2.7-1.5-2.8-2.1c-0.3-2.2,2.6-4.8,5.7-6.2c4-1.9,6.4,0.2,7.1,1.6
		c0.2,0.5,0,1.1-0.4,1.3c-0.5,0.2-1.1,0-1.3-0.4c-0.1-0.2-1.3-2.2-4.5-0.7c-2.9,1.4-4.7,3.4-4.6,4.1c0,0.1,0.4,0.4,1.1,0.5
		c0.5,0.1,0.9,0.6,0.8,1.1C426.4,314.2,425.9,314.5,425.4,314.5z"/>
	<path class="st2" d="M431.9,321.5c-0.1,0-0.3,0-0.4-0.1c-2-0.9-2.4-2.2-2.3-3.1c0.1-2.2,2.9-4.1,5.6-5c3.7-1.2,5.9,1.6,6.5,3.3
		c0.2,0.5-0.1,1.1-0.6,1.3c-0.5,0.2-1.1-0.1-1.3-0.6l0,0c-0.1-0.3-1.2-3-4-2.1c-2.5,0.8-4.2,2.3-4.2,3.2c0,0.5,0.7,0.9,1.1,1.1
		c0.5,0.2,0.7,0.8,0.5,1.3C432.6,321.2,432.3,321.5,431.9,321.5z"/>
	<path class="st3" d="M404.4,352.2l-7.2-2.1c0,0-25.8,21.2-53.3,9c0,0-0.4,0-1,0.1c9,9.1,24.1,7.6,24.1,7.6
		c16.9-0.3,35.6-14.8,35.6-14.8C403.1,352.2,403.7,352.2,404.4,352.2z"/>
	<path class="st4" d="M354.5,314.2l0.3-1.4c0.1-0.1,0.2-0.2,0.2-0.2c0.1-0.1,0.1-0.1,0.2-0.2c-1.2-0.5-2.4-0.9-3.5-1.6
		c-0.3,0.4-0.6,0.8-1,1.2c1.3,0.7,2.2,1.8,3.6,2.4C354.3,314.3,354.5,314.2,354.5,314.2z"/>
	<path class="st4" d="M431.3,321.6c8.8-1.1,13.4-5.6,13.5-12.9c0.1-7.4-4.5-9.8-6.2-10.5c-0.2-0.6-0.4-1.3-0.7-2
		c-3.5-8.1-12.3-7.6-14.7-7.2c-0.1-0.1-0.2-0.2-0.3-0.3c-2.3-2.5-5.8-4.1-10.8-4.7c-9.6-1.2-19.1,7.7-25.3,15.4
		c-3.5,4.3-5.6,9.2-6.7,13.1c-17.5-3-26.9,5.5-26.9,5.5l0,0c-3.5,2.4-4.7,4-4.7,4.1c-0.3,0.5-0.2,1.1,0.3,1.4
		c0.2,0.1,0.4,0.2,0.6,0.2c0.3,0,0.6-0.1,0.8-0.4c0,0,1.9-2.7,8.5-6.2c5.6-3,17.1-1.9,20.7-1.5c-0.6,2.9-0.7,4.8-0.7,5
		c0,0.6,0.4,1,0.9,1c0,0,0,0,0.1,0c0.5,0,1-0.4,1-1c0-0.1,0.6-11.2,7.8-20c3.2-3.9,7.3-8.2,11.7-11.1c2.5-1.5,8.2-4.3,14.9-2.3
		c8.8,2.6,9.1,10.3,9.1,10.7c-0.1,1.5-0.6,2.9-1.4,4c-2.5,3.6-6.3,5.9-10.6,6.5l-0.2,0l-0.2,0.1c-1.1,0.7-3.1,2-3.6,2.7
		c-0.3,0.4-0.2,1,0.3,1.3c0.4,0.3,1.1,0.2,1.4-0.2c0.2-0.3,1.6-1.3,2.9-2c4.8-0.7,8.9-3.2,11.7-7.3c2.2-3.2,2.3-7.8,0.5-11.6l0,0
		c0,0,9.5-1.7,12.1,8.8c0.1,1.4,0,2.8-0.6,4.1c-1.5,3.5-5.1,5.8-6.8,6.5c-1.7,0.7-4.4,1.6-6.5,2.3c-1.9,0.7-2.9,1-3.2,1.1
		c-0.5,0.2-0.7,0.8-0.4,1.3c0.2,0.4,0.5,0.6,0.9,0.6c0.1,0,0.3,0,0.4-0.1c0.2-0.1,1.7-0.6,3-1c2.2-0.7,4.9-1.7,6.7-2.4
		c2.1-0.9,6.2-3.4,7.9-7.6c0.5-1.3,0.8-2.6,0.8-3.9l0,0c0,0,3.3,1.1,3.8,7.3c-0.1,6.2-4.1,9.9-11.8,10.9c-4.9,0.6-6.5,4.9-6.8,7.6
		c-0.7,0.1-1.4,0.3-2.1,0.5c-0.5,0.2-0.8,0.7-0.6,1.3c0.2,0.5,0.7,0.8,1.3,0.6c4.4-1.4,9-0.6,11.7,2.2c3.7,3.9,4.8,9.3,2.8,13.6
		c-1.1,2.3-3.4,4.1-6.4,5c-4.3,1.3-9.2,0.7-12.9-1.5l-0.4-0.3l-0.5,0.2c-0.1,0.1-13,5.5-20.3-0.5c-0.4-0.3-1.1-0.3-1.4,0.1
		c-0.3,0.4-0.3,1.1,0.1,1.4c1.7,1.4,3.7,2.2,5.7,2.7c-5.4,3-19.2,10.4-27,12.3c-4.6,1.1-20.4,4-30.1-5.7c-3.8-3.8-5.8-8.3-6.2-13.5
		c-0.4-5.9,2.6-12.7,2.6-12.8c4.6-8.8,12.3-16.9,13.9-18.4c-1.4-0.6-2.3-1.7-3.6-2.4c-3.7,4.4-9.3,11.7-12.2,17v0c0,0,0,0.1-0.1,0.2
		c-0.5,1-1,1.9-1.2,2.8c-1.5,3.8-3.3,10.6-0.9,17.2l0-0.1c0.9,4.3,3,8.1,6.3,11.5c4.9,5,12.4,7.6,20.9,7.6c3.5,0,7.2-0.5,11.1-1.4
		c10-2.4,28.5-13,29.8-13.7c0.5,0,1,0.1,1.5,0.1c5.2,0,10-1.7,11.5-2.3c4.1,2.3,9.5,2.9,14.1,1.5c3.6-1.1,6.3-3.2,7.7-6.1
		c2.4-5,1.1-11.4-3.1-15.8c-2.3-2.4-5.8-3.7-9.6-3.5C426.5,325.2,427.5,322,431.3,321.6z"/>
	<path class="st2" d="M424.5,343.9c0.4,0.1,0.7,0.1,1,0.1c2.8,0,4.4-1.7,5-3.4c0.8-2.5-0.1-5.3-2.2-6.5c-3.2-1.8-5.8-0.3-6.7,0.7
		l-0.1,0.2c-1.6,2.7-2.1,4.8-1.3,6.5C420.8,342.7,422.2,343.6,424.5,343.9z M423.1,336c0.4-0.3,1.9-1.6,4.2-0.3
		c1.2,0.7,1.8,2.5,1.3,4.1c-0.5,1.6-1.9,2.3-3.8,2c-1.5-0.2-2.4-0.7-2.8-1.4C421.6,339.9,421.6,338.6,423.1,336z"/>
	<path class="st2" d="M406.4,335.1c0.8,0.9,1.9,2,4.1,3.3c1,0.6,2,0.9,2.9,0.9c0.5,0,0.9-0.1,1.3-0.3c1.8-0.8,2.4-3,2.6-3.8
		c0.1-0.6,0.2-1.5,0.3-2.8c0.1-2.2,0.3-5.1,0.9-6.5c1.3-2.7,1.2-7.6-2.2-9.2c-3.3-1.6-6,2-6.5,2.7c-2.1,1.9-4,3-4.3,3.2
		c-4.2,1.6-4.8,4.2-4.8,5.6c0,2.5,1.9,4.6,3.6,5.2C405.2,333.8,405.7,334.3,406.4,335.1z M402.6,328.2c0-2,1.9-3.1,3.5-3.7l0.1-0.1
		c0.1-0.1,2.4-1.3,4.9-3.6l0.1-0.2c0,0,1.5-2.3,3.2-2.3c0.3,0,0.5,0.1,0.8,0.2c2.2,1,2.2,4.6,1.3,6.6c-0.8,1.7-1,4.8-1.1,7.2
		c-0.1,1-0.1,2.1-0.2,2.4c-0.1,0.6-0.5,2-1.4,2.4c-0.7,0.3-1.7-0.1-2.4-0.5c-1.9-1.1-2.8-2.1-3.6-2.9c-0.8-0.9-1.5-1.7-3-2.2
		C403.9,331.3,402.6,329.8,402.6,328.2z"/>
	
		<linearGradient id="SVGID_2_" gradientUnits="userSpaceOnUse" x1="-920.9144" y1="326.2289" x2="-813.7703" y2="326.2289" gradientTransform="matrix(-1 0 0 1 -362.807 0)">
		<stop  offset="0" style="stop-color:#F2D397"/>
		<stop  offset="0.5331" style="stop-color:#F3D093"/>
		<stop  offset="0.7526" style="stop-color:#F5CC8F"/>
		<stop  offset="1" style="stop-color:#F3B699"/>
	</linearGradient>
	<path class="st5" d="M541.3,313.6l-5.1,2.7c0,0-4.9-5.6-19.5-2.4h-2.9c0,0-1-6.2-6.8-13.9c-5.8-7.7-15.2-15.8-25.2-14.5l-11.4,4.9
		c0,0-10.8-0.7-14.7,9.3c0,0-6.8,3.1-4.1,14.4c0,0,3.1,5.9,12.9,6.8c0,0,4.9,0.8,4.7,6.9c0,0-10.5-1.1-13.5,10.7
		c0,0-3.6,14.5,15.7,13.5l5.9-2.2c0,0,9.6,3,14.6,2.3c0,0,18.7,14.5,35.6,14.8c0,0,30.9,3.1,30.6-25.9
		C558.1,341,557.6,325.9,541.3,313.6z"/>
	<path class="st1" d="M487.5,322.6c0,0-4.9-5.5-6.6-5.3c-1.7,0.1-3.7,1.1-3.7,1.1l-1.3,3.9l2.3,8.4l0.4,6.6l2,1.2l4.4-2.6l4.4-2.7
		l2.5-2.5l1-3.5l-2.1-3L487.5,322.6z"/>
	<polygon class="st1" points="481.2,308.3 483.5,308.3 483.5,303.7 478.2,300.9 475.3,300.2 472.7,301.3 472.7,303.7 474.7,306.3 
		477.3,308.3 480.6,309.2 	"/>
	<path class="st1" d="M469.2,314.5c0,0,3.1-1.7,0.9-4.6c-2.2-2.9-6.9-3.6-6.9-3.6l-2,0.6l-1.2,1.6c0,0,1.8,2.9,3.8,3.4
		C465.7,312.5,469.2,314.5,469.2,314.5z"/>
	<path class="st1" d="M463.7,320.4c0,0,1.7-1.2,0-3.6c-1.7-2.4-6.7-2.5-6.7-2.5l-2.5,0.3l-0.3,1.8l2.2,2l5.1,2H463.7z"/>
	<path class="st1" d="M472.7,336.5c0,0-1.4-2-3.5-2.4c-2.1-0.4-4.7,3.3-4.7,3.3l1.3,4.6l2.5,0.8h2l1.8-0.8l1.6-0.9L472.7,336.5z"/>
	<path class="st2" d="M480,310c4,0,4.8-2,5-2.9c0.5-2.7-2.4-6.1-6.3-7.5c-2.1-0.8-3.8-0.7-5.1,0.2c-2,1.4-2.1,4.2-2.1,4.3
		c0,0.6,0.4,1,1,1c0.6,0,1-0.4,1-1c0,0,0.1-1.9,1.3-2.7c0.8-0.5,1.9-0.5,3.3,0c3.2,1.1,5.3,3.8,5,5.3c-0.2,1.2-2.3,1.3-3.2,1.3
		c0,0,0,0,0,0c-0.5,0-1,0.4-1,1c0,0.6,0.4,1,1,1C479.9,310,479.9,310,480,310z"/>
	<path class="st2" d="M469,314.5c0,0,0.1,0,0.2,0c2.2-0.3,2.7-1.5,2.8-2.1c0.3-2.2-2.6-4.8-5.7-6.2c-4-1.9-6.4,0.2-7.1,1.6
		c-0.2,0.5,0,1.1,0.4,1.3c0.5,0.2,1.1,0,1.3-0.4c0.1-0.2,1.3-2.2,4.5-0.7c2.9,1.4,4.7,3.4,4.6,4.1c0,0.1-0.4,0.4-1.1,0.5
		c-0.5,0.1-0.9,0.6-0.8,1.1C468.1,314.2,468.6,314.5,469,314.5z"/>
	<path class="st2" d="M462.6,321.5c0.1,0,0.3,0,0.4-0.1c2-0.9,2.4-2.2,2.3-3.1c-0.1-2.2-2.9-4.1-5.6-5c-3.7-1.2-5.9,1.6-6.5,3.3
		c-0.2,0.5,0.1,1.1,0.6,1.3c0.5,0.2,1.1-0.1,1.3-0.6l0,0c0.1-0.3,1.2-3,4-2.1c2.5,0.8,4.2,2.3,4.2,3.2c0,0.5-0.7,0.9-1.1,1.1
		c-0.5,0.2-0.7,0.8-0.5,1.3C461.9,321.2,462.2,321.5,462.6,321.5z"/>
	<path class="st3" d="M490.1,352.2l7.2-2.1c0,0,25.8,21.2,53.3,9c0,0,0.4,0,1,0.1c-9,9.1-24.1,7.6-24.1,7.6
		c-16.9-0.3-35.6-14.8-35.6-14.8C491.4,352.2,490.8,352.2,490.1,352.2z"/>
	<path class="st4" d="M557.4,332.1c-0.3-0.8-0.7-1.8-1.2-2.8c-0.1-0.1-0.1-0.2-0.1-0.2v0c-3.9-7.3-13.3-18.4-15.2-20.6
		c-0.7,0.6-1.1,1.5-2.2,2.2l0,0.2l0.6,0.6c-0.2,0.4-0.1,0.8,0.3,1.1c0,0,0.1,0.1,0.2,0.2l0.3,1.4c0,0,9.1,8.9,14.2,18.7
		c0.1,0.1,3,6.9,2.6,12.8c-0.4,5.2-2.4,9.6-6.2,13.5c-9.6,9.7-25.4,6.8-30.1,5.7c-7.8-1.9-21.6-9.3-27-12.3c2-0.5,3.9-1.3,5.7-2.7
		c0.4-0.3,0.5-1,0.1-1.4c-0.4-0.4-1-0.5-1.4-0.1c-7.3,6-20.2,0.6-20.3,0.5l-0.5-0.2l-0.4,0.3c-3.7,2.2-8.7,2.8-12.9,1.5
		c-3-0.9-5.3-2.7-6.4-5c-2-4.3-0.9-9.7,2.8-13.6c2.7-2.8,7.3-3.7,11.7-2.2c0.5,0.2,1.1-0.1,1.3-0.6c0.2-0.5-0.1-1.1-0.6-1.3
		c-0.7-0.2-1.4-0.4-2.1-0.5c-0.3-2.8-1.9-7-6.8-7.6c-7.7-1-11.7-4.7-11.8-10.9c0.5-6.2,3.8-7.3,3.8-7.3l0,0c0,1.3,0.3,2.6,0.8,3.9
		c1.7,4.2,5.8,6.7,7.9,7.6c1.8,0.7,4.5,1.6,6.7,2.4c1.3,0.4,2.7,0.9,3,1c0.1,0.1,0.3,0.1,0.4,0.1c0.4,0,0.7-0.2,0.9-0.6
		c0.2-0.5,0-1.1-0.4-1.3c-0.3-0.2-1.3-0.5-3.2-1.1c-2.2-0.7-4.8-1.6-6.5-2.3c-1.7-0.7-5.4-2.9-6.8-6.5c-0.5-1.3-0.7-2.7-0.6-4.1
		c2.7-10.6,12.1-8.8,12.1-8.8l0,0c-1.8,3.8-1.7,8.4,0.5,11.6c2.8,4,6.9,6.6,11.7,7.3c1.2,0.8,2.6,1.7,2.9,2c0.3,0.4,1,0.5,1.4,0.2
		c0.4-0.3,0.6-0.9,0.3-1.3c-0.5-0.7-2.5-2-3.6-2.7l-0.2-0.1l-0.2,0c-4.3-0.5-8-2.8-10.6-6.5c-0.8-1.2-1.3-2.6-1.4-4
		c0-0.4,0.4-8.1,9.1-10.7c6.7-2,12.4,0.8,14.9,2.3c4.4,2.9,8.5,7.2,11.7,11.1c7.1,8.7,7.8,19.9,7.8,20c0,0.5,0.5,1,1,1
		c0,0,0,0,0.1,0c0.6,0,1-0.5,0.9-1c0-0.2-0.1-2.2-0.7-5c3.6-0.4,15.1-1.5,20.7,1.5c6.6,3.6,8.5,6.2,8.5,6.2c0.2,0.3,0.5,0.4,0.8,0.4
		c0.2,0,0.4-0.1,0.6-0.2c0.5-0.3,0.6-0.9,0.3-1.4c-0.1-0.1-1.2-1.7-4.7-4.1l0,0c0,0-9.4-8.5-26.9-5.5c-1.2-3.9-3.2-8.7-6.7-13.1
		c-6.3-7.7-15.7-16.5-25.3-15.4c-5,0.6-8.5,2.1-10.8,4.7c-0.1,0.1-0.2,0.2-0.3,0.3c-2.4-0.3-11.2-0.9-14.7,7.2
		c-0.3,0.7-0.5,1.3-0.7,2c-1.7,0.6-6.3,3-6.2,10.5c0.1,7.3,4.8,11.7,13.5,12.9c3.7,0.5,4.7,3.7,5,5.4c-3.7-0.2-7.3,1.1-9.6,3.5
		c-4.3,4.5-5.5,10.8-3.1,15.8c1.3,2.8,4.1,5,7.7,6.1c4.6,1.4,10,0.8,14.1-1.5c1.5,0.6,6.3,2.3,11.5,2.3c0.5,0,1,0,1.5-0.1
		c1.2,0.7,19.8,11.3,29.8,13.7c3.8,0.9,7.5,1.4,11.1,1.4c8.5,0,16-2.6,20.9-7.6c3.3-3.4,5.4-7.2,6.3-11.5l0,0.1
		C560.7,342.6,558.9,335.8,557.4,332.1z"/>
	<path class="st2" d="M474.3,341.4c0.8-1.6,0.3-3.7-1.3-6.5l-0.1-0.2c-0.9-1-3.5-2.5-6.7-0.7c-2.1,1.1-3,4-2.2,6.5
		c0.6,1.7,2.2,3.4,5,3.4c0.3,0,0.7,0,1-0.1C472.2,343.6,473.7,342.7,474.3,341.4z M472.5,340.5c-0.3,0.7-1.3,1.2-2.8,1.4
		c-1.9,0.3-3.3-0.5-3.8-2c-0.5-1.6,0-3.4,1.3-4.1c2.3-1.3,3.8-0.1,4.2,0.3C472.9,338.6,472.8,339.9,472.5,340.5z"/>
	<path class="st2" d="M490.3,333.5c1.7-0.6,3.6-2.8,3.6-5.2c0-1.4-0.6-4-4.8-5.6c-0.3-0.2-2.3-1.3-4.3-3.2c-0.5-0.7-3.2-4.2-6.5-2.7
		c-3.4,1.6-3.5,6.5-2.2,9.2c0.6,1.4,0.8,4.3,0.9,6.5c0.1,1.3,0.1,2.3,0.3,2.8c0.2,0.8,0.8,3,2.6,3.8c0.4,0.2,0.9,0.3,1.3,0.3
		c0.9,0,1.8-0.3,2.9-0.9c2.2-1.3,3.2-2.4,4.1-3.3C488.8,334.3,489.3,333.8,490.3,333.5z M489.6,331.6c-1.5,0.5-2.2,1.3-3,2.2
		c-0.8,0.9-1.7,1.8-3.6,2.9c-0.7,0.4-1.7,0.8-2.4,0.5c-0.9-0.4-1.3-1.9-1.4-2.4c-0.1-0.4-0.2-1.4-0.2-2.4c-0.1-2.4-0.3-5.5-1.1-7.2
		c-0.9-2-0.9-5.6,1.3-6.6c0.3-0.1,0.5-0.2,0.8-0.2c1.7,0,3.2,2.3,3.2,2.3l0.1,0.2c2.5,2.3,4.8,3.6,4.9,3.6l0.1,0.1
		c1.6,0.6,3.6,1.8,3.5,3.7C491.9,329.8,490.6,331.3,489.6,331.6z"/>
	<path class="st6" d="M465.4,322.7c0,3.4-1.1,5.8-3,7.8c-4.7,4.9-9.5,9.6-14.3,14.4c-0.5,0.5-0.9,0.4-1.3,0
		c-4.7-4.7-9.5-9.4-14.1-14.2c-2.7-2.9-4-6.3-2.7-10.3c1.8-5.3,7.6-7.6,12.7-5.1c1.2,0.6,2.3,1.4,3.3,2.2c1.5,1.2,1.6,1.2,3.1,0
		c2.1-1.9,4.5-3.2,7.5-3.2C461.5,314.2,465.4,318.1,465.4,322.7z"/>
</g>
</svg>
