<?xml version="1.0" encoding="utf-8"?>
<!-- Generator: Adobe Illustrator 21.0.0, SVG Export Plug-In . SVG Version: 6.00 Build 0)  -->
<svg version="1.1" id="圖層_1" xmlns="http://www.w3.org/2000/svg" xmlns:xlink="http://www.w3.org/1999/xlink" x="0px" y="0px"
	 viewBox="0 0 822.9 601.4" style="enable-background:new 0 0 822.9 601.4;" xml:space="preserve">
<style type="text/css">
	.st0{fill:url(#SVGID_1_);}
	.st1{fill:#E1BE3F;}
	.st2{fill:#AB6C21;}
	.st3{opacity:0.6;fill:#E1BE3F;enable-background:new    ;}
	.st4{fill:url(#SVGID_2_);}
	.st5{fill:#C7876C;}
	.st6{fill:url(#SVGID_3_);}
	.st7{opacity:0.5;fill:url(#SVGID_4_);}
	.st8{opacity:0.3;}
	.st9{fill:url(#SVGID_5_);}
	.st10{fill:url(#SVGID_6_);}
	.st11{opacity:0.2;fill:url(#SVGID_7_);}
	.st12{fill:#F2CBBE;}
	.st13{fill:#FCEEE7;}
	.st14{fill:#E4B299;}
	.st15{fill:#F9D5C1;}
	.st16{opacity:0.5;fill:#F9D5C1;}
	.st17{fill:#FDF9F8;}
	.st18{fill:#CD977E;}
	.st19{fill:#FFFFFF;}
	.st20{fill:#C3B6A7;}
	.st21{fill:url(#SVGID_8_);}
	.st22{fill:url(#SVGID_9_);}
	.st23{opacity:0.5;fill:url(#SVGID_10_);}
	.st24{opacity:0.5;fill:url(#SVGID_11_);}
	.st25{fill:#E7C593;}
	.st26{fill:#D7B580;}
	.st27{fill:url(#SVGID_12_);}
	.st28{fill:url(#SVGID_13_);}
	.st29{opacity:0.5;fill:url(#SVGID_14_);}
	.st30{opacity:0.5;fill:url(#SVGID_15_);}
</style>
<g>
	<g>
		<path class="st5" d="M547,419.8l-3.2-19.2c-0.1-0.4-0.4-0.7-0.8-0.6l-96,7.8l-94.2-7.6l0,0l0,0L351,400c-0.4,0-0.7,0.2-0.8,0.6
			l-3.2,19.3c0,0.4-3.7,44.5-4.6,58.8c0,0.3,0.1,0.6,0.4,0.7c0.3,0.2,31.9,16.2,103.3,11.3c0.4,0,0.7-0.3,0.7-0.7l0.2-6.1l0.2,6.1
			c0,0.4,0.3,0.7,0.7,0.7c9.5,0.7,18.3,0.9,26.4,0.9c52.8,0,76.6-12.1,76.9-12.2c0.3-0.1,0.4-0.4,0.4-0.7
			C550.7,464.4,547.1,420.3,547,419.8z M448.7,489.2l-0.9-28l0-0.2c0-0.2-0.1-0.4-0.2-0.5c-0.3-0.3-0.8-0.3-1.1,0
			c-0.1,0.1-0.2,0.3-0.2,0.5l0,0.2l-0.9,28c-60.5,4.1-92-7-99.8-10.3c1.9-34.1,6.1-69.7,7.1-77.3l94.4,7.6h0c0,0,0,0,0.1,0l94.9-7.7
			c0.9,7.5,5.2,43.1,7,77.2C542.1,481.7,510.6,493.4,448.7,489.2z"/>
		<linearGradient id="SVGID_1_" gradientUnits="userSpaceOnUse" x1="342.618" y1="433.7251" x2="551.2108" y2="452.9844">
			<stop  offset="0" style="stop-color:#E4B196"/>
			<stop  offset="1" style="stop-color:#DD9D7C"/>
		</linearGradient>
		<path class="st0" d="M448.7,489.2l-0.9-28l0-0.2c0-0.2-0.1-0.4-0.2-0.5c-0.3-0.3-0.8-0.3-1.1,0c-0.1,0.1-0.2,0.3-0.2,0.5l0,0.2
			l-0.9,28c-60.5,4.1-92-7-99.8-10.3c1.9-34.1,6.1-69.7,7.1-77.3l94.4,7.6h0c0,0,0,0,0.1,0l94.9-7.7c0.9,7.5,5.2,43.1,7,77.2
			C542.1,481.7,510.6,493.4,448.7,489.2z"/>
		<linearGradient id="SVGID_2_" gradientUnits="userSpaceOnUse" x1="345.086" y1="410.9835" x2="544.4568" y2="429.3913">
			<stop  offset="0" style="stop-color:#E4B196"/>
			<stop  offset="1" style="stop-color:#DD9D7C"/>
		</linearGradient>
		<path style="opacity:0.5;fill:url(#SVGID_2_);" d="M449.7,441.6c48.8,0,76.7-8.7,95.1-14.4c-0.6-5.4-1.1-10.2-1.5-14.3l-27.9-9.3
			l-68.3,5.5c0,0,0,0-0.1,0h0l-94.4-7.6c-0.4,3.4-1.5,12.3-2.7,24.1C355.9,429.5,382.8,441.6,449.7,441.6z"/>
		<g class="st8">
			<linearGradient id="SVGID_3_" gradientUnits="userSpaceOnUse" x1="440.1934" y1="475.1577" x2="446.5606" y2="475.7456">
				<stop  offset="0" style="stop-color:#E4B196"/>
				<stop  offset="1" style="stop-color:#DD9D7C"/>
			</linearGradient>
			<path class="st6" d="M445.3,489.2l0.9-28c0,0-3.7,26.2-5.5,27.3c-0.5,0.3-1,0.7-1.7,1.1C441.1,489.4,443.2,489.3,445.3,489.2z"/>
			<linearGradient id="SVGID_4_" gradientUnits="userSpaceOnUse" x1="446.124" y1="475.0069" x2="457.6282" y2="476.0691">
				<stop  offset="0" style="stop-color:#E4B196"/>
				<stop  offset="1" style="stop-color:#DD9D7C"/>
			</linearGradient>
			<path style="fill:url(#SVGID_4_);" d="M451.3,485.1c-0.5-4.2-3.5-23.9-3.5-23.9l0.9,28c2.6,0.2,5.2,0.3,7.7,0.4
				C454.6,489.2,451.6,488,451.3,485.1z"/>
		</g>
		<linearGradient id="SVGID_5_" gradientUnits="userSpaceOnUse" x1="535.7059" y1="447.4368" x2="551.7374" y2="448.917">
			<stop  offset="0" style="stop-color:#E4B196"/>
			<stop  offset="1" style="stop-color:#DD9D7C"/>
		</linearGradient>
		<path style="opacity:0.2;fill:url(#SVGID_5_);" d="M549,478.7c-1.3-24.1-3.8-48.9-5.5-64l-4.4,1.3c0,0,5.2,38.6,2.5,65.4
			C545.1,480.3,547.6,479.3,549,478.7z"/>
		<path class="st12" d="M345.5,478.9c1.2,0.5,3,1.2,5.4,2c0.3-18.9,2.4-58,2.4-58l-2.7-4C348.9,434.3,346.7,456.9,345.5,478.9z"/>
		<path class="st13" d="M541.1,481.6c0.7-0.2,1.3-0.4,2-0.6c-1.2-20.7-3-52.8-3.9-68.9h4.1c-0.6-5-1-8.6-1.2-10.5l-94.9,7.7
			c0,0,0,0-0.1,0h0l-94.4-7.6c-0.2,1.9-0.7,5.5-1.2,10.4h7.8c-0.9,16.4-2.8,49.6-4,70.2c0.6,0.2,1.3,0.4,2,0.6
			c1.2-20.6,3.1-54.3,4-70.8h3.7c-0.9,16.1-2.9,50.7-4.1,71.7c0.6,0.2,1.3,0.3,2,0.5c1.2-21.1,3.2-56.1,4.1-72.2h164.6
			c0.9,15.8,2.9,50,4.1,71.2c0.7-0.2,1.3-0.4,2-0.5c-1.2-21.2-3.1-54.9-4-70.6h3.7C538,428.2,539.9,460.9,541.1,481.6z"/>
	</g>
	<g>
		<path class="st14" d="M506,278c8.2,6.6,29.4,23.5,36.7,32.7c0,0-8.6,5.1-21.5,8.3l-3.5,0.6c-2.4,1.8-5.1,0-5.1,0l-2.5-0.5
			l-14.6-3.9l-1.1-33.3L506,278z"/>
		<path class="st15" d="M505.7,278.7l0.4-0.7l2.3,1.9c0,0-0.7,0.5-2.1,1.3L505.7,278.7z"/>
		<path class="st16" d="M528.1,317.8l-5.2,0.8c-3.6-9-7.2-17.5-9.3-21.2C513.6,297.4,521.4,307.9,528.1,317.8z"/>
		<path class="st15" d="M386.4,279.9c-8.2,6.3-29.4,22.5-36.7,31.2c0,0,8.6,4.9,21.5,8l3.5,0.6c2.4,1.7,5.1,0,5.1,0l2.5-0.5
			l14.6-3.7l1.2-32.8L386.4,279.9z"/>
		<path class="st15" d="M386.8,280.6l-0.4-0.7l-2.3,1.8c0,0,0.7,0.5,2.1,1.2L386.8,280.6z"/>
		<path class="st16" d="M366.8,318.5l5.2,0.8c3.6-8.6,7.2-16.7,9.3-20.3C381.3,299,373.6,309,366.8,318.5z"/>
		<path class="st15" d="M531.4,340.5h0.5c0.2-0.2,0.5-0.4,0.7-0.6l-1.8-4.9L512.6,297l-6.9-18.4l-0.4-0.7l-11.4,4.3
			c0,0-19.7,19.5-46.4,19.5c-21.8,0-39-13.1-44.5-17.8l-15.1-3.8l-0.8,0.3l0.2,0.3l-0.6-0.2l-4.3,16.4l-12.3,25.2l-7.3,18
			c0.1,0.1,0.2,0.1,0.2,0.2h0.5c-7.8,22.1-15.3,50.1-15.8,77.9c0,0,20.4,19.7,99.7,19.8c79.3-0.1,99.7-19.8,99.7-19.8
			C546.7,390.6,539.2,362.5,531.4,340.5z"/>
		<path class="st16" d="M403,283.9l-15.2-3.8l-0.7,0.3l0.3,0.3l-0.6-0.2l-0.6,2.3c4.3,2.4,15.3,7.8,31.3,10.8L403,283.9z"/>
		<path class="st17" d="M381.3,298.1c-3.3,3.1-13.8,29.4-18.4,41.3c0.1,0,0.1,0.1,0.2,0.1h0.5c-7.8,22.1-15.3,50.1-15.8,77.9
			c0,0,2.2,2.1,7.9,5C353.5,378,381.3,298.1,381.3,298.1z"/>
		<path class="st18" d="M499.9,290.7c-19.6,18.7-47.5,19.2-52,19.1c0,0-0.1,0-0.1,0h-0.5c0,0-0.1,0-0.1,0c-4.6,0-32.4-0.5-52-19.1
			c-0.2-0.2-0.5-0.2-0.7,0c-0.2,0.2-0.2,0.5,0,0.7c20.5,19.5,49.8,19.5,53.1,19.4c0.2,0,0.5,0,0.8,0c5.8,0,32.9-1,52.3-19.4
			c0.2-0.2,0.2-0.5,0-0.7C500.4,290.5,500.1,290.5,499.9,290.7z"/>
		<path class="st19" d="M446.8,383c39.3,0,85.3-8.1,94.3-9.8c-2.8-11.8-6.2-22.9-9.7-32.8h0.5c0.2-0.2,0.5-0.4,0.7-0.6l-1.8-4.9
			l-6.6-13.8c-66.6,14.5-147.4,0.9-153.5-0.1l-0.5,1.1l-7.3,18c0.1,0.1,0.2,0.1,0.2,0.2h0.5c-3.6,10-7,21.3-9.8,33.2
			C357.5,374.4,404.7,383,446.8,383z"/>
		<path class="st16" d="M531.9,340.5c0.2-0.2,0.5-0.4,0.7-0.6l-1.8-4.9L512.6,297l-6.9-18.4l-0.4-0.7l-3,1.1l-8.4,3.1l-10.1,7.8
			c8.5-2,15.1-4.1,19.4-5.7c5.2,32.5,12.2,119-53.5,153.8c77.5-0.4,97.6-19.8,97.6-19.8c-0.6-27.8-8-55.8-15.8-77.9H531.9z"/>
		<path class="st18" d="M533.6,340.1l-0.6-1.5c-2.7-6.8-5.3-13.1-7.8-18.5c10.5-2.3,15.9-6.6,15.9-6.6c1.6-1.2,2.4-2.1,2.5-2.4
			c0.1-0.3,0-0.5-0.1-0.7c-0.8-1-1.8-2.1-2.8-3.3c-12.3-13.7-32.8-30.5-32.8-30.5l-2.1,0.6c0,0,0,0,0,0l-0.6,0l0,0l0-0.1l-11.4,4.3
			c-0.1,0-0.2,0.1-0.3,0.2c-0.2,0.2-19.8,19.3-45.8,19.3c-21.2,0-37.8-12.3-44-17.6c-0.1-0.1-0.2-0.1-0.3-0.2l-16.4-4.1
			c-0.1,0-0.3,0-0.4,0l-1.7-0.5c0,0-20.4,16.1-32.8,29.1c-1.1,1.1-2.1,2.2-2.8,3.1c-0.2,0.2-0.2,0.5-0.1,0.7
			c0.1,0.3,0.8,1.2,2.5,2.3c0,0,6.3,4.8,18.5,6.8c-2.4,5.4-5,11.6-7.6,18.2l-0.6,1.5c-8.8,23-17,51.9-16.1,78l4.5,2.7
			c0.8,0.6,1.9,1.2,3.2,1.9l0,0c6.7,3.7,19.8,9.1,43,12.5c0,0,0,0,0,0c0,0,0,0,0,0c13.4,2,30.1,3.4,50.9,3.4c0,0,0,0,0,0h0.7
			c0,0,0,0,0,0c78.4-0.1,99-19.2,99.9-20l0.5-2.6C547.9,388.9,542,362,533.6,340.1z M546,416.5c-24.2,16-78.6,19.3-114.8,19.6
			c-44.1-0.3-72.2-12.1-73.9-12.9c-5.4-2.5-8.1-4.6-8.8-5.2c0.8-37.1,14.1-74.8,23.9-97.9l0.6-1.5c5.4-12.6,9.6-20.4,9.7-20.7
			c0.2-0.4,0.1-0.8-0.3-1c-0.4-0.2-0.8-0.1-1,0.3c0,0-4.6,8.2-10.5,21.1c-2.7-0.5-5.9-1.3-8.9-2.4c0,0,0,0,0,0
			c-0.6-0.2-1.1-0.4-1.7-0.6c-4-1.6-7.5-4-7.5-4h0c1.2-1.6,3.7-4.8,8.9-10c3.7-3.6,18.1-15.5,18.2-15.6c2.8-2.1,5.2-4,6.9-5.3
			l0.6,0.2l15.3,3.8c6.4,5.5,23.2,17.8,44.8,17.9c0,0,0,0,0,0c0,0,0,0,0,0c25.6,0,45-18,46.7-19.6l10.8-4l0,0l0.6-0.2
			c1.7,1.4,4.1,3.3,6.9,5.5c0.1,0.1,14.5,12.5,18.2,16.3c5.2,5.4,7.7,8.8,8.9,10.5h0c0,0-3.5,2.6-7.5,4.2c-0.6,0.2-1.1,0.4-1.7,0.6
			c0,0,0,0,0,0c-2.1,0.8-4.3,1.4-6.4,1.9c-5.9-12.7-10.5-20.4-10.5-20.4c-0.2-0.4-0.7-0.5-1-0.3c-0.4,0.2-0.5,0.7-0.3,1
			c0.1,0.2,2.7,5,6.5,13.2c1,2.4,2,4.7,2.9,7l0.9,2.3c5.8,14.3,10.3,26.6,13.6,37.3c5.1,17.3,9.3,36.9,10.1,56.3
			C546.2,415.8,546,416.5,546,416.5z"/>
	</g>
	<path class="st19" d="M364.4,333.6c1.9-4.7,3.8-9.1,5.6-13l0.7-1.5l-4.4-0.1l-15.6-7.1l-8.3,10.4l15.3,9.6L364.4,333.6z"/>
	<path class="st19" d="M525.2,320.1c1.7,3.8,3.6,7.9,5.4,12.4l6.2-1.6l15.3-9.6l-8.3-10.4l-15.6,7.1l-4,0.1L525.2,320.1z"/>
	<path class="st20" d="M370.9,318.4l0.1-0.2c-0.2-0.1-0.3-0.1-0.5-0.1c-0.1,0-7.6-0.6-20-8.1c-0.7-0.4-1.5-0.2-2,0.4
		c0,0.1-3.9,5.2-8.2,10.5c-0.5,0.6-0.4,1.5,0.1,2c0.4,0.4,9.6,9.4,23.4,11.9c0.4-1,0.8-1.9,1.1-2.8c-10.7-1.8-18.8-8-21.5-10.3
		c2.8-3.5,5.3-6.8,6.5-8.4c10.6,6.3,17.7,7.6,19.6,7.8c0.1-0.1,0.1-0.3,0.2-0.4L370.9,318.4L370.9,318.4z"/>
	<path class="st20" d="M554.1,319.8c-4.3-5.3-8.1-10.4-8.2-10.5c-0.5-0.6-1.3-0.8-2-0.4c-12.3,7.6-19.9,8.1-20,8.1
		c-0.1,0-0.2,0-0.3,0.1l0.4,0.6l1,2.2c2.4-0.4,9.2-1.8,19.3-7.8c1.2,1.6,3.8,4.9,6.5,8.4c-2.7,2.3-10.5,8.4-21,10.3
		c0.4,0.9,0.8,1.9,1.2,2.8c13.5-2.6,22.6-11.5,23-11.9C554.5,321.2,554.6,320.4,554.1,319.8z"/>
	<linearGradient id="SVGID_6_" gradientUnits="userSpaceOnUse" x1="351.4384" y1="552.0009" x2="431.9885" y2="552.0009">
		<stop  offset="0" style="stop-color:#FDEBD1"/>
		<stop  offset="0.899" style="stop-color:#F9E8B4"/>
		<stop  offset="1" style="stop-color:#F8E8B0"/>
	</linearGradient>
	<path class="st10" d="M352,547.6c1.1-4.7,4.3-8.9,7.4-12.6c0.7-0.9,1.5-1.7,2.2-2.6c0.4-0.4,0.7-0.8,1.1-1.2
		c0.4-0.4,1.1-0.7,1.7-0.9c0.2-0.1,0.5-0.2,0.7-0.3c0.7-0.3,1.4-0.6,2.1-0.8c2.3-0.8,4.8-1.2,7.2-1.5c3.9-0.5,7.9-0.6,11.8-0.4
		c3.9,0.2,7.7,0.6,11.5,1.1c26.3,3.8,34.6,30.9,34.3,42.6c0,0.2,0,0.3,0.1,0.4c-28.1,12.1-72.3,0.3-76.6-0.9
		C354.5,568.4,349.9,556.4,352,547.6z"/>
	<linearGradient id="SVGID_7_" gradientUnits="userSpaceOnUse" x1="355.0151" y1="572.0172" x2="444.8969" y2="572.0172">
		<stop  offset="0" style="stop-color:#FDEBD1"/>
		<stop  offset="0.899" style="stop-color:#F9E8B4"/>
		<stop  offset="1" style="stop-color:#F8E8B0"/>
	</linearGradient>
	<path style="fill:url(#SVGID_7_);" d="M444.5,568.7c-2.1,3.8-10,12.5-38.3,13.9c-25.5,1.2-47.6-4.7-50.7-5.6
		c-0.7-2.3-0.4-4.1-0.1-4.9c3.9,1.1,24,6.2,45.2,6.2c11.5,0,23.3-1.5,33.1-6c0.4-0.2,8.5-5.1,11.3-11
		C444.9,564,444.6,567.1,444.5,568.7z"/>
	<linearGradient id="SVGID_8_" gradientUnits="userSpaceOnUse" x1="409.5356" y1="560.7172" x2="431.9885" y2="560.7172">
		<stop  offset="0" style="stop-color:#FDEBD1"/>
		<stop  offset="0.899" style="stop-color:#F9E8B4"/>
		<stop  offset="1" style="stop-color:#F8E8B0"/>
	</linearGradient>
	<path style="opacity:0.5;fill:url(#SVGID_8_);" d="M409.5,576.5c7.9-0.6,15.7-2.1,22.5-5.1c-0.1-0.1-0.1-0.3-0.1-0.4
		c0.1-6.3-2.2-16.9-8.3-26C424,552.8,423.4,570.2,409.5,576.5z"/>
	<linearGradient id="SVGID_9_" gradientUnits="userSpaceOnUse" x1="423.3945" y1="570.8732" x2="444.8969" y2="570.8732">
		<stop  offset="0" style="stop-color:#FDEBD1"/>
		<stop  offset="0.899" style="stop-color:#F9E8B4"/>
		<stop  offset="1" style="stop-color:#F8E8B0"/>
	</linearGradient>
	<path style="opacity:0.5;fill:url(#SVGID_9_);" d="M428.6,574.3l-5.2,6.1c14.5-3.2,19.5-8.8,21.1-11.7c0.2-1.6,0.5-4.7,0.4-7.4
		c-2.8,5.9-10.9,10.8-11.3,11C432,573.1,430.3,573.7,428.6,574.3z"/>
	<path class="st25" d="M443.7,553.8c-1,5.8-2.5,9.8-5.6,13.8c0,0,0,0.1-0.1,0.1c3.5-2.6,5-5.3,5-5.3s2-4.2,1.8-5.9
		C444.8,555.8,444.3,554.8,443.7,553.8z"/>
	<path class="st26" d="M445.9,557.4c-0.1-0.9-0.4-2.3-1.2-4.3c-0.1-0.3-0.4-0.5-0.8-0.6c-0.1,1-0.3,2-0.5,2.9
		c0.4,1.4,0.5,2.2,0.5,2.6c-0.1,1.1-0.1,1.8-0.1,2.1c-1.8,4.6-7.6,8.7-9.9,10.3c0-15.9-11.3-40.4-36.1-44
		c-5.1-0.7-10.3-1.2-15.5-1.2c-3.6,0-7.1,0.2-10.6,0.8c-2.2,0.4-4.3,0.9-6.4,1.7c-0.7,0.3-1.5,0.5-2.1,0.8c-1.1,0.6-1.7,1.7-2.5,2.6
		c-0.4,0.5-0.9,1-1.3,1.4c-0.9,1-1.7,2-2.5,3.1c-1.6,2.1-3.1,4.2-4.4,6.5c-0.9,1.6-1.7,3.4-2.1,5.2c-2.2,9.4,2.7,21.8,3.5,23.9
		c-0.3,0.9-1,3.3,0.1,6.7c0.1,0.2,0.3,0.4,0.5,0.5c0.2,0.1,20,5.9,44.5,5.9c2.3,0,4.7-0.1,7.1-0.2c29.4-1.4,37.5-10.8,39.6-14.8
		c0-0.1,0.1-0.2,0.1-0.3C446,568.7,447,560.5,445.9,557.4C445.9,557.4,445.9,557.4,445.9,557.4z M352,547.6
		c1.1-4.7,4.3-8.9,7.4-12.6c0.7-0.9,1.5-1.7,2.2-2.6c0.4-0.4,0.7-0.8,1.1-1.2c0.4-0.4,1.1-0.7,1.7-0.9c0.2-0.1,0.5-0.2,0.7-0.3
		c0.7-0.3,1.4-0.6,2.1-0.8c2.3-0.8,4.8-1.2,7.2-1.5c3.9-0.5,7.9-0.6,11.8-0.4c3.9,0.2,7.7,0.6,11.5,1.1
		c26.3,3.8,34.6,30.9,34.3,42.6c0,0.2,0,0.3,0.1,0.4c-28.1,12.1-72.3,0.3-76.6-0.9C354.5,568.4,349.9,556.4,352,547.6z M444.5,568.7
		c-2.1,3.8-10,12.5-38.3,13.9c-25.5,1.2-47.6-4.7-50.7-5.6c-0.7-2.3-0.4-4.1-0.1-4.9c3.9,1.1,24,6.2,45.2,6.2
		c11.5,0,23.3-1.5,33.1-6c0.4-0.2,8.5-5.1,11.3-11C444.9,564,444.6,567.1,444.5,568.7z"/>
	
		<linearGradient id="SVGID_10_" gradientUnits="userSpaceOnUse" x1="2157.9712" y1="552.0009" x2="2238.5212" y2="552.0009" gradientTransform="matrix(-1 0 0 1 2700.4221 0)">
		<stop  offset="0" style="stop-color:#FDEBD1"/>
		<stop  offset="0.899" style="stop-color:#F9E8B4"/>
		<stop  offset="1" style="stop-color:#F8E8B0"/>
	</linearGradient>
	<path style="fill:url(#SVGID_10_);" d="M538.5,570.5c-4.4,1.2-48.6,13-76.6,0.9c0.1-0.1,0.1-0.3,0.1-0.4
		c-0.2-11.8,8.1-38.8,34.3-42.6c3.8-0.6,7.7-0.9,11.5-1.1c3.9-0.2,7.9-0.1,11.8,0.4c2.4,0.3,4.8,0.8,7.2,1.5
		c0.7,0.2,1.4,0.5,2.1,0.8c0.2,0.1,0.5,0.2,0.7,0.3c0.5,0.3,1.3,0.5,1.7,0.9c0.4,0.4,0.7,0.8,1.1,1.2c0.8,0.9,1.5,1.7,2.2,2.6
		c3,3.6,6.3,7.9,7.4,12.6C544,556.4,539.4,568.4,538.5,570.5z"/>
	
		<linearGradient id="SVGID_11_" gradientUnits="userSpaceOnUse" x1="2161.5479" y1="572.0172" x2="2251.4297" y2="572.0172" gradientTransform="matrix(-1 0 0 1 2700.4221 0)">
		<stop  offset="0" style="stop-color:#FDEBD1"/>
		<stop  offset="0.899" style="stop-color:#F9E8B4"/>
		<stop  offset="1" style="stop-color:#F8E8B0"/>
	</linearGradient>
	<path style="fill:url(#SVGID_11_);" d="M449,561.3c2.8,5.9,10.9,10.8,11.3,11c9.8,4.5,21.6,6,33.1,6c21.2,0,41.3-5.2,45.2-6.2
		c0.2,0.8,0.5,2.6-0.1,4.9c-3.2,0.9-25.2,6.8-50.7,5.6c-28.3-1.4-36.2-10-38.3-13.9C449.2,567.1,448.9,564,449,561.3z"/>
	
		<linearGradient id="SVGID_12_" gradientUnits="userSpaceOnUse" x1="2216.0684" y1="560.7172" x2="2238.5212" y2="560.7172" gradientTransform="matrix(-1 0 0 1 2700.4221 0)">
		<stop  offset="0" style="stop-color:#FDEBD1"/>
		<stop  offset="0.899" style="stop-color:#F9E8B4"/>
		<stop  offset="1" style="stop-color:#F8E8B0"/>
	</linearGradient>
	<path style="opacity:0.5;fill:url(#SVGID_12_);" d="M484.4,576.5c-7.9-0.6-15.7-2.1-22.5-5.1c0.1-0.1,0.1-0.3,0.1-0.4
		c-0.1-6.3,2.2-16.9,8.3-26C469.9,552.8,470.5,570.2,484.4,576.5z"/>
	
		<linearGradient id="SVGID_13_" gradientUnits="userSpaceOnUse" x1="2229.9272" y1="570.8732" x2="2251.4297" y2="570.8732" gradientTransform="matrix(-1 0 0 1 2700.4221 0)">
		<stop  offset="0" style="stop-color:#FDEBD1"/>
		<stop  offset="0.899" style="stop-color:#F9E8B4"/>
		<stop  offset="1" style="stop-color:#F8E8B0"/>
	</linearGradient>
	<path style="opacity:0.5;fill:url(#SVGID_13_);" d="M465.3,574.3l5.2,6.1c-14.5-3.2-19.5-8.8-21.1-11.7c-0.2-1.6-0.5-4.7-0.4-7.4
		c2.8,5.9,10.9,10.8,11.3,11C461.9,573.1,463.6,573.7,465.3,574.3z"/>
	<path class="st25" d="M450.2,553.8c1,5.8,2.5,9.8,5.6,13.8c0,0,0,0.1,0.1,0.1c-3.5-2.6-5-5.3-5-5.3s-2-4.2-1.8-5.9
		C449.1,555.8,449.6,554.8,450.2,553.8z"/>
	<path class="st26" d="M448,557.4c-1.1,3.1-0.1,11.3,0,11.6c0,0.1,0,0.2,0.1,0.3c2.1,4,10.3,13.4,39.6,14.8c2.4,0.1,4.8,0.2,7.1,0.2
		c24.5,0,44.3-5.8,44.5-5.9c0.2-0.1,0.4-0.3,0.5-0.5c1.1-3.4,0.4-5.8,0.1-6.7c0.9-2.1,5.7-14.5,3.5-23.9c-0.4-1.8-1.2-3.5-2.1-5.2
		c-1.2-2.3-2.7-4.4-4.4-6.5c-0.8-1-1.7-2.1-2.5-3.1c-0.4-0.5-0.8-1-1.3-1.4c-0.8-0.9-1.4-2-2.5-2.6c-0.7-0.4-1.4-0.6-2.1-0.8
		c-2.1-0.8-4.2-1.3-6.4-1.7c-3.5-0.6-7.1-0.8-10.6-0.8c-5.2,0-10.4,0.5-15.5,1.2c-24.8,3.6-36.1,28.1-36.1,44
		c-2.3-1.5-8.1-5.7-9.9-10.3c0-0.3-0.1-1-0.1-2.1c0-0.3,0.1-1.1,0.5-2.6c-0.2-0.9-0.3-1.9-0.5-2.9c-0.3,0.1-0.6,0.3-0.8,0.6
		C448.4,555.1,448.1,556.5,448,557.4C448,557.4,448,557.4,448,557.4z M538.5,570.5c-4.4,1.2-48.6,13-76.6,0.9
		c0.1-0.1,0.1-0.3,0.1-0.4c-0.2-11.8,8.1-38.8,34.3-42.6c3.8-0.6,7.7-0.9,11.5-1.1c3.9-0.2,7.9-0.1,11.8,0.4
		c2.4,0.3,4.8,0.8,7.2,1.5c0.7,0.2,1.4,0.5,2.1,0.8c0.2,0.1,0.5,0.2,0.7,0.3c0.5,0.3,1.3,0.5,1.7,0.9c0.4,0.4,0.7,0.8,1.1,1.2
		c0.8,0.9,1.5,1.7,2.2,2.6c3,3.6,6.3,7.9,7.4,12.6C544,556.4,539.4,568.4,538.5,570.5z M449,561.3c2.8,5.9,10.9,10.8,11.3,11
		c9.8,4.5,21.6,6,33.1,6c21.2,0,41.3-5.2,45.2-6.2c0.2,0.8,0.5,2.6-0.1,4.9c-3.2,0.9-25.2,6.8-50.7,5.6c-28.3-1.4-36.2-10-38.3-13.9
		C449.2,567.1,448.9,564,449,561.3z"/>
</g>
</svg>
