<?xml version="1.0" encoding="utf-8"?>
<!-- Generator: Adobe Illustrator 21.0.0, SVG Export Plug-In . SVG Version: 6.00 Build 0)  -->
<svg version="1.1" id="圖層_1" xmlns="http://www.w3.org/2000/svg" xmlns:xlink="http://www.w3.org/1999/xlink" x="0px" y="0px"
	 viewBox="0 0 148.7 33.9" style="enable-background:new 0 0 148.7 33.9;" xml:space="preserve">
<style type="text/css">
	.st0{fill:url(#SVGID_1_);}
	.st1{fill:url(#SVGID_2_);}
	.st2{fill:url(#SVGID_3_);}
	.st3{fill:url(#SVGID_4_);}
	.st4{fill:url(#SVGID_5_);}
	.st5{fill:url(#SVGID_6_);}
	.st6{fill:#DFF1FB;}
	.st7{fill:#2C64AF;}
	.st8{fill:url(#SVGID_7_);}
	.st9{fill:url(#SVGID_8_);}
	.st10{fill:url(#SVGID_9_);}
	.st11{fill:url(#SVGID_10_);}
	.st12{fill:url(#SVGID_11_);}
	.st13{fill:url(#SVGID_12_);}
	.st14{fill:url(#SVGID_13_);}
	.st15{fill:url(#SVGID_14_);}
	.st16{fill:url(#SVGID_15_);}
	.st17{fill:url(#SVGID_16_);}
</style>
<g>
	<g>
		<linearGradient id="SVGID_1_" gradientUnits="userSpaceOnUse" x1="-5.0976" y1="16.9624" x2="17.5191" y2="16.9624">
			<stop  offset="0" style="stop-color:#2EA7E0"/>
			<stop  offset="1" style="stop-color:#FFFFFF;stop-opacity:0"/>
		</linearGradient>
		<path class="st0" d="M148.2,30.4c0,1.7-1.4,3-3,3H3.5c-1.7,0-3-1.4-3-3V3.5c0-1.7,1.4-3,3-3h141.7c1.7,0,3,1.4,3,3V30.4z"/>
		<linearGradient id="SVGID_2_" gradientUnits="userSpaceOnUse" x1="156.8144" y1="16.9624" x2="119.074" y2="16.9624">
			<stop  offset="0" style="stop-color:#2EA7E0"/>
			<stop  offset="1" style="stop-color:#FFFFFF;stop-opacity:0"/>
		</linearGradient>
		<path class="st1" d="M148.2,30.4c0,1.7-1.4,3-3,3H3.5c-1.7,0-3-1.4-3-3V3.5c0-1.7,1.4-3,3-3h141.7c1.7,0,3,1.4,3,3V30.4z"/>
		<linearGradient id="SVGID_3_" gradientUnits="userSpaceOnUse" x1="74.3508" y1="39.8106" x2="74.3508" y2="18.6579">
			<stop  offset="0" style="stop-color:#2EA7E0"/>
			<stop  offset="1" style="stop-color:#FFFFFF;stop-opacity:0"/>
		</linearGradient>
		<path class="st2" d="M148.2,30.4c0,1.7-1.4,3-3,3H3.5c-1.7,0-3-1.4-3-3V3.5c0-1.7,1.4-3,3-3h141.7c1.7,0,3,1.4,3,3V30.4z"/>
		<linearGradient id="SVGID_4_" gradientUnits="userSpaceOnUse" x1="74.3508" y1="-3.8279" x2="74.3508" y2="6.2788">
			<stop  offset="6.060610e-03" style="stop-color:#2EA7E0"/>
			<stop  offset="1" style="stop-color:#FFFFFF;stop-opacity:0"/>
		</linearGradient>
		<path class="st3" d="M148.2,30.4c0,1.7-1.4,3-3,3H3.5c-1.7,0-3-1.4-3-3V3.5c0-1.7,1.4-3,3-3h141.7c1.7,0,3,1.4,3,3V30.4z"/>
		<radialGradient id="SVGID_5_" cx="168.8718" cy="-2.3032" r="43.9248" gradientUnits="userSpaceOnUse">
			<stop  offset="0" style="stop-color:#00A0E9"/>
			<stop  offset="1" style="stop-color:#FFFFFF;stop-opacity:0"/>
		</radialGradient>
		<path class="st4" d="M148.2,30.4c0,1.7-1.4,3-3,3H3.5c-1.7,0-3-1.4-3-3V3.5c0-1.7,1.4-3,3-3h141.7c1.7,0,3,1.4,3,3V30.4z"/>
		<radialGradient id="SVGID_6_" cx="-9.619" cy="38.6678" r="49.2882" gradientUnits="userSpaceOnUse">
			<stop  offset="0" style="stop-color:#00A0E9"/>
			<stop  offset="1" style="stop-color:#FFFFFF;stop-opacity:0"/>
		</radialGradient>
		<path class="st5" d="M148.2,30.4c0,1.7-1.4,3-3,3H3.5c-1.7,0-3-1.4-3-3V3.5c0-1.7,1.4-3,3-3h141.7c1.7,0,3,1.4,3,3V30.4z"/>
	</g>
	<g>
		<g>
			<path class="st6" d="M145.2,0.5c1.7,0,3,1.4,3,3v26.9c0,1.7-1.4,3-3,3H3.5c-1.7,0-3-1.4-3-3V3.5c0-1.7,1.4-3,3-3H145.2 M145.2,0
				H3.5C1.6,0,0,1.6,0,3.5v26.9c0,1.9,1.6,3.5,3.5,3.5h141.7c1.9,0,3.5-1.6,3.5-3.5V3.5C148.7,1.6,147.1,0,145.2,0L145.2,0z"/>
		</g>
		<g>
			<path class="st6" d="M145.2,0.5c1.7,0,3,1.4,3,3v26.9c0,1.7-1.4,3-3,3H3.5c-1.7,0-3-1.4-3-3V3.5c0-1.7,1.4-3,3-3H145.2 M145.2,0
				H3.5C1.6,0,0,1.6,0,3.5v26.9c0,1.9,1.6,3.5,3.5,3.5h141.7c1.9,0,3.5-1.6,3.5-3.5V3.5C148.7,1.6,147.1,0,145.2,0L145.2,0z"/>
		</g>
		<g>
			<path class="st6" d="M145.2,0.5c1.7,0,3,1.4,3,3v26.9c0,1.7-1.4,3-3,3H3.5c-1.7,0-3-1.4-3-3V3.5c0-1.7,1.4-3,3-3H145.2 M145.2,0
				H3.5C1.6,0,0,1.6,0,3.5v26.9c0,1.9,1.6,3.5,3.5,3.5h141.7c1.9,0,3.5-1.6,3.5-3.5V3.5C148.7,1.6,147.1,0,145.2,0L145.2,0z"/>
		</g>
		<g>
			<path class="st6" d="M145.2,0.5c1.7,0,3,1.4,3,3v26.9c0,1.7-1.4,3-3,3H3.5c-1.7,0-3-1.4-3-3V3.5c0-1.7,1.4-3,3-3H145.2 M145.2,0
				H3.5C1.6,0,0,1.6,0,3.5v26.9c0,1.9,1.6,3.5,3.5,3.5h141.7c1.9,0,3.5-1.6,3.5-3.5V3.5C148.7,1.6,147.1,0,145.2,0L145.2,0z"/>
		</g>
		<g>
			<path class="st6" d="M145.2,0.5c1.7,0,3,1.4,3,3v26.9c0,1.7-1.4,3-3,3H3.5c-1.7,0-3-1.4-3-3V3.5c0-1.7,1.4-3,3-3H145.2 M145.2,0
				H3.5C1.6,0,0,1.6,0,3.5v26.9c0,1.9,1.6,3.5,3.5,3.5h141.7c1.9,0,3.5-1.6,3.5-3.5V3.5C148.7,1.6,147.1,0,145.2,0L145.2,0z"/>
		</g>
		<g>
			<path class="st6" d="M145.2,0.5c1.7,0,3,1.4,3,3v26.9c0,1.7-1.4,3-3,3H3.5c-1.7,0-3-1.4-3-3V3.5c0-1.7,1.4-3,3-3H145.2 M145.2,0
				H3.5C1.6,0,0,1.6,0,3.5v26.9c0,1.9,1.6,3.5,3.5,3.5h141.7c1.9,0,3.5-1.6,3.5-3.5V3.5C148.7,1.6,147.1,0,145.2,0L145.2,0z"/>
		</g>
	</g>
	<path class="st7" d="M147,29c0,1.6-1.3,2.9-2.9,2.9H5.1c-1.6,0-2.9-1.3-2.9-2.9V4.9C2.2,3.3,3.5,2,5.1,2h139c1.6,0,2.9,1.3,2.9,2.9
		V29z"/>
	<g>
		<linearGradient id="SVGID_7_" gradientUnits="userSpaceOnUse" x1="74.6123" y1="-14.1774" x2="74.6123" y2="8.6209">
			<stop  offset="0" style="stop-color:#00A0E9"/>
			<stop  offset="1" style="stop-color:#00A0E9;stop-opacity:0"/>
		</linearGradient>
		<path class="st8" d="M147,29c0,1.6-1.3,2.9-2.9,2.9H5.1c-1.6,0-2.9-1.3-2.9-2.9V4.9C2.2,3.3,3.5,2,5.1,2h139
			c1.6,0,2.9,1.3,2.9,2.9V29z"/>
		<linearGradient id="SVGID_8_" gradientUnits="userSpaceOnUse" x1="74.6123" y1="48.1564" x2="74.6123" y2="20.099">
			<stop  offset="0" style="stop-color:#00A0E9"/>
			<stop  offset="1" style="stop-color:#00A0E9;stop-opacity:0"/>
		</linearGradient>
		<path class="st9" d="M147,29c0,1.6-1.3,2.9-2.9,2.9H5.1c-1.6,0-2.9-1.3-2.9-2.9V4.9C2.2,3.3,3.5,2,5.1,2h139
			c1.6,0,2.9,1.3,2.9,2.9V29z"/>
		<radialGradient id="SVGID_9_" cx="166.7532" cy="-51.5222" r="96.7617" gradientUnits="userSpaceOnUse">
			<stop  offset="0" style="stop-color:#00A0E9"/>
			<stop  offset="1" style="stop-color:#00A0E9;stop-opacity:0"/>
		</radialGradient>
		<path class="st10" d="M147,29c0,1.6-1.3,2.9-2.9,2.9H5.1c-1.6,0-2.9-1.3-2.9-2.9V4.9C2.2,3.3,3.5,2,5.1,2h139
			c1.6,0,2.9,1.3,2.9,2.9V29z"/>
		<radialGradient id="SVGID_10_" cx="-23.8949" cy="20.9717" r="36.8198" gradientUnits="userSpaceOnUse">
			<stop  offset="0" style="stop-color:#00A0E9"/>
			<stop  offset="1" style="stop-color:#00A0E9;stop-opacity:0"/>
		</radialGradient>
		<path class="st11" d="M147,29c0,1.6-1.3,2.9-2.9,2.9H5.1c-1.6,0-2.9-1.3-2.9-2.9V4.9C2.2,3.3,3.5,2,5.1,2h139
			c1.6,0,2.9,1.3,2.9,2.9V29z"/>
		<radialGradient id="SVGID_11_" cx="172.7843" cy="19.3241" r="39.5498" gradientUnits="userSpaceOnUse">
			<stop  offset="0" style="stop-color:#00A0E9"/>
			<stop  offset="1" style="stop-color:#00A0E9;stop-opacity:0"/>
		</radialGradient>
		<path class="st12" d="M147,29c0,1.6-1.3,2.9-2.9,2.9H5.1c-1.6,0-2.9-1.3-2.9-2.9V4.9C2.2,3.3,3.5,2,5.1,2h139
			c1.6,0,2.9,1.3,2.9,2.9V29z"/>
	</g>
	<g>
		<linearGradient id="SVGID_12_" gradientUnits="userSpaceOnUse" x1="74.6123" y1="-14.1774" x2="74.6123" y2="8.6209">
			<stop  offset="0" style="stop-color:#00A0E9"/>
			<stop  offset="1" style="stop-color:#00A0E9;stop-opacity:0"/>
		</linearGradient>
		<path class="st13" d="M147,29c0,1.6-1.3,2.9-2.9,2.9H5.1c-1.6,0-2.9-1.3-2.9-2.9V4.9C2.2,3.3,3.5,2,5.1,2h139
			c1.6,0,2.9,1.3,2.9,2.9V29z"/>
		<linearGradient id="SVGID_13_" gradientUnits="userSpaceOnUse" x1="74.6123" y1="48.1564" x2="74.6123" y2="20.099">
			<stop  offset="0" style="stop-color:#00A0E9"/>
			<stop  offset="1" style="stop-color:#00A0E9;stop-opacity:0"/>
		</linearGradient>
		<path class="st14" d="M147,29c0,1.6-1.3,2.9-2.9,2.9H5.1c-1.6,0-2.9-1.3-2.9-2.9V4.9C2.2,3.3,3.5,2,5.1,2h139
			c1.6,0,2.9,1.3,2.9,2.9V29z"/>
		<radialGradient id="SVGID_14_" cx="166.7532" cy="-51.5222" r="96.7617" gradientUnits="userSpaceOnUse">
			<stop  offset="0" style="stop-color:#00A0E9"/>
			<stop  offset="1" style="stop-color:#00A0E9;stop-opacity:0"/>
		</radialGradient>
		<path class="st15" d="M147,29c0,1.6-1.3,2.9-2.9,2.9H5.1c-1.6,0-2.9-1.3-2.9-2.9V4.9C2.2,3.3,3.5,2,5.1,2h139
			c1.6,0,2.9,1.3,2.9,2.9V29z"/>
		<radialGradient id="SVGID_15_" cx="-23.8949" cy="20.9717" r="36.8198" gradientUnits="userSpaceOnUse">
			<stop  offset="0" style="stop-color:#00A0E9"/>
			<stop  offset="1" style="stop-color:#00A0E9;stop-opacity:0"/>
		</radialGradient>
		<path class="st16" d="M147,29c0,1.6-1.3,2.9-2.9,2.9H5.1c-1.6,0-2.9-1.3-2.9-2.9V4.9C2.2,3.3,3.5,2,5.1,2h139
			c1.6,0,2.9,1.3,2.9,2.9V29z"/>
		<radialGradient id="SVGID_16_" cx="172.7843" cy="19.3241" r="39.5498" gradientUnits="userSpaceOnUse">
			<stop  offset="0" style="stop-color:#00A0E9"/>
			<stop  offset="1" style="stop-color:#00A0E9;stop-opacity:0"/>
		</radialGradient>
		<path class="st17" d="M147,29c0,1.6-1.3,2.9-2.9,2.9H5.1c-1.6,0-2.9-1.3-2.9-2.9V4.9C2.2,3.3,3.5,2,5.1,2h139
			c1.6,0,2.9,1.3,2.9,2.9V29z"/>
	</g>
</g>
</svg>
