<?xml version="1.0" encoding="utf-8"?>
<!-- Generator: Adobe Illustrator 21.0.0, SVG Export Plug-In . SVG Version: 6.00 Build 0)  -->
<svg version="1.1" id="圖層_1" xmlns="http://www.w3.org/2000/svg" xmlns:xlink="http://www.w3.org/1999/xlink" x="0px" y="0px"
	 viewBox="0 0 822.9 601.4" style="enable-background:new 0 0 822.9 601.4;" xml:space="preserve">
<style type="text/css">
	.st0{fill:url(#SVGID_1_);}
	.st1{fill:#CE9245;}
	.st2{fill:#A66A22;}
	.st3{opacity:0.6;fill:#CE9245;enable-background:new    ;}
	.st4{fill:url(#SVGID_2_);}
	.st5{fill:#FFFFFF;}
	.st6{fill:#C3B6A7;}
	.st7{fill:#E4E2DE;}
	.st8{fill:url(#SVGID_3_);}
	.st9{opacity:0.4;fill:#425A6B;enable-background:new    ;}
	.st10{fill:#28404E;}
	.st11{fill:#425A6B;}
	.st12{opacity:0.5;fill:url(#SVGID_4_);enable-background:new    ;}
	.st13{fill:#1B323C;}
	.st14{fill:#4B81AF;}
</style>
<g>
	<path class="st5" d="M350.2,431.7c4.7,1.6,38.5,12.4,97.1,12.4c58.4,0,92.6-10.8,97.5-12.4c2.8-58.1-20.9-109.3-23.6-115
		c-2.2-4.7-18.4-32.8-21.1-37.5l-8.6,2.3c-2.1,1.6-22.5,16.6-46.7,16.6c-24.1,0-38.1-12.4-40-14.2c-5.2-1.1-10-1.9-11.7-2.2
		c-5.8,10.2-20.4,37.3-20.5,37.6C344.9,373.8,349.5,425.6,350.2,431.7z"/>
	<path class="st6" d="M447.3,446.2c-63.4,0-98.1-12.6-98.4-12.8c-0.3-0.1-0.6-0.4-0.6-0.8c-0.1-0.6-7.1-55.9,22.5-114.2
		c0.2-0.3,15.4-28.6,20.9-38.3c0.2-0.4,0.6-0.6,1-0.5c0.1,0,6.2,1,12.8,2.4c0.2,0,0.4,0.1,0.5,0.3c0.1,0.1,14.2,13.8,38.8,13.8
		c24.7,0,45.4-16.1,45.6-16.3c0.1-0.1,0.2-0.1,0.4-0.2l9.6-2.6c0.4-0.1,0.9,0.1,1.1,0.5c0.8,1.4,19.1,33.2,21.6,38.3
		c2.8,5.7,26.8,57.7,23.8,116.6c0,0.4-0.3,0.7-0.7,0.9C545.8,433.5,510.8,446.2,447.3,446.2z M350.2,431.7
		c4.7,1.6,38.5,12.4,97.1,12.4c58.4,0,92.6-10.8,97.5-12.4c2.8-58.1-20.9-109.3-23.6-115c-2.2-4.7-18.4-32.8-21.1-37.5l-8.6,2.3
		c-2.1,1.6-22.5,16.6-46.7,16.6c-24.1,0-38.1-12.4-40-14.2c-5.2-1.1-10-1.9-11.7-2.2c-5.8,10.2-20.4,37.3-20.5,37.6
		C344.9,373.8,349.5,425.6,350.2,431.7z"/>
	<path class="st6" d="M445.1,302.8c-33,0-44.6-17.2-44.7-17.4c-0.2-0.2-0.1-0.5,0.1-0.7s0.5-0.1,0.7,0.1
		c0.1,0.2,11.5,16.9,43.9,16.9c32.5,0,47.6-16.8,47.8-17c0.2-0.2,0.5-0.2,0.7,0s0.2,0.5,0,0.7C493.5,285.7,478,302.8,445.1,302.8z"
		/>
	<path class="st7" d="M503.1,284.3c6.3,16.8,31.5,87.7,28.7,151c7.1-1.7,11.5-3.1,13.1-3.6c2.8-58.1-20.9-109.3-23.6-115
		C519.5,313,508.7,294.1,503.1,284.3z"/>
</g>
<g>
	
		<linearGradient id="SVGID_1_" gradientUnits="userSpaceOnUse" x1="344.3952" y1="185.6485" x2="550.6047" y2="185.6485" gradientTransform="matrix(1 0 0 -1 0 602)">
		<stop  offset="0" style="stop-color:#6589A1"/>
		<stop  offset="1" style="stop-color:#2E4656"/>
	</linearGradient>
	<path class="st0" d="M489.1,512.4c-12,0-25.5-0.9-39.1-3.7c-0.4-0.1-0.8-0.5-0.8-0.9l-1.7-28.3l-1.7,28.3c0,0.5-0.4,0.8-0.8,0.9
		c-40.5,8.2-80.7,0.1-81.1,0c-0.4-0.1-0.6-0.3-0.8-0.7l-5-16.3c-4.1-10.5-9-23.5-8.4-25.1c0.4-1.2,0.3-7.4,0.3-9.7c0-0.5,0-1,0-1.2
		c0-0.8-1.4-4.1-2.7-6.7c-0.1-0.1-0.1-0.3-0.1-0.5c0,0,0.1-4.7,0.1-7.7c-0.1-2.7-1.2-4.8-1.2-4.8c0-0.1-0.1-0.1-0.1-0.2
		c-0.2-0.5-1.7-5.1-1.6-7c0.1-1.7,1.2-5.3,1.5-6.2c-1.9-31.9,10.5-70.7,14.5-83.4c0.7-2.1,1.3-4,1.3-4.3c0.2-2.6,2.7-6.7,2.8-6.9
		c0.1-0.2,0.3-0.3,0.5-0.4c0.6-0.3,15.4-6.7,21.2-7.2c5.6-0.4,58.3,0,61.3,0s55.7-0.4,61.3,0c5.8,0.5,20.6,6.9,21.2,7.2
		c0.2,0.1,0.4,0.2,0.5,0.4c0.1,0.2,2.5,4.3,2.8,6.9c0,0.3,0.6,2.2,1.3,4.3c4.1,12.8,16.4,51.5,14.5,83.4c0.3,0.9,1.4,4.5,1.5,6.2
		c0.1,1.9-1.4,6.5-1.6,7c0,0.1,0,0.1-0.1,0.2c0,0-1.2,2.1-1.2,4.8c-0.1,3,0,7.6,0.1,7.7c0,0.2,0,0.3-0.1,0.5
		c-1.3,2.6-2.7,5.8-2.7,6.7c0,0.3,0,0.7,0,1.2c0,2.3-0.1,8.5,0.3,9.7c0.5,1.7-4.3,14.6-8.4,25.2L532,508c-0.1,0.3-0.4,0.6-0.8,0.7
		C530.8,508.7,512.9,512.4,489.1,512.4z"/>
	<path class="st9" d="M350.9,469.1c0,0,35.2,7.7,42.5,9.1s13.6,0.9,13.6,0.9s-12.5,3.1-22.5,4.3
		C374.5,484.7,350.9,469.1,350.9,469.1"/>
	<path class="st9" d="M539.2,474.5c0,0-3.8-3.2-12.5,0s-10,3.2-18.9,5c-8.9,1.8-19.1,2.2-19.1,2.2s25.8,3,27.8,3.1c2,0,9.6,0,9.6,0
		L539.2,474.5z"/>
	<path class="st9" d="M539.2,449.9c0,0-31.1-10.5-34.7-10.4s-12.4-1.3-22-1.7"/>
	<g>
		<path class="st10" d="M481.3,430.1c4.7-0.3,9.3-0.5,14-0.6c2.3-0.1,4.7-0.1,7,0c1.2,0,2.4,0.2,3.4,0.1c1.1-0.1,2.3-0.3,3.4-0.5
			c4.5-1,9-2.4,13.3-3.9l6.5-2.6c2.2-0.8,4.3-1.7,6.5-2.5c-2.1,1-4.2,2-6.3,3l-6.4,2.9c-1.1,0.5-2.2,0.8-3.3,1.2
			c-1.1,0.4-2.2,0.7-3.3,1.1c-2.2,0.7-4.5,1.3-6.8,1.8c-1.2,0.2-2.3,0.4-3.5,0.5c-1.3,0.1-2.4-0.1-3.5-0.1c-2.3-0.1-4.6-0.1-7-0.1
			l-7-0.1L481.3,430.1z"/>
	</g>
	<g>
		<path class="st10" d="M543.7,421c-3.4,1.9-6.9,3.5-10.4,5s-7.1,2.9-10.8,4.1c3.4-1.9,6.9-3.5,10.4-5
			C536.5,423.6,540,422.1,543.7,421z"/>
	</g>
	<g>
		<path class="st11" d="M350.4,442.7c4,0.6,7.9,1.6,11.7,2.7c1.9,0.6,3.8,1.2,5.7,1.9c1.9,0.7,3.7,1.5,5.4,2.6
			c-1.9-0.7-3.8-1.2-5.7-1.8l-5.7-1.7C357.9,445.2,354.1,444,350.4,442.7z"/>
	</g>
	<g>
		<path class="st11" d="M367.3,452.9c2.3,0.1,4.6,0.3,6.9,0.6c2.3,0.3,4.6,0.7,6.9,1.3c1.1,0.3,2.3,0.7,3.3,1.1
			c1.1,0.5,2.1,1,3.2,1.4s2.1,0.7,3.2,1c1.1,0.2,2.3,0.3,3.3,0.2l0,0c0.9-0.3,1.7-0.6,2.6-0.9s1.7-0.6,2.6-0.8
			c-0.8,0.4-1.7,0.8-2.5,1.1c-0.8,0.4-1.7,0.7-2.5,1.1l0,0l0,0c-2.4,0.5-4.8,0-7-0.8c-1.1-0.4-2.2-0.9-3.2-1.4
			c-1-0.4-2.1-0.8-3.2-1.1C376.5,454.5,371.9,453.7,367.3,452.9z"/>
	</g>
	<g>
		<path class="st11" d="M355.9,465.5c1.8-0.2,3.6-0.2,5.4-0.1s3.6,0.3,5.4,0.9s3.4,1.7,4.7,2.9c1.4,1.2,2.6,2.6,3.6,4
			c-1.3-1.2-2.7-2.4-4.1-3.4c-1.4-1.1-2.9-2-4.6-2.5s-3.4-0.8-5.2-1C359.5,465.9,357.7,465.7,355.9,465.5z"/>
	</g>
	
		<linearGradient id="SVGID_2_" gradientUnits="userSpaceOnUse" x1="516.0595" y1="167.9096" x2="550.5643" y2="167.9096" gradientTransform="matrix(1 0 0 -1 0 602)">
		<stop  offset="0" style="stop-color:#6589A1"/>
		<stop  offset="1" style="stop-color:#2E4656"/>
	</linearGradient>
	<path style="opacity:0.5;fill:url(#SVGID_2_);enable-background:new    ;" d="M544.9,455.7c0-0.8,1.4-4.1,2.7-6.7
		c0.1-0.1,0.1-0.3,0.1-0.5c0,0-0.1-4.7-0.1-7.7c0.1-2.7,1.2-4.8,1.2-4.8c0-0.1,0.1-0.1,0.1-0.2c0.2-0.5,1.7-5.1,1.6-7
		c-0.1-1.7-1.2-5.3-1.5-6.2c1.3-22.2-4.2-47.6-9.1-65.4c0,0.3,5.1,50.8,0,63.7c-5.2,13-8.8,21.7-8.8,21.7v2.7l4.3,7.5l-2.7,8.5
		l-3,5.6l-4.9,12.1l3.5,11.6L520,506l-4,4.9c9.1-1,14.8-2.1,15-2.2c0.4-0.1,0.6-0.3,0.8-0.7l4.9-16.2c4.2-10.6,9-23.6,8.4-25.2
		c-0.4-1.2-0.3-7.4-0.3-9.7C544.9,456.3,544.9,455.9,544.9,455.7z"/>
	<path class="st13" d="M378.8,332.9c-1.8,0-3.3-1.5-3.3-3.3s1.5-3.3,3.3-3.3s3.3,1.5,3.3,3.3C382.1,331.4,380.7,332.9,378.8,332.9z
		 M378.8,327.3c-1.3,0-2.3,1-2.3,2.3s1,2.3,2.3,2.3s2.3-1,2.3-2.3C381.1,328.3,380.1,327.3,378.8,327.3z"/>
	<path class="st13" d="M489.1,512.4c-12,0-25.5-0.9-39.1-3.7c-0.4-0.1-0.8-0.5-0.8-0.9l-1.7-28.3l-1.7,28.3c0,0.5-0.4,0.8-0.8,0.9
		c-40.5,8.2-80.7,0.1-81.1,0c-0.4-0.1-0.6-0.3-0.8-0.7l-5-16.3c-4.1-10.5-9-23.5-8.4-25.1c0.4-1.2,0.3-7.4,0.3-9.7c0-0.5,0-1,0-1.2
		c0-0.8-1.4-4.1-2.7-6.7c-0.1-0.1-0.1-0.3-0.1-0.5c0,0,0.1-4.7,0.1-7.7c-0.1-2.7-1.2-4.8-1.2-4.8c0-0.1-0.1-0.1-0.1-0.2
		c-0.2-0.5-1.7-5.1-1.6-7c0.1-1.7,1.2-5.3,1.5-6.2c-1.9-31.9,10.5-70.7,14.5-83.4c0.7-2.1,1.3-4,1.3-4.3c0.2-2.6,2.7-6.7,2.8-6.9
		c0.1-0.2,0.3-0.3,0.5-0.4c0.6-0.3,15.4-6.7,21.2-7.2c5.6-0.4,58.3,0,61.3,0s55.7-0.4,61.3,0c5.8,0.5,20.6,6.9,21.2,7.2
		c0.2,0.1,0.4,0.2,0.5,0.4c0.1,0.2,2.5,4.3,2.8,6.9c0,0.3,0.6,2.2,1.3,4.3c4.1,12.8,16.4,51.5,14.5,83.4c0.3,0.9,1.4,4.5,1.5,6.2
		c0.1,1.9-1.4,6.5-1.6,7c0,0.1,0,0.1-0.1,0.2c0,0-1.2,2.1-1.2,4.8c-0.1,3,0,7.6,0.1,7.7c0,0.2,0,0.3-0.1,0.5
		c-1.3,2.6-2.7,5.8-2.7,6.7c0,0.3,0,0.7,0,1.2c0,2.3-0.1,8.5,0.3,9.7c0.5,1.7-4.3,14.6-8.4,25.2L532,508c-0.1,0.3-0.4,0.6-0.8,0.7
		C530.8,508.7,512.9,512.4,489.1,512.4z M451.1,506.9c37.2,7.3,73.9,0.9,78.9,0l4.8-15.7c3.5-9,8.4-22.3,8.4-24
		c-0.4-1.4-0.4-5.1-0.4-10.3c0-0.5,0-0.9,0-1.2c0-1.6,2.2-6,2.8-7.3c0-1-0.1-4.9,0-7.5c0.1-2.9,1.2-5.2,1.4-5.7
		c0.6-1.8,1.5-5.1,1.5-6.2c-0.1-1.4-1.1-4.7-1.5-5.9c0-0.1-0.1-0.2,0-0.4c1.9-31.6-10.4-70.2-14.4-82.9c-1-3.1-1.4-4.3-1.4-4.7
		c-0.2-1.7-1.6-4.5-2.3-5.8c-2.2-0.9-15.3-6.5-20.3-6.9c-5.4-0.4-57.9,0-61.1,0c0,0,0,0-0.1,0l0,0h-0.1l0,0c-2.5,0-55.7-0.4-61.1,0
		c-5,0.4-18.1,6-20.3,6.9c-0.7,1.3-2.2,4.1-2.3,5.8c0,0.5-0.4,1.6-1.4,4.7c-4,12.7-16.4,51.3-14.4,82.9c0,0.1,0,0.2,0,0.4
		c-0.4,1.2-1.4,4.6-1.5,5.9c-0.1,1.1,0.8,4.4,1.5,6.2c0.3,0.5,1.4,2.8,1.4,5.7c0.1,2.6,0,6.5,0,7.5c0.7,1.3,2.8,5.7,2.8,7.3
		c0,0.2,0,0.7,0,1.2c0.1,5.2,0,8.9-0.4,10.3c0,1.8,4.9,15,8.4,23.9l4.8,15.8c5,0.9,41.8,7.4,78.9,0l2.6-44.4v-0.4
		c0-0.3,0.1-0.5,0.3-0.7c0.4-0.4,1.1-0.4,1.5,0c0.2,0.2,0.3,0.5,0.3,0.7v0.4L451.1,506.9z"/>
	<path class="st13" d="M516.8,332.9c-1.8,0-3.3-1.5-3.3-3.3s1.5-3.3,3.3-3.3s3.3,1.5,3.3,3.3S518.6,332.9,516.8,332.9z M516.8,327.3
		c-1.3,0-2.3,1-2.3,2.3s1,2.3,2.3,2.3s2.3-1,2.3-2.3S518,327.3,516.8,327.3z"/>
	<path class="st14" d="M378.8,331.1c-0.2,0-0.3,0-0.5-0.1c-0.8-0.3-1.2-1.1-0.9-1.9c5.9-17.3,18.7-47,18.8-47.3
		c0.3-0.8,1.2-1.1,2-0.8c0.8,0.3,1.1,1.2,0.8,2c-0.1,0.3-12.9,29.8-18.7,47C380.1,330.7,379.5,331.1,378.8,331.1z"/>
	<path class="st14" d="M516.8,331.1c-0.6,0-1.2-0.4-1.4-1c-5.8-17.2-19.5-48.9-19.7-49.2c-0.3-0.8,0-1.6,0.8-2c0.8-0.3,1.6,0,2,0.8
		c0.1,0.3,13.9,32.1,19.8,49.4c0.3,0.8-0.2,1.6-0.9,1.9C517.1,331.1,517,331.1,516.8,331.1z"/>
</g>
</svg>
