<?xml version="1.0" encoding="utf-8"?>
<!-- Generator: Adobe Illustrator 21.0.0, SVG Export Plug-In . SVG Version: 6.00 Build 0)  -->
<svg version="1.1" id="圖層_1" xmlns="http://www.w3.org/2000/svg" xmlns:xlink="http://www.w3.org/1999/xlink" x="0px" y="0px"
	 viewBox="0 0 822.9 601.4" style="enable-background:new 0 0 822.9 601.4;" xml:space="preserve">
<style type="text/css">
	.st0{fill:#FFFFFF;}
	.st1{opacity:0.5;fill:#9FB8C6;}
	.st2{fill:url(#SVGID_1_);}
	.st3{opacity:0.3;fill:none;stroke:#9FB8C6;stroke-width:3.8811;stroke-linecap:round;stroke-linejoin:round;stroke-miterlimit:10;}
	.st4{fill:#325764;}
	.st5{fill:#4D7484;}
	.st6{fill:none;stroke:#B6C9D2;stroke-width:0.9703;stroke-linecap:round;stroke-linejoin:round;}
	.st7{fill:none;stroke:#B6C9D2;stroke-width:0.9703;stroke-linecap:round;stroke-linejoin:round;stroke-dasharray:5.9518,5.9518;}
	.st8{fill:none;stroke:#587F8C;stroke-width:0.9703;stroke-linecap:round;stroke-linejoin:round;stroke-miterlimit:10;}
</style>
<g>
	<path class="st0" d="M447.2,460.4c-0.1,0-0.2,0-0.4,0c-0.1,0-0.2,0-0.4,0H447.2z"/>
	<path class="st1" d="M468.9,464.2c39.5-2.4,61.1-9.3,73-14.4c0.2-5.3,0.2-8.5,0.2-8.5s-54.3,13.9-95.4,13.9
		c-41.1,0-95.3-13.9-95.3-13.9s0,2.2,0.1,5.8C362.8,453.5,399.4,468.5,468.9,464.2z"/>
	<linearGradient id="SVGID_1_" gradientUnits="userSpaceOnUse" x1="347.8563" y1="470.51" x2="546.3223" y2="470.51">
		<stop  offset="0" style="stop-color:#9FB8C6"/>
		<stop  offset="0.7645" style="stop-color:#728D9D"/>
		<stop  offset="1" style="stop-color:#3A6073"/>
	</linearGradient>
	<path class="st2" d="M349.3,418.1c0,0,104.6,25.7,193.8-1.2c0,0,5.1,84.5,2.5,95.4c0,0-41,13.7-97.7,11.4
		c-56.7-2.3-89.6-4.5-100-11.4l1.9-80.8L349.3,418.1z"/>
	<path class="st1" d="M515.2,423.7c-0.5,17.3-2.9,71-13.7,97.3c27.2-3.4,44.1-9.1,44.1-9.1c2.6-11-2.5-94.9-2.5-94.9
		C533.9,419.7,524.6,421.9,515.2,423.7z"/>
	<line class="st3" x1="445.7" y1="453.4" x2="447.9" y2="523.8"/>
	<path class="st4" d="M542.2,461.5c-0.1,0-0.2,0-0.3-0.1c-16.9-6.8-21.5-26-21.5-26.2c-0.1-0.4,0.2-0.8,0.5-0.9
		c0.4-0.1,0.8,0.2,0.9,0.5c0,0.2,4.5,18.7,20.7,25.2c0.4,0.2,0.6,0.6,0.4,0.9C542.7,461.3,542.5,461.5,542.2,461.5z"/>
	<path class="st4" d="M534.9,461.2c-0.1,0-0.2,0-0.2-0.1c-15-8.3-17-22.8-17.1-22.9c0-0.3,0.2-0.5,0.4-0.5c0.3,0,0.5,0.2,0.5,0.4
		c0,0.1,2,14.2,16.6,22.2c0.2,0.1,0.3,0.4,0.2,0.7C535.2,461.1,535.1,461.2,534.9,461.2z"/>
	<path class="st5" d="M349.5,461.5c-0.3,0-0.6-0.2-0.7-0.5c-0.2-0.4,0-0.8,0.4-0.9c16.2-6.5,20.6-25,20.7-25.2
		c0.1-0.4,0.5-0.6,0.9-0.5c0.4,0.1,0.6,0.5,0.5,0.9c0,0.2-4.6,19.4-21.5,26.2C349.7,461.4,349.6,461.5,349.5,461.5z"/>
	<path class="st5" d="M356.8,461.2c-0.2,0-0.3-0.1-0.4-0.3c-0.1-0.2,0-0.5,0.2-0.7c14.6-8,16.6-22.1,16.6-22.2
		c0-0.3,0.3-0.5,0.5-0.4c0.3,0,0.5,0.3,0.4,0.5c0,0.1-2,14.7-17.1,22.9C356.9,461.2,356.8,461.2,356.8,461.2z"/>
	<g>
		<g>
			<path class="st6" d="M353.2,505.2c0,0,1,0.3,2.8,0.8"/>
			<path class="st7" d="M361.7,507.4c23.3,5.4,91.6,17.5,174.1-2.2"/>
			<path class="st6" d="M538.8,504.5c0.9-0.2,1.9-0.5,2.8-0.7"/>
		</g>
	</g>
	<polygon class="st8" points="372.1,435 366,433.3 366,421.5 372.1,422.6 	"/>
	<polygon class="st8" points="404.5,440 398.4,439.1 398.4,426.6 404.5,427.7 	"/>
	<path class="st8" d="M404.7,437.7c11.8,1.2,25.4,1.9,41,1.7"/>
	<path class="st8" d="M372.1,432.6c6.9,1.5,15.5,3.1,25.9,4.4"/>
	<path class="st8" d="M353,427.2c0,0,4.4,1.8,12.9,3.9"/>
	<polygon class="st8" points="519.7,435 525.8,433.3 525.8,421.5 519.7,422.6 	"/>
	<polygon class="st8" points="487.3,440 493.4,439.1 493.4,426.6 487.3,427.7 	"/>
	<path class="st8" d="M487.1,437.7c-11.8,1.2-25.4,1.9-41,1.7"/>
	<path class="st8" d="M519.7,432.6c-6.9,1.5-15.5,3.1-25.9,4.4"/>
	<path class="st8" d="M538.7,427.2c0,0-4.4,1.8-12.9,3.9"/>
	<line class="st8" x1="445.2" y1="431.1" x2="445.7" y2="453.4"/>
	<path class="st5" d="M547.3,492.2v-23.2l0-0.1c-0.5-21.2-1.7-49.9-1.7-51.3c-0.1-2-1.1-2.1-1.1-2.1l-2.9,0.6
		c-105.9,25.8-189.2,0.3-190,0c0,0-3.2-1-3.3,0.6c-0.1,1.2-1.5,30.4-2,51.7l0,0.1v23.2c-0.2,7.9-0.1,14.5,0.1,17.8l0,0
		c0,0.6,0.1,1.1,0.1,1.5c0.1,0.5,0.3,0.9,0.6,1.1c0.7,0.5,17.2,13.5,99.4,13.5h0.6c82.2,0,98.8-12.9,99.4-13.5
		c0.3-0.3,0.5-0.7,0.6-1.1c0.2-1.3,0.2-3.3,0.3-5.7l0,0l0,4C547.5,505.7,547.5,499.5,547.3,492.2z M544.3,509.8
		c-3.4,2.1-24.1,12.5-97.2,12.5h-0.6c-73.2,0-93.9-10.5-97.2-12.5c-0.3-3.4-0.2-9.7,0.1-17.3v-21.2c0.7-18.5,2.5-44.1,3.1-51.4
		c12.3,3.5,90.8,23.3,188.7-0.2c0.5,6.9,2.4,33,3.1,51.6v21.2C544.5,500.1,544.5,506.4,544.3,509.8z"/>
</g>
</svg>
