<?xml version="1.0" encoding="utf-8"?>
<!-- Generator: Adobe Illustrator 21.0.0, SVG Export Plug-In . SVG Version: 6.00 Build 0)  -->
<svg version="1.1" id="圖層_1" xmlns="http://www.w3.org/2000/svg" xmlns:xlink="http://www.w3.org/1999/xlink" x="0px" y="0px"
	 viewBox="0 0 822.9 601.4" style="enable-background:new 0 0 822.9 601.4;" xml:space="preserve">
<style type="text/css">
	.st0{opacity:0.5;fill:#9FB8C6;}
	.st1{fill:url(#SVGID_1_);}
	.st2{fill:url(#SVGID_2_);}
	.st3{fill:url(#SVGID_3_);}
	.st4{opacity:0.4;fill:#758E61;}
	.st5{fill:#B2C899;}
	.st6{fill:#455C2E;}
	.st7{fill:#FFFFFF;}
</style>
<g>
	<path class="st0" d="M470.2,443.6c40.8-2.5,63-9.6,75.2-14.8c0.2-5.4,0.2-8.8,0.2-8.8s-55.9,14.3-98.3,14.3
		c-42.4,0-98.2-14.3-98.2-14.3s0,2.2,0.1,6C360.7,432.6,398.5,448,470.2,443.6z"/>
	<linearGradient id="SVGID_1_" gradientUnits="userSpaceOnUse" x1="450.5063" y1="292.0933" x2="511.51" y2="298.9044">
		<stop  offset="0" style="stop-color:#9BB389"/>
		<stop  offset="1" style="stop-color:#758E61"/>
	</linearGradient>
	<path class="st1" d="M481.6,284.4c2-0.3,19.3-5,28.7-8.6l3.2,4.9c-5.1,4.7-33.2,29.9-46.2,36.3c-1.7-3-7.9-13-17.7-16.9
		L481.6,284.4z"/>
	<linearGradient id="SVGID_2_" gradientUnits="userSpaceOnUse" x1="379.1124" y1="294.4364" x2="444.3995" y2="301.7257">
		<stop  offset="0" style="stop-color:#9BB389"/>
		<stop  offset="1" style="stop-color:#758E61"/>
	</linearGradient>
	<path class="st2" d="M383.9,277.7c9.4,3.6,26.8,6.3,28.7,6.6l32,15.7c-9.8,3.9-16,13.9-17.7,16.9c-13-6.4-41.1-31.7-46.2-36.3
		L383.9,277.7z"/>
	<linearGradient id="SVGID_3_" gradientUnits="userSpaceOnUse" x1="349.4761" y1="346.9706" x2="552.1871" y2="369.6034">
		<stop  offset="0" style="stop-color:#9BB389"/>
		<stop  offset="1" style="stop-color:#758E61"/>
	</linearGradient>
	<path class="st3" d="M447.1,439c-53.2,0-93.6-14-99.1-16c1.5-77.2,37-126.7,37.3-127.2c0.3-0.4,0.2-1.1-0.2-1.4
		c-0.4-0.3-1.1-0.2-1.4,0.2c-0.1,0.2-5.9,8.2-12.8,22.7c-4.8-2.1-14-7-17.1-8.6c8.6-10.2,23.4-24.2,25.8-26.4
		c5.9,5.3,34.5,31.1,47.4,36.9c0.1,0.1,0.3,0.1,0.4,0.1c0.4,0,0.7-0.2,0.9-0.5c0.1-0.1,7.1-13.9,18.9-17.4
		c11.8,3.6,18.8,17.3,18.9,17.4c0.2,0.3,0.5,0.5,0.9,0.5c0.1,0,0.3,0,0.4-0.1c12.9-5.8,41.5-31.6,47.4-36.9
		c2.4,2.2,17.1,16.2,25.8,26.4c-3.1,1.7-12.3,6.5-17.1,8.6c-7-14.5-12.7-22.5-12.8-22.7c-0.3-0.4-1-0.5-1.4-0.2
		c-0.4,0.3-0.5,1-0.2,1.4c0.4,0.5,35.8,50,37.3,127.2C540.7,425,500.3,439,447.1,439z"/>
	<path class="st4" d="M527.5,428.7c5.7-1.7,17.2-5.1,18.7-5.7c-1.3-64.1-25.9-109.1-34.4-122.8c4.4,11.1,17.4,68.5,16,117.3
		C527.7,421.6,527.6,425.3,527.5,428.7z"/>
	<path class="st5" d="M383.1,299.1c-7.8,12.2-33.8,57.9-35.2,124c1.3,0.5,4.3,1.5,8.9,2.9C360.1,353.9,379,308.2,383.1,299.1z"/>
	<path class="st6" d="M427.3,319.3c-0.1,0-0.3,0-0.4-0.1c-14.1-6.4-47-36.6-48.4-37.8c-0.2-0.2-0.3-0.5-0.3-0.7
		c0-0.3,0.1-0.5,0.3-0.7l4.5-4.1c0.3-0.3,0.7-0.3,1-0.2c9.4,3.8,28.8,6.7,29,6.7c0.1,0,0.2,0,0.3,0.1l34.3,16.8
		c0.4,0.2,0.6,0.6,0.6,1c0,0.4-0.3,0.8-0.7,0.9c-12,3.4-19.2,17.4-19.3,17.6C428,319.1,427.7,319.3,427.3,319.3z M380.7,280.6
		c5.1,4.7,33.2,29.9,46.2,36.3c1.7-3,7.9-13,17.7-16.9l-32-15.7c-2-0.3-19.3-3-28.7-6.6L380.7,280.6z"/>
	<path class="st6" d="M370.6,319.3c-0.1,0-0.3,0-0.4-0.1c-5.9-2.5-18-9.1-18.5-9.4c-0.3-0.1-0.4-0.4-0.5-0.7c-0.1-0.3,0-0.6,0.2-0.8
		c9.3-11.2,26.9-27.6,27.1-27.8c0.4-0.4,1-0.4,1.4,0c0.4,0.4,0.4,1,0,1.4c-0.2,0.2-16.7,15.6-26.1,26.7c3.2,1.7,12.5,6.7,17.3,8.7
		c0.5,0.2,0.7,0.8,0.5,1.3C371.4,319.1,371,319.3,370.6,319.3z"/>
	<path class="st6" d="M466.9,319.3c-0.4,0-0.7-0.2-0.9-0.5c-0.1-0.1-7.3-14.2-19.3-17.6c-0.4-0.1-0.7-0.5-0.7-0.9
		c0-0.4,0.2-0.8,0.6-1l34.3-16.8c0.1,0,0.2-0.1,0.3-0.1c0.2,0,19.6-5,29-8.7c0.4-0.1,0.8-0.1,1,0.2l4.5,6.1c0.2,0.2,0.3,0.5,0.3,0.7
		c0,0.3-0.1,0.6-0.3,0.7c-1.4,1.3-34.4,31.5-48.4,37.8C467.2,319.3,467,319.3,466.9,319.3z M449.6,300.1c9.8,3.9,16,13.9,17.7,16.9
		c13-6.4,41.1-31.7,46.2-36.3l-3.2-4.9c-9.4,3.6-26.8,8.3-28.7,8.6L449.6,300.1z"/>
	<path class="st6" d="M523.6,319.3c-0.4,0-0.8-0.2-0.9-0.6c-0.2-0.5,0-1.1,0.5-1.3c4.8-2,14.1-7,17.3-8.7
		c-9.4-11-25.9-26.5-26.1-26.7c-0.4-0.4-0.4-1,0-1.4c0.4-0.4,1-0.4,1.4,0c0.2,0.2,17.8,16.6,27.1,27.8c0.2,0.2,0.3,0.5,0.2,0.8
		c-0.1,0.3-0.2,0.5-0.5,0.7c-0.5,0.3-12.6,6.9-18.5,9.4C523.8,319.3,523.7,319.3,523.6,319.3z"/>
	<path class="st6" d="M447.2,441H447c0,0,0,0,0,0c-57.4,0-100-16.2-100.4-16.4c-0.4-0.2-0.6-0.5-0.6-0.9
		c1.3-78.3,37.4-128.6,37.7-129.1c0.3-0.4,0.9-0.5,1.4-0.2c0.4,0.3,0.5,1,0.2,1.4c-0.4,0.5-35.8,50-37.3,127.2
		c5.6,2,45.9,16,99.1,16c53.2,0,93.6-14,99.1-16c-1.5-77.2-37-126.7-37.3-127.2c-0.3-0.4-0.2-1.1,0.2-1.4c0.4-0.3,1.1-0.2,1.4,0.2
		c0.4,0.5,36.4,50.8,37.7,129.1c0,0.4-0.2,0.8-0.6,0.9C547.2,424.8,504.6,441,447.2,441C447.2,441,447.2,441,447.2,441z"/>
	<path class="st6" d="M454.5,358.1h-14c-0.4,0-0.8-0.3-0.8-0.8v-54c0-0.4,0.3-0.8,0.8-0.8c0.4,0,0.8,0.3,0.8,0.8v53.3h12.5v-52.7
		c0-0.4,0.3-0.8,0.8-0.8c0.4,0,0.8,0.3,0.8,0.8v53.5C455.3,357.8,454.9,358.1,454.5,358.1z"/>
	<path class="st6" d="M447.8,318.5c-2.4,0-4.4-2-4.4-4.4c0-2.4,2-4.4,4.4-4.4c2.4,0,4.4,2,4.4,4.4
		C452.1,316.6,450.2,318.5,447.8,318.5z M447.8,310.8c-1.9,0-3.4,1.5-3.4,3.4c0,1.9,1.5,3.4,3.4,3.4c1.9,0,3.4-1.5,3.4-3.4
		C451.1,312.3,449.6,310.8,447.8,310.8z"/>
	<path class="st6" d="M447.8,334.7c-2.4,0-4.4-2-4.4-4.4s2-4.4,4.4-4.4c2.4,0,4.4,2,4.4,4.4S450.2,334.7,447.8,334.7z M447.8,327
		c-1.9,0-3.4,1.5-3.4,3.4c0,1.9,1.5,3.4,3.4,3.4c1.9,0,3.4-1.5,3.4-3.4C451.1,328.5,449.6,327,447.8,327z"/>
	<path class="st6" d="M447.8,350.9c-2.4,0-4.4-2-4.4-4.4c0-2.4,2-4.4,4.4-4.4c2.4,0,4.4,2,4.4,4.4
		C452.1,348.9,450.2,350.9,447.8,350.9z M447.8,343.1c-1.9,0-3.4,1.5-3.4,3.4s1.5,3.4,3.4,3.4c1.9,0,3.4-1.5,3.4-3.4
		S449.6,343.1,447.8,343.1z"/>
	<g>
		<path class="st7" d="M496.8,348.9c-0.2,0-0.3-0.1-0.3-0.3v-11.4c0-0.2,0.1-0.3,0.3-0.3s0.3,0.1,0.3,0.3v11.4
			C497.1,348.8,496.9,348.9,496.8,348.9z"/>
		<path class="st7" d="M488.6,337.5c-3.2,0-4.8-1.8-5.6-3.1c-1.1-1.8-1-5.8-1-6c0-0.1,0-0.1,0.1-0.2c0.1-0.1,0.1-0.1,0.2-0.1
			c0.2,0,4.3,0.3,5.9,1.5c1.4,1,3.5,3.3,2.4,7.5c0,0.1-0.1,0.2-0.2,0.2C489.7,337.4,489.2,337.5,488.6,337.5z M490.3,337L490.3,337
			L490.3,337z M482.5,328.7c0,1,0.1,4.1,1,5.4c0.8,1.3,2.7,3.3,6.6,2.7c0.9-3.8-1-5.9-2.2-6.8C486.6,329.1,483.5,328.8,482.5,328.7z
			"/>
		<path class="st7" d="M496.8,344.4c-0.1,0-0.1,0-0.2-0.1l-6.5-7c-0.1-0.1-0.1-0.3,0-0.4c0.1-0.1,0.3-0.1,0.4,0l6.5,7
			c0.1,0.1,0.1,0.3,0,0.4C496.9,344.3,496.8,344.4,496.8,344.4z"/>
		<path class="st7" d="M496.8,337.5c-0.1,0-0.1,0-0.2-0.1c-0.3-0.2-6.8-5.3-6.5-10.3c0.2-5,6.2-11.7,6.5-12c0.1-0.1,0.3-0.1,0.4,0
			c0.3,0.3,6.3,7,6.5,12c0.2,5-6.3,10.1-6.5,10.3C496.9,337.5,496.8,337.5,496.8,337.5z M496.8,315.8c-1.1,1.2-6,7.1-6.2,11.4
			c-0.2,4.3,5.1,8.9,6.2,9.7c1-0.8,6.3-5.4,6.2-9.7C502.7,322.9,497.9,317.1,496.8,315.8z"/>
		<path class="st7" d="M504.9,337.5c-0.5,0-1.1-0.1-1.7-0.2c-0.1,0-0.2-0.1-0.2-0.2c-1.1-4.3,1-6.5,2.4-7.5c1.7-1.2,5.8-1.5,5.9-1.5
			c0.1,0,0.2,0,0.2,0.1c0.1,0.1,0.1,0.1,0.1,0.2c0,0.2,0,4.3-1,6C509.8,335.6,508.1,337.5,504.9,337.5z M503.5,336.8
			c3.9,0.6,5.8-1.4,6.6-2.7c0.8-1.4,0.9-4.5,1-5.4c-1,0.1-4,0.4-5.3,1.4C504.5,330.9,502.6,333,503.5,336.8z"/>
		<path class="st7" d="M496.8,344.4c-0.1,0-0.1,0-0.2-0.1c-0.1-0.1-0.1-0.3,0-0.4l6.5-7c0.1-0.1,0.3-0.1,0.4,0
			c0.1,0.1,0.1,0.3,0,0.4l-6.5,7C496.9,344.3,496.9,344.4,496.8,344.4z"/>
	</g>
</g>
</svg>
