<?xml version="1.0" encoding="utf-8"?>
<!-- Generator: Adobe Illustrator 21.0.0, SVG Export Plug-In . SVG Version: 6.00 Build 0)  -->
<svg version="1.1" id="圖層_1" xmlns="http://www.w3.org/2000/svg" xmlns:xlink="http://www.w3.org/1999/xlink" x="0px" y="0px"
	 viewBox="0 0 822.9 601.4" style="enable-background:new 0 0 822.9 601.4;" xml:space="preserve">
<style type="text/css">
	.st0{fill:#FFFFFF;}
	.st1{fill:#C3B6A7;}
	.st2{fill:#E4E2DE;}
</style>
<g>
	<path class="st0" d="M349.9,429.3c4.7,1.6,38.5,12.4,97.1,12.4c58.4,0,92.6-10.8,97.5-12.4c2.8-58.1-20.9-109.3-23.6-115
		c-2.2-4.7-18.4-32.8-21.1-37.5l-8.6,2.3c-2.1,1.6-22.5,16.6-46.7,16.6c-24.1,0-38.1-12.4-40-14.2c-5.2-1.1-10-1.9-11.7-2.2
		c-5.8,10.2-20.4,37.3-20.5,37.6C344.6,371.4,349.2,423.2,349.9,429.3z"/>
	<path class="st1" d="M447,443.8c-63.4,0-98.1-12.6-98.4-12.8c-0.3-0.1-0.6-0.4-0.6-0.8c-0.1-0.6-7.1-55.9,22.5-114.2
		c0.2-0.3,15.4-28.6,20.9-38.3c0.2-0.4,0.6-0.6,1-0.5c0.1,0,6.2,1,12.8,2.4c0.2,0,0.4,0.1,0.5,0.3c0.1,0.1,14.2,13.8,38.8,13.8
		c24.7,0,45.4-16.1,45.6-16.3c0.1-0.1,0.2-0.1,0.4-0.2l9.6-2.6c0.4-0.1,0.9,0.1,1.1,0.5c0.8,1.4,19.1,33.2,21.6,38.3
		c2.8,5.7,26.8,57.7,23.8,116.6c0,0.4-0.3,0.7-0.7,0.9C545.5,431.1,510.5,443.8,447,443.8z M349.9,429.3
		c4.7,1.6,38.5,12.4,97.1,12.4c58.4,0,92.6-10.8,97.5-12.4c2.8-58.1-20.9-109.3-23.6-115c-2.2-4.7-18.4-32.8-21.1-37.5l-8.6,2.3
		c-2.1,1.6-22.5,16.6-46.7,16.6c-24.1,0-38.1-12.4-40-14.2c-5.2-1.1-10-1.9-11.7-2.2c-5.8,10.2-20.4,37.3-20.5,37.6
		C344.6,371.4,349.2,423.2,349.9,429.3z"/>
	<path class="st1" d="M444.8,300.4c-33,0-44.6-17.2-44.7-17.4c-0.2-0.2-0.1-0.5,0.1-0.7c0.2-0.2,0.5-0.1,0.7,0.1
		c0.1,0.2,11.5,16.9,43.9,16.9c32.5,0,47.6-16.8,47.8-17c0.2-0.2,0.5-0.2,0.7,0c0.2,0.2,0.2,0.5,0,0.7
		C493.2,283.3,477.7,300.4,444.8,300.4z"/>
	<path class="st2" d="M502.8,281.9c6.3,16.8,31.5,87.7,28.7,151c7.1-1.7,11.5-3.1,13.1-3.6c2.8-58.1-20.9-109.3-23.6-115
		C519.2,310.6,508.4,291.7,502.8,281.9z"/>
</g>
</svg>
