<?xml version="1.0" encoding="utf-8"?>
<!-- Generator: Adobe Illustrator 21.0.0, SVG Export Plug-In . SVG Version: 6.00 Build 0)  -->
<svg version="1.1" id="圖層_1" xmlns="http://www.w3.org/2000/svg" xmlns:xlink="http://www.w3.org/1999/xlink" x="0px" y="0px"
	 viewBox="0 0 105.7 38.2" style="enable-background:new 0 0 105.7 38.2;" xml:space="preserve">
<style type="text/css">
	.st0{opacity:0.7;fill:#6FCCE4;}
	.st1{fill:#FFFFFF;}
	.st2{fill:none;}
	.st3{font-family:'MicrosoftJhengHeiBold';}
	.st4{font-size:18px;}
</style>
<g id="音樂">
	<path class="st0" d="M87.1,38.2H19.1C8.5,38.2,0,29.6,0,19.1v0C0,8.5,8.5,0,19.1,0h68.1c10.5,0,19.1,8.5,19.1,19.1v0
		C106.2,29.6,97.7,38.2,87.1,38.2z"/>
	<g>
		<path class="st1" d="M22.5,25.3c0-0.1,0-0.2,0-0.3c0-5.1,0-10.1,0-15.2c0-0.3,0.1-0.4,0.3-0.5c2.8-0.9,5.7-1.5,8.7-2
			c2.5-0.4,4.9-0.6,7.4-0.7c0.2,0,0.3,0,0.5,0c0,0.1,0,0.3,0,0.4c0,4,0,8,0,12c0,2.2-0.1,4.5,0,6.7c0.1,1.4-0.6,2.4-1.6,3.2
			c-1.1,0.8-2.3,1.3-3.6,1.3c-0.7,0-1.3-0.1-1.9-0.4c-1-0.6-1.4-1.7-1-2.8c0.5-1.3,1.5-2,2.7-2.6c1-0.5,2.1-0.6,3.3-0.4
			c0-4.1,0-8.2,0-12.4c-0.7,0.1-1.5,0.1-2.2,0.2c-2.1,0.3-4.1,0.6-6.2,0.9c-1.4,0.3-2.8,0.7-4.3,1c-0.2,0-0.2,0.1-0.2,0.3
			c0,1.1,0,2.2,0,3.3c0,3.3,0,6.6,0,10c0,1.2-0.5,2.2-1.4,2.9c-1.2,0.9-2.5,1.4-4.1,1.3c-1.2-0.1-2.1-0.8-2.4-1.7
			c-0.2-0.9,0.1-1.7,0.6-2.4C18.6,25.7,20.3,25.1,22.5,25.3z"/>
	</g>
	<rect x="32.3" y="9.3" class="st2" width="76.5" height="19.5"/>
	<text transform="matrix(1 0 0 1 52.5483 25.3537)" class="st1 st3 st4">音樂</text>
</g>
</svg>
