<?xml version="1.0" encoding="utf-8"?>
<!-- Generator: Adobe Illustrator 21.0.0, SVG Export Plug-In . SVG Version: 6.00 Build 0)  -->
<svg version="1.1" id="圖層_1" xmlns="http://www.w3.org/2000/svg" xmlns:xlink="http://www.w3.org/1999/xlink" x="0px" y="0px"
	 viewBox="0 0 822.9 601.4" style="enable-background:new 0 0 822.9 601.4;" xml:space="preserve">
<style type="text/css">
	.st0{fill:url(#SVGID_1_);}
	.st1{fill:#CE9245;}
	.st2{fill:#A66A22;}
	.st3{opacity:0.6;fill:#CE9245;enable-background:new    ;}
	.st4{fill:#AC6D21;}
	.st5{fill:url(#SVGID_2_);}
	.st6{fill:url(#SVGID_3_);}
	.st7{fill:url(#SVGID_4_);}
	.st8{fill:url(#SVGID_5_);}
	.st9{fill:url(#SVGID_6_);}
	.st10{opacity:0.6;fill:#D69644;enable-background:new    ;}
	.st11{fill:#070505;}
	.st12{fill:#22201E;}
	.st13{fill:url(#SVGID_7_);}
	.st14{fill:#DC827B;}
	.st15{fill:#9B2724;}
	.st16{fill:#8F2022;}
	.st17{fill:#C7812F;}
	.st18{fill:#DCB7A7;}
	.st19{fill:#FEF6F2;}
	.st20{fill:#E5BE51;}
	.st21{fill:#CF361C;}
	.st22{fill:#E9DED9;}
	.st23{fill:#FFFFFF;}
	.st24{fill:none;stroke:#DCB7A7;stroke-width:0.8656;stroke-linecap:round;stroke-miterlimit:10;}
	.st25{fill:#9E9E9E;}
	.st26{fill:#E2DFDE;}
	.st27{fill:none;stroke:#9B2724;stroke-width:0.5638;stroke-linecap:round;stroke-linejoin:round;stroke-miterlimit:10;}
	.st28{fill:url(#SVGID_8_);}
	.st29{fill:url(#SVGID_9_);}
	.st30{fill:#D69644;}
	.st31{fill:#D04B22;}
	.st32{fill:url(#SVGID_10_);}
	.st33{fill:url(#SVGID_11_);}
	.st34{fill:url(#SVGID_12_);}
	.st35{fill:url(#SVGID_13_);}
	.st36{fill:url(#SVGID_14_);}
	.st37{fill:url(#SVGID_15_);}
	.st38{fill:url(#SVGID_16_);}
	.st39{fill:#FBEEBA;}
	.st40{fill:#F3B699;}
	.st41{fill:#FCF0CA;}
	.st42{fill:none;stroke:#FCF0CA;stroke-width:0.5868;stroke-miterlimit:10;}
	.st43{fill:url(#SVGID_17_);}
	.st44{fill:url(#SVGID_18_);}
	.st45{fill:url(#SVGID_19_);}
	.st46{fill:#EEE9E5;}
	.st47{fill:#323130;}
	.st48{fill:#181717;}
	.st49{fill:#A4A09F;}
	.st50{fill:#546B7F;}
	.st51{fill:#92A2AD;}
	.st52{opacity:0.6;fill:#A4A09F;enable-background:new    ;}
	.st53{fill:none;stroke:#A4A09F;stroke-width:0.6175;stroke-linecap:round;stroke-miterlimit:10;}
	.st54{fill:#7B8C9F;}
	.st55{fill:#C1E0F6;}
	.st56{fill:url(#SVGID_20_);}
	.st57{opacity:0.6;}
	.st58{fill:#E2BF40;}
	.st59{fill:url(#SVGID_21_);}
	.st60{fill:url(#SVGID_22_);}
	.st61{fill:url(#SVGID_23_);}
	.st62{fill:url(#SVGID_24_);}
	.st63{fill:none;stroke:#FFFFFF;stroke-width:1.8107;stroke-linecap:round;stroke-miterlimit:10;}
	.st64{opacity:0.6;fill:#E2BF40;enable-background:new    ;}
	.st65{fill:#3F210E;}
	.st66{opacity:0.35;fill:#FFFFFF;enable-background:new    ;}
	.st67{fill:url(#SVGID_25_);}
	.st68{fill:url(#SVGID_26_);}
	.st69{fill:url(#SVGID_27_);}
	.st70{opacity:0.8;}
	.st71{fill:url(#SVGID_28_);}
	.st72{fill:url(#SVGID_29_);}
	.st73{fill:#B62E22;}
	.st74{fill:#92622F;}
	.st75{fill:url(#SVGID_30_);}
	.st76{fill:#C5A27C;}
	.st77{opacity:0.8;fill:url(#SVGID_31_);enable-background:new    ;}
	.st78{fill:url(#SVGID_32_);}
	.st79{fill:#2B150B;}
	.st80{fill:#97654C;}
	.st81{opacity:0.4;fill:#3E210E;enable-background:new    ;}
	.st82{fill:url(#SVGID_33_);}
	.st83{opacity:0.35;fill:#DF9E83;enable-background:new    ;}
	.st84{fill:#DF9E83;}
	.st85{fill:#F6D4C7;}
	.st86{opacity:0.69;}
	.st87{fill:#CE5E39;}
	.st88{opacity:0.4;}
	.st89{fill:#3E210E;}
	.st90{fill:#DE805C;}
	.st91{fill:url(#SVGID_34_);stroke:#D78863;stroke-width:0.9662;stroke-miterlimit:10;}
	.st92{fill:url(#SVGID_35_);}
	.st93{fill:#A66B23;}
	.st94{fill:url(#SVGID_36_);}
	.st95{fill:url(#SVGID_37_);}
	.st96{fill:#824323;}
	.st97{fill:url(#SVGID_38_);}
	.st98{fill:#E6A952;}
	.st99{fill:#BB7F37;}
	.st100{fill:url(#SVGID_39_);}
	.st101{fill:url(#SVGID_40_);}
	.st102{fill:url(#SVGID_41_);}
	.st103{fill:#EBA794;}
	.st104{fill:#40210F;}
	.st105{opacity:0.25;fill:#D69644;enable-background:new    ;}
	.st106{opacity:0.5;fill:#D69644;enable-background:new    ;}
	.st107{fill:#FBF4C3;}
	.st108{fill:#DEBD91;}
	.st109{fill:#D8C7A7;}
	.st110{fill:url(#SVGID_42_);}
	.st111{fill:#893827;}
	.st112{opacity:0.4;fill:#E2BF40;enable-background:new    ;}
	.st113{fill:#895424;}
	.st114{fill:#391E13;}
	.st115{fill:#D7B093;}
	.st116{fill:#EFD39D;}
	.st117{fill:#8C5924;}
	.st118{fill:#B55C4E;}
	.st119{fill:url(#SVGID_43_);}
	.st120{fill:url(#SVGID_44_);}
	.st121{fill:#E0917F;}
	.st122{fill:#AB948D;}
	.st123{fill:url(#SVGID_45_);}
	.st124{fill:url(#SVGID_46_);}
	.st125{opacity:0.6;fill:url(#SVGID_47_);enable-background:new    ;}
	.st126{fill:#CD9449;}
	.st127{fill:url(#SVGID_48_);}
	.st128{fill:url(#SVGID_49_);}
	.st129{fill:url(#SVGID_50_);}
	.st130{fill:url(#SVGID_51_);}
	.st131{fill:#842B20;}
	.st132{fill:url(#SVGID_52_);}
	.st133{fill:url(#SVGID_53_);}
	.st134{opacity:0.6;fill:#D2503A;enable-background:new    ;}
	.st135{fill:#DC7D67;}
</style>
<g>
	<g>
		
			<linearGradient id="SVGID_1_" gradientUnits="userSpaceOnUse" x1="3004.8291" y1="-1247.6392" x2="3086.0527" y2="-1247.6392" gradientTransform="matrix(-1 0 0 -1 3605.6123 -870.0905)">
			<stop  offset="0" style="stop-color:#EDCF95"/>
			<stop  offset="0.5331" style="stop-color:#EECC91"/>
			<stop  offset="0.7526" style="stop-color:#EFC88D"/>
			<stop  offset="1" style="stop-color:#EDB397"/>
		</linearGradient>
		<path class="st0" d="M519.3,354.8l7.6-17.6c0-0.3,0-1,0.3-1.4c0-0.3,0-0.3,0-0.3c0-0.3,0.3-0.7,0.3-1c0-0.3,0-0.3,0.3-0.7
			c0.3-0.3,0.3-0.7,0.3-1c0-0.3,0-0.3,0.3-0.3c0.3-0.7,0.3-1,0.7-1.7c0-0.3,0.3-0.3,0.3-0.3c0.3-0.3,0.3-0.7,0.7-1
			c0-0.3,0.3-0.3,0.3-0.7c0.3-0.3,0.3-0.7,0.7-1c0-0.3,0.3-0.3,0.3-0.7c2.8-5.5,6.9-10.4,9.7-13.8c0.3-0.3,0.3-0.3,0.3-0.3
			c15.2,19,32.2,45,45.7,77.8c0,0,12.5,11.8,12.5,28.4c0,16.6-12.8,22.1-19.7,20.4l0,0c-7.6,6.9-18.7,2.4-20.8-8.3v-0.3
			c-0.3,0.3-1,0.7-1.7,0.7c-4.5,2.4-10.7-0.7-12.8-4.8l0,0l0,0c0-0.3-0.3-0.3-0.3-0.7l0.3-0.3l-1.7-13.5h0.3v-3.5l0.7-2.4
			c-0.3-0.7-0.7-1.4-0.7-2.1l-0.7-1l-0.7-2.4v-0.7c-2.4-6.2-6.2-14.9-11.4-24.9c-3.1-6.6-6.9-13.5-10.7-20.1L519.3,354.8z"/>
	</g>
	<path class="st1" d="M567.8,412.2c0,0,2.4,18.3-8,24.2l-1.7-5.2C558.1,431.2,568.8,425.7,567.8,412.2z"/>
	<path class="st1" d="M585.4,418.1c0,0,4.8,12.1,1,20.8c0,0-3.1,1-8,0.7C578.8,439.9,587.1,435.7,585.4,418.1z"/>
	<path class="st2" d="M568.1,418.1c0,0,0.3,11.1-9,14.9l-0.3-1.7C558.4,431.2,568.1,422.6,568.1,418.1z"/>
	<path class="st2" d="M586.5,424.3c0,0,0.7,10-4.8,15.6l-3.5-0.3C578.2,439.9,585.4,432.6,586.5,424.3z"/>
	<path class="st3" d="M519.3,354.8l7.6-17.6c0-0.3,0-1,0.3-1.4c0-0.3,0-0.3,0-0.3c0-0.3,0.3-0.7,0.3-1c0-0.3,0-0.3,0.3-0.7
		c0.3-0.3,0.3-0.7,0.3-1c0-0.3,0-0.3,0.3-0.3c0.3-0.7,0.3-1,0.7-1.7c0-0.3,0.3-0.3,0.3-0.3c0.3-0.3,0.3-0.7,0.7-1
		c0-0.3,0.3-0.3,0.3-0.7c0.3-0.3,0.3-0.7,0.7-1c0-0.3,0.3-0.3,0.3-0.7c0,0,0-0.3,0.3-0.3c10.4,20.4,21.4,47.4,22.1,70.2
		c0,0-12.8,16.3-8.3,31.8c-0.3-0.3-0.7-1-0.7-1.7l0,0l0,0c0-0.3-0.3-0.3-0.3-0.7l0.3-0.3l-1.7-13.5h0.3v-3.5l0.7-3.1l-1.7-2.4
		l-1-2.4l-19-41.5c0,0-1-1-2.8-3.8L519.3,354.8z"/>
	<g>
		<path class="st2" d="M542.5,408.4l-0.7-1l0,0c-0.3-0.3-12.5-27.7-23.9-49.8l1-2.8l0,0c10.4,19.7,21.8,45,24.2,50.2
			c0.3-1,0.7-1.7,0.7-1.7l0,0c1-1.7,2.1-3.5,2.4-3.5c0.3-0.3,0.7-0.3,0.7,0c0.3,0.3,0.3,0.7,0,0.7c-0.3,0.3-0.7,0.7-0.7,1
			c0,0-6.6,10-3.1,24.6l0,0c0.7,2.1,2.8,3.8,5.2,4.8c2.4,1,4.8,1,6.9,0c8.3-3.8,12.5-12.8,10.7-21.4c0-0.3,0.3-0.7,0.3-0.7
			c0.3,0,0.7,0.3,0.7,0.3c1.7,8.3-2.1,17-9.3,21.4c1,5.2,4.5,9,8.6,10.4c4.2,1,8.6,0,11.8-3.5c8.6-8.6,5.2-21.4,5.2-21.4
			c0-0.3,0.3-0.7,0.3-0.7c0.3,0,0.7,0.3,0.7,0.3c0,0.3,3.5,13.8-5.5,22.8l0,0c2.8,0.3,6.9-0.7,10.7-3.5c3.1-2.4,6.9-7.6,6.9-16.6
			c0-16.3-12.1-27.7-12.1-28l-0.3-0.3c-13.5-32.9-30.8-58.8-45.7-77.5l0.3-0.3c1-1,2.1-2.1,2.4-3.1l0,0c4.8,6.2,10,13.1,15.2,21.1
			l0,0c0,0,24.6,36.7,30.1,57.4c6.9,8.6,19.4,28.7,7.3,43.9c-1,1.7-2.4,3.1-3.8,4.2c-0.3,0.3-1,0.7-1.7,1c-0.3,0-0.3,0.3-0.3,0.3
			l0,0c-2.8,1.7-5.9,2.4-8.6,2.4c-0.7,0-1.7,0-2.1-0.3c-2.4,2.1-5.5,3.1-8.6,3.1c-1,0-2.4-0.3-3.5-0.7c-4.8-1.4-8.3-5.5-9.7-11.1
			c-0.3,0.3-0.7,0.3-0.7,0.3c-1,0.7-2.4,0.7-3.8,0.7s-2.4-0.3-3.8-0.7c-2.4-1-4.5-3.1-5.5-5.2l0,0c0,0,0,0,0-0.3s-0.3-0.3-0.3-0.3
			l0,0c0,0-1-2.4-1.4-6.9c-0.3-1.7-0.3-3.5,0-5.5C541.8,412.2,542.2,410.1,542.5,408.4z"/>
	</g>
</g>
<g>
	<g>
		
			<linearGradient id="SVGID_2_" gradientUnits="userSpaceOnUse" x1="2782.0618" y1="-1247.6392" x2="2863.2854" y2="-1247.6392" gradientTransform="matrix(1 0 0 -1 -2487.7124 -870.0905)">
			<stop  offset="0" style="stop-color:#EDCF95"/>
			<stop  offset="0.5331" style="stop-color:#EECC91"/>
			<stop  offset="0.7526" style="stop-color:#EFC88D"/>
			<stop  offset="1" style="stop-color:#EDB397"/>
		</linearGradient>
		<path class="st5" d="M375.1,354.8c-3.8,6.6-7.6,13.5-10.7,20.1c-5.2,10-9,18.7-11.4,24.9v0.7l-0.7,2.4l-0.7,1
			c0,0.7-0.3,1.4-0.7,2.1l0.7,2.4v3.5h0.3l-1.7,13.5l0.3,0.3c0,0.3-0.3,0.3-0.3,0.7l0,0l0,0c-2.1,4.2-8.3,7.3-12.8,4.8
			c-0.7,0-1.4-0.3-1.7-0.7v0.3c-2.1,10.7-13.1,15.2-20.8,8.3l0,0c-6.9,1.7-19.7-3.8-19.7-20.4c0-16.6,12.5-28.4,12.5-28.4
			c13.5-32.9,30.4-58.8,45.7-77.8c0,0,0,0,0.3,0.3c2.8,3.5,6.9,8.3,9.7,13.8c0,0.3,0.3,0.3,0.3,0.7c0.3,0.3,0.3,0.7,0.7,1
			c0,0.3,0.3,0.3,0.3,0.7c0.3,0.3,0.3,0.7,0.7,1c0,0,0.3,0,0.3,0.3c0.3,0.7,0.3,1,0.7,1.7c0.3,0,0.3,0,0.3,0.3c0,0.3,0,0.7,0.3,1
			c0.3,0.3,0.3,0.3,0.3,0.7c0,0.3,0.3,0.7,0.3,1c0,0,0,0,0,0.3c0.3,0.3,0.3,1,0.3,1.4l7.6,17.6L375.1,354.8z"/>
	</g>
	<path class="st1" d="M337,431.2l-1.7,5.2c-10.4-5.9-8-24.2-8-24.2C326.3,425.7,337,431.2,337,431.2z"/>
	<path class="st1" d="M316.6,439.6c-4.8,0.3-8-0.7-8-0.7c-3.8-8.6,1-20.8,1-20.8C308,435.7,316.3,439.9,316.6,439.6z"/>
	<path class="st2" d="M336.4,431.2L336,433c-9.3-3.8-9-14.9-9-14.9C327,422.6,336.7,431.2,336.4,431.2z"/>
	<path class="st2" d="M317,439.6l-3.5,0.3c-5.5-5.5-4.8-15.6-4.8-15.6C309.7,432.6,317,439.9,317,439.6z"/>
	<path class="st3" d="M375.1,355.5c-1.7,2.8-2.8,3.8-2.8,3.8l-19,41.5l-1,2.4l-1.7,2.4l0.7,3.1v3.5h0.3l-1.7,13.5l0.3,0.3
		c0,0.3-0.3,0.3-0.3,0.7l0,0l0,0c0,0.7-0.3,1.4-0.7,1.7c4.5-15.6-8.3-31.8-8.3-31.8c0.7-22.8,11.8-49.8,22.1-70.2
		c0.3,0,0.3,0.3,0.3,0.3c0,0.3,0.3,0.3,0.3,0.7c0.3,0.3,0.3,0.7,0.7,1c0,0.3,0.3,0.3,0.3,0.7c0.3,0.3,0.3,0.7,0.7,1
		c0,0,0.3,0,0.3,0.3c0.3,0.7,0.3,1,0.7,1.7c0.3,0,0.3,0,0.3,0.3c0,0.3,0,0.7,0.3,1c0.3,0.3,0.3,0.3,0.3,0.7c0,0.3,0.3,0.7,0.3,1
		c0,0,0,0,0,0.3c0.3,0.3,0.3,1,0.3,1.4l7.6,17.6L375.1,355.5z"/>
	<g>
		<path class="st2" d="M355.4,412.6c0.3,2.1,0.3,3.8,0,5.5c-0.3,4.5-1.4,6.9-1.4,6.9l0,0c0,0-0.3,0-0.3,0.3s0,0.3,0,0.3l0,0
			c-1,2.1-3.1,4.2-5.5,5.2c-1.4,0.3-2.4,0.7-3.8,0.7s-2.8,0-3.8-0.7c0,0-0.3,0-0.7-0.3c-1.4,5.5-4.8,9.7-9.7,11.1
			c-1,0.3-2.4,0.7-3.5,0.7c-3.1,0-6.2-1-8.6-3.1c-0.3,0.3-1.4,0.3-2.1,0.3c-2.8,0-5.9-0.7-8.6-2.4l0,0c0,0,0-0.3-0.3-0.3
			c-0.7-0.3-1.4-0.7-1.7-1c-1.4-1-2.8-2.4-3.8-4.2c-12.1-15.2,0.3-35.3,7.3-43.9c5.5-20.8,30.1-57.4,30.1-57.4l0,0
			c5.2-8,10.4-14.9,15.2-21.1l0,0c0.3,1,1.4,2.1,2.4,3.1l0.3,0.3c-14.9,18.7-32.2,44.6-45.7,77.5l-0.3,0.3c0,0.3-12.1,11.8-12.1,28
			c0,9,3.8,14.2,6.9,16.6c3.8,2.8,8,3.8,10.7,3.5l0,0c-9-9-5.5-22.5-5.5-22.8c0,0,0.3-0.3,0.7-0.3c0,0,0.3,0.3,0.3,0.7
			c0,0-3.5,12.8,5.2,21.4c3.1,3.5,7.6,4.5,11.8,3.5c4.2-1.4,7.6-5.2,8.6-10.4c-7.3-4.5-11.1-13.1-9.3-21.4c0,0,0.3-0.3,0.7-0.3
			c0,0,0.3,0.3,0.3,0.7c-1.7,8.6,2.4,17.6,10.7,21.4c2.1,1,4.5,1,6.9,0c2.4-1,4.5-2.8,5.2-4.8l0,0c3.5-14.5-3.1-24.6-3.1-24.6
			c0-0.3-0.3-0.7-0.7-1c-0.3,0-0.3-0.3,0-0.7c0-0.3,0.3-0.3,0.7,0c0.3,0,1.4,1.7,2.4,3.5l0,0c0,0,0.3,0.7,0.7,1.7
			c2.4-5.2,13.8-30.4,24.2-50.2l0,0l1,2.8c-11.4,22.1-23.5,49.5-23.9,49.8l0,0l-0.7,1C353,410.1,353.3,412.2,355.4,412.6z"/>
	</g>
</g>
<g>
	<g>
		<g>
			<linearGradient id="SVGID_3_" gradientUnits="userSpaceOnUse" x1="336.4379" y1="105.9983" x2="517.7484" y2="198.1479">
				<stop  offset="0" style="stop-color:#F2D397"/>
				<stop  offset="0.4319" style="stop-color:#F3D195"/>
				<stop  offset="0.7526" style="stop-color:#F5CC8F"/>
				<stop  offset="1" style="stop-color:#F3B699"/>
			</linearGradient>
			<path class="st6" d="M546.7,129c-1.8-2.5-3.6-5.1-5.8-7.3c19.6-2.2,32.3-27.9,16.7-45.4c-27.2-27.2-57.4-2.9-55.9,16
				c-15.2-6.9-32.3-10.5-49.7-10.5c-21.1,0-41.7,4.4-60.6,13.4c4.7-18.9-27.2-47.2-55.5-18.5c-16,18.1-1.8,44.6,18.5,45.4
				c-0.7,0.7-1.5,1.5-2.2,2.2c-24.7,27.6-34.5,66.1-21.8,101.3c1.8,5.1,4.4,9.8,7.3,14.2c19.2,29,57.4,40.7,90.7,43.9
				c4.7,0.4,9.1,0.7,13.8,0.7c27.2,0.4,54.4-5.1,78.4-17.8c20.7-10.9,39.2-26.5,45-50.1C573.2,186.4,564.1,153.4,546.7,129z"/>
			<path class="st23" d="M491.9,153.7c0,0,10.9-2.5,18.1,4.4c7.6,6.9,14.9,17.1,9.1,39.2c0,0-18.5-4.7-24.3-5.1l-22.5-1.8
				C472.3,190.7,466.8,158.4,491.9,153.7z"/>
			<path class="st96" d="M422.2,190.7c0,0-24-1.1-46.1,5.8l0.4,1.1C376.4,197.6,399.7,191.5,422.2,190.7z"/>
			<linearGradient id="SVGID_4_" gradientUnits="userSpaceOnUse" x1="341.6124" y1="99.4731" x2="374.6344" y2="99.4731">
				<stop  offset="0" style="stop-color:#FEECD2"/>
				<stop  offset="0.6938" style="stop-color:#FBEABC"/>
				<stop  offset="1" style="stop-color:#F9E9B0"/>
			</linearGradient>
			<path class="st7" d="M361.6,114.9c-4.7-0.7-8-1.1-12-3.6c-3.6-2.5-6.9-6.5-7.6-11.3c-1.1-4.4,0.4-9.4,4-12.7
				c4.7-4,13.1-4.4,18.1-0.7c5.1,3.6,9.1,10.2,10.5,16.3l-0.4,0.7L361.6,114.9z"/>
			<g>
				<g>
					<path class="st96" d="M373.5,197.3l-1.5,1.8c2.2-1.1,4.7-1.8,4.7-1.8v-1.1l0,0l0,0c-17.4-49,50.8-59.2,45-5.4
						C430.5,134.1,356.5,143.2,373.5,197.3z"/>
				</g>
			</g>
			<g>
				
					<ellipse transform="matrix(0.9894 -0.1449 0.1449 0.9894 -16.0103 58.5956)" class="st98" cx="394.2" cy="139.2" rx="12.3" ry="7.3"/>
				<path class="st99" d="M392.4,146.8c-2.2,0-4.4-0.4-6.2-1.1c-2.5-1.1-4.4-2.9-4.7-4.7l0,0c-0.7-4,4.7-8.3,11.6-9.4
					c3.3-0.4,6.5-0.4,9.1,0.7c2.5,1.1,4.4,2.9,4.7,4.7c0.4,2.2-0.7,4.4-2.9,5.8c-2.2,1.8-5.1,2.9-8.7,3.3
					C394.2,146.8,393.1,146.8,392.4,146.8z M396.4,132.3c-1.1,0-1.8,0-2.9,0.4c-6.5,1.1-11.3,4.7-10.9,8.3l0,0c0.4,1.8,1.8,3.3,4,4
					c2.5,1.1,5.4,1.1,8.7,0.7c3.3-0.4,6.2-1.5,8-3.3c1.8-1.5,2.9-3.3,2.5-5.1c-0.4-1.8-1.8-3.3-4-4
					C400.4,132.7,398.2,132.3,396.4,132.3z"/>
			</g>
			<ellipse class="st96" cx="402.6" cy="175.1" rx="9.1" ry="12.3"/>
			<linearGradient id="SVGID_5_" gradientUnits="userSpaceOnUse" x1="519.1009" y1="99.4731" x2="552.1229" y2="99.4731">
				<stop  offset="0" style="stop-color:#FEECD2"/>
				<stop  offset="0.6938" style="stop-color:#FBEABC"/>
				<stop  offset="1" style="stop-color:#F9E9B0"/>
			</linearGradient>
			<path class="st8" d="M532.2,114.9c4.7-0.7,8-1.1,12-3.6c3.6-2.5,6.9-6.5,7.6-11.3c1.1-4.4-0.4-9.4-4-12.7
				c-4.7-4-13.1-4.4-18.1-0.7c-5.1,3.6-9.1,10.2-10.5,16.3l0.4,0.7L532.2,114.9z"/>
			<g>
				
					<ellipse transform="matrix(0.1449 -0.9894 0.9894 0.1449 289.5412 613.3703)" class="st98" cx="499.6" cy="139.2" rx="7.3" ry="12.3"/>
				<path class="st99" d="M501.3,146.8c-1.1,0-2.2,0-2.9-0.4c-3.3-0.4-6.5-1.8-8.7-3.3c-2.2-1.8-3.3-4-2.9-5.8
					c0.7-4,6.9-6.9,13.8-5.8c3.3,0.4,6.5,1.8,8.7,3.3c2.2,1.8,3.3,4,2.9,5.8l0,0C511.5,144.6,507.1,146.8,501.3,146.8z M497.3,132.3
					c-5.1,0-9.1,2.2-9.8,5.1c-0.4,1.8,0.7,3.6,2.5,5.1c2.2,1.5,4.7,2.9,8,3.3c6.5,1.1,12-1.1,12.7-4.7h0.4h-0.4
					c0.4-1.8-0.7-3.6-2.5-5.1c-2.2-1.5-4.7-2.9-8-3.3C499.5,132.3,498.4,132.3,497.3,132.3z"/>
			</g>
			<ellipse class="st96" cx="491.2" cy="175.1" rx="9.1" ry="12.3"/>
			<path class="st23" d="M401.9,153.7c0,0-10.9-2.5-18.1,4.4c-7.6,6.9-14.9,17.1-9.1,39.2c0,0,18.5-4.7,24.3-5.1l22.5-1.8
				C421.5,190.7,426.9,158.4,401.9,153.7z"/>
			
				<linearGradient id="SVGID_6_" gradientUnits="userSpaceOnUse" x1="18.5714" y1="174.486" x2="57.8336" y2="174.486" gradientTransform="matrix(-1 0 0 1 440.6798 0)">
				<stop  offset="0" style="stop-color:#844E2F"/>
				<stop  offset="0.5308" style="stop-color:#71432D"/>
				<stop  offset="1" style="stop-color:#5E3828"/>
			</linearGradient>
			<path class="st9" d="M405.9,155.2c0,0,13.4,2.2,16.3,25c0,0,0,7.6-0.7,10.2l-7.6,0.4c0,0-24.7,1.8-26.5,3.3
				C377.2,179.1,384.4,152.3,405.9,155.2z"/>
			<linearGradient id="SVGID_7_" gradientUnits="userSpaceOnUse" x1="335.4324" y1="241.2103" x2="556.8509" y2="241.2103">
				<stop  offset="0" style="stop-color:#FEECD2"/>
				<stop  offset="0.6938" style="stop-color:#FBEABC"/>
				<stop  offset="1" style="stop-color:#F9E9B0"/>
			</linearGradient>
			<path class="st13" d="M457,198h-21.4c-76.2,0-100.2,37.8-100.2,38.1c0.7,1.1,1.5,2.5,2.2,3.6c19.2,29,57.4,40.7,90.7,43.9
				c4.7,0.4,9.1,0.7,13.8,0.7c27.2,0.4,54.4-5.1,78.4-17.8c14.2-7.6,27.6-17.4,36.3-30.5C555,232.9,530.4,198,457,198z"/>
			<path class="st103" d="M387.7,236.1c0-25.8-20.7-46.5-46.5-46.5c-5.8,0-11.3,1.1-16,2.9c0,10.9,1.8,22.1,5.8,33
				c1.8,5.1,4.4,9.8,7.3,14.2c8.7,13.4,21.4,22.9,35.9,29.8C382.3,260.8,387.7,249.2,387.7,236.1z"/>
			<path class="st103" d="M507.1,236.1c0,12,4.4,22.9,12,31.2c0.7-0.4,1.1-0.7,1.8-1.1c20.7-10.9,39.2-26.5,45-50.1
				c1.8-8,2.9-16,2.5-24.3c-4.7-1.5-9.4-2.5-14.9-2.5C527.8,189.3,507.1,210.3,507.1,236.1z"/>
			<path class="st104" d="M444.3,194.7c0,0,6.5,0,9.4,0.4c2.9,0.7,5.8,1.8,3.3,5.4c-2.9,4-10.2,6.2-10.2,6.2s-7.6-2.2-10.2-6.2
				c-2.2-3.6,0.4-4.7,3.3-5.4c2.9-0.7,9.4-0.4,9.4-0.4"/>
			<path class="st105" d="M438.5,284c1.5,0,2.5,0,4,0c27.2,0.4,54.4-5.1,78.4-17.8c20.7-10.9,39.2-26.5,45-50.1
				c7.3-29.8-1.8-62.4-18.9-87.1c-1.8-2.5-3.6-5.1-5.8-7.3C541.2,121.4,601.5,264.8,438.5,284z"/>
			<path class="st106" d="M343.4,135.2c13.4-12.3,20-14.9,20-14.9c-31.9-1.1-29.8-39.9-29.8-41c-12.3,17.8,1.5,41.7,20.7,42.5
				c-0.7,0.7-1.5,1.5-2.2,2.2C348.9,127.6,346,131.2,343.4,135.2z"/>
			<path class="st105" d="M550.3,135.2c-13.4-12.3-20-14.9-20-14.9c31.9-1.1,29.8-39.9,29.8-41c11.6,14.9,0,41.4-19.2,42.1
				c0.7,0.7,1.5,1.5,2.2,2.2C546.3,127.2,547.8,131.2,550.3,135.2z"/>
			<path class="st107" d="M354.3,121.8c-0.7,0.7-1.5,1.5-2.2,2.2c-24.7,27.6-34.5,66.1-21.8,101.3c1.8,5.1,4.4,9.8,7.3,14.2
				c6.5,10.2,15.2,17.8,25.4,24l0,0C299.9,200.2,354.3,121.8,354.3,121.8z"/>
			<path class="st108" d="M364.1,86.6c-3.3-2.5-8-3.3-12-2.2l0,0c0,0,20.3,8.7,18.1,22.9l4-3.6l0.4-0.7
				C372.8,96.7,369.2,90.2,364.1,86.6z"/>
			<path class="st108" d="M530,86.6c3.3-2.5,8-3.3,12-2.2l0,0c0,0-20.3,8.7-18.1,22.9l-4-3.6l-0.4-0.7
				C520.9,96.7,524.5,90.2,530,86.6z"/>
			<path class="st109" d="M473.4,170.8c0,0,37.4,0,47.9,6.9c0,0-1.8-27.2-29.8-24C491.2,154.1,478.1,156.6,473.4,170.8z"/>
			<linearGradient id="SVGID_8_" gradientUnits="userSpaceOnUse" x1="471.624" y1="174.486" x2="510.8862" y2="174.486">
				<stop  offset="0" style="stop-color:#844E2F"/>
				<stop  offset="0.5308" style="stop-color:#71432D"/>
				<stop  offset="1" style="stop-color:#5E3828"/>
			</linearGradient>
			<path class="st28" d="M487.9,155.2c0,0-13.4,2.2-16.3,25c0,0,0,7.6,0.7,10.2l7.6,0.4c0,0,24.7,1.8,26.5,3.3
				C516.6,179.1,509.3,152.3,487.9,155.2z"/>
			<path class="st111" d="M510.4,174.1c-1.8-11.3-9.4-20.7-22.5-18.9c0,0-0.4,0-1.1,0.4c-2.2,1.1-5.4,2.9-8,5.8
				c-1.8,2.2-3.6,5.4-5.1,9.4C477.4,170.8,497,171.1,510.4,174.1z"/>
			<path class="st109" d="M420.4,170.8c0,0-37.4,0-47.9,6.9c0,0,1.8-27.2,29.8-24C402.6,154.1,415.7,156.6,420.4,170.8z"/>
			<path class="st111" d="M383,174.1c1.8-11.3,9.4-20.7,22.5-18.9c0,0,0.4,0,1.1,0.4c2.2,1.1,5.4,2.9,8,5.8c1.8,2.2,3.6,5.4,5.1,9.4
				C416.4,170.8,396.8,171.1,383,174.1z"/>
			<path class="st112" d="M409.5,227.4c0,0,17.1,8.3,34.5,0c0,0,0.7,1.1,5.1,0c0,0,16,8.3,34.1,0c0,0-21.8,8.3-35.6-4.4l-1.1-1.8
				l-1.1,1.5C446.1,223.1,433.1,235.4,409.5,227.4z"/>
			<path class="st112" d="M453.8,203.8c0,0-6.9,6.9-6.9,12.7c0,0-2.2-8-6.5-12l6.5,3.3L453.8,203.8z"/>
			<path class="st10" d="M399,152.3c0,0-17.8-3.3-26.9,12s0,34.5,0,34.5l3.6-2.5l-3.3-9.1C372.8,187.5,365.9,157.4,399,152.3z"/>
			<path class="st10" d="M495.1,152.3c0,0,17.8-3.3,26.9,12s0,34.5,0,34.5l-3.6-2.5l3.3-9.1C521.3,187.5,528.2,157.4,495.1,152.3z"
				/>
			<path class="st65" d="M379.7,159.9c0,0-5.1,0.4-9.8-1.8c0,0,2.5,6.9,5.8,7.6l3.3-2.5L379.7,159.9z"/>
			<path class="st65" d="M513.7,159.9c0,0,5.1,0.4,9.8-1.8c0,0-2.5,6.9-5.8,7.6l-3.3-2.5L513.7,159.9z"/>
			<path class="st113" d="M425.5,230.7c-2.2,0-4.7,0-7.3-0.7c-15.6-2.5-16.7-10.2-16.7-10.5c0-0.4,0.4-0.7,0.7-0.7s0.7,0.4,0.7,0.7
				c0,0,1.1,6.9,15.6,9.4c14.9,2.2,22.1-2.5,27.9-7.3c0.4-0.4,0.7-0.4,0.7,0c0.4,0.4,0.4,0.7,0,0.7
				C442.1,227,435.6,230.7,425.5,230.7z"/>
			<path class="st4" d="M361.6,115.2L361.6,115.2l-1.5-0.4c-4-0.7-7.3-1.1-10.9-3.6c-4-2.9-6.9-6.9-8-11.3c-1.1-5.1,0.7-10.2,4-13.1
				c5.1-4.4,13.4-4.7,18.5-0.7c4.7,3.6,9.1,9.8,10.9,16.7v0.4c0,0,0,0-0.4,0.4c0,0.4-0.4,0.4-0.4,0.4l0,0L361.6,115.2L361.6,115.2z
				 M355.4,84.4c-3.3,0-6.9,1.1-9.4,3.3c-3.3,2.9-4.7,7.6-4,12.3c0.7,4,3.6,8,7.6,10.9c3.3,2.2,6.5,2.9,10.5,3.3h1.1l12.3-10.9
				c0,0,0,0,0-0.4c0,0,0,0,0-0.4c-1.8-6.5-5.8-12.7-10.5-16C361.6,85.1,358.3,84.4,355.4,84.4z"/>
			<path class="st113" d="M468.3,230.7c-10.2,0-16.7-4-21.8-8.3c-0.4-0.4-0.4-0.7,0-0.7c0.4-0.4,0.7-0.4,0.7,0
				c5.8,4.7,13.1,9.8,27.9,7.3c14.5-2.2,15.6-9.1,15.6-9.4s0.4-0.7,0.7-0.7s0.7,0.4,0.7,0.7c0,0.4-1.1,8-16.7,10.5
				C472.6,230.7,470.5,230.7,468.3,230.7z"/>
			<path class="st4" d="M532.2,115.2L532.2,115.2L519.1,104l0,0l-0.4-0.4c0,0,0-0.4-0.4-0.4v-0.4c1.8-6.9,6.2-13.1,10.9-16.7
				c5.4-4,13.8-3.6,18.5,0.7c3.6,2.9,5.1,8,4,13.1c-0.7,4.4-3.6,8.3-8,11.3c-3.6,2.5-6.9,2.9-10.9,3.6L532.2,115.2L532.2,115.2z
				 M519.8,103.3l12.3,10.9h1.1c4-0.7,7.3-1.1,10.5-3.3c4-2.9,6.5-6.9,7.6-10.9c1.1-4.7-0.7-9.4-4-12.3c-4.7-4-12.7-4.4-17.8-0.7
				c-4.7,3.3-8.7,9.4-10.5,16C519.5,102.9,519.5,102.9,519.8,103.3L519.8,103.3z"/>
			<path class="st113" d="M446.9,222.7c-0.4,0-0.7-0.4-0.7-0.7v-14.2c0-0.4,0.4-0.7,0.7-0.7c0.4,0,0.7,0.4,0.7,0.7V222
				C447.6,222.3,447.2,222.7,446.9,222.7z"/>
			<path class="st113" d="M447.6,220.5c0,0,0,1.8,1.8,2.9H449l-1.8-0.7l-0.4-0.7L447.6,220.5z"/>
			<path class="st113" d="M446.1,220.5c0,0,0,1.8-1.8,2.9h0.4l1.8-0.7l0.4-0.7L446.1,220.5z"/>
			<path class="st65" d="M436.3,207.8L436.3,207.8l-17.8-2.5c-0.4,0-0.4-0.4-0.4-0.4c0-0.4,0.4-0.4,0.4-0.4l17.8,2.5
				C436.7,207.1,436.7,207.4,436.3,207.8C436.7,207.8,436.7,207.8,436.3,207.8z"/>
			<path class="st65" d="M419.6,217.6C419.3,217.6,419.3,217.6,419.6,217.6c-0.4-0.7-0.4-0.7,0-0.7l17.1-4c0.4,0,0.4,0,0.4,0.4
				s0,0.4-0.4,0.4L419.6,217.6L419.6,217.6z"/>
			<path class="st65" d="M457.4,207.8C457,207.8,457,207.8,457.4,207.8c-0.4-0.7-0.4-0.7,0-0.7l17.8-2.5c0.4,0,0.4,0,0.4,0.4
				s0,0.4-0.4,0.4L457.4,207.8L457.4,207.8z"/>
			<path class="st65" d="M474.1,217.6L474.1,217.6l-17.1-4c-0.4,0-0.4-0.4-0.4-0.4c0-0.4,0.4-0.4,0.4-0.4l17.1,4
				C474.5,216.9,474.5,217.2,474.1,217.6C474.5,217.2,474.5,217.6,474.1,217.6z"/>
			<path class="st65" d="M387.3,195.1C387,195.1,387,195.1,387.3,195.1c-6.2-9.1-6.5-22.5-1.1-31.6c4.4-6.9,11.3-10.2,19.6-9.1
				c0.4,0,0.7,0.4,0.4,0.7c0,0.4-0.4,0.7-0.7,0.4c-7.6-1.1-14.2,1.8-18.1,8.3c-5.4,8.3-5.1,21.4,0.4,29.8
				C388.1,194.4,388.1,194.7,387.3,195.1C387.7,194.7,387.3,195.1,387.3,195.1z"/>
			<path class="st104" d="M422.2,190.7c0,0-24-1.1-46.1,5.8l0.4,1.1C376.4,197.6,399.7,191.5,422.2,190.7z"/>
			<g>
				<g>
					<path class="st65" d="M373.5,197.3l-1.5,1.8c2.2-1.1,4.7-1.8,4.7-1.8v-1.1l0,0l0,0c-17.4-49,50.8-59.2,45-5.4
						C430.5,134.1,356.5,143.2,373.5,197.3z"/>
				</g>
			</g>
			<ellipse class="st114" cx="402.6" cy="175.1" rx="9.1" ry="12.3"/>
			<path class="st65" d="M506.4,195.1C506.4,195.1,506,194.7,506.4,195.1c-0.7-0.4-0.7-0.7-0.4-1.1c5.8-8.3,5.8-21.4,0.4-29.8
				c-4-6.5-10.5-9.4-18.1-8.3c-0.4,0-0.7-0.4-0.7-0.4c0-0.4,0.4-0.7,0.4-0.7c8.3-1.1,15.2,2.2,19.6,9.1
				C512.9,173,512.9,186,506.4,195.1C506.8,194.7,506.8,195.1,506.4,195.1z"/>
			<path class="st104" d="M471.6,190.7c0,0,24-1.1,46.1,5.8l-0.4,1.1C517.3,197.6,494.1,191.5,471.6,190.7z"/>
			<g>
				<g>
					<path class="st104" d="M472.3,190.7c-5.8-53.7,62.4-43.2,45,5.4l0,0l0,0l-0.4,1.1c0,0,2.5,0.7,4.7,1.8l-1.5-1.8
						C537.2,143.2,463.2,134.1,472.3,190.7z"/>
				</g>
			</g>
			<ellipse class="st114" cx="491.2" cy="175.1" rx="9.1" ry="12.3"/>
			<circle class="st23" cx="393.9" cy="166.8" r="6.2"/>
			<circle class="st23" cx="483.5" cy="166.8" r="6.2"/>
			<path class="st65" d="M379.4,159.9c0,0-2.9,1.5-7.3-0.7c0,0,2.9,5.1,4.7,5.1L379.4,159.9z"/>
			<path class="st65" d="M514.4,159.9c0,0,2.9,1.5,7.3-0.7c0,0-2.9,5.1-4.7,5.1L514.4,159.9z"/>
			<path class="st4" d="M547.4,128.7c-1.5-1.8-2.9-4-4.4-5.8c3.3-0.4,5.4-1.1,5.4-1.1c0.4,0,0.7-0.4,1.1-0.4
				c7.6-3.6,13.8-10.2,16-18.1c2.5-6.9,1.8-14.9-1.1-21.4c-5.8-13.1-21.1-19.2-34.8-18.1c-2.5,0.4-5.1,0.7-7.6,1.5
				c-0.4,0-0.7,0.4-1.1,0.4c-0.4,0.4-1.1,0.4-1.5,0.7c-10.2,4.4-17.4,14.2-18.1,23.2l-6.9-2.9c-7.6-2.9-16.3-4.4-24.7-5.4
				c-8.7-1.1-17.4-1.5-26.1-1.1c-0.4,0-0.4,0-0.7,0c-1.1,0-2.2,0-3.6,0.4c-8.3,0.7-16.7,1.8-24.7,4c-5.4,1.5-10.5,3.3-15.6,5.1l0,0
				l0,0c-2.2,0.7-5.1,2.2-6.5,2.9c0.7-7.3-3.6-16-10.5-21.8l0,0l0,0c-0.4-0.4-0.7-0.7-1.1-0.7s-0.4-0.4-0.4-0.4
				c-0.7-0.4-1.1-0.7-1.8-1.1c-1.1-0.7-2.5-1.5-4-2.2c-1.5-0.7-2.5-1.5-4-1.8c-1.8-0.7-4-1.1-5.8-1.1c-13.8-1.5-29,5.1-34.8,18.1
				c-1.8,4-2.5,8-2.5,12.3c0,0-0.7,9.8,6.2,18.5c1.5,2.2,2.9,3.6,4,4.4c1.5,1.5,6.5,5.1,11.3,6.5c-6.5,7.6-37.8,47.9-20.7,96.9
				c0,0-0.4-0.7-0.4-2.5c0.7,2.9,1.5,5.4,2.5,8c1.8,5.1,4.4,9.8,7.3,14.5c20.3,30.9,61,41,91.1,43.9c4.7,0.4,9.4,0.7,13.8,0.7
				c1.1,0,2.5,0,3.6,0c27.2,0,53-6.2,75.1-18.1c25.4-13.4,40.3-30.1,45.4-50.5C573.5,188.2,566.3,155.2,547.4,128.7z M559,224.9
				c-20.7,45-98.7,67.2-163,51.9c-22.1-6.2-44.6-17.4-57.7-37.8c-2.9-4.4-5.4-9.1-7.3-14.2c-12.3-33.4-4-71.9,21.4-100.5
				c0.7-0.7,1.1-1.5,1.8-2.2c0.4,0,0.4,0,0.7,0c2.9,0,5.8-0.4,9.1-1.5c0.4,0,0.4-0.4,0.4-0.7s-0.4-0.4-0.7-0.4
				c-10.9,4-22.5,0-29.4-10.2c-5.4-8-8-21.4,1.8-32.7c6.2-6.2,12.3-9.4,17.8-10.9c0.7-0.4,1.8-0.4,2.5-0.7c9.1-1.5,16,1.5,19.6,3.6
				c10.5,5.8,16.7,17.1,14.5,26.1l0,0l0,0l0,0l0,0c0,0,0,0,0.4,0.4l0,0l0,0l0,0l0,0c0,0,0,0,0.4,0l0,0c3.6-1.8,6.9-3.3,10.5-4.4
				l4.7-1.8c15.6-4.4,32.3-6.2,48.6-5.8c9.8,0.4,19.6,1.5,29.4,3.3c3.3,0.7,6.2,1.8,9.4,2.9c2.2,0.7,4.7,1.8,6.9,2.9h0.4l0,0l0,0
				l0,0l0,0l0,0l0,0l0,0c-0.7-9.4,6.9-20,17.4-24.7c12.3-5.4,26.1-2.2,37.4,9.1c10.2,11.3,7.3,24.7,2.2,32.7
				c-6.9,10.2-18.5,14.2-29.4,10.2c-0.4,0-0.7,0-0.7,0.4s0,0.7,0.4,0.7h0.4c2.5,2.5,7.3,2.5,11.3,2.2
				C546.7,130.5,579.4,180.2,559,224.9z"/>
		</g>
		<g>
			<path class="st105" d="M409.5,98.6c0,0-1.5,19.6,6.2,28.3c0,0-2.2-8,2.2-12.3c0,0,9.8,16.7,45.7,14.2c0,0,3.6-0.4,5.4,1.5
				c1.5,1.8-3.3-7.6-3.3-7.6l2.2-2.2l4,3.3c0,0,8,4,15.2,4.4c0,0-2.2-2.9-3.3-5.4c-1.5-2.5-1.8-9.4-1.8-9.4l1.8-6.9l1.8,9.1
				c0,0,6.5,6.5,14.5,6.5c0,0-6.2-3.6-8.3-8.3c-1.8-5.1-12-12.7-12-12.7h-30.1L409.5,98.6z"/>
			<path class="st98" d="M487.2,114.2c-1.8-1.5-3.3-3.3-4.4-5.4c-0.7-1.1-1.1-2.5-1.8-3.6v0.4c0.4,1.5,1.1,2.9,1.5,4.4
				c0.7,1.5,1.1,2.9,1.5,4.4c0,0.4,0.4,1.1,0.4,1.5c0.7,2.5,1.5,5.1,2.2,7.3c0,0.4,0.4,0.7,0.7,1.1c0,0.4,0.4,0.4,0.4,0.7l0.4,0.4
				h-0.7h-0.4c-0.7,0-1.5,0-2.5,0c-1.8,0-3.6,0-5.8-0.4c-4.7-0.4-8.3-1.5-12-2.9c-2.5-1.1-4.7-2.5-7.6-4.7c-2.2-1.5-4.4-3.3-6.5-4.7
				l-1.1-0.7c4.7,5.8,10.2,9.8,16.7,12h0.4v0.7h-0.4c-0.4,0-0.4,0-0.7,0s-1.1,0.4-1.5,0.4c-4.7,0.4-9.1-1.5-13.4-4.7
				c-2.2-1.8-4.4-4-6.5-6.9c-0.4-0.7-0.7-1.1-1.1-1.8c0,0,0-0.4-0.4-0.4c0,0,0,0.4,0.4,0.4v0.4c0.7,1.8,1.5,3.6,2.5,4.7
				c1.1,1.1,2.2,2.5,3.3,3.6l0.4,0.4c1.8,1.5,3.6,2.9,6.2,4c0.7,0.4,1.8,0.7,2.5,1.1c0.7,0.4,1.8,0.7,2.5,1.1l1.1,0.4h-1.1
				c-0.7,0-1.1,0-1.8,0c-0.7,0-1.1,0-1.8,0c-0.7,0-1.5,0-2.2,0c-1.5,0-2.5,0-4-0.4h-0.7c-2.9-0.4-5.8-0.7-8.7-1.5
				c-6.2-1.8-11.6-4-16.3-7.3c-1.1-0.7-2.5-1.8-3.6-2.9c-3.3-2.9-4.7-6.5-4.7-10.9c0-1.1,0.4-2.5,0.7-3.6c0-0.4,0-0.7,0.4-0.7
				c0.4-1.1,0.7-2.5,1.1-3.6l0.4-0.7c0-0.4,0.4-0.4,0.4-0.7c-1.1,1.8-2.2,4-3.3,6.5c-0.7,2.2-1.5,4.4-1.5,6.5c0,0.4,0,1.1,0,1.5
				s0,0.7,0,1.5c0,0.4,0,0.7,0,1.5c0,0.7,0,1.8,0,2.5c0,1.1,0,2.5,0,3.6c0,0.7,0,1.1,0,1.8c0,0,0,0,0,0.4l0,0v0.4l-2.2-1.8
				c-0.4-0.4-0.7-0.7-1.1-1.5c-2.2-2.5-3.3-5.8-3.6-9.1c-1.1-5.1-0.4-10.2,0.4-13.8c0.7-3.3,1.5-5.8,2.5-8.3
				c1.1-2.9,2.5-5.4,4.7-7.6c1.5-1.8,2.9-3.3,4.4-4.7c2.5-2.5,5.1-3.6,8.3-4c1.1,0,2.2,0,2.9,0c0.4,0,0.7,0,1.5,0h0.4
				c0.4,0,0.4,0,0.7,0c0,0,0.4,0,0.4-0.4c0-0.7,0.4-1.1,0.7-1.1l0,0c1.8-1.5,3.6-1.8,5.4-2.2c2.5-0.7,5.8-0.7,9.1-0.7
				c4.7,0.4,8.3,1.1,11.6,2.5c0.7,0.4,1.5,1.1,2.2,1.5c4,3.3,7.3,7.6,9.8,13.4c0.7,1.5,1.1,2.5,1.8,4c0.4,0.4,0.4,1.1,0.7,1.5
				c-1.5-7.3-4-13.1-8.7-17.8l0,0l-0.7-0.7l0,0h0.4c0.4,0,0.7,0,0.7,0c3.3,0.7,6.2,2.2,8.7,4.4c2.9,2.5,5.1,5.4,6.9,9.4
				c1.1,2.5,2.2,5.1,2.9,7.3c0.4,1.1,0.7,2.5,1.1,3.6c0.4,0.7,0.4,1.5,0.7,2.5s0.7,2.2,0.7,2.9c0.7,2.9,1.8,5.8,2.9,8.7
				c1.5,3.3,3.3,6.2,6.2,8.3c0,0,0,0,0,0.4l0,0l0.4,0.4h-0.4c-0.4,0-0.4,0-0.7,0s-0.7,0-1.1,0C493.3,117.8,490.1,116.3,487.2,114.2z
				"/>
			<path class="st115" d="M438.2,100.4c0,0-7.6-12.3-4.4-24.3C433.8,76,432.3,89.5,438.2,100.4z"/>
			<path class="st115" d="M420.4,93.1c-0.4,0.4-0.4,1.1-0.7,1.5c-0.4,1.5-1.1,2.9-1.5,4.4c-0.4,1.5-1.1,2.9-1.1,4.7
				c0,4.4,1.8,8,4.7,10.9c1.1,1.1,2.5,2.2,4,3.3c0.4,0.4,0.7,0.4,1.1,0.7C422.5,112,418.6,103.3,420.4,93.1z"/>
			<path class="st116" d="M428.7,69.9c-3.3,0.4-5.8,1.8-8.3,4c-1.5,1.5-2.9,3.3-4.4,4.7c-1.8,2.5-3.3,5.1-4.7,8
				c-1.1,2.9-1.8,5.4-2.5,8.3c-0.7,4.7-1.1,9.1-0.4,13.8c0,0.4,0,0.7,0.4,1.1c-2.2-30.9,24.3-39.9,24.3-39.9
				C431.6,69.9,430.2,69.5,428.7,69.9z"/>
			<path class="st116" d="M453.8,65.9c0,0,16,5.1,21.8,29c0,0,1.1,7.6,4.7,12.3c0,0-3.6-20-4.7-24C475.2,83.3,469.7,65.9,453.8,65.9
				z"/>
			<path class="st116" d="M490.1,125c0,0-20.3-7.3-27.6-20.7c0,0,11.6,13.4,23.6,16.3L490.1,125z"/>
			<g>
				<path class="st115" d="M450.9,115.6c0,0-9.8-8.3-11.6-13.1c0,0,2.5,5.8,6.2,10.9c0.4,3.6,2.2,8.3,3.3,12.3
					c1.5,0.4,2.5,0.4,4,0.4c1.5,0,3.3,0.4,4.7,0.4c1.8,0,4.7,0,6.5,0c-1.8-0.7-4-1.8-5.8-2.5c-2.2-1.1-4.7-1.8-6.5-3.6
					c-0.4-0.4-0.7-0.7-1.1-1.1v-1.1c0.7,0.4,1.1,1.1,1.8,1.5c4,3.3,8.3,5.1,13.4,4.7c0.7,0,1.5-0.4,2.2-0.4l1.1-0.7
					c-2.9-1.1-2.9-0.7-5.4-2.5C460.3,119.6,454.9,117.4,450.9,115.6z"/>
				<path class="st115" d="M487.5,123.2c-0.4-0.7-0.4-0.7-0.4-1.8c-16-4.7-24.7-17.1-24.7-17.1c4.7,11.6,14.9,18.1,19.2,20.7
					c1.8,0,3.6,0,5.4,0.4c0.4,0,0.4,0,0.7,0C487.5,124.7,487.9,124,487.5,123.2z"/>
			</g>
			<path class="st117" d="M488.6,116.3c1.5,0.7,2.9,1.5,4.4,2.2c3.3,1.5,6.5,1.1,10.9,0c-0.4,0-0.4-0.4-0.7-0.4
				c-0.7-0.4-1.5-1.1-2.5-1.5c-2.5-1.8-4.7-4-5.8-6.2c-1.8-3.3-3.3-6.9-4.4-10.9l-0.4-1.1c-0.4-1.8-1.1-3.6-1.5-5.8
				c-1.1-2.9-2.2-5.8-3.3-8.3c-1.1-2.5-2.9-5.1-5.1-8c-0.4-0.4-0.4-0.4-0.7-0.7c-0.7-1.1-1.8-2.2-2.9-2.9c-1.8-1.5-3.6-2.2-5.4-2.9
				c-1.8-0.7-3.3-1.1-5.4-0.7c-0.4,0-0.4,0-0.7,0c0.4-0.4-0.4-1.1-1.1-1.5c-3.6-1.8-7.6-2.9-12.7-3.3c-2.2,0-4.4,0-6.9,0.4
				c-1.8,0.4-3.6,0.7-5.8,1.1c-1.8,0.4-3.6,1.5-4.7,3.3c0,0.4-0.4,0.4-0.7,0.4c-0.4,0-0.7,0-1.1-0.4c-0.7,0-1.1-0.4-1.8-0.4
				c-3.3,0-6.2,0.7-9.1,2.5c-2.2,1.5-4,3.3-6.2,5.8c-2.2,2.9-4,5.4-5.1,8.3c-0.7,1.8-1.5,4-1.8,5.8c-0.7,2.2-1.1,4.4-1.5,7.3
				c-0.4,2.2-0.4,4.4,0,5.8c0.4,3.3,0.7,6.2,1.8,9.1c2.5,5.1,5.8,8.7,10.2,11.6l0,0c-1.1-3.6-1.5-7.6-1.8-11.3c0-0.7,0-1.5,0-2.2
				v-0.4h0.4c0.4,0,0.4,0,0.4,0.4c0.4,0.4,1.1,1.1,1.5,1.5c1.1,1.1,2.2,2.5,3.6,3.3c2.9,2.5,6.2,4,9.1,5.4
				c6.2,2.9,12.3,4.4,19.2,4.7c2.2,0,4,0,6.2,0c0.7,0,1.8,0,2.5,0c0.7,0,1.1,0,1.8,0c1.1,0,1.8,0,2.9,0c0.7,0,1.1,0,1.8,0
				c1.8,0,4,0.7,5.4,1.8c-0.7-1.1-1.5-1.8-2.5-2.5h-0.4v-0.4l0,0l0,0c0.4,0,0.4,0,0.7-0.4c0.4,0,1.1-0.4,1.1-0.7s0.4,0,0.4,0l0,0
				c0.7,0,1.1,0,1.8,0.4c1.5,0,2.5,0.4,4,0.4c1.1,0,1.8,0,2.9,0h0.4c2.9,0,5.8,0,8.7,0l0,0l0,0l0,0c-1.5-1.5-1.8-2.9-2.2-4.7
				c0-0.4,0-0.7-0.4-1.1c-0.4-0.7-0.4-1.5-0.4-2.5c0-0.4,0-0.7,0-1.1v-0.4v-0.7l0.7,0.4c0,0,0.4,0,0.4,0.4
				C488.2,116,488.2,116.3,488.6,116.3z M487.2,114.2c-1.8-1.5-3.3-3.3-4.4-5.4c-0.7-1.1-1.1-2.5-1.8-3.6v0.4
				c0.4,1.5,1.1,2.9,1.5,4.4c0.7,1.5,1.1,2.9,1.5,4.4c0,0.4,0.4,1.1,0.4,1.5c0.7,2.5,1.5,5.1,2.2,7.3c0,0.4,0.4,0.7,0.7,1.1
				c0,0.4,0.4,0.4,0.4,0.7l0.4,0.4h-0.7h-0.4c-0.7,0-1.5,0-2.5,0c-1.8,0-3.6,0-5.8-0.4c-4.7-0.4-8.3-1.5-12-2.9
				c-2.5-1.1-4.7-2.5-7.6-4.7c-2.2-1.5-4.4-3.3-6.5-4.7l-1.1-0.7c4.7,5.8,10.2,9.8,16.7,12h0.4v0.7h-0.4c-0.4,0-0.4,0-0.7,0
				s-1.1,0.4-1.5,0.4c-4.7,0.4-9.1-1.5-13.4-4.7c-2.2-1.8-4.4-4-6.5-6.9c-0.4-0.7-0.7-1.1-1.1-1.8c0,0,0-0.4-0.4-0.4
				c0,0,0,0.4,0.4,0.4v0.4c0.7,1.8,1.5,3.6,2.5,4.7c1.1,1.1,2.2,2.5,3.3,3.6l0.4,0.4c1.8,1.5,3.6,2.9,6.2,4c0.7,0.4,1.8,0.7,2.5,1.1
				c0.7,0.4,1.8,0.7,2.5,1.1l1.1,0.4h-1.1c-0.7,0-1.1,0-1.8,0c-0.7,0-1.1,0-1.8,0c-0.7,0-1.5,0-2.2,0c-1.5,0-2.5,0-4-0.4h-0.7
				c-2.9-0.4-5.8-0.7-8.7-1.5c-6.2-1.8-11.6-4-16.3-7.3c-1.1-0.7-2.5-1.8-3.6-2.9c-3.3-2.9-4.7-6.5-4.7-10.9c0-1.1,0.4-2.5,0.7-3.6
				c0-0.4,0-0.7,0.4-0.7c0.4-1.1,0.7-2.5,1.1-3.6l0.4-0.7c0-0.4,0.4-0.4,0.4-0.7c-1.1,1.8-2.2,4-3.3,6.5c-0.7,2.2-1.5,4.4-1.5,6.5
				c0,0.4,0,1.1,0,1.5s0,0.7,0,1.5c0,0.4,0,0.7,0,1.5c0,0.7,0,1.8,0,2.5c0,1.1,0,2.5,0,3.6c0,0.7,0,1.1,0,1.8c0,0,0,0,0,0.4l0,0v0.4
				l-2.2-1.8c-0.4-0.4-0.7-0.7-1.1-1.5c-2.2-2.5-3.3-5.8-3.6-9.1c-1.1-5.1-0.4-10.2,0.4-13.8c0.7-3.3,1.5-5.8,2.5-8.3
				c1.1-2.9,2.5-5.4,4.7-7.6c1.5-1.8,2.9-3.3,4.4-4.7c2.5-2.5,5.1-3.6,8.3-4c1.1,0,2.2,0,2.9,0c0.4,0,0.7,0,1.5,0h0.4
				c0.4,0,0.4,0,0.7,0c0,0,0.4,0,0.4-0.4c0-0.7,0.4-1.1,0.7-1.1l0,0c1.8-1.5,3.6-1.8,5.4-2.2c2.5-0.7,5.8-0.7,9.1-0.7
				c4.7,0.4,8.3,1.1,11.6,2.5c0.7,0.4,1.5,1.1,2.2,1.5c4,3.3,7.3,7.6,9.8,13.4c0.7,1.5,1.1,2.5,1.8,4c0.4,0.4,0.4,1.1,0.7,1.5
				c-1.5-7.3-4-13.1-8.7-17.8l0,0l-0.7-0.7l0,0h0.4c0.4,0,0.7,0,0.7,0c3.3,0.7,6.2,2.2,8.7,4.4c2.9,2.5,5.1,5.4,6.9,9.4
				c1.1,2.5,2.2,5.1,2.9,7.3c0.4,1.1,0.7,2.5,1.1,3.6c0.4,0.7,0.4,1.5,0.7,2.5s0.7,2.2,0.7,2.9c0.7,2.9,1.8,5.8,2.9,8.7
				c1.5,3.3,3.3,6.2,6.2,8.3c0,0,0,0,0,0.4l0,0l0.4,0.4h-0.4c-0.4,0-0.4,0-0.7,0s-0.7,0-1.1,0C493.3,117.8,490.1,116.3,487.2,114.2z
				"/>
		</g>
	</g>
	<g>
		<g class="st57">
			<path class="st58" d="M552.1,157.7c-2.9-17.4-14.9-28.3-35.9-41.7c-20.7-13.1-24-13.4-56.3-15.6c-3.6-0.4-8-0.4-12.7-0.7
				c-42.5-2.9-64.2,12.3-66.1,13.4c-16.3,4.7-26.1,18.9-31.9,34.8c6.2-9.8,17.1-25.4,25.4-27.2c12.3-2.5,20.3-6.5,30.1-9.1
				c9.8-2.2,31.6-4.4,31.6-4.4s40.3-5.8,47.9-1.8c7.3,4,33.8,16,38.5,22.1c4.7,6.2,17.1,14.2,23.2,25c2.2,3.6,5.1,9.1,8.3,14.5
				c0-0.7-0.4-1.1-0.4-1.5C553.2,162.8,552.5,159.9,552.1,157.7z"/>
		</g>
		<g>
			<path class="st23" d="M569.2,164.6c-3.6-7.6-3.3-9.1-2.5-11.6v-0.4c0.4-1.1,0.4-2.9,0-4.4c0-0.7,0-1.1,0-1.5
				c0-0.7,0.4-1.5,1.1-2.9c0.7-1.8,1.8-4,1.8-5.8c0-2.2-4-8.7-6.2-12c0-0.4-0.4-0.4,0-0.7c10.9-39.6,16.7-70.8,14.5-77
				c-1.1,0-3.3,0-7.3,0c-12.7-0.7-58.1,6.9-83.8,25.4c0,0-8,5.8-12.3,9.4c19.6,2.5,31.9,6.9,31.9,7.3c0.4,0.4,0.7,0.7,0.7,1.5
				c-0.4,0.4-0.7,0.7-1.5,0.7c-0.4,0-23.6-8.7-58.8-8.7h-0.4c-29.8,0-57.4,10.9-57.7,10.9h-0.4c-0.4,0-0.7-0.4-1.1-0.7
				c-0.4-0.4,0-1.1,0.7-1.5c0.4,0,14.2-5.4,32.7-8.7c-4.4-3.6-12.7-10.2-12.7-10.2c-25.4-18.5-59.9-31.9-65.3-33.8
				c-3.6-1.5-4.7-1.1-5.1-1.1l0,0c0,0.4-12.3,46.5-4.7,86.8v0.4c0,0-2.2,10.9-2.5,13.8c0,2.2-1.5,4-2.2,5.1
				c-0.4,0.7-0.7,1.5-1.1,1.8c0,0.4,0,1.1,0,1.5c0,1.5-0.4,2.9,0,4.4v0.4c0.7,2.2,1.1,4-2.5,11.6c-3.6,7.3-17.1,65.7-17.8,79.1
				c0.4,0.7,1.8,3.6,4,5.1c0.7,0.4,1.8,1.5,3.6,2.5c6.9,5.1,20.7,15.2,28.7,17.4c10.2,2.5,28.7,9.1,35.6,14.2
				c7.3,5.1,15.6,7.3,20.3,7.3l0,0c5.8,0.4,22.5-1.5,27.2-2.5c1.5-0.4,3.6-1.1,5.8-1.8c5.4-1.5,11.6-3.3,14.2-3.6l0,0l0,0l0,0h0.4
				c2.9,0.4,8.7,2.2,14.2,3.6c2.2,0.7,4.4,1.5,5.8,1.8c1.8,0.4,4.4,1.5,6.9,2.5c4,1.8,8.7,4,12.3,3.6c4.7-0.4,10.5-4.4,16.7-8.7
				c0.7-0.4,1.5-1.1,2.2-1.5c4.7-3.3,15.6-5.4,25.4-7.3c4.4-0.7,8.7-1.5,12-2.5c7.6-1.8,23.2-14.9,31.6-21.4
				c2.9-2.2,4.7-3.6,5.4-4.4c2.5-1.5,3.6-4.4,4-5.1C582.3,230.3,572.8,172.2,569.2,164.6z M534.3,249.6
				c-32.3,30.5-74,32.7-84.6,32.7c-1.5,0-2.5,0-2.5,0c-0.4,0-46.5-1.5-74.4-18.1c-29.8-17.8-37.8-31.2-34.5-56.6
				c0.4-2.9,0.7-5.8,1.1-9.1c3.3-27.9,8.7-75.1,41.7-84.6c1.8-1.5,24-16.3,66.1-13.4c4.7,0.4,8.7,0.7,12.7,0.7
				c32.3,2.2,35.6,2.2,56.3,15.6c21.4,13.8,33.4,24.3,35.9,41.7c0.4,2.2,1.1,5.1,1.8,8.3C558.7,186,566.7,219.1,534.3,249.6z"/>
		</g>
		<path class="st118" d="M346.7,118.9C346.7,118.9,347,118.9,346.7,118.9c0.4,0,0.7,0,0.7,0c7.3-6.9,25.8-18.1,26.1-18.5
			s0.4-0.7,0.4-1.1l-9.8-17.4c-9.1-15.6-15.2-15.6-16.7-15.2c-0.4,0-0.7,0-1.1,0c-1.5,0.7-2.5,3.3-2.9,8.3
			c-0.7,9.1,2.9,41.7,3.3,43.2C346.3,118.5,346.3,118.5,346.7,118.9z M344.5,75c0.7-5.8,1.8-6.9,1.8-6.9l0,0l0,0c0.4,0,0.4,0,0.7,0
			c0,0,5.8-1.8,15.2,14.5l9.4,16.7c-3.3,1.8-17.4,10.9-24.7,17.1C346.7,109.8,343.8,82.9,344.5,75z"/>
		<path class="st4" d="M552.1,157.7c-2.9-17.4-14.9-28.3-35.9-41.7c-20.7-13.1-24-13.4-56.3-15.6c-3.6-0.4-8-0.4-12.7-0.7
			c-42.5-2.9-64.2,12.3-66.1,13.4c-33,9.8-38.5,56.6-41.7,84.6c-0.4,3.3-0.7,6.5-1.1,9.1c-3.3,25.4,4.7,38.8,34.5,56.6
			c27.9,17.1,74,18.1,74.4,18.1c0,0,1.1,0,2.5,0c10.5,0,52.6-2.2,84.6-32.7c32.3-30.5,24.3-63.5,19.6-83.5
			C553.2,162.8,552.5,160.3,552.1,157.7z M533.6,248.5c-36.7,34.5-85.7,31.9-86,31.9s-46.1-1.5-73.7-18.1
			c-29.4-17.8-37-30.1-33.8-55.2c0.4-2.9,0.7-5.8,1.1-9.1c3.3-27.6,8.3-74,41-83.5c0,0,0,0,0.4,0s18.5-13.8,54.8-13.8
			c3.3,0,6.5,0,10.2,0.4c4.7,0.4,8.7,0.7,12.7,0.7c31.9,1.8,35.2,2.2,55.5,15.2c24.3,15.6,33,25.4,35.6,40.7
			c0.4,2.5,1.1,5.1,1.8,8.3C557.2,186,565.2,218.7,533.6,248.5z"/>
		<linearGradient id="SVGID_9_" gradientUnits="userSpaceOnUse" x1="401.7843" y1="292.5636" x2="444.1605" y2="292.5636">
			<stop  offset="0" style="stop-color:#E7DCD2"/>
			<stop  offset="0.4966" style="stop-color:#E4DAD0"/>
			<stop  offset="0.8771" style="stop-color:#DCD2C8"/>
			<stop  offset="1" style="stop-color:#D8CEC4"/>
		</linearGradient>
		<path class="st29" d="M436,290.6c-1.8,0.7-4.7,2.2-7.6,3.3c-5.8,2.5-14.2,6.2-16.3,6.2s-6.9-4.4-10.2-7.6c6.9,0,20.7-1.5,25.4-2.5
			c1.5-0.4,3.6-1.1,5.8-1.8c3.6-1.1,8-2.2,10.9-2.9C442.5,286.6,439.6,289.1,436,290.6z"/>
		<linearGradient id="SVGID_10_" gradientUnits="userSpaceOnUse" x1="449.659" y1="295.3076" x2="506.4059" y2="295.3076">
			<stop  offset="0" style="stop-color:#E7DCD2"/>
			<stop  offset="0.4966" style="stop-color:#E4DAD0"/>
			<stop  offset="0.8771" style="stop-color:#DCD2C8"/>
			<stop  offset="1" style="stop-color:#D8CEC4"/>
		</linearGradient>
		<path class="st32" d="M491.5,305.4c-5.8,2.2-23.6-4.4-41.7-20.7c2.9,0.7,7.6,1.8,11.3,3.3c2.2,0.7,4.4,1.5,5.8,1.8
			c1.8,0.4,4,1.5,6.5,2.5c4.4,1.8,9.4,4,13.1,4c5.4-0.4,11.3-4.4,17.4-9.1c0.7-0.4,1.5-1.1,2.2-1.5l0,0
			C503.5,290.9,496.6,303.6,491.5,305.4z"/>
		<path class="st121" d="M344.5,75c0.7-5.8,1.8-6.9,1.8-6.9l0,0l0,0c0.4,0,0.4,0,0.7,0c0,0,5.8-1.8,15.2,14.5l9.4,16.7
			c-3.3,1.8-17.4,10.9-24.7,17.1C346.7,109.8,343.8,82.9,344.5,75z"/>
		<path class="st122" d="M584.4,225.2c-1.1-9.8-2.2-19.6-4.4-29.4c-1.5-6.2-6.2-28.3-6.9-31.6c-0.7-3.3-2.9-5.8-2.9-7.3s0-4,0-4
			s0-4,0.4-5.8s0.7-2.9,0.7-2.9c1.8-4.4,1.8-7.6,1.1-9.1c-0.7-1.8-5.4-10.5-5.4-10.5l5.8-24c3.3-12.7,6.2-25.8,7.6-38.8
			c0.4-4,2.5-11.3,0.4-14.9c-1.8-2.9-8-1.8-11.3-1.8c-7.6,0-20,1.8-20,1.8c-51.9,8.3-78.4,34.8-78.4,34.8l0,0
			c-7.6-0.7-16-1.5-25.4-1.8c-7.6-0.4-14.9,0.4-21.8,1.5c-8-6.9-44.6-38.1-86.4-46.1c0,0-2.2-1.5-3.3,3.6
			c-1.1,5.4-8.3,43.9-7.3,61.7c0,0,1.1,16.3,2.5,25c0,0-1.5,8-1.8,10.5c-0.7,2.5-0.7,5.4-0.7,5.4s-3.3,3.6-4,6.2
			c-1.1,2.5,1.8,6.9,1.8,8s-1.5,4.4-1.8,5.4c-1.1,1.1-6.2,17.1-8,26.5c-1.8,9.4-6.2,26.5-9.1,40.3c-2.9,13.8-5.4,16.7,5.1,23.2
			c0.7,0.4,1.5,1.1,2.2,1.8c6.9,5.1,21.1,15.6,29.4,17.8c10.2,2.5,28.3,9.1,35.2,13.8c6.2,4.4,13.1,6.5,18.1,7.3
			c0,0,7.3,9.8,10.9,10.2c3.6,0.4,5.4,1.5,14.2-2.9h-0.7c2.5-1.1,5.4-2.2,8.3-3.6c2.9-1.5,5.8-2.5,7.6-3.3c5.1-1.8,9.1-6.2,10.5-7.6
			c13.1,12,26.9,19.6,36.3,22.1l0,0c0.4,0,1.1,0.4,1.5,0.4l0,0c0.7,0,1.1,0.4,1.8,0.4c0.4,0,0.7,0,1.1,0h0.4h0.4c0.7,0,1.1,0,1.5,0
			c4.4-0.4,6.2-2.5,6.2-2.5c7.6-7.3,13.1-21.1,13.1-21.1c5.4-2.2,13.4-3.6,20.7-5.1c4.4-0.7,8.7-1.5,12-2.5
			c8-2.2,23.6-14.9,32.3-21.8c1.1-1.1,2.2-1.8,3.3-2.5c4.7-4,7.6-5.8,7.6-12.7C585.5,234.7,584.8,229.9,584.4,225.2z M570.6,135.2
			L570.6,135.2L570.6,135.2L570.6,135.2z M436,290.6c-1.8,0.7-4.7,2.2-7.6,3.3c-5.8,2.5-14.2,6.2-16.3,6.2s-6.9-4.4-10.2-7.6
			c6.9,0,20.7-1.5,25.4-2.5c1.5-0.4,3.6-1.1,5.8-1.8c3.6-1.1,8-2.2,10.9-2.9C442.5,286.6,439.6,289.1,436,290.6z M491.5,305.4
			c-5.8,2.2-23.6-4.4-41.7-20.7c2.9,0.7,7.6,1.8,11.3,3.3c2.2,0.7,4.4,1.5,5.8,1.8c1.8,0.4,4,1.5,6.5,2.5c4.4,1.8,9.4,4,13.1,4
			c5.4-0.4,11.3-4.4,17.4-9.1c0.7-0.4,1.5-1.1,2.2-1.5l0,0C503.5,290.9,496.6,303.6,491.5,305.4z M579,248.8
			c-0.7,0.4-2.5,1.8-5.4,4.4c-8.3,6.9-24,19.6-31.6,21.4c-3.3,0.7-7.3,1.5-12,2.5c-9.4,1.8-20.3,3.6-25.4,7.3
			c-0.7,0.4-1.5,1.1-2.2,1.5c-6.2,4.4-11.6,8.3-16.7,8.7c-3.3,0-8-1.8-12.3-3.6c-2.5-1.1-4.7-2.2-6.9-2.5c-1.5-0.4-3.6-1.1-5.8-1.8
			c-5.4-1.5-11.3-3.3-14.2-3.6h-0.4l0,0l0,0l0,0c-2.5,0.4-8.7,2.2-14.2,3.6c-2.2,0.7-4.4,1.5-5.8,1.8c-4.7,1.1-21.4,2.9-27.2,2.5
			l0,0c-5.1-0.4-13.1-2.2-20.3-7.3c-6.9-5.1-25.4-11.6-35.6-14.2c-7.3-1.8-19.6-10.9-26.9-16c-9.4-8.3-8.7-14.9-8.3-14.9
			c2.9-19.2,14.2-67.2,17.4-74c3.6-7.6,3.3-9.1,2.5-11.6v-0.4c-0.4-1.1-0.4-2.9,0-4.4c0-0.7,0-1.1,0-1.5c0-0.4,0.4-1.1,1.1-1.8
			c0.7-1.5,2.2-3.3,2.2-5.1c0.4-2.9,2.5-13.8,2.5-13.8v-0.4c-7.3-40.3,4.7-86,4.7-86.8l0,0c0.4,0,1.5-0.4,4.4,0.7
			c5.8,1.8,39.9,15.2,65.3,33.8c0,0,6.9,5.1,11.3,8.7c-18.1,3.6-31.2,9.8-31.2,9.8c-0.4,0.4-0.7,0.7-0.7,1.5c0,0.4,0.4,0.7,1.1,0.7
			h0.4c0.4,0,27.9-10.9,57.7-10.9h0.4c35.2,0,58.4,8.7,58.8,8.7c0.4,0.4,1.1,0,1.5-0.7c0.4-0.4,0-1.1-0.7-1.5
			c-6.2-2.5-16.7-5.4-31.6-7.3c4.4-3.6,11.6-8.7,11.6-8.7c25.8-18.5,70.8-26.1,83.8-25.4c4.4,0.4,6.5,0.4,7.3,0
			c2.2,6.2-3.6,37.4-14.5,77c0,0.4,0,0.7,0,0.7c2.2,3.6,6.2,10.2,6.2,12c0,1.8-1.1,4-1.8,5.8c-0.7,1.5-1.1,2.2-1.1,2.9
			c0,0.4,0,1.1,0,1.5c0,1.5,0.4,2.9,0,4.4v0.4c-0.7,2.2-1.1,4,2.5,11.6s13.1,65.7,13.8,79.1C582.6,244.5,581.2,247,579,248.8z"/>
		<g class="st57">
			<linearGradient id="SVGID_11_" gradientUnits="userSpaceOnUse" x1="330.6055" y1="90.2017" x2="345.3077" y2="90.2017">
				<stop  offset="0" style="stop-color:#E7DCD2"/>
				<stop  offset="0.4966" style="stop-color:#E4DAD0"/>
				<stop  offset="0.8771" style="stop-color:#DCD2C8"/>
				<stop  offset="1" style="stop-color:#D8CEC4"/>
			</linearGradient>
			<path class="st33" d="M332.9,125.8v0.4c0,0-1.1,5.8-1.8,10.2l1.8-1.1l11.6-17.4c0,0,2.9-3.3-1.5-16c-4-12-6.2-49.7-6.5-57.7
				C333.6,57.2,327.1,93.5,332.9,125.8z"/>
			<linearGradient id="SVGID_12_" gradientUnits="userSpaceOnUse" x1="324.4846" y1="156.2642" x2="332.7664" y2="156.2642">
				<stop  offset="0" style="stop-color:#E7DCD2"/>
				<stop  offset="0.4966" style="stop-color:#E4DAD0"/>
				<stop  offset="0.8771" style="stop-color:#DCD2C8"/>
				<stop  offset="1" style="stop-color:#D8CEC4"/>
			</linearGradient>
			<path class="st34" d="M332.9,152.3l-5.4-5.4c0,0.4,0,1.1,0,1.5c0,1.5-0.4,2.9,0,4.4v0.4c0.7,2.2,1.1,4-2.5,11.6
				c0,0.4-0.4,0.7-0.4,1.1l4.7-3.3L332.9,152.3z"/>
		</g>
		<linearGradient id="SVGID_13_" gradientUnits="userSpaceOnUse" x1="308.9348" y1="268.449" x2="440.6788" y2="268.449">
			<stop  offset="0" style="stop-color:#E7DCD2"/>
			<stop  offset="0.4966" style="stop-color:#E4DAD0"/>
			<stop  offset="0.8771" style="stop-color:#DCD2C8"/>
			<stop  offset="1" style="stop-color:#D8CEC4"/>
		</linearGradient>
		<path style="opacity:0.6;fill:url(#SVGID_13_);enable-background:new    ;" d="M421.5,283.7l-36.3-8.7c0,0-28.3-13.4-38.1-14.2
			c-6.5-0.7-25.4-8.7-38.1-14.2c0.7,0.7,1.5,1.5,2.2,2.2c0.7,0.4,1.8,1.5,3.6,2.5c6.9,5.1,20.7,15.2,28.7,17.4
			c10.2,2.5,28.7,9.1,35.6,14.2c7.3,5.1,15.6,7.3,20.3,7.3l0,0c5.8,0.4,22.5-1.5,27.2-2.5c1.5-0.4,3.6-1.1,5.8-1.8
			c2.5-0.7,5.4-1.5,8-2.2H421.5z"/>
		<path class="st126" d="M577.5,48.5c-1.1,0-3.3,0-7.3,0c-12.7-0.7-58.1,6.9-83.8,25.4c0,0-8,5.8-12.3,9.4
			c19.6,2.5,31.9,6.9,31.9,7.3c0.4,0.4,0.7,0.7,0.7,1.5c-0.4,0.4-0.7,0.7-1.5,0.7c-0.4,0-19.6-7.3-49-8.3c1.5,5.1,3.6,10.9,6.5,17.4
			c29.8,1.8,33.4,2.5,53.4,15.2c21.4,13.8,33.4,24.3,35.9,41.7c0.4,2.2,1.1,5.1,1.8,8.3c1.1,5.1,2.5,10.9,3.6,17.4
			c5.4,1.8,11.3,2.9,17.1,4.4c-2.2-11.3-4-20.3-5.4-23.2c-3.6-7.6-3.3-9.1-2.5-11.6v-0.4c0.4-1.1,0.4-2.9,0-4.4c0-0.7,0-1.1,0-1.5
			c0-0.7,0.4-1.5,1.1-2.9c0.7-1.8,1.8-4,1.8-5.8c0-2.2-4-8.7-6.2-12c0-0.4-0.4-0.4,0-0.7C574.3,85.8,580.1,54.6,577.5,48.5z"/>
		<path class="st118" d="M555,118.5l0.4,0.4c0,0,0,0,0.4,0c0.4,0,0.4-0.4,0.4-0.4c0.4-1.1,9.1-30.9,9.4-35.9c0-1.1,0.4-2.5,0.4-3.3
			c0.4-2.2,0.7-3.6-0.4-4.4c-0.7-0.7-2.2-0.7-4.7,0c-6.5,1.8-25,17.4-27.9,26.1c0,0.4,0,0.7,0.4,0.7
			C533.6,101.5,550.7,114.2,555,118.5z M561.6,75.7c2.2-0.7,2.9-0.4,3.3-0.4c0.4,0.4,0,1.8,0,3.3c-0.4,1.1-0.4,2.2-0.4,3.6
			c-0.4,4.4-7.3,29-9.1,34.5c-5.1-4.4-17.8-14.2-20.3-16.3C538.3,92,555.8,77.5,561.6,75.7z"/>
		<path class="st121" d="M561.6,75.7c2.2-0.7,2.9-0.4,3.3-0.4c0.4,0.4,0,1.8,0,3.3c-0.4,1.1-0.4,2.2-0.4,3.6
			c-0.4,4.4-7.3,29-9.1,34.5c-5.1-4.4-17.8-14.2-20.3-16.3C538.3,92,555.8,77.5,561.6,75.7z"/>
		<g class="st57">
			<linearGradient id="SVGID_14_" gradientUnits="userSpaceOnUse" x1="585.696" y1="119.312" x2="646.3734" y2="215.6039">
				<stop  offset="0" style="stop-color:#E7DCD2"/>
				<stop  offset="0.4966" style="stop-color:#E4DAD0"/>
				<stop  offset="0.8771" style="stop-color:#DCD2C8"/>
				<stop  offset="1" style="stop-color:#D8CEC4"/>
			</linearGradient>
			<path class="st36" d="M577.9,58.6c-5.1,10.5-13.1,25.8-17.8,33.8c-7.3,12.7-8.3,21.4-8.3,21.4l12.7,14.5
				c-0.4-0.7-0.7-1.5-1.1-1.8c0-0.4-0.4-0.4,0-0.7C571.4,96.4,576.5,72.1,577.9,58.6z"/>
			<linearGradient id="SVGID_15_" gradientUnits="userSpaceOnUse" x1="491.0211" y1="178.9701" x2="551.6981" y2="275.2624">
				<stop  offset="0" style="stop-color:#E7DCD2"/>
				<stop  offset="0.4966" style="stop-color:#E4DAD0"/>
				<stop  offset="0.8771" style="stop-color:#DCD2C8"/>
				<stop  offset="1" style="stop-color:#D8CEC4"/>
			</linearGradient>
			<path class="st37" d="M542.3,274.6c7.6-1.8,23.2-14.9,31.6-21.4c2.9-2.2,4.7-3.6,5.4-4.4c2.5-1.5,3.6-4.4,4-5.1
				c-1.1-13.4-10.5-71.5-14.2-79.1s-3.3-9.1-2.5-11.6v-0.4c0.4-1.1,0.4-2.9,0-4.4c0-0.7,0-1.1,0-1.5c0-0.7,0.4-1.5,1.1-2.9
				c0.7-1.8,1.8-4,1.8-5.8c0-1.1-1.1-3.3-2.5-5.4c-4.4,4.7-9.1,10.9-8.7,13.1c0.7,3.3,1.8,9.4,1.8,9.4l1.8,9.4
				c0,0,9.4,36.7,2.9,51.9c-2.9,6.9-10.9,13.8-18.5,19.2c-3.3,4.7-7.3,9.4-12.3,14.2c-30.5,28.7-69,32.3-82.4,32.3v1.1
				c2.9,0.7,6.5,1.8,9.4,2.5c2.2,0.7,4.4,1.5,5.8,1.8c1.8,0.4,4.4,1.5,6.9,2.5c4,1.8,8.7,4,12.3,3.6c4.7-0.4,10.5-4.4,16.7-8.7
				c0.7-0.4,1.5-1.1,2.2-1.5c4.7-3.3,15.6-5.4,25.4-7.3C534.7,276,539.1,275.3,542.3,274.6z"/>
		</g>
		<linearGradient id="SVGID_16_" gradientUnits="userSpaceOnUse" x1="416.7939" y1="300.1862" x2="445.4695" y2="300.1862">
			<stop  offset="0" style="stop-color:#B35639"/>
			<stop  offset="0.3399" style="stop-color:#B05337"/>
			<stop  offset="0.6007" style="stop-color:#A74B31"/>
			<stop  offset="0.8344" style="stop-color:#983E29"/>
			<stop  offset="1" style="stop-color:#893121"/>
		</linearGradient>
		<path class="st38" d="M416.7,296c1.1-2.5,16-12,28.7-12.3c-4.7,9.8-15.2,31.2-16.3,33c0,0-0.4,0-0.7-0.4c-2.5-1.5-6.5-6.5-7.3-8.7
			C420,304,417.5,297.5,416.7,296z"/>
		<linearGradient id="SVGID_17_" gradientUnits="userSpaceOnUse" x1="463.0388" y1="317.1084" x2="450.9472" y2="284.5715">
			<stop  offset="0" style="stop-color:#B35639"/>
			<stop  offset="0.3399" style="stop-color:#B05337"/>
			<stop  offset="0.6007" style="stop-color:#A74B31"/>
			<stop  offset="0.8344" style="stop-color:#983E29"/>
			<stop  offset="1" style="stop-color:#893121"/>
		</linearGradient>
		<path class="st43" d="M474.8,316.7c0,0.4-0.4,1.8-8.7,2.5c-5.4,0.4-11.6,0.4-15.2,0.4c0.7-1.5,1.8-3.6,3.3-8
			c3.6-11.3-2.5-22.9-5.4-27.6c4,1.5,12.3,4.7,16.7,10.9C471.9,305.1,475.2,312.3,474.8,316.7z"/>
		<path class="st131" d="M467.2,294.2c-5.8-9.1-19.2-12.3-20-12.3h-0.4c-12.7-0.4-29,9.1-31.6,13.1c-0.4,0.7-0.7,1.5-0.4,1.8
			c0.7,2.2,3.3,8,4.4,11.3c0.4,1.1,1.1,2.2,1.8,3.6c-1.1,2.9-6.9,20-8,24c-0.4,0.7,0,1.5,0.7,2.2c3.6,4.7,24.3,10.9,25.8,10.9
			c0.4,0,0.7,0,0.7-0.4c1.8-1.8,0-21.4,0-21.8c-0.4-3.3,1.8-24.3,5.4-37c-0.4,6.9-1.1,17.4-0.4,23.2c0.7,4.7,1.1,7.3,2.2,8.3
			c0,0.4,0.4,0.7,0.7,0.7c0,0,1.5,0,3.6,0l-1.8,39.9c0,0.4,0.4,1.1,0.7,1.1c0,0,1.1,0,2.5,0c0.7,0,1.8,0,2.5,0
			c3.3-0.4,6.5-3.6,8.7-8.7c1.8-4.7,5.1-10.5,6.2-11.6c0.7-1.1,0.4-1.8-0.4-2.2c-1.1-1.5-3.6-5.1-4-18.9c6.5-0.7,9.4-2.2,9.4-4.4
			C477,312,473.7,304.4,467.2,294.2z M416.7,296c1.1-2.5,16-12,28.7-12.3c-4.7,9.8-15.2,31.2-16.3,33c0,0-0.4,0-0.7-0.4
			c-2.5-1.5-6.5-6.5-7.3-8.7C420,304,417.5,297.5,416.7,296z M438.5,326.9c0.4,5.4,1.1,17.1,0.4,20c-3.6-0.7-21.1-6.2-23.6-10.2
			c0-0.4-0.4-0.4-0.4-0.4c0.7-3.6,5.8-17.4,7.3-22.5c1.8,2.5,4.4,4.7,6.2,5.1h0.4c0.7,0,1.1-0.4,1.8-0.7c1.1-1.5,7.3-13.8,11.6-23.2
			C439.6,307.3,438.2,323.2,438.5,326.9z M446.9,312.3c-0.7-7.3,0.4-22.1,0.7-27.6c2.5,4.4,8.7,15.6,5.4,26.5
			c-1.8,5.8-3.3,7.6-3.6,8.3c-0.4,0-0.4,0-0.7,0l0,0C448,319.2,447.6,317.4,446.9,312.3z M469.7,341.4c-1.5,1.8-4.4,7.3-6.2,12
			c-2.2,5.1-5.1,7.3-6.9,7.3c-1.5,0-2.9,0-4,0l1.8-39.2c3.3,0,7.3,0,10.9-0.4C465.7,335.9,468.3,339.9,469.7,341.4
			C469.4,341.4,469.7,341.4,469.7,341.4z M474.8,316.7c0,0.4-0.4,1.8-8.7,2.5c-5.4,0.4-11.6,0.4-15.2,0.4c0.7-1.5,1.8-3.6,3.3-8
			c3.6-11.3-2.5-22.9-5.4-27.6c4,1.5,12.3,4.7,16.7,10.9C471.9,305.1,475.2,312.3,474.8,316.7z"/>
		<linearGradient id="SVGID_18_" gradientUnits="userSpaceOnUse" x1="421.8204" y1="338.8802" x2="447.9822" y2="313.1583">
			<stop  offset="0" style="stop-color:#B35639"/>
			<stop  offset="0.3399" style="stop-color:#B05337"/>
			<stop  offset="0.6007" style="stop-color:#A74B31"/>
			<stop  offset="0.8344" style="stop-color:#983E29"/>
			<stop  offset="1" style="stop-color:#893121"/>
		</linearGradient>
		<path class="st44" d="M438.5,326.9c0.4,5.4,1.1,17.1,0.4,20c-3.6-0.7-21.1-6.2-23.6-10.2c0-0.4-0.4-0.4-0.4-0.4
			c0.7-3.6,5.8-17.4,7.3-22.5c1.8,2.5,4.4,4.7,6.2,5.1h0.4c0.7,0,1.1-0.4,1.8-0.7c1.1-1.5,7.3-13.8,11.6-23.2
			C439.6,307.3,438.2,323.2,438.5,326.9z"/>
		<path class="st131" d="M446.9,312.3c-0.7-7.3,0.4-22.1,0.7-27.6c2.5,4.4,8.7,15.6,5.4,26.5c-1.8,5.8-3.3,7.6-3.6,8.3
			c-0.4,0-0.4,0-0.7,0l0,0C448,319.2,447.6,317.4,446.9,312.3z"/>
		<linearGradient id="SVGID_19_" gradientUnits="userSpaceOnUse" x1="461.6877" y1="354.7815" x2="457.7304" y2="323.7833">
			<stop  offset="0" style="stop-color:#B35639"/>
			<stop  offset="0.3399" style="stop-color:#B05337"/>
			<stop  offset="0.6007" style="stop-color:#A74B31"/>
			<stop  offset="0.8344" style="stop-color:#983E29"/>
			<stop  offset="1" style="stop-color:#893121"/>
		</linearGradient>
		<path class="st45" d="M469.7,341.4c-1.5,1.8-4.4,7.3-6.2,12c-2.2,5.1-5.1,7.3-6.9,7.3c-1.5,0-2.9,0-4,0l1.8-39.2
			c3.3,0,7.3,0,10.9-0.4C465.7,335.9,468.3,339.9,469.7,341.4C469.4,341.4,469.7,341.4,469.7,341.4z"/>
		<path class="st134" d="M430.9,292.7c-2.5,5.8-2.2,7.3-2.2,7.3s13.1-9.8,16.3-14.9c0.4-0.4,0.4-0.7,0.7-1.1
			C445.4,283.7,433.4,286.9,430.9,292.7z"/>
		<path class="st134" d="M457.4,296.7c0,0,1.1,2.2,2.5,5.4c1.5,3.3,0,2.2-0.4,3.6s1.5,2.2,1.5,2.2l0.7-2.5c0,0,0.4-2.2,0-8.7
			c-0.4-4.4-6.9-9.1-10.5-11.6c-0.7-0.4-1.5-0.4-1.8-0.7L457.4,296.7z"/>
		<path class="st134" d="M435.3,309.1c0.4,0,1.1,0.4,1.8,0.7c1.1,0.7,1.8,1.5,2.5,1.8c0.7-5.4,1.8-11.6,2.9-17.1
			C440,299.3,437.4,304.7,435.3,309.1z"/>
		<path class="st134" d="M462.1,326.5c0,0,1.5,0.7,3.6,1.5c-0.4-1.8-0.4-4-0.4-6.5c-3.6,0.4-8,0.4-10.9,0.4v2.5L462.1,326.5z"/>
		<path class="st135" d="M439.2,284.4c-10.9,2.5-21.8,9.4-22.5,11.6c0.4,1.1,3.3,7.6,4.4,11.6c0.7,2.2,4,6.9,6.5,8.7l-0.7-2.5
			L424,308c0,0-6.2-9.1-3.3-13.4C422.5,291.7,433.4,286.9,439.2,284.4z"/>
		<path class="st135" d="M414.9,336.3C414.9,336.3,414.9,336.7,414.9,336.3c1.5,1.8,4,3.3,7.6,4.7c-0.7-2.9-1.1-5.4-1.5-7.6
			c-0.4-3.3,0.7-14.2,1.1-18.5C420,320.7,416,333,414.9,336.3z"/>
		<path class="st135" d="M464.7,318.9c0,0-3.6,0-6.5-1.5c-2.9-1.1-2.2-5.4-2.2-5.4c2.9-11.3-2.5-21.1-5.8-26.1
			c2.9,5.4,7.6,16,4.4,25.8c-1.5,4-2.5,6.5-3.3,8c3.3,0,9.8,0,15.2-0.4c1.5,0,2.5-0.4,3.6-0.4l-1.5-0.7L464.7,318.9z"/>
	</g>
	<g>
		<path class="st105" d="M409.5,98.6c0,0-1.5,19.6,6.2,28.3c0,0-2.2-8,2.2-12.3c0,0,9.8,16.7,45.7,14.2c0,0,3.6-0.4,5.4,1.5
			c1.5,1.8-3.3-7.6-3.3-7.6l2.2-2.2l4,3.3c0,0,8,4,15.2,4.4c0,0-2.2-2.9-3.3-5.4c-1.5-2.5-1.8-9.4-1.8-9.4l1.8-6.9l1.8,9.1
			c0,0,6.5,6.5,14.5,6.5c0,0-6.2-3.6-8.3-8.3c-1.8-5.1-12-12.7-12-12.7h-30.1L409.5,98.6z"/>
		<path class="st98" d="M487.2,114.2c-1.8-1.5-3.3-3.3-4.4-5.4c-0.7-1.1-1.1-2.5-1.8-3.6v0.4c0.4,1.5,1.1,2.9,1.5,4.4
			c0.7,1.5,1.1,2.9,1.5,4.4c0,0.4,0.4,1.1,0.4,1.5c0.7,2.5,1.5,5.1,2.2,7.3c0,0.4,0.4,0.7,0.7,1.1c0,0.4,0.4,0.4,0.4,0.7l0.4,0.4
			h-0.7h-0.4c-0.7,0-1.5,0-2.5,0c-1.8,0-3.6,0-5.8-0.4c-4.7-0.4-8.3-1.5-12-2.9c-2.5-1.1-4.7-2.5-7.6-4.7c-2.2-1.5-4.4-3.3-6.5-4.7
			l-1.1-0.7c4.7,5.8,10.2,9.8,16.7,12h0.4v0.7h-0.4c-0.4,0-0.4,0-0.7,0s-1.1,0.4-1.5,0.4c-4.7,0.4-9.1-1.5-13.4-4.7
			c-2.2-1.8-4.4-4-6.5-6.9c-0.4-0.7-0.7-1.1-1.1-1.8c0,0,0-0.4-0.4-0.4c0,0,0,0.4,0.4,0.4v0.4c0.7,1.8,1.5,3.6,2.5,4.7
			c1.1,1.1,2.2,2.5,3.3,3.6l0.4,0.4c1.8,1.5,3.6,2.9,6.2,4c0.7,0.4,1.8,0.7,2.5,1.1c0.7,0.4,1.8,0.7,2.5,1.1l1.1,0.4h-1.1
			c-0.7,0-1.1,0-1.8,0c-0.7,0-1.1,0-1.8,0c-0.7,0-1.5,0-2.2,0c-1.5,0-2.5,0-4-0.4h-0.7c-2.9-0.4-5.8-0.7-8.7-1.5
			c-6.2-1.8-11.6-4-16.3-7.3c-1.1-0.7-2.5-1.8-3.6-2.9c-3.3-2.9-4.7-6.5-4.7-10.9c0-1.1,0.4-2.5,0.7-3.6c0-0.4,0-0.7,0.4-0.7
			c0.4-1.1,0.7-2.5,1.1-3.6l0.4-0.7c0-0.4,0.4-0.4,0.4-0.7c-1.1,1.8-2.2,4-3.3,6.5c-0.7,2.2-1.5,4.4-1.5,6.5c0,0.4,0,1.1,0,1.5
			s0,0.7,0,1.5c0,0.4,0,0.7,0,1.5c0,0.7,0,1.8,0,2.5c0,1.1,0,2.5,0,3.6c0,0.7,0,1.1,0,1.8c0,0,0,0,0,0.4l0,0v0.4l-2.2-1.8
			c-0.4-0.4-0.7-0.7-1.1-1.5c-2.2-2.5-3.3-5.8-3.6-9.1c-1.1-5.1-0.4-10.2,0.4-13.8c0.7-3.3,1.5-5.8,2.5-8.3c1.1-2.9,2.5-5.4,4.7-7.6
			c1.5-1.8,2.9-3.3,4.4-4.7c2.5-2.5,5.1-3.6,8.3-4c1.1,0,2.2,0,2.9,0c0.4,0,0.7,0,1.5,0h0.4c0.4,0,0.4,0,0.7,0c0,0,0.4,0,0.4-0.4
			c0-0.7,0.4-1.1,0.7-1.1l0,0c1.8-1.5,3.6-1.8,5.4-2.2c2.5-0.7,5.8-0.7,9.1-0.7c4.7,0.4,8.3,1.1,11.6,2.5c0.7,0.4,1.5,1.1,2.2,1.5
			c4,3.3,7.3,7.6,9.8,13.4c0.7,1.5,1.1,2.5,1.8,4c0.4,0.4,0.4,1.1,0.7,1.5c-1.5-7.3-4-13.1-8.7-17.8l0,0l-0.7-0.7l0,0h0.4
			c0.4,0,0.7,0,0.7,0c3.3,0.7,6.2,2.2,8.7,4.4c2.9,2.5,5.1,5.4,6.9,9.4c1.1,2.5,2.2,5.1,2.9,7.3c0.4,1.1,0.7,2.5,1.1,3.6
			c0.4,0.7,0.4,1.5,0.7,2.5s0.7,2.2,0.7,2.9c0.7,2.9,1.8,5.8,2.9,8.7c1.5,3.3,3.3,6.2,6.2,8.3c0,0,0,0,0,0.4l0,0l0.4,0.4h-0.4
			c-0.4,0-0.4,0-0.7,0s-0.7,0-1.1,0C493.3,117.8,490.1,116.3,487.2,114.2z"/>
		<path class="st115" d="M438.2,100.4c0,0-7.6-12.3-4.4-24.3C433.8,76,432.3,89.5,438.2,100.4z"/>
		<path class="st115" d="M420.4,93.1c-0.4,0.4-0.4,1.1-0.7,1.5c-0.4,1.5-1.1,2.9-1.5,4.4c-0.4,1.5-1.1,2.9-1.1,4.7
			c0,4.4,1.8,8,4.7,10.9c1.1,1.1,2.5,2.2,4,3.3c0.4,0.4,0.7,0.4,1.1,0.7C422.5,112,418.6,103.3,420.4,93.1z"/>
		<path class="st116" d="M428.7,69.9c-3.3,0.4-5.8,1.8-8.3,4c-1.5,1.5-2.9,3.3-4.4,4.7c-1.8,2.5-3.3,5.1-4.7,8
			c-1.1,2.9-1.8,5.4-2.5,8.3c-0.7,4.7-1.1,9.1-0.4,13.8c0,0.4,0,0.7,0.4,1.1c-2.2-30.9,24.3-39.9,24.3-39.9
			C431.6,69.9,430.2,69.5,428.7,69.9z"/>
		<path class="st116" d="M453.8,65.9c0,0,16,5.1,21.8,29c0,0,1.1,7.6,4.7,12.3c0,0-3.6-20-4.7-24C475.2,83.3,469.7,65.9,453.8,65.9z
			"/>
		<path class="st116" d="M490.1,125c0,0-20.3-7.3-27.6-20.7c0,0,11.6,13.4,23.6,16.3L490.1,125z"/>
		<g>
			<path class="st115" d="M450.9,115.6c0,0-9.8-8.3-11.6-13.1c0,0,2.5,5.8,6.2,10.9c0.4,3.6,2.2,8.3,3.3,12.3c1.5,0.4,2.5,0.4,4,0.4
				c1.5,0,3.3,0.4,4.7,0.4c1.8,0,4.7,0,6.5,0c-1.8-0.7-4-1.8-5.8-2.5c-2.2-1.1-4.7-1.8-6.5-3.6c-0.4-0.4-0.7-0.7-1.1-1.1v-1.1
				c0.7,0.4,1.1,1.1,1.8,1.5c4,3.3,8.3,5.1,13.4,4.7c0.7,0,1.5-0.4,2.2-0.4l1.1-0.7c-2.9-1.1-2.9-0.7-5.4-2.5
				C460.3,119.6,454.9,117.4,450.9,115.6z"/>
			<path class="st115" d="M487.5,123.2c-0.4-0.7-0.4-0.7-0.4-1.8c-16-4.7-24.7-17.1-24.7-17.1c4.7,11.6,14.9,18.1,19.2,20.7
				c1.8,0,3.6,0,5.4,0.4c0.4,0,0.4,0,0.7,0C487.5,124.7,487.9,124,487.5,123.2z"/>
		</g>
		<path class="st117" d="M488.6,116.3c1.5,0.7,2.9,1.5,4.4,2.2c3.3,1.5,6.5,1.1,10.9,0c-0.4,0-0.4-0.4-0.7-0.4
			c-0.7-0.4-1.5-1.1-2.5-1.5c-2.5-1.8-4.7-4-5.8-6.2c-1.8-3.3-3.3-6.9-4.4-10.9l-0.4-1.1c-0.4-1.8-1.1-3.6-1.5-5.8
			c-1.1-2.9-2.2-5.8-3.3-8.3c-1.1-2.5-2.9-5.1-5.1-8c-0.4-0.4-0.4-0.4-0.7-0.7c-0.7-1.1-1.8-2.2-2.9-2.9c-1.8-1.5-3.6-2.2-5.4-2.9
			c-1.8-0.7-3.3-1.1-5.4-0.7c-0.4,0-0.4,0-0.7,0c0.4-0.4-0.4-1.1-1.1-1.5c-3.6-1.8-7.6-2.9-12.7-3.3c-2.2,0-4.4,0-6.9,0.4
			c-1.8,0.4-3.6,0.7-5.8,1.1c-1.8,0.4-3.6,1.5-4.7,3.3c0,0.4-0.4,0.4-0.7,0.4c-0.4,0-0.7,0-1.1-0.4c-0.7,0-1.1-0.4-1.8-0.4
			c-3.3,0-6.2,0.7-9.1,2.5c-2.2,1.5-4,3.3-6.2,5.8c-2.2,2.9-4,5.4-5.1,8.3c-0.7,1.8-1.5,4-1.8,5.8c-0.7,2.2-1.1,4.4-1.5,7.3
			c-0.4,2.2-0.4,4.4,0,5.8c0.4,3.3,0.7,6.2,1.8,9.1c2.5,5.1,5.8,8.7,10.2,11.6l0,0c-1.1-3.6-1.5-7.6-1.8-11.3c0-0.7,0-1.5,0-2.2
			v-0.4h0.4c0.4,0,0.4,0,0.4,0.4c0.4,0.4,1.1,1.1,1.5,1.5c1.1,1.1,2.2,2.5,3.6,3.3c2.9,2.5,6.2,4,9.1,5.4c6.2,2.9,12.3,4.4,19.2,4.7
			c2.2,0,4,0,6.2,0c0.7,0,1.8,0,2.5,0c0.7,0,1.1,0,1.8,0c1.1,0,1.8,0,2.9,0c0.7,0,1.1,0,1.8,0c1.8,0,4,0.7,5.4,1.8
			c-0.7-1.1-1.5-1.8-2.5-2.5h-0.4v-0.4l0,0l0,0c0.4,0,0.4,0,0.7-0.4c0.4,0,1.1-0.4,1.1-0.7s0.4,0,0.4,0l0,0c0.7,0,1.1,0,1.8,0.4
			c1.5,0,2.5,0.4,4,0.4c1.1,0,1.8,0,2.9,0h0.4c2.9,0,5.8,0,8.7,0l0,0l0,0l0,0c-1.5-1.5-1.8-2.9-2.2-4.7c0-0.4,0-0.7-0.4-1.1
			c-0.4-0.7-0.4-1.5-0.4-2.5c0-0.4,0-0.7,0-1.1v-0.4v-0.7l0.7,0.4c0,0,0.4,0,0.4,0.4C488.2,116,488.2,116.3,488.6,116.3z
			 M487.2,114.2c-1.8-1.5-3.3-3.3-4.4-5.4c-0.7-1.1-1.1-2.5-1.8-3.6v0.4c0.4,1.5,1.1,2.9,1.5,4.4c0.7,1.5,1.1,2.9,1.5,4.4
			c0,0.4,0.4,1.1,0.4,1.5c0.7,2.5,1.5,5.1,2.2,7.3c0,0.4,0.4,0.7,0.7,1.1c0,0.4,0.4,0.4,0.4,0.7l0.4,0.4h-0.7h-0.4
			c-0.7,0-1.5,0-2.5,0c-1.8,0-3.6,0-5.8-0.4c-4.7-0.4-8.3-1.5-12-2.9c-2.5-1.1-4.7-2.5-7.6-4.7c-2.2-1.5-4.4-3.3-6.5-4.7l-1.1-0.7
			c4.7,5.8,10.2,9.8,16.7,12h0.4v0.7h-0.4c-0.4,0-0.4,0-0.7,0s-1.1,0.4-1.5,0.4c-4.7,0.4-9.1-1.5-13.4-4.7c-2.2-1.8-4.4-4-6.5-6.9
			c-0.4-0.7-0.7-1.1-1.1-1.8c0,0,0-0.4-0.4-0.4c0,0,0,0.4,0.4,0.4v0.4c0.7,1.8,1.5,3.6,2.5,4.7c1.1,1.1,2.2,2.5,3.3,3.6l0.4,0.4
			c1.8,1.5,3.6,2.9,6.2,4c0.7,0.4,1.8,0.7,2.5,1.1c0.7,0.4,1.8,0.7,2.5,1.1l1.1,0.4h-1.1c-0.7,0-1.1,0-1.8,0c-0.7,0-1.1,0-1.8,0
			c-0.7,0-1.5,0-2.2,0c-1.5,0-2.5,0-4-0.4h-0.7c-2.9-0.4-5.8-0.7-8.7-1.5c-6.2-1.8-11.6-4-16.3-7.3c-1.1-0.7-2.5-1.8-3.6-2.9
			c-3.3-2.9-4.7-6.5-4.7-10.9c0-1.1,0.4-2.5,0.7-3.6c0-0.4,0-0.7,0.4-0.7c0.4-1.1,0.7-2.5,1.1-3.6l0.4-0.7c0-0.4,0.4-0.4,0.4-0.7
			c-1.1,1.8-2.2,4-3.3,6.5c-0.7,2.2-1.5,4.4-1.5,6.5c0,0.4,0,1.1,0,1.5s0,0.7,0,1.5c0,0.4,0,0.7,0,1.5c0,0.7,0,1.8,0,2.5
			c0,1.1,0,2.5,0,3.6c0,0.7,0,1.1,0,1.8c0,0,0,0,0,0.4l0,0v0.4l-2.2-1.8c-0.4-0.4-0.7-0.7-1.1-1.5c-2.2-2.5-3.3-5.8-3.6-9.1
			c-1.1-5.1-0.4-10.2,0.4-13.8c0.7-3.3,1.5-5.8,2.5-8.3c1.1-2.9,2.5-5.4,4.7-7.6c1.5-1.8,2.9-3.3,4.4-4.7c2.5-2.5,5.1-3.6,8.3-4
			c1.1,0,2.2,0,2.9,0c0.4,0,0.7,0,1.5,0h0.4c0.4,0,0.4,0,0.7,0c0,0,0.4,0,0.4-0.4c0-0.7,0.4-1.1,0.7-1.1l0,0
			c1.8-1.5,3.6-1.8,5.4-2.2c2.5-0.7,5.8-0.7,9.1-0.7c4.7,0.4,8.3,1.1,11.6,2.5c0.7,0.4,1.5,1.1,2.2,1.5c4,3.3,7.3,7.6,9.8,13.4
			c0.7,1.5,1.1,2.5,1.8,4c0.4,0.4,0.4,1.1,0.7,1.5c-1.5-7.3-4-13.1-8.7-17.8l0,0l-0.7-0.7l0,0h0.4c0.4,0,0.7,0,0.7,0
			c3.3,0.7,6.2,2.2,8.7,4.4c2.9,2.5,5.1,5.4,6.9,9.4c1.1,2.5,2.2,5.1,2.9,7.3c0.4,1.1,0.7,2.5,1.1,3.6c0.4,0.7,0.4,1.5,0.7,2.5
			s0.7,2.2,0.7,2.9c0.7,2.9,1.8,5.8,2.9,8.7c1.5,3.3,3.3,6.2,6.2,8.3c0,0,0,0,0,0.4l0,0l0.4,0.4h-0.4c-0.4,0-0.4,0-0.7,0
			s-0.7,0-1.1,0C493.3,117.8,490.1,116.3,487.2,114.2z"/>
	</g>
</g>
</svg>
