<?xml version="1.0" encoding="utf-8"?>
<!-- Generator: Adobe Illustrator 21.0.0, SVG Export Plug-In . SVG Version: 6.00 Build 0)  -->
<svg version="1.1" id="圖層_1" xmlns="http://www.w3.org/2000/svg" xmlns:xlink="http://www.w3.org/1999/xlink" x="0px" y="0px"
	 viewBox="0 0 822.9 601.4" style="enable-background:new 0 0 822.9 601.4;" xml:space="preserve">
<style type="text/css">
	.st0{fill:url(#SVGID_1_);}
	.st1{fill:#E1BE3F;}
	.st2{fill:#AB6C21;}
	.st3{opacity:0.6;fill:#E1BE3F;enable-background:new    ;}
	.st4{fill:url(#SVGID_2_);}
	.st5{fill:url(#SVGID_3_);}
	.st6{fill:#B7CAD3;}
	.st7{opacity:0.5;fill:#9FB8C6;enable-background:new    ;}
	.st8{opacity:0.3;fill:#9FB8C6;enable-background:new    ;}
	.st9{fill:#335764;}
	.st10{fill:#9FB8C6;}
	.st11{fill:#4D7485;}
</style>
<g>
	
		<linearGradient id="SVGID_1_" gradientUnits="userSpaceOnUse" x1="349.6006" y1="466.4061" x2="548.594" y2="466.4061" gradientTransform="matrix(1 0 0 1 0 1.2814)">
		<stop  offset="0" style="stop-color:#9FB8C6"/>
		<stop  offset="0.7645" style="stop-color:#738E9E"/>
		<stop  offset="1" style="stop-color:#3A6072"/>
	</linearGradient>
	<path class="st0" d="M548.4,415c0,0-56.8,14.5-99.7,14.5S349.4,415,349.4,415s-0.4,41.1,8.2,67.7h1.1l8.5,29.8l23.4,7.8l56.4-6
		v-2.5l1.1-29.4l0,0l0.4-8.9l0,0l0.4-13.8l0.7,4.3l1.1,51.8l33,2.5l29.8,1.4l16-3.5l3.9-7.1l6.7-25.9h0.4
		C548.7,455.8,548.4,415,548.4,415z"/>
	<path class="st6" d="M448.7,513.3c0,0,0.4,0.7,0.4,2.1c0,1.8-0.4,4.3-0.4,4.3s-0.4,1.4-8.5,2.8c-8.5,1.1-59.6,3.9-74.1-2.1v-1.8
		c0,0-1.8-3.9-1.8-4.3c0.4-0.4,3.9-2.5,7.4-2.1c3.5,0.4,41.1,7.4,70.2,1.8C442.3,513.6,447.3,511.8,448.7,513.3z"/>
	<path class="st6" d="M449.8,513.3c0,0-0.4,0.7-0.4,2.1c0,1.8,0.4,4.3,0.4,4.3s0.4,1.4,8.5,2.8c8.5,1.1,59.6,3.9,74.1-2.1v-1.8
		c0,0,1.8-3.9,1.8-4.3c-0.4-0.4-3.9-2.5-7.4-2.1c-3.2,0.4-41.1,7.4-70.2,1.8C456.1,513.6,451.2,511.8,449.8,513.3z"/>
	<path class="st7" d="M472.1,437.7c41.1-2.5,63.8-9.6,76.3-14.9c0.4-5.3,0.4-8.9,0.4-8.9S492,428.5,449,428.5s-99.3-14.5-99.3-14.5
		s0,2.1,0,6C361.4,426.7,399.4,442.3,472.1,437.7z"/>
	<path class="st7" d="M448.3,458.3c0,0-2.8,51.4-13.1,56.8l12.1-2.5L448.3,458.3z"/>
	<path class="st7" d="M364.6,503.3c0,0,2.8,6,11.7,8.2c0,0-5-0.7-9.2,1.1L364.6,503.3z"/>
	<path class="st8" d="M448.7,459.7c0,0-10.3-6.4-12.8-27h4.3c0,0-0.4,14.9,8.5,25.2c0,0,8.2-9.6,9.9-25.2h3.9
		C462.2,432.7,459,454.4,448.7,459.7z"/>
	<path class="st7" d="M549.1,416.4l-3.9,1.4c-0.7,5.3-4.6,24.5-4.6,24.5c-8.5-4.3-13.5-17.7-13.5-17.7l-3.2,0.7
		c2.1,7.4,5.7,13.1,8.9,16.7l0,0l0,0c0.7,0.7,1.1,1.4,1.8,1.8c2.1,2.8,5.3,8.2,3.9,15.6l-3.2,15.3c0,0-7.4,35.1-9.2,37.2h4.6
		c0,0,6-17.7,9.2-29.1c0.4,0,0.4,0,0.4,0C547.6,468.9,549.1,416.4,549.1,416.4z"/>
	<path class="st9" d="M545.9,453L545.9,453c-18.1-7.1-22.7-27.3-22.7-27.3c0-0.4,0.4-0.7,0.7-1.1c0.4,0,0.7,0.4,1.1,0.7
		c0,0.4,4.6,19.5,21.6,26.2c0.4,0.4,0.7,0.7,0.4,1.1C546.6,452.6,546.2,453,545.9,453z"/>
	<path class="st9" d="M538.4,452.6C538.4,452.6,538.1,452.6,538.4,452.6c-16-8.9-18.1-23.8-18.1-24.1c0-0.4,0.4-0.4,0.4-0.7
		c0.4,0,0.4,0.4,0.7,0.4c0,0,2.1,14.9,17.4,23.1c0.4,0,0.4,0.4,0.4,0.7C538.8,452.6,538.4,452.6,538.4,452.6z"/>
	<path class="st10" d="M403.3,524.6c-15.3,0-30.5-1.1-37.2-3.9c-0.4,0-0.4-0.4-0.4-0.7v-1.8c-1.8-3.9-1.8-4.6-1.8-4.6
		c0.4-1.1,5-2.8,8.2-2.5c0.4,0,1.8,0.4,3.2,0.4c10.3,1.4,41.9,6,66.7,1.4c1.1-0.4,5.3-1.8,7.1-0.4l0,0c0,0,0.7,1.1,0.7,2.8
		c0,1.8-0.4,4.3-0.4,4.3c-0.4,1.8-5.3,2.8-9.2,3.5C436.3,523.6,420,524.6,403.3,524.6z M367.1,519.7c14.5,5.3,64.6,3.2,73.1,1.8
		c6-1.1,7.8-1.8,8.2-2.1c0-0.4,0-2.5,0.4-3.9c0-1.1,0-1.4-0.4-1.8c-1.1-0.7-3.9,0-5.7,0.7l0,0c-25.2,4.6-56.8,0.4-67.4-1.4
		c-1.8-0.4-2.8-0.4-3.2-0.4c-2.5-0.4-5.7,1.1-6.7,1.8c0.4,0.7,1.1,2.5,1.4,3.5v0.4C367.1,518.6,367.1,519.7,367.1,519.7z
		 M365.3,514.7L365.3,514.7L365.3,514.7z M365.3,514L365.3,514L365.3,514z"/>
	<path class="st10" d="M457.9,522.8c-3.9-0.7-8.9-1.8-9.2-3.5c0,0,0-2.5-0.4-4.3c0-1.8,0.4-2.8,0.7-2.8l0,0c1.8-1.4,6,0,7.1,0.4
		c24.8,4.6,56.4,0,66.7-1.4c1.8-0.4,2.8-0.4,3.2-0.4c3.2-0.4,7.4,1.4,8.2,2.5c0,0.4,0.4,0.7-1.8,4.6v1.8c0,0.4-0.4,0.7-0.4,0.7
		c-7.1,2.8-22.3,3.9-37.2,3.9C478.1,524.6,462.2,523.6,457.9,522.8z M531.3,518.2v-0.4c0.7-1.4,1.4-2.8,1.4-3.5
		c-1.1-0.7-3.9-1.8-6.7-1.8c-0.4,0-1.8,0.4-3.2,0.4c-10.3,1.4-42.2,6-67.4,1.4l0,0c-1.8-0.7-5-1.4-5.7-0.7c0,0-0.4,0.7-0.4,1.8
		c0,1.4,0.4,3.5,0.4,3.9c0.4,0.4,1.8,1.4,8.2,2.1c8.5,1.4,58.9,3.5,73.1-1.8v-1.4H531.3z M533.1,514.7L533.1,514.7L533.1,514.7z
		 M533.1,514L533.1,514L533.1,514z"/>
	<g>
		<path class="st11" d="M450.8,482.4l-0.4-24.1c0-0.4-0.4-0.7-0.7-0.7h-1.1c-0.4,0-0.7,0.4-0.7,0.7l-0.4,24.1v0.4l-0.4,29.1l1.4,0.7
			l0.7-34.8v-5.3l0.4,9.9c0,0,0,0,0,0.4l0.7,30.1l1.4-0.7l-0.4-29.1C450.8,482.4,450.8,482.4,450.8,482.4z"/>
		<path class="st11" d="M376.7,428.5c0,0-2.1,14.9-17.4,23.1c-0.4,0-0.4,0.4-0.4,0.7s0.4,0.4,0.4,0.4h0.4
			c16-8.5,18.1-23.8,18.1-23.8c0-0.4-0.4-0.4-0.4-0.7C377,428.1,376.7,428.5,376.7,428.5z"/>
		<path class="st11" d="M550.5,412.5c0-0.7-2.5,0-2.5,0c-0.4,0-52.5,14.2-99,14.2s-98.3-13.8-98.6-14.2c-0.4,0-1.1-0.4-1.8-0.4
			c-1.1,0-1.1,0.4-1.1,1.1c0,2.1-0.4,4.6-0.4,6.7c0,4.6,0,9.6,0.4,14.2c0.7,9.2,2.1,18.1,3.9,27c1.1,6,2.5,12.1,3.9,18.1
			c0.4,1.1,0.4,2.1,0.7,3.2l0,0c5.3,20.2,10.3,31.2,10.3,31.2l1.8-1.4c-9.6-23.4-13.8-47.9-15.6-59.6c17.4-7.4,22-27,22-27
			c0-0.4-0.4-0.7-0.7-1.1c-0.4,0-0.7,0.4-1.1,0.7c0,0.4-4.6,18.8-20.9,25.9c-0.4-3.5-0.7-5.3-0.7-5.3c-1.1-14.5-1.4-26.6-1.4-30.1
			c6.7,1.8,54.6,14.2,98.6,14.2c43.3,0,90.8-11.7,98.6-13.8c0,3.5-0.4,15.6-1.4,29.8l0,0c0,0-3.5,34.8-16.7,66.3l1.8,0.7
			c0,0,0,0,0.4-0.4l0.4,0.4c2.8-4.6,7.1-19.5,9.9-30.5c0,0,1.1-4.6,2.8-11.4C548,456.9,552.6,432.4,550.5,412.5z"/>
	</g>
</g>
</svg>
