<?xml version="1.0" encoding="utf-8"?>
<!-- Generator: Adobe Illustrator 21.0.0, SVG Export Plug-In . SVG Version: 6.00 Build 0)  -->
<svg version="1.1" id="圖層_1" xmlns="http://www.w3.org/2000/svg" xmlns:xlink="http://www.w3.org/1999/xlink" x="0px" y="0px"
	 viewBox="0 0 822.9 601.4" style="enable-background:new 0 0 822.9 601.4;" xml:space="preserve">
<style type="text/css">
	.st0{fill:#B3CF95;}
	.st1{fill:#809962;}
	.st2{fill:url(#SVGID_1_);}
	.st3{opacity:0.8;fill:#D59543;enable-background:new    ;}
	.st4{fill:#AB6C21;}
	.st5{fill:url(#SVGID_2_);}
	.st6{fill:#184D29;}
	.st7{fill:#082F17;}
</style>
<g>
	<path class="st0" d="M444.8,552.9c1.5,1.3,1.4,6.1,1.4,6.1s-0.8,11-6.5,15.3c-5.7,4.2-18.3,9.1-47.5,7.6
		c-29.2-1.4-36.3-7.5-36.3-7.5c-1.7-5.4-1.1-7.6-1.1-7.6s8.9-14.6,31.3-15.5C408.3,550.5,444.8,552.9,444.8,552.9z"/>
	<path class="st0" d="M405.5,580.3c-37,0-47.1-6.9-50.5-8.9c0.2,0.9,0.4,1.9,0.8,3c0,0,7,6,36.3,7.5c29.2,1.4,41.8-3.4,47.5-7.6
		c1.3-0.9,2.3-2.2,3.1-3.7C436.7,575,425.5,580.3,405.5,580.3z"/>
	<path class="st1" d="M404.5,582.7c-3.9,0-8.2-0.1-12.6-0.4c-29.1-1.8-36.2-7.9-36.5-8.1l-0.1-0.1l0-0.1c-1.7-5.5-0.7-10-0.6-10.1
		l1,0.2c0,0-1,4.3,0.6,9.4c1,0.7,9,6.1,35.8,7.8c23,1.5,38.9-0.8,47.3-6.8c5.5-4,6.5-14.7,6.5-14.8c0-1.2-0.1-4.7-1.2-5.7l0.7-0.8
		c1.6,1.5,1.5,6,1.5,6.5c0,0.5-1,11.3-7,15.6C433,580.2,421.1,582.7,404.5,582.7z"/>
</g>
<g>
	
		<linearGradient id="SVGID_1_" gradientUnits="userSpaceOnUse" x1="350.1312" y1="110.2951" x2="546.7776" y2="110.2951" gradientTransform="matrix(1 0 0 -1 0 602)">
		<stop  offset="0" style="stop-color:#F2D397"/>
		<stop  offset="0.5331" style="stop-color:#F3D093"/>
		<stop  offset="0.7526" style="stop-color:#F5CC8F"/>
		<stop  offset="1" style="stop-color:#F3B699"/>
	</linearGradient>
	<path class="st2" d="M446.7,458.1L446.7,458.1c0.3,0,0.3,0,0.7,0C447,458.1,446.7,458.1,446.7,458.1l-0.3-3.7l-1-11.5L405,419.1
		l-40.1-10.9l-12.2,5.1l-1,6.5l0.3,1.4c0.3,30.9,6.5,65.6,23.1,102.3v0.7c-7.5,4.8-17,13.6-18,26.8c-1.4,21.7,17.3,22.8,22.1,22.4
		h5.1c5.4,2,11.5,1.7,17.3,0l-0.3-0.3c3.4,1.7,7.8,2.4,12.6,2c0,0,19-0.3,25.1-8.5s6.1-15.6,7.5-39.7
		C448,502.3,446.7,458.1,446.7,458.1z"/>
	<path class="st3" d="M366.5,564.4c2.4-3.1,8.8-18.7,8.8-18.7c-5.4,12.6,0,20,0,20c3.7,3.4,11.9,0.3,11.9,0.3
		c-3.1-10.2,8.5-18.3,8.5-18.3c-7.8,11.5,0,19.4,0,19.4c35,6.5,48.9-14.9,48.9-14.9l0,0c-1,6.1-2.4,9.9-5.4,13.9
		c-6.1,8.2-25.1,8.5-25.1,8.5c-4.8,0.3-9.2-0.3-12.6-2l0.3,0.3c-5.8,2-12.2,2-17.3,0h-5.1c-3.4,0-13.9-0.3-19.4-8.5v-0.3
		c0,0,0,0,0-0.3C360.1,564.4,364.5,567.2,366.5,564.4z"/>
	<path class="st3" d="M424.3,455.4c5.8,2.4,17,2.7,22.1,3.1l0,0l0,0c0,0,0,0.7,0,2l0,0l0,0c0.3,9.2,1.4,45.2,0.3,66.2
		c-0.3,8.5-0.7,14.6-1,19.7C446.3,506.4,424.3,455.4,424.3,455.4z"/>
	<path class="st4" d="M447,458.1c0-0.3-0.3-0.7-0.7-0.7l0,0c-0.3,0-0.7,0.3-0.7,0.7l0,0l0,0h-3.1c0,0,3.4,47.6,2.7,74.4
		c-1,19.4-1.7,26.2-7.1,33.3c-5.8,7.8-24.5,8.2-24.8,8.2c-6.5,0.7-17.3-0.3-20.4-12.9c-2.4-10.2,7.5-18.3,7.5-18.3
		c0.3-0.3,0.3-0.7,0-1s-0.7-0.3-1,0s-4.8,4.1-7.1,9.9l0,0c0,0-7.5,12.6,5.1,21.7c-4.8,1-9.2,0.7-13.2-0.3c0-0.3-0.3-0.3-0.7-0.3l0,0
		h-0.3c-1-0.3-1.7-0.7-2.4-1c-3.7-2-6.5-5.4-7.5-9.5c-3.7-13.2,5.8-21.1,6.1-21.4s0.3-0.7,0-1s-0.7-0.3-1,0c0,0-3.7,3.1-5.8,8.2l0,0
		c0,0,0,0.3-0.3,1c0,0,0,0,0,0.3c-1.4,3.7-5.1,17,2.7,23.4c-3.7-0.3-9.5-1.4-13.6-5.4c-3.7-3.7-5.4-9.2-5.1-16.3
		c0.7-13.2,10.9-22.1,18.3-26.8l-0.7-1c-17-38-22.8-73.7-22.8-104.6l1-2.7l-0.7-3.7l-1.7-0.7l-1,4.1c0,5.1,0.3,9.9,0.7,14.9
		c0,0,0.3,50.3,21.7,91.4c-5.4,4.1-24.8,21.7-11.5,42.8l0,0c0,0,0,0,0,0.3l0,0c0.7,1,1.7,2.4,2.4,3.1c5.4,5.4,12.9,6.1,16.3,6.1l0,0
		l0,0l0,0c0.3,0,0.7,0,1,0h4.8c2.7,1,5.4,1.4,8.5,1.4s6.1-0.3,9.2-1.4l0,0c2.7,1,5.8,1.7,9.2,1.7c1,0,1.7,0,2.7,0
		c0.7,0,19.7-0.7,25.8-8.8c6.1-7.8,6.5-15.3,7.5-37.7v-2.4C448.7,502.6,447.4,458.8,447,458.1z"/>
</g>
<g>
	<path class="st0" d="M450.7,552.9c-1.5,1.3-1.4,6.1-1.4,6.1s0.8,11,6.5,15.3c5.7,4.2,18.3,9.1,47.5,7.6c29.2-1.4,36.3-7.5,36.3-7.5
		c1.7-5.4,1.1-7.6,1.1-7.6s-8.9-14.6-31.3-15.5C487.2,550.5,450.7,552.9,450.7,552.9z"/>
	<path class="st0" d="M490,580.3c37,0,47.1-6.9,50.5-8.9c-0.2,0.9-0.4,1.9-0.8,3c0,0-7,6-36.3,7.5c-29.2,1.4-41.8-3.4-47.5-7.6
		c-1.3-0.9-2.3-2.2-3.1-3.7C458.9,575,470.1,580.3,490,580.3z"/>
	<path class="st1" d="M491,582.7c3.9,0,8.2-0.1,12.6-0.4c29.1-1.8,36.2-7.9,36.5-8.1l0.1-0.1l0-0.1c1.7-5.5,0.7-10,0.6-10.1l-1,0.2
		c0,0,1,4.3-0.6,9.4c-1,0.7-9,6.1-35.8,7.8c-23,1.5-38.9-0.8-47.3-6.8c-5.5-4-6.5-14.7-6.5-14.8c0-1.2,0.1-4.7,1.2-5.7l-0.7-0.8
		c-1.6,1.5-1.5,6-1.5,6.5c0,0.5,1,11.3,7,15.6C462.6,580.2,474.4,582.7,491,582.7z"/>
</g>
<g>
	
		<linearGradient id="SVGID_2_" gradientUnits="userSpaceOnUse" x1="350.4006" y1="110.8129" x2="546.5015" y2="110.8129" gradientTransform="matrix(1 0 0 -1 0 602)">
		<stop  offset="0" style="stop-color:#F2D397"/>
		<stop  offset="0.5331" style="stop-color:#F3D093"/>
		<stop  offset="0.7526" style="stop-color:#F5CC8F"/>
		<stop  offset="1" style="stop-color:#F3B699"/>
	</linearGradient>
	<path class="st5" d="M522.4,523.7L522.4,523.7c17.3-38,23.4-73.7,23.4-105.3c0,0-0.3,0.3-0.7,0.3l-1-5.8l-12.2-5.1L492.5,419
		l-40.4,23.8l-1,11.5l-0.3,7.8l0.3,0.3c-0.3,11.5-1,44.5,0,63.9c1,24.1,1.4,31.9,7.5,39.7c6.1,8.2,25.1,8.5,25.1,8.5
		c4.8,0.3,9.2-0.3,12.6-2l-0.3,0.3c5.8,2,12.2,2,17.3,0h5.1c5.1,0.3,23.4-0.7,22.1-22.4C539.8,537.3,529.9,528.4,522.4,523.7z"/>
	<path class="st3" d="M530.9,564.4c-2.4-3.1-8.8-18.7-8.8-18.7c5.4,12.6,0,20,0,20c-3.7,3.4-11.9,0.3-11.9,0.3
		c3.1-10.2-8.5-18.3-8.5-18.3c7.8,11.5,0,19.4,0,19.4c-35,6.5-48.9-14.9-48.9-14.9l0,0c1,6.1,2.4,9.9,5.4,13.9
		c6.1,8.2,25.1,8.5,25.1,8.5c4.8,0.3,9.2-0.3,12.6-2l-0.3,0.3c5.8,2,12.2,2,17.3,0h5.1c3.4,0,13.9-0.3,19.4-8.5v-0.3c0,0,0,0,0-0.3
		C537.7,564.4,533.3,567.2,530.9,564.4z"/>
	<path class="st3" d="M473.5,455.4c-5.8,2.4-17,2.7-22.1,3.1l0,0l0,0c0,0,0,0.7,0,2l0,0l0,0c-0.3,9.2-1.4,45.2-0.3,66.2
		c0.3,8.5,0.7,14.6,1,19.7C451.4,506.4,473.5,455.4,473.5,455.4z"/>
	<path class="st4" d="M548.9,415.7l-0.3-1l-0.3-0.3h-1l-1.7,0.3l-0.3,2.4v2c0,30.6-5.8,66.2-22.8,103.6l-0.7,1
		c7.5,4.8,17.3,13.6,18.3,26.8c0.3,7.1-1.4,12.6-5.1,16.3c-4.1,4.1-9.9,5.4-13.6,5.4c7.8-6.5,4.4-19.4,2.7-23.4c0-0.3,0-0.3-0.3-0.7
		l0,0v-0.3l0,0l0,0c-2-5.4-5.8-8.2-5.8-8.2c-0.3-0.3-0.7-0.3-1,0s-0.3,0.7,0,1s9.9,7.8,6.1,21.4c-1,4.1-3.7,7.5-7.5,9.5
		c-0.7,0.3-1.7,0.7-2.4,1h-0.3c-0.3,0-0.3,0-0.7,0.3c-4.1,1.4-8.8,1.4-13.2,0.3c12.6-9.2,5.1-21.7,5.1-21.7l0,0
		c-2.4-5.8-6.8-9.5-7.1-9.9c-0.3-0.3-0.7-0.3-1,0s-0.3,0.7,0,1c0,0,9.9,8.5,7.5,18.3c-3.1,12.6-13.9,13.6-20.4,12.9
		c-0.3,0-19-0.7-24.8-8.2c-5.4-7.1-6.1-14.3-7.1-33.3c-0.7-26.8,2.7-74.4,2.7-74.4h-3.1c0-0.3-0.3-0.7-0.7-0.7l0,0
		c-0.3,0-0.7,0.3-0.7,0.7c0,0.3-1.4,44.5-0.3,68.3v2.4c1,22.4,1.4,29.9,7.5,37.7c6.1,8.2,24.8,8.8,25.8,8.8s2,0,2.7,0
		c3.4,0,6.5-0.7,9.2-1.7l0,0c3.1,1,6.1,1.4,9.2,1.4s5.8-0.3,8.5-1.4h4.8c0.3,0,0.7,0,1,0c3.4,0,11.2-0.7,16.3-6.1c1-1,1.7-2,2.4-3.1
		l0,0l0,0l0,0c13.2-21.1-6.5-38.7-11.9-42.8c21.1-41.4,21.7-91.4,21.7-91.4C548.6,425.2,548.9,420.4,548.9,415.7z"/>
</g>
<g>
	<path class="st6" d="M443.2,543c-1.5-3.7-5.4-11.7-21.2-13.1c-14-1.2-24.8,9.4-24.8,9.4l-0.1,0.3c-0.5-0.2-1-0.3-1.8-0.3
		c-0.3,0-0.5,0-0.8,0.1l0-0.1c0,0-15.1-16.3-32.9-11.4c0,0-2.4,0.5-2.5,1.5c-0.2,2.5,4.4,1.3,6.2,1c5.3-0.7,13-1.9,26.5,10.8l0.1,0
		c-0.2,0.9,0,2,0.6,3.2c1.2,2.8,1.8,2,1.8,2s2.9-3,4.3-4.1c0,0,0-0.5-0.1-1.2l0.1-0.1c14.1-11.3,26-9.7,33.8-5.2
		c10.2,5.7,10.7,25.6,10.7,25.6c1.4,3.2,1.5-3.7,1.6-4.3C445.6,550.3,443.2,543,443.2,543z"/>
	<path class="st7" d="M394.2,547.2c0,0-0.1,0-0.1,0c-0.7-0.1-1.3-0.9-2-2.4c-0.8-1.9-0.9-3.4-0.3-4.4c0.6-1,1.8-1.5,3.5-1.5
		c1.3-0.1,2.3,0.3,3,1c1.1,1.1,0.9,2.7,0.9,2.8l0,0.2L399,543c-1.3,1-4.1,3.8-4.2,4C394.7,547.1,394.5,547.2,394.2,547.2z
		 M394.2,546.2L394.2,546.2L394.2,546.2z M395.6,539.8c-0.1,0-0.1,0-0.2,0c-1.4,0.1-2.2,0.4-2.6,1.1c-0.6,0.9-0.1,2.4,0.3,3.5
		c0.6,1.3,0.9,1.7,1.1,1.8c0.5-0.5,2.7-2.8,4.1-3.9c0-0.4-0.1-1.2-0.6-1.8C397.1,540.1,396.5,539.8,395.6,539.8z"/>
	<path class="st7" d="M391.6,541.7c-13.1-12.4-20.8-11.4-25.8-10.7l-0.3,0c-0.3,0-0.6,0.1-1,0.2c-1.8,0.3-4.3,0.7-5.3-0.3
		c-0.3-0.3-0.6-0.7-0.5-1.5c0.1-1.3,2.4-1.9,2.9-2c17.9-4.9,33.2,11.4,33.4,11.6l-0.8,0.7c-0.1-0.2-15.1-16-32.4-11.3
		c-1,0.2-2.1,0.7-2.1,1.1c0,0.4,0.1,0.5,0.2,0.6c0.7,0.6,3,0.2,4.5,0c0.4-0.1,0.7-0.1,1-0.2l0.3,0c5.3-0.7,13.2-1.7,26.7,11
		L391.6,541.7z"/>
	<path class="st7" d="M443.9,563c-0.6,0-1-0.8-1.1-1.1l0-0.2c0-0.2-0.6-19.6-10.4-25.2c-7.2-4.1-18.8-6.4-33.2,5.2l-0.7-0.8
		c15.7-12.6,28.3-8.7,34.4-5.3c10,5.7,10.9,24.2,11,25.9c0,0.1,0.1,0.1,0.1,0.2c0.1-0.5,0.3-1.5,0.4-3.8c0-0.3,0-0.6,0-0.7
		c0.8-6.8-1.5-14-1.6-14.1c-1.1-2.8-4.6-11.3-20.7-12.7c-13.6-1.2-24.3,9.2-24.4,9.3l-0.7-0.7c0.1-0.1,11.2-10.8,25.2-9.6
		c16.7,1.5,20.4,10.5,21.6,13.4c0.1,0.3,2.4,7.6,1.6,14.6c0,0.1,0,0.3,0,0.6c-0.2,3.7-0.5,4.9-1.3,5C444,563,443.9,563,443.9,563z"
		/>
</g>
<g>
	<path class="st6" d="M452.3,543c1.5-3.7,5.4-11.7,21.2-13.1c14-1.2,24.8,9.4,24.8,9.4l0.1,0.3c0.5-0.2,1-0.3,1.8-0.3
		c0.3,0,0.5,0,0.8,0.1l0-0.1c0,0,15.1-16.3,32.9-11.4c0,0,2.4,0.5,2.5,1.5c0.2,2.5-4.4,1.3-6.2,1c-5.3-0.7-13-1.9-26.5,10.8l-0.1,0
		c0.2,0.9,0,2-0.6,3.2c-1.2,2.8-1.8,2-1.8,2s-2.9-3-4.3-4.1c0,0,0-0.5,0.1-1.2l-0.1-0.1c-14.1-11.3-26-9.7-33.8-5.2
		c-10.2,5.7-10.7,25.6-10.7,25.6c-1.4,3.2-1.5-3.7-1.6-4.3C449.9,550.3,452.3,543,452.3,543z"/>
	<path class="st7" d="M500.7,547c-0.2-0.2-2.9-3-4.2-4l-0.2-0.1l0-0.2c0-0.1-0.2-1.7,0.9-2.8c0.7-0.7,1.7-1.1,3-1
		c1.7,0.1,2.9,0.6,3.5,1.5c0.7,1.1,0.6,2.5-0.3,4.4c-0.7,1.6-1.3,2.4-2,2.4c0,0-0.1,0-0.1,0C501.1,547.2,500.9,547.1,500.7,547z
		 M501.3,546.2L501.3,546.2L501.3,546.2z M498,540.5c-0.5,0.6-0.6,1.4-0.6,1.8c1.3,1.1,3.6,3.3,4.1,3.9c0.1-0.1,0.5-0.5,1.1-1.8
		c0.5-1.1,0.9-2.5,0.3-3.5c-0.4-0.6-1.3-1-2.6-1.1c-0.1,0-0.1,0-0.2,0C499.1,539.8,498.4,540.1,498,540.5z"/>
	<path class="st7" d="M504,541.7c13.1-12.4,20.8-11.4,25.8-10.7l0.3,0c0.3,0,0.6,0.1,1,0.2c1.8,0.3,4.3,0.7,5.3-0.3
		c0.3-0.3,0.6-0.7,0.5-1.5c-0.1-1.3-2.4-1.9-2.9-2c-17.9-4.9-33.2,11.4-33.4,11.6l0.8,0.7c0.1-0.2,15.1-16,32.4-11.3
		c1,0.2,2.1,0.7,2.1,1.1c0,0.4-0.1,0.5-0.2,0.6c-0.7,0.6-3,0.2-4.5,0c-0.4-0.1-0.7-0.1-1-0.2l-0.3,0c-5.3-0.7-13.2-1.7-26.7,11
		L504,541.7z"/>
	<path class="st7" d="M451.6,563c0.6,0,1-0.8,1.1-1.1l0-0.2c0-0.2,0.6-19.6,10.4-25.2c7.2-4.1,18.8-6.4,33.2,5.2l0.7-0.8
		c-15.7-12.6-28.3-8.7-34.4-5.3c-10,5.7-10.9,24.2-11,25.9c0,0.1-0.1,0.1-0.1,0.2c-0.1-0.5-0.3-1.5-0.4-3.8c0-0.3,0-0.6,0-0.7
		c-0.8-6.8,1.5-14,1.6-14.1c1.1-2.8,4.6-11.3,20.7-12.7c13.6-1.2,24.3,9.2,24.4,9.3l0.7-0.7c-0.1-0.1-11.2-10.8-25.2-9.6
		c-16.7,1.5-20.4,10.5-21.6,13.4c-0.1,0.3-2.4,7.6-1.6,14.6c0,0.1,0,0.3,0,0.6c0.2,3.7,0.5,4.9,1.3,5C451.5,563,451.6,563,451.6,563
		z"/>
</g>
</svg>
