<?xml version="1.0" encoding="utf-8"?>
<!-- Generator: Adobe Illustrator 21.0.0, SVG Export Plug-In . SVG Version: 6.00 Build 0)  -->
<svg version="1.1" id="圖層_1" xmlns="http://www.w3.org/2000/svg" xmlns:xlink="http://www.w3.org/1999/xlink" x="0px" y="0px"
	 viewBox="0 0 822.9 601.4" style="enable-background:new 0 0 822.9 601.4;" xml:space="preserve">
<style type="text/css">
	.st0{fill:url(#SVGID_1_);}
	.st1{fill:#E1BE3F;}
	.st2{fill:#AB6C21;}
	.st3{opacity:0.6;fill:#E1BE3F;enable-background:new    ;}
	.st4{fill:url(#SVGID_2_);}
	.st5{fill:#F1EDE6;}
	.st6{fill:#DBD0BE;}
	.st7{fill:#837D74;}
	.st8{fill:#FFFFFF;}
	.st9{fill:#75B24F;}
</style>
<g>
	<g>
		<path class="st5" d="M508.8,276.7c8.5,6.8,30,23.8,37.5,33.4c0,0-8.9,5.1-21.8,8.5l-3.4,0.7c-2.4,1.7-5.1,0-5.1,0l-2.4-0.3
			l-15-3.7l-1-34.1L508.8,276.7z"/>
		<path class="st5" d="M508.8,277.3l0.3-0.7l2.4,2c0,0-0.7,0.3-2,1.4L508.8,277.3z"/>
		<path class="st6" d="M531.6,317.2l-5.4,0.7c-3.7-9.2-7.5-17.7-9.5-21.5C516.6,296.4,524.5,307.3,531.6,317.2z"/>
		<path class="st7" d="M507.4,276.7l0.3-0.7h0.7l0,0l2-0.7c0,0,20.8,17,33.4,31c1,1.4,2,2.4,2.7,3.4c0.3,0.3,0.3,0.3,0,0.7
			c0,0.3-0.7,1.4-2.4,2.4c0,0-6.8,5.4-19.8,7.5l-0.3-0.7c-0.7,0-1.4,0.3-2.4,0.3l-1,0.3c0,0-0.3-1-0.3-1.4s1-0.7,1-0.7
			c3.1,0,7.8-1.4,12.3-3.1l0,0c0.7-0.3,1-0.3,1.7-0.7c4.1-1.7,7.5-4.4,7.5-4.4l0,0c-1.4-1.7-3.7-5.1-9.2-10.6
			c-3.7-3.7-18.4-16.3-18.4-16.7c-2.7-2.4-5.4-4.1-7.2-5.4l-0.7,0.3L507.4,276.7L507.4,276.7z"/>
	</g>
	<g>
		<path class="st8" d="M387.2,278.7c-8.5,6.5-30,22.8-37.5,31.7c0,0,8.9,5.1,21.8,8.2l3.4,0.7c2.4,1.7,5.1,0,5.1,0l2.4-0.3l15-3.7
			l1.4-33.4L387.2,278.7z"/>
		<path class="st5" d="M387.6,279.4l-0.3-0.7l-2.4,1.7c0,0,0.7,0.3,2,1.4L387.6,279.4z"/>
		<path class="st5" d="M367.1,318.2l5.4,0.7c3.7-8.9,7.5-17,9.5-20.8C381.8,298.1,373.9,308.3,367.1,318.2z"/>
		<path class="st7" d="M388.6,278.7l-0.3-0.3h-0.7l0,0l-2.4-0.7c0,0-20.8,16.3-33.4,29.6c-1,1-2,2.4-2.7,3.1c-0.3,0.3-0.3,0.3,0,0.7
			c0,0.3,0.7,1.4,2.4,2.4c0,0,6.8,5.1,19.8,7.2l0.3-0.7c0.7,0,1.4,0.3,2.4,0.3l1,0.3c0,0,0.3-1,0.3-1.4s-1-0.7-1-0.7
			c-3.1,0-7.8-1.4-12.3-2.7l0,0c-0.7-0.3-1-0.3-1.7-0.7c-4.1-1.7-7.5-4.1-7.5-4.1l0,0c1.4-1.7,3.7-4.8,9.2-10.2
			c3.7-3.7,18.4-15.7,18.4-16c2.7-2,5.4-4.1,7.2-5.4l0.7,0.3L388.6,278.7L388.6,278.7z"/>
	</g>
	<path class="st8" d="M534.7,340.3h0.3c0.3-0.3,0.3-0.3,0.7-0.7l-1.7-5.1l-18.7-38.8l-7.2-18.7l-0.3-0.7l-11.2,4.8
		c0,0-20.1,19.8-47.3,19.8c-22.1,0-39.8-13.3-45.3-18l-15.3-3.7l-0.7,0.3l0.3,0.3l-0.7-0.3l-4.4,16.7L370.5,322l-7.5,18.4
		c0,0,0.3,0,0.3,0.3h0.3c-7.8,22.5-15.3,51.1-16,79.3c0,0,20.8,20.1,101.5,20.1S550.7,420,550.7,420
		C550.3,391.4,542.9,362.8,534.7,340.3z"/>
	<path class="st5" d="M403.9,282.8l-15.3-3.7l-0.7,0.3l0.3,0.3h-0.7l-0.7,2.4c4.4,2.4,15.7,7.8,32,10.9L403.9,282.8z"/>
	<g>
		<path class="st9" d="M447.8,384.6c-0.3,0-0.3-0.3-0.3-0.3v-20.4c0-0.3,0.3-0.3,0.3-0.3l0.3,0.3v20.4
			C448.5,384.3,448.2,384.6,447.8,384.6z"/>
		<path class="st9" d="M433.5,364.2c-5.8,0-8.5-3.4-9.9-5.4c-2-3.4-2-10.6-2-10.9c0,0,0-0.3,0.3-0.3h0.3c0.3,0,7.5,0.3,10.6,2.7
			c2.4,1.7,6.1,5.8,4.1,13.3c0,0.3-0.3,0.3-0.3,0.3C435.2,363.8,434.2,364.2,433.5,364.2z M436.3,363.5L436.3,363.5L436.3,363.5z
			 M422.6,348.5c0,1.7,0.3,7.2,1.7,9.5c1.4,2.4,4.8,5.8,11.6,4.8c1.7-6.8-1.7-10.6-3.7-11.9C429.8,349.2,424.3,348.5,422.6,348.5z"
			/>
		<path class="st9" d="M447.8,376.4c0,0-0.3,0-0.3-0.3l-11.6-12.6c-0.3-0.3-0.3-0.3,0-0.7s0.3-0.3,0.7,0l11.6,12.6
			c0.3,0.3,0.3,0.3,0,0.7C448.2,376.4,448.2,376.4,447.8,376.4z"/>
		<path class="st9" d="M447.8,364.2L447.8,364.2c-0.7-0.3-12.6-9.5-11.9-18.4c0.3-8.9,11.2-20.8,11.6-21.5c0.3-0.3,0.3-0.3,0.7,0
			c0.3,0.3,11.2,12.6,11.6,21.5C460.1,354.6,448.5,363.8,447.8,364.2C448.2,364.2,448.2,364.2,447.8,364.2z M447.8,325.4
			c-2,2.4-10.6,12.6-10.9,20.4c-0.3,7.5,9.2,15.7,10.9,17.4c1.7-1.4,11.2-9.5,10.9-17.4C458.7,338.3,449.9,327.7,447.8,325.4z"/>
		<path class="st9" d="M462.5,364.2c-1,0-2,0-3.1-0.3c-0.3,0-0.3-0.3-0.3-0.3c-2-7.5,1.7-11.6,4.1-13.3c3.1-2,10.2-2.7,10.6-2.7h0.3
			l0.3,0.3c0,0.3,0,7.5-1.7,10.6C471,360.8,468.3,364.2,462.5,364.2z M460.1,362.8c6.8,1,10.2-2.4,11.6-4.8s1.7-7.8,1.7-9.5
			c-1.7,0-7.2,0.7-9.5,2.4C461.8,352.6,458.4,356,460.1,362.8z"/>
		<path class="st9" d="M447.8,376.4L447.8,376.4c-0.3-0.3-0.3-0.7-0.3-0.7l11.6-12.6c0.3-0.3,0.3-0.3,0.7,0s0.3,0.3,0,0.7
			l-11.6,12.6C448.2,376.4,448.2,376.4,447.8,376.4z"/>
	</g>
	<path class="st7" d="M450.2,310.4c-0.3,0-0.7,0-0.7,0c-3.4,0-33.4,0-54.1-19.8c-0.3-0.3-0.3-0.3,0-0.7s0.3-0.3,0.7,0
		c20.1,19.1,48.4,19.4,53.1,19.4l0,0h0.3l0,0c4.8,0,33-0.3,53.1-19.4c0.3-0.3,0.3-0.3,0.7,0s0.3,0.3,0,0.7
		C483.6,309.4,456,310.4,450.2,310.4z"/>
	<path class="st5" d="M535.4,340.3c0.3-0.3,0.3-0.3,0.7-0.7l-1.7-5.1l-18.7-38.8l-7.2-18.7l-0.3-0.7l-3.1,1l-8.5,3.7l-10.2,7.8
		c8.5-2,15.3-4.1,19.8-5.8c5.4,33,12.6,121.2-54.5,156.7c79-0.3,99.4-20.1,99.4-20.1c-0.7-28.3-8.2-56.9-16-79.3H535.4L535.4,340.3z
		"/>
	<g>
		<path class="st7" d="M403.6,283.5c6.5,5.4,23.5,18,45.6,18.4l0,0l0,0c26.2,0,46-18.4,47.7-20.1l11.6-4.4l-0.7-1.4l-11.6,4.4
			c0,0-0.3,0-0.3,0.3c0,0-20.1,19.4-46.3,19.4c-21.5,0-38.5-12.6-45-18c0,0-0.3,0-0.3-0.3l-16.7-3.7c-0.3,0-0.3,0-0.7,0l1.4,1.7
			L403.6,283.5z"/>
		<path class="st7" d="M537.1,340l-0.7-1.4c-9.5-24.9-19.8-42.2-19.8-42.2c-0.3-0.3-0.7-0.3-1-0.3c-0.3,0.3-0.3,0.7-0.3,1
			s2.7,5.1,6.5,13.3c7.8,18.4,13.6,34.4,17.7,47.3c5.1,17.7,9.5,37.5,10.2,57.2c0,1.4-0.3,2.4-0.3,2.4
			c-24.5,16.3-80,19.8-116.8,20.1c-45-0.3-73.6-12.3-75.3-13.3c-5.4-2.4-8.2-4.8-8.9-5.4c1.4-59.6,34.4-121.6,34.7-121.9
			c0.3-0.3,0-0.7-0.3-1c-0.3-0.3-0.7,0-1,0.3c0,0-9.9,17.7-19.4,42.2l-0.7,1.4c-8.9,23.5-17.4,52.8-16.3,79.3l4.4,2.7
			c0.7,0.7,2,1.4,3.4,2l0,0l0,0c6.8,3.7,20.1,9.2,43.9,12.6l0,0l0,0c13.6,2,30.6,3.4,51.8,3.4l0,0h0.7l0,0
			c80,0,100.8-19.4,101.8-20.4l2.4-1.7C553.8,390.7,545.6,362.5,537.1,340z"/>
	</g>
</g>
</svg>
