<?xml version="1.0" encoding="utf-8"?>
<!-- Generator: Adobe Illustrator 21.0.0, SVG Export Plug-In . SVG Version: 6.00 Build 0)  -->
<svg version="1.1" id="圖層_1" xmlns="http://www.w3.org/2000/svg" xmlns:xlink="http://www.w3.org/1999/xlink" x="0px" y="0px"
	 viewBox="0 0 822.9 601.4" style="enable-background:new 0 0 822.9 601.4;" xml:space="preserve">
<style type="text/css">
	.st0{fill:url(#SVGID_1_);}
	.st1{fill:#E1BE3F;}
	.st2{fill:#AB6C21;}
	.st3{opacity:0.6;fill:#E1BE3F;enable-background:new    ;}
	.st4{fill:url(#SVGID_2_);}
	.st5{fill:url(#SVGID_3_);}
	.st6{fill:url(#SVGID_4_);}
	.st7{fill:url(#SVGID_5_);}
	.st8{fill:#CE9245;}
	.st9{fill:#A66A22;}
	.st10{opacity:0.6;fill:#CE9245;enable-background:new    ;}
	.st11{fill:url(#SVGID_6_);}
	.st12{fill:url(#SVGID_7_);}
	.st13{fill:#FFFFFF;}
	.st14{fill:#824323;}
	.st15{fill:url(#SVGID_8_);}
	.st16{fill:#E6A952;}
	.st17{fill:#BB7F37;}
	.st18{fill:url(#SVGID_9_);}
	.st19{fill:url(#SVGID_10_);}
	.st20{fill:url(#SVGID_11_);}
	.st21{fill:#EBA794;}
	.st22{fill:#40210F;}
	.st23{opacity:0.25;fill:#D69644;enable-background:new    ;}
	.st24{opacity:0.5;fill:#D69644;enable-background:new    ;}
	.st25{fill:#FBF4C3;}
	.st26{fill:#DEBD91;}
	.st27{fill:#D8C7A7;}
	.st28{fill:url(#SVGID_12_);}
	.st29{fill:#893827;}
	.st30{opacity:0.4;fill:#E2BF40;enable-background:new    ;}
	.st31{opacity:0.6;fill:#D69644;enable-background:new    ;}
	.st32{fill:#3F210E;}
	.st33{fill:#895424;}
	.st34{fill:#AC6D21;}
	.st35{fill:#391E13;}
	.st36{fill:#D7B093;}
	.st37{fill:#EFD39D;}
	.st38{fill:#8C5924;}
	.st39{opacity:0.6;}
	.st40{fill:#E2BF40;}
	.st41{fill:#B55C4E;}
	.st42{fill:url(#SVGID_13_);}
	.st43{fill:url(#SVGID_14_);}
	.st44{fill:#E0917F;}
	.st45{fill:#AB948D;}
	.st46{fill:url(#SVGID_15_);}
	.st47{fill:url(#SVGID_16_);}
	.st48{opacity:0.6;fill:url(#SVGID_17_);enable-background:new    ;}
	.st49{fill:#CD9449;}
	.st50{fill:url(#SVGID_18_);}
	.st51{fill:url(#SVGID_19_);}
	.st52{fill:url(#SVGID_20_);}
	.st53{fill:url(#SVGID_21_);}
	.st54{fill:#842B20;}
	.st55{fill:url(#SVGID_22_);}
	.st56{fill:url(#SVGID_23_);}
	.st57{opacity:0.6;fill:#D2503A;enable-background:new    ;}
	.st58{fill:#DC7D67;}
	.st59{fill:url(#SVGID_24_);}
	.st60{fill:url(#SVGID_25_);}
	.st61{opacity:0.8;fill:#E2BF40;enable-background:new    ;}
	.st62{fill:url(#SVGID_26_);}
	.st63{opacity:0.4;fill:#59A4C1;enable-background:new    ;}
	.st64{fill:#80B4D2;}
	.st65{fill:#4493BB;}
	.st66{fill:#D2ECF9;}
	.st67{opacity:0.5;fill:#80B4D2;enable-background:new    ;}
	.st68{fill:url(#SVGID_27_);}
	.st69{fill:#976430;}
	.st70{fill:url(#SVGID_28_);}
	.st71{fill:#CAA67E;}
	.st72{fill:#5CA6A6;}
	.st73{fill:url(#SVGID_29_);}
	.st74{fill:#9DD6DE;}
	.st75{fill:none;stroke:#AFDDE3;stroke-width:0.8954;stroke-miterlimit:10;}
	.st76{opacity:0.3;enable-background:new    ;}
	.st77{clip-path:url(#SVGID_31_);fill:#9DD6DE;}
	.st78{clip-path:url(#SVGID_33_);fill:#9DD6DE;}
	.st79{opacity:0.6;fill:#FFFFFF;enable-background:new    ;}
	.st80{fill:#D69644;}
	.st81{fill:url(#SVGID_34_);}
	.st82{fill:url(#SVGID_35_);}
</style>
<g>
	<g>
		
			<linearGradient id="SVGID_1_" gradientUnits="userSpaceOnUse" x1="1082.4077" y1="217.7616" x2="1167.3884" y2="217.7616" gradientTransform="matrix(-1 0 0 -1 1686.1643 602)">
			<stop  offset="0" style="stop-color:#EFD97F"/>
			<stop  offset="0.1978" style="stop-color:#EFD87C"/>
			<stop  offset="0.3726" style="stop-color:#EED571"/>
			<stop  offset="0.5387" style="stop-color:#EDCF5F"/>
			<stop  offset="0.6984" style="stop-color:#EBC845"/>
			<stop  offset="0.7526" style="stop-color:#EAC53B"/>
			<stop  offset="1" style="stop-color:#E5AD14"/>
		</linearGradient>
		<path class="st0" d="M518.6,360.3l8.1-18.3c0-0.4,0-1,0.2-1.5c0-0.2,0-0.4,0-0.4c0-0.4,0.2-0.8,0.2-1c0-0.2,0-0.4,0.2-0.6
			c0.2-0.4,0.2-0.8,0.4-1.2c0-0.2,0-0.2,0.2-0.4c0.2-0.6,0.4-1,0.6-1.7c0-0.2,0.2-0.2,0.2-0.4c0.2-0.4,0.4-0.8,0.6-1.2
			c0-0.2,0.2-0.4,0.2-0.6c0.2-0.4,0.4-0.8,0.6-1c0-0.2,0.2-0.4,0.2-0.6c2.9-5.6,7.1-11,10-14.6c0.2-0.2,0.2-0.2,0.4-0.4
			c15.8,20,33.7,47.2,47.8,81.6c0,0,12.9,12.3,12.9,29.7c0,17.5-13.3,23.1-20.6,21.4l0,0c-8.1,7.1-19.6,2.7-21.8-8.7v-0.2
			c-0.4,0.2-1,0.6-1.7,0.8c-4.8,2.5-11.2-0.6-13.3-5l0,0l0,0c0-0.2-0.2-0.4-0.2-0.6l0.2-0.2l-1.7-14.1h0.4v-3.5l0.6-2.5
			c-0.2-0.6-0.6-1.5-0.8-2.3l-0.6-1l-0.8-2.5v-0.6c-2.7-6.4-6.7-15.4-11.9-26c-3.3-6.9-7.3-14.1-11.2-21L518.6,360.3z"/>
	</g>
	<path class="st1" d="M569.1,420.4c0,0,2.5,19.1-8.3,25.4l-1.9-5.4C558.9,440.4,570.4,434.3,569.1,420.4z"/>
	<path class="st1" d="M587.8,426.4c0,0,5,12.7,1.2,21.8c0,0-3.3,1.2-8.3,0.8C580.8,449.1,589.3,444.7,587.8,426.4z"/>
	<path class="st2" d="M569.5,426.4c0,0,0.2,11.4-9.6,15.6l-0.4-1.7C559.6,440.4,569.5,431.2,569.5,426.4z"/>
	<path class="st2" d="M588.7,433.1c0,0,0.6,10.6-5,16.2l-3.5-0.2C580.2,449.1,587.6,441.8,588.7,433.1z"/>
	<path class="st3" d="M518.6,360.3l8.1-18.3c0-0.4,0-1,0.2-1.5c0-0.2,0-0.4,0-0.4c0-0.4,0.2-0.8,0.2-1c0-0.2,0-0.4,0.2-0.6
		c0.2-0.4,0.2-0.8,0.4-1.2c0-0.2,0-0.2,0.2-0.4c0.2-0.6,0.4-1,0.6-1.7c0-0.2,0.2-0.2,0.2-0.4c0.2-0.4,0.4-0.8,0.6-1.2
		c0-0.2,0.2-0.4,0.2-0.6c0.2-0.4,0.4-0.8,0.6-1c0-0.2,0.2-0.4,0.2-0.6c0,0,0-0.2,0.2-0.2c10.8,21.2,22.5,49.5,23.1,73.4
		c0,0-13.3,16.9-8.5,33.3c-0.4-0.4-0.6-1-0.8-1.7l0,0l0,0c0-0.2-0.2-0.4-0.2-0.6l0.2-0.2l-1.7-14.1h0.4v-3.5l0.8-3.1l-1.9-2.7
		l-1-2.5l-20-43.5c0,0-1-1.2-2.9-4.2L518.6,360.3z"/>
	<g>
		<path class="st2" d="M542.7,416.4l-0.6-1.2l0,0c-0.2-0.4-13.1-28.9-25-52l1.2-2.9l0,0c10.8,20.8,22.7,47,25.4,52.8
			c0.4-1.2,0.8-1.7,0.8-1.7l0,0c1-1.9,2.3-3.5,2.5-3.5c0.2-0.2,0.6-0.2,0.8,0c0.2,0.2,0.2,0.6,0,0.8c-0.2,0.2-0.6,0.6-0.8,1
			c0,0-6.9,10.6-3.1,25.8l0,0c0.8,2.3,2.9,4.2,5.4,5.2c2.5,1,5.2,1,7.3,0c8.5-4.2,13.1-13.3,11.2-22.3c0-0.4,0.2-0.6,0.4-0.8
			c0.4,0,0.6,0.2,0.8,0.4c1.9,8.7-2.1,17.7-9.8,22.5c1.2,5.4,4.6,9.4,9.2,10.8c4.4,1.2,8.9,0,12.5-3.5c8.9-8.9,5.6-22.5,5.4-22.5
			c0-0.4,0.2-0.6,0.4-0.8c0.4,0,0.6,0.2,0.8,0.4c0,0.2,3.5,14.4-5.8,23.7l0,0c2.9,0.2,7.3-0.6,11.2-3.7c3.3-2.7,7.3-7.9,7.3-17.3
			c0-16.9-12.7-29.1-12.7-29.3l-0.2-0.2c-13.9-34.3-32-61.4-47.6-81.1l0.2-0.2c1-1.2,2.1-2.3,2.7-3.1l0,0c5.2,6.4,10.6,13.7,16,22.1
			l0,0c0,0,25.8,38.5,31.6,60.1c7.1,9.2,20.2,30.2,7.7,46c-1.2,1.9-2.7,3.3-4,4.4c-0.4,0.4-1,0.8-1.7,1c-0.2,0-0.2,0.2-0.2,0.2l0,0
			c-2.9,1.9-6,2.7-9.2,2.7c-0.8,0-1.7,0-2.3-0.2c-2.7,2.3-5.8,3.3-8.9,3.3c-1.2,0-2.5-0.2-3.7-0.6c-5-1.5-8.5-5.6-10-11.4
			c-0.2,0.2-0.6,0.4-0.8,0.4c-1.2,0.6-2.7,0.8-4.2,0.8c-1.5,0-2.7-0.2-4.2-0.8c-2.7-1-4.8-3.1-5.8-5.4l0,0c0,0,0,0,0-0.2
			c0-0.2-0.2-0.2-0.2-0.4l0,0c0,0-1-2.7-1.5-7.1c-0.2-1.7-0.2-3.7,0-5.8C541.9,420.4,542.3,418.1,542.7,416.4z"/>
	</g>
</g>
<g>
	<g>
		
			<linearGradient id="SVGID_2_" gradientUnits="userSpaceOnUse" x1="291.3533" y1="217.5892" x2="376.334" y2="217.5892" gradientTransform="matrix(1 0 0 -1 0 602)">
			<stop  offset="0" style="stop-color:#EFD97F"/>
			<stop  offset="0.1978" style="stop-color:#EFD87C"/>
			<stop  offset="0.3726" style="stop-color:#EED571"/>
			<stop  offset="0.5387" style="stop-color:#EDCF5F"/>
			<stop  offset="0.6984" style="stop-color:#EBC845"/>
			<stop  offset="0.7526" style="stop-color:#EAC53B"/>
			<stop  offset="1" style="stop-color:#E5AD14"/>
		</linearGradient>
		<path class="st4" d="M376.5,360.4l-8.1-18.3c0-0.4,0-1-0.2-1.5c0-0.2,0-0.4,0-0.4c0-0.4-0.2-0.8-0.2-1c0-0.2,0-0.4-0.2-0.6
			c-0.2-0.4-0.2-0.8-0.4-1.2c0-0.2,0-0.2-0.2-0.4c-0.2-0.6-0.4-1-0.6-1.7c0-0.2-0.2-0.2-0.2-0.4c-0.2-0.4-0.4-0.8-0.6-1.2
			c0-0.2-0.2-0.4-0.2-0.6c-0.2-0.4-0.4-0.8-0.6-1c0-0.2-0.2-0.4-0.2-0.6c-2.9-5.6-7.1-11-10-14.6c-0.2-0.2-0.2-0.2-0.4-0.4
			c-15.8,20-33.7,47.2-47.8,81.6c0,0-12.9,12.3-12.9,29.7c0,17.5,13.3,23.1,20.6,21.4l0,0c8.1,7.1,19.6,2.7,21.8-8.7v-0.2
			c0.4,0.2,1,0.6,1.7,0.8c4.8,2.5,11.2-0.6,13.3-5l0,0l0,0c0-0.2,0.2-0.4,0.2-0.6l-0.2-0.2l1.7-14.1h-0.4v-3.5l-0.6-2.5
			c0.2-0.6,0.6-1.5,0.8-2.3l0.6-1l0.8-2.5v-0.6c2.7-6.4,6.7-15.4,11.9-26c3.3-6.9,7.3-14.1,11.2-21L376.5,360.4z"/>
	</g>
	<path class="st1" d="M325.9,420.6c0,0-2.5,19.1,8.3,25.4l1.9-5.4C336.3,440.5,324.7,434.5,325.9,420.6z"/>
	<path class="st1" d="M307.4,426.6c0,0-5,12.7-1.2,21.8c0,0,3.3,1.2,8.3,0.8C314.5,449.3,305.9,444.9,307.4,426.6z"/>
	<path class="st2" d="M325.7,426.6c0,0-0.2,11.4,9.6,15.6l0.4-1.7C335.7,440.5,325.5,431.4,325.7,426.6z"/>
	<path class="st2" d="M306.6,433.3c0,0-0.6,10.6,5,16.2l3.5-0.2C315.1,449.3,307.4,442,306.6,433.3z"/>
	<path class="st3" d="M376.5,360.4l-8.1-18.3c0-0.4,0-1-0.2-1.5c0-0.2,0-0.4,0-0.4c0-0.4-0.2-0.8-0.2-1c0-0.2,0-0.4-0.2-0.6
		c-0.2-0.4-0.2-0.8-0.4-1.2c0-0.2,0-0.2-0.2-0.4c-0.2-0.6-0.4-1-0.6-1.7c0-0.2-0.2-0.2-0.2-0.4c-0.2-0.4-0.4-0.8-0.6-1.2
		c0-0.2-0.2-0.4-0.2-0.6c-0.2-0.4-0.4-0.8-0.6-1c0-0.2-0.2-0.4-0.2-0.6c0,0,0-0.2-0.2-0.2c-10.8,21.2-22.5,49.5-23.1,73.4
		c0,0,13.3,16.9,8.5,33.3c0.4-0.4,0.6-1,0.8-1.7l0,0l0,0c0-0.2,0.2-0.4,0.2-0.6l-0.2-0.2l1.7-14.1h-0.4v-3.5l-0.8-3.1l1.9-2.7l1-2.5
		l20-43.5c0,0,1-1.2,2.9-4.2L376.5,360.4z"/>
	<g>
		<path class="st2" d="M352.3,416.6l0.6-1.2l0,0c0.2-0.4,13.1-28.9,25-52l-1.2-2.9l0,0c-10.8,20.8-22.7,47-25.4,52.8
			c-0.4-1.2-0.8-1.7-0.8-1.7l0,0c-1-1.9-2.3-3.5-2.5-3.5c-0.2-0.2-0.6-0.2-0.8,0c-0.2,0.2-0.2,0.6,0,0.8c0.2,0.2,0.6,0.6,0.8,1
			c0,0,6.9,10.6,3.1,25.8l0,0c-0.8,2.3-2.9,4.2-5.4,5.2c-2.5,1-5.2,1-7.3,0c-8.5-4.2-13.1-13.3-11.2-22.3c0-0.4-0.2-0.6-0.4-0.8
			c-0.4,0-0.6,0.2-0.8,0.4c-1.9,8.7,2.1,17.7,9.8,22.5c-1.2,5.4-4.6,9.4-9.2,10.8c-4.4,1.2-8.9,0-12.5-3.5
			c-8.9-8.9-5.6-22.5-5.4-22.5c0-0.4-0.2-0.6-0.4-0.8c-0.4,0-0.6,0.2-0.8,0.4c0,0.2-3.5,14.4,5.8,23.7l0,0
			c-2.9,0.2-7.3-0.6-11.2-3.7c-3.3-2.7-7.3-7.9-7.3-17.3c0-16.9,12.7-29.1,12.7-29.3l0.2-0.2c13.9-34.3,32-61.4,47.6-81.1L355,317
			c-1-1.2-2.1-2.3-2.7-3.1l0,0c-5.2,6.4-10.6,13.7-16,22.1l0,0c0,0-25.8,38.5-31.6,60.1c-7.1,9.2-20.2,30.2-7.7,46
			c1.2,1.9,2.7,3.3,4,4.4c0.4,0.4,1,0.8,1.7,1c0.2,0,0.2,0.2,0.2,0.2l0,0c2.9,1.9,6,2.7,9.2,2.7c0.8,0,1.7,0,2.3-0.2
			c2.7,2.3,5.8,3.3,8.9,3.3c1.2,0,2.5-0.2,3.7-0.6c5-1.5,8.5-5.6,10-11.4c0.2,0.2,0.6,0.4,0.8,0.4c1.2,0.6,2.7,0.8,4.2,0.8
			s2.7-0.2,4.2-0.8c2.7-1,4.8-3.1,5.8-5.4l0,0c0,0,0,0,0-0.2c0-0.2,0.2-0.2,0.2-0.4l0,0c0,0,1-2.7,1.5-7.1c0.2-1.7,0.2-3.7,0-5.8
			C353.4,420.6,352.8,418.3,352.3,416.6z"/>
	</g>
</g>
<g>
	<path class="st61" d="M338.5,152.9c0,0,8.3,8.8,11,9.7c2.6,0.4,33.8-23.7,74.2-23.7c40.4,0.4,94.5,20.2,98,20.6
		c3.5,0.4,23.3,1.3,9.2-35.6l-149.4-15.8l-19.8,27.2L338.5,152.9z"/>
	<linearGradient id="SVGID_3_" gradientUnits="userSpaceOnUse" x1="374.8092" y1="84.7027" x2="524.3567" y2="126.0951">
		<stop  offset="0" style="stop-color:#B1DEF7"/>
		<stop  offset="0.2353" style="stop-color:#AEDBF5"/>
		<stop  offset="0.4158" style="stop-color:#A5D2EE"/>
		<stop  offset="0.5781" style="stop-color:#94C2E0"/>
		<stop  offset="0.7297" style="stop-color:#7CADCF"/>
		<stop  offset="0.8726" style="stop-color:#5D94B9"/>
		<stop  offset="1" style="stop-color:#347AA3"/>
	</linearGradient>
	<path class="st5" d="M528.3,156.8c-1.3,0.4-2.6,0-4.4-0.9c-0.4-0.4-0.9-0.4-1.3-0.9c-29.9-13.2-106.3-39.5-166.1-2.6
		c-4.8,3.1-10.5,5.7-12.3,6.6c-3.1-1.8-5.3-4-5.7-6.6c-0.9-4.4,2.2-8.3,2.2-8.3l18.9-26.8c0,0,0,0,0-0.4l11.4-36
		c0.9-2.2,1.3-4.4,1.8-6.6c1.3-4.4,2.6-9.2,4.8-13.6c3.1-6.2,7.5-11.9,12.3-16.7c10.1-9.2,23.7-12.7,36.9-14.9
		c6.2-0.4,12.7-1.3,19.3-1.3c7,0,14.9,0.4,23.3,1.8c11,1.8,23.7,4,35.1,10.5c4,2.2,9.2,6.2,12.3,10.5c2.6,4,4,9.2,5.3,13.6
		c0.4,0.9,0.4,1.8,0.9,2.6c2.6,9.2,4.4,18.5,6.2,27.7c0.4,2.6,0.9,5.3,1.8,7.9c0.4,1.8,0.9,4,1.3,5.7c1.3,4.8,2.2,10.1,2.6,15.4
		C535.3,147.6,529.1,156.4,528.3,156.8z"/>
	<path class="st63" d="M424.6,101.9L424.6,101.9c0.4,0,0.9-0.4,0.9-0.9c4.8-49.6,20.2-71.2,20.6-71.2c0.4-0.4,0-0.9,0-0.9
		c-0.4-0.4-0.9,0-0.9,0s-16.3,21.5-21.1,72C423.7,101.5,424.1,101.9,424.6,101.9z"/>
	<path class="st64" d="M447.9,18.5c2.2,0,4.4,1.8,4.4,4.4c0,0.9-0.4,2.2-1.3,2.6c-1.8,0-3.5,0-4.8,0c-0.4,0-0.9,0-1.3,0
		c-0.9-0.9-0.9-1.8-0.9-2.6C443.5,20.7,445.7,18.5,447.9,18.5z"/>
	<path class="st65" d="M536.2,117.3c-0.9-3.1-9.2-53.2-14.9-65.5c-4.8-11.4-24.2-26.4-67.2-27.7c0-0.4,0-0.9,0-0.9
		c0-3.5-3.1-6.6-6.6-6.6c-3.5,0-6.6,3.1-6.6,6.6c0,0.4,0,0.9,0,0.9c-51.8,1.3-64.1,33.4-64.1,33.4l0,0c-0.4,0.9-0.9,1.3-1.3,2.2
		c-1.8,3.5-3.1,7.5-4,11.4c-1.3,3.5-1.8,6.2-1.8,6.2c-0.4,0.9-0.4,2.2-0.9,3.1l-11.4,36l-18.5,26.4c0,0-3.5,4.8-2.6,10.1
		c0.4,3.1,2.6,5.3,5.7,7.5c0.4,0,2.6,1.3,4.4,0.4l0,0c2.6-1.3,7-4,11.4-6.2c54.9-33.8,124.8-13.2,157.7,0
		c14.9,7.9,14.9,5.7,14.9,5.7C543.6,154.2,537,120.4,536.2,117.3z M447.9,18.5c2.2,0,4.4,1.8,4.4,4.4c0,0.4,0,0.4,0,0.9
		c-2.6,0-5.3,0-7.9,0c0-0.4,0-0.4,0-0.9C443.5,20.7,445.7,18.5,447.9,18.5z M528.3,156.8c-0.9,0.4-2.2,0-3.5-0.4l-0.9-0.4
		c-0.4-0.4-0.9-0.4-1.3-0.9c-29.9-13.2-106.3-39.5-166.1-2.6c-3.5,2.2-7.5,4.4-10.1,5.7c-1.8,0.9-3.1,0.4-4,0c0,0-0.4,0-0.4-0.4l0,0
		l0,0c-2.2-1.8-3.5-3.5-4-5.3c-0.9-4.4,2.2-8.3,2.2-8.3l18.9-26.8c0,0,0,0,0-0.4l11.4-36c0.4-0.9,0.4-1.3,0.4-2.2l0,0
		c0.4-1.3,0.9-3.1,1.3-4.4c0.4-0.9,0.4-1.8,0.9-2.6c4-11,10.5-21.1,19.8-29c9.7-8.3,21.1-11.4,33.8-13.6c6.2-0.4,12.7-1.3,19.3-1.3
		c7,0,14.9,0.4,23.3,1.8c11,1.8,23.7,4,35.1,10.5c4,2.2,9.2,6.2,12.3,10.5c2.6,4,4,9.2,5.3,13.6c0.4,0.9,0.4,1.8,0.9,2.6
		c2.6,9.2,4.4,18.5,6.2,27.7c0.4,2.6,0.9,5.3,1.8,7.9c0.4,1.8,0.9,4,1.3,5.7c1.3,4.8,2.2,10.1,2.6,15.4
		C535.3,147.6,529.1,156.4,528.3,156.8z"/>
	<path class="st63" d="M531.3,124.8c-3.1-2.2-6.6-3.5-9.7-5.3c2.2-43.1-9.2-68.1-9.2-68.5c0-0.4-0.4-0.4-0.9-0.4s-0.4,0.4-0.4,0.9
		c0,0.4,11.4,25,9.2,67.2c-12.3-5.3-25.5-7.9-37.8-10.1c-17.1-3.5-34.3-5.3-51.8-5.7c-23.7-0.4-51,0.9-71.6,16.3
		c-0.4,0.4-0.4,0.9-0.4,1.8c0.4,0.4,0.9,0.4,1.8,0.4c19.8-14.9,45.7-16.3,70.3-15.8c17.1,0.4,34.3,2.2,51.4,5.7
		c15.8,3.1,33.8,6.6,48.3,15.8h0.4c0.4,0,0.9,0,0.9-0.4C532.2,125.6,532.2,124.8,531.3,124.8z"/>
	<path class="st66" d="M355.6,129.2c3.1-6.2,11.9-11.4,13.2-11.9c21.5-9.2,49.6-11.4,67.7-11.9c-1.8,0-4,0-5.7,0
		c-24.6-0.4-50.1,0.9-69.8,15.4l-0.9,0.4c-0.4,0-0.9,0-0.9-0.4c-0.4-0.4-0.4-1.3,0.4-1.8c0.9-0.9,2.2-1.3,3.1-2.2
		c3.5-7,6.6-20.6,6.6-20.6c11.4-47.4,48.3-63.7,58-66.8h-0.4c-13.2,2.2-26.8,5.7-36.9,14.9c-4.8,4.4-9.2,10.1-12.3,16.7
		c-2.2,4.4-3.5,9.2-4.8,13.6c-0.4,2.2-1.3,4.4-1.8,6.6l-11.4,36c0,0,0,0,0,0.4l-1.8,2.6l-17.6,24.2c0,0-3.1,4-2.2,8.3
		c0.4,2.6,2.6,4.8,5.7,6.6c0.9-0.4,2.2-0.9,3.5-1.8c-2.6-5.7-1.3-9.7-1.3-9.7L355.6,129.2z"/>
	<path class="st67" d="M420.2,128.3c-44.8,1.8-75.1,22.4-80.8,26.4c0.9,1.8,2.6,3.1,4.8,4.4c1.8-0.9,7.5-4,12.3-6.6
		c59.7-36.9,136.2-10.5,166.1,2.6c0.4,0,0.9,0.4,1.3,0.9c1.8,0.9,3.1,1.8,4.4,0.9c0.4-0.4,1.8-1.8,3.1-5.3
		C508.9,143.7,458.4,127,420.2,128.3z"/>
</g>
</svg>
