<?xml version="1.0" encoding="utf-8"?>
<!-- Generator: Adobe Illustrator 21.0.0, SVG Export Plug-In . SVG Version: 6.00 Build 0)  -->
<svg version="1.1" id="圖層_1" xmlns="http://www.w3.org/2000/svg" xmlns:xlink="http://www.w3.org/1999/xlink" x="0px" y="0px"
	 viewBox="0 0 822.9 601.4" style="enable-background:new 0 0 822.9 601.4;" xml:space="preserve">
<style type="text/css">
	.st0{fill:url(#SVGID_1_);}
	.st1{fill:#CE9245;}
	.st2{fill:#A66A22;}
	.st3{opacity:0.6;fill:#CE9245;enable-background:new    ;}
	.st4{fill:url(#SVGID_2_);}
	.st5{fill:url(#SVGID_3_);}
	.st6{opacity:0.8;}
	.st7{fill:url(#SVGID_4_);}
	.st8{fill:url(#SVGID_5_);}
	.st9{fill:#B62E22;}
	.st10{fill:#92622F;}
	.st11{fill:url(#SVGID_6_);}
	.st12{fill:#C5A27C;}
	.st13{opacity:0.8;fill:url(#SVGID_7_);enable-background:new    ;}
	.st14{fill:url(#SVGID_8_);}
	.st15{fill:#2B150B;}
	.st16{fill:#97654C;}
	.st17{opacity:0.4;fill:#3E210E;enable-background:new    ;}
	.st18{fill:url(#SVGID_9_);}
	.st19{opacity:0.35;fill:#DF9E83;enable-background:new    ;}
	.st20{fill:#DF9E83;}
	.st21{fill:#F6D4C7;}
	.st22{opacity:0.69;}
	.st23{fill:#CE5E39;}
	.st24{opacity:0.4;}
	.st25{fill:#3E210E;}
	.st26{fill:#DE805C;}
	.st27{fill:url(#SVGID_10_);stroke:#D78863;stroke-width:0.9662;stroke-miterlimit:10;}
	.st28{fill:url(#SVGID_11_);}
	.st29{opacity:0.6;}
	.st30{fill:#A66B23;}
	.st31{fill:url(#SVGID_12_);}
	.st32{fill:url(#SVGID_13_);}
	.st33{fill:#976430;}
	.st34{fill:url(#SVGID_14_);}
	.st35{fill:#CAA67E;}
	.st36{fill:#5CA6A6;}
	.st37{fill:url(#SVGID_15_);}
	.st38{fill:#9DD6DE;}
	.st39{fill:none;stroke:#AFDDE3;stroke-width:0.8954;stroke-miterlimit:10;}
	.st40{opacity:0.3;enable-background:new    ;}
	.st41{clip-path:url(#SVGID_17_);fill:#9DD6DE;}
	.st42{clip-path:url(#SVGID_19_);fill:#9DD6DE;}
	.st43{opacity:0.6;fill:#FFFFFF;enable-background:new    ;}
	.st44{fill:#D69644;}
	.st45{fill:#AC6D21;}
	.st46{fill:url(#SVGID_20_);}
</style>
<g>
	<g>
		<g>
			
				<linearGradient id="SVGID_1_" gradientUnits="userSpaceOnUse" x1="3004.9661" y1="-1247.5454" x2="3086.1897" y2="-1247.5454" gradientTransform="matrix(-1 0 0 -1 3605.6123 -870.0905)">
				<stop  offset="0" style="stop-color:#EDCF95"/>
				<stop  offset="0.5331" style="stop-color:#EECC91"/>
				<stop  offset="0.7526" style="stop-color:#EFC88D"/>
				<stop  offset="1" style="stop-color:#EDB397"/>
			</linearGradient>
			<path class="st0" d="M519.2,354.7l7.6-17.6c0-0.3,0-1,0.3-1.4c0-0.3,0-0.3,0-0.3c0-0.3,0.3-0.7,0.3-1c0-0.3,0-0.3,0.3-0.7
				c0.3-0.3,0.3-0.7,0.3-1c0-0.3,0-0.3,0.3-0.3c0.3-0.7,0.3-1,0.7-1.7c0-0.3,0.3-0.3,0.3-0.3c0.3-0.3,0.3-0.7,0.7-1
				c0-0.3,0.3-0.3,0.3-0.7c0.3-0.3,0.3-0.7,0.7-1c0-0.3,0.3-0.3,0.3-0.7c2.8-5.5,6.9-10.4,9.7-13.8c0.3-0.3,0.3-0.3,0.3-0.3
				c15.2,19,32.2,45,45.7,77.8c0,0,12.5,11.8,12.5,28.4c0,16.6-12.8,22.1-19.7,20.4l0,0c-7.6,6.9-18.7,2.4-20.8-8.3v-0.3
				c-0.3,0.3-1,0.7-1.7,0.7c-4.5,2.4-10.7-0.7-12.8-4.8l0,0l0,0c0-0.3-0.3-0.3-0.3-0.7l0.3-0.3l-1.7-13.5h0.3v-3.5l0.7-2.4
				c-0.3-0.7-0.7-1.4-0.7-2.1l-0.7-1l-0.7-2.4v-0.7c-2.4-6.2-6.2-14.9-11.4-24.9c-3.1-6.6-6.9-13.5-10.7-20.1L519.2,354.7z"/>
		</g>
		<path class="st1" d="M567.6,412.1c0,0,2.4,18.3-8,24.2l-1.7-5.2C557.9,431.2,568.7,425.6,567.6,412.1z"/>
		<path class="st1" d="M585.3,418c0,0,4.8,12.1,1,20.8c0,0-3.1,1-8,0.7C578.7,439.8,587,435.7,585.3,418z"/>
		<path class="st2" d="M568,418c0,0,0.3,11.1-9,14.9l-0.3-1.7C558.3,431.2,568,422.5,568,418z"/>
		<path class="st2" d="M586.3,424.2c0,0,0.7,10-4.8,15.6l-3.5-0.3C578,439.8,585.3,432.5,586.3,424.2z"/>
		<path class="st3" d="M519.2,354.7l7.6-17.6c0-0.3,0-1,0.3-1.4c0-0.3,0-0.3,0-0.3c0-0.3,0.3-0.7,0.3-1c0-0.3,0-0.3,0.3-0.7
			c0.3-0.3,0.3-0.7,0.3-1c0-0.3,0-0.3,0.3-0.3c0.3-0.7,0.3-1,0.7-1.7c0-0.3,0.3-0.3,0.3-0.3c0.3-0.3,0.3-0.7,0.7-1
			c0-0.3,0.3-0.3,0.3-0.7c0.3-0.3,0.3-0.7,0.7-1c0-0.3,0.3-0.3,0.3-0.7c0,0,0-0.3,0.3-0.3c10.4,20.4,21.4,47.4,22.1,70.2
			c0,0-12.8,16.3-8.3,31.8c-0.3-0.3-0.7-1-0.7-1.7l0,0l0,0c0-0.3-0.3-0.3-0.3-0.7l0.3-0.3l-1.7-13.5h0.3v-3.5l0.7-3.1l-1.7-2.4
			l-1-2.4l-19-41.5c0,0-1-1-2.8-3.8L519.2,354.7z"/>
		<g>
			<path class="st2" d="M542.4,408.3l-0.7-1l0,0c-0.3-0.3-12.5-27.7-23.9-49.8l1-2.8l0,0c10.4,19.7,21.8,45,24.2,50.2
				c0.3-1,0.7-1.7,0.7-1.7l0,0c1-1.7,2.1-3.5,2.4-3.5c0.3-0.3,0.7-0.3,0.7,0c0.3,0.3,0.3,0.7,0,0.7c-0.3,0.3-0.7,0.7-0.7,1
				c0,0-6.6,10-3.1,24.6l0,0c0.7,2.1,2.8,3.8,5.2,4.8c2.4,1,4.8,1,6.9,0c8.3-3.8,12.5-12.8,10.7-21.4c0-0.3,0.3-0.7,0.3-0.7
				c0.3,0,0.7,0.3,0.7,0.3c1.7,8.3-2.1,17-9.3,21.4c1,5.2,4.5,9,8.6,10.4c4.2,1,8.6,0,11.8-3.5c8.6-8.6,5.2-21.4,5.2-21.4
				c0-0.3,0.3-0.7,0.3-0.7c0.3,0,0.7,0.3,0.7,0.3c0,0.3,3.5,13.8-5.5,22.8l0,0c2.8,0.3,6.9-0.7,10.7-3.5c3.1-2.4,6.9-7.6,6.9-16.6
				c0-16.3-12.1-27.7-12.1-28l-0.3-0.3c-13.5-32.9-30.8-58.8-45.7-77.5l0.3-0.3c1-1,2.1-2.1,2.4-3.1l0,0c4.8,6.2,10,13.1,15.2,21.1
				l0,0c0,0,24.6,36.7,30.1,57.4c6.9,8.6,19.4,28.7,7.3,43.9c-1,1.7-2.4,3.1-3.8,4.2c-0.3,0.3-1,0.7-1.7,1c-0.3,0-0.3,0.3-0.3,0.3
				l0,0c-2.8,1.7-5.9,2.4-8.6,2.4c-0.7,0-1.7,0-2.1-0.3c-2.4,2.1-5.5,3.1-8.6,3.1c-1,0-2.4-0.3-3.5-0.7c-4.8-1.4-8.3-5.5-9.7-11.1
				c-0.3,0.3-0.7,0.3-0.7,0.3c-1,0.7-2.4,0.7-3.8,0.7c-1.4,0-2.4-0.3-3.8-0.7c-2.4-1-4.5-3.1-5.5-5.2l0,0c0,0,0,0,0-0.3
				s-0.3-0.3-0.3-0.3l0,0c0,0-1-2.4-1.4-6.9c-0.3-1.7-0.3-3.5,0-5.5C541.7,412.1,542,410.1,542.4,408.3z"/>
		</g>
	</g>
	<g>
		<g>
			<path class="st33" d="M335.9,334.2c-0.4,0-0.8-0.4-0.8-0.8l-4.2-45.3v-0.4c5.4-6.5,14.2-1.5,14.6-1.2l0.4,0.4l5.4,45.7v0.4
				l-0.4,0.4L335.9,334.2L335.9,334.2z M332.1,288.1l4.2,44.9l13.1-1.2L344,287C342.8,286.2,336.3,283.5,332.1,288.1z"/>
			
				<linearGradient id="SVGID_2_" gradientUnits="userSpaceOnUse" x1="315.1959" y1="265.4129" x2="332.3685" y2="265.4129" gradientTransform="matrix(1 -8.000000e-03 8.000000e-03 1 15.028 46.4071)">
				<stop  offset="0" style="stop-color:#CAA67E"/>
				<stop  offset="0.2483" style="stop-color:#CAA47A"/>
				<stop  offset="0.4677" style="stop-color:#C9A071"/>
				<stop  offset="0.6761" style="stop-color:#C99862"/>
				<stop  offset="0.8765" style="stop-color:#C88E4D"/>
				<stop  offset="1" style="stop-color:#C7863D"/>
			</linearGradient>
			<path class="st4" d="M332.1,288.1l4.2,44.9l13.1-1.2L344,287C342.8,286.2,336.3,283.5,332.1,288.1z"/>
			<path class="st35" d="M344.4,287c-1.5-0.8-8.1-3.8-12.3,1.2l0.8,6.1h12.7L344.4,287z"/>
			<path class="st36" d="M309.4,294.6c-0.4,0-0.8-0.4-1.2-0.8c-0.4-5.4-0.8-10.4-1.2-15.7c-0.8-7.3-1.2-14.6-1.9-21.9
				c0-1.9-0.4-3.8-0.4-5.8c-0.8-6.9-1.5-13.8-0.4-20.7c2.3-15,10.8-25.7,23-28c1.2-0.4,1.9-0.4,3.1-0.4c8.1-0.8,14.6,1.2,20,6.1
				c11.5,10.4,13.1,29.2,13.4,30l5.4,50.7c0,0.4,0,0.4-0.4,0.8c0,0.4-0.4,0.4-0.8,0.4L309.4,294.6L309.4,294.6z M333.6,202.8
				c-0.8,0-1.9,0-2.7,0c-1.2,0-1.9,0.4-3.1,0.4c-11.5,2.3-19.2,12.3-21.5,26.5c-1.2,6.5-0.4,13.4,0.4,20.4c0.4,1.9,0.4,3.8,0.4,5.8
				c0.8,7.3,1.2,14.6,1.9,21.9c0.4,5,0.8,10,1.2,14.6l57.2-5L362,237c0-0.4-1.5-19.2-12.7-28.8C345.1,204.4,339.8,202.4,333.6,202.8
				z"/>
			
				<linearGradient id="SVGID_3_" gradientUnits="userSpaceOnUse" x1="295.1192" y1="198.6246" x2="353.8159" y2="221.3072" gradientTransform="matrix(1 -8.000000e-03 8.000000e-03 1 15.028 46.4071)">
				<stop  offset="0" style="stop-color:#C1E4EF"/>
				<stop  offset="0.2366" style="stop-color:#BDE3ED"/>
				<stop  offset="0.4457" style="stop-color:#B3DFE9"/>
				<stop  offset="0.6443" style="stop-color:#9FD7E3"/>
				<stop  offset="0.8354" style="stop-color:#80CCDA"/>
				<stop  offset="1" style="stop-color:#56C0D0"/>
			</linearGradient>
			<path class="st5" d="M333.6,202.8c-0.8,0-1.9,0-2.7,0c-1.2,0-1.9,0.4-3.1,0.4c-11.5,2.3-19.2,12.3-21.5,26.5
				c-1.2,6.5-0.4,13.4,0.4,20.4c0.4,1.9,0.4,3.8,0.4,5.8c0.8,7.3,1.2,14.6,1.9,21.9c0.4,5,0.8,10,1.2,14.6l57.2-5L362,237
				c0-0.4-1.5-19.2-12.7-28.8C345.1,204.4,339.8,202.4,333.6,202.8z"/>
			<path class="st38" d="M326.3,211.7c-7.7,3.1-13.1,10.8-14.6,21.5c-0.8,5.8-0.4,11.5,0.4,17.3c0,1.5,0.4,3.5,0.4,5
				c0.4,6.1,1.2,12.3,1.5,18.4c0,1.2,0,1.9,0.4,3.1l18.1-1.5L326.3,211.7z"/>
			<path class="st38" d="M343.2,274.3l17.7-1.5l-3.5-33.4c0,0-1.2-16.1-10.4-24.6c-2.7-2.7-6.1-4.2-9.6-4.6L343.2,274.3z"/>
			<g>
				<path class="st39" d="M326.3,211.7c-7.7,3.1-13.1,10.8-14.6,21.5c-0.8,5.8-0.4,11.5,0.4,17.3c0,1.5,0.4,3.5,0.4,5
					c0.4,6.1,1.2,12.3,1.5,18.4c0,1.2,0,1.9,0.4,3.1l18.1-1.5L326.3,211.7z"/>
				<path class="st39" d="M343.2,274.3l17.7-1.5l-3.5-33.4c0,0-1.2-16.1-10.4-24.6c-2.7-2.7-6.1-4.2-9.6-4.6L343.2,274.3z"/>
			</g>
			<g class="st40">
				<g>
					<g>
						<defs>
							<path id="SVGID_16_" d="M326.3,211.7c-7.7,3.1-13.1,10.8-14.6,21.5c-0.8,5.8-0.4,11.5,0.4,17.3c0,1.5,0.4,3.5,0.4,5
								c0.4,6.1,1.2,12.3,1.5,18.4c0,1.2,0,1.9,0.4,3.1l18.1-1.5L326.3,211.7z"/>
						</defs>
						<clipPath id="SVGID_4_">
							<use xlink:href="#SVGID_16_"  style="overflow:visible;"/>
						</clipPath>
						<path style="clip-path:url(#SVGID_4_);fill:#9DD6DE;" d="M319,216.3c0,0-10.8,5.8-3.5,56.1c0,0,1.2,2.3,16.5,1.2l1.5,6.1
							c0,0,1.2,5.8-15.7,3.8c-16.9-1.9-16.9-1.9-16.9-1.9l-3.8-49.9l8.5-20l7.7-0.8L319,216.3z"/>
					</g>
				</g>
			</g>
			<g class="st40">
				<g>
					<g>
						<defs>
							<path id="SVGID_18_" d="M343.2,274.3l17.7-1.5l-3.5-33.4c0,0-1.2-16.1-10.4-24.6c-2.7-2.7-6.1-4.2-9.6-4.6L343.2,274.3z"/>
						</defs>
						<clipPath id="SVGID_5_">
							<use xlink:href="#SVGID_18_"  style="overflow:visible;"/>
						</clipPath>
						<path style="clip-path:url(#SVGID_5_);fill:#9DD6DE;" d="M339.4,210.9l5.4,60.3c0,0-3.1,1.9,16.5,1.5l-5.8,6.5l-14.6-0.4
							l-0.8-0.8l-8.1-41.5l3.8-28.4L339.4,210.9z"/>
					</g>
				</g>
			</g>
			<path class="st43" d="M327.9,203.2c-11.5,2.3-19.2,12.3-21.5,26.5c-1.2,6.5-0.4,13.4,0.4,20.4c0,0.8,0,1.5,0.4,2.3
				c-1.5-48.8,26.9-49.6,26.9-49.6c-0.8,0-1.9,0-2.7,0C329.8,202.8,328.6,203.2,327.9,203.2z"/>
		</g>
		<g>
			<path class="st44" d="M369.7,322.3c-3.8-6.1-15-16.1-15-16.1c-42.3,19.6-35,52.2-35,52.2c6.5,18.1,27.3,20.4,33.4,20.7
				C357.1,356.9,363.6,337.7,369.7,322.3z"/>
			<path class="st45" d="M354.7,380.7c-15-0.4-25.4-4.2-31.1-11.1c-5.4-6.1-4.6-12.7-4.6-13.1l3.1,0.4h-1.5h1.5
				c0,0.4-0.4,5.4,3.8,10.8c5.4,6.1,15.4,9.6,28.8,10V380.7z"/>
		</g>
		<g>
			<path class="st45" d="M365.9,347.3c3.1-3.1,4.6-10,3.1-16.1c-0.8-2.7-1.5-5-3.1-6.5c0.8-2.3,3.8-12.3-3.8-21.1
				c-8.5-9.6-32.6-6.1-42.6-0.4c-9.2,5.4-7.7,18.1-7.3,20.7c-8.5,12.3,0,23,1.5,24.6c2.7,12.7,11.5,18.8,27.7,18.8
				c0.4,0,0.8,0,0.8,0c15.4-0.4,21.1-3.1,23.4-5.8c1.9-2.3,2.7-6.5,2.3-8.8C367.8,351.1,367.4,348.8,365.9,347.3z M363.2,344.2
				c-1.2-0.8-2.3-1.2-3.8-1.5c-6.1-1.9-24.2,0-25,0s-1.2,0.4-0.8,1.2c0,0.8,0.4,1.2,1.2,0.8c5.8-0.4,11.9-1.2,18.1-0.8
				c3.5,0.4,8.1,1.2,10.4,4.6c0.4,0.4,0.4,0.8,0.8,1.2c2.7,5.8-1.5,11.5-3.5,12.3c-3.5,1.9-8.8,3.5-17.7,3.8
				c-15.7,0.4-24.2-5.4-26.5-17.7c0-0.4,0-0.4-0.4-0.4c-0.4-0.4-10-10.8-1.5-22.7c0-0.4,0.4-0.4,0-0.8c-2.7-18.4,18.8-23.4,20-23.8
				c5-0.8,10-1.2,14.6-0.8c0,0,17.3,4.6,13.1,21.5l0,0l0,0c-0.8-0.4-1.5-0.4-2.3-0.8c-10.8-1.9-30.3,0-31.1,0
				c-0.8,0-1.2,0.4-0.8,1.2c0,0.8,0.4,1.2,1.2,0.8c0,0,2.7-0.4,6.9-0.4h2.3c-1.2,0-1.9,0-1.9,0c2.7,0,1.9,0,1.9,0
				c5.4,0,20.4,0,25,3.8C369.3,331.1,363.2,344.2,363.2,344.2z"/>
			<linearGradient id="SVGID_6_" gradientUnits="userSpaceOnUse" x1="319.0011" y1="323.9527" x2="379.9356" y2="347.5806">
				<stop  offset="0" style="stop-color:#F2D397"/>
				<stop  offset="0.4319" style="stop-color:#F3D195"/>
				<stop  offset="0.7526" style="stop-color:#F5CC8F"/>
				<stop  offset="1" style="stop-color:#F3B699"/>
			</linearGradient>
			<path class="st11" d="M363.2,344.2c-1.2-0.8-2.3-1.2-3.8-1.5c-6.1-1.9-24.2,0-25,0s-1.2,0.4-0.8,1.2c0,0.8,0.4,1.2,1.2,0.8
				c5.8-0.4,11.9-1.2,18.1-0.8c3.5,0.4,8.1,1.2,10.4,4.6c0.4,0.4,0.4,0.8,0.8,1.2c2.7,5.8-1.5,11.5-3.5,12.3
				c-3.5,1.9-8.8,3.5-17.7,3.8c-15.7,0.4-24.2-5.4-26.5-17.7c0-0.4,0-0.4-0.4-0.4c-0.4-0.4-10-10.8-1.5-22.7c0-0.4,0.4-0.4,0-0.8
				c-2.7-18.4,18.8-23.4,20-23.8c5-0.8,10-1.2,14.6-0.8c0,0,17.3,4.6,13.1,21.5l0,0l0,0c-0.8-0.4-1.5-0.4-2.3-0.8
				c-10.8-1.9-30.3,0-31.1,0c-0.8,0-1.2,0.4-0.8,1.2c0,0.8,0.4,1.2,1.2,0.8c0,0,2.7-0.4,6.9-0.4h2.3c-1.2,0-1.9,0-1.9,0
				c2.7,0,1.9,0,1.9,0c5.4,0,20.4,0,25,3.8C369.3,331.1,363.2,344.2,363.2,344.2z"/>
			<g class="st29">
				<path class="st44" d="M356.3,317.3c-1.5,1.2-3.1,1.9-4.6,2.7c3.1,0,5.8,0.4,8.1,0.8c0.8,0,1.5,0.4,2.3,0.8l0,0l0,0
					c2.7-10-2.3-15.7-6.5-18.8C355.5,302.7,360.1,314.2,356.3,317.3z"/>
				<path class="st44" d="M357.4,323.8c1.9,1.2,3.5,2.7,3.8,4.6c1.5,6.1,1.2,10.8-5.4,13.4c1.5,0,2.7,0.4,3.8,0.8
					c1.5,0.4,2.7,1.2,3.8,1.5c0,0,6.1-13.4,0-18.1C361.7,325,359.7,324.2,357.4,323.8z"/>
				<path class="st44" d="M363.6,349.6c0-0.4-0.4-0.8-0.8-1.2c-1.5-2.3-4.6-3.5-7.3-3.8c2.7,2.3,6.1,6.1,3.8,11.5
					c-1.5,4.2-3.8,6.9-5.8,8.5c2.7-0.8,4.6-1.5,6.1-2.3C362,361.1,366.3,355.3,363.6,349.6z"/>
			</g>
		</g>
	</g>
</g>
</svg>
