<?xml version="1.0" encoding="utf-8"?>
<!-- Generator: Adobe Illustrator 21.0.0, SVG Export Plug-In . SVG Version: 6.00 Build 0)  -->
<svg version="1.1" id="圖層_1" xmlns="http://www.w3.org/2000/svg" xmlns:xlink="http://www.w3.org/1999/xlink" x="0px" y="0px"
	 viewBox="0 0 822.9 601.4" style="enable-background:new 0 0 822.9 601.4;" xml:space="preserve">
<style type="text/css">
	.st0{fill:url(#SVGID_1_);}
	.st1{fill:#B56D4C;}
	.st2{fill:#F5B38E;}
	.st3{fill:#A76B22;}
	.st4{opacity:0.4;fill:#D59543;}
	.st5{fill:#AB6C21;}
	.st6{fill:url(#SVGID_2_);}
	.st7{fill:url(#SVGID_3_);}
</style>
<g>
	<g>
		<linearGradient id="SVGID_1_" gradientUnits="userSpaceOnUse" x1="335.6742" y1="129.4494" x2="327.0818" y2="316.7087">
			<stop  offset="0" style="stop-color:#F2D397"/>
			<stop  offset="0.5331" style="stop-color:#F3D093"/>
			<stop  offset="0.7526" style="stop-color:#F5CC8F"/>
			<stop  offset="1" style="stop-color:#F3B699"/>
		</linearGradient>
		<path class="st0" d="M384.4,294.4c-0.5,0.8-1.1,1.8-1.7,2.7C383.8,295.4,384.4,294.5,384.4,294.4c0.2-0.3,0.6-0.4,0.9-0.2
			c2.9-4.4,8.2-10,11.7-13.6l0.3-0.7c-0.5-0.9-42.3-74.3-58.7-92.6c-0.2-0.2-0.3-0.5-0.2-0.8c0-0.1,1.2-7.3,1.3-13.6
			c-1.3,0.6-2.7,1.2-4.2,1.5c-0.1,0-0.2,0-0.2,0c-0.4,0-0.9-0.3-1-0.8c-0.1-0.5,0.2-1.1,0.7-1.2c5.1-1.3,8.7-4.1,10.5-8.2
			c2.4-5.3,1.4-11.5-0.6-15.3c-1.4-2.7-3.9-4.7-7.1-5.7c-3.9-1.2-8.4-0.8-12.4,1.3c-7,3.7-6.8,12.9-6.8,13c0,0.6-0.4,1-1,1
			c-0.6,0-1-0.4-1-1c0-0.4-0.3-10.6,7.8-14.8c0.5-0.3,1.1-0.5,1.6-0.7c-0.2-3.1-1.9-15.3-14.8-16.9c-7.5-0.9-14.1,1.7-17.7,7.1
			c-5.1,7.5-2.9,20.7,4.4,26.3c0.4,0.3,0.5,1,0.2,1.4c-0.2,0.3-0.5,0.4-0.8,0.4c-0.2,0-0.4-0.1-0.6-0.2c-7.4-5.7-10-18-6.1-26.5
			c-3.9,0.4-13.2,2.3-14.9,10.4c-2.4,11.2,3.8,17.4,7.7,20c0.5,0.3,0.6,0.9,0.3,1.4c-0.2,0.3-0.5,0.4-0.8,0.4
			c-0.2,0-0.4-0.1-0.6-0.2c-3.6-2.5-8.8-7.5-9.1-16.1c-4.4,3-6.9,6.5-7.4,10.6c-1.1,9.1,7.9,17.9,8,18c0.1,0.1,0.2,0.3,0.3,0.5
			c3.6,19.3,21.7,28.9,21.9,29c0.2,0.1,0.4,0.3,0.5,0.6c18.6,57.7,58.9,113.6,68,125.8C374,309.4,384.4,294.4,384.4,294.4z"/>
		<path class="st1" d="M301.6,156c-2.1,0-4.1-1.7-5.9-5c-0.7-1.3-1.5-2.9-1.9-4.6c-0.1-0.3-0.1-0.6-0.1-0.9l0,0
			c-0.3-2.8,0.9-6.2,4.2-7c1.2-0.3,2.5-0.1,3.9,0.7c2.9,1.8,5.3,6,5.6,7.7l0,0.2c0.4,1.9,1.4,6.9-4.3,8.8
			C302.5,156,302.1,156,301.6,156z M295.6,145.3c0,0.2,0.1,0.5,0.1,0.7c0.3,1.5,1,2.9,1.7,4.1c1.7,3.1,3.3,4.4,4.9,3.8
			c3.7-1.2,3.5-4,3-6.5l0-0.2c-0.2-1.2-2.3-4.9-4.7-6.4c-0.8-0.5-1.6-0.7-2.3-0.5C296.2,141,295.4,143.4,295.6,145.3L295.6,145.3z"
			/>
		<path class="st1" d="M286.4,164.1c-3,0-6.7-3.6-7.7-5.1c-1.6-2.3-2.6-5.8-1.3-8.4l0,0c0.7-1.3,1.9-2.1,3.5-2.3
			c1.5-0.1,3,0.5,4.3,1.9c3.6,3.9,5.1,7.6,4.4,10.9c-0.5,2.1-1.7,2.7-2.6,2.9C286.8,164.1,286.6,164.1,286.4,164.1z M279.1,151.5
			c-0.9,1.9-0.1,4.6,1.1,6.4c1.1,1.6,4.6,4.6,6.4,4.2c0.2,0,0.7-0.1,1-1.4c0.6-2.6-0.8-5.7-3.9-9.1c-0.6-0.7-1.6-1.4-2.7-1.3
			C280.1,150.4,279.5,150.8,279.1,151.5L279.1,151.5z"/>
		<path class="st1" d="M274.3,174.3c-0.8,0-1.6-0.1-2.4-0.5c-1.8-0.8-4.1-2.8-4.7-7.9c0,0,0,0,0-0.1c-0.1-1.4,0.5-4.2,3.7-4.6
			c3.6-0.5,6.2,2.9,7,6.1c1,3.7-0.1,5.5-1.3,6.3C276.1,174,275.3,174.3,274.3,174.3z M269.2,165.7c0.4,3.3,1.6,5.5,3.5,6.3
			c1.4,0.6,2.6,0.3,2.8,0.1c1.1-0.8,0.9-2.7,0.5-4.2c-0.6-2.5-2.4-5-4.8-4.7C269.2,163.4,269.2,165.2,269.2,165.7z"/>
		<path class="st1" d="M328.5,169.8c-1.3,0-2.4-0.4-3.4-1c-4.2-2.5-3.9-8-2.5-10.3c0.2-0.3,1.3-2.4,3.6-3.2c1.6-0.5,3.3-0.4,5.2,0.6
			c2,1,3.3,2.7,3.6,4.8c0.5,2.9-0.8,5.9-1.6,6.7C331.7,169.2,330,169.8,328.5,169.8z M328.1,157c-0.4,0-0.8,0.1-1.2,0.2
			c-1.7,0.6-2.5,2.2-2.5,2.2c0,0,0,0.1,0,0.1c-0.9,1.4-1.3,5.8,1.8,7.6c2.7,1.6,4.6,0.2,5.9-1.1c0.3-0.3,1.5-2.7,1.1-5
			c-0.3-1.5-1.1-2.6-2.5-3.3C329.7,157.2,328.8,157,328.1,157z M323.5,159L323.5,159L323.5,159z"/>
		<path class="st1" d="M297.7,197c-1.8,0-3.6-0.5-5.1-1.6c-2.2-1.7-3.7-4.5-3.8-7.7c-0.1-2.5,1.2-4.6,1.1-7
			c-0.1-1.6-0.3-3.2-0.9-4.8c-0.5-1.6-1.1-3.1-0.6-4.8c0.3-1.1,1-2.1,2.1-3c2.9-2.4,6-3.1,8.4-1.8c1.2,0.6,2.2,1.2,3,1.7
			c2,1.2,3.1,1.8,6.2,2.3c4.7,0.7,10.1,3.3,11.7,7.8c1.5,4.3-0.2,8.7-3.9,10.2c-2.1,0.8-3.8,1.3-5.4,1.7c-0.8,0.2-1.5,0.4-2.3,0.7
			c-2,0.6-2.7,2.2-4.2,3.7l-0.2,0.2C302.1,196.2,299.9,197,297.7,197z M291.8,169.7c-0.5,0.4-1.2,1.1-1.5,2
			c-0.3,1.2,0.1,2.3,0.5,3.6c0.8,2.2,1,4.6,0.8,6.9c-0.2,1.9-1,3.5-0.9,5.4c0.1,2.5,1.3,4.9,3,6.1c2.5,1.8,6.4,1.6,8.6-0.6l0.2-0.2
			c1.7-1.6,2.5-3.4,5-4.2c0.8-0.3,1.6-0.5,2.4-0.7c1.6-0.4,3.2-0.9,5.2-1.7c2.7-1,3.9-4.4,2.7-7.6c-1.3-3.7-6-6-10.1-6.5
			c-3.5-0.5-4.9-1.3-7-2.6c-0.8-0.5-1.7-1-2.9-1.6C295.6,166.9,292.9,168.8,291.8,169.7z"/>
		<path class="st2" d="M295.6,145.3c0,0.2,0.1,0.5,0.1,0.7c0.3,1.5,1,2.9,1.7,4.1c1.7,3.1,3.3,4.4,4.9,3.8c3.7-1.2,3.5-4,3-6.5
			l0-0.2c-0.2-1.2-2.3-4.9-4.7-6.4c-0.8-0.5-1.6-0.7-2.3-0.5C296.2,141,295.4,143.4,295.6,145.3L295.6,145.3z"/>
		<path class="st2" d="M279.1,151.5c-0.9,1.9-0.1,4.6,1.1,6.4c1.1,1.6,4.6,4.6,6.4,4.2c0.2,0,0.7-0.1,1-1.4c0.6-2.6-0.8-5.7-3.9-9.1
			c-0.6-0.7-1.6-1.4-2.7-1.3C280.1,150.4,279.5,150.8,279.1,151.5L279.1,151.5z"/>
		<path class="st2" d="M269.2,165.7c0.4,3.3,1.6,5.5,3.5,6.3c1.4,0.6,2.6,0.3,2.8,0.1c1.1-0.8,0.9-2.7,0.5-4.2
			c-0.6-2.5-2.4-5-4.8-4.7C269.2,163.4,269.2,165.2,269.2,165.7z"/>
		<path class="st2" d="M328.1,157c-0.4,0-0.8,0.1-1.2,0.2c-1.7,0.6-2.5,2.2-2.5,2.2c0,0,0,0.1,0,0.1c-0.9,1.4-1.3,5.8,1.8,7.6
			c2.7,1.6,4.6,0.2,5.9-1.1c0.3-0.3,1.5-2.7,1.1-5c-0.3-1.5-1.1-2.6-2.5-3.3C329.7,157.2,328.8,157,328.1,157z"/>
		<path class="st2" d="M291.8,169.7c-0.5,0.4-1.2,1.1-1.5,2c-0.3,1.2,0.1,2.3,0.5,3.6c0.8,2.2,1,4.6,0.8,6.9c-0.2,1.9-1,3.5-0.9,5.4
			c0.1,2.5,1.3,4.9,3,6.1c2.5,1.8,6.4,1.6,8.6-0.6l0.2-0.2c1.7-1.6,2.5-3.4,5-4.2c0.8-0.3,1.6-0.5,2.4-0.7c1.6-0.4,3.2-0.9,5.2-1.7
			c2.7-1,3.9-4.4,2.7-7.6c-1.3-3.7-6-6-10.1-6.5c-3.5-0.5-4.9-1.3-7-2.6c-0.8-0.5-1.7-1-2.9-1.6
			C295.6,166.9,292.9,168.8,291.8,169.7z"/>
		<path class="st4" d="M317.8,259c18.8,36.8,40.3,66.6,46.7,75.1c2-5,3.9-9.7,5.9-13.8C353.7,307.9,329.8,275.9,317.8,259z"/>
		<path class="st4" d="M273.5,148.3c0,0-1.6,14.5,7.1,19.5c0,0,3-1.8,1.9-2.9c-1-1.1-6.3-6.8-6.3-6.8l-2-8.5L273.5,148.3z"/>
		<path class="st4" d="M289.8,133c0,0-6.4,16,3.8,27.1c0,0,1.5,1.4,2.1-0.8l-2.1-3.3c0,0-4.2-6.8-3.8-14c0.3-7.2,2.7-9.5,2.7-9.5
			L289.8,133z"/>
		<path class="st4" d="M317.2,158.6c-0.3-0.2-0.5-0.5-0.5-0.8c0-0.4-0.3-10.6,7.8-14.8c0.5-0.3,1.1-0.5,1.6-0.7
			c-0.1-0.8-0.2-2.3-0.7-4c0,0-13.4,5-11.3,17.1C314.1,155.3,315.8,160.2,317.2,158.6z"/>
		<path class="st5" d="M399,279.1c-0.4-0.7-41.8-73.5-58.7-92.6c0.3-1.9,1.3-8.7,1.3-14.5c0,0,0,0,0-0.1c2.5-1.7,4.4-3.9,5.7-6.6
			c2.6-5.9,1.6-12.8-0.6-17c-1.7-3.2-4.6-5.6-8.2-6.7c-3.3-1-6.9-1-10.4,0c-0.4-4.1-2.9-16.6-16.5-18.2c-8.2-1-15.5,1.9-19.6,7.9
			c-0.1,0.1-0.1,0.2-0.2,0.3c-2.8,0.1-15.8,1.4-18,12.1c-0.3,1.3-0.4,2.5-0.5,3.6c-5.6,3.4-8.8,7.7-9.4,12.8
			c-1.1,9.3,6.8,17.9,8.3,19.4c3.6,18.7,19.7,28.4,22.5,29.9c19.7,60.9,63.5,119.8,69.4,127.6c0.4-0.6,0.8-1.2,1.2-1.8
			c-7.3-9.7-49.6-67.3-68.8-126.8c-0.1-0.3-0.3-0.5-0.5-0.6c-0.2-0.1-18.3-9.7-21.9-29c0-0.2-0.1-0.4-0.3-0.5c-0.1-0.1-9.1-8.9-8-18
			c0.5-4.1,3-7.6,7.4-10.6c0.3,8.6,5.6,13.6,9.1,16.1c0.2,0.1,0.4,0.2,0.6,0.2c0.3,0,0.6-0.2,0.8-0.4c0.3-0.5,0.2-1.1-0.3-1.4
			c-3.9-2.7-10.1-8.9-7.7-20c1.7-8.1,11.1-9.9,14.9-10.4c-3.9,8.5-1.3,20.9,6.1,26.5c0.2,0.1,0.4,0.2,0.6,0.2c0.3,0,0.6-0.1,0.8-0.4
			c0.3-0.4,0.3-1.1-0.2-1.4c-7.2-5.5-9.4-18.8-4.4-26.3c3.6-5.3,10.2-8,17.7-7.1c12.9,1.6,14.6,13.9,14.8,16.9
			c-0.5,0.2-1.1,0.5-1.6,0.7c-8.1,4.2-7.9,14.4-7.8,14.8c0,0.6,0.5,1,1,1c0.6,0,1-0.5,1-1c0-0.1-0.2-9.4,6.8-13
			c3.9-2,8.4-2.5,12.4-1.3c3.1,1,5.7,3,7.1,5.7c2,3.8,2.9,10,0.6,15.3c-1.9,4.1-5.4,6.9-10.5,8.2c-0.5,0.1-0.9,0.7-0.7,1.2
			c0.1,0.5,0.5,0.8,1,0.8c0.1,0,0.2,0,0.2,0c1.5-0.4,2.9-0.9,4.2-1.5c-0.1,6.3-1.3,13.5-1.3,13.6c0,0.3,0,0.6,0.2,0.8
			c16.5,18.4,58.3,91.9,58.7,92.6c0.2,0.3,0.5,0.5,0.9,0.5c0.2,0,0.3,0,0.5-0.1C399.1,280.2,399.3,279.5,399,279.1z"/>
	</g>
	<g>
		<g>
			<linearGradient id="SVGID_2_" gradientUnits="userSpaceOnUse" x1="474.0913" y1="164.3128" x2="513.4991" y2="301.4994">
				<stop  offset="0" style="stop-color:#F2D397"/>
				<stop  offset="0.5331" style="stop-color:#F3D093"/>
				<stop  offset="0.7526" style="stop-color:#F5CC8F"/>
				<stop  offset="1" style="stop-color:#F3B699"/>
			</linearGradient>
			<path class="st6" d="M512.5,297c-0.4-0.6-0.7-1.2-1-1.7C511.7,295.7,512,296.3,512.5,297z"/>
			<linearGradient id="SVGID_3_" gradientUnits="userSpaceOnUse" x1="543.2902" y1="144.4366" x2="582.6976" y2="281.6218">
				<stop  offset="0" style="stop-color:#F2D397"/>
				<stop  offset="0.5331" style="stop-color:#F3D093"/>
				<stop  offset="0.7526" style="stop-color:#F5CC8F"/>
				<stop  offset="1" style="stop-color:#F3B699"/>
			</linearGradient>
			<path class="st7" d="M629.5,160.3c-0.5-4.1-3-7.6-7.4-10.6c-0.3,8.6-5.6,13.6-9.1,16.1c-0.2,0.1-0.4,0.2-0.6,0.2
				c-0.3,0-0.6-0.2-0.8-0.4c-0.3-0.5-0.2-1.1,0.3-1.4c3.9-2.7,10.1-8.9,7.7-20c-1.7-8.1-11.1-9.9-14.9-10.4
				c3.9,8.5,1.3,20.9-6.1,26.5c-0.2,0.1-0.4,0.2-0.6,0.2c-0.3,0-0.6-0.1-0.8-0.4c-0.3-0.4-0.3-1.1,0.2-1.4
				c7.2-5.5,9.4-18.8,4.4-26.3c-3.6-5.3-10.2-8-17.7-7.1c-12.9,1.6-14.6,13.9-14.8,16.9c0.5,0.2,1.1,0.5,1.6,0.7
				c8.1,4.2,7.9,14.4,7.8,14.8c0,0.6-0.5,1-1,1c-0.6,0-1-0.5-1-1c0-0.1,0.2-9.4-6.8-13c-3.9-2-8.4-2.5-12.4-1.3
				c-3.1,1-5.7,3-7.1,5.7c-2,3.8-2.9,10-0.6,15.3c1.9,4.1,5.4,6.9,10.5,8.2c0.5,0.1,0.9,0.7,0.7,1.2c-0.1,0.5-0.5,0.8-1,0.8
				c-0.1,0-0.2,0-0.2,0c-1.5-0.4-2.9-0.9-4.2-1.5c0.1,6.3,1.3,13.5,1.3,13.6c0,0.3,0,0.6-0.2,0.8c-14.6,16.3-49,75.7-57,89.7
				l0.3,0.9l10.1,16.2c0.3-0.2,0.7-0.1,0.9,0.2c0,0,10.4,15,20,39.6c9.2-12.4,49.4-68.2,67.9-125.7c0.1-0.3,0.3-0.5,0.5-0.6
				c0.2-0.1,18.3-9.7,21.9-29c0-0.2,0.1-0.4,0.3-0.5C621.6,178.2,630.5,169.4,629.5,160.3z"/>
		</g>
		<path class="st1" d="M592.2,155.9c-5.7-1.9-4.7-6.9-4.3-8.8l0-0.2c0.3-1.7,2.7-5.9,5.6-7.7c1.3-0.8,2.6-1.1,3.9-0.7
			c3.3,0.9,4.5,4.3,4.2,7l0,0c0,0.3-0.1,0.6-0.1,0.9c-0.4,1.7-1.2,3.3-1.9,4.6c-1.8,3.3-3.8,5-5.9,5
			C593.2,156.1,592.7,156.1,592.2,155.9z M599.6,145.4c0.2-2-0.6-4.3-2.7-4.9c-0.7-0.2-1.4,0-2.3,0.5c-2.4,1.5-4.5,5.2-4.7,6.4
			l0,0.2c-0.5,2.5-0.7,5.2,3,6.5c1.6,0.5,3.3-0.8,4.9-3.8c0.7-1.2,1.4-2.6,1.7-4.1C599.5,145.9,599.6,145.7,599.6,145.4L599.6,145.4
			z"/>
		<path class="st1" d="M608.2,164.2c-0.9-0.2-2.1-0.8-2.6-2.9c-0.8-3.3,0.8-7,4.4-10.9c1.3-1.4,2.8-2.1,4.3-1.9
			c1.6,0.1,2.8,1,3.5,2.3l0,0c1.3,2.6,0.3,6.1-1.3,8.4c-1.1,1.6-4.8,5.1-7.7,5.1C608.7,164.2,608.4,164.2,608.2,164.2z M616.1,151.6
			c-0.4-0.7-1-1.1-1.9-1.2c-1.1-0.1-2.1,0.7-2.7,1.3c-3.2,3.4-4.5,6.5-3.9,9.1c0.3,1.2,0.8,1.3,1,1.4c1.7,0.3,5.3-2.6,6.4-4.2
			C616.2,156.2,617,153.5,616.1,151.6L616.1,151.6z"/>
		<path class="st1" d="M618.6,173.8c-1.1-0.8-2.2-2.6-1.3-6.3c0.9-3.3,3.4-6.6,7-6.1c3.1,0.4,3.8,3.2,3.7,4.6c0,0,0,0,0,0.1
			c-0.6,5.1-2.9,7.1-4.7,7.9c-0.8,0.4-1.6,0.5-2.4,0.5C620,174.4,619.1,174.1,618.6,173.8z M624.1,163.3c-2.4-0.3-4.2,2.2-4.8,4.7
			c-0.4,1.5-0.6,3.4,0.5,4.2c0.2,0.1,1.4,0.5,2.8-0.1c1.9-0.8,3.1-3,3.5-6.3C626.1,165.3,626.1,163.5,624.1,163.3z"/>
		<path class="st1" d="M561.8,167.5c-0.8-0.8-2.1-3.9-1.6-6.7c0.4-2.1,1.6-3.8,3.6-4.8c1.9-0.9,3.6-1.1,5.2-0.6
			c2.3,0.8,3.4,2.9,3.6,3.2c1.3,2.3,1.6,7.8-2.5,10.3c-0.9,0.5-2.1,1-3.4,1C565.2,169.9,563.5,169.3,561.8,167.5z M564.7,157.8
			c-1.4,0.7-2.3,1.8-2.5,3.3c-0.4,2.3,0.7,4.7,1.1,5c1.2,1.2,3.1,2.7,5.9,1.1c3.1-1.8,2.7-6.1,1.8-7.6c0,0,0-0.1,0-0.1
			c0,0-0.8-1.7-2.5-2.2c-0.4-0.1-0.8-0.2-1.2-0.2C566.4,157.1,565.6,157.3,564.7,157.8z M571.7,159.1L571.7,159.1L571.7,159.1z"/>
		<path class="st1" d="M591.5,194.7l-0.2-0.2c-1.6-1.5-2.2-3.1-4.2-3.7c-0.8-0.2-1.5-0.5-2.3-0.7c-1.6-0.4-3.3-0.9-5.4-1.7
			c-3.7-1.4-5.5-5.9-3.9-10.2c1.6-4.5,7-7.2,11.7-7.8c3.1-0.4,4.2-1.1,6.2-2.3c0.8-0.5,1.7-1,3-1.7c2.4-1.3,5.5-0.6,8.4,1.8
			c1.1,0.9,1.8,1.9,2.1,3c0.5,1.7,0,3.2-0.6,4.8c-0.5,1.5-0.8,3.1-0.9,4.8c-0.1,2.4,1.2,4.5,1.1,7c-0.1,3.1-1.6,6-3.8,7.7
			c-1.5,1.1-3.3,1.6-5.1,1.6C595.3,197.1,593.1,196.3,591.5,194.7z M597.2,168.2c-1.2,0.6-2.1,1.2-2.9,1.6c-2.1,1.2-3.4,2-7,2.6
			c-4.1,0.6-8.8,2.8-10.1,6.5c-1.2,3.2,0,6.6,2.7,7.6c2,0.8,3.6,1.2,5.2,1.7c0.8,0.2,1.6,0.4,2.4,0.7c2.5,0.8,3.4,2.6,5,4.2l0.2,0.2
			c2.3,2.2,6.1,2.4,8.6,0.6c1.7-1.3,2.9-3.6,3-6.1c0.1-1.9-0.8-3.5-0.9-5.4c-0.2-2.3,0-4.7,0.8-6.9c0.5-1.3,0.9-2.4,0.5-3.6
			c-0.3-0.9-0.9-1.6-1.5-2C602.4,168.9,599.6,167,597.2,168.2z"/>
		<path class="st2" d="M599.6,145.4c0.2-2-0.6-4.3-2.7-4.9c-0.7-0.2-1.4,0-2.3,0.5c-2.4,1.5-4.5,5.2-4.7,6.4l0,0.2
			c-0.5,2.5-0.7,5.2,3,6.5c1.6,0.5,3.3-0.8,4.9-3.8c0.7-1.2,1.4-2.6,1.7-4.1C599.5,145.9,599.6,145.7,599.6,145.4L599.6,145.4z"/>
		<path class="st2" d="M616.1,151.6c-0.4-0.7-1-1.1-1.9-1.2c-1.1-0.1-2.1,0.7-2.7,1.3c-3.2,3.4-4.5,6.5-3.9,9.1
			c0.3,1.2,0.8,1.3,1,1.4c1.7,0.3,5.3-2.6,6.4-4.2C616.2,156.2,617,153.5,616.1,151.6L616.1,151.6z"/>
		<path class="st2" d="M624.1,163.3c-2.4-0.3-4.2,2.2-4.8,4.7c-0.4,1.5-0.6,3.4,0.5,4.2c0.2,0.1,1.4,0.5,2.8-0.1
			c1.9-0.8,3.1-3,3.5-6.3C626.1,165.3,626.1,163.5,624.1,163.3z"/>
		<path class="st2" d="M564.7,157.8c-1.4,0.7-2.3,1.8-2.5,3.3c-0.4,2.3,0.7,4.7,1.1,5c1.2,1.2,3.1,2.7,5.9,1.1
			c3.1-1.8,2.7-6.1,1.8-7.6c0,0,0-0.1,0-0.1c0,0-0.8-1.7-2.5-2.2c-0.4-0.1-0.8-0.2-1.2-0.2C566.4,157.1,565.6,157.3,564.7,157.8z"/>
		<path class="st2" d="M597.2,168.2c-1.2,0.6-2.1,1.2-2.9,1.6c-2.1,1.2-3.4,2-7,2.6c-4.1,0.6-8.8,2.8-10.1,6.5
			c-1.2,3.2,0,6.6,2.7,7.6c2,0.8,3.6,1.2,5.2,1.7c0.8,0.2,1.6,0.4,2.4,0.7c2.5,0.8,3.4,2.6,5,4.2l0.2,0.2c2.3,2.2,6.1,2.4,8.6,0.6
			c1.7-1.3,2.9-3.6,3-6.1c0.1-1.9-0.8-3.5-0.9-5.4c-0.2-2.3,0-4.7,0.8-6.9c0.5-1.3,0.9-2.4,0.5-3.6c-0.3-0.9-0.9-1.6-1.5-2
			C602.4,168.9,599.6,167,597.2,168.2z"/>
		<path class="st4" d="M621.7,148.4c0,0,1.6,14.5-7.1,19.5c0,0-3-1.8-1.9-2.9c1-1.1,6.3-6.8,6.3-6.8l2-8.5L621.7,148.4z"/>
		<path class="st4" d="M605.5,133.1c0,0,6.4,16-3.8,27.1c0,0-1.5,1.4-2.1-0.8l2.1-3.3c0,0,4.2-6.8,3.8-14c-0.3-7.2-2.7-9.5-2.7-9.5
			L605.5,133.1z"/>
		<path class="st4" d="M578.1,158.7c0.3-0.2,0.5-0.5,0.5-0.8c0-0.4,0.3-10.6-7.8-14.8c-0.5-0.3-1.1-0.5-1.6-0.7
			c0.1-0.8,0.2-2.3,0.7-4c0,0,13.4,5,11.3,17.1C581.1,155.4,579.4,160.3,578.1,158.7z"/>
		<path class="st5" d="M631.4,160.1c-0.6-5-3.8-9.3-9.4-12.8c-0.1-1.1-0.2-2.3-0.5-3.6c-2.3-10.7-15.2-11.9-18-12.1
			c-0.1-0.1-0.1-0.2-0.2-0.3c-4.1-6-11.4-8.9-19.6-7.9c-13.6,1.7-16,14.1-16.5,18.2c-3.4-1-7.1-1-10.4,0c-3.7,1.1-6.6,3.5-8.2,6.7
			c-2.2,4.3-3.3,11.2-0.6,17c1.2,2.7,3.2,5,5.7,6.6c0,0,0,0,0,0.1c0,5.8,1,12.7,1.3,14.5c-16.8,19.1-58.3,91.9-58.7,92.6
			c-0.3,0.5-0.1,1.1,0.4,1.4c0.2,0.1,0.3,0.1,0.5,0.1c0.3,0,0.7-0.2,0.9-0.5c0.4-0.7,42.3-74.2,58.7-92.6c0.2-0.2,0.3-0.5,0.2-0.8
			c0-0.1-1.2-7.3-1.3-13.6c1.3,0.6,2.7,1.2,4.2,1.5c0.1,0,0.2,0,0.2,0c0.4,0,0.9-0.3,1-0.8c0.1-0.5-0.2-1.1-0.7-1.2
			c-5.1-1.3-8.7-4.1-10.5-8.2c-2.4-5.3-1.4-11.5,0.6-15.3c1.4-2.7,3.9-4.7,7.1-5.7c3.9-1.2,8.4-0.8,12.4,1.3c7,3.7,6.8,12.9,6.8,13
			c0,0.6,0.4,1,1,1c0.6,0,1-0.4,1-1c0-0.4,0.3-10.6-7.8-14.8c-0.5-0.3-1.1-0.5-1.6-0.7c0.2-3.1,1.9-15.3,14.8-16.9
			c7.5-0.9,14.1,1.7,17.7,7.1c5.1,7.5,2.9,20.7-4.4,26.3c-0.4,0.3-0.5,1-0.2,1.4c0.2,0.3,0.5,0.4,0.8,0.4c0.2,0,0.4-0.1,0.6-0.2
			c7.4-5.7,10-18,6.1-26.5c3.9,0.4,13.2,2.3,14.9,10.4c2.4,11.2-3.8,17.4-7.7,20c-0.5,0.3-0.6,0.9-0.3,1.4c0.2,0.3,0.5,0.4,0.8,0.4
			c0.2,0,0.4-0.1,0.6-0.2c3.6-2.5,8.8-7.5,9.1-16.1c4.4,3,6.9,6.5,7.4,10.6c1.1,9.1-7.9,17.9-8,18c-0.1,0.1-0.2,0.3-0.3,0.5
			c-3.6,19.3-21.7,28.9-21.9,29c-0.2,0.1-0.4,0.3-0.5,0.6c-19.1,59.3-61.2,116.7-68.7,126.7c0.3,0.7,0.6,1.4,0.9,2.1
			c5.2-6.8,49.6-66.3,69.6-127.8c2.7-1.5,18.9-11.1,22.5-29.9C624.6,178,632.6,169.4,631.4,160.1z"/>
		<path class="st4" d="M530.9,334.1c6.4-8.6,27.9-38.3,46.6-75c-12,16.8-35.8,48.7-52.4,61.2C527,324.5,529,329.1,530.9,334.1z"/>
	</g>
</g>
</svg>
