<?xml version="1.0" encoding="utf-8"?>
<!-- Generator: Adobe Illustrator 21.0.0, SVG Export Plug-In . SVG Version: 6.00 Build 0)  -->
<svg version="1.1" id="圖層_1" xmlns="http://www.w3.org/2000/svg" xmlns:xlink="http://www.w3.org/1999/xlink" x="0px" y="0px"
	 viewBox="0 0 822.9 601.4" style="enable-background:new 0 0 822.9 601.4;" xml:space="preserve">
<style type="text/css">
	.st0{fill:url(#SVGID_1_);}
	.st1{fill:#E1BE3F;}
	.st2{fill:#AB6C21;}
	.st3{opacity:0.6;fill:#E1BE3F;enable-background:new    ;}
	.st4{fill:url(#SVGID_2_);}
	.st5{fill:url(#SVGID_3_);}
	.st6{fill:#B7CAD3;}
	.st7{opacity:0.5;fill:#9FB8C6;enable-background:new    ;}
	.st8{opacity:0.3;fill:#9FB8C6;enable-background:new    ;}
	.st9{fill:#335764;}
	.st10{fill:#9FB8C6;}
	.st11{fill:#4D7485;}
</style>
<g>
	
		<linearGradient id="SVGID_1_" gradientUnits="userSpaceOnUse" x1="352.4015" y1="468.2597" x2="544.2138" y2="468.2597" gradientTransform="matrix(1 0 0 1 0 1.2814)">
		<stop  offset="0" style="stop-color:#9FB8C6"/>
		<stop  offset="0.7645" style="stop-color:#738E9E"/>
		<stop  offset="1" style="stop-color:#3A6072"/>
	</linearGradient>
	<path class="st0" d="M543.9,418.8c0,0-54.5,14-96.1,14s-95.7-14-95.7-14s-0.3,39.5,7.8,65.4h1l8.2,28.6l22.8,7.5l54.2-5.8v-2.4
		l1-28.6l0,0l0.3-8.5l0,0l0.3-13.6l0.7,4.1l1,49.7l31.7,2.4l29,1.4l15.7-3.4l3.7-6.8l6.5-24.9h0.3
		C544.2,458.3,543.9,418.8,543.9,418.8z"/>
	<path class="st6" d="M447.8,513.5c0,0,0.3,0.7,0.3,2c0,1.7-0.3,4.1-0.3,4.1s-0.3,1.4-8.2,2.7c-8.2,1-57.6,3.7-71.2-2v-1.7
		c0,0-1.7-3.7-1.7-4.1c0.3-0.3,3.7-2.4,7.2-2c3.1,0.3,39.9,7.2,67.8,1.7C441.7,514.2,446.5,512.5,447.8,513.5z"/>
	<path class="st6" d="M448.8,513.5c0,0-0.3,0.7-0.3,2c0,1.7,0.3,4.1,0.3,4.1s0.3,1.4,8.2,2.7c8.2,1,57.6,3.7,71.2-2v-1.7
		c0,0,1.7-3.7,1.7-4.1c-0.3-0.3-3.7-2.4-7.2-2c-3.4,0.3-39.9,7.2-67.8,1.7C455,514.2,450.2,512.5,448.8,513.5z"/>
	<path class="st7" d="M470.3,440.9c39.9-2.4,61.3-9.2,73.2-14.3c0.3-5.1,0.3-8.5,0.3-8.5s-54.5,14-96.1,14s-95.4-14.3-95.4-14.3
		s0,2,0,5.8C363.7,430,400.5,445,470.3,440.9z"/>
	<path class="st7" d="M447.8,460.3c0,0-2.7,49.7-12.6,54.5l11.6-2.4L447.8,460.3z"/>
	<path class="st7" d="M366.7,504.3c0,0,2.7,5.8,11.6,7.8c0,0-4.8-0.7-8.9,1L366.7,504.3z"/>
	<path class="st8" d="M447.8,462c0,0-9.9-6.1-12.3-25.9h4.1c0,0-0.3,14.3,8.2,24.5c0,0,7.8-9.2,9.5-24.5h3.7
		C460.8,435.8,458,456.9,447.8,462z"/>
	<path class="st7" d="M544.9,420.5l-3.7,1.4c-0.7,5.1-4.4,23.5-4.4,23.5c-8.2-4.1-12.9-17-12.9-17l-3.1,0.7c2,7.2,5.5,12.6,8.5,16.4
		l0,0l0,0c0.7,0.7,1,1.4,1.7,1.7c2,2.7,5.1,7.8,3.7,15l-3.1,14.6c0,0-7.2,33.7-8.9,35.8h4.4c0,0,5.8-17,8.9-27.9c0.3,0,0.3,0,0.3,0
		C543.2,470.9,544.9,420.5,544.9,420.5z"/>
	<path class="st9" d="M541.9,455.6C541.5,455.6,541.5,455.6,541.9,455.6c-17.4-6.8-21.8-26.2-21.8-26.6c0-0.3,0.3-0.7,0.7-1
		c0.3,0,0.7,0.3,1,0.7c0,0.3,4.4,18.7,20.8,25.2c0.3,0.3,0.7,0.7,0.3,1C542.2,455.2,541.9,455.6,541.9,455.6z"/>
	<path class="st9" d="M534.4,455.2C534.4,455.2,534,455.2,534.4,455.2c-15.3-8.5-17.4-23.2-17.4-23.2c0-0.3,0.3-0.3,0.3-0.7
		c0.3,0,0.3,0.3,0.7,0.3c0,0,2,14.3,16.7,22.5c0.3,0,0.3,0.3,0.3,0.7C534.7,455.2,534.7,455.2,534.4,455.2z"/>
	<path class="st10" d="M404.2,524.7c-14.6,0-29.3-1-36.1-3.7c-0.3,0-0.3-0.3-0.3-0.7v-1.7c-1.7-3.7-1.7-4.4-1.7-4.4
		c0.3-1,4.8-2.7,7.8-2.4c0.3,0,1.7,0.3,3.1,0.3c9.9,1.4,40.2,5.8,64.4,1.4c1-0.3,5.1-1.7,6.8-0.3l0,0c0,0,0.7,1,0.7,2.7
		c0,1.7-0.3,4.1-0.3,4.1c-0.3,1.7-5.1,2.7-8.9,3.4C435.9,523.7,420.2,524.7,404.2,524.7z M369.1,519.6c14,5.1,62.3,3.1,70.5,1.7
		c5.8-1,7.5-1.7,7.8-2c0-0.3,0-2.4,0.3-3.7c0-1,0-1.4-0.3-1.7c-1-0.7-3.7,0-5.5,0.7l0,0c-24.2,4.4-54.9,0.3-64.7-1.4
		c-1.7-0.3-2.7-0.3-3.1-0.3c-2.4-0.3-5.5,1-6.5,1.7c0.3,0.7,1,2.4,1.4,3.4v0.3C369.1,518.6,369.1,519.6,369.1,519.6z M367.4,514.9
		L367.4,514.9L367.4,514.9z M367.4,514.5L367.4,514.5L367.4,514.5z"/>
	<path class="st10" d="M457,523c-3.7-0.7-8.5-1.7-8.9-3.4c0,0,0-2.4-0.3-4.1c0-1.7,0.3-2.7,0.7-2.7l0,0c1.7-1.4,5.8,0,6.8,0.3
		c24.2,4.4,54.5,0,64.4-1.4c1.7-0.3,2.7-0.3,3.1-0.3c3.1-0.3,7.2,1.4,7.8,2.4c0,0.3,0.3,0.7-1.7,4.4v1.7c0,0.3-0.3,0.7-0.3,0.7
		c-6.8,2.7-21.5,3.7-36.1,3.7C476.4,524.7,460.8,523.7,457,523z M527.5,518.6v-0.3c0.7-1.4,1.4-2.7,1.4-3.4c-1-0.7-3.7-1.7-6.5-1.7
		c-0.3,0-1.7,0.3-3.1,0.3c-9.9,1.4-40.5,5.8-64.7,1.4l0,0c-1.7-0.7-4.8-1.4-5.5-0.7c0,0-0.3,0.7-0.3,1.7c0,1.4,0.3,3.4,0.3,3.7
		c0.3,0.3,1.7,1.4,7.8,2c8.2,1.4,56.6,3.4,70.5-1.7V518.6z M529.2,514.9L529.2,514.9L529.2,514.9z M529.2,514.5L529.2,514.5
		L529.2,514.5z"/>
	<g>
		<path class="st11" d="M449.9,483.9l-0.3-23.2c0-0.3-0.3-0.7-0.7-0.7h-1c-0.3,0-0.7,0.3-0.7,0.7l-0.3,23.2v0.3l-0.3,28.3l1.4,0.7
			l0.7-33.7v-5.1l0.3,9.5c0,0,0,0,0,0.3l0.7,29l1.4-0.7l-0.3-28.3C449.9,483.9,449.9,483.9,449.9,483.9z"/>
		<path class="st11" d="M378.3,432.1c0,0-2,14.3-16.7,22.5c-0.3,0-0.3,0.3-0.3,0.7c0,0.3,0.3,0.3,0.3,0.3h0.3
			c15.3-8.2,17.4-22.8,17.4-23.2c0-0.3-0.3-0.3-0.3-0.7C378.7,431.7,378.3,431.7,378.3,432.1z"/>
		<path class="st11" d="M546.3,416.4c0-0.7-2.4,0-2.4,0c-0.3,0-50.8,13.6-95.4,13.6s-94.7-13.6-95.1-13.6c-0.3,0-1-0.3-1.7-0.3
			c-1,0-1,0.3-1,1c0,2-0.3,4.4-0.3,6.5c0,4.4,0,9.2,0.3,13.6c0.7,8.9,2,17.4,3.7,25.9c1,5.8,2.4,11.6,3.7,17.4c0.3,1,0.3,2,0.7,3.1
			l0,0c5.1,19.4,9.9,30,9.9,30l1.7-1.4c-9.2-22.5-13.3-46.3-15-57.6c16.7-7.2,21.1-25.9,21.1-26.2s-0.3-0.7-0.7-1
			c-0.3,0-0.7,0.3-1,0.7c0,0.3-4.4,18.1-20.1,24.9c-0.3-3.4-0.7-5.1-0.7-5.1c-1-14-1.4-25.9-1.4-29c6.5,1.7,52.8,13.6,95.1,13.6
			c41.6,0,87.6-11.6,95.1-13.6c0,3.4-0.3,15-1.4,28.6l0,0c0,0-3.4,33.4-16,64l1.7,0.7c0,0,0,0,0.3-0.3l0.3,0.3
			c2.7-4.4,6.8-19.1,9.5-29.3c0,0,1-4.4,2.7-10.9C543.6,459.3,548,435.8,546.3,416.4z"/>
	</g>
</g>
</svg>
