<?xml version="1.0" encoding="utf-8"?>
<!-- Generator: Adobe Illustrator 21.0.0, SVG Export Plug-In . SVG Version: 6.00 Build 0)  -->
<svg version="1.1" id="圖層_1" xmlns="http://www.w3.org/2000/svg" xmlns:xlink="http://www.w3.org/1999/xlink" x="0px" y="0px"
	 viewBox="0 0 822.9 601.4" style="enable-background:new 0 0 822.9 601.4;" xml:space="preserve">
<style type="text/css">
	.st0{fill:url(#SVGID_1_);}
	.st1{fill:#E1BE3F;}
	.st2{fill:#AB6C21;}
	.st3{opacity:0.6;fill:#E1BE3F;enable-background:new    ;}
	.st4{fill:url(#SVGID_2_);}
	.st5{fill:#B0BFA8;}
	.st6{fill:#FFFFFF;}
	.st7{opacity:0.5;fill:#B0BFA8;enable-background:new    ;}
	.st8{fill:#DAB038;}
	.st9{fill:#B2B1B0;}
	.st10{fill:#809B70;}
</style>
<g>
	<g>
		<path class="st5" d="M394.3,517.7c4.7,0.4,8.3,0.4,8.3,0.4s1.1,0,1.8,0.7c-3.2,0.4-4,2.2-4,2.2l-2.9,7.2c-1.1,2.2-2.5,5.4-2.5,6.1
			l0,0c-0.4,1.1,0.4,2.2,3.2,3.6c-5.7-0.4-11.1-0.7-15.8-0.7c2.2-0.7,3.2-1.4,4-2.2c1.4-1.4,2.9-5.7,3.2-6.5c0.4-0.7,2.5-5,2.5-6.8
			c0-1.8-1.1-2.9-1.8-3.2H390l0,0C391.1,518.1,392.5,517.7,394.3,517.7z"/>
		<path class="st5" d="M371.3,519.2c0.4-0.4,0.7-0.4,1.1-0.4l0,0c2.9,0.4,14,1.1,17.2,1.1c0.4,0,0.7,0.7,0.7,1.4
			c0,1.4-1.8,5-2.5,6.5l0,0c-0.4,1.4-1.8,5-2.9,6.1c-1.1,1.1-2.2,2.2-10.1,3.2c-2.2,0.4-4,0.4-6.1,0.4l0,0l0,0c-0.4,0-0.7,0-1.1,0
			c-4.3,0.4-7.9,0.4-13.3,1.8C359.1,530.7,370.2,520.3,371.3,519.2z"/>
		<path class="st6" d="M434.2,565.5c-27.7,12.6-72.5,0.7-76.9-0.4c-0.7-2.2-5.4-14-3.2-22.6c0-0.4,0.4-0.7,0.4-1.1
			c5.4-1.4,9.3-1.8,14-2.2c0.4,0,0.7,0,1.1,0l0,0c0.4,0,20.5-1.1,42,2.2c19,3.2,23.7,15.4,24.8,22.6
			C434.9,564.8,434.2,565.5,434.2,565.5z"/>
		<path class="st5" d="M445,554.7c-1.4,3.2-4.7,6.5-7.5,8.3c-1.4-7.9-6.8-19.8-25.9-23.3l0,0h-0.4c-0.4,0-0.4,0-0.7,0
			c-9.3-1.4-14.4-3.2-14.4-4.7v-0.4c0-0.4,1.4-3.2,2.5-5.4l2.9-7.2c0,0,0.7-1.4,3.6-1.1h0.4l0,0l0,0c5.4,0,33.4-0.4,39.5-1.1v2.9
			v0.4l0,0C446,532.5,445,552.9,445,554.7z"/>
		<path class="st5" d="M394.3,517.7c4.7,0.4,8.3,0.4,8.3,0.4s1.1,0,1.8,0.7c-3.2,0.4-4,2.2-4,2.2l-2.9,7.2c-1.1,2.2-2.5,5.4-2.5,6.1
			c0,0.7,1.1,2.9,5.4,5.4c-10.1-1.8-20.5-1.4-27.7-1.1c0.7-0.4,1.4-0.4,2.5-0.4c7.9-0.7,9.3-1.8,11.1-3.6c1.4-1.4,2.9-5.7,3.2-6.5
			c0.4-0.7,2.5-5,2.5-6.8s-1.1-2.9-1.8-3.2H390l0,0C391.1,518.1,392.5,517.7,394.3,517.7z"/>
		<path class="st6" d="M445.7,563c-2.2,3.6-10.1,12.2-38.1,13.6c-25.1,1.1-47-4.7-50.3-5.4c-0.7-2.2-0.4-4,0-5
			c4,1.1,23.7,6.1,44.9,6.1c11.5,0,23-1.4,32.7-6.1c0.4-0.4,8.3-5,11.1-10.8C446,558.3,445.7,561.6,445.7,563z"/>
		<path class="st7" d="M446.4,551.5c0.4-6.5,0.7-21.5,0-29.1v-3.6c0-0.4,0-0.4-0.4-0.7c-0.4,0-0.4-0.4-0.7,0c0,0-0.4,0-0.7,0
			l-0.4,1.8l-0.7-0.7c0,0,3.2,36.3-28.4,51.7l12.2,4.3c12.9-3.6,17.6-9,19-11.9V563C446.4,562.6,447.5,554.7,446.4,551.5
			C447.1,551.9,446.7,551.5,446.4,551.5z"/>
		<path class="st7" d="M445.7,522.4l0.4-3.2l0,0c-2.2,0.4-32.3,1.4-39.5,1.1c-1.1-2.2-3.6-2.5-3.6-2.5s-3.6,0-8.3-0.4
			c-4.7-0.4-6.5,1.4-6.8,1.8c-5-0.4-13.3-0.7-15.1-1.1l0,0h-0.4l0,0l0,0c-0.7,0-1.1,0.4-1.4,0.7l0,0
			C370.6,519.2,382.5,527.4,445.7,522.4z"/>
		<path class="st7" d="M360.9,529.6c-3.6,3.2-7.5,11.5-8.6,15.8c-1.4,6.5,3.2,15.4,5,20.1l10.4,2.2
			C356.6,558.3,356.6,537.8,360.9,529.6z"/>
		<path class="st7" d="M367.7,567.7c-11.1-5-14-21.2-14-21.2l-1.1,1.1l-0.4,0.4c0.4,7.9,3.2,15.8,4,17.6c-0.4,0.7-1.1,3.2,0,6.5
			c0,0.4,0.4,0.4,0.4,0.4s4,1.1,10.4,2.5L367.7,567.7z"/>
		<path class="st7" d="M401.1,521.3c0,0-1.8,6.5,0.4,8.3l-3.6-0.7L401.1,521.3z"/>
		<path class="st7" d="M391.4,521l-2.9,7.9H385C385.3,528.5,391.1,523.5,391.4,521z"/>
		<path class="st8" d="M401.1,569.8c-22.6,0-44.5-6.1-44.9-6.1s-0.4-0.4-0.4-0.7c0-0.4,0.4-0.4,0.7-0.4c0.4,0,52.8,14.7,79.7-1.4
			c0.4,0,0.4,0,0.7,0.4c0,0.4,0,0.4-0.4,0.7C427,568,413.7,569.8,401.1,569.8z"/>
		<g>
			<path class="st6" d="M445,521L445,521C445,521,445,520.6,445,521l1.1-0.4h0.4v0.4H445L445,521z"/>
			<path class="st6" d="M438.5,559.8L438.5,559.8c-0.4-0.7-0.4-1.4-0.7-1.8v-0.4h0.4C438.1,558.7,438.5,559,438.5,559.8L438.5,559.8
				L438.5,559.8z M437.1,556.2C436.7,556.2,436.7,556.2,437.1,556.2c-0.4-0.7-0.7-1.4-0.7-1.8V554h0.4
				C436.7,554.7,436.7,555.4,437.1,556.2L437.1,556.2L437.1,556.2z M435.3,552.6L435.3,552.6c-0.4-0.7-0.7-1.4-1.1-1.8v-0.4h0.4
				C434.9,551.1,435.3,551.5,435.3,552.6C435.6,552.6,435.6,552.6,435.3,552.6L435.3,552.6z M433.5,549.3L433.5,549.3
				c-0.4-0.7-0.7-1.1-1.4-1.8v-0.4h0.4C432.7,547.9,433.5,548.3,433.5,549.3C433.8,549,433.8,549,433.5,549.3
				C433.8,549.3,433.5,549.3,433.5,549.3z M430.9,546.1L430.9,546.1c-0.7-0.4-1.1-0.7-1.4-1.1c0,0,0,0,0-0.4c0,0,0,0,0.4,0
				C430.2,545.4,430.9,545.8,430.9,546.1C431.3,546.1,431.3,546.1,430.9,546.1C431.3,546.1,430.9,546.1,430.9,546.1z M428.1,544
				C428.1,544,427.7,544,428.1,544c-0.7-0.4-1.1-0.7-1.8-0.7c0,0,0,0,0-0.4c0,0,0,0,0.4,0C427,543.2,427.4,543.6,428.1,544
				C428.1,543.6,428.1,544,428.1,544L428.1,544z M424.5,542.2L424.5,542.2c-0.7-0.4-1.1-0.4-1.8-0.7c0,0,0,0,0-0.4c0,0,0,0,0.4,0
				C423.4,541.4,424.1,541.8,424.5,542.2L424.5,542.2L424.5,542.2z M420.9,540.7L420.9,540.7c-0.7-0.4-1.4-0.4-1.8-0.7
				c0,0,0,0,0-0.4c0,0,0,0,0.4,0C419.8,540.4,420.2,540.4,420.9,540.7L420.9,540.7L420.9,540.7z M416.9,539.6L416.9,539.6
				c-0.7-0.4-1.4-0.4-1.8-0.4c0,0,0,0,0-0.4c0,0,0,0,0.4,0C415.9,539.3,416.6,539.3,416.9,539.6
				C417.3,539.6,417.3,539.6,416.9,539.6C417.3,539.6,417.3,539.6,416.9,539.6z M413.3,538.9L413.3,538.9c-0.7,0-1.4-0.4-2.2-0.4
				c0,0,0,0,0-0.4c0,0,0,0,0.4,0C411.9,538.6,412.6,538.6,413.3,538.9C413.3,538.6,413.3,538.9,413.3,538.9L413.3,538.9z
				 M409.4,538.2L409.4,538.2c-0.4,0-0.7,0-0.7-0.4c-0.4,0-0.7,0-1.1-0.4c0,0,0,0,0-0.4c0,0,0,0,0.4,0c0.4,0,0.7,0,1.1,0.4
				C409,537.8,409.4,537.8,409.4,538.2C409.8,537.8,409.8,538.2,409.4,538.2L409.4,538.2z M405.4,537.5L405.4,537.5
				c-0.7-0.4-1.4-0.4-2.2-0.4c0,0,0,0,0-0.4c0,0,0,0,0.4,0C404.4,537.1,404.7,537.1,405.4,537.5
				C405.8,537.5,405.8,537.5,405.4,537.5C405.8,537.5,405.8,537.5,405.4,537.5z M401.9,536.4L401.9,536.4c-0.7-0.4-1.4-0.7-1.8-1.1
				c0,0,0,0,0-0.4c0,0,0,0,0.4,0C400.8,535.7,401.1,536.1,401.9,536.4L401.9,536.4L401.9,536.4z M398.6,534.3L398.6,534.3
				c-0.4-0.7-0.4-1.1-0.4-1.4s0-0.4,0-0.4s0,0,0.4,0c0.4,0,0,0,0,0c0,0.4,0,0.4,0,0.4C398.6,533.2,398.6,533.5,398.6,534.3
				C399,533.9,399,534.3,398.6,534.3C399,534.3,399,534.3,398.6,534.3z M399,530.7L399,530.7C399,530.3,399,530.3,399,530.7
				c0.4-0.7,0.4-1.4,0.7-1.8c0,0,0,0,0.4,0c0.4,0,0,0,0,0.4C399.7,529.2,399.3,529.9,399,530.7L399,530.7z M400.8,527.1L400.8,527.1
				L400.8,527.1c0-0.4,0.4-0.7,0.4-1.1s0.4-0.4,0.4-0.7c0,0,0,0,0.4,0c0.4,0,0,0,0,0.4s-0.4,0.4-0.4,0.7
				C401.5,526.4,401.5,526.7,400.8,527.1C401.1,527.1,401.1,527.1,400.8,527.1z M402.9,523.8L402.9,523.8
				C402.6,523.8,402.6,523.5,402.9,523.8c0.4-1.1,1.1-1.4,1.4-1.8h0.4v0.4C404.4,522.4,403.6,522.8,402.9,523.8L402.9,523.8z
				 M408,522.4L408,522.4c-0.7,0-1.4,0-2.2,0c0,0,0,0,0-0.4c0,0,0-0.4,0.4,0C406.5,522,407.2,522,408,522.4
				C408.3,522,408.3,522,408,522.4C408.3,522.4,408.3,522.4,408,522.4z M410.1,522.4L410.1,522.4C409.8,522,410.1,522,410.1,522.4
				c0.4-0.4,1.1-0.4,1.8-0.4l0,0c0,0,0,0,0.4,0c0,0,0,0-0.4,0C411.2,522.4,410.5,522.4,410.1,522.4L410.1,522.4z M414.1,522.4
				C413.7,522.4,413.7,522,414.1,522.4C413.7,522,413.7,522,414.1,522.4c0.4-0.4,1.1-0.4,1.8-0.4l0,0c0,0,0,0,0.4,0v0.4
				C415.1,522.4,414.4,522.4,414.1,522.4L414.1,522.4z M417.7,522L417.7,522L417.7,522c0.4-0.4,1.1-0.4,1.8-0.4h0.4v0.4
				C419.1,522,418.4,522,417.7,522L417.7,522z M421.6,522L421.6,522C421.6,521.7,421.6,521.7,421.6,522l2.2-0.4l0,0l0,0v0.4H421.6
				L421.6,522z M425.6,522C425.6,522,425.6,521.7,425.6,522C425.6,521.7,425.6,521.7,425.6,522l2.2-0.7l0,0l0,0v0.4L425.6,522
				L425.6,522z M429.5,521.7L429.5,521.7C429.5,521.3,429.5,521.3,429.5,521.7c0.7-0.4,1.4-0.4,2.2-0.4h0.4v0.4
				C430.9,521.7,430.2,521.7,429.5,521.7L429.5,521.7z M433.5,521.3L433.5,521.3C433.1,521.3,433.5,521.3,433.5,521.3l2.2-0.4l0,0
				l0,0v0.4H433.5L433.5,521.3z M437.4,521.3C437.1,521.3,437.1,521.3,437.4,521.3c0-0.4,0-0.4,0-0.4h2.2h0.4v0.4H437.4L437.4,521.3
				z M441,521.3C441,521.3,441,521,441,521.3C441,521,441,521,441,521.3l2.2-0.4l0,0l0,0v0.4H441L441,521.3z"/>
			<path class="st6" d="M439.2,562.6L439.2,562.6C438.8,562.6,438.8,562.6,439.2,562.6c-0.4-0.4-0.4-0.7-0.4-1.1v-0.4h0.4
				C439.2,561.9,439.2,561.9,439.2,562.6L439.2,562.6z"/>
		</g>
		<path class="st6" d="M355.2,538.6L355.2,538.6C355.2,538.6,355.2,538.2,355.2,538.6l0.4-0.4h0.4v0.4H355.2L355.2,538.6z
			 M357.3,537.8L357.3,537.8C357.3,537.8,357.3,537.5,357.3,537.8c0.7-0.4,1.1-0.7,1.8-0.7h0.4v0.4
			C358.8,537.5,358,537.8,357.3,537.8L357.3,537.8z M361.3,537.1L361.3,537.1C361.3,536.8,361.3,536.8,361.3,537.1
			c0.7-0.4,1.4-0.7,2.2-0.7h0.4v0.4C362.3,536.8,362,536.8,361.3,537.1L361.3,537.1z M365.2,536.4
			C364.9,536.4,364.9,536.4,365.2,536.4C364.9,536.1,364.9,536.1,365.2,536.4c0.7-0.4,1.4-0.4,2.2-0.7h0.4v0.4
			C366.3,536.1,365.9,536.4,365.2,536.4L365.2,536.4z M369.2,535.7C368.8,535.7,368.8,535.7,369.2,535.7
			C368.8,535.7,369.2,535.7,369.2,535.7c0.7-0.4,1.4-0.4,2.2-0.4h0.4v0.4C370.6,535.7,369.9,535.7,369.2,535.7L369.2,535.7z
			 M373.1,535.3C372.8,535.3,372.8,535.3,373.1,535.3C372.8,535.3,373.1,535,373.1,535.3c0.7-0.4,1.4-0.4,2.2-0.4h0.4v0.4
			C374.6,535.3,373.8,535.3,373.1,535.3L373.1,535.3z M377.1,535.3C376.7,535.3,376.7,535,377.1,535.3
			C376.7,535,377.1,535,377.1,535.3c0.7-0.4,1.1-0.4,1.4-0.4c0.4,0,0.4,0,0.4,0h0.4v0.4c-0.4,0-0.4,0-0.4,0
			C378.1,535,377.4,535,377.1,535.3L377.1,535.3z M380.7,534.3L380.7,534.3C380.7,534.3,380.7,533.9,380.7,534.3
			c0.7-0.4,1.1-0.7,1.8-1.1h0.4v0.4C382.1,533.9,381.4,534.3,380.7,534.3L380.7,534.3z M384.3,532.1L384.3,532.1
			C383.9,532.1,383.9,532.1,384.3,532.1c0-0.4,0.4-1.1,0.7-1.8c0,0,0,0,0.4,0c0.4,0,0,0,0,0.4C384.6,531.7,384.3,532.1,384.3,532.1
			L384.3,532.1L384.3,532.1L384.3,532.1L384.3,532.1z M386.1,528.9L386.1,528.9C385.7,528.5,385.7,528.5,386.1,528.9
			c0.4-0.7,0.4-1.4,0.7-2.2c0,0,0,0,0.4,0c0.4,0,0,0,0,0.4C386.8,527.4,386.4,528.2,386.1,528.9L386.1,528.9z M387.5,525.3
			L387.5,525.3C387.5,525.3,387.5,524.9,387.5,525.3c0-0.4,0.4-0.7,0.4-1.1s0.4-0.7,0.4-0.7s0,0,0.4,0c0.4,0,0,0,0,0.4
			s-0.4,0.7-0.4,0.7C388.2,524.2,387.8,524.9,387.5,525.3C387.5,524.9,387.5,525.3,387.5,525.3z M388.2,521.3L388.2,521.3
			c-0.4-0.4-0.4-0.4-0.4-0.4l0,0c-0.4,0-0.7,0-1.4,0c0,0,0,0,0-0.4l0,0l0,0c0.7,0,1.1,0,1.4,0C387.8,520.6,388.2,520.6,388.2,521.3
			C388.6,521.3,388.6,521.3,388.2,521.3L388.2,521.3z M384.6,520.6L384.6,520.6c-0.7,0-1.4,0-2.2-0.4c0,0,0,0,0-0.4c0,0,0,0,0.4,0
			C383.5,520.3,384.3,520.3,384.6,520.6C384.6,520.3,384.6,520.6,384.6,520.6L384.6,520.6z M380.7,520.3L380.7,520.3
			c-0.7,0-1.4,0-2.2-0.4c0,0,0,0,0-0.4l0,0l0,0C379.2,519.9,379.9,519.9,380.7,520.3C380.7,519.9,380.7,520.3,380.7,520.3
			L380.7,520.3z M376.7,519.9L376.7,519.9c-0.7,0-1.4-0.4-2.2-0.4c0,0,0,0,0-0.4c0,0,0,0,0.4,0C375.3,519.5,376,519.5,376.7,519.9
			C376.7,519.5,376.7,519.5,376.7,519.9L376.7,519.9z M372.8,519.5L372.8,519.5c-1.1,0-2.2-0.4-2.2-0.4s0,0,0-0.4c0,0,0,0,0.4,0
			C371,518.8,371.7,519.2,372.8,519.5C372.8,519.2,372.8,519.2,372.8,519.5L372.8,519.5z"/>
		<path class="st6" d="M406.9,542.2L406.9,542.2L406.9,542.2c0-0.7,0.4-1.1,0.4-1.4c0,0,0,0,0.4,0c0.4,0,0,0,0,0.4
			C407.6,541.4,407.2,541.8,406.9,542.2C407.2,542.2,407.2,542.2,406.9,542.2z M408,539.3L408,539.3L408,539.3
			c0-0.7,0.4-1.4,0.7-2.2c0,0,0,0,0.4,0c0.4,0,0,0,0,0.4C408.7,537.8,408.3,538.6,408,539.3C408.3,539.3,408.3,539.3,408,539.3z
			 M409.8,535.7L409.8,535.7C409.8,535.3,409.4,535.3,409.8,535.7c0.4-0.7,0.4-1.4,0.7-2.2c0,0,0,0,0.4,0c0.4,0,0,0,0,0.4
			C410.5,534.3,410.1,535,409.8,535.7L409.8,535.7z M411.6,532.1L411.6,532.1C411.2,531.7,411.2,531.7,411.6,532.1
			c0.4-0.7,0.4-1.4,0.7-2.2c0,0,0,0,0.4,0c0.4,0,0,0,0,0.4C412.3,530.7,411.9,531.4,411.6,532.1L411.6,532.1z M413.3,528.5
			L413.3,528.5C413.3,528.5,413,528.5,413.3,528.5c0.4-0.7,0.7-1.4,0.7-2.2c0,0,0,0,0.4,0c0.4,0,0,0,0,0.4
			C414.1,527.1,414.1,527.8,413.3,528.5L413.3,528.5z M415.1,524.9L415.1,524.9L415.1,524.9c0.4-0.7,0.7-1.4,0.7-1.8c0,0,0,0,0.4,0
			c0,0,0,0,0,0.4S415.9,524.2,415.1,524.9C415.5,524.9,415.1,524.9,415.1,524.9z M417.3,521.7L417.3,521.7
			C417.3,521.3,416.9,521.3,417.3,521.7c0.4-1.4,0.7-1.8,0.7-1.8s0,0,0.4,0c0,0,0,0,0,0.4C418.4,519.9,418,520.6,417.3,521.7
			L417.3,521.7z"/>
		<path class="st6" d="M371.7,537.8L371.7,537.8L371.7,537.8c0-0.7,0.4-1.4,0.4-2.2c0,0,0,0,0.4,0s0,0,0,0.4
			C372.4,536.8,372,537.5,371.7,537.8L371.7,537.8z M373.1,534.3L373.1,534.3C373.1,534.3,372.8,534.3,373.1,534.3
			c0.4-0.7,0.4-1.4,0.7-2.2c0,0,0,0,0.4,0c0.4,0,0,0,0,0.4C373.8,533.2,373.5,533.5,373.1,534.3L373.1,534.3z M374.6,530.7
			L374.6,530.7L374.6,530.7c0.4-0.7,0.4-1.4,0.7-2.2c0,0,0,0,0.4,0c0.4,0,0,0,0,0.4C375.6,529.2,375.3,529.9,374.6,530.7
			C374.9,530.7,374.9,530.7,374.6,530.7z M376.7,527.1L376.7,527.1C376.4,527.1,376.4,527.1,376.7,527.1c0.4-0.7,0.7-1.4,0.7-2.2
			c0,0,0,0,0.4,0c0.4,0,0,0,0,0.4C377.4,526,377.1,526.4,376.7,527.1L376.7,527.1z M378.5,523.8L378.5,523.8
			C378.5,523.8,378.5,523.5,378.5,523.8c0.4-0.7,0.7-1.4,0.7-1.8c0,0,0,0,0.4,0c0.4,0,0,0,0,0.4
			C379.6,522.4,379.2,523.1,378.5,523.8L378.5,523.8z M380.7,520.3L380.7,520.3C380.3,520.3,380.3,520.3,380.7,520.3
			c0.7-1.4,1.1-1.8,1.1-1.8s0,0,0.4,0c0,0,0,0,0,0.4C381.7,518.5,381.4,519.2,380.7,520.3L380.7,520.3z"/>
		<path class="st9" d="M400.8,578.4c-24.4,0-43.8-5.7-44.2-5.7c-0.4,0-0.4-0.4-0.4-0.4c-1.4-4.3,0-6.8,0-6.8
			c0.4-0.4,0.7-0.4,1.1-0.4c0.4,0,0.4,0.7,0.4,1.1c0,0-1.1,2.2,0,5.4c3.2,0.7,24.8,6.8,50.3,5.4c28-1.4,35.9-10.1,38.1-13.6
			c0.4-2.5,0.7-8.3,0-10.8c0-0.4,0-0.7,0.4-1.1c0.4,0,0.7,0,1.1,0.4c1.1,3.2,0,11.1,0,11.5v0.4c-2.2,4-10.1,13.3-39.1,14.7
			C405.4,578.4,402.9,578.4,400.8,578.4z"/>
		<path class="st10" d="M354.1,541.1c-0.4,0-0.7-0.4-0.7-0.7c0-0.4,0-0.7,0.4-0.7c5.7-1.4,10.1-1.8,14.4-2.2c2.2,0,4.3-0.4,7.2-0.4
			c7.9-0.7,9-1.8,10.1-3.2c1.1-1.1,2.5-4.7,2.9-6.1l0,0c0.7-1.4,2.5-5,2.5-6.5c0-1.1-0.4-1.4-0.7-1.4c-3.6,0-17.2-1.1-18-1.1
			c-0.4,0-0.7-0.4-0.7-0.7s0.4-0.7,0.7-0.7s14.7,1.1,18,1.1h0.4c0.7,0.4,2.2,1.4,1.8,3.2c0,1.8-2.5,6.1-2.5,6.8
			c-0.4,0.7-1.8,5-3.2,6.5c-1.4,1.4-2.9,2.5-11.1,3.6c-2.5,0.4-5,0.4-7.2,0.4C363.8,539.3,359.5,539.3,354.1,541.1L354.1,541.1z"/>
		<path class="st10" d="M437.1,564.8c-0.4,0-0.7-0.4-0.7-0.7c-1.1-7.2-6.1-20.1-25.9-23.3c-14-2.2-15.8-4.3-15.4-6.5l0,0
			c0-0.7,1.4-4.3,2.5-6.1l2.9-7.2c0,0,0.7-2.2,5-2.2c5,0.4,38.1-0.7,40.2-1.1c0.4,0,0.4,0,0.7,0s0.4,0.4,0.4,0.7v4
			c0,0.4-0.4,0.7-0.7,0.7s-0.7-0.4-0.7-0.7v-2.9c-6.1,0.7-35.9,1.4-39.9,1.1c-2.9,0-3.6,1.1-3.6,1.1l-2.9,7.2
			c-1.1,2.2-2.5,5-2.5,5.4v0.4c-0.4,1.4,5,3.2,14.4,4.7c20.5,3.2,25.9,16.5,26.9,24.4C437.8,564.4,437.4,564.8,437.1,564.8
			L437.1,564.8z"/>
		<path class="st10" d="M446.4,520.6c0-0.4-0.4-0.7-0.7-0.7l-0.4,2.9c0.7,9.7-0.4,29.8-0.4,31.6c-2.2,5.7-10.4,10.8-10.4,10.8
			c-27.7,12.6-72.5,0.7-76.9-0.4c-0.7-2.2-5.4-14-3.2-22.6c2.2-9,16.2-21.9,17.6-23c0.4-0.4,0.7-0.4,1.1-0.4l0.4-1.1h-2.2H371
			c-0.7,0.4-15.8,14-18,23.7c-2.2,10.1,3.2,23.3,3.6,24.1c0,0.4,0.4,0.4,0.4,0.4c0.4,0,22.3,6.5,45.6,6.5c11.5,0,23-1.4,32.7-6.1
			c0.4-0.4,9.3-5.4,11.5-11.9c0,0,0,0,0-0.4C446.4,553.7,447.8,529.6,446.4,520.6z"/>
		<path class="st10" d="M370.6,518.1c0,0,0.7-0.7,1.8-0.7l1.1,0.7l-0.4,0.7c0,0-1.4,0-2.5,1.1v-1.1V518.1z"/>
		<path class="st10" d="M405.8,520.6c-0.4,0-0.7-0.4-0.7-0.4c-0.7-1.8-2.5-2.2-2.5-2.2l0,0c0,0-3.6,0-8.3-0.4
			c-4.3-0.4-5.7,1.4-5.7,1.4c-0.4,0.4-0.7,0.4-1.1,0c-0.4-0.4-0.4-0.7,0-1.1c0,0,2.2-2.2,7.2-1.8c4.7,0.4,8.3,0.4,8.3,0.4
			s2.9,0.4,4,2.9C406.5,520.3,406.5,520.6,405.8,520.6L405.8,520.6z"/>
		<path class="st6" d="M407.6,529.2h-0.4c-6.5-2.9-22.3-6.1-22.6-6.1c-0.4,0-0.7-0.7-0.7-1.1c0-0.4,0.7-0.7,1.1-0.7
			c0.7,0.4,16.5,3.2,23,6.1c0.4,0.4,0.7,0.7,0.4,1.4C408.3,528.9,408,529.2,407.6,529.2z"/>
		<path class="st6" d="M383.5,527.1c-0.4,0-0.7-0.4-1.1-0.7c0-0.4,0.4-1.1,0.7-1.1c0.7-0.4,15.1-3.2,24.4-3.6l0,0
			c0.4,0,1.1,0.4,1.1,1.1c0,0.7-0.4,1.1-1.1,1.1C398.6,523.8,383.5,527.1,383.5,527.1L383.5,527.1z"/>
		<path class="st6" d="M404.4,537.5H404c-6.5-2.9-22.3-6.1-22.6-6.1c-0.4,0-0.7-0.7-0.7-1.1s0.7-0.7,1.1-0.7c0.7,0,16.5,3.2,23,6.1
			c0.4,0.4,0.7,0.7,0.4,1.4C405.1,537.1,404.7,537.5,404.4,537.5z"/>
		<path class="st6" d="M380.3,535.3c-0.4,0-0.7-0.4-1.1-0.7c0-0.4,0.4-1.1,0.7-1.1c0.7,0,15.1-3.2,24.4-3.6l0,0
			c0.4,0,1.1,0.4,1.1,1.1c0,0.7-0.4,1.1-1.1,1.1C395.4,532.1,380.7,535,380.3,535.3L380.3,535.3z"/>
		<path class="st10" d="M411.6,541.1L411.6,541.1c-21.5-3.6-42-2.2-42.4-2.2c-0.4,0-0.7-0.4-0.7-0.7s0.4-0.7,0.7-0.7
			c0.4,0,20.8-1.1,42.4,2.2c0.4,0,0.7,0.4,0.7,0.7C412.3,540.7,411.9,541.1,411.6,541.1z"/>
	</g>
	<g>
		<path class="st5" d="M505.3,518.5L505.3,518.5C505.3,518.5,504.9,518.5,505.3,518.5c-0.7,0.4-2.2,1.4-2.2,3.2
			c0,1.8,2.5,6.1,2.5,6.8c0.4,0.7,1.8,5,3.2,6.5c0.7,1.1,1.8,1.8,4,2.2c-4.3,0-9.7,0.4-15.8,0.7c2.9-1.1,3.2-2.5,3.2-3.6l0,0
			c0-0.7-1.4-4.3-2.5-6.1l-3.2-6.8c0,0-0.7-2.2-4-2.2c0.7-0.7,1.8-0.7,1.8-0.7s3.6,0,8.3-0.4C503.1,517.7,504.2,518.1,505.3,518.5z"
			/>
		<path class="st5" d="M540.5,539.3c-5-1.4-9-1.4-13.3-1.8c-0.4,0-0.7,0-1.1,0l0,0l0,0c-1.8,0-3.6-0.4-6.1-0.4
			c-7.9-0.7-9-1.8-10.1-3.2c-1.1-1.1-2.5-4.7-2.9-6.1l0,0c-0.7-1.4-2.5-5-2.5-6.5c0-1.1,0.4-1.4,0.7-1.4c3.2,0,14.4-0.7,17.2-1.1
			l0,0c0.4,0,0.7,0.4,1.1,0.4C525,520.3,536.5,530.7,540.5,539.3z"/>
		<path class="st6" d="M459.3,564.1c1.1-7.2,6.1-19.8,24.8-22.6c21.5-3.2,41.7-2.2,42-2.2l0,0c0.4,0,0.7,0,1.1,0
			c4.3,0.4,8.3,0.4,14,2.2c0,0.4,0.4,0.7,0.4,1.1c2.2,8.6-2.5,20.5-3.2,22.6c-4.3,1.1-48.8,12.9-76.9,0.4
			C461.1,565.5,460.4,564.8,459.3,564.1z"/>
		<path class="st5" d="M450,522.8L450,522.8v-0.4v-2.9c6.1,0.7,34.1,1.4,39.5,1.1l0,0l0,0c0.4,0,0.4,0,0.4,0c2.9,0,3.6,1.1,3.6,1.1
			l2.9,7.2c1.1,2.2,2.5,5,2.5,5.4v0.4c0.4,1.4-5,3.2-14.4,4.7c-0.4,0-0.4,0-0.7,0h-0.4l0,0c-19,3.2-24.4,15.4-25.9,23.3
			c-2.5-2.2-6.1-5-7.5-8.3C450.3,552.9,449.3,532.5,450,522.8z"/>
		<path class="st5" d="M505.3,518.5L505.3,518.5C505.3,518.5,504.9,518.5,505.3,518.5c-0.7,0.4-2.2,1.4-2.2,3.2
			c0,1.8,2.5,6.1,2.5,6.8c0.4,0.7,1.8,5,3.2,6.5c1.4,1.4,2.9,2.5,11.1,3.6c0.7,0,1.4,0.4,2.5,0.4c-7.2-0.7-17.2-0.7-27.7,1.1
			c4.3-2.5,5.4-4.7,5.4-5.4c0-0.7-1.4-4.3-2.5-6.1l-2.9-7.2c0,0-0.7-2.2-4-2.2c0.7-0.7,1.8-0.7,1.8-0.7s3.6,0,8.3-0.4
			C503.1,517.7,504.2,518.1,505.3,518.5z"/>
		<path class="st6" d="M449.3,555.8c2.9,5.7,10.8,10.8,11.1,10.8c9.7,4.3,21.5,6.1,32.7,6.1c20.8,0,40.9-5,44.9-6.1
			c0.4,0.7,0.4,2.5,0,5c-3.2,0.7-24.8,6.8-50.3,5.4c-28-1.4-35.9-10.1-38.1-13.6C449.6,561.6,449.3,558.3,449.3,555.8z"/>
		<path class="st7" d="M448.9,551.5c-0.4-6.5-0.7-21.5,0-29.1v-3.6c0-0.4,0-0.4,0.4-0.7c0.4,0,0.4-0.4,0.7,0c0,0,0.4,0,0.7,0
			l0.4,1.8l0.7-0.7c0,0-3.2,36.3,28.4,51.7l-12.2,4.3c-12.9-3.6-17.6-9-19-11.9V563C448.9,562.6,447.8,554.7,448.9,551.5
			C448.5,551.9,448.5,551.5,448.9,551.5z"/>
		<path class="st7" d="M449.6,522.4l-0.4-3.2l0,0c2.2,0.4,32.3,1.4,39.5,1.1c1.1-2.2,3.6-2.5,3.6-2.5s3.6,0,8.3-0.4s6.5,1.4,6.8,1.8
			c5-0.4,13.3-0.7,15.1-1.1l0,0h0.4l0,0l0,0c0.7,0,1.1,0.4,1.4,0.7l0,0C524.7,519.2,512.8,527.4,449.6,522.4z"/>
		<path class="st7" d="M534.7,529.6c3.6,3.2,7.5,11.5,8.6,15.8c1.4,6.5-3.2,15.4-5,20.1l-10.4,2.2
			C538.7,558.3,538.7,537.8,534.7,529.6z"/>
		<path class="st7" d="M527.9,567.7c11.1-5,14-21.2,14-21.2l1.1,1.1l0.4,0.4c-0.4,7.9-3.2,15.8-4,17.6c0.4,0.7,1.1,3.2,0,6.5
			c0,0.4-0.4,0.4-0.4,0.4s-4,1.1-10.4,2.5L527.9,567.7z"/>
		<path class="st7" d="M494.2,521.3c0,0,1.8,6.5-0.4,8.3l3.6-0.7L494.2,521.3z"/>
		<path class="st7" d="M503.9,521l2.9,7.5h3.6C510,528.5,504.6,523.5,503.9,521z"/>
		<path class="st8" d="M494.2,569.8c-12.9,0-25.9-1.8-35.6-7.9c-0.4,0-0.4-0.4-0.4-0.7c0-0.4,0.4-0.4,0.7-0.4
			c26.9,16.2,79.4,1.8,79.7,1.4c0.4,0,0.4,0,0.7,0.4c0,0.4,0,0.4-0.4,0.7C539,564.1,517.1,569.8,494.2,569.8z"/>
		<g>
			<path class="st6" d="M450.3,521L450.3,521h-1.1c0,0,0,0,0-0.4c0,0,0-0.4,0.4,0L450.3,521C450.7,520.6,450.7,521,450.3,521
				L450.3,521z"/>
			<path class="st6" d="M456.8,559.8L456.8,559.8L456.8,559.8c0-0.7,0.4-1.4,0.7-2.2c0,0,0,0,0.4,0c0,0,0,0,0,0.4
				C457.5,558.7,457.5,559,456.8,559.8C457.2,559.8,457.2,559.8,456.8,559.8z M458.2,556.2L458.2,556.2L458.2,556.2
				c0.4-0.7,0.4-1.4,0.7-2.2c0,0,0,0,0.4,0c0.4,0,0,0,0,0.4C459,555.1,459,555.4,458.2,556.2C458.6,556.2,458.6,556.2,458.2,556.2z
				 M460,552.6L460,552.6C460,552.6,459.7,552.6,460,552.6c0.4-1.1,0.7-1.8,0.7-2.2c0,0,0,0,0.4,0c0,0,0,0,0,0.4
				C461.1,551.1,460.8,551.9,460,552.6L460,552.6z M461.8,549.3L461.8,549.3C461.5,549,461.5,549,461.8,549.3
				c0.4-0.7,0.7-1.4,1.1-1.8c0,0,0,0,0.4,0c0,0,0,0,0,0.4C462.6,548.3,462.2,548.6,461.8,549.3L461.8,549.3z M464.3,546.1
				L464.3,546.1C464,546.1,464.3,546.1,464.3,546.1c0.4-0.7,0.7-1.1,1.4-1.4h0.4v0.4C465.4,545.4,464.7,545.8,464.3,546.1
				L464.3,546.1z M467.6,544C467.2,544,467.2,544,467.6,544C467.2,544,467.2,543.6,467.6,544c0.4-0.7,1.1-0.7,1.8-1.1h0.4v0.4
				C468.7,543.2,467.9,543.6,467.6,544L467.6,544z M470.8,542.2L470.8,542.2L470.8,542.2c0.7-0.4,1.1-0.7,1.8-1.1h0.4v0.4
				C472.2,541.8,471.5,542.2,470.8,542.2L470.8,542.2z M474.8,540.7C474.4,540.7,474.4,540.7,474.8,540.7
				C474.4,540.7,474.4,540.7,474.8,540.7c0.7-0.4,1.4-0.7,1.8-0.7h0.4v0.4C475.8,540.4,475.1,540.7,474.8,540.7L474.8,540.7z
				 M478.4,539.6L478.4,539.6L478.4,539.6c0.7-0.4,1.4-0.7,1.8-0.7h0.4v0.4C479.8,539.6,479.1,539.6,478.4,539.6L478.4,539.6z
				 M481.9,538.9L481.9,538.9C481.9,538.9,481.9,538.6,481.9,538.9c0.7-0.4,1.4-0.7,1.8-0.7h0.4v0.4
				C483.4,538.6,482.7,538.9,481.9,538.9L481.9,538.9z M485.9,538.2L485.9,538.2C485.9,538.2,485.9,537.8,485.9,538.2
				c0.4-0.4,0.7-0.4,0.7-0.4c0.4,0,0.7,0,1.1-0.4h0.4v0.4c-0.4,0-0.7,0-1.1,0.4C486.6,538.2,486.3,538.2,485.9,538.2L485.9,538.2z
				 M489.8,537.5L489.8,537.5L489.8,537.5c0.7-0.4,1.4-0.7,1.8-0.7h0.4v0.4C491.3,537.5,490.6,537.5,489.8,537.5L489.8,537.5z
				 M493.4,536.4L493.4,536.4L493.4,536.4c0.7-0.7,1.1-0.7,1.8-1.1h0.4v0.4C494.9,536.1,494.2,536.4,493.4,536.4L493.4,536.4z
				 M496.7,534.3L496.7,534.3C496.3,534.3,496.3,533.9,496.7,534.3c0-0.7,0.4-1.1,0.4-1.4s0-0.4,0-0.4v-0.4h0.4c0,0.4,0,0.4,0,0.4
				C497,533.2,497,533.5,496.7,534.3L496.7,534.3z M496.3,530.7L496.3,530.7c-0.4-0.7-0.7-1.1-1.1-1.8v-0.4h0.4
				C496,529.2,496.3,529.9,496.3,530.7C496.3,530.3,496.3,530.7,496.3,530.7L496.3,530.7z M494.5,527.1
				C494.2,527.1,494.2,527.1,494.5,527.1c-0.4-0.4-0.4-0.7-0.7-1.1c0-0.4-0.4-0.4-0.4-0.7v-0.4h0.4c0,0.4,0.4,0.4,0.4,0.7
				C494.2,526.4,494.5,526.7,494.5,527.1L494.5,527.1L494.5,527.1z M492.4,523.8L492.4,523.8c-0.7-0.7-1.1-1.4-1.4-1.4
				c0,0,0,0,0-0.4c0,0,0,0,0.4,0C491.6,522.4,492,522.8,492.4,523.8C492.7,523.5,492.7,523.8,492.4,523.8L492.4,523.8z M487.3,522.4
				L487.3,522.4C487.3,522,487.3,522,487.3,522.4c0.7-0.4,1.4-0.4,1.8-0.4h0.4v0.4C488.8,522.4,488.1,522.4,487.3,522.4L487.3,522.4
				z M485.5,522.4L485.5,522.4c-0.7,0-1.4,0-2.2,0c0,0,0,0,0-0.4c0,0,0,0,0.4,0l0,0C484.1,522,484.8,522,485.5,522.4
				C485.5,522,485.5,522,485.5,522.4L485.5,522.4z M481.6,522.4L481.6,522.4c-0.7,0-1.4,0-2.2,0c0,0,0,0,0-0.4c0,0,0,0,0.4,0l0,0
				C480.1,522,480.9,522,481.6,522.4C481.6,522,481.6,522,481.6,522.4C481.6,522,481.6,522.4,481.6,522.4z M477.6,522L477.6,522
				c-0.7,0-1.4,0-2.2,0c0,0,0,0,0-0.4c0,0,0,0,0.4,0l0,0C476.2,521.7,476.9,521.7,477.6,522L477.6,522L477.6,522z M473.7,522
				L473.7,522h-2.2c0,0,0,0,0-0.4l0,0l0,0L473.7,522C473.7,521.7,473.7,521.7,473.7,522L473.7,522z M469.7,522L469.7,522h-2.2
				c0,0,0,0,0-0.4l0,0l0,0L469.7,522C469.7,521.7,469.7,521.7,469.7,522C470.1,521.7,469.7,522,469.7,522z M465.8,521.7L465.8,521.7
				c-0.7,0-1.4,0-2.2,0c0,0,0,0,0-0.4l0,0l0,0C464.3,521.3,465.1,521.3,465.8,521.7C466.1,521.3,466.1,521.3,465.8,521.7
				C466.1,521.7,466.1,521.7,465.8,521.7z M461.8,521.3L461.8,521.3h-2.2l0,0l0,0l0,0H461.8C462.2,521.3,462.2,521.3,461.8,521.3
				C462.2,521.3,462.2,521.3,461.8,521.3z M457.9,521.3L457.9,521.3h-2.2c0,0,0,0,0-0.4l0,0l0,0L457.9,521.3
				C458.2,521,458.2,521.3,457.9,521.3C458.2,521.3,458.2,521.3,457.9,521.3z M454.3,521.3L454.3,521.3h-2.2c0,0,0,0,0-0.4l0,0l0,0
				L454.3,521.3C454.3,521,454.3,521,454.3,521.3C454.3,521,454.3,521.3,454.3,521.3z"/>
			<path class="st6" d="M456.4,562.6C456.1,562.6,456.1,562.6,456.4,562.6c-0.4-0.4-0.4-0.7,0-1.1c0,0,0,0,0.4,0c0.4,0,0,0,0,0.4
				C456.4,561.9,456.4,562.3,456.4,562.6L456.4,562.6L456.4,562.6z"/>
		</g>
		<path class="st6" d="M540.5,538.6L540.5,538.6h-0.4c0,0,0,0,0-0.4c0,0,0,0,0.4,0V538.6C540.5,538.2,540.5,538.6,540.5,538.6
			L540.5,538.6z M538,537.8L538,537.8c-0.7-0.4-1.4-0.4-2.2-0.4c0,0,0,0,0-0.4c0,0,0,0,0.4,0C536.9,537.5,537.6,537.5,538,537.8
			C538,537.5,538,537.8,538,537.8L538,537.8z M534,537.1L534,537.1c-0.7,0-1.4-0.4-2.2-0.4c0,0,0,0,0-0.4c0,0,0,0,0.4,0
			C532.9,536.4,533.7,536.4,534,537.1C534.4,536.8,534.4,536.8,534,537.1C534.4,537.1,534,537.1,534,537.1z M530.1,536.4
			L530.1,536.4c-0.7,0-1.4-0.4-2.2-0.4c0,0,0,0,0-0.4c0,0,0,0,0.4,0C529,535.7,529.7,536.1,530.1,536.4
			C530.4,536.1,530.4,536.1,530.1,536.4C530.4,536.4,530.4,536.4,530.1,536.4z M526.5,535.7L526.5,535.7c-0.7,0-1.4,0-2.2-0.4
			c0,0,0,0,0-0.4l0,0l0,0C525,535.3,525.8,535.3,526.5,535.7L526.5,535.7L526.5,535.7z M522.5,535.3L522.5,535.3c-0.7,0-1.4,0-2.2,0
			c0,0,0,0,0-0.4c0,0,0,0,0.4,0C521.1,535,521.8,535,522.5,535.3C522.5,535,522.5,535.3,522.5,535.3L522.5,535.3z M518.6,535.3
			L518.6,535.3c-0.7,0-1.1,0-1.4,0s-0.4,0-0.4,0s0,0,0-0.4c0,0,0,0,0.4,0s0.4,0,0.4,0C517.5,535,517.9,535,518.6,535.3
			C518.6,535,518.6,535,518.6,535.3C518.6,535,518.6,535.3,518.6,535.3z M514.6,534.3L514.6,534.3c-0.7-0.4-1.4-0.7-1.8-1.1
			c0,0,0,0,0-0.4c0,0,0,0,0.4,0C513.5,533.5,513.9,533.9,514.6,534.3C514.6,533.9,514.6,534.3,514.6,534.3L514.6,534.3z M511,532.1
			L511,532.1L511,532.1c0,0-0.4-0.7-1.1-1.8v-0.4h0.4C511,531.4,511.4,532.1,511,532.1C511.4,532.1,511.4,532.1,511,532.1
			C511.4,532.1,511.4,532.1,511,532.1z M509.6,528.9C509.2,528.9,509.2,528.9,509.6,528.9c-0.4-0.7-0.7-1.4-1.1-1.8v-0.4h0.4
			C508.9,527.4,509.2,527.8,509.6,528.9C509.6,528.5,509.6,528.9,509.6,528.9L509.6,528.9z M507.8,525.3L507.8,525.3
			c-0.4-0.4-0.4-0.7-0.4-1.1s-0.4-0.7-0.4-0.7v-0.4h0.4c0,0.4,0.4,0.7,0.4,0.7C507.8,524.2,507.8,524.6,507.8,525.3
			C507.8,524.9,507.8,524.9,507.8,525.3L507.8,525.3z M507.1,521.3L507.1,521.3C507.1,521.3,506.7,521.3,507.1,521.3
			c0-0.7,0.4-0.7,0.4-0.7c0.4,0,0.7,0,1.4,0l0,0l0,0v0.4c-0.7,0-1.1,0-1.4,0C507.4,521,507.1,521,507.1,521.3L507.1,521.3z
			 M510.7,520.6L510.7,520.6C510.7,520.6,510.7,520.3,510.7,520.6c0.7-0.4,1.4-0.4,2.2-0.4h0.4v0.4
			C512.1,520.6,511.4,520.6,510.7,520.6L510.7,520.6z M514.6,520.3L514.6,520.3C514.6,520.3,514.6,519.9,514.6,520.3
			c0.7-0.4,1.4-0.4,2.2-0.4h0.4v0.4C516.1,520.3,515.3,520.3,514.6,520.3L514.6,520.3z M518.6,519.9L518.6,519.9
			C518.6,519.5,518.6,519.5,518.6,519.9c0.7-0.4,1.4-0.4,2.2-0.4h0.4v0.4C520,519.5,519.3,519.9,518.6,519.9L518.6,519.9z
			 M522.5,519.5C522.5,519.5,522.5,519.2,522.5,519.5C522.5,519.2,522.5,519.2,522.5,519.5c1.1-0.4,2.2-0.4,2.2-0.4h0.4v0.4
			C525,519.5,524,519.2,522.5,519.5L522.5,519.5z"/>
		<path class="st6" d="M488.4,542.2L488.4,542.2c-0.4-0.4-0.4-0.7-0.4-1.1v-0.4h0.4C488.4,541.4,488.4,541.8,488.4,542.2
			L488.4,542.2L488.4,542.2z M487.3,539.3L487.3,539.3c-0.4-0.7-0.7-1.4-0.7-1.8v-0.4h0.4C487,537.8,487.3,538.6,487.3,539.3
			C487.3,538.9,487.3,539.3,487.3,539.3L487.3,539.3z M485.5,535.7L485.5,535.7c-0.4-0.7-0.7-1.4-1.1-1.8v-0.4h0.4
			C485.2,534.3,485.5,534.6,485.5,535.7C485.9,535.3,485.9,535.7,485.5,535.7L485.5,535.7z M483.7,532.1L483.7,532.1
			c-0.4-0.7-0.7-1.4-1.1-1.8v-0.4h0.4C483.4,530.7,483.7,531,483.7,532.1C484.1,531.7,484.1,532.1,483.7,532.1
			C484.1,532.1,483.7,532.1,483.7,532.1z M481.9,528.5L481.9,528.5c-0.4-0.7-0.7-1.4-1.1-1.8v-0.4h0.4
			C481.6,527.1,481.9,527.8,481.9,528.5C482.3,528.2,482.3,528.5,481.9,528.5L481.9,528.5z M480.1,524.9L480.1,524.9
			c-0.4-0.7-0.7-1.4-1.1-1.8v-0.4h0.4C479.8,523.8,479.8,524.2,480.1,524.9L480.1,524.9L480.1,524.9z M478,521.7L478,521.7
			c-0.7-1.1-1.1-1.8-1.1-1.8v-0.4h0.4C477.3,519.5,477.6,520.3,478,521.7C478.4,521.3,478.4,521.7,478,521.7L478,521.7z"/>
		<path class="st6" d="M523.6,537.8L523.6,537.8c-0.4-0.7-0.4-1.4-0.7-2.2v-0.4h0.4C523.6,536.8,523.6,537.1,523.6,537.8
			C524,537.8,524,537.8,523.6,537.8L523.6,537.8z M522.2,534.3L522.2,534.3c-0.4-0.7-0.7-1.4-0.7-1.8v-0.4h0.4
			C522.2,532.8,522.2,533.5,522.2,534.3C522.5,534.3,522.5,534.3,522.2,534.3L522.2,534.3z M520.7,530.7
			C520.4,530.7,520.4,530.7,520.7,530.7c-0.4-0.7-0.7-1.4-1.1-1.8v-0.4h0.4C520.4,529.2,520.4,529.9,520.7,530.7L520.7,530.7
			L520.7,530.7z M518.9,527.1C518.6,527.1,518.6,527.1,518.9,527.1c-0.4-0.7-0.7-1.4-1.1-1.8v-0.4h0.4
			C518.2,526,518.6,526.7,518.9,527.1L518.9,527.1L518.9,527.1z M516.8,523.8L516.8,523.8c-0.4-0.7-0.7-1.4-1.1-1.8v-0.4h0.4
			C516.4,522.4,516.8,523.1,516.8,523.8C517.1,523.5,516.8,523.8,516.8,523.8L516.8,523.8z M514.6,520.3L514.6,520.3
			c-0.7-1.1-1.1-1.8-1.1-1.8v-0.4h0.4C513.9,518.1,514.3,518.8,514.6,520.3C515,520.3,515,520.3,514.6,520.3
			C515,520.3,514.6,520.3,514.6,520.3z"/>
		<path class="st9" d="M494.5,578.4c24.4,0,43.8-5.7,44.2-5.7c0.4,0,0.4-0.4,0.4-0.4c1.4-4.3,0-6.8,0-6.8c-0.4-0.4-0.7-0.4-1.1-0.4
			s-0.4,0.7-0.4,1.1c0,0,1.1,2.2,0,5.4c-3.2,0.7-24.8,6.8-50.3,5.4c-28-1.4-35.9-10.1-38.1-13.6c-0.4-2.5-0.7-8.3,0-10.8
			c0-0.4,0-0.7-0.4-1.1c-0.4,0-0.7,0-1.1,0.4c-1.1,3.2,0,11.1,0,11.5v0.4c2.2,4,10.1,13.3,39.1,14.7
			C490.2,578.4,492.4,578.4,494.5,578.4z"/>
		<path class="st10" d="M541.2,541.1L541.2,541.1c-5.7-1.4-9.7-1.8-14.4-2.2c-2.2,0-4.3-0.4-7.2-0.4c-7.9-0.7-9.3-1.8-11.1-3.6
			c-1.4-1.4-2.9-5.7-3.2-6.5c-0.4-0.7-2.5-5-2.5-6.8c0-1.8,1.1-2.9,1.8-3.2h0.4c3.6,0,18-1.1,18-1.1c0.4,0,0.7,0.4,0.7,0.7
			c0,0.4-0.4,0.7-0.7,0.7c-0.7,0-14.4,1.1-18,1.1c-0.4,0-0.7,0.7-0.7,1.4c0,1.4,1.8,5,2.5,6.5l0,0c0.4,1.4,1.8,5,2.9,6.1
			c1.1,1.1,2.2,2.2,10.1,3.2c2.5,0.4,5,0.4,7.2,0.4c4.3,0.4,8.6,0.4,14.4,2.2c0.4,0,0.7,0.4,0.4,0.7
			C541.9,540.7,541.6,541.1,541.2,541.1z"/>
		<path class="st10" d="M458.2,564.8L458.2,564.8c-0.4,0-0.7-0.4-0.7-0.7c1.4-7.9,6.5-21.2,26.9-24.4c9.3-1.4,14.4-3.2,14.4-4.7
			v-0.4c0-0.4-1.4-3.2-2.5-5.4l-2.9-7.2c0,0-0.7-1.4-3.6-1.1c-4.3,0.4-33.8-0.4-39.9-1.1v2.9c0,0.4-0.4,0.7-0.7,0.7
			s-0.7-0.4-0.7-0.7v-4c0-0.4,0-0.4,0.4-0.7c0.4,0,0.4-0.4,0.7,0c2.2,0.7,35.2,1.4,40.6,1.1c4.3-0.4,5,2.2,5,2.2l2.9,7.2
			c0.7,1.8,2.5,5.4,2.5,6.1l0,0c0.4,2.2-1.4,4.3-15.4,6.5c-19.8,3.2-24.8,15.8-25.9,23.3C459,564.4,458.6,564.8,458.2,564.8z"/>
		<path class="st10" d="M448.9,520.6c0-0.4,0.4-0.7,0.7-0.7l0.4,2.9c-0.7,9.7,0.4,29.8,0.4,31.6c2.2,5.7,10.8,10.8,10.8,10.8
			c27.7,12.6,72.2,0.7,76.9-0.4c0.7-2.2,5.4-14,3.2-22.6c-2.2-9-16.2-21.9-17.6-23c-0.4-0.4-0.7-0.4-1.1-0.4l-0.4-1.1h2.2h0.4
			c0.7,0.7,15.8,14,18,23.7c2.2,10.1-3.2,23.3-3.6,24.1c0,0.4-0.4,0.4-0.4,0.4c-0.4,0-22.3,6.5-45.6,6.5c-11.5,0-23-1.4-32.7-6.1
			c-0.4-0.4-9.3-5.4-11.5-11.9c0,0,0,0,0-0.4C448.9,553.7,447.5,529.6,448.9,520.6z"/>
		<path class="st10" d="M524.7,518.1c0,0-0.7-0.7-1.8-0.7l-1.1,0.7l0.4,0.7c0,0,1.4,0,2.5,1.1v-1.1L524.7,518.1z"/>
		<path class="st10" d="M489.5,520.6L489.5,520.6c-0.7-0.4-0.7-0.7-0.7-1.1c1.1-2.5,3.6-2.9,4-2.9c0.4,0,3.6,0,8.3-0.4
			c5-0.4,6.8,1.8,7.2,1.8c0.4,0.4,0.4,0.7,0,1.1s-0.7,0.4-1.1,0c0,0-1.4-1.8-5.7-1.4c-4.7,0.4-8.3,0.4-8.3,0.4s-1.8,0.4-2.5,2.2
			C490.2,520.6,489.8,520.6,489.5,520.6z"/>
		<path class="st6" d="M487.7,529.2c-0.4,0-0.7-0.4-0.7-0.7c-0.4-0.4,0-1.1,0.4-1.4c6.5-3.2,22.3-6.1,23-6.1c0.4,0,1.1,0.4,1.1,0.7
			s-0.4,1.1-0.7,1.1c-0.4,0-16.2,3.2-22.6,6.1C488.1,529.2,488.1,529.2,487.7,529.2z"/>
		<path class="st6" d="M512.1,527.1C511.8,527.1,511.8,527.1,512.1,527.1c-0.4,0-15.1-3.2-24.1-3.2c-0.7,0-1.1-0.4-1.1-1.1
			c0-0.4,0.4-1.1,1.1-1.1l0,0c9.3,0.4,23.7,3.2,24.4,3.6c0.4,0,0.7,0.7,0.7,1.1C512.8,526.7,512.5,527.1,512.1,527.1z"/>
		<path class="st6" d="M490.9,537.5c-0.4,0-0.7-0.4-0.7-0.7c-0.4-0.4,0-1.1,0.4-1.4c6.5-3.2,22.3-6.1,23-6.1c0.4,0,1.1,0.4,1.1,0.7
			c0,0.4-0.4,1.1-0.7,1.1c-0.4,0-16.2,3.2-22.6,6.1C491.3,537.5,491.3,537.5,490.9,537.5z"/>
		<path class="st6" d="M515,535.3L515,535.3c-0.4,0-15.1-3.2-24.1-3.2c-0.7,0-1.1-0.4-1.1-1.1c0-0.7,0.4-1.1,1.1-1.1
			c9.3,0.4,23.7,3.2,24.4,3.6c0.4,0,0.7,0.7,0.7,1.1S515.7,535.3,515,535.3z"/>
		<path class="st10" d="M483.7,541.1c-0.4,0-0.7-0.4-0.7-0.7s0.4-0.7,0.7-0.7c21.9-3.6,42.4-2.2,42.4-2.2c0.4,0,0.7,0.4,0.7,0.7
			s-0.4,0.7-0.7,0.7C525.8,538.9,505.6,537.8,483.7,541.1L483.7,541.1z"/>
	</g>
</g>
</svg>
