<?xml version="1.0" encoding="utf-8"?>
<!-- Generator: Adobe Illustrator 21.0.0, SVG Export Plug-In . SVG Version: 6.00 Build 0)  -->
<svg version="1.1" id="圖層_1" xmlns="http://www.w3.org/2000/svg" xmlns:xlink="http://www.w3.org/1999/xlink" x="0px" y="0px"
	 viewBox="0 0 386.1 29.4" style="enable-background:new 0 0 386.1 29.4;" xml:space="preserve">
<style type="text/css">
	.st0{fill:none;}
	.st1{opacity:0.85;}
	.st2{fill:#B2D7E0;}
</style>
<g>
	<g>
		<g>
			<path class="st0" d="M382,29.4H4.1c-2.2,0-4.1-1.8-4.1-4.1V4.1C0,1.8,1.8,0,4.1,0h378c2.2,0,4.1,1.8,4.1,4.1v21.3
				C386.1,27.6,384.3,29.4,382,29.4z"/>
		</g>
		<g class="st1">
			<path class="st2" d="M382,29.4H4.1c-2.2,0-4.1-1.8-4.1-4.1V4.1C0,1.8,1.8,0,4.1,0h378c2.2,0,4.1,1.8,4.1,4.1v21.3
				C386.1,27.6,384.3,29.4,382,29.4z"/>
		</g>
	</g>
</g>
</svg>
