<?xml version="1.0" encoding="utf-8"?>
<!-- Generator: Adobe Illustrator 21.0.0, SVG Export Plug-In . SVG Version: 6.00 Build 0)  -->
<svg version="1.1" id="圖層_1" xmlns="http://www.w3.org/2000/svg" xmlns:xlink="http://www.w3.org/1999/xlink" x="0px" y="0px"
	 viewBox="0 0 41.3 53.5" style="enable-background:new 0 0 41.3 53.5;" xml:space="preserve">
<style type="text/css">
	.st0{fill:url(#SVGID_1_);}
	.st1{fill:url(#SVGID_2_);}
	.st2{fill:none;stroke:#5EBFDA;}
	.st3{clip-path:url(#SVGID_4_);}
	.st4{fill:url(#SVGID_5_);}
	.st5{opacity:0.6;fill:#E1BE3F;enable-background:new    ;}
	.st6{fill:#AB6C21;}
	.st7{fill:url(#SVGID_6_);}
	.st8{fill:#E1BE3F;}
	.st9{fill:url(#SVGID_7_);}
	.st10{fill:url(#SVGID_8_);}
	.st11{fill:url(#SVGID_9_);}
	.st12{fill:url(#SVGID_10_);}
	.st13{fill:#DCBF93;}
	.st14{fill:#8C5924;}
	.st15{fill:url(#SVGID_11_);}
	.st16{fill:url(#SVGID_12_);}
	.st17{fill:url(#SVGID_13_);}
	.st18{fill:url(#SVGID_14_);}
	.st19{fill:#F4E3A5;}
	.st20{fill:#DEB87D;}
	.st21{fill:url(#SVGID_15_);}
	.st22{fill:#FFFFFF;}
	.st23{fill:#814323;}
	.st24{fill:#C88E2C;}
	.st25{fill:#AC7327;}
	.st26{fill:url(#SVGID_16_);}
	.st27{fill:url(#SVGID_17_);}
	.st28{fill:#EAA593;}
	.st29{fill:#3F210F;}
	.st30{opacity:0.25;fill:#E1BE3F;enable-background:new    ;}
	.st31{opacity:0.5;fill:#E1BE3F;enable-background:new    ;}
	.st32{fill:#F8E5A9;}
	.st33{fill:#DDBC90;}
	.st34{fill:#D7C6A6;}
	.st35{fill:url(#SVGID_18_);}
	.st36{fill:#4A1E0E;}
	.st37{opacity:0.4;fill:#E1BE3F;enable-background:new    ;}
	.st38{opacity:0.72;fill:#E1BE3F;enable-background:new    ;}
	.st39{fill:#875424;}
	.st40{fill:#3F210E;}
	.st41{fill:#3A1D13;}
	.st42{fill:url(#SVGID_19_);}
	.st43{fill:#D9B974;}
	.st44{fill:url(#SVGID_20_);stroke:#F3F3F3;}
	.st45{fill:url(#SVGID_21_);}
</style>
<g>
	<g>
		<g>
			<g>
				
					<radialGradient id="SVGID_1_" cx="3.3058" cy="6.7459" r="53.4134" gradientTransform="matrix(1 0 0 -1 0 56)" gradientUnits="userSpaceOnUse">
					<stop  offset="0.179" style="stop-color:#11588E;stop-opacity:0"/>
					<stop  offset="1" style="stop-color:#009AD4"/>
				</radialGradient>
				<path class="st0" d="M36.4,48.4H4.6c-1.8,0-3.2-1.4-3.2-3.2V13.4c0-1.8,1.4-3.2,3.2-3.2h31.7c1.8,0,3.2,1.4,3.2,3.2v31.7
					C39.6,46.9,38.1,48.4,36.4,48.4z"/>
				
					<radialGradient id="SVGID_2_" cx="18.3893" cy="45.166" r="40.9983" gradientTransform="matrix(1 0 0 -1 0 56)" gradientUnits="userSpaceOnUse">
					<stop  offset="0.179" style="stop-color:#11588E;stop-opacity:0"/>
					<stop  offset="1" style="stop-color:#009AD4"/>
				</radialGradient>
				<path class="st1" d="M36.4,48.4H4.6c-1.8,0-3.2-1.4-3.2-3.2V13.4c0-1.8,1.4-3.2,3.2-3.2h31.7c1.8,0,3.2,1.4,3.2,3.2v31.7
					C39.6,46.9,38.1,48.4,36.4,48.4z"/>
			</g>
			<g>
				<path class="st2" d="M36.4,48.4H4.6c-1.8,0-3.2-1.4-3.2-3.2V13.4c0-1.8,1.4-3.2,3.2-3.2h31.7c1.8,0,3.2,1.4,3.2,3.2v31.7
					C39.6,46.9,38.1,48.4,36.4,48.4z"/>
				<path class="st2" d="M36.4,48.4H4.6c-1.8,0-3.2-1.4-3.2-3.2V13.4c0-1.8,1.4-3.2,3.2-3.2h31.7c1.8,0,3.2,1.4,3.2,3.2v31.7
					C39.6,46.9,38.1,48.4,36.4,48.4z"/>
			</g>
		</g>
	</g>
	<g>
		<defs>
			<rect id="SVGID_3_" x="3.6" y="12.9" width="33.6" height="37.5"/>
		</defs>
		<clipPath id="SVGID_4_">
			<use xlink:href="#SVGID_3_"  style="overflow:visible;"/>
		</clipPath>
		<g class="st3">
			<g>
				
					<linearGradient id="SVGID_5_" gradientUnits="userSpaceOnUse" x1="3.753" y1="15.0533" x2="14.0452" y2="15.0533" gradientTransform="matrix(1 0 0 -1 0 56)">
					<stop  offset="0" style="stop-color:#EFD97F"/>
					<stop  offset="0.1978" style="stop-color:#EFD87C"/>
					<stop  offset="0.3726" style="stop-color:#EED571"/>
					<stop  offset="0.5387" style="stop-color:#EDCF5F"/>
					<stop  offset="0.6984" style="stop-color:#EBC845"/>
					<stop  offset="0.7526" style="stop-color:#EAC53B"/>
					<stop  offset="1" style="stop-color:#E5AD14"/>
				</linearGradient>
				<path class="st4" d="M13.7,45.1l-0.9-2c-0.1-0.9-0.9-2-1.4-2.5c2-2.5,3.6-3.8,3.6-3.8s0.9-0.3,0.9,0.4c0,0,0.4,1.8,0,3.3
					s-0.7,1.9-0.7,1.9S14.5,43.7,13.7,45.1z"/>
				<path class="st5" d="M13.7,45.1l-0.9-2c0-0.4-0.2-0.7-0.4-1.1c1-1.9,1.9-3.2,1.9-3.2h1.8l-0.4,2C14.9,43.1,14.1,44.5,13.7,45.1z
					"/>
				<g>
					<path class="st6" d="M13.8,45.3L13.6,45c0.6-1.2,1.2-2.1,1.5-2.5c0,0,0.1-0.1,0.2,0c0,0,0.1,0.1,0,0.2
						C14.9,43,14.4,44.1,13.8,45.3z"/>
					<path class="st6" d="M11.5,40.7c-0.1-0.1-0.2-0.2-0.3-0.3c1.9-2.4,3.6-3.6,3.6-3.6l0.2,0.1c0,0,0,0,0,0c0,0,0,0.1,0,0.1
						C15,37,13.4,38.3,11.5,40.7z"/>
				</g>
			</g>
			<g>
				<g>
					
						<linearGradient id="SVGID_6_" gradientUnits="userSpaceOnUse" x1="5.1769" y1="8.643" x2="13.5958" y2="8.643" gradientTransform="matrix(1 0 0 -1 0 56)">
						<stop  offset="0" style="stop-color:#EFD97F"/>
						<stop  offset="0.1978" style="stop-color:#EFD87C"/>
						<stop  offset="0.3726" style="stop-color:#EED571"/>
						<stop  offset="0.5387" style="stop-color:#EDCF5F"/>
						<stop  offset="0.6984" style="stop-color:#EBC845"/>
						<stop  offset="0.7526" style="stop-color:#EAC53B"/>
						<stop  offset="1" style="stop-color:#E5AD14"/>
					</linearGradient>
					<path class="st7" d="M13.6,45l-0.8-1.8c0,0,0-0.1,0-0.1c0,0,0,0,0,0c0,0,0-0.1,0-0.1s0,0,0-0.1c0,0,0-0.1,0-0.1c0,0,0,0,0,0
						c0-0.1,0-0.1-0.1-0.2c0,0,0,0,0,0c0,0,0-0.1-0.1-0.1c0,0,0,0,0-0.1c0,0,0-0.1-0.1-0.1c0,0,0,0,0-0.1c-0.3-0.6-0.7-1.1-1-1.4
						c0,0,0,0,0,0c-1.6,2-3.3,4.7-4.7,8.1c0,0-1.3,1.2-1.3,2.9s1.3,2.3,2,2.1l0,0c0.8,0.7,1.9,0.3,2.2-0.9v0c0,0,0.1,0.1,0.2,0.1
						c0.5,0.2,1.1-0.1,1.3-0.5l0,0l0,0c0,0,0,0,0-0.1l0,0l0.2-1.4h0v-0.4l-0.1-0.2c0-0.1,0.1-0.1,0.1-0.2l0.1-0.1l0.1-0.2v-0.1
						c0.3-0.6,0.7-1.5,1.2-2.6c0.3-0.7,0.7-1.4,1.1-2.1L13.6,45z"/>
				</g>
				<path class="st8" d="M8.6,50.9c0,0-0.2,1.9,0.8,2.5l0.2-0.5C9.6,52.9,8.5,52.3,8.6,50.9z"/>
				<path class="st8" d="M6.8,51.5c0,0-0.5,1.3-0.1,2.2c0,0,0.3,0.1,0.8,0.1C7.5,53.8,6.6,53.3,6.8,51.5z"/>
				<path class="st6" d="M8.6,51.5c0,0,0,1.1,0.9,1.5l0-0.2C9.6,52.9,8.6,52,8.6,51.5z"/>
				<path class="st6" d="M6.7,52.2c0,0-0.1,1.1,0.5,1.6l0.4,0C7.5,53.8,6.8,53.1,6.7,52.2z"/>
				<path class="st5" d="M13.6,45l-0.8-1.8c0,0,0-0.1,0-0.1c0,0,0,0,0,0c0,0,0-0.1,0-0.1s0,0,0-0.1c0,0,0-0.1,0-0.1c0,0,0,0,0,0
					c0-0.1,0-0.1-0.1-0.2c0,0,0,0,0,0c0,0,0-0.1-0.1-0.1c0,0,0,0,0-0.1c0,0,0-0.1-0.1-0.1c0,0,0,0,0-0.1c0,0,0,0,0,0
					c-1.1,2.1-2.2,4.9-2.3,7.3c0,0,1.3,1.7,0.8,3.3c0,0,0.1-0.1,0.1-0.2l0,0l0,0c0,0,0,0,0-0.1l0,0l0.2-1.4h0v-0.4l-0.1-0.3l0.2-0.3
					l0.1-0.2l2-4.3c0,0,0.1-0.1,0.3-0.4L13.6,45z"/>
				<g>
					<path class="st6" d="M11.2,50.5l0.1-0.1l0,0c0,0,1.3-2.9,2.5-5.2L13.6,45l0,0c-1.1,2.1-2.2,4.7-2.5,5.2c0-0.1-0.1-0.2-0.1-0.2
						l0,0c-0.1-0.2-0.2-0.4-0.2-0.4c0,0-0.1,0-0.1,0c0,0,0,0.1,0,0.1c0,0,0.1,0.1,0.1,0.1c0,0,0.7,1.1,0.3,2.6l0,0
						c-0.1,0.2-0.3,0.4-0.5,0.5s-0.5,0.1-0.7,0c-0.8-0.4-1.3-1.3-1.1-2.2c0,0,0-0.1,0-0.1c0,0-0.1,0-0.1,0c-0.2,0.9,0.2,1.8,1,2.2
						c-0.1,0.5-0.5,0.9-0.9,1.1c-0.4,0.1-0.9,0-1.2-0.4c-0.9-0.9-0.6-2.2-0.5-2.2c0,0,0-0.1,0-0.1c0,0-0.1,0-0.1,0
						c0,0-0.4,1.4,0.6,2.3l0,0c-0.3,0-0.7-0.1-1.1-0.4c-0.3-0.3-0.7-0.8-0.7-1.7c0-1.7,1.3-2.9,1.3-2.9l0,0c1.4-3.4,3.2-6.1,4.7-8
						l0,0c-0.1-0.1-0.2-0.2-0.3-0.3l0,0c-0.5,0.6-1.1,1.4-1.6,2.2l0,0c0,0-2.6,3.8-3.1,6c-0.7,0.9-2,3-0.8,4.6
						c0.1,0.2,0.3,0.3,0.4,0.4c0,0,0.1,0.1,0.2,0.1c0,0,0,0,0,0l0,0c0.3,0.2,0.6,0.3,0.9,0.3c0.1,0,0.2,0,0.2,0
						c0.3,0.2,0.6,0.3,0.9,0.3c0.1,0,0.2,0,0.4-0.1c0.5-0.1,0.8-0.6,1-1.1c0,0,0.1,0,0.1,0c0.1,0.1,0.3,0.1,0.4,0.1
						c0.1,0,0.3,0,0.4-0.1c0.3-0.1,0.5-0.3,0.6-0.5l0,0c0,0,0,0,0,0s0,0,0,0l0,0c0,0,0.1-0.3,0.1-0.7c0-0.2,0-0.4,0-0.6
						C11.3,50.9,11.3,50.7,11.2,50.5z"/>
				</g>
			</g>
			<g>
				
					<linearGradient id="SVGID_7_" gradientUnits="userSpaceOnUse" x1="-939.4462" y1="15.0533" x2="-929.1541" y2="15.0533" gradientTransform="matrix(-1 0 0 -1 -901.8357 56)">
					<stop  offset="0" style="stop-color:#EFD97F"/>
					<stop  offset="0.1978" style="stop-color:#EFD87C"/>
					<stop  offset="0.3726" style="stop-color:#EED571"/>
					<stop  offset="0.5387" style="stop-color:#EDCF5F"/>
					<stop  offset="0.6984" style="stop-color:#EBC845"/>
					<stop  offset="0.7526" style="stop-color:#EAC53B"/>
					<stop  offset="1" style="stop-color:#E5AD14"/>
				</linearGradient>
				<path class="st9" d="M27.7,45.1l0.9-2c0.1-0.9,0.9-2,1.4-2.5c-2-2.5-3.6-3.8-3.6-3.8s-0.9-0.3-0.9,0.4c0,0-0.4,1.8,0,3.3
					c0.4,1.5,0.7,1.9,0.7,1.9S26.8,43.7,27.7,45.1z"/>
				<path class="st5" d="M27.7,45.1l0.9-2c0-0.4,0.2-0.7,0.4-1.1c-1-1.9-1.9-3.2-1.9-3.2h-1.8l0.4,2C26.5,43.1,27.3,44.5,27.7,45.1z
					"/>
				<g>
					<path class="st6" d="M27.6,45.3l0.1-0.3c-0.6-1.2-1.2-2.1-1.5-2.5c0,0-0.1-0.1-0.2,0c0,0-0.1,0.1,0,0.2
						C26.4,43,27,44.1,27.6,45.3z"/>
					<path class="st6" d="M29.9,40.7c0.1-0.1,0.2-0.2,0.3-0.3c-1.9-2.4-3.6-3.6-3.6-3.6l-0.2,0.1c0,0,0,0,0,0c0,0,0,0.1,0,0.1
						C26.3,37,27.9,38.3,29.9,40.7z"/>
				</g>
			</g>
			<g>
				<g>
					
						<linearGradient id="SVGID_8_" gradientUnits="userSpaceOnUse" x1="-938.0224" y1="8.643" x2="-929.6035" y2="8.643" gradientTransform="matrix(-1 0 0 -1 -901.8357 56)">
						<stop  offset="0" style="stop-color:#EFD97F"/>
						<stop  offset="0.1978" style="stop-color:#EFD87C"/>
						<stop  offset="0.3726" style="stop-color:#EED571"/>
						<stop  offset="0.5387" style="stop-color:#EDCF5F"/>
						<stop  offset="0.6984" style="stop-color:#EBC845"/>
						<stop  offset="0.7526" style="stop-color:#EAC53B"/>
						<stop  offset="1" style="stop-color:#E5AD14"/>
					</linearGradient>
					<path class="st10" d="M27.7,45l0.8-1.8c0,0,0-0.1,0-0.1c0,0,0,0,0,0c0,0,0-0.1,0-0.1s0,0,0-0.1c0,0,0-0.1,0-0.1c0,0,0,0,0,0
						c0-0.1,0-0.1,0.1-0.2c0,0,0,0,0,0c0,0,0-0.1,0.1-0.1c0,0,0,0,0-0.1c0,0,0-0.1,0.1-0.1c0,0,0,0,0-0.1c0.3-0.6,0.7-1.1,1-1.4
						c0,0,0,0,0,0c1.6,2,3.3,4.7,4.7,8.1c0,0,1.3,1.2,1.3,2.9s-1.3,2.3-2,2.1l0,0c-0.8,0.7-1.9,0.3-2.2-0.9v0c0,0-0.1,0.1-0.2,0.1
						c-0.5,0.2-1.1-0.1-1.3-0.5l0,0l0,0c0,0,0,0,0-0.1l0,0L30.1,51h0v-0.4l0.1-0.2c0-0.1-0.1-0.1-0.1-0.2l-0.1-0.1L30,49.8v-0.1
						c-0.3-0.6-0.7-1.5-1.2-2.6c-0.3-0.7-0.7-1.4-1.1-2.1L27.7,45z"/>
				</g>
				<path class="st8" d="M32.8,50.9c0,0,0.2,1.9-0.8,2.5l-0.2-0.5C31.7,52.9,32.9,52.3,32.8,50.9z"/>
				<path class="st8" d="M34.6,51.5c0,0,0.5,1.3,0.1,2.2c0,0-0.3,0.1-0.8,0.1C33.9,53.8,34.8,53.3,34.6,51.5z"/>
				<path class="st6" d="M32.8,51.5c0,0,0,1.1-0.9,1.5l0-0.2C31.8,52.9,32.8,52,32.8,51.5z"/>
				<path class="st6" d="M34.7,52.2c0,0,0.1,1.1-0.5,1.6l-0.4,0C33.8,53.8,34.6,53.1,34.7,52.2z"/>
				<path class="st5" d="M27.7,45l0.8-1.8c0,0,0-0.1,0-0.1c0,0,0,0,0,0c0,0,0-0.1,0-0.1s0,0,0-0.1c0,0,0-0.1,0-0.1c0,0,0,0,0,0
					c0-0.1,0-0.1,0.1-0.2c0,0,0,0,0,0c0,0,0-0.1,0.1-0.1c0,0,0,0,0-0.1c0,0,0-0.1,0.1-0.1c0,0,0,0,0-0.1c0,0,0,0,0,0
					c1.1,2.1,2.2,4.9,2.3,7.3c0,0-1.3,1.7-0.8,3.3c0,0-0.1-0.1-0.1-0.2l0,0l0,0c0,0,0,0,0-0.1l0,0L30.1,51h0v-0.4l0.1-0.3l-0.2-0.3
					L30,49.8l-2-4.3c0,0-0.1-0.1-0.3-0.4L27.7,45z"/>
				<g>
					<path class="st6" d="M30.1,50.5l-0.1-0.1l0,0c0,0-1.3-2.9-2.5-5.2l0.1-0.3l0,0c1.1,2.1,2.2,4.7,2.5,5.2c0-0.1,0.1-0.2,0.1-0.2
						l0,0c0.1-0.2,0.2-0.4,0.2-0.4c0,0,0.1,0,0.1,0c0,0,0,0.1,0,0.1c0,0-0.1,0.1-0.1,0.1c0,0-0.7,1.1-0.3,2.6l0,0
						c0.1,0.2,0.3,0.4,0.5,0.5c0.2,0.1,0.5,0.1,0.7,0c0.8-0.4,1.3-1.3,1.1-2.2c0,0,0-0.1,0-0.1c0,0,0.1,0,0.1,0
						c0.2,0.9-0.2,1.8-1,2.2c0.1,0.5,0.5,0.9,0.9,1.1c0.4,0.1,0.9,0,1.2-0.4c0.9-0.9,0.6-2.2,0.5-2.2c0,0,0-0.1,0-0.1
						c0,0,0.1,0,0.1,0c0,0,0.4,1.4-0.6,2.3l0,0c0.3,0,0.7-0.1,1.1-0.4c0.3-0.3,0.7-0.8,0.7-1.7c0-1.7-1.3-2.9-1.3-2.9l0,0
						c-1.4-3.4-3.2-6.1-4.7-8l0,0c0.1-0.1,0.2-0.2,0.3-0.3l0,0c0.5,0.6,1.1,1.4,1.6,2.2l0,0c0,0,2.6,3.8,3.1,6c0.7,0.9,2,3,0.8,4.6
						c-0.1,0.2-0.3,0.3-0.4,0.4c0,0-0.1,0.1-0.2,0.1c0,0,0,0,0,0l0,0c-0.3,0.2-0.6,0.3-0.9,0.3c-0.1,0-0.2,0-0.2,0
						c-0.3,0.2-0.6,0.3-0.9,0.3c-0.1,0-0.2,0-0.4-0.1c-0.5-0.1-0.8-0.6-1-1.1c0,0-0.1,0-0.1,0c-0.1,0.1-0.3,0.1-0.4,0.1
						s-0.3,0-0.4-0.1c-0.3-0.1-0.5-0.3-0.6-0.5l0,0c0,0,0,0,0,0s0,0,0,0l0,0c0,0-0.1-0.3-0.1-0.7c0-0.2,0-0.4,0-0.6
						C30.1,50.9,30.1,50.7,30.1,50.5z"/>
				</g>
			</g>
			<g>
				
					<linearGradient id="SVGID_9_" gradientUnits="userSpaceOnUse" x1="28.7574" y1="0.8633" x2="35.765" y2="0.8633" gradientTransform="matrix(1 0 0 -1 0 56)">
					<stop  offset="0" style="stop-color:#EAC53B"/>
					<stop  offset="0.1136" style="stop-color:#EAC640"/>
					<stop  offset="0.245" style="stop-color:#EBCB4E"/>
					<stop  offset="0.3845" style="stop-color:#EDD165"/>
					<stop  offset="0.5053" style="stop-color:#EFD97F"/>
					<stop  offset="0.6009" style="stop-color:#EED370"/>
					<stop  offset="0.7846" style="stop-color:#EAC349"/>
					<stop  offset="1" style="stop-color:#E5AD14"/>
				</linearGradient>
				<path class="st11" d="M35.2,58.1c-0.5,0.2-1.2-0.1-1.7-0.3c-2.1-1.1-3.1-3.3-3.5-5.1l-0.9-1.4l-0.5,2.1l0.3,1.4l0.6,0.9
					c0.8,1.4,1.9,2.5,3.4,2.9c0.7,0.2,1.8,0.3,2.4-0.1C36.2,58,35.2,58.1,35.2,58.1z"/>
				
					<linearGradient id="SVGID_10_" gradientUnits="userSpaceOnUse" x1="35.2458" y1="-1.1197" x2="39.2603" y2="-1.1197" gradientTransform="matrix(1 0 0 -1 0 56)">
					<stop  offset="0" style="stop-color:#C5A25E"/>
					<stop  offset="0.2474" style="stop-color:#C39834"/>
					<stop  offset="0.5153" style="stop-color:#B99130"/>
					<stop  offset="0.9712" style="stop-color:#9E7D27"/>
					<stop  offset="1" style="stop-color:#9C7C26"/>
				</linearGradient>
				<path class="st12" d="M35.7,58.9c-1.2-1.2-0.1-2.5,1.3-2.6c0.8-0.1,2.1-0.1,2.2-1.3C39.7,56.7,37.7,60.4,35.7,58.9z"/>
				<path class="st13" d="M39.1,56.5c-0.1,0.9-1.2,1.7-1.2,1.7c0-0.1,0.2-0.7,0.2-0.7c-0.6,1.5-2.7,0.8-2.7,0.8l0,0.1
					c0.1,0.2,0.2,0.4,0.4,0.5c1.5,1.1,2.9-0.6,3.4-2.2L39.1,56.5z"/>
				<path class="st5" d="M30.1,54.9c0,0,0.7,2.5,2,3.3c0,0-1.2-0.5-2.4-2.1L30.1,54.9z"/>
				<path class="st6" d="M34.3,59c-0.5,0-1-0.1-1.2-0.2c-1.4-0.3-2.4-1.2-3.5-2.9c0,0,0-0.1,0-0.1c0,0,0.1,0,0.1,0
					c1,1.6,2,2.5,3.4,2.8c0.8,0.2,1.8,0.3,2.3-0.1c0,0,0.1,0,0.1,0c0,0,0,0.1,0,0.1C35.2,58.9,34.8,59,34.3,59z"/>
				<path class="st6" d="M34.8,58.3c-0.5,0-1-0.2-1.3-0.4c-2.3-1.2-3.2-3.7-3.5-5.1c0,0,0-0.1,0-0.1c0,0,0.1,0,0.1,0
					c0.3,1.4,1.2,3.9,3.4,5c0.4,0.2,1.1,0.5,1.6,0.3c0,0,0.1,0,0.1,0c0,0,0,0.1,0,0.1C35.1,58.2,35,58.3,34.8,58.3z"/>
				<path class="st14" d="M36.7,59.3c-0.4,0-0.7-0.1-1-0.4l0,0c-0.5-0.5-0.6-1-0.5-1.5c0.2-0.6,0.9-1.1,1.7-1.2c0.1,0,0.2,0,0.3,0
					c0.8-0.1,1.8-0.2,1.9-1.2c0,0,0-0.1,0.1-0.1c0,0,0.1,0,0.1,0c0.3,1.2-0.5,3.3-1.6,4C37.4,59.2,37,59.3,36.7,59.3z M35.8,58.8
					c0.6,0.4,1.2,0.5,1.8,0.1c1-0.7,1.7-2.4,1.6-3.5c-0.2,0.7-1.2,0.8-1.9,0.9c-0.1,0-0.2,0-0.3,0c-0.8,0.1-1.4,0.6-1.6,1.2
					C35.3,57.8,35.2,58.3,35.8,58.8z"/>
				<path class="st6" d="M30.4,53.1c0,0,0.7,2.8,2.7,4.4c0,0-1.5-0.7-2.6-3.5l-0.3-0.7L30.4,53.1z"/>
				<path class="st6" d="M29.8,56.5c0,0,1.5,1.9,2.8,2.2l-1.2-0.7c0,0-1.5-1.4-1.6-1.7V56.5z"/>
			</g>
			<g>
				
					<linearGradient id="SVGID_11_" gradientUnits="userSpaceOnUse" x1="11.0346" y1="-2.2201" x2="30.2648" y2="-2.2201" gradientTransform="matrix(1 0 0 -1 0 56)">
					<stop  offset="0" style="stop-color:#EFD97F"/>
					<stop  offset="0.1491" style="stop-color:#EED778"/>
					<stop  offset="0.3636" style="stop-color:#EDD165"/>
					<stop  offset="0.6165" style="stop-color:#EBC846"/>
					<stop  offset="0.6947" style="stop-color:#EAC53B"/>
					<stop  offset="1" style="stop-color:#E5AD14"/>
				</linearGradient>
				<path class="st15" d="M20.5,54.9L20.5,54.9C20.5,54.9,20.5,54.9,20.5,54.9C20.5,54.9,20.4,54.9,20.5,54.9l-0.1-0.4l-0.1-1.1
					l-3.9-2.3l-3.9-1.1l-1.2,0.5l-0.1,0.6l0,0.1c0,3,0.6,6.4,2.3,10v0c-0.7,0.5-1.7,1.3-1.8,2.6c-0.1,2.1,1.7,2.2,2.2,2.2h0.5
					c0.5,0.2,1.1,0.2,1.7,0l0,0c0.4,0.2,0.8,0.2,1.2,0.2c0,0,1.9,0,2.5-0.8c0.6-0.8,0.6-1.5,0.7-3.9C20.6,59.3,20.5,54.9,20.5,54.9z
					"/>
				<path class="st5" d="M12.6,65.3c0.2-0.3,0.9-1.8,0.9-1.8c-0.6,1.2,0,2,0,2c0.4,0.3,1.2,0,1.2,0c-0.3-1,0.8-1.8,0.8-1.8
					c-0.8,1.1,0,1.9,0,1.9c3.4,0.6,4.8-1.5,4.8-1.5l0,0c-0.1,0.6-0.2,1-0.5,1.4c-0.6,0.8-2.5,0.8-2.5,0.8c-0.5,0-0.9,0-1.2-0.2l0,0
					c-0.6,0.2-1.2,0.2-1.7,0h-0.5c-0.4,0-1.4,0-1.9-0.8l0,0v0C12,65.3,12.4,65.6,12.6,65.3z"/>
				<path class="st8" d="M18.3,54.6c0.6,0.2,1.7,0.3,2.2,0.3v0v0c0,0,0,0.1,0,0.2l0,0l0,0c0,0.9,0.1,4.4,0,6.5
					c0,0.8-0.1,1.4-0.1,1.9C20.4,59.6,18.3,54.6,18.3,54.6z"/>
				<path class="st6" d="M20.5,54.9C20.5,54.9,20.5,54.9,20.5,54.9L20.5,54.9c-0.1-0.1-0.1,0-0.1,0l0,0l0,0h-0.3
					c0,0,0.4,4.7,0.3,7.3c-0.1,1.9-0.1,2.6-0.7,3.3c-0.6,0.7-2.4,0.8-2.4,0.8c-0.6,0.1-1.7,0-2-1.3c-0.2-1,0.7-1.8,0.7-1.8
					c0,0,0-0.1,0-0.1c0,0-0.1,0-0.1,0s-0.5,0.4-0.7,1l0,0c0,0-0.7,1.2,0.5,2.1c-0.5,0.1-0.9,0.1-1.3,0c0,0,0,0,0,0l0,0h0
					c-0.1,0-0.2-0.1-0.2-0.1c-0.4-0.2-0.6-0.5-0.7-0.9c-0.4-1.3,0.6-2.1,0.6-2.1c0,0,0-0.1,0-0.1c0,0-0.1,0-0.1,0
					c0,0-0.4,0.3-0.6,0.8l0,0c0,0,0,0,0,0.1v0c-0.1,0.4-0.5,1.6,0.3,2.3c-0.4,0-0.9-0.1-1.3-0.5c-0.4-0.4-0.5-0.9-0.5-1.6
					c0.1-1.3,1.1-2.2,1.8-2.6l-0.1-0.1c-1.7-3.7-2.2-7.2-2.2-10.2l0-0.2l-0.1-0.4L11,50.4l-0.1,0.4c0,0.5,0,1,0.1,1.5
					c0,0,0,4.9,2.1,8.9c-0.5,0.4-2.4,2.1-1.2,4.2l0,0c0,0,0,0,0,0c0,0,0,0,0,0c0.1,0.1,0.1,0.2,0.2,0.3c0.5,0.5,1.3,0.6,1.6,0.6l0,0
					l0,0l0,0c0,0,0.1,0,0.1,0h0.5c0.2,0.1,0.5,0.1,0.8,0.1c0.3,0,0.6,0,0.9-0.1c0,0,0,0,0,0c0.2,0.1,0.6,0.2,0.9,0.2
					c0.1,0,0.2,0,0.3,0c0.1,0,1.9-0.1,2.5-0.8c0.6-0.8,0.6-1.5,0.7-3.7l0-0.2C20.7,59.3,20.5,55,20.5,54.9z"/>
			</g>
			<g>
				
					<linearGradient id="SVGID_12_" gradientUnits="userSpaceOnUse" x1="11.061" y1="-2.1789" x2="30.2378" y2="-2.1789" gradientTransform="matrix(1 0 0 -1 0 56)">
					<stop  offset="0" style="stop-color:#EFD97F"/>
					<stop  offset="0.1491" style="stop-color:#EED778"/>
					<stop  offset="0.3636" style="stop-color:#EDD165"/>
					<stop  offset="0.6165" style="stop-color:#EBC846"/>
					<stop  offset="0.6947" style="stop-color:#EAC53B"/>
					<stop  offset="1" style="stop-color:#E5AD14"/>
				</linearGradient>
				<path class="st16" d="M27.9,61.3L27.9,61.3c1.7-3.7,2.3-7.2,2.3-10.3c0,0,0,0,0,0l-0.1-0.6L28.9,50L25,51.1L21,53.4l-0.1,1.1
					l0,0.7l0,0c0,1.1-0.1,4.3,0,6.3c0.1,2.3,0.1,3.1,0.7,3.9c0.6,0.8,2.5,0.8,2.5,0.8c0.5,0,0.9,0,1.2-0.2l0,0
					c0.6,0.2,1.2,0.2,1.7,0h0.5c0.5,0,2.3-0.1,2.2-2.2C29.6,62.7,28.6,61.8,27.9,61.3z"/>
				<path class="st5" d="M28.7,65.3c-0.2-0.3-0.9-1.8-0.9-1.8c0.6,1.2,0,2,0,2c-0.4,0.3-1.2,0-1.2,0c0.3-1-0.8-1.8-0.8-1.8
					c0.8,1.1,0,1.9,0,1.9c-3.4,0.6-4.8-1.5-4.8-1.5l0,0c0.1,0.6,0.2,1,0.5,1.4c0.6,0.8,2.5,0.8,2.5,0.8c0.5,0,0.9,0,1.2-0.2l0,0
					c0.6,0.2,1.2,0.2,1.7,0h0.5c0.4,0,1.4,0,1.9-0.8l0,0v0C29.4,65.3,28.9,65.6,28.7,65.3z"/>
				<path class="st8" d="M23.1,54.6c-0.6,0.2-1.7,0.3-2.2,0.3v0v0c0,0,0,0.1,0,0.2l0,0l0,0c0,0.9-0.1,4.4,0,6.5
					c0,0.8,0.1,1.4,0.1,1.9C20.9,59.6,23.1,54.6,23.1,54.6z"/>
				<path class="st6" d="M30.5,50.8l0-0.1l0,0h-0.1l-0.2,0l0,0.2l0,0.2c0,3-0.6,6.5-2.2,10.1l-0.1,0.1c0.7,0.5,1.7,1.3,1.8,2.6
					c0,0.7-0.1,1.2-0.5,1.6c-0.4,0.4-1,0.5-1.3,0.5c0.8-0.6,0.4-1.9,0.3-2.3c0,0,0,0,0-0.1c0,0,0,0,0,0s0,0,0,0l0,0l0,0
					c-0.2-0.5-0.6-0.8-0.6-0.8c0,0-0.1,0-0.1,0c0,0,0,0.1,0,0.1c0,0,0.9,0.8,0.6,2.1c-0.1,0.4-0.4,0.7-0.7,0.9
					c-0.1,0-0.2,0.1-0.2,0.1h0c0,0,0,0-0.1,0c-0.4,0.1-0.8,0.1-1.3,0c1.2-0.9,0.5-2.1,0.5-2.1l0,0c-0.2-0.6-0.7-0.9-0.7-1
					c0,0-0.1,0-0.1,0c0,0,0,0.1,0,0.1c0,0,1,0.8,0.7,1.8c-0.3,1.2-1.4,1.3-2,1.3c0,0-1.9,0-2.4-0.8c-0.5-0.7-0.6-1.4-0.7-3.3
					c-0.1-2.6,0.3-7.3,0.3-7.3H21c0,0,0-0.1-0.1-0.1l0,0c0,0-0.1,0-0.1,0.1c0,0-0.1,4.3,0,6.7l0,0.2c0.1,2.2,0.1,2.9,0.7,3.7
					c0.6,0.8,2.4,0.8,2.5,0.8c0.1,0,0.2,0,0.3,0c0.3,0,0.6-0.1,0.9-0.2c0,0,0,0,0,0c0.3,0.1,0.6,0.1,0.9,0.1c0.3,0,0.6,0,0.8-0.1
					h0.5c0,0,0.1,0,0.1,0c0.4,0,1.1-0.1,1.6-0.6c0.1-0.1,0.2-0.2,0.2-0.3l0,0v0c0,0,0,0,0,0c1.3-2.1-0.6-3.8-1.2-4.2
					c2.1-4,2.1-8.9,2.1-8.9C30.4,51.7,30.5,51.2,30.5,50.8z"/>
			</g>
			
				<linearGradient id="SVGID_13_" gradientUnits="userSpaceOnUse" x1="11.0605" y1="1.063" x2="30.2384" y2="1.063" gradientTransform="matrix(1 0 0 -1 0 56)">
				<stop  offset="0" style="stop-color:#EFD97F"/>
				<stop  offset="0.1491" style="stop-color:#EED778"/>
				<stop  offset="0.3636" style="stop-color:#EDD165"/>
				<stop  offset="0.6165" style="stop-color:#EBC846"/>
				<stop  offset="0.6947" style="stop-color:#EAC53B"/>
				<stop  offset="1" style="stop-color:#E5AD14"/>
			</linearGradient>
			<path class="st17" d="M20.7,54.9L20.7,54.9L20.7,54.9C20.7,54.9,20.7,54.9,20.7,54.9z"/>
			<g>
				<g>
					
						<linearGradient id="SVGID_14_" gradientUnits="userSpaceOnUse" x1="11.2182" y1="10.5849" x2="30.1795" y2="10.5849" gradientTransform="matrix(1 0 0 -1 0 56)">
						<stop  offset="0" style="stop-color:#EFD97F"/>
						<stop  offset="0.1491" style="stop-color:#EED778"/>
						<stop  offset="0.3636" style="stop-color:#EDD165"/>
						<stop  offset="0.6165" style="stop-color:#EBC846"/>
						<stop  offset="0.6947" style="stop-color:#EAC53B"/>
						<stop  offset="1" style="stop-color:#E5AD14"/>
					</linearGradient>
					<path class="st18" d="M26.9,38.8l-1-1.7l-4.2-1.1l-3.1,0.7L16,37c0,0-1.1,1.1-1.5,1.7c0,0-3.3,4.9-3.3,12.2
						c0.4,0.2,2.6,1.7,3.4,1.9l0.8,0.5c0,0,0.8,0.7,3.6,1.3c0,0,0.6,0.1,1.5,0.1c0,0,0.1,0,0.1,0c0,0,0,0,0,0c0.1,0,0.1,0,0.2,0l0,0
						c1.5,0,3.8-0.4,5.8-2c0,0,2.9-1.3,3.4-1.9C30.2,43.8,26.9,38.8,26.9,38.8z"/>
					<g>
						<path class="st19" d="M24.7,37.4c1.6,3.2,3,6.9,2.2,10.5c-0.2,1-0.6,1.9-1.2,2.7c-1.2,1.5-3.1,2-5,2s-3.8-0.5-5-2
							c-0.6-0.8-1-1.7-1.2-2.7c-0.9-3.6,0.6-7.3,2.2-10.5c0,0,3.3,0.6,6.9,0.1L24.7,37.4z"/>
						<path class="st20" d="M20.7,52.7c-1.5,0-3.7-0.4-5-2.1c-0.6-0.7-1-1.6-1.3-2.7c-0.9-3.7,0.6-7.4,2.2-10.6l0,0h0
							c0,0,3.4,0.5,6.8,0.1l1.3-0.2l0,0c1.6,3.1,3.1,6.8,2.2,10.6c-0.2,1.1-0.7,2-1.3,2.7C24.3,52.4,22.2,52.7,20.7,52.7z
							 M16.6,37.5c-1.5,3.1-3,6.8-2.1,10.4c0.2,1.1,0.7,2,1.2,2.7c1.3,1.7,3.4,2,5,2s3.6-0.4,5-2c0.6-0.7,1-1.6,1.2-2.7
							c0.9-3.7-0.6-7.3-2.1-10.4l-1.3,0.1C20.1,38,17,37.6,16.6,37.5z"/>
					</g>
				</g>
				<g>
					<path class="st19" d="M20.7,52.7c-1.5,0-3.7-0.4-5-2.1c-0.6-0.7-1-1.6-1.3-2.7c-0.9-3.7,0.6-7.4,2.2-10.5c0,0,0,0,0.1,0
						c0,0,0,0,0,0.1c-1.5,3.1-3,6.8-2.2,10.5c0.2,1.1,0.7,2,1.2,2.7C17,52.3,19.1,52.6,20.7,52.7c1.5-0.1,3.6-0.4,4.9-2.1
						c0.6-0.7,1-1.6,1.2-2.7c0.9-3.7-0.6-7.4-2.2-10.5c0,0,0,0,0-0.1c0,0,0,0,0.1,0c1.6,3.1,3.1,6.8,2.2,10.6
						c-0.2,1.1-0.7,2-1.3,2.7C24.3,52.3,22.2,52.7,20.7,52.7z"/>
					<path class="st20" d="M20.7,52.8c-1.6,0-3.7-0.4-5.1-2.1C15,50,14.6,49,14.3,48c-0.9-3.7,0.6-7.4,2.2-10.6c0,0,0,0,0.1-0.1
						c0,0,0.1,0,0.1,0c0,0,0,0,0.1,0.1c0,0,0,0.1,0,0.1c-1.5,3.1-3,6.8-2.2,10.4c0.2,1.1,0.7,1.9,1.2,2.6c1.3,1.6,3.4,2,4.9,2
						s3.6-0.4,4.9-2c0.6-0.7,1-1.6,1.2-2.6c0.9-3.7-0.6-7.3-2.2-10.4c0-0.1,0-0.1,0-0.1c0.1,0,0.1,0,0.1,0c1.6,3.1,3.1,6.9,2.2,10.6
						c-0.2,1.1-0.7,2-1.3,2.7C24.4,52.4,22.2,52.8,20.7,52.8z"/>
				</g>
				<path class="st6" d="M20.7,55c-4.1,0-6.2-2.3-6.2-2.3c0,0,0-0.1,0-0.1c0,0,0.1,0,0.1,0c0,0,2.1,2.3,6.2,2.3s6.1-2.2,6.2-2.3
					c0,0,0.1,0,0.1,0c0,0,0,0.1,0,0.1C26.9,52.7,24.8,55,20.7,55z"/>
				<path class="st6" d="M29.5,45.4c0.4,1.6,0.7,3.5,0.6,5.7l0.4-0.4c0-6.9-3.5-12.1-3.5-12.1c0,0-0.1,0-0.1,0c0,0,0,0.1,0,0.1
					C26.9,38.8,28.5,41.4,29.5,45.4z M27.1,39c0-0.1-0.1-0.1-0.1-0.2C27,38.9,27.1,38.9,27.1,39z"/>
				<path class="st6" d="M10.9,50.7l0.3,0.2l0.1,0.1l0,0c0-2.2,0.3-4.1,0.6-5.6c0.9-4,2.6-6.6,2.6-6.6c0,0,0-0.1,0-0.1
					c0,0-0.1,0-0.1,0c0,0-0.1,0.1-0.2,0.3c0.1-0.1,0.1-0.2,0.2-0.3C14.4,38.7,10.9,43.8,10.9,50.7z"/>
			</g>
			<g>
				
					<linearGradient id="SVGID_15_" gradientUnits="userSpaceOnUse" x1="9.6518" y1="35.976" x2="27.7889" y2="26.758" gradientTransform="matrix(1 0 0 -1 0 56)">
					<stop  offset="0" style="stop-color:#EFD97F"/>
					<stop  offset="0.1978" style="stop-color:#EFD87C"/>
					<stop  offset="0.3726" style="stop-color:#EED571"/>
					<stop  offset="0.5387" style="stop-color:#EDCF5F"/>
					<stop  offset="0.6984" style="stop-color:#EBC845"/>
					<stop  offset="0.7526" style="stop-color:#EAC53B"/>
					<stop  offset="1" style="stop-color:#E5AD14"/>
				</linearGradient>
				<path class="st21" d="M30.7,22.3c-0.2-0.2-0.4-0.5-0.6-0.7c2-0.2,3.3-2.8,1.7-4.5c-2.7-2.7-5.7-0.3-5.6,1.6
					c-1.5-0.7-3.2-1.1-5-1.1c-2.1,0-4.2,0.5-6.1,1.3c0.5-1.9-2.7-4.7-5.6-1.9c-1.6,1.8-0.2,4.5,1.8,4.6c-0.1,0.1-0.1,0.1-0.2,0.2
					C8.8,24.6,7.8,28.5,9.1,32c0.2,0.5,0.4,1,0.7,1.4c1.9,2.9,5.7,4,9.1,4.4c0.5,0,0.9,0.1,1.4,0.1c2.7,0.1,5.5-0.5,7.9-1.8
					c2.1-1.1,3.9-2.6,4.5-5C33.3,28.1,32.4,24.8,30.7,22.3z"/>
				<path class="st22" d="M25.2,24.8c0,0,1.1-0.2,1.8,0.4s1.5,1.7,0.9,3.9c0,0-1.9-0.5-2.5-0.5l-2.2-0.2
					C23.2,28.5,22.7,25.3,25.2,24.8z"/>
				<path class="st23" d="M18.2,28.5c0,0-2.4-0.1-4.6,0.6l0,0.1C13.6,29.2,16,28.6,18.2,28.5z"/>
				<path class="st19" d="M12.1,20.9c-0.5-0.1-0.8-0.1-1.2-0.4c-0.4-0.3-0.7-0.7-0.8-1.1c-0.1-0.5,0-1,0.4-1.3
					c0.5-0.4,1.3-0.4,1.8-0.1c0.5,0.4,0.9,1,1.1,1.6c0,0,0,0.1,0,0.1L12.1,20.9z"/>
				<g>
					<g>
						<path class="st23" d="M13.3,29.2l-0.1,0.2c0.2-0.1,0.5-0.2,0.5-0.2l0-0.1h0l0,0c-1.8-4.9,5.1-5.9,4.5-0.6
							C19.1,22.9,11.7,23.8,13.3,29.2z"/>
					</g>
				</g>
				<g>
					
						<ellipse transform="matrix(0.9894 -0.1449 0.1449 0.9894 -3.2223 2.4814)" class="st24" cx="15.4" cy="23.4" rx="1.2" ry="0.7"/>
					<path class="st25" d="M15.2,24.1c-0.6,0-1-0.2-1.1-0.6l0,0c-0.1-0.4,0.5-0.8,1.2-0.9c0.3,0,0.7,0,0.9,0.1
						c0.3,0.1,0.4,0.3,0.5,0.5c0,0.2-0.1,0.4-0.3,0.6c-0.2,0.2-0.5,0.3-0.9,0.4C15.4,24.1,15.3,24.1,15.2,24.1z M14.3,23.5
						c0.1,0.4,0.6,0.6,1.3,0.5c0.3,0,0.6-0.2,0.8-0.3c0.2-0.1,0.3-0.3,0.3-0.5c0-0.2-0.2-0.3-0.4-0.4c-0.2-0.1-0.5-0.1-0.9-0.1
						C14.7,22.8,14.2,23.2,14.3,23.5L14.3,23.5z"/>
				</g>
				<ellipse class="st23" cx="16.3" cy="27" rx="0.9" ry="1.3"/>
				<path class="st19" d="M29.2,20.9c0.5-0.1,0.8-0.1,1.2-0.4c0.4-0.3,0.7-0.7,0.8-1.1c0.1-0.5,0-1-0.4-1.3
					c-0.5-0.4-1.3-0.4-1.8-0.1c-0.5,0.4-0.9,1-1.1,1.6c0,0,0,0.1,0,0.1L29.2,20.9z"/>
				<g>
					
						<ellipse transform="matrix(0.1449 -0.9894 0.9894 0.1449 -0.9125 45.6502)" class="st24" cx="26" cy="23.4" rx="0.7" ry="1.2"/>
					<path class="st25" d="M26.2,24.1c-0.1,0-0.2,0-0.3,0c-0.3,0-0.6-0.2-0.9-0.4c-0.2-0.2-0.3-0.4-0.3-0.6c0-0.2,0.2-0.4,0.5-0.5
						c0.3-0.1,0.6-0.1,0.9-0.1c0.7,0.1,1.2,0.5,1.2,0.9l0,0C27.2,23.9,26.7,24.1,26.2,24.1z M25.7,22.7c-0.2,0-0.4,0-0.6,0.1
						c-0.2,0.1-0.4,0.2-0.4,0.4c0,0.2,0.1,0.4,0.3,0.5c0.2,0.2,0.5,0.3,0.8,0.3c0.6,0.1,1.2-0.1,1.3-0.5s-0.4-0.7-1.1-0.8
						C26,22.7,25.9,22.7,25.7,22.7z"/>
				</g>
				<ellipse class="st23" cx="25.1" cy="27" rx="0.9" ry="1.3"/>
				<path class="st22" d="M16.2,24.8c0,0-1.1-0.2-1.8,0.4s-1.5,1.7-0.9,3.9c0,0,1.9-0.5,2.5-0.5l2.2-0.2
					C18.2,28.5,18.7,25.3,16.2,24.8z"/>
				
					<linearGradient id="SVGID_16_" gradientUnits="userSpaceOnUse" x1="-1579.4049" y1="29.0933" x2="-1575.4745" y2="29.0933" gradientTransform="matrix(-1 0 0 -1 -1561.1932 56)">
					<stop  offset="0" style="stop-color:#673A1B"/>
					<stop  offset="0.7542" style="stop-color:#4A2812"/>
					<stop  offset="1" style="stop-color:#3F210F"/>
				</linearGradient>
				<path class="st26" d="M16.6,25c0,0,1.3,0.2,1.6,2.5c0,0,0,0.8-0.1,1l-0.8,0c0,0-2.5,0.2-2.6,0.3C13.7,27.4,14.4,24.7,16.6,25z"
					/>
				
					<linearGradient id="SVGID_17_" gradientUnits="userSpaceOnUse" x1="9.5487" y1="22.4541" x2="31.7253" y2="22.4541" gradientTransform="matrix(1 0 0 -1 0 56)">
					<stop  offset="0" style="stop-color:#F4DCA4"/>
					<stop  offset="0.8098" style="stop-color:#F0DA87"/>
					<stop  offset="1" style="stop-color:#EFD97F"/>
				</linearGradient>
				<path class="st27" d="M21.7,29.2h-2.2c-7.6,0-10,3.8-10,3.8c0.1,0.1,0.1,0.2,0.2,0.4c1.9,2.9,5.7,4,9.1,4.4
					c0.5,0,0.9,0.1,1.4,0.1c2.7,0.1,5.5-0.5,7.9-1.8c1.4-0.8,2.8-1.7,3.6-3.1C31.5,32.7,29,29.2,21.7,29.2z"/>
				<path class="st28" d="M14.8,33c0-2.6-2.1-4.7-4.7-4.7c-0.6,0-1.1,0.1-1.6,0.3c0,1.1,0.2,2.2,0.6,3.3c0.2,0.5,0.4,1,0.7,1.4
					c0.9,1.3,2.1,2.3,3.6,3C14.2,35.5,14.8,34.3,14.8,33z"/>
				<path class="st28" d="M26.7,33c0,1.2,0.5,2.3,1.2,3.1c0.1,0,0.1-0.1,0.2-0.1c2.1-1.1,3.9-2.6,4.5-5c0.2-0.8,0.3-1.6,0.2-2.4
					c-0.5-0.2-1-0.2-1.5-0.2C28.8,28.4,26.7,30.5,26.7,33z"/>
				<path class="st29" d="M20.4,28.9c0,0,0.7,0,0.9,0c0.3,0.1,0.6,0.2,0.3,0.5c-0.3,0.4-1,0.6-1,0.6s-0.7-0.2-1-0.6
					c-0.2-0.4,0-0.5,0.3-0.5c0.3-0.1,0.9,0,0.9,0"/>
				<path class="st30" d="M19.8,37.9c0.1,0,0.3,0,0.4,0c2.7,0.1,5.5-0.5,7.9-1.8c2.1-1.1,3.9-2.6,4.5-5c0.7-3-0.2-6.3-1.9-8.7
					c-0.2-0.2-0.4-0.5-0.6-0.7C30.1,21.6,36.2,36,19.8,37.9z"/>
				<path class="st31" d="M10.3,22.9c1.3-1.2,2-1.5,2-1.5c-3.2-0.1-3-4-3-4.1c-1.2,1.8,0.1,4.2,2.1,4.2c-0.1,0.1-0.1,0.1-0.2,0.2
					C10.9,22.2,10.6,22.6,10.3,22.9z"/>
				<path class="st30" d="M31,22.9c-1.3-1.2-2-1.5-2-1.5c3.2-0.1,3-4,3-4.1c1.2,1.5,0,4.1-1.9,4.2c0.1,0.1,0.1,0.1,0.2,0.2
					C30.6,22.2,30.8,22.6,31,22.9z"/>
				<path class="st32" d="M11.4,21.6c-0.1,0.1-0.1,0.1-0.2,0.2C8.8,24.6,7.8,28.5,9.1,32c0.2,0.5,0.4,1,0.7,1.4
					c0.7,1,1.5,1.8,2.6,2.4l0,0C6,29.5,11.4,21.6,11.4,21.6z"/>
				<path class="st33" d="M12.4,18.1c-0.3-0.2-0.8-0.3-1.2-0.2l0,0c0,0,2,0.9,1.8,2.3l0.4-0.4c0,0,0-0.1,0-0.1
					C13.3,19.1,12.9,18.5,12.4,18.1z"/>
				<path class="st33" d="M29,18.1c0.3-0.2,0.8-0.3,1.2-0.2l0,0c0,0-2,0.9-1.8,2.3L28,19.8c0,0,0-0.1,0-0.1
					C28.1,19.1,28.5,18.5,29,18.1z"/>
				<path class="st34" d="M23.3,26.5c0,0,3.7,0,4.8,0.7c0,0-0.2-2.7-3-2.4C25.1,24.8,23.8,25.1,23.3,26.5z"/>
				
					<linearGradient id="SVGID_18_" gradientUnits="userSpaceOnUse" x1="23.1649" y1="29.0933" x2="27.0953" y2="29.0933" gradientTransform="matrix(1 0 0 -1 0 56)">
					<stop  offset="0" style="stop-color:#673A1B"/>
					<stop  offset="0.7542" style="stop-color:#4A2812"/>
					<stop  offset="1" style="stop-color:#3F210F"/>
				</linearGradient>
				<path class="st35" d="M24.8,25c0,0-1.3,0.2-1.6,2.5c0,0,0,0.8,0.1,1l0.8,0c0,0,2.5,0.2,2.6,0.3C27.6,27.4,26.9,24.7,24.8,25z"/>
				<path class="st36" d="M27.1,26.8c-0.2-1.1-0.9-2.1-2.2-1.9c0,0,0,0-0.1,0c-0.2,0.1-0.5,0.3-0.8,0.6c-0.2,0.2-0.4,0.5-0.5,0.9
					C23.7,26.5,25.7,26.6,27.1,26.8z"/>
				<path class="st34" d="M18,26.5c0,0-3.7,0-4.8,0.7c0,0,0.2-2.7,3-2.4C16.2,24.8,17.5,25.1,18,26.5z"/>
				<path class="st36" d="M14.3,26.8c0.2-1.1,0.9-2.1,2.2-1.9c0,0,0,0,0.1,0c0.2,0.1,0.5,0.3,0.8,0.6c0.2,0.2,0.4,0.5,0.5,0.9
					C17.6,26.5,15.7,26.6,14.3,26.8z"/>
				<path class="st37" d="M17,32.2c0,0,1.7,0.8,3.5,0c0,0,0.1,0.1,0.5,0c0,0,1.6,0.8,3.4,0c0,0-2.2,0.8-3.5-0.4l-0.1-0.2l-0.1,0.1
					C20.6,31.8,19.3,33,17,32.2z"/>
				<path class="st37" d="M21.4,29.8c0,0-0.7,0.7-0.7,1.3c0,0-0.2-0.8-0.7-1.2l0.7,0.3L21.4,29.8z"/>
				<path class="st38" d="M15.9,24.7c0,0-1.8-0.3-2.7,1.2c-0.9,1.5,0,3.5,0,3.5l0.4-0.3l-0.3-0.9C13.3,28.2,12.6,25.2,15.9,24.7z"/>
				<path class="st38" d="M25.5,24.7c0,0,1.8-0.3,2.7,1.2c0.9,1.5,0,3.5,0,3.5l-0.4-0.3l0.3-0.9C28.1,28.2,28.8,25.2,25.5,24.7z"/>
				<path class="st39" d="M25.2,31.4C25.1,31.4,25.1,31.4,25.2,31.4c-0.1,0.1-0.2,0.8-1.6,1c-1.5,0.2-2.2-0.2-2.8-0.7v-1.4
					c0,0,0-0.1-0.1-0.1c0,0-0.1,0-0.1,0.1v1.4c-0.6,0.5-1.3,0.9-2.8,0.7c-1.4-0.2-1.5-0.9-1.5-0.9c0,0,0-0.1-0.1-0.1
					c0,0-0.1,0-0.1,0.1c0,0,0.1,0.8,1.6,1c0.3,0,0.5,0.1,0.7,0.1c1,0,1.6-0.4,2.1-0.8c0.5,0.4,1.1,0.8,2.1,0.8c0.2,0,0.5,0,0.7-0.1
					C25.1,32.2,25.2,31.4,25.2,31.4C25.2,31.4,25.2,31.4,25.2,31.4z"/>
				<path class="st39" d="M20.8,31.5c0,0,0,0.2,0.2,0.3h0l-0.2-0.1l0-0.1L20.8,31.5z"/>
				<path class="st39" d="M20.6,31.5c0,0,0,0.2-0.2,0.3h0l0.2-0.1l0-0.1L20.6,31.5z"/>
				<path class="st40" d="M19.6,30.2L19.6,30.2L17.9,30c0,0,0,0,0,0c0,0,0,0,0,0L19.6,30.2C19.7,30.2,19.7,30.2,19.6,30.2
					C19.7,30.2,19.7,30.2,19.6,30.2z"/>
				<path class="st40" d="M18,31.2C17.9,31.2,17.9,31.2,18,31.2C17.9,31.1,17.9,31.1,18,31.2l1.7-0.5c0,0,0,0,0,0c0,0,0,0,0,0
					L18,31.2L18,31.2z"/>
				<path class="st40" d="M21.7,30.2C21.7,30.2,21.7,30.2,21.7,30.2C21.7,30.2,21.7,30.2,21.7,30.2l1.8-0.3c0,0,0,0,0,0c0,0,0,0,0,0
					L21.7,30.2L21.7,30.2z"/>
				<path class="st40" d="M23.4,31.2L23.4,31.2l-1.7-0.4c0,0,0,0,0,0c0,0,0,0,0,0L23.4,31.2C23.4,31.1,23.4,31.1,23.4,31.2
					C23.5,31.2,23.4,31.2,23.4,31.2z"/>
				<path class="st40" d="M14.7,28.9C14.7,28.9,14.7,28.9,14.7,28.9c-0.7-0.9-0.7-2.2-0.1-3.1c0.4-0.7,1.1-1,2-0.9
					c0,0,0.1,0,0.1,0.1c0,0,0,0.1-0.1,0.1c-0.8-0.1-1.4,0.2-1.8,0.8C14.2,26.7,14.2,28,14.7,28.9C14.8,28.9,14.8,28.9,14.7,28.9
					C14.8,28.9,14.7,28.9,14.7,28.9z"/>
				<path class="st29" d="M18.2,28.5c0,0-2.4-0.1-4.6,0.6l0,0.1C13.6,29.2,16,28.6,18.2,28.5z"/>
				<g>
					<g>
						<path class="st40" d="M13.3,29.2l-0.1,0.2c0.2-0.1,0.5-0.2,0.5-0.2l0-0.1h0l0,0c-1.8-4.9,5.1-5.9,4.5-0.6
							C19.1,22.9,11.7,23.8,13.3,29.2z"/>
					</g>
				</g>
				<ellipse class="st41" cx="16.3" cy="27" rx="0.9" ry="1.3"/>
				<path class="st40" d="M26.6,28.9C26.6,28.9,26.6,28.9,26.6,28.9c-0.1,0-0.1-0.1-0.1-0.1c0.6-0.8,0.6-2.1,0.1-3
					c-0.4-0.6-1.1-0.9-1.8-0.8c0,0-0.1,0-0.1-0.1c0,0,0-0.1,0.1-0.1c0.8-0.1,1.5,0.2,2,0.9C27.3,26.7,27.3,28,26.6,28.9
					C26.7,28.9,26.7,28.9,26.6,28.9z"/>
				<path class="st29" d="M23.2,28.5c0,0,2.4-0.1,4.6,0.6l0,0.1C27.7,29.2,25.4,28.6,23.2,28.5z"/>
				<g>
					<g>
						<path class="st29" d="M23.2,28.5c-0.6-5.4,6.3-4.3,4.5,0.6l0,0h0l0,0.1c0,0,0.3,0.1,0.5,0.2L28,29.2
							C29.7,23.8,22.3,22.9,23.2,28.5z"/>
					</g>
				</g>
				<ellipse class="st41" cx="25.1" cy="27" rx="0.9" ry="1.3"/>
				<circle class="st22" cx="15.4" cy="26.1" r="0.6"/>
				<circle class="st22" cx="24.4" cy="26.1" r="0.6"/>
				<g>
					<path class="st6" d="M30.7,22.3c-0.1-0.2-0.3-0.4-0.4-0.6c0.3,0,0.6-0.1,0.6-0.1c0,0,0.1,0,0.1,0c0.8-0.4,1.4-1,1.6-1.8l0,0
						c0.2-0.7,0.2-1.5-0.1-2.1c-0.6-1.3-2.1-1.9-3.5-1.8c-0.2,0-0.5,0.1-0.7,0.2c0,0-0.1,0-0.1,0C28,16,28,16,27.9,16
						c-1,0.5-1.8,1.4-1.8,2.3l-0.7-0.3c0,0-2.1-0.8-4.6-0.8s-5,1.1-5,1.1c-0.2,0.1-0.5,0.2-0.7,0.3c0.1-0.7-0.4-1.6-1.1-2.2l0,0l0,0
						c0,0-0.1-0.1-0.1-0.1c0,0,0,0,0,0c-0.1,0-0.1-0.1-0.2-0.1c-0.1-0.1-0.2-0.1-0.4-0.2c-0.1-0.1-0.2-0.1-0.4-0.1
						c-0.2-0.1-0.4-0.1-0.6-0.1c-1.4-0.1-2.9,0.5-3.5,1.8c-0.2,0.4-0.3,0.8-0.3,1.2l0,0c0,0-0.1,1,0.6,1.9l0,0
						c0.2,0.2,0.3,0.4,0.4,0.4c0.2,0.2,0.6,0.5,1.1,0.6c-0.6,0.7-3.8,4.8-2.1,9.7c0,0,0-0.1,0-0.2C8.8,31.4,8.9,31.7,9,32
						c0.2,0.5,0.4,1,0.7,1.4c2,3.1,6.1,4.1,9.1,4.4c0.5,0,0.9,0.1,1.4,0.1c0.1,0,0.2,0,0.4,0c2.7,0,5.3-0.6,7.5-1.8
						c2.6-1.4,4-3,4.5-5C33.4,28.2,32.6,25,30.7,22.3z M31.9,32c-2,4.5-9.9,6.7-16.3,5.2c-2.2-0.6-4.5-1.7-5.8-3.8
						c-0.3-0.4-0.5-0.9-0.7-1.4c-1.2-3.3-0.4-7.2,2.1-10.1c0.1-0.1,0.1-0.1,0.2-0.2c0,0,0,0,0.1,0c0.3,0,0.6-0.1,0.9-0.2
						c0,0,0,0,0-0.1c0,0,0,0-0.1,0c-1.1,0.4-2.2,0-2.9-1c-0.5-0.8-0.8-2.1,0.2-3.3c0.6-0.6,1.2-0.9,1.8-1.1c0.1,0,0.2,0,0.3-0.1
						c0.9-0.1,1.6,0.1,2,0.4c1.1,0.6,1.7,1.7,1.4,2.6l0,0c0,0,0,0,0,0c0,0,0,0,0,0l0,0l0,0l0,0l0,0c0,0,0,0,0,0c0,0,0,0,0,0l0,0l0,0
						h0l0,0l0,0l0,0c0.4-0.2,0.7-0.3,1.1-0.5c0,0,2.1-0.8,4.6-0.8s4.6,0.7,4.6,0.7c0.2,0.1,0.5,0.2,0.7,0.3c0,0,0,0,0.1,0l0,0
						c0,0,0,0,0,0l0,0l0,0l0,0v0l0,0l0,0c-0.1-0.9,0.7-2,1.8-2.5c1.2-0.6,2.6-0.2,3.8,0.9c1,1.1,0.7,2.5,0.2,3.3
						c-0.7,1-1.8,1.4-2.9,1c0,0-0.1,0-0.1,0c0,0,0,0.1,0,0.1c0,0,0,0,0,0c0.2,0.2,0.7,0.3,1.1,0.2C30.7,22.5,33.9,27.5,31.9,32z"/>
					<path class="st6" d="M12.4,18.1c-0.5-0.4-1.4-0.4-1.9,0.1c-0.4,0.3-0.5,0.8-0.4,1.3c0.1,0.4,0.4,0.8,0.8,1.1
						c0.4,0.2,0.7,0.3,1.1,0.4l0.1,0l0,0c0,0,0,0,0,0l1.3-1.1l0,0c0,0,0,0,0,0c0,0,0,0,0,0c0,0,0,0,0,0
						C13.3,19.1,12.9,18.4,12.4,18.1z M13.4,19.8C13.4,19.8,13.4,19.8,13.4,19.8l-1.3,1.1l-0.1,0c-0.4-0.1-0.7-0.1-1.1-0.4
						c-0.4-0.3-0.7-0.7-0.8-1.1c-0.1-0.5,0.1-0.9,0.4-1.2c0.2-0.2,0.6-0.3,0.9-0.3c0.3,0,0.6,0.1,0.8,0.2
						C12.8,18.4,13.2,19.1,13.4,19.8C13.4,19.7,13.4,19.8,13.4,19.8z"/>
					<path class="st6" d="M29.2,21L29.2,21L29.2,21h0.1c0.4-0.1,0.7-0.1,1.1-0.4c0.4-0.3,0.7-0.7,0.8-1.1c0.1-0.5-0.1-1-0.4-1.3
						c-0.5-0.4-1.3-0.5-1.9-0.1c-0.5,0.4-0.9,1-1.1,1.6c0,0,0,0,0,0l0,0c0,0,0,0,0,0l0,0L29.2,21z M29,18.1c0.5-0.4,1.3-0.3,1.8,0.1
						c0.3,0.3,0.5,0.8,0.4,1.2c-0.1,0.4-0.4,0.8-0.8,1.1c-0.3,0.2-0.7,0.3-1.1,0.4l-0.1,0L28,19.8l0,0c0,0,0,0,0,0
						C28.1,19.1,28.5,18.5,29,18.1z"/>
				</g>
			</g>
			<g>
				<path class="st5" d="M16.9,18.7c0,0-0.5,2.1-1.5,2.5c0,0,1.8-0.1,2.1-0.5c0,0,0.2,2.5,4,2.7h0.4l-0.4-1.3c0,0,0.5,0.6,0.8,0.7
					c0,0,0-0.5,0-0.9l1.3-2l0.7-0.2l-0.3,1.5c0,0,1.5-0.4,1.4-2.7l-3.8-0.7L18.5,18L16.9,18.7z"/>
				
					<linearGradient id="SVGID_19_" gradientUnits="userSpaceOnUse" x1="15.1825" y1="37.0169" x2="25.4755" y2="37.0169" gradientTransform="matrix(1 0 0 -1 0 56)">
					<stop  offset="0" style="stop-color:#C5A25E"/>
					<stop  offset="0.2474" style="stop-color:#C39834"/>
					<stop  offset="0.5153" style="stop-color:#B99130"/>
					<stop  offset="0.9712" style="stop-color:#9E7D27"/>
					<stop  offset="1" style="stop-color:#9C7C26"/>
				</linearGradient>
				<path class="st42" d="M21.9,20.9c-0.3,0.7-0.2,1.5,0.2,2.2l0,0c-0.9,0.2-1.8,0-2.6-0.5c-0.5-0.3-0.9-0.6-1.3-1
					c-0.3-0.4-0.6-1.3-0.7-1.8l0.3-0.4c-0.2,0.4-0.5,0.7-0.8,1c-0.5,0.4-1.2,0.5-1.8,0.6l0,0c0.6-0.1,0.9-0.7,1-1.3
					c0.1-0.6,0-1.1,0.1-1.7c0.1-1,0.7-1.9,1.6-2.5c0.8-0.6,1.9-0.8,2.9-0.6c0.5,0.1,0.7,0.1,1.1,0.4l0.1,0.1c3.2-1.7,5.2,4.7,2,5.9
					l0,0l-0.1,0c0.2-0.1,0.4-0.3,0.5-0.5c0.1-0.2,0.2-0.4,0.1-0.6v-0.1c0,0.2-0.1,0.4-0.2,0.5c-0.1,0.1-0.3,0.2-0.5,0.3
					c-0.4,0.2-0.7,0.4-0.8,0.7c-0.2,0.3-0.2,0.8,0,1.1l0,0c-0.4-0.1-0.8-0.5-1-0.9"/>
				<path class="st13" d="M18.1,18.9l0-0.5l-0.2,0.5c-0.4,0.8-1.5,1.5-2.3,1.8c-0.1,0.1-0.2,0.2-0.4,0.2l0,0
					c0.6-0.1,1.3-0.2,1.8-0.6c0.2-0.2,0.4-0.4,0.6-0.6l0,0c0.1,0.5,0.4,1.4,0.7,1.8c0.3,0.4,0.8,0.8,1.3,1c0.5,0.3,1.1,0.5,1.7,0.5
					h0.5C18.5,22.7,18.1,18.9,18.1,18.9z"/>
				<g>
					<path class="st13" d="M23.8,21.2C23.8,21.2,23.8,21.2,23.8,21.2L23.8,21.2L23.8,21.2z"/>
					<path class="st13" d="M24.3,15.7c0.2,0.7,0.7,2.4,0.4,3.9l-0.6-1.1c0,0.7-0.6,1.1-0.6,1.1c-0.9,0.8-1.2,1.8-1.3,2.3
						c-0.1-0.2-0.3-0.4-0.3-0.6l-0.1,0.4v0c0.2,0.4,0.6,0.8,1,0.9l0,0c-0.2-0.3-0.2-0.8,0-1.1c0.2-0.3,0.5-0.6,0.8-0.7
						c0.2-0.1,0.4-0.1,0.5-0.3c0.1-0.1,0.3-0.3,0.2-0.5v0.1c0.1,0.2,0,0.4-0.1,0.6c-0.1,0.2-0.2,0.4-0.4,0.5l0,0
						C26.1,20.4,25.8,17,24.3,15.7z"/>
				</g>
				<path class="st43" d="M21.1,14.9c0,0-5.1-1-4.9,4.2c0,0,0.1,1-0.4,1.4c0,0,0.7-0.6,1-2.3S20.6,15,21.1,14.9z"/>
				<path class="st43" d="M20.9,22.9c0,0-3.5-1.1-2.7-5.3c0,0,0.4-1.2,1.2-1.6C19.4,16.1,16.7,20.5,20.9,22.9z"/>
				<path class="st14" d="M24.1,15.4c-0.5-0.3-1.2-0.6-2.2-0.1c-0.3-0.3-0.7-0.4-1.2-0.5c-1.1-0.1-2.1,0.1-2.9,0.6
					C16.9,16,16.3,17,16.1,18c0,0.3,0,0.5,0,0.8c0,0.3,0,0.6,0,0.9c-0.1,0.5-0.4,1.1-0.9,1.2c0,0,0,0,0,0c0,0,0,0,0,0.1
					s0,0.1,0.1,0.1c1.2-0.1,1.9-0.5,2.2-0.8c0.1,0.5,0.6,2.3,3,2.9c0,0,0,0,0,0c0.3,0.1,0.7,0.1,1,0.1c0.2,0,0.5,0,0.7-0.1
					c0,0,0.1,0,0-0.1v0l0,0c-0.2-0.3-0.3-0.6-0.4-1c0.2,0.2,0.6,0.5,0.9,0.6c0,0,0,0,0,0c0,0,0-0.1,0-0.1c-0.2-0.3-0.2-0.7,0-1
					c0.2-0.3,0.4-0.5,0.8-0.7c0,0,0.1,0,0.1-0.1c0.1-0.1,0.3-0.1,0.4-0.2c0.1-0.1,0.1-0.1,0.2-0.2c0,0.1-0.1,0.2-0.1,0.4
					c-0.1,0.2-0.3,0.4-0.4,0.5l0,0c0,0,0,0-0.1,0c0,0,0,0.1,0,0.1c0,0,0,0,0,0c0,0,0,0,0,0l0,0l0,0c0.9-0.3,1.5-1.1,1.6-2.2
					C25.7,17.7,25.1,16.1,24.1,15.4z M25.4,19.1c-0.1,0.9-0.6,1.6-1.2,1.9c0.1-0.1,0.1-0.2,0.2-0.3c0.1-0.2,0.2-0.4,0.1-0.7l0,0
					c0,0,0-0.1,0-0.1c0,0,0-0.1-0.1-0.1c0,0-0.1,0-0.1,0.1c0,0.1-0.1,0.3-0.2,0.4c-0.1,0.1-0.2,0.1-0.4,0.2c0,0-0.1,0-0.1,0.1
					c-0.4,0.2-0.7,0.5-0.9,0.8c-0.2,0.3-0.2,0.7-0.1,1c-0.3-0.1-0.7-0.5-0.8-0.8c0-0.2,0.1-0.5,0.2-0.7c0,0,0-0.1,0-0.1
					c0,0-0.1,0-0.1,0c-0.1,0.2-0.1,0.5-0.2,0.7v0c0,0.5,0.1,1,0.4,1.4c-0.8,0.1-1.6,0-2.5-0.5c-0.5-0.3-0.9-0.6-1.2-1
					s-0.6-1.1-0.6-1.6c0.2-0.3,0.2-0.6,0.2-0.6c0,0,0-0.1,0-0.1c0,0-0.1,0-0.1,0c-0.2,0.4-0.5,0.8-0.8,1c-0.4,0.3-0.9,0.4-1.4,0.5
					c0.4-0.3,0.6-0.8,0.7-1.2c0-0.3,0-0.6,0-0.9c0-0.3,0-0.5,0-0.8c0.1-0.9,0.7-1.9,1.5-2.4c0.8-0.5,1.8-0.7,2.8-0.6
					c0.5,0.1,0.8,0.2,1.2,0.5c0,0,0,0,0.1,0c0.8-0.4,1.5-0.4,2.1,0.1C25,16.2,25.6,17.7,25.4,19.1z"/>
			</g>
		</g>
	</g>
	
		<radialGradient id="SVGID_20_" cx="20.5" cy="16.25" r="19.0862" gradientTransform="matrix(1 0 0 -1 0 56)" gradientUnits="userSpaceOnUse">
		<stop  offset="0" style="stop-color:#DEF2FC"/>
		<stop  offset="1" style="stop-color:#A6A69E"/>
	</radialGradient>
	<path class="st44" d="M34.3,53H7.1c-3.6,0-6.6-2.9-6.6-6.6l0,0c0-3.6,2.9-6.6,6.6-6.6h27.2c3.6,0,6.6,2.9,6.6,6.6l0,0
		C40.8,50,37.9,53,34.3,53z"/>
	
		<radialGradient id="SVGID_21_" cx="21.5416" cy="56.25" r="12.6842" gradientTransform="matrix(1 0 0 -1 0 56)" gradientUnits="userSpaceOnUse">
		<stop  offset="0" style="stop-color:#DEF2FC"/>
		<stop  offset="1" style="stop-color:#A6A69E"/>
	</radialGradient>
	<path class="st45" d="M26.1,1.8c-0.4,0-0.7,0.3-0.7,0.7c0,0.1,0,0.2,0.1,0.3l-3.2,1.5l-1.4-2.9c0.2-0.1,0.4-0.4,0.4-0.6
		C21.3,0.3,21,0,20.6,0s-0.7,0.3-0.7,0.7c0,0.3,0.2,0.5,0.4,0.6l-1.4,2.9l-3.2-1.5c0-0.1,0.1-0.2,0.1-0.3c0-0.4-0.3-0.7-0.7-0.7
		S14.4,2,14.4,2.4s0.3,0.7,0.7,0.7c0.1,0,0.2,0,0.2,0l2,5.5h3.3h3.3l2-5.5c0.1,0,0.1,0,0.2,0c0.4,0,0.7-0.3,0.7-0.7
		C26.8,2.1,26.5,1.8,26.1,1.8z"/>
</g>
</svg>
