<?xml version="1.0" encoding="utf-8"?>
<!-- Generator: Adobe Illustrator 21.0.0, SVG Export Plug-In . SVG Version: 6.00 Build 0)  -->
<svg version="1.1" id="圖層_1" xmlns="http://www.w3.org/2000/svg" xmlns:xlink="http://www.w3.org/1999/xlink" x="0px" y="0px"
	 viewBox="0 0 259 234.4" style="enable-background:new 0 0 259 234.4;" xml:space="preserve">
<style type="text/css">
	.st0{display:none;opacity:0.3;fill:#0D0E0E;}
	.st1{opacity:0.8;fill:#216289;}
	.st2{opacity:0.36;fill:url(#SVGID_1_);}
	.st3{opacity:0.86;fill:#51C6E1;}
	.st4{opacity:0.95;fill:#5CCAED;}
	.st5{fill:none;stroke:#BBE5F5;stroke-width:3;}
	.st6{opacity:0.1;}
	.st7{fill:none;stroke:#96D9F3;stroke-width:0.5;}
	.st8{fill:url(#SVGID_2_);stroke:#61B5D7;}
	.st9{fill:none;}
	.st10{fill:#FFFFFF;}
	.st11{font-family:'MicrosoftJhengHeiBold';}
	.st12{font-size:21px;}
	.st13{display:none;}
	.st14{display:inline;opacity:0.7;fill:#6FCCE4;}
	.st15{display:inline;fill:none;}
	.st16{display:inline;fill:#FFFFFF;}
	.st17{font-size:18px;}
	.st18{display:inline;}
	.st19{opacity:0.7;fill:#393939;}
	.st20{fill:none;stroke:#FFFFFF;stroke-width:5;stroke-linecap:round;stroke-linejoin:round;}
	.st21{fill:none;stroke:#D33426;stroke-width:3;stroke-linecap:round;stroke-linejoin:round;}
	.st22{display:inline;fill:#C0C0C0;}
</style>
<g id="設定_1_">
	<g>
		<rect x="-297.5" y="-104.2" class="st0" width="841.9" height="473.8"/>
		<path class="st1" d="M258.8,219.2c0,6.6-5.4,12-12,12H13.5c-6.6,0-12-5.4-12-12V30.5c0-6.6,5.4-12,12-12h233.3c6.6,0,12,5.4,12,12
			V219.2z"/>
		<radialGradient id="SVGID_1_" cx="135.5255" cy="327.6879" r="280.1937" gradientUnits="userSpaceOnUse">
			<stop  offset="0" style="stop-color:#00ADEE"/>
			<stop  offset="1" style="stop-color:#00ADEE;stop-opacity:0"/>
		</radialGradient>
		<path class="st2" d="M258.8,219.2c0,6.6-5.4,12-12,12H13.5c-6.6,0-12-5.4-12-12V30.5c0-6.6,5.4-12,12-12h233.3c6.6,0,12,5.4,12,12
			V219.2z"/>
		<rect x="24" y="16.8" class="st3" width="210.9" height="4.6"/>
		<rect x="24" y="229.8" class="st3" width="212.9" height="4.6"/>
		<path class="st4" d="M24,234.4H12.2c-6.6,0-12-5.4-12-12V42.3L2.9,40c0-6.6,0.4-16,9.3-16h12.2v-5.6H12.2c-6.6,0-12,5.4-12,12v6.2
			v180.1c0,6.6,5.4,12,12,12H24V234.4z"/>
		<path class="st5" d="M24,228.2H13.5c-6.6,0-12-5.4-12-12V36.7v-6.2c0-6.6,5.4-12,12-12h10.9"/>
		<path class="st4" d="M235,234.4h11.9c6.6,0,12-5.4,12-12V42.3l-2.7-2.3c0-6.6-0.4-16-9.3-16h-12.2v-5.6h12.2c6.6,0,12,5.4,12,12
			v6.2v180.1c0,6.6-5.4,12-12,12H235V234.4z"/>
		<path class="st5" d="M235,228.2h10.5c6.6,0,12-5.4,12-12V36.7v-6.2c0-6.6-5.4-12-12-12h-10.9"/>
		<g>
			
				<image style="overflow:visible;" width="332" height="285" xlink:href="D57F99DB.png"  transform="matrix(1 0 0 1 -36.2968 -19.0478)">
			</image>
		</g>
		<g>
			
				<image style="overflow:visible;" width="332" height="285" xlink:href="D57F99D9.png"  transform="matrix(1 0 0 1 -36.2968 -19.0478)">
			</image>
		</g>
	</g>
	<g class="st6">
		<line class="st7" x1="0.2" y1="16.8" x2="256.8" y2="16.8"/>
		<line class="st7" x1="0.2" y1="21.5" x2="256.8" y2="21.5"/>
		<line class="st7" x1="0.2" y1="25.8" x2="256.8" y2="25.8"/>
		<line class="st7" x1="0.2" y1="30.5" x2="256.8" y2="30.5"/>
		<line class="st7" x1="0.2" y1="35.3" x2="256.8" y2="35.3"/>
		<line class="st7" x1="0.2" y1="40" x2="256.8" y2="40"/>
		<line class="st7" x1="0.2" y1="44.4" x2="256.8" y2="44.4"/>
		<line class="st7" x1="0.2" y1="49.1" x2="256.8" y2="49.1"/>
		<line class="st7" x1="0.2" y1="53.8" x2="256.8" y2="53.8"/>
		<line class="st7" x1="0.2" y1="58.5" x2="256.8" y2="58.5"/>
		<line class="st7" x1="0.2" y1="62.9" x2="256.8" y2="62.9"/>
		<line class="st7" x1="0.2" y1="67.6" x2="256.8" y2="67.6"/>
		<line class="st7" x1="0.2" y1="72.4" x2="256.8" y2="72.4"/>
		<line class="st7" x1="0.2" y1="77.1" x2="256.8" y2="77.1"/>
		<line class="st7" x1="0.2" y1="81.4" x2="256.8" y2="81.4"/>
		<line class="st7" x1="0.2" y1="86.1" x2="256.8" y2="86.1"/>
		<line class="st7" x1="0.2" y1="91" x2="256.8" y2="91"/>
		<line class="st7" x1="0.2" y1="95.7" x2="256.8" y2="95.7"/>
		<line class="st7" x1="0.2" y1="100.1" x2="256.8" y2="100.1"/>
		<line class="st7" x1="0.2" y1="104.8" x2="256.8" y2="104.8"/>
		<line class="st7" x1="0.2" y1="109.6" x2="256.8" y2="109.6"/>
		<line class="st7" x1="0.2" y1="114.3" x2="256.8" y2="114.3"/>
		<line class="st7" x1="0.2" y1="118.7" x2="256.8" y2="118.7"/>
		<line class="st7" x1="0.2" y1="123.4" x2="256.8" y2="123.4"/>
		<line class="st7" x1="0.2" y1="128.1" x2="256.8" y2="128.1"/>
		<line class="st7" x1="0.2" y1="132.8" x2="256.8" y2="132.8"/>
		<line class="st7" x1="0.2" y1="137.2" x2="256.8" y2="137.2"/>
		<line class="st7" x1="0.2" y1="141.9" x2="256.8" y2="141.9"/>
		<line class="st7" x1="0.2" y1="146.7" x2="256.8" y2="146.7"/>
		<line class="st7" x1="0.2" y1="151.4" x2="256.8" y2="151.4"/>
		<line class="st7" x1="0.2" y1="155.7" x2="256.8" y2="155.7"/>
		<line class="st7" x1="0.2" y1="160.4" x2="256.8" y2="160.4"/>
		<line class="st7" x1="0.2" y1="164.6" x2="256.8" y2="164.6"/>
		<line class="st7" x1="0.2" y1="169" x2="256.8" y2="169"/>
		<line class="st7" x1="0.2" y1="173.7" x2="256.8" y2="173.7"/>
		<line class="st7" x1="0.2" y1="178.5" x2="256.8" y2="178.5"/>
		<line class="st7" x1="0.2" y1="183.2" x2="256.8" y2="183.2"/>
		<line class="st7" x1="0.2" y1="187.5" x2="256.8" y2="187.5"/>
		<line class="st7" x1="0.2" y1="192.2" x2="256.8" y2="192.2"/>
		<line class="st7" x1="0.2" y1="197" x2="256.8" y2="197"/>
		<line class="st7" x1="0.2" y1="201" x2="256.8" y2="201"/>
		<line class="st7" x1="0.2" y1="205.2" x2="256.8" y2="205.2"/>
		<line class="st7" x1="0.2" y1="209.6" x2="256.8" y2="209.6"/>
		<line class="st7" x1="0.2" y1="214.3" x2="256.8" y2="214.3"/>
		<line class="st7" x1="0.2" y1="219" x2="256.8" y2="219"/>
		<line class="st7" x1="0.2" y1="223.7" x2="256.8" y2="223.7"/>
		<line class="st7" x1="0.2" y1="228.1" x2="256.8" y2="228.1"/>
		<line class="st7" x1="0.2" y1="232.8" x2="256.8" y2="232.8"/>
	</g>
	<radialGradient id="SVGID_2_" cx="172.0254" cy="57.3062" r="134.1495" gradientUnits="userSpaceOnUse">
		<stop  offset="0" style="stop-color:#11588E"/>
		<stop  offset="1" style="stop-color:#009AD4"/>
	</radialGradient>
	<path class="st8" d="M201.6,36.8H61.3c-2,0-3.6-1.6-3.6-3.6V4.1c0-2,1.6-3.6,3.6-3.6h140.3c2,0,3.6,1.6,3.6,3.6v29.1
		C205.3,35.2,203.6,36.8,201.6,36.8z"/>
	<rect x="2.4" y="8.3" class="st9" width="253.5" height="25.6"/>
	<text transform="matrix(1 0 0 1 108.0957 26.9828)" class="st10 st11 st12">設定</text>
	<g id="音效" class="st13">
		<path class="st14" d="M225.9,115.3h-68.1c-10.5,0-19.1-8.5-19.1-19.1v0c0-10.5,8.5-19.1,19.1-19.1h68.1c10.5,0,19.1,8.5,19.1,19.1
			v0C245,106.7,236.5,115.3,225.9,115.3z"/>
		<rect x="167.6" y="86.4" class="st15" width="76.5" height="19.5"/>
		<text transform="matrix(1 0 0 1 187.803 102.458)" class="st16 st11 st17">音效</text>
		<g class="st18">
			<path class="st10" d="M154.4,95.4c0-1.3,0-2.6,0-4c0-1,0.6-1.6,1.6-1.6c1.4,0,2.8,0,4.3,0c0.3,0,0.4-0.1,0.6-0.2
				c1.2-1.1,2.4-2.1,3.6-3.2c0.6-0.5,1.2-1,1.8-1.5c0.7-0.6,1.6-0.1,1.8,0.6c0.1,0.3,0.1,0.7,0.1,1c0,0.4,0,0.8,0,1.1
				c0,5.3,0,10.6,0,15.9c0,0.5,0,1.1,0,1.6c0,0.5-0.3,0.8-0.7,1c-0.4,0.2-0.8,0.1-1.1-0.2c-0.5-0.4-1-0.9-1.5-1.3
				c-1.4-1.2-2.7-2.4-4.1-3.6c-0.1,0-0.1,0-0.2-0.1c-0.1,0-0.1,0-0.2,0c-1.4,0-2.8,0-4.2,0c-1,0-1.6-0.6-1.6-1.6
				C154.4,98,154.4,96.7,154.4,95.4z"/>
			<path class="st10" d="M176.9,107.5c-0.5-0.5-1-1-1.5-1.5c2.8-3,4.4-6.5,4.4-10.6c0-4.1-1.5-7.6-4.4-10.6c0.5-0.5,1-1,1.5-1.5
				C183.3,89.3,183.9,100.6,176.9,107.5z"/>
			<path class="st10" d="M173.6,104.1c-0.5-0.5-1-1-1.5-1.5c1.9-2,3-4.4,3-7.2c0-2.8-1-5.2-3-7.2c0.5-0.5,1-1,1.5-1.5
				c1.9,2,3.1,4.4,3.5,7.1C177.6,97.8,176.4,101.2,173.6,104.1z"/>
			<path class="st10" d="M169.2,98.6c0.9-0.9,1.3-2,1.3-3.3c0-1.3-0.5-2.3-1.3-3.2c0.5-0.5,1-1,1.5-1.5c2.4,2.1,2.8,6.8,0,9.5
				C170.2,99.6,169.7,99.1,169.2,98.6z"/>
		</g>
	</g>
	<g id="音樂取消" class="st13">
		<g class="st18">
			<path class="st19" d="M104,115.3H36c-10.5,0-19.1-8.5-19.1-19.1v0c0-10.5,8.5-19.1,19.1-19.1H104c10.5,0,19.1,8.5,19.1,19.1v0
				C123.1,106.7,114.6,115.3,104,115.3z"/>
			<g>
				<path class="st10" d="M39.4,102.4c0-0.1,0-0.2,0-0.3c0-5.1,0-10.1,0-15.2c0-0.3,0.1-0.4,0.3-0.5c2.8-0.9,5.7-1.5,8.7-2
					c2.5-0.4,4.9-0.6,7.4-0.7c0.2,0,0.3,0,0.5,0c0,0.1,0,0.3,0,0.4c0,4,0,8,0,12c0,2.2-0.1,4.5,0,6.7c0.1,1.4-0.6,2.4-1.6,3.2
					c-1.1,0.8-2.3,1.3-3.6,1.3c-0.7,0-1.3-0.1-1.9-0.4c-1-0.6-1.4-1.7-1-2.8c0.5-1.3,1.5-2,2.7-2.6c1-0.5,2.1-0.6,3.3-0.4
					c0-4.1,0-8.2,0-12.4c-0.7,0.1-1.5,0.1-2.2,0.2c-2.1,0.3-4.1,0.6-6.2,0.9c-1.4,0.3-2.8,0.7-4.3,1c-0.2,0-0.2,0.1-0.2,0.3
					c0,1.1,0,2.2,0,3.3c0,3.3,0,6.6,0,10c0,1.2-0.5,2.2-1.4,2.9c-1.2,0.9-2.5,1.4-4.1,1.3c-1.2-0.1-2.1-0.8-2.4-1.7
					c-0.2-0.9,0.1-1.7,0.6-2.4C35.5,102.8,37.2,102.2,39.4,102.4z"/>
			</g>
			<rect x="47.2" y="86.4" class="st9" width="76.5" height="19.5"/>
			<text transform="matrix(1 0 0 1 67.4247 102.458)" class="st10 st11 st17">音樂</text>
		</g>
		<g class="st18">
			<g>
				<line class="st20" x1="39.4" y1="89.3" x2="54.3" y2="104.2"/>
				<line class="st20" x1="39.4" y1="104.1" x2="54.3" y2="89.2"/>
			</g>
			<g>
				<line class="st21" x1="39.4" y1="89.3" x2="54.3" y2="104.2"/>
				<line class="st21" x1="39.4" y1="104.1" x2="54.3" y2="89.2"/>
			</g>
		</g>
	</g>
	<g class="st13">
		<path class="st22" d="M212.6,138.2c2.1,0,3.8,1.7,3.8,3.8v18.1c0,2.1-1.7,3.8-3.8,3.8h-62.3c-2.1,0-3.8-1.7-3.8-3.8V142
			c0-2.1,1.7-3.8,3.8-3.8H212.6 M212.6,137.2h-62.3c-2.7,0-4.8,2.2-4.8,4.8v18.1c0,2.7,2.2,4.8,4.8,4.8h62.3c2.7,0,4.8-2.2,4.8-4.8
			V142C217.4,139.4,215.2,137.2,212.6,137.2L212.6,137.2z"/>
	</g>
</g>
</svg>
