<?xml version="1.0" encoding="utf-8"?>
<!-- Generator: Adobe Illustrator 21.0.0, SVG Export Plug-In . SVG Version: 6.00 Build 0)  -->
<svg version="1.1" id="圖層_1" xmlns="http://www.w3.org/2000/svg" xmlns:xlink="http://www.w3.org/1999/xlink" x="0px" y="0px"
	 viewBox="0 0 447.6 265.8" style="enable-background:new 0 0 447.6 265.8;" xml:space="preserve">
<style type="text/css">
	.st0{display:none;opacity:0.3;fill:#0D0E0E;}
	.st1{display:none;}
	.st2{display:inline;}
	.st3{opacity:0.55;fill:#9AD2DF;}
	.st4{fill:none;}
	.st5{fill:#FFFFFF;}
	.st6{font-family:'MicrosoftJhengHeiRegular';}
	.st7{font-size:16px;}
	.st8{opacity:0.75;fill:#9AD2DF;}
	.st9{font-family:'MicrosoftJhengHeiBold';}
	.st10{fill:none;stroke:#DEF2FA;}
	.st11{fill:#515151;}
	.st12{display:inline;fill:#B7E4F4;}
	.st13{fill:url(#SVGID_1_);}
	.st14{fill:url(#SVGID_2_);}
	.st15{fill:url(#SVGID_3_);}
	.st16{fill:url(#SVGID_4_);}
	.st17{fill:url(#SVGID_5_);}
	.st18{fill:url(#SVGID_6_);}
	.st19{fill:#D4EEF8;}
	.st20{fill:#6BB444;}
	.st21{fill:url(#SVGID_7_);}
	.st22{fill:url(#SVGID_8_);}
	.st23{fill:url(#SVGID_9_);}
	.st24{fill:url(#SVGID_10_);}
	.st25{fill:url(#SVGID_11_);}
	.st26{display:inline;fill:url(#SVGID_12_);}
	.st27{display:inline;fill:url(#SVGID_13_);}
	.st28{display:inline;fill:url(#SVGID_14_);}
	.st29{display:inline;fill:url(#SVGID_15_);}
	.st30{display:inline;fill:url(#SVGID_16_);}
	.st31{font-size:18px;}
	.st32{fill:url(#SVGID_17_);}
	.st33{fill:url(#SVGID_18_);}
	.st34{fill:url(#SVGID_19_);}
	.st35{fill:url(#SVGID_20_);}
	.st36{fill:url(#SVGID_21_);}
	.st37{fill:url(#SVGID_22_);}
	.st38{fill:url(#SVGID_23_);}
	.st39{fill:url(#SVGID_24_);}
	.st40{fill:url(#SVGID_25_);}
	.st41{fill:url(#SVGID_26_);}
	.st42{fill:url(#SVGID_27_);}
	.st43{display:inline;fill:url(#SVGID_28_);}
	.st44{display:inline;fill:url(#SVGID_29_);}
	.st45{display:inline;fill:url(#SVGID_30_);}
	.st46{display:inline;fill:url(#SVGID_31_);}
	.st47{display:inline;fill:url(#SVGID_32_);}
	.st48{fill:url(#SVGID_33_);}
	.st49{fill:url(#SVGID_34_);}
	.st50{fill:url(#SVGID_35_);}
	.st51{fill:url(#SVGID_36_);}
	.st52{fill:url(#SVGID_37_);}
	.st53{fill:url(#SVGID_38_);}
	.st54{fill:url(#SVGID_39_);}
	.st55{fill:url(#SVGID_40_);}
	.st56{fill:url(#SVGID_41_);}
	.st57{fill:url(#SVGID_42_);}
	.st58{fill:url(#SVGID_43_);}
	.st59{display:inline;fill:url(#SVGID_44_);}
	.st60{display:inline;fill:url(#SVGID_45_);}
	.st61{display:inline;fill:url(#SVGID_46_);}
	.st62{display:inline;fill:url(#SVGID_47_);}
	.st63{display:inline;fill:url(#SVGID_48_);}
	.st64{display:inline;fill:none;}
	.st65{display:inline;fill:#FFFFFF;}
	.st66{opacity:0.8;fill:#216289;}
	.st67{opacity:0.36;fill:url(#SVGID_49_);}
	.st68{opacity:0.86;fill:#51C6E1;}
	.st69{opacity:0.95;fill:#5CCAED;}
	.st70{fill:none;stroke:#BBE5F5;stroke-width:3;}
	.st71{opacity:0.1;}
	.st72{fill:none;stroke:#96D9F3;stroke-width:0.5;}
	.st73{fill:url(#SVGID_50_);stroke:#B7E4F4;}
	.st74{font-size:21px;}
</style>
<g id="分享">
	<rect x="-205.7" y="-88.1" class="st0" width="841.9" height="473.8"/>
	<rect x="-208.7" y="-14.8" class="st0" width="844.6" height="314.4"/>
	<g id="內容_1_" class="st1">
		<g class="st2">
			<path class="st3" d="M406,121.3c0,1.9-1.4,3.4-3.2,3.4h-383c-1.8,0-3.2-1.5-3.2-3.4v-22c0-1.9,1.4-3.4,3.2-3.4h383
				c1.8,0,3.2,1.5,3.2,3.4V121.3z"/>
			<path class="st3" d="M406,157.7c0,1.9-1.4,3.4-3.2,3.4h-383c-1.8,0-3.2-1.5-3.2-3.4v-22c0-1.9,1.4-3.4,3.2-3.4h383
				c1.8,0,3.2,1.5,3.2,3.4V157.7z"/>
			<rect x="27.6" y="102.6" class="st4" width="367.3" height="23.2"/>
			<text transform="matrix(1 0 0 1 27.6028 116.8275)" class="st5 st6 st7">獲得特殊徽章</text>
			<path class="st8" d="M406,86.3c0,1.9-1.4,3.4-3.2,3.4h-383c-1.8,0-3.2-1.5-3.2-3.4v-22c0-1.9,1.4-3.4,3.2-3.4h383
				c1.8,0,3.2,1.5,3.2,3.4V86.3z"/>
			<rect x="27.6" y="67.8" class="st4" width="367.3" height="23.2"/>
			<text transform="matrix(1 0 0 1 27.6028 82.0317)" class="st5 st9 st7">獲得特殊徽章</text>
			<rect x="27.6" y="138.5" class="st4" width="367.3" height="23.2"/>
			<text transform="matrix(1 0 0 1 27.6028 152.7607)" class="st5 st6 st7">獲得特殊徽章</text>
			<path class="st3" d="M406,193.2c0,1.9-1.4,3.4-3.2,3.4h-383c-1.8,0-3.2-1.5-3.2-3.4v-22c0-1.9,1.4-3.4,3.2-3.4h383
				c1.8,0,3.2,1.5,3.2,3.4V193.2z"/>
			<path class="st10" d="M406,86c0,1.9-1.4,3.4-3.2,3.4h-383c-1.8,0-3.2-1.5-3.2-3.4V64c0-1.9,1.4-3.4,3.2-3.4h383
				c1.8,0,3.2,1.5,3.2,3.4V86z"/>
			<rect x="27.6" y="174.4" class="st4" width="367.3" height="23.2"/>
			<text transform="matrix(1 0 0 1 27.6028 188.668)" class="st5 st6 st7">獲得特殊徽章</text>
		</g>
	</g>
	<g class="st1">
		<g class="st2">
			<path class="st11" d="M427.3,213.1c-1.8,0-3.2-1.4-3.2-3.2V58.4c0-1.8,1.4-3.2,3.2-3.2h0.7c1.8,0,3.2,1.4,3.2,3.2v151.5
				c0,1.8-1.4,3.2-3.2,3.2H427.3z"/>
			<path class="st5" d="M427.9,55.7c1.5,0,2.7,1.2,2.7,2.7v151.5c0,1.5-1.2,2.7-2.7,2.7h-0.7c-1.5,0-2.7-1.2-2.7-2.7V58.4
				c0-1.5,1.2-2.7,2.7-2.7H427.9 M427.9,54.7h-0.7c-2,0-3.7,1.7-3.7,3.7v151.5c0,2,1.7,3.7,3.7,3.7h0.7c2,0,3.7-1.7,3.7-3.7V58.4
				C431.6,56.3,430,54.7,427.9,54.7L427.9,54.7z"/>
		</g>
		<path class="st12" d="M427.6,212.6L427.6,212.6c-1.7,0-3-1.4-3-3V59c0-1.7,1.4-3,3-3h0c1.7,0,3,1.4,3,3v150.5
			C430.6,211.2,429.3,212.6,427.6,212.6z"/>
	</g>
	<g class="st1">
		<g class="st2">
			<g>
				<g>
					<linearGradient id="SVGID_1_" gradientUnits="userSpaceOnUse" x1="108.6182" y1="229.0159" x2="122.6865" y2="229.0159">
						<stop  offset="0" style="stop-color:#25A9E0"/>
						<stop  offset="1" style="stop-color:#FFFFFF;stop-opacity:0"/>
					</linearGradient>
					<path class="st13" d="M204,242.5c0,1.7-0.8,3-1.9,3H114c-1,0-1.9-1.4-1.9-3v-26.9c0-1.7,0.8-3,1.9-3h88.1c1,0,1.9,1.4,1.9,3
						V242.5z"/>
					<linearGradient id="SVGID_2_" gradientUnits="userSpaceOnUse" x1="209.3324" y1="229.0159" x2="185.8567" y2="229.0159">
						<stop  offset="0" style="stop-color:#25A9E0"/>
						<stop  offset="1" style="stop-color:#FFFFFF;stop-opacity:0"/>
					</linearGradient>
					<path class="st14" d="M204,242.5c0,1.7-0.8,3-1.9,3H114c-1,0-1.9-1.4-1.9-3v-26.9c0-1.7,0.8-3,1.9-3h88.1c1,0,1.9,1.4,1.9,3
						V242.5z"/>
					<linearGradient id="SVGID_3_" gradientUnits="userSpaceOnUse" x1="158.0376" y1="251.8641" x2="158.0376" y2="230.7114">
						<stop  offset="0" style="stop-color:#25A9E0"/>
						<stop  offset="1" style="stop-color:#FFFFFF;stop-opacity:0"/>
					</linearGradient>
					<path class="st15" d="M204,242.5c0,1.7-0.8,3-1.9,3H114c-1,0-1.9-1.4-1.9-3v-26.9c0-1.7,0.8-3,1.9-3h88.1c1,0,1.9,1.4,1.9,3
						V242.5z"/>
					<linearGradient id="SVGID_4_" gradientUnits="userSpaceOnUse" x1="158.0376" y1="208.2256" x2="158.0376" y2="218.3323">
						<stop  offset="6.060610e-03" style="stop-color:#25A9E0"/>
						<stop  offset="1" style="stop-color:#FFFFFF;stop-opacity:0"/>
					</linearGradient>
					<path class="st16" d="M204,242.5c0,1.7-0.8,3-1.9,3H114c-1,0-1.9-1.4-1.9-3v-26.9c0-1.7,0.8-3,1.9-3h88.1c1,0,1.9,1.4,1.9,3
						V242.5z"/>
					
						<radialGradient id="SVGID_5_" cx="298.0988" cy="209.7503" r="43.9253" gradientTransform="matrix(0.622 0 0 1 31.415 0)" gradientUnits="userSpaceOnUse">
						<stop  offset="0" style="stop-color:#00ADEE"/>
						<stop  offset="1" style="stop-color:#FFFFFF;stop-opacity:0"/>
					</radialGradient>
					<path class="st17" d="M204,242.5c0,1.7-0.8,3-1.9,3H114c-1,0-1.9-1.4-1.9-3v-26.9c0-1.7,0.8-3,1.9-3h88.1c1,0,1.9,1.4,1.9,3
						V242.5z"/>
					
						<radialGradient id="SVGID_6_" cx="119.5992" cy="250.7212" r="49.2906" gradientTransform="matrix(0.622 0 0 1 31.415 0)" gradientUnits="userSpaceOnUse">
						<stop  offset="0" style="stop-color:#00ADEE"/>
						<stop  offset="1" style="stop-color:#FFFFFF;stop-opacity:0"/>
					</radialGradient>
					<path class="st18" d="M204,242.5c0,1.7-0.8,3-1.9,3H114c-1,0-1.9-1.4-1.9-3v-26.9c0-1.7,0.8-3,1.9-3h88.1c1,0,1.9,1.4,1.9,3
						V242.5z"/>
				</g>
				<g>
					<g>
						<path class="st19" d="M202.1,212.6c1,0,1.9,1.4,1.9,3v26.9c0,1.7-0.8,3-1.9,3H114c-1,0-1.9-1.4-1.9-3v-26.9c0-1.7,0.8-3,1.9-3
							H202.1 M202.1,212.1H114c-1.3,0-2.4,1.5-2.4,3.5v26.9c0,2,1,3.5,2.4,3.5h88.1c1.3,0,2.4-1.5,2.4-3.5v-26.9
							C204.5,213.6,203.4,212.1,202.1,212.1L202.1,212.1z"/>
					</g>
					<g>
						<path class="st19" d="M202.1,212.6c1,0,1.9,1.4,1.9,3v26.9c0,1.7-0.8,3-1.9,3H114c-1,0-1.9-1.4-1.9-3v-26.9c0-1.7,0.8-3,1.9-3
							H202.1 M202.1,212.1H114c-1.3,0-2.4,1.5-2.4,3.5v26.9c0,2,1,3.5,2.4,3.5h88.1c1.3,0,2.4-1.5,2.4-3.5v-26.9
							C204.5,213.6,203.4,212.1,202.1,212.1L202.1,212.1z"/>
					</g>
					<g>
						<path class="st19" d="M202.1,212.6c1,0,1.9,1.4,1.9,3v26.9c0,1.7-0.8,3-1.9,3H114c-1,0-1.9-1.4-1.9-3v-26.9c0-1.7,0.8-3,1.9-3
							H202.1 M202.1,212.1H114c-1.3,0-2.4,1.5-2.4,3.5v26.9c0,2,1,3.5,2.4,3.5h88.1c1.3,0,2.4-1.5,2.4-3.5v-26.9
							C204.5,213.6,203.4,212.1,202.1,212.1L202.1,212.1z"/>
					</g>
					<g>
						<path class="st19" d="M202.1,212.6c1,0,1.9,1.4,1.9,3v26.9c0,1.7-0.8,3-1.9,3H114c-1,0-1.9-1.4-1.9-3v-26.9c0-1.7,0.8-3,1.9-3
							H202.1 M202.1,212.1H114c-1.3,0-2.4,1.5-2.4,3.5v26.9c0,2,1,3.5,2.4,3.5h88.1c1.3,0,2.4-1.5,2.4-3.5v-26.9
							C204.5,213.6,203.4,212.1,202.1,212.1L202.1,212.1z"/>
					</g>
					<g>
						<path class="st19" d="M202.1,212.6c1,0,1.9,1.4,1.9,3v26.9c0,1.7-0.8,3-1.9,3H114c-1,0-1.9-1.4-1.9-3v-26.9c0-1.7,0.8-3,1.9-3
							H202.1 M202.1,212.1H114c-1.3,0-2.4,1.5-2.4,3.5v26.9c0,2,1,3.5,2.4,3.5h88.1c1.3,0,2.4-1.5,2.4-3.5v-26.9
							C204.5,213.6,203.4,212.1,202.1,212.1L202.1,212.1z"/>
					</g>
					<g>
						<path class="st19" d="M202.1,212.6c1,0,1.9,1.4,1.9,3v26.9c0,1.7-0.8,3-1.9,3H114c-1,0-1.9-1.4-1.9-3v-26.9c0-1.7,0.8-3,1.9-3
							H202.1 M202.1,212.1H114c-1.3,0-2.4,1.5-2.4,3.5v26.9c0,2,1,3.5,2.4,3.5h88.1c1.3,0,2.4-1.5,2.4-3.5v-26.9
							C204.5,213.6,203.4,212.1,202.1,212.1L202.1,212.1z"/>
					</g>
				</g>
				<g>
					<path class="st20" d="M203.1,241.1c0,1.6-0.8,2.9-1.8,2.9h-86.5c-1,0-1.8-1.3-1.8-2.9v-24.2c0-1.6,0.8-2.9,1.8-2.9h86.5
						c1,0,1.8,1.3,1.8,2.9V241.1z"/>
					<g>
						<linearGradient id="SVGID_7_" gradientUnits="userSpaceOnUse" x1="158.0526" y1="197.8768" x2="158.0526" y2="220.6747">
							<stop  offset="0" style="stop-color:#39B98F"/>
							<stop  offset="1" style="stop-color:#6BC297;stop-opacity:0"/>
						</linearGradient>
						<path class="st21" d="M203.1,241.1c0,1.6-0.8,2.9-1.8,2.9h-86.5c-1,0-1.8-1.3-1.8-2.9v-24.2c0-1.6,0.8-2.9,1.8-2.9h86.5
							c1,0,1.8,1.3,1.8,2.9V241.1z"/>
						<linearGradient id="SVGID_8_" gradientUnits="userSpaceOnUse" x1="158.0526" y1="260.2095" x2="158.0526" y2="232.1526">
							<stop  offset="0" style="stop-color:#00A787"/>
							<stop  offset="1" style="stop-color:#00B298;stop-opacity:0"/>
						</linearGradient>
						<path class="st22" d="M203.1,241.1c0,1.6-0.8,2.9-1.8,2.9h-86.5c-1,0-1.8-1.3-1.8-2.9v-24.2c0-1.6,0.8-2.9,1.8-2.9h86.5
							c1,0,1.8,1.3,1.8,2.9V241.1z"/>
						
							<radialGradient id="SVGID_9_" cx="295.7428" cy="160.5325" r="96.7604" gradientTransform="matrix(0.622 0 0 1 31.415 0)" gradientUnits="userSpaceOnUse">
							<stop  offset="0" style="stop-color:#00B292"/>
							<stop  offset="1" style="stop-color:#00A793;stop-opacity:0"/>
						</radialGradient>
						<path class="st23" d="M203.1,241.1c0,1.6-0.8,2.9-1.8,2.9h-86.5c-1,0-1.8-1.3-1.8-2.9v-24.2c0-1.6,0.8-2.9,1.8-2.9h86.5
							c1,0,1.8,1.3,1.8,2.9V241.1z"/>
						
							<radialGradient id="SVGID_10_" cx="105.0853" cy="233.0253" r="36.8216" gradientTransform="matrix(0.622 0 0 1 31.415 0)" gradientUnits="userSpaceOnUse">
							<stop  offset="0" style="stop-color:#2BB89B;stop-opacity:0.96"/>
							<stop  offset="1" style="stop-color:#3AB88D;stop-opacity:0"/>
						</radialGradient>
						<path class="st24" d="M203.1,241.1c0,1.6-0.8,2.9-1.8,2.9h-86.5c-1,0-1.8-1.3-1.8-2.9v-24.2c0-1.6,0.8-2.9,1.8-2.9h86.5
							c1,0,1.8,1.3,1.8,2.9V241.1z"/>
						
							<radialGradient id="SVGID_11_" cx="301.7742" cy="231.3777" r="39.5512" gradientTransform="matrix(0.622 0 0 1 31.415 0)" gradientUnits="userSpaceOnUse">
							<stop  offset="0" style="stop-color:#63B36E"/>
							<stop  offset="1" style="stop-color:#00A67E;stop-opacity:0"/>
						</radialGradient>
						<path class="st25" d="M203.1,241.1c0,1.6-0.8,2.9-1.8,2.9h-86.5c-1,0-1.8-1.3-1.8-2.9v-24.2c0-1.6,0.8-2.9,1.8-2.9h86.5
							c1,0,1.8,1.3,1.8,2.9V241.1z"/>
					</g>
					<g class="st1">
						<linearGradient id="SVGID_12_" gradientUnits="userSpaceOnUse" x1="158.0526" y1="197.8768" x2="158.0526" y2="220.6747">
							<stop  offset="0" style="stop-color:#00ADEE"/>
							<stop  offset="1" style="stop-color:#00ADEE;stop-opacity:0"/>
						</linearGradient>
						<path class="st26" d="M203.1,241.1c0,1.6-0.8,2.9-1.8,2.9h-86.5c-1,0-1.8-1.3-1.8-2.9v-24.2c0-1.6,0.8-2.9,1.8-2.9h86.5
							c1,0,1.8,1.3,1.8,2.9V241.1z"/>
						<linearGradient id="SVGID_13_" gradientUnits="userSpaceOnUse" x1="158.0526" y1="260.2095" x2="158.0526" y2="232.1526">
							<stop  offset="0" style="stop-color:#00ADEE"/>
							<stop  offset="1" style="stop-color:#00ADEE;stop-opacity:0"/>
						</linearGradient>
						<path class="st27" d="M203.1,241.1c0,1.6-0.8,2.9-1.8,2.9h-86.5c-1,0-1.8-1.3-1.8-2.9v-24.2c0-1.6,0.8-2.9,1.8-2.9h86.5
							c1,0,1.8,1.3,1.8,2.9V241.1z"/>
						
							<radialGradient id="SVGID_14_" cx="295.7428" cy="160.5325" r="96.7604" gradientTransform="matrix(0.622 0 0 1 31.415 0)" gradientUnits="userSpaceOnUse">
							<stop  offset="0" style="stop-color:#00ADEE"/>
							<stop  offset="1" style="stop-color:#00ADEE;stop-opacity:0"/>
						</radialGradient>
						<path class="st28" d="M203.1,241.1c0,1.6-0.8,2.9-1.8,2.9h-86.5c-1,0-1.8-1.3-1.8-2.9v-24.2c0-1.6,0.8-2.9,1.8-2.9h86.5
							c1,0,1.8,1.3,1.8,2.9V241.1z"/>
						
							<radialGradient id="SVGID_15_" cx="105.0853" cy="233.0253" r="36.8216" gradientTransform="matrix(0.622 0 0 1 31.415 0)" gradientUnits="userSpaceOnUse">
							<stop  offset="0" style="stop-color:#00ADEE"/>
							<stop  offset="1" style="stop-color:#00ADEE;stop-opacity:0"/>
						</radialGradient>
						<path class="st29" d="M203.1,241.1c0,1.6-0.8,2.9-1.8,2.9h-86.5c-1,0-1.8-1.3-1.8-2.9v-24.2c0-1.6,0.8-2.9,1.8-2.9h86.5
							c1,0,1.8,1.3,1.8,2.9V241.1z"/>
						
							<radialGradient id="SVGID_16_" cx="301.7742" cy="231.3777" r="39.5512" gradientTransform="matrix(0.622 0 0 1 31.415 0)" gradientUnits="userSpaceOnUse">
							<stop  offset="0" style="stop-color:#00ADEE"/>
							<stop  offset="1" style="stop-color:#00ADEE;stop-opacity:0"/>
						</radialGradient>
						<path class="st30" d="M203.1,241.1c0,1.6-0.8,2.9-1.8,2.9h-86.5c-1,0-1.8-1.3-1.8-2.9v-24.2c0-1.6,0.8-2.9,1.8-2.9h86.5
							c1,0,1.8,1.3,1.8,2.9V241.1z"/>
					</g>
				</g>
			</g>
			<rect x="114.3" y="220.3" class="st4" width="87.5" height="20"/>
			<text transform="matrix(1 0 0 1 140.0379 236.342)" class="st5 st9 st31">領取</text>
		</g>
		<g class="st2">
			<g>
				<g>
					<linearGradient id="SVGID_17_" gradientUnits="userSpaceOnUse" x1="233.7339" y1="229.0159" x2="247.8022" y2="229.0159">
						<stop  offset="0" style="stop-color:#25A9E0"/>
						<stop  offset="1" style="stop-color:#FFFFFF;stop-opacity:0"/>
					</linearGradient>
					<path class="st32" d="M329.1,242.5c0,1.7-0.8,3-1.9,3h-88.1c-1,0-1.9-1.4-1.9-3v-26.9c0-1.7,0.8-3,1.9-3h88.1
						c1,0,1.9,1.4,1.9,3V242.5z"/>
					<linearGradient id="SVGID_18_" gradientUnits="userSpaceOnUse" x1="334.4481" y1="229.0159" x2="310.9724" y2="229.0159">
						<stop  offset="0" style="stop-color:#25A9E0"/>
						<stop  offset="1" style="stop-color:#FFFFFF;stop-opacity:0"/>
					</linearGradient>
					<path class="st33" d="M329.1,242.5c0,1.7-0.8,3-1.9,3h-88.1c-1,0-1.9-1.4-1.9-3v-26.9c0-1.7,0.8-3,1.9-3h88.1
						c1,0,1.9,1.4,1.9,3V242.5z"/>
					<linearGradient id="SVGID_19_" gradientUnits="userSpaceOnUse" x1="283.1533" y1="251.8641" x2="283.1533" y2="230.7114">
						<stop  offset="0" style="stop-color:#25A9E0"/>
						<stop  offset="1" style="stop-color:#FFFFFF;stop-opacity:0"/>
					</linearGradient>
					<path class="st34" d="M329.1,242.5c0,1.7-0.8,3-1.9,3h-88.1c-1,0-1.9-1.4-1.9-3v-26.9c0-1.7,0.8-3,1.9-3h88.1
						c1,0,1.9,1.4,1.9,3V242.5z"/>
					<linearGradient id="SVGID_20_" gradientUnits="userSpaceOnUse" x1="283.1533" y1="208.2256" x2="283.1533" y2="218.3323">
						<stop  offset="6.060610e-03" style="stop-color:#25A9E0"/>
						<stop  offset="1" style="stop-color:#FFFFFF;stop-opacity:0"/>
					</linearGradient>
					<path class="st35" d="M329.1,242.5c0,1.7-0.8,3-1.9,3h-88.1c-1,0-1.9-1.4-1.9-3v-26.9c0-1.7,0.8-3,1.9-3h88.1
						c1,0,1.9,1.4,1.9,3V242.5z"/>
					
						<radialGradient id="SVGID_21_" cx="499.2495" cy="209.7503" r="43.9253" gradientTransform="matrix(0.622 0 0 1 31.415 0)" gradientUnits="userSpaceOnUse">
						<stop  offset="0" style="stop-color:#00ADEE"/>
						<stop  offset="1" style="stop-color:#FFFFFF;stop-opacity:0"/>
					</radialGradient>
					<path class="st36" d="M329.1,242.5c0,1.7-0.8,3-1.9,3h-88.1c-1,0-1.9-1.4-1.9-3v-26.9c0-1.7,0.8-3,1.9-3h88.1
						c1,0,1.9,1.4,1.9,3V242.5z"/>
					
						<radialGradient id="SVGID_22_" cx="320.7498" cy="250.7212" r="49.2907" gradientTransform="matrix(0.622 0 0 1 31.415 0)" gradientUnits="userSpaceOnUse">
						<stop  offset="0" style="stop-color:#00ADEE"/>
						<stop  offset="1" style="stop-color:#FFFFFF;stop-opacity:0"/>
					</radialGradient>
					<path class="st37" d="M329.1,242.5c0,1.7-0.8,3-1.9,3h-88.1c-1,0-1.9-1.4-1.9-3v-26.9c0-1.7,0.8-3,1.9-3h88.1
						c1,0,1.9,1.4,1.9,3V242.5z"/>
				</g>
				<g>
					<g>
						<path class="st19" d="M327.2,212.6c1,0,1.9,1.4,1.9,3v26.9c0,1.7-0.8,3-1.9,3h-88.1c-1,0-1.9-1.4-1.9-3v-26.9
							c0-1.7,0.8-3,1.9-3H327.2 M327.2,212.1h-88.1c-1.3,0-2.4,1.5-2.4,3.5v26.9c0,2,1,3.5,2.4,3.5h88.1c1.3,0,2.4-1.5,2.4-3.5
							v-26.9C329.6,213.6,328.5,212.1,327.2,212.1L327.2,212.1z"/>
					</g>
					<g>
						<path class="st19" d="M327.2,212.6c1,0,1.9,1.4,1.9,3v26.9c0,1.7-0.8,3-1.9,3h-88.1c-1,0-1.9-1.4-1.9-3v-26.9
							c0-1.7,0.8-3,1.9-3H327.2 M327.2,212.1h-88.1c-1.3,0-2.4,1.5-2.4,3.5v26.9c0,2,1,3.5,2.4,3.5h88.1c1.3,0,2.4-1.5,2.4-3.5
							v-26.9C329.6,213.6,328.5,212.1,327.2,212.1L327.2,212.1z"/>
					</g>
					<g>
						<path class="st19" d="M327.2,212.6c1,0,1.9,1.4,1.9,3v26.9c0,1.7-0.8,3-1.9,3h-88.1c-1,0-1.9-1.4-1.9-3v-26.9
							c0-1.7,0.8-3,1.9-3H327.2 M327.2,212.1h-88.1c-1.3,0-2.4,1.5-2.4,3.5v26.9c0,2,1,3.5,2.4,3.5h88.1c1.3,0,2.4-1.5,2.4-3.5
							v-26.9C329.6,213.6,328.5,212.1,327.2,212.1L327.2,212.1z"/>
					</g>
					<g>
						<path class="st19" d="M327.2,212.6c1,0,1.9,1.4,1.9,3v26.9c0,1.7-0.8,3-1.9,3h-88.1c-1,0-1.9-1.4-1.9-3v-26.9
							c0-1.7,0.8-3,1.9-3H327.2 M327.2,212.1h-88.1c-1.3,0-2.4,1.5-2.4,3.5v26.9c0,2,1,3.5,2.4,3.5h88.1c1.3,0,2.4-1.5,2.4-3.5
							v-26.9C329.6,213.6,328.5,212.1,327.2,212.1L327.2,212.1z"/>
					</g>
					<g>
						<path class="st19" d="M327.2,212.6c1,0,1.9,1.4,1.9,3v26.9c0,1.7-0.8,3-1.9,3h-88.1c-1,0-1.9-1.4-1.9-3v-26.9
							c0-1.7,0.8-3,1.9-3H327.2 M327.2,212.1h-88.1c-1.3,0-2.4,1.5-2.4,3.5v26.9c0,2,1,3.5,2.4,3.5h88.1c1.3,0,2.4-1.5,2.4-3.5
							v-26.9C329.6,213.6,328.5,212.1,327.2,212.1L327.2,212.1z"/>
					</g>
					<g>
						<path class="st19" d="M327.2,212.6c1,0,1.9,1.4,1.9,3v26.9c0,1.7-0.8,3-1.9,3h-88.1c-1,0-1.9-1.4-1.9-3v-26.9
							c0-1.7,0.8-3,1.9-3H327.2 M327.2,212.1h-88.1c-1.3,0-2.4,1.5-2.4,3.5v26.9c0,2,1,3.5,2.4,3.5h88.1c1.3,0,2.4-1.5,2.4-3.5
							v-26.9C329.6,213.6,328.5,212.1,327.2,212.1L327.2,212.1z"/>
					</g>
				</g>
				<g>
					<path class="st20" d="M328.2,241.1c0,1.6-0.8,2.9-1.8,2.9h-86.5c-1,0-1.8-1.3-1.8-2.9v-24.2c0-1.6,0.8-2.9,1.8-2.9h86.5
						c1,0,1.8,1.3,1.8,2.9V241.1z"/>
					<g>
						<linearGradient id="SVGID_23_" gradientUnits="userSpaceOnUse" x1="283.1682" y1="197.8768" x2="283.1682" y2="220.6747">
							<stop  offset="0" style="stop-color:#39B98F"/>
							<stop  offset="1" style="stop-color:#6BC297;stop-opacity:0"/>
						</linearGradient>
						<path class="st38" d="M328.2,241.1c0,1.6-0.8,2.9-1.8,2.9h-86.5c-1,0-1.8-1.3-1.8-2.9v-24.2c0-1.6,0.8-2.9,1.8-2.9h86.5
							c1,0,1.8,1.3,1.8,2.9V241.1z"/>
						<linearGradient id="SVGID_24_" gradientUnits="userSpaceOnUse" x1="283.1682" y1="260.2095" x2="283.1682" y2="232.1526">
							<stop  offset="0" style="stop-color:#00A787"/>
							<stop  offset="1" style="stop-color:#00B298;stop-opacity:0"/>
						</linearGradient>
						<path class="st39" d="M328.2,241.1c0,1.6-0.8,2.9-1.8,2.9h-86.5c-1,0-1.8-1.3-1.8-2.9v-24.2c0-1.6,0.8-2.9,1.8-2.9h86.5
							c1,0,1.8,1.3,1.8,2.9V241.1z"/>
						
							<radialGradient id="SVGID_25_" cx="496.8934" cy="160.5325" r="96.7604" gradientTransform="matrix(0.622 0 0 1 31.415 0)" gradientUnits="userSpaceOnUse">
							<stop  offset="0" style="stop-color:#00B292"/>
							<stop  offset="1" style="stop-color:#00A793;stop-opacity:0"/>
						</radialGradient>
						<path class="st40" d="M328.2,241.1c0,1.6-0.8,2.9-1.8,2.9h-86.5c-1,0-1.8-1.3-1.8-2.9v-24.2c0-1.6,0.8-2.9,1.8-2.9h86.5
							c1,0,1.8,1.3,1.8,2.9V241.1z"/>
						
							<radialGradient id="SVGID_26_" cx="306.2359" cy="233.0253" r="36.8216" gradientTransform="matrix(0.622 0 0 1 31.415 0)" gradientUnits="userSpaceOnUse">
							<stop  offset="0" style="stop-color:#2BB89B;stop-opacity:0.96"/>
							<stop  offset="1" style="stop-color:#3AB88D;stop-opacity:0"/>
						</radialGradient>
						<path class="st41" d="M328.2,241.1c0,1.6-0.8,2.9-1.8,2.9h-86.5c-1,0-1.8-1.3-1.8-2.9v-24.2c0-1.6,0.8-2.9,1.8-2.9h86.5
							c1,0,1.8,1.3,1.8,2.9V241.1z"/>
						
							<radialGradient id="SVGID_27_" cx="502.9248" cy="231.3777" r="39.5512" gradientTransform="matrix(0.622 0 0 1 31.415 0)" gradientUnits="userSpaceOnUse">
							<stop  offset="0" style="stop-color:#63B36E"/>
							<stop  offset="1" style="stop-color:#00A67E;stop-opacity:0"/>
						</radialGradient>
						<path class="st42" d="M328.2,241.1c0,1.6-0.8,2.9-1.8,2.9h-86.5c-1,0-1.8-1.3-1.8-2.9v-24.2c0-1.6,0.8-2.9,1.8-2.9h86.5
							c1,0,1.8,1.3,1.8,2.9V241.1z"/>
					</g>
					<g class="st1">
						<linearGradient id="SVGID_28_" gradientUnits="userSpaceOnUse" x1="283.1682" y1="197.8768" x2="283.1682" y2="220.6747">
							<stop  offset="0" style="stop-color:#00ADEE"/>
							<stop  offset="1" style="stop-color:#00ADEE;stop-opacity:0"/>
						</linearGradient>
						<path class="st43" d="M328.2,241.1c0,1.6-0.8,2.9-1.8,2.9h-86.5c-1,0-1.8-1.3-1.8-2.9v-24.2c0-1.6,0.8-2.9,1.8-2.9h86.5
							c1,0,1.8,1.3,1.8,2.9V241.1z"/>
						<linearGradient id="SVGID_29_" gradientUnits="userSpaceOnUse" x1="283.1682" y1="260.2095" x2="283.1682" y2="232.1526">
							<stop  offset="0" style="stop-color:#00ADEE"/>
							<stop  offset="1" style="stop-color:#00ADEE;stop-opacity:0"/>
						</linearGradient>
						<path class="st44" d="M328.2,241.1c0,1.6-0.8,2.9-1.8,2.9h-86.5c-1,0-1.8-1.3-1.8-2.9v-24.2c0-1.6,0.8-2.9,1.8-2.9h86.5
							c1,0,1.8,1.3,1.8,2.9V241.1z"/>
						
							<radialGradient id="SVGID_30_" cx="496.8934" cy="160.5325" r="96.7604" gradientTransform="matrix(0.622 0 0 1 31.415 0)" gradientUnits="userSpaceOnUse">
							<stop  offset="0" style="stop-color:#00ADEE"/>
							<stop  offset="1" style="stop-color:#00ADEE;stop-opacity:0"/>
						</radialGradient>
						<path class="st45" d="M328.2,241.1c0,1.6-0.8,2.9-1.8,2.9h-86.5c-1,0-1.8-1.3-1.8-2.9v-24.2c0-1.6,0.8-2.9,1.8-2.9h86.5
							c1,0,1.8,1.3,1.8,2.9V241.1z"/>
						
							<radialGradient id="SVGID_31_" cx="306.2359" cy="233.0253" r="36.8216" gradientTransform="matrix(0.622 0 0 1 31.415 0)" gradientUnits="userSpaceOnUse">
							<stop  offset="0" style="stop-color:#00ADEE"/>
							<stop  offset="1" style="stop-color:#00ADEE;stop-opacity:0"/>
						</radialGradient>
						<path class="st46" d="M328.2,241.1c0,1.6-0.8,2.9-1.8,2.9h-86.5c-1,0-1.8-1.3-1.8-2.9v-24.2c0-1.6,0.8-2.9,1.8-2.9h86.5
							c1,0,1.8,1.3,1.8,2.9V241.1z"/>
						
							<radialGradient id="SVGID_32_" cx="502.9248" cy="231.3777" r="39.5512" gradientTransform="matrix(0.622 0 0 1 31.415 0)" gradientUnits="userSpaceOnUse">
							<stop  offset="0" style="stop-color:#00ADEE"/>
							<stop  offset="1" style="stop-color:#00ADEE;stop-opacity:0"/>
						</radialGradient>
						<path class="st47" d="M328.2,241.1c0,1.6-0.8,2.9-1.8,2.9h-86.5c-1,0-1.8-1.3-1.8-2.9v-24.2c0-1.6,0.8-2.9,1.8-2.9h86.5
							c1,0,1.8,1.3,1.8,2.9V241.1z"/>
					</g>
				</g>
			</g>
			<rect x="239.4" y="220.3" class="st4" width="87.5" height="20"/>
			<text transform="matrix(1 0 0 1 265.1536 236.342)" class="st5 st9 st31">贈送</text>
		</g>
	</g>
	<g class="st1">
		<g class="st2">
			<g>
				<linearGradient id="SVGID_33_" gradientUnits="userSpaceOnUse" x1="172.5643" y1="229.0159" x2="186.6326" y2="229.0159">
					<stop  offset="0" style="stop-color:#25A9E0"/>
					<stop  offset="1" style="stop-color:#FFFFFF;stop-opacity:0"/>
				</linearGradient>
				<path class="st48" d="M267.9,242.5c0,1.7-0.8,3-1.9,3h-88.1c-1,0-1.9-1.4-1.9-3v-26.9c0-1.7,0.8-3,1.9-3H266c1,0,1.9,1.4,1.9,3
					V242.5z"/>
				<linearGradient id="SVGID_34_" gradientUnits="userSpaceOnUse" x1="273.2785" y1="229.0159" x2="249.8028" y2="229.0159">
					<stop  offset="0" style="stop-color:#25A9E0"/>
					<stop  offset="1" style="stop-color:#FFFFFF;stop-opacity:0"/>
				</linearGradient>
				<path class="st49" d="M267.9,242.5c0,1.7-0.8,3-1.9,3h-88.1c-1,0-1.9-1.4-1.9-3v-26.9c0-1.7,0.8-3,1.9-3H266c1,0,1.9,1.4,1.9,3
					V242.5z"/>
				<linearGradient id="SVGID_35_" gradientUnits="userSpaceOnUse" x1="221.9836" y1="251.8641" x2="221.9836" y2="230.7114">
					<stop  offset="0" style="stop-color:#25A9E0"/>
					<stop  offset="1" style="stop-color:#FFFFFF;stop-opacity:0"/>
				</linearGradient>
				<path class="st50" d="M267.9,242.5c0,1.7-0.8,3-1.9,3h-88.1c-1,0-1.9-1.4-1.9-3v-26.9c0-1.7,0.8-3,1.9-3H266c1,0,1.9,1.4,1.9,3
					V242.5z"/>
				<linearGradient id="SVGID_36_" gradientUnits="userSpaceOnUse" x1="221.9836" y1="208.2256" x2="221.9836" y2="218.3323">
					<stop  offset="6.060610e-03" style="stop-color:#25A9E0"/>
					<stop  offset="1" style="stop-color:#FFFFFF;stop-opacity:0"/>
				</linearGradient>
				<path class="st51" d="M267.9,242.5c0,1.7-0.8,3-1.9,3h-88.1c-1,0-1.9-1.4-1.9-3v-26.9c0-1.7,0.8-3,1.9-3H266c1,0,1.9,1.4,1.9,3
					V242.5z"/>
				
					<radialGradient id="SVGID_37_" cx="400.9061" cy="209.7503" r="43.9253" gradientTransform="matrix(0.622 0 0 1 31.415 0)" gradientUnits="userSpaceOnUse">
					<stop  offset="0" style="stop-color:#00ADEE"/>
					<stop  offset="1" style="stop-color:#FFFFFF;stop-opacity:0"/>
				</radialGradient>
				<path class="st52" d="M267.9,242.5c0,1.7-0.8,3-1.9,3h-88.1c-1,0-1.9-1.4-1.9-3v-26.9c0-1.7,0.8-3,1.9-3H266c1,0,1.9,1.4,1.9,3
					V242.5z"/>
				
					<radialGradient id="SVGID_38_" cx="222.4064" cy="250.7212" r="49.2906" gradientTransform="matrix(0.622 0 0 1 31.415 0)" gradientUnits="userSpaceOnUse">
					<stop  offset="0" style="stop-color:#00ADEE"/>
					<stop  offset="1" style="stop-color:#FFFFFF;stop-opacity:0"/>
				</radialGradient>
				<path class="st53" d="M267.9,242.5c0,1.7-0.8,3-1.9,3h-88.1c-1,0-1.9-1.4-1.9-3v-26.9c0-1.7,0.8-3,1.9-3H266c1,0,1.9,1.4,1.9,3
					V242.5z"/>
			</g>
			<g>
				<g>
					<path class="st19" d="M266,212.6c1,0,1.9,1.4,1.9,3v26.9c0,1.7-0.8,3-1.9,3h-88.1c-1,0-1.9-1.4-1.9-3v-26.9c0-1.7,0.8-3,1.9-3
						H266 M266,212.1h-88.1c-1.3,0-2.4,1.5-2.4,3.5v26.9c0,2,1,3.5,2.4,3.5H266c1.3,0,2.4-1.5,2.4-3.5v-26.9
						C268.4,213.6,267.4,212.1,266,212.1L266,212.1z"/>
				</g>
				<g>
					<path class="st19" d="M266,212.6c1,0,1.9,1.4,1.9,3v26.9c0,1.7-0.8,3-1.9,3h-88.1c-1,0-1.9-1.4-1.9-3v-26.9c0-1.7,0.8-3,1.9-3
						H266 M266,212.1h-88.1c-1.3,0-2.4,1.5-2.4,3.5v26.9c0,2,1,3.5,2.4,3.5H266c1.3,0,2.4-1.5,2.4-3.5v-26.9
						C268.4,213.6,267.4,212.1,266,212.1L266,212.1z"/>
				</g>
				<g>
					<path class="st19" d="M266,212.6c1,0,1.9,1.4,1.9,3v26.9c0,1.7-0.8,3-1.9,3h-88.1c-1,0-1.9-1.4-1.9-3v-26.9c0-1.7,0.8-3,1.9-3
						H266 M266,212.1h-88.1c-1.3,0-2.4,1.5-2.4,3.5v26.9c0,2,1,3.5,2.4,3.5H266c1.3,0,2.4-1.5,2.4-3.5v-26.9
						C268.4,213.6,267.4,212.1,266,212.1L266,212.1z"/>
				</g>
				<g>
					<path class="st19" d="M266,212.6c1,0,1.9,1.4,1.9,3v26.9c0,1.7-0.8,3-1.9,3h-88.1c-1,0-1.9-1.4-1.9-3v-26.9c0-1.7,0.8-3,1.9-3
						H266 M266,212.1h-88.1c-1.3,0-2.4,1.5-2.4,3.5v26.9c0,2,1,3.5,2.4,3.5H266c1.3,0,2.4-1.5,2.4-3.5v-26.9
						C268.4,213.6,267.4,212.1,266,212.1L266,212.1z"/>
				</g>
				<g>
					<path class="st19" d="M266,212.6c1,0,1.9,1.4,1.9,3v26.9c0,1.7-0.8,3-1.9,3h-88.1c-1,0-1.9-1.4-1.9-3v-26.9c0-1.7,0.8-3,1.9-3
						H266 M266,212.1h-88.1c-1.3,0-2.4,1.5-2.4,3.5v26.9c0,2,1,3.5,2.4,3.5H266c1.3,0,2.4-1.5,2.4-3.5v-26.9
						C268.4,213.6,267.4,212.1,266,212.1L266,212.1z"/>
				</g>
				<g>
					<path class="st19" d="M266,212.6c1,0,1.9,1.4,1.9,3v26.9c0,1.7-0.8,3-1.9,3h-88.1c-1,0-1.9-1.4-1.9-3v-26.9c0-1.7,0.8-3,1.9-3
						H266 M266,212.1h-88.1c-1.3,0-2.4,1.5-2.4,3.5v26.9c0,2,1,3.5,2.4,3.5H266c1.3,0,2.4-1.5,2.4-3.5v-26.9
						C268.4,213.6,267.4,212.1,266,212.1L266,212.1z"/>
				</g>
			</g>
			<g>
				<path class="st20" d="M267,241.1c0,1.6-0.8,2.9-1.8,2.9h-86.5c-1,0-1.8-1.3-1.8-2.9v-24.2c0-1.6,0.8-2.9,1.8-2.9h86.5
					c1,0,1.8,1.3,1.8,2.9V241.1z"/>
				<g>
					<linearGradient id="SVGID_39_" gradientUnits="userSpaceOnUse" x1="221.9986" y1="197.8768" x2="221.9986" y2="220.6747">
						<stop  offset="0" style="stop-color:#39B98F"/>
						<stop  offset="1" style="stop-color:#6BC297;stop-opacity:0"/>
					</linearGradient>
					<path class="st54" d="M267,241.1c0,1.6-0.8,2.9-1.8,2.9h-86.5c-1,0-1.8-1.3-1.8-2.9v-24.2c0-1.6,0.8-2.9,1.8-2.9h86.5
						c1,0,1.8,1.3,1.8,2.9V241.1z"/>
					<linearGradient id="SVGID_40_" gradientUnits="userSpaceOnUse" x1="221.9986" y1="260.2095" x2="221.9986" y2="232.1526">
						<stop  offset="0" style="stop-color:#00A787"/>
						<stop  offset="1" style="stop-color:#00B298;stop-opacity:0"/>
					</linearGradient>
					<path class="st55" d="M267,241.1c0,1.6-0.8,2.9-1.8,2.9h-86.5c-1,0-1.8-1.3-1.8-2.9v-24.2c0-1.6,0.8-2.9,1.8-2.9h86.5
						c1,0,1.8,1.3,1.8,2.9V241.1z"/>
					
						<radialGradient id="SVGID_41_" cx="398.55" cy="160.5325" r="96.7604" gradientTransform="matrix(0.622 0 0 1 31.415 0)" gradientUnits="userSpaceOnUse">
						<stop  offset="0" style="stop-color:#00B292"/>
						<stop  offset="1" style="stop-color:#00A793;stop-opacity:0"/>
					</radialGradient>
					<path class="st56" d="M267,241.1c0,1.6-0.8,2.9-1.8,2.9h-86.5c-1,0-1.8-1.3-1.8-2.9v-24.2c0-1.6,0.8-2.9,1.8-2.9h86.5
						c1,0,1.8,1.3,1.8,2.9V241.1z"/>
					
						<radialGradient id="SVGID_42_" cx="207.8925" cy="233.0253" r="36.8216" gradientTransform="matrix(0.622 0 0 1 31.415 0)" gradientUnits="userSpaceOnUse">
						<stop  offset="0" style="stop-color:#2BB89B;stop-opacity:0.96"/>
						<stop  offset="1" style="stop-color:#3AB88D;stop-opacity:0"/>
					</radialGradient>
					<path class="st57" d="M267,241.1c0,1.6-0.8,2.9-1.8,2.9h-86.5c-1,0-1.8-1.3-1.8-2.9v-24.2c0-1.6,0.8-2.9,1.8-2.9h86.5
						c1,0,1.8,1.3,1.8,2.9V241.1z"/>
					
						<radialGradient id="SVGID_43_" cx="404.5814" cy="231.3777" r="39.5512" gradientTransform="matrix(0.622 0 0 1 31.415 0)" gradientUnits="userSpaceOnUse">
						<stop  offset="0" style="stop-color:#63B36E"/>
						<stop  offset="1" style="stop-color:#00A67E;stop-opacity:0"/>
					</radialGradient>
					<path class="st58" d="M267,241.1c0,1.6-0.8,2.9-1.8,2.9h-86.5c-1,0-1.8-1.3-1.8-2.9v-24.2c0-1.6,0.8-2.9,1.8-2.9h86.5
						c1,0,1.8,1.3,1.8,2.9V241.1z"/>
				</g>
				<g class="st1">
					<linearGradient id="SVGID_44_" gradientUnits="userSpaceOnUse" x1="221.9986" y1="197.8768" x2="221.9986" y2="220.6747">
						<stop  offset="0" style="stop-color:#00ADEE"/>
						<stop  offset="1" style="stop-color:#00ADEE;stop-opacity:0"/>
					</linearGradient>
					<path class="st59" d="M267,241.1c0,1.6-0.8,2.9-1.8,2.9h-86.5c-1,0-1.8-1.3-1.8-2.9v-24.2c0-1.6,0.8-2.9,1.8-2.9h86.5
						c1,0,1.8,1.3,1.8,2.9V241.1z"/>
					<linearGradient id="SVGID_45_" gradientUnits="userSpaceOnUse" x1="221.9986" y1="260.2095" x2="221.9986" y2="232.1526">
						<stop  offset="0" style="stop-color:#00ADEE"/>
						<stop  offset="1" style="stop-color:#00ADEE;stop-opacity:0"/>
					</linearGradient>
					<path class="st60" d="M267,241.1c0,1.6-0.8,2.9-1.8,2.9h-86.5c-1,0-1.8-1.3-1.8-2.9v-24.2c0-1.6,0.8-2.9,1.8-2.9h86.5
						c1,0,1.8,1.3,1.8,2.9V241.1z"/>
					
						<radialGradient id="SVGID_46_" cx="398.55" cy="160.5325" r="96.7604" gradientTransform="matrix(0.622 0 0 1 31.415 0)" gradientUnits="userSpaceOnUse">
						<stop  offset="0" style="stop-color:#00ADEE"/>
						<stop  offset="1" style="stop-color:#00ADEE;stop-opacity:0"/>
					</radialGradient>
					<path class="st61" d="M267,241.1c0,1.6-0.8,2.9-1.8,2.9h-86.5c-1,0-1.8-1.3-1.8-2.9v-24.2c0-1.6,0.8-2.9,1.8-2.9h86.5
						c1,0,1.8,1.3,1.8,2.9V241.1z"/>
					
						<radialGradient id="SVGID_47_" cx="207.8925" cy="233.0253" r="36.8216" gradientTransform="matrix(0.622 0 0 1 31.415 0)" gradientUnits="userSpaceOnUse">
						<stop  offset="0" style="stop-color:#00ADEE"/>
						<stop  offset="1" style="stop-color:#00ADEE;stop-opacity:0"/>
					</radialGradient>
					<path class="st62" d="M267,241.1c0,1.6-0.8,2.9-1.8,2.9h-86.5c-1,0-1.8-1.3-1.8-2.9v-24.2c0-1.6,0.8-2.9,1.8-2.9h86.5
						c1,0,1.8,1.3,1.8,2.9V241.1z"/>
					
						<radialGradient id="SVGID_48_" cx="404.5814" cy="231.3777" r="39.5512" gradientTransform="matrix(0.622 0 0 1 31.415 0)" gradientUnits="userSpaceOnUse">
						<stop  offset="0" style="stop-color:#00ADEE"/>
						<stop  offset="1" style="stop-color:#00ADEE;stop-opacity:0"/>
					</radialGradient>
					<path class="st63" d="M267,241.1c0,1.6-0.8,2.9-1.8,2.9h-86.5c-1,0-1.8-1.3-1.8-2.9v-24.2c0-1.6,0.8-2.9,1.8-2.9h86.5
						c1,0,1.8,1.3,1.8,2.9V241.1z"/>
				</g>
			</g>
		</g>
		<rect x="178.2" y="220.3" class="st64" width="87.5" height="20"/>
		<text transform="matrix(1 0 0 1 203.9839 236.342)" class="st65 st9 st31">領取</text>
	</g>
</g>
<g>
	<g>
		<g>
			<path class="st66" d="M446.3,250.6c0,6.6-5.4,12-12,12H13.5c-6.6,0-12-5.4-12-12V33.1c0-6.6,5.4-12,12-12h420.8
				c6.6,0,12,5.4,12,12V250.6z"/>
			<radialGradient id="SVGID_49_" cx="234.4819" cy="371.003" r="428.8308" gradientUnits="userSpaceOnUse">
				<stop  offset="0" style="stop-color:#00ADEE"/>
				<stop  offset="1" style="stop-color:#00ADEE;stop-opacity:0"/>
			</radialGradient>
			<path class="st67" d="M447.6,249.5c0,6.6-5.4,12-12,12H14.8c-6.6,0-12-5.4-12-12V32c0-6.6,5.4-12,12-12h420.8c6.6,0,12,5.4,12,12
				V249.5z"/>
			<rect x="24" y="19.4" class="st68" width="398.4" height="4.6"/>
			<rect x="24" y="261.2" class="st68" width="400.4" height="4.6"/>
			<path class="st69" d="M24,265.8H12.2c-6.6,0-12-5.4-12-12V44.9l2.7-2.3c0-6.6,0.4-16,9.3-16h12.2v-5.6H12.2c-6.6,0-12,5.4-12,12
				v6.2v208.9c0,6.6,5.4,12,12,12H24V265.8z"/>
			<path class="st70" d="M24,259.6H13.5c-6.6,0-12-5.4-12-12V39.4v-6.2c0-6.6,5.4-12,12-12h10.9"/>
			<path class="st69" d="M422.4,265.8h11.9c6.6,0,12-5.4,12-12V44.9l-2.7-2.3c0-6.6-0.4-16-9.3-16h-12.2v-5.6h12.2
				c6.6,0,12,5.4,12,12v6.2v208.9c0,6.6-5.4,12-12,12h-11.9V265.8z"/>
			<path class="st70" d="M422.4,259.6h10.5c6.6,0,12-5.4,12-12V39.4v-6.2c0-6.6-5.4-12-12-12h-10.9"/>
			<g>
				
					<image style="overflow:visible;" width="519" height="315" xlink:href="9C051113.png"  transform="matrix(1 0 0 1 -36.0303 -17.1228)">
				</image>
			</g>
			<g>
				
					<image style="overflow:visible;" width="519" height="315" xlink:href="9C051111.png"  transform="matrix(1 0 0 1 -36.0303 -17.1228)">
				</image>
			</g>
		</g>
		<g class="st71">
			<line class="st72" x1="1.5" y1="19.4" x2="444.9" y2="19.4"/>
			<line class="st72" x1="1.5" y1="24.1" x2="444.9" y2="24.1"/>
			<line class="st72" x1="1.5" y1="28.5" x2="444.9" y2="28.5"/>
			<line class="st72" x1="1.5" y1="33.2" x2="444.9" y2="33.2"/>
			<line class="st72" x1="1.5" y1="37.9" x2="444.9" y2="37.9"/>
			<line class="st72" x1="1.5" y1="42.6" x2="444.9" y2="42.6"/>
			<line class="st72" x1="1.5" y1="47" x2="444.9" y2="47"/>
			<line class="st72" x1="1.5" y1="51.7" x2="444.9" y2="51.7"/>
			<line class="st72" x1="1.5" y1="56.5" x2="444.9" y2="56.5"/>
			<line class="st72" x1="1.5" y1="65.5" x2="444.9" y2="65.5"/>
			<line class="st72" x1="1.5" y1="60.7" x2="444.9" y2="60.7"/>
			<line class="st72" x1="1.5" y1="70.2" x2="444.9" y2="70.2"/>
			<line class="st72" x1="1.5" y1="75" x2="444.9" y2="75"/>
			<line class="st72" x1="1.5" y1="79.7" x2="444.9" y2="79.7"/>
			<line class="st72" x1="1.5" y1="84.1" x2="444.9" y2="84.1"/>
			<line class="st72" x1="1.5" y1="88.8" x2="444.9" y2="88.8"/>
			<line class="st72" x1="1.5" y1="93.7" x2="444.9" y2="93.7"/>
			<line class="st72" x1="1.5" y1="98.4" x2="444.9" y2="98.4"/>
			<line class="st72" x1="1.5" y1="102.7" x2="444.9" y2="102.7"/>
			<line class="st72" x1="1.5" y1="107.4" x2="444.9" y2="107.4"/>
			<line class="st72" x1="1.5" y1="112.2" x2="444.9" y2="112.2"/>
			<line class="st72" x1="1.5" y1="116.9" x2="444.9" y2="116.9"/>
			<line class="st72" x1="1.5" y1="121.3" x2="444.9" y2="121.3"/>
			<line class="st72" x1="1.5" y1="126" x2="444.9" y2="126"/>
			<line class="st72" x1="1.5" y1="130.7" x2="444.9" y2="130.7"/>
			<line class="st72" x1="1.5" y1="135.4" x2="444.9" y2="135.4"/>
			<line class="st72" x1="1.5" y1="139.8" x2="444.9" y2="139.8"/>
			<line class="st72" x1="1.5" y1="144.5" x2="444.9" y2="144.5"/>
			<line class="st72" x1="1.5" y1="149.3" x2="444.9" y2="149.3"/>
			<line class="st72" x1="1.5" y1="154" x2="444.9" y2="154"/>
			<line class="st72" x1="1.5" y1="158.3" x2="444.9" y2="158.3"/>
			<line class="st72" x1="1.5" y1="163.1" x2="444.9" y2="163.1"/>
			<line class="st72" x1="1.5" y1="167.2" x2="444.9" y2="167.2"/>
			<line class="st72" x1="1.5" y1="171.6" x2="444.9" y2="171.6"/>
			<line class="st72" x1="1.5" y1="176.3" x2="444.9" y2="176.3"/>
			<line class="st72" x1="1.5" y1="181.1" x2="444.9" y2="181.1"/>
			<line class="st72" x1="1.5" y1="185.8" x2="444.9" y2="185.8"/>
			<line class="st72" x1="1.5" y1="190.2" x2="444.9" y2="190.2"/>
			<line class="st72" x1="1.5" y1="194.9" x2="444.9" y2="194.9"/>
			<line class="st72" x1="1.5" y1="199.6" x2="444.9" y2="199.6"/>
			<line class="st72" x1="1.5" y1="203.8" x2="444.9" y2="203.8"/>
			<line class="st72" x1="1.5" y1="208.5" x2="444.9" y2="208.5"/>
			<line class="st72" x1="1.5" y1="212.9" x2="444.9" y2="212.9"/>
			<line class="st72" x1="1.5" y1="217.6" x2="444.9" y2="217.6"/>
			<line class="st72" x1="1.5" y1="222.3" x2="444.9" y2="222.3"/>
			<line class="st72" x1="1.5" y1="227" x2="444.9" y2="227"/>
			<line class="st72" x1="1.5" y1="231.4" x2="444.9" y2="231.4"/>
			<line class="st72" x1="1.5" y1="236.1" x2="444.9" y2="236.1"/>
			<line class="st72" x1="1.5" y1="240.3" x2="444.9" y2="240.3"/>
			<line class="st72" x1="1.5" y1="244.7" x2="444.9" y2="244.7"/>
			<line class="st72" x1="1.5" y1="249.4" x2="444.9" y2="249.4"/>
			<line class="st72" x1="1.5" y1="254.1" x2="444.9" y2="254.1"/>
			<line class="st72" x1="1.5" y1="258.8" x2="444.9" y2="258.8"/>
			<line class="st72" x1="1.5" y1="263.2" x2="444.9" y2="263.2"/>
		</g>
	</g>
	<radialGradient id="SVGID_50_" cx="263.5254" cy="57.3062" r="134.1495" gradientUnits="userSpaceOnUse">
		<stop  offset="0" style="stop-color:#11588E"/>
		<stop  offset="1" style="stop-color:#009AD4"/>
	</radialGradient>
	<path class="st73" d="M293.1,36.8H152.8c-2,0-3.6-1.6-3.6-3.6V4.1c0-2,1.6-3.6,3.6-3.6h140.3c2,0,3.6,1.6,3.6,3.6v29.1
		C296.8,35.2,295.1,36.8,293.1,36.8z"/>
	<rect x="149.2" y="8.3" class="st4" width="148" height="25.6"/>
	<text transform="matrix(1 0 0 1 202.1689 26.9828)" class="st5 st9 st74">分享</text>
</g>
</svg>
