<?xml version="1.0" encoding="utf-8"?>
<!-- Generator: Adobe Illustrator 21.0.0, SVG Export Plug-In . SVG Version: 6.00 Build 0)  -->
<svg version="1.1" id="圖層_1" xmlns="http://www.w3.org/2000/svg" xmlns:xlink="http://www.w3.org/1999/xlink" x="0px" y="0px"
	 viewBox="0 0 822.9 601.4" style="enable-background:new 0 0 822.9 601.4;" xml:space="preserve">
<style type="text/css">
	.st0{fill:url(#SVGID_1_);}
	.st1{opacity:0.5;fill:#5E4328;}
	.st2{fill:#CCA46B;}
	.st3{fill:#332212;}
	.st4{fill:url(#SVGID_2_);}
</style>
<g>
	<g>
		<linearGradient id="SVGID_1_" gradientUnits="userSpaceOnUse" x1="350.2599" y1="546.3719" x2="446.7281" y2="546.3719">
			<stop  offset="0" style="stop-color:#7F5B37"/>
			<stop  offset="1" style="stop-color:#5E4328"/>
		</linearGradient>
		<path class="st0" d="M446.2,550.9c-0.1-0.2-0.2-0.4-0.4-0.4c0.3-6.7,0.9-21.7,0-29.5l0.1-3.5c0-0.2-0.1-0.5-0.3-0.6
			c-0.2-0.1-0.4-0.2-0.7-0.1c-2.2,0.6-32.7,1.4-40,1.2c-1.2-2.2-3.6-2.4-3.7-2.4c0,0-3.5-0.1-8.2-0.4c-4.7-0.3-6.7,1.5-7,1.8
			c-4.9-0.3-13.5-0.9-15.2-1l0,0c-0.1,0-0.2,0-0.3,0c-1,0.1-1.6,0.8-1.6,0.8c-2.5,2.2-4.9,4.6-7.1,7c-4.6,5-9.5,10.2-11,17.1
			c-2.2,9.4,2.7,21.8,3.5,23.9c-0.3,0.9-1,3.3,0.1,6.7c0.1,0.2,0.3,0.4,0.5,0.5c0.2,0.1,20,5.9,44.5,5.9c2.3,0,4.7-0.1,7.1-0.2
			c29.4-1.4,37.5-10.8,39.6-14.8c0-0.1,0.1-0.2,0.1-0.3C446.3,562.2,447.3,554,446.2,550.9z"/>
		<path class="st1" d="M445.8,550.5c0.3-6.7,0.9-21.7,0-29.5l0.1-3.5c0-0.2-0.1-0.5-0.3-0.6c-0.2-0.1-0.4-0.2-0.7-0.1
			c-0.1,0-0.3,0.1-0.6,0.1l-0.2,1.7l-0.8-0.7c0,0,3.2,36.6-28.6,52.4l12.3,4.5c13.1-3.5,17.6-9,19.1-11.9c0-0.1,0.1-0.2,0.1-0.3
			c0-0.3,1.1-8.5,0-11.6C446.1,550.7,446,550.6,445.8,550.5z"/>
		<path class="st1" d="M444.9,520l0.2-3.3c0,0-0.1,0-0.1,0c-2.2,0.6-32.7,1.4-40,1.2c-1.2-2.2-3.6-2.4-3.7-2.4c0,0-3.5-0.1-8.2-0.4
			c-4.7-0.3-6.7,1.5-7,1.8c-4.9-0.3-13.5-0.9-15.2-1l0,0c-0.1,0-0.2,0-0.3,0h0c0,0,0,0,0,0c-0.7,0-1.2,0.4-1.4,0.7l0.1,0
			C369.2,516.5,381.2,524.9,444.9,520z"/>
		<path class="st2" d="M359.1,528.4c-3.5,3.4-7.5,11.7-8.6,16.1c-1.5,6.6,3.4,15.5,5,20.2L366,567
			C354.9,557.3,354.8,536.8,359.1,528.4z"/>
		<path class="st2" d="M358.4,551.2c0,0-2.5-5,2.7-4.4c5.2,0.6,4.3,1.1,4,3c-0.3,1.9-2.1,4.7-3.2,4.4
			C360.7,553.9,358.4,551.2,358.4,551.2z"/>
		<path class="st2" d="M366.9,549.7c0,0,7.1,3.4,34.3,3.6c0,0-18.9,3.5-35.1-0.1L366.9,549.7z"/>
		<path class="st1" d="M366,567c-11.3-5-14.2-21.3-14.2-21.3l-1.2,1l-0.3,0.4c0.2,7.9,3.4,16,4.1,17.6c-0.3,0.9-1,3.3,0.1,6.7
			c0.1,0.2,0.3,0.4,0.5,0.5c0.1,0,4.1,1.2,10.7,2.5L366,567z"/>
		<path class="st2" d="M435.8,561.5c-0.1,0-0.1-0.1-0.1-0.1c0-0.1-1.5-12.8-7.8-18.7c-7-6.7-15.9-13.3-39.2-14.1
			c-24-0.8-34.6,8.5-34.7,8.6c-0.1,0.1-0.2,0-0.2,0c-0.1-0.1-0.1-0.2,0-0.2c0.1-0.1,10.8-9.5,34.9-8.7c23.4,0.8,32.3,7.4,39.4,14.2
			c6.3,6,7.9,18.8,7.9,18.9C435.9,561.5,435.9,561.5,435.8,561.5C435.8,561.5,435.8,561.5,435.8,561.5z"/>
		<path class="st2" d="M399.9,520.2c0,0-1.9,6.7,0.5,8.2l-3.6-0.7L399.9,520.2z"/>
		<path class="st2" d="M390.1,519.5l-2.8,7.9h-3.5C383.8,527.4,389.6,522.2,390.1,519.5z"/>
		<polygon class="st1" points="391,518.3 400.3,519.2 396.8,527.7 387.3,527.4 		"/>
		<path class="st3" d="M399.4,577.7c-24.5,0-44.3-5.8-44.5-5.9c-0.2-0.1-0.4-0.3-0.5-0.5c-1.3-4.2,0-6.9,0-7c0.2-0.4,0.6-0.5,1-0.3
			c0.4,0.2,0.5,0.6,0.3,1c0,0-1,2.2-0.1,5.5c3.2,0.9,25.2,6.8,50.7,5.6c28.3-1.4,36.2-10,38.3-13.9c0.3-2.4,0.8-8.5,0-10.8
			c-0.1-0.4,0.1-0.8,0.4-1c0.4-0.1,0.8,0.1,1,0.4c1.1,3.1,0.1,11.3,0,11.6c0,0.1,0,0.2-0.1,0.3c-2.1,4-10.3,13.4-39.6,14.8
			C404.1,577.7,401.8,577.7,399.4,577.7z"/>
		<path class="st3" d="M387.4,527.7c-0.1,0-0.2,0-0.3-0.1c-0.4-0.2-0.5-0.6-0.3-1c0.7-1.3,2.5-5,2.6-6.4c0.1-1.1-0.5-1.5-0.8-1.6
			c-3.8-0.1-17.5-1.1-18.1-1.2c-0.4,0-0.7-0.4-0.7-0.8c0-0.4,0.4-0.7,0.8-0.7c0.1,0,14.7,1.1,18.2,1.2c0.1,0,0.2,0,0.2,0
			c0.7,0.3,2,1.3,1.8,3.2c-0.1,2-2.5,6.5-2.7,7C387.9,527.6,387.7,527.7,387.4,527.7z"/>
		<path class="st3" d="M396.8,528.2c-0.1,0-0.2,0-0.3-0.1c-0.4-0.2-0.6-0.6-0.4-1l2.9-7.1c0-0.1,0.9-2.3,5.1-2.1
			c5.2,0.2,38.6-0.6,40.9-1.2c0.2-0.1,0.5,0,0.7,0.1c0.2,0.1,0.3,0.4,0.3,0.6l-0.1,3.9c0,0.4-0.3,0.7-0.8,0.7
			c-0.4,0-0.7-0.4-0.7-0.8l0.1-3c-6.2,0.6-36.2,1.3-40.4,1.1c-3-0.1-3.6,1.1-3.6,1.2l-2.9,7.1C397.4,528,397.1,528.2,396.8,528.2z"
			/>
		<path class="st3" d="M437.5,562.6c-0.2,0-0.5-0.2-0.5-0.4c-1.6-13.2-7-29-34.8-33.1c-33.9-5-47.6,6.5-47.8,6.6
			c-0.2,0.2-0.5,0.2-0.7,0c-0.2-0.2-0.2-0.5,0-0.7c0.6-0.5,14.2-12,48.6-6.8c28.5,4.2,34,20.4,35.6,34
			C438,562.3,437.8,562.6,437.5,562.6C437.5,562.6,437.5,562.6,437.5,562.6z"/>
		<path class="st3" d="M445.6,519.4c-0.1-0.4-0.4-0.7-0.9-0.6l-0.4,2.9c0.9,9.8-0.2,30.2-0.3,32c-2.3,5.7-10.9,10.9-10.9,10.9
			c-28,12.8-73.1,0.8-77.5-0.5c-0.9-2.1-5.5-14.2-3.4-22.9c2.1-9.2,16.3-22,17.6-23.2c0.4-0.2,0.8-0.3,1.2-0.4l0.3-1l-2.1,0.1
			c-0.1,0-0.2,0.1-0.2,0.1c-0.6,0.6-15.8,14.1-18.2,24.1c-2.3,10,3.4,23.6,3.6,24.2c0.1,0.2,0.3,0.4,0.5,0.4
			c0.3,0.1,22.4,6.4,45.9,6.4c11.5,0,23.3-1.5,33.1-6c0.4-0.2,9.3-5.5,11.6-11.8c0-0.1,0-0.1,0-0.2
			C445.7,552.8,447,528.4,445.6,519.4z"/>
		<path class="st3" d="M369,516.7c0,0,0.6-0.9,1.8-0.9l1.2,0.9l-0.2,0.7c0,0-1.3,0-2.6,1l0-1L369,516.7z"/>
		<path class="st3" d="M404.5,519.4c-0.3,0-0.6-0.2-0.7-0.5c-0.8-1.8-2.6-2-2.6-2l0,0c0,0-3.5-0.1-8.2-0.4c-4.3-0.3-5.8,1.3-5.8,1.4
			c-0.3,0.3-0.7,0.3-1.1,0.1c-0.3-0.3-0.3-0.7-0.1-1c0.1-0.1,2-2.2,7.1-1.9c4.7,0.3,8.2,0.4,8.2,0.4c0.1,0,2.8,0.2,3.9,2.9
			c0.2,0.4,0,0.8-0.4,1C404.7,519.4,404.6,519.4,404.5,519.4z"/>
		<path class="st3" d="M406.3,528.4c-0.1,0-0.3,0-0.4-0.1c-6.4-3-22.6-6.1-22.8-6.1c-0.5-0.1-0.9-0.6-0.8-1.2
			c0.1-0.5,0.6-0.9,1.2-0.8c0.7,0.1,16.6,3.2,23.2,6.2c0.5,0.2,0.7,0.8,0.5,1.3C407,528.2,406.7,528.4,406.3,528.4z"/>
		<path class="st3" d="M382,526.2c-0.5,0-0.9-0.3-1-0.8c-0.1-0.5,0.2-1.1,0.8-1.2c0.6-0.1,15.2-3.2,24.5-3.5c0,0,0,0,0,0
			c0.5,0,1,0.4,1,1c0,0.6-0.4,1-1,1c-9.1,0.3-24,3.4-24.2,3.4C382.1,526.2,382,526.2,382,526.2z"/>
	</g>
	<g>
		
			<linearGradient id="SVGID_2_" gradientUnits="userSpaceOnUse" x1="1865.1628" y1="546.3719" x2="1961.6311" y2="546.3719" gradientTransform="matrix(-1 0 0 1 2409.1021 0)">
			<stop  offset="0" style="stop-color:#7F5B37"/>
			<stop  offset="1" style="stop-color:#5E4328"/>
		</linearGradient>
		<path class="st4" d="M447.9,562.5c0,0.1,0,0.2,0.1,0.3c2.1,4,10.3,13.4,39.6,14.8c2.4,0.1,4.8,0.2,7.1,0.2
			c24.5,0,44.3-5.8,44.5-5.9c0.2-0.1,0.4-0.3,0.5-0.5c1.1-3.4,0.4-5.8,0.1-6.7c0.9-2.1,5.7-14.5,3.5-23.9c-1.6-6.8-6.4-12.1-11-17.1
			c-2.3-2.4-4.6-4.8-7.1-7c0,0-0.5-0.8-1.6-0.8c-0.1,0-0.2,0-0.3,0l0,0c-1.7,0.1-10.3,0.7-15.2,1c-0.3-0.4-2.3-2.1-7-1.8
			c-4.7,0.3-8.2,0.4-8.2,0.4c-0.1,0-2.5,0.2-3.7,2.4c-7.3,0.1-37.9-0.7-40-1.2c-0.2-0.1-0.5,0-0.7,0.1c-0.2,0.1-0.3,0.4-0.3,0.6
			l0.1,3.5c-0.8,7.8-0.3,22.8,0,29.5c-0.2,0.1-0.3,0.2-0.4,0.4C446.9,554,447.9,562.2,447.9,562.5z"/>
		<path class="st1" d="M448.4,550.5c-0.3-6.7-0.9-21.7,0-29.5l-0.1-3.5c0-0.2,0.1-0.5,0.3-0.6c0.2-0.1,0.4-0.2,0.7-0.1
			c0.1,0,0.3,0.1,0.6,0.1l0.2,1.7l0.8-0.7c0,0-3.2,36.6,28.6,52.4l-12.3,4.5c-13.1-3.5-17.6-9-19.1-11.9c0-0.1-0.1-0.2-0.1-0.3
			c0-0.3-1.1-8.5,0-11.6C448.1,550.7,448.2,550.6,448.4,550.5z"/>
		<path class="st1" d="M449.3,520l-0.2-3.3c0,0,0.1,0,0.1,0c2.2,0.6,32.7,1.4,40,1.2c1.2-2.2,3.6-2.4,3.7-2.4c0,0,3.5-0.1,8.2-0.4
			c4.7-0.3,6.7,1.5,7,1.8c4.9-0.3,13.5-0.9,15.2-1l0,0c0.1,0,0.2,0,0.3,0h0c0,0,0,0,0,0c0.7,0,1.2,0.4,1.4,0.7l-0.1,0
			C525,516.5,513,524.9,449.3,520z"/>
		<path class="st2" d="M535.1,528.4c3.5,3.4,7.5,11.7,8.6,16.1c1.5,6.6-3.4,15.5-5,20.2l-10.4,2.3
			C539.3,557.3,539.4,536.8,535.1,528.4z"/>
		<path class="st2" d="M535.8,551.2c0,0,2.5-5-2.7-4.4c-5.2,0.6-4.3,1.1-4,3c0.3,1.9,2.1,4.7,3.2,4.4
			C533.5,553.9,535.8,551.2,535.8,551.2z"/>
		<path class="st2" d="M527.3,549.7c0,0-7.1,3.4-34.3,3.6c0,0,18.9,3.5,35.1-0.1L527.3,549.7z"/>
		<path class="st1" d="M528.2,567c11.3-5,14.2-21.3,14.2-21.3l1.2,1l0.3,0.4c-0.2,7.9-3.4,16-4.1,17.6c0.3,0.9,1,3.3-0.1,6.7
			c-0.1,0.2-0.3,0.4-0.5,0.5c-0.1,0-4.1,1.2-10.7,2.5L528.2,567z"/>
		<path class="st2" d="M458.4,561.5C458.4,561.5,458.4,561.5,458.4,561.5c-0.1,0-0.2-0.1-0.1-0.2c0-0.1,1.6-12.9,7.9-18.9
			c7.1-6.7,16-13.4,39.4-14.2c24.1-0.8,34.8,8.6,34.9,8.7c0.1,0.1,0.1,0.2,0,0.2c-0.1,0.1-0.2,0.1-0.2,0c-0.1-0.1-9.9-8.6-31.8-8.6
			c-0.9,0-1.9,0-2.9,0c-23.3,0.8-32.1,7.4-39.2,14.1c-6.3,6-7.8,18.6-7.8,18.7C458.6,561.5,458.5,561.5,458.4,561.5z"/>
		<path class="st2" d="M494.3,520.2c0,0,1.9,6.7-0.5,8.2l3.6-0.7L494.3,520.2z"/>
		<path class="st2" d="M504.1,519.5l2.8,7.9h3.5C510.4,527.4,504.6,522.2,504.1,519.5z"/>
		<polygon class="st1" points="503.2,518.3 493.9,519.2 497.4,527.7 506.9,527.4 		"/>
		<path class="st3" d="M494.8,577.7c24.5,0,44.3-5.8,44.5-5.9c0.2-0.1,0.4-0.3,0.5-0.5c1.3-4.2,0-6.9,0-7c-0.2-0.4-0.6-0.5-1-0.3
			c-0.4,0.2-0.5,0.6-0.3,1c0,0,1,2.2,0.1,5.5c-3.2,0.9-25.2,6.8-50.7,5.6c-28.3-1.4-36.2-10-38.3-13.9c-0.3-2.4-0.8-8.5,0-10.8
			c0.1-0.4-0.1-0.8-0.4-1c-0.4-0.1-0.8,0.1-1,0.4c-1.1,3.1-0.1,11.3,0,11.6c0,0.1,0,0.2,0.1,0.3c2.1,4,10.3,13.4,39.6,14.8
			C490.1,577.7,492.4,577.7,494.8,577.7z"/>
		<path class="st3" d="M506.8,527.7c-0.3,0-0.5-0.1-0.7-0.4c-0.3-0.5-2.6-5-2.7-7c-0.1-1.9,1.1-2.9,1.8-3.2c0.1,0,0.2,0,0.2,0
			c3.5-0.1,18.1-1.2,18.2-1.2c0.4,0,0.8,0.3,0.8,0.7c0,0.4-0.3,0.8-0.7,0.8c-0.6,0-14.4,1-18.1,1.2c-0.2,0.1-0.9,0.6-0.8,1.6
			c0.1,1.4,1.9,5.1,2.6,6.4c0.2,0.4,0,0.8-0.3,1C507,527.7,506.9,527.7,506.8,527.7z"/>
		<path class="st3" d="M497.4,528.2c-0.3,0-0.6-0.2-0.7-0.5l-2.9-7.1c0-0.1-0.6-1.3-3.6-1.2c-4.2,0.2-34.1-0.5-40.4-1.1l0.1,3
			c0,0.4-0.3,0.8-0.7,0.8c-0.4,0-0.8-0.3-0.8-0.7l-0.1-3.9c0-0.2,0.1-0.5,0.3-0.6c0.2-0.1,0.4-0.2,0.7-0.1
			c2.3,0.6,35.7,1.4,40.9,1.2c4.2-0.2,5,2.1,5.1,2.2l2.9,7.1c0.2,0.4,0,0.8-0.4,1C497.6,528.2,497.5,528.2,497.4,528.2z"/>
		<path class="st3" d="M456.7,562.6C456.7,562.6,456.7,562.6,456.7,562.6c-0.3,0-0.5-0.3-0.5-0.6c1.6-13.6,7.2-29.8,35.6-34
			c34.3-5.1,48,6.4,48.6,6.8c0.2,0.2,0.2,0.5,0,0.7c-0.2,0.2-0.5,0.2-0.7,0.1c-0.1-0.1-13.9-11.6-47.8-6.6
			c-27.8,4.1-33.2,19.9-34.8,33.1C457.2,562.4,457,562.6,456.7,562.6z"/>
		<path class="st3" d="M448.6,519.4c0.1-0.4,0.4-0.7,0.9-0.6l0.4,2.9c-0.9,9.8,0.2,30.2,0.3,32c2.3,5.7,10.9,10.9,10.9,10.9
			c28,12.8,73.1,0.8,77.5-0.5c0.9-2.1,5.5-14.2,3.4-22.9c-2.1-9.2-16.3-22-17.6-23.2c-0.4-0.2-0.8-0.3-1.2-0.4l-0.3-1l2.1,0.1
			c0.1,0,0.2,0.1,0.2,0.1c0.6,0.6,15.8,14.1,18.2,24.1c2.3,10-3.4,23.6-3.6,24.2c-0.1,0.2-0.3,0.4-0.5,0.4
			c-0.3,0.1-22.4,6.4-45.9,6.4c-11.5,0-23.3-1.5-33.1-6c-0.4-0.2-9.3-5.5-11.6-11.8c0-0.1,0-0.1,0-0.2
			C448.5,552.8,447.2,528.4,448.6,519.4z"/>
		<path class="st3" d="M525.2,516.7c0,0-0.6-0.9-1.8-0.9l-1.2,0.9l0.2,0.7c0,0,1.3,0,2.6,1l0-1L525.2,516.7z"/>
		<path class="st3" d="M489.7,519.4c-0.1,0-0.2,0-0.3-0.1c-0.4-0.2-0.6-0.6-0.4-1c1.1-2.7,3.8-2.9,3.9-2.9c0.1,0,3.5-0.1,8.2-0.4
			c5.1-0.4,7,1.8,7.1,1.9c0.3,0.3,0.2,0.8-0.1,1.1c-0.3,0.3-0.8,0.2-1.1-0.1c0,0-1.6-1.7-5.8-1.4c-4.7,0.3-8.2,0.4-8.3,0.4
			c0,0-1.8,0.2-2.6,2C490.3,519.2,490,519.4,489.7,519.4z"/>
		<path class="st3" d="M487.9,528.4c-0.4,0-0.7-0.2-0.9-0.6c-0.2-0.5,0-1.1,0.5-1.3c6.6-3.1,22.6-6.1,23.2-6.2
			c0.5-0.1,1.1,0.3,1.2,0.8c0.1,0.5-0.3,1.1-0.8,1.2c-0.2,0-16.4,3.1-22.8,6.1C488.2,528.3,488,528.4,487.9,528.4z"/>
		<path class="st3" d="M512.2,526.2c-0.1,0-0.1,0-0.2,0c-0.2,0-15.1-3.1-24.2-3.4c-0.6,0-1-0.5-1-1c0-0.5,0.5-1,1-1c0,0,0,0,0,0
			c9.3,0.3,23.9,3.3,24.5,3.5c0.5,0.1,0.9,0.6,0.8,1.2C513.1,525.9,512.7,526.2,512.2,526.2z"/>
	</g>
</g>
</svg>
