<?xml version="1.0" encoding="utf-8"?>
<!-- Generator: Adobe Illustrator 21.0.0, SVG Export Plug-In . SVG Version: 6.00 Build 0)  -->
<svg version="1.1" id="圖層_1" xmlns="http://www.w3.org/2000/svg" xmlns:xlink="http://www.w3.org/1999/xlink" x="0px" y="0px"
	 viewBox="0 0 822.9 601.4" style="enable-background:new 0 0 822.9 601.4;" xml:space="preserve">
<style type="text/css">
	.st0{fill:url(#SVGID_1_);}
	.st1{opacity:0.5;fill:#5E4328;}
	.st2{fill:#CA9666;}
	.st3{opacity:0.5;}
	.st4{fill:#44261D;}
	.st5{fill:url(#SVGID_2_);}
	.st6{fill:url(#SVGID_3_);}
	.st7{fill:url(#SVGID_4_);}
</style>
<g>
	<g>
		<linearGradient id="SVGID_1_" gradientUnits="userSpaceOnUse" x1="448.32" y1="544.736" x2="541.307" y2="544.736">
			<stop  offset="0" style="stop-color:#8A583C"/>
			<stop  offset="1" style="stop-color:#5E4328"/>
		</linearGradient>
		<path class="st0" d="M448.8,519.8c0.3,0,0.8,0.1,1.3,0.2c3.9,1.3,7.7,2.5,11.6,3.8c6.1,2,12.2,4,18.3,5.9c4.5,1.4,8.4,2.8,13.2,3
			c0.4,0,0.7,0,1.2,0c8.1,0,27.1-1.9,28-2c0,0,0.1,0,0.1,0c0.1,0,1.5-0.5,2.1-1.9c0.4-0.9,0.2-1.9,0.3-2.8c0.1-0.8,0.1-1.6,0.2-2.4
			c0.1-0.8,0.2-1.7,0.2-2.5c0-0.2,0-1.1,0.1-1.2c3.4,3,6.5,6.2,9.3,9.8c2.5,3.2,5.1,6.9,6.1,10.9c2,8.7-2.6,20.8-3.4,22.9
			c-4.4,1.2-61.8,13.7-77.5-0.5c0,0-8.6-9.1-10.9-14.9C448.8,546.2,447.7,528.9,448.8,519.8z"/>
		<path class="st1" d="M449,519.8c1.9,6.8,9.5,33,25.8,49.8c-5.3-0.9-10.4-3.6-15-5.7c0,0-8.9-7.7-11.2-13.4
			c-0.1-1.8-1-21.6,0.2-30.7C448.9,519.8,449,519.8,449,519.8z"/>
		<path class="st2" d="M532.1,526.4c3.8,4.4,7.7,9.7,8.7,14.2c1.5,6.6-0.7,15.1-2.3,19.8l-10.8,4
			C538.8,554.8,532.1,526.4,532.1,526.4z"/>
		<g class="st3">
			<path class="st1" d="M541,549.9C541,549.9,541,549.9,541,549.9L541,549.9C541,549.9,541,549.9,541,549.9z"/>
			<path class="st1" d="M541,550.1c-0.8,6.2-3,12-3.6,13.4c-1.6,0.5-8.9,2.4-18.8,4l0,0C538.4,563.1,540.8,551.8,541,550.1z"/>
		</g>
		<path class="st2" d="M535.7,546.9c0,0,2.5-5-2.7-4.4s-4.3,1.1-4,3c0.3,1.9,2.1,4.7,3.2,4.4C533.3,549.5,535.7,546.9,535.7,546.9z"
			/>
		<path class="st2" d="M527.1,545.4c0,0-7.1,3.4-34.3,3.6c0,0,18.9,3.5,35.1-0.1L527.1,545.4z"/>
		<path class="st2" d="M482,529.5L482,529.5l1.2,0.9c0.1,0.1,2.5,0.9,10.1,2.2c0.4,0.1,0.7,0,1.2,0c8.1,0,27.1-1.9,28-2
			c0,0,0.1,0,0.1,0c0.1,0,1.5-0.5,2.1-1.9c0.1-0.3,0.2-0.5,0.2-0.8c0,0,2.8,3-4.9,3.9c-7.7,0.9-23.9,1.8-23.9,1.8
			S485.5,534.2,482,529.5z"/>
		<path class="st4" d="M538.6,563.8c-0.2-0.4-0.6-0.5-1-0.3c-0.4,0.2-0.5,0.6-0.3,1c0,0,1,2.2,0.1,5.5c-3.2,0.9-25.2,6.8-50.7,5.6
			c-3.1-0.1-6.2-0.4-9.2-0.8c-2.7-0.3-5.4-0.6-7.9-1.5c-2.2-0.8-4.2-2.1-6.1-3.3c-2.5-1.6-4.9-3.5-7.2-5.4c-0.2-0.2-0.5-0.2-0.8-0.1
			c-0.3,0.1-0.4,0.4-0.4,0.7v4.1h-5.2l-1-0.5v-20c0-0.4-0.3-0.8-0.8-0.8c-0.4,0-0.8,0.3-0.8,0.8V569c0,0.3,0.2,0.5,0.4,0.7l1.6,0.8
			c0.1,0.1,0.2,0.1,0.3,0.1h6.1c0.4,0,0.8-0.3,0.8-0.8c0,0,0-3.2,0-3.2c3.9,3.2,8.1,6.4,12.9,8.1c4.8,1.7,10.4,1.9,15.4,2.2
			c0.6,0,1.2,0.1,1.8,0.1c2.4,0.1,4.8,0.2,7.1,0.2c24.5,0,44.3-5.8,44.5-5.9c0.2-0.1,0.4-0.3,0.5-0.5
			C540,566.6,538.6,563.9,538.6,563.8z"/>
		<path class="st4" d="M524.9,517.9l0.9,0.4c-0.1-0.1-0.1-0.1-0.2-0.1C525.4,518,525.2,518,524.9,517.9z"/>
		<path class="st4" d="M542.3,540.2c-1.1-4.7-3.9-8.7-7-12.3c-2.8-3.3-5.7-6.5-9-9.4c-0.3-0.3-0.6-0.5-0.9-0.8
			c-0.2-0.2-0.5-0.2-0.8-0.1c-0.3,0.1-0.4,0.3-0.5,0.6c-0.1,1.5-0.3,3-0.4,4.5c-0.1,1-0.2,2.1-0.3,3.1c-0.1,1,0.2,3.2-1.3,3.3
			c-1.5,0.2-22,2.2-28.8,2c-5.6-0.2-10.8-2.3-16.1-4c-6.1-2-12.1-3.9-18.2-5.9c-3.5-1.1-6.9-2.2-10.4-3.4c-0.4-0.1-0.8,0.1-0.9,0.5
			c0,0,0,0.1,0,0.1c-0.1,0.1-0.1,0.2-0.1,0.3c-1.4,9-0.1,28.4,0,29.4c0,0.1,0,0.2,0,0.2c2.4,6.3,11.3,15.6,11.6,15.8
			c9.3,6.9,21.6,7,33.1,7c23.5,0,45.6-6.3,45.9-6.4c0.2-0.1,0.4-0.2,0.5-0.4C538.9,563.8,544.6,550.3,542.3,540.2z M537.4,563.5
			c-4.4,1.2-61.8,13.7-77.5-0.5c0,0-8.6-9.1-10.9-14.9c-0.1-1.8-1.3-19.2-0.1-28.3c0.3,0,0.8,0.1,1.3,0.2c3.9,1.3,7.7,2.5,11.6,3.8
			c6.1,2,12.2,4,18.3,5.9c4.5,1.4,8.4,2.8,13.2,3c0.4,0,0.7,0,1.2,0c8.1,0,27.1-1.9,28-2c0,0,0.1,0,0.1,0c0.1,0,1.5-0.5,2.1-1.9
			c0.4-0.9,0.2-1.9,0.3-2.8c0.1-0.8,0.1-1.6,0.2-2.4c0.1-0.8,0.2-1.7,0.2-2.5c0-0.2,0-1.1,0.1-1.2c3.4,3,6.5,6.2,9.3,9.8
			c2.5,3.2,5.1,6.9,6.1,10.9C542.8,549.3,538.2,561.3,537.4,563.5z"/>
		<linearGradient id="SVGID_2_" gradientUnits="userSpaceOnUse" x1="448.7081" y1="563.3298" x2="537.7307" y2="563.3298">
			<stop  offset="0.4384" style="stop-color:#5E4328"/>
			<stop  offset="0.5613" style="stop-color:#6B492E"/>
			<stop  offset="0.8304" style="stop-color:#825438"/>
			<stop  offset="1" style="stop-color:#8A583C"/>
		</linearGradient>
		<path class="st5" d="M537.3,569.9c-3.2,0.9-25.2,6.8-50.7,5.6c-3.1-0.1-6.2-0.4-9.2-0.8c-2.7-0.3-5.4-0.6-7.9-1.5
			c-2.2-0.8-4.2-2.1-6.1-3.3c-2.5-1.6-4.9-3.5-7.2-5.4c-0.2-0.2-0.5-0.2-0.8-0.1c-0.3,0.1-0.4,0.4-0.4,0.7v4.1h-5.2l-1-0.5V551
			c3.3,6,10.1,13.1,10.4,13.3c9.3,6.9,21.6,7,33.1,7c21.2,0,41.3-5.2,45.2-6.2C537.7,565.9,538,567.6,537.3,569.9z"/>
		<polygon class="st4" points="454.7,570.5 462.4,570.5 456.2,565.7 		"/>
		<polygon class="st4" points="457.7,565.7 451.4,560.9 451.4,569.7 457,569.7 		"/>
	</g>
	<g>
		
			<linearGradient id="SVGID_3_" gradientUnits="userSpaceOnUse" x1="1443.6678" y1="544.736" x2="1536.6549" y2="544.736" gradientTransform="matrix(-1 0 0 1 1890.4268 0)">
			<stop  offset="0" style="stop-color:#8A583C"/>
			<stop  offset="1" style="stop-color:#5E4328"/>
		</linearGradient>
		<path class="st6" d="M446.1,548c-2.3,5.7-10.9,14.9-10.9,14.9c-15.7,14.2-73.1,1.8-77.5,0.5c-0.9-2.1-5.5-14.2-3.4-22.9
			c0.9-4.1,3.5-7.7,6.1-10.9c2.8-3.6,5.9-6.8,9.3-9.8c0.1,0.1,0.1,1,0.1,1.2c0.1,0.8,0.2,1.7,0.2,2.5c0.1,0.8,0.2,1.6,0.2,2.4
			c0.1,0.9-0.1,1.9,0.3,2.8c0.6,1.4,2,1.8,2.1,1.9c0,0,0.1,0,0.1,0c0.8,0.1,19.9,2,28,2c0.4,0,0.8,0,1.2,0c4.8-0.1,8.7-1.5,13.2-3
			c6.1-2,12.2-4,18.3-5.9c3.9-1.3,7.7-2.5,11.6-3.8c0.5-0.1,0.9-0.1,1.3-0.2C447.4,528.9,446.2,546.2,446.1,548z"/>
		<path class="st1" d="M446.1,519.8c-1.9,6.8-9.5,33-25.8,49.8c5.3-0.9,10.4-3.6,15-5.7c0,0,8.9-7.7,11.2-13.4
			c0.1-1.8,1-21.6-0.2-30.7C446.2,519.8,446.1,519.8,446.1,519.8z"/>
		<path class="st2" d="M363,526.4c-3.8,4.4-7.7,9.7-8.7,14.2c-1.5,6.6,0.7,15.1,2.3,19.8l10.8,4C356.3,554.8,363,526.4,363,526.4z"
			/>
		<g class="st3">
			<path class="st1" d="M354.1,549.9C354.1,549.9,354.1,549.9,354.1,549.9L354.1,549.9C354.1,549.9,354.1,549.9,354.1,549.9z"/>
			<path class="st1" d="M354.1,550.1c0.8,6.2,3,12,3.6,13.4c1.6,0.5,8.9,2.4,18.8,4l0,0C356.6,563.1,354.3,551.8,354.1,550.1z"/>
		</g>
		<path class="st2" d="M359.4,546.9c0,0-2.5-5,2.7-4.4s4.3,1.1,4,3s-2.1,4.7-3.2,4.4C361.7,549.5,359.4,546.9,359.4,546.9z"/>
		<path class="st2" d="M367.9,545.4c0,0,7.1,3.4,34.3,3.6c0,0-18.9,3.5-35.1-0.1L367.9,545.4z"/>
		<path class="st2" d="M413.1,529.5L413.1,529.5l-1.2,0.9c-0.1,0.1-2.5,0.9-10.1,2.2c-0.4,0.1-0.7,0-1.2,0c-8.1,0-27.1-1.9-28-2
			c0,0-0.1,0-0.1,0c-0.1,0-1.5-0.5-2.1-1.9c-0.1-0.3-0.2-0.5-0.2-0.8c0,0-2.8,3,4.9,3.9c7.7,0.9,23.9,1.8,23.9,1.8
			S409.6,534.2,413.1,529.5z"/>
		<path class="st4" d="M356.5,563.8c0.2-0.4,0.6-0.5,1-0.3c0.4,0.2,0.5,0.6,0.3,1c0,0-1,2.2-0.1,5.5c3.2,0.9,25.2,6.8,50.7,5.6
			c3.1-0.1,6.2-0.4,9.2-0.8c2.7-0.3,5.4-0.6,7.9-1.5c2.2-0.8,4.2-2.1,6.1-3.3c2.5-1.6,4.9-3.5,7.2-5.4c0.2-0.2,0.5-0.2,0.8-0.1
			c0.3,0.1,0.4,0.4,0.4,0.7v4.1h5.2l1-0.5v-20c0-0.4,0.3-0.8,0.8-0.8c0.4,0,0.8,0.3,0.8,0.8V569c0,0.3-0.2,0.5-0.4,0.7l-1.6,0.8
			c-0.1,0.1-0.2,0.1-0.3,0.1h-6.1c-0.4,0-0.8-0.3-0.8-0.8c0,0,0-3.2,0-3.2c-3.9,3.2-8.1,6.4-12.9,8.1c-4.8,1.7-10.4,1.9-15.4,2.2
			c-0.6,0-1.2,0.1-1.8,0.1c-2.4,0.1-4.8,0.2-7.1,0.2c-24.5,0-44.3-5.8-44.5-5.9c-0.2-0.1-0.4-0.3-0.5-0.5
			C355.1,566.6,356.4,563.9,356.5,563.8z"/>
		<path class="st4" d="M370.1,517.9l-0.9,0.4c0.1-0.1,0.1-0.1,0.2-0.1C369.7,518,369.9,518,370.1,517.9z"/>
		<path class="st4" d="M356.5,564.4c0.1,0.2,0.3,0.4,0.5,0.4c0.3,0.1,22.4,6.4,45.9,6.4c11.5,0,23.8-0.1,33.1-7
			c0.4-0.2,9.3-9.5,11.6-15.8c0-0.1,0-0.1,0-0.2c0.1-1,1.4-20.4,0-29.4c0-0.1-0.1-0.2-0.1-0.3c0,0,0-0.1,0-0.1
			c-0.1-0.4-0.5-0.6-0.9-0.5c-3.5,1.1-7,2.3-10.4,3.4c-6.1,2-12.1,3.9-18.2,5.9c-5.3,1.7-10.5,3.8-16.1,4c-6.9,0.2-27.3-1.8-28.8-2
			c-1.5-0.2-1.2-2.4-1.3-3.3c-0.1-1-0.2-2.1-0.3-3.1c-0.1-1.5-0.3-3-0.4-4.5c0-0.3-0.2-0.5-0.5-0.6c-0.3-0.1-0.6-0.1-0.8,0.1
			c-0.3,0.3-0.6,0.5-0.9,0.8c-3.2,2.9-6.1,6.1-9,9.4c-3.1,3.6-5.9,7.6-7,12.3C350.5,550.3,356.2,563.8,356.5,564.4z M354.3,540.6
			c0.9-4.1,3.5-7.7,6.1-10.9c2.8-3.6,5.9-6.8,9.3-9.8c0.1,0.1,0.1,1,0.1,1.2c0.1,0.8,0.2,1.7,0.2,2.5c0.1,0.8,0.2,1.6,0.2,2.4
			c0.1,0.9-0.1,1.9,0.3,2.8c0.6,1.4,2,1.8,2.1,1.9c0,0,0.1,0,0.1,0c0.8,0.1,19.9,2,28,2c0.4,0,0.8,0,1.2,0c4.8-0.1,8.7-1.5,13.2-3
			c6.1-2,12.2-4,18.3-5.9c3.9-1.3,7.7-2.5,11.6-3.8c0.5-0.1,0.9-0.1,1.3-0.2c1.2,9.1,0,26.4-0.1,28.3c-2.3,5.7-10.9,14.9-10.9,14.9
			c-15.7,14.2-73.1,1.8-77.5,0.5C356.9,561.3,352.2,549.3,354.3,540.6z"/>
		
			<linearGradient id="SVGID_4_" gradientUnits="userSpaceOnUse" x1="1444.0559" y1="563.3298" x2="1533.0785" y2="563.3298" gradientTransform="matrix(-1 0 0 1 1890.4268 0)">
			<stop  offset="0.4384" style="stop-color:#5E4328"/>
			<stop  offset="0.5613" style="stop-color:#6B492E"/>
			<stop  offset="0.8304" style="stop-color:#825438"/>
			<stop  offset="1" style="stop-color:#8A583C"/>
		</linearGradient>
		<path class="st7" d="M357.6,565c3.9,1.1,24,6.2,45.2,6.2c11.5,0,23.8-0.1,33.1-7c0.3-0.2,7.1-7.3,10.4-13.3v17.5l-1,0.5h-5.2V565
			c0-0.3-0.2-0.6-0.4-0.7c-0.3-0.1-0.6-0.1-0.8,0.1c-2.2,2-4.7,3.8-7.2,5.4c-1.9,1.3-4,2.5-6.1,3.3c-2.5,1-5.3,1.2-7.9,1.5
			c-3.1,0.4-6.1,0.6-9.2,0.8c-25.5,1.2-47.6-4.7-50.7-5.6C357.1,567.6,357.4,565.9,357.6,565z"/>
		<polygon class="st4" points="440.4,570.5 432.7,570.5 438.9,565.7 		"/>
		<polygon class="st4" points="437.4,565.7 443.6,560.9 443.6,569.7 438,569.7 		"/>
	</g>
</g>
</svg>
