<?xml version="1.0" encoding="utf-8"?>
<!-- Generator: Adobe Illustrator 21.0.0, SVG Export Plug-In . SVG Version: 6.00 Build 0)  -->
<svg version="1.1" id="圖層_1" xmlns="http://www.w3.org/2000/svg" xmlns:xlink="http://www.w3.org/1999/xlink" x="0px" y="0px"
	 viewBox="0 0 106.2 38.2" style="enable-background:new 0 0 106.2 38.2;" xml:space="preserve">
<style type="text/css">
	.st0{opacity:0.7;fill:#6FCCE4;}
	.st1{fill:none;}
	.st2{fill:#FFFFFF;}
	.st3{font-family:'MicrosoftJhengHeiBold';}
	.st4{font-size:18px;}
</style>
<g id="音效取消">
	<g>
		<path class="st0" d="M87.1,38.2H19.1C8.5,38.2,0,29.6,0,19.1v0C0,8.5,8.5,0,19.1,0h68.1c10.5,0,19.1,8.5,19.1,19.1v0
			C106.2,29.6,97.7,38.2,87.1,38.2z"/>
		<rect x="28.8" y="9.3" class="st1" width="76.5" height="19.5"/>
		<text transform="matrix(1 0 0 1 49.0123 25.3537)" class="st2 st3 st4">音效</text>
		<g>
			<path class="st2" d="M15.7,18.3c0-1.3,0-2.6,0-4c0-1,0.6-1.6,1.6-1.6c1.4,0,2.8,0,4.3,0c0.3,0,0.4-0.1,0.6-0.2
				c1.2-1.1,2.4-2.1,3.6-3.2c0.6-0.5,1.2-1,1.8-1.5c0.7-0.6,1.6-0.1,1.8,0.6c0.1,0.3,0.1,0.7,0.1,1c0,0.4,0,0.8,0,1.1
				c0,5.3,0,10.6,0,15.9c0,0.5,0,1.1,0,1.6c0,0.5-0.3,0.8-0.7,1c-0.4,0.2-0.8,0.1-1.1-0.2c-0.5-0.4-1-0.9-1.5-1.3
				c-1.4-1.2-2.7-2.4-4.1-3.6c-0.1,0-0.1,0-0.2-0.1c-0.1,0-0.1,0-0.2,0c-1.4,0-2.8,0-4.2,0c-1,0-1.6-0.6-1.6-1.6
				C15.7,20.9,15.7,19.6,15.7,18.3z"/>
			<path class="st2" d="M38.1,30.4c-0.5-0.5-1-1-1.5-1.5c2.8-3,4.4-6.5,4.4-10.6c0-4.1-1.5-7.6-4.4-10.6c0.5-0.5,1-1,1.5-1.5
				C44.5,12.2,45.1,23.5,38.1,30.4z"/>
			<path class="st2" d="M34.8,27c-0.5-0.5-1-1-1.5-1.5c1.9-2,3-4.4,3-7.2c0-2.8-1-5.2-3-7.2c0.5-0.5,1-1,1.5-1.5
				c1.9,2,3.1,4.4,3.5,7.1C38.8,20.6,37.6,24.1,34.8,27z"/>
			<path class="st2" d="M30.4,21.5c0.9-0.9,1.3-2,1.3-3.3c0-1.3-0.5-2.3-1.3-3.2c0.5-0.5,1-1,1.5-1.5c2.4,2.1,2.8,6.8,0,9.5
				C31.4,22.5,30.9,22,30.4,21.5z"/>
		</g>
	</g>
</g>
</svg>
