<?xml version="1.0" encoding="utf-8"?>
<!-- Generator: Adobe Illustrator 21.0.0, SVG Export Plug-In . SVG Version: 6.00 Build 0)  -->
<svg version="1.1" id="圖層_1" xmlns="http://www.w3.org/2000/svg" xmlns:xlink="http://www.w3.org/1999/xlink" x="0px" y="0px"
	 viewBox="0 0 446.4 265.8" style="enable-background:new 0 0 446.4 265.8;" xml:space="preserve">
<style type="text/css">
	.st0{opacity:0.65;fill:#20658F;enable-background:new    ;}
	.st1{opacity:0.36;fill:url(#SVGID_1_);enable-background:new    ;}
	.st2{opacity:0.86;fill:#51C6E1;enable-background:new    ;}
	.st3{opacity:0.95;fill:#5CCAED;enable-background:new    ;}
	.st4{fill:none;stroke:#BBE5F5;stroke-width:3;}
	.st5{opacity:0.15;}
	.st6{fill:none;stroke:#96D9F3;stroke-width:0.5;}
	.st7{fill:url(#SVGID_2_);stroke:#61B5D7;}
	.st8{fill:none;}
	.st9{fill:#FFFFFF;}
	.st10{font-family:'MicrosoftJhengHeiBold';}
	.st11{font-size:21px;}
	.st12{display:none;}
	.st13{display:inline;}
	.st14{fill:url(#SVGID_3_);}
	.st15{fill:url(#SVGID_4_);}
	.st16{fill:url(#SVGID_5_);}
	.st17{fill:url(#SVGID_6_);}
	.st18{fill:url(#SVGID_7_);}
	.st19{fill:url(#SVGID_8_);}
	.st20{fill:#D4EEF8;}
	.st21{fill:#6BB444;}
	.st22{fill:url(#SVGID_9_);}
	.st23{fill:url(#SVGID_10_);}
	.st24{fill:url(#SVGID_11_);}
	.st25{fill:url(#SVGID_12_);}
	.st26{fill:url(#SVGID_13_);}
	.st27{display:inline;fill:url(#SVGID_14_);}
	.st28{display:inline;fill:url(#SVGID_15_);}
	.st29{display:inline;fill:url(#SVGID_16_);}
	.st30{display:inline;fill:url(#SVGID_17_);}
	.st31{display:inline;fill:url(#SVGID_18_);}
	.st32{display:inline;fill:none;}
	.st33{display:inline;fill:#FFFFFF;}
	.st34{font-size:18px;}
</style>
<g id="聯絡說明">
	<g>
		<path class="st0" d="M446.3,250.6c0,6.6-5.4,12-12,12H13.5c-6.6,0-12-5.4-12-12V33.1c0-6.6,5.4-12,12-12h420.8c6.6,0,12,5.4,12,12
			V250.6z"/>
		
			<radialGradient id="SVGID_1_" cx="233.1441" cy="-106.1342" r="428.8309" gradientTransform="matrix(1 0 0 -1 0 266)" gradientUnits="userSpaceOnUse">
			<stop  offset="0" style="stop-color:#00ADEE"/>
			<stop  offset="1" style="stop-color:#00ADEE;stop-opacity:0"/>
		</radialGradient>
		<path class="st1" d="M446.3,250.6c0,6.6-5.4,12-12,12H13.5c-6.6,0-12-5.4-12-12V33.1c0-6.6,5.4-12,12-12h420.8c6.6,0,12,5.4,12,12
			V250.6z"/>
		<rect x="24" y="19.4" class="st2" width="398.4" height="4.6"/>
		<rect x="24" y="261.2" class="st2" width="400.4" height="4.6"/>
		<path class="st3" d="M24,265.8H12.2c-6.6,0-12-5.4-12-12V44.9l2.7-2.3c0-6.6,0.4-16,9.3-16h12.2V21H12.2c-6.6,0-12,5.4-12,12v6.2
			v208.9c0,6.6,5.4,12,12,12H24V265.8z"/>
		<path class="st4" d="M24,259.6H13.5c-6.6,0-12-5.4-12-12V39.4v-6.2c0-6.6,5.4-12,12-12h10.9"/>
		<path class="st3" d="M422.4,265.8h11.9c6.6,0,12-5.4,12-12V44.9l-2.7-2.3c0-6.6-0.4-16-9.3-16h-12.2V21h12.2c6.6,0,12,5.4,12,12
			v6.2v208.9c0,6.6-5.4,12-12,12h-11.9V265.8z"/>
		<path class="st4" d="M422.4,259.6h10.5c6.6,0,12-5.4,12-12V39.4v-6.2c0-6.6-5.4-12-12-12H422"/>
		<g>
			
				<image style="overflow:visible;enable-background:new    ;" width="520" height="314" xlink:href="B83091FF.png"  transform="matrix(1 0 0 1 -36.5966 -16.5299)">
			</image>
		</g>
		<g>
			
				<image style="overflow:visible;enable-background:new    ;" width="520" height="314" xlink:href="B83091FD.png"  transform="matrix(1 0 0 1 -36.5966 -16.5299)">
			</image>
		</g>
		<g class="st5">
			<line class="st6" x1="1.5" y1="19.4" x2="444.9" y2="19.4"/>
			<line class="st6" x1="1.5" y1="24.1" x2="444.9" y2="24.1"/>
			<line class="st6" x1="1.5" y1="28.5" x2="444.9" y2="28.5"/>
			<line class="st6" x1="1.5" y1="33.2" x2="444.9" y2="33.2"/>
			<line class="st6" x1="1.5" y1="37.9" x2="444.9" y2="37.9"/>
			<line class="st6" x1="1.5" y1="42.6" x2="444.9" y2="42.6"/>
			<line class="st6" x1="1.5" y1="47" x2="444.9" y2="47"/>
			<line class="st6" x1="1.5" y1="51.7" x2="444.9" y2="51.7"/>
			<line class="st6" x1="1.5" y1="56.5" x2="444.9" y2="56.5"/>
			<line class="st6" x1="1.5" y1="65.5" x2="444.9" y2="65.5"/>
			<line class="st6" x1="1.5" y1="60.7" x2="444.9" y2="60.7"/>
			<line class="st6" x1="1.5" y1="70.2" x2="444.9" y2="70.2"/>
			<line class="st6" x1="1.5" y1="75" x2="444.9" y2="75"/>
			<line class="st6" x1="1.5" y1="79.7" x2="444.9" y2="79.7"/>
			<line class="st6" x1="1.5" y1="84.1" x2="444.9" y2="84.1"/>
			<line class="st6" x1="1.5" y1="88.8" x2="444.9" y2="88.8"/>
			<line class="st6" x1="1.5" y1="93.7" x2="444.9" y2="93.7"/>
			<line class="st6" x1="1.5" y1="98.4" x2="444.9" y2="98.4"/>
			<line class="st6" x1="1.5" y1="102.7" x2="444.9" y2="102.7"/>
			<line class="st6" x1="1.5" y1="107.4" x2="444.9" y2="107.4"/>
			<line class="st6" x1="1.5" y1="112.2" x2="444.9" y2="112.2"/>
			<line class="st6" x1="1.5" y1="116.9" x2="444.9" y2="116.9"/>
			<line class="st6" x1="1.5" y1="121.3" x2="444.9" y2="121.3"/>
			<line class="st6" x1="1.5" y1="126" x2="444.9" y2="126"/>
			<line class="st6" x1="1.5" y1="130.7" x2="444.9" y2="130.7"/>
			<line class="st6" x1="1.5" y1="135.4" x2="444.9" y2="135.4"/>
			<line class="st6" x1="1.5" y1="139.8" x2="444.9" y2="139.8"/>
			<line class="st6" x1="1.5" y1="144.5" x2="444.9" y2="144.5"/>
			<line class="st6" x1="1.5" y1="149.3" x2="444.9" y2="149.3"/>
			<line class="st6" x1="1.5" y1="154" x2="444.9" y2="154"/>
			<line class="st6" x1="1.5" y1="158.3" x2="444.9" y2="158.3"/>
			<line class="st6" x1="1.5" y1="163.1" x2="444.9" y2="163.1"/>
			<line class="st6" x1="1.5" y1="167.2" x2="444.9" y2="167.2"/>
			<line class="st6" x1="1.5" y1="171.6" x2="444.9" y2="171.6"/>
			<line class="st6" x1="1.5" y1="176.3" x2="444.9" y2="176.3"/>
			<line class="st6" x1="1.5" y1="181.1" x2="444.9" y2="181.1"/>
			<line class="st6" x1="1.5" y1="185.8" x2="444.9" y2="185.8"/>
			<line class="st6" x1="1.5" y1="190.2" x2="444.9" y2="190.2"/>
			<line class="st6" x1="1.5" y1="194.9" x2="444.9" y2="194.9"/>
			<line class="st6" x1="1.5" y1="199.6" x2="444.9" y2="199.6"/>
			<line class="st6" x1="1.5" y1="203.8" x2="444.9" y2="203.8"/>
			<line class="st6" x1="1.5" y1="208.5" x2="444.9" y2="208.5"/>
			<line class="st6" x1="1.5" y1="212.9" x2="444.9" y2="212.9"/>
			<line class="st6" x1="1.5" y1="217.6" x2="444.9" y2="217.6"/>
			<line class="st6" x1="1.5" y1="222.3" x2="444.9" y2="222.3"/>
			<line class="st6" x1="1.5" y1="227" x2="444.9" y2="227"/>
			<line class="st6" x1="1.5" y1="231.4" x2="444.9" y2="231.4"/>
			<line class="st6" x1="1.5" y1="236.1" x2="444.9" y2="236.1"/>
			<line class="st6" x1="1.5" y1="240.3" x2="444.9" y2="240.3"/>
			<line class="st6" x1="1.5" y1="244.7" x2="444.9" y2="244.7"/>
			<line class="st6" x1="1.5" y1="249.4" x2="444.9" y2="249.4"/>
			<line class="st6" x1="1.5" y1="254.1" x2="444.9" y2="254.1"/>
			<line class="st6" x1="1.5" y1="258.8" x2="444.9" y2="258.8"/>
			<line class="st6" x1="1.5" y1="263.2" x2="444.9" y2="263.2"/>
		</g>
	</g>
	
		<radialGradient id="SVGID_2_" cx="263.5254" cy="208.6938" r="134.1495" gradientTransform="matrix(1 0 0 -1 0 266)" gradientUnits="userSpaceOnUse">
		<stop  offset="0" style="stop-color:#11588E"/>
		<stop  offset="1" style="stop-color:#009AD4"/>
	</radialGradient>
	<path class="st7" d="M293.1,36.8H152.8c-2,0-3.6-1.6-3.6-3.6V4.1c0-2,1.6-3.6,3.6-3.6h140.3c2,0,3.6,1.6,3.6,3.6v29.1
		C296.8,35.2,295.1,36.8,293.1,36.8z"/>
	<rect x="93.9" y="8.3" class="st8" width="253.5" height="25.6"/>
	<text transform="matrix(1 0 0 1 178.5957 26.9828)" class="st9 st10 st11">特殊道具</text>
	<g class="st12">
		<g class="st13">
			<g>
				
					<linearGradient id="SVGID_3_" gradientUnits="userSpaceOnUse" x1="173.5643" y1="38.95" x2="187.6326" y2="38.95" gradientTransform="matrix(1 0 0 -1 0 266)">
					<stop  offset="0" style="stop-color:#25A9E0"/>
					<stop  offset="1" style="stop-color:#FFFFFF;stop-opacity:0"/>
				</linearGradient>
				<path class="st14" d="M268.9,240.5c0,1.7-0.8,3-1.9,3h-88.1c-1,0-1.9-1.4-1.9-3v-26.9c0-1.7,0.8-3,1.9-3H267c1,0,1.9,1.4,1.9,3
					V240.5z"/>
				
					<linearGradient id="SVGID_4_" gradientUnits="userSpaceOnUse" x1="274.2785" y1="38.95" x2="250.8028" y2="38.95" gradientTransform="matrix(1 0 0 -1 0 266)">
					<stop  offset="0" style="stop-color:#25A9E0"/>
					<stop  offset="1" style="stop-color:#FFFFFF;stop-opacity:0"/>
				</linearGradient>
				<path class="st15" d="M268.9,240.5c0,1.7-0.8,3-1.9,3h-88.1c-1,0-1.9-1.4-1.9-3v-26.9c0-1.7,0.8-3,1.9-3H267c1,0,1.9,1.4,1.9,3
					V240.5z"/>
				
					<linearGradient id="SVGID_5_" gradientUnits="userSpaceOnUse" x1="222.95" y1="16.1359" x2="222.95" y2="37.2886" gradientTransform="matrix(1 0 0 -1 0 266)">
					<stop  offset="0" style="stop-color:#25A9E0"/>
					<stop  offset="1" style="stop-color:#FFFFFF;stop-opacity:0"/>
				</linearGradient>
				<path class="st16" d="M268.9,240.5c0,1.7-0.8,3-1.9,3h-88.1c-1,0-1.9-1.4-1.9-3v-26.9c0-1.7,0.8-3,1.9-3H267c1,0,1.9,1.4,1.9,3
					V240.5z"/>
				
					<linearGradient id="SVGID_6_" gradientUnits="userSpaceOnUse" x1="222.95" y1="59.7744" x2="222.95" y2="49.6677" gradientTransform="matrix(1 0 0 -1 0 266)">
					<stop  offset="6.060610e-03" style="stop-color:#25A9E0"/>
					<stop  offset="1" style="stop-color:#FFFFFF;stop-opacity:0"/>
				</linearGradient>
				<path class="st17" d="M268.9,240.5c0,1.7-0.8,3-1.9,3h-88.1c-1,0-1.9-1.4-1.9-3v-26.9c0-1.7,0.8-3,1.9-3H267c1,0,1.9,1.4,1.9,3
					V240.5z"/>
				
					<radialGradient id="SVGID_7_" cx="360.9254" cy="58.2497" r="43.9253" gradientTransform="matrix(0.622 0 0 -1 57.283 266)" gradientUnits="userSpaceOnUse">
					<stop  offset="0" style="stop-color:#00ADEE"/>
					<stop  offset="1" style="stop-color:#FFFFFF;stop-opacity:0"/>
				</radialGradient>
				<path class="st18" d="M268.9,240.5c0,1.7-0.8,3-1.9,3h-88.1c-1,0-1.9-1.4-1.9-3v-26.9c0-1.7,0.8-3,1.9-3H267c1,0,1.9,1.4,1.9,3
					V240.5z"/>
				
					<radialGradient id="SVGID_8_" cx="182.4258" cy="17.2788" r="49.2906" gradientTransform="matrix(0.622 0 0 -1 57.283 266)" gradientUnits="userSpaceOnUse">
					<stop  offset="0" style="stop-color:#00ADEE"/>
					<stop  offset="1" style="stop-color:#FFFFFF;stop-opacity:0"/>
				</radialGradient>
				<path class="st19" d="M268.9,240.5c0,1.7-0.8,3-1.9,3h-88.1c-1,0-1.9-1.4-1.9-3v-26.9c0-1.7,0.8-3,1.9-3H267c1,0,1.9,1.4,1.9,3
					V240.5z"/>
			</g>
			<g>
				<g>
					<path class="st20" d="M267,210.6c1,0,1.9,1.4,1.9,3v26.9c0,1.7-0.8,3-1.9,3h-88.1c-1,0-1.9-1.4-1.9-3v-26.9c0-1.7,0.8-3,1.9-3
						H267 M267,210.1h-88.1c-1.3,0-2.4,1.5-2.4,3.5v26.9c0,2,1,3.5,2.4,3.5H267c1.3,0,2.4-1.5,2.4-3.5v-26.9
						C269.4,211.6,268.4,210.1,267,210.1L267,210.1z"/>
				</g>
				<g>
					<path class="st20" d="M267,210.6c1,0,1.9,1.4,1.9,3v26.9c0,1.7-0.8,3-1.9,3h-88.1c-1,0-1.9-1.4-1.9-3v-26.9c0-1.7,0.8-3,1.9-3
						H267 M267,210.1h-88.1c-1.3,0-2.4,1.5-2.4,3.5v26.9c0,2,1,3.5,2.4,3.5H267c1.3,0,2.4-1.5,2.4-3.5v-26.9
						C269.4,211.6,268.4,210.1,267,210.1L267,210.1z"/>
				</g>
				<g>
					<path class="st20" d="M267,210.6c1,0,1.9,1.4,1.9,3v26.9c0,1.7-0.8,3-1.9,3h-88.1c-1,0-1.9-1.4-1.9-3v-26.9c0-1.7,0.8-3,1.9-3
						H267 M267,210.1h-88.1c-1.3,0-2.4,1.5-2.4,3.5v26.9c0,2,1,3.5,2.4,3.5H267c1.3,0,2.4-1.5,2.4-3.5v-26.9
						C269.4,211.6,268.4,210.1,267,210.1L267,210.1z"/>
				</g>
				<g>
					<path class="st20" d="M267,210.6c1,0,1.9,1.4,1.9,3v26.9c0,1.7-0.8,3-1.9,3h-88.1c-1,0-1.9-1.4-1.9-3v-26.9c0-1.7,0.8-3,1.9-3
						H267 M267,210.1h-88.1c-1.3,0-2.4,1.5-2.4,3.5v26.9c0,2,1,3.5,2.4,3.5H267c1.3,0,2.4-1.5,2.4-3.5v-26.9
						C269.4,211.6,268.4,210.1,267,210.1L267,210.1z"/>
				</g>
				<g>
					<path class="st20" d="M267,210.6c1,0,1.9,1.4,1.9,3v26.9c0,1.7-0.8,3-1.9,3h-88.1c-1,0-1.9-1.4-1.9-3v-26.9c0-1.7,0.8-3,1.9-3
						H267 M267,210.1h-88.1c-1.3,0-2.4,1.5-2.4,3.5v26.9c0,2,1,3.5,2.4,3.5H267c1.3,0,2.4-1.5,2.4-3.5v-26.9
						C269.4,211.6,268.4,210.1,267,210.1L267,210.1z"/>
				</g>
				<g>
					<path class="st20" d="M267,210.6c1,0,1.9,1.4,1.9,3v26.9c0,1.7-0.8,3-1.9,3h-88.1c-1,0-1.9-1.4-1.9-3v-26.9c0-1.7,0.8-3,1.9-3
						H267 M267,210.1h-88.1c-1.3,0-2.4,1.5-2.4,3.5v26.9c0,2,1,3.5,2.4,3.5H267c1.3,0,2.4-1.5,2.4-3.5v-26.9
						C269.4,211.6,268.4,210.1,267,210.1L267,210.1z"/>
				</g>
			</g>
			<g>
				<path class="st21" d="M268,239.1c0,1.6-0.8,2.9-1.8,2.9h-86.5c-1,0-1.8-1.3-1.8-2.9v-24.2c0-1.6,0.8-2.9,1.8-2.9h86.5
					c1,0,1.8,1.3,1.8,2.9V239.1z"/>
				<g>
					
						<linearGradient id="SVGID_9_" gradientUnits="userSpaceOnUse" x1="222.95" y1="70.1232" x2="222.95" y2="47.3253" gradientTransform="matrix(1 0 0 -1 0 266)">
						<stop  offset="0" style="stop-color:#39B98F"/>
						<stop  offset="1" style="stop-color:#6BC297;stop-opacity:0"/>
					</linearGradient>
					<path class="st22" d="M268,239.1c0,1.6-0.8,2.9-1.8,2.9h-86.5c-1,0-1.8-1.3-1.8-2.9v-24.2c0-1.6,0.8-2.9,1.8-2.9h86.5
						c1,0,1.8,1.3,1.8,2.9V239.1z"/>
					
						<linearGradient id="SVGID_10_" gradientUnits="userSpaceOnUse" x1="222.95" y1="7.7905" x2="222.95" y2="35.8474" gradientTransform="matrix(1 0 0 -1 0 266)">
						<stop  offset="0" style="stop-color:#00A787"/>
						<stop  offset="1" style="stop-color:#00B298;stop-opacity:0"/>
					</linearGradient>
					<path class="st23" d="M268,239.1c0,1.6-0.8,2.9-1.8,2.9h-86.5c-1,0-1.8-1.3-1.8-2.9v-24.2c0-1.6,0.8-2.9,1.8-2.9h86.5
						c1,0,1.8,1.3,1.8,2.9V239.1z"/>
					
						<radialGradient id="SVGID_11_" cx="358.5694" cy="107.4675" r="96.7604" gradientTransform="matrix(0.622 0 0 -1 57.283 266)" gradientUnits="userSpaceOnUse">
						<stop  offset="0" style="stop-color:#00B292"/>
						<stop  offset="1" style="stop-color:#00A793;stop-opacity:0"/>
					</radialGradient>
					<path class="st24" d="M268,239.1c0,1.6-0.8,2.9-1.8,2.9h-86.5c-1,0-1.8-1.3-1.8-2.9v-24.2c0-1.6,0.8-2.9,1.8-2.9h86.5
						c1,0,1.8,1.3,1.8,2.9V239.1z"/>
					
						<radialGradient id="SVGID_12_" cx="167.9119" cy="34.9747" r="36.8216" gradientTransform="matrix(0.622 0 0 -1 57.283 266)" gradientUnits="userSpaceOnUse">
						<stop  offset="0" style="stop-color:#2BB89B;stop-opacity:0.96"/>
						<stop  offset="1" style="stop-color:#3AB88D;stop-opacity:0"/>
					</radialGradient>
					<path class="st25" d="M268,239.1c0,1.6-0.8,2.9-1.8,2.9h-86.5c-1,0-1.8-1.3-1.8-2.9v-24.2c0-1.6,0.8-2.9,1.8-2.9h86.5
						c1,0,1.8,1.3,1.8,2.9V239.1z"/>
					
						<radialGradient id="SVGID_13_" cx="364.6008" cy="36.6223" r="39.5512" gradientTransform="matrix(0.622 0 0 -1 57.283 266)" gradientUnits="userSpaceOnUse">
						<stop  offset="0" style="stop-color:#63B36E"/>
						<stop  offset="1" style="stop-color:#00A67E;stop-opacity:0"/>
					</radialGradient>
					<path class="st26" d="M268,239.1c0,1.6-0.8,2.9-1.8,2.9h-86.5c-1,0-1.8-1.3-1.8-2.9v-24.2c0-1.6,0.8-2.9,1.8-2.9h86.5
						c1,0,1.8,1.3,1.8,2.9V239.1z"/>
				</g>
				<g class="st12">
					
						<linearGradient id="SVGID_14_" gradientUnits="userSpaceOnUse" x1="222.95" y1="70.1232" x2="222.95" y2="47.3253" gradientTransform="matrix(1 0 0 -1 0 266)">
						<stop  offset="0" style="stop-color:#00ADEE"/>
						<stop  offset="1" style="stop-color:#00ADEE;stop-opacity:0"/>
					</linearGradient>
					<path class="st27" d="M268,239.1c0,1.6-0.8,2.9-1.8,2.9h-86.5c-1,0-1.8-1.3-1.8-2.9v-24.2c0-1.6,0.8-2.9,1.8-2.9h86.5
						c1,0,1.8,1.3,1.8,2.9V239.1z"/>
					
						<linearGradient id="SVGID_15_" gradientUnits="userSpaceOnUse" x1="222.95" y1="7.7905" x2="222.95" y2="35.8474" gradientTransform="matrix(1 0 0 -1 0 266)">
						<stop  offset="0" style="stop-color:#00ADEE"/>
						<stop  offset="1" style="stop-color:#00ADEE;stop-opacity:0"/>
					</linearGradient>
					<path class="st28" d="M268,239.1c0,1.6-0.8,2.9-1.8,2.9h-86.5c-1,0-1.8-1.3-1.8-2.9v-24.2c0-1.6,0.8-2.9,1.8-2.9h86.5
						c1,0,1.8,1.3,1.8,2.9V239.1z"/>
					
						<radialGradient id="SVGID_16_" cx="358.5694" cy="107.4675" r="96.7604" gradientTransform="matrix(0.622 0 0 -1 57.283 266)" gradientUnits="userSpaceOnUse">
						<stop  offset="0" style="stop-color:#00ADEE"/>
						<stop  offset="1" style="stop-color:#00ADEE;stop-opacity:0"/>
					</radialGradient>
					<path class="st29" d="M268,239.1c0,1.6-0.8,2.9-1.8,2.9h-86.5c-1,0-1.8-1.3-1.8-2.9v-24.2c0-1.6,0.8-2.9,1.8-2.9h86.5
						c1,0,1.8,1.3,1.8,2.9V239.1z"/>
					
						<radialGradient id="SVGID_17_" cx="167.9119" cy="34.9747" r="36.8216" gradientTransform="matrix(0.622 0 0 -1 57.283 266)" gradientUnits="userSpaceOnUse">
						<stop  offset="0" style="stop-color:#00ADEE"/>
						<stop  offset="1" style="stop-color:#00ADEE;stop-opacity:0"/>
					</radialGradient>
					<path class="st30" d="M268,239.1c0,1.6-0.8,2.9-1.8,2.9h-86.5c-1,0-1.8-1.3-1.8-2.9v-24.2c0-1.6,0.8-2.9,1.8-2.9h86.5
						c1,0,1.8,1.3,1.8,2.9V239.1z"/>
					
						<radialGradient id="SVGID_18_" cx="364.6008" cy="36.6223" r="39.5512" gradientTransform="matrix(0.622 0 0 -1 57.283 266)" gradientUnits="userSpaceOnUse">
						<stop  offset="0" style="stop-color:#00ADEE"/>
						<stop  offset="1" style="stop-color:#00ADEE;stop-opacity:0"/>
					</radialGradient>
					<path class="st31" d="M268,239.1c0,1.6-0.8,2.9-1.8,2.9h-86.5c-1,0-1.8-1.3-1.8-2.9v-24.2c0-1.6,0.8-2.9,1.8-2.9h86.5
						c1,0,1.8,1.3,1.8,2.9V239.1z"/>
				</g>
			</g>
		</g>
		<rect x="179.2" y="218.3" class="st32" width="87.5" height="20"/>
		<text transform="matrix(1 0 0 1 204.9839 234.342)" class="st33 st10 st34">確認</text>
	</g>
</g>
</svg>
