<svg xmlns="http://www.w3.org/2000/svg" viewBox="0 0 71.16 71.16"><defs><style>.cls-1{fill:#7de7ff;stroke:#61b5d7;stroke-width:3px;}.cls-2{fill:#ef8bb4;}.cls-3{fill:#dd1b61;}</style></defs><title>stamp_1</title><g id="圖層_2" data-name="圖層 2"><g id="圖層_1-2" data-name="圖層 1"><circle class="cls-1" cx="35.58" cy="35.58" r="34.08"/><path class="cls-2" d="M35.82,60a1.1,1.1,0,0,1-.44-.09c-15.83-6.94-25.31-17.4-24.75-27.29.43-7.65,6.23-13.43,13.49-13.43A13.49,13.49,0,0,1,35.83,26,13.49,13.49,0,0,1,61,32.64c0,7.54-4.33,14.66-12.52,20.58a55.32,55.32,0,0,1-12.34,6.67A1.1,1.1,0,0,1,35.82,60Z"/><path class="cls-3" d="M59.94,32.64a12.39,12.39,0,0,0-24.11-4,12.39,12.39,0,0,0-11.72-8.39c-6.84,0-12,5.56-12.39,12.39-.5,8.89,8,19.16,24.1,26.22C35.82,58.85,59.94,50.18,59.94,32.64Z"/></g></g></svg>