<svg xmlns="http://www.w3.org/2000/svg" viewBox="0 0 134.67 134.66"><defs><style>.cls-1{fill:#c28ece;}.cls-2{fill:#e1aeed;}.cls-3{fill:#7f3491;}.cls-4{fill:#ffe36e;}</style></defs><title>stamp_no_3</title><g id="圖層_2" data-name="圖層 2"><g id="圖層_1-2" data-name="圖層 1"><path class="cls-1" d="M82.2,134.67c-6,0-11.41-3.24-14.88-8.51-3.47,5.26-8.92,8.51-14.88,8.51a17.12,17.12,0,0,1-11.34-4.43,16.46,16.46,0,0,1-10.86-4.78c-4.22-4.22-5.78-10.37-4.5-16.54a20.78,20.78,0,0,1-4.18.43A16.79,16.79,0,0,1,4.3,93.26,16.45,16.45,0,0,1,0,82.2c0-6,3.25-11.41,8.51-14.88C3.25,63.85,0,58.4,0,52.44A17.12,17.12,0,0,1,4.43,41.1,16.45,16.45,0,0,1,9.21,30.23,17.29,17.29,0,0,1,21.57,25.3a20.77,20.77,0,0,1,4.18.43c-1.27-6.18.29-12.33,4.5-16.54A17.12,17.12,0,0,1,41.4,4.3,16.45,16.45,0,0,1,52.47,0c6,0,11.41,3.24,14.88,8.51C70.81,3.24,76.26,0,82.23,0A17.13,17.13,0,0,1,93.57,4.43a16.47,16.47,0,0,1,10.86,4.78c4.22,4.22,5.78,10.37,4.5,16.54a20.78,20.78,0,0,1,4.18-.43A16.79,16.79,0,0,1,130.36,41.4a16.45,16.45,0,0,1,4.3,11.06c0,6-3.25,11.41-8.51,14.88,5.26,3.47,8.51,8.92,8.51,14.88a17.13,17.13,0,0,1-4.43,11.34,16.45,16.45,0,0,1-4.78,10.87,17.29,17.29,0,0,1-12.36,4.93h0a20.77,20.77,0,0,1-4.18-.43c1.27,6.18-.29,12.33-4.5,16.54a17.12,17.12,0,0,1-11.15,4.89A16.45,16.45,0,0,1,82.2,134.67Z"/><path class="cls-2" d="M56.7,13.41c-7.3-7.3-18.19-8.24-24.33-2.1-4.88,4.88-5.28,12.78-1.57,19.48-6.7-3.72-14.59-3.32-19.48,1.57-6.14,6.14-4.84,16.7,2.1,24.33C22.46,66.62,41.07,69.93,63,63,63,63,75.42,32.13,56.7,13.41Z"/><path class="cls-2" d="M78,121.25c7.3,7.3,18.19,8.24,24.33,2.1,4.88-4.88,5.28-12.78,1.57-19.48,6.7,3.72,14.59,3.32,19.48-1.57,6.14-6.14,4.84-16.7-2.1-24.33-9-9.93-27.64-13.25-49.59-6.35C71.64,71.63,59.25,102.54,78,121.25Z"/><path class="cls-3" d="M21.69,36.72C11.37,36.72,3,43.76,3,52.44c0,6.91,5.3,12.77,12.66,14.88C8.3,69.43,3,75.29,3,82.2c0,8.68,8.38,15.23,18.69,15.72,13.41.64,28.91-10.17,39.55-30.58C61.24,67.34,48.15,36.72,21.69,36.72Z"/><path class="cls-3" d="M113,97.94c10.32,0,18.69-7,18.69-15.72,0-6.91-5.3-12.77-12.66-14.88,7.36-2.11,12.66-8,12.66-14.88,0-8.68-8.38-15.23-18.69-15.72-13.41-.64-28.91,10.17-39.55,30.58C73.42,67.33,86.51,97.94,113,97.94Z"/><path class="cls-2" d="M13.41,78c-7.3,7.3-8.24,18.19-2.1,24.33,4.88,4.88,12.78,5.28,19.48,1.57-3.72,6.7-3.32,14.59,1.57,19.48,6.14,6.14,16.7,4.84,24.33-2.1,9.93-9,13.25-27.64,6.35-49.59C63,71.64,32.13,59.25,13.41,78Z"/><path class="cls-2" d="M121.25,56.7c7.3-7.3,8.24-18.19,2.1-24.33-4.88-4.88-12.78-5.28-19.48-1.57,3.72-6.7,3.32-14.59-1.57-19.48C96.17,5.19,85.62,6.49,78,13.43,68,22.46,64.73,41.07,71.63,63,71.63,63,102.54,75.42,121.25,56.7Z"/><path class="cls-3" d="M97.94,21.69C97.94,11.37,90.91,3,82.23,3,75.32,3,69.46,8.3,67.35,15.66,65.24,8.3,59.37,3,52.47,3c-8.68,0-15.23,8.38-15.72,18.69C36.11,35.1,46.92,50.6,67.33,61.24,67.33,61.24,97.94,48.15,97.94,21.69Z"/><path class="cls-3" d="M36.72,113c0,10.32,7,18.69,15.72,18.69,6.91,0,12.77-5.3,14.88-12.66,2.11,7.36,8,12.66,14.88,12.66,8.68,0,15.23-8.38,15.72-18.69.64-13.41-10.17-28.91-30.58-39.55C67.34,73.42,36.72,86.51,36.72,113Z"/><circle class="cls-4" cx="67.33" cy="67.39" r="13.81"/></g></g></svg>