<?xml version="1.0" encoding="utf-8"?>
<!-- Generator: Adobe Illustrator 21.0.0, SVG Export Plug-In . SVG Version: 6.00 Build 0)  -->
<svg version="1.1" id="圖層_1" xmlns="http://www.w3.org/2000/svg" xmlns:xlink="http://www.w3.org/1999/xlink" x="0px" y="0px"
	 viewBox="0 0 822.9 601.4" style="enable-background:new 0 0 822.9 601.4;" xml:space="preserve">
<style type="text/css">
	.st0{fill:url(#SVGID_1_);}
	.st1{fill:#CE9245;}
	.st2{fill:#A66A22;}
	.st3{opacity:0.6;fill:#CE9245;enable-background:new    ;}
	.st4{fill:#AC6D21;}
	.st5{fill:url(#SVGID_2_);}
	.st6{fill:url(#SVGID_3_);}
	.st7{fill:url(#SVGID_4_);}
	.st8{fill:url(#SVGID_5_);}
	.st9{fill:url(#SVGID_6_);}
	.st10{opacity:0.6;fill:#D69644;enable-background:new    ;}
	.st11{fill:#070505;}
	.st12{fill:#22201E;}
	.st13{fill:url(#SVGID_7_);}
	.st14{fill:#DC827B;}
	.st15{fill:#9B2724;}
	.st16{fill:#8F2022;}
	.st17{fill:#C7812F;}
	.st18{fill:#DCB7A7;}
	.st19{fill:#FEF6F2;}
	.st20{fill:#E5BE51;}
	.st21{fill:#CF361C;}
	.st22{fill:#E9DED9;}
	.st23{fill:#FFFFFF;}
	.st24{fill:none;stroke:#DCB7A7;stroke-width:0.8656;stroke-linecap:round;stroke-miterlimit:10;}
	.st25{fill:#9E9E9E;}
	.st26{fill:#E2DFDE;}
	.st27{fill:none;stroke:#9B2724;stroke-width:0.5638;stroke-linecap:round;stroke-linejoin:round;stroke-miterlimit:10;}
	.st28{fill:url(#SVGID_8_);}
	.st29{fill:url(#SVGID_9_);}
	.st30{fill:#D69644;}
	.st31{fill:#D04B22;}
	.st32{fill:url(#SVGID_10_);}
	.st33{fill:url(#SVGID_11_);}
	.st34{fill:url(#SVGID_12_);}
	.st35{fill:url(#SVGID_13_);}
	.st36{fill:url(#SVGID_14_);}
	.st37{fill:url(#SVGID_15_);}
	.st38{fill:url(#SVGID_16_);}
	.st39{fill:#FBEEBA;}
	.st40{fill:#F3B699;}
	.st41{fill:#FCF0CA;}
	.st42{fill:none;stroke:#FCF0CA;stroke-width:0.5868;stroke-miterlimit:10;}
	.st43{fill:url(#SVGID_17_);}
	.st44{fill:url(#SVGID_18_);}
	.st45{fill:url(#SVGID_19_);}
	.st46{fill:#EEE9E5;}
	.st47{fill:#323130;}
	.st48{fill:#181717;}
	.st49{fill:#A4A09F;}
	.st50{fill:#546B7F;}
	.st51{fill:#92A2AD;}
	.st52{opacity:0.6;fill:#A4A09F;enable-background:new    ;}
	.st53{fill:none;stroke:#A4A09F;stroke-width:0.6175;stroke-linecap:round;stroke-miterlimit:10;}
	.st54{fill:#7B8C9F;}
	.st55{fill:#C1E0F6;}
	.st56{fill:url(#SVGID_20_);}
	.st57{opacity:0.6;}
	.st58{fill:#E2BF40;}
	.st59{fill:url(#SVGID_21_);}
	.st60{fill:url(#SVGID_22_);}
	.st61{fill:url(#SVGID_23_);}
	.st62{fill:url(#SVGID_24_);}
	.st63{fill:none;stroke:#FFFFFF;stroke-width:1.8107;stroke-linecap:round;stroke-miterlimit:10;}
	.st64{opacity:0.6;fill:#E2BF40;enable-background:new    ;}
	.st65{fill:#3F210E;}
	.st66{opacity:0.35;fill:#FFFFFF;enable-background:new    ;}
	.st67{fill:url(#SVGID_25_);}
	.st68{fill:url(#SVGID_26_);}
	.st69{fill:url(#SVGID_27_);}
	.st70{opacity:0.8;}
	.st71{fill:url(#SVGID_28_);}
	.st72{fill:url(#SVGID_29_);}
	.st73{fill:#B62E22;}
	.st74{fill:#92622F;}
	.st75{fill:url(#SVGID_30_);}
	.st76{fill:#C5A27C;}
	.st77{opacity:0.8;fill:url(#SVGID_31_);enable-background:new    ;}
	.st78{fill:url(#SVGID_32_);}
	.st79{fill:#2B150B;}
	.st80{fill:#97654C;}
	.st81{opacity:0.4;fill:#3E210E;enable-background:new    ;}
	.st82{fill:url(#SVGID_33_);}
	.st83{opacity:0.35;fill:#DF9E83;enable-background:new    ;}
	.st84{fill:#DF9E83;}
	.st85{fill:#F6D4C7;}
	.st86{opacity:0.69;}
	.st87{fill:#CE5E39;}
	.st88{opacity:0.4;}
	.st89{fill:#3E210E;}
	.st90{fill:#DE805C;}
	.st91{fill:url(#SVGID_34_);stroke:#D78863;stroke-width:0.9662;stroke-miterlimit:10;}
	.st92{fill:url(#SVGID_35_);}
	.st93{fill:#A66B23;}
	.st94{fill:url(#SVGID_36_);}
	.st95{fill:url(#SVGID_37_);}
	.st96{fill:url(#SVGID_38_);}
	.st97{fill:url(#SVGID_39_);}
	.st98{fill:#824323;}
	.st99{fill:url(#SVGID_40_);}
	.st100{fill:#E6A952;}
	.st101{fill:#BB7F37;}
	.st102{fill:url(#SVGID_41_);}
	.st103{fill:url(#SVGID_42_);}
	.st104{fill:url(#SVGID_43_);}
	.st105{fill:#EBA794;}
	.st106{fill:#40210F;}
	.st107{opacity:0.25;fill:#D69644;enable-background:new    ;}
	.st108{opacity:0.5;fill:#D69644;enable-background:new    ;}
	.st109{fill:#FBF4C3;}
	.st110{fill:#DEBD91;}
	.st111{fill:#D8C7A7;}
	.st112{fill:url(#SVGID_44_);}
	.st113{fill:#893827;}
	.st114{opacity:0.4;fill:#E2BF40;enable-background:new    ;}
	.st115{fill:#895424;}
	.st116{fill:#391E13;}
	.st117{fill:#D7B093;}
	.st118{fill:#EFD39D;}
	.st119{fill:#8C5924;}
	.st120{fill:#B55C4E;}
	.st121{fill:url(#SVGID_45_);}
	.st122{fill:url(#SVGID_46_);}
	.st123{fill:#E0917F;}
	.st124{fill:#AB948D;}
	.st125{fill:url(#SVGID_47_);}
	.st126{fill:url(#SVGID_48_);}
	.st127{opacity:0.6;fill:url(#SVGID_49_);enable-background:new    ;}
	.st128{fill:#CD9449;}
	.st129{fill:url(#SVGID_50_);}
	.st130{fill:url(#SVGID_51_);}
	.st131{fill:url(#SVGID_52_);}
	.st132{fill:url(#SVGID_53_);}
	.st133{fill:#842B20;}
	.st134{fill:url(#SVGID_54_);}
	.st135{fill:url(#SVGID_55_);}
	.st136{opacity:0.6;fill:#D2503A;enable-background:new    ;}
	.st137{fill:#DC7D67;}
	.st138{fill:url(#SVGID_56_);}
	.st139{fill:url(#SVGID_57_);}
	.st140{opacity:0.8;fill:#E2BF40;enable-background:new    ;}
	.st141{fill:url(#SVGID_58_);}
	.st142{opacity:0.4;fill:#59A4C1;enable-background:new    ;}
	.st143{fill:#80B4D2;}
	.st144{fill:#4493BB;}
	.st145{fill:#D2ECF9;}
	.st146{opacity:0.5;fill:#80B4D2;enable-background:new    ;}
	.st147{fill:url(#SVGID_59_);}
	.st148{fill:#976430;}
	.st149{fill:url(#SVGID_60_);}
	.st150{fill:#CAA67E;}
	.st151{fill:#5CA6A6;}
	.st152{fill:url(#SVGID_61_);}
	.st153{fill:#9DD6DE;}
	.st154{fill:none;stroke:#AFDDE3;stroke-width:0.8954;stroke-miterlimit:10;}
	.st155{opacity:0.3;enable-background:new    ;}
	.st156{clip-path:url(#SVGID_63_);fill:#9DD6DE;}
	.st157{clip-path:url(#SVGID_65_);fill:#9DD6DE;}
	.st158{opacity:0.6;fill:#FFFFFF;enable-background:new    ;}
	.st159{fill:url(#SVGID_66_);}
	.st160{fill:url(#SVGID_67_);}
	.st161{fill:url(#SVGID_68_);}
	.st162{fill:url(#SVGID_69_);}
	.st163{fill:url(#SVGID_70_);}
	.st164{fill:url(#SVGID_71_);}
	.st165{fill:url(#SVGID_72_);}
	.st166{fill:url(#SVGID_73_);}
	.st167{fill:#FCF1CD;}
	.st168{fill:url(#SVGID_74_);}
	.st169{fill:#AC6E21;}
	.st170{opacity:0.4;fill:#AC6E21;enable-background:new    ;}
	.st171{fill:#E9D288;}
	.st172{opacity:0.3;}
	.st173{fill:url(#SVGID_75_);}
	.st174{fill:url(#SVGID_76_);}
	.st175{opacity:0.3;fill:url(#SVGID_77_);enable-background:new    ;}
</style>
<g>
	<g>
		
			<linearGradient id="SVGID_1_" gradientUnits="userSpaceOnUse" x1="3004.8291" y1="-1247.6392" x2="3086.0527" y2="-1247.6392" gradientTransform="matrix(-1 0 0 -1 3605.6123 -870.0905)">
			<stop  offset="0" style="stop-color:#EDCF95"/>
			<stop  offset="0.5331" style="stop-color:#EECC91"/>
			<stop  offset="0.7526" style="stop-color:#EFC88D"/>
			<stop  offset="1" style="stop-color:#EDB397"/>
		</linearGradient>
		<path class="st0" d="M519.3,354.8l7.6-17.6c0-0.3,0-1,0.3-1.4c0-0.3,0-0.3,0-0.3c0-0.3,0.3-0.7,0.3-1c0-0.3,0-0.3,0.3-0.7
			c0.3-0.3,0.3-0.7,0.3-1c0-0.3,0-0.3,0.3-0.3c0.3-0.7,0.3-1,0.7-1.7c0-0.3,0.3-0.3,0.3-0.3c0.3-0.3,0.3-0.7,0.7-1
			c0-0.3,0.3-0.3,0.3-0.7c0.3-0.3,0.3-0.7,0.7-1c0-0.3,0.3-0.3,0.3-0.7c2.8-5.5,6.9-10.4,9.7-13.8c0.3-0.3,0.3-0.3,0.3-0.3
			c15.2,19,32.2,45,45.7,77.8c0,0,12.5,11.8,12.5,28.4c0,16.6-12.8,22.1-19.7,20.4l0,0c-7.6,6.9-18.7,2.4-20.8-8.3v-0.3
			c-0.3,0.3-1,0.7-1.7,0.7c-4.5,2.4-10.7-0.7-12.8-4.8l0,0l0,0c0-0.3-0.3-0.3-0.3-0.7l0.3-0.3l-1.7-13.5h0.3v-3.5l0.7-2.4
			c-0.3-0.7-0.7-1.4-0.7-2.1l-0.7-1l-0.7-2.4v-0.7c-2.4-6.2-6.2-14.9-11.4-24.9c-3.1-6.6-6.9-13.5-10.7-20.1L519.3,354.8z"/>
	</g>
	<path class="st1" d="M567.8,412.2c0,0,2.4,18.3-8,24.2l-1.7-5.2C558.1,431.2,568.8,425.7,567.8,412.2z"/>
	<path class="st1" d="M585.4,418.1c0,0,4.8,12.1,1,20.8c0,0-3.1,1-8,0.7C578.8,439.9,587.1,435.7,585.4,418.1z"/>
	<path class="st2" d="M568.1,418.1c0,0,0.3,11.1-9,14.9l-0.3-1.7C558.4,431.2,568.1,422.6,568.1,418.1z"/>
	<path class="st2" d="M586.5,424.3c0,0,0.7,10-4.8,15.6l-3.5-0.3C578.2,439.9,585.4,432.6,586.5,424.3z"/>
	<path class="st3" d="M519.3,354.8l7.6-17.6c0-0.3,0-1,0.3-1.4c0-0.3,0-0.3,0-0.3c0-0.3,0.3-0.7,0.3-1c0-0.3,0-0.3,0.3-0.7
		c0.3-0.3,0.3-0.7,0.3-1c0-0.3,0-0.3,0.3-0.3c0.3-0.7,0.3-1,0.7-1.7c0-0.3,0.3-0.3,0.3-0.3c0.3-0.3,0.3-0.7,0.7-1
		c0-0.3,0.3-0.3,0.3-0.7c0.3-0.3,0.3-0.7,0.7-1c0-0.3,0.3-0.3,0.3-0.7c0,0,0-0.3,0.3-0.3c10.4,20.4,21.4,47.4,22.1,70.2
		c0,0-12.8,16.3-8.3,31.8c-0.3-0.3-0.7-1-0.7-1.7l0,0l0,0c0-0.3-0.3-0.3-0.3-0.7l0.3-0.3l-1.7-13.5h0.3v-3.5l0.7-3.1l-1.7-2.4
		l-1-2.4l-19-41.5c0,0-1-1-2.8-3.8L519.3,354.8z"/>
	<g>
		<path class="st2" d="M542.5,408.4l-0.7-1l0,0c-0.3-0.3-12.5-27.7-23.9-49.8l1-2.8l0,0c10.4,19.7,21.8,45,24.2,50.2
			c0.3-1,0.7-1.7,0.7-1.7l0,0c1-1.7,2.1-3.5,2.4-3.5c0.3-0.3,0.7-0.3,0.7,0c0.3,0.3,0.3,0.7,0,0.7c-0.3,0.3-0.7,0.7-0.7,1
			c0,0-6.6,10-3.1,24.6l0,0c0.7,2.1,2.8,3.8,5.2,4.8c2.4,1,4.8,1,6.9,0c8.3-3.8,12.5-12.8,10.7-21.4c0-0.3,0.3-0.7,0.3-0.7
			c0.3,0,0.7,0.3,0.7,0.3c1.7,8.3-2.1,17-9.3,21.4c1,5.2,4.5,9,8.6,10.4c4.2,1,8.6,0,11.8-3.5c8.6-8.6,5.2-21.4,5.2-21.4
			c0-0.3,0.3-0.7,0.3-0.7c0.3,0,0.7,0.3,0.7,0.3c0,0.3,3.5,13.8-5.5,22.8l0,0c2.8,0.3,6.9-0.7,10.7-3.5c3.1-2.4,6.9-7.6,6.9-16.6
			c0-16.3-12.1-27.7-12.1-28l-0.3-0.3c-13.5-32.9-30.8-58.8-45.7-77.5l0.3-0.3c1-1,2.1-2.1,2.4-3.1l0,0c4.8,6.2,10,13.1,15.2,21.1
			l0,0c0,0,24.6,36.7,30.1,57.4c6.9,8.6,19.4,28.7,7.3,43.9c-1,1.7-2.4,3.1-3.8,4.2c-0.3,0.3-1,0.7-1.7,1c-0.3,0-0.3,0.3-0.3,0.3
			l0,0c-2.8,1.7-5.9,2.4-8.6,2.4c-0.7,0-1.7,0-2.1-0.3c-2.4,2.1-5.5,3.1-8.6,3.1c-1,0-2.4-0.3-3.5-0.7c-4.8-1.4-8.3-5.5-9.7-11.1
			c-0.3,0.3-0.7,0.3-0.7,0.3c-1,0.7-2.4,0.7-3.8,0.7s-2.4-0.3-3.8-0.7c-2.4-1-4.5-3.1-5.5-5.2l0,0c0,0,0,0,0-0.3s-0.3-0.3-0.3-0.3
			l0,0c0,0-1-2.4-1.4-6.9c-0.3-1.7-0.3-3.5,0-5.5C541.8,412.2,542.2,410.1,542.5,408.4z"/>
	</g>
</g>
<g>
	<g>
		
			<linearGradient id="SVGID_2_" gradientUnits="userSpaceOnUse" x1="2782.1541" y1="-1247.6392" x2="2863.3777" y2="-1247.6392" gradientTransform="matrix(1 0 0 -1 -2487.7124 -870.0905)">
			<stop  offset="0" style="stop-color:#EDCF95"/>
			<stop  offset="0.5331" style="stop-color:#EECC91"/>
			<stop  offset="0.7526" style="stop-color:#EFC88D"/>
			<stop  offset="1" style="stop-color:#EDB397"/>
		</linearGradient>
		<path class="st5" d="M375.2,354.8c-3.8,6.6-7.6,13.5-10.7,20.1c-5.2,10-9,18.7-11.4,24.9v0.7l-0.7,2.4l-0.7,1
			c0,0.7-0.3,1.4-0.7,2.1l0.7,2.4v3.5h0.3l-1.7,13.5l0.3,0.3c0,0.3-0.3,0.3-0.3,0.7l0,0l0,0c-2.1,4.2-8.3,7.3-12.8,4.8
			c-0.7,0-1.4-0.3-1.7-0.7v0.3c-2.1,10.7-13.1,15.2-20.8,8.3l0,0c-6.9,1.7-19.7-3.8-19.7-20.4c0-16.6,12.5-28.4,12.5-28.4
			c13.5-32.9,30.4-58.8,45.7-77.8c0,0,0,0,0.3,0.3c2.8,3.5,6.9,8.3,9.7,13.8c0,0.3,0.3,0.3,0.3,0.7c0.3,0.3,0.3,0.7,0.7,1
			c0,0.3,0.3,0.3,0.3,0.7c0.3,0.3,0.3,0.7,0.7,1c0,0,0.3,0,0.3,0.3c0.3,0.7,0.3,1,0.7,1.7c0.3,0,0.3,0,0.3,0.3c0,0.3,0,0.7,0.3,1
			c0.3,0.3,0.3,0.3,0.3,0.7c0,0.3,0.3,0.7,0.3,1c0,0,0,0,0,0.3c0.3,0.3,0.3,1,0.3,1.4l7.6,17.6L375.2,354.8z"/>
	</g>
	<path class="st1" d="M337.1,431.2l-1.7,5.2c-10.4-5.9-8-24.2-8-24.2C326.4,425.7,337.1,431.2,337.1,431.2z"/>
	<path class="st1" d="M316.7,439.6c-4.8,0.3-8-0.7-8-0.7c-3.8-8.6,1-20.8,1-20.8C308.1,435.7,316.4,439.9,316.7,439.6z"/>
	<path class="st2" d="M336.4,431.2l-0.3,1.7c-9.3-3.8-9-14.9-9-14.9C327.1,422.6,336.8,431.2,336.4,431.2z"/>
	<path class="st2" d="M317.1,439.6l-3.5,0.3c-5.5-5.5-4.8-15.6-4.8-15.6C309.8,432.6,317.1,439.9,317.1,439.6z"/>
	<path class="st3" d="M375.2,355.5c-1.7,2.8-2.8,3.8-2.8,3.8l-19,41.5l-1,2.4l-1.7,2.4l0.7,3.1v3.5h0.3l-1.7,13.5l0.3,0.3
		c0,0.3-0.3,0.3-0.3,0.7l0,0l0,0c0,0.7-0.3,1.4-0.7,1.7c4.5-15.6-8.3-31.8-8.3-31.8c0.7-22.8,11.8-49.8,22.1-70.2
		c0.3,0,0.3,0.3,0.3,0.3c0,0.3,0.3,0.3,0.3,0.7c0.3,0.3,0.3,0.7,0.7,1c0,0.3,0.3,0.3,0.3,0.7c0.3,0.3,0.3,0.7,0.7,1
		c0,0,0.3,0,0.3,0.3c0.3,0.7,0.3,1,0.7,1.7c0.3,0,0.3,0,0.3,0.3c0,0.3,0,0.7,0.3,1c0.3,0.3,0.3,0.3,0.3,0.7c0,0.3,0.3,0.7,0.3,1
		c0,0,0,0,0,0.3c0.3,0.3,0.3,1,0.3,1.4l7.6,17.6L375.2,355.5z"/>
	<g>
		<path class="st2" d="M355.5,412.6c0.3,2.1,0.3,3.8,0,5.5c-0.3,4.5-1.4,6.9-1.4,6.9l0,0c0,0-0.3,0-0.3,0.3s0,0.3,0,0.3l0,0
			c-1,2.1-3.1,4.2-5.5,5.2c-1.4,0.3-2.4,0.7-3.8,0.7c-1.4,0-2.8,0-3.8-0.7c0,0-0.3,0-0.7-0.3c-1.4,5.5-4.8,9.7-9.7,11.1
			c-1,0.3-2.4,0.7-3.5,0.7c-3.1,0-6.2-1-8.6-3.1c-0.3,0.3-1.4,0.3-2.1,0.3c-2.8,0-5.9-0.7-8.6-2.4l0,0c0,0,0-0.3-0.3-0.3
			c-0.7-0.3-1.4-0.7-1.7-1c-1.4-1-2.8-2.4-3.8-4.2c-12.1-15.2,0.3-35.3,7.3-43.9c5.5-20.8,30.1-57.4,30.1-57.4l0,0
			c5.2-8,10.4-14.9,15.2-21.1l0,0c0.3,1,1.4,2.1,2.4,3.1l0.3,0.3c-14.9,18.7-32.2,44.6-45.7,77.5l-0.3,0.3c0,0.3-12.1,11.8-12.1,28
			c0,9,3.8,14.2,6.9,16.6c3.8,2.8,8,3.8,10.7,3.5l0,0c-9-9-5.5-22.5-5.5-22.8c0,0,0.3-0.3,0.7-0.3c0,0,0.3,0.3,0.3,0.7
			c0,0-3.5,12.8,5.2,21.4c3.1,3.5,7.6,4.5,11.8,3.5c4.2-1.4,7.6-5.2,8.6-10.4c-7.3-4.5-11.1-13.1-9.3-21.4c0,0,0.3-0.3,0.7-0.3
			c0,0,0.3,0.3,0.3,0.7c-1.7,8.6,2.4,17.6,10.7,21.4c2.1,1,4.5,1,6.9,0c2.4-1,4.5-2.8,5.2-4.8l0,0c3.5-14.5-3.1-24.6-3.1-24.6
			c0-0.3-0.3-0.7-0.7-1c-0.3,0-0.3-0.3,0-0.7c0-0.3,0.3-0.3,0.7,0c0.3,0,1.4,1.7,2.4,3.5l0,0c0,0,0.3,0.7,0.7,1.7
			c2.4-5.2,13.8-30.4,24.2-50.2l0,0l1,2.8c-11.4,22.1-23.5,49.5-23.9,49.8l0,0l-0.7,1C353.1,410.1,353.4,412.2,355.5,412.6z"/>
	</g>
</g>
<g>
	<g>
		<g>
			<linearGradient id="SVGID_3_" gradientUnits="userSpaceOnUse" x1="334.9019" y1="106.8913" x2="515.568" y2="198.7131">
				<stop  offset="0" style="stop-color:#F2D397"/>
				<stop  offset="0.4319" style="stop-color:#F3D195"/>
				<stop  offset="0.7526" style="stop-color:#F5CC8F"/>
				<stop  offset="1" style="stop-color:#F3B699"/>
			</linearGradient>
			<path class="st6" d="M544.3,129.5c-1.8-2.5-3.6-5-5.8-7.2c19.5-2.2,32.4-28.1,16.6-45.7c-27-27.4-56.9-2.9-55.8,15.8
				C483.8,85.6,467.2,82,449.6,82c-20.9,0-41.4,4.7-60.2,13.3c4.7-18.7-27-47.5-55.1-18.7c-16.2,18.4-1.8,45,18.4,45.7
				c-0.7,0.7-1.4,1.4-2.2,2.2c-24.5,27.7-34.2,66.6-21.6,101.9c1.8,5,4.3,10.1,7.2,14.4c19.1,29.2,56.9,40.7,90.1,43.9
				c4.7,0.4,9,0.7,13.7,0.7c27,0.4,54-5,78.2-18c20.5-11.2,38.9-26.7,44.7-50.4C570.6,187.5,561.6,154.4,544.3,129.5z"/>
			<path class="st23" d="M489.9,154.7c0,0,10.8-2.5,18,4.3c7.6,6.8,14.8,17.3,9,39.6c0,0-18.4-4.7-24.1-5l-22.3-1.8
				C470.1,191.8,464.7,159.4,489.9,154.7z"/>
			<path class="st98" d="M420.4,191.8c0,0-23.8-1.1-45.7,5.8l0.4,1.1C374.6,198.7,398.1,192.5,420.4,191.8z"/>
			<linearGradient id="SVGID_4_" gradientUnits="userSpaceOnUse" x1="340.2855" y1="100.1635" x2="373.1117" y2="100.1635">
				<stop  offset="0" style="stop-color:#FEECD2"/>
				<stop  offset="0.6938" style="stop-color:#FBEABC"/>
				<stop  offset="1" style="stop-color:#F9E9B0"/>
			</linearGradient>
			<path class="st7" d="M360.2,115.5c-4.7-0.7-7.9-1.1-11.9-3.6c-3.6-2.5-6.8-6.5-7.6-11.2c-1.1-4.7,0.4-9.7,4-12.6
				c4.7-4,13-4.3,18-0.7c5,3.6,9,10.4,10.4,16.6l-0.4,0.7L360.2,115.5z"/>
			<g>
				<g>
					<path class="st98" d="M371.8,198.3l-1.4,1.8c2.2-1.1,4.7-1.8,4.7-1.8l-0.4-1.1l0,0l0,0c-17.3-49,50.4-59.4,44.7-5.4
						C428.7,134.9,355.2,144.3,371.8,198.3z"/>
				</g>
			</g>
			<g>
				<path class="st100" d="M380.4,141.8c-0.7-4,4.3-7.9,11.2-9s12.6,1.4,13,5.4c0.7,4-4.3,7.9-11.2,9
					C386.9,147.9,381.1,145.7,380.4,141.8z"/>
				<path class="st101" d="M390.5,147.9c-2.2,0-4.3-0.4-6.1-1.1c-2.5-1.1-4.3-2.9-4.7-5l0,0c-0.7-4.3,4.7-8.3,11.5-9.4
					c3.2-0.4,6.5-0.4,9,0.7c2.5,1.1,4.3,2.9,4.7,5c0.4,2.2-0.7,4.3-2.9,6.1c-2.2,1.8-5,2.9-8.6,3.6
					C392.7,147.5,391.6,147.9,390.5,147.9z M394.5,133.1c-1.1,0-1.8,0-2.9,0.4c-6.5,1.1-11.2,4.7-10.8,8.3l0,0c0.4,1.8,1.8,3.2,4,4
					c2.5,1.1,5.4,1.1,8.6,0.7c3.2-0.4,6.1-1.4,7.9-3.2c1.8-1.4,2.9-3.2,2.5-5c-0.4-1.8-1.8-3.2-4-4
					C398.8,133.5,396.6,133.1,394.5,133.1z"/>
			</g>
			<ellipse class="st98" cx="400.9" cy="176.3" rx="9.4" ry="12.6"/>
			<linearGradient id="SVGID_5_" gradientUnits="userSpaceOnUse" x1="516.6141" y1="100.1635" x2="549.4404" y2="100.1635">
				<stop  offset="0" style="stop-color:#FEECD2"/>
				<stop  offset="0.6938" style="stop-color:#FBEABC"/>
				<stop  offset="1" style="stop-color:#F9E9B0"/>
			</linearGradient>
			<path class="st8" d="M529.5,115.5c4.7-0.7,7.9-1.1,11.9-3.6c3.6-2.5,6.8-6.5,7.6-11.2c1.1-4.7-0.4-9.7-4-12.6
				c-4.7-4-13-4.3-18-0.7s-9,10.4-10.4,16.6l0.4,0.7L529.5,115.5z"/>
			<g>
				<path class="st100" d="M509.4,141.8c0.7-4-4.3-7.9-11.2-9s-12.6,1.4-13,5.4c-0.7,4,4.3,7.9,11.2,9
					C502.9,147.9,508.6,145.7,509.4,141.8z"/>
				<path class="st101" d="M498.9,147.9c-1.1,0-2.2,0-2.9-0.4c-3.2-0.4-6.5-1.8-8.6-3.6s-3.2-4-2.9-6.1c0.7-4.3,6.8-6.8,13.7-5.8
					c3.2,0.4,6.5,1.8,8.6,3.6c2.2,1.8,3.2,4,2.9,6.1l0,0C509,145.4,504.7,147.9,498.9,147.9z M495,133.1c-5,0-9,2.2-9.7,5
					c-0.4,1.8,0.7,3.6,2.5,5c2.2,1.8,5,2.9,7.9,3.2c6.5,1.1,11.9-1.1,12.6-5h0.4h-0.4c0.4-1.8-0.7-3.6-2.5-5c-2.2-1.8-5-2.9-7.9-3.2
					C497.1,133.1,496,133.1,495,133.1z"/>
			</g>
			<ellipse class="st98" cx="488.8" cy="176.3" rx="9.4" ry="12.6"/>
			<path class="st23" d="M399.9,154.7c0,0-10.8-2.5-18,4.3c-7.6,6.8-14.8,17.3-9,39.6c0,0,18.4-4.7,24.1-5l22.3-1.8
				C419.7,191.8,425.1,159.4,399.9,154.7z"/>
			
				<linearGradient id="SVGID_6_" gradientUnits="userSpaceOnUse" x1="20.418" y1="175.6881" x2="59.4317" y2="175.6881" gradientTransform="matrix(-1 0 0 1 440.6798 0)">
				<stop  offset="0" style="stop-color:#844E2F"/>
				<stop  offset="0.5308" style="stop-color:#71432D"/>
				<stop  offset="1" style="stop-color:#5E3828"/>
			</linearGradient>
			<path class="st9" d="M403.8,156.2c0,0,13.3,2.2,16.2,25.2c0,0,0,7.9-0.7,10.4l-7.6,0.4c0,0-24.5,2.2-26.3,3.2
				C375.7,180.3,382.6,153.3,403.8,156.2z"/>
			<linearGradient id="SVGID_7_" gradientUnits="userSpaceOnUse" x1="334.2954" y1="242.2639" x2="554.3905" y2="242.2639">
				<stop  offset="0" style="stop-color:#FEECD2"/>
				<stop  offset="0.6938" style="stop-color:#FBEABC"/>
				<stop  offset="1" style="stop-color:#F9E9B0"/>
			</linearGradient>
			<path class="st13" d="M455,199h-21.3c-76,0-99.4,38.2-99.4,38.2c0.7,1.1,1.4,2.5,2.2,3.6c19.1,29.2,56.9,40.7,90.1,43.9
				c4.7,0.4,9,0.7,13.7,0.7c27,0.4,54-5,78.2-18c14-7.6,27.4-17.3,36-30.6C552.6,234,528.1,199,455,199z"/>
			<path class="st105" d="M385.8,237.2c0-25.9-20.9-46.8-46.5-46.8c-5.8,0-11.2,1.1-15.8,2.9c0,11.2,1.8,22.3,5.8,33.1
				c1.8,5,4.3,10.1,7.2,14.4c8.6,13.3,21.3,23.1,35.7,29.9C380.8,262.1,385.8,250.2,385.8,237.2z"/>
			<path class="st105" d="M504.7,237.2c0,11.9,4.7,23.1,11.9,31.3c0.7-0.4,1.1-0.7,1.8-1.1c20.5-11.2,38.9-26.7,44.7-50.4
				c1.8-7.9,2.9-16.2,2.5-24.5c-4.7-1.4-9.7-2.5-14.8-2.5C525.6,190.4,504.7,211.3,504.7,237.2z"/>
			<path class="st106" d="M442.4,195.8c0,0,6.5,0,9.4,0.4c2.9,0.7,5.8,1.8,3.2,5.4c-2.9,4-10.1,6.5-10.1,6.5s-7.6-2.2-10.1-6.5
				c-2.2-3.6,0.4-4.7,3.2-5.4c2.9-0.7,9.4-0.4,9.4-0.4"/>
			<path class="st107" d="M436.2,285.5c1.4,0,2.9,0,4,0c27,0.4,54-5,78.2-18c20.5-11.2,38.9-26.7,44.7-50.4
				c7.2-29.9-1.8-63-19.1-87.5c-1.8-2.5-3.6-5-5.8-7.2C538.5,122.3,598.7,266.4,436.2,285.5z"/>
			<path class="st108" d="M341.9,136c13.3-12.2,19.8-14.8,19.8-14.8c-31.7-1.4-29.5-40-29.5-41.4c-12.2,18,1.4,42.1,20.5,42.9
				c-0.7,0.7-1.4,1.4-2.2,2.2C347.6,128.1,344.7,132,341.9,136z"/>
			<path class="st107" d="M547.9,136c-13.3-12.2-19.8-14.8-19.8-14.8c31.7-1.4,29.5-40,29.5-41.4c11.5,14.8,0,41.8-19.1,42.5
				c0.7,0.7,1.4,1.4,2.2,2.2C543.6,127.7,545,132,547.9,136z"/>
			<path class="st109" d="M352.7,122.3c-0.7,0.7-1.4,1.4-2.2,2.2c-24.5,27.7-34.2,66.6-21.6,101.9c1.8,5,4.3,10.1,7.2,14.4
				c6.5,10.1,15.1,18,25.2,24.1l0,0C299,201.2,352.7,122.3,352.7,122.3z"/>
			<path class="st110" d="M362.4,87c-3.2-2.5-7.9-3.2-11.9-2.2l0,0c0,0,20.2,8.6,18,23.1l4-3.6l0.4-0.7
				C371.4,97.4,367.8,91,362.4,87z"/>
			<path class="st110" d="M527.4,87c3.2-2.5,7.9-3.2,11.9-2.2l0,0c0,0-20.2,8.6-18,23.1l-4-3.6l-0.4-0.7
				C518.4,97.4,522.3,91,527.4,87z"/>
			<path class="st111" d="M471.2,171.7c0,0,37.1,0,47.5,7.2c0,0-1.8-27.4-29.5-23.8C488.8,154.7,475.9,157.6,471.2,171.7z"/>
			<linearGradient id="SVGID_8_" gradientUnits="userSpaceOnUse" x1="469.4637" y1="175.6881" x2="508.4778" y2="175.6881">
				<stop  offset="0" style="stop-color:#844E2F"/>
				<stop  offset="0.5308" style="stop-color:#71432D"/>
				<stop  offset="1" style="stop-color:#5E3828"/>
			</linearGradient>
			<path class="st28" d="M485.9,156.2c0,0-13.3,2.2-16.2,25.2c0,0,0,7.9,0.7,10.4l7.6,0.4c0,0,24.5,2.2,26.3,3.2
				C514,180.3,506.8,153.3,485.9,156.2z"/>
			<path class="st113" d="M508.3,174.9c-1.8-11.2-9.4-20.9-22.3-19.1c0,0-0.4,0-1.1,0.4c-2.2,1.1-5.4,2.9-7.9,5.8
				c-1.8,2.2-3.6,5.4-5,9.4C475.1,171.7,494.6,172,508.3,174.9z"/>
			<path class="st111" d="M418.6,171.7c0,0-37.1,0-47.5,7.2c0,0,1.8-27.4,29.5-23.8C400.9,154.7,413.5,157.6,418.6,171.7z"/>
			<path class="st113" d="M381.5,174.9c1.8-11.2,9.4-20.9,22.3-19.1c0,0,0.4,0,1.1,0.4c2.2,1.1,5.4,2.9,7.9,5.8
				c1.8,2.2,3.6,5.4,5,9.4C414.6,171.7,394.8,172,381.5,174.9z"/>
			<path class="st114" d="M407.8,228.6c0,0,16.9,8.3,34.6,0c0,0,0.7,1.1,5,0c0,0,15.8,8.3,33.9,0c0,0-21.6,8.3-35.3-4.3l-1.1-1.8
				l-1.1,1.4C444.2,224.2,431.2,236.5,407.8,228.6z"/>
			<path class="st114" d="M451.7,204.8c0,0-6.8,6.8-6.8,12.6c0,0-2.2-8.3-6.5-12.2l6.5,3.2L451.7,204.8z"/>
			<path class="st10" d="M397.3,153.3c0,0-17.7-3.2-26.7,12.2s0,34.6,0,34.6l3.6-2.5l-3.2-9C371,188.6,364.2,158,397.3,153.3z"/>
			<path class="st10" d="M492.8,153.3c0,0,17.7-3.2,26.7,12.2c9,15.5,0,34.6,0,34.6l-3.6-2.5l3.2-9
				C519.1,188.6,525.9,158,492.8,153.3z"/>
			<path class="st65" d="M377.9,160.8c0,0-5,0.4-9.7-1.8c0,0,2.5,7.2,5.8,7.6l3.2-2.5L377.9,160.8z"/>
			<path class="st65" d="M511.2,160.8c0,0,5,0.4,9.7-1.8c0,0-2.5,7.2-5.8,7.6l-3.2-2.5L511.2,160.8z"/>
			<path class="st115" d="M423.6,232.2c-2.2,0-4.7-0.4-7.2-0.7c-15.5-2.5-16.6-10.1-16.6-10.4c0-0.4,0.4-0.7,0.7-0.7
				s0.7,0.4,0.7,0.7c0,0,1.1,7.2,15.5,9.4c14.8,2.2,22-2.5,27.7-7.6c0.4-0.4,0.7-0.4,0.7,0c0.4,0.4,0.4,0.7,0,0.7
				C440.2,228.2,433.7,232.2,423.6,232.2z"/>
			<path class="st4" d="M360.2,115.8C359.9,115.8,359.9,115.8,360.2,115.8h-1.4c-4-0.7-7.2-1.1-10.8-3.6c-4-2.9-6.8-7.2-7.9-11.5
				c-1.1-5,0.7-10.1,4-13c5-4.3,13.3-4.7,18.4-0.7c4.7,3.6,9,9.7,10.8,16.6v0.4c0,0,0,0.4-0.4,0.4c0,0.4-0.4,0.4-0.4,0.4l0,0
				L360.2,115.8L360.2,115.8z M354.1,84.8c-3.2,0-6.8,1.1-9.4,3.2c-3.2,2.9-4.7,7.6-4,12.2c0.7,4.3,3.6,8.3,7.6,10.8
				c3.2,2.5,6.5,2.9,10.4,3.6h1.1l12.2-11.2c0,0,0,0,0-0.4c0,0,0,0,0-0.4c-1.8-6.5-5.8-12.6-10.4-15.8
				C359.9,85.9,357,84.8,354.1,84.8z"/>
			<path class="st115" d="M466.1,232.2c-10.1,0-16.6-4-21.6-8.3c-0.4-0.4-0.4-0.7,0-0.7c0.4-0.4,0.7-0.4,0.7,0
				c5.8,4.7,13,9.7,27.7,7.6c14.4-2.2,15.5-9.4,15.5-9.4c0-0.4,0.4-0.7,0.7-0.7c0.4,0,0.7,0.4,0.7,0.7c0,0.4-1.1,7.9-16.6,10.4
				C470.8,231.8,468.3,232.2,466.1,232.2z"/>
			<path class="st4" d="M529.5,115.8L529.5,115.8l-12.6-11.2l0,0l-0.4-0.4c0,0,0-0.4-0.4-0.4v-0.4c1.8-6.8,6.1-13.3,10.8-16.6
				c5.4-4,13.7-3.6,18.4,0.7c3.6,2.9,5,8.3,4,13c-0.7,4.3-3.6,8.6-7.9,11.5c-3.6,2.5-6.8,2.9-10.8,3.6L529.5,115.8L529.5,115.8z
				 M517.3,103.9l12.2,11.2h1.1c4-0.7,7.2-1.1,10.4-3.6c4-2.9,6.5-6.8,7.6-10.8c1.1-4.7-0.7-9.4-4-12.2c-4.7-4-12.6-4.3-17.7-0.7
				c-4.7,3.2-8.6,9.4-10.4,15.8C517.3,103.6,517.3,103.6,517.3,103.9L517.3,103.9z"/>
			<path class="st115" d="M444.9,223.9c-0.4,0-0.7-0.4-0.7-0.7v-14.4c0-0.4,0.4-0.7,0.7-0.7c0.4,0,0.7,0.4,0.7,0.7v14.4
				C445.6,223.5,445.2,223.9,444.9,223.9z"/>
			<path class="st115" d="M445.6,221.7c0,0,0,1.8,1.8,2.9H447l-1.8-0.7l-0.4-0.7L445.6,221.7z"/>
			<path class="st115" d="M444.2,221.7c0,0,0,1.8-1.8,2.9h0.4l1.8-0.7l0.4-0.7L444.2,221.7z"/>
			<path class="st65" d="M434.4,209.1L434.4,209.1l-17.7-2.5c-0.4,0-0.4-0.4-0.4-0.4c0-0.4,0.4-0.4,0.4-0.4l17.7,2.5
				C434.8,208.4,434.8,208.8,434.4,209.1C434.8,208.8,434.8,209.1,434.4,209.1z"/>
			<path class="st65" d="M417.5,218.5C417.1,218.5,417.1,218.5,417.5,218.5c-0.4-0.7-0.4-0.7,0-0.7l16.9-4c0.4,0,0.4,0,0.4,0.4
				s0,0.4-0.4,0.4L417.5,218.5C417.9,218.5,417.5,218.5,417.5,218.5z"/>
			<path class="st65" d="M455.3,209.1C455,209.1,455,209.1,455.3,209.1c-0.4-0.7-0.4-0.7,0-0.7l17.7-2.5c0.4,0,0.4,0,0.4,0.4
				s0,0.4-0.4,0.4L455.3,209.1L455.3,209.1z"/>
			<path class="st65" d="M471.9,218.5L471.9,218.5l-16.9-4c-0.4,0-0.4-0.4-0.4-0.4c0-0.4,0.4-0.4,0.4-0.4l16.9,4
				C472.3,217.8,472.3,218.1,471.9,218.5C472.3,218.5,472.3,218.5,471.9,218.5z"/>
			<path class="st65" d="M385.8,196.1C385.4,196.1,385.4,196.1,385.8,196.1c-6.1-9.4-6.5-22.7-1.1-31.7c4.3-6.8,11.2-10.1,19.5-9
				c0.4,0,0.7,0.4,0.4,0.7c0,0.4-0.4,0.7-0.7,0.7c-7.6-1.1-14,1.8-18,8.3c-5.4,8.6-5,21.3,0.4,29.9
				C386.5,195.4,386.5,195.8,385.8,196.1C385.8,195.8,385.8,196.1,385.8,196.1z"/>
			<path class="st106" d="M420.4,191.8c0,0-23.8-1.1-45.7,5.8l0.4,1.1C374.6,198.7,398.1,192.5,420.4,191.8z"/>
			<g>
				<g>
					<path class="st65" d="M371.8,198.3l-1.4,1.8c2.2-1.1,4.7-1.8,4.7-1.8l-0.4-1.1l0,0l0,0c-17.3-49,50.4-59.4,44.7-5.4
						C428.7,134.9,355.2,144.3,371.8,198.3z"/>
				</g>
			</g>
			<ellipse class="st116" cx="400.9" cy="176.3" rx="9.4" ry="12.6"/>
			<path class="st65" d="M504,196.1C504,196.1,503.6,195.8,504,196.1c-0.7-0.4-0.7-0.7-0.4-1.1c5.8-8.6,5.8-21.3,0.4-29.9
				c-4-6.5-10.4-9.4-18-8.3c-0.4,0-0.7-0.4-0.7-0.7c0-0.4,0.4-0.7,0.4-0.7c8.3-1.1,15.1,2.2,19.5,9
				C510.4,173.5,510.4,186.8,504,196.1C504.3,195.8,504.3,196.1,504,196.1z"/>
			<path class="st106" d="M469.4,191.8c0,0,23.8-1.1,45.7,5.8l-0.4,1.1C515.1,198.7,491.7,192.5,469.4,191.8z"/>
			<g>
				<g>
					<path class="st106" d="M470.1,191.8c-5.8-54,62.3-43.6,44.7,5.4l0,0l0,0l-0.4,1.1c0,0,2.5,0.7,4.7,1.8l-1.4-1.8
						C534.6,144.3,461.1,134.9,470.1,191.8z"/>
				</g>
			</g>
			<ellipse class="st116" cx="488.8" cy="176.3" rx="9.4" ry="12.6"/>
			<ellipse class="st23" cx="391.9" cy="167.7" rx="6.1" ry="6.1"/>
			<ellipse class="st23" cx="481.3" cy="167.7" rx="6.1" ry="6.1"/>
			<path class="st65" d="M377.9,160.8c0,0-2.9,1.4-7.2-0.7c0,0,2.9,5.4,4.7,5L377.9,160.8z"/>
			<path class="st65" d="M511.9,160.8c0,0,2.9,1.4,7.2-0.7c0,0-2.9,5.4-4.7,5L511.9,160.8z"/>
			<path class="st4" d="M544.7,129.1c-1.4-1.8-2.9-4-4.3-5.8c3.2-0.4,5.8-1.4,5.8-1.4c0.4,0,0.7-0.4,1.1-0.4
				c7.6-3.6,13.7-10.1,15.8-18.4c2.5-6.8,1.8-14.8-1.1-21.6c-5.8-13-20.9-19.5-34.6-18c-2.5,0.4-5,0.7-7.6,1.8
				c-0.4,0-0.7,0.4-1.1,0.4c-0.4,0.4-1.1,0.4-1.4,0.7c-10.1,4.7-17.3,14.4-18,23.4l-6.8-2.9c-7.6-3.2-16.2-4.3-24.5-5.4
				c-8.6-1.1-17.3-1.4-25.9-1.1c-0.4,0-0.4,0-0.7,0c-1.1,0-2.2,0-3.6,0.4c-8.3,0.7-16.6,1.8-24.5,4c-5.4,1.4-10.4,3.2-15.5,5.4l0,0
				l0,0c-2.2,0.7-5.4,2.2-6.5,2.9c0.7-7.6-3.6-15.8-10.8-22l0,0l0,0c-0.4-0.4-0.7-0.7-1.1-1.1c-0.4-0.4-0.4-0.4-0.4-0.4
				c-1.1-0.4-1.4-0.7-2.2-1.1c-1.1-0.7-2.5-1.4-4-2.2c-1.1-0.7-2.5-1.1-4-1.4c-1.8-0.7-4-1.1-5.8-1.1c-13.7-1.4-28.8,5-34.6,18
				c-1.8,4-2.5,7.9-2.5,12.2c0,0-0.7,10.1,6.1,18.7c1.4,2.2,2.9,3.6,4,4.3c1.4,1.8,6.5,5,11.2,6.5c-6.5,7.6-37.5,47.9-20.5,97.3
				c0,0-0.4-0.7-0.4-2.5c0.7,2.9,1.4,5.4,2.5,8.3c1.8,5,4.3,10.1,7.2,14.4c20.2,31.3,60.5,41.4,90.8,44.3c4.7,0.4,9.4,0.7,13.7,0.7
				c1.1,0,2.5,0,3.6,0c27,0,52.6-6.1,74.9-18c25.2-13.7,40-30.3,45-50.8C570.6,188.9,563.4,156.2,544.7,129.1z M556.2,226
				c-20.2,45-98,67.4-161.7,52.2c-22-6.1-44.3-17.3-57.3-37.8c-2.9-4.3-5.4-9.4-7.2-14.4c-12.2-33.5-4-72.4,21.3-101.2
				c0.7-0.7,1.1-1.4,1.8-2.2c0.4,0,0.4,0,0.7,0c2.9,0,5.8-0.4,9-1.4c0.4,0,0.4-0.4,0.4-0.7s-0.4-0.4-0.7-0.4
				c-10.8,4-22.3,0-29.2-10.1c-5.4-7.9-7.9-21.6,1.8-33.1c6.1-6.1,12.2-9.4,17.7-11.2c0.7-0.4,1.8-0.4,2.5-0.7
				c9-1.4,15.8,1.4,19.5,3.6c10.4,6.1,16.6,17.3,14.4,26.3l0,0l0,0l0,0l0,0c0,0,0,0,0.4,0.4l0,0l0,0l0,0l0,0c0,0,0,0,0.4,0l0,0
				c3.6-1.8,6.8-3.2,10.4-4.7l4.7-1.8c15.8-4.3,32.1-6.1,48.3-5.8c9.7,0.4,19.5,1.4,29.2,3.2c3.2,0.7,6.1,1.8,9.4,2.9
				c2.2,0.7,4.7,1.8,6.8,2.9h0.4l0,0l0,0l0,0l0,0l0,0l0,0l0,0c-0.7-9.4,6.8-19.8,17.3-24.9c12.2-5.8,25.9-2.2,37.1,9.4
				c10.1,11.5,7.6,24.9,2.2,33.1c-6.8,10.1-18.4,14-29.2,10.1c-0.4,0-0.7,0-0.7,0.4s0,0.7,0.4,0.7h0.4c2.5,2.5,7.2,2.5,11.2,2.2
				C543.9,131.3,576.4,181.4,556.2,226z"/>
		</g>
		<g>
			<path class="st107" d="M407.8,99.2c0,0-1.4,19.8,6.1,28.5c0,0-2.2-8.3,2.2-12.2c0,0,9.7,16.9,45.7,14.4c0,0,3.6-0.4,5.4,1.4
				c1.4,1.8-3.2-7.9-3.2-7.9l2.2-2.2l4,3.2c0,0,7.9,4,15.1,4.3c0,0-2.2-2.9-3.2-5.4c-1.4-2.5-1.8-9.4-1.8-9.4l1.8-6.8l2.2,9
				c0,0,6.5,6.5,14.4,6.5c0,0-6.1-3.6-8.3-8.6c-2.2-5-12.6-13-12.6-13h-29.9L407.8,99.2z"/>
			<path class="st100" d="M484.9,114.7c-1.8-1.4-3.2-3.2-4.3-5.4c-0.7-1.1-1.1-2.5-1.8-4v0.4c0.4,1.4,1.1,2.9,1.4,4.3
				c0.7,1.4,1.1,2.9,1.4,4.3c0,0.4,0.4,1.1,0.4,1.4c0.7,2.5,1.4,5,2.2,7.2c0,0.4,0.4,0.7,0.7,1.1c0,0.4,0.4,0.4,0.4,0.7l0.4,0.4
				h-0.7h-0.4c-0.7,0-1.4,0-2.5,0c-1.8,0-3.6,0-5.8-0.4c-4.7-0.4-8.3-1.4-11.9-2.9c-2.5-1.1-4.7-2.5-7.6-4.7
				c-2.2-1.4-4.3-3.2-6.5-4.7l-1.4-1.1c4.7,5.8,10.1,9.7,16.6,11.9h0.4v0.7h-0.4c-0.4,0-0.4,0-0.7,0s-1.1,0.4-1.4,0.4
				c-4.7,0.4-9-1.4-13.3-5c-2.2-1.8-4.3-4-6.5-6.8c-0.4-0.7-0.7-1.1-1.1-1.8c0,0,0-0.4-0.4-0.4c0,0,0,0.4,0.4,0.4v0.4
				c0.7,1.8,1.4,3.6,2.5,5c1.1,1.4,2.2,2.5,3.6,3.6l0.4,0.4c1.8,1.8,3.6,2.9,6.1,4c0.7,0.4,1.8,0.7,2.5,1.1c0.7,0.4,1.8,0.7,2.5,1.1
				l1.1,0.4h-1.4c-0.7,0-1.1,0-1.8,0c-0.7,0-1.1,0-1.8,0c-0.7,0-1.4,0-2.2,0c-1.4,0-2.5,0-4-0.4h-0.7c-2.9-0.4-5.8-0.7-8.6-1.4
				c-6.1-1.8-11.5-4.3-16.2-7.6c-1.1-0.7-2.5-1.8-4-3.2c-3.2-2.9-4.7-6.5-4.7-10.8c0-1.4,0.4-2.5,0.7-3.6c0-0.4,0-0.7,0.4-0.7
				c0.4-1.1,0.7-2.5,1.1-3.6l0.4-0.7c0-0.4,0.4-0.4,0.4-0.7c-1.1,1.8-2.2,4-3.2,6.5c-0.7,2.2-1.4,4.3-1.4,6.5c0,0.4,0,1.1,0,1.4
				s0,0.7,0,1.4c0,0.4,0,1.1,0,1.4c0,0.7,0,1.8,0,2.5c0,1.4,0,2.5,0,4c0,0.7,0,1.1,0,1.8c0,0,0,0,0,0.4l0,0v0.4l-0.7-1.1
				c-0.4-0.4-0.7-0.7-1.1-1.4c-2.2-2.5-3.2-5.8-3.6-9c-1.1-5-0.4-10.1,0.4-13.7c0.7-3.2,1.4-6.1,2.5-8.6c1.1-2.9,2.5-5.4,4.7-7.9
				c1.4-1.8,2.9-3.2,4.3-4.7c1.1-1.4,3.6-2.9,6.8-3.2c1.1,0,2.2,0,2.9,0c0.4,0,0.7,0,1.4,0h0.4c0.4,0,0.4,0,0.7,0c0,0,0.4,0,0.4-0.4
				c0-0.7,0.4-1.1,0.7-1.1l0,0c1.8-1.4,3.6-1.8,5.4-2.2c2.9-0.7,5.8-0.7,9-0.7c4.7,0.4,8.3,1.1,11.5,2.5c0.7,0.4,1.4,1.1,2.2,1.4
				c4,3.2,7.2,7.6,9.7,13.3c0.7,1.4,1.1,2.5,1.8,4c0.4,0.4,0.4,1.1,0.7,1.4c-1.4-7.2-4-13-8.6-18l0,0l0.4-0.4l0,0h0.4
				c0.4,0,0.7,0,0.7,0c3.2,0.7,6.1,2.2,8.6,4.3c2.9,2.5,5,5.4,6.8,9.7c1.1,2.5,2.2,5,2.9,7.6c0.4,1.1,0.7,2.5,1.1,3.6
				c0.4,0.7,0.4,1.8,0.7,2.5c0.4,1.1,0.7,2.2,0.7,2.9c0.7,2.9,1.8,5.8,2.9,8.6c1.4,3.2,3.2,6.1,6.1,8.3c0,0,0,0,0,0.4l0,0l0.4,0.4
				h-0.4c-0.4,0-0.4,0-0.7,0c-0.4,0-0.7,0-1.1,0C491,118.3,487.7,116.9,484.9,114.7z"/>
			<path class="st117" d="M436.2,101c0,0-7.6-12.2-4.3-24.5C431.9,76.6,430.5,89.9,436.2,101z"/>
			<path class="st117" d="M418.6,93.8c-0.4,0.4-0.4,1.1-0.7,1.4c-0.4,1.4-1.1,2.9-1.4,4.3c-0.4,1.4-1.1,3.2-1.1,4.7
				c0,4.3,1.8,7.9,4.7,10.8c1.1,1.1,2.5,2.2,4,3.2c0.4,0.4,0.7,0.4,1.1,0.7C420.4,112.6,416.8,103.9,418.6,93.8z"/>
			<path class="st118" d="M426.9,70.1c-3.2,0.4-6.1,2.2-8.3,4.3c-1.4,1.4-2.9,3.2-4.3,4.7c-1.8,2.5-3.2,5-4.7,7.9
				c-1.1,2.9-1.8,5.8-2.5,8.6c-0.7,4.7-1.1,9.4-0.4,14c0,0.4,0,0.7,0.4,1.1c-2.2-31.3,24.1-40.7,24.1-40.7
				C429.8,70.1,428.3,70.1,426.9,70.1z"/>
			<path class="st118" d="M451.4,66.1c0,0,15.8,5,21.6,29.2c0,0,1.1,7.9,4.7,12.2c0,0-3.6-20.2-4.7-24.1
				C473,83.8,467.6,66.5,451.4,66.1z"/>
			<path class="st118" d="M487.7,125.9c0,0-20.2-7.2-27.4-20.9c0,0,11.5,13.7,23.4,16.6L487.7,125.9z"/>
			<g>
				<path class="st117" d="M448.8,116.5c0,0-9.7-8.3-11.5-13c0,0,2.5,5.8,6.1,11.2c0.4,4,2.2,8.6,3.2,12.2c1.4,0.4,2.5,0.4,4,0.4
					s3.2,0.4,4.7,0.4c1.8,0,4.7,0,6.5,0c-1.8-0.7-4.3-1.8-5.8-2.9c-2.2-1.1-4.7-1.8-6.5-3.6c-0.4-0.4-0.7-0.7-1.1-1.1v-1.4
					c0.7,0.4,1.1,1.1,1.8,1.4c4,3.2,8.3,5,13.3,5c0.7,0,1.4-0.4,2.2-0.4l1.1-0.7c-2.9-1.1-2.9-0.7-5.4-2.5
					C458.2,120.5,452.8,118.3,448.8,116.5z"/>
				<path class="st117" d="M485.2,124.1c-0.4-0.7-0.4-0.7-0.4-1.8c-15.8-5-24.5-17.3-24.5-17.3c4.7,11.9,14.8,18.4,19.1,20.9
					c1.8,0,3.6,0,5.4,0.4c0.4,0,0.4,0,0.7,0C485.2,125.2,485.6,124.8,485.2,124.1z"/>
			</g>
			<path class="st119" d="M486.3,117.3c1.4,0.7,2.9,1.4,4.3,2.2c3.2,1.4,6.8,1.1,10.8,0c-0.4,0-0.4-0.4-0.7-0.4
				c-0.7-0.4-1.4-1.1-2.5-1.4c-2.5-1.8-4.7-4-5.8-6.5c-1.8-3.2-3.2-6.8-4.3-10.8l0.4-1.4c-0.4-1.8-1.1-4-1.4-5.8
				c-1.1-3.2-2.2-5.8-3.2-8.3c-1.1-2.5-2.9-5.4-5-7.9c-0.4-0.4-0.4-0.4-0.7-0.7c-0.7-1.1-1.8-2.2-2.9-2.9c-1.8-1.4-3.6-2.2-5.4-2.9
				c-1.8-0.7-3.2-1.1-5.4-0.7c-0.4,0-0.4,0-0.7,0c-0.4-0.7-1.1-1.1-1.8-1.4c-3.6-1.8-7.6-3.2-12.6-3.2c-2.2,0-4.3,0-6.8,0.4
				c-1.8,0.4-3.6,0.7-5.8,1.1c-1.8,0.4-3.6,1.4-4.7,3.2c0,0.4-0.4,0.4-0.7,0.4s-0.7,0-1.1-0.4c-0.7,0-1.1-0.4-1.8-0.4
				c-3.2,0-6.1,0.7-9,2.5c-2.2,1.4-4,3.2-6.1,5.8c-2.2,2.9-4,5.8-5,8.3c-0.7,1.8-1.4,4-1.8,5.8c-0.7,2.2-1.1,4.3-1.4,7.2
				c-0.4,2.2-0.4,4.3,0,6.1c0.4,3.2,0.7,6.5,1.8,9c2.5,5,5.8,9,10.1,11.5l0,0c-1.1-3.6-1.4-7.6-1.8-11.2c0-0.7,0-1.4,0-2.2v-0.4h0.4
				c0.4,0,0.4,0,0.4,0.4c0.4,0.4,1.1,1.1,1.4,1.4c1.1,1.1,2.2,2.5,3.6,3.6c2.9,2.5,6.1,4.3,9,5.4c6.1,2.9,12.2,4.3,19.1,4.7
				c2.2,0,4.3,0,6.1,0c0.7,0,1.8,0,2.5,0c0.7,0,1.1,0,1.8,0c1.1,0,1.8,0,2.9,0c0.7,0,1.1,0,1.8,0c1.8,0,4,0.7,5.4,1.8
				c-0.7-1.1-1.4-1.8-2.5-2.5h-0.4v-0.4l0,0l0,0c0.4,0,0.4,0,0.7-0.4c0.4,0,1.1-0.4,1.1-0.7c0-0.4,0.4,0,0.4,0l0,0
				c0.7,0,1.1,0,1.8,0.4c1.4,0,2.5,0.4,4,0.4c1.1,0,1.8,0,2.9,0h0.4c2.9,0,5.8,0,8.6,0l0,0l0,0l0,0c-1.4-1.4-1.8-2.9-2.2-4.7
				c0-0.4,0-0.7-0.4-1.1c-0.4-0.7-0.4-1.4-0.4-2.5c0-0.4,0-0.7,0-1.1v-0.4v-0.7l0.7,0.4c0,0,0.4,0,0.4,0.4
				C485.9,116.9,486.3,116.9,486.3,117.3z M484.9,114.7c-1.8-1.4-3.2-3.2-4.3-5.4c-0.7-1.1-1.1-2.5-1.8-4v0.4
				c0.4,1.4,1.1,2.9,1.4,4.3c0.7,1.4,1.1,2.9,1.4,4.3c0,0.4,0.4,1.1,0.4,1.4c0.7,2.5,1.4,5,2.2,7.2c0,0.4,0.4,0.7,0.7,1.1
				c0,0.4,0.4,0.4,0.4,0.7l0.4,0.4h-0.7h-0.4c-0.7,0-1.4,0-2.5,0c-1.8,0-3.6,0-5.8-0.4c-4.7-0.4-8.3-1.4-11.9-2.9
				c-2.5-1.1-4.7-2.5-7.6-4.7c-2.2-1.4-4.3-3.2-6.5-4.7l-1.4-1.1c4.7,5.8,10.1,9.7,16.6,11.9h0.4v0.7h-0.4c-0.4,0-0.4,0-0.7,0
				s-1.1,0.4-1.4,0.4c-4.7,0.4-9-1.4-13.3-5c-2.2-1.8-4.3-4-6.5-6.8c-0.4-0.7-0.7-1.1-1.1-1.8c0,0,0-0.4-0.4-0.4c0,0,0,0.4,0.4,0.4
				v0.4c0.7,1.8,1.4,3.6,2.5,5c1.1,1.4,2.2,2.5,3.6,3.6l0.4,0.4c1.8,1.8,3.6,2.9,6.1,4c0.7,0.4,1.8,0.7,2.5,1.1
				c0.7,0.4,1.8,0.7,2.5,1.1l1.1,0.4h-1.4c-0.7,0-1.1,0-1.8,0c-0.7,0-1.1,0-1.8,0c-0.7,0-1.4,0-2.2,0c-1.4,0-2.5,0-4-0.4h-0.7
				c-2.9-0.4-5.8-0.7-8.6-1.4c-6.1-1.8-11.5-4.3-16.2-7.6c-1.1-0.7-2.5-1.8-4-3.2c-3.2-2.9-4.7-6.5-4.7-10.8c0-1.4,0.4-2.5,0.7-3.6
				c0-0.4,0-0.7,0.4-0.7c0.4-1.1,0.7-2.5,1.1-3.6l0.4-0.7c0-0.4,0.4-0.4,0.4-0.7c-1.1,1.8-2.2,4-3.2,6.5c-0.7,2.2-1.4,4.3-1.4,6.5
				c0,0.4,0,1.1,0,1.4s0,0.7,0,1.4c0,0.4,0,1.1,0,1.4c0,0.7,0,1.8,0,2.5c0,1.4,0,2.5,0,4c0,0.7,0,1.1,0,1.8c0,0,0,0,0,0.4l0,0v0.4
				l-0.7-1.1c-0.4-0.4-0.7-0.7-1.1-1.4c-2.2-2.5-3.2-5.8-3.6-9c-1.1-5-0.4-10.1,0.4-13.7c0.7-3.2,1.4-6.1,2.5-8.6
				c1.1-2.9,2.5-5.4,4.7-7.9c1.4-1.8,2.9-3.2,4.3-4.7c1.1-1.4,3.6-2.9,6.8-3.2c1.1,0,2.2,0,2.9,0c0.4,0,0.7,0,1.4,0h0.4
				c0.4,0,0.4,0,0.7,0c0,0,0.4,0,0.4-0.4c0-0.7,0.4-1.1,0.7-1.1l0,0c1.8-1.4,3.6-1.8,5.4-2.2c2.9-0.7,5.8-0.7,9-0.7
				c4.7,0.4,8.3,1.1,11.5,2.5c0.7,0.4,1.4,1.1,2.2,1.4c4,3.2,7.2,7.6,9.7,13.3c0.7,1.4,1.1,2.5,1.8,4c0.4,0.4,0.4,1.1,0.7,1.4
				c-1.4-7.2-4-13-8.6-18l0,0l0.4-0.4l0,0h0.4c0.4,0,0.7,0,0.7,0c3.2,0.7,6.1,2.2,8.6,4.3c2.9,2.5,5,5.4,6.8,9.7
				c1.1,2.5,2.2,5,2.9,7.6c0.4,1.1,0.7,2.5,1.1,3.6c0.4,0.7,0.4,1.8,0.7,2.5c0.4,1.1,0.7,2.2,0.7,2.9c0.7,2.9,1.8,5.8,2.9,8.6
				c1.4,3.2,3.2,6.1,6.1,8.3c0,0,0,0,0,0.4l0,0l0.4,0.4h-0.4c-0.4,0-0.4,0-0.7,0c-0.4,0-0.7,0-1.1,0
				C491,118.3,487.7,116.9,484.9,114.7z"/>
		</g>
	</g>
	<g>
		<linearGradient id="SVGID_9_" gradientUnits="userSpaceOnUse" x1="286.7462" y1="168.5903" x2="601.2193" y2="168.5903">
			<stop  offset="0" style="stop-color:#D6B774"/>
			<stop  offset="0.3022" style="stop-color:#D5B571"/>
			<stop  offset="0.534" style="stop-color:#D4B168"/>
			<stop  offset="0.7424" style="stop-color:#D3A959"/>
			<stop  offset="0.9359" style="stop-color:#D09D44"/>
			<stop  offset="1" style="stop-color:#CF993B"/>
		</linearGradient>
		<path class="st29" d="M598,169.1c-0.4-0.4-0.4-0.7-0.4-1.1v-5c0,0,0,0,0-0.4c0-0.7,0.4-2.9,0-3.6c-0.4-1.1-0.4-2.9-0.4-3.2
			c-0.4-0.7-1.8-4-4-6.1c-1.1-1.1-1.8-2.2-1.4-3.2c0-0.4,0.4-0.7,0.7-0.7l0.4-5.4l-1.1-2.5l-2.5-3.2v-0.4c0-0.4-2.5-6.5-5-10.1
			c-2.5-3.2-8.6-5-8.6-5c-0.4,0-0.4-0.4-0.7-0.4l-6.5-7.9c-0.4-0.4-0.4-0.4-0.4-0.7v-5.4l-0.4,0.4c-0.4,0.4-0.7,0.4-1.4,0.4
			l-4.7-1.8c-0.7-0.4-0.7-0.7-0.7-1.4c0,0,0.7-2.5,0.4-5.8l-2.9,0.4c-0.4,0-0.4,0-0.7,0l-4.3-2.9c-1.1-0.4-5.4-1.1-9.4-2.9
			c0,0-4-1.4-4.3-6.1l-4-0.4c-0.4,0-0.7,0-0.7-0.4l-2.9-2.9c-1.8-1.8-2.9-1.4-2.9-1.4c-0.4,0-0.4,0.4-0.7,0.4l-7.9-0.4
			c-4-0.4-5.4-0.7-5.8-2.2l-4.7,0.4h-1.8c-1.4,0-2.5-1.4-2.9-3.6h-1.1c-2.2,0-7.9-0.4-10.1-0.4l0,0h-16.9c0,0,0,0-0.4,0l-11.5-2.5
			l-6.5-0.4c-2.9-0.4-3.6-0.4-4-0.4c-0.4,0-0.4,0-0.7,0l-4.7-2.5l-6.8,1.8c0,0,0,0-0.4,0l-11.5,1.1l-11.9,1.1l-44.3,6.1
			c-0.4,0-14,4.7-22,8.6c-7.6,4-26.7,15.8-29.2,17.7c-0.4,1.1-2.2,3.2-5.8,3.6c-2.5,0.4-8.3,3.6-13.3,6.5l2.2,2.5
			c0.4,0.4,0.4,1.1,0,1.4l-3.2,4c0,0.4-0.4,0.4-0.7,0.4c0,0-1.8,0.4-4.7,1.4v8.6c0,0.4,0,0.7-0.4,0.7l-1.8,2.2l-1.4,4.7
			c0,0.4-0.4,2.2-0.7,7.6c-0.4,5-1.4,6.8-2.5,7.6l-0.7,4.7c0,0.4,0,0.4-0.4,0.4l-2.5,3.6l-0.7,2.2l0.7,4.7l1.1,3.2
			c1.1,3.2,1.1,6.1,1.1,6.1l0.4,6.1v0.4l-1.4,6.5l0.4,2.2c0.4,1.1,0.4,1.4,0.4,1.4c0.4,0,0.7,0.4,0.7,1.1l0.4,2.9l4,5.4
			c0,0.4,0.4,0.4,0.4,0.7v5.4l5,1.4c0.4,0,0.7,0.4,0.7,0.7l4.3,7.9l3.6,9l14.4,6.8c0.4,0.4,0.7,0.7,0.7,1.1v8.3l2.9,1.4h2.9h0.4
			l3.6,1.1h1.4c0.4,0,0.4,0,0.7,0.4c9.7,6.1,22.7,13.7,24.5,14.4c1.4,0.7,2.9,1.1,4.3,1.8c-10.8-6.5-20.5-14.8-27.7-25.9
			c-2.9-4.7-5.4-9.4-7.2-14.4c-1.1-2.5-1.8-5.4-2.5-8.3c0.4,1.4,0.4,2.5,0.4,2.5c-12.6-36.7,1.4-68.8,12.2-85.7
			c5-4.3,22.7-18.7,49.7-24.5c32.4-6.8,84.7-15.8,138.3,9.7l22.7,16.2l0,0c15.1,25.6,20.5,55.1,14.4,80.7c-5,20.5-19.8,37.1-45,50.8
			c-0.7,0.4-1.1,0.7-1.8,0.7c7.6-2.5,14.4-5.4,21.3-9c0.7-0.4,1.4-0.7,2.2-1.1c8.6-4.7,22-11.2,27.4-19.5c0,0,0,0,0.4-0.4
			c2.9-2.5,5-4.7,5-4.7c2.2-2.2,6.1-6.1,6.8-7.2c0.7-1.8,4-5.8,4.7-6.5l2.2-5.4c0.4-0.4,0.7-0.7,1.1-0.7h4l-1.1-3.6
			c0-0.4,0-0.4,0-0.7l4.3-13.7l2.5-5.8c0.7-1.4,1.1-2.5,1.1-2.9c-0.4-0.4-0.4-0.4-0.4-0.7V181c0-0.7,0.7-1.1,1.1-1.1h1.1v-8.3
			L598,169.1z"/>
		<g>
			<path class="st167" d="M416.4,72.2l-41.8,6.1c-0.4,0-14,4.7-22,8.6c-7.6,4-26.7,15.8-29.2,17.7c-0.4,1.1-2.2,3.2-5.8,3.6
				c-2.5,0.4-8.3,3.6-13.3,6.5l2.2,2.5c0.4,0.4,0.4,1.1,0,1.4l-3.2,4c0,0.4-0.4,0.4-0.7,0.4c0,0-1.8,0.4-4.7,1.4v8.6
				c0,0.4,0,0.7-0.4,0.7l-1.8,2.2l-1.4,4.7c0,0.4-0.4,2.2-0.7,7.6c-0.4,5-1.4,6.8-2.5,7.6l-0.7,4.7c0,0.4,0,0.4-0.4,0.4l-2.5,3.6
				l-0.7,2.2l0.7,4.7l1.1,3.2c1.1,3.2,1.1,6.1,1.1,6.1l0.4,6.1v0.4l-1.4,6.5l0.4,2.2c0.4,1.1,0.4,1.4,0.4,1.4c0.4,0,0.7,0.4,0.7,1.1
				l0.4,2.9l4,5.4c0,0.4,0.4,0.4,0.4,0.7v5.4l5,1.4c0.4,0,0.7,0.4,0.7,0.7l4.3,7.9l3.6,9l4,1.8l-1.1-2.9l-0.4-2.9l-6.8-13.3
				l-1.8-1.8l4.3-1.1l-5.4-0.4l-4.7-1.4v-2.5v-3.6l-0.7-1.8l-2.2-4.7l-1.8-3.6v-5v-11.2v-7.9c0,0,0,0,1.8-4s1.8-6.1,1.8-6.1
				s0.7-4.7,0-6.1c-0.7-1.4,0.7-6.1,0.7-6.1l1.1-5.4c0,0,4.3-10.4,5.4-13l0.7-1.4l4.7-5.8l2.2-1.8l-1.8-4.7l2.5-1.1
				c0,0,2.9-1.1,5.4-2.5c2.9-1.1,6.5-2.5,6.5-2.5l4.7-1.4l2.5-2.9l3.2-1.1c0,0,0,0,3.6-1.4c1.8-0.7,2.2-0.7,2.5-1.1l3.2-4.3l6.5-2.9
				c0,0,0,0,3.2-2.2c3.2-2.2,4.3-1.8,4.3-1.8l5,1.4c0,0-2.5-2.5,9-7.9C382.2,78,416.8,72.2,416.4,72.2L416.4,72.2z"/>
		</g>
		<linearGradient id="SVGID_10_" gradientUnits="userSpaceOnUse" x1="357.6136" y1="53.6797" x2="530.8299" y2="53.6797">
			<stop  offset="0" style="stop-color:#D6B774"/>
			<stop  offset="0.3022" style="stop-color:#D5B571"/>
			<stop  offset="0.534" style="stop-color:#D4B168"/>
			<stop  offset="0.7424" style="stop-color:#D3A959"/>
			<stop  offset="0.9359" style="stop-color:#D09D44"/>
			<stop  offset="1" style="stop-color:#CF993B"/>
		</linearGradient>
		<path class="st32" d="M444.2,25c39.6,0,61.2,14.8,72.4,27.4c9.4,10.4,13,20.9,14.4,25.2c-1.4-0.4-2.5,0-2.9,0l-7.6-0.4
			c-1.1,0-1.8,0-2.5-0.4c0.4-0.4,0.4-0.7,0.4-1.1c0-0.7-0.7-1.1-1.4-1.1l-6.8,0.7h-1.8c-0.4,0-0.7-1.4-0.7-2.5
			c0-0.7-0.7-1.1-1.1-1.1h-2.2c-1.8,0-6.8-0.4-10.1-0.4h-0.4h-16.9L465.4,69l-6.8-0.4c-1.8,0-3.2-0.4-4-0.4l-5-2.5
			c-0.4,0-0.7,0-0.7,0l-7.2,1.8l-10.8,1.1l-12.2,1.1l-44.7,6.5c0,0,0,0-0.4,0c-0.4,0-8.6,2.9-16.2,6.1c1.1-4,4.7-15.8,14.4-27.7
			C383.3,41.3,404.5,25,444.2,25z"/>
		<path class="st167" d="M372.1,54.6c-9.7,11.9-13.3,23.8-14.4,27.7c7.6-3.2,15.8-6.1,16.2-6.1c0,0,0,0,0.4,0h1.1
			c5.4-28.5,32.8-43.6,44.7-48.6C395.5,32.2,380.8,44.1,372.1,54.6z"/>
		<path class="st169" d="M337.9,137.1c-0.4,0-0.4,0-0.7-0.4s-0.4-1.1,0-1.4c0.4-0.4,33.5-33.1,108.8-33.1
			c73.1,0,103.4,32.8,103.4,33.1c0.4,0.4,0.4,1.1,0,1.4s-1.1,0.4-1.4,0c-0.4-0.4-29.9-32.4-101.9-32.4c-74.2,0-107,32.1-107.3,32.4
			C338.6,136.7,338.3,137.1,337.9,137.1z"/>
		<path class="st169" d="M602.7,169.5l-2.9-1.8v-4.3c0-0.7,0.4-3.2,0-4.7c-0.4-1.1-0.4-2.9-0.4-2.9v-0.4c-0.4-0.4-2.2-4.7-4.3-6.8
			c-0.4-0.4-0.4-0.4-0.4-0.7c0.4-0.4,0.4-0.4,0.4-0.7l0.4-6.5c0-0.4,0-0.4,0-0.7l-1.4-2.9l0,0l-2.5-3.6c-0.4-1.4-2.5-6.8-5-10.4
			c-2.5-3.6-8.3-5.4-9.4-6.1l-6.1-7.2v-7.9c0-0.4-0.4-1.1-0.7-1.1c-0.4-0.4-1.1,0-1.4,0.4l-1.8,1.8l-2.9-1.1c0.4-1.4,0.4-4-0.4-6.8
			c0-0.7-0.7-1.1-1.4-1.1h-3.6l-4.3-2.2H554c0,0-5-1.1-9-2.9c0,0-2.9-1.1-2.9-5c0-0.7-0.4-1.1-1.1-1.1l-4.7-0.4l-2.2-2.2
			c0-0.4,0-0.7,0-0.7S531.3,65,518.7,51c-11.5-13-33.9-28.5-74.6-28.5c-40.7-0.4-63,16.2-74.6,29.9C357,67.5,354.1,82.7,354.1,83
			s0,0.4,0,0.7c-1.1,0.4-2.2,1.1-2.9,1.4c-8.3,4-28.8,17.3-29.9,18c-0.4,0-0.4,0.4-0.4,0.7c0,0-0.7,2.2-4,2.5
			c-4.3,0.4-14.8,7.6-15.5,7.6c-0.4,0.4-0.4,0.4-0.4,0.7c0,0.4,0,0.7,0.4,1.1l2.2,2.9l-1.8,2.2c-0.7,0.4-2.9,0.7-5.4,1.8
			c-0.4,0.4-0.7,0.7-0.7,1.1v9l-1.8,1.8c0,0,0,0.4-0.4,0.4l-1.8,4.7l0,0c0,0-0.4,2.2-1.1,8.3c-0.4,4.7-1.4,5.8-1.8,6.1
			c0,0-0.4,0-0.4,0.4l0,0l0,0c0,0-0.4,0.4-0.4,0.7l-0.7,5l-2.5,3.6v0.4l-1.1,2.5c0,0.4,0,0.4,0,0.7l1.1,5l1.1,3.2
			c0.7,2.5,0.7,4.7,0.7,5l0.4,6.1l-1.4,6.5v0.4l0.4,2.5c0.4,1.4,0.7,2.5,1.4,2.9l0.4,2.5c0,0.4,0,0.4,0.4,0.7l4,5.4v6.1
			c0,0.7,0.4,1.1,0.7,1.1l5.4,1.8l4,7.6l3.6,9.4c0,0.4,0.4,0.4,0.7,0.7l14,6.8v7.6c0,0.4,0.4,0.7,0.7,1.1l3.6,1.8c0,0,0.4,0,0.7,0
			h3.2l3.6,1.1c0,0,0,0,0.4,0h1.1c9,5.8,22.3,13.7,24.5,14.4c6.8,3.2,14.4,5.8,21.6,7.6c-5.8-2.2-11.2-4.7-16.6-7.9
			c-1.4-0.7-2.9-1.1-4.3-1.8c-1.8-0.7-14.8-8.6-24.5-14.4c0,0-0.4,0-0.7-0.4h-1.4l-3.6-1.1h-0.4h-2.2l-2.9-1.4v-8.3
			c0-0.4-0.4-1.1-0.7-1.1l-14.4-6.8l-3.6-9l-4.3-7.9c0-0.4-0.4-0.4-0.7-0.7l-5-1.1V207c0-0.4,0-0.4-0.4-0.7l-4-5.4l-0.4-2.9
			c0-0.4-0.4-0.7-0.7-1.1c0,0-0.4-0.4-0.4-1.4l-0.4-2.2l1.4-6.5v-0.4l-0.4-6.1c0,0,0-2.9-1.1-6.1l-1.1-3.2l-0.7-4.7l0.7-2.2l2.5-3.6
			l0.4-0.4l0.7-4.7c0.7-0.7,2.2-2.9,2.5-7.6c0.4-5,0.7-7.2,0.7-7.2l1.8-4.3l1.8-2.2c0-0.4,0.4-0.4,0.4-0.7v-8.6
			c2.5-1.1,4.7-1.4,4.7-1.4c0.4,0,0.4-0.4,0.7-0.4l2.9-3.2c0.4-0.4,0.4-1.1,0-1.4l-2.2-2.5c4.7-2.9,10.8-6.5,13.3-6.5
			c4-0.4,5.4-2.9,5.8-3.6c2.5-1.8,21.6-13.7,29.2-17.7c7.9-4,21.6-8.6,22-8.6l44.3-6.5l11.9-1.8l11.2-1.1c0,0,0,0,0.4,0l6.8-1.8
			l4.7,2.5c0.4,0,0.4,0,0.7,0c0.4,0,1.1,0,4,0.4l6.5,0.4l11.5,2.5c0,0,0,0,0.4,0h16.9l0,0c2.5,0,8.3,0.4,10.1,0.4h1.1
			c0.4,2.5,1.4,3.6,2.9,3.6h1.8l4.3-0.4c0.4,1.4,1.8,1.8,5.8,2.2l7.9,0.4c0.4,0,0.4,0,0.7-0.4c0,0,1.1-0.7,2.9,1.4l2.9,2.9
			c0.4,0.4,0.4,0.4,0.7,0.4l4,0.4c0.7,4.7,4.3,6.1,4.3,6.1c4,1.8,8.3,2.5,9.4,2.9l4.3,2.2c0.4,0,0.4,0,0.7,0l2.9-0.4
			c0.4,3.2,0,5.8-0.4,5.8c0,0.7,0,1.1,0.7,1.4l4.7,1.8c0.4,0.4,1.1,0,1.4-0.4l0.4-0.4v5.4c0,0.4,0,0.7,0.4,0.7l6.5,7.9
			c0,0.4,0.4,0.4,0.7,0.4c0,0,6.1,1.8,8.6,5c2.5,3.6,4.7,9.7,5,10.1v0.4l2.2,3.2l1.1,2.5l-0.4,5.4c-0.4,0.4-0.4,0.4-0.7,0.7
			c-0.4,1.1,0.4,2.5,1.4,3.2c1.8,1.8,3.6,5,4,6.1c0,0.7,0,2.2,0.4,3.2c0.4,0.7,0,2.9,0,3.6c0,0,0,0,0,0.4v5c0,0.4,0.4,0.7,0.4,1.1
			l2.9,1.8v8.3h-1.1c-0.7,0-1.1,0.7-1.1,1.1v6.1c0,0.4,0,0.7,0.4,0.7c0,0.4-0.4,1.4-1.1,2.9l-2.5,5.8l-4.3,13.7c0,0.4,0,0.4,0,0.7
			l1.1,3.6h-4c-0.4,0-1.1,0.4-1.1,0.7l-2.2,5.4c-0.7,1.1-3.6,4.7-4.7,6.5c-0.7,1.1-4.3,5-6.8,7.2c0,0-2.2,2.2-5,4.7c0,0,0,0-0.4,0.4
			c-5.4,8.3-18.7,15.1-27.4,19.5c-0.7,0.4-1.4,0.7-2.2,1.1c-6.8,3.6-13.7,6.5-21.3,9c-5,2.9-10.4,5-16.2,7.2
			c13.7-3.2,26.7-7.9,38.5-14l2.2-1.1c9-4.7,22.7-11.5,28.1-20.2c2.5-2.2,4.7-4.3,5-4.7l0,0c1.1-1.1,6.1-5.8,7.2-7.9
			c0.7-1.8,4.3-6.1,4.3-6.5v-0.4l2.2-4.7h4.7c0.4,0,0.7-0.4,1.1-0.4c0.4-0.4,0.4-0.7,0.4-1.1l-1.4-4.7l4-13l2.2-5.8
			c1.4-4,1.8-5,1.1-5.8v-4h1.1c0.7,0,1.1-0.7,1.1-1.1v-10.1C603,170.2,603,169.9,602.7,169.5z M527.7,78l-7.6-0.4
			c-1.1,0-1.8,0-2.5-0.4c0.4-0.4,0.4-0.7,0.4-1.1c0-0.7-0.7-1.1-1.4-1.1l-6.5,0.4h-1.8c-0.4,0-0.7-1.4-0.7-2.5
			c0-0.7-0.7-1.1-1.1-1.1h-2.2c-1.8,0-6.8-0.4-10.1-0.4h-0.4h-16.9L465.4,69l-6.8-0.4c-1.8,0-3.2-0.4-4-0.4l-5-2.5
			c-0.4,0-0.7,0-0.7,0l-7.2,1.8l-10.8,1.1l-12.2,1.1l-44.7,6.5c0,0,0,0-0.4,0c-0.4,0-8.6,2.9-16.2,6.1c1.1-4,4.7-15.8,14.4-27.7
			c11.2-13.3,32.8-29.2,72.4-29.2s61.2,14.8,72.4,27.4c9.4,10.4,13,20.9,14.4,25.2C529.5,77.3,528.5,77.6,527.7,78z"/>
		<path class="st170" d="M297.6,194.7c4.3-0.7,8.6-1.8,13-2.5c1.1-0.4,0.4-1.8-0.4-1.4c-4.3,0.7-8.6,1.8-13,2.5
			C296.1,193.6,296.5,195.1,297.6,194.7L297.6,194.7z"/>
		<path class="st170" d="M299.7,201.6c3.6-1.8,6.8-3.6,10.4-5.4c0.7-0.4,0-1.8-0.7-1.4c-3.6,1.8-6.8,3.6-10.4,5.4
			C298.3,200.8,299,201.9,299.7,201.6L299.7,201.6z"/>
		<path class="st170" d="M297.9,183.9c0.4,10.1,3.2,19.5,8.6,27.7c0.4,0.7,1.8,0,1.4-0.7c-5.4-7.9-8.3-17.3-8.6-27
			C299.4,182.8,297.9,182.8,297.9,183.9L297.9,183.9z"/>
		<g class="st88">
			<g>
				<path class="st169" d="M296.5,177.8c1.1,0,1.1-1.4,0-1.4S295.4,177.8,296.5,177.8L296.5,177.8z"/>
			</g>
		</g>
		<path class="st170" d="M301.5,177.8c4,0,7.6,0,11.5,0c1.1,0,1.1-1.4,0-1.4c-4,0-7.6,0-11.5,0C300.8,176.3,300.8,177.8,301.5,177.8
			L301.5,177.8z"/>
		<path class="st170" d="M308.4,172.7c3.2,0,6.5,0,9.4-1.1c1.1-0.4,0.4-1.8-0.4-1.4c-2.9,0.7-6.1,1.1-9,0.7
			C307.3,170.9,307.3,172.7,308.4,172.7L308.4,172.7z"/>
		<path class="st170" d="M539.3,98.5c17.7,9,31.7,25.2,38.5,44.3c1.8,5.4,3.2,10.8,4,16.2c0,1.1,1.4,0.7,1.4-0.4
			c-2.9-20.2-13.7-38.9-29.2-51.9c-4.3-3.6-9-6.8-14.4-9.4C539.3,96.7,538.5,97.8,539.3,98.5L539.3,98.5z"/>
		<path class="st170" d="M582.5,133.5c-2.9,1.1-5.4,2.2-8.3,3.2c-0.4,0-0.7,0.4-0.4,1.1c0,0.4,0.4,0.7,1.1,0.4
			c2.9-1.1,5.4-2.2,8.3-3.2c0.4,0,0.7-0.4,0.4-1.1C583.2,133.8,582.8,133.5,582.5,133.5L582.5,133.5z"/>
		<path class="st170" d="M585.4,137.1c-9,3.2-18,6.1-27.4,8.3c-1.1,0.4-0.4,1.8,0.4,1.4c9.4-2.2,18.4-5,27.4-8.3
			C586.8,138.2,586.5,136.7,585.4,137.1L585.4,137.1z"/>
		<path class="st170" d="M574.6,122.3c-2.9,2.5-5.8,4.3-9,6.1c-0.7,0.4,0,1.8,0.7,1.4c3.2-1.8,6.5-4,9.4-6.1
			C576.4,122.7,575.3,121.6,574.6,122.3L574.6,122.3z"/>
		<path class="st170" d="M580.3,172c1.8-0.4,3.6,0,5.4,0.4c1.1,0.4,1.4-1.1,0.4-1.4c-1.8-0.4-4-0.7-5.8-0.4c-0.4,0-0.7,0.4-0.7,0.7
			C579.6,171.7,580,172.4,580.3,172L580.3,172z"/>
		<path class="st170" d="M582.1,176.7c1.4,0.4,2.9,0.7,4.3,1.1c0.4,0,0.7,0,1.1-0.4c0-0.4,0-0.7-0.4-1.1c-1.4-0.4-2.9-0.7-4.3-1.1
			c-0.4,0-0.7,0-1.1,0.4S581.4,176.3,582.1,176.7L582.1,176.7z"/>
		<path class="st170" d="M580,207c1.8,0,3.6,0.4,5.4,1.1c0.4,0,0.7,0,1.1-0.4c0-0.4,0-0.7-0.4-1.1c-2.2-0.7-4-1.1-6.1-1.1
			c-0.4,0-0.7,0.4-0.7,0.7C579.2,206.6,579.6,207,580,207L580,207z"/>
		<path class="st170" d="M572,208.4c4.7,1.4,9.4,2.9,14,4.3c1.1,0.4,1.4-1.1,0.4-1.4c-4.7-1.4-9.4-2.9-14-4.3
			C571.3,206.6,571,208,572,208.4L572,208.4z"/>
		<path class="st170" d="M575.6,213.8c-0.4,1.8-1.1,4-2.2,5.4c-0.4,0.4,0,0.7,0.4,1.1c0.4,0.4,0.7,0,1.1-0.4c1.4-1.8,2.2-4,2.2-6.1
			c0-0.4-0.4-0.7-0.7-0.7S576,213.4,575.6,213.8L575.6,213.8z"/>
		<path class="st170" d="M505,81.6c-1.1,4-2.5,7.9-4,11.9c-0.4,0.7,1.1,1.4,1.4,0.4c1.4-4,2.9-7.9,4-11.9
			C506.8,80.9,505.4,80.5,505,81.6L505,81.6z"/>
		<path class="st170" d="M511.9,81.2c-2.5,6.8-5.4,13.7-9,20.2c-0.4,0.7,0.7,1.4,1.4,0.7c3.6-6.5,6.5-13.3,9-20.5
			C513.3,80.5,511.9,80.2,511.9,81.2L511.9,81.2z"/>
		<g class="st88">
			<g>
				<path class="st169" d="M516.2,89.2c1.1,0,1.1-1.4,0-1.4C515.1,87.7,515.1,89.2,516.2,89.2L516.2,89.2z"/>
			</g>
		</g>
		<g class="st88">
			<g>
				<path class="st169" d="M522.7,91c1.1,0,1.1-1.4,0-1.4C522,89.5,522,91,522.7,91L522.7,91z"/>
			</g>
		</g>
		<path class="st170" d="M297.2,162.6c0-6.5,1.4-13,4-19.1c0.4-0.7-1.1-1.4-1.4-0.4c-2.5,6.1-4,13-4,19.8
			C295.8,163.4,297.2,163.7,297.2,162.6L297.2,162.6z"/>
		<path class="st170" d="M303.7,149.3c0.4-2.2,0.7-4.7,1.8-6.8c0-0.4,0-0.7-0.4-1.1s-0.7,0-1.1,0.4c-1.1,2.5-1.4,5-1.8,7.6
			c0,0.4,0.4,0.7,0.7,0.7S303.7,149.7,303.7,149.3L303.7,149.3z"/>
		<path class="st170" d="M377.9,84.5c0.4,0.7,0.7,1.4,0.7,2.2c0,0.4,0,0.4,0.4,0.4c0,0,0.4,0,0.7,0c0,0,0.4,0,0.4-0.4
			c0,0,0-0.4,0-0.7c-0.4-0.7-0.7-1.4-0.7-2.2c0-0.4,0-0.4-0.4-0.4c0,0-0.4,0-0.7,0c0,0-0.4,0-0.4,0.4S377.9,84.5,377.9,84.5
			L377.9,84.5z"/>
		<path class="st170" d="M381.8,79.4c0.7,2.5,1.8,5,2.5,7.6c0,0.4,0.4,0.7,1.1,0.4c0.4,0,0.7-0.4,0.4-1.1c-0.7-2.5-1.8-5-2.5-7.6
			c0-0.4-0.4-0.7-1.1-0.4C381.8,78.4,381.5,79.1,381.8,79.4L381.8,79.4z"/>
		<path class="st170" d="M386.9,80.2c0,0.7,0.4,1.4,0.4,2.2l0.4,0.4c0,0,0.4,0,0.7,0s0.7-0.4,0.4-1.1c0-0.7-0.4-1.4-0.4-2.2
			l-0.4-0.4c0,0-0.4,0-0.7,0C386.9,79.4,386.9,79.8,386.9,80.2L386.9,80.2z"/>
		<path class="st170" d="M483.4,81.6c2.9,0,5.8,0.4,8.6,0.4c1.1,0,1.1-1.4,0-1.4c-2.9,0-5.8-0.4-8.6-0.4
			C482.3,79.8,482.3,81.6,483.4,81.6L483.4,81.6z"/>
		<path class="st170" d="M489.6,76.6c-0.4,3.6-0.7,7.2-0.7,11.2c0,1.1,1.4,1.1,1.4,0c0.4-3.6,0.7-7.2,0.7-11.2
			C491.4,75.5,489.9,75.5,489.6,76.6L489.6,76.6z"/>
		<path class="st170" d="M504.3,56.4c1.8,2.9,2.9,6.1,2.9,9.4c0,1.1,1.4,1.1,1.4,0c-0.4-3.6-1.4-7.2-3.2-10.1
			C505,54.9,504,55.7,504.3,56.4L504.3,56.4z"/>
		<path class="st170" d="M505.8,51c5,6.1,7.2,13.7,9.7,21.3c0.4,1.1,1.8,0.4,1.4-0.4c-2.2-7.6-4.7-15.5-10.1-22
			C506.1,49.2,505,50.3,505.8,51L505.8,51z"/>
		<path class="st170" d="M514.4,59.6c1.8,3.6,3.2,7.6,3.6,11.5c0,1.1,1.4,1.1,1.4,0c-0.4-4.3-1.8-8.6-4-12.2
			C515.1,58.2,513.7,58.9,514.4,59.6L514.4,59.6z"/>
		<path class="st170" d="M497.8,62.9c4.3,0.7,8.6,1.4,13,2.2c2.2,0.4,4,0.7,6.1,1.4c1.8,0.4,4,0.7,5.4,1.8c0.7,0.7,1.4-0.7,0.7-1.4
			c-1.4-1.1-3.2-1.4-5-1.8c-2.2-0.4-4.3-1.1-6.5-1.4c-4.3-0.7-8.6-1.4-13.3-2.2C497.5,61.4,497.1,62.9,497.8,62.9L497.8,62.9z"/>
		<path class="st171" d="M381.8,48.8c-6.1,4.7-11.5,10.8-14.4,18c-0.4,0.7,0.7,1.8,1.4,0.7c3.2-6.8,7.9-13,14-17.3
			C383.3,49.5,382.6,48.1,381.8,48.8L381.8,48.8z"/>
		<path class="st171" d="M378.2,57.5c-0.7,0.7-1.4,1.4-2.2,2.2c-0.4,0.4-0.4,0.7,0,1.1c0.4,0.4,0.7,0.4,1.1,0
			c0.7-0.7,1.4-1.4,2.2-2.2c0.4-0.4,0.4-0.7,0-1.1C379.3,57.1,378.6,57.1,378.2,57.5L378.2,57.5z"/>
		<path class="st171" d="M319.5,110.4c2.5,1.4,4.7,3.2,7.2,4.7c0.7,0.4,1.4-0.7,0.7-1.4c-2.5-1.4-4.7-3.2-7.2-4.7
			C319.5,108.6,318.8,110.1,319.5,110.4L319.5,110.4z"/>
		<path class="st171" d="M315.9,112.9c2.2,1.4,4.3,3.2,6.1,5c0.4,0.4,0.7,0.4,1.1,0c0.4-0.4,0.4-0.7,0-1.1c-2.2-1.8-4.3-3.6-6.5-5
			C315.9,111.1,315.2,112.2,315.9,112.9L315.9,112.9z"/>
		<path class="st171" d="M326.4,106.8c-5,4-9.4,8.6-13.3,13.7c-0.7,0.7,0.4,1.8,1.1,1.1c4-5,8.6-9.4,13.3-13.7
			C328.2,107.2,327.1,106.1,326.4,106.8L326.4,106.8z"/>
		<path class="st171" d="M303,128.8c3.2,1.4,6.8,2.9,10.4,3.6c1.1,0.4,1.4-1.1,0.4-1.4c-3.2-0.7-6.8-1.8-10.1-3.6
			C303,127,302.2,128.1,303,128.8L303,128.8z"/>
		<path class="st171" d="M303,135.3c1.4,0.7,2.9,1.1,4.3,1.8c0.4,0,0.7,0,1.1-0.4c0-0.4,0-0.7-0.4-1.1c-1.4-0.7-2.9-1.1-4.3-1.8
			c-0.4,0-0.7,0-1.1,0.4C302.6,134.9,302.6,135.3,303,135.3L303,135.3z"/>
		<g class="st172">
			<linearGradient id="SVGID_11_" gradientUnits="userSpaceOnUse" x1="340.4191" y1="179.5295" x2="594.5289" y2="179.5295">
				<stop  offset="0" style="stop-color:#D6B774"/>
				<stop  offset="0.3022" style="stop-color:#D5B571"/>
				<stop  offset="0.534" style="stop-color:#D4B168"/>
				<stop  offset="0.7424" style="stop-color:#D3A959"/>
				<stop  offset="0.9359" style="stop-color:#D09D44"/>
				<stop  offset="1" style="stop-color:#CF993B"/>
			</linearGradient>
			<path class="st33" d="M447,90.2c-70.6-2.2-99.8,33.1-106.6,43.6c6.5-5.4,23.4-18,47.9-23.1c32.4-6.8,84.7-15.8,138.3,9.7
				l22.7,16.2l0,0c15.1,25.6,20.5,55.1,14.4,80.7c-5,20.5-19.8,37.1-45,50.8c-0.7,0.4-1.1,0.7-1.8,0.7c7.6-2.5,14.4-5.4,21.3-9
				c0.7-0.4,1.4-0.7,2.2-1.1c8.6-4.7,22-11.2,27.4-19.5c0,0,0,0,0.4-0.4c2.9-2.5,5-4.7,5-4.7c2.2-2.2,6.1-6.1,6.8-7.2
				c0.7-1.8,4-5.8,4.7-6.5l2.2-5.4c0.4-0.4,0.7-0.7,1.1-0.7h4l-1.1-3.6c0-0.4,0-0.4,0-0.7l3.6-11.9c1.1-19.8-3.6-38.5-11.9-52.6
				C562.7,110.8,529.9,92.8,447,90.2z"/>
			<linearGradient id="SVGID_12_" gradientUnits="userSpaceOnUse" x1="317.8153" y1="206.0533" x2="363.76" y2="206.0533">
				<stop  offset="0" style="stop-color:#D6B774"/>
				<stop  offset="0.3022" style="stop-color:#D5B571"/>
				<stop  offset="0.534" style="stop-color:#D4B168"/>
				<stop  offset="0.7424" style="stop-color:#D3A959"/>
				<stop  offset="0.9359" style="stop-color:#D09D44"/>
				<stop  offset="1" style="stop-color:#CF993B"/>
			</linearGradient>
			<path class="st34" d="M363.8,267.1c-10.8-6.5-20.5-14.8-27.7-25.9c-2.9-4.7-5.4-9.4-7.2-14.4c-1.1-2.5-1.8-5.4-2.5-8.3
				c0.4,1.4,0.4,2.5,0.4,2.5c-10.4-30.6-2.5-58,6.5-76c-22.3,37.5-16.9,75.6-5.4,104.5h1.4h0.4l3.6,1.1h1.4c0.4,0,0.4,0,0.7,0.4
				c9.7,6.1,22.7,13.7,24.5,14.4C361,266,362.4,266.4,363.8,267.1z"/>
		</g>
		<linearGradient id="SVGID_13_" gradientUnits="userSpaceOnUse" x1="484.6027" y1="54.5803" x2="530.8299" y2="54.5803">
			<stop  offset="0" style="stop-color:#D6B774"/>
			<stop  offset="0.3022" style="stop-color:#D5B571"/>
			<stop  offset="0.534" style="stop-color:#D4B168"/>
			<stop  offset="0.7424" style="stop-color:#D3A959"/>
			<stop  offset="0.9359" style="stop-color:#D09D44"/>
			<stop  offset="1" style="stop-color:#CF993B"/>
		</linearGradient>
		<path style="opacity:0.3;fill:url(#SVGID_13_);enable-background:new    ;" d="M484.5,31.5c7.2,8.3,13,21.3,7.6,39.6h1.8h0.4
			c2.9,0,8.3,0.4,10.1,0.4h2.2c0.7,0,1.1,0.7,1.1,1.1c0,1.1,0.4,2.5,0.7,2.5h1.8l6.8-0.4c0.7,0,1.1,0.4,1.4,1.1c0,0.4,0,0.7-0.4,1.1
			c0.7,0,1.4,0,2.5,0.4l7.6,0.4c0.7-0.4,1.4-0.7,2.9,0c-1.1-4.3-5-14.8-14.4-25.2C510.1,45.2,500,36.9,484.5,31.5z"/>
	</g>
</g>
</svg>
