<?xml version="1.0" encoding="utf-8"?>
<!-- Generator: Adobe Illustrator 21.0.0, SVG Export Plug-In . SVG Version: 6.00 Build 0)  -->
<svg version="1.1" id="圖層_1" xmlns="http://www.w3.org/2000/svg" xmlns:xlink="http://www.w3.org/1999/xlink" x="0px" y="0px"
	 viewBox="0 0 822.9 601.4" style="enable-background:new 0 0 822.9 601.4;" xml:space="preserve">
<style type="text/css">
	.st0{fill:url(#SVGID_1_);}
	.st1{fill:#E1BE3F;}
	.st2{fill:#AB6C21;}
	.st3{opacity:0.6;fill:#E1BE3F;enable-background:new    ;}
	.st4{fill:url(#SVGID_2_);}
	.st5{fill:url(#SVGID_3_);}
	.st6{opacity:0.5;fill:#2F2A28;}
	.st7{fill:#746765;}
	.st8{fill:#231815;}
	.st9{fill:url(#SVGID_4_);}
	.st10{fill:url(#SVGID_5_);}
	.st11{opacity:0.8;fill:#2F2A28;}
	.st12{fill:none;stroke:#504744;stroke-width:0.5163;stroke-miterlimit:10;}
	.st13{opacity:0.4;fill:#2F2A28;}
	.st14{fill:#FFFFFF;}
	.st15{fill:#DBDCDC;}
	.st16{fill:url(#SVGID_6_);}
	.st17{fill:#A5AEBE;}
	.st18{fill:#717071;}
	.st19{fill:#3E3A39;}
	.st20{fill:url(#SVGID_7_);}
	.st21{fill:url(#SVGID_8_);}
	.st22{fill:url(#SVGID_9_);}
	.st23{fill:url(#SVGID_10_);}
	.st24{fill:url(#SVGID_11_);}
	.st25{fill:url(#SVGID_12_);}
	.st26{opacity:0.6;}
	.st27{fill:#2F2A28;}
	.st28{opacity:0.3;fill:#717071;}
	.st29{fill:url(#SVGID_13_);}
</style>
<g>
	<g>
		<linearGradient id="SVGID_1_" gradientUnits="userSpaceOnUse" x1="349.9197" y1="554.5205" x2="446.3878" y2="554.5205">
			<stop  offset="0" style="stop-color:#2F2A28"/>
			<stop  offset="1" style="stop-color:#110706"/>
		</linearGradient>
		<path class="st0" d="M445.9,559.1c-0.1-0.2-0.2-0.4-0.4-0.4c0.3-6.7,0.9-21.7,0-29.5l0.1-3.5c0-0.2-0.1-0.5-0.3-0.6
			c-0.2-0.1-0.4-0.2-0.7-0.1c-2.2,0.6-32.7,1.4-40,1.2c-1.2-2.2-3.6-2.4-3.7-2.4c0,0-3.5-0.1-8.2-0.4c-4.7-0.3-6.7,1.5-7,1.8
			c-4.9-0.3-13.5-0.9-15.2-1l0,0c-0.1,0-0.2,0-0.3,0c-1,0.1-1.6,0.8-1.6,0.8c-2.5,2.2-4.9,4.6-7.1,7c-4.6,5-9.5,10.2-11,17.1
			c-2.2,9.4,2.7,21.8,3.5,23.9c-0.3,0.9-1,3.3,0.1,6.7c0.1,0.2,0.3,0.4,0.5,0.5c0.2,0.1,20,5.9,44.5,5.9c2.3,0,4.7-0.1,7.1-0.2
			c29.4-1.4,37.5-10.8,39.6-14.8c0-0.1,0.1-0.2,0.1-0.3C446,570.3,447,562.2,445.9,559.1z"/>
		<path class="st6" d="M445.4,558.6c0.3-6.7,0.9-21.7,0-29.5l0.1-3.5c0-0.2-0.1-0.5-0.3-0.6c-0.2-0.1-0.4-0.2-0.7-0.1
			c-0.1,0-0.3,0.1-0.6,0.1l-0.2,1.7l-0.8-0.7c0,0,3.2,36.6-28.6,52.4l12.3,4.5c13.1-3.5,17.6-9,19.1-11.9c0-0.1,0.1-0.2,0.1-0.3
			c0-0.3,1.1-8.5,0-11.6C445.8,558.9,445.6,558.7,445.4,558.6z"/>
		<path class="st6" d="M444.6,528.1l0.2-3.3c0,0-0.1,0-0.1,0c-2.2,0.6-32.7,1.4-40,1.2c-1.2-2.2-3.6-2.4-3.7-2.4
			c0,0-3.5-0.1-8.2-0.4c-4.7-0.3-6.7,1.5-7,1.8c-4.9-0.3-13.5-0.9-15.2-1l0,0c-0.1,0-0.2,0-0.3,0h0c0,0,0,0,0,0
			c-0.7,0-1.2,0.4-1.4,0.7l0.1,0C368.9,524.7,380.8,533,444.6,528.1z"/>
		<path class="st7" d="M358.8,536.6c-3.5,3.4-7.5,11.7-8.6,16.1c-1.5,6.6,3.4,15.5,5,20.2l10.4,2.3
			C354.6,565.5,354.5,544.9,358.8,536.6z"/>
		<path class="st7" d="M358,559.3c0,0-2.5-5,2.7-4.4c5.2,0.6,4.3,1.1,4,3c-0.3,1.9-2.1,4.7-3.2,4.4C360.4,562,358,559.3,358,559.3z"
			/>
		<path class="st7" d="M366.6,557.9c0,0,7.1,3.4,34.3,3.6c0,0-18.9,3.5-35.1-0.1L366.6,557.9z"/>
		<path class="st6" d="M365.6,575.1c-11.3-5-14.2-21.3-14.2-21.3l-1.2,1l-0.3,0.4c0.2,7.9,3.4,16,4.1,17.6c-0.3,0.9-1,3.3,0.1,6.7
			c0.1,0.2,0.3,0.4,0.5,0.5c0.1,0,4.1,1.2,10.7,2.5L365.6,575.1z"/>
		<path class="st7" d="M435.4,569.7c-0.1,0-0.1-0.1-0.1-0.1c0-0.1-1.5-12.8-7.8-18.7c-7-6.7-15.9-13.3-39.2-14.1
			c-24-0.8-34.6,8.5-34.7,8.6c-0.1,0.1-0.2,0-0.2,0c-0.1-0.1-0.1-0.2,0-0.2c0.1-0.1,10.8-9.5,34.9-8.7c23.4,0.8,32.3,7.4,39.4,14.2
			c6.3,6,7.9,18.8,7.9,18.9C435.6,569.6,435.5,569.7,435.4,569.7C435.4,569.7,435.4,569.7,435.4,569.7z"/>
		<path class="st7" d="M399.6,528.4c0,0-1.9,6.7,0.5,8.2l-3.6-0.7L399.6,528.4z"/>
		<path class="st7" d="M389.7,527.6l-2.8,7.9h-3.5C383.5,535.6,389.2,530.4,389.7,527.6z"/>
		<polygon class="st6" points="390.7,526.4 399.9,527.4 396.5,535.9 386.9,535.6 		"/>
		<path class="st8" d="M399.1,585.9c-24.5,0-44.3-5.8-44.5-5.9c-0.2-0.1-0.4-0.3-0.5-0.5c-1.3-4.2,0-6.9,0-7c0.2-0.4,0.6-0.5,1-0.3
			c0.4,0.2,0.5,0.6,0.3,1c0,0-1,2.2-0.1,5.5c3.2,0.9,25.2,6.8,50.7,5.6c28.3-1.4,36.2-10,38.3-13.9c0.3-2.4,0.8-8.5,0-10.8
			c-0.1-0.4,0.1-0.8,0.4-1c0.4-0.1,0.8,0.1,1,0.4c1.1,3.1,0.1,11.3,0,11.6c0,0.1,0,0.2-0.1,0.3c-2.1,4-10.3,13.4-39.6,14.8
			C403.8,585.8,401.4,585.9,399.1,585.9z"/>
		<path class="st8" d="M387.1,535.8c-0.1,0-0.2,0-0.3-0.1c-0.4-0.2-0.5-0.6-0.3-1c0.7-1.3,2.5-5,2.6-6.4c0.1-1.1-0.5-1.5-0.8-1.6
			c-3.8-0.1-17.5-1.1-18.1-1.2c-0.4,0-0.7-0.4-0.7-0.8c0-0.4,0.4-0.7,0.8-0.7c0.1,0,14.7,1.1,18.2,1.2c0.1,0,0.2,0,0.2,0
			c0.7,0.3,2,1.3,1.8,3.2c-0.1,2-2.5,6.5-2.7,7C387.6,535.7,387.3,535.8,387.1,535.8z"/>
		<path class="st8" d="M396.5,536.3c-0.1,0-0.2,0-0.3-0.1c-0.4-0.2-0.6-0.6-0.4-1l2.9-7.1c0-0.1,0.9-2.3,5.1-2.1
			c5.2,0.2,38.6-0.6,40.9-1.2c0.2-0.1,0.5,0,0.7,0.1c0.2,0.1,0.3,0.4,0.3,0.6l-0.1,3.9c0,0.4-0.3,0.7-0.8,0.7
			c-0.4,0-0.7-0.4-0.7-0.8l0.1-3c-6.2,0.6-36.2,1.3-40.4,1.1c-3-0.1-3.6,1.1-3.6,1.2l-2.9,7.1C397.1,536.2,396.8,536.3,396.5,536.3z
			"/>
		<path class="st8" d="M437.2,570.7c-0.2,0-0.5-0.2-0.5-0.4c-1.6-13.2-7-29-34.8-33.1c-33.9-5-47.6,6.5-47.8,6.6
			c-0.2,0.2-0.5,0.2-0.7,0c-0.2-0.2-0.2-0.5,0-0.7c0.6-0.5,14.2-12,48.6-6.8c28.5,4.2,34,20.4,35.6,34
			C437.7,570.5,437.5,570.7,437.2,570.7C437.2,570.7,437.2,570.7,437.2,570.7z"/>
		<path class="st8" d="M445.3,527.5c-0.1-0.4-0.4-0.7-0.9-0.6l-0.4,2.9c0.9,9.8-0.2,30.2-0.3,32c-2.3,5.7-10.9,10.9-10.9,10.9
			c-28,12.8-73.1,0.8-77.5-0.5c-0.9-2.1-5.5-14.2-3.4-22.9c2.1-9.2,16.3-22,17.6-23.2c0.4-0.2,0.8-0.3,1.2-0.4l0.3-1l-2.1,0.1
			c-0.1,0-0.2,0.1-0.2,0.1c-0.6,0.6-15.8,14.1-18.2,24.1c-2.3,10,3.4,23.6,3.6,24.2c0.1,0.2,0.3,0.4,0.5,0.4
			c0.3,0.1,22.4,6.4,45.9,6.4c11.5,0,23.3-1.5,33.1-6c0.4-0.2,9.3-5.5,11.6-11.8c0-0.1,0-0.1,0-0.2
			C445.3,560.9,446.7,536.6,445.3,527.5z"/>
		<path class="st8" d="M368.6,524.8c0,0,0.6-0.9,1.8-0.9l1.2,0.9l-0.2,0.7c0,0-1.3,0-2.6,1l0-1L368.6,524.8z"/>
		<path class="st8" d="M404.2,527.6c-0.3,0-0.6-0.2-0.7-0.5c-0.8-1.8-2.6-2-2.6-2l0,0c0,0-3.5-0.1-8.2-0.4c-4.3-0.3-5.8,1.3-5.8,1.4
			c-0.3,0.3-0.7,0.3-1.1,0.1c-0.3-0.3-0.3-0.7-0.1-1c0.1-0.1,2-2.2,7.1-1.9c4.7,0.3,8.2,0.4,8.2,0.4c0.1,0,2.8,0.2,3.9,2.9
			c0.2,0.4,0,0.8-0.4,1C404.4,527.5,404.3,527.6,404.2,527.6z"/>
		<path class="st8" d="M406,536.5c-0.1,0-0.3,0-0.4-0.1c-6.4-3-22.6-6.1-22.8-6.1c-0.5-0.1-0.9-0.6-0.8-1.2c0.1-0.5,0.6-0.9,1.2-0.8
			c0.7,0.1,16.6,3.2,23.2,6.2c0.5,0.2,0.7,0.8,0.5,1.3C406.7,536.3,406.3,536.5,406,536.5z"/>
		<path class="st8" d="M381.6,534.4c-0.5,0-0.9-0.3-1-0.8c-0.1-0.5,0.2-1.1,0.8-1.2c0.6-0.1,15.2-3.2,24.5-3.5c0,0,0,0,0,0
			c0.5,0,1,0.4,1,1c0,0.6-0.4,1-1,1c-9.1,0.3-24,3.4-24.2,3.4C381.7,534.4,381.7,534.4,381.6,534.4z"/>
	</g>
	<g>
		
			<linearGradient id="SVGID_2_" gradientUnits="userSpaceOnUse" x1="1865.5032" y1="554.5205" x2="1961.9713" y2="554.5205" gradientTransform="matrix(-1 0 0 1 2409.1021 0)">
			<stop  offset="0" style="stop-color:#2F2A28"/>
			<stop  offset="1" style="stop-color:#110706"/>
		</linearGradient>
		<path class="st4" d="M447.6,570.7c0,0.1,0,0.2,0.1,0.3c2.1,4,10.3,13.4,39.6,14.8c2.4,0.1,4.8,0.2,7.1,0.2
			c24.5,0,44.3-5.8,44.5-5.9c0.2-0.1,0.4-0.3,0.5-0.5c1.1-3.4,0.4-5.8,0.1-6.7c0.9-2.1,5.7-14.5,3.5-23.9c-1.6-6.8-6.4-12.1-11-17.1
			c-2.3-2.4-4.6-4.8-7.1-7c0,0-0.5-0.8-1.6-0.8c-0.1,0-0.2,0-0.3,0l0,0c-1.7,0.1-10.3,0.7-15.2,1c-0.3-0.4-2.3-2.1-7-1.8
			c-4.7,0.3-8.2,0.4-8.2,0.4c-0.1,0-2.5,0.2-3.7,2.4c-7.3,0.1-37.9-0.7-40-1.2c-0.2-0.1-0.5,0-0.7,0.1c-0.2,0.1-0.3,0.4-0.3,0.6
			l0.1,3.5c-0.8,7.8-0.3,22.8,0,29.5c-0.2,0.1-0.3,0.2-0.4,0.4C446.5,562.2,447.6,570.3,447.6,570.7z"/>
		<path class="st6" d="M448.1,558.6c-0.3-6.7-0.9-21.7,0-29.5l-0.1-3.5c0-0.2,0.1-0.5,0.3-0.6c0.2-0.1,0.4-0.2,0.7-0.1
			c0.1,0,0.3,0.1,0.6,0.1l0.2,1.7l0.8-0.7c0,0-3.2,36.6,28.6,52.4l-12.3,4.5c-13.1-3.5-17.6-9-19.1-11.9c0-0.1-0.1-0.2-0.1-0.3
			c0-0.3-1.1-8.5,0-11.6C447.7,558.9,447.9,558.7,448.1,558.6z"/>
		<path class="st6" d="M448.9,528.1l-0.2-3.3c0,0,0.1,0,0.1,0c2.2,0.6,32.7,1.4,40,1.2c1.2-2.2,3.6-2.4,3.7-2.4c0,0,3.5-0.1,8.2-0.4
			c4.7-0.3,6.7,1.5,7,1.8c4.9-0.3,13.5-0.9,15.2-1l0,0c0.1,0,0.2,0,0.3,0h0c0,0,0,0,0,0c0.7,0,1.2,0.4,1.4,0.7l-0.1,0
			C524.7,524.7,512.7,533,448.9,528.1z"/>
		<path class="st7" d="M534.7,536.6c3.5,3.4,7.5,11.7,8.6,16.1c1.5,6.6-3.4,15.5-5,20.2l-10.4,2.3
			C538.9,565.5,539,544.9,534.7,536.6z"/>
		<path class="st7" d="M535.5,559.3c0,0,2.5-5-2.7-4.4c-5.2,0.6-4.3,1.1-4,3c0.3,1.9,2.1,4.7,3.2,4.4
			C533.1,562,535.5,559.3,535.5,559.3z"/>
		<path class="st7" d="M527,557.9c0,0-7.1,3.4-34.3,3.6c0,0,18.9,3.5,35.1-0.1L527,557.9z"/>
		<path class="st6" d="M527.9,575.1c11.3-5,14.2-21.3,14.2-21.3l1.2,1l0.3,0.4c-0.2,7.9-3.4,16-4.1,17.6c0.3,0.9,1,3.3-0.1,6.7
			c-0.1,0.2-0.3,0.4-0.5,0.5c-0.1,0-4.1,1.2-10.7,2.5L527.9,575.1z"/>
		<path class="st7" d="M458.1,569.7C458.1,569.7,458.1,569.7,458.1,569.7c-0.1,0-0.2-0.1-0.1-0.2c0-0.1,1.6-12.9,7.9-18.9
			c7.1-6.7,16-13.4,39.4-14.2c24.1-0.8,34.8,8.6,34.9,8.7c0.1,0.1,0.1,0.2,0,0.2c-0.1,0.1-0.2,0.1-0.2,0c-0.1-0.1-9.9-8.6-31.8-8.6
			c-0.9,0-1.9,0-2.9,0c-23.3,0.8-32.1,7.4-39.2,14.1c-6.3,6-7.8,18.6-7.8,18.7C458.2,569.6,458.2,569.7,458.1,569.7z"/>
		<path class="st7" d="M494,528.4c0,0,1.9,6.7-0.5,8.2l3.6-0.7L494,528.4z"/>
		<path class="st7" d="M503.8,527.6l2.8,7.9h3.5C510.1,535.6,504.3,530.4,503.8,527.6z"/>
		<polygon class="st6" points="502.9,526.4 493.6,527.4 497,535.9 506.6,535.6 		"/>
		<path class="st8" d="M494.4,585.9c24.5,0,44.3-5.8,44.5-5.9c0.2-0.1,0.4-0.3,0.5-0.5c1.3-4.2,0-6.9,0-7c-0.2-0.4-0.6-0.5-1-0.3
			c-0.4,0.2-0.5,0.6-0.3,1c0,0,1,2.2,0.1,5.5c-3.2,0.9-25.2,6.8-50.7,5.6c-28.3-1.4-36.2-10-38.3-13.9c-0.3-2.4-0.8-8.5,0-10.8
			c0.1-0.4-0.1-0.8-0.4-1c-0.4-0.1-0.8,0.1-1,0.4c-1.1,3.1-0.1,11.3,0,11.6c0,0.1,0,0.2,0.1,0.3c2.1,4,10.3,13.4,39.6,14.8
			C489.7,585.8,492.1,585.9,494.4,585.9z"/>
		<path class="st8" d="M506.4,535.8c-0.3,0-0.5-0.1-0.7-0.4c-0.3-0.5-2.6-5-2.7-7c-0.1-1.9,1.1-2.9,1.8-3.2c0.1,0,0.2,0,0.2,0
			c3.5-0.1,18.1-1.2,18.2-1.2c0.4,0,0.8,0.3,0.8,0.7c0,0.4-0.3,0.8-0.7,0.8c-0.6,0-14.4,1-18.1,1.2c-0.2,0.1-0.9,0.6-0.8,1.6
			c0.1,1.4,1.9,5.1,2.6,6.4c0.2,0.4,0,0.8-0.3,1C506.7,535.8,506.6,535.8,506.4,535.8z"/>
		<path class="st8" d="M497,536.3c-0.3,0-0.6-0.2-0.7-0.5l-2.9-7.1c0-0.1-0.6-1.3-3.6-1.2c-4.2,0.2-34.1-0.5-40.4-1.1l0.1,3
			c0,0.4-0.3,0.8-0.7,0.8c-0.4,0-0.8-0.3-0.8-0.7l-0.1-3.9c0-0.2,0.1-0.5,0.3-0.6c0.2-0.1,0.4-0.2,0.7-0.1
			c2.3,0.6,35.7,1.4,40.9,1.2c4.2-0.2,5,2.1,5.1,2.2l2.9,7.1c0.2,0.4,0,0.8-0.4,1C497.2,536.3,497.1,536.3,497,536.3z"/>
		<path class="st8" d="M456.4,570.7C456.3,570.7,456.3,570.7,456.4,570.7c-0.3,0-0.5-0.3-0.5-0.6c1.6-13.6,7.2-29.8,35.6-34
			c34.3-5.1,48,6.4,48.6,6.8c0.2,0.2,0.2,0.5,0,0.7c-0.2,0.2-0.5,0.2-0.7,0.1c-0.1-0.1-13.9-11.6-47.8-6.6
			c-27.8,4.1-33.2,19.9-34.8,33.1C456.8,570.6,456.6,570.7,456.4,570.7z"/>
		<path class="st8" d="M448.3,527.5c0.1-0.4,0.4-0.7,0.9-0.6l0.4,2.9c-0.9,9.8,0.2,30.2,0.3,32c2.3,5.7,10.9,10.9,10.9,10.9
			c28,12.8,73.1,0.8,77.5-0.5c0.9-2.1,5.5-14.2,3.4-22.9c-2.1-9.2-16.3-22-17.6-23.2c-0.4-0.2-0.8-0.3-1.2-0.4l-0.3-1l2.1,0.1
			c0.1,0,0.2,0.1,0.2,0.1c0.6,0.6,15.8,14.1,18.2,24.1c2.3,10-3.4,23.6-3.6,24.2c-0.1,0.2-0.3,0.4-0.5,0.4
			c-0.3,0.1-22.4,6.4-45.9,6.4c-11.5,0-23.3-1.5-33.1-6c-0.4-0.2-9.3-5.5-11.6-11.8c0-0.1,0-0.1,0-0.2
			C448.2,560.9,446.8,536.6,448.3,527.5z"/>
		<path class="st8" d="M524.9,524.8c0,0-0.6-0.9-1.8-0.9l-1.2,0.9l0.2,0.7c0,0,1.3,0,2.6,1l0-1L524.9,524.8z"/>
		<path class="st8" d="M489.4,527.6c-0.1,0-0.2,0-0.3-0.1c-0.4-0.2-0.6-0.6-0.4-1c1.1-2.7,3.8-2.9,3.9-2.9c0.1,0,3.5-0.1,8.2-0.4
			c5.1-0.4,7,1.8,7.1,1.9c0.3,0.3,0.2,0.8-0.1,1.1c-0.3,0.3-0.8,0.2-1.1-0.1c0,0-1.6-1.7-5.8-1.4c-4.7,0.3-8.2,0.4-8.3,0.4
			c0,0-1.8,0.2-2.6,2C489.9,527.4,489.7,527.6,489.4,527.6z"/>
		<path class="st8" d="M487.6,536.5c-0.4,0-0.7-0.2-0.9-0.6c-0.2-0.5,0-1.1,0.5-1.3c6.6-3.1,22.6-6.1,23.2-6.2
			c0.5-0.1,1.1,0.3,1.2,0.8c0.1,0.5-0.3,1.1-0.8,1.2c-0.2,0-16.4,3.1-22.8,6.1C487.8,536.5,487.7,536.5,487.6,536.5z"/>
		<path class="st8" d="M511.9,534.4c-0.1,0-0.1,0-0.2,0c-0.2,0-15.1-3.1-24.2-3.4c-0.6,0-1-0.5-1-1c0-0.5,0.5-1,1-1c0,0,0,0,0,0
			c9.3,0.3,23.9,3.3,24.5,3.5c0.5,0.1,0.9,0.6,0.8,1.2C512.8,534,512.4,534.4,511.9,534.4z"/>
	</g>
	<g>
		<linearGradient id="SVGID_3_" gradientUnits="userSpaceOnUse" x1="349.5025" y1="478.0309" x2="545.131" y2="478.0309">
			<stop  offset="0" style="stop-color:#2F2A28"/>
			<stop  offset="1" style="stop-color:#110706"/>
		</linearGradient>
		<path class="st5" d="M349.5,425.8c0,0-0.3,64,19.7,101.3c0,0,42.4,6.5,76,0.9l2-59.4l2.4,59.1c0,0,47.4,5.6,75.6-0.7
			c0,0,23-55.3,19.6-98.6l-122.9,4l-30.9-2.1L349.5,425.8z"/>
		<path class="st11" d="M544.6,428.6l0.4-2c0,0-7.5,0-19.5,0l-2.3,7.4c0,0-10.1,77.8-17.5,95.7c10.4-1,9-0.1,19.6-2.5
			c19.9-42,19.6-98.6,19.6-98.6L544.6,428.6z"/>
		<path class="st12" d="M539,430.5c0,0-4.9,52.5-18.2,97.2"/>
		<path class="st12" d="M355.7,430.5c0,0,2.8,60.4,19.8,97.9"/>
		<path class="st6" d="M428.5,530.2c0,0,13.8-6.2,18.7-65.1c0,0,6.4,59.1,15.1,64.3l-12.7-1.5l-1.8-53.5l-2.5,52.7L428.5,530.2z"/>
		<path class="st6" d="M440.8,431.6l1.8,26.3l5.2,7.8c0,0-4.3-28.4-4-34.1H440.8z"/>
		<path class="st6" d="M454.1,430.5l-1.8,26.3l-5.2,7.8c0,0,4.3-28.4,4-34.1H454.1z"/>
		<path class="st8" d="M483.2,531.2c-10.4,0-22.1-0.6-34.1-2.1c-0.5-0.1-0.9-0.5-0.9-1l-1-31.7l-1,31.7c0,0.5-0.4,1-0.9,1
			c-40.4,5.3-75.9-0.9-76.3-1c-0.3-0.1-0.6-0.3-0.7-0.6c-22.2-50.4-19.5-98.9-19.5-99.4c0-0.6,0.5-1,1.1-1c0.6,0,1,0.5,0.9,1.1
			c0,0.5-2.6,48.1,19.1,97.8c4.5,0.7,37.3,5.7,74.3,1l2-62c0-0.6,0.5-1,1-1c0.5,0,1,0.5,1,1l2,62c37.1,4.7,69.9-0.2,74.3-1
			c21.7-49.7,19.1-97.4,19.1-97.8c0-0.6,0.4-1.1,0.9-1.1c0.5,0,1,0.4,1.1,1c0,0.5,2.7,49-19.5,99.4c-0.1,0.3-0.4,0.5-0.7,0.6
			C525.1,528.2,507.6,531.2,483.2,531.2z M525.2,527.1L525.2,527.1L525.2,527.1z"/>
	</g>
	<path class="st13" d="M546.1,419.3H348.3v18.9c6.5,0.9,53.6,6.6,70.1,4.8l0.6-5.2c0,0,33.1,4.6,57.2,1l0.4,4.6c0,0,43.5,0.5,69-4.1
		L546.1,419.3z"/>
	<polygon class="st14" points="477.3,287.7 465,289.4 447.5,304.8 428.6,289 414.1,288.1 413.7,310.2 411.7,320.3 445.8,349.7 
		484.3,314.5 	"/>
	<path class="st15" d="M419.6,287.9c0,0-0.8,17.1,0,18.5c0.8,1.4,4.9,18.5,6.6,20.8c1.6,2.4-1.3,8-1.3,8l-21.8-4.4l-1.7-9.4l6.8-24
		l5.9-9.4L419.6,287.9z"/>
	<polygon class="st15" points="473.7,287.7 474.6,305 468.6,325.1 484.3,321.5 488.2,292.7 	"/>
	<linearGradient id="SVGID_4_" gradientUnits="userSpaceOnUse" x1="438.5848" y1="324.3072" x2="456.1428" y2="324.3072">
		<stop  offset="0" style="stop-color:#2F2A28"/>
		<stop  offset="1" style="stop-color:#110706"/>
	</linearGradient>
	<polygon class="st9" points="447.1,303.8 439.4,309.1 439.4,322.7 439.7,325.1 438.6,337.6 446.7,344.8 456.1,335.3 455.1,324.3 
		455.5,308.2 	"/>
	<path class="st8" d="M455.8,324.7c0.6-0.5,0.7-1,0.7-1.3v-14.1c0-0.6-0.4-1-1-1h-16.1c-0.6,0-1,0.4-1,1l0,14.2c0,0.8,1,2.8,8.7,3.7
		c0,0,0.1,0,0.1,0h0.5c0,0,0.1,0,0.1,0c2.9-0.3,4.8-0.8,6.1-1.3l1.3,10.5c0.1,0.5,0.5,0.9,1,0.9c0,0,0.1,0,0.1,0
		c0.5-0.1,0.9-0.6,0.9-1.1L455.8,324.7z M447.7,325.1h-0.4c-5.4-0.6-6.6-1.7-6.8-2v-12.9h14.1l0,12.9
		C454.3,323.4,453.1,324.5,447.7,325.1z"/>
	<path class="st8" d="M438.6,338.5c0,0-0.1,0-0.1,0c-0.5-0.1-0.9-0.6-0.9-1.1l1.6-13.3c0.1-0.5,0.6-1,1.1-0.9
		c0.5,0.1,0.9,0.6,0.9,1.1l-1.6,13.3C439.5,338.2,439.1,338.5,438.6,338.5z"/>
	<path class="st17" d="M478.4,288.5c0.5-0.1,0.9-0.6,0.9-1.1c-0.1-0.5-0.6-0.9-1.1-0.9l-11.9,1.5c-0.2,0-0.4,0.1-0.5,0.2l-18.2,14.6
		l-18.2-14.6c-0.1-0.1-0.3-0.2-0.5-0.2l-11.9-1.5c-0.5-0.1-1,0.3-1.1,0.9c-0.1,0.5,0.3,1,0.9,1.1l11.7,1.4l17.2,13.8l-17,12.1
		l-10.9-15.7c-0.3-0.5-0.9-0.6-1.4-0.2c-0.5,0.3-0.6,0.9-0.2,1.4l11.5,16.5c0.2,0.2,0.4,0.4,0.6,0.4c0.1,0,0.1,0,0.2,0
		c0.2,0,0.4-0.1,0.6-0.2l18.7-13.3l18.7,13.3c0.2,0.1,0.4,0.2,0.6,0.2c0.1,0,0.1,0,0.2,0c0.3,0,0.5-0.2,0.6-0.4l10.8-15.5
		c0.3-0.5,0.2-1.1-0.2-1.4c-0.5-0.3-1.1-0.2-1.4,0.2l-10.3,14.7l-17-12.1l17.2-13.8L478.4,288.5z"/>
	<path class="st18" d="M416.4,317.2c0,0,22.9,22.3,30.6,26.9l33-29l2.6,118.7l-30.7,1.3l-3.2-1.2l-37.1-1.5l-0.6-112.9L416.4,317.2z
		"/>
	<g>
		<path class="st19" d="M481.5,433c-6.9,1.1-27.4,1.1-29.9,1.2l-7.9-4.4V349l35.2-32.1c0.4-0.4,0.4-1,0.1-1.4
			c-0.4-0.4-1-0.4-1.4-0.1l-30.6,28c-9.8-6-29.8-27.7-30-27.9c-0.4-0.4-1-0.4-1.4-0.1c-0.4,0.4-0.4,1-0.1,1.4
			c0.8,0.9,19.8,21.4,30,28l-3.4,3.1c-0.2,0.2-0.3,0.5-0.3,0.7v81.8c0,0.4,0.2,0.7,0.5,0.9l3.2,1.8c-13.1,0.3-32.4-1.4-32.6-1.4
			c-0.6-0.1-1,0.4-1.1,0.9c0,0.6,0.4,1,0.9,1.1c0.2,0,16.8,1.5,29.8,1.5c1.7,0,3.3,0,4.8-0.1c0.3,0,0.6-0.2,0.8-0.5l2.8,1.5
			c0.1,0.1,0.3,0.1,0.5,0.1c0.9,0,23.1,0,30.5-1.2c0.5-0.1,0.9-0.6,0.8-1.1C482.5,433.3,482,432.9,481.5,433z"/>
		<path class="st19" d="M452,358.1c-2.3,0-4.2,1.9-4.2,4.2c0,2.3,1.9,4.2,4.2,4.2c2.3,0,4.2-1.9,4.2-4.2
			C456.1,359.9,454.3,358.1,452,358.1z M452,364.4c-1.2,0-2.2-1-2.2-2.2c0-1.2,1-2.2,2.2-2.2c1.2,0,2.2,1,2.2,2.2
			C454.1,363.4,453.2,364.4,452,364.4z"/>
		<path class="st19" d="M452,383.2c-2.3,0-4.2,1.9-4.2,4.2c0,2.3,1.9,4.2,4.2,4.2c2.3,0,4.2-1.9,4.2-4.2
			C456.1,385,454.3,383.2,452,383.2z M452,389.5c-1.2,0-2.2-1-2.2-2.2c0-1.2,1-2.2,2.2-2.2c1.2,0,2.2,1,2.2,2.2
			C454.1,388.5,453.2,389.5,452,389.5z"/>
		<path class="st19" d="M452,410.9c-2.3,0-4.2,1.9-4.2,4.2c0,2.3,1.9,4.2,4.2,4.2c2.3,0,4.2-1.9,4.2-4.2
			C456.1,412.8,454.3,410.9,452,410.9z M452,417.3c-1.2,0-2.2-1-2.2-2.2c0-1.2,1-2.2,2.2-2.2c1.2,0,2.2,1,2.2,2.2
			C454.1,416.3,453.2,417.3,452,417.3z"/>
	</g>
	<g>
		<path class="st8" d="M591.4,391.9c-23.9-62-79.7-113.8-80.3-114.3c-0.3-0.3-0.7-0.3-1.1-0.2c-11.3,4.7-32.5,9-32.7,9.1
			c-0.1,0-0.2,0.1-0.3,0.1c0,0,0,0,0,0c-0.1,0.1-0.2,0.1-0.3,0.2c0,0,0,0,0,0c0,0,0,0.1,0,0.1c0,0.1-0.1,0.1-0.1,0.2
			c0,0.1,0,0.1,0,0.2c0,0,0,0.1,0,0.1c0,1,1.9,99.7,2.8,122c0.9,22.3,1.8,30.3,1.8,30.4c0.1,0.5,0.5,0.9,1,0.9c0.4,0,2.7,0,6.2,0
			c13.2,0,44.2-0.6,59.4-5.9c0.4-0.1,0.6-0.5,0.7-0.8c0-0.3,1.2-12.3-0.5-31.1c0.1,0,0.1,0,0.2,0c26.4,0,42.3-9.4,43-9.8
			C591.4,392.9,591.6,392.4,591.4,391.9z M487.8,286.4l12.1,6.7l-3.9,6.2L480,288c1.8-0.4,4.5-1,7.6-1.8
			C487.7,286.3,487.8,286.3,487.8,286.4z M503.8,307.3c-2.7,5-17.5,33-23.5,62.9c-0.7-32-1.5-71.5-1.7-80.7L503.8,307.3z
			 M547.9,400.9c-0.1,0-0.2,0-0.3,0c-2.7-26.2-11-64.4-35.2-102.3c-0.3-0.5-0.9-0.6-1.4-0.3c-0.5,0.3-0.6,0.9-0.3,1.4
			c40.1,62.7,36.3,126.5,35.7,133.5c-17.7,5.9-57,5.6-63.3,5.5c-0.3-2.6-1-11.2-1.7-29.3c-0.2-5.6-0.5-15.9-0.8-28.4
			c4.3-36.2,25.2-73.3,25.4-73.6c0.3-0.4,0.1-1-0.3-1.3l-8.1-5.7l4.6-7.1c0.1-0.2,0.2-0.5,0.1-0.8c-0.1-0.3-0.2-0.5-0.5-0.6
			l-11.3-6.3c6.5-1.6,14.2-3.8,19.8-6c5.4,5.1,56.2,54.1,79,112.3C585.8,393.6,570.6,400.9,547.9,400.9z"/>
		<path class="st8" d="M417.6,287.2c0-0.1-0.1-0.1-0.1-0.2c0,0,0-0.1,0-0.1c0,0,0,0,0,0c-0.1-0.1-0.1-0.1-0.2-0.2
			c0,0-0.1-0.1-0.1-0.1c-0.1,0-0.2-0.1-0.3-0.1c0,0-0.1,0-0.1,0c0,0,0,0,0,0c-0.2,0-21.4-3.4-32.6-8.1c-0.4-0.1-0.8-0.1-1.1,0.2
			c-0.6,0.5-56.3,51.3-80.3,113.3c-0.2,0.5,0,1,0.4,1.2c0.7,0.4,16.6,9.8,43,9.8c0.1,0,0.1,0,0.2,0c-1.8,18.8-0.6,30.9-0.5,31.1
			c0,0.4,0.3,0.7,0.7,0.8c15.2,5.3,46.2,5.9,59.4,5.9c3.5,0,5.8,0,6.2,0c0.5,0,0.9-0.4,1-0.9c0-0.1,0.9-8,1.8-30.4
			c0.9-22.3,2.8-121,2.8-122c0,0,0-0.1,0-0.1C417.7,287.3,417.7,287.3,417.6,287.2z M414.1,288.1l-15.8,11.2l-3.9-6.2l11.7-6.5
			C409.4,287.2,412.2,287.7,414.1,288.1z M415.7,289.4c-0.2,9.2-1,48.7-1.7,80.7c-6-29.9-20.7-57.9-23.5-62.9L415.7,289.4z
			 M412.9,409.4c-0.7,18.1-1.4,26.8-1.7,29.3c-6.4,0.1-45.6,0.3-63.3-5.5c-0.6-7-4.4-70.9,35.7-133.5c0.3-0.5,0.2-1.1-0.3-1.4
			c-0.5-0.3-1.1-0.2-1.4,0.3c-24.2,37.8-32.6,76.1-35.2,102.3c-0.1,0-0.2,0-0.3,0c-22.7,0-37.9-7.3-41.3-9.1
			c22.8-58.2,73.6-106.3,79-111.3c5.4,2.2,12.8,4.1,19.1,5.4l-10.6,5.9c-0.2,0.1-0.4,0.4-0.5,0.6c-0.1,0.3,0,0.5,0.1,0.8l4.6,7.1
			l-8.1,5.7c-0.4,0.3-0.5,0.9-0.3,1.3c0.2,0.4,21.1,37.4,25.4,73.6C413.4,393.5,413.1,403.9,412.9,409.4z"/>
	</g>
	<linearGradient id="SVGID_5_" gradientUnits="userSpaceOnUse" x1="400.0565" y1="257.1862" x2="656.9457" y2="356.7419">
		<stop  offset="0" style="stop-color:#3E3A37"/>
		<stop  offset="1" style="stop-color:#25201E"/>
	</linearGradient>
	<path class="st10" d="M487.8,286.4l12.1,6.7l-3.9,6.2L480,288c1.8-0.4,4.5-1,7.6-1.8C487.7,286.3,487.8,286.3,487.8,286.4z"/>
	<linearGradient id="SVGID_6_" gradientUnits="userSpaceOnUse" x1="385.9611" y1="293.5576" x2="642.85" y2="393.1132">
		<stop  offset="0" style="stop-color:#3E3A37"/>
		<stop  offset="1" style="stop-color:#25201E"/>
	</linearGradient>
	<path class="st16" d="M503.8,307.3c-2.7,5-17.5,33-23.5,62.9c-0.7-32-1.5-71.5-1.7-80.7L503.8,307.3z"/>
	<linearGradient id="SVGID_7_" gradientUnits="userSpaceOnUse" x1="378.3156" y1="313.2856" x2="635.2043" y2="412.841">
		<stop  offset="0" style="stop-color:#2F2A28"/>
		<stop  offset="1" style="stop-color:#110706"/>
	</linearGradient>
	<path class="st20" d="M547.9,400.9c-0.1,0-0.2,0-0.3,0c-2.7-26.2-11-64.4-35.2-102.3c-0.3-0.5-0.9-0.6-1.4-0.3
		c-0.5,0.3-0.6,0.9-0.3,1.4c40.1,62.7,36.3,126.5,35.7,133.5c-17.7,5.9-57,5.6-63.3,5.5c-0.3-2.6-1-11.2-1.7-29.3
		c-0.2-5.6-0.5-15.9-0.8-28.4c4.3-36.2,25.2-73.3,25.4-73.6c0.3-0.4,0.1-1-0.3-1.3l-8.1-5.7l4.6-7.1c0.1-0.2,0.2-0.5,0.1-0.8
		c-0.1-0.3-0.2-0.5-0.5-0.6l-11.3-6.3c6.5-1.6,14.2-3.8,19.8-6c5.4,5.1,56.2,54.1,79,112.3C585.8,393.6,570.6,400.9,547.9,400.9z"/>
	<linearGradient id="SVGID_8_" gradientUnits="userSpaceOnUse" x1="388.569" y1="286.828" x2="645.4592" y2="386.384">
		<stop  offset="0" style="stop-color:#3E3A37"/>
		<stop  offset="1" style="stop-color:#25201E"/>
	</linearGradient>
	<path class="st21" d="M414.1,288.1l-15.8,11.2l-3.9-6.2l11.7-6.5C409.4,287.2,412.2,287.7,414.1,288.1z"/>
	<linearGradient id="SVGID_9_" gradientUnits="userSpaceOnUse" x1="377.517" y1="315.3463" x2="634.4061" y2="414.9019">
		<stop  offset="0" style="stop-color:#3E3A37"/>
		<stop  offset="1" style="stop-color:#25201E"/>
	</linearGradient>
	<path class="st22" d="M415.7,289.4c-0.2,9.2-1,48.7-1.7,80.7c-6-29.9-20.7-57.9-23.5-62.9L415.7,289.4z"/>
	<linearGradient id="SVGID_10_" gradientUnits="userSpaceOnUse" x1="362.3496" y1="354.4837" x2="619.2389" y2="454.0394">
		<stop  offset="0" style="stop-color:#2F2A28"/>
		<stop  offset="1" style="stop-color:#110706"/>
	</linearGradient>
	<path class="st23" d="M412.9,409.4c-0.7,18.1-1.4,26.8-1.7,29.3c-6.4,0.1-45.6,0.3-63.3-5.5c-0.6-7-4.4-70.9,35.7-133.5
		c0.3-0.5,0.2-1.1-0.3-1.4c-0.5-0.3-1.1-0.2-1.4,0.3c-24.2,37.8-32.6,76.1-35.2,102.3c-0.1,0-0.2,0-0.3,0c-22.7,0-37.9-7.3-41.3-9.1
		c22.8-58.2,73.6-106.3,79-111.3c5.4,2.2,12.8,4.1,19.1,5.4l-10.6,5.9c-0.2,0.1-0.4,0.4-0.5,0.6c-0.1,0.3,0,0.5,0.1,0.8l4.6,7.1
		l-8.1,5.7c-0.4,0.3-0.5,0.9-0.3,1.3c0.2,0.4,21.1,37.4,25.4,73.6C413.4,393.5,413.1,403.9,412.9,409.4z"/>
	<g class="st26">
		<path class="st27" d="M546.4,433.2c0.5-6.7,4-65.2-30.5-125c20.9,54,18.8,107.8,17,127.9C538,435.4,542.7,434.5,546.4,433.2z"/>
		<path class="st27" d="M519.7,311.1c18.6,33.7,25.5,66.6,27.8,89.9c0.1,0,0.2,0,0.3,0c2.7,0,5.4-0.1,7.9-0.3
			C547,359.3,529.5,326.9,519.7,311.1z"/>
	</g>
	<path class="st6" d="M346.3,400.9c0.1,0,0.2,0,0.3,0c2.7-26.2,11-64.4,35.2-102.3c0,0-31.5,39.5-41.2,102.1
		C342.5,400.9,344.4,400.9,346.3,400.9z"/>
	<path class="st28" d="M482.6,433.8L480,315.1l-4.7,4.1c0,22.1,0,48.1,0,50.9c0,4.6-0.6,58.7-0.7,64L482.6,433.8z"/>
	<path class="st28" d="M411.7,433.8l2.6-118.7l4.7,4.1c0,22.1,0,48.1,0,50.9c0,4.6,0.6,58.7,0.7,64L411.7,433.8z"/>
	<linearGradient id="SVGID_11_" gradientUnits="userSpaceOnUse" x1="360.8307" y1="369.6393" x2="415.2241" y2="390.7191">
		<stop  offset="0" style="stop-color:#3E3A37"/>
		<stop  offset="1" style="stop-color:#25201E"/>
	</linearGradient>
	<path class="st24" d="M378.6,307.9c-34.8,59.9-31.3,118.6-30.7,125.3c1.5,0.5,3.2,1,5,1.4c0.1-6.8,0.4-14.7,0.8-23.7
		C356,361.5,371.5,323.2,378.6,307.9z"/>
</g>
</svg>
