<?xml version="1.0" encoding="utf-8"?>
<!-- Generator: Adobe Illustrator 21.0.0, SVG Export Plug-In . SVG Version: 6.00 Build 0)  -->
<svg version="1.1" id="圖層_1" xmlns="http://www.w3.org/2000/svg" xmlns:xlink="http://www.w3.org/1999/xlink" x="0px" y="0px"
	 viewBox="0 0 822.9 601.4" style="enable-background:new 0 0 822.9 601.4;" xml:space="preserve">
<style type="text/css">
	.st0{fill:url(#SVGID_1_);}
	.st1{fill:#E1BE3F;}
	.st2{fill:#AB6C21;}
	.st3{opacity:0.6;fill:#E1BE3F;enable-background:new    ;}
	.st4{fill:url(#SVGID_2_);}
	.st5{fill:url(#SVGID_3_);}
	.st6{fill:url(#SVGID_4_);}
	.st7{fill:url(#SVGID_5_);}
	.st8{fill:#CE9245;}
	.st9{fill:#A66A22;}
	.st10{opacity:0.6;fill:#CE9245;enable-background:new    ;}
	.st11{fill:#AC6D21;}
	.st12{fill:url(#SVGID_6_);}
	.st13{fill:url(#SVGID_7_);}
	.st14{fill:url(#SVGID_8_);}
	.st15{fill:url(#SVGID_9_);}
	.st16{fill:url(#SVGID_10_);}
	.st17{opacity:0.6;fill:#D69644;enable-background:new    ;}
	.st18{fill:#070505;}
	.st19{fill:#22201E;}
	.st20{fill:url(#SVGID_11_);}
	.st21{fill:#DC827B;}
	.st22{fill:#9B2724;}
	.st23{fill:#8F2022;}
	.st24{fill:#C7812F;}
	.st25{fill:#DCB7A7;}
	.st26{fill:#FEF6F2;}
	.st27{fill:#E5BE51;}
	.st28{fill:#CF361C;}
	.st29{fill:#E9DED9;}
	.st30{fill:#FFFFFF;}
	.st31{fill:none;stroke:#DCB7A7;stroke-width:0.8656;stroke-linecap:round;stroke-miterlimit:10;}
	.st32{fill:#9E9E9E;}
	.st33{fill:#E2DFDE;}
	.st34{fill:none;stroke:#9B2724;stroke-width:0.5638;stroke-linecap:round;stroke-linejoin:round;stroke-miterlimit:10;}
	.st35{fill:url(#SVGID_12_);}
	.st36{fill:url(#SVGID_13_);}
	.st37{fill:#D69644;}
	.st38{fill:#D04B22;}
	.st39{fill:url(#SVGID_14_);}
	.st40{fill:url(#SVGID_15_);}
	.st41{fill:url(#SVGID_16_);}
	.st42{fill:url(#SVGID_17_);}
	.st43{fill:url(#SVGID_18_);}
	.st44{fill:url(#SVGID_19_);}
	.st45{fill:url(#SVGID_20_);}
	.st46{fill:#FBEEBA;}
	.st47{fill:#F3B699;}
	.st48{fill:#FCF0CA;}
	.st49{fill:none;stroke:#FCF0CA;stroke-width:0.5868;stroke-miterlimit:10;}
	.st50{fill:url(#SVGID_21_);}
	.st51{fill:url(#SVGID_22_);}
	.st52{fill:url(#SVGID_23_);}
	.st53{fill:#EEE9E5;}
	.st54{fill:#323130;}
	.st55{fill:#181717;}
	.st56{fill:#A4A09F;}
	.st57{fill:#546B7F;}
	.st58{fill:#92A2AD;}
	.st59{opacity:0.6;fill:#A4A09F;enable-background:new    ;}
	.st60{fill:none;stroke:#A4A09F;stroke-width:0.6175;stroke-linecap:round;stroke-miterlimit:10;}
	.st61{fill:#7B8C9F;}
	.st62{fill:#C1E0F6;}
	.st63{fill:url(#SVGID_24_);}
	.st64{opacity:0.6;}
	.st65{fill:#E2BF40;}
	.st66{fill:url(#SVGID_25_);}
	.st67{fill:url(#SVGID_26_);}
	.st68{fill:url(#SVGID_27_);}
	.st69{fill:url(#SVGID_28_);}
	.st70{fill:none;stroke:#FFFFFF;stroke-width:1.8107;stroke-linecap:round;stroke-miterlimit:10;}
	.st71{opacity:0.6;fill:#E2BF40;enable-background:new    ;}
	.st72{fill:#3F210E;}
	.st73{opacity:0.35;fill:#FFFFFF;enable-background:new    ;}
	.st74{fill:url(#SVGID_29_);}
	.st75{opacity:0.8;}
	.st76{fill:url(#SVGID_30_);}
	.st77{fill:url(#SVGID_31_);}
	.st78{fill:#B62E22;}
	.st79{fill:#92622F;}
	.st80{fill:url(#SVGID_32_);}
	.st81{fill:#C5A27C;}
	.st82{opacity:0.8;fill:url(#SVGID_33_);enable-background:new    ;}
	.st83{fill:url(#SVGID_34_);}
	.st84{fill:#2B150B;}
	.st85{fill:#97654C;}
	.st86{opacity:0.4;fill:#3E210E;enable-background:new    ;}
	.st87{fill:url(#SVGID_35_);}
	.st88{opacity:0.35;fill:#DF9E83;enable-background:new    ;}
	.st89{fill:#DF9E83;}
	.st90{fill:#F6D4C7;}
	.st91{opacity:0.69;}
	.st92{fill:#CE5E39;}
	.st93{opacity:0.4;}
	.st94{fill:#3E210E;}
	.st95{fill:#DE805C;}
	.st96{fill:url(#SVGID_36_);stroke:#D78863;stroke-width:0.9662;stroke-miterlimit:10;}
	.st97{fill:url(#SVGID_37_);}
	.st98{fill:#A66B23;}
	.st99{fill:url(#SVGID_38_);}
	.st100{fill:url(#SVGID_39_);}
	.st101{fill:url(#SVGID_40_);}
	.st102{fill:url(#SVGID_41_);}
	.st103{fill:#824323;}
	.st104{fill:url(#SVGID_42_);}
	.st105{fill:#E6A952;}
	.st106{fill:#BB7F37;}
	.st107{fill:url(#SVGID_43_);}
	.st108{fill:url(#SVGID_44_);}
	.st109{fill:url(#SVGID_45_);}
	.st110{fill:#EBA794;}
	.st111{fill:#40210F;}
	.st112{opacity:0.25;fill:#D69644;enable-background:new    ;}
	.st113{opacity:0.5;fill:#D69644;enable-background:new    ;}
	.st114{fill:#FBF4C3;}
	.st115{fill:#DEBD91;}
	.st116{fill:#D8C7A7;}
	.st117{fill:url(#SVGID_46_);}
	.st118{fill:#893827;}
	.st119{opacity:0.4;fill:#E2BF40;enable-background:new    ;}
	.st120{fill:#895424;}
	.st121{fill:#391E13;}
	.st122{fill:#D7B093;}
	.st123{fill:#EFD39D;}
	.st124{fill:#8C5924;}
	.st125{fill:#B55C4E;}
	.st126{fill:url(#SVGID_47_);}
	.st127{fill:url(#SVGID_48_);}
	.st128{fill:#E0917F;}
	.st129{fill:#AB948D;}
	.st130{fill:url(#SVGID_49_);}
	.st131{fill:url(#SVGID_50_);}
	.st132{opacity:0.6;fill:url(#SVGID_51_);enable-background:new    ;}
	.st133{fill:#CD9449;}
	.st134{fill:url(#SVGID_52_);}
	.st135{fill:url(#SVGID_53_);}
	.st136{fill:url(#SVGID_54_);}
	.st137{fill:url(#SVGID_55_);}
	.st138{fill:#842B20;}
	.st139{fill:url(#SVGID_56_);}
	.st140{fill:url(#SVGID_57_);}
	.st141{opacity:0.6;fill:#D2503A;enable-background:new    ;}
	.st142{fill:#DC7D67;}
	.st143{fill:url(#SVGID_58_);}
	.st144{fill:url(#SVGID_59_);}
	.st145{opacity:0.8;fill:#E2BF40;enable-background:new    ;}
	.st146{fill:url(#SVGID_60_);}
	.st147{opacity:0.4;fill:#59A4C1;enable-background:new    ;}
	.st148{fill:#80B4D2;}
	.st149{fill:#4493BB;}
	.st150{fill:#D2ECF9;}
	.st151{opacity:0.5;fill:#80B4D2;enable-background:new    ;}
	.st152{fill:url(#SVGID_61_);}
	.st153{fill:#976430;}
	.st154{fill:url(#SVGID_62_);}
	.st155{fill:#CAA67E;}
	.st156{fill:#5CA6A6;}
	.st157{fill:url(#SVGID_63_);}
	.st158{fill:#9DD6DE;}
	.st159{fill:none;stroke:#AFDDE3;stroke-width:0.8954;stroke-miterlimit:10;}
	.st160{opacity:0.3;enable-background:new    ;}
	.st161{clip-path:url(#SVGID_65_);fill:#9DD6DE;}
	.st162{clip-path:url(#SVGID_67_);fill:#9DD6DE;}
	.st163{opacity:0.6;fill:#FFFFFF;enable-background:new    ;}
	.st164{fill:url(#SVGID_68_);}
	.st165{fill:url(#SVGID_69_);}
	.st166{fill:url(#SVGID_70_);}
	.st167{fill:#150C07;}
	.st168{opacity:0.8;fill:#150C07;enable-background:new    ;}
</style>
<g>
	<g>
		
			<linearGradient id="SVGID_1_" gradientUnits="userSpaceOnUse" x1="1082.4077" y1="217.7616" x2="1167.3884" y2="217.7616" gradientTransform="matrix(-1 0 0 -1 1686.1643 602)">
			<stop  offset="0" style="stop-color:#EFD97F"/>
			<stop  offset="0.1978" style="stop-color:#EFD87C"/>
			<stop  offset="0.3726" style="stop-color:#EED571"/>
			<stop  offset="0.5387" style="stop-color:#EDCF5F"/>
			<stop  offset="0.6984" style="stop-color:#EBC845"/>
			<stop  offset="0.7526" style="stop-color:#EAC53B"/>
			<stop  offset="1" style="stop-color:#E5AD14"/>
		</linearGradient>
		<path class="st0" d="M518.6,360.3l8.1-18.3c0-0.4,0-1,0.2-1.5c0-0.2,0-0.4,0-0.4c0-0.4,0.2-0.8,0.2-1c0-0.2,0-0.4,0.2-0.6
			c0.2-0.4,0.2-0.8,0.4-1.2c0-0.2,0-0.2,0.2-0.4c0.2-0.6,0.4-1,0.6-1.7c0-0.2,0.2-0.2,0.2-0.4c0.2-0.4,0.4-0.8,0.6-1.2
			c0-0.2,0.2-0.4,0.2-0.6c0.2-0.4,0.4-0.8,0.6-1c0-0.2,0.2-0.4,0.2-0.6c2.9-5.6,7.1-11,10-14.6c0.2-0.2,0.2-0.2,0.4-0.4
			c15.8,20,33.7,47.2,47.8,81.6c0,0,12.9,12.3,12.9,29.7c0,17.5-13.3,23.1-20.6,21.4l0,0c-8.1,7.1-19.6,2.7-21.8-8.7v-0.2
			c-0.4,0.2-1,0.6-1.7,0.8c-4.8,2.5-11.2-0.6-13.3-5l0,0l0,0c0-0.2-0.2-0.4-0.2-0.6l0.2-0.2l-1.7-14.1h0.4v-3.5l0.6-2.5
			c-0.2-0.6-0.6-1.5-0.8-2.3l-0.6-1l-0.8-2.5v-0.6c-2.7-6.4-6.7-15.4-11.9-26c-3.3-6.9-7.3-14.1-11.2-21L518.6,360.3z"/>
	</g>
	<path class="st1" d="M569.1,420.4c0,0,2.5,19.1-8.3,25.4l-1.9-5.4C558.9,440.4,570.4,434.3,569.1,420.4z"/>
	<path class="st1" d="M587.8,426.4c0,0,5,12.7,1.2,21.8c0,0-3.3,1.2-8.3,0.8C580.8,449.1,589.3,444.7,587.8,426.4z"/>
	<path class="st2" d="M569.5,426.4c0,0,0.2,11.4-9.6,15.6l-0.4-1.7C559.6,440.4,569.5,431.2,569.5,426.4z"/>
	<path class="st2" d="M588.7,433.1c0,0,0.6,10.6-5,16.2l-3.5-0.2C580.2,449.1,587.6,441.8,588.7,433.1z"/>
	<path class="st3" d="M518.6,360.3l8.1-18.3c0-0.4,0-1,0.2-1.5c0-0.2,0-0.4,0-0.4c0-0.4,0.2-0.8,0.2-1c0-0.2,0-0.4,0.2-0.6
		c0.2-0.4,0.2-0.8,0.4-1.2c0-0.2,0-0.2,0.2-0.4c0.2-0.6,0.4-1,0.6-1.7c0-0.2,0.2-0.2,0.2-0.4c0.2-0.4,0.4-0.8,0.6-1.2
		c0-0.2,0.2-0.4,0.2-0.6c0.2-0.4,0.4-0.8,0.6-1c0-0.2,0.2-0.4,0.2-0.6c0,0,0-0.2,0.2-0.2c10.8,21.2,22.5,49.5,23.1,73.4
		c0,0-13.3,16.9-8.5,33.3c-0.4-0.4-0.6-1-0.8-1.7l0,0l0,0c0-0.2-0.2-0.4-0.2-0.6l0.2-0.2l-1.7-14.1h0.4v-3.5l0.8-3.1l-1.9-2.7
		l-1-2.5l-20-43.5c0,0-1-1.2-2.9-4.2L518.6,360.3z"/>
	<g>
		<path class="st2" d="M542.7,416.4l-0.6-1.2l0,0c-0.2-0.4-13.1-28.9-25-52l1.2-2.9l0,0c10.8,20.8,22.7,47,25.4,52.8
			c0.4-1.2,0.8-1.7,0.8-1.7l0,0c1-1.9,2.3-3.5,2.5-3.5c0.2-0.2,0.6-0.2,0.8,0c0.2,0.2,0.2,0.6,0,0.8c-0.2,0.2-0.6,0.6-0.8,1
			c0,0-6.9,10.6-3.1,25.8l0,0c0.8,2.3,2.9,4.2,5.4,5.2c2.5,1,5.2,1,7.3,0c8.5-4.2,13.1-13.3,11.2-22.3c0-0.4,0.2-0.6,0.4-0.8
			c0.4,0,0.6,0.2,0.8,0.4c1.9,8.7-2.1,17.7-9.8,22.5c1.2,5.4,4.6,9.4,9.2,10.8c4.4,1.2,8.9,0,12.5-3.5c8.9-8.9,5.6-22.5,5.4-22.5
			c0-0.4,0.2-0.6,0.4-0.8c0.4,0,0.6,0.2,0.8,0.4c0,0.2,3.5,14.4-5.8,23.7l0,0c2.9,0.2,7.3-0.6,11.2-3.7c3.3-2.7,7.3-7.9,7.3-17.3
			c0-16.9-12.7-29.1-12.7-29.3l-0.2-0.2c-13.9-34.3-32-61.4-47.6-81.1l0.2-0.2c1-1.2,2.1-2.3,2.7-3.1l0,0c5.2,6.4,10.6,13.7,16,22.1
			l0,0c0,0,25.8,38.5,31.6,60.1c7.1,9.2,20.2,30.2,7.7,46c-1.2,1.9-2.7,3.3-4,4.4c-0.4,0.4-1,0.8-1.7,1c-0.2,0-0.2,0.2-0.2,0.2l0,0
			c-2.9,1.9-6,2.7-9.2,2.7c-0.8,0-1.7,0-2.3-0.2c-2.7,2.3-5.8,3.3-8.9,3.3c-1.2,0-2.5-0.2-3.7-0.6c-5-1.5-8.5-5.6-10-11.4
			c-0.2,0.2-0.6,0.4-0.8,0.4c-1.2,0.6-2.7,0.8-4.2,0.8c-1.5,0-2.7-0.2-4.2-0.8c-2.7-1-4.8-3.1-5.8-5.4l0,0c0,0,0,0,0-0.2
			c0-0.2-0.2-0.2-0.2-0.4l0,0c0,0-1-2.7-1.5-7.1c-0.2-1.7-0.2-3.7,0-5.8C541.9,420.4,542.3,418.1,542.7,416.4z"/>
	</g>
</g>
<g>
	<g>
		
			<linearGradient id="SVGID_2_" gradientUnits="userSpaceOnUse" x1="291.3533" y1="217.5892" x2="376.334" y2="217.5892" gradientTransform="matrix(1 0 0 -1 0 602)">
			<stop  offset="0" style="stop-color:#EFD97F"/>
			<stop  offset="0.1978" style="stop-color:#EFD87C"/>
			<stop  offset="0.3726" style="stop-color:#EED571"/>
			<stop  offset="0.5387" style="stop-color:#EDCF5F"/>
			<stop  offset="0.6984" style="stop-color:#EBC845"/>
			<stop  offset="0.7526" style="stop-color:#EAC53B"/>
			<stop  offset="1" style="stop-color:#E5AD14"/>
		</linearGradient>
		<path class="st4" d="M376.5,360.4l-8.1-18.3c0-0.4,0-1-0.2-1.5c0-0.2,0-0.4,0-0.4c0-0.4-0.2-0.8-0.2-1c0-0.2,0-0.4-0.2-0.6
			c-0.2-0.4-0.2-0.8-0.4-1.2c0-0.2,0-0.2-0.2-0.4c-0.2-0.6-0.4-1-0.6-1.7c0-0.2-0.2-0.2-0.2-0.4c-0.2-0.4-0.4-0.8-0.6-1.2
			c0-0.2-0.2-0.4-0.2-0.6c-0.2-0.4-0.4-0.8-0.6-1c0-0.2-0.2-0.4-0.2-0.6c-2.9-5.6-7.1-11-10-14.6c-0.2-0.2-0.2-0.2-0.4-0.4
			c-15.8,20-33.7,47.2-47.8,81.6c0,0-12.9,12.3-12.9,29.7c0,17.5,13.3,23.1,20.6,21.4l0,0c8.1,7.1,19.6,2.7,21.8-8.7v-0.2
			c0.4,0.2,1,0.6,1.7,0.8c4.8,2.5,11.2-0.6,13.3-5l0,0l0,0c0-0.2,0.2-0.4,0.2-0.6l-0.2-0.2l1.7-14.1h-0.4v-3.5l-0.6-2.5
			c0.2-0.6,0.6-1.5,0.8-2.3l0.6-1l0.8-2.5v-0.6c2.7-6.4,6.7-15.4,11.9-26c3.3-6.9,7.3-14.1,11.2-21L376.5,360.4z"/>
	</g>
	<path class="st1" d="M325.9,420.6c0,0-2.5,19.1,8.3,25.4l1.9-5.4C336.3,440.5,324.7,434.5,325.9,420.6z"/>
	<path class="st1" d="M307.4,426.6c0,0-5,12.7-1.2,21.8c0,0,3.3,1.2,8.3,0.8C314.5,449.3,305.9,444.9,307.4,426.6z"/>
	<path class="st2" d="M325.7,426.6c0,0-0.2,11.4,9.6,15.6l0.4-1.7C335.7,440.5,325.5,431.4,325.7,426.6z"/>
	<path class="st2" d="M306.6,433.3c0,0-0.6,10.6,5,16.2l3.5-0.2C315.1,449.3,307.4,442,306.6,433.3z"/>
	<path class="st3" d="M376.5,360.4l-8.1-18.3c0-0.4,0-1-0.2-1.5c0-0.2,0-0.4,0-0.4c0-0.4-0.2-0.8-0.2-1c0-0.2,0-0.4-0.2-0.6
		c-0.2-0.4-0.2-0.8-0.4-1.2c0-0.2,0-0.2-0.2-0.4c-0.2-0.6-0.4-1-0.6-1.7c0-0.2-0.2-0.2-0.2-0.4c-0.2-0.4-0.4-0.8-0.6-1.2
		c0-0.2-0.2-0.4-0.2-0.6c-0.2-0.4-0.4-0.8-0.6-1c0-0.2-0.2-0.4-0.2-0.6c0,0,0-0.2-0.2-0.2c-10.8,21.2-22.5,49.5-23.1,73.4
		c0,0,13.3,16.9,8.5,33.3c0.4-0.4,0.6-1,0.8-1.7l0,0l0,0c0-0.2,0.2-0.4,0.2-0.6l-0.2-0.2l1.7-14.1h-0.4v-3.5l-0.8-3.1l1.9-2.7l1-2.5
		l20-43.5c0,0,1-1.2,2.9-4.2L376.5,360.4z"/>
	<g>
		<path class="st2" d="M352.3,416.6l0.6-1.2l0,0c0.2-0.4,13.1-28.9,25-52l-1.2-2.9l0,0c-10.8,20.8-22.7,47-25.4,52.8
			c-0.4-1.2-0.8-1.7-0.8-1.7l0,0c-1-1.9-2.3-3.5-2.5-3.5c-0.2-0.2-0.6-0.2-0.8,0c-0.2,0.2-0.2,0.6,0,0.8c0.2,0.2,0.6,0.6,0.8,1
			c0,0,6.9,10.6,3.1,25.8l0,0c-0.8,2.3-2.9,4.2-5.4,5.2c-2.5,1-5.2,1-7.3,0c-8.5-4.2-13.1-13.3-11.2-22.3c0-0.4-0.2-0.6-0.4-0.8
			c-0.4,0-0.6,0.2-0.8,0.4c-1.9,8.7,2.1,17.7,9.8,22.5c-1.2,5.4-4.6,9.4-9.2,10.8c-4.4,1.2-8.9,0-12.5-3.5
			c-8.9-8.9-5.6-22.5-5.4-22.5c0-0.4-0.2-0.6-0.4-0.8c-0.4,0-0.6,0.2-0.8,0.4c0,0.2-3.5,14.4,5.8,23.7l0,0
			c-2.9,0.2-7.3-0.6-11.2-3.7c-3.3-2.7-7.3-7.9-7.3-17.3c0-16.9,12.7-29.1,12.7-29.3l0.2-0.2c13.9-34.3,32-61.4,47.6-81.1L355,317
			c-1-1.2-2.1-2.3-2.7-3.1l0,0c-5.2,6.4-10.6,13.7-16,22.1l0,0c0,0-25.8,38.5-31.6,60.1c-7.1,9.2-20.2,30.2-7.7,46
			c1.2,1.9,2.7,3.3,4,4.4c0.4,0.4,1,0.8,1.7,1c0.2,0,0.2,0.2,0.2,0.2l0,0c2.9,1.9,6,2.7,9.2,2.7c0.8,0,1.7,0,2.3-0.2
			c2.7,2.3,5.8,3.3,8.9,3.3c1.2,0,2.5-0.2,3.7-0.6c5-1.5,8.5-5.6,10-11.4c0.2,0.2,0.6,0.4,0.8,0.4c1.2,0.6,2.7,0.8,4.2,0.8
			s2.7-0.2,4.2-0.8c2.7-1,4.8-3.1,5.8-5.4l0,0c0,0,0,0,0-0.2c0-0.2,0.2-0.2,0.2-0.4l0,0c0,0,1-2.7,1.5-7.1c0.2-1.7,0.2-3.7,0-5.8
			C353.4,420.6,352.8,418.3,352.3,416.6z"/>
	</g>
</g>
<g>
	<path class="st71" d="M523.3,68.6c-0.4,0-16.8-3.6-34.7-2.9c-16.8,0.7-26.1,2.1-27.2,8.2c-0.4,3.2-0.7,11.8,0.4,20
		c-1.8-0.7-7.5-2.5-13.6-2.5s-11.8,1.8-13.9,2.5c1.1-8.2,0.7-16.8,0.4-20c-1.1-6.4-10.4-7.9-27.2-8.2c-17.9-0.7-34.3,2.9-34.7,2.9
		c-4.6,0.7-5.4,5-5,7.1l0,0l0,0c0,0.4,0.4,2.5,3.2,18.2c3.6,20,16.4,22.5,28.2,23.2c1.4,0,2.5,0,3.9,0c11.1,0,20.7-3.2,25.7-8.2
		c2.1-2.1,3.2-6.4,4.3-11.4c0.4,0,6.8-2.5,14.3-2.5c7.5,0,14.3,2.5,14.3,2.5c0.7,5,2.1,9.3,4.3,11.4c5,5,15,8.2,25.7,8.2
		c1.4,0,2.5,0,3.9,0c11.8-0.7,24.7-3.2,28.2-23.2c2.9-15.7,3.2-17.9,3.2-18.2l0,0l0,0C528.3,73.6,527.6,69.4,523.3,68.6z
		 M428.6,108.7c-5.4,5.4-16.4,8.6-28.6,7.9c-11.8-0.7-23.6-3.2-27.2-22.2c-1.4-8.6-2.5-13.2-2.9-15.7c-0.4-1.4-0.4-2.1-0.7-2.9l0,0
		c0-0.4-0.7-5,3.9-5.7l0,0c0,0,16.4-3.6,34.3-2.9c18.2,0.7,25,2.5,25.7,7.1C434,79.4,434,102.9,428.6,108.7z M526.9,75.8L526.9,75.8
		c0,0.7-0.4,1.4-0.4,2.5c-0.4,2.5-1.4,7.1-2.9,15.7c-3.6,19.3-15.4,21.4-27.2,22.2c-12.1,0.7-23.2-2.1-28.6-7.9
		c-5.4-5.4-5.7-28.9-4.6-34.3c0.7-4.6,7.5-6.4,25.7-7.1c1.4,0,2.9,0,3.9,0c16.1,0,30,2.9,30.4,2.9l0,0
		C527.3,70.8,526.9,75.4,526.9,75.8z"/>
	<path class="st167" d="M523.3,67.2c-0.4,0-16.8-3.6-34.7-2.9c-16.8,0.7-26.1,2.1-27.2,8.2c-0.4,3.2-0.7,11.8,0.4,20
		c-1.8-0.7-7.5-2.5-13.6-2.5s-11.8,1.8-13.9,2.5c1.1-8.2,0.7-16.8,0.4-20c-1.1-6.4-10.4-7.9-27.2-8.2c-17.9-0.7-34.3,2.9-34.7,2.9
		c-4.6,0.7-5.4,5-5,7.1l0,0l0,0c0,0.4,0.4,2.5,3.2,18.2c3.6,20,16.4,22.5,28.2,23.2c1.4,0,2.5,0,3.9,0c11.1,0,20.7-3.2,25.7-8.2
		c2.1-2.1,3.2-6.4,4.3-11.4c0.4,0,6.8-2.5,14.3-2.5c7.5,0,14.3,2.5,14.3,2.5c0.7,5,2.1,9.3,4.3,11.4c5,5,15,8.2,25.7,8.2
		c1.4,0,2.5,0,3.9,0c11.8-0.7,24.7-3.2,28.2-23.2c2.9-15.7,3.2-17.9,3.2-18.2l0,0l0,0C528.3,72.6,527.6,68.3,523.3,67.2z
		 M428.6,107.2c-5.4,5.4-16.4,8.6-28.6,7.9c-11.8-0.7-23.6-3.2-27.2-22.2c-1.4-8.6-2.5-13.2-2.9-15.7c-0.4-1.1-0.4-1.8-0.4-2.5l0,0
		c0-0.4-0.7-5,3.9-5.7l0,0c0,0,16.4-3.6,34.3-2.9c18.2,0.7,25,2.5,25.7,7.1C434,78.3,434,101.5,428.6,107.2z M526.9,74.4
		C526.9,74.4,526.9,74.7,526.9,74.4c0,0.7-0.4,1.4-0.4,2.5c-0.4,2.5-1.4,7.1-2.9,15.7c-3.6,19.3-15.4,21.4-27.2,22.2
		c-12.1,0.7-23.2-2.1-28.6-7.9c-5.4-5.4-5.7-28.9-4.6-34.3c0.7-4.6,7.5-6.4,25.7-7.1c1.4,0,2.9,0,3.9,0c16.1,0,30,2.9,30.4,2.9l0,0
		C527.3,69.4,526.9,74.4,526.9,74.4z"/>
	<path class="st168" d="M428.6,107.2c-5.4,5.4-16.4,8.6-28.6,7.9c-11.8-0.7-23.6-3.2-27.2-22.2c-1.4-8.6-2.5-13.2-2.9-15.7
		c-0.4-1.1-0.4-1.8-0.4-2.5l0,0c0-0.4-0.7-5,3.9-5.7l0,0c0,0,16.4-3.6,34.3-2.9c18.2,0.7,25,2.5,25.7,7.1
		C434,78.3,434,101.5,428.6,107.2z"/>
	<path class="st168" d="M526.9,74.4C526.9,74.4,526.9,74.7,526.9,74.4c0,0.7-0.4,1.4-0.4,2.5c-0.4,2.5-1.4,7.1-2.9,15.7
		c-3.6,19.3-15.4,21.4-27.2,22.2c-12.1,0.7-23.2-2.1-28.6-7.9c-5.4-5.4-5.7-28.9-4.6-34.3c0.7-4.6,7.5-6.4,25.7-7.1
		c1.4,0,2.9,0,3.9,0c16.1,0,30,2.9,30.4,2.9l0,0C527.3,69.4,526.9,74.4,526.9,74.4z"/>
	<g class="st64">
		<g>
			<path class="st30" d="M376.1,72.9c-0.4,11.4,2.1,22.5,7.1,32.9c1.1,2.5,5,0.4,3.9-2.1c-4.6-9.6-6.8-19.7-6.4-30.4
				C380.4,70.1,376.1,70.1,376.1,72.9L376.1,72.9z"/>
		</g>
	</g>
	<g class="st64">
		<g>
			<path class="st30" d="M390.8,111.5c2.9,0,2.9-4.3,0-4.3S387.9,111.5,390.8,111.5L390.8,111.5z"/>
		</g>
	</g>
	<g class="st64">
		<g>
			<path class="st30" d="M467.6,73.3c-1.8,11.4-0.4,22.5,4.6,32.9c1.1,2.5,5,0.4,3.9-2.1c-4.3-9.3-5.7-19.3-3.9-29.3
				C472.2,71.5,467.9,70.4,467.6,73.3L467.6,73.3z"/>
		</g>
	</g>
	<g class="st64">
		<g>
			<path class="st30" d="M479.7,110.8c2.9,0,2.9-4.3,0-4.3C476.5,106.5,476.5,110.8,479.7,110.8L479.7,110.8z"/>
		</g>
	</g>
</g>
</svg>
