<?xml version="1.0" encoding="utf-8"?>
<!-- Generator: Adobe Illustrator 21.0.0, SVG Export Plug-In . SVG Version: 6.00 Build 0)  -->
<svg version="1.1" id="圖層_1" xmlns="http://www.w3.org/2000/svg" xmlns:xlink="http://www.w3.org/1999/xlink" x="0px" y="0px"
	 viewBox="0 0 822.9 601.4" style="enable-background:new 0 0 822.9 601.4;" xml:space="preserve">
<style type="text/css">
	.st0{fill:url(#SVGID_1_);}
	.st1{fill:#CE9245;}
	.st2{fill:#A66A22;}
	.st3{opacity:0.6;fill:#CE9245;enable-background:new    ;}
	.st4{fill:#AC6D21;}
	.st5{fill:url(#SVGID_2_);}
	.st6{fill:url(#SVGID_3_);}
	.st7{fill:url(#SVGID_4_);}
	.st8{fill:url(#SVGID_5_);}
	.st9{fill:url(#SVGID_6_);}
	.st10{opacity:0.6;fill:#D69644;enable-background:new    ;}
	.st11{fill:#070505;}
	.st12{fill:#22201E;}
	.st13{fill:url(#SVGID_7_);}
	.st14{fill:#DC827B;}
	.st15{fill:#9B2724;}
	.st16{fill:#8F2022;}
	.st17{fill:#C7812F;}
	.st18{fill:#DCB7A7;}
	.st19{fill:#FEF6F2;}
	.st20{fill:#E5BE51;}
	.st21{fill:#CF361C;}
	.st22{fill:#E9DED9;}
	.st23{fill:#FFFFFF;}
	.st24{fill:none;stroke:#DCB7A7;stroke-width:0.8656;stroke-linecap:round;stroke-miterlimit:10;}
	.st25{fill:#9E9E9E;}
	.st26{fill:#E2DFDE;}
	.st27{fill:none;stroke:#9B2724;stroke-width:0.5638;stroke-linecap:round;stroke-linejoin:round;stroke-miterlimit:10;}
	.st28{fill:url(#SVGID_8_);}
	.st29{fill:url(#SVGID_9_);}
	.st30{fill:#D69644;}
	.st31{fill:#D04B22;}
	.st32{fill:url(#SVGID_10_);}
	.st33{fill:url(#SVGID_11_);}
	.st34{fill:url(#SVGID_12_);}
	.st35{fill:url(#SVGID_13_);}
	.st36{fill:url(#SVGID_14_);}
	.st37{fill:url(#SVGID_15_);}
	.st38{fill:url(#SVGID_16_);}
	.st39{fill:#FBEEBA;}
	.st40{fill:#F3B699;}
	.st41{fill:#FCF0CA;}
	.st42{fill:none;stroke:#FCF0CA;stroke-width:0.5868;stroke-miterlimit:10;}
	.st43{fill:url(#SVGID_17_);}
	.st44{fill:url(#SVGID_18_);}
	.st45{fill:url(#SVGID_19_);}
	.st46{fill:#EEE9E5;}
	.st47{fill:#323130;}
	.st48{fill:#181717;}
	.st49{fill:#A4A09F;}
	.st50{fill:#546B7F;}
	.st51{fill:#92A2AD;}
	.st52{opacity:0.6;fill:#A4A09F;enable-background:new    ;}
	.st53{fill:none;stroke:#A4A09F;stroke-width:0.6175;stroke-linecap:round;stroke-miterlimit:10;}
	.st54{fill:#7B8C9F;}
	.st55{fill:#C1E0F6;}
	.st56{fill:url(#SVGID_20_);}
	.st57{opacity:0.6;}
	.st58{fill:#E2BF40;}
	.st59{fill:url(#SVGID_21_);}
	.st60{fill:url(#SVGID_22_);}
	.st61{fill:url(#SVGID_23_);}
	.st62{fill:url(#SVGID_24_);}
	.st63{fill:none;stroke:#FFFFFF;stroke-width:1.8107;stroke-linecap:round;stroke-miterlimit:10;}
	.st64{opacity:0.6;fill:#E2BF40;enable-background:new    ;}
	.st65{fill:#3F210E;}
	.st66{opacity:0.35;fill:#FFFFFF;enable-background:new    ;}
	.st67{fill:url(#SVGID_25_);}
	.st68{fill:url(#SVGID_26_);}
	.st69{fill:url(#SVGID_27_);}
	.st70{opacity:0.8;}
	.st71{fill:url(#SVGID_28_);}
	.st72{fill:url(#SVGID_29_);}
	.st73{fill:#B62E22;}
	.st74{fill:#92622F;}
	.st75{fill:url(#SVGID_30_);}
	.st76{fill:#C5A27C;}
	.st77{opacity:0.8;fill:url(#SVGID_31_);enable-background:new    ;}
	.st78{fill:url(#SVGID_32_);}
	.st79{fill:#2B150B;}
	.st80{fill:#97654C;}
	.st81{opacity:0.4;fill:#3E210E;enable-background:new    ;}
	.st82{fill:url(#SVGID_33_);}
	.st83{opacity:0.35;fill:#DF9E83;enable-background:new    ;}
	.st84{fill:#DF9E83;}
	.st85{fill:#F6D4C7;}
	.st86{opacity:0.69;}
	.st87{fill:#CE5E39;}
	.st88{opacity:0.4;}
	.st89{fill:#3E210E;}
	.st90{fill:#DE805C;}
	.st91{fill:url(#SVGID_34_);stroke:#D78863;stroke-width:0.9662;stroke-miterlimit:10;}
	.st92{fill:url(#SVGID_35_);}
	.st93{fill:#A66B23;}
	.st94{fill:url(#SVGID_36_);}
	.st95{fill:url(#SVGID_37_);}
	.st96{fill:url(#SVGID_38_);}
	.st97{fill:url(#SVGID_39_);}
	.st98{fill:#824323;}
	.st99{fill:url(#SVGID_40_);}
	.st100{fill:#E6A952;}
	.st101{fill:#BB7F37;}
	.st102{fill:url(#SVGID_41_);}
	.st103{fill:url(#SVGID_42_);}
	.st104{fill:url(#SVGID_43_);}
	.st105{fill:#EBA794;}
	.st106{fill:#40210F;}
	.st107{opacity:0.25;fill:#D69644;enable-background:new    ;}
	.st108{opacity:0.5;fill:#D69644;enable-background:new    ;}
	.st109{fill:#FBF4C3;}
	.st110{fill:#DEBD91;}
	.st111{fill:#D8C7A7;}
	.st112{fill:url(#SVGID_44_);}
	.st113{fill:#893827;}
	.st114{opacity:0.4;fill:#E2BF40;enable-background:new    ;}
	.st115{fill:#895424;}
	.st116{fill:#391E13;}
	.st117{fill:#D7B093;}
	.st118{fill:#EFD39D;}
	.st119{fill:#8C5924;}
	.st120{fill:#B55C4E;}
	.st121{fill:url(#SVGID_45_);}
	.st122{fill:url(#SVGID_46_);}
	.st123{fill:#E0917F;}
	.st124{fill:#AB948D;}
	.st125{fill:url(#SVGID_47_);}
	.st126{fill:url(#SVGID_48_);}
	.st127{opacity:0.6;fill:url(#SVGID_49_);enable-background:new    ;}
	.st128{fill:#CD9449;}
	.st129{fill:url(#SVGID_50_);}
	.st130{fill:url(#SVGID_51_);}
	.st131{fill:url(#SVGID_52_);}
	.st132{fill:url(#SVGID_53_);}
	.st133{fill:#842B20;}
	.st134{fill:url(#SVGID_54_);}
	.st135{fill:url(#SVGID_55_);}
	.st136{opacity:0.6;fill:#D2503A;enable-background:new    ;}
	.st137{fill:#DC7D67;}
	.st138{fill:url(#SVGID_56_);}
	.st139{fill:url(#SVGID_57_);}
	.st140{opacity:0.8;fill:#E2BF40;enable-background:new    ;}
	.st141{fill:url(#SVGID_58_);}
	.st142{opacity:0.4;fill:#59A4C1;enable-background:new    ;}
	.st143{fill:#80B4D2;}
	.st144{fill:#4493BB;}
	.st145{fill:#D2ECF9;}
	.st146{opacity:0.5;fill:#80B4D2;enable-background:new    ;}
	.st147{fill:url(#SVGID_59_);}
	.st148{fill:#976430;}
	.st149{fill:url(#SVGID_60_);}
	.st150{fill:#CAA67E;}
	.st151{fill:#5CA6A6;}
	.st152{fill:url(#SVGID_61_);}
	.st153{fill:#9DD6DE;}
	.st154{fill:none;stroke:#AFDDE3;stroke-width:0.8954;stroke-miterlimit:10;}
	.st155{opacity:0.3;enable-background:new    ;}
	.st156{clip-path:url(#SVGID_63_);fill:#9DD6DE;}
	.st157{clip-path:url(#SVGID_65_);fill:#9DD6DE;}
	.st158{opacity:0.6;fill:#FFFFFF;enable-background:new    ;}
	.st159{fill:url(#SVGID_66_);}
	.st160{fill:url(#SVGID_67_);}
	.st161{fill:url(#SVGID_68_);}
	.st162{fill:url(#SVGID_69_);}
	.st163{fill:url(#SVGID_70_);}
	.st164{fill:url(#SVGID_71_);}
	.st165{fill:url(#SVGID_72_);}
	.st166{fill:url(#SVGID_73_);}
	.st167{fill:url(#SVGID_74_);}
	.st168{fill:url(#SVGID_75_);}
	.st169{fill:#FCF1CD;}
	.st170{fill:url(#SVGID_76_);}
	.st171{fill:#AC6E21;}
	.st172{opacity:0.4;fill:#AC6E21;enable-background:new    ;}
	.st173{fill:#E9D288;}
	.st174{opacity:0.3;}
	.st175{fill:url(#SVGID_77_);}
	.st176{fill:url(#SVGID_78_);}
	.st177{opacity:0.3;fill:url(#SVGID_79_);enable-background:new    ;}
	.st178{fill:#150C07;}
	.st179{opacity:0.8;fill:#150C07;enable-background:new    ;}
</style>
<g>
	<g>
		
			<linearGradient id="SVGID_1_" gradientUnits="userSpaceOnUse" x1="3004.8291" y1="-1247.6392" x2="3086.0527" y2="-1247.6392" gradientTransform="matrix(-1 0 0 -1 3605.6123 -870.0905)">
			<stop  offset="0" style="stop-color:#EDCF95"/>
			<stop  offset="0.5331" style="stop-color:#EECC91"/>
			<stop  offset="0.7526" style="stop-color:#EFC88D"/>
			<stop  offset="1" style="stop-color:#EDB397"/>
		</linearGradient>
		<path class="st0" d="M519.3,354.8l7.6-17.6c0-0.3,0-1,0.3-1.4c0-0.3,0-0.3,0-0.3c0-0.3,0.3-0.7,0.3-1c0-0.3,0-0.3,0.3-0.7
			c0.3-0.3,0.3-0.7,0.3-1c0-0.3,0-0.3,0.3-0.3c0.3-0.7,0.3-1,0.7-1.7c0-0.3,0.3-0.3,0.3-0.3c0.3-0.3,0.3-0.7,0.7-1
			c0-0.3,0.3-0.3,0.3-0.7c0.3-0.3,0.3-0.7,0.7-1c0-0.3,0.3-0.3,0.3-0.7c2.8-5.5,6.9-10.4,9.7-13.8c0.3-0.3,0.3-0.3,0.3-0.3
			c15.2,19,32.2,45,45.7,77.8c0,0,12.5,11.8,12.5,28.4c0,16.6-12.8,22.1-19.7,20.4l0,0c-7.6,6.9-18.7,2.4-20.8-8.3v-0.3
			c-0.3,0.3-1,0.7-1.7,0.7c-4.5,2.4-10.7-0.7-12.8-4.8l0,0l0,0c0-0.3-0.3-0.3-0.3-0.7l0.3-0.3l-1.7-13.5h0.3v-3.5l0.7-2.4
			c-0.3-0.7-0.7-1.4-0.7-2.1l-0.7-1l-0.7-2.4v-0.7c-2.4-6.2-6.2-14.9-11.4-24.9c-3.1-6.6-6.9-13.5-10.7-20.1L519.3,354.8z"/>
	</g>
	<path class="st1" d="M567.8,412.2c0,0,2.4,18.3-8,24.2l-1.7-5.2C558.1,431.2,568.8,425.7,567.8,412.2z"/>
	<path class="st1" d="M585.4,418.1c0,0,4.8,12.1,1,20.8c0,0-3.1,1-8,0.7C578.8,439.9,587.1,435.7,585.4,418.1z"/>
	<path class="st2" d="M568.1,418.1c0,0,0.3,11.1-9,14.9l-0.3-1.7C558.4,431.2,568.1,422.6,568.1,418.1z"/>
	<path class="st2" d="M586.5,424.3c0,0,0.7,10-4.8,15.6l-3.5-0.3C578.2,439.9,585.4,432.6,586.5,424.3z"/>
	<path class="st3" d="M519.3,354.8l7.6-17.6c0-0.3,0-1,0.3-1.4c0-0.3,0-0.3,0-0.3c0-0.3,0.3-0.7,0.3-1c0-0.3,0-0.3,0.3-0.7
		c0.3-0.3,0.3-0.7,0.3-1c0-0.3,0-0.3,0.3-0.3c0.3-0.7,0.3-1,0.7-1.7c0-0.3,0.3-0.3,0.3-0.3c0.3-0.3,0.3-0.7,0.7-1
		c0-0.3,0.3-0.3,0.3-0.7c0.3-0.3,0.3-0.7,0.7-1c0-0.3,0.3-0.3,0.3-0.7c0,0,0-0.3,0.3-0.3c10.4,20.4,21.4,47.4,22.1,70.2
		c0,0-12.8,16.3-8.3,31.8c-0.3-0.3-0.7-1-0.7-1.7l0,0l0,0c0-0.3-0.3-0.3-0.3-0.7l0.3-0.3l-1.7-13.5h0.3v-3.5l0.7-3.1l-1.7-2.4
		l-1-2.4l-19-41.5c0,0-1-1-2.8-3.8L519.3,354.8z"/>
	<g>
		<path class="st2" d="M542.5,408.4l-0.7-1l0,0c-0.3-0.3-12.5-27.7-23.9-49.8l1-2.8l0,0c10.4,19.7,21.8,45,24.2,50.2
			c0.3-1,0.7-1.7,0.7-1.7l0,0c1-1.7,2.1-3.5,2.4-3.5c0.3-0.3,0.7-0.3,0.7,0c0.3,0.3,0.3,0.7,0,0.7c-0.3,0.3-0.7,0.7-0.7,1
			c0,0-6.6,10-3.1,24.6l0,0c0.7,2.1,2.8,3.8,5.2,4.8c2.4,1,4.8,1,6.9,0c8.3-3.8,12.5-12.8,10.7-21.4c0-0.3,0.3-0.7,0.3-0.7
			c0.3,0,0.7,0.3,0.7,0.3c1.7,8.3-2.1,17-9.3,21.4c1,5.2,4.5,9,8.6,10.4c4.2,1,8.6,0,11.8-3.5c8.6-8.6,5.2-21.4,5.2-21.4
			c0-0.3,0.3-0.7,0.3-0.7c0.3,0,0.7,0.3,0.7,0.3c0,0.3,3.5,13.8-5.5,22.8l0,0c2.8,0.3,6.9-0.7,10.7-3.5c3.1-2.4,6.9-7.6,6.9-16.6
			c0-16.3-12.1-27.7-12.1-28l-0.3-0.3c-13.5-32.9-30.8-58.8-45.7-77.5l0.3-0.3c1-1,2.1-2.1,2.4-3.1l0,0c4.8,6.2,10,13.1,15.2,21.1
			l0,0c0,0,24.6,36.7,30.1,57.4c6.9,8.6,19.4,28.7,7.3,43.9c-1,1.7-2.4,3.1-3.8,4.2c-0.3,0.3-1,0.7-1.7,1c-0.3,0-0.3,0.3-0.3,0.3
			l0,0c-2.8,1.7-5.9,2.4-8.6,2.4c-0.7,0-1.7,0-2.1-0.3c-2.4,2.1-5.5,3.1-8.6,3.1c-1,0-2.4-0.3-3.5-0.7c-4.8-1.4-8.3-5.5-9.7-11.1
			c-0.3,0.3-0.7,0.3-0.7,0.3c-1,0.7-2.4,0.7-3.8,0.7s-2.4-0.3-3.8-0.7c-2.4-1-4.5-3.1-5.5-5.2l0,0c0,0,0,0,0-0.3s-0.3-0.3-0.3-0.3
			l0,0c0,0-1-2.4-1.4-6.9c-0.3-1.7-0.3-3.5,0-5.5C541.8,412.2,542.2,410.1,542.5,408.4z"/>
	</g>
</g>
<g>
	<g>
		
			<linearGradient id="SVGID_2_" gradientUnits="userSpaceOnUse" x1="2782.1541" y1="-1247.6392" x2="2863.3777" y2="-1247.6392" gradientTransform="matrix(1 0 0 -1 -2487.7124 -870.0905)">
			<stop  offset="0" style="stop-color:#EDCF95"/>
			<stop  offset="0.5331" style="stop-color:#EECC91"/>
			<stop  offset="0.7526" style="stop-color:#EFC88D"/>
			<stop  offset="1" style="stop-color:#EDB397"/>
		</linearGradient>
		<path class="st5" d="M375.2,354.8c-3.8,6.6-7.6,13.5-10.7,20.1c-5.2,10-9,18.7-11.4,24.9v0.7l-0.7,2.4l-0.7,1
			c0,0.7-0.3,1.4-0.7,2.1l0.7,2.4v3.5h0.3l-1.7,13.5l0.3,0.3c0,0.3-0.3,0.3-0.3,0.7l0,0l0,0c-2.1,4.2-8.3,7.3-12.8,4.8
			c-0.7,0-1.4-0.3-1.7-0.7v0.3c-2.1,10.7-13.1,15.2-20.8,8.3l0,0c-6.9,1.7-19.7-3.8-19.7-20.4c0-16.6,12.5-28.4,12.5-28.4
			c13.5-32.9,30.4-58.8,45.7-77.8c0,0,0,0,0.3,0.3c2.8,3.5,6.9,8.3,9.7,13.8c0,0.3,0.3,0.3,0.3,0.7c0.3,0.3,0.3,0.7,0.7,1
			c0,0.3,0.3,0.3,0.3,0.7c0.3,0.3,0.3,0.7,0.7,1c0,0,0.3,0,0.3,0.3c0.3,0.7,0.3,1,0.7,1.7c0.3,0,0.3,0,0.3,0.3c0,0.3,0,0.7,0.3,1
			c0.3,0.3,0.3,0.3,0.3,0.7c0,0.3,0.3,0.7,0.3,1c0,0,0,0,0,0.3c0.3,0.3,0.3,1,0.3,1.4l7.6,17.6L375.2,354.8z"/>
	</g>
	<path class="st1" d="M337.1,431.2l-1.7,5.2c-10.4-5.9-8-24.2-8-24.2C326.4,425.7,337.1,431.2,337.1,431.2z"/>
	<path class="st1" d="M316.7,439.6c-4.8,0.3-8-0.7-8-0.7c-3.8-8.6,1-20.8,1-20.8C308.1,435.7,316.4,439.9,316.7,439.6z"/>
	<path class="st2" d="M336.4,431.2l-0.3,1.7c-9.3-3.8-9-14.9-9-14.9C327.1,422.6,336.8,431.2,336.4,431.2z"/>
	<path class="st2" d="M317.1,439.6l-3.5,0.3c-5.5-5.5-4.8-15.6-4.8-15.6C309.8,432.6,317.1,439.9,317.1,439.6z"/>
	<path class="st3" d="M375.2,355.5c-1.7,2.8-2.8,3.8-2.8,3.8l-19,41.5l-1,2.4l-1.7,2.4l0.7,3.1v3.5h0.3l-1.7,13.5l0.3,0.3
		c0,0.3-0.3,0.3-0.3,0.7l0,0l0,0c0,0.7-0.3,1.4-0.7,1.7c4.5-15.6-8.3-31.8-8.3-31.8c0.7-22.8,11.8-49.8,22.1-70.2
		c0.3,0,0.3,0.3,0.3,0.3c0,0.3,0.3,0.3,0.3,0.7c0.3,0.3,0.3,0.7,0.7,1c0,0.3,0.3,0.3,0.3,0.7c0.3,0.3,0.3,0.7,0.7,1
		c0,0,0.3,0,0.3,0.3c0.3,0.7,0.3,1,0.7,1.7c0.3,0,0.3,0,0.3,0.3c0,0.3,0,0.7,0.3,1c0.3,0.3,0.3,0.3,0.3,0.7c0,0.3,0.3,0.7,0.3,1
		c0,0,0,0,0,0.3c0.3,0.3,0.3,1,0.3,1.4l7.6,17.6L375.2,355.5z"/>
	<g>
		<path class="st2" d="M355.5,412.6c0.3,2.1,0.3,3.8,0,5.5c-0.3,4.5-1.4,6.9-1.4,6.9l0,0c0,0-0.3,0-0.3,0.3s0,0.3,0,0.3l0,0
			c-1,2.1-3.1,4.2-5.5,5.2c-1.4,0.3-2.4,0.7-3.8,0.7c-1.4,0-2.8,0-3.8-0.7c0,0-0.3,0-0.7-0.3c-1.4,5.5-4.8,9.7-9.7,11.1
			c-1,0.3-2.4,0.7-3.5,0.7c-3.1,0-6.2-1-8.6-3.1c-0.3,0.3-1.4,0.3-2.1,0.3c-2.8,0-5.9-0.7-8.6-2.4l0,0c0,0,0-0.3-0.3-0.3
			c-0.7-0.3-1.4-0.7-1.7-1c-1.4-1-2.8-2.4-3.8-4.2c-12.1-15.2,0.3-35.3,7.3-43.9c5.5-20.8,30.1-57.4,30.1-57.4l0,0
			c5.2-8,10.4-14.9,15.2-21.1l0,0c0.3,1,1.4,2.1,2.4,3.1l0.3,0.3c-14.9,18.7-32.2,44.6-45.7,77.5l-0.3,0.3c0,0.3-12.1,11.8-12.1,28
			c0,9,3.8,14.2,6.9,16.6c3.8,2.8,8,3.8,10.7,3.5l0,0c-9-9-5.5-22.5-5.5-22.8c0,0,0.3-0.3,0.7-0.3c0,0,0.3,0.3,0.3,0.7
			c0,0-3.5,12.8,5.2,21.4c3.1,3.5,7.6,4.5,11.8,3.5c4.2-1.4,7.6-5.2,8.6-10.4c-7.3-4.5-11.1-13.1-9.3-21.4c0,0,0.3-0.3,0.7-0.3
			c0,0,0.3,0.3,0.3,0.7c-1.7,8.6,2.4,17.6,10.7,21.4c2.1,1,4.5,1,6.9,0c2.4-1,4.5-2.8,5.2-4.8l0,0c3.5-14.5-3.1-24.6-3.1-24.6
			c0-0.3-0.3-0.7-0.7-1c-0.3,0-0.3-0.3,0-0.7c0-0.3,0.3-0.3,0.7,0c0.3,0,1.4,1.7,2.4,3.5l0,0c0,0,0.3,0.7,0.7,1.7
			c2.4-5.2,13.8-30.4,24.2-50.2l0,0l1,2.8c-11.4,22.1-23.5,49.5-23.9,49.8l0,0l-0.7,1C353.1,410.1,353.4,412.2,355.5,412.6z"/>
	</g>
</g>
<g>
	<path class="st64" d="M522.2,71.5c-0.4,0-16.8-3.6-34.7-2.9c-16.8,0.7-26.1,2.1-27.2,8.2c-0.4,3.2-0.7,11.8,0.4,20
		c-1.8-0.7-7.5-2.5-13.6-2.5s-11.8,1.8-13.9,2.5c1.1-8.2,0.7-16.8,0.4-20c-1.1-6.4-10.4-7.9-27.2-8.2c-17.9-0.7-34.3,2.9-34.7,2.9
		c-4.6,0.7-5.4,5-5,7.1l0,0l0,0c0,0.4,0.4,2.5,3.2,18.2c3.6,20,16.4,22.5,28.2,23.2c1.4,0,2.5,0,3.9,0c11.1,0,20.7-3.2,25.7-8.2
		c2.1-2.1,3.2-6.4,4.3-11.4c0.4,0,6.8-2.5,14.3-2.5s14.3,2.5,14.3,2.5c0.7,5,2.1,9.3,4.3,11.4c5,5,15,8.2,25.7,8.2
		c1.4,0,2.5,0,3.9,0c11.8-0.7,24.7-3.2,28.2-23.2c2.9-15.7,3.2-17.9,3.2-18.2l0,0l0,0C527.2,76.5,526.5,72.2,522.2,71.5z
		 M427.5,111.5c-5.4,5.4-16.4,8.6-28.6,7.9c-11.8-0.7-23.6-3.2-27.2-22.2c-1.4-8.6-2.5-13.2-2.9-15.7c-0.4-1.4-0.4-2.1-0.7-2.9l0,0
		c0-0.4-0.7-5,3.9-5.7l0,0c0,0,16.4-3.6,34.3-2.9c18.2,0.7,25,2.5,25.7,7.1C432.8,82.2,432.8,105.8,427.5,111.5z M525.7,78.6
		L525.7,78.6c0,0.7-0.4,1.4-0.4,2.5c-0.4,2.5-1.4,7.1-2.9,15.7c-3.6,19.3-15.4,21.4-27.2,22.2c-12.1,0.7-23.2-2.1-28.6-7.9
		c-5.4-5.4-5.7-28.9-4.6-34.3c0.7-4.6,7.5-6.4,25.7-7.1c1.4,0,2.9,0,3.9,0c16.1,0,30,2.9,30.4,2.9l0,0
		C526.1,73.6,525.7,78.3,525.7,78.6z"/>
	<path class="st178" d="M522.2,70.1c-0.4,0-16.8-3.6-34.7-2.9c-16.8,0.7-26.1,2.1-27.2,8.2c-0.4,3.2-0.7,11.8,0.4,20
		c-1.8-0.7-7.5-2.5-13.6-2.5s-11.8,1.8-13.9,2.5c1.1-8.2,0.7-16.8,0.4-20c-1.1-6.4-10.4-7.9-27.2-8.2c-17.9-0.7-34.3,2.9-34.7,2.9
		c-4.6,0.7-5.4,5-5,7.1l0,0l0,0c0,0.4,0.4,2.5,3.2,18.2c3.6,20,16.4,22.5,28.2,23.2c1.4,0,2.5,0,3.9,0c11.1,0,20.7-3.2,25.7-8.2
		c2.1-2.1,3.2-6.4,4.3-11.4c0.4,0,6.8-2.5,14.3-2.5s14.3,2.5,14.3,2.5c0.7,5,2.1,9.3,4.3,11.4c5,5,15,8.2,25.7,8.2
		c1.4,0,2.5,0,3.9,0c11.8-0.7,24.7-3.2,28.2-23.2c2.9-15.7,3.2-17.9,3.2-18.2l0,0l0,0C527.2,75.4,526.5,71.1,522.2,70.1z
		 M427.5,110.1c-5.4,5.4-16.4,8.6-28.6,7.9c-11.8-0.7-23.6-3.2-27.2-22.2c-1.4-8.6-2.5-13.2-2.9-15.7c-0.4-1.1-0.4-1.8-0.4-2.5l0,0
		c0-0.4-0.7-5,3.9-5.7l0,0c0,0,16.4-3.6,34.3-2.9c18.2,0.7,25,2.5,25.7,7.1C432.8,81.1,432.8,104.4,427.5,110.1z M525.7,77.2
		C525.7,77.2,525.7,77.6,525.7,77.2c0,0.7-0.4,1.4-0.4,2.5c-0.4,2.5-1.4,7.1-2.9,15.7c-3.6,19.3-15.4,21.4-27.2,22.2
		c-12.1,0.7-23.2-2.1-28.6-7.9c-5.4-5.4-5.7-28.9-4.6-34.3c0.7-4.6,7.5-6.4,25.7-7.1c1.4,0,2.9,0,3.9,0c16.1,0,30,2.9,30.4,2.9l0,0
		C526.1,72.2,525.7,77.2,525.7,77.2z"/>
	<path class="st179" d="M427.5,110.1c-5.4,5.4-16.4,8.6-28.6,7.9c-11.8-0.7-23.6-3.2-27.2-22.2c-1.4-8.6-2.5-13.2-2.9-15.7
		c-0.4-1.1-0.4-1.8-0.4-2.5l0,0c0-0.4-0.7-5,3.9-5.7l0,0c0,0,16.4-3.6,34.3-2.9c18.2,0.7,25,2.5,25.7,7.1
		C432.8,81.1,432.8,104.4,427.5,110.1z"/>
	<path class="st179" d="M525.7,77.2C525.7,77.2,525.7,77.6,525.7,77.2c0,0.7-0.4,1.4-0.4,2.5c-0.4,2.5-1.4,7.1-2.9,15.7
		c-3.6,19.3-15.4,21.4-27.2,22.2c-12.1,0.7-23.2-2.1-28.6-7.9c-5.4-5.4-5.7-28.9-4.6-34.3c0.7-4.6,7.5-6.4,25.7-7.1
		c1.4,0,2.9,0,3.9,0c16.1,0,30,2.9,30.4,2.9l0,0C526.1,72.2,525.7,77.2,525.7,77.2z"/>
	<g class="st57">
		<g>
			<path class="st23" d="M374.9,75.8c-0.4,11.4,2.1,22.5,7.1,32.9c1.1,2.5,5,0.4,3.9-2.1c-4.6-9.6-6.8-19.7-6.4-30.4
				C379.2,72.9,374.9,72.9,374.9,75.8L374.9,75.8z"/>
		</g>
	</g>
	<g class="st57">
		<g>
			<path class="st23" d="M389.6,114.4c2.9,0,2.9-4.3,0-4.3C386.7,110.1,386.7,114.4,389.6,114.4L389.6,114.4z"/>
		</g>
	</g>
	<g class="st57">
		<g>
			<path class="st23" d="M466.4,76.1c-1.8,11.4-0.4,22.5,4.6,32.9c1.1,2.5,5,0.4,3.9-2.1c-4.3-9.3-5.7-19.3-3.9-29.3
				C471.1,74.4,466.8,73.3,466.4,76.1L466.4,76.1z"/>
		</g>
	</g>
	<g class="st57">
		<g>
			<path class="st23" d="M478.6,113.7c2.9,0,2.9-4.3,0-4.3C475.4,109.4,475.4,113.7,478.6,113.7L478.6,113.7z"/>
		</g>
	</g>
</g>
</svg>
