<?xml version="1.0" encoding="utf-8"?>
<!-- Generator: Adobe Illustrator 21.0.0, SVG Export Plug-In . SVG Version: 6.00 Build 0)  -->
<svg version="1.1" id="圖層_1" xmlns="http://www.w3.org/2000/svg" xmlns:xlink="http://www.w3.org/1999/xlink" x="0px" y="0px"
	 viewBox="0 0 822.9 601.4" style="enable-background:new 0 0 822.9 601.4;" xml:space="preserve">
<style type="text/css">
	.st0{fill:url(#SVGID_1_);}
	.st1{fill:#E1BE3F;}
	.st2{fill:#AB6C21;}
	.st3{opacity:0.6;fill:#E1BE3F;enable-background:new    ;}
	.st4{fill:url(#SVGID_2_);}
	.st5{fill:url(#SVGID_3_);}
	.st6{opacity:0.5;fill:#5E4328;}
	.st7{fill:#CCA46B;}
	.st8{fill:#332212;}
	.st9{fill:url(#SVGID_4_);}
	.st10{fill:#8A6231;}
	.st11{fill:url(#SVGID_5_);}
	.st12{opacity:0.5;}
	.st13{fill:url(#SVGID_6_);}
	.st14{fill:url(#SVGID_7_);}
	.st15{opacity:0.5;fill:url(#SVGID_8_);}
	.st16{opacity:0.5;fill:url(#SVGID_9_);}
	.st17{opacity:0.5;fill:url(#SVGID_10_);}
	.st18{opacity:0.5;fill:url(#SVGID_11_);}
	.st19{opacity:0.5;fill:url(#SVGID_12_);}
	.st20{opacity:0.5;fill:url(#SVGID_13_);}
	.st21{fill:none;stroke:#8A6231;stroke-width:0.5;stroke-linecap:round;stroke-linejoin:round;stroke-miterlimit:10;}
	.st22{fill:#5E703F;}
	.st23{fill:#415027;}
	.st24{fill:url(#SVGID_14_);}
	.st25{clip-path:url(#SVGID_16_);fill:#B47058;}
	.st26{clip-path:url(#SVGID_16_);}
	.st27{fill:#6C9AB4;stroke:#FFFFFF;stroke-miterlimit:10;}
	.st28{clip-path:url(#SVGID_16_);fill:none;stroke:#FFFFFF;stroke-miterlimit:10;}
	.st29{fill:none;stroke:#FFFFFF;stroke-linecap:round;stroke-linejoin:round;}
	.st30{fill:none;stroke:#FFFFFF;stroke-linecap:round;stroke-linejoin:round;stroke-dasharray:10.0307,10.0307;}
	.st31{fill:none;stroke:#FFFFFF;stroke-linecap:round;stroke-linejoin:round;stroke-dasharray:11.7081,11.7081;}
	.st32{opacity:0.4;}
	.st33{fill:url(#SVGID_17_);}
	.st34{fill:url(#SVGID_18_);}
	.st35{opacity:0.4;fill:url(#SVGID_19_);}
	.st36{opacity:0.4;fill:#5E703F;}
	.st37{opacity:0.3;fill:url(#SVGID_20_);}
	.st38{opacity:0.3;fill:url(#SVGID_21_);}
	.st39{opacity:0.5;fill:#D0E1A0;}
</style>
<g>
	<g>
		<g>
			<linearGradient id="SVGID_1_" gradientUnits="userSpaceOnUse" x1="348.429" y1="553.6906" x2="444.8971" y2="553.6906">
				<stop  offset="0" style="stop-color:#7F5B37"/>
				<stop  offset="1" style="stop-color:#5E4328"/>
			</linearGradient>
			<path class="st0" d="M444.4,558.2c-0.1-0.2-0.2-0.4-0.4-0.4c0.3-6.7,0.9-21.7,0-29.5l0.1-3.5c0-0.2-0.1-0.5-0.3-0.6
				c-0.2-0.1-0.4-0.2-0.7-0.1c-2.2,0.5-32.7,1.4-40,1.2c-1.2-2.2-3.6-2.4-3.7-2.4c0,0-3.5-0.1-8.2-0.4c-4.7-0.3-6.7,1.5-7,1.8
				c-4.9-0.3-13.5-0.9-15.2-1l0,0c-0.1,0-0.2,0-0.3,0c-1,0.1-1.6,0.8-1.6,0.8c-2.5,2.2-4.9,4.6-7.1,7c-4.6,5-9.5,10.2-11,17.1
				c-2.2,9.4,2.7,21.8,3.5,23.9c-0.3,0.9-1,3.3,0.1,6.7c0.1,0.2,0.3,0.4,0.5,0.5c0.2,0.1,20,5.9,44.5,5.9c2.3,0,4.7-0.1,7.1-0.2
				c29.4-1.4,37.5-10.8,39.6-14.8c0-0.1,0.1-0.2,0.1-0.3C444.5,569.5,445.5,561.3,444.4,558.2z"/>
			<path class="st6" d="M444,557.8c0.3-6.7,0.9-21.7,0-29.5l0.1-3.5c0-0.2-0.1-0.5-0.3-0.6c-0.2-0.1-0.4-0.2-0.7-0.1
				c-0.1,0-0.3,0.1-0.6,0.1l-0.2,1.7l-0.8-0.7c0,0,3.2,36.6-28.6,52.4l12.3,4.5c13.1-3.5,17.6-9,19.1-11.9c0-0.1,0.1-0.2,0.1-0.3
				c0-0.3,1.1-8.5,0-11.6C444.3,558,444.1,557.9,444,557.8z"/>
			<path class="st6" d="M443.1,527.3l0.2-3.3c0,0-0.1,0-0.1,0c-2.2,0.5-32.7,1.4-40,1.2c-1.2-2.2-3.6-2.4-3.7-2.4
				c0,0-3.5-0.1-8.2-0.4c-4.7-0.3-6.7,1.5-7,1.8c-4.9-0.3-13.5-0.9-15.2-1l0,0c-0.1,0-0.2,0-0.3,0h0c0,0,0,0,0,0
				c-0.7,0-1.2,0.4-1.4,0.7l0.1,0C367.4,523.9,379.3,532.2,443.1,527.3z"/>
			<path class="st7" d="M357.3,535.7c-3.5,3.4-7.5,11.7-8.6,16.1c-1.5,6.6,3.4,15.5,5,20.2l10.4,2.3
				C353.1,564.7,353,544.1,357.3,535.7z"/>
			<path class="st7" d="M356.5,558.5c0,0-2.5-5,2.7-4.4s4.3,1.1,4,3c-0.3,1.9-2.1,4.7-3.2,4.4C358.9,561.2,356.5,558.5,356.5,558.5z
				"/>
			<path class="st7" d="M365.1,557.1c0,0,7.1,3.4,34.3,3.6c0,0-18.9,3.5-35.1-0.1L365.1,557.1z"/>
			<path class="st6" d="M364.1,574.3c-11.3-5-14.2-21.3-14.2-21.3l-1.2,1l-0.3,0.4c0.2,7.9,3.4,16,4.1,17.6c-0.3,0.9-1,3.3,0.1,6.7
				c0.1,0.2,0.3,0.4,0.5,0.5c0.1,0,4.1,1.2,10.7,2.5L364.1,574.3z"/>
			<path class="st7" d="M433.9,568.9c-0.1,0-0.1-0.1-0.1-0.1c0-0.1-1.5-12.8-7.8-18.7c-7-6.7-15.9-13.3-39.2-14.1
				c-24-0.8-34.6,8.5-34.7,8.6c-0.1,0.1-0.2,0-0.2,0c-0.1-0.1-0.1-0.2,0-0.2c0.1-0.1,10.8-9.5,34.9-8.7c23.4,0.8,32.3,7.4,39.4,14.2
				c6.3,6,7.9,18.8,7.9,18.9C434.1,568.8,434,568.9,433.9,568.9C433.9,568.9,433.9,568.9,433.9,568.9z"/>
			<path class="st7" d="M398.1,527.5c0,0-1.9,6.7,0.5,8.2L395,535L398.1,527.5z"/>
			<path class="st7" d="M388.3,526.8l-2.8,7.9H382C382,534.7,387.7,529.5,388.3,526.8z"/>
			<polygon class="st6" points="389.2,525.6 398.5,526.5 395,535 385.4,534.7 			"/>
			<path class="st8" d="M397.6,585c-24.5,0-44.3-5.8-44.5-5.9c-0.2-0.1-0.4-0.3-0.5-0.5c-1.3-4.2,0-6.9,0-7c0.2-0.4,0.6-0.5,1-0.3
				c0.4,0.2,0.5,0.6,0.3,1c0,0-1,2.2-0.1,5.5c3.2,0.9,25.2,6.8,50.7,5.6c28.3-1.4,36.2-10,38.3-13.9c0.3-2.4,0.8-8.5,0-10.8
				c-0.1-0.4,0.1-0.8,0.4-1c0.4-0.1,0.8,0.1,1,0.4c1.1,3.1,0.1,11.3,0,11.6c0,0.1,0,0.2-0.1,0.3c-2.1,4-10.3,13.4-39.6,14.8
				C402.3,585,399.9,585,397.6,585z"/>
			<path class="st8" d="M385.6,535c-0.1,0-0.2,0-0.3-0.1c-0.4-0.2-0.5-0.6-0.3-1c0.7-1.3,2.5-5,2.6-6.4c0.1-1.1-0.5-1.5-0.8-1.6
				c-3.8-0.1-17.5-1.1-18.1-1.2c-0.4,0-0.7-0.4-0.7-0.8c0-0.4,0.4-0.7,0.8-0.7c0.1,0,14.7,1.1,18.2,1.2c0.1,0,0.2,0,0.2,0
				c0.7,0.3,2,1.3,1.8,3.2c-0.1,2-2.5,6.5-2.7,7C386.1,534.9,385.8,535,385.6,535z"/>
			<path class="st8" d="M395,535.5c-0.1,0-0.2,0-0.3-0.1c-0.4-0.2-0.6-0.6-0.4-1l2.9-7.1c0-0.1,0.9-2.3,5.1-2.1
				c5.2,0.2,38.6-0.6,40.9-1.2c0.2-0.1,0.5,0,0.7,0.1c0.2,0.1,0.3,0.4,0.3,0.6l-0.1,3.9c0,0.4-0.3,0.7-0.8,0.7
				c-0.4,0-0.7-0.4-0.7-0.8l0.1-3c-6.2,0.6-36.2,1.3-40.4,1.1c-3-0.1-3.6,1.1-3.6,1.2l-2.9,7.1C395.6,535.3,395.3,535.5,395,535.5z"
				/>
			<path class="st8" d="M435.7,569.9c-0.2,0-0.5-0.2-0.5-0.4c-1.6-13.2-7-29-34.8-33.1c-33.9-5-47.6,6.5-47.8,6.6
				c-0.2,0.2-0.5,0.2-0.7,0c-0.2-0.2-0.2-0.5,0-0.7c0.6-0.5,14.2-12,48.6-6.8c28.5,4.2,34,20.4,35.6,34
				C436.2,569.6,436,569.9,435.7,569.9C435.7,569.9,435.7,569.9,435.7,569.9z"/>
			<path class="st8" d="M443.8,526.7c-0.1-0.4-0.4-0.7-0.9-0.6l-0.4,2.9c0.9,9.8-0.2,30.2-0.3,32c-2.3,5.7-10.9,10.9-10.9,10.9
				c-28,12.8-73.1,0.8-77.5-0.5c-0.9-2.1-5.5-14.2-3.4-22.9c2.1-9.2,16.3-22,17.6-23.2c0.4-0.2,0.8-0.3,1.2-0.4l0.3-1l-2.1,0.1
				c-0.1,0-0.2,0.1-0.2,0.1c-0.6,0.6-15.8,14.1-18.2,24.1c-2.3,10,3.4,23.6,3.6,24.2c0.1,0.2,0.3,0.4,0.5,0.4
				c0.3,0.1,22.4,6.4,45.9,6.4c11.5,0,23.3-1.5,33.1-6c0.4-0.2,9.3-5.5,11.6-11.8c0-0.1,0-0.1,0-0.2
				C443.8,560.1,445.2,535.7,443.8,526.7z"/>
			<path class="st8" d="M367.1,524c0,0,0.6-0.9,1.8-0.9l1.2,0.9l-0.2,0.7c0,0-1.3,0-2.6,1l0-1L367.1,524z"/>
			<path class="st8" d="M402.7,526.7c-0.3,0-0.6-0.2-0.7-0.5c-0.8-1.8-2.6-2-2.6-2l0,0c0,0-3.5-0.1-8.2-0.4
				c-4.3-0.3-5.8,1.3-5.8,1.4c-0.3,0.3-0.7,0.3-1.1,0.1c-0.3-0.3-0.3-0.7-0.1-1c0.1-0.1,2-2.2,7.1-1.9c4.7,0.3,8.2,0.4,8.2,0.4
				c0.1,0,2.8,0.2,3.9,2.9c0.2,0.4,0,0.8-0.4,1C402.9,526.7,402.8,526.7,402.7,526.7z"/>
			<path class="st8" d="M404.5,535.7c-0.1,0-0.3,0-0.4-0.1c-6.4-3-22.6-6.1-22.8-6.1c-0.5-0.1-0.9-0.6-0.8-1.2
				c0.1-0.5,0.6-0.9,1.2-0.8c0.7,0.1,16.6,3.2,23.2,6.2c0.5,0.2,0.7,0.8,0.5,1.3C405.2,535.5,404.8,535.7,404.5,535.7z"/>
			<path class="st8" d="M380.1,533.5c-0.5,0-0.9-0.3-1-0.8c-0.1-0.5,0.2-1.1,0.8-1.2c0.6-0.1,15.2-3.2,24.5-3.5c0,0,0,0,0,0
				c0.5,0,1,0.4,1,1c0,0.6-0.4,1-1,1c-9.1,0.3-24,3.4-24.2,3.4C380.3,533.5,380.2,533.5,380.1,533.5z"/>
		</g>
		<g>
			
				<linearGradient id="SVGID_2_" gradientUnits="userSpaceOnUse" x1="1866.9939" y1="553.6906" x2="1963.462" y2="553.6906" gradientTransform="matrix(-1 0 0 1 2409.1021 0)">
				<stop  offset="0" style="stop-color:#7F5B37"/>
				<stop  offset="1" style="stop-color:#5E4328"/>
			</linearGradient>
			<path class="st4" d="M446.1,569.8c0,0.1,0,0.2,0.1,0.3c2.1,4,10.3,13.4,39.6,14.8c2.4,0.1,4.8,0.2,7.1,0.2
				c24.5,0,44.3-5.8,44.5-5.9c0.2-0.1,0.4-0.3,0.5-0.5c1.1-3.4,0.4-5.8,0.1-6.7c0.9-2.1,5.7-14.5,3.5-23.9
				c-1.6-6.8-6.4-12.1-11-17.1c-2.3-2.4-4.6-4.8-7.1-7c0,0-0.5-0.8-1.6-0.8c-0.1,0-0.2,0-0.3,0l0,0c-1.7,0.1-10.3,0.7-15.2,1
				c-0.3-0.4-2.3-2.1-7-1.8c-4.7,0.3-8.2,0.4-8.2,0.4c-0.1,0-2.5,0.2-3.7,2.4c-7.3,0.1-37.9-0.7-40-1.2c-0.2-0.1-0.5,0-0.7,0.1
				c-0.2,0.1-0.3,0.4-0.3,0.6l0.1,3.5c-0.8,7.8-0.3,22.8,0,29.5c-0.2,0.1-0.3,0.2-0.4,0.4C445,561.3,446.1,569.5,446.1,569.8z"/>
			<path class="st6" d="M446.6,557.8c-0.3-6.7-0.9-21.7,0-29.5l-0.1-3.5c0-0.2,0.1-0.5,0.3-0.6c0.2-0.1,0.4-0.2,0.7-0.1
				c0.1,0,0.3,0.1,0.6,0.1l0.2,1.7l0.8-0.7c0,0-3.2,36.6,28.6,52.4l-12.3,4.5c-13.1-3.5-17.6-9-19.1-11.9c0-0.1-0.1-0.2-0.1-0.3
				c0-0.3-1.1-8.5,0-11.6C446.2,558,446.4,557.9,446.6,557.8z"/>
			<path class="st6" d="M447.4,527.3l-0.2-3.3c0,0,0.1,0,0.1,0c2.2,0.5,32.7,1.4,40,1.2c1.2-2.2,3.6-2.4,3.7-2.4
				c0,0,3.5-0.1,8.2-0.4c4.7-0.3,6.7,1.5,7,1.8c4.9-0.3,13.5-0.9,15.2-1l0,0c0.1,0,0.2,0,0.3,0h0c0,0,0,0,0,0c0.7,0,1.2,0.4,1.4,0.7
				l-0.1,0C523.2,523.9,511.2,532.2,447.4,527.3z"/>
			<path class="st7" d="M533.2,535.7c3.5,3.4,7.5,11.7,8.6,16.1c1.5,6.6-3.4,15.5-5,20.2l-10.4,2.3
				C537.5,564.7,537.5,544.1,533.2,535.7z"/>
			<path class="st7" d="M534,558.5c0,0,2.5-5-2.7-4.4c-5.2,0.6-4.3,1.1-4,3c0.3,1.9,2.1,4.7,3.2,4.4
				C531.6,561.2,534,558.5,534,558.5z"/>
			<path class="st7" d="M525.5,557.1c0,0-7.1,3.4-34.3,3.6c0,0,18.9,3.5,35.1-0.1L525.5,557.1z"/>
			<path class="st6" d="M526.4,574.3c11.3-5,14.2-21.3,14.2-21.3l1.2,1l0.3,0.4c-0.2,7.9-3.4,16-4.1,17.6c0.3,0.9,1,3.3-0.1,6.7
				c-0.1,0.2-0.3,0.4-0.5,0.5c-0.1,0-4.1,1.2-10.7,2.5L526.4,574.3z"/>
			<path class="st7" d="M456.6,568.9C456.6,568.9,456.6,568.9,456.6,568.9c-0.1,0-0.2-0.1-0.1-0.2c0-0.1,1.6-12.9,7.9-18.9
				c7.1-6.7,16-13.4,39.4-14.2c24.1-0.8,34.8,8.6,34.9,8.7c0.1,0.1,0.1,0.2,0,0.2c-0.1,0.1-0.2,0.1-0.2,0c-0.1-0.1-9.9-8.6-31.8-8.6
				c-0.9,0-1.9,0-2.9,0c-23.3,0.8-32.1,7.4-39.2,14.1c-6.3,6-7.8,18.6-7.8,18.7C456.8,568.8,456.7,568.9,456.6,568.9z"/>
			<path class="st7" d="M492.5,527.5c0,0,1.9,6.7-0.5,8.2l3.6-0.7L492.5,527.5z"/>
			<path class="st7" d="M502.3,526.8l2.8,7.9h3.5C508.6,534.7,502.8,529.5,502.3,526.8z"/>
			<polygon class="st6" points="501.4,525.6 492.1,526.5 495.5,535 505.1,534.7 			"/>
			<path class="st8" d="M492.9,585c24.5,0,44.3-5.8,44.5-5.9c0.2-0.1,0.4-0.3,0.5-0.5c1.3-4.2,0-6.9,0-7c-0.2-0.4-0.6-0.5-1-0.3
				c-0.4,0.2-0.5,0.6-0.3,1c0,0,1,2.2,0.1,5.5c-3.2,0.9-25.2,6.8-50.7,5.6c-28.3-1.4-36.2-10-38.3-13.9c-0.3-2.4-0.8-8.5,0-10.8
				c0.1-0.4-0.1-0.8-0.4-1c-0.4-0.1-0.8,0.1-1,0.4c-1.1,3.1-0.1,11.3,0,11.6c0,0.1,0,0.2,0.1,0.3c2.1,4,10.3,13.4,39.6,14.8
				C488.2,585,490.6,585,492.9,585z"/>
			<path class="st8" d="M505,535c-0.3,0-0.5-0.1-0.7-0.4c-0.3-0.5-2.6-5-2.7-7c-0.1-1.9,1.1-2.9,1.8-3.2c0.1,0,0.2,0,0.2,0
				c3.5-0.1,18.1-1.2,18.2-1.2c0.4,0,0.8,0.3,0.8,0.7c0,0.4-0.3,0.8-0.7,0.8c-0.6,0-14.4,1-18.1,1.2c-0.2,0.1-0.9,0.6-0.8,1.6
				c0.1,1.4,1.9,5.1,2.6,6.4c0.2,0.4,0,0.8-0.3,1C505.2,535,505.1,535,505,535z"/>
			<path class="st8" d="M495.5,535.5c-0.3,0-0.6-0.2-0.7-0.5l-2.9-7.1c0-0.1-0.6-1.3-3.6-1.2c-4.2,0.2-34.1-0.5-40.4-1.1l0.1,3
				c0,0.4-0.3,0.8-0.7,0.8c-0.4,0-0.8-0.3-0.8-0.7l-0.1-3.9c0-0.2,0.1-0.5,0.3-0.6c0.2-0.1,0.4-0.2,0.7-0.1
				c2.3,0.6,35.7,1.4,40.9,1.2c4.2-0.2,5,2.1,5.1,2.2l2.9,7.1c0.2,0.4,0,0.8-0.4,1C495.7,535.5,495.6,535.5,495.5,535.5z"/>
			<path class="st8" d="M454.9,569.9C454.8,569.9,454.8,569.9,454.9,569.9c-0.3,0-0.5-0.3-0.5-0.6c1.6-13.6,7.2-29.8,35.6-34
				c34.3-5.1,48,6.4,48.6,6.8c0.2,0.2,0.2,0.5,0,0.7c-0.2,0.2-0.5,0.2-0.7,0.1c-0.1-0.1-13.9-11.6-47.8-6.6
				c-27.8,4.1-33.2,19.9-34.8,33.1C455.3,569.7,455.1,569.9,454.9,569.9z"/>
			<path class="st8" d="M446.8,526.7c0.1-0.4,0.4-0.7,0.9-0.6l0.4,2.9c-0.9,9.8,0.2,30.2,0.3,32c2.3,5.7,10.9,10.9,10.9,10.9
				c28,12.8,73.1,0.8,77.5-0.5c0.9-2.1,5.5-14.2,3.4-22.9c-2.1-9.2-16.3-22-17.6-23.2c-0.4-0.2-0.8-0.3-1.2-0.4l-0.3-1l2.1,0.1
				c0.1,0,0.2,0.1,0.2,0.1c0.6,0.6,15.8,14.1,18.2,24.1c2.3,10-3.4,23.6-3.6,24.2c-0.1,0.2-0.3,0.4-0.5,0.4
				c-0.3,0.1-22.4,6.4-45.9,6.4c-11.5,0-23.3-1.5-33.1-6c-0.4-0.2-9.3-5.5-11.6-11.8c0-0.1,0-0.1,0-0.2
				C446.7,560.1,445.3,535.7,446.8,526.7z"/>
			<path class="st8" d="M523.4,524c0,0-0.6-0.9-1.8-0.9l-1.2,0.9l0.2,0.7c0,0,1.3,0,2.6,1l0-1L523.4,524z"/>
			<path class="st8" d="M487.9,526.7c-0.1,0-0.2,0-0.3-0.1c-0.4-0.2-0.6-0.6-0.4-1c1.1-2.7,3.8-2.9,3.9-2.9c0.1,0,3.5-0.1,8.2-0.4
				c5.1-0.4,7,1.8,7.1,1.9c0.3,0.3,0.2,0.8-0.1,1.1c-0.3,0.3-0.8,0.2-1.1-0.1c0,0-1.6-1.7-5.8-1.4c-4.7,0.3-8.2,0.4-8.3,0.4
				c0,0-1.8,0.2-2.6,2C488.4,526.6,488.2,526.7,487.9,526.7z"/>
			<path class="st8" d="M486.1,535.7c-0.4,0-0.7-0.2-0.9-0.6c-0.2-0.5,0-1.1,0.5-1.3c6.6-3.1,22.6-6.1,23.2-6.2
				c0.5-0.1,1.1,0.3,1.2,0.8c0.1,0.5-0.3,1.1-0.8,1.2c-0.2,0-16.4,3.1-22.8,6.1C486.4,535.7,486.2,535.7,486.1,535.7z"/>
			<path class="st8" d="M510.4,533.5c-0.1,0-0.1,0-0.2,0c-0.2,0-15.1-3.1-24.2-3.4c-0.6,0-1-0.5-1-1c0-0.5,0.5-1,1-1c0,0,0,0,0,0
				c9.3,0.3,23.9,3.3,24.5,3.5c0.5,0.1,0.9,0.6,0.8,1.2C511.3,533.2,510.9,533.5,510.4,533.5z"/>
		</g>
	</g>
	<g>
		<path class="st10" d="M492.4,532.5c-13.1,0-28.7-1.1-45.1-4.8c-0.4-0.1-0.8-0.5-0.8-0.9l-1.1-30.3l-0.7,30.3c0,0.5-0.3,0.9-0.8,1
			c-43.1,9.7-81.3,1.8-81.6,1.7c-0.3-0.1-0.6-0.3-0.7-0.7l-1.3-3.9c-1.1-3.3-0.8-7.2-0.6-8.8c-1.3-0.8-4.2-2.9-4.8-5.3
			c-0.5-2.2-0.2-4.4-0.1-5.3c-1.5-1.9-3.8-4.9-3.8-6.3c0-1.3,1-8.4,1.2-9.9c-7.6-34-6.1-66-6-66.3c0-0.3,0.2-0.6,0.4-0.8
			c0.3-0.2,0.6-0.2,0.9-0.1c0.3,0.1,32.4,9.5,96.2,9.5h4c63.9,0,95.9-9.4,96.2-9.5c0.3-0.1,0.6,0,0.9,0.1c0.3,0.2,0.4,0.5,0.4,0.8
			c0,0.3,1.5,32.2-6,66.3c0.2,1.5,1.2,8.6,1.2,9.9c0,1.4-2.3,4.4-3.8,6.3c0.2,1,0.4,3.2-0.1,5.3c-0.6,2.5-3.5,4.5-4.8,5.3
			c0.2,1.6,0.4,5.5-0.6,8.8l-1.3,3.9c-0.1,0.3-0.4,0.6-0.7,0.7C528.7,529.4,513.9,532.5,492.4,532.5z M448.5,525.9
			c39.5,8.7,74.6,2.5,79.5,1.6l1.1-3.3c1.2-3.6,0.5-8.5,0.5-8.5c-0.1-0.4,0.1-0.8,0.5-1c1.1-0.6,4-2.6,4.4-4.4c0.5-2.4,0-4.9,0-5
			c-0.1-0.3,0-0.6,0.2-0.8c1.7-2.1,3.5-4.7,3.6-5.4c0-0.9-0.7-6.3-1.2-9.8c0-0.1,0-0.2,0-0.4c6.7-30,6.3-58.5,6.1-64.7
			c-6.5,1.7-38.4,9.3-95.6,9.3h-4c-57.2,0-89.1-7.6-95.6-9.3c-0.2,6.2-0.6,34.6,6.1,64.7c0,0.1,0,0.2,0,0.4
			c-0.5,3.4-1.2,8.9-1.2,9.8c0.1,0.7,1.9,3.3,3.6,5.4c0.2,0.2,0.3,0.6,0.2,0.9c0,0-0.5,2.6,0,5c0.4,1.8,3.4,3.8,4.4,4.4
			c0.4,0.2,0.6,0.6,0.5,1c0,0-0.7,4.9,0.5,8.5l1.1,3.3c4.8,0.9,40,7.1,79.5-1.6l1.5-63.7c0-0.5,0.5-1,1-1c0,0,0,0,0,0
			c0.5,0,1,0.4,1,1L448.5,525.9z"/>
		<linearGradient id="SVGID_3_" gradientUnits="userSpaceOnUse" x1="353.6108" y1="415.1647" x2="530.7199" y2="523.0195">
			<stop  offset="0" style="stop-color:#CCA76E"/>
			<stop  offset="0.4562" style="stop-color:#C7A065"/>
			<stop  offset="1" style="stop-color:#BE9454"/>
		</linearGradient>
		<path class="st5" d="M448.5,525.9c39.5,8.7,74.6,2.5,79.5,1.6l1.1-3.3c1.2-3.6,0.5-8.5,0.5-8.5c-0.1-0.4,0.1-0.8,0.5-1
			c1.1-0.6,4-2.6,4.4-4.4c0.5-2.4,0-4.9,0-5c-0.1-0.3,0-0.6,0.2-0.8c1.7-2.1,3.5-4.7,3.6-5.4c0-0.9-0.7-6.3-1.2-9.8
			c0-0.1,0-0.2,0-0.4c6.7-30,6.3-58.5,6.1-64.7c-6.5,1.7-38.4,9.3-95.6,9.3h-4c-57.2,0-89.1-7.6-95.6-9.3
			c-0.2,6.2-0.6,34.6,6.1,64.7c0,0.1,0,0.2,0,0.4c-0.5,3.4-1.2,8.9-1.2,9.8c0.1,0.7,1.9,3.3,3.6,5.4c0.2,0.2,0.3,0.6,0.2,0.9
			c0,0-0.5,2.6,0,5c0.4,1.8,3.4,3.8,4.4,4.4c0.4,0.2,0.6,0.6,0.5,1c0,0-0.7,4.9,0.5,8.5l1.1,3.3c4.8,0.9,40,7.1,79.5-1.6l1.5-63.7
			c0-0.5,0.5-1,1-1c0,0,0,0,0,0c0.5,0,1,0.4,1,1L448.5,525.9z"/>
		<g class="st12">
			<linearGradient id="SVGID_4_" gradientUnits="userSpaceOnUse" x1="446.2656" y1="494.6125" x2="454.2656" y2="494.6125">
				<stop  offset="0" style="stop-color:#CCA76E"/>
				<stop  offset="0.4562" style="stop-color:#C7A065"/>
				<stop  offset="1" style="stop-color:#BE9454"/>
			</linearGradient>
			<path class="st9" d="M446.3,462.2l2.3,63.7c1.9,0.4,3.8,0.8,5.7,1.2C454.2,526.7,447.5,472.9,446.3,462.2z"/>
			<linearGradient id="SVGID_5_" gradientUnits="userSpaceOnUse" x1="438.325" y1="494.4993" x2="444.2666" y2="494.4993">
				<stop  offset="0" style="stop-color:#CCA76E"/>
				<stop  offset="0.4562" style="stop-color:#C7A065"/>
				<stop  offset="1" style="stop-color:#BE9454"/>
			</linearGradient>
			<path class="st11" d="M438.3,526.8c1.5-0.3,3-0.6,4.5-0.9l1.5-63.7C444.3,462.2,441.6,516.8,438.3,526.8z"/>
		</g>
		<linearGradient id="SVGID_6_" gradientUnits="userSpaceOnUse" x1="354.039" y1="496.6648" x2="376.8342" y2="510.5464">
			<stop  offset="0" style="stop-color:#CCA76E"/>
			<stop  offset="0.4562" style="stop-color:#C7A065"/>
			<stop  offset="1" style="stop-color:#BE9454"/>
		</linearGradient>
		<path style="opacity:0.5;fill:url(#SVGID_6_);" d="M353,499c0.1,0.7,1.9,3.3,3.6,5.4c0.1,0.2,0.2,0.4,0.2,0.6
			c11.5,1.2,22.9,0.7,22.9,0.7c-14-2.8-23.6-6.2-26.7-7.4C353,498.6,353,498.9,353,499z"/>
		<linearGradient id="SVGID_7_" gradientUnits="userSpaceOnUse" x1="360.0325" y1="510.5261" x2="372.3958" y2="518.055">
			<stop  offset="0" style="stop-color:#CCA76E"/>
			<stop  offset="0.4562" style="stop-color:#C7A065"/>
			<stop  offset="1" style="stop-color:#BE9454"/>
		</linearGradient>
		<path style="opacity:0.5;fill:url(#SVGID_7_);" d="M374.4,514.7c-7.3,0-12.4-1-15.7-2c1,0.9,2,1.6,2.6,1.9c0.4,0.2,0.6,0.6,0.5,1
			c0,0,0,0.2-0.1,0.5C366.7,515.6,374.4,514.7,374.4,514.7z"/>
		<linearGradient id="SVGID_8_" gradientUnits="userSpaceOnUse" x1="378.6286" y1="491.7176" x2="408.9929" y2="510.2086">
			<stop  offset="0" style="stop-color:#CCA76E"/>
			<stop  offset="0.4562" style="stop-color:#C7A065"/>
			<stop  offset="1" style="stop-color:#BE9454"/>
		</linearGradient>
		<path class="st15" d="M374.6,498.3c0,0,13.5,5.2,18.4,5.4c4.9,0.2,20,0,20,0s-19.8,2.1-21.1,2.1
			C390.5,505.9,374.6,498.3,374.6,498.3z"/>
		<linearGradient id="SVGID_9_" gradientUnits="userSpaceOnUse" x1="490.6223" y1="495.1514" x2="512.2201" y2="508.3039">
			<stop  offset="0" style="stop-color:#CCA76E"/>
			<stop  offset="0.4562" style="stop-color:#C7A065"/>
			<stop  offset="1" style="stop-color:#BE9454"/>
		</linearGradient>
		<path class="st16" d="M517.9,499.1c0,0-12,4.8-17.6,5.3c-5.5,0.6-15.3,0-15.3,0l16.5,2.3C501.5,506.7,514.3,501.4,517.9,499.1z"/>
		<linearGradient id="SVGID_10_" gradientUnits="userSpaceOnUse" x1="509.1762" y1="468.8394" x2="548.9603" y2="493.0668">
			<stop  offset="0" style="stop-color:#CCA76E"/>
			<stop  offset="0.4562" style="stop-color:#C7A065"/>
			<stop  offset="1" style="stop-color:#BE9454"/>
		</linearGradient>
		<path class="st17" d="M538.3,499c0-0.9-0.7-6.3-1.2-9.8c0-0.1,0-0.2,0-0.4c5.3-23.5,6.1-45.9,6.2-57.6l-3.4-2.1l-10.2,6
			c0,0-2.7,45.5-2.9,52.3s0.4,12.5-1,14.1s-12.1,3.1-15.7,4.1c0,0,13.5-0.7,15,2c0.5,1,0.1,2.1-0.8,3.2c0,0-16.8,8.6-26.4,9.5
			c0,0,15.4-1.6,25.3-3.7c0.8,0.8,1.2,1.9,1,3.6c-0.3,2.5-0.8,5.5-1.3,8.2c2.5-0.4,4.3-0.7,5.1-0.8l1.1-3.3c1.2-3.6,0.5-8.5,0.5-8.5
			c-0.1-0.4,0.1-0.8,0.5-1c1.1-0.6,4-2.6,4.4-4.4c0.5-2.4,0-4.9,0-5c-0.1-0.3,0-0.6,0.2-0.8C536.4,502.4,538.2,499.7,538.3,499z"/>
		<linearGradient id="SVGID_11_" gradientUnits="userSpaceOnUse" x1="366.7552" y1="393.5801" x2="520.5968" y2="487.2655">
			<stop  offset="0" style="stop-color:#CCA76E"/>
			<stop  offset="0.4562" style="stop-color:#C7A065"/>
			<stop  offset="1" style="stop-color:#BE9454"/>
		</linearGradient>
		<path class="st18" d="M348.7,450.4c11.2,2.2,53.3,9.3,109.5,7.2c41.4-1.5,69.3-4.4,84.3-6.4c0.5-7.1,0.7-13.2,0.8-18l-29.3-3.7
			c-15.9,2.1-38,3.9-66.4,3.9h-4c-57.2,0-89.1-7.6-95.6-9.3C348,427.6,347.8,437.4,348.7,450.4z"/>
		<path class="st21" d="M363.9,524.4c0,0,36.7,6.9,77.5-1.3"/>
		<path class="st21" d="M527,524.4c0,0-36.7,6.9-77.5-1.3"/>
	</g>
	<path class="st22" d="M407.5,287.1c13.2,11.7,34.1,11.7,37.4,11.6c3.3,0.1,24.1,0.1,37.4-11.6c1.1-0.3,5.3-1.3,10.3-2.6
		c-14.2,26.2-47.1,24.4-47.5,24.4l-0.3,0c-0.3,0-33,1.8-47.3-24C402.3,286.1,406.4,286.9,407.5,287.1z"/>
	<path class="st23" d="M593,398c0.8-8.3-9.7-23.1-9.7-23.1c1-2.8-5-11.6-5-11.6c-24.1-41.6-58.5-73.6-58.5-73.6
		c0.1,0.1,0.1,0.1,0.2,0.2c-7.5-7.5-12.5-11.6-12.6-11.7c-0.3-0.2-0.7-0.3-1-0.2c-8.4,3.3-24.7,7.2-24.8,7.2c-0.2,0-0.3,0.1-0.4,0.2
		c-12,10.8-31.4,11.3-35.7,11.3c-0.1,0-0.1,0-0.2,0h-0.7c-0.1,0-0.1,0-0.2,0c-4.3,0-23.7-0.5-35.7-11.3c-0.1-0.1-0.3-0.2-0.5-0.2
		c-0.2,0-17.1-3.4-25.4-6.8c-0.3-0.1-0.7-0.1-1,0.2c-0.1,0.1-4.8,4-11.9,11.1c0,0,0,0,0,0c0,0-34.3,32-58.5,73.6c0,0-6.1,8.7-5,11.6
		c0,0-11,15.5-9.7,23.6l0,0c0,0.2,0.1,0.3,0.2,0.4c0.2,0.3,0.5,0.4,0.8,0.4c0.3,0,26.1-0.8,42.3,7.3c-0.1,1.3-0.3,2.6-0.4,3.9
		c0,0-1.5,12.9,2.8,16.7l0.9,18.7c0,0,0.1,1.2,2.9,1.7c0.4,0.1,41.1,6.7,98,6.8c0,0,0,0,0,0h1.2c0,0,0,0,0,0
		c56.9-0.1,97.6-6.8,98-6.8c0,0,0.1,0,0.1,0c2.5-0.5,2.6-1.6,2.6-1.6l0.9-18.7c4.3-3.8,2.8-16.7,2.8-16.7c-0.1-1.3-0.2-2.6-0.3-3.8
		c16.2-8.2,42.1-7.4,42.4-7.4c0.3,0,0.6-0.1,0.8-0.4C593.1,398.7,593.1,398.3,593,398C593,398,593,398,593,398z M407.5,287.1
		c13.2,11.7,34.1,11.7,37.4,11.6c3.3,0.1,24.1,0.1,37.4-11.6c1.1-0.3,5.3-1.3,10.3-2.6c-14.2,26.2-47.1,24.4-47.5,24.4l-0.3,0
		c-0.3,0-33,1.8-47.3-24C402.3,286.1,406.4,286.9,407.5,287.1z M299.1,397.3c4.4-14.2,8.3-19.6,9.3-20.9c18,0.1,30.8,4.1,35.9,6
		c-1.8,7.3-3.2,14.7-4,22.1C325.7,397.4,304.7,397.2,299.1,397.3z M346.1,425.5C346.1,425.5,346.1,425.5,346.1,425.5
		c0-0.1-0.1-0.1-0.1-0.1c-3.1-4.7-2.5-14.4-2.5-14.5c4.2-54.4,39-112.1,39.3-112.7c0.3-0.5,0.1-1.1-0.3-1.4
		c-0.5-0.3-1.1-0.1-1.4,0.3c0,0-25,38.6-36.4,83.3c-5.2-1.9-17.6-5.7-35.2-6c27-53.3,68.3-89.8,73.1-93.9c3.4,1.3,7.9,2.6,12.2,3.7
		c12.6,25,41.2,26.7,48.3,26.7c1,0,1.6,0,1.6,0l0.2,0c0.4,0,35.9,2,50.2-27c0,0,0-0.1,0-0.1c4-1.1,8.2-2.4,11.4-3.7
		c4.8,4.1,46.7,41,73.7,94.3c-17.7,0.3-30.2,4.2-35.3,6.1c-9.6-37.8-28.9-71.1-34.7-80.6c-1-1.7-1.5-2.6-1.6-2.7
		c-0.3-0.5-0.9-0.6-1.4-0.3c-0.5,0.3-0.6,0.9-0.3,1.4c0.4,0.6,35.1,58.3,39.3,112.7c0,0.1,0.6,9.7-2.4,14.4
		c-4,4.6-32.4,12.2-51.7,12.7c-19.5,0.5-48.4-1.5-59.5-4c-5.3-1.2-12.5-1-21.6-0.6c-9.8,0.3-22.1,0.8-36.3-0.5
		C349.4,430.5,346.2,425.7,346.1,425.5z M444.9,452.4c-52.8,0-91.7-5.8-97.6-6.7c-0.3-4.1-0.8-13-1-17.4c3,2,10.3,4.9,28.1,6.5
		c14.4,1.3,26.7,0.9,36.6,0.6c9-0.3,16-0.6,21.1,0.6c10,2.3,34.6,4.1,53.7,4.1c2.2,0,4.3,0,6.3-0.1c17.4-0.4,43.3-6.6,51.4-11.9
		c-0.2,4.2-0.7,13.4-1,17.6C536.6,446.6,497.7,452.3,444.9,452.4z M549.4,404.6c-0.9-7.4-2.3-14.8-4-22.1c5-1.9,17.9-5.9,36-6.1
		c1,1.2,4.9,6.6,9.3,20.9C585.1,397.2,564,397.4,549.4,404.6z"/>
	<path class="st22" d="M299.1,397.3c4.4-14.2,8.3-19.6,9.3-20.9c18,0.1,30.8,4.1,35.9,6c-1.8,7.3-3.2,14.7-4,22.1
		C325.7,397.4,304.7,397.2,299.1,397.3z"/>
	<linearGradient id="SVGID_12_" gradientUnits="userSpaceOnUse" x1="349.9568" y1="306.4685" x2="548.1485" y2="427.162">
		<stop  offset="0" style="stop-color:#809254"/>
		<stop  offset="1" style="stop-color:#5E703F"/>
	</linearGradient>
	<path style="fill:url(#SVGID_12_);" d="M346.1,425.5C346.1,425.5,346.1,425.5,346.1,425.5c0-0.1-0.1-0.1-0.1-0.1
		c-3.1-4.7-2.5-14.4-2.5-14.5c4.2-54.4,39-112.1,39.3-112.7c0.3-0.5,0.1-1.1-0.3-1.4c-0.5-0.3-1.1-0.1-1.4,0.3
		c0,0-25,38.6-36.4,83.3c-5.2-1.9-17.6-5.7-35.2-6c27-53.3,68.3-89.8,73.1-93.9c3.4,1.3,7.9,2.6,12.2,3.7
		c12.6,25,41.2,26.7,48.3,26.7c1,0,1.6,0,1.6,0l0.2,0c0.4,0,35.9,2,50.2-27c0,0,0-0.1,0-0.1c4-1.1,8.2-2.4,11.4-3.7
		c4.8,4.1,46.7,41,73.7,94.3c-17.7,0.3-30.2,4.2-35.3,6.1c-9.6-37.8-28.9-71.1-34.7-80.6c-1-1.7-1.5-2.6-1.6-2.7
		c-0.3-0.5-0.9-0.6-1.4-0.3c-0.5,0.3-0.6,0.9-0.3,1.4c0.4,0.6,35.1,58.3,39.3,112.7c0,0.1,0.6,9.7-2.4,14.4
		c-4,4.6-32.4,12.2-51.7,12.7c-19.5,0.5-48.4-1.5-59.5-4c-5.3-1.2-12.5-1-21.6-0.6c-9.8,0.3-22.1,0.8-36.3-0.5
		C349.4,430.5,346.2,425.7,346.1,425.5z"/>
	<path class="st22" d="M444.9,452.4c-52.8,0-91.7-5.8-97.6-6.7c-0.3-4.1-0.8-13-1-17.4c3,2,10.3,4.9,28.1,6.5
		c14.4,1.3,26.7,0.9,36.6,0.6c9-0.3,16-0.6,21.1,0.6c10,2.3,34.6,4.1,53.7,4.1c2.2,0,4.3,0,6.3-0.1c17.4-0.4,43.3-6.6,51.4-11.9
		c-0.2,4.2-0.7,13.4-1,17.6C536.6,446.6,497.7,452.3,444.9,452.4z"/>
	<path class="st22" d="M549.4,404.6c-0.9-7.4-2.3-14.8-4-22.1c5-1.9,17.9-5.9,36-6.1c1,1.2,4.9,6.6,9.3,20.9
		C585.1,397.2,564,397.4,549.4,404.6z"/>
	<g>
		<path class="st23" d="M399.7,290.2c-0.2,0-0.3-0.1-0.4-0.2c-0.2-0.2-0.1-0.5,0.1-0.7l5.5-3.6c0.2-0.2,0.5-0.1,0.7,0.1
			c0.2,0.2,0.1,0.5-0.1,0.7l-5.5,3.6C399.9,290.2,399.8,290.2,399.7,290.2z"/>
		<path class="st23" d="M403.5,295.2c-0.1,0-0.3,0-0.3-0.1c-0.2-0.2-0.2-0.5,0-0.7l6.6-6.8c0.2-0.2,0.5-0.2,0.7,0
			c0.2,0.2,0.2,0.5,0,0.7l-6.6,6.8C403.7,295.2,403.6,295.2,403.5,295.2z"/>
		<path class="st23" d="M408.4,299.5c-0.1,0-0.2,0-0.3-0.1c-0.2-0.2-0.3-0.5-0.1-0.7l6-8.3c0.2-0.2,0.5-0.3,0.7-0.1
			c0.2,0.2,0.3,0.5,0.1,0.7l-6,8.3C408.7,299.5,408.5,299.5,408.4,299.5z"/>
		<path class="st23" d="M444.5,310.4c-0.3,0-0.5-0.2-0.5-0.5v-12.1c0-0.3,0.2-0.5,0.5-0.5c0.3,0,0.5,0.2,0.5,0.5v12.1
			C445,310.1,444.8,310.4,444.5,310.4z"/>
		<path class="st23" d="M438.7,310.2C438.7,310.2,438.7,310.2,438.7,310.2c-0.3,0-0.5-0.3-0.5-0.5l1.2-12.3c0-0.3,0.3-0.5,0.5-0.5
			c0.3,0,0.5,0.3,0.5,0.5l-1.2,12.3C439.2,310,439,310.2,438.7,310.2z"/>
		<path class="st23" d="M431,309.2c0,0-0.1,0-0.1,0c-0.3-0.1-0.4-0.3-0.4-0.6l2.9-11.1c0.1-0.3,0.3-0.4,0.6-0.4
			c0.3,0.1,0.4,0.3,0.4,0.6l-2.9,11.1C431.5,309.1,431.3,309.2,431,309.2z"/>
		<path class="st23" d="M424,307.5c-0.1,0-0.1,0-0.2,0c-0.3-0.1-0.4-0.4-0.3-0.7l4.3-10.3c0.1-0.3,0.4-0.4,0.7-0.3
			c0.3,0.1,0.4,0.4,0.3,0.7l-4.3,10.3C424.4,307.4,424.2,307.5,424,307.5z"/>
		<path class="st23" d="M418.1,304.3c-0.1,0-0.2,0-0.3-0.1c-0.2-0.1-0.3-0.5-0.2-0.7l5.6-9.1c0.1-0.2,0.5-0.3,0.7-0.2
			c0.2,0.1,0.3,0.5,0.2,0.7l-5.6,9.1C418.4,304.2,418.3,304.3,418.1,304.3z"/>
		<path class="st23" d="M412.5,302.3c-0.1,0-0.2,0-0.3-0.1c-0.2-0.1-0.3-0.5-0.2-0.7l5.6-9.2c0.1-0.2,0.5-0.3,0.7-0.2
			c0.2,0.1,0.3,0.5,0.2,0.7l-5.6,9.2C412.8,302.2,412.6,302.3,412.5,302.3z"/>
		<path class="st23" d="M490.9,290.2c-0.1,0-0.2,0-0.3-0.1l-5.5-3.6c-0.2-0.2-0.3-0.5-0.1-0.7c0.2-0.2,0.5-0.3,0.7-0.1l5.5,3.6
			c0.2,0.2,0.3,0.5,0.1,0.7C491.3,290.1,491.1,290.2,490.9,290.2z"/>
		<path class="st23" d="M487.2,295.2c-0.1,0-0.3-0.1-0.4-0.2l-6.6-6.8c-0.2-0.2-0.2-0.5,0-0.7c0.2-0.2,0.5-0.2,0.7,0l6.6,6.8
			c0.2,0.2,0.2,0.5,0,0.7C487.4,295.2,487.3,295.2,487.2,295.2z"/>
		<path class="st23" d="M482.3,299.5c-0.2,0-0.3-0.1-0.4-0.2l-6-8.3c-0.2-0.2-0.1-0.5,0.1-0.7c0.2-0.2,0.5-0.1,0.7,0.1l6,8.3
			c0.2,0.2,0.1,0.5-0.1,0.7C482.5,299.5,482.4,299.5,482.3,299.5z"/>
		<path class="st23" d="M451.9,310.2c-0.3,0-0.5-0.2-0.5-0.5l-1.2-12.3c0-0.3,0.2-0.5,0.5-0.5c0.3,0,0.5,0.2,0.5,0.5l1.2,12.3
			C452.4,310,452.2,310.2,451.9,310.2C451.9,310.2,451.9,310.2,451.9,310.2z"/>
		<path class="st23" d="M459.6,309.2c-0.2,0-0.4-0.1-0.5-0.4l-2.9-11.1c-0.1-0.3,0.1-0.5,0.4-0.6c0.3-0.1,0.5,0.1,0.6,0.4l2.9,11.1
			c0.1,0.3-0.1,0.5-0.4,0.6C459.7,309.2,459.6,309.2,459.6,309.2z"/>
		<path class="st23" d="M466.6,307.5c-0.2,0-0.4-0.1-0.5-0.3l-4.3-10.3c-0.1-0.3,0-0.5,0.3-0.7c0.3-0.1,0.5,0,0.7,0.3l4.3,10.3
			c0.1,0.3,0,0.5-0.3,0.7C466.7,307.5,466.7,307.5,466.6,307.5z"/>
		<path class="st23" d="M472.5,304.3c-0.2,0-0.3-0.1-0.4-0.2l-5.6-9.1c-0.1-0.2-0.1-0.5,0.2-0.7c0.2-0.1,0.5-0.1,0.7,0.2l5.6,9.1
			c0.1,0.2,0.1,0.5-0.2,0.7C472.7,304.3,472.6,304.3,472.5,304.3z"/>
		<path class="st23" d="M478.2,302.3c-0.2,0-0.3-0.1-0.4-0.2l-5.6-9.2c-0.1-0.2-0.1-0.5,0.2-0.7c0.2-0.1,0.5-0.1,0.7,0.2l5.6,9.2
			c0.1,0.2,0.1,0.5-0.2,0.7C478.3,302.3,478.3,302.3,478.2,302.3z"/>
		<g>
			<path class="st23" d="M339.7,405.8C339.7,405.8,339.6,405.8,339.7,405.8c-0.4,0-0.5-0.3-0.5-0.6c1.5-9.6,5.5-23.5,5.6-23.7
				c0.1-0.3,0.4-0.4,0.6-0.3c0.3,0.1,0.4,0.4,0.3,0.6c0,0.1-4,14-5.5,23.5C340.1,405.7,339.9,405.8,339.7,405.8z"/>
			<path class="st23" d="M335.1,404.1C335.1,404.1,335.1,404.1,335.1,404.1c-0.4,0-0.5-0.3-0.5-0.6c1.5-9.6,5.5-23.5,5.6-23.7
				c0.1-0.3,0.4-0.4,0.6-0.3c0.3,0.1,0.4,0.4,0.3,0.6c0,0.1-4,14-5.5,23.5C335.6,403.9,335.4,404.1,335.1,404.1z"/>
			<path class="st23" d="M330.4,402.7C330.4,402.7,330.3,402.7,330.4,402.7c-0.4,0-0.5-0.3-0.5-0.6c1.5-9.6,5.5-23.5,5.6-23.7
				c0.1-0.3,0.4-0.4,0.6-0.3c0.3,0.1,0.4,0.4,0.3,0.6c0,0.1-4,14-5.5,23.5C330.9,402.5,330.6,402.7,330.4,402.7z"/>
			<path class="st23" d="M325.4,401.8C325.4,401.8,325.4,401.8,325.4,401.8c-0.4,0-0.5-0.3-0.5-0.6c1.5-9.6,5.5-23.5,5.6-23.7
				c0.1-0.3,0.4-0.4,0.6-0.3c0.3,0.1,0.4,0.4,0.3,0.6c0,0.1-4,14-5.5,23.5C325.9,401.6,325.7,401.8,325.4,401.8z"/>
			<path class="st23" d="M320.6,400.9C320.6,400.9,320.5,400.9,320.6,400.9c-0.4,0-0.5-0.3-0.5-0.6c1.5-9.6,5.5-23.5,5.6-23.7
				c0.1-0.3,0.4-0.4,0.6-0.3c0.3,0.1,0.4,0.4,0.3,0.6c0,0.1-4,14-5.5,23.5C321.1,400.7,320.8,400.9,320.6,400.9z"/>
			<path class="st23" d="M315.9,400.2C315.9,400.2,315.8,400.2,315.9,400.2c-0.4,0-0.5-0.3-0.5-0.6c1.5-9.6,5.5-23.5,5.6-23.7
				c0.1-0.3,0.4-0.4,0.6-0.3c0.3,0.1,0.4,0.4,0.3,0.6c0,0.1-4,14-5.5,23.5C316.3,400,316.1,400.2,315.9,400.2z"/>
			<path class="st23" d="M310,399.5C310,399.5,309.9,399.5,310,399.5c-0.4,0-0.5-0.3-0.5-0.6c1.5-9.6,6.5-23.6,6.6-23.7
				c0.1-0.3,0.4-0.4,0.6-0.3c0.3,0.1,0.4,0.4,0.3,0.6c0,0.1-5,14-6.5,23.5C310.5,399.3,310.2,399.5,310,399.5z"/>
			<path class="st23" d="M303.9,399C303.8,399,303.8,399,303.9,399c-0.4,0-0.5-0.3-0.5-0.6c1.5-9.7,7.4-23.1,7.4-23.2
				c0.1-0.3,0.4-0.4,0.7-0.3c0.3,0.1,0.4,0.4,0.3,0.7c-0.1,0.1-5.9,13.4-7.3,23C304.3,398.8,304.1,399,303.9,399z"/>
			<path class="st23" d="M550.1,405.8c-0.2,0-0.5-0.2-0.5-0.4c-1.5-9.6-5.5-23.4-5.5-23.5c-0.1-0.3,0.1-0.5,0.3-0.6
				c0.3-0.1,0.5,0.1,0.6,0.3c0,0.1,4.1,14,5.6,23.7C550.7,405.5,550.5,405.8,550.1,405.8C550.2,405.8,550.1,405.8,550.1,405.8z"/>
			<path class="st23" d="M554.7,404.1c-0.2,0-0.5-0.2-0.5-0.4c-1.5-9.6-5.5-23.4-5.5-23.5c-0.1-0.3,0.1-0.5,0.3-0.6
				c0.3-0.1,0.5,0.1,0.6,0.3c0,0.1,4.1,14,5.6,23.7C555.2,403.8,555,404,554.7,404.1C554.7,404.1,554.7,404.1,554.7,404.1z"/>
			<path class="st23" d="M559.4,402.7c-0.2,0-0.5-0.2-0.5-0.4c-1.5-9.6-5.5-23.4-5.5-23.5c-0.1-0.3,0.1-0.5,0.3-0.6
				c0.3-0.1,0.5,0.1,0.6,0.3c0,0.1,4.1,14,5.6,23.7C559.9,402.4,559.8,402.6,559.4,402.7C559.5,402.7,559.4,402.7,559.4,402.7z"/>
			<path class="st23" d="M564.4,401.8c-0.2,0-0.5-0.2-0.5-0.4c-1.5-9.6-5.5-23.4-5.5-23.5c-0.1-0.3,0.1-0.5,0.3-0.6
				c0.3-0.1,0.5,0.1,0.6,0.3c0,0.1,4.1,14,5.6,23.7C564.9,401.5,564.7,401.7,564.4,401.8C564.4,401.8,564.4,401.8,564.4,401.8z"/>
			<path class="st23" d="M569.2,400.9c-0.2,0-0.5-0.2-0.5-0.4c-1.5-9.6-5.5-23.4-5.5-23.5c-0.1-0.3,0.1-0.5,0.3-0.6
				c0.3-0.1,0.5,0.1,0.6,0.3c0,0.1,4.1,14,5.6,23.7C569.7,400.6,569.6,400.8,569.2,400.9C569.3,400.9,569.2,400.9,569.2,400.9z"/>
			<path class="st23" d="M573.9,400.2c-0.2,0-0.5-0.2-0.5-0.4c-1.5-9.6-5.5-23.4-5.5-23.5c-0.1-0.3,0.1-0.5,0.3-0.6
				c0.3-0.1,0.5,0.1,0.6,0.3c0,0.1,4.1,14,5.6,23.7C574.5,399.9,574.3,400.1,573.9,400.2C574,400.2,574,400.2,573.9,400.2z"/>
			<path class="st23" d="M579.8,399.5c-0.2,0-0.5-0.2-0.5-0.4c-1.5-9.5-6.5-23.4-6.5-23.5c-0.1-0.3,0-0.5,0.3-0.6
				c0.3-0.1,0.5,0,0.6,0.3c0.1,0.1,5.1,14.1,6.6,23.7C580.3,399.2,580.2,399.5,579.8,399.5C579.9,399.5,579.8,399.5,579.8,399.5z"/>
			<path class="st23" d="M585.9,399c-0.2,0-0.5-0.2-0.5-0.4c-1.5-9.5-7.5-23.3-7.5-23.5c-0.1-0.3,0-0.5,0.3-0.7
				c0.3-0.1,0.5,0,0.7,0.3c0.1,0.1,6.1,14.1,7.6,23.7C586.5,398.7,586.3,398.9,585.9,399C586,399,586,399,585.9,399z"/>
			<path class="st23" d="M445.5,453.9c-0.3,0-0.5-0.2-0.5-0.5v-15.8c0-0.3,0.2-0.5,0.5-0.5s0.5,0.2,0.5,0.5v15.8
				C446,453.6,445.8,453.9,445.5,453.9z"/>
			<path class="st23" d="M351.5,447.8c-0.3,0-0.5-0.2-0.5-0.5l-1.2-17.6c0-0.3,0.2-0.5,0.5-0.5c0.2,0,0.5,0.2,0.5,0.5l1.2,17.6
				C352,447.5,351.8,447.8,351.5,447.8C351.5,447.8,351.5,447.8,351.5,447.8z"/>
			<path class="st23" d="M356.7,447.8c-0.3,0-0.5-0.2-0.5-0.5l-0.8-16.4c0-0.3,0.2-0.5,0.5-0.5c0.3,0,0.5,0.2,0.5,0.5l0.8,16.4
				C357.2,447.6,357,447.8,356.7,447.8C356.7,447.8,356.7,447.8,356.7,447.8z"/>
			<path class="st23" d="M361.8,449.1c-0.3,0-0.5-0.2-0.5-0.5l-1.1-16.1c0-0.3,0.2-0.5,0.5-0.5c0.3,0,0.5,0.2,0.5,0.5l1.1,16.1
				C362.3,448.9,362.1,449.1,361.8,449.1C361.8,449.1,361.8,449.1,361.8,449.1z"/>
			<path class="st23" d="M366.2,449.6c-0.3,0-0.5-0.2-0.5-0.5l-0.7-16.3c0-0.3,0.2-0.5,0.5-0.5c0.3,0,0.5,0.2,0.5,0.5l0.7,16.3
				C366.7,449.4,366.5,449.6,366.2,449.6C366.2,449.6,366.2,449.6,366.2,449.6z"/>
			<path class="st23" d="M371.8,449.8c-0.3,0-0.5-0.2-0.5-0.5l-0.9-15.7c0-0.3,0.2-0.5,0.5-0.5c0.3,0,0.5,0.2,0.5,0.5l0.9,15.7
				C372.3,449.6,372.1,449.8,371.8,449.8C371.8,449.8,371.8,449.8,371.8,449.8z"/>
			<path class="st23" d="M378.3,450.6c-0.3,0-0.5-0.2-0.5-0.5l-1.4-16c0-0.3,0.2-0.5,0.5-0.5c0.2,0,0.5,0.2,0.5,0.5l1.4,16
				C378.9,450.3,378.7,450.6,378.3,450.6C378.4,450.6,378.4,450.6,378.3,450.6z"/>
			<path class="st23" d="M384,450.6c-0.3,0-0.5-0.2-0.5-0.4l-1.7-15.7c0-0.3,0.2-0.5,0.4-0.6c0.3,0,0.5,0.2,0.6,0.4l1.7,15.7
				C384.5,450.3,384.3,450.5,384,450.6C384,450.6,384,450.6,384,450.6z"/>
			<path class="st23" d="M390.5,451.2c-0.3,0-0.5-0.2-0.5-0.4l-1.7-16c0-0.3,0.2-0.5,0.4-0.5c0.3,0,0.5,0.2,0.5,0.4l1.7,16
				C391,450.9,390.8,451.1,390.5,451.2C390.5,451.2,390.5,451.2,390.5,451.2z"/>
			<path class="st23" d="M439.2,453.8c-0.3,0-0.5-0.2-0.5-0.5v-16.7c0-0.3,0.2-0.5,0.5-0.5c0.3,0,0.5,0.2,0.5,0.5v16.7
				C439.7,453.6,439.5,453.8,439.2,453.8z"/>
			<path class="st23" d="M433.7,453.8C433.7,453.8,433.7,453.8,433.7,453.8c-0.3,0-0.5-0.2-0.5-0.5c0.1-8.2,0-17.9,0-18
				c0-0.3,0.2-0.5,0.5-0.5c0.2,0,0.5,0.2,0.5,0.5c0,0.1,0.1,9.7,0,18C434.2,453.5,434,453.8,433.7,453.8z"/>
			<path class="st23" d="M427.7,453.6C427.7,453.6,427.7,453.6,427.7,453.6c-0.3,0-0.5-0.2-0.5-0.5c0.1-3.6,0-18.6,0-18.8
				c0-0.3,0.2-0.5,0.5-0.5c0,0,0,0,0,0c0.3,0,0.5,0.2,0.5,0.5c0,0.2,0.1,15.2,0,18.8C428.2,453.4,428,453.6,427.7,453.6z"/>
			<path class="st23" d="M421.7,453.5c-0.3,0-0.5-0.2-0.5-0.5c-0.4-5.5,0-18.8,0-18.9c0-0.3,0.2-0.5,0.5-0.5c0.3,0,0.5,0.2,0.5,0.5
				c0,0.1-0.4,13.4,0,18.8C422.3,453.2,422,453.5,421.7,453.5C421.8,453.5,421.7,453.5,421.7,453.5z"/>
			<path class="st23" d="M415.9,453.3c-0.3,0-0.5-0.2-0.5-0.5c-0.1-6.4,0-18.4,0-18.6c0-0.3,0.2-0.5,0.5-0.5c0.3,0,0.5,0.2,0.5,0.5
				c0,0.1-0.1,12.1,0,18.5C416.4,453,416.2,453.3,415.9,453.3C415.9,453.3,415.9,453.3,415.9,453.3z"/>
			<path class="st23" d="M409.3,453c-0.3,0-0.5-0.2-0.5-0.5c-0.4-5.1-0.3-17.8-0.3-17.9c0-0.3,0.2-0.5,0.5-0.5c0,0,0,0,0,0
				c0.3,0,0.5,0.2,0.5,0.5c0,0.1-0.1,12.8,0.3,17.8C409.8,452.8,409.6,453,409.3,453C409.3,453,409.3,453,409.3,453z"/>
			<path class="st23" d="M402.7,452.7c-0.3,0-0.5-0.2-0.5-0.5c-0.5-6-0.4-17.5-0.4-17.6c0-0.3,0.3-0.5,0.5-0.5
				c0.3,0,0.5,0.2,0.5,0.5c0,0.1-0.2,11.6,0.4,17.5C403.2,452.5,403,452.7,402.7,452.7C402.8,452.7,402.7,452.7,402.7,452.7z"/>
			<path class="st23" d="M396.1,452.3c-0.3,0-0.5-0.2-0.5-0.4c-0.7-6.5-1.2-17-1.2-17.1c0-0.3,0.2-0.5,0.5-0.5
				c0.3,0,0.5,0.2,0.5,0.5c0,0.1,0.5,10.5,1.2,17C396.7,452,396.5,452.3,396.1,452.3C396.2,452.3,396.2,452.3,396.1,452.3z"/>
			<path class="st23" d="M538.7,447.8C538.7,447.8,538.6,447.8,538.7,447.8c-0.3,0-0.5-0.3-0.5-0.5l1.2-17.6c0-0.3,0.3-0.5,0.5-0.5
				c0.3,0,0.5,0.3,0.5,0.5l-1.2,17.6C539.2,447.6,538.9,447.8,538.7,447.8z"/>
			<path class="st23" d="M533.4,447.8C533.4,447.8,533.4,447.8,533.4,447.8c-0.3,0-0.5-0.2-0.5-0.5l0.8-16.4c0-0.3,0.2-0.5,0.5-0.5
				c0.3,0,0.5,0.2,0.5,0.5l-0.8,16.4C533.9,447.6,533.7,447.8,533.4,447.8z"/>
			<path class="st23" d="M528.3,449.1C528.3,449.1,528.3,449.1,528.3,449.1c-0.3,0-0.5-0.3-0.5-0.5l1.1-16.1c0-0.3,0.2-0.5,0.5-0.5
				c0.3,0,0.5,0.3,0.5,0.5l-1.1,16.1C528.8,448.9,528.6,449.1,528.3,449.1z"/>
			<path class="st23" d="M523.9,449.6C523.9,449.6,523.9,449.6,523.9,449.6c-0.3,0-0.5-0.2-0.5-0.5l0.7-15.3c0-0.3,0.2-0.5,0.5-0.5
				c0,0,0,0,0,0c0.3,0,0.5,0.2,0.5,0.5l-0.7,15.3C524.4,449.4,524.2,449.6,523.9,449.6z"/>
			<path class="st23" d="M518.4,449.8C518.3,449.8,518.3,449.8,518.4,449.8c-0.3,0-0.5-0.3-0.5-0.5l0.8-14c0-0.3,0.3-0.5,0.5-0.5
				c0.3,0,0.5,0.3,0.5,0.5l-0.8,14C518.8,449.6,518.6,449.8,518.4,449.8z"/>
			<path class="st23" d="M511.8,450.6C511.8,450.6,511.8,450.6,511.8,450.6c-0.3,0-0.5-0.3-0.5-0.5l1.2-13.4c0-0.3,0.3-0.5,0.5-0.5
				c0.3,0,0.5,0.3,0.5,0.5l-1.2,13.4C512.3,450.4,512,450.6,511.8,450.6z"/>
			<path class="st23" d="M506.2,450.6C506.2,450.6,506.1,450.6,506.2,450.6c-0.3,0-0.5-0.3-0.5-0.6l1.4-12.5c0-0.3,0.3-0.5,0.6-0.4
				c0.3,0,0.5,0.3,0.4,0.6l-1.4,12.5C506.6,450.4,506.4,450.6,506.2,450.6z"/>
			<path class="st23" d="M499.6,451.2C499.6,451.2,499.6,451.2,499.6,451.2c-0.3,0-0.5-0.3-0.5-0.6l1.4-12.8c0-0.3,0.3-0.5,0.5-0.4
				c0.3,0,0.5,0.3,0.4,0.5l-1.4,12.8C500.1,451,499.9,451.2,499.6,451.2z"/>
			<path class="st23" d="M450.9,453.8c-0.3,0-0.5-0.2-0.5-0.5v-16c0-0.3,0.2-0.5,0.5-0.5c0.3,0,0.5,0.2,0.5,0.5v16
				C451.4,453.6,451.2,453.8,450.9,453.8z"/>
			<path class="st23" d="M456.4,453.8c-0.3,0-0.5-0.2-0.5-0.5c-0.1-8.2-0.3-15.3-0.3-15.3c0-0.3,0.2-0.5,0.5-0.5
				c0.3,0,0.5,0.2,0.5,0.5c0,0.1,0.2,7.1,0.3,15.4C456.9,453.5,456.7,453.8,456.4,453.8C456.4,453.8,456.4,453.8,456.4,453.8z"/>
			<path class="st23" d="M462.4,453.6c-0.3,0-0.5-0.2-0.5-0.5c-0.1-3.6,0-14.4,0-14.6c0-0.3,0.2-0.5,0.5-0.5c0,0,0,0,0,0
				c0.3,0,0.5,0.2,0.5,0.5c0,0.1-0.1,10.9,0,14.5C462.9,453.4,462.7,453.6,462.4,453.6C462.4,453.6,462.4,453.6,462.4,453.6z"/>
			<path class="st23" d="M468.4,453.5C468.4,453.5,468.4,453.5,468.4,453.5c-0.3,0-0.5-0.3-0.5-0.5c0.4-5.4,0.2-14.2,0.2-14.3
				c0-0.3,0.2-0.5,0.5-0.5c0,0,0,0,0,0c0.3,0,0.5,0.2,0.5,0.5c0,0.1,0.2,8.9-0.2,14.4C468.9,453.3,468.7,453.5,468.4,453.5z"/>
			<path class="st23" d="M474.2,453.3C474.2,453.3,474.2,453.3,474.2,453.3c-0.3,0-0.5-0.2-0.5-0.5c0.1-6.4,0.1-13.8,0.1-13.9
				c0-0.3,0.2-0.5,0.5-0.5c0,0,0,0,0,0c0.3,0,0.5,0.2,0.5,0.5c0,0.1,0.1,7.5-0.1,13.9C474.7,453.1,474.5,453.3,474.2,453.3z"/>
			<path class="st23" d="M480.9,453C480.9,453,480.8,453,480.9,453c-0.3,0-0.5-0.3-0.5-0.5c0.4-5,0.3-13.2,0.3-13.3
				c0-0.3,0.2-0.5,0.5-0.5c0,0,0,0,0,0c0.3,0,0.5,0.2,0.5,0.5c0,0.1,0.1,8.3-0.3,13.4C481.3,452.8,481.1,453,480.9,453z"/>
			<path class="st23" d="M487.4,452.7C487.4,452.7,487.4,452.7,487.4,452.7c-0.3,0-0.5-0.3-0.5-0.5c0.5-6,0.4-12.9,0.4-13
				c0-0.3,0.2-0.5,0.5-0.5c0.3,0,0.5,0.2,0.5,0.5c0,0.1,0.1,7-0.4,13.1C487.9,452.5,487.7,452.7,487.4,452.7z"/>
			<path class="st23" d="M494,452.3C494,452.3,494,452.3,494,452.3c-0.3,0-0.5-0.3-0.5-0.6c0.7-6.5,1.2-13.1,1.2-13.2
				c0-0.3,0.3-0.5,0.5-0.5c0.3,0,0.5,0.3,0.5,0.5c0,0.1-0.5,6.7-1.2,13.2C494.5,452.1,494.2,452.3,494,452.3z"/>
		</g>
	</g>
	<g>
		<defs>
			<path id="SVGID_15_" d="M346.1,425.5C346.1,425.5,346.1,425.5,346.1,425.5c0-0.1-0.1-0.1-0.1-0.1c-3.1-4.7-2.5-14.4-2.5-14.5
				c4.2-54.4,39-112.1,39.3-112.7c0.3-0.5,0.1-1.1-0.3-1.4c-0.5-0.3-1.1-0.1-1.4,0.3c0,0-25,38.6-36.4,83.3
				c-5.2-1.9-17.6-5.7-35.2-6c27-53.3,68.3-89.8,73.1-93.9c3.4,1.3,7.9,2.6,12.2,3.7c12.6,25,41.2,26.7,48.3,26.7c1,0,1.6,0,1.6,0
				l0.2,0c0.4,0,35.9,2,50.2-27c0,0,0-0.1,0-0.1c4-1.1,8.2-2.4,11.4-3.7c4.8,4.1,46.7,41,73.7,94.3c-17.7,0.3-30.2,4.2-35.3,6.1
				c-9.6-37.8-28.9-71.1-34.7-80.6c-1-1.7-1.5-2.6-1.6-2.7c-0.3-0.5-0.9-0.6-1.4-0.3c-0.5,0.3-0.6,0.9-0.3,1.4
				c0.4,0.6,35.1,58.3,39.3,112.7c0,0.1,0.6,9.7-2.4,14.4c-4,4.6-32.4,12.2-51.7,12.7c-19.5,0.5-48.4-1.5-59.5-4
				c-5.3-1.2-12.5-1-21.6-0.6c-9.8,0.3-22.1,0.8-36.3-0.5C349.4,430.5,346.2,425.7,346.1,425.5z"/>
		</defs>
		<clipPath id="SVGID_13_">
			<use xlink:href="#SVGID_15_"  style="overflow:visible;"/>
		</clipPath>
		<polygon style="clip-path:url(#SVGID_13_);fill:#B47058;" points="445.2,343.3 435.4,328.8 445.2,314.3 455.6,328.8 		"/>
		<polygon style="clip-path:url(#SVGID_13_);fill:#B47058;" points="423.6,342.1 415.4,326.7 426.6,313.3 435.4,328.8 		"/>
		<polygon style="clip-path:url(#SVGID_13_);fill:#B47058;" points="403.6,339.6 395.4,324.2 406.6,310.8 415.4,326.3 		"/>
		<polygon style="clip-path:url(#SVGID_13_);fill:#B47058;" points="383.6,337.6 375.4,322.2 386.5,308.8 395.4,324.3 		"/>
		<polygon style="clip-path:url(#SVGID_13_);fill:#B47058;" points="362.1,333.9 356.2,317.5 369.1,305.8 375.7,322.4 		"/>
		<polygon style="clip-path:url(#SVGID_13_);fill:#B47058;" points="341.3,327.1 337.8,310 352.3,300.3 356.4,317.7 		"/>
		<g style="clip-path:url(#SVGID_13_);">
			<polygon class="st27" points="433,366.4 422.6,351 434,337.6 445.2,353.1 			"/>
			<polygon class="st27" points="411.9,364.5 402.5,349.1 413.9,335.7 423.1,351.2 			"/>
			<polygon class="st27" points="390.3,362.5 381.9,347.1 393.3,333.7 402.5,349.2 			"/>
			<polygon class="st27" points="366.2,358.8 359.5,340.6 374.4,330.7 382.2,347.3 			"/>
			<polygon class="st27" points="344,350 340.4,332.9 355.3,323.2 359.5,340.6 			"/>
			<polygon class="st27" points="325.3,342.2 321.7,325.1 336.6,315.4 340.8,332.8 			"/>
			<polygon class="st27" points="457.3,366.4 467.7,351 456.2,337.6 445.1,353.1 			"/>
			<polygon class="st27" points="478.4,364.5 487.8,349.1 476.3,335.7 467.2,351.2 			"/>
			<polygon class="st27" points="500,362.5 508.4,347.1 496.9,333.7 487.8,349.2 			"/>
			<polygon class="st27" points="524.1,358.8 530.8,340.6 515.9,330.7 508.1,347.3 			"/>
			<polygon class="st27" points="546.3,350 549.9,332.9 535,323.2 530.8,340.6 			"/>
			<polygon class="st27" points="565,342.2 568.6,325.1 553.7,315.4 549.4,332.8 			"/>
		</g>
		<polygon style="clip-path:url(#SVGID_13_);fill:#B47058;" points="467.2,342.1 475.4,326.7 464.3,313.3 455.4,328.8 		"/>
		<polygon style="clip-path:url(#SVGID_13_);fill:#B47058;" points="487.3,339.6 495.5,324.2 484.3,310.8 475.4,326.3 		"/>
		<polygon style="clip-path:url(#SVGID_13_);fill:#B47058;" points="507.3,337.6 515.5,322.2 504.3,308.8 495.5,324.3 		"/>
		<polygon style="clip-path:url(#SVGID_13_);fill:#B47058;" points="528.8,333.9 534.7,317.5 521.8,305.8 515.2,322.4 		"/>
		<polygon style="clip-path:url(#SVGID_13_);fill:#B47058;" points="549.6,327.1 553,310 538.5,300.3 534.4,317.7 		"/>
		<path style="clip-path:url(#SVGID_13_);fill:none;stroke:#FFFFFF;stroke-miterlimit:10;" d="M352,358.8c0,0-38.1-10.7-40.4-11.9"
			/>
		<path style="clip-path:url(#SVGID_13_);fill:none;stroke:#FFFFFF;stroke-miterlimit:10;" d="M532.9,282
			c-41.9,16.9-87.3,18.3-87.3,18.3h-1c0,0-45.4-1.4-87.3-18.3"/>
		<path style="clip-path:url(#SVGID_13_);fill:none;stroke:#FFFFFF;stroke-miterlimit:10;" d="M538.1,361.5
			C502.1,372,445,372.4,445,372.4h0c0,0-57-0.4-93.1-10.9"/>
		<path style="clip-path:url(#SVGID_13_);fill:none;stroke:#FFFFFF;stroke-miterlimit:10;" d="M538.1,358.8c0,0,38.1-10.7,40.4-11.9
			"/>
		<g style="clip-path:url(#SVGID_13_);">
			<g>
				<path class="st29" d="M352,366.1c0,0-2.3-0.6-5.8-1.6"/>
				<path class="st30" d="M336.5,361.7c-4.8-1.4-10-2.9-14.5-4.2"/>
				<path class="st29" d="M317.3,356.1c-3.1-0.9-5.2-1.6-5.7-1.9"/>
			</g>
		</g>
		<g style="clip-path:url(#SVGID_13_);">
			<g>
				<path class="st29" d="M538.1,368.8c-1.9,0.5-3.8,1.1-5.8,1.6"/>
				<path class="st31" d="M520.9,372.9c-23.1,4.4-49.2,6-64,6.5"/>
				<path class="st29" d="M451,379.6c-3.8,0.1-6,0.1-6,0.1h0c0,0-2.2,0-6-0.1"/>
				<path class="st31" d="M427.4,379.1c-16.7-0.8-42.2-2.7-63.9-7.4"/>
				<path class="st29" d="M357.7,370.4c-2-0.5-3.9-1-5.8-1.6"/>
			</g>
		</g>
		<g style="clip-path:url(#SVGID_13_);">
			<g>
				<path class="st29" d="M538.1,366.1c0,0,2.3-0.6,5.8-1.6"/>
				<path class="st30" d="M553.6,361.7c4.8-1.4,10-2.9,14.5-4.2"/>
				<path class="st29" d="M572.8,356.1c3.1-0.9,5.2-1.6,5.7-1.9"/>
			</g>
		</g>
	</g>
	<g class="st32">
		<linearGradient id="SVGID_14_" gradientUnits="userSpaceOnUse" x1="489.2663" y1="359.0806" x2="558.4675" y2="401.2223">
			<stop  offset="0" style="stop-color:#809254"/>
			<stop  offset="1" style="stop-color:#5E703F"/>
		</linearGradient>
		<path class="st24" d="M516.1,315.1c8.3,22.5,22,64.2,17.8,83c-4.7,21.1-14.8,33.1-18.8,37.1c13.7-2.7,26.1-6.9,28.7-9.8
			c3.1-4.7,2.5-14.3,2.4-14.4C543.4,374.3,526.8,336.3,516.1,315.1z"/>
		<linearGradient id="SVGID_16_" gradientUnits="userSpaceOnUse" x1="497.0106" y1="321.5888" x2="563.3245" y2="361.9721">
			<stop  offset="0" style="stop-color:#809254"/>
			<stop  offset="1" style="stop-color:#5E703F"/>
		</linearGradient>
		<path style="fill:url(#SVGID_16_);" d="M510.2,299.9c5.8,9.5,25.1,42.9,34.7,80.6c1.9-0.7,4.9-1.7,8.8-2.7
			C544.5,357.9,529.4,328.2,510.2,299.9z"/>
	</g>
	<linearGradient id="SVGID_17_" gradientUnits="userSpaceOnUse" x1="516.7802" y1="431.9725" x2="541.629" y2="447.1048">
		<stop  offset="0" style="stop-color:#809254"/>
		<stop  offset="1" style="stop-color:#5E703F"/>
	</linearGradient>
	<path style="opacity:0.4;fill:url(#SVGID_17_);" d="M542.5,445.7c0.3-4.2,0.8-13.3,1-17.6c-5.1,3.4-17.4,7.1-30.1,9.4l-1.2,11.7
		C528.7,447.7,539.6,446.1,542.5,445.7z"/>
	<path class="st36" d="M554.5,379.7c-4.1,1-7.2,2.1-9.1,2.8c1.8,7.3,3.2,14.7,4,22.1c4.3-2.1,9.1-3.6,13.9-4.6
		C562.1,397,559.1,389.7,554.5,379.7z"/>
	<linearGradient id="SVGID_18_" gradientUnits="userSpaceOnUse" x1="335.7831" y1="340.7929" x2="378.7234" y2="340.7929">
		<stop  offset="0" style="stop-color:#809254"/>
		<stop  offset="1" style="stop-color:#5E703F"/>
	</linearGradient>
	<path style="opacity:0.3;fill:url(#SVGID_18_);" d="M344.8,380.5c9.2-36.3,27.4-68.5,33.9-79.4c0,0,0,0,0,0
		c0,0-25.1,34.4-42.9,76.6C339.8,378.7,342.8,379.7,344.8,380.5z"/>
	<linearGradient id="SVGID_19_" gradientUnits="userSpaceOnUse" x1="327.3611" y1="392.076" x2="344.3057" y2="392.076">
		<stop  offset="0" style="stop-color:#809254"/>
		<stop  offset="1" style="stop-color:#5E703F"/>
	</linearGradient>
	<path style="opacity:0.3;fill:url(#SVGID_19_);" d="M340.3,404.5c0.9-7.4,2.3-14.8,4-22.1c-2-0.7-5.1-1.8-9.3-2.8
		c-2.8,6.7-5.4,13.5-7.6,20.5C331.8,401.2,336.3,402.6,340.3,404.5z"/>
	<path class="st39" d="M382.6,280.6c-4.1,3.5-35.6,31.4-61.6,73.4c1.7-2.1,3.5-4.5,5.6-7c28.1-34.6,53.4-60.8,58.2-65.6
		C384,281.1,383.3,280.8,382.6,280.6z"/>
</g>
</svg>
