<?xml version="1.0" encoding="utf-8"?>
<!-- Generator: Adobe Illustrator 21.0.0, SVG Export Plug-In . SVG Version: 6.00 Build 0)  -->
<svg version="1.1" id="圖層_1" xmlns="http://www.w3.org/2000/svg" xmlns:xlink="http://www.w3.org/1999/xlink" x="0px" y="0px"
	 viewBox="0 0 822.9 601.4" style="enable-background:new 0 0 822.9 601.4;" xml:space="preserve">
<style type="text/css">
	.st0{fill:url(#SVGID_1_);}
	.st1{fill:#E1BE3F;}
	.st2{fill:#AB6C21;}
	.st3{opacity:0.6;fill:#E1BE3F;enable-background:new    ;}
	.st4{fill:url(#SVGID_2_);}
	.st5{fill:url(#SVGID_3_);}
	.st6{fill:url(#SVGID_4_);}
	.st7{fill:#CE9245;}
	.st8{fill:#A66A22;}
	.st9{opacity:0.6;fill:#CE9245;enable-background:new    ;}
	.st10{fill:#AC6D21;}
	.st11{fill:url(#SVGID_5_);}
	.st12{fill:url(#SVGID_6_);}
	.st13{fill:url(#SVGID_7_);}
	.st14{fill:url(#SVGID_8_);}
	.st15{fill:url(#SVGID_9_);}
	.st16{opacity:0.6;fill:#D69644;enable-background:new    ;}
	.st17{fill:#070505;}
	.st18{fill:#22201E;}
	.st19{fill:url(#SVGID_10_);}
	.st20{fill:#DC827B;}
	.st21{fill:#9B2724;}
	.st22{fill:#8F2022;}
	.st23{fill:#C7812F;}
	.st24{fill:#DCB7A7;}
	.st25{fill:#FEF6F2;}
	.st26{fill:#E5BE51;}
	.st27{fill:#CF361C;}
	.st28{fill:#E9DED9;}
	.st29{fill:#FFFFFF;}
	.st30{fill:none;stroke:#DCB7A7;stroke-width:0.8656;stroke-linecap:round;stroke-miterlimit:10;}
	.st31{fill:#9E9E9E;}
	.st32{fill:#E2DFDE;}
	.st33{fill:none;stroke:#9B2724;stroke-width:0.5638;stroke-linecap:round;stroke-linejoin:round;stroke-miterlimit:10;}
	.st34{fill:url(#SVGID_11_);}
	.st35{fill:url(#SVGID_12_);}
	.st36{fill:#D69644;}
	.st37{fill:#D04B22;}
	.st38{fill:url(#SVGID_13_);}
	.st39{fill:url(#SVGID_14_);}
	.st40{fill:url(#SVGID_15_);}
	.st41{fill:url(#SVGID_16_);}
	.st42{fill:url(#SVGID_17_);}
	.st43{fill:url(#SVGID_18_);}
	.st44{fill:url(#SVGID_19_);}
	.st45{fill:#FBEEBA;}
	.st46{fill:#F3B699;}
	.st47{fill:#FCF0CA;}
	.st48{fill:none;stroke:#FCF0CA;stroke-width:0.5868;stroke-miterlimit:10;}
	.st49{fill:url(#SVGID_20_);}
	.st50{fill:url(#SVGID_21_);}
	.st51{fill:url(#SVGID_22_);}
	.st52{fill:#EEE9E5;}
	.st53{fill:#323130;}
	.st54{fill:#181717;}
	.st55{fill:#A4A09F;}
	.st56{fill:#546B7F;}
	.st57{fill:#92A2AD;}
	.st58{opacity:0.6;fill:#A4A09F;enable-background:new    ;}
	.st59{fill:none;stroke:#A4A09F;stroke-width:0.6175;stroke-linecap:round;stroke-miterlimit:10;}
	.st60{fill:#7B8C9F;}
	.st61{fill:#C1E0F6;}
	.st62{fill:url(#SVGID_23_);}
	.st63{opacity:0.6;}
	.st64{fill:#E2BF40;}
	.st65{fill:url(#SVGID_24_);}
	.st66{fill:url(#SVGID_25_);}
	.st67{fill:url(#SVGID_26_);}
	.st68{fill:url(#SVGID_27_);}
	.st69{fill:none;stroke:#FFFFFF;stroke-width:1.8107;stroke-linecap:round;stroke-miterlimit:10;}
	.st70{opacity:0.6;fill:#E2BF40;enable-background:new    ;}
	.st71{fill:#3F210E;}
	.st72{opacity:0.35;fill:#FFFFFF;enable-background:new    ;}
	.st73{fill:url(#SVGID_28_);}
	.st74{opacity:0.8;}
	.st75{fill:url(#SVGID_29_);}
	.st76{fill:url(#SVGID_30_);}
	.st77{fill:#B62E22;}
	.st78{fill:#92622F;}
	.st79{fill:url(#SVGID_31_);}
	.st80{fill:#C5A27C;}
	.st81{opacity:0.8;fill:url(#SVGID_32_);enable-background:new    ;}
	.st82{fill:url(#SVGID_33_);}
	.st83{fill:#2B150B;}
	.st84{fill:#97654C;}
	.st85{opacity:0.4;fill:#3E210E;enable-background:new    ;}
	.st86{fill:url(#SVGID_34_);}
	.st87{opacity:0.35;fill:#DF9E83;enable-background:new    ;}
	.st88{fill:#DF9E83;}
	.st89{fill:#F6D4C7;}
	.st90{opacity:0.69;}
	.st91{fill:#CE5E39;}
	.st92{opacity:0.4;}
	.st93{fill:#3E210E;}
	.st94{fill:#DE805C;}
	.st95{fill:url(#SVGID_35_);stroke:#D78863;stroke-width:0.9662;stroke-miterlimit:10;}
	.st96{fill:url(#SVGID_36_);}
	.st97{fill:#A66B23;}
	.st98{fill:url(#SVGID_37_);}
	.st99{fill:url(#SVGID_38_);}
	.st100{fill:url(#SVGID_39_);}
	.st101{fill:url(#SVGID_40_);}
	.st102{fill:#824323;}
	.st103{fill:url(#SVGID_41_);}
	.st104{fill:#E6A952;}
	.st105{fill:#BB7F37;}
	.st106{fill:url(#SVGID_42_);}
	.st107{fill:url(#SVGID_43_);}
	.st108{fill:url(#SVGID_44_);}
	.st109{fill:#EBA794;}
	.st110{fill:#40210F;}
	.st111{opacity:0.25;fill:#D69644;enable-background:new    ;}
	.st112{opacity:0.5;fill:#D69644;enable-background:new    ;}
	.st113{fill:#FBF4C3;}
	.st114{fill:#DEBD91;}
	.st115{fill:#D8C7A7;}
	.st116{fill:url(#SVGID_45_);}
	.st117{fill:#893827;}
	.st118{opacity:0.4;fill:#E2BF40;enable-background:new    ;}
	.st119{fill:#895424;}
	.st120{fill:#391E13;}
	.st121{fill:#D7B093;}
	.st122{fill:#EFD39D;}
	.st123{fill:#8C5924;}
	.st124{fill:#B55C4E;}
	.st125{fill:url(#SVGID_46_);}
	.st126{fill:url(#SVGID_47_);}
	.st127{fill:#E0917F;}
	.st128{fill:#AB948D;}
	.st129{fill:url(#SVGID_48_);}
	.st130{fill:url(#SVGID_49_);}
	.st131{opacity:0.6;fill:url(#SVGID_50_);enable-background:new    ;}
	.st132{fill:#CD9449;}
	.st133{fill:url(#SVGID_51_);}
	.st134{fill:url(#SVGID_52_);}
	.st135{fill:url(#SVGID_53_);}
	.st136{fill:url(#SVGID_54_);}
	.st137{fill:#842B20;}
	.st138{fill:url(#SVGID_55_);}
	.st139{fill:url(#SVGID_56_);}
	.st140{opacity:0.6;fill:#D2503A;enable-background:new    ;}
	.st141{fill:#DC7D67;}
	.st142{fill:url(#SVGID_57_);}
	.st143{fill:url(#SVGID_58_);}
	.st144{opacity:0.8;fill:#E2BF40;enable-background:new    ;}
	.st145{fill:url(#SVGID_59_);}
	.st146{opacity:0.4;fill:#59A4C1;enable-background:new    ;}
	.st147{fill:#80B4D2;}
	.st148{fill:#4493BB;}
	.st149{fill:#D2ECF9;}
	.st150{opacity:0.5;fill:#80B4D2;enable-background:new    ;}
	.st151{fill:url(#SVGID_60_);}
	.st152{fill:#976430;}
	.st153{fill:url(#SVGID_61_);}
	.st154{fill:#CAA67E;}
	.st155{fill:#5CA6A6;}
	.st156{fill:url(#SVGID_62_);}
	.st157{fill:#9DD6DE;}
	.st158{fill:none;stroke:#AFDDE3;stroke-width:0.8954;stroke-miterlimit:10;}
	.st159{opacity:0.3;enable-background:new    ;}
	.st160{clip-path:url(#SVGID_64_);fill:#9DD6DE;}
	.st161{clip-path:url(#SVGID_66_);fill:#9DD6DE;}
	.st162{opacity:0.6;fill:#FFFFFF;enable-background:new    ;}
	.st163{fill:url(#SVGID_67_);}
	.st164{fill:url(#SVGID_68_);}
	.st165{fill:url(#SVGID_69_);}
	.st166{fill:url(#SVGID_70_);}
	.st167{fill:url(#SVGID_71_);}
	.st168{fill:url(#SVGID_72_);}
	.st169{fill:url(#SVGID_73_);}
	.st170{fill:url(#SVGID_74_);}
	.st171{fill:url(#SVGID_75_);}
	.st172{fill:url(#SVGID_76_);}
	.st173{fill:url(#SVGID_77_);}
	.st174{fill:url(#SVGID_78_);}
	.st175{fill:url(#SVGID_79_);}
	.st176{fill:url(#SVGID_80_);}
	.st177{fill:url(#SVGID_81_);}
</style>
<g>
	<g>
		
			<linearGradient id="SVGID_1_" gradientUnits="userSpaceOnUse" x1="1082.4077" y1="217.7616" x2="1167.3884" y2="217.7616" gradientTransform="matrix(-1 0 0 -1 1686.1643 602)">
			<stop  offset="0" style="stop-color:#EFD97F"/>
			<stop  offset="0.1978" style="stop-color:#EFD87C"/>
			<stop  offset="0.3726" style="stop-color:#EED571"/>
			<stop  offset="0.5387" style="stop-color:#EDCF5F"/>
			<stop  offset="0.6984" style="stop-color:#EBC845"/>
			<stop  offset="0.7526" style="stop-color:#EAC53B"/>
			<stop  offset="1" style="stop-color:#E5AD14"/>
		</linearGradient>
		<path class="st0" d="M518.6,360.3l8.1-18.3c0-0.4,0-1,0.2-1.5c0-0.2,0-0.4,0-0.4c0-0.4,0.2-0.8,0.2-1c0-0.2,0-0.4,0.2-0.6
			c0.2-0.4,0.2-0.8,0.4-1.2c0-0.2,0-0.2,0.2-0.4c0.2-0.6,0.4-1,0.6-1.7c0-0.2,0.2-0.2,0.2-0.4c0.2-0.4,0.4-0.8,0.6-1.2
			c0-0.2,0.2-0.4,0.2-0.6c0.2-0.4,0.4-0.8,0.6-1c0-0.2,0.2-0.4,0.2-0.6c2.9-5.6,7.1-11,10-14.6c0.2-0.2,0.2-0.2,0.4-0.4
			c15.8,20,33.7,47.2,47.8,81.6c0,0,12.9,12.3,12.9,29.7c0,17.5-13.3,23.1-20.6,21.4l0,0c-8.1,7.1-19.6,2.7-21.8-8.7v-0.2
			c-0.4,0.2-1,0.6-1.7,0.8c-4.8,2.5-11.2-0.6-13.3-5l0,0l0,0c0-0.2-0.2-0.4-0.2-0.6l0.2-0.2l-1.7-14.1h0.4v-3.5l0.6-2.5
			c-0.2-0.6-0.6-1.5-0.8-2.3l-0.6-1l-0.8-2.5v-0.6c-2.7-6.4-6.7-15.4-11.9-26c-3.3-6.9-7.3-14.1-11.2-21L518.6,360.3z"/>
	</g>
	<path class="st1" d="M569.1,420.4c0,0,2.5,19.1-8.3,25.4l-1.9-5.4C558.9,440.4,570.4,434.3,569.1,420.4z"/>
	<path class="st1" d="M587.8,426.4c0,0,5,12.7,1.2,21.8c0,0-3.3,1.2-8.3,0.8C580.8,449.1,589.3,444.7,587.8,426.4z"/>
	<path class="st2" d="M569.5,426.4c0,0,0.2,11.4-9.6,15.6l-0.4-1.7C559.6,440.4,569.5,431.2,569.5,426.4z"/>
	<path class="st2" d="M588.7,433.1c0,0,0.6,10.6-5,16.2l-3.5-0.2C580.2,449.1,587.6,441.8,588.7,433.1z"/>
	<path class="st3" d="M518.6,360.3l8.1-18.3c0-0.4,0-1,0.2-1.5c0-0.2,0-0.4,0-0.4c0-0.4,0.2-0.8,0.2-1c0-0.2,0-0.4,0.2-0.6
		c0.2-0.4,0.2-0.8,0.4-1.2c0-0.2,0-0.2,0.2-0.4c0.2-0.6,0.4-1,0.6-1.7c0-0.2,0.2-0.2,0.2-0.4c0.2-0.4,0.4-0.8,0.6-1.2
		c0-0.2,0.2-0.4,0.2-0.6c0.2-0.4,0.4-0.8,0.6-1c0-0.2,0.2-0.4,0.2-0.6c0,0,0-0.2,0.2-0.2c10.8,21.2,22.5,49.5,23.1,73.4
		c0,0-13.3,16.9-8.5,33.3c-0.4-0.4-0.6-1-0.8-1.7l0,0l0,0c0-0.2-0.2-0.4-0.2-0.6l0.2-0.2l-1.7-14.1h0.4v-3.5l0.8-3.1l-1.9-2.7
		l-1-2.5l-20-43.5c0,0-1-1.2-2.9-4.2L518.6,360.3z"/>
	<g>
		<path class="st2" d="M542.7,416.4l-0.6-1.2l0,0c-0.2-0.4-13.1-28.9-25-52l1.2-2.9l0,0c10.8,20.8,22.7,47,25.4,52.8
			c0.4-1.2,0.8-1.7,0.8-1.7l0,0c1-1.9,2.3-3.5,2.5-3.5c0.2-0.2,0.6-0.2,0.8,0c0.2,0.2,0.2,0.6,0,0.8c-0.2,0.2-0.6,0.6-0.8,1
			c0,0-6.9,10.6-3.1,25.8l0,0c0.8,2.3,2.9,4.2,5.4,5.2c2.5,1,5.2,1,7.3,0c8.5-4.2,13.1-13.3,11.2-22.3c0-0.4,0.2-0.6,0.4-0.8
			c0.4,0,0.6,0.2,0.8,0.4c1.9,8.7-2.1,17.7-9.8,22.5c1.2,5.4,4.6,9.4,9.2,10.8c4.4,1.2,8.9,0,12.5-3.5c8.9-8.9,5.6-22.5,5.4-22.5
			c0-0.4,0.2-0.6,0.4-0.8c0.4,0,0.6,0.2,0.8,0.4c0,0.2,3.5,14.4-5.8,23.7l0,0c2.9,0.2,7.3-0.6,11.2-3.7c3.3-2.7,7.3-7.9,7.3-17.3
			c0-16.9-12.7-29.1-12.7-29.3l-0.2-0.2c-13.9-34.3-32-61.4-47.6-81.1l0.2-0.2c1-1.2,2.1-2.3,2.7-3.1l0,0c5.2,6.4,10.6,13.7,16,22.1
			l0,0c0,0,25.8,38.5,31.6,60.1c7.1,9.2,20.2,30.2,7.7,46c-1.2,1.9-2.7,3.3-4,4.4c-0.4,0.4-1,0.8-1.7,1c-0.2,0-0.2,0.2-0.2,0.2l0,0
			c-2.9,1.9-6,2.7-9.2,2.7c-0.8,0-1.7,0-2.3-0.2c-2.7,2.3-5.8,3.3-8.9,3.3c-1.2,0-2.5-0.2-3.7-0.6c-5-1.5-8.5-5.6-10-11.4
			c-0.2,0.2-0.6,0.4-0.8,0.4c-1.2,0.6-2.7,0.8-4.2,0.8c-1.5,0-2.7-0.2-4.2-0.8c-2.7-1-4.8-3.1-5.8-5.4l0,0c0,0,0,0,0-0.2
			c0-0.2-0.2-0.2-0.2-0.4l0,0c0,0-1-2.7-1.5-7.1c-0.2-1.7-0.2-3.7,0-5.8C541.9,420.4,542.3,418.1,542.7,416.4z"/>
	</g>
</g>
<g>
	<g>
		<path class="st10" d="M336,337.7c0,0,0.3,4.8,4.5,5.2l-0.6,0.6l-3.9-1.3V337.7z"/>
		<g>
			
				<linearGradient id="SVGID_2_" gradientUnits="userSpaceOnUse" x1="5137.2891" y1="345.3726" x2="5195.3154" y2="345.3726" gradientTransform="matrix(-1 0 0 1 5503.4189 0)">
				<stop  offset="0" style="stop-color:#EFD980"/>
				<stop  offset="0.2037" style="stop-color:#EFD87C"/>
				<stop  offset="0.3836" style="stop-color:#EED572"/>
				<stop  offset="0.5546" style="stop-color:#EDCF5F"/>
				<stop  offset="0.7191" style="stop-color:#EBC743"/>
				<stop  offset="0.7526" style="stop-color:#EBC63C"/>
				<stop  offset="1" style="stop-color:#E7AE17"/>
			</linearGradient>
			<path class="st4" d="M312.1,348.7c0,0,0,0,10.3-9c10.3-9,12.6-3.2,12.6-3.2l11.3-8.7l7.1-9.4c4.8,3.2,9.7,10.3,12.6,14.5
				c-4.5,10.7-9.4,23.9-12.6,39.1c-4.8,0.6-11.6,0.6-20.7,0.3c-22.9-1.3-24.9-17.1-24.9-17.1L312.1,348.7z"/>
			<polyline class="st10" points="353.1,317.3 345.3,326.7 350.8,328 356.3,319.3 355,316.7 			"/>
		</g>
		<g>
			<path class="st10" d="M332.1,352.9c0,0,0.3,4.8,4.5,5.2l-0.6,0.6l-3.9-1.3V352.9z"/>
			
				<linearGradient id="SVGID_3_" gradientUnits="userSpaceOnUse" x1="-2092.8215" y1="324.8214" x2="-2090.3159" y2="356.5594" gradientTransform="matrix(1 0 0 1 2434.9832 0)">
				<stop  offset="0" style="stop-color:#EFD980"/>
				<stop  offset="0.2037" style="stop-color:#EFD87C"/>
				<stop  offset="0.3836" style="stop-color:#EED572"/>
				<stop  offset="0.5546" style="stop-color:#EDCF5F"/>
				<stop  offset="0.7191" style="stop-color:#EBC743"/>
				<stop  offset="0.7526" style="stop-color:#EBC63C"/>
				<stop  offset="1" style="stop-color:#E7AE17"/>
			</linearGradient>
			<path class="st5" d="M355.3,338c1,5.8,0.3,12.3-1.3,14.2c-2.9,3.6-11.9,9-21,4.5c-0.6-1.9-3.2-13.6,1.3-22.3
				c1-1.9,2.3-3.2,3.6-4.5c4.5-3.9,10.3-2.6,14.2,0C353.4,330.6,354.7,333.8,355.3,338z"/>
			
				<linearGradient id="SVGID_4_" gradientUnits="userSpaceOnUse" x1="-2111.9951" y1="326.3292" x2="-2109.4895" y2="358.067" gradientTransform="matrix(1 0 0 1 2434.9832 0)">
				<stop  offset="0" style="stop-color:#EFD980"/>
				<stop  offset="0.2037" style="stop-color:#EFD87C"/>
				<stop  offset="0.3836" style="stop-color:#EED572"/>
				<stop  offset="0.5546" style="stop-color:#EDCF5F"/>
				<stop  offset="0.7191" style="stop-color:#EBC743"/>
				<stop  offset="0.7526" style="stop-color:#EBC63C"/>
				<stop  offset="1" style="stop-color:#E7AE17"/>
			</linearGradient>
			<path class="st6" d="M319.2,327.4c6.5-2.6,12.9,0,16.1,1.6c-2.3,1.9-4.5,5.2-5.5,10.3c-1.9,10.3,0,15.5,1.6,17.4
				c-15.5,2.9-17.1-2.3-18.1-5.2c0-0.3-0.3-0.6-0.3-1c-0.6-1.9-1.6-11,1.3-17.4C315,330.3,316.9,328.3,319.2,327.4z"/>
			
				<linearGradient id="SVGID_5_" gradientUnits="userSpaceOnUse" x1="-2137.8833" y1="328.379" x2="-2135.3777" y2="360.1167" gradientTransform="matrix(1 0 0 1 2434.9832 0)">
				<stop  offset="0" style="stop-color:#EFD980"/>
				<stop  offset="0.2037" style="stop-color:#EFD87C"/>
				<stop  offset="0.3836" style="stop-color:#EED572"/>
				<stop  offset="0.5546" style="stop-color:#EDCF5F"/>
				<stop  offset="0.7191" style="stop-color:#EBC743"/>
				<stop  offset="0.7526" style="stop-color:#EBC63C"/>
				<stop  offset="1" style="stop-color:#E7AE17"/>
			</linearGradient>
			<path class="st11" d="M304.7,327.7c-2.3,1-5.5,3.2-7.1,8.1c-1,2.6-1.6,5.5-1.6,8.4c-1.6-0.6-3.6-1.9-4.8-3.9
				c-1-1.9-1.3-3.9-0.6-6.5C293,325.7,295.6,326.1,304.7,327.7z"/>
			
				<linearGradient id="SVGID_6_" gradientUnits="userSpaceOnUse" x1="-2128.5977" y1="327.666" x2="-2126.092" y2="359.4037" gradientTransform="matrix(1 0 0 1 2434.9832 0)">
				<stop  offset="0" style="stop-color:#EFD980"/>
				<stop  offset="0.2037" style="stop-color:#EFD87C"/>
				<stop  offset="0.3836" style="stop-color:#EED572"/>
				<stop  offset="0.5546" style="stop-color:#EDCF5F"/>
				<stop  offset="0.7191" style="stop-color:#EBC743"/>
				<stop  offset="0.7526" style="stop-color:#EBC63C"/>
				<stop  offset="1" style="stop-color:#E7AE17"/>
			</linearGradient>
			<path class="st12" d="M301.1,352.2c-1.9-1.6-2.9-5.2-2.6-9.7c0.3-5.5,2.3-10.3,4.8-12.6c3.9-2.9,9.4-2.9,12.3-2.6
				c-2.6,1.9-5.5,6.1-6.1,13.6c-0.3,7.4,1,11.3,3.2,13.6C310.2,355.4,304.7,355.4,301.1,352.2z"/>
			<path class="st70" d="M304.7,327.7c-5.2-1-8.4-1.3-10.7,0c0.3,0,4.2-1,6.1,1.3c0,0-8.1,6.1-4.5,15.2c0-2.9,0.6-5.8,1.6-8.4
				C299.2,330.9,302.4,329,304.7,327.7z"/>
			<path class="st70" d="M303.4,330.3c-1.6,1.3-2.9,3.6-3.9,6.1l1.9-3.9c0,0,4.8-1.6,8.4-0.3c0,0-6.5,10.3,1.3,21l0,0
				c-1.3-2.6-1.9-6.1-1.6-11.3c0.3-7.7,3.6-11.6,6.1-13.6C312.7,327.4,307.2,327.4,303.4,330.3z"/>
			<path class="st70" d="M319.2,327.4c-2.3,1-4.2,2.9-5.2,5.8c0,0,7.1-4.5,17.1-1.6c0,0-5.5,8.4-2.3,14.8l0,0c0-1.9,0.3-4.5,1-7.4
				c1-5.2,3.2-8.4,5.5-10.3C332.1,327.4,325.6,324.8,319.2,327.4z"/>
			<path class="st70" d="M351.8,329.6c-3.9-2.6-9.7-3.9-14.2,0c-1,0.6-1.6,1.6-2.6,2.9c4.8-0.3,13.9-0.6,19.7,3.9
				C354.4,333.2,353.4,330.6,351.8,329.6z"/>
			<path class="st10" d="M354,370.3c0,0-8.7,2.6-25.5-0.3c-15.2-2.6-18.1-12.3-18.4-13.6c0,0,0,0,0.3,0c1.6,0,2.9-0.3,3.6-0.3
				c1.3,1,2.6,1.6,4.2,1.9l0,0c1.3,0.3,2.9,0.6,4.8,0.6c2.3,0,5.5-0.3,9-1c2.6,1.3,5.5,1.9,8.1,1.9c6.8,0,12.6-3.9,14.8-6.8
				c1.9-2.6,2.6-9.7,1.6-15.2c-0.3-2.6-1.3-7.4-3.9-9c-2.3-1.3-5.2-2.6-8.1-2.6l0,0c0,0-4.2-0.6-8.4,1.9c-2.9-1.6-10.3-4.8-17.8-1.9
				c0,0-0.6,0.3-1.3,0.6c-1.3-0.3-5.5-0.6-9.7,0.3c-1,0-1.6-0.3-2.6-0.3c-4.5-0.6-8.1-1.3-10.7-0.6l0,0c0,0-5.2,1.3-6.5,7.4
				c-1,5.8,0,10,8.1,13.2c0.6,3.9,2.9,7.1,7.1,8.4l0,0c1.3,0.6,2.6,1,4.2,1c0,0.3,0,0.3,0,0.6c0,0.6,2.6,12.6,20.7,15.8
				c6.1,1,11.3,1.6,15.5,1.6c7.4,0,11-1.3,11.3-1.3c0.6-0.3,1.3-1,1-1.6C355.3,370.6,354.7,370.3,354,370.3z M355.3,338
				c1,5.8,0.3,12.3-1.3,14.2c-2.9,3.6-11.9,9-21,4.5c-0.6-1.9-3.2-13.6,1.3-22.3c1-1.9,2.3-3.2,3.6-4.5c4.5-3.9,10.3-2.6,14.2,0
				C353.4,330.6,354.7,333.8,355.3,338z M319.2,327.4c6.5-2.6,12.9,0,16.1,1.6c-2.3,1.9-4.5,5.2-5.5,10.3c-1.9,10.3,0,15.5,1.6,17.4
				c-15.5,2.9-17.1-2.3-18.1-5.2c0-0.3-0.3-0.6-0.3-1c-0.6-1.9-1.6-11,1.3-17.4C315,330.3,316.9,328.3,319.2,327.4z M304.7,327.7
				c-2.3,1-5.5,3.2-7.1,8.1c-1,2.6-1.6,5.5-1.6,8.4c-1.6-0.6-3.6-1.9-4.8-3.9c-1-1.9-1.3-3.9-0.6-6.5
				C293,325.7,295.6,326.1,304.7,327.7z M301.1,352.2c-1.9-1.6-2.9-5.2-2.6-9.7c0.3-5.5,2.3-10.3,4.8-12.6c3.9-2.9,9.4-2.9,12.3-2.6
				c-2.6,1.9-5.5,6.1-6.1,13.6c-0.3,7.4,1,11.3,3.2,13.6C310.2,355.4,304.7,355.4,301.1,352.2z"/>
		</g>
		<g>
			<path class="st17" d="M294.3,336.7c-0.3,0-0.6,0-0.6,0c-4.2-0.3-7.1-4.5-6.5-9c0.3-2.3,1.3-4.2,2.9-5.5c1.6-1.3,3.6-1.9,5.5-1.9
				c1.9,0.3,3.9,1.3,4.8,2.9c1.3,1.6,1.6,3.9,1.6,5.8l0,0C301.4,333.5,297.9,336.7,294.3,336.7z M294.7,321.9
				c-1.3,0-2.6,0.6-3.9,1.6c-1.3,1.3-2.3,2.9-2.3,4.5c-0.3,3.6,1.9,7.1,5.2,7.4c3.2,0.3,6.5-2.3,6.8-6.1l0,0
				c0.3-1.9-0.3-3.6-1.3-4.8s-2.3-2.3-3.9-2.3C295,321.9,294.7,321.9,294.7,321.9z M301.1,329.3L301.1,329.3L301.1,329.3z"/>
			<path class="st18" d="M294.7,321.9c-1.3,0-2.6,0.6-3.9,1.6c-1.3,1.3-2.3,2.9-2.3,4.5c-0.3,3.6,1.9,7.1,5.2,7.4
				c3.2,0.3,6.5-2.3,6.8-6.1l0,0c0.3-1.9-0.3-3.6-1.3-4.8s-2.3-2.3-3.9-2.3C295,321.9,294.7,321.9,294.7,321.9z"/>
			<linearGradient id="SVGID_7_" gradientUnits="userSpaceOnUse" x1="301.9676" y1="302.7818" x2="356.047" y2="327.2116">
				<stop  offset="0" style="stop-color:#D05A45"/>
				<stop  offset="0.314" style="stop-color:#CA4F39"/>
				<stop  offset="0.9529" style="stop-color:#B93123"/>
				<stop  offset="1" style="stop-color:#B82E22"/>
			</linearGradient>
			<path class="st13" d="M285,331.5c1.3,0.3,16.5,2.3,45.5,2.6c0,0,7.7-0.6,10.3-1.3c2.3-0.6,22.9-8.1,30-10.7c0-0.3,0-1,0-1.3
				c0-10.3-3.9-13.9-3.9-13.9l-0.3-0.3c-0.3-1.3-1-3.2-1.3-3.6c-0.6-1.6-1.3-2.9-1.6-4.2c-1.3-2.3-2.9-5.2-5.8-7.1
				c-2.6-1.6-5.8-2.9-9.4-3.6c-6.1-1.3-13.9-1.6-21.6-1c-14.8,1-28.1,13.2-32,17.8c-0.3,0.3-0.6,1-1.3,1.6l-0.3,0.3
				c0,0-11.3,3.2-13.2,9C279.2,320.3,278.2,328,285,331.5z"/>
			<g>
				<path class="st20" d="M280.5,316.1c-1.3,4.2-2.3,12.3,4.5,15.5c0.3,0,1.6,0.3,3.9,0.6c0-0.6-0.3-1.3-0.3-1.6
					c-1.3-4.2,8.4-5.8,11.3-5.8c-1.9,0-8.7,0.3-11.9-5.2c-3.6-6.5,5.8-12.3,5.8-12.3C293.4,307,282.1,310.2,280.5,316.1z"/>
				<path class="st20" d="M327.3,287.3c-14.8,1-28.1,13.2-32,17.8c-0.3,0.3-0.6,1-1.3,1.6l-0.3,0.3l23.6-11.3l1.9-3.6
					c4.5-1.6,13.6-4.5,24.5-4.5C338.6,287,333.1,287,327.3,287.3z"/>
			</g>
			<path class="st21" d="M357.3,325.7c-0.3,0-0.3-0.3-0.3-0.3v-19.4c0-0.3,0.3-0.3,0.3-0.3l0.3,0.3v19
				C357.6,325.4,357.6,325.7,357.3,325.7z"/>
			<path class="st22" d="M330.8,335.4c-30.7,0-45.8-2.6-45.8-2.6s0,0-0.3,0c-5.8-2.9-7.7-9-5.5-17.4c1.9-6.1,12.3-9.4,13.9-9.7
				c0.3-0.3,1-1,1-1.3c3.9-4.8,17.8-17.4,32.9-18.4c8.1-0.6,15.8-0.3,21.9,1c3.9,0.6,7.1,1.9,9.7,3.6c2.9,1.9,4.8,5.2,6.1,7.4
				c0.6,1.3,1.3,2.6,1.9,4.2c0.3,0.6,1,2.3,1.3,3.6c0.6,1,4.2,4.8,4.2,14.8c0,0.6,0,1.3,0,1.9c0,0.3-0.3,0.6-0.3,0.6
				c-8.4,2.9-28.4,10.3-30.7,10.7C338.6,334.8,331.1,335.4,330.8,335.4z M285,331.5c1.3,0.3,16.5,2.3,45.5,2.6c0,0,7.7-0.6,10.3-1.3
				c2.3-0.6,22.9-8.1,30-10.7c0-0.3,0-1,0-1.3c0-10.3-3.9-13.9-3.9-13.9l-0.3-0.3c-0.3-1.3-1-3.2-1.3-3.6c-0.6-1.6-1.3-2.9-1.6-4.2
				c-1.3-2.3-2.9-5.2-5.8-7.1c-2.6-1.6-5.8-2.9-9.4-3.6c-6.1-1.3-13.9-1.6-21.6-1c-14.8,1-28.1,13.2-32,17.8c-0.3,0.3-0.6,1-1.3,1.6
				l-0.3,0.3c0,0-11.3,3.2-13.2,9C279.2,320.3,278.2,328,285,331.5z M371.5,322.8L371.5,322.8L371.5,322.8z"/>
			<path class="st21" d="M321.8,325.1c-14.5,0-32.3-1-36.1-1.6c-5.2-1-5.5-3.9-5.5-3.9c0-0.3,0-0.6,0.3-0.6c0.3,0,0.6,0,0.6,0.3
				c0,0,0.3,2.6,4.8,3.2c4.8,1,33.2,2.3,47.8,1.3c0.3,0,0.3,0.3,0.6,0.3c0,0.3-0.3,0.3-0.3,0.6C330.2,325.1,326,325.1,321.8,325.1z"
				/>
			<path class="st23" d="M282.7,319.3C282.7,319.3,282.4,319.3,282.7,319.3c-1.6-0.3-1.9-1.9-1.6-3.9s1.6-3.2,2.9-2.9
				c1.3,0.3,1.6,1.9,1.3,3.9l0,0C284.7,318,283.7,319.3,282.7,319.3z M283.4,313.5c-0.6,0-1.3,1-1.6,2.3c-0.3,1.3,0,2.6,0.6,2.6
				c0.6,0,1.3-0.6,1.6-2.3l0,0C284.7,314.8,284,313.5,283.4,313.5C283.7,313.5,283.7,313.5,283.4,313.5z M284.7,316.1L284.7,316.1
				L284.7,316.1z"/>
			<path class="st23" d="M322.4,321.9c-0.3,0-0.3,0-0.6,0c-1-0.3-1.6-0.6-1.9-1.6s-0.6-1.9-0.3-2.9c0.3-1,0.6-1.9,1.3-2.3
				c0.6-0.6,1.6-1,2.3-0.6c1,0.3,1.6,0.6,1.9,1.6c0.3,1,0.6,1.9,0.3,2.9l0,0C325.3,320.6,323.7,321.9,322.4,321.9z M322.7,315.4
				c-0.3,0-1,0.3-1.3,0.6c-0.6,0.3-1,1-1,1.9c-0.3,0.6,0,1.6,0.3,2.3s0.6,1,1.3,1c1.3,0.3,2.3-0.6,2.6-2.3c0.3-0.6,0-1.6-0.3-2.3
				c-0.3-0.6-0.6-1-1.3-1C323.1,315.4,323.1,315.4,322.7,315.4z M325.3,318.6L325.3,318.6L325.3,318.6z"/>
			<path class="st24" d="M333.4,308L333.4,308c-0.3,0-28.1,0-37.4-1.3c0,0-0.3,0-0.3-0.3v-0.3c0,0,5.8-8.4,19.7-15.2c0,0,0,0,0.3,0
				c0,0,12.6-0.3,23.9,1c0,0,0.3,0,0.3,0.3v0.3c0,0-5.2,8.1-6.1,15.2C333.7,307.7,333.7,308,333.4,308z M296.9,306.1
				c9.4,1,33.2,1,36.1,1.3c1-6.1,4.5-12.6,5.8-14.5c-10.3-1-21.9-1-22.9-1C304,297.3,298.2,304.1,296.9,306.1z"/>
			<path class="st24" d="M336.6,308L336.6,308c-0.3-0.3-0.3-0.3-0.3-0.3c0-0.6,2.6-15.5,11.6-16.8c9-1.3,13.2,5.8,13.2,5.8
				c0,0.3,2.9,4.8,3.6,7.1v0.3l-0.3,0.3C363.4,304.4,340.2,308,336.6,308z M350.2,291.5c-0.6,0-1.3,0-1.9,0
				c-7.7,1-10.3,12.9-11,15.5c4.2-0.3,23.6-3.2,26.8-3.6c-1-2.3-3.6-6.5-3.6-6.5C360.2,296.7,357.3,291.5,350.2,291.5z"/>
			<path class="st21" d="M340.5,323.2L340.5,323.2c-0.3,0-0.6-0.3-0.3-0.6c0.3-2.6-0.6-13.6-0.6-13.6c0-0.3,0.3-0.3,0.3-0.6
				c0.3,0,0.3,0.3,0.6,0.3c0,0.3,0.6,11.3,0.6,13.9C340.8,322.8,340.8,323.2,340.5,323.2z"/>
			<path class="st21" d="M352.1,328c-0.3,0-0.3,0-0.3-0.3c0-0.3,0-0.6,0.3-0.6l7.4-2.9c0.3,0,0.6,0,0.6,0.3c0,0.3,0,0.6-0.3,0.6
				L352.1,328L352.1,328z"/>
			<path class="st25" d="M296.9,306.1c9.4,1,33.2,1,36.1,1.3c1-6.1,4.5-12.6,5.8-14.5c-10.3-1-21.9-1-22.9-1
				C304,297.3,298.2,304.1,296.9,306.1z"/>
			<path class="st25" d="M350.2,291.5c-0.6,0-1.3,0-1.9,0c-7.7,1-10.3,12.9-11,15.5c4.2-0.3,23.6-3.2,26.8-3.6
				c-1-2.3-3.6-6.5-3.6-6.5C360.2,296.7,357.3,291.5,350.2,291.5z"/>
			<path class="st26" d="M283.4,313.5c-0.6,0-1.3,1-1.6,2.3c-0.3,1.3,0,2.6,0.6,2.6c0.6,0,1.3-0.6,1.6-2.3l0,0
				C284.7,314.8,284,313.5,283.4,313.5C283.7,313.5,283.7,313.5,283.4,313.5z"/>
			<path class="st26" d="M322.7,315.4c-0.3,0-1,0.3-1.3,0.6c-0.6,0.3-1,1-1,1.9c-0.3,0.6,0,1.6,0.3,2.3s0.6,1,1.3,1
				c1.3,0.3,2.3-0.6,2.6-2.3c0.3-0.6,0-1.6-0.3-2.3c-0.3-0.6-0.6-1-1.3-1C323.1,315.4,323.1,315.4,322.7,315.4z"/>
			<path class="st27" d="M341.1,332.8c2.3-0.6,22.9-8.1,30-10.7c0-0.3,0-1,0-1.3c0-10.3-3.9-13.9-3.9-13.9l-0.3-0.3
				c-0.3-1.3-1-3.2-1.3-3.6c-0.6-1.6-1.3-2.9-1.6-4.2c0,0,0-0.3-0.3-0.3c0.6,5.5,1.6,13.2,0.3,15.8c0,0-5.2,0.6-6.1,9l-5.2,1.9
				l-2.3,1l-7.7-3.2c0,0-4.8-0.3-6.8,5.5c0,0-30.3,3.2-51.6,2.3c0.3,0.3,0.6,0.3,1,0.6c1.3,0.3,16.5,2.3,45.5,2.6
				C330.8,334.1,338.2,333.5,341.1,332.8z"/>
			<path class="st28" d="M320.5,307c6.1,0,11,0,12.6,0c0.6-3.9,2.3-8.1,3.6-11C333.4,299.9,327.9,304.8,320.5,307z"/>
			<path class="st29" d="M303.4,299.3c-1.9,1.6-3.2,2.9-4.5,4.2l39.4-10c0.3-0.3,0.3-0.6,0.6-1c-3.9-0.3-7.7-0.6-11.6-0.6
				C321.1,293.8,309.5,297.3,303.4,299.3z"/>
			<path class="st28" d="M364.1,303.5c-1-2.3-3.6-6.5-3.6-6.5s-0.3-0.6-1-1.3l-7.4,9.4C357.6,304.4,362.4,303.8,364.1,303.5z"/>
			<path class="st29" d="M351.1,291.5l-12.3,10.3c-1,2.3-1.3,4.2-1.3,5.2c0.3,0,0.6,0,1.3,0l16.5-14.5
				C353.7,291.9,352.4,291.5,351.1,291.5z"/>
			<line class="st30" x1="356.6" y1="293.1" x2="357.3" y2="304.4"/>
			<path class="st17" d="M344,339.3c-0.3,0-0.6,0-0.6,0c-4.2-0.3-7.1-4.5-6.5-9c0.3-2.3,1.3-4.2,2.9-5.5c1.6-1.3,3.6-1.9,5.5-1.9
				c1.9,0.3,3.9,1.3,4.8,2.9c1.3,1.6,1.6,3.9,1.6,5.8l0,0C351.1,336.1,347.9,339.3,344,339.3z M344.4,324.4c-1.3,0-2.6,0.6-3.9,1.6
				c-1.3,1.3-2.3,2.9-2.3,4.5c-0.3,3.6,1.9,7.1,5.2,7.4c3.2,0.3,6.5-2.3,6.8-6.1l0,0c0.3-1.9-0.3-3.6-1.3-4.8s-2.3-2.3-3.9-2.3
				C345,324.4,344.7,324.4,344.4,324.4z M351.1,331.9L351.1,331.9L351.1,331.9z"/>
			<path class="st18" d="M344.4,324.4c-1.3,0-2.6,0.6-3.9,1.6c-1.3,1.3-2.3,2.9-2.3,4.5c-0.3,3.6,1.9,7.1,5.2,7.4
				c3.2,0.3,6.5-2.3,6.8-6.1l0,0c0.3-1.9-0.3-3.6-1.3-4.8s-2.3-2.3-3.9-2.3C345,324.4,344.7,324.4,344.4,324.4z"/>
			<path class="st31" d="M346.9,336.4c-1.6,0-2.9-2.3-2.9-5.5s1.3-5.5,2.9-5.5c1.6,0,2.9,2.3,2.9,5.5S348.6,336.4,346.9,336.4z
				 M346.9,326.4c-1,0-1.9,1.9-1.9,4.5c0,2.6,1,4.5,1.9,4.5c1,0,1.9-1.9,1.9-4.5C348.9,328.3,347.9,326.4,346.9,326.4z"/>
			<path class="st17" d="M366,330.9c-0.3,0-0.3,0-0.6,0c-3.2-0.3-5.8-3.9-5.2-8.1c0.3-1.9,1-3.9,2.3-5.2s2.9-1.9,4.5-1.6
				c1.6,0.3,3.2,1.3,4.2,2.6c1,1.6,1.3,3.6,1.3,5.5c-0.3,1.9-1,3.9-2.3,5.2C368.9,330.3,367.3,330.9,366,330.9z M366.3,317.3
				c-1,0-2.3,0.6-3.2,1.3c-1,1-1.6,2.6-1.9,4.2c-0.3,3.2,1.6,6.5,4.2,6.8c1.3,0,2.6-0.3,3.6-1.3c1-1,1.6-2.6,1.9-4.2l0,0
				c0.3-1.6,0-3.2-1-4.5c-0.6-1.3-1.9-1.9-3.2-2.3C366.6,317.3,366.6,317.3,366.3,317.3z"/>
			<path class="st18" d="M366.3,317.3c-1,0-2.3,0.6-3.2,1.3c-1,1-1.6,2.6-1.9,4.2c-0.3,3.2,1.6,6.5,4.2,6.8c1.3,0,2.6-0.3,3.6-1.3
				c1-1,1.6-2.6,1.9-4.2l0,0c0.3-1.6,0-3.2-1-4.5c-0.6-1.3-1.9-1.9-3.2-2.3C366.6,317.3,366.6,317.3,366.3,317.3z"/>
			<path class="st31" d="M368.2,328c-1.3,0-2.6-1.9-2.6-4.5s1-4.5,2.6-4.5c1.6,0,2.6,1.9,2.6,4.5C370.5,326.1,369.5,328,368.2,328z
				 M368.2,319.6c-1,0-1.9,1.6-1.9,3.9c0,1.9,1,3.9,1.9,3.9s1.9-1.6,1.9-3.9C370.2,321.2,369.2,319.6,368.2,319.6z"/>
			<path class="st32" d="M346.9,326.4c-1,0-1.9,1.9-1.9,4.5c0,2.6,1,4.5,1.9,4.5c1,0,1.9-1.9,1.9-4.5
				C348.9,328.3,347.9,326.4,346.9,326.4z"/>
			<path class="st32" d="M368.2,319.6c-1,0-1.9,1.6-1.9,3.9c0,1.9,1,3.9,1.9,3.9s1.9-1.6,1.9-3.9
				C370.2,321.2,369.2,319.6,368.2,319.6z"/>
			<ellipse class="st18" cx="346.6" cy="331.2" rx="0.6" ry="1.9"/>
			<ellipse class="st18" cx="367.6" cy="323.5" rx="0.6" ry="1.9"/>
			<path class="st33" d="M293.7,307c0,0-6.8,3.9-3.9,15.5"/>
			<path class="st33" d="M305.6,323.2c0,0,7.4-14.2,26.5-14.8"/>
			<path class="st21" d="M340.2,309.6h-0.3c-1,0-1.6-0.6-2.3-1.3l-1.9,0.3h-0.3v-0.3l0.6-2.6c0,0,0-0.3,0.3-0.3h0.3
				c0-1,0.6-1.9,1.3-2.6c0.6-0.6,1.6-1,2.6-1l0,0c1,0,1.9,0.6,2.3,1.6c0.6,1,1,1.9,0.6,2.9c0,1-0.6,1.9-1.3,2.6
				C341.8,309.3,341.1,309.6,340.2,309.6z M337.6,307.7C337.9,307.7,337.9,307.7,337.6,307.7c0.6,1,1.3,1.3,2.3,1.3
				c0.6,0,1.6,0,1.9-0.6c0.6-0.6,1-1.3,1-2.3c0-1,0-1.6-0.6-2.3c-0.3-0.6-1-1-1.9-1.3l0,0c-0.6,0-1.6,0-1.9,0.6
				c-0.6,0.6-1,1.3-1,2.3l0,0l0,0c0,0.3,0,0.3-0.3,0.3l-0.3,0.3L336,308L337.6,307.7L337.6,307.7z"/>
			<linearGradient id="SVGID_8_" gradientUnits="userSpaceOnUse" x1="336.1301" y1="305.7304" x2="343.1159" y2="305.7304">
				<stop  offset="0" style="stop-color:#D05A45"/>
				<stop  offset="0.314" style="stop-color:#CA4F39"/>
				<stop  offset="0.9529" style="stop-color:#B93123"/>
				<stop  offset="1" style="stop-color:#B82E22"/>
			</linearGradient>
			<path class="st14" d="M337.6,307.7C337.9,307.7,337.9,307.7,337.6,307.7c0.6,1,1.3,1.3,2.3,1.3c0.6,0,1.6,0,1.9-0.6
				c0.6-0.6,1-1.3,1-2.3c0-1,0-1.6-0.6-2.3c-0.3-0.6-1-1-1.9-1.3l0,0c-0.6,0-1.6,0-1.9,0.6c-0.6,0.6-1,1.3-1,2.3l0,0l0,0
				c0,0.3,0,0.3-0.3,0.3l-0.3,0.3L336,308L337.6,307.7L337.6,307.7z"/>
		</g>
	</g>
	<g>
		<path class="st10" d="M336,337.7c0,0,0.3,4.8,4.5,5.2l-0.6,0.6l-3.9-1.3V337.7z"/>
		<g>
			
				<linearGradient id="SVGID_9_" gradientUnits="userSpaceOnUse" x1="5137.2891" y1="345.3726" x2="5195.3154" y2="345.3726" gradientTransform="matrix(-1 0 0 1 5503.4189 0)">
				<stop  offset="0" style="stop-color:#EFD980"/>
				<stop  offset="0.2037" style="stop-color:#EFD87C"/>
				<stop  offset="0.3836" style="stop-color:#EED572"/>
				<stop  offset="0.5546" style="stop-color:#EDCF5F"/>
				<stop  offset="0.7191" style="stop-color:#EBC743"/>
				<stop  offset="0.7526" style="stop-color:#EBC63C"/>
				<stop  offset="1" style="stop-color:#E7AE17"/>
			</linearGradient>
			<path class="st15" d="M312.1,348.7c0,0,0,0,10.3-9c10.3-9,12.6-3.2,12.6-3.2l11.3-8.7l7.1-9.4c4.8,3.2,9.7,10.3,12.6,14.5
				c-4.5,10.7-9.4,23.9-12.6,39.1c-4.8,0.6-11.6,0.6-20.7,0.3c-22.9-1.3-24.9-17.1-24.9-17.1L312.1,348.7z"/>
			<polyline class="st10" points="353.1,317.3 345.3,326.7 350.8,328 356.3,319.3 355,316.7 			"/>
		</g>
		<g>
			<path class="st10" d="M332.1,352.9c0,0,0.3,4.8,4.5,5.2l-0.6,0.6l-3.9-1.3V352.9z"/>
			
				<linearGradient id="SVGID_10_" gradientUnits="userSpaceOnUse" x1="-2092.8215" y1="324.8214" x2="-2090.3159" y2="356.5594" gradientTransform="matrix(1 0 0 1 2434.9832 0)">
				<stop  offset="0" style="stop-color:#EFD980"/>
				<stop  offset="0.2037" style="stop-color:#EFD87C"/>
				<stop  offset="0.3836" style="stop-color:#EED572"/>
				<stop  offset="0.5546" style="stop-color:#EDCF5F"/>
				<stop  offset="0.7191" style="stop-color:#EBC743"/>
				<stop  offset="0.7526" style="stop-color:#EBC63C"/>
				<stop  offset="1" style="stop-color:#E7AE17"/>
			</linearGradient>
			<path class="st19" d="M355.3,338c1,5.8,0.3,12.3-1.3,14.2c-2.9,3.6-11.9,9-21,4.5c-0.6-1.9-3.2-13.6,1.3-22.3
				c1-1.9,2.3-3.2,3.6-4.5c4.5-3.9,10.3-2.6,14.2,0C353.4,330.6,354.7,333.8,355.3,338z"/>
			
				<linearGradient id="SVGID_11_" gradientUnits="userSpaceOnUse" x1="-2111.9951" y1="326.3292" x2="-2109.4895" y2="358.067" gradientTransform="matrix(1 0 0 1 2434.9832 0)">
				<stop  offset="0" style="stop-color:#EFD980"/>
				<stop  offset="0.2037" style="stop-color:#EFD87C"/>
				<stop  offset="0.3836" style="stop-color:#EED572"/>
				<stop  offset="0.5546" style="stop-color:#EDCF5F"/>
				<stop  offset="0.7191" style="stop-color:#EBC743"/>
				<stop  offset="0.7526" style="stop-color:#EBC63C"/>
				<stop  offset="1" style="stop-color:#E7AE17"/>
			</linearGradient>
			<path class="st34" d="M319.2,327.4c6.5-2.6,12.9,0,16.1,1.6c-2.3,1.9-4.5,5.2-5.5,10.3c-1.9,10.3,0,15.5,1.6,17.4
				c-15.5,2.9-17.1-2.3-18.1-5.2c0-0.3-0.3-0.6-0.3-1c-0.6-1.9-1.6-11,1.3-17.4C315,330.3,316.9,328.3,319.2,327.4z"/>
			
				<linearGradient id="SVGID_12_" gradientUnits="userSpaceOnUse" x1="-2137.8833" y1="328.379" x2="-2135.3777" y2="360.1167" gradientTransform="matrix(1 0 0 1 2434.9832 0)">
				<stop  offset="0" style="stop-color:#EFD980"/>
				<stop  offset="0.2037" style="stop-color:#EFD87C"/>
				<stop  offset="0.3836" style="stop-color:#EED572"/>
				<stop  offset="0.5546" style="stop-color:#EDCF5F"/>
				<stop  offset="0.7191" style="stop-color:#EBC743"/>
				<stop  offset="0.7526" style="stop-color:#EBC63C"/>
				<stop  offset="1" style="stop-color:#E7AE17"/>
			</linearGradient>
			<path class="st35" d="M304.7,327.7c-2.3,1-5.5,3.2-7.1,8.1c-1,2.6-1.6,5.5-1.6,8.4c-1.6-0.6-3.6-1.9-4.8-3.9
				c-1-1.9-1.3-3.9-0.6-6.5C293,325.7,295.6,326.1,304.7,327.7z"/>
			
				<linearGradient id="SVGID_13_" gradientUnits="userSpaceOnUse" x1="-2128.5977" y1="327.666" x2="-2126.092" y2="359.4037" gradientTransform="matrix(1 0 0 1 2434.9832 0)">
				<stop  offset="0" style="stop-color:#EFD980"/>
				<stop  offset="0.2037" style="stop-color:#EFD87C"/>
				<stop  offset="0.3836" style="stop-color:#EED572"/>
				<stop  offset="0.5546" style="stop-color:#EDCF5F"/>
				<stop  offset="0.7191" style="stop-color:#EBC743"/>
				<stop  offset="0.7526" style="stop-color:#EBC63C"/>
				<stop  offset="1" style="stop-color:#E7AE17"/>
			</linearGradient>
			<path class="st38" d="M301.1,352.2c-1.9-1.6-2.9-5.2-2.6-9.7c0.3-5.5,2.3-10.3,4.8-12.6c3.9-2.9,9.4-2.9,12.3-2.6
				c-2.6,1.9-5.5,6.1-6.1,13.6c-0.3,7.4,1,11.3,3.2,13.6C310.2,355.4,304.7,355.4,301.1,352.2z"/>
			<path class="st70" d="M304.7,327.7c-5.2-1-8.4-1.3-10.7,0c0.3,0,4.2-1,6.1,1.3c0,0-8.1,6.1-4.5,15.2c0-2.9,0.6-5.8,1.6-8.4
				C299.2,330.9,302.4,329,304.7,327.7z"/>
			<path class="st70" d="M303.4,330.3c-1.6,1.3-2.9,3.6-3.9,6.1l1.9-3.9c0,0,4.8-1.6,8.4-0.3c0,0-6.5,10.3,1.3,21l0,0
				c-1.3-2.6-1.9-6.1-1.6-11.3c0.3-7.7,3.6-11.6,6.1-13.6C312.7,327.4,307.2,327.4,303.4,330.3z"/>
			<path class="st70" d="M319.2,327.4c-2.3,1-4.2,2.9-5.2,5.8c0,0,7.1-4.5,17.1-1.6c0,0-5.5,8.4-2.3,14.8l0,0c0-1.9,0.3-4.5,1-7.4
				c1-5.2,3.2-8.4,5.5-10.3C332.1,327.4,325.6,324.8,319.2,327.4z"/>
			<path class="st70" d="M351.8,329.6c-3.9-2.6-9.7-3.9-14.2,0c-1,0.6-1.6,1.6-2.6,2.9c4.8-0.3,13.9-0.6,19.7,3.9
				C354.4,333.2,353.4,330.6,351.8,329.6z"/>
			<path class="st10" d="M354,370.3c0,0-8.7,2.6-25.5-0.3c-15.2-2.6-18.1-12.3-18.4-13.6c0,0,0,0,0.3,0c1.6,0,2.9-0.3,3.6-0.3
				c1.3,1,2.6,1.6,4.2,1.9l0,0c1.3,0.3,2.9,0.6,4.8,0.6c2.3,0,5.5-0.3,9-1c2.6,1.3,5.5,1.9,8.1,1.9c6.8,0,12.6-3.9,14.8-6.8
				c1.9-2.6,2.6-9.7,1.6-15.2c-0.3-2.6-1.3-7.4-3.9-9c-2.3-1.3-5.2-2.6-8.1-2.6l0,0c0,0-4.2-0.6-8.4,1.9c-2.9-1.6-10.3-4.8-17.8-1.9
				c0,0-0.6,0.3-1.3,0.6c-1.3-0.3-5.5-0.6-9.7,0.3c-1,0-1.6-0.3-2.6-0.3c-4.5-0.6-8.1-1.3-10.7-0.6l0,0c0,0-5.2,1.3-6.5,7.4
				c-1,5.8,0,10,8.1,13.2c0.6,3.9,2.9,7.1,7.1,8.4l0,0c1.3,0.6,2.6,1,4.2,1c0,0.3,0,0.3,0,0.6c0,0.6,2.6,12.6,20.7,15.8
				c6.1,1,11.3,1.6,15.5,1.6c7.4,0,11-1.3,11.3-1.3c0.6-0.3,1.3-1,1-1.6C355.3,370.6,354.7,370.3,354,370.3z M355.3,338
				c1,5.8,0.3,12.3-1.3,14.2c-2.9,3.6-11.9,9-21,4.5c-0.6-1.9-3.2-13.6,1.3-22.3c1-1.9,2.3-3.2,3.6-4.5c4.5-3.9,10.3-2.6,14.2,0
				C353.4,330.6,354.7,333.8,355.3,338z M319.2,327.4c6.5-2.6,12.9,0,16.1,1.6c-2.3,1.9-4.5,5.2-5.5,10.3c-1.9,10.3,0,15.5,1.6,17.4
				c-15.5,2.9-17.1-2.3-18.1-5.2c0-0.3-0.3-0.6-0.3-1c-0.6-1.9-1.6-11,1.3-17.4C315,330.3,316.9,328.3,319.2,327.4z M304.7,327.7
				c-2.3,1-5.5,3.2-7.1,8.1c-1,2.6-1.6,5.5-1.6,8.4c-1.6-0.6-3.6-1.9-4.8-3.9c-1-1.9-1.3-3.9-0.6-6.5
				C293,325.7,295.6,326.1,304.7,327.7z M301.1,352.2c-1.9-1.6-2.9-5.2-2.6-9.7c0.3-5.5,2.3-10.3,4.8-12.6c3.9-2.9,9.4-2.9,12.3-2.6
				c-2.6,1.9-5.5,6.1-6.1,13.6c-0.3,7.4,1,11.3,3.2,13.6C310.2,355.4,304.7,355.4,301.1,352.2z"/>
		</g>
		<g>
			<path class="st17" d="M294.3,336.7c-0.3,0-0.6,0-0.6,0c-4.2-0.3-7.1-4.5-6.5-9c0.3-2.3,1.3-4.2,2.9-5.5c1.6-1.3,3.6-1.9,5.5-1.9
				c1.9,0.3,3.9,1.3,4.8,2.9c1.3,1.6,1.6,3.9,1.6,5.8l0,0C301.4,333.5,297.9,336.7,294.3,336.7z M294.7,321.9
				c-1.3,0-2.6,0.6-3.9,1.6c-1.3,1.3-2.3,2.9-2.3,4.5c-0.3,3.6,1.9,7.1,5.2,7.4c3.2,0.3,6.5-2.3,6.8-6.1l0,0
				c0.3-1.9-0.3-3.6-1.3-4.8s-2.3-2.3-3.9-2.3C295,321.9,294.7,321.9,294.7,321.9z M301.1,329.3L301.1,329.3L301.1,329.3z"/>
			<path class="st18" d="M294.7,321.9c-1.3,0-2.6,0.6-3.9,1.6c-1.3,1.3-2.3,2.9-2.3,4.5c-0.3,3.6,1.9,7.1,5.2,7.4
				c3.2,0.3,6.5-2.3,6.8-6.1l0,0c0.3-1.9-0.3-3.6-1.3-4.8s-2.3-2.3-3.9-2.3C295,321.9,294.7,321.9,294.7,321.9z"/>
			<linearGradient id="SVGID_14_" gradientUnits="userSpaceOnUse" x1="301.9676" y1="302.7818" x2="356.047" y2="327.2116">
				<stop  offset="0" style="stop-color:#D05A45"/>
				<stop  offset="0.314" style="stop-color:#CA4F39"/>
				<stop  offset="0.9529" style="stop-color:#B93123"/>
				<stop  offset="1" style="stop-color:#B82E22"/>
			</linearGradient>
			<path class="st39" d="M285,331.5c1.3,0.3,16.5,2.3,45.5,2.6c0,0,7.7-0.6,10.3-1.3c2.3-0.6,22.9-8.1,30-10.7c0-0.3,0-1,0-1.3
				c0-10.3-3.9-13.9-3.9-13.9l-0.3-0.3c-0.3-1.3-1-3.2-1.3-3.6c-0.6-1.6-1.3-2.9-1.6-4.2c-1.3-2.3-2.9-5.2-5.8-7.1
				c-2.6-1.6-5.8-2.9-9.4-3.6c-6.1-1.3-13.9-1.6-21.6-1c-14.8,1-28.1,13.2-32,17.8c-0.3,0.3-0.6,1-1.3,1.6l-0.3,0.3
				c0,0-11.3,3.2-13.2,9C279.2,320.3,278.2,328,285,331.5z"/>
			<g>
				<path class="st20" d="M280.5,316.1c-1.3,4.2-2.3,12.3,4.5,15.5c0.3,0,1.6,0.3,3.9,0.6c0-0.6-0.3-1.3-0.3-1.6
					c-1.3-4.2,8.4-5.8,11.3-5.8c-1.9,0-8.7,0.3-11.9-5.2c-3.6-6.5,5.8-12.3,5.8-12.3C293.4,307,282.1,310.2,280.5,316.1z"/>
				<path class="st20" d="M327.3,287.3c-14.8,1-28.1,13.2-32,17.8c-0.3,0.3-0.6,1-1.3,1.6l-0.3,0.3l23.6-11.3l1.9-3.6
					c4.5-1.6,13.6-4.5,24.5-4.5C338.6,287,333.1,287,327.3,287.3z"/>
			</g>
			<path class="st21" d="M357.3,325.7c-0.3,0-0.3-0.3-0.3-0.3v-19.4c0-0.3,0.3-0.3,0.3-0.3l0.3,0.3v19
				C357.6,325.4,357.6,325.7,357.3,325.7z"/>
			<path class="st22" d="M330.8,335.4c-30.7,0-45.8-2.6-45.8-2.6s0,0-0.3,0c-5.8-2.9-7.7-9-5.5-17.4c1.9-6.1,12.3-9.4,13.9-9.7
				c0.3-0.3,1-1,1-1.3c3.9-4.8,17.8-17.4,32.9-18.4c8.1-0.6,15.8-0.3,21.9,1c3.9,0.6,7.1,1.9,9.7,3.6c2.9,1.9,4.8,5.2,6.1,7.4
				c0.6,1.3,1.3,2.6,1.9,4.2c0.3,0.6,1,2.3,1.3,3.6c0.6,1,4.2,4.8,4.2,14.8c0,0.6,0,1.3,0,1.9c0,0.3-0.3,0.6-0.3,0.6
				c-8.4,2.9-28.4,10.3-30.7,10.7C338.6,334.8,331.1,335.4,330.8,335.4z M285,331.5c1.3,0.3,16.5,2.3,45.5,2.6c0,0,7.7-0.6,10.3-1.3
				c2.3-0.6,22.9-8.1,30-10.7c0-0.3,0-1,0-1.3c0-10.3-3.9-13.9-3.9-13.9l-0.3-0.3c-0.3-1.3-1-3.2-1.3-3.6c-0.6-1.6-1.3-2.9-1.6-4.2
				c-1.3-2.3-2.9-5.2-5.8-7.1c-2.6-1.6-5.8-2.9-9.4-3.6c-6.1-1.3-13.9-1.6-21.6-1c-14.8,1-28.1,13.2-32,17.8c-0.3,0.3-0.6,1-1.3,1.6
				l-0.3,0.3c0,0-11.3,3.2-13.2,9C279.2,320.3,278.2,328,285,331.5z M371.5,322.8L371.5,322.8L371.5,322.8z"/>
			<path class="st21" d="M321.8,325.1c-14.5,0-32.3-1-36.1-1.6c-5.2-1-5.5-3.9-5.5-3.9c0-0.3,0-0.6,0.3-0.6c0.3,0,0.6,0,0.6,0.3
				c0,0,0.3,2.6,4.8,3.2c4.8,1,33.2,2.3,47.8,1.3c0.3,0,0.3,0.3,0.6,0.3c0,0.3-0.3,0.3-0.3,0.6C330.2,325.1,326,325.1,321.8,325.1z"
				/>
			<path class="st23" d="M282.7,319.3C282.7,319.3,282.4,319.3,282.7,319.3c-1.6-0.3-1.9-1.9-1.6-3.9s1.6-3.2,2.9-2.9
				c1.3,0.3,1.6,1.9,1.3,3.9l0,0C284.7,318,283.7,319.3,282.7,319.3z M283.4,313.5c-0.6,0-1.3,1-1.6,2.3c-0.3,1.3,0,2.6,0.6,2.6
				c0.6,0,1.3-0.6,1.6-2.3l0,0C284.7,314.8,284,313.5,283.4,313.5C283.7,313.5,283.7,313.5,283.4,313.5z M284.7,316.1L284.7,316.1
				L284.7,316.1z"/>
			<path class="st23" d="M322.4,321.9c-0.3,0-0.3,0-0.6,0c-1-0.3-1.6-0.6-1.9-1.6s-0.6-1.9-0.3-2.9c0.3-1,0.6-1.9,1.3-2.3
				c0.6-0.6,1.6-1,2.3-0.6c1,0.3,1.6,0.6,1.9,1.6c0.3,1,0.6,1.9,0.3,2.9l0,0C325.3,320.6,323.7,321.9,322.4,321.9z M322.7,315.4
				c-0.3,0-1,0.3-1.3,0.6c-0.6,0.3-1,1-1,1.9c-0.3,0.6,0,1.6,0.3,2.3s0.6,1,1.3,1c1.3,0.3,2.3-0.6,2.6-2.3c0.3-0.6,0-1.6-0.3-2.3
				c-0.3-0.6-0.6-1-1.3-1C323.1,315.4,323.1,315.4,322.7,315.4z M325.3,318.6L325.3,318.6L325.3,318.6z"/>
			<path class="st24" d="M333.4,308L333.4,308c-0.3,0-28.1,0-37.4-1.3c0,0-0.3,0-0.3-0.3v-0.3c0,0,5.8-8.4,19.7-15.2c0,0,0,0,0.3,0
				c0,0,12.6-0.3,23.9,1c0,0,0.3,0,0.3,0.3v0.3c0,0-5.2,8.1-6.1,15.2C333.7,307.7,333.7,308,333.4,308z M296.9,306.1
				c9.4,1,33.2,1,36.1,1.3c1-6.1,4.5-12.6,5.8-14.5c-10.3-1-21.9-1-22.9-1C304,297.3,298.2,304.1,296.9,306.1z"/>
			<path class="st24" d="M336.6,308L336.6,308c-0.3-0.3-0.3-0.3-0.3-0.3c0-0.6,2.6-15.5,11.6-16.8c9-1.3,13.2,5.8,13.2,5.8
				c0,0.3,2.9,4.8,3.6,7.1v0.3l-0.3,0.3C363.4,304.4,340.2,308,336.6,308z M350.2,291.5c-0.6,0-1.3,0-1.9,0
				c-7.7,1-10.3,12.9-11,15.5c4.2-0.3,23.6-3.2,26.8-3.6c-1-2.3-3.6-6.5-3.6-6.5C360.2,296.7,357.3,291.5,350.2,291.5z"/>
			<path class="st21" d="M340.5,323.2L340.5,323.2c-0.3,0-0.6-0.3-0.3-0.6c0.3-2.6-0.6-13.6-0.6-13.6c0-0.3,0.3-0.3,0.3-0.6
				c0.3,0,0.3,0.3,0.6,0.3c0,0.3,0.6,11.3,0.6,13.9C340.8,322.8,340.8,323.2,340.5,323.2z"/>
			<path class="st21" d="M352.1,328c-0.3,0-0.3,0-0.3-0.3c0-0.3,0-0.6,0.3-0.6l7.4-2.9c0.3,0,0.6,0,0.6,0.3c0,0.3,0,0.6-0.3,0.6
				L352.1,328L352.1,328z"/>
			<path class="st25" d="M296.9,306.1c9.4,1,33.2,1,36.1,1.3c1-6.1,4.5-12.6,5.8-14.5c-10.3-1-21.9-1-22.9-1
				C304,297.3,298.2,304.1,296.9,306.1z"/>
			<path class="st25" d="M350.2,291.5c-0.6,0-1.3,0-1.9,0c-7.7,1-10.3,12.9-11,15.5c4.2-0.3,23.6-3.2,26.8-3.6
				c-1-2.3-3.6-6.5-3.6-6.5C360.2,296.7,357.3,291.5,350.2,291.5z"/>
			<path class="st26" d="M283.4,313.5c-0.6,0-1.3,1-1.6,2.3c-0.3,1.3,0,2.6,0.6,2.6c0.6,0,1.3-0.6,1.6-2.3l0,0
				C284.7,314.8,284,313.5,283.4,313.5C283.7,313.5,283.7,313.5,283.4,313.5z"/>
			<path class="st26" d="M322.7,315.4c-0.3,0-1,0.3-1.3,0.6c-0.6,0.3-1,1-1,1.9c-0.3,0.6,0,1.6,0.3,2.3s0.6,1,1.3,1
				c1.3,0.3,2.3-0.6,2.6-2.3c0.3-0.6,0-1.6-0.3-2.3c-0.3-0.6-0.6-1-1.3-1C323.1,315.4,323.1,315.4,322.7,315.4z"/>
			<path class="st27" d="M341.1,332.8c2.3-0.6,22.9-8.1,30-10.7c0-0.3,0-1,0-1.3c0-10.3-3.9-13.9-3.9-13.9l-0.3-0.3
				c-0.3-1.3-1-3.2-1.3-3.6c-0.6-1.6-1.3-2.9-1.6-4.2c0,0,0-0.3-0.3-0.3c0.6,5.5,1.6,13.2,0.3,15.8c0,0-5.2,0.6-6.1,9l-5.2,1.9
				l-2.3,1l-7.7-3.2c0,0-4.8-0.3-6.8,5.5c0,0-30.3,3.2-51.6,2.3c0.3,0.3,0.6,0.3,1,0.6c1.3,0.3,16.5,2.3,45.5,2.6
				C330.8,334.1,338.2,333.5,341.1,332.8z"/>
			<path class="st28" d="M320.5,307c6.1,0,11,0,12.6,0c0.6-3.9,2.3-8.1,3.6-11C333.4,299.9,327.9,304.8,320.5,307z"/>
			<path class="st29" d="M303.4,299.3c-1.9,1.6-3.2,2.9-4.5,4.2l39.4-10c0.3-0.3,0.3-0.6,0.6-1c-3.9-0.3-7.7-0.6-11.6-0.6
				C321.1,293.8,309.5,297.3,303.4,299.3z"/>
			<path class="st28" d="M364.1,303.5c-1-2.3-3.6-6.5-3.6-6.5s-0.3-0.6-1-1.3l-7.4,9.4C357.6,304.4,362.4,303.8,364.1,303.5z"/>
			<path class="st29" d="M351.1,291.5l-12.3,10.3c-1,2.3-1.3,4.2-1.3,5.2c0.3,0,0.6,0,1.3,0l16.5-14.5
				C353.7,291.9,352.4,291.5,351.1,291.5z"/>
			<line class="st30" x1="356.6" y1="293.1" x2="357.3" y2="304.4"/>
			<path class="st17" d="M344,339.3c-0.3,0-0.6,0-0.6,0c-4.2-0.3-7.1-4.5-6.5-9c0.3-2.3,1.3-4.2,2.9-5.5c1.6-1.3,3.6-1.9,5.5-1.9
				c1.9,0.3,3.9,1.3,4.8,2.9c1.3,1.6,1.6,3.9,1.6,5.8l0,0C351.1,336.1,347.9,339.3,344,339.3z M344.4,324.4c-1.3,0-2.6,0.6-3.9,1.6
				c-1.3,1.3-2.3,2.9-2.3,4.5c-0.3,3.6,1.9,7.1,5.2,7.4c3.2,0.3,6.5-2.3,6.8-6.1l0,0c0.3-1.9-0.3-3.6-1.3-4.8s-2.3-2.3-3.9-2.3
				C345,324.4,344.7,324.4,344.4,324.4z M351.1,331.9L351.1,331.9L351.1,331.9z"/>
			<path class="st18" d="M344.4,324.4c-1.3,0-2.6,0.6-3.9,1.6c-1.3,1.3-2.3,2.9-2.3,4.5c-0.3,3.6,1.9,7.1,5.2,7.4
				c3.2,0.3,6.5-2.3,6.8-6.1l0,0c0.3-1.9-0.3-3.6-1.3-4.8s-2.3-2.3-3.9-2.3C345,324.4,344.7,324.4,344.4,324.4z"/>
			<path class="st31" d="M346.9,336.4c-1.6,0-2.9-2.3-2.9-5.5s1.3-5.5,2.9-5.5c1.6,0,2.9,2.3,2.9,5.5S348.6,336.4,346.9,336.4z
				 M346.9,326.4c-1,0-1.9,1.9-1.9,4.5c0,2.6,1,4.5,1.9,4.5c1,0,1.9-1.9,1.9-4.5C348.9,328.3,347.9,326.4,346.9,326.4z"/>
			<path class="st17" d="M366,330.9c-0.3,0-0.3,0-0.6,0c-3.2-0.3-5.8-3.9-5.2-8.1c0.3-1.9,1-3.9,2.3-5.2s2.9-1.9,4.5-1.6
				c1.6,0.3,3.2,1.3,4.2,2.6c1,1.6,1.3,3.6,1.3,5.5c-0.3,1.9-1,3.9-2.3,5.2C368.9,330.3,367.3,330.9,366,330.9z M366.3,317.3
				c-1,0-2.3,0.6-3.2,1.3c-1,1-1.6,2.6-1.9,4.2c-0.3,3.2,1.6,6.5,4.2,6.8c1.3,0,2.6-0.3,3.6-1.3c1-1,1.6-2.6,1.9-4.2l0,0
				c0.3-1.6,0-3.2-1-4.5c-0.6-1.3-1.9-1.9-3.2-2.3C366.6,317.3,366.6,317.3,366.3,317.3z"/>
			<path class="st18" d="M366.3,317.3c-1,0-2.3,0.6-3.2,1.3c-1,1-1.6,2.6-1.9,4.2c-0.3,3.2,1.6,6.5,4.2,6.8c1.3,0,2.6-0.3,3.6-1.3
				c1-1,1.6-2.6,1.9-4.2l0,0c0.3-1.6,0-3.2-1-4.5c-0.6-1.3-1.9-1.9-3.2-2.3C366.6,317.3,366.6,317.3,366.3,317.3z"/>
			<path class="st31" d="M368.2,328c-1.3,0-2.6-1.9-2.6-4.5s1-4.5,2.6-4.5c1.6,0,2.6,1.9,2.6,4.5C370.5,326.1,369.5,328,368.2,328z
				 M368.2,319.6c-1,0-1.9,1.6-1.9,3.9c0,1.9,1,3.9,1.9,3.9s1.9-1.6,1.9-3.9C370.2,321.2,369.2,319.6,368.2,319.6z"/>
			<path class="st32" d="M346.9,326.4c-1,0-1.9,1.9-1.9,4.5c0,2.6,1,4.5,1.9,4.5c1,0,1.9-1.9,1.9-4.5
				C348.9,328.3,347.9,326.4,346.9,326.4z"/>
			<path class="st32" d="M368.2,319.6c-1,0-1.9,1.6-1.9,3.9c0,1.9,1,3.9,1.9,3.9s1.9-1.6,1.9-3.9
				C370.2,321.2,369.2,319.6,368.2,319.6z"/>
			<ellipse class="st18" cx="346.6" cy="331.2" rx="0.6" ry="1.9"/>
			<ellipse class="st18" cx="367.6" cy="323.5" rx="0.6" ry="1.9"/>
			<path class="st33" d="M293.7,307c0,0-6.8,3.9-3.9,15.5"/>
			<path class="st33" d="M305.6,323.2c0,0,7.4-14.2,26.5-14.8"/>
			<path class="st21" d="M340.2,309.6h-0.3c-1,0-1.6-0.6-2.3-1.3l-1.9,0.3h-0.3v-0.3l0.6-2.6c0,0,0-0.3,0.3-0.3h0.3
				c0-1,0.6-1.9,1.3-2.6c0.6-0.6,1.6-1,2.6-1l0,0c1,0,1.9,0.6,2.3,1.6c0.6,1,1,1.9,0.6,2.9c0,1-0.6,1.9-1.3,2.6
				C341.8,309.3,341.1,309.6,340.2,309.6z M337.6,307.7C337.9,307.7,337.9,307.7,337.6,307.7c0.6,1,1.3,1.3,2.3,1.3
				c0.6,0,1.6,0,1.9-0.6c0.6-0.6,1-1.3,1-2.3c0-1,0-1.6-0.6-2.3c-0.3-0.6-1-1-1.9-1.3l0,0c-0.6,0-1.6,0-1.9,0.6
				c-0.6,0.6-1,1.3-1,2.3l0,0l0,0c0,0.3,0,0.3-0.3,0.3l-0.3,0.3L336,308L337.6,307.7L337.6,307.7z"/>
			<linearGradient id="SVGID_15_" gradientUnits="userSpaceOnUse" x1="336.1301" y1="305.7304" x2="343.1159" y2="305.7304">
				<stop  offset="0" style="stop-color:#D05A45"/>
				<stop  offset="0.314" style="stop-color:#CA4F39"/>
				<stop  offset="0.9529" style="stop-color:#B93123"/>
				<stop  offset="1" style="stop-color:#B82E22"/>
			</linearGradient>
			<path class="st40" d="M337.6,307.7C337.9,307.7,337.9,307.7,337.6,307.7c0.6,1,1.3,1.3,2.3,1.3c0.6,0,1.6,0,1.9-0.6
				c0.6-0.6,1-1.3,1-2.3c0-1,0-1.6-0.6-2.3c-0.3-0.6-1-1-1.9-1.3l0,0c-0.6,0-1.6,0-1.9,0.6c-0.6,0.6-1,1.3-1,2.3l0,0l0,0
				c0,0.3,0,0.3-0.3,0.3l-0.3,0.3L336,308L337.6,307.7L337.6,307.7z"/>
		</g>
	</g>
</g>
</svg>
