<?xml version="1.0" encoding="utf-8"?>
<!-- Generator: Adobe Illustrator 21.0.0, SVG Export Plug-In . SVG Version: 6.00 Build 0)  -->
<svg version="1.1" id="圖層_1" xmlns="http://www.w3.org/2000/svg" xmlns:xlink="http://www.w3.org/1999/xlink" x="0px" y="0px"
	 viewBox="0 0 822.9 601.4" style="enable-background:new 0 0 822.9 601.4;" xml:space="preserve">
<style type="text/css">
	.st0{fill:url(#SVGID_1_);}
	.st1{fill:#E1BE3F;}
	.st2{fill:#AB6C21;}
	.st3{opacity:0.6;fill:#E1BE3F;enable-background:new    ;}
	.st4{fill:url(#SVGID_2_);}
	.st5{fill:url(#SVGID_3_);}
	.st6{opacity:0.8;fill:#2F2A28;}
	.st7{fill:none;stroke:#504744;stroke-width:0.5163;stroke-miterlimit:10;}
	.st8{opacity:0.5;fill:#2F2A28;}
	.st9{fill:#231815;}
	.st10{fill:url(#SVGID_4_);}
	.st11{opacity:0.5;fill:#5E4328;}
	.st12{fill:#CCA46B;}
	.st13{fill:#332212;}
	.st14{fill:url(#SVGID_5_);}
	.st15{fill:#FFFFFF;}
	.st16{fill:#E4E2DE;}
	.st17{fill:#C3B6A7;}
	.st18{fill:url(#SVGID_6_);}
	.st19{fill:#CCA76E;}
	.st20{fill:url(#SVGID_7_);}
	.st21{fill:#966231;}
	.st22{fill:url(#SVGID_8_);}
	.st23{fill:url(#SVGID_9_);}
	.st24{fill:url(#SVGID_10_);}
	.st25{fill:url(#SVGID_11_);}
	.st26{fill:url(#SVGID_12_);}
	.st27{fill:#BB8B4C;}
	.st28{fill:#532F17;}
	.st29{fill:#81522A;}
	.st30{fill:#67583F;}
	.st31{fill:#9B8669;}
	.st32{opacity:0.4;fill:#AC7646;}
	.st33{opacity:0.3;}
	.st34{fill:#AC7646;}
	.st35{opacity:0.3;fill:#AC7646;}
	.st36{opacity:0.4;}
	.st37{fill:#C9A474;}
</style>
<g>
	<g>
		<linearGradient id="SVGID_1_" gradientUnits="userSpaceOnUse" x1="348.9006" y1="476.0634" x2="544.5291" y2="476.0634">
			<stop  offset="0" style="stop-color:#2F2A28"/>
			<stop  offset="1" style="stop-color:#110706"/>
		</linearGradient>
		<path class="st0" d="M348.9,423.8c0,0-0.3,64,19.7,101.3c0,0,42.4,6.5,76,0.9l2-59.4l2.4,59.1c0,0,47.4,5.6,75.6-0.7
			c0,0,23-55.3,19.6-98.6l-122.9,4l-30.9-2.1L348.9,423.8z"/>
		<path class="st6" d="M544,426.6l0.4-2c0,0-7.5,0-19.5,0l-2.3,7.4c0,0-10.1,77.8-17.5,95.7c10.4-1,9-0.1,19.6-2.5
			c19.9-42,19.6-98.6,19.6-98.6L544,426.6z"/>
		<path class="st7" d="M538.4,428.6c0,0-4.9,52.5-18.2,97.2"/>
		<path class="st7" d="M355.1,428.6c0,0,2.8,60.4,19.8,97.9"/>
		<path class="st8" d="M427.9,528.3c0,0,13.8-6.2,18.7-65.1c0,0,6.4,59.1,15.1,64.3l-12.7-1.5l-1.8-53.5l-2.5,52.7L427.9,528.3z"/>
		<path class="st8" d="M440.2,443.6l1.8,15.6l5.2,4.6c0,0-4.3-16.8-4-20.2H440.2z"/>
		<path class="st8" d="M453.5,443l-1.8,15.6l-5.2,4.6c0,0,4.3-16.8,4-20.2H453.5z"/>
		<path class="st9" d="M482.6,529.3c-10.4,0-22.1-0.6-34.1-2.1c-0.5-0.1-0.9-0.5-0.9-1l-1-31.7l-1,31.7c0,0.5-0.4,1-0.9,1
			c-40.4,5.3-75.9-0.9-76.3-1c-0.3-0.1-0.6-0.3-0.7-0.6c-22.2-50.4-19.5-98.9-19.5-99.4c0-0.6,0.5-1,1.1-1c0.6,0,1,0.5,0.9,1.1
			c0,0.5-2.6,48.1,19.1,97.8c4.5,0.7,37.3,5.7,74.3,1l2-62c0-0.6,0.5-1,1-1s1,0.5,1,1l2,62c37.1,4.7,69.9-0.2,74.3-1
			c21.7-49.7,19.1-97.4,19.1-97.8c0-0.6,0.4-1.1,0.9-1.1c0.5,0,1,0.4,1.1,1c0,0.5,2.7,49-19.5,99.4c-0.1,0.3-0.4,0.5-0.7,0.6
			C524.5,526.2,507,529.3,482.6,529.3z M524.6,525.1L524.6,525.1L524.6,525.1z"/>
	</g>
	<g>
		<g>
			<linearGradient id="SVGID_2_" gradientUnits="userSpaceOnUse" x1="350.9179" y1="553.4022" x2="447.3861" y2="553.4022">
				<stop  offset="0" style="stop-color:#7F5B37"/>
				<stop  offset="1" style="stop-color:#5E4328"/>
			</linearGradient>
			<path class="st4" d="M446.9,557.9c-0.1-0.2-0.2-0.4-0.4-0.4c0.3-6.7,0.9-21.7,0-29.5l0.1-3.5c0-0.2-0.1-0.5-0.3-0.6
				c-0.2-0.1-0.4-0.2-0.7-0.1c-2.2,0.6-32.7,1.4-40,1.2c-1.2-2.2-3.6-2.4-3.7-2.4c0,0-3.5-0.1-8.2-0.4c-4.7-0.3-6.7,1.5-7,1.8
				c-4.9-0.3-13.5-0.9-15.2-1l0,0c-0.1,0-0.2,0-0.3,0c-1,0.1-1.6,0.8-1.6,0.8c-2.5,2.2-4.9,4.6-7.1,7c-4.6,5-9.5,10.2-11,17.1
				c-2.2,9.4,2.7,21.8,3.5,23.9c-0.3,0.9-1,3.3,0.1,6.7c0.1,0.2,0.3,0.4,0.5,0.5c0.2,0.1,20,5.9,44.5,5.9c2.3,0,4.7-0.1,7.1-0.2
				c29.4-1.4,37.5-10.8,39.6-14.8c0-0.1,0.1-0.2,0.1-0.3C447,569.2,448,561,446.9,557.9z"/>
			<path class="st11" d="M446.4,557.5c0.3-6.7,0.9-21.7,0-29.5l0.1-3.5c0-0.2-0.1-0.5-0.3-0.6c-0.2-0.1-0.4-0.2-0.7-0.1
				c-0.1,0-0.3,0.1-0.6,0.1l-0.2,1.7l-0.8-0.7c0,0,3.2,36.6-28.6,52.4l12.3,4.5c13.1-3.5,17.6-9,19.1-11.9c0-0.1,0.1-0.2,0.1-0.3
				c0-0.3,1.1-8.5,0-11.6C446.8,557.7,446.6,557.6,446.4,557.5z"/>
			<path class="st11" d="M445.6,527l0.2-3.3c0,0-0.1,0-0.1,0c-2.2,0.6-32.7,1.4-40,1.2c-1.2-2.2-3.6-2.4-3.7-2.4
				c0,0-3.5-0.1-8.2-0.4c-4.7-0.3-6.7,1.5-7,1.8c-4.9-0.3-13.5-0.9-15.2-1l0,0c-0.1,0-0.2,0-0.3,0h0c0,0,0,0,0,0
				c-0.7,0-1.2,0.4-1.4,0.7l0.1,0C369.9,523.6,381.8,531.9,445.6,527z"/>
			<path class="st12" d="M359.8,535.5c-3.5,3.4-7.5,11.7-8.6,16.1c-1.5,6.6,3.4,15.5,5,20.2l10.4,2.3
				C355.6,564.4,355.5,543.8,359.8,535.5z"/>
			<path class="st12" d="M359,558.2c0,0-2.5-5,2.7-4.4s4.3,1.1,4,3c-0.3,1.9-2.1,4.7-3.2,4.4C361.4,560.9,359,558.2,359,558.2z"/>
			<path class="st12" d="M367.6,556.8c0,0,7.1,3.4,34.3,3.6c0,0-18.9,3.5-35.1-0.1L367.6,556.8z"/>
			<path class="st11" d="M366.6,574c-11.3-5-14.2-21.3-14.2-21.3l-1.2,1l-0.3,0.4c0.2,7.9,3.4,16,4.1,17.6c-0.3,0.9-1,3.3,0.1,6.7
				c0.1,0.2,0.3,0.4,0.5,0.5c0.1,0,4.1,1.2,10.7,2.5L366.6,574z"/>
			<path class="st12" d="M436.4,568.6c-0.1,0-0.1-0.1-0.1-0.1c0-0.1-1.5-12.8-7.8-18.7c-7-6.7-15.9-13.3-39.2-14.1
				c-24-0.8-34.6,8.5-34.7,8.6c-0.1,0.1-0.2,0-0.2,0c-0.1-0.1-0.1-0.2,0-0.2c0.1-0.1,10.8-9.5,34.9-8.7c23.4,0.8,32.3,7.4,39.4,14.2
				c6.3,6,7.9,18.8,7.9,18.9C436.6,568.5,436.5,568.6,436.4,568.6C436.4,568.6,436.4,568.6,436.4,568.6z"/>
			<path class="st12" d="M400.6,527.2c0,0-1.9,6.7,0.5,8.2l-3.6-0.7L400.6,527.2z"/>
			<path class="st12" d="M390.7,526.5l-2.8,7.9h-3.5C384.5,534.5,390.2,529.2,390.7,526.5z"/>
			<polygon class="st11" points="391.7,525.3 400.9,526.3 397.5,534.7 387.9,534.5 			"/>
			<path class="st13" d="M400.1,584.7c-24.5,0-44.3-5.8-44.5-5.9c-0.2-0.1-0.4-0.3-0.5-0.5c-1.3-4.2,0-6.9,0-7
				c0.2-0.4,0.6-0.5,1-0.3c0.4,0.2,0.5,0.6,0.3,1c0,0-1,2.2-0.1,5.5c3.2,0.9,25.2,6.8,50.7,5.6c28.3-1.4,36.2-10,38.3-13.9
				c0.3-2.4,0.8-8.5,0-10.8c-0.1-0.4,0.1-0.8,0.4-1c0.4-0.1,0.8,0.1,1,0.4c1.1,3.1,0.1,11.3,0,11.6c0,0.1,0,0.2-0.1,0.3
				c-2.1,4-10.3,13.4-39.6,14.8C404.8,584.7,402.4,584.7,400.1,584.7z"/>
			<path class="st13" d="M388.1,534.7c-0.1,0-0.2,0-0.3-0.1c-0.4-0.2-0.5-0.6-0.3-1c0.7-1.3,2.5-5,2.6-6.4c0.1-1.1-0.5-1.5-0.8-1.6
				c-3.8-0.1-17.5-1.1-18.1-1.2c-0.4,0-0.7-0.4-0.7-0.8c0-0.4,0.4-0.7,0.8-0.7c0.1,0,14.7,1.1,18.2,1.2c0.1,0,0.2,0,0.2,0
				c0.7,0.3,2,1.3,1.8,3.2c-0.1,2-2.5,6.5-2.7,7C388.6,534.6,388.3,534.7,388.1,534.7z"/>
			<path class="st13" d="M397.5,535.2c-0.1,0-0.2,0-0.3-0.1c-0.4-0.2-0.6-0.6-0.4-1l2.9-7.1c0-0.1,0.9-2.3,5.1-2.1
				c5.2,0.2,38.6-0.6,40.9-1.2c0.2-0.1,0.5,0,0.7,0.1c0.2,0.1,0.3,0.4,0.3,0.6l-0.1,3.9c0,0.4-0.3,0.7-0.8,0.7
				c-0.4,0-0.7-0.4-0.7-0.8l0.1-3c-6.2,0.6-36.2,1.3-40.4,1.1c-3-0.1-3.6,1.1-3.6,1.2l-2.9,7.1C398.1,535,397.8,535.2,397.5,535.2z"
				/>
			<path class="st13" d="M438.2,569.6c-0.2,0-0.5-0.2-0.5-0.4c-1.6-13.2-7-29-34.8-33.1c-33.9-5-47.6,6.5-47.8,6.6
				c-0.2,0.2-0.5,0.2-0.7,0c-0.2-0.2-0.2-0.5,0-0.7c0.6-0.5,14.2-12,48.6-6.8c28.5,4.2,34,20.4,35.6,34
				C438.7,569.3,438.5,569.6,438.2,569.6C438.2,569.6,438.2,569.6,438.2,569.6z"/>
			<path class="st13" d="M446.3,526.4c-0.1-0.4-0.4-0.7-0.9-0.6l-0.4,2.9c0.9,9.8-0.2,30.2-0.3,32c-2.3,5.7-10.9,10.9-10.9,10.9
				c-28,12.8-73.1,0.8-77.5-0.5c-0.9-2.1-5.5-14.2-3.4-22.9c2.1-9.2,16.3-22,17.6-23.2c0.4-0.2,0.8-0.3,1.2-0.4l0.3-1l-2.1,0.1
				c-0.1,0-0.2,0.1-0.2,0.1c-0.6,0.6-15.8,14.1-18.2,24.1c-2.3,10,3.4,23.6,3.6,24.2c0.1,0.2,0.3,0.4,0.5,0.4
				c0.3,0.1,22.4,6.4,45.9,6.4c11.5,0,23.3-1.5,33.1-6c0.4-0.2,9.3-5.5,11.6-11.8c0-0.1,0-0.1,0-0.2
				C446.3,559.8,447.7,535.4,446.3,526.4z"/>
			<path class="st13" d="M369.6,523.7c0,0,0.6-0.9,1.8-0.9l1.2,0.9l-0.2,0.7c0,0-1.3,0-2.6,1l0-1L369.6,523.7z"/>
			<path class="st13" d="M405.2,526.4c-0.3,0-0.6-0.2-0.7-0.5c-0.8-1.8-2.6-2-2.6-2l0,0c0,0-3.5-0.1-8.2-0.4
				c-4.3-0.3-5.8,1.3-5.8,1.4c-0.3,0.3-0.7,0.3-1.1,0.1c-0.3-0.3-0.3-0.7-0.1-1c0.1-0.1,2-2.2,7.1-1.9c4.7,0.3,8.2,0.4,8.2,0.4
				c0.1,0,2.8,0.2,3.9,2.9c0.2,0.4,0,0.8-0.4,1C405.4,526.4,405.3,526.4,405.2,526.4z"/>
			<path class="st13" d="M407,535.4c-0.1,0-0.3,0-0.4-0.1c-6.4-3-22.6-6.1-22.8-6.1c-0.5-0.1-0.9-0.6-0.8-1.2
				c0.1-0.5,0.6-0.9,1.2-0.8c0.7,0.1,16.6,3.2,23.2,6.2c0.5,0.2,0.7,0.8,0.5,1.3C407.7,535.2,407.3,535.4,407,535.4z"/>
			<path class="st13" d="M382.6,533.2c-0.5,0-0.9-0.3-1-0.8c-0.1-0.5,0.2-1.1,0.8-1.2c0.6-0.1,15.2-3.2,24.5-3.5c0,0,0,0,0,0
				c0.5,0,1,0.4,1,1c0,0.6-0.4,1-1,1c-9.1,0.3-24,3.4-24.2,3.4C382.7,533.2,382.7,533.2,382.6,533.2z"/>
		</g>
		<g>
			
				<linearGradient id="SVGID_3_" gradientUnits="userSpaceOnUse" x1="1864.5049" y1="553.4022" x2="1960.973" y2="553.4022" gradientTransform="matrix(-1 0 0 1 2409.1021 0)">
				<stop  offset="0" style="stop-color:#7F5B37"/>
				<stop  offset="1" style="stop-color:#5E4328"/>
			</linearGradient>
			<path class="st5" d="M448.6,569.6c0,0.1,0,0.2,0.1,0.3c2.1,4,10.3,13.4,39.6,14.8c2.4,0.1,4.8,0.2,7.1,0.2
				c24.5,0,44.3-5.8,44.5-5.9c0.2-0.1,0.4-0.3,0.5-0.5c1.1-3.4,0.4-5.8,0.1-6.7c0.9-2.1,5.7-14.5,3.5-23.9
				c-1.6-6.8-6.4-12.1-11-17.1c-2.3-2.4-4.6-4.8-7.1-7c0,0-0.5-0.8-1.6-0.8c-0.1,0-0.2,0-0.3,0l0,0c-1.7,0.1-10.3,0.7-15.2,1
				c-0.3-0.4-2.3-2.1-7-1.8c-4.7,0.3-8.2,0.4-8.2,0.4c-0.1,0-2.5,0.2-3.7,2.4c-7.3,0.1-37.9-0.7-40-1.2c-0.2-0.1-0.5,0-0.7,0.1
				c-0.2,0.1-0.3,0.4-0.3,0.6l0.1,3.5c-0.8,7.8-0.3,22.8,0,29.5c-0.2,0.1-0.3,0.2-0.4,0.4C447.5,561,448.6,569.2,448.6,569.6z"/>
			<path class="st11" d="M449.1,557.5c-0.3-6.7-0.9-21.7,0-29.5l-0.1-3.5c0-0.2,0.1-0.5,0.3-0.6c0.2-0.1,0.4-0.2,0.7-0.1
				c0.1,0,0.3,0.1,0.6,0.1l0.2,1.7l0.8-0.7c0,0-3.2,36.6,28.6,52.4l-12.3,4.5c-13.1-3.5-17.6-9-19.1-11.9c0-0.1-0.1-0.2-0.1-0.3
				c0-0.3-1.1-8.5,0-11.6C448.7,557.7,448.9,557.6,449.1,557.5z"/>
			<path class="st11" d="M449.9,527l-0.2-3.3c0,0,0.1,0,0.1,0c2.2,0.6,32.7,1.4,40,1.2c1.2-2.2,3.6-2.4,3.7-2.4c0,0,3.5-0.1,8.2-0.4
				c4.7-0.3,6.7,1.5,7,1.8c4.9-0.3,13.5-0.9,15.2-1l0,0c0.1,0,0.2,0,0.3,0h0c0,0,0,0,0,0c0.7,0,1.2,0.4,1.4,0.7l-0.1,0
				C525.7,523.6,513.7,531.9,449.9,527z"/>
			<path class="st12" d="M535.7,535.5c3.5,3.4,7.5,11.7,8.6,16.1c1.5,6.6-3.4,15.5-5,20.2l-10.4,2.3
				C539.9,564.4,540,543.8,535.7,535.5z"/>
			<path class="st12" d="M536.5,558.2c0,0,2.5-5-2.7-4.4s-4.3,1.1-4,3c0.3,1.9,2.1,4.7,3.2,4.4C534.1,560.9,536.5,558.2,536.5,558.2
				z"/>
			<path class="st12" d="M527.9,556.8c0,0-7.1,3.4-34.3,3.6c0,0,18.9,3.5,35.1-0.1L527.9,556.8z"/>
			<path class="st11" d="M528.9,574c11.3-5,14.2-21.3,14.2-21.3l1.2,1l0.3,0.4c-0.2,7.9-3.4,16-4.1,17.6c0.3,0.9,1,3.3-0.1,6.7
				c-0.1,0.2-0.3,0.4-0.5,0.5c-0.1,0-4.1,1.2-10.7,2.5L528.9,574z"/>
			<path class="st12" d="M459.1,568.6C459.1,568.6,459.1,568.6,459.1,568.6c-0.1,0-0.2-0.1-0.1-0.2c0-0.1,1.6-12.9,7.9-18.9
				c7.1-6.7,16-13.4,39.4-14.2c24.1-0.8,34.8,8.6,34.9,8.7c0.1,0.1,0.1,0.2,0,0.2c-0.1,0.1-0.2,0.1-0.2,0c-0.1-0.1-9.9-8.6-31.8-8.6
				c-0.9,0-1.9,0-2.9,0c-23.3,0.8-32.1,7.4-39.2,14.1c-6.3,6-7.8,18.6-7.8,18.7C459.2,568.5,459.2,568.6,459.1,568.6z"/>
			<path class="st12" d="M495,527.2c0,0,1.9,6.7-0.5,8.2l3.6-0.7L495,527.2z"/>
			<path class="st12" d="M504.8,526.5l2.8,7.9h3.5C511.1,534.5,505.3,529.2,504.8,526.5z"/>
			<polygon class="st11" points="503.9,525.3 494.6,526.3 498,534.7 507.6,534.5 			"/>
			<path class="st13" d="M495.4,584.7c24.5,0,44.3-5.8,44.5-5.9c0.2-0.1,0.4-0.3,0.5-0.5c1.3-4.2,0-6.9,0-7c-0.2-0.4-0.6-0.5-1-0.3
				c-0.4,0.2-0.5,0.6-0.3,1c0,0,1,2.2,0.1,5.5c-3.2,0.9-25.2,6.8-50.7,5.6c-28.3-1.4-36.2-10-38.3-13.9c-0.3-2.4-0.8-8.5,0-10.8
				c0.1-0.4-0.1-0.8-0.4-1c-0.4-0.1-0.8,0.1-1,0.4c-1.1,3.1-0.1,11.3,0,11.6c0,0.1,0,0.2,0.1,0.3c2.1,4,10.3,13.4,39.6,14.8
				C490.7,584.7,493.1,584.7,495.4,584.7z"/>
			<path class="st13" d="M507.4,534.7c-0.3,0-0.5-0.1-0.7-0.4c-0.3-0.5-2.6-5-2.7-7c-0.1-1.9,1.1-2.9,1.8-3.2c0.1,0,0.2,0,0.2,0
				c3.5-0.1,18.1-1.2,18.2-1.2c0.4,0,0.8,0.3,0.8,0.7c0,0.4-0.3,0.8-0.7,0.8c-0.6,0-14.4,1-18.1,1.2c-0.2,0.1-0.9,0.6-0.8,1.6
				c0.1,1.4,1.9,5.1,2.6,6.4c0.2,0.4,0,0.8-0.3,1C507.7,534.7,507.6,534.7,507.4,534.7z"/>
			<path class="st13" d="M498,535.2c-0.3,0-0.6-0.2-0.7-0.5l-2.9-7.1c0-0.1-0.6-1.3-3.6-1.2c-4.2,0.2-34.1-0.5-40.4-1.1l0.1,3
				c0,0.4-0.3,0.8-0.7,0.8c-0.4,0-0.8-0.3-0.8-0.7l-0.1-3.9c0-0.2,0.1-0.5,0.3-0.6c0.2-0.1,0.4-0.2,0.7-0.1
				c2.3,0.6,35.7,1.4,40.9,1.2c4.2-0.2,5,2.1,5.1,2.2l2.9,7.1c0.2,0.4,0,0.8-0.4,1C498.2,535.2,498.1,535.2,498,535.2z"/>
			<path class="st13" d="M457.4,569.6C457.3,569.6,457.3,569.6,457.4,569.6c-0.3,0-0.5-0.3-0.5-0.6c1.6-13.6,7.2-29.8,35.6-34
				c34.3-5.1,48,6.4,48.6,6.8c0.2,0.2,0.2,0.5,0,0.7c-0.2,0.2-0.5,0.2-0.7,0.1c-0.1-0.1-13.9-11.6-47.8-6.6
				c-27.8,4.1-33.2,19.9-34.8,33.1C457.8,569.4,457.6,569.6,457.4,569.6z"/>
			<path class="st13" d="M449.3,526.4c0.1-0.4,0.4-0.7,0.9-0.6l0.4,2.9c-0.9,9.8,0.2,30.2,0.3,32c2.3,5.7,10.9,10.9,10.9,10.9
				c28,12.8,73.1,0.8,77.5-0.5c0.9-2.1,5.5-14.2,3.4-22.9c-2.1-9.2-16.3-22-17.6-23.2c-0.4-0.2-0.8-0.3-1.2-0.4l-0.3-1l2.1,0.1
				c0.1,0,0.2,0.1,0.2,0.1c0.6,0.6,15.8,14.1,18.2,24.1c2.3,10-3.4,23.6-3.6,24.2c-0.1,0.2-0.3,0.4-0.5,0.4
				c-0.3,0.1-22.4,6.4-45.9,6.4c-11.5,0-23.3-1.5-33.1-6c-0.4-0.2-9.3-5.5-11.6-11.8c0-0.1,0-0.1,0-0.2
				C449.2,559.8,447.8,535.4,449.3,526.4z"/>
			<path class="st13" d="M525.9,523.7c0,0-0.6-0.9-1.8-0.9l-1.2,0.9l0.2,0.7c0,0,1.3,0,2.6,1l0-1L525.9,523.7z"/>
			<path class="st13" d="M490.4,526.4c-0.1,0-0.2,0-0.3-0.1c-0.4-0.2-0.6-0.6-0.4-1c1.1-2.7,3.8-2.9,3.9-2.9c0.1,0,3.5-0.1,8.2-0.4
				c5.1-0.4,7,1.8,7.1,1.9c0.3,0.3,0.2,0.8-0.1,1.1c-0.3,0.3-0.8,0.2-1.1-0.1c0,0-1.6-1.7-5.8-1.4c-4.7,0.3-8.2,0.4-8.3,0.4
				c0,0-1.8,0.2-2.6,2C490.9,526.3,490.7,526.4,490.4,526.4z"/>
			<path class="st13" d="M488.6,535.4c-0.4,0-0.7-0.2-0.9-0.6c-0.2-0.5,0-1.1,0.5-1.3c6.6-3.1,22.6-6.1,23.2-6.2
				c0.5-0.1,1.1,0.3,1.2,0.8c0.1,0.5-0.3,1.1-0.8,1.2c-0.2,0-16.4,3.1-22.8,6.1C488.8,535.4,488.7,535.4,488.6,535.4z"/>
			<path class="st13" d="M512.9,533.2c-0.1,0-0.1,0-0.2,0c-0.2,0-15.1-3.1-24.2-3.4c-0.6,0-1-0.5-1-1c0-0.5,0.5-1,1-1c0,0,0,0,0,0
				c9.3,0.3,23.9,3.3,24.5,3.5c0.5,0.1,0.9,0.6,0.8,1.2C513.8,532.9,513.4,533.2,512.9,533.2z"/>
		</g>
	</g>
	<polygon class="st15" points="411.5,287.2 429.6,289.4 447.6,304.2 466.7,289.4 490,284.9 492.1,306.8 457.2,342.6 436.1,340.2 
		421.2,319 	"/>
	<path class="st16" d="M480.5,287.7c0,0-28.1,35.2-32.3,39.7l-27.4-29.5l5.1,26.1c0,0,0.4,21.8,18.9,16.7c18.4-5.1,17-4.5,17-4.5
		l26.7-50.3L480.5,287.7z"/>
	<path class="st17" d="M489.1,284.5c-0.2-0.5-0.8-0.8-1.3-0.6c-2.3,0.9-15.2,3.3-21.7,4.5c-0.2,0-0.4,0.2-0.6,0.3
		c-2.3,2.5-15.8,12.4-17.6,13.7c-1.8-1.3-15.3-11.2-17.6-13.7c-0.2-0.2-0.4-0.3-0.7-0.3c-3.9-0.4-14.6-1.5-16.9-2.4
		c-0.5-0.2-1.1,0.1-1.3,0.6c-0.2,0.5,0.1,1.1,0.6,1.3c2.9,1.1,14.8,2.3,17.1,2.5c2.8,2.8,13.5,10.7,16.9,13.1l-11.6,11.6
		c-0.4,0.4-0.4,1,0,1.4c0.2,0.2,0.5,0.3,0.7,0.3c0.3,0,0.5-0.1,0.7-0.3l10.8-10.8l0.7,25.7c0,0.5,0.5,1,1,1c0,0,0,0,0,0
		c0.6,0,1-0.5,1-1l-0.8-26.3l11.5,11.4c0.2,0.2,0.5,0.3,0.7,0.3c0.3,0,0.5-0.1,0.7-0.3c0.4-0.4,0.4-1,0-1.4l-11.6-11.6
		c3.3-2.4,14.2-10.4,16.9-13.2c2.6-0.5,18.8-3.4,21.7-4.5C489,285.6,489.3,285.1,489.1,284.5z"/>
	<linearGradient id="SVGID_4_" gradientUnits="userSpaceOnUse" x1="316.5364" y1="318.0873" x2="565.4244" y2="442.5316">
		<stop  offset="0" style="stop-color:#C68E5A"/>
		<stop  offset="0.3036" style="stop-color:#BD8552"/>
		<stop  offset="0.7963" style="stop-color:#A56E3D"/>
		<stop  offset="1" style="stop-color:#996332"/>
	</linearGradient>
	<path class="st10" d="M447.2,504.4c-10,0-19.3-0.3-27.9-0.7c-0.7-22.7,1.5-81.6,1.8-89.9c2.5,0.1,4.9,0.1,7.5,0.1c0.6,0,1-0.4,1-1
		c0-0.6-0.4-1-1-1c-41.6,0-73.7-13-78.7-15.1c0.7-5.3,2.1-11.9,2.7-14.5c6.6,2.5,42.3,15.1,76,15.1c0.6,0,1-0.4,1-1c0-0.6-0.4-1-1-1
		c-2.1,0-4.3-0.1-6.4-0.2l2-36c4.9-1.4,44.9-13.4,75.6-48.9c0.3-0.4,0.3-0.9,0-1.3l-9.6-10.7l14.2-1.4c0.3,0,0.6-0.2,0.7-0.4
		c0.2-0.2,0.2-0.5,0.1-0.8c-0.6-2.3-3-10.4-3.8-13.2c3.4-1.2,5.7-2.3,6.7-2.9c0.7,0.5,1.9,1.5,3.8,3c-1.1-0.8-2.3-1.5-3.4-2.1
		c0,0,47,43.3,68.7,90.5h0.1c-16.9,6.5-30.1,9.3-33.6,9.9c0-0.1-0.1-0.2-0.1-0.3c-0.1-0.3-0.3-0.5-0.5-0.7c0,0,0,0-0.1,0
		c1.2-2.3,1-10.5,1-10.5c-5.6-20.5-24.5-56.5-31-68.6c-1.3-2.5-2.1-4-2.1-4.1c-0.3-0.5-0.9-0.7-1.4-0.4c0,0,0,0,0,0l-0.1,0
		c0,0,0,0,0,0c-0.4,0.3-0.6,0.8-0.4,1.3c0.3,0.5,26.8,50.1,30.8,75.5v6.4l-0.1,1.1l0.1,0v0c-9,3.3-42.4,14.5-74.1,14.5
		c-0.6,0-1,0.4-1,1c0,0.6,0.4,1,1,1c33.8,0,69.4-12.6,76-15.1c0.6,2.6,1.9,9.2,2.7,14.5c-5,2.1-37.1,15.1-78.7,15.1
		c-0.6,0-1,0.4-1,1c0,0.6,0.4,1,1,1c37.2,0,66.9-10.3,76.7-14.1c0.6,6.6,6.4,74.6,4.2,93.9h0.1C539.3,495.8,504.4,504.4,447.2,504.4
		z"/>
	<g>
		<circle class="st19" cx="430" cy="367.6" r="4"/>
		<circle class="st19" cx="468.5" cy="367.6" r="4"/>
		<circle class="st19" cx="430" cy="393.6" r="4"/>
		<circle class="st19" cx="468.5" cy="393.6" r="4"/>
		<circle class="st19" cx="430" cy="433.2" r="4"/>
		<circle class="st19" cx="468.5" cy="433.2" r="4"/>
	</g>
	<linearGradient id="SVGID_5_" gradientUnits="userSpaceOnUse" x1="339.9" y1="271.3601" x2="588.7886" y2="395.8047">
		<stop  offset="0" style="stop-color:#C68E5A"/>
		<stop  offset="0.3036" style="stop-color:#BD8552"/>
		<stop  offset="0.7963" style="stop-color:#A56E3D"/>
		<stop  offset="1" style="stop-color:#996332"/>
	</linearGradient>
	<path class="st14" d="M581.4,371.6l5.7,12.8c-4.7,1.6-24.5,8.5-40.7,10.8c-0.7-4.5-1.7-9.4-2.3-12.2
		C548,382.2,562.8,379.1,581.4,371.6z"/>
	<path class="st21" d="M477.6,299.7l10.2-1l10,11.1c-26.2,29.9-59.1,42.7-70.5,46.5C443.6,340.7,464.8,315.5,477.6,299.7z"/>
	<path class="st21" d="M418.9,299.2c0.1,0,0.2,0,0.3-0.1c6,8.4,15.3,20.3,28.3,32.9c-1.9,2.1-3.7,4.1-5.6,6.1
		c-13.7-3.5-39.1-19.4-43.8-22.4l9.6-17.1c0,0,0,0,0,0L418.9,299.2C418.9,299.2,418.9,299.2,418.9,299.2z"/>
	<linearGradient id="SVGID_6_" gradientUnits="userSpaceOnUse" x1="320.8654" y1="309.4295" x2="569.7541" y2="433.8741">
		<stop  offset="0" style="stop-color:#C68E5A"/>
		<stop  offset="0.3036" style="stop-color:#BD8552"/>
		<stop  offset="0.7963" style="stop-color:#A56E3D"/>
		<stop  offset="1" style="stop-color:#996332"/>
	</linearGradient>
	<path class="st18" d="M385.9,280.6c1.3,0.4,5.3,1.6,10,2.9l-0.8,13.6c0,0.3,0.1,0.5,0.3,0.7c0.2,0.2,0.4,0.3,0.7,0.3l9.5,0.5
		l-9.6,17.1c-0.3,0.5-0.1,1,0.3,1.3c1.2,0.8,28.6,18.4,44.2,22.9c-6.2,6.7-12.3,13-17.7,17.9c-0.3,0.3-0.4,0.8-0.2,1.2
		c0,0,0,0,0.1,0.1l-2,36.2c-29.1-1.6-57.8-11.3-66.1-14.3v-7.5c3.9-25.5,30.5-75.1,30.8-75.5c0.3-0.5,0.1-1.1-0.4-1.4
		c-0.5-0.3-1.1-0.1-1.4,0.4c0,0-26.4,47.8-33.2,72.6c0,0-0.2,8.3,1,10.5c-0.3,0.1-0.4,0.4-0.5,0.7c0,0,0,0.1-0.1,0.3
		c-3.5-0.7-16.7-3.5-33.6-9.9C338.9,323.9,385.9,280.6,385.9,280.6z"/>
	<linearGradient id="SVGID_7_" gradientUnits="userSpaceOnUse" x1="292.7733" y1="365.6136" x2="541.6617" y2="490.0581">
		<stop  offset="0" style="stop-color:#C68E5A"/>
		<stop  offset="0.3036" style="stop-color:#BD8552"/>
		<stop  offset="0.7963" style="stop-color:#A56E3D"/>
		<stop  offset="1" style="stop-color:#996332"/>
	</linearGradient>
	<path class="st20" d="M313.1,371.6c18.6,7.5,33.3,10.6,37.3,11.4c-0.6,2.8-1.6,7.7-2.3,12.2c-16.2-2.3-36-9.1-40.7-10.8
		L313.1,371.6z"/>
	<linearGradient id="SVGID_8_" gradientUnits="userSpaceOnUse" x1="287.7928" y1="375.5744" x2="536.6813" y2="500.0189">
		<stop  offset="0" style="stop-color:#C68E5A"/>
		<stop  offset="0.3036" style="stop-color:#BD8552"/>
		<stop  offset="0.7963" style="stop-color:#A56E3D"/>
		<stop  offset="1" style="stop-color:#996332"/>
	</linearGradient>
	<path class="st22" d="M305.5,392.8l3.3-5.9c7,2.4,24.4,8.1,39,10.1c0,0.1,0,0.1,0,0.2c-0.1,0.4,0.2,0.9,0.6,1c0,0,0.3,0.1,0.8,0.4
		c0,0.3-0.2,2.4-0.5,5.9C322.6,401.4,309.7,395.2,305.5,392.8z"/>
	<linearGradient id="SVGID_9_" gradientUnits="userSpaceOnUse" x1="275.6946" y1="399.7708" x2="524.5836" y2="524.2156">
		<stop  offset="0" style="stop-color:#C68E5A"/>
		<stop  offset="0.3036" style="stop-color:#BD8552"/>
		<stop  offset="0.7963" style="stop-color:#A56E3D"/>
		<stop  offset="1" style="stop-color:#996332"/>
	</linearGradient>
	<path class="st23" d="M347.6,493.7L347.6,493.7c-2.2-19.4,3.6-87.5,4.2-94c9,3.5,34.7,12.5,67.8,14c-0.3,8.3-2.5,67.1-1.8,89.9
		C378.1,501.4,353.8,495.4,347.6,493.7z"/>
	<linearGradient id="SVGID_10_" gradientUnits="userSpaceOnUse" x1="335.2991" y1="280.5616" x2="584.188" y2="405.0063">
		<stop  offset="0" style="stop-color:#C68E5A"/>
		<stop  offset="0.3036" style="stop-color:#BD8552"/>
		<stop  offset="0.7963" style="stop-color:#A56E3D"/>
		<stop  offset="1" style="stop-color:#996332"/>
	</linearGradient>
	<path class="st24" d="M545.8,404.5c-0.3-3.5-0.5-5.6-0.5-5.9c0.5-0.2,0.8-0.3,0.8-0.4c0.4-0.2,0.6-0.6,0.6-1c0-0.1,0-0.1,0-0.2
		c14.5-2.1,31.8-7.7,38.9-10.1l3.3,5.9C584.7,395.3,571.8,401.4,545.8,404.5z"/>
	<path class="st27" d="M430.7,371.1c-2.2,0-4-1.8-4-4s1.8-4,4-4c2.2,0,4,1.8,4,4S432.9,371.1,430.7,371.1z M430.7,364.5
		c-1.4,0-2.5,1.1-2.5,2.5s1.1,2.5,2.5,2.5s2.5-1.1,2.5-2.5S432.1,364.5,430.7,364.5z"/>
	<path class="st27" d="M469.2,371.1c-2.2,0-4-1.8-4-4s1.8-4,4-4c2.2,0,4,1.8,4,4S471.4,371.1,469.2,371.1z M469.2,364.5
		c-1.4,0-2.5,1.1-2.5,2.5s1.1,2.5,2.5,2.5s2.5-1.1,2.5-2.5S470.6,364.5,469.2,364.5z"/>
	<path class="st27" d="M430.7,397c-2.2,0-4-1.8-4-4s1.8-4,4-4c2.2,0,4,1.8,4,4S432.9,397,430.7,397z M430.7,390.4
		c-1.4,0-2.5,1.1-2.5,2.5c0,1.4,1.1,2.5,2.5,2.5s2.5-1.1,2.5-2.5C433.2,391.5,432.1,390.4,430.7,390.4z"/>
	<path class="st27" d="M469.2,397c-2.2,0-4-1.8-4-4s1.8-4,4-4c2.2,0,4,1.8,4,4S471.4,397,469.2,397z M469.2,390.4
		c-1.4,0-2.5,1.1-2.5,2.5c0,1.4,1.1,2.5,2.5,2.5s2.5-1.1,2.5-2.5C471.7,391.5,470.6,390.4,469.2,390.4z"/>
	<path class="st27" d="M430.7,436.7c-2.2,0-4-1.8-4-4c0-2.2,1.8-4,4-4c2.2,0,4,1.8,4,4C434.7,434.8,432.9,436.7,430.7,436.7z
		 M430.7,430.1c-1.4,0-2.5,1.1-2.5,2.5s1.1,2.5,2.5,2.5s2.5-1.1,2.5-2.5S432.1,430.1,430.7,430.1z"/>
	<path class="st27" d="M469.2,436.7c-2.2,0-4-1.8-4-4c0-2.2,1.8-4,4-4c2.2,0,4,1.8,4,4C473.2,434.8,471.4,436.7,469.2,436.7z
		 M469.2,430.1c-1.4,0-2.5,1.1-2.5,2.5s1.1,2.5,2.5,2.5s2.5-1.1,2.5-2.5S470.6,430.1,469.2,430.1z"/>
	<circle class="st19" cx="430.7" cy="367" r="2.5"/>
	<circle class="st19" cx="469.2" cy="367" r="2.5"/>
	<circle class="st19" cx="430.7" cy="392.9" r="2.5"/>
	<circle class="st19" cx="469.2" cy="392.9" r="2.5"/>
	<circle class="st19" cx="430.7" cy="432.6" r="2.5"/>
	<circle class="st19" cx="469.2" cy="432.6" r="2.5"/>
	<path class="st28" d="M360.4,395.1c-1.2,0-2.1-1-2.1-2.1s1-2.1,2.1-2.1c1.2,0,2.1,1,2.1,2.1S361.6,395.1,360.4,395.1z M360.4,391.8
		c-0.6,0-1.1,0.5-1.1,1.1c0,0.6,0.5,1.1,1.1,1.1c0.6,0,1.1-0.5,1.1-1.1C361.5,392.3,361,391.8,360.4,391.8z"/>
	<path class="st28" d="M376.2,399.7c-1.2,0-2.1-1-2.1-2.1s1-2.1,2.1-2.1s2.1,1,2.1,2.1S377.4,399.7,376.2,399.7z M376.2,396.4
		c-0.6,0-1.1,0.5-1.1,1.1c0,0.6,0.5,1.1,1.1,1.1s1.1-0.5,1.1-1.1C377.3,396.9,376.8,396.4,376.2,396.4z"/>
	<path class="st28" d="M392.6,403.6c-1.2,0-2.1-1-2.1-2.1c0-1.2,1-2.1,2.1-2.1s2.1,1,2.1,2.1C394.7,402.6,393.8,403.6,392.6,403.6z
		 M392.6,400.3c-0.6,0-1.1,0.5-1.1,1.1c0,0.6,0.5,1.1,1.1,1.1c0.6,0,1.1-0.5,1.1-1.1C393.7,400.8,393.2,400.3,392.6,400.3z"/>
	<path class="st28" d="M410.4,405.8c-1.2,0-2.1-1-2.1-2.1c0-1.2,1-2.1,2.1-2.1c1.2,0,2.1,1,2.1,2.1
		C412.6,404.9,411.6,405.8,410.4,405.8z M410.4,402.5c-0.6,0-1.1,0.5-1.1,1.1c0,0.6,0.5,1.1,1.1,1.1c0.6,0,1.1-0.5,1.1-1.1
		C411.6,403,411.1,402.5,410.4,402.5z"/>
	<path class="st28" d="M532.8,395.1c-1.2,0-2.1-1-2.1-2.1s1-2.1,2.1-2.1c1.2,0,2.1,1,2.1,2.1S533.9,395.1,532.8,395.1z M532.8,391.8
		c-0.6,0-1.1,0.5-1.1,1.1c0,0.6,0.5,1.1,1.1,1.1c0.6,0,1.1-0.5,1.1-1.1C533.9,392.3,533.4,391.8,532.8,391.8z"/>
	<path class="st28" d="M517,399.7c-1.2,0-2.1-1-2.1-2.1s1-2.1,2.1-2.1c1.2,0,2.1,1,2.1,2.1S518.1,399.7,517,399.7z M517,396.4
		c-0.6,0-1.1,0.5-1.1,1.1c0,0.6,0.5,1.1,1.1,1.1s1.1-0.5,1.1-1.1C518.1,396.9,517.6,396.4,517,396.4z"/>
	<path class="st28" d="M500.6,403.6c-1.2,0-2.1-1-2.1-2.1c0-1.2,1-2.1,2.1-2.1s2.1,1,2.1,2.1C502.7,402.6,501.7,403.6,500.6,403.6z
		 M500.6,400.3c-0.6,0-1.1,0.5-1.1,1.1c0,0.6,0.5,1.1,1.1,1.1c0.6,0,1.1-0.5,1.1-1.1C501.7,400.8,501.2,400.3,500.6,400.3z"/>
	<path class="st28" d="M482.7,405.8c-1.2,0-2.1-1-2.1-2.1c0-1.2,1-2.1,2.1-2.1s2.1,1,2.1,2.1C484.8,404.9,483.9,405.8,482.7,405.8z
		 M482.7,402.5c-0.6,0-1.1,0.5-1.1,1.1c0,0.6,0.5,1.1,1.1,1.1c0.6,0,1.1-0.5,1.1-1.1C483.8,403,483.3,402.5,482.7,402.5z"/>
	<path class="st29" d="M592,392.3l-3-6.5c0.2-0.1,0.3-0.3,0.4-0.4c0.1-0.3,0.1-0.5,0-0.8l-6.6-14.6c-0.2-0.5-0.8-0.7-1.3-0.5
		c-0.3,0.1-0.5,0.2-0.8,0.3c-36.6-67.2-71.6-91.8-72-92c-0.3-0.2-0.7-0.2-1.1,0c-0.1,0-7.1,4.2-19.7,6.3c-0.2,0-0.5,0.2-0.6,0.4
		c-0.3,0.3-18.8,24.1-38.5,46.3c-24.4-23.6-35.8-44.6-35.9-44.8c-0.1-0.3-0.4-0.5-0.7-0.5c-9.1-1.4-26-6.7-26.2-6.7
		c-0.3-0.1-0.6,0-0.9,0.1c-0.3,0.2-34.8,23.9-71.4,91.1c-0.3-0.1-0.5-0.2-0.8-0.3c-0.5-0.2-1.1,0-1.3,0.5l-6.6,14.6
		c-0.1,0.3-0.1,0.5,0,0.8c0.1,0.2,0.2,0.3,0.4,0.4l-3,6.5c-0.2,0.4-0.1,0.9,0.3,1.2c0.5,0.4,12.5,9.1,45.7,13.1
		c-1.4,16.8-4.5,57.2-3.8,87.7c0,0.4,0.3,0.8,0.7,0.9c0.4,0.1,36.7,11.2,101.4,11.2c0,0,0,0,0,0h0.8c0,0,0,0,0,0
		c64.7-0.1,101-11.1,101.4-11.2c0.4-0.1,0.7-0.5,0.7-0.9c0.7-30.5-2.3-70.9-3.8-87.7c33.2-4,45.2-12.7,45.7-13.1
		C592.1,393.2,592.2,392.7,592,392.3z M581.4,371.6l5.7,12.8c-4.7,1.6-24.5,8.5-40.7,10.8c-0.7-4.5-1.7-9.4-2.3-12.2
		C548,382.2,562.8,379.1,581.4,371.6z M488.7,285.8c4.3-0.7,7.9-1.7,10.9-2.6c0.7,2.5,2.6,8.9,3.5,11.9l-23.7,2.4
		C484.3,291.4,487.8,287,488.7,285.8z M477.6,299.7l10.2-1l10,11.1c-26.2,29.9-59.1,42.7-70.5,46.5
		C443.6,340.7,464.8,315.5,477.6,299.7z M418.9,299.2c0.1,0,0.2,0,0.3-0.1c6,8.4,15.3,20.3,28.3,32.9c-1.9,2.1-3.7,4.1-5.6,6.1
		c-13.7-3.5-39.1-19.4-43.8-22.4l9.6-17.1c0,0,0,0,0,0L418.9,299.2C418.9,299.2,418.9,299.2,418.9,299.2z M397.9,284
		c4.6,1.2,9.7,2.5,13.6,3.1c0.7,1.2,2.8,4.8,6.4,10l-20.6-1L397.9,284z M385.9,280.6c1.3,0.4,5.3,1.6,10,2.9l-0.8,13.6
		c0,0.3,0.1,0.5,0.3,0.7c0.2,0.2,0.4,0.3,0.7,0.3l9.5,0.5l-9.6,17.1c-0.3,0.5-0.1,1,0.3,1.3c1.2,0.8,28.6,18.4,44.2,22.9
		c-6.2,6.7-12.3,13-17.7,17.9c-0.3,0.3-0.4,0.8-0.2,1.2c0,0,0,0,0.1,0.1l-2,36.2c-29.1-1.6-57.8-11.3-66.1-14.3v-7.5
		c3.9-25.5,30.5-75.1,30.8-75.5c0.3-0.5,0.1-1.1-0.4-1.4c-0.5-0.3-1.1-0.1-1.4,0.4c0,0-26.4,47.8-33.2,72.6c0,0-0.2,8.3,1,10.5
		c-0.3,0.1-0.4,0.4-0.5,0.7c0,0,0,0.1-0.1,0.3c-3.5-0.7-16.7-3.5-33.6-9.9C338.9,323.9,385.9,280.6,385.9,280.6z M313.1,371.6
		c18.6,7.5,33.3,10.6,37.3,11.4c-0.6,2.8-1.6,7.7-2.3,12.2c-16.2-2.3-36-9.1-40.7-10.8L313.1,371.6z M305.5,392.8l3.3-5.9
		c7,2.4,24.4,8.1,39,10.1c0,0.1,0,0.1,0,0.2c-0.1,0.4,0.2,0.9,0.6,1c0,0,0.3,0.1,0.8,0.4c0,0.3-0.2,2.4-0.5,5.9
		C322.6,401.4,309.7,395.2,305.5,392.8z M347.6,493.7L347.6,493.7c-2.2-19.4,3.6-87.5,4.2-94c9,3.5,34.7,12.5,67.8,14
		c-0.3,8.3-2.5,67.1-1.8,89.9C378.1,501.4,353.8,495.4,347.6,493.7z M447.2,504.4c-10,0-19.3-0.3-27.9-0.7
		c-0.7-22.7,1.5-81.6,1.8-89.9c2.5,0.1,4.9,0.1,7.5,0.1c0.6,0,1-0.4,1-1c0-0.6-0.4-1-1-1c-41.6,0-73.7-13-78.7-15.1
		c0.7-5.3,2.1-11.9,2.7-14.5c6.6,2.5,42.3,15.1,76,15.1c0.6,0,1-0.4,1-1c0-0.6-0.4-1-1-1c-2.1,0-4.3-0.1-6.4-0.2l2-36
		c4.9-1.4,44.9-13.4,75.6-48.9c0.3-0.4,0.3-0.9,0-1.3l-9.6-10.7l14.2-1.4c0.3,0,0.6-0.2,0.7-0.4c0.2-0.2,0.2-0.5,0.1-0.8
		c-0.6-2.3-3-10.4-3.8-13.2c3.4-1.2,5.7-2.3,6.7-2.9c0.7,0.5,47.4,44.2,69.1,91.4h0.1c-16.9,6.5-30.1,9.3-33.6,9.9
		c0-0.1-0.1-0.2-0.1-0.3c-0.1-0.3-0.3-0.5-0.5-0.7c0,0,0,0-0.1,0c1.2-2.3,1-10.5,1-10.5c-5.6-20.5-24.5-56.5-31-68.6
		c-1.3-2.5-2.1-4-2.1-4.1c-0.3-0.5-0.9-0.7-1.4-0.4c0,0,0,0,0,0l-0.1,0c0,0,0,0,0,0c-0.4,0.3-0.6,0.8-0.4,1.3
		c0.3,0.5,26.8,50.1,30.8,75.5v6.4l-0.1,1.1l0.1,0v0c-9,3.3-42.4,14.5-74.1,14.5c-0.6,0-1,0.4-1,1c0,0.6,0.4,1,1,1
		c33.8,0,69.4-12.6,76-15.1c0.6,2.6,1.9,9.2,2.7,14.5c-5,2.1-37.1,15.1-78.7,15.1c-0.6,0-1,0.4-1,1c0,0.6,0.4,1,1,1
		c37.2,0,66.9-10.3,76.7-14.1c0.6,6.6,6.4,74.6,4.2,93.9h0.1C539.3,495.8,504.4,504.4,447.2,504.4z M542,380.2
		C542,380.2,542,380.2,542,380.2L542,380.2L542,380.2z M545.8,404.5c-0.3-3.5-0.5-5.6-0.5-5.9c0.5-0.2,0.8-0.3,0.8-0.4
		c0.4-0.2,0.6-0.6,0.6-1c0-0.1,0-0.1,0-0.2c14.5-2.1,31.8-7.7,38.9-10.1l3.3,5.9C584.7,395.3,571.8,401.4,545.8,404.5z"/>
	<path class="st21" d="M488.7,285.8c4.3-0.7,7.9-1.7,10.9-2.6c0.7,2.5,2.6,8.9,3.5,11.9l-23.7,2.4
		C484.3,291.4,487.8,287,488.7,285.8z"/>
	<path class="st21" d="M397.9,284c4.6,1.2,9.7,2.5,13.6,3.1c0.7,1.2,2.8,4.8,6.4,10l-20.6-1L397.9,284z"/>
	<path class="st9" d="M542,380.2C542,380.2,542,380.2,542,380.2L542,380.2L542,380.2z"/>
	<path class="st30" d="M462.2,416.6h-30c-2.6,0-4.7-2.1-4.7-4.7v-14.2c0-2.6,2.1-4.7,4.7-4.7h30c2.6,0,4.7,2.1,4.7,4.7v14.2
		C466.9,414.5,464.8,416.6,462.2,416.6z M432.2,395c-1.5,0-2.6,1.2-2.6,2.6v14.2c0,1.5,1.2,2.6,2.6,2.6h30c1.5,0,2.6-1.2,2.6-2.6
		v-14.2c0-1.5-1.2-2.6-2.6-2.6H432.2z"/>
	<path class="st31" d="M462.2,395h-30c-1.5,0-2.6,1.2-2.6,2.6v14.2c0,1.5,1.2,2.6,2.6,2.6h30c1.5,0,2.6-1.2,2.6-2.6v-14.2
		C464.9,396.2,463.7,395,462.2,395z M462.5,410.3c0,1-0.8,1.9-1.9,1.9h-26.8c-1,0-1.9-0.8-1.9-1.9v-10.9c0-1,0.8-1.9,1.9-1.9h26.8
		c1,0,1.9,0.8,1.9,1.9V410.3z"/>
	<path class="st30" d="M459.9,413.2h-25.3c-2,0-3.6-1.6-3.6-3.6v-9.7c0-2,1.6-3.6,3.6-3.6h25.3c2,0,3.6,1.6,3.6,3.6v9.7
		C463.5,411.6,461.9,413.2,459.9,413.2z M434.7,397.9c-1.1,0-2,0.9-2,2v9.7c0,1.1,0.9,2,2,2h25.3c1.1,0,2-0.9,2-2v-9.7
		c0-1.1-0.9-2-2-2H434.7z"/>
	<path class="st30" d="M435.7,407.2h-11.4c-1.4,0-2.5-1.1-2.5-2.5c0-1.4,1.1-2.5,2.5-2.5h11.4c1.4,0,2.5,1.1,2.5,2.5
		C438.1,406.1,437,407.2,435.7,407.2z M424.3,403.8c-0.5,0-0.9,0.4-0.9,0.9c0,0.5,0.4,0.9,0.9,0.9h11.4c0.5,0,0.9-0.4,0.9-0.9
		c0-0.5-0.4-0.9-0.9-0.9H424.3z"/>
	<path class="st31" d="M424.3,403.8c-0.5,0-0.9,0.4-0.9,0.9c0,0.5,0.4,0.9,0.9,0.9h11.4c0.5,0,0.9-0.4,0.9-0.9
		c0-0.5-0.4-0.9-0.9-0.9H424.3z"/>
	<path class="st32" d="M544.1,383c0.6,2.8,1.6,7.7,2.3,12.2c1.6-0.2,3.3-0.5,4.9-0.8l-0.6-12.8C547.6,382.3,545.4,382.7,544.1,383z"
		/>
	<path class="st32" d="M546.7,397.1c0,0.1,0,0.1,0,0.2c0.1,0.4-0.2,0.9-0.6,1c0,0-0.3,0.1-0.8,0.4c0,0.3,0.2,2.4,0.5,5.9
		c1.9-0.2,3.8-0.5,5.6-0.7l0-7.5C549.8,396.6,548.2,396.9,546.7,397.1z"/>
	<g class="st33">
		<polygon class="st34" points="502.5,297.2 490.2,298.4 492.7,301.3 503,300 		"/>
		<path class="st34" d="M499.4,314.9l-1.9-1.9c-30.4,33.4-68.6,45-73.4,46.3C475,347.2,499.4,314.9,499.4,314.9z"/>
	</g>
	<g>
		<path class="st34" d="M397.1,319.9c0,0,22.8,14.4,43.4,19.9c-13.6-3.9-35.9-17.6-42.4-21.7L397.1,319.9z"/>
		<polygon class="st34" points="397.2,298.2 397.2,300.5 404.2,301 405.6,298.6 		"/>
	</g>
	<path class="st34" d="M350.3,369.6c4.2-15.4,16-39.7,24.3-55.9c-7.7,13-18.7,31.8-24.3,42.6c-9.1,17.5-7.9,22.8-7.9,22.9
		c4,1,7,1.6,8.4,1.9c0-0.1,0.1-0.2,0.1-0.3c0.1-0.3,0.3-0.5,0.5-0.7C350.1,377.9,350.3,369.6,350.3,369.6z"/>
	<path class="st34" d="M348.1,395.1c0.7-4.5,1.7-9.4,2.3-12.2c-1.4-0.3-4.3-0.9-8.3-1.9l-2.5,12.5v0
		C342.4,394.2,345.3,394.7,348.1,395.1z"/>
	<path class="st34" d="M347.8,397.3c0-0.1,0-0.1,0-0.2c-2.7-0.4-5.5-0.9-8.3-1.5v7.6c2.8,0.5,5.9,0.9,9.1,1.3
		c0.3-3.5,0.5-5.6,0.5-5.9c-0.5-0.2-0.8-0.3-0.8-0.4C347.9,398.1,347.7,397.7,347.8,397.3z"/>
	<path class="st35" d="M419.1,395.1c0.5,0,1,0.1,1.5,0.1l1.8-32.6l0.1-3.7c0,0-2,16-3,27.1C419.5,386,419.3,389.6,419.1,395.1z"/>
	<path class="st35" d="M418.1,413.6c-0.8,16.2-1.8,33.9-2,36.1c-0.4,3.4-0.1,39.4,0,53.8c0.6,0,1.1,0.1,1.7,0.1
		c-0.7-22.8,1.5-81.6,1.8-89.9C419.1,413.7,418.6,413.7,418.1,413.6z"/>
	<path class="st34" d="M363.3,461.5c-4.1,0-9.1-0.5-15.4-1.9l0.4-2c20,4.3,28.5,0.4,29.7-4.8c1-4.1,2.5-30.4,2.8-35.7
		c-11.7-1.7-29-7-29.1-7.1l0.6-1.9c0.2,0.1,18.2,5.6,29.7,7.1l0.9,0.1l-0.1,0.9c-0.1,1.3-1.8,32.3-2.9,37
		C379.4,455.6,376.7,461.5,363.3,461.5z"/>
	<path class="st34" d="M531.3,461.5c-13.4,0-16.1-5.9-16.7-8.2c-1.1-4.7-2.8-35.6-2.9-37l-0.1-0.9l0.9-0.1
		c11.5-1.5,29.6-7.1,29.7-7.1l0.6,1.9c-0.2,0.1-17.4,5.3-29.1,7.1c0.3,5.3,1.8,31.6,2.8,35.7c1.2,5.2,9.7,9.1,29.7,4.8l0.4,2
		C540.4,461,535.4,461.5,531.3,461.5z"/>
	<g class="st36">
		<path class="st34" d="M541.9,382.3c-1.1,0.4-3.2,1.2-5.9,2.1l0,0l3.8,14.3c2.3-0.9,4-1.5,4.8-1.9
			C543.9,391.5,542.5,384.9,541.9,382.3z"/>
		<path class="st34" d="M527.8,384.9c5.5-1.7,9.7-3.1,12.2-4v0l-0.1,0l0.1-1.1v-6.4c-3.2-21.1-22.1-58.8-28.6-71.4
			c0,0,20.6,53.3,20.2,62.4C531.2,373.6,527.8,384.9,527.8,384.9z"/>
		<path class="st34" d="M544.1,369.6c0,0,0.2,8.3-1,10.5c0,0,0,0,0.1,0c0.3,0.1,0.4,0.4,0.5,0.7c0,0,0,0.1,0.1,0.3
			c1.2-0.2,3.6-0.7,6.8-1.5c-0.8-3.2-4.9-18.1-23-50.4C534.2,343,541.1,358.5,544.1,369.6z"/>
		<path class="st34" d="M546.9,493.7L546.9,493.7c2.1-19.3-3.7-87.4-4.3-93.9c-2.5,1-6.2,2.4-11,3.9c0,2.6,0,61.5-5.3,94.5
			C537,496.3,544,494.5,546.9,493.7z"/>
	</g>
	<path class="st37" d="M357.3,369.6c0.6-9.3,28-71.7,28-71.7c-0.3,0.5-26.8,50.1-30.8,75.5v7.5c0.7,0.3,1.7,0.6,2.7,1
		C357.1,380.7,356.8,377,357.3,369.6z"/>
	<path class="st37" d="M357,383.9c-2-0.7-3.5-1.2-4.5-1.6c-0.6,2.6-1.9,9.2-2.7,14.5c0.8,0.3,2.3,0.9,4.3,1.7L357,383.9z"/>
	<path class="st37" d="M349.7,494.2c-1.9-27.4,4.5-92.7,4.5-92.7v-0.9c-0.9-0.3-1.7-0.6-2.4-0.9c-0.6,6.4-6.4,74.6-4.2,94h0
		C348.1,493.8,348.8,494,349.7,494.2z"/>
</g>
</svg>
