<?xml version="1.0" encoding="utf-8"?>
<!-- Generator: Adobe Illustrator 21.0.0, SVG Export Plug-In . SVG Version: 6.00 Build 0)  -->
<svg version="1.1" id="圖層_1" xmlns="http://www.w3.org/2000/svg" xmlns:xlink="http://www.w3.org/1999/xlink" x="0px" y="0px"
	 viewBox="0 0 822.9 601.4" style="enable-background:new 0 0 822.9 601.4;" xml:space="preserve">
<style type="text/css">
	.st0{fill:url(#SVGID_1_);}
	.st1{fill:#E1BE3F;}
	.st2{fill:#AB6C21;}
	.st3{opacity:0.6;fill:#E1BE3F;enable-background:new    ;}
	.st4{fill:url(#SVGID_2_);}
	.st5{fill:url(#SVGID_3_);}
	.st6{fill:url(#SVGID_4_);}
	.st7{fill:url(#SVGID_5_);}
	.st8{fill:#D69644;}
	.st9{fill:#AC6D21;}
	.st10{fill:#D04B22;}
	.st11{fill:url(#SVGID_6_);}
	.st12{fill:url(#SVGID_7_);}
	.st13{fill:url(#SVGID_8_);}
	.st14{fill:url(#SVGID_9_);}
	.st15{fill:url(#SVGID_10_);}
	.st16{fill:url(#SVGID_11_);}
	.st17{fill:url(#SVGID_12_);}
	.st18{fill:#FBEEBA;}
	.st19{fill:#F3B699;}
	.st20{fill:#FCF0CA;}
	.st21{fill:none;stroke:#FCF0CA;stroke-width:0.5868;stroke-miterlimit:10;}
	.st22{fill:url(#SVGID_13_);}
	.st23{fill:url(#SVGID_14_);}
	.st24{fill:url(#SVGID_15_);}
	.st25{fill:#CE9245;}
	.st26{fill:#A66A22;}
	.st27{opacity:0.6;fill:#CE9245;enable-background:new    ;}
	.st28{fill:#EEE9E5;}
	.st29{fill:#FFFFFF;}
	.st30{fill:#323130;}
	.st31{fill:#181717;}
	.st32{fill:#A4A09F;}
	.st33{fill:#546B7F;}
	.st34{fill:#92A2AD;}
	.st35{opacity:0.6;fill:#A4A09F;enable-background:new    ;}
	.st36{fill:none;stroke:#A4A09F;stroke-width:0.6175;stroke-linecap:round;stroke-miterlimit:10;}
	.st37{fill:#7B8C9F;}
	.st38{fill:#C1E0F6;}
	.st39{fill:url(#SVGID_16_);}
	.st40{opacity:0.6;}
	.st41{fill:#E2BF40;}
	.st42{fill:url(#SVGID_17_);}
	.st43{fill:url(#SVGID_18_);}
	.st44{fill:url(#SVGID_19_);}
	.st45{fill:url(#SVGID_20_);}
	.st46{fill:none;stroke:#FFFFFF;stroke-width:1.8107;stroke-linecap:round;stroke-miterlimit:10;}
	.st47{opacity:0.6;fill:#E2BF40;enable-background:new    ;}
	.st48{fill:#3F210E;}
	.st49{opacity:0.35;fill:#FFFFFF;enable-background:new    ;}
	.st50{fill:url(#SVGID_21_);}
	.st51{opacity:0.8;}
	.st52{fill:url(#SVGID_22_);}
	.st53{fill:url(#SVGID_23_);}
	.st54{fill:#B62E22;}
	.st55{fill:#92622F;}
	.st56{fill:url(#SVGID_24_);}
	.st57{fill:#C5A27C;}
	.st58{opacity:0.8;fill:url(#SVGID_25_);enable-background:new    ;}
	.st59{fill:url(#SVGID_26_);}
	.st60{fill:#2B150B;}
	.st61{fill:#97654C;}
	.st62{opacity:0.4;fill:#3E210E;enable-background:new    ;}
	.st63{fill:url(#SVGID_27_);}
	.st64{opacity:0.35;fill:#DF9E83;enable-background:new    ;}
	.st65{fill:#DF9E83;}
	.st66{fill:#F6D4C7;}
	.st67{opacity:0.69;}
	.st68{fill:#CE5E39;}
	.st69{opacity:0.4;}
	.st70{fill:#3E210E;}
	.st71{fill:#DE805C;}
	.st72{fill:url(#SVGID_28_);stroke:#D78863;stroke-width:0.9662;stroke-miterlimit:10;}
	.st73{fill:url(#SVGID_29_);}
	.st74{fill:#A66B23;}
	.st75{fill:url(#SVGID_30_);}
	.st76{fill:url(#SVGID_31_);}
	.st77{fill:url(#SVGID_32_);}
	.st78{fill:url(#SVGID_33_);}
	.st79{fill:#824323;}
	.st80{fill:url(#SVGID_34_);}
	.st81{fill:#E6A952;}
	.st82{fill:#BB7F37;}
	.st83{fill:url(#SVGID_35_);}
	.st84{fill:url(#SVGID_36_);}
	.st85{fill:url(#SVGID_37_);}
	.st86{fill:#EBA794;}
	.st87{fill:#40210F;}
	.st88{opacity:0.25;fill:#D69644;enable-background:new    ;}
	.st89{opacity:0.5;fill:#D69644;enable-background:new    ;}
	.st90{fill:#FBF4C3;}
	.st91{fill:#DEBD91;}
	.st92{fill:#D8C7A7;}
	.st93{fill:url(#SVGID_38_);}
	.st94{fill:#893827;}
	.st95{opacity:0.4;fill:#E2BF40;enable-background:new    ;}
	.st96{opacity:0.6;fill:#D69644;enable-background:new    ;}
	.st97{fill:#895424;}
	.st98{fill:#391E13;}
	.st99{fill:#D7B093;}
	.st100{fill:#EFD39D;}
	.st101{fill:#8C5924;}
	.st102{fill:#B55C4E;}
	.st103{fill:url(#SVGID_39_);}
	.st104{fill:url(#SVGID_40_);}
	.st105{fill:#E0917F;}
	.st106{fill:#AB948D;}
	.st107{fill:url(#SVGID_41_);}
	.st108{fill:url(#SVGID_42_);}
	.st109{opacity:0.6;fill:url(#SVGID_43_);enable-background:new    ;}
	.st110{fill:#CD9449;}
	.st111{fill:url(#SVGID_44_);}
	.st112{fill:url(#SVGID_45_);}
	.st113{fill:url(#SVGID_46_);}
	.st114{fill:url(#SVGID_47_);}
	.st115{fill:#842B20;}
	.st116{fill:url(#SVGID_48_);}
	.st117{fill:url(#SVGID_49_);}
	.st118{opacity:0.6;fill:#D2503A;enable-background:new    ;}
	.st119{fill:#DC7D67;}
	.st120{fill:url(#SVGID_50_);}
	.st121{fill:url(#SVGID_51_);}
	.st122{opacity:0.8;fill:#E2BF40;enable-background:new    ;}
	.st123{fill:url(#SVGID_52_);}
	.st124{opacity:0.4;fill:#59A4C1;enable-background:new    ;}
	.st125{fill:#80B4D2;}
	.st126{fill:#4493BB;}
	.st127{fill:#D2ECF9;}
	.st128{opacity:0.5;fill:#80B4D2;enable-background:new    ;}
	.st129{fill:url(#SVGID_53_);}
	.st130{fill:#976430;}
	.st131{fill:url(#SVGID_54_);}
	.st132{fill:#CAA67E;}
	.st133{fill:#5CA6A6;}
	.st134{fill:url(#SVGID_55_);}
	.st135{fill:#9DD6DE;}
	.st136{fill:none;stroke:#AFDDE3;stroke-width:0.8954;stroke-miterlimit:10;}
	.st137{opacity:0.3;enable-background:new    ;}
	.st138{clip-path:url(#SVGID_57_);fill:#9DD6DE;}
	.st139{clip-path:url(#SVGID_59_);fill:#9DD6DE;}
	.st140{opacity:0.6;fill:#FFFFFF;enable-background:new    ;}
	.st141{fill:url(#SVGID_60_);}
	.st142{fill:url(#SVGID_61_);}
	.st143{fill:url(#SVGID_62_);}
	.st144{fill:url(#SVGID_63_);}
	.st145{fill:url(#SVGID_64_);}
	.st146{fill:url(#SVGID_65_);}
	.st147{fill:url(#SVGID_66_);}
	.st148{fill:url(#SVGID_67_);}
	.st149{fill:url(#SVGID_68_);}
	.st150{fill:url(#SVGID_69_);}
	.st151{fill:url(#SVGID_70_);}
	.st152{fill:url(#SVGID_71_);}
	.st153{fill:url(#SVGID_72_);}
	.st154{fill:url(#SVGID_73_);}
	.st155{fill:url(#SVGID_74_);}
	.st156{fill:url(#SVGID_75_);}
	.st157{fill:url(#SVGID_76_);}
	.st158{fill:url(#SVGID_77_);}
	.st159{fill:url(#SVGID_78_);}
	.st160{fill:url(#SVGID_79_);}
	.st161{fill:url(#SVGID_80_);}
</style>
<g>
	<g>
		
			<linearGradient id="SVGID_1_" gradientUnits="userSpaceOnUse" x1="1082.4077" y1="217.7616" x2="1167.3884" y2="217.7616" gradientTransform="matrix(-1 0 0 -1 1686.1643 602)">
			<stop  offset="0" style="stop-color:#EFD97F"/>
			<stop  offset="0.1978" style="stop-color:#EFD87C"/>
			<stop  offset="0.3726" style="stop-color:#EED571"/>
			<stop  offset="0.5387" style="stop-color:#EDCF5F"/>
			<stop  offset="0.6984" style="stop-color:#EBC845"/>
			<stop  offset="0.7526" style="stop-color:#EAC53B"/>
			<stop  offset="1" style="stop-color:#E5AD14"/>
		</linearGradient>
		<path class="st0" d="M518.6,360.3l8.1-18.3c0-0.4,0-1,0.2-1.5c0-0.2,0-0.4,0-0.4c0-0.4,0.2-0.8,0.2-1c0-0.2,0-0.4,0.2-0.6
			c0.2-0.4,0.2-0.8,0.4-1.2c0-0.2,0-0.2,0.2-0.4c0.2-0.6,0.4-1,0.6-1.7c0-0.2,0.2-0.2,0.2-0.4c0.2-0.4,0.4-0.8,0.6-1.2
			c0-0.2,0.2-0.4,0.2-0.6c0.2-0.4,0.4-0.8,0.6-1c0-0.2,0.2-0.4,0.2-0.6c2.9-5.6,7.1-11,10-14.6c0.2-0.2,0.2-0.2,0.4-0.4
			c15.8,20,33.7,47.2,47.8,81.6c0,0,12.9,12.3,12.9,29.7c0,17.5-13.3,23.1-20.6,21.4l0,0c-8.1,7.1-19.6,2.7-21.8-8.7v-0.2
			c-0.4,0.2-1,0.6-1.7,0.8c-4.8,2.5-11.2-0.6-13.3-5l0,0l0,0c0-0.2-0.2-0.4-0.2-0.6l0.2-0.2l-1.7-14.1h0.4v-3.5l0.6-2.5
			c-0.2-0.6-0.6-1.5-0.8-2.3l-0.6-1l-0.8-2.5v-0.6c-2.7-6.4-6.7-15.4-11.9-26c-3.3-6.9-7.3-14.1-11.2-21L518.6,360.3z"/>
	</g>
	<path class="st1" d="M569.1,420.4c0,0,2.5,19.1-8.3,25.4l-1.9-5.4C558.9,440.4,570.4,434.3,569.1,420.4z"/>
	<path class="st1" d="M587.8,426.4c0,0,5,12.7,1.2,21.8c0,0-3.3,1.2-8.3,0.8C580.8,449.1,589.3,444.7,587.8,426.4z"/>
	<path class="st2" d="M569.5,426.4c0,0,0.2,11.4-9.6,15.6l-0.4-1.7C559.6,440.4,569.5,431.2,569.5,426.4z"/>
	<path class="st2" d="M588.7,433.1c0,0,0.6,10.6-5,16.2l-3.5-0.2C580.2,449.1,587.6,441.8,588.7,433.1z"/>
	<path class="st3" d="M518.6,360.3l8.1-18.3c0-0.4,0-1,0.2-1.5c0-0.2,0-0.4,0-0.4c0-0.4,0.2-0.8,0.2-1c0-0.2,0-0.4,0.2-0.6
		c0.2-0.4,0.2-0.8,0.4-1.2c0-0.2,0-0.2,0.2-0.4c0.2-0.6,0.4-1,0.6-1.7c0-0.2,0.2-0.2,0.2-0.4c0.2-0.4,0.4-0.8,0.6-1.2
		c0-0.2,0.2-0.4,0.2-0.6c0.2-0.4,0.4-0.8,0.6-1c0-0.2,0.2-0.4,0.2-0.6c0,0,0-0.2,0.2-0.2c10.8,21.2,22.5,49.5,23.1,73.4
		c0,0-13.3,16.9-8.5,33.3c-0.4-0.4-0.6-1-0.8-1.7l0,0l0,0c0-0.2-0.2-0.4-0.2-0.6l0.2-0.2l-1.7-14.1h0.4v-3.5l0.8-3.1l-1.9-2.7
		l-1-2.5l-20-43.5c0,0-1-1.2-2.9-4.2L518.6,360.3z"/>
	<g>
		<path class="st2" d="M542.7,416.4l-0.6-1.2l0,0c-0.2-0.4-13.1-28.9-25-52l1.2-2.9l0,0c10.8,20.8,22.7,47,25.4,52.8
			c0.4-1.2,0.8-1.7,0.8-1.7l0,0c1-1.9,2.3-3.5,2.5-3.5c0.2-0.2,0.6-0.2,0.8,0c0.2,0.2,0.2,0.6,0,0.8c-0.2,0.2-0.6,0.6-0.8,1
			c0,0-6.9,10.6-3.1,25.8l0,0c0.8,2.3,2.9,4.2,5.4,5.2c2.5,1,5.2,1,7.3,0c8.5-4.2,13.1-13.3,11.2-22.3c0-0.4,0.2-0.6,0.4-0.8
			c0.4,0,0.6,0.2,0.8,0.4c1.9,8.7-2.1,17.7-9.8,22.5c1.2,5.4,4.6,9.4,9.2,10.8c4.4,1.2,8.9,0,12.5-3.5c8.9-8.9,5.6-22.5,5.4-22.5
			c0-0.4,0.2-0.6,0.4-0.8c0.4,0,0.6,0.2,0.8,0.4c0,0.2,3.5,14.4-5.8,23.7l0,0c2.9,0.2,7.3-0.6,11.2-3.7c3.3-2.7,7.3-7.9,7.3-17.3
			c0-16.9-12.7-29.1-12.7-29.3l-0.2-0.2c-13.9-34.3-32-61.4-47.6-81.1l0.2-0.2c1-1.2,2.1-2.3,2.7-3.1l0,0c5.2,6.4,10.6,13.7,16,22.1
			l0,0c0,0,25.8,38.5,31.6,60.1c7.1,9.2,20.2,30.2,7.7,46c-1.2,1.9-2.7,3.3-4,4.4c-0.4,0.4-1,0.8-1.7,1c-0.2,0-0.2,0.2-0.2,0.2l0,0
			c-2.9,1.9-6,2.7-9.2,2.7c-0.8,0-1.7,0-2.3-0.2c-2.7,2.3-5.8,3.3-8.9,3.3c-1.2,0-2.5-0.2-3.7-0.6c-5-1.5-8.5-5.6-10-11.4
			c-0.2,0.2-0.6,0.4-0.8,0.4c-1.2,0.6-2.7,0.8-4.2,0.8c-1.5,0-2.7-0.2-4.2-0.8c-2.7-1-4.8-3.1-5.8-5.4l0,0c0,0,0,0,0-0.2
			c0-0.2-0.2-0.2-0.2-0.4l0,0c0,0-1-2.7-1.5-7.1c-0.2-1.7-0.2-3.7,0-5.8C541.9,420.4,542.3,418.1,542.7,416.4z"/>
	</g>
</g>
<g>
	<g>
		
			<linearGradient id="SVGID_2_" gradientUnits="userSpaceOnUse" x1="291.3533" y1="-66.8509" x2="376.334" y2="-66.8509" gradientTransform="matrix(1 0 0 -1 0 602)">
			<stop  offset="0" style="stop-color:#EFD97F"/>
			<stop  offset="0.1978" style="stop-color:#EFD87C"/>
			<stop  offset="0.3726" style="stop-color:#EED571"/>
			<stop  offset="0.5387" style="stop-color:#EDCF5F"/>
			<stop  offset="0.6984" style="stop-color:#EBC845"/>
			<stop  offset="0.7526" style="stop-color:#EAC53B"/>
			<stop  offset="1" style="stop-color:#E5AD14"/>
		</linearGradient>
		<path class="st4" d="M376.5,644.9l-8.1-18.3c0-0.4,0-1-0.2-1.5c0-0.2,0-0.4,0-0.4c0-0.4-0.2-0.8-0.2-1s0-0.4-0.2-0.6
			c-0.2-0.4-0.2-0.8-0.4-1.2c0-0.2,0-0.2-0.2-0.4c-0.2-0.6-0.4-1-0.6-1.7c0-0.2-0.2-0.2-0.2-0.4c-0.2-0.4-0.4-0.8-0.6-1.2
			c0-0.2-0.2-0.4-0.2-0.6c-0.2-0.4-0.4-0.8-0.6-1c0-0.2-0.2-0.4-0.2-0.6c-2.9-5.6-7.1-11-10-14.6c-0.2-0.2-0.2-0.2-0.4-0.4
			c-15.8,20-33.7,47.2-47.8,81.6c0,0-12.9,12.3-12.9,29.7s13.3,23.1,20.6,21.4l0,0c8.1,7.1,19.6,2.7,21.8-8.7v-0.2
			c0.4,0.2,1,0.6,1.7,0.8c4.8,2.5,11.2-0.6,13.3-5l0,0l0,0c0-0.2,0.2-0.4,0.2-0.6l-0.2-0.2l1.7-14.1h-0.4v-3.5l-0.6-2.5
			c0.2-0.6,0.6-1.5,0.8-2.3l0.6-1l0.8-2.5v-0.6c2.7-6.4,6.7-15.4,11.9-26c3.3-6.9,7.3-14.1,11.2-21L376.5,644.9z"/>
	</g>
	<g>
		<path class="st2" d="M352.3,701.1l0.6-1.2l0,0c0.2-0.4,13.1-28.9,25-52l-1.2-2.9l0,0c-10.8,20.8-22.7,47-25.4,52.8
			c-0.4-1.2-0.8-1.7-0.8-1.7l0,0c-1-1.9-2.3-3.5-2.5-3.5c-0.2-0.2-0.6-0.2-0.8,0c-0.2,0.2-0.2,0.6,0,0.8c0.2,0.2,0.6,0.6,0.8,1
			c0,0,6.9,10.6,3.1,25.8l0,0c-0.8,2.3-2.9,4.2-5.4,5.2c-2.5,1-5.2,1-7.3,0c-8.5-4.2-13.1-13.3-11.2-22.3c0-0.4-0.2-0.6-0.4-0.8
			c-0.4,0-0.6,0.2-0.8,0.4c-1.9,8.7,2.1,17.7,9.8,22.5c-1.2,5.4-4.6,9.4-9.2,10.8c-4.4,1.2-8.9,0-12.5-3.5
			c-8.9-8.9-5.6-22.5-5.4-22.5c0-0.4-0.2-0.6-0.4-0.8c-0.4,0-0.6,0.2-0.8,0.4c0,0.2-3.5,14.4,5.8,23.7l0,0
			c-2.9,0.2-7.3-0.6-11.2-3.7c-3.3-2.7-7.3-7.9-7.3-17.3c0-16.9,12.7-29.1,12.7-29.3l0.2-0.2c13.9-34.3,32-61.4,47.6-81.1l-0.2-0.2
			c-1-1.2-2.1-2.3-2.7-3.1l0,0c-5.2,6.4-10.6,13.7-16,22.1l0,0c0,0-25.8,38.5-31.6,60.1c-7.1,9.2-20.2,30.2-7.7,46
			c1.2,1.9,2.7,3.3,4,4.4c0.4,0.4,1,0.8,1.7,1c0.2,0,0.2,0.2,0.2,0.2l0,0c2.9,1.9,6,2.7,9.2,2.7c0.8,0,1.7,0,2.3-0.2
			c2.7,2.3,5.8,3.3,8.9,3.3c1.2,0,2.5-0.2,3.7-0.6c5-1.5,8.5-5.6,10-11.4c0.2,0.2,0.6,0.4,0.8,0.4c1.2,0.6,2.7,0.8,4.2,0.8
			s2.7-0.2,4.2-0.8c2.7-1,4.8-3.1,5.8-5.4l0,0c0,0,0,0,0-0.2c0-0.2,0.2-0.2,0.2-0.4l0,0c0,0,1-2.7,1.5-7.1c0.2-1.7,0.2-3.7,0-5.8
			C353.4,705,352.8,702.7,352.3,701.1z"/>
	</g>
</g>
<g>
	<g>
		<g>
			<linearGradient id="SVGID_3_" gradientUnits="userSpaceOnUse" x1="295.7023" y1="339.5214" x2="374.8223" y2="339.5214">
				<stop  offset="0" style="stop-color:#EFD980"/>
				<stop  offset="0.2037" style="stop-color:#EFD87C"/>
				<stop  offset="0.3836" style="stop-color:#EED572"/>
				<stop  offset="0.5546" style="stop-color:#EDCF5F"/>
				<stop  offset="0.7191" style="stop-color:#EBC743"/>
				<stop  offset="0.7526" style="stop-color:#EBC63C"/>
				<stop  offset="1" style="stop-color:#E7AE17"/>
			</linearGradient>
			<path class="st5" d="M362.3,325.1c-2-3.7-6.4-6.7-8.1-8.4c-2,2.4-3,3.7-3,3.7l-17.8-11.8l-11.8-3.7l-16.2,25.3
				c0,0,8.8,41.7,38.7,43.8c3.4,0.3,6.4,0,9.4-0.7c3.4-16.5,8.4-30.6,13.5-42.4C365,329.2,363.3,327.2,362.3,325.1z"/>
			<path class="st41" d="M353.2,373.3c0.3-2.4,1-4.4,1.3-6.7c-5.4-1.7-13.5-5.1-19.2-8.4c-10.8-6.4-11.1-21.5-11.1-21.5l9.1-2
				c0,0,5.7-1.3,8.1-6.4c1.7-3.7,6.1-7.1,8.4-8.4L333.4,309l-11.8-3.7l-16.2,25.3c0,0,8.8,41.7,38.7,43.8c0.7,0,1,0,1.7,0
				C348.2,374.3,350.9,374,353.2,373.3z"/>
			<path class="st9" d="M343.8,318.7c-1,0.3-2,1-3.4,1c0,1-0.3,3.7-0.7,6.1c0,0.7,0,1.3-0.3,2.4c-0.3,3.4-0.7,7.7-4,12.1
				c-0.3,0.3-0.3,0.7,0,1l0.3,0.3c0.3,0,0.3,0,0.7-0.3c0.3-0.3,0.3-0.3,0.7-0.7l0,0C342.1,336.9,343.5,322.8,343.8,318.7z
				 M340.4,332.9L340.4,332.9L340.4,332.9L340.4,332.9z"/>
			<path class="st9" d="M353.2,374.6c0.7,0,1,0,1.7,0c0.3,0,0.7-0.3,0.7-0.7s-0.3-0.7-0.7-0.7c-32.3,2-43.4-26.3-45.1-32l-4.4-0.7
				l0,0C305.4,340.6,319.9,380.4,353.2,374.6L353.2,374.6z"/>
			<path class="st9" d="M359.3,326.8c-0.7-2.7-2.7-5.1-5.1-7.4l-0.7-0.7l2.4-3l-1-0.7l-1-0.7l-1.3-0.7h-0.7l-2,2c-1-1-2-1.3-2-1.3
				l0,0c0,0-1,1.3-3,2.7c0.7,0.7,9.1,6.1,12.8,10.1c0,0,0.3,0.3,0.7,0.3c0.3,0,0.3,0,0.3-0.3C359.6,327.5,359.6,327.2,359.3,326.8z"
				/>
		</g>
		<g>
			<path class="st10" d="M319.6,358.1c-0.3,0-0.7,0-1,0c-3.7-0.7-6.4-4-5.7-7.7l7.4-51.5c0-0.3,0-0.3,0-0.7
				c0.3-2.4,2.4-13.8-8.1-16.5c-4.4-1-7.7-0.7-10.1,1c-2.7,2-3.7,6.1-3.7,7.4c0,2-0.7,3.7-2,4.7c-1.3,1.3-3,2-5.1,2
				c-1.7,0-3.7-0.7-4.7-2c-1.3-1.3-2-3-2-5.1c0-4,2-12.8,9.1-17.8c4-3,11.1-6.1,21.9-3.4c19.2,4.7,20.5,23.6,18.5,32.7l-7.4,51.2
				C326,355.4,322.9,358.1,319.6,358.1z M307.8,279.4c1.3,0,3,0.3,5.1,0.7c11.8,2.7,9.8,15.5,9.1,18.2v0.3l-7.4,51.5
				c-0.3,3,1.7,5.7,4.7,6.1c3,0.3,5.7-1.7,6.1-4.7l7.4-51.2c2-8.8,0.7-26.6-17.2-31c-10.4-2.4-16.8,0.3-20.5,3.4
				c-6.4,5.1-8.4,12.8-8.4,16.8c0,1.3,0.3,2.7,1.3,4c1,1,2.4,1.7,3.7,1.7s2.7-0.3,4-1.3c1-1,1.7-2.4,1.7-3.7s1-6.1,4.4-8.4
				C303.1,280,305.1,279.4,307.8,279.4z"/>
			<linearGradient id="SVGID_4_" gradientUnits="userSpaceOnUse" x1="286.1362" y1="312.259" x2="333.2025" y2="312.259">
				<stop  offset="0" style="stop-color:#FADA96"/>
				<stop  offset="0.156" style="stop-color:#F8D792"/>
				<stop  offset="0.3049" style="stop-color:#F4CD88"/>
				<stop  offset="0.4509" style="stop-color:#EDBD77"/>
				<stop  offset="0.5951" style="stop-color:#E4A661"/>
				<stop  offset="0.738" style="stop-color:#D88847"/>
				<stop  offset="0.8781" style="stop-color:#CB642E"/>
				<stop  offset="1" style="stop-color:#BF3E1F"/>
			</linearGradient>
			<path class="st6" d="M307.8,279.4c1.3,0,3,0.3,5.1,0.7c11.8,2.7,9.8,15.5,9.1,18.2v0.3l-7.4,51.5c-0.3,3,1.7,5.7,4.7,6.1
				c3,0.3,5.7-1.7,6.1-4.7l7.4-51.2c2-8.8,0.7-26.6-17.2-31c-10.4-2.4-16.8,0.3-20.5,3.4c-6.4,5.1-8.4,12.8-8.4,16.8
				c0,1.3,0.3,2.7,1.3,4c1,1,2.4,1.7,3.7,1.7s2.7-0.3,4-1.3c1-1,1.7-2.4,1.7-3.7s1-6.1,4.4-8.4C303.1,280,305.1,279.4,307.8,279.4z"
				/>
			<path class="st10" d="M338.1,349.1c0-0.3,0-0.7-0.3-1c-12.1-5.7-28.3-5.7-28.3-5.7c-0.3,0-0.7,0.3-0.7,0.7v0.3l-2.7-1.7
				c-0.3,0-0.7,0-0.7,0c-0.3,0-0.3,0.3-0.3,0.7v5.7l-8.8,1.7c0,0-0.7-0.7,0.3,3.4c1,4,6.7,26.3,6.7,26.3s0.3,0.3,0.7,0.7v0.3
				l-0.3,5.7c0,0.3,0,0.3,0.3,0.7c0,0-6.7,23.2-8.4,26.3c-1.7,3-2,2.7-1.7,5.4c0.3,2.7-1,35.4-1,35.4c-1.3,4.4-2.4,7.7-3,9.4
				c-3,7.1-2.7,8.4-2.4,9.8c0,0.3,0,0.3,0,0.7c0,1.7,1.7,9.8,2,11.1c0,0,0,0,0,0.3c0,2.4-0.7,6.1-1,7.1c-0.7,1.7,1,6.4,1,6.4
				c0,1.7,0,4.4,0,4.4c0,0.7-0.3,6.1-0.7,13.5c0,0.3-0.3,0.7-0.3,1c-0.7,1.3-0.3,18.9-0.3,23.9l0,0c0,2.7,0,5.4,0.3,7.1l-1.3,15.8
				c0,0.3,0,0.3,0.3,0.7c1,1,4,1.3,6.4,1.3c1.3,0,2.4,0,2.7,0c0.3,0,0.7-0.3,0.7-0.7l2-15.8l3.7-12.1c0-0.7,10.4-55.2,12.5-62.6
				c2-7.4,3.4-26.3,3.7-28.3c0.3-0.7,1.3-2,1.3-4c0-2.4,0.3-15.2,0.3-16.2c0.3-1.7,0.3-3,0.3-3.7c0-1.3,1-18.5,1.3-30
				c0.3-0.3,0.7-1,0.3-1.3c0-0.7,0-1.3-0.3-1.7c0.3,0,0.3-0.3,0.7-0.7c0-0.3,1.3-4.4,1-5.7c0-0.3,0-0.3-0.3-0.7c0,0,0,0,0-0.3
				L338.1,349.1z M310.1,343.7c3,0,16.2,0.7,26.3,5.4l-1.7,4.4l0,0l-12.1,26.9l0,0c-2.7-1-6.4-1.7-7.4-1.7c-2-0.3-3.7,0-5.4,0
				L310.1,343.7z M308.5,345l-0.7,33.7c-0.3,0-0.7,0-1,0.3l-0.7-35.4L308.5,345z M298,351.4l6.7-1.3l0.3,29.6l0,0L298,351.4z
				 M296,564.2c-2.7,0-6.1,0-7.1-0.7l1.3-14.8l7.4,0.7L296,564.2z M314.2,473.6c-2,7.7-12.1,60.6-12.5,62.6l-3.4,11.4l-7.7-0.7
				c-0.7-6.4-0.3-18.9,0.3-29.3c4.4-11.8,10.8-28.3,16.5-42.1l10.1-22.6C316.5,459.8,315.5,469.2,314.2,473.6z M319.6,421.8
				c0,1.7-0.7,7.4-2.4,10.8c0,0.3,0,0.7,0.3,1c0.3-0.7,1.3-2,1.7-2.7v1l0,0c0,0.3,0,1,0,1.3l0,0c0,3.7,0,7.4-0.3,8.4
				c0,2-1,3.4-1,3.7l0,0l0,0l0,0c-0.3,0.3-17.2,41.7-26.9,68c0.3-6.1,0.7-10.4,0.7-10.4s0-2.7,0-4.4c0.3-0.7,0.7-1.3,1-2.4
				c5.4-12.5,24.9-62.6,24.9-62.6c-0.3,0-0.7,0-1,0.3c-0.3,0.7-19.5,48.8-25.3,61.6c0-1-0.3-2.4,0-3.7c0.3-3,0.3-9.4,0.3-12.1
				c-0.3-2.7,0.3-6.1,1-7.7c0.7-1.7,17.8-52.2,18.5-54.2c0-0.3,0-0.3,0-0.7l-11.4,28.6c-3,8.4-5.7,16.5-7.4,20.9l-3.4,7.7
				c0-0.7,0-1,0-1.3s0-0.7,0-0.7c-0.3-1-0.3-2.4,2.4-8.8c0.3-1.3,1-3.4,2-5.7l1.3-4.7c4.7-16.8,11.8-46.5,12.5-48.1
				c0-0.3,0-0.7-0.7-1c0,0-6.4,27.6-11.4,41.7v-0.3c0,0.3-0.3,0.7-0.3,1.3c0.7-8.8,1.3-21.9,1.3-25.3c0-1.3,0-2.4,0-3
				c0-1.7,0-1.7,1.3-4.4c2-3.7,7.4-22.6,8.4-26.6c2,0.7,5.7,1.3,12.5,1.3c1,0,2,0,3,0c0,0.3,0,0.7,0,1l-9.1,23.6c0,0,0,0,0.3,0
				c0.3,0,0.7,0,0.7-0.3l8.1-18.9C320.6,403.6,319.6,420.1,319.6,421.8z M322.3,387.1c-11.4,0.3-15.8-1-16.8-1.7l0.3-4.7
				c0-0.3,2.7-0.7,3.4-0.7c2-0.3,4-0.3,6.1-0.3c5.4,0.7,8.4,2,8.4,2.4C323.3,383.1,322.6,385.4,322.3,387.1z"/>
			<linearGradient id="SVGID_5_" gradientUnits="userSpaceOnUse" x1="309.469" y1="362.0128" x2="336.446" y2="362.0128">
				<stop  offset="0" style="stop-color:#FADA96"/>
				<stop  offset="0.1697" style="stop-color:#F0C57F"/>
				<stop  offset="0.5312" style="stop-color:#DB8E4B"/>
				<stop  offset="1" style="stop-color:#BF3E1F"/>
			</linearGradient>
			<path class="st7" d="M310.1,343.7c3,0,16.2,0.7,26.3,5.4l-1.7,4.4l0,0l-12.1,26.9l0,0c-2.7-1-6.4-1.7-7.4-1.7c-2-0.3-3.7,0-5.4,0
				L310.1,343.7z"/>
			<linearGradient id="SVGID_6_" gradientUnits="userSpaceOnUse" x1="306.2965" y1="361.3394" x2="308.527" y2="361.3394">
				<stop  offset="0" style="stop-color:#FADA96"/>
				<stop  offset="9.012181e-02" style="stop-color:#F1C680"/>
				<stop  offset="0.3217" style="stop-color:#DE9653"/>
				<stop  offset="0.5366" style="stop-color:#D07136"/>
				<stop  offset="0.7281" style="stop-color:#C75527"/>
				<stop  offset="0.889" style="stop-color:#C14420"/>
				<stop  offset="1" style="stop-color:#BF3E1F"/>
			</linearGradient>
			<path class="st11" d="M308.5,345l-0.7,33.7c-0.3,0-0.7,0-1,0.3l-0.7-35.4L308.5,345z"/>
			<linearGradient id="SVGID_7_" gradientUnits="userSpaceOnUse" x1="298.1664" y1="364.8745" x2="305.3811" y2="364.8745">
				<stop  offset="0" style="stop-color:#FADA96"/>
				<stop  offset="9.012181e-02" style="stop-color:#F1C680"/>
				<stop  offset="0.3217" style="stop-color:#DE9653"/>
				<stop  offset="0.5366" style="stop-color:#D07136"/>
				<stop  offset="0.7281" style="stop-color:#C75527"/>
				<stop  offset="0.889" style="stop-color:#C14420"/>
				<stop  offset="1" style="stop-color:#BF3E1F"/>
			</linearGradient>
			<path class="st12" d="M298,351.4l6.7-1.3l0.3,29.6l0,0L298,351.4z"/>
			<linearGradient id="SVGID_8_" gradientUnits="userSpaceOnUse" x1="288.9169" y1="556.4443" x2="297.7675" y2="556.4443">
				<stop  offset="0" style="stop-color:#AC5050"/>
				<stop  offset="1" style="stop-color:#2B2337"/>
			</linearGradient>
			<path class="st13" d="M296,564.2c-2.7,0-6.1,0-7.1-0.7l1.3-14.8l7.4,0.7L296,564.2z"/>
			<linearGradient id="SVGID_9_" gradientUnits="userSpaceOnUse" x1="250.6034" y1="427.375" x2="318.416" y2="519.5305">
				<stop  offset="0" style="stop-color:#FADA96"/>
				<stop  offset="5.011821e-02" style="stop-color:#F6D08C"/>
				<stop  offset="0.3902" style="stop-color:#DD9350"/>
				<stop  offset="0.673" style="stop-color:#CC662F"/>
				<stop  offset="0.8842" style="stop-color:#C34922"/>
				<stop  offset="1" style="stop-color:#BF3E1F"/>
			</linearGradient>
			<path class="st14" d="M314.2,473.6c-2,7.7-12.1,60.6-12.5,62.6l-3.4,11.4l-7.7-0.7c-0.7-6.4-0.3-18.9,0.3-29.3
				c4.4-11.8,10.8-28.3,16.5-42.1l10.1-22.6C316.5,459.8,315.5,469.2,314.2,473.6z"/>
			<linearGradient id="SVGID_10_" gradientUnits="userSpaceOnUse" x1="275.2983" y1="409.2029" x2="343.1113" y2="501.3587">
				<stop  offset="0" style="stop-color:#FADA96"/>
				<stop  offset="5.011821e-02" style="stop-color:#F6D08C"/>
				<stop  offset="0.3902" style="stop-color:#DD9350"/>
				<stop  offset="0.673" style="stop-color:#CC662F"/>
				<stop  offset="0.8842" style="stop-color:#C34922"/>
				<stop  offset="1" style="stop-color:#BF3E1F"/>
			</linearGradient>
			<path class="st15" d="M319.6,421.8c0,1.7-0.7,7.4-2.4,10.8c0,0.3,0,0.7,0.3,1c0.3-0.7,1.3-2,1.7-2.7v1l0,0c0,0.3,0,1,0,1.3l0,0
				c0,3.7,0,7.4-0.3,8.4c0,2-1,3.4-1,3.7l0,0l0,0l0,0c-0.3,0.3-17.2,41.7-26.9,68c0.3-6.1,0.7-10.4,0.7-10.4s0-2.7,0-4.4
				c0.3-0.7,0.7-1.3,1-2.4c5.4-12.5,24.9-62.6,24.9-62.6c-0.3,0-0.7,0-1,0.3c-0.3,0.7-19.5,48.8-25.3,61.6c0-1-0.3-2.4,0-3.7
				c0.3-3,0.3-9.4,0.3-12.1c-0.3-2.7,0.3-6.1,1-7.7c0.7-1.7,17.8-52.2,18.5-54.2c0-0.3,0-0.3,0-0.7l-11.4,28.6
				c-3,8.4-5.7,16.5-7.4,20.9l-3.4,7.7c0-0.7,0-1,0-1.3s0-0.7,0-0.7c-0.3-1-0.3-2.4,2.4-8.8c0.3-1.3,1-3.4,2-5.7l1.3-4.7
				c4.7-16.8,11.8-46.5,12.5-48.1c0-0.3,0-0.7-0.7-1c0,0-6.4,27.6-11.4,41.7v-0.3c0,0.3-0.3,0.7-0.3,1.3c0.7-8.8,1.3-21.9,1.3-25.3
				c0-1.3,0-2.4,0-3c0-1.7,0-1.7,1.3-4.4c2-3.7,7.4-22.6,8.4-26.6c2,0.7,5.7,1.3,12.5,1.3c1,0,2,0,3,0c0,0.3,0,0.7,0,1l-9.1,23.6
				c0,0,0,0,0.3,0c0.3,0,0.7,0,0.7-0.3l8.1-18.9C320.6,403.6,319.6,420.1,319.6,421.8z"/>
			<path class="st18" d="M322.3,387.1c-11.4,0.3-15.8-1-16.8-1.7l0.3-4.7c0-0.3,2.7-0.7,3.4-0.7c2-0.3,4-0.3,6.1-0.3
				c5.4,0.7,8.4,2,8.4,2.4C323.3,383.1,322.6,385.4,322.3,387.1z"/>
			<g>
				<path class="st19" d="M320.9,399.6c0-2,0.3-3.7,0.3-5.4l-8.1,18.9L320.9,399.6z"/>
			</g>
			<path class="st19" d="M295,446.7c0-0.3,0.3-0.7,0.3-1.3v0.3c5.1-14.1,11.4-41.7,11.4-41.7l-11.1,29.6
				C295.3,437.9,295,442.6,295,446.7z"/>
			<g>
				<path class="st19" d="M293.3,490.1v-2.4l-2-4.4c0,2.7,0,6.1-0.3,8.1c0,1.7,0,2.7,0,3.7C291.6,494.2,292.3,492.1,293.3,490.1z"/>
				<path class="st19" d="M292,510.3c0.3-0.7,0.3-1,0.7-1.7v-7.4l23.9-66c-3.7,9.4-19.2,49.5-24.2,60.6c-0.3,1-0.7,1.7-1,2.4
					c0,1.7,0,4.4,0,4.4s-0.3,3.4-0.3,8.4L292,510.3z"/>
			</g>
			<path class="st19" d="M315.2,468.6c0-0.7,0.3-1,0.3-1.7c0,0,0,0,0-0.3c0-0.7,0-1,0.3-1.7v-0.3c0-1.3,0.3-2.4,0.3-3.7v-0.3
				c0-0.7,0-1,0.3-1.7c0,0,0,0,0-0.3c0-0.7,0-1.3,0.3-1.7v-0.3c0-0.3,0-1,0-1.3v-0.3c0-0.7,0-1,0-1.7l-10.1,22.6
				c-3.7,9.1-7.4,18.9-11.1,28.3c4-8.4,8.8-18.5,12.5-25.9l-10.4,70l0,0l3.4-11.4c0.3-2,10.4-54.9,12.5-62.6
				C314.5,472.3,314.9,470.6,315.2,468.6L315.2,468.6L315.2,468.6z"/>
			<path class="st20" d="M297.3,418.4c0.7-4.4,8.8-27.3,9.8-30.6c-0.7,0-1-0.3-1.3-0.3c-1,4-6.4,23.2-8.4,26.6
				c-1.3,2.7-1.3,2.7-1.3,4.4c0,0.7,0,1.7,0,3c0,1.7,0,5.4-0.3,9.8C296.3,427.2,297,421.1,297.3,418.4z"/>
			<g>
				<path class="st20" d="M288.9,473.3c0,0.3,0,0.7,0,1.3l3-6.7c0-2,3.7-18.2,7.4-33.7c-1.7,6.7-3.4,13.5-5.1,18.9l-1.3,4.7
					c-0.7,2.7-1.3,4.7-2,5.7c-2.7,6.7-2.7,7.7-2.4,8.8C288.9,472.6,288.9,472.9,288.9,473.3z"/>
				<path class="st20" d="M295,445.7L295,445.7c2.4-6.1,4.7-15.2,6.7-23.2c-2.7,9.1-5.4,18.5-7.1,24.2v0.3
					C295,446.4,295,446,295,445.7z"/>
			</g>
			<path class="st20" d="M297,500.6c-2.4,6.1-4.7,12.1-6.7,17.2c-0.3,10.1-0.7,22.9-0.3,29.3c0,0,1-15.5,2-24.6
				C293,513.3,297,500.6,297,500.6z"/>
			<g>
				<path class="st20" d="M288.9,473.3c0,0.3,0,0.7,0,1.3l2.4-5.7l-2-1.3c-1,3.4-1,4.4-1,5.1C288.9,472.6,288.9,472.9,288.9,473.3z"
					/>
				<path class="st20" d="M294.3,500.9c-0.7-1.7-1.3-5.7-1.3-5.7l0,0c-0.3,0.3-0.3,0.7-0.7,1.3c-0.3,1-0.7,1.7-1,2.4
					c0,1.7,0,4.4,0,4.4s-0.3,4.4-0.7,10.4c0.7-1.3,1-3,1.7-4.7C292.6,508,294.7,502.2,294.3,500.9z"/>
				<path class="st20" d="M291,495.5c0.7-1,1-2.7,2-4.4c0-1.3-0.3-3-0.7-4.4c-0.7-2-0.7-9.1-0.3-13.8c-0.7,1.7-0.7,4.4-0.7,6.4
					c0.3,3,0,9.1-0.3,12.1C291,493.1,291,494.5,291,495.5z"/>
			</g>
			<line class="st21" x1="314.5" y1="409.3" x2="301.1" y2="446.7"/>
		</g>
		<g>
			<linearGradient id="SVGID_11_" gradientUnits="userSpaceOnUse" x1="293.997" y1="308.9921" x2="339.8566" y2="308.9921">
				<stop  offset="0" style="stop-color:#EFD980"/>
				<stop  offset="0.2037" style="stop-color:#EFD87C"/>
				<stop  offset="0.3836" style="stop-color:#EED572"/>
				<stop  offset="0.5546" style="stop-color:#EDCF5F"/>
				<stop  offset="0.7191" style="stop-color:#EBC743"/>
				<stop  offset="0.7526" style="stop-color:#EBC63C"/>
				<stop  offset="1" style="stop-color:#E7AE17"/>
			</linearGradient>
			<path class="st16" d="M334.4,320.1c-10.4-8.8-23.9-3.4-23.9-3.4c-1,0.3-1.7,0.7-2,0.7c-0.3,0-0.7,0.7-0.3,1c0,0.3,0.7,0.7,1,0.3
				c0,0,10.8-4,19.5,0c1.7,1,3,2,4,3.7c0.3,0.7,2.7,10.8-4.4,15.5c-4.4,1.3-12.1,2.4-18.9,1.7c-15.8-2.7-12.8-19.2-12.8-19.2
				c0,0.7-0.3,1.3-0.3,1.7c0-0.7,0.3-1.3,0.3-1.7s0-0.3,0-0.7c0,0-6.1-13.8,1.3-19.9c0.3,0,0.3-0.3,0.3-0.7c0,0-0.3-4.7,2-9.4
				c3.4-6.4,10.1-10.4,20.2-11.4c6.7-0.7,11.8,0.3,15.2,3c1.7,1.3,5.4,6.1,2.4,17.8c-3.7-4-8.1-5.1-8.1-5.1l0,0
				c-3.7-1.3-6.7-1-6.7-1l0,0c-9.4-0.3-18.2,4-18.5,4c-0.3,0.3-0.3,0.7-0.3,1c0.3,0.3,0.7,0.3,1,0.3c0.3,0,21.5-10.8,31.6,3
				c1,1.3,1.7,2.7,2.4,4.4C339.8,307,341.8,314,334.4,320.1z"/>
			<linearGradient id="SVGID_12_" gradientUnits="userSpaceOnUse" x1="339.3277" y1="304.1041" x2="350.4414" y2="304.1041">
				<stop  offset="0" style="stop-color:#EFD980"/>
				<stop  offset="0.2037" style="stop-color:#EFD87C"/>
				<stop  offset="0.3836" style="stop-color:#EED572"/>
				<stop  offset="0.5546" style="stop-color:#EDCF5F"/>
				<stop  offset="0.7191" style="stop-color:#EBC743"/>
				<stop  offset="0.7526" style="stop-color:#EBC63C"/>
				<stop  offset="1" style="stop-color:#E7AE17"/>
			</linearGradient>
			<path class="st17" d="M339.4,318.4c1-1.3,1.7-3,2.4-4.7c0.3-0.7,0.3-1.7,0.3-2.4l0,0l0,0c0-0.7,0-1.3,0-2c-0.3-3-1.3-5.4-2.4-7.4
				c0.7-1.7,1.3-4.4,1.7-7.4c0.3-1.3,0.3-3,0.3-4.7c1,0,3,0,5.1,1.3c2.4,1.7,3.7,5.1,4,9.8C351.2,314,345.5,317.4,339.4,318.4z"/>
			<path class="st9" d="M296,333.2c0.7,1.7,2,3,3,4.4l0,0c0.7,0.7,2.7,2,6.1,3l4.4,0.7c2.7,0.3,5.7,0.3,9.4,0
				c7.7-0.7,11.1-2.4,12.8-4l0,0l0,0c1-1,1.3-2,1.3-2l0,0c1.3-2.4,2-6.1,1.7-9.8c0-1-0.3-2-1-3c0.7-0.3,2-1.3,3.7-2.7l0,0
				c1,0,1.7-0.3,2.7-0.3c0,0,0,0,0,0.3c1.3-0.3,2.4-0.7,3.4-1l0,0c0.7-0.3,1-0.7,1.7-1l0,0c2-1.3,3-2.7,3-2.7l1.7-3.4
				c0-0.3,0.3-0.7,0.3-1l0,0l0,0c0.3-0.7,0.3-1.3,0.3-1.7c4.7-19.9-7.1-21.5-10.1-21.5c-0.7-5.7-4-11.1-13.8-11.4
				c-20.5-1.7-26.9,11.4-26.9,11.4l0,0c-3.4,5.1-3.4,10.1-3,11.8c-7.4,6.7-2.4,19.2-1.7,21.2C294.3,322.1,293.6,328.5,296,333.2z
				 M341.1,294.2c0.3-1.3,0.3-3,0.3-4.7c1,0,3,0,5.1,1.3c2.4,1.7,3.7,5.1,4,9.8c1,13.5-4.7,16.8-11.1,17.8c1-1.3,1.7-3,2.4-4.7
				c0.3-0.7,0.3-1.7,0.3-2.4l0,0l0,0c0-0.7,0-1.3,0-2c-0.3-3-1.3-5.4-2.4-7.4C340.1,299.6,340.8,296.9,341.1,294.2z M297.7,299.9
				c0.3,0,0.3-0.3,0.3-0.7c0,0-0.3-4.7,2-9.4c3.4-6.4,10.1-10.4,20.2-11.4c6.7-0.7,11.8,0.3,15.2,3c1.7,1.3,5.4,6.1,2.4,17.8
				c-3.7-4-8.1-5.1-8.1-5.1l0,0c-3.7-1.3-6.7-1-6.7-1l0,0c-9.4-0.3-18.2,4-18.5,4c-0.3,0.3-0.3,0.7-0.3,1c0.3,0.3,0.7,0.3,1,0.3
				c0.3,0,21.5-10.8,31.6,3c1,1.3,1.7,2.7,2.4,4.4c0.3,1.3,2.4,8.8-5.1,14.8c-10.4-8.8-23.9-3.4-23.9-3.4c-1,0.3-1.7,0.7-2,0.7
				c-0.3,0-0.7,0.7-0.3,1c0,0.3,0.7,0.7,1,0.3c0,0,10.8-4,19.5,0c1.7,1,3,2,4,3.7c0.3,0.7,2.7,10.8-4.4,15.5
				c-4.4,1.3-12.1,2.4-18.9,1.7c-15.8-2.7-12.8-19.2-12.8-19.2c0,0.7-0.3,1.3-0.3,1.7c0-0.7,0.3-1.3,0.3-1.7s0-0.3,0-0.7
				C296.3,319.8,290.3,306,297.7,299.9z"/>
			<g>
				<path class="st41" d="M337.7,298.9c3-11.8-0.7-16.5-2.4-17.8c-0.3-0.3-0.7-0.7-1.3-1c0.3,0.7,5.1,8.4-2.7,14.1l0,0
					C333,294.8,335.4,296.5,337.7,298.9z"/>
				<path class="st41" d="M336.7,301.2c-1-1.3-2.4-2.7-3.7-3.7c2.4,4.7,5.1,13.5-2.4,20.2c1,0.7,2.4,1.3,3.4,2.4
					c7.4-6.1,5.4-13.1,5.1-14.8C338.8,303.9,337.7,302.6,336.7,301.2z"/>
				<path class="st41" d="M332.4,322.5c-0.7-1-1.3-2-2.4-2.7c0.3,3.4,1,14.8-8.8,19.5c2.7-0.3,4.7-1,6.7-1.3
					C335.4,332.9,332.7,323.1,332.4,322.5z"/>
			</g>
			<path class="st41" d="M341.8,309c0,0.7,0,1.3,0,2l0,0l0,0c0,0.7,0,1.7-0.3,2.4c-0.3,1.7-1.3,3.4-2.4,4.7c4-0.7,7.7-2.4,9.8-6.7
				c-0.3-12.5-7.7-17.5-7.7-17.5c-0.3,3-1,5.4-1.7,7.4C340.4,303.3,341.5,306,341.8,309z"/>
		</g>
	</g>
	<g>
		<g>
			<linearGradient id="SVGID_13_" gradientUnits="userSpaceOnUse" x1="295.7023" y1="339.5214" x2="374.8223" y2="339.5214">
				<stop  offset="0" style="stop-color:#EFD980"/>
				<stop  offset="0.2037" style="stop-color:#EFD87C"/>
				<stop  offset="0.3836" style="stop-color:#EED572"/>
				<stop  offset="0.5546" style="stop-color:#EDCF5F"/>
				<stop  offset="0.7191" style="stop-color:#EBC743"/>
				<stop  offset="0.7526" style="stop-color:#EBC63C"/>
				<stop  offset="1" style="stop-color:#E7AE17"/>
			</linearGradient>
			<path class="st22" d="M362.3,325.1c-2-3.7-6.4-6.7-8.1-8.4c-2,2.4-3,3.7-3,3.7l-17.8-11.8l-11.8-3.7l-16.2,25.3
				c0,0,8.8,41.7,38.7,43.8c3.4,0.3,6.4,0,9.4-0.7c3.4-16.5,8.4-30.6,13.5-42.4C365,329.2,363.3,327.2,362.3,325.1z"/>
			<path class="st41" d="M353.2,373.3c0.3-2.4,1-4.4,1.3-6.7c-5.4-1.7-13.5-5.1-19.2-8.4c-10.8-6.4-11.1-21.5-11.1-21.5l9.1-2
				c0,0,5.7-1.3,8.1-6.4c1.7-3.7,6.1-7.1,8.4-8.4L333.4,309l-11.8-3.7l-16.2,25.3c0,0,8.8,41.7,38.7,43.8c0.7,0,1,0,1.7,0
				C348.2,374.3,350.9,374,353.2,373.3z"/>
			<path class="st9" d="M343.8,318.7c-1,0.3-2,1-3.4,1c0,1-0.3,3.7-0.7,6.1c0,0.7,0,1.3-0.3,2.4c-0.3,3.4-0.7,7.7-4,12.1
				c-0.3,0.3-0.3,0.7,0,1l0.3,0.3c0.3,0,0.3,0,0.7-0.3c0.3-0.3,0.3-0.3,0.7-0.7l0,0C342.1,336.9,343.5,322.8,343.8,318.7z
				 M340.4,332.9L340.4,332.9L340.4,332.9L340.4,332.9z"/>
			<path class="st9" d="M353.2,374.6c0.7,0,1,0,1.7,0c0.3,0,0.7-0.3,0.7-0.7s-0.3-0.7-0.7-0.7c-32.3,2-43.4-26.3-45.1-32l-4.4-0.7
				l0,0C305.4,340.6,319.9,380.4,353.2,374.6L353.2,374.6z"/>
			<path class="st9" d="M359.3,326.8c-0.7-2.7-2.7-5.1-5.1-7.4l-0.7-0.7l2.4-3l-1-0.7l-1-0.7l-1.3-0.7h-0.7l-2,2c-1-1-2-1.3-2-1.3
				l0,0c0,0-1,1.3-3,2.7c0.7,0.7,9.1,6.1,12.8,10.1c0,0,0.3,0.3,0.7,0.3c0.3,0,0.3,0,0.3-0.3C359.6,327.5,359.6,327.2,359.3,326.8z"
				/>
		</g>
		<g>
			<path class="st10" d="M319.6,358.1c-0.3,0-0.7,0-1,0c-3.7-0.7-6.4-4-5.7-7.7l7.4-51.5c0-0.3,0-0.3,0-0.7
				c0.3-2.4,2.4-13.8-8.1-16.5c-4.4-1-7.7-0.7-10.1,1c-2.7,2-3.7,6.1-3.7,7.4c0,2-0.7,3.7-2,4.7c-1.3,1.3-3,2-5.1,2
				c-1.7,0-3.7-0.7-4.7-2c-1.3-1.3-2-3-2-5.1c0-4,2-12.8,9.1-17.8c4-3,11.1-6.1,21.9-3.4c19.2,4.7,20.5,23.6,18.5,32.7l-7.4,51.2
				C326,355.4,322.9,358.1,319.6,358.1z M307.8,279.4c1.3,0,3,0.3,5.1,0.7c11.8,2.7,9.8,15.5,9.1,18.2v0.3l-7.4,51.5
				c-0.3,3,1.7,5.7,4.7,6.1c3,0.3,5.7-1.7,6.1-4.7l7.4-51.2c2-8.8,0.7-26.6-17.2-31c-10.4-2.4-16.8,0.3-20.5,3.4
				c-6.4,5.1-8.4,12.8-8.4,16.8c0,1.3,0.3,2.7,1.3,4c1,1,2.4,1.7,3.7,1.7s2.7-0.3,4-1.3c1-1,1.7-2.4,1.7-3.7s1-6.1,4.4-8.4
				C303.1,280,305.1,279.4,307.8,279.4z"/>
			<linearGradient id="SVGID_14_" gradientUnits="userSpaceOnUse" x1="286.1362" y1="312.259" x2="333.2025" y2="312.259">
				<stop  offset="0" style="stop-color:#FADA96"/>
				<stop  offset="0.156" style="stop-color:#F8D792"/>
				<stop  offset="0.3049" style="stop-color:#F4CD88"/>
				<stop  offset="0.4509" style="stop-color:#EDBD77"/>
				<stop  offset="0.5951" style="stop-color:#E4A661"/>
				<stop  offset="0.738" style="stop-color:#D88847"/>
				<stop  offset="0.8781" style="stop-color:#CB642E"/>
				<stop  offset="1" style="stop-color:#BF3E1F"/>
			</linearGradient>
			<path class="st23" d="M307.8,279.4c1.3,0,3,0.3,5.1,0.7c11.8,2.7,9.8,15.5,9.1,18.2v0.3l-7.4,51.5c-0.3,3,1.7,5.7,4.7,6.1
				c3,0.3,5.7-1.7,6.1-4.7l7.4-51.2c2-8.8,0.7-26.6-17.2-31c-10.4-2.4-16.8,0.3-20.5,3.4c-6.4,5.1-8.4,12.8-8.4,16.8
				c0,1.3,0.3,2.7,1.3,4c1,1,2.4,1.7,3.7,1.7s2.7-0.3,4-1.3c1-1,1.7-2.4,1.7-3.7s1-6.1,4.4-8.4C303.1,280,305.1,279.4,307.8,279.4z"
				/>
			<path class="st10" d="M338.1,349.1c0-0.3,0-0.7-0.3-1c-12.1-5.7-28.3-5.7-28.3-5.7c-0.3,0-0.7,0.3-0.7,0.7v0.3l-2.7-1.7
				c-0.3,0-0.7,0-0.7,0c-0.3,0-0.3,0.3-0.3,0.7v5.7l-8.8,1.7c0,0-0.7-0.7,0.3,3.4c1,4,6.7,26.3,6.7,26.3s0.3,0.3,0.7,0.7v0.3
				l-0.3,5.7c0,0.3,0,0.3,0.3,0.7c0,0-6.7,23.2-8.4,26.3c-1.7,3-2,2.7-1.7,5.4c0.3,2.7-1,35.4-1,35.4c-1.3,4.4-2.4,7.7-3,9.4
				c-3,7.1-2.7,8.4-2.4,9.8c0,0.3,0,0.3,0,0.7c0,1.7,1.7,9.8,2,11.1c0,0,0,0,0,0.3c0,2.4-0.7,6.1-1,7.1c-0.7,1.7,1,6.4,1,6.4
				c0,1.7,0,4.4,0,4.4c0,0.7-0.3,6.1-0.7,13.5c0,0.3-0.3,0.7-0.3,1c-0.7,1.3-0.3,18.9-0.3,23.9l0,0c0,2.7,0,5.4,0.3,7.1l-1.3,15.8
				c0,0.3,0,0.3,0.3,0.7c1,1,4,1.3,6.4,1.3c1.3,0,2.4,0,2.7,0c0.3,0,0.7-0.3,0.7-0.7l2-15.8l3.7-12.1c0-0.7,10.4-55.2,12.5-62.6
				c2-7.4,3.4-26.3,3.7-28.3c0.3-0.7,1.3-2,1.3-4c0-2.4,0.3-15.2,0.3-16.2c0.3-1.7,0.3-3,0.3-3.7c0-1.3,1-18.5,1.3-30
				c0.3-0.3,0.7-1,0.3-1.3c0-0.7,0-1.3-0.3-1.7c0.3,0,0.3-0.3,0.7-0.7c0-0.3,1.3-4.4,1-5.7c0-0.3,0-0.3-0.3-0.7c0,0,0,0,0-0.3
				L338.1,349.1z M310.1,343.7c3,0,16.2,0.7,26.3,5.4l-1.7,4.4l0,0l-12.1,26.9l0,0c-2.7-1-6.4-1.7-7.4-1.7c-2-0.3-3.7,0-5.4,0
				L310.1,343.7z M308.5,345l-0.7,33.7c-0.3,0-0.7,0-1,0.3l-0.7-35.4L308.5,345z M298,351.4l6.7-1.3l0.3,29.6l0,0L298,351.4z
				 M296,564.2c-2.7,0-6.1,0-7.1-0.7l1.3-14.8l7.4,0.7L296,564.2z M314.2,473.6c-2,7.7-12.1,60.6-12.5,62.6l-3.4,11.4l-7.7-0.7
				c-0.7-6.4-0.3-18.9,0.3-29.3c4.4-11.8,10.8-28.3,16.5-42.1l10.1-22.6C316.5,459.8,315.5,469.2,314.2,473.6z M319.6,421.8
				c0,1.7-0.7,7.4-2.4,10.8c0,0.3,0,0.7,0.3,1c0.3-0.7,1.3-2,1.7-2.7v1l0,0c0,0.3,0,1,0,1.3l0,0c0,3.7,0,7.4-0.3,8.4
				c0,2-1,3.4-1,3.7l0,0l0,0l0,0c-0.3,0.3-17.2,41.7-26.9,68c0.3-6.1,0.7-10.4,0.7-10.4s0-2.7,0-4.4c0.3-0.7,0.7-1.3,1-2.4
				c5.4-12.5,24.9-62.6,24.9-62.6c-0.3,0-0.7,0-1,0.3c-0.3,0.7-19.5,48.8-25.3,61.6c0-1-0.3-2.4,0-3.7c0.3-3,0.3-9.4,0.3-12.1
				c-0.3-2.7,0.3-6.1,1-7.7c0.7-1.7,17.8-52.2,18.5-54.2c0-0.3,0-0.3,0-0.7l-11.4,28.6c-3,8.4-5.7,16.5-7.4,20.9l-3.4,7.7
				c0-0.7,0-1,0-1.3s0-0.7,0-0.7c-0.3-1-0.3-2.4,2.4-8.8c0.3-1.3,1-3.4,2-5.7l1.3-4.7c4.7-16.8,11.8-46.5,12.5-48.1
				c0-0.3,0-0.7-0.7-1c0,0-6.4,27.6-11.4,41.7v-0.3c0,0.3-0.3,0.7-0.3,1.3c0.7-8.8,1.3-21.9,1.3-25.3c0-1.3,0-2.4,0-3
				c0-1.7,0-1.7,1.3-4.4c2-3.7,7.4-22.6,8.4-26.6c2,0.7,5.7,1.3,12.5,1.3c1,0,2,0,3,0c0,0.3,0,0.7,0,1l-9.1,23.6c0,0,0,0,0.3,0
				c0.3,0,0.7,0,0.7-0.3l8.1-18.9C320.6,403.6,319.6,420.1,319.6,421.8z M322.3,387.1c-11.4,0.3-15.8-1-16.8-1.7l0.3-4.7
				c0-0.3,2.7-0.7,3.4-0.7c2-0.3,4-0.3,6.1-0.3c5.4,0.7,8.4,2,8.4,2.4C323.3,383.1,322.6,385.4,322.3,387.1z"/>
			<linearGradient id="SVGID_15_" gradientUnits="userSpaceOnUse" x1="309.469" y1="362.0128" x2="336.446" y2="362.0128">
				<stop  offset="0" style="stop-color:#FADA96"/>
				<stop  offset="0.1697" style="stop-color:#F0C57F"/>
				<stop  offset="0.5312" style="stop-color:#DB8E4B"/>
				<stop  offset="1" style="stop-color:#BF3E1F"/>
			</linearGradient>
			<path class="st24" d="M310.1,343.7c3,0,16.2,0.7,26.3,5.4l-1.7,4.4l0,0l-12.1,26.9l0,0c-2.7-1-6.4-1.7-7.4-1.7
				c-2-0.3-3.7,0-5.4,0L310.1,343.7z"/>
			<linearGradient id="SVGID_16_" gradientUnits="userSpaceOnUse" x1="306.2965" y1="361.3394" x2="308.527" y2="361.3394">
				<stop  offset="0" style="stop-color:#FADA96"/>
				<stop  offset="9.012181e-02" style="stop-color:#F1C680"/>
				<stop  offset="0.3217" style="stop-color:#DE9653"/>
				<stop  offset="0.5366" style="stop-color:#D07136"/>
				<stop  offset="0.7281" style="stop-color:#C75527"/>
				<stop  offset="0.889" style="stop-color:#C14420"/>
				<stop  offset="1" style="stop-color:#BF3E1F"/>
			</linearGradient>
			<path class="st39" d="M308.5,345l-0.7,33.7c-0.3,0-0.7,0-1,0.3l-0.7-35.4L308.5,345z"/>
			<linearGradient id="SVGID_17_" gradientUnits="userSpaceOnUse" x1="298.1664" y1="364.8745" x2="305.3811" y2="364.8745">
				<stop  offset="0" style="stop-color:#FADA96"/>
				<stop  offset="9.012181e-02" style="stop-color:#F1C680"/>
				<stop  offset="0.3217" style="stop-color:#DE9653"/>
				<stop  offset="0.5366" style="stop-color:#D07136"/>
				<stop  offset="0.7281" style="stop-color:#C75527"/>
				<stop  offset="0.889" style="stop-color:#C14420"/>
				<stop  offset="1" style="stop-color:#BF3E1F"/>
			</linearGradient>
			<path class="st42" d="M298,351.4l6.7-1.3l0.3,29.6l0,0L298,351.4z"/>
			<linearGradient id="SVGID_18_" gradientUnits="userSpaceOnUse" x1="288.9169" y1="556.4443" x2="297.7675" y2="556.4443">
				<stop  offset="0" style="stop-color:#AC5050"/>
				<stop  offset="1" style="stop-color:#2B2337"/>
			</linearGradient>
			<path class="st43" d="M296,564.2c-2.7,0-6.1,0-7.1-0.7l1.3-14.8l7.4,0.7L296,564.2z"/>
			<linearGradient id="SVGID_19_" gradientUnits="userSpaceOnUse" x1="250.6034" y1="427.375" x2="318.416" y2="519.5305">
				<stop  offset="0" style="stop-color:#FADA96"/>
				<stop  offset="5.011821e-02" style="stop-color:#F6D08C"/>
				<stop  offset="0.3902" style="stop-color:#DD9350"/>
				<stop  offset="0.673" style="stop-color:#CC662F"/>
				<stop  offset="0.8842" style="stop-color:#C34922"/>
				<stop  offset="1" style="stop-color:#BF3E1F"/>
			</linearGradient>
			<path class="st44" d="M314.2,473.6c-2,7.7-12.1,60.6-12.5,62.6l-3.4,11.4l-7.7-0.7c-0.7-6.4-0.3-18.9,0.3-29.3
				c4.4-11.8,10.8-28.3,16.5-42.1l10.1-22.6C316.5,459.8,315.5,469.2,314.2,473.6z"/>
			<linearGradient id="SVGID_20_" gradientUnits="userSpaceOnUse" x1="275.2983" y1="409.2029" x2="343.1113" y2="501.3587">
				<stop  offset="0" style="stop-color:#FADA96"/>
				<stop  offset="5.011821e-02" style="stop-color:#F6D08C"/>
				<stop  offset="0.3902" style="stop-color:#DD9350"/>
				<stop  offset="0.673" style="stop-color:#CC662F"/>
				<stop  offset="0.8842" style="stop-color:#C34922"/>
				<stop  offset="1" style="stop-color:#BF3E1F"/>
			</linearGradient>
			<path class="st45" d="M319.6,421.8c0,1.7-0.7,7.4-2.4,10.8c0,0.3,0,0.7,0.3,1c0.3-0.7,1.3-2,1.7-2.7v1l0,0c0,0.3,0,1,0,1.3l0,0
				c0,3.7,0,7.4-0.3,8.4c0,2-1,3.4-1,3.7l0,0l0,0l0,0c-0.3,0.3-17.2,41.7-26.9,68c0.3-6.1,0.7-10.4,0.7-10.4s0-2.7,0-4.4
				c0.3-0.7,0.7-1.3,1-2.4c5.4-12.5,24.9-62.6,24.9-62.6c-0.3,0-0.7,0-1,0.3c-0.3,0.7-19.5,48.8-25.3,61.6c0-1-0.3-2.4,0-3.7
				c0.3-3,0.3-9.4,0.3-12.1c-0.3-2.7,0.3-6.1,1-7.7c0.7-1.7,17.8-52.2,18.5-54.2c0-0.3,0-0.3,0-0.7l-11.4,28.6
				c-3,8.4-5.7,16.5-7.4,20.9l-3.4,7.7c0-0.7,0-1,0-1.3s0-0.7,0-0.7c-0.3-1-0.3-2.4,2.4-8.8c0.3-1.3,1-3.4,2-5.7l1.3-4.7
				c4.7-16.8,11.8-46.5,12.5-48.1c0-0.3,0-0.7-0.7-1c0,0-6.4,27.6-11.4,41.7v-0.3c0,0.3-0.3,0.7-0.3,1.3c0.7-8.8,1.3-21.9,1.3-25.3
				c0-1.3,0-2.4,0-3c0-1.7,0-1.7,1.3-4.4c2-3.7,7.4-22.6,8.4-26.6c2,0.7,5.7,1.3,12.5,1.3c1,0,2,0,3,0c0,0.3,0,0.7,0,1l-9.1,23.6
				c0,0,0,0,0.3,0c0.3,0,0.7,0,0.7-0.3l8.1-18.9C320.6,403.6,319.6,420.1,319.6,421.8z"/>
			<path class="st18" d="M322.3,387.1c-11.4,0.3-15.8-1-16.8-1.7l0.3-4.7c0-0.3,2.7-0.7,3.4-0.7c2-0.3,4-0.3,6.1-0.3
				c5.4,0.7,8.4,2,8.4,2.4C323.3,383.1,322.6,385.4,322.3,387.1z"/>
			<g>
				<path class="st19" d="M320.9,399.6c0-2,0.3-3.7,0.3-5.4l-8.1,18.9L320.9,399.6z"/>
			</g>
			<path class="st19" d="M295,446.7c0-0.3,0.3-0.7,0.3-1.3v0.3c5.1-14.1,11.4-41.7,11.4-41.7l-11.1,29.6
				C295.3,437.9,295,442.6,295,446.7z"/>
			<g>
				<path class="st19" d="M293.3,490.1v-2.4l-2-4.4c0,2.7,0,6.1-0.3,8.1c0,1.7,0,2.7,0,3.7C291.6,494.2,292.3,492.1,293.3,490.1z"/>
				<path class="st19" d="M292,510.3c0.3-0.7,0.3-1,0.7-1.7v-7.4l23.9-66c-3.7,9.4-19.2,49.5-24.2,60.6c-0.3,1-0.7,1.7-1,2.4
					c0,1.7,0,4.4,0,4.4s-0.3,3.4-0.3,8.4L292,510.3z"/>
			</g>
			<path class="st19" d="M315.2,468.6c0-0.7,0.3-1,0.3-1.7c0,0,0,0,0-0.3c0-0.7,0-1,0.3-1.7v-0.3c0-1.3,0.3-2.4,0.3-3.7v-0.3
				c0-0.7,0-1,0.3-1.7c0,0,0,0,0-0.3c0-0.7,0-1.3,0.3-1.7v-0.3c0-0.3,0-1,0-1.3v-0.3c0-0.7,0-1,0-1.7l-10.1,22.6
				c-3.7,9.1-7.4,18.9-11.1,28.3c4-8.4,8.8-18.5,12.5-25.9l-10.4,70l0,0l3.4-11.4c0.3-2,10.4-54.9,12.5-62.6
				C314.5,472.3,314.9,470.6,315.2,468.6L315.2,468.6L315.2,468.6z"/>
			<path class="st20" d="M297.3,418.4c0.7-4.4,8.8-27.3,9.8-30.6c-0.7,0-1-0.3-1.3-0.3c-1,4-6.4,23.2-8.4,26.6
				c-1.3,2.7-1.3,2.7-1.3,4.4c0,0.7,0,1.7,0,3c0,1.7,0,5.4-0.3,9.8C296.3,427.2,297,421.1,297.3,418.4z"/>
			<g>
				<path class="st20" d="M288.9,473.3c0,0.3,0,0.7,0,1.3l3-6.7c0-2,3.7-18.2,7.4-33.7c-1.7,6.7-3.4,13.5-5.1,18.9l-1.3,4.7
					c-0.7,2.7-1.3,4.7-2,5.7c-2.7,6.7-2.7,7.7-2.4,8.8C288.9,472.6,288.9,472.9,288.9,473.3z"/>
				<path class="st20" d="M295,445.7L295,445.7c2.4-6.1,4.7-15.2,6.7-23.2c-2.7,9.1-5.4,18.5-7.1,24.2v0.3
					C295,446.4,295,446,295,445.7z"/>
			</g>
			<path class="st20" d="M297,500.6c-2.4,6.1-4.7,12.1-6.7,17.2c-0.3,10.1-0.7,22.9-0.3,29.3c0,0,1-15.5,2-24.6
				C293,513.3,297,500.6,297,500.6z"/>
			<g>
				<path class="st20" d="M288.9,473.3c0,0.3,0,0.7,0,1.3l2.4-5.7l-2-1.3c-1,3.4-1,4.4-1,5.1C288.9,472.6,288.9,472.9,288.9,473.3z"
					/>
				<path class="st20" d="M294.3,500.9c-0.7-1.7-1.3-5.7-1.3-5.7l0,0c-0.3,0.3-0.3,0.7-0.7,1.3c-0.3,1-0.7,1.7-1,2.4
					c0,1.7,0,4.4,0,4.4s-0.3,4.4-0.7,10.4c0.7-1.3,1-3,1.7-4.7C292.6,508,294.7,502.2,294.3,500.9z"/>
				<path class="st20" d="M291,495.5c0.7-1,1-2.7,2-4.4c0-1.3-0.3-3-0.7-4.4c-0.7-2-0.7-9.1-0.3-13.8c-0.7,1.7-0.7,4.4-0.7,6.4
					c0.3,3,0,9.1-0.3,12.1C291,493.1,291,494.5,291,495.5z"/>
			</g>
			<line class="st21" x1="314.5" y1="409.3" x2="301.1" y2="446.7"/>
		</g>
		<g>
			<linearGradient id="SVGID_21_" gradientUnits="userSpaceOnUse" x1="293.997" y1="308.9921" x2="339.8566" y2="308.9921">
				<stop  offset="0" style="stop-color:#EFD980"/>
				<stop  offset="0.2037" style="stop-color:#EFD87C"/>
				<stop  offset="0.3836" style="stop-color:#EED572"/>
				<stop  offset="0.5546" style="stop-color:#EDCF5F"/>
				<stop  offset="0.7191" style="stop-color:#EBC743"/>
				<stop  offset="0.7526" style="stop-color:#EBC63C"/>
				<stop  offset="1" style="stop-color:#E7AE17"/>
			</linearGradient>
			<path class="st50" d="M334.4,320.1c-10.4-8.8-23.9-3.4-23.9-3.4c-1,0.3-1.7,0.7-2,0.7c-0.3,0-0.7,0.7-0.3,1c0,0.3,0.7,0.7,1,0.3
				c0,0,10.8-4,19.5,0c1.7,1,3,2,4,3.7c0.3,0.7,2.7,10.8-4.4,15.5c-4.4,1.3-12.1,2.4-18.9,1.7c-15.8-2.7-12.8-19.2-12.8-19.2
				c0,0.7-0.3,1.3-0.3,1.7c0-0.7,0.3-1.3,0.3-1.7s0-0.3,0-0.7c0,0-6.1-13.8,1.3-19.9c0.3,0,0.3-0.3,0.3-0.7c0,0-0.3-4.7,2-9.4
				c3.4-6.4,10.1-10.4,20.2-11.4c6.7-0.7,11.8,0.3,15.2,3c1.7,1.3,5.4,6.1,2.4,17.8c-3.7-4-8.1-5.1-8.1-5.1l0,0
				c-3.7-1.3-6.7-1-6.7-1l0,0c-9.4-0.3-18.2,4-18.5,4c-0.3,0.3-0.3,0.7-0.3,1c0.3,0.3,0.7,0.3,1,0.3c0.3,0,21.5-10.8,31.6,3
				c1,1.3,1.7,2.7,2.4,4.4C339.8,307,341.8,314,334.4,320.1z"/>
			<linearGradient id="SVGID_22_" gradientUnits="userSpaceOnUse" x1="339.3277" y1="304.1041" x2="350.4414" y2="304.1041">
				<stop  offset="0" style="stop-color:#EFD980"/>
				<stop  offset="0.2037" style="stop-color:#EFD87C"/>
				<stop  offset="0.3836" style="stop-color:#EED572"/>
				<stop  offset="0.5546" style="stop-color:#EDCF5F"/>
				<stop  offset="0.7191" style="stop-color:#EBC743"/>
				<stop  offset="0.7526" style="stop-color:#EBC63C"/>
				<stop  offset="1" style="stop-color:#E7AE17"/>
			</linearGradient>
			<path class="st52" d="M339.4,318.4c1-1.3,1.7-3,2.4-4.7c0.3-0.7,0.3-1.7,0.3-2.4l0,0l0,0c0-0.7,0-1.3,0-2c-0.3-3-1.3-5.4-2.4-7.4
				c0.7-1.7,1.3-4.4,1.7-7.4c0.3-1.3,0.3-3,0.3-4.7c1,0,3,0,5.1,1.3c2.4,1.7,3.7,5.1,4,9.8C351.2,314,345.5,317.4,339.4,318.4z"/>
			<path class="st9" d="M296,333.2c0.7,1.7,2,3,3,4.4l0,0c0.7,0.7,2.7,2,6.1,3l4.4,0.7c2.7,0.3,5.7,0.3,9.4,0
				c7.7-0.7,11.1-2.4,12.8-4l0,0l0,0c1-1,1.3-2,1.3-2l0,0c1.3-2.4,2-6.1,1.7-9.8c0-1-0.3-2-1-3c0.7-0.3,2-1.3,3.7-2.7l0,0
				c1,0,1.7-0.3,2.7-0.3c0,0,0,0,0,0.3c1.3-0.3,2.4-0.7,3.4-1l0,0c0.7-0.3,1-0.7,1.7-1l0,0c2-1.3,3-2.7,3-2.7l1.7-3.4
				c0-0.3,0.3-0.7,0.3-1l0,0l0,0c0.3-0.7,0.3-1.3,0.3-1.7c4.7-19.9-7.1-21.5-10.1-21.5c-0.7-5.7-4-11.1-13.8-11.4
				c-20.5-1.7-26.9,11.4-26.9,11.4l0,0c-3.4,5.1-3.4,10.1-3,11.8c-7.4,6.7-2.4,19.2-1.7,21.2C294.3,322.1,293.6,328.5,296,333.2z
				 M341.1,294.2c0.3-1.3,0.3-3,0.3-4.7c1,0,3,0,5.1,1.3c2.4,1.7,3.7,5.1,4,9.8c1,13.5-4.7,16.8-11.1,17.8c1-1.3,1.7-3,2.4-4.7
				c0.3-0.7,0.3-1.7,0.3-2.4l0,0l0,0c0-0.7,0-1.3,0-2c-0.3-3-1.3-5.4-2.4-7.4C340.1,299.6,340.8,296.9,341.1,294.2z M297.7,299.9
				c0.3,0,0.3-0.3,0.3-0.7c0,0-0.3-4.7,2-9.4c3.4-6.4,10.1-10.4,20.2-11.4c6.7-0.7,11.8,0.3,15.2,3c1.7,1.3,5.4,6.1,2.4,17.8
				c-3.7-4-8.1-5.1-8.1-5.1l0,0c-3.7-1.3-6.7-1-6.7-1l0,0c-9.4-0.3-18.2,4-18.5,4c-0.3,0.3-0.3,0.7-0.3,1c0.3,0.3,0.7,0.3,1,0.3
				c0.3,0,21.5-10.8,31.6,3c1,1.3,1.7,2.7,2.4,4.4c0.3,1.3,2.4,8.8-5.1,14.8c-10.4-8.8-23.9-3.4-23.9-3.4c-1,0.3-1.7,0.7-2,0.7
				c-0.3,0-0.7,0.7-0.3,1c0,0.3,0.7,0.7,1,0.3c0,0,10.8-4,19.5,0c1.7,1,3,2,4,3.7c0.3,0.7,2.7,10.8-4.4,15.5
				c-4.4,1.3-12.1,2.4-18.9,1.7c-15.8-2.7-12.8-19.2-12.8-19.2c0,0.7-0.3,1.3-0.3,1.7c0-0.7,0.3-1.3,0.3-1.7s0-0.3,0-0.7
				C296.3,319.8,290.3,306,297.7,299.9z"/>
			<g>
				<path class="st41" d="M337.7,298.9c3-11.8-0.7-16.5-2.4-17.8c-0.3-0.3-0.7-0.7-1.3-1c0.3,0.7,5.1,8.4-2.7,14.1l0,0
					C333,294.8,335.4,296.5,337.7,298.9z"/>
				<path class="st41" d="M336.7,301.2c-1-1.3-2.4-2.7-3.7-3.7c2.4,4.7,5.1,13.5-2.4,20.2c1,0.7,2.4,1.3,3.4,2.4
					c7.4-6.1,5.4-13.1,5.1-14.8C338.8,303.9,337.7,302.6,336.7,301.2z"/>
				<path class="st41" d="M332.4,322.5c-0.7-1-1.3-2-2.4-2.7c0.3,3.4,1,14.8-8.8,19.5c2.7-0.3,4.7-1,6.7-1.3
					C335.4,332.9,332.7,323.1,332.4,322.5z"/>
			</g>
			<path class="st41" d="M341.8,309c0,0.7,0,1.3,0,2l0,0l0,0c0,0.7,0,1.7-0.3,2.4c-0.3,1.7-1.3,3.4-2.4,4.7c4-0.7,7.7-2.4,9.8-6.7
				c-0.3-12.5-7.7-17.5-7.7-17.5c-0.3,3-1,5.4-1.7,7.4C340.4,303.3,341.5,306,341.8,309z"/>
		</g>
	</g>
</g>
</svg>
