<?xml version="1.0" encoding="utf-8"?>
<!-- Generator: Adobe Illustrator 21.0.0, SVG Export Plug-In . SVG Version: 6.00 Build 0)  -->
<svg version="1.1" id="圖層_1" xmlns="http://www.w3.org/2000/svg" xmlns:xlink="http://www.w3.org/1999/xlink" x="0px" y="0px"
	 viewBox="0 0 685.4 392.4" style="enable-background:new 0 0 685.4 392.4;" xml:space="preserve">
<style type="text/css">
	.st0{opacity:0.8;fill:#216289;enable-background:new    ;}
	.st1{opacity:0.36;fill:url(#SVGID_1_);enable-background:new    ;}
	.st2{opacity:0.86;fill:#51C6E1;enable-background:new    ;}
	.st3{opacity:0.1;}
	.st4{fill:none;stroke:#96D9F3;stroke-width:0.5;}
	.st5{opacity:0.95;fill:#5CCAED;enable-background:new    ;}
	.st6{fill:none;stroke:#BBE5F5;stroke-width:3;}
	.st7{clip-path:url(#SVGID_3_);}
	.st8{clip-path:url(#SVGID_7_);}
	.st9{fill:url(#SVGID_8_);stroke:#B7E4F4;}
	.st10{fill:none;}
	.st11{fill:#FFFFFF;}
	.st12{font-family:'MicrosoftJhengHeiBold';}
	.st13{font-size:21px;}
	.st14{display:none;}
	.st15{display:inline;}
	.st16{fill:url(#SVGID_9_);}
	.st17{fill:url(#SVGID_10_);}
	.st18{fill:url(#SVGID_11_);}
	.st19{fill:url(#SVGID_12_);}
	.st20{fill:url(#SVGID_13_);}
	.st21{fill:url(#SVGID_14_);}
	.st22{fill:#D4EEF8;}
	.st23{fill:#6BB444;}
	.st24{fill:url(#SVGID_15_);}
	.st25{fill:url(#SVGID_16_);}
	.st26{fill:url(#SVGID_17_);}
	.st27{fill:url(#SVGID_18_);}
	.st28{fill:url(#SVGID_19_);}
	.st29{display:inline;fill:url(#SVGID_20_);}
	.st30{display:inline;fill:url(#SVGID_21_);}
	.st31{display:inline;fill:url(#SVGID_22_);}
	.st32{display:inline;fill:url(#SVGID_23_);}
	.st33{display:inline;fill:url(#SVGID_24_);}
	.st34{font-size:18px;}
	.st35{fill:url(#SVGID_25_);}
	.st36{fill:url(#SVGID_26_);}
	.st37{fill:url(#SVGID_27_);}
	.st38{fill:url(#SVGID_28_);}
	.st39{fill:url(#SVGID_29_);}
	.st40{fill:url(#SVGID_30_);}
	.st41{fill:url(#SVGID_31_);}
	.st42{fill:url(#SVGID_32_);}
	.st43{fill:url(#SVGID_33_);}
	.st44{fill:url(#SVGID_34_);}
	.st45{fill:url(#SVGID_35_);}
	.st46{display:inline;fill:url(#SVGID_36_);}
	.st47{display:inline;fill:url(#SVGID_37_);}
	.st48{display:inline;fill:url(#SVGID_38_);}
	.st49{display:inline;fill:url(#SVGID_39_);}
	.st50{display:inline;fill:url(#SVGID_40_);}
	.st51{display:inline;fill:#4F4F4F;}
	.st52{fill:#898989;}
	.st53{fill:#51C6E1;}
	.st54{fill:none;stroke:#FFFFFF;stroke-miterlimit:10;}
	.st55{display:inline;fill:#303030;}
	.st56{display:inline;fill:#6DCCE2;stroke:#F9F9F9;stroke-miterlimit:10;}
	.st57{display:inline;fill:none;}
	.st58{display:inline;fill:#FFFFFF;}
	.st59{font-size:14px;}
	.st60{display:inline;fill:#323232;}
</style>
<g id="影片_x5F_閱讀">
	<g>
		<g>
			<g>
				<path class="st0" d="M683,372.7c0,10.2-8.2,18.4-18.4,18.4H19.9c-10.2,0-18.4-8.2-18.4-18.4V39.5c0-10.2,8.2-18.4,18.4-18.4
					h644.7c10.2,0,18.4,8.2,18.4,18.4L683,372.7L683,372.7z"/>
				
					<radialGradient id="SVGID_1_" cx="358.3125" cy="-162.9361" r="657.1295" gradientTransform="matrix(1 0 0 -1 0 392)" gradientUnits="userSpaceOnUse">
					<stop  offset="0" style="stop-color:#00ADEE"/>
					<stop  offset="1" style="stop-color:#00ADEE;stop-opacity:0"/>
				</radialGradient>
				<path class="st1" d="M685.4,376c0,6.6-5.4,12-12,12H14.8c-6.6,0-12-5.4-12-12V32c0-6.6,5.4-12,12-12h658.5c6.6,0,12,5.4,12,12
					v344H685.4z"/>
				<rect x="24" y="19.4" class="st2" width="636.1" height="4.6"/>
				<rect x="24" y="387.8" class="st2" width="638.1" height="4.6"/>
				<g class="st3">
					<line class="st4" x1="1.5" y1="19.4" x2="683.3" y2="19.4"/>
					<line class="st4" x1="1.5" y1="24.1" x2="683.3" y2="24.1"/>
					<line class="st4" x1="1.5" y1="28.5" x2="683.3" y2="28.5"/>
					<line class="st4" x1="1.5" y1="33.2" x2="683.3" y2="33.2"/>
					<line class="st4" x1="1.5" y1="37.9" x2="683.3" y2="37.9"/>
					<line class="st4" x1="1.5" y1="42.6" x2="683.3" y2="42.6"/>
					<line class="st4" x1="1.5" y1="47" x2="683.3" y2="47"/>
					<line class="st4" x1="1.5" y1="51.7" x2="683.3" y2="51.7"/>
					<line class="st4" x1="1.5" y1="56.5" x2="683.3" y2="56.5"/>
					<line class="st4" x1="1.5" y1="65.5" x2="683.3" y2="65.5"/>
					<line class="st4" x1="1.5" y1="60.7" x2="683.3" y2="60.7"/>
					<line class="st4" x1="1.5" y1="70.2" x2="683.3" y2="70.2"/>
					<line class="st4" x1="1.5" y1="75" x2="683.3" y2="75"/>
					<line class="st4" x1="1.5" y1="79.7" x2="683.3" y2="79.7"/>
					<line class="st4" x1="1.5" y1="84.1" x2="683.3" y2="84.1"/>
					<line class="st4" x1="1.5" y1="88.8" x2="683.3" y2="88.8"/>
					<line class="st4" x1="1.5" y1="93.7" x2="683.3" y2="93.7"/>
					<line class="st4" x1="1.5" y1="98.4" x2="683.3" y2="98.4"/>
					<line class="st4" x1="1.5" y1="102.7" x2="683.3" y2="102.7"/>
					<line class="st4" x1="1.5" y1="107.4" x2="683.3" y2="107.4"/>
					<line class="st4" x1="1.5" y1="112.2" x2="683.3" y2="112.2"/>
					<line class="st4" x1="1.5" y1="116.9" x2="683.3" y2="116.9"/>
					<line class="st4" x1="1.5" y1="121.3" x2="683.3" y2="121.3"/>
					<line class="st4" x1="1.5" y1="126" x2="683.3" y2="126"/>
					<line class="st4" x1="1.5" y1="130.7" x2="683.3" y2="130.7"/>
					<line class="st4" x1="1.5" y1="135.4" x2="683.3" y2="135.4"/>
					<line class="st4" x1="1.5" y1="139.8" x2="683.3" y2="139.8"/>
					<line class="st4" x1="1.5" y1="144.5" x2="683.3" y2="144.5"/>
					<line class="st4" x1="1.5" y1="149.3" x2="683.3" y2="149.3"/>
					<line class="st4" x1="1.5" y1="154" x2="683.3" y2="154"/>
					<line class="st4" x1="1.5" y1="158.3" x2="683.3" y2="158.3"/>
					<line class="st4" x1="1.5" y1="163.1" x2="683.3" y2="163.1"/>
					<line class="st4" x1="1.5" y1="167.2" x2="683.3" y2="167.2"/>
					<line class="st4" x1="1.5" y1="171.6" x2="683.3" y2="171.6"/>
					<line class="st4" x1="1.5" y1="176.3" x2="683.3" y2="176.3"/>
					<line class="st4" x1="1.5" y1="181.1" x2="683.3" y2="181.1"/>
					<line class="st4" x1="1.5" y1="185.8" x2="683.3" y2="185.8"/>
					<line class="st4" x1="1.5" y1="190.2" x2="683.3" y2="190.2"/>
					<line class="st4" x1="1.5" y1="194.9" x2="683.3" y2="194.9"/>
					<line class="st4" x1="1.5" y1="199.6" x2="683.3" y2="199.6"/>
					<line class="st4" x1="1.5" y1="203.8" x2="683.3" y2="203.8"/>
					<line class="st4" x1="1.5" y1="208.5" x2="683.3" y2="208.5"/>
					<line class="st4" x1="1.5" y1="212.9" x2="683.3" y2="212.9"/>
					<line class="st4" x1="1.5" y1="217.6" x2="683.3" y2="217.6"/>
					<line class="st4" x1="1.5" y1="222.3" x2="683.3" y2="222.3"/>
					<line class="st4" x1="1.5" y1="227" x2="683.3" y2="227"/>
					<line class="st4" x1="1.5" y1="231.4" x2="683.3" y2="231.4"/>
					<line class="st4" x1="1.5" y1="236.1" x2="683.3" y2="236.1"/>
					<line class="st4" x1="1.5" y1="240.3" x2="683.3" y2="240.3"/>
					<line class="st4" x1="1.5" y1="244.7" x2="683.3" y2="244.7"/>
					<line class="st4" x1="1.5" y1="249.4" x2="683.3" y2="249.4"/>
					<line class="st4" x1="1.5" y1="254.1" x2="683.3" y2="254.1"/>
					<line class="st4" x1="1.5" y1="258.8" x2="683.3" y2="258.8"/>
					<line class="st4" x1="1.5" y1="263.2" x2="683.3" y2="263.2"/>
				</g>
				<path class="st5" d="M24,392.3H12.2c-6.6,0-12-5.4-12-12V44.9l2.7-2.3c0-6.6,0.4-16,9.3-16h12.2V21H12.2c-6.6,0-12,5.4-12,12
					v6.2v335.4c0,6.6,5.4,12,12,12H24V392.3z"/>
				<path class="st6" d="M24,386.1H13.5c-6.6,0-12-5.4-12-12V39.4v-6.2c0-6.6,5.4-12,12-12h10.9"/>
				<path class="st5" d="M660.2,392.4H672c6.6,0,12-5.4,12-12V44.9l-2.7-2.3c0-6.6-0.4-16-9.3-16h-12.2V21H672c6.6,0,12,5.4,12,12
					v6.2v335.5c0,6.6-5.4,12-12,12h-11.9v5.7H660.2z"/>
				<path class="st6" d="M660.2,386.1h10.5c6.6,0,12-5.4,12-12V39.4v-6.2c0-6.6-5.4-12-12-12h-10.9"/>
				<g>
					<defs>
						<rect id="SVGID_2_" y="18.6" width="685.4" height="373.6"/>
					</defs>
					<clipPath id="SVGID_3_">
						<use xlink:href="#SVGID_2_"  style="overflow:visible;"/>
					</clipPath>
					<g class="st7">
						<defs>
							<rect id="SVGID_4_" x="-1" y="18.6" width="686" height="373.4"/>
						</defs>
						<clipPath id="SVGID_5_">
							<use xlink:href="#SVGID_4_"  style="overflow:visible;"/>
						</clipPath>
					</g>
				</g>
				<g>
					<defs>
						<rect id="SVGID_6_" x="1.5" y="19.4" width="683.9" height="373"/>
					</defs>
					<clipPath id="SVGID_7_">
						<use xlink:href="#SVGID_6_"  style="overflow:visible;"/>
					</clipPath>
					<g class="st8">
						
							<image style="overflow:visible;enable-background:new    ;" width="757" height="441" xlink:href="B319B0B2.png"  transform="matrix(1 0 0 1 -36.5663 -16.4071)">
						</image>
					</g>
				</g>
			</g>
			<g class="st3">
				<line class="st4" x1="1.5" y1="267.2" x2="683.3" y2="267.2"/>
				<line class="st4" x1="1.5" y1="271.9" x2="683.3" y2="271.9"/>
				<line class="st4" x1="1.5" y1="276.3" x2="683.3" y2="276.3"/>
				<line class="st4" x1="1.5" y1="281" x2="683.3" y2="281"/>
				<line class="st4" x1="1.5" y1="285.7" x2="683.3" y2="285.7"/>
				<line class="st4" x1="1.5" y1="290.4" x2="683.3" y2="290.4"/>
				<line class="st4" x1="1.5" y1="294.8" x2="683.3" y2="294.8"/>
				<line class="st4" x1="1.5" y1="299.5" x2="683.3" y2="299.5"/>
				<line class="st4" x1="1.5" y1="304.3" x2="683.3" y2="304.3"/>
				<line class="st4" x1="1.5" y1="313.4" x2="683.3" y2="313.4"/>
				<line class="st4" x1="1.5" y1="308.5" x2="683.3" y2="308.5"/>
				<line class="st4" x1="1.5" y1="318.1" x2="683.3" y2="318.1"/>
				<line class="st4" x1="1.5" y1="322.8" x2="683.3" y2="322.8"/>
				<line class="st4" x1="1.5" y1="327.5" x2="683.3" y2="327.5"/>
				<line class="st4" x1="1.5" y1="331.9" x2="683.3" y2="331.9"/>
				<line class="st4" x1="1.5" y1="336.6" x2="683.3" y2="336.6"/>
				<line class="st4" x1="1.5" y1="341.5" x2="683.3" y2="341.5"/>
				<line class="st4" x1="1.5" y1="346.2" x2="683.3" y2="346.2"/>
				<line class="st4" x1="1.5" y1="350.6" x2="683.3" y2="350.6"/>
				<line class="st4" x1="1.5" y1="355.3" x2="683.3" y2="355.3"/>
				<line class="st4" x1="1.5" y1="360" x2="683.3" y2="360"/>
				<line class="st4" x1="1.5" y1="364.7" x2="683.3" y2="364.7"/>
				<line class="st4" x1="1.5" y1="369.1" x2="683.3" y2="369.1"/>
				<line class="st4" x1="1.5" y1="373.8" x2="683.3" y2="373.8"/>
				<line class="st4" x1="1.5" y1="378.6" x2="683.3" y2="378.6"/>
				<line class="st4" x1="1.5" y1="383.3" x2="683.3" y2="383.3"/>
				<line class="st4" x1="1.5" y1="387.6" x2="683.3" y2="387.6"/>
			</g>
		</g>
		
			<radialGradient id="SVGID_8_" cx="386.2688" cy="334.6938" r="134.1495" gradientTransform="matrix(1 0 0 -1 0 392)" gradientUnits="userSpaceOnUse">
			<stop  offset="0" style="stop-color:#11588E"/>
			<stop  offset="1" style="stop-color:#009AD4"/>
		</radialGradient>
		<path class="st9" d="M415.9,36.8H275.6c-2,0-3.6-1.6-3.6-3.6V4.1c0-2,1.6-3.6,3.6-3.6h140.3c2,0,3.6,1.6,3.6,3.6v29.1
			C419.5,35.2,417.9,36.8,415.9,36.8z"/>
		<rect x="271.9" y="8.3" class="st10" width="148" height="25.6"/>
		<text transform="matrix(1 0 0 1 303.9124 26.9827)" class="st11 st12 st13">收看影片</text>
	</g>
	<g class="st14">
		<g class="st15">
			<g>
				<g>
					
						<linearGradient id="SVGID_9_" gradientUnits="userSpaceOnUse" x1="202.8063" y1="111.05" x2="216.8746" y2="111.05" gradientTransform="matrix(1 0 0 -1 0 392)">
						<stop  offset="0" style="stop-color:#25A9E0"/>
						<stop  offset="1" style="stop-color:#FFFFFF;stop-opacity:0"/>
					</linearGradient>
					<path class="st16" d="M298.2,294.4c0,1.7-0.8,3-1.9,3h-88.1c-1,0-1.9-1.4-1.9-3v-26.9c0-1.7,0.8-3,1.9-3h88.1
						c1,0,1.9,1.4,1.9,3V294.4z"/>
					
						<linearGradient id="SVGID_10_" gradientUnits="userSpaceOnUse" x1="303.5205" y1="111.05" x2="280.0448" y2="111.05" gradientTransform="matrix(1 0 0 -1 0 392)">
						<stop  offset="0" style="stop-color:#25A9E0"/>
						<stop  offset="1" style="stop-color:#FFFFFF;stop-opacity:0"/>
					</linearGradient>
					<path class="st17" d="M298.2,294.4c0,1.7-0.8,3-1.9,3h-88.1c-1,0-1.9-1.4-1.9-3v-26.9c0-1.7,0.8-3,1.9-3h88.1
						c1,0,1.9,1.4,1.9,3V294.4z"/>
					
						<linearGradient id="SVGID_11_" gradientUnits="userSpaceOnUse" x1="252.25" y1="88.1802" x2="252.25" y2="109.3329" gradientTransform="matrix(1 0 0 -1 0 392)">
						<stop  offset="0" style="stop-color:#25A9E0"/>
						<stop  offset="1" style="stop-color:#FFFFFF;stop-opacity:0"/>
					</linearGradient>
					<path class="st18" d="M298.2,294.4c0,1.7-0.8,3-1.9,3h-88.1c-1,0-1.9-1.4-1.9-3v-26.9c0-1.7,0.8-3,1.9-3h88.1
						c1,0,1.9,1.4,1.9,3V294.4z"/>
					
						<linearGradient id="SVGID_12_" gradientUnits="userSpaceOnUse" x1="252.25" y1="131.8187" x2="252.25" y2="121.712" gradientTransform="matrix(1 0 0 -1 0 392)">
						<stop  offset="6.060610e-03" style="stop-color:#25A9E0"/>
						<stop  offset="1" style="stop-color:#FFFFFF;stop-opacity:0"/>
					</linearGradient>
					<path class="st19" d="M298.2,294.4c0,1.7-0.8,3-1.9,3h-88.1c-1,0-1.9-1.4-1.9-3v-26.9c0-1.7,0.8-3,1.9-3h88.1
						c1,0,1.9,1.4,1.9,3V294.4z"/>
					
						<radialGradient id="SVGID_13_" cx="262.6755" cy="130.294" r="43.9253" gradientTransform="matrix(0.622 0 0 -1 147.6364 392)" gradientUnits="userSpaceOnUse">
						<stop  offset="0" style="stop-color:#00ADEE"/>
						<stop  offset="1" style="stop-color:#FFFFFF;stop-opacity:0"/>
					</radialGradient>
					<path class="st20" d="M298.2,294.4c0,1.7-0.8,3-1.9,3h-88.1c-1,0-1.9-1.4-1.9-3v-26.9c0-1.7,0.8-3,1.9-3h88.1
						c1,0,1.9,1.4,1.9,3V294.4z"/>
					
						<radialGradient id="SVGID_14_" cx="84.1759" cy="89.3231" r="49.2906" gradientTransform="matrix(0.622 0 0 -1 147.6364 392)" gradientUnits="userSpaceOnUse">
						<stop  offset="0" style="stop-color:#00ADEE"/>
						<stop  offset="1" style="stop-color:#FFFFFF;stop-opacity:0"/>
					</radialGradient>
					<path class="st21" d="M298.2,294.4c0,1.7-0.8,3-1.9,3h-88.1c-1,0-1.9-1.4-1.9-3v-26.9c0-1.7,0.8-3,1.9-3h88.1
						c1,0,1.9,1.4,1.9,3V294.4z"/>
				</g>
				<g>
					<g>
						<path class="st22" d="M296.3,264.5c1,0,1.9,1.4,1.9,3v26.9c0,1.7-0.8,3-1.9,3h-88.1c-1,0-1.9-1.4-1.9-3v-26.9
							c0-1.7,0.8-3,1.9-3H296.3 M296.3,264h-88.1c-1.3,0-2.4,1.5-2.4,3.5v26.9c0,2,1,3.5,2.4,3.5h88.1c1.3,0,2.4-1.5,2.4-3.5v-26.9
							C298.7,265.6,297.6,264,296.3,264L296.3,264z"/>
					</g>
					<g>
						<path class="st22" d="M296.3,264.5c1,0,1.9,1.4,1.9,3v26.9c0,1.7-0.8,3-1.9,3h-88.1c-1,0-1.9-1.4-1.9-3v-26.9
							c0-1.7,0.8-3,1.9-3H296.3 M296.3,264h-88.1c-1.3,0-2.4,1.5-2.4,3.5v26.9c0,2,1,3.5,2.4,3.5h88.1c1.3,0,2.4-1.5,2.4-3.5v-26.9
							C298.7,265.6,297.6,264,296.3,264L296.3,264z"/>
					</g>
					<g>
						<path class="st22" d="M296.3,264.5c1,0,1.9,1.4,1.9,3v26.9c0,1.7-0.8,3-1.9,3h-88.1c-1,0-1.9-1.4-1.9-3v-26.9
							c0-1.7,0.8-3,1.9-3H296.3 M296.3,264h-88.1c-1.3,0-2.4,1.5-2.4,3.5v26.9c0,2,1,3.5,2.4,3.5h88.1c1.3,0,2.4-1.5,2.4-3.5v-26.9
							C298.7,265.6,297.6,264,296.3,264L296.3,264z"/>
					</g>
					<g>
						<path class="st22" d="M296.3,264.5c1,0,1.9,1.4,1.9,3v26.9c0,1.7-0.8,3-1.9,3h-88.1c-1,0-1.9-1.4-1.9-3v-26.9
							c0-1.7,0.8-3,1.9-3H296.3 M296.3,264h-88.1c-1.3,0-2.4,1.5-2.4,3.5v26.9c0,2,1,3.5,2.4,3.5h88.1c1.3,0,2.4-1.5,2.4-3.5v-26.9
							C298.7,265.6,297.6,264,296.3,264L296.3,264z"/>
					</g>
					<g>
						<path class="st22" d="M296.3,264.5c1,0,1.9,1.4,1.9,3v26.9c0,1.7-0.8,3-1.9,3h-88.1c-1,0-1.9-1.4-1.9-3v-26.9
							c0-1.7,0.8-3,1.9-3H296.3 M296.3,264h-88.1c-1.3,0-2.4,1.5-2.4,3.5v26.9c0,2,1,3.5,2.4,3.5h88.1c1.3,0,2.4-1.5,2.4-3.5v-26.9
							C298.7,265.6,297.6,264,296.3,264L296.3,264z"/>
					</g>
					<g>
						<path class="st22" d="M296.3,264.5c1,0,1.9,1.4,1.9,3v26.9c0,1.7-0.8,3-1.9,3h-88.1c-1,0-1.9-1.4-1.9-3v-26.9
							c0-1.7,0.8-3,1.9-3H296.3 M296.3,264h-88.1c-1.3,0-2.4,1.5-2.4,3.5v26.9c0,2,1,3.5,2.4,3.5h88.1c1.3,0,2.4-1.5,2.4-3.5v-26.9
							C298.7,265.6,297.6,264,296.3,264L296.3,264z"/>
					</g>
				</g>
				<g>
					<path class="st23" d="M297.3,293.1c0,1.6-0.8,2.9-1.8,2.9H209c-1,0-1.8-1.3-1.8-2.9v-24.2c0-1.6,0.8-2.9,1.8-2.9h86.5
						c1,0,1.8,1.3,1.8,2.9V293.1z"/>
					<g>
						
							<linearGradient id="SVGID_15_" gradientUnits="userSpaceOnUse" x1="252.25" y1="142.1675" x2="252.25" y2="119.3696" gradientTransform="matrix(1 0 0 -1 0 392)">
							<stop  offset="0" style="stop-color:#39B98F"/>
							<stop  offset="1" style="stop-color:#6BC297;stop-opacity:0"/>
						</linearGradient>
						<path class="st24" d="M297.3,293.1c0,1.6-0.8,2.9-1.8,2.9H209c-1,0-1.8-1.3-1.8-2.9v-24.2c0-1.6,0.8-2.9,1.8-2.9h86.5
							c1,0,1.8,1.3,1.8,2.9V293.1z"/>
						
							<linearGradient id="SVGID_16_" gradientUnits="userSpaceOnUse" x1="252.25" y1="79.8348" x2="252.25" y2="107.8917" gradientTransform="matrix(1 0 0 -1 0 392)">
							<stop  offset="0" style="stop-color:#00A787"/>
							<stop  offset="1" style="stop-color:#00B298;stop-opacity:0"/>
						</linearGradient>
						<path class="st25" d="M297.3,293.1c0,1.6-0.8,2.9-1.8,2.9H209c-1,0-1.8-1.3-1.8-2.9v-24.2c0-1.6,0.8-2.9,1.8-2.9h86.5
							c1,0,1.8,1.3,1.8,2.9V293.1z"/>
						
							<radialGradient id="SVGID_17_" cx="260.3195" cy="179.5118" r="96.7604" gradientTransform="matrix(0.622 0 0 -1 147.6364 392)" gradientUnits="userSpaceOnUse">
							<stop  offset="0" style="stop-color:#00B292"/>
							<stop  offset="1" style="stop-color:#00A793;stop-opacity:0"/>
						</radialGradient>
						<path class="st26" d="M297.3,293.1c0,1.6-0.8,2.9-1.8,2.9H209c-1,0-1.8-1.3-1.8-2.9v-24.2c0-1.6,0.8-2.9,1.8-2.9h86.5
							c1,0,1.8,1.3,1.8,2.9V293.1z"/>
						
							<radialGradient id="SVGID_18_" cx="69.662" cy="107.019" r="36.8216" gradientTransform="matrix(0.622 0 0 -1 147.6364 392)" gradientUnits="userSpaceOnUse">
							<stop  offset="0" style="stop-color:#2BB89B;stop-opacity:0.96"/>
							<stop  offset="1" style="stop-color:#3AB88D;stop-opacity:0"/>
						</radialGradient>
						<path class="st27" d="M297.3,293.1c0,1.6-0.8,2.9-1.8,2.9H209c-1,0-1.8-1.3-1.8-2.9v-24.2c0-1.6,0.8-2.9,1.8-2.9h86.5
							c1,0,1.8,1.3,1.8,2.9V293.1z"/>
						
							<radialGradient id="SVGID_19_" cx="266.3509" cy="108.6666" r="39.5512" gradientTransform="matrix(0.622 0 0 -1 147.6364 392)" gradientUnits="userSpaceOnUse">
							<stop  offset="0" style="stop-color:#63B36E"/>
							<stop  offset="1" style="stop-color:#00A67E;stop-opacity:0"/>
						</radialGradient>
						<path class="st28" d="M297.3,293.1c0,1.6-0.8,2.9-1.8,2.9H209c-1,0-1.8-1.3-1.8-2.9v-24.2c0-1.6,0.8-2.9,1.8-2.9h86.5
							c1,0,1.8,1.3,1.8,2.9V293.1z"/>
					</g>
					<g class="st14">
						
							<linearGradient id="SVGID_20_" gradientUnits="userSpaceOnUse" x1="252.25" y1="142.1675" x2="252.25" y2="119.3696" gradientTransform="matrix(1 0 0 -1 0 392)">
							<stop  offset="0" style="stop-color:#00ADEE"/>
							<stop  offset="1" style="stop-color:#00ADEE;stop-opacity:0"/>
						</linearGradient>
						<path class="st29" d="M297.3,293.1c0,1.6-0.8,2.9-1.8,2.9H209c-1,0-1.8-1.3-1.8-2.9v-24.2c0-1.6,0.8-2.9,1.8-2.9h86.5
							c1,0,1.8,1.3,1.8,2.9V293.1z"/>
						
							<linearGradient id="SVGID_21_" gradientUnits="userSpaceOnUse" x1="252.25" y1="79.8348" x2="252.25" y2="107.8917" gradientTransform="matrix(1 0 0 -1 0 392)">
							<stop  offset="0" style="stop-color:#00ADEE"/>
							<stop  offset="1" style="stop-color:#00ADEE;stop-opacity:0"/>
						</linearGradient>
						<path class="st30" d="M297.3,293.1c0,1.6-0.8,2.9-1.8,2.9H209c-1,0-1.8-1.3-1.8-2.9v-24.2c0-1.6,0.8-2.9,1.8-2.9h86.5
							c1,0,1.8,1.3,1.8,2.9V293.1z"/>
						
							<radialGradient id="SVGID_22_" cx="260.3195" cy="179.5118" r="96.7604" gradientTransform="matrix(0.622 0 0 -1 147.6364 392)" gradientUnits="userSpaceOnUse">
							<stop  offset="0" style="stop-color:#00ADEE"/>
							<stop  offset="1" style="stop-color:#00ADEE;stop-opacity:0"/>
						</radialGradient>
						<path class="st31" d="M297.3,293.1c0,1.6-0.8,2.9-1.8,2.9H209c-1,0-1.8-1.3-1.8-2.9v-24.2c0-1.6,0.8-2.9,1.8-2.9h86.5
							c1,0,1.8,1.3,1.8,2.9V293.1z"/>
						
							<radialGradient id="SVGID_23_" cx="69.662" cy="107.019" r="36.8216" gradientTransform="matrix(0.622 0 0 -1 147.6364 392)" gradientUnits="userSpaceOnUse">
							<stop  offset="0" style="stop-color:#00ADEE"/>
							<stop  offset="1" style="stop-color:#00ADEE;stop-opacity:0"/>
						</radialGradient>
						<path class="st32" d="M297.3,293.1c0,1.6-0.8,2.9-1.8,2.9H209c-1,0-1.8-1.3-1.8-2.9v-24.2c0-1.6,0.8-2.9,1.8-2.9h86.5
							c1,0,1.8,1.3,1.8,2.9V293.1z"/>
						
							<radialGradient id="SVGID_24_" cx="266.3509" cy="108.6666" r="39.5512" gradientTransform="matrix(0.622 0 0 -1 147.6364 392)" gradientUnits="userSpaceOnUse">
							<stop  offset="0" style="stop-color:#00ADEE"/>
							<stop  offset="1" style="stop-color:#00ADEE;stop-opacity:0"/>
						</radialGradient>
						<path class="st33" d="M297.3,293.1c0,1.6-0.8,2.9-1.8,2.9H209c-1,0-1.8-1.3-1.8-2.9v-24.2c0-1.6,0.8-2.9,1.8-2.9h86.5
							c1,0,1.8,1.3,1.8,2.9V293.1z"/>
					</g>
				</g>
			</g>
			<rect x="208.5" y="272.3" class="st10" width="87.5" height="20"/>
			<text transform="matrix(1 0 0 1 234.2259 288.2977)" class="st11 st12 st34">領取</text>
		</g>
		<g class="st15">
			<g>
				<g>
					
						<linearGradient id="SVGID_25_" gradientUnits="userSpaceOnUse" x1="327.922" y1="111.05" x2="341.9903" y2="111.05" gradientTransform="matrix(1 0 0 -1 0 392)">
						<stop  offset="0" style="stop-color:#25A9E0"/>
						<stop  offset="1" style="stop-color:#FFFFFF;stop-opacity:0"/>
					</linearGradient>
					<path class="st35" d="M423.3,294.4c0,1.7-0.8,3-1.9,3h-88.1c-1,0-1.9-1.4-1.9-3v-26.9c0-1.7,0.8-3,1.9-3h88.1
						c1,0,1.9,1.4,1.9,3V294.4z"/>
					
						<linearGradient id="SVGID_26_" gradientUnits="userSpaceOnUse" x1="428.6362" y1="111.05" x2="405.1605" y2="111.05" gradientTransform="matrix(1 0 0 -1 0 392)">
						<stop  offset="0" style="stop-color:#25A9E0"/>
						<stop  offset="1" style="stop-color:#FFFFFF;stop-opacity:0"/>
					</linearGradient>
					<path class="st36" d="M423.3,294.4c0,1.7-0.8,3-1.9,3h-88.1c-1,0-1.9-1.4-1.9-3v-26.9c0-1.7,0.8-3,1.9-3h88.1
						c1,0,1.9,1.4,1.9,3V294.4z"/>
					
						<linearGradient id="SVGID_27_" gradientUnits="userSpaceOnUse" x1="377.35" y1="88.1802" x2="377.35" y2="109.3329" gradientTransform="matrix(1 0 0 -1 0 392)">
						<stop  offset="0" style="stop-color:#25A9E0"/>
						<stop  offset="1" style="stop-color:#FFFFFF;stop-opacity:0"/>
					</linearGradient>
					<path class="st37" d="M423.3,294.4c0,1.7-0.8,3-1.9,3h-88.1c-1,0-1.9-1.4-1.9-3v-26.9c0-1.7,0.8-3,1.9-3h88.1
						c1,0,1.9,1.4,1.9,3V294.4z"/>
					
						<linearGradient id="SVGID_28_" gradientUnits="userSpaceOnUse" x1="377.35" y1="131.8187" x2="377.35" y2="121.712" gradientTransform="matrix(1 0 0 -1 0 392)">
						<stop  offset="6.060610e-03" style="stop-color:#25A9E0"/>
						<stop  offset="1" style="stop-color:#FFFFFF;stop-opacity:0"/>
					</linearGradient>
					<path class="st38" d="M423.3,294.4c0,1.7-0.8,3-1.9,3h-88.1c-1,0-1.9-1.4-1.9-3v-26.9c0-1.7,0.8-3,1.9-3h88.1
						c1,0,1.9,1.4,1.9,3V294.4z"/>
					
						<radialGradient id="SVGID_29_" cx="463.8262" cy="130.294" r="43.9253" gradientTransform="matrix(0.622 0 0 -1 147.6364 392)" gradientUnits="userSpaceOnUse">
						<stop  offset="0" style="stop-color:#00ADEE"/>
						<stop  offset="1" style="stop-color:#FFFFFF;stop-opacity:0"/>
					</radialGradient>
					<path class="st39" d="M423.3,294.4c0,1.7-0.8,3-1.9,3h-88.1c-1,0-1.9-1.4-1.9-3v-26.9c0-1.7,0.8-3,1.9-3h88.1
						c1,0,1.9,1.4,1.9,3V294.4z"/>
					
						<radialGradient id="SVGID_30_" cx="285.3266" cy="89.3231" r="49.2906" gradientTransform="matrix(0.622 0 0 -1 147.6364 392)" gradientUnits="userSpaceOnUse">
						<stop  offset="0" style="stop-color:#00ADEE"/>
						<stop  offset="1" style="stop-color:#FFFFFF;stop-opacity:0"/>
					</radialGradient>
					<path class="st40" d="M423.3,294.4c0,1.7-0.8,3-1.9,3h-88.1c-1,0-1.9-1.4-1.9-3v-26.9c0-1.7,0.8-3,1.9-3h88.1
						c1,0,1.9,1.4,1.9,3V294.4z"/>
				</g>
				<g>
					<g>
						<path class="st22" d="M421.4,264.5c1,0,1.9,1.4,1.9,3v26.9c0,1.7-0.8,3-1.9,3h-88.1c-1,0-1.9-1.4-1.9-3v-26.9
							c0-1.7,0.8-3,1.9-3H421.4 M421.4,264h-88.1c-1.3,0-2.4,1.5-2.4,3.5v26.9c0,2,1,3.5,2.4,3.5h88.1c1.3,0,2.4-1.5,2.4-3.5v-26.9
							C423.8,265.6,422.7,264,421.4,264L421.4,264z"/>
					</g>
					<g>
						<path class="st22" d="M421.4,264.5c1,0,1.9,1.4,1.9,3v26.9c0,1.7-0.8,3-1.9,3h-88.1c-1,0-1.9-1.4-1.9-3v-26.9
							c0-1.7,0.8-3,1.9-3H421.4 M421.4,264h-88.1c-1.3,0-2.4,1.5-2.4,3.5v26.9c0,2,1,3.5,2.4,3.5h88.1c1.3,0,2.4-1.5,2.4-3.5v-26.9
							C423.8,265.6,422.7,264,421.4,264L421.4,264z"/>
					</g>
					<g>
						<path class="st22" d="M421.4,264.5c1,0,1.9,1.4,1.9,3v26.9c0,1.7-0.8,3-1.9,3h-88.1c-1,0-1.9-1.4-1.9-3v-26.9
							c0-1.7,0.8-3,1.9-3H421.4 M421.4,264h-88.1c-1.3,0-2.4,1.5-2.4,3.5v26.9c0,2,1,3.5,2.4,3.5h88.1c1.3,0,2.4-1.5,2.4-3.5v-26.9
							C423.8,265.6,422.7,264,421.4,264L421.4,264z"/>
					</g>
					<g>
						<path class="st22" d="M421.4,264.5c1,0,1.9,1.4,1.9,3v26.9c0,1.7-0.8,3-1.9,3h-88.1c-1,0-1.9-1.4-1.9-3v-26.9
							c0-1.7,0.8-3,1.9-3H421.4 M421.4,264h-88.1c-1.3,0-2.4,1.5-2.4,3.5v26.9c0,2,1,3.5,2.4,3.5h88.1c1.3,0,2.4-1.5,2.4-3.5v-26.9
							C423.8,265.6,422.7,264,421.4,264L421.4,264z"/>
					</g>
					<g>
						<path class="st22" d="M421.4,264.5c1,0,1.9,1.4,1.9,3v26.9c0,1.7-0.8,3-1.9,3h-88.1c-1,0-1.9-1.4-1.9-3v-26.9
							c0-1.7,0.8-3,1.9-3H421.4 M421.4,264h-88.1c-1.3,0-2.4,1.5-2.4,3.5v26.9c0,2,1,3.5,2.4,3.5h88.1c1.3,0,2.4-1.5,2.4-3.5v-26.9
							C423.8,265.6,422.7,264,421.4,264L421.4,264z"/>
					</g>
					<g>
						<path class="st22" d="M421.4,264.5c1,0,1.9,1.4,1.9,3v26.9c0,1.7-0.8,3-1.9,3h-88.1c-1,0-1.9-1.4-1.9-3v-26.9
							c0-1.7,0.8-3,1.9-3H421.4 M421.4,264h-88.1c-1.3,0-2.4,1.5-2.4,3.5v26.9c0,2,1,3.5,2.4,3.5h88.1c1.3,0,2.4-1.5,2.4-3.5v-26.9
							C423.8,265.6,422.7,264,421.4,264L421.4,264z"/>
					</g>
				</g>
				<g>
					<path class="st23" d="M422.4,293.1c0,1.6-0.8,2.9-1.8,2.9h-86.5c-1,0-1.8-1.3-1.8-2.9v-24.2c0-1.6,0.8-2.9,1.8-2.9h86.5
						c1,0,1.8,1.3,1.8,2.9V293.1z"/>
					<g>
						
							<linearGradient id="SVGID_31_" gradientUnits="userSpaceOnUse" x1="377.35" y1="142.1675" x2="377.35" y2="119.3696" gradientTransform="matrix(1 0 0 -1 0 392)">
							<stop  offset="0" style="stop-color:#39B98F"/>
							<stop  offset="1" style="stop-color:#6BC297;stop-opacity:0"/>
						</linearGradient>
						<path class="st41" d="M422.4,293.1c0,1.6-0.8,2.9-1.8,2.9h-86.5c-1,0-1.8-1.3-1.8-2.9v-24.2c0-1.6,0.8-2.9,1.8-2.9h86.5
							c1,0,1.8,1.3,1.8,2.9V293.1z"/>
						
							<linearGradient id="SVGID_32_" gradientUnits="userSpaceOnUse" x1="377.35" y1="79.8348" x2="377.35" y2="107.8917" gradientTransform="matrix(1 0 0 -1 0 392)">
							<stop  offset="0" style="stop-color:#00A787"/>
							<stop  offset="1" style="stop-color:#00B298;stop-opacity:0"/>
						</linearGradient>
						<path class="st42" d="M422.4,293.1c0,1.6-0.8,2.9-1.8,2.9h-86.5c-1,0-1.8-1.3-1.8-2.9v-24.2c0-1.6,0.8-2.9,1.8-2.9h86.5
							c1,0,1.8,1.3,1.8,2.9V293.1z"/>
						
							<radialGradient id="SVGID_33_" cx="461.4701" cy="179.5118" r="96.7604" gradientTransform="matrix(0.622 0 0 -1 147.6364 392)" gradientUnits="userSpaceOnUse">
							<stop  offset="0" style="stop-color:#00B292"/>
							<stop  offset="1" style="stop-color:#00A793;stop-opacity:0"/>
						</radialGradient>
						<path class="st43" d="M422.4,293.1c0,1.6-0.8,2.9-1.8,2.9h-86.5c-1,0-1.8-1.3-1.8-2.9v-24.2c0-1.6,0.8-2.9,1.8-2.9h86.5
							c1,0,1.8,1.3,1.8,2.9V293.1z"/>
						
							<radialGradient id="SVGID_34_" cx="270.8126" cy="107.019" r="36.8216" gradientTransform="matrix(0.622 0 0 -1 147.6364 392)" gradientUnits="userSpaceOnUse">
							<stop  offset="0" style="stop-color:#2BB89B;stop-opacity:0.96"/>
							<stop  offset="1" style="stop-color:#3AB88D;stop-opacity:0"/>
						</radialGradient>
						<path class="st44" d="M422.4,293.1c0,1.6-0.8,2.9-1.8,2.9h-86.5c-1,0-1.8-1.3-1.8-2.9v-24.2c0-1.6,0.8-2.9,1.8-2.9h86.5
							c1,0,1.8,1.3,1.8,2.9V293.1z"/>
						
							<radialGradient id="SVGID_35_" cx="467.5015" cy="108.6666" r="39.5512" gradientTransform="matrix(0.622 0 0 -1 147.6364 392)" gradientUnits="userSpaceOnUse">
							<stop  offset="0" style="stop-color:#63B36E"/>
							<stop  offset="1" style="stop-color:#00A67E;stop-opacity:0"/>
						</radialGradient>
						<path class="st45" d="M422.4,293.1c0,1.6-0.8,2.9-1.8,2.9h-86.5c-1,0-1.8-1.3-1.8-2.9v-24.2c0-1.6,0.8-2.9,1.8-2.9h86.5
							c1,0,1.8,1.3,1.8,2.9V293.1z"/>
					</g>
					<g class="st14">
						
							<linearGradient id="SVGID_36_" gradientUnits="userSpaceOnUse" x1="377.35" y1="142.1675" x2="377.35" y2="119.3696" gradientTransform="matrix(1 0 0 -1 0 392)">
							<stop  offset="0" style="stop-color:#00ADEE"/>
							<stop  offset="1" style="stop-color:#00ADEE;stop-opacity:0"/>
						</linearGradient>
						<path class="st46" d="M422.4,293.1c0,1.6-0.8,2.9-1.8,2.9h-86.5c-1,0-1.8-1.3-1.8-2.9v-24.2c0-1.6,0.8-2.9,1.8-2.9h86.5
							c1,0,1.8,1.3,1.8,2.9V293.1z"/>
						
							<linearGradient id="SVGID_37_" gradientUnits="userSpaceOnUse" x1="377.35" y1="79.8348" x2="377.35" y2="107.8917" gradientTransform="matrix(1 0 0 -1 0 392)">
							<stop  offset="0" style="stop-color:#00ADEE"/>
							<stop  offset="1" style="stop-color:#00ADEE;stop-opacity:0"/>
						</linearGradient>
						<path class="st47" d="M422.4,293.1c0,1.6-0.8,2.9-1.8,2.9h-86.5c-1,0-1.8-1.3-1.8-2.9v-24.2c0-1.6,0.8-2.9,1.8-2.9h86.5
							c1,0,1.8,1.3,1.8,2.9V293.1z"/>
						
							<radialGradient id="SVGID_38_" cx="461.4701" cy="179.5118" r="96.7604" gradientTransform="matrix(0.622 0 0 -1 147.6364 392)" gradientUnits="userSpaceOnUse">
							<stop  offset="0" style="stop-color:#00ADEE"/>
							<stop  offset="1" style="stop-color:#00ADEE;stop-opacity:0"/>
						</radialGradient>
						<path class="st48" d="M422.4,293.1c0,1.6-0.8,2.9-1.8,2.9h-86.5c-1,0-1.8-1.3-1.8-2.9v-24.2c0-1.6,0.8-2.9,1.8-2.9h86.5
							c1,0,1.8,1.3,1.8,2.9V293.1z"/>
						
							<radialGradient id="SVGID_39_" cx="270.8126" cy="107.019" r="36.8216" gradientTransform="matrix(0.622 0 0 -1 147.6364 392)" gradientUnits="userSpaceOnUse">
							<stop  offset="0" style="stop-color:#00ADEE"/>
							<stop  offset="1" style="stop-color:#00ADEE;stop-opacity:0"/>
						</radialGradient>
						<path class="st49" d="M422.4,293.1c0,1.6-0.8,2.9-1.8,2.9h-86.5c-1,0-1.8-1.3-1.8-2.9v-24.2c0-1.6,0.8-2.9,1.8-2.9h86.5
							c1,0,1.8,1.3,1.8,2.9V293.1z"/>
						
							<radialGradient id="SVGID_40_" cx="467.5015" cy="108.6666" r="39.5512" gradientTransform="matrix(0.622 0 0 -1 147.6364 392)" gradientUnits="userSpaceOnUse">
							<stop  offset="0" style="stop-color:#00ADEE"/>
							<stop  offset="1" style="stop-color:#00ADEE;stop-opacity:0"/>
						</radialGradient>
						<path class="st50" d="M422.4,293.1c0,1.6-0.8,2.9-1.8,2.9h-86.5c-1,0-1.8-1.3-1.8-2.9v-24.2c0-1.6,0.8-2.9,1.8-2.9h86.5
							c1,0,1.8,1.3,1.8,2.9V293.1z"/>
					</g>
				</g>
			</g>
			<rect x="333.6" y="272.3" class="st10" width="87.5" height="20"/>
			<text transform="matrix(1 0 0 1 359.3416 288.2977)" class="st11 st12 st34">贈送</text>
		</g>
	</g>
	<g id="影片" class="st14">
		<rect x="67.5" y="57.1" class="st51" width="547.3" height="306.8"/>
		<g id="播放" class="st15">
			<g>
				<rect x="85.4" y="333.9" class="st52" width="511.2" height="3"/>
				<rect x="85.4" y="333.9" class="st53" width="83.2" height="3"/>
				<circle class="st53" cx="169.7" cy="334.8" r="4.7"/>
			</g>
			<g>
				<g>
					<polyline class="st54" points="553.1,347.5 553.1,343.7 557.6,343.7 					"/>
					<polyline class="st54" points="564.8,347.5 564.8,343.7 560.3,343.7 					"/>
					<polyline class="st54" points="553.1,351.4 553.1,355.2 557.6,355.2 					"/>
					<polyline class="st54" points="564.8,351.4 564.8,355.2 560.3,355.2 					"/>
				</g>
				<g>
					<path class="st11" d="M585.9,349.1c-0.5-0.1-1-0.1-1.5-0.2c-0.1,0-0.1,0-0.1-0.1c-0.1-0.2-0.2-0.5-0.3-0.7c0-0.1,0-0.1,0-0.2
						c0.3-0.4,0.7-0.8,1-1.2c0.1-0.2,0.1-0.3,0-0.5c-0.3-0.3-0.6-0.6-1-1c-0.2-0.2-0.3-0.2-0.6,0c-0.4,0.3-0.8,0.6-1.2,0.9
						c-0.1,0.1-0.1,0.1-0.2,0c-0.2-0.1-0.4-0.2-0.6-0.3c-0.1,0-0.2-0.1-0.2-0.2c0-0.5-0.1-1-0.2-1.5c0-0.2-0.1-0.3-0.3-0.3
						c-0.5,0-1,0-1.5,0c-0.2,0-0.3,0.1-0.3,0.3c0,0.1,0,0.1,0,0.2c-0.1,0.5-0.1,1-0.1,1.4c0,0.1,0,0.1-0.1,0.1
						c-0.2,0.1-0.5,0.2-0.7,0.3c-0.1,0-0.1,0-0.2,0c-0.4-0.3-0.8-0.6-1.2-1c-0.1-0.1-0.2-0.1-0.2-0.1c-0.1,0-0.2,0.1-0.2,0.1
						c-0.4,0.3-0.7,0.7-1.1,1.1c-0.1,0.1-0.1,0.3,0,0.4l0.1,0.1c0.3,0.4,0.6,0.7,0.9,1.1c0.1,0.1,0.1,0.1,0,0.2
						c-0.1,0.2-0.2,0.4-0.3,0.7c0,0.1-0.1,0.1-0.2,0.1c-0.5,0-1,0.1-1.5,0.2c-0.2,0-0.3,0.1-0.3,0.4c0,0.5,0,0.9,0,1.4
						c0,0.2,0.1,0.3,0.3,0.4c0.5,0.1,1,0.1,1.5,0.2c0.1,0,0.1,0,0.2,0.1c0.1,0.2,0.2,0.5,0.3,0.7c0,0.1,0,0.1,0,0.2
						c-0.3,0.4-0.6,0.8-1,1.2c-0.2,0.2-0.1,0.3,0,0.5c0.3,0.3,0.6,0.7,1,1c0.2,0.2,0.3,0.2,0.5,0c0.4-0.3,0.8-0.6,1.2-1
						c0.1-0.1,0.1-0.1,0.2,0c0.2,0.1,0.5,0.2,0.7,0.3c0.1,0,0.1,0.1,0.1,0.1c0,0.5,0.1,1,0.2,1.5c0,0.2,0.1,0.4,0.3,0.4
						c0.5,0,1,0,1.5,0c0.2,0,0.3-0.1,0.3-0.3c0-0.1,0-0.1,0-0.2c0-0.5,0.1-0.9,0.1-1.4c0-0.1,0.1-0.1,0.1-0.2
						c0.2-0.1,0.4-0.2,0.7-0.3c0.1,0,0.1,0,0.2,0c0.4,0.3,0.8,0.6,1.2,1c0.2,0.2,0.3,0.1,0.5,0c0.3-0.3,0.6-0.6,1-1
						c0.2-0.2,0.2-0.3,0-0.5c-0.3-0.4-0.6-0.8-1-1.2c-0.1-0.1-0.1-0.1,0-0.2c0.1-0.2,0.2-0.5,0.3-0.7c0-0.1,0.1-0.1,0.2-0.1
						c0.5,0,1-0.1,1.5-0.2c0.2,0,0.3-0.1,0.3-0.4c0-0.5,0-0.9,0-1.4C586.2,349.2,586.1,349.1,585.9,349.1z M579.9,353.3
						c-1.7,0-3.1-1.4-3.1-3.1s1.4-3.1,3.1-3.1c1.7,0,3.1,1.4,3.1,3.1S581.7,353.3,579.9,353.3z"/>
				</g>
				<polygon class="st11" points="121.1,343.2 121.1,355.2 128.8,349.2 				"/>
				<g>
					<polygon class="st11" points="141.1,343.2 141.1,355.2 148.9,349.2 					"/>
					<rect x="148.9" y="343.2" class="st11" width="1.8" height="12"/>
				</g>
				<g>
					<polygon class="st11" points="107.9,343.2 107.9,355.2 100.1,349.2 					"/>
					<rect x="98.4" y="343.2" class="st11" width="1.8" height="12"/>
				</g>
			</g>
		</g>
	</g>
	<g id="影片_1_" class="st14">
		<rect x="120.7" y="100.2" class="st55" width="458.6" height="257.1"/>
		<g id="播放_1_" class="st15">
			<g>
				<rect x="134.9" y="325.4" class="st52" width="432.6" height="3"/>
				<rect x="134.9" y="325.4" class="st53" width="60.2" height="3"/>
				<circle class="st53" cx="196.2" cy="326.3" r="4.7"/>
			</g>
			<g>
				<g>
					<polyline class="st54" points="530.4,339.1 530.4,335.2 534.9,335.2 					"/>
					<polyline class="st54" points="542.1,339.1 542.1,335.2 537.6,335.2 					"/>
					<polyline class="st54" points="530.4,342.9 530.4,346.7 534.9,346.7 					"/>
					<polyline class="st54" points="542.1,342.9 542.1,346.7 537.6,346.7 					"/>
				</g>
				<g>
					<path class="st11" d="M563.2,340.6c-0.5-0.1-1-0.1-1.5-0.2c-0.1,0-0.1,0-0.1-0.1c-0.1-0.2-0.2-0.5-0.3-0.7c0-0.1,0-0.1,0-0.2
						c0.3-0.4,0.7-0.8,1-1.2c0.1-0.2,0.1-0.3,0-0.5c-0.3-0.3-0.6-0.6-1-1c-0.2-0.2-0.3-0.2-0.6,0c-0.4,0.3-0.8,0.6-1.2,0.9
						c-0.1,0.1-0.1,0.1-0.2,0c-0.2-0.1-0.4-0.2-0.6-0.3c-0.1,0-0.2-0.1-0.2-0.2c0-0.5-0.1-1-0.2-1.5c0-0.2-0.1-0.3-0.3-0.3
						c-0.5,0-1,0-1.5,0c-0.2,0-0.3,0.1-0.3,0.3c0,0.1,0,0.1,0,0.2c-0.1,0.5-0.1,1-0.1,1.4c0,0.1,0,0.1-0.1,0.1
						c-0.2,0.1-0.5,0.2-0.7,0.3c-0.1,0-0.1,0-0.2,0c-0.4-0.3-0.8-0.6-1.2-1c-0.1-0.1-0.2-0.1-0.2-0.1c-0.1,0-0.2,0.1-0.2,0.1
						c-0.4,0.3-0.7,0.7-1.1,1.1c-0.1,0.1-0.1,0.3,0,0.4l0.1,0.1c0.3,0.4,0.6,0.7,0.9,1.1c0.1,0.1,0.1,0.1,0,0.2
						c-0.1,0.2-0.2,0.4-0.3,0.7c0,0.1-0.1,0.1-0.2,0.1c-0.5,0-1,0.1-1.5,0.2c-0.2,0-0.3,0.1-0.3,0.4c0,0.5,0,0.9,0,1.4
						c0,0.2,0.1,0.3,0.3,0.4c0.5,0.1,1,0.1,1.5,0.2c0.1,0,0.1,0,0.2,0.1c0.1,0.2,0.2,0.5,0.3,0.7c0,0.1,0,0.1,0,0.2
						c-0.3,0.4-0.6,0.8-1,1.2c-0.2,0.2-0.1,0.3,0,0.5c0.3,0.3,0.7,0.7,1,1c0.2,0.2,0.3,0.2,0.5,0c0.4-0.3,0.8-0.6,1.2-1
						c0.1-0.1,0.1-0.1,0.2,0c0.2,0.1,0.5,0.2,0.7,0.3c0.1,0,0.1,0.1,0.1,0.1c0,0.5,0.1,1,0.2,1.5c0,0.2,0.1,0.4,0.3,0.4
						c0.5,0,1,0,1.5,0c0.2,0,0.3-0.1,0.3-0.3c0-0.1,0-0.1,0-0.2c0-0.5,0.1-0.9,0.1-1.4c0-0.1,0.1-0.1,0.1-0.2
						c0.2-0.1,0.4-0.2,0.7-0.3c0.1,0,0.1,0,0.2,0c0.4,0.3,0.8,0.6,1.2,1c0.2,0.2,0.3,0.1,0.5,0c0.3-0.3,0.6-0.6,1-1
						c0.2-0.2,0.2-0.3,0-0.5c-0.3-0.4-0.6-0.8-1-1.2c-0.1-0.1-0.1-0.1,0-0.2c0.1-0.2,0.2-0.5,0.3-0.7c0-0.1,0.1-0.1,0.2-0.1
						c0.5,0,1-0.1,1.5-0.2c0.2,0,0.3-0.1,0.3-0.4c0-0.5,0-0.9,0-1.4C563.5,340.8,563.4,340.6,563.2,340.6z M557.2,344.8
						c-1.7,0-3.1-1.4-3.1-3.1s1.4-3.1,3.1-3.1c1.7,0,3.1,1.4,3.1,3.1S559,344.8,557.2,344.8z"/>
				</g>
				<polygon class="st11" points="163,334.7 163,346.7 170.8,340.7 				"/>
				<g>
					<polygon class="st11" points="183.1,334.7 183.1,346.7 190.9,340.7 					"/>
					<rect x="190.9" y="334.7" class="st11" width="1.8" height="12"/>
				</g>
				<g>
					<polygon class="st11" points="149.8,334.7 149.8,346.7 142,340.7 					"/>
					<rect x="140.2" y="334.8" class="st11" width="1.8" height="12"/>
				</g>
			</g>
		</g>
	</g>
	<g class="st14">
		<path class="st56" d="M274.7,95.9h-70.2c-7.2,0-13-5.8-13-13l0,0c0-7.2,5.8-13,13-13h70.2c7.2,0,13,5.8,13,13l0,0
			C287.7,90.1,281.9,95.9,274.7,95.9z"/>
		<rect x="191.4" y="76" class="st57" width="96.3" height="17.9"/>
		<text transform="matrix(1 0 0 1 219.6625 88.487)" class="st58 st12 st59">展館 1</text>
		<path class="st60" d="M380,95.9h-70.2c-7.2,0-13-5.8-13-13l0,0c0-7.2,5.8-13,13-13H380c7.2,0,13,5.8,13,13l0,0
			C393.1,90.1,387.2,95.9,380,95.9z"/>
		<rect x="296.8" y="76" class="st57" width="96.3" height="17.9"/>
		<text transform="matrix(1 0 0 1 324.9958 88.487)" class="st58 st12 st59">展館 2</text>
		<path class="st60" d="M485,95.9h-70.2c-7.2,0-13-5.8-13-13l0,0c0-7.2,5.8-13,13-13H485c7.2,0,13,5.8,13,13l0,0
			C498.1,90.1,492.2,95.9,485,95.9z"/>
		<rect x="401.8" y="76" class="st57" width="96.3" height="17.9"/>
		<text transform="matrix(1 0 0 1 429.9958 88.487)" class="st58 st12 st59">展館 3</text>
	</g>
</g>
</svg>
