<?xml version="1.0" encoding="utf-8"?>
<!-- Generator: Adobe Illustrator 21.0.0, SVG Export Plug-In . SVG Version: 6.00 Build 0)  -->
<svg version="1.1" id="圖層_1" xmlns="http://www.w3.org/2000/svg" xmlns:xlink="http://www.w3.org/1999/xlink" x="0px" y="0px"
	 viewBox="0 0 822.9 601.4" style="enable-background:new 0 0 822.9 601.4;" xml:space="preserve">
<style type="text/css">
	.st0{fill:url(#SVGID_1_);}
	.st1{opacity:0.6;fill:#E1BE3F;}
	.st2{fill:url(#SVGID_2_);}
	.st3{fill:url(#SVGID_3_);}
	.st4{fill:url(#SVGID_4_);}
	.st5{fill:#AB6C21;}
	.st6{fill:url(#SVGID_5_);}
	.st7{fill:#F5B38E;}
	.st8{fill:url(#SVGID_6_);}
	.st9{fill:url(#SVGID_7_);}
	.st10{fill:#B56D4C;}
</style>
<g>
	<g>
		<linearGradient id="SVGID_1_" gradientUnits="userSpaceOnUse" x1="331.1953" y1="347.2777" x2="366.0661" y2="347.2777">
			<stop  offset="0" style="stop-color:#EFD97F"/>
			<stop  offset="0.1978" style="stop-color:#EFD87C"/>
			<stop  offset="0.3726" style="stop-color:#EED571"/>
			<stop  offset="0.5387" style="stop-color:#EDCF5F"/>
			<stop  offset="0.6984" style="stop-color:#EBC845"/>
			<stop  offset="0.7526" style="stop-color:#EAC53B"/>
			<stop  offset="1" style="stop-color:#E5AD14"/>
		</linearGradient>
		<path class="st0" d="M360.6,343.9c1.5-4.6,5.4-14.5,5.4-14.5l0.1-0.1c-4.7-9.3-12.5-16.1-12.5-16.1l-13.1,14l-9.2,16.8
			c0,0-0.9,13.5,3,21.8s18.4,15.7,18.4,15.7c0.6-9.2,4.9-24.3,8.5-36.1L360.6,343.9z"/>
		<path class="st1" d="M358.2,343.5c-0.1,1,1.3,1.6,3,2c0,0,0-0.1,0-0.1l-0.7-1.4c1.5-4.6,5.4-14.5,5.4-14.5l0.1-0.1
			c-0.4-0.8-0.8-1.5-1.2-2.2C364.7,327.2,358.4,341,358.2,343.5z"/>
		<linearGradient id="SVGID_2_" gradientUnits="userSpaceOnUse" x1="345.3889" y1="352.7354" x2="364.2822" y2="352.7354">
			<stop  offset="0" style="stop-color:#EFD97F"/>
			<stop  offset="0.1978" style="stop-color:#EFD87C"/>
			<stop  offset="0.3726" style="stop-color:#EED571"/>
			<stop  offset="0.5387" style="stop-color:#EDCF5F"/>
			<stop  offset="0.6984" style="stop-color:#EBC845"/>
			<stop  offset="0.7526" style="stop-color:#EAC53B"/>
			<stop  offset="1" style="stop-color:#E5AD14"/>
		</linearGradient>
		<path class="st2" d="M350.4,343.5c0,0,7-1.4,10.5,1.7c3.5,3.1,4.1,9.1,2.9,12c-1.3,2.9-6.6,5.1-6.6,5.1l-5.6-0.6l-4.7-4l-1.5-4.5
			l2.1-7.5L350.4,343.5z"/>
		<linearGradient id="SVGID_3_" gradientUnits="userSpaceOnUse" x1="340.5227" y1="367.3286" x2="360.7593" y2="367.3286">
			<stop  offset="0" style="stop-color:#EFD97F"/>
			<stop  offset="0.1978" style="stop-color:#EFD87C"/>
			<stop  offset="0.3726" style="stop-color:#EED571"/>
			<stop  offset="0.5387" style="stop-color:#EDCF5F"/>
			<stop  offset="0.6984" style="stop-color:#EBC845"/>
			<stop  offset="0.7526" style="stop-color:#EAC53B"/>
			<stop  offset="1" style="stop-color:#E5AD14"/>
		</linearGradient>
		<path class="st3" d="M346.1,358.6c0,0-4,1.4-4.8,4.7c-0.9,3.3-1.5,7.3,1.4,9.1c2.9,1.9,4.9,4,8.2,3.4c3.4-0.6,7.6-3.5,7.6-3.5
			l2.3-4.6l-1-5.5l-3.9,0.9l-4.8-1.4L346.1,358.6z"/>
		<linearGradient id="SVGID_4_" gradientUnits="userSpaceOnUse" x1="336.5684" y1="380.1667" x2="357.4259" y2="380.1667">
			<stop  offset="0" style="stop-color:#EFD97F"/>
			<stop  offset="0.1978" style="stop-color:#EFD87C"/>
			<stop  offset="0.3726" style="stop-color:#EED571"/>
			<stop  offset="0.5387" style="stop-color:#EDCF5F"/>
			<stop  offset="0.6984" style="stop-color:#EBC845"/>
			<stop  offset="0.7526" style="stop-color:#EAC53B"/>
			<stop  offset="1" style="stop-color:#E5AD14"/>
		</linearGradient>
		<path class="st4" d="M340.5,370.5c0,0-3.8,2.8-3.9,6.4c-0.1,3.6,1.4,7.7,1.4,7.7l3.1,3.4l2.2,1.1l2.4,0.7l4.2-0.2l4.7-3.3l2.1-3.2
			l0.6-1.7l-0.1-1.3l-1.4-5.2l-5.7,1.8l-4.9-1.3l-3.3-3.2L340.5,370.5z"/>
		<path class="st5" d="M365.3,353.3c0.2-3.2-1.1-6.4-3.6-8.6c-2.5-2.2-5.8-3.2-9-2.7c-6.9,1.1-8.3,8.7-8.4,9.3
			c-0.4,2.2-0.2,4.3,0.7,6.1c-2.1,0.9-6,3.6-5.5,9.8c0.1,0.8,0.2,1.6,0.4,2.3c-0.1,0-0.5,0.3-1.1,1c-5.3-6.6-6.8-13.6-7.1-18.8
			c-0.1-3.2,0.5-7.3,2.7-11.3c4.8-8.6,21-27.5,21-27.5l-3.3-2.8c0,0-12.6,15.6-15.8,20.4c-3.3,4.9-5.8,10.5-6.2,13.3l0,0
			c-0.8,4-2.2,16.5,7.4,28.2c-0.8,1.3-1.6,3.2-2,5.8c-0.4,3,0.4,6,2.2,8.4c1.9,2.4,4.7,4,8,4.3c0.4,0,0.9,0.1,1.3,0.1
			c3.6,0,7-1.6,8.9-4.1c1.6-2.1,2.9-5.7,0.7-11.5c2-1.4,3.5-3.4,4.3-5.6c0.8-2.4,0.7-4.8-0.4-7.1
			C363.3,360.6,365.1,357.4,365.3,353.3z M354.5,385.3c-1.8,2.4-5.1,3.6-8.4,3.3c-2.7-0.3-5.1-1.6-6.6-3.6c-1.5-1.9-2.2-4.4-1.8-6.9
			c0.6-4.1,2.4-6.1,3.1-6.7c0.8,1.5,2,2.9,3.6,3.8c1.9,1.2,4.1,1.8,6.2,1.8c1.4,0,2.7-0.2,3.9-0.7c0.2-0.1,0.4-0.2,0.6-0.3
			C356.4,379.8,356.2,383,354.5,385.3z M359.1,368.8c-0.8,2.5-2.9,4.6-5.5,5.7c-2.5,1-5.8,0.7-8.3-0.9c-1.6-1-3.6-2.9-3.8-6.5
			c-0.4-5.4,3.1-7.4,4.6-8c0,0,0,0,0,0c2.4,3,6.3,4.5,8.9,4.6c0.2,0,0.3,0,0.5,0c1.2,0,2.3-0.2,3.3-0.6
			C359.7,365,359.8,366.9,359.1,368.8z M355.1,361.7c-2.3-0.1-5.6-1.4-7.4-3.8c-1.4-1.8-1.9-3.9-1.4-6.2l0,0c0-0.3,1.2-6.7,6.7-7.6
			c0.5-0.1,0.9-0.1,1.4-0.1c2.2,0,4.3,0.8,6,2.3c2,1.8,3.1,4.3,2.9,7C363,358.6,359.8,361.9,355.1,361.7z"/>
	</g>
	<g>
		<linearGradient id="SVGID_5_" gradientUnits="userSpaceOnUse" x1="501.3979" y1="266.3169" x2="552.9534" y2="354.6132">
			<stop  offset="0" style="stop-color:#EFD97F"/>
			<stop  offset="0.1978" style="stop-color:#EFD87C"/>
			<stop  offset="0.3726" style="stop-color:#EED571"/>
			<stop  offset="0.5387" style="stop-color:#EDCF5F"/>
			<stop  offset="0.6984" style="stop-color:#EBC845"/>
			<stop  offset="0.7526" style="stop-color:#EAC53B"/>
			<stop  offset="1" style="stop-color:#E5AD14"/>
		</linearGradient>
		<path class="st6" d="M556.1,339c-0.3,0.8-8.7,20.2-32.2,14.8c-23.4-5.3-17.5-35.7-17.3-37c0.1-0.5-0.2-1.1-0.8-1.2
			c-0.6-0.1-14.9-3.6-15.4-22.8c-0.1-5.4,1.4-9.6,4.5-12.6c6-5.7,16.1-5.1,16.2-5.1c4.4,0.3,12,1.9,14,9.1c0.8,2.7,0.8,6.1,0,9.3
			c-1.2,5.3-4.4,7.8-9.4,7.7c-0.6,0-1,0.4-1,1c0,0.6,0.4,1,1,1c5.9,0.2,10-3.1,11.4-9.2c0.1-0.4,0.2-0.7,0.2-1.1
			c2.2,2.2,6.5,5.7,12.3,5.7c0.3,0,0.6,0,1,0c4.1-0.3,9.5-1.8,13.3-5.3c1,11-6.5,18.3-6.6,18.4c-0.2,0.2-0.3,0.5-0.3,0.7
			c0,0.3,0.1,0.5,0.3,0.7C561,325.3,556.3,338.5,556.1,339z"/>
		<path class="st7" d="M520.1,301.1c0,0,6.6-2.3,6.8-9.8c0,0,7.7,6.7,13.7,7.4l-4.2,1.5l-6.1,1l-4.8,1.6H521L520.1,301.1z"/>
		<linearGradient id="SVGID_6_" gradientUnits="userSpaceOnUse" x1="523.1616" y1="253.6093" x2="574.7172" y2="341.9057">
			<stop  offset="0" style="stop-color:#EFD97F"/>
			<stop  offset="0.1978" style="stop-color:#EFD87C"/>
			<stop  offset="0.3726" style="stop-color:#EED571"/>
			<stop  offset="0.5387" style="stop-color:#EDCF5F"/>
			<stop  offset="0.6984" style="stop-color:#EBC845"/>
			<stop  offset="0.7526" style="stop-color:#EAC53B"/>
			<stop  offset="1" style="stop-color:#E5AD14"/>
		</linearGradient>
		<path class="st8" d="M554.2,278.1c0.8,1.8,3,8.2-0.3,12.3c-3.3,4.1-9.1,5.9-13.4,6.1c-6.8,0.5-11.7-5-12.8-6.3
			c0.1-2.3-0.1-4.6-0.6-6.6c-0.4-1.3-0.9-2.4-1.5-3.4c0.6-2.2,4.3-12.2,16.7-11c2.2,0.2,4.2,0.9,5.9,1.9c0,0,0,0,0.1,0
			C550.9,272.8,552.9,275.1,554.2,278.1z"/>
		<linearGradient id="SVGID_7_" gradientUnits="userSpaceOnUse" x1="514.8206" y1="258.4796" x2="566.3759" y2="346.7756">
			<stop  offset="0" style="stop-color:#EFD97F"/>
			<stop  offset="0.1978" style="stop-color:#EFD87C"/>
			<stop  offset="0.3726" style="stop-color:#EED571"/>
			<stop  offset="0.5387" style="stop-color:#EDCF5F"/>
			<stop  offset="0.6984" style="stop-color:#EBC845"/>
			<stop  offset="0.7526" style="stop-color:#EAC53B"/>
			<stop  offset="1" style="stop-color:#E5AD14"/>
		</linearGradient>
		<path class="st9" d="M485,264.4c0.3-10.3,6.3-13.7,9.8-14.8c1.8-0.6,7.3-2.3,12.5,0.6c5,2.8,8.7,8.9,11.1,18.3
			c0.1,0.5,0.6,0.8,1.2,0.7c0.5-0.1,0.9-0.6,0.8-1.1c0-0.1-2-13.1,4-19.4c2.5-2.6,6.1-3.7,10.7-3.2c4.8,0.5,8.5,2.4,10.7,5.7
			c4,5.8,2.9,14.5,2.3,17.7c-1.7-0.8-3.6-1.4-5.7-1.6c-12-1.2-16.8,7.3-18.3,11.1c-3.6-3.9-9.2-5-12.8-5.2c-0.4,0-10.3-0.7-16.9,4.9
			C492.3,276.9,484.8,272.1,485,264.4z"/>
		<path class="st10" d="M503.6,271.2c-1.2,0-2.3-0.3-3.4-1.2c-2.6-2.1-3.7-4.3-3.3-6.9c0.2-1.6,1-3,2.2-4.1l0,0
			c1.5-1.3,3.5-2,5.5-1.8c1.9,0.1,3.7,1,4.9,2.5c2.7,3.3,2.7,6.7-0.2,9.1C507.7,270.1,505.6,271.2,503.6,271.2z M500.5,260.6
			c-0.8,0.7-1.3,1.7-1.5,2.8c-0.3,1.8,0.6,3.4,2.5,5c2.4,1.9,5.7-0.6,6.3-1.2c2.4-2.1,1.3-4.5-0.1-6.1c-0.8-1-2-1.6-3.4-1.7
			C503,259.2,501.5,259.7,500.5,260.6L500.5,260.6z"/>
		<path class="st10" d="M533.7,266.5c-1.2,0-2.3-0.3-3.4-1.2c-2.6-2.1-3.7-4.3-3.3-6.9c0.2-1.6,1-3,2.2-4.1l0,0
			c1.5-1.3,3.5-2,5.5-1.8c1.9,0.1,3.7,1,4.9,2.5c2.7,3.3,2.7,6.7-0.2,9.1C537.7,265.5,535.7,266.5,533.7,266.5z M530.6,255.9
			c-0.8,0.7-1.3,1.7-1.5,2.8c-0.3,1.8,0.6,3.4,2.5,5c2.4,1.9,5.7-0.6,6.3-1.2c2.4-2.1,1.3-4.5-0.1-6.1c-0.8-1-2-1.6-3.4-1.7
			C533.1,254.5,531.6,255,530.6,255.9L530.6,255.9z"/>
		<path class="st10" d="M522.7,303.7c-2.6,0-3.8-1-3.9-1.2c-0.4-0.4-0.4-1-0.1-1.4c0.4-0.4,1-0.4,1.4-0.1c0.1,0.1,2,1.5,6.8-0.2
			c3.5-1.2,7-1.7,9.3-2c1-0.1,2.1-0.3,2.5-0.4c0.5-0.5,1-1.4,1-1.4c0.3-0.5,0.9-0.7,1.4-0.4c0.5,0.3,0.7,0.9,0.4,1.4
			c0,0-0.6,1.1-1.4,1.9c-0.5,0.5-1.5,0.6-3.5,0.9c-2.4,0.3-5.7,0.7-8.9,1.9C525.6,303.5,524,303.7,522.7,303.7z M538.8,298.5
			L538.8,298.5L538.8,298.5z"/>
		<path class="st7" d="M500.5,260.6c-0.8,0.7-1.3,1.7-1.5,2.8c-0.3,1.8,0.6,3.4,2.5,5c2.4,1.9,5.7-0.6,6.3-1.2
			c2.4-2.1,1.3-4.5-0.1-6.1c-0.8-1-2-1.6-3.4-1.7C503,259.2,501.5,259.7,500.5,260.6L500.5,260.6z"/>
		<path class="st7" d="M530.6,255.9c-0.8,0.7-1.3,1.7-1.5,2.8c-0.3,1.8,0.6,3.4,2.5,5c2.4,1.9,5.7-0.6,6.3-1.2
			c2.4-2.1,1.3-4.5-0.1-6.1c-0.8-1-2-1.6-3.4-1.7C533.1,254.5,531.6,255,530.6,255.9L530.6,255.9z"/>
		<path class="st1" d="M525.8,288.9c0,0-6.5,13-15.5,12.2c0,0-5.2,5,4.5,7.9c9.6,2.8,21.8-8.6,24.1-10.4
			C538.7,298.5,528.1,297,525.8,288.9z"/>
		<path class="st1" d="M548.8,348c-24.8,5.1-37.8-7-41.9-11.9c1.8,7.7,6.4,15.3,17,17.8c12.6,2.9,20.9-1.4,25.9-6
			C549.4,347.8,549.1,347.9,548.8,348z"/>
		<path class="st5" d="M549.5,312.4c2.2-2.4,8.1-10.1,6.2-21c3.6-5,1.2-11.9,0.3-14c-1.3-3.1-3.4-5.6-6.1-7.4
			c0.6-2.8,2.4-12.9-2.5-19.9c-2.6-3.8-6.7-6-12.2-6.6c-5.3-0.6-9.5,0.7-12.4,3.8c-3.5,3.7-4.6,9.2-4.8,13.7
			c-2.5-6.1-5.7-10.3-9.8-12.6c-6-3.3-12.1-1.4-14.1-0.8c-4,1.3-10.9,5.1-11.2,16.6c-0.3,8.3,7,13.5,9.9,15.3
			c-3,3.3-4.6,7.8-4.4,13.3c0.4,17.9,12.5,23.3,16,24.5c-0.8,5.4-4,33.2,18.9,38.4c3,0.7,5.7,1,8.2,1c19,0,26.2-16.8,26.3-17
			C558,339.6,563.2,325.3,549.5,312.4z M554.2,278.1c0.8,1.8,3,8.2-0.3,12.3c-3.3,4.1-9.1,5.9-13.4,6.1c-6.8,0.5-11.7-5-12.8-6.3
			c0.1-2.3-0.1-4.6-0.6-6.6c-0.4-1.3-0.9-2.4-1.5-3.4c0.6-2.2,4.3-12.2,16.7-11c2.2,0.2,4.2,0.9,5.9,1.9c0,0,0,0,0.1,0
			C550.9,272.8,552.9,275.1,554.2,278.1z M485,264.4c0.3-10.3,6.3-13.7,9.8-14.8c1.8-0.6,7.3-2.3,12.5,0.6c5,2.8,8.7,8.9,11.1,18.3
			c0.1,0.5,0.6,0.8,1.2,0.7c0.5-0.1,0.9-0.6,0.8-1.1c0-0.1-2-13.1,4-19.4c2.5-2.6,6.1-3.7,10.7-3.2c4.8,0.5,8.5,2.4,10.7,5.7
			c4,5.8,2.9,14.5,2.3,17.7c-1.7-0.8-3.6-1.4-5.7-1.6c-12-1.2-16.8,7.3-18.3,11.1c-3.6-3.9-9.2-5-12.8-5.2c-0.4,0-10.3-0.7-16.9,4.9
			C492.3,276.9,484.8,272.1,485,264.4z M556.1,339c-0.3,0.8-8.7,20.2-32.2,14.8c-23.4-5.3-17.5-35.7-17.3-37
			c0.1-0.5-0.2-1.1-0.8-1.2c-0.6-0.1-14.9-3.6-15.4-22.8c-0.1-5.4,1.4-9.6,4.5-12.6c6-5.7,16.1-5.1,16.2-5.1c4.4,0.3,12,1.9,14,9.1
			c0.8,2.7,0.8,6.1,0,9.3c-1.2,5.3-4.4,7.8-9.4,7.7c-0.6,0-1,0.4-1,1c0,0.6,0.4,1,1,1c5.9,0.2,10-3.1,11.4-9.2
			c0.1-0.4,0.2-0.7,0.2-1.1c2.2,2.2,6.5,5.7,12.3,5.7c0.3,0,0.6,0,1,0c4.1-0.3,9.5-1.8,13.3-5.3c1,11-6.5,18.3-6.6,18.4
			c-0.2,0.2-0.3,0.5-0.3,0.7c0,0.3,0.1,0.5,0.3,0.7C561,325.3,556.3,338.5,556.1,339z"/>
	</g>
</g>
</svg>
