<?xml version="1.0" standalone="no"?>
<!DOCTYPE svg PUBLIC "-//W3C//DTD SVG 20010904//EN"
 "http://www.w3.org/TR/2001/REC-SVG-20010904/DTD/svg10.dtd">
<svg version="1.0" xmlns="http://www.w3.org/2000/svg"
 width="1020.000000pt" height="756.000000pt" viewBox="0 0 1020.000000 756.000000"
 preserveAspectRatio="xMidYMid meet">
<metadata>
Created by potrace 1.16, written by Peter Selinger 2001-2019
</metadata>
<g transform="translate(0.000000,756.000000) scale(0.100000,-0.100000)"
fill="#000000" stroke="none">
<path d="M4800 7479 c-675 -69 -1316 -387 -1716 -852 -266 -309 -427 -656
-480 -1036 -24 -171 -15 -452 21 -621 92 -439 333 -887 694 -1289 42 -47 181
-193 310 -325 371 -382 506 -556 631 -811 76 -158 121 -275 173 -453 l43 -147
37 -3 37 -3 0 -275 0 -274 -32 0 c-67 -1 -144 -53 -167 -113 -32 -84 1 -163
92 -222 13 -8 17 -60 26 -335 17 -500 20 -535 45 -572 12 -18 37 -43 55 -55
l34 -23 503 0 c332 0 512 4 531 11 38 14 73 48 89 86 10 23 18 149 29 455 14
367 18 424 32 433 103 64 132 177 68 261 -34 45 -95 73 -157 74 l-48 0 0 275
0 275 24 0 c13 0 28 6 33 12 6 7 43 121 82 253 81 271 137 396 249 565 128
192 211 288 577 665 307 317 361 378 473 527 280 378 454 768 507 1139 19 136
19 360 -1 500 -137 985 -1053 1764 -2208 1878 -126 13 -461 12 -586 0z m500
-19 c776 -59 1457 -405 1883 -959 358 -464 485 -1050 346 -1595 -82 -322 -258
-665 -496 -971 -100 -128 -154 -187 -438 -480 -138 -143 -280 -291 -314 -329
-249 -277 -410 -544 -486 -806 -20 -69 -52 -176 -71 -237 l-35 -113 -598 0
-599 0 -6 35 c-12 64 -87 288 -138 411 -132 324 -283 532 -686 945 -109 112
-238 247 -286 299 -531 574 -809 1242 -757 1820 54 612 385 1150 941 1529 484
330 1129 497 1740 451z m-240 -5795 l0 -275 -220 0 -220 0 0 275 0 275 220 0
220 0 0 -275z m520 0 l0 -275 -220 0 -220 0 0 275 0 275 220 0 220 0 0 -275z
m198 -319 c51 -27 75 -62 80 -118 3 -44 0 -59 -20 -88 -49 -73 -17 -71 -735
-68 -630 3 -642 3 -669 24 -48 36 -66 67 -66 119 0 54 19 87 72 123 l33 22
639 0 c529 0 644 -2 666 -14z m-38 -371 c1 -180 -22 -735 -32 -772 -11 -45
-47 -86 -91 -102 -46 -18 -969 -15 -1010 3 -47 19 -85 68 -91 119 -6 46 -35
809 -30 817 1 3 284 5 628 5 l626 0 0 -70z"/>
</g>
</svg>
