<?xml version="1.0" standalone="no"?>
<!DOCTYPE svg PUBLIC "-//W3C//DTD SVG 20010904//EN"
 "http://www.w3.org/TR/2001/REC-SVG-20010904/DTD/svg10.dtd">
<svg version="1.0" xmlns="http://www.w3.org/2000/svg"
 width="1020.000000pt" height="756.000000pt" viewBox="0 0 1020.000000 756.000000"
 preserveAspectRatio="xMidYMid meet">
<metadata>
Created by potrace 1.16, written by Peter Selinger 2001-2019
</metadata>
<g transform="translate(0.000000,756.000000) scale(0.100000,-0.100000)"
fill="#000000" stroke="none">
<path d="M8133 7395 c-111 -24 -229 -105 -283 -194 -16 -26 -30 -40 -40 -37
-8 3 -42 15 -75 27 -179 64 -388 15 -526 -122 -56 -56 -139 -199 -139 -239 0
-45 -9 -50 -84 -50 -291 0 -520 -228 -519 -515 0 -44 5 -96 10 -117 l11 -36
-67 -34 c-188 -95 -305 -317 -274 -520 7 -40 14 -82 18 -93 4 -15 -1 -24 -22
-37 -43 -25 -112 -97 -149 -154 -54 -84 -77 -165 -77 -274 0 -118 29 -209 98
-305 26 -37 45 -68 43 -71 -3 -2 -54 -12 -114 -21 -138 -21 -683 -25 -874 -5
-296 30 -600 78 -794 125 -127 31 -137 31 -356 31 -212 0 -231 -2 -323 -27
-164 -44 -332 -133 -451 -238 -48 -42 -156 -163 -172 -192 -8 -13 -37 -2 -174
66 -189 94 -358 154 -545 194 -117 24 -150 27 -330 27 -222 0 -323 -15 -500
-76 -402 -137 -783 -456 -1107 -927 l-71 -104 17 -65 c81 -304 307 -572 568
-672 213 -82 486 -76 733 17 56 21 62 33 64 137 2 86 28 257 57 366 32 120
118 296 184 377 146 179 364 283 654 312 128 13 263 14 270 3 2 -4 -4 -39 -15
-77 -51 -181 -63 -377 -35 -550 37 -227 31 -540 -15 -780 -46 -242 -100 -386
-282 -756 -272 -553 -538 -1172 -683 -1592 l-23 -67 605 0 604 0 0 51 c0 109
46 354 95 509 245 780 963 1411 1850 1629 255 62 453 85 750 85 255 0 380 -12
606 -59 254 -52 448 -119 694 -239 575 -282 1016 -744 1228 -1286 69 -175 137
-473 137 -598 0 -26 3 -57 6 -69 l6 -23 574 0 c316 0 574 2 574 5 0 13 -156
438 -252 685 -241 621 -462 1099 -691 1494 -92 159 -129 244 -160 366 -19 74
-21 106 -17 250 11 481 11 479 -169 998 -86 247 -107 363 -98 547 12 240 91
458 246 679 l38 55 29 -30 c44 -47 145 -116 216 -148 73 -34 138 -52 292 -81
60 -12 126 -28 147 -37 l39 -15 0 -107 c0 -125 15 -180 65 -239 79 -91 202
-142 343 -142 211 1 370 85 438 233 27 58 29 70 29 192 -1 212 32 150 -604
1153 -77 122 -141 227 -141 232 0 5 -11 35 -25 66 -14 31 -25 58 -25 60 0 1
24 9 53 18 125 36 196 139 184 268 -10 108 -84 193 -192 220 l-50 13 -2 68
c-5 249 -282 421 -518 322 l-37 -15 -51 46 c-63 55 -152 99 -231 113 -75 14
-115 13 -193 -4z m239 -36 c72 -24 155 -77 195 -123 l28 -32 53 24 c231 105
506 -82 489 -330 l-4 -68 42 0 c88 0 183 -82 203 -174 26 -125 -63 -257 -187
-273 -38 -5 -39 -4 -82 58 -55 82 -154 178 -229 225 -33 20 -60 43 -60 51 0 8
27 82 60 165 34 83 62 167 63 187 2 32 -1 36 -28 41 -49 9 -133 -7 -191 -36
-75 -38 -161 -128 -220 -228 -43 -75 -52 -85 -77 -86 -41 0 -217 -37 -322 -67
-224 -64 -496 -191 -700 -328 -522 -349 -914 -888 -1136 -1562 l-43 -133 -45
-15 c-69 -23 -85 -20 -123 28 -168 204 -153 486 36 664 33 32 72 65 85 74 l25
16 -17 59 c-23 81 -22 187 3 266 21 70 80 167 126 210 44 40 134 96 165 103
16 4 31 10 34 15 3 5 -2 34 -10 66 -64 246 98 513 355 584 25 7 85 13 135 14
l89 1 8 44 c11 62 61 165 109 222 54 64 146 125 231 150 56 17 87 20 161 17
87 -4 121 -14 233 -64 5 -2 18 11 27 31 23 49 89 118 148 156 108 69 253 88
371 48z m544 -283 c3 -8 -22 -83 -55 -168 -86 -218 -86 -208 -15 -253 85 -54
150 -112 205 -181 52 -65 119 -185 139 -247 7 -21 48 -96 93 -165 44 -70 134
-212 200 -317 433 -686 436 -692 458 -840 36 -241 -85 -409 -333 -461 -176
-38 -362 26 -453 154 -29 42 -30 48 -35 180 l-5 137 -27 13 c-15 7 -67 22
-115 33 -269 61 -302 71 -379 109 -52 27 -109 67 -158 111 l-76 70 -71 -108
c-167 -253 -231 -452 -231 -718 0 -181 15 -264 84 -465 190 -552 192 -561 183
-900 -4 -174 -3 -277 5 -325 20 -126 68 -248 162 -413 248 -435 448 -866 684
-1469 46 -119 84 -220 84 -225 0 -4 -222 -8 -494 -8 l-494 0 -41 122 c-199
582 -653 1080 -1261 1382 -374 186 -750 284 -1160 305 l-125 6 -3 357 -2 358
74 35 c226 107 387 296 463 542 l27 88 6 435 c7 495 -2 437 113 730 198 506
496 924 882 1236 180 146 481 315 710 400 120 44 330 98 440 113 44 6 81 15
83 19 1 5 19 36 40 71 78 132 195 239 285 259 64 15 107 14 113 -2z m-4811
-2350 c50 -7 138 -24 197 -37 l106 -24 5 -420 c4 -384 6 -426 24 -490 65 -224
176 -382 356 -504 41 -28 136 -75 220 -109 l27 -12 0 -375 0 -375 -22 -5
c-477 -104 -875 -288 -1217 -563 -357 -286 -625 -658 -766 -1063 l-43 -124
-516 -3 c-286 -1 -516 2 -516 6 0 14 139 347 234 561 94 211 261 561 337 705
106 201 190 450 229 674 46 262 47 509 3 814 -14 105 -15 136 -5 230 52 463
274 824 618 1000 126 65 229 95 414 122 58 8 231 4 315 -8z m460 -90 c594
-105 1289 -112 1598 -16 l57 18 0 -392 c0 -450 -5 -490 -85 -651 -110 -224
-312 -382 -565 -446 -87 -22 -406 -19 -495 5 -234 61 -439 226 -545 437 -82
163 -83 171 -88 642 l-3 417 23 0 c13 0 59 -6 103 -14z m-2435 -87 c195 -23
415 -92 635 -198 77 -38 148 -75 158 -83 17 -13 16 -19 -31 -108 -27 -52 -56
-114 -65 -136 l-16 -42 -183 -5 c-116 -3 -211 -11 -258 -22 -485 -108 -725
-439 -768 -1059 l-7 -98 -64 -23 c-130 -47 -239 -66 -375 -66 -118 0 -211 17
-318 59 -217 84 -411 289 -508 538 -63 160 -63 150 13 262 275 405 632 724
977 870 266 114 507 147 810 111z m3530 -1759 c0 -273 -3 -350 -12 -350 -87
-1 -384 -24 -460 -35 -54 -8 -105 -15 -113 -15 -13 0 -15 47 -15 371 0 330 2
370 15 365 77 -29 381 -31 495 -2 100 25 90 63 90 -334z m-2696 -2297 c-13
-60 -28 -159 -35 -220 l-12 -113 -568 0 -569 0 25 68 c14 37 51 136 83 219
l57 153 521 0 520 0 -22 -107z m6311 98 c3 -6 37 -97 75 -203 37 -106 72 -201
75 -211 7 -16 -23 -17 -539 -17 l-546 0 0 43 c0 54 -25 228 -45 312 -8 37 -15
70 -15 76 0 12 987 12 995 0z"/>
</g>
</svg>
