<?xml version="1.0" standalone="no"?>
<!DOCTYPE svg PUBLIC "-//W3C//DTD SVG 20010904//EN"
 "http://www.w3.org/TR/2001/REC-SVG-20010904/DTD/svg10.dtd">
<svg version="1.0" xmlns="http://www.w3.org/2000/svg"
 width="1020.000000pt" height="756.000000pt" viewBox="0 0 1020.000000 756.000000"
 preserveAspectRatio="xMidYMid meet">
<metadata>
Created by potrace 1.16, written by Peter Selinger 2001-2019
</metadata>
<g transform="translate(0.000000,756.000000) scale(0.100000,-0.100000)"
fill="#000000" stroke="none">
<path d="M7952 6344 c-74 -20 -107 -38 -167 -97 l-53 -52 -43 38 c-57 50 -150
94 -231 108 -220 37 -445 -109 -503 -325 -22 -79 -17 -207 10 -276 50 -125
161 -233 281 -270 80 -24 199 -27 270 -5 27 8 52 15 55 15 3 0 9 -26 13 -57
24 -207 234 -342 431 -275 l59 20 56 -50 c83 -77 145 -101 258 -102 l93 -1 10
-37 c5 -20 24 -56 42 -79 81 -106 234 -118 332 -28 57 52 79 109 73 189 -6 79
-43 134 -115 170 -50 24 -52 27 -45 55 4 17 7 73 7 125 0 82 -4 103 -27 152
-58 123 -186 217 -310 226 -55 4 -59 6 -53 26 39 122 43 178 21 261 -35 134
-136 234 -271 270 -72 18 -123 18 -193 -1z m243 -44 c75 -36 157 -123 184
-195 30 -81 27 -197 -9 -270 -13 -27 -24 -54 -24 -59 -1 -4 31 -9 71 -11 222
-6 394 -231 339 -444 -21 -83 -21 -88 12 -94 67 -15 121 -71 143 -150 22 -80
-42 -195 -126 -227 -71 -27 -170 -4 -222 52 -25 27 -53 88 -53 117 0 28 -9 31
-64 20 -61 -11 -171 10 -230 45 -23 14 -62 46 -86 72 l-43 47 -61 -22 c-127
-44 -237 -21 -327 68 -64 65 -89 124 -89 213 0 67 -1 67 -80 36 -79 -31 -203
-31 -286 0 -256 97 -359 412 -205 635 152 222 450 249 652 61 l45 -43 37 44
c84 100 168 137 292 132 58 -3 94 -10 130 -27z"/>
<path d="M510 4831 c-107 -33 -200 -145 -200 -243 l0 -37 103 -3 102 -3 3
-1272 2 -1273 -68 0 -68 0 -32 45 c-34 49 -105 99 -162 115 -53 15 -97 12
-104 -6 -3 -9 -6 -159 -6 -334 0 -264 2 -320 14 -330 12 -9 29 -8 78 4 77 20
132 56 178 119 l35 47 151 0 152 0 7 -55 c17 -136 133 -290 268 -354 289 -137
631 35 689 347 11 61 12 62 45 62 30 0 33 -3 33 -28 0 -89 63 -213 149 -296
276 -263 739 -114 811 262 l13 62 78 0 79 0 0 -29 c0 -46 35 -146 70 -201 44
-69 133 -148 205 -181 286 -134 625 39 686 349 12 62 12 63 43 60 29 -3 31 -6
38 -58 19 -135 128 -280 262 -345 287 -141 621 20 692 334 l16 71 154 0 c85 0
154 -4 154 -9 0 -4 19 -29 41 -55 59 -67 126 -98 220 -104 68 -4 84 -1 135 22
63 29 117 74 140 118 14 28 16 28 115 28 l100 0 15 -37 c80 -189 273 -348 495
-404 86 -22 258 -17 356 10 90 25 203 85 277 147 62 51 140 153 174 226 l27
58 51 0 50 0 12 -62 c31 -169 155 -312 316 -368 282 -97 584 78 638 369 11 60
12 61 45 61 30 0 33 -3 33 -29 0 -45 36 -151 69 -203 102 -160 306 -252 490
-219 157 28 291 127 357 264 19 39 36 87 40 107 13 87 5 80 99 80 l85 0 0
-160 c0 -120 3 -162 13 -164 6 -3 131 -7 276 -10 l264 -6 -7 31 c-3 17 -71
239 -151 493 -80 254 -145 469 -145 477 0 8 45 88 100 179 55 91 100 170 100
177 0 6 -96 168 -212 358 l-213 346 -267 -1 c-221 0 -268 2 -268 13 0 8 50
205 110 438 l110 424 -2 220 -3 220 -457 3 -458 2 0 -226 0 -227 85 -327 c46
-180 96 -370 110 -421 14 -52 25 -100 25 -106 0 -10 -51 -13 -220 -13 l-220 0
0 190 0 190 40 0 c55 0 48 10 -74 105 -89 71 -100 77 -119 65 -43 -27 -197
-152 -197 -160 0 -5 17 -10 38 -12 l37 -3 0 -185 0 -185 -222 -3 -223 -2 0
580 0 580 105 0 105 0 0 43 c0 88 -71 186 -164 228 -39 18 -83 19 -791 19
-733 0 -751 -1 -795 -21 -88 -39 -155 -131 -162 -219 l-3 -45 108 -3 107 -3
-1 -1192 c0 -1100 -2 -1198 -18 -1272 l-17 -80 -71 -3 -71 -3 -36 50 c-62 87
-143 126 -261 126 -116 0 -168 -30 -267 -153 -15 -19 -28 -22 -83 -22 l-65 0
0 1280 0 1280 111 0 111 0 -7 43 c-10 64 -52 143 -97 181 -83 71 112 66 -2372
65 -1233 0 -2252 -4 -2266 -8z m4552 -33 c81 -38 138 -110 153 -191 l7 -37
-2441 0 -2441 0 0 24 c0 93 95 194 201 215 24 5 1043 8 2264 7 2091 -1 2222
-2 2257 -18z m2354 -3 c86 -25 157 -104 178 -197 l6 -28 -936 0 -936 0 7 33
c21 94 99 175 190 198 17 4 348 7 736 8 595 1 713 -1 755 -14z m1824 -325 l0
-210 -430 0 -430 0 0 210 0 210 430 0 430 0 0 -210z m-4240 -1205 l0 -1275
-114 0 -115 0 -58 51 c-136 119 -312 160 -475 109 -69 -21 -167 -80 -207 -124
-24 -26 -26 -26 -169 -26 l-145 0 -49 46 c-26 25 -82 61 -124 81 -67 32 -87
37 -174 41 -81 4 -110 1 -168 -17 -71 -21 -168 -79 -211 -125 l-24 -26 -190 0
-190 0 -47 44 c-159 149 -414 169 -596 47 -33 -22 -70 -51 -83 -65 -24 -26
-26 -26 -173 -26 -124 0 -150 3 -155 15 -9 24 -122 101 -183 125 -68 28 -202
37 -282 21 -76 -16 -161 -60 -225 -116 l-51 -45 -126 0 -126 0 0 1270 0 1270
2230 0 2230 0 0 -1275z m2382 688 l3 -588 1088 -3 1087 -2 0 -685 0 -685 -136
0 -137 0 -46 43 c-192 180 -477 182 -674 6 l-55 -49 -131 0 -131 0 -55 50
c-192 173 -468 173 -660 0 l-55 -50 -80 0 -79 0 -6 38 c-33 197 -155 384 -319
491 -212 138 -503 152 -728 34 -127 -67 -212 -152 -315 -319 -9 -15 -12 240
-12 1144 l-1 1162 720 0 720 0 2 -587z m1848 267 c0 -14 -210 -822 -216 -832
-6 -9 -414 -11 -414 -2 0 6 -173 676 -200 777 l-19 67 425 0 c288 0 424 -3
424 -10z m-1147 -380 c31 -25 57 -48 57 -53 0 -4 -67 -7 -150 -6 -82 0 -150 4
-150 7 1 4 35 33 77 64 64 49 78 56 92 45 10 -6 43 -32 74 -57z m17 -270 l0
-191 -107 3 -108 3 -3 175 c-1 96 0 180 2 187 4 9 34 13 111 13 l105 0 0 -190z
m1648 -505 c77 -126 161 -264 186 -305 25 -41 46 -78 46 -83 0 -9 -314 -528
-367 -607 l-23 -35 0 640 c0 360 4 635 9 630 4 -6 71 -113 149 -240z m-3010
-470 c46 -9 116 -34 172 -62 177 -86 316 -258 367 -453 25 -98 22 -247 -6
-340 -91 -300 -330 -492 -631 -507 -137 -7 -226 12 -350 73 -242 120 -391 374
-377 644 21 423 410 727 825 645z m3192 -765 c79 -250 145 -461 148 -467 3
-10 -49 -13 -242 -13 l-246 0 0 314 0 314 96 157 c53 86 98 155 99 153 2 -2
67 -208 145 -458z m-8685 310 c33 -5 92 -25 131 -44 341 -169 341 -652 0 -819
-276 -135 -601 34 -656 341 -38 209 98 434 302 501 96 31 138 35 223 21z
m1056 -4 c89 -19 161 -57 227 -119 95 -91 142 -200 142 -333 0 -251 -207 -454
-461 -454 -128 0 -240 50 -332 149 -249 269 -107 686 258 761 60 12 93 11 166
-4z m1130 0 c89 -19 161 -57 227 -119 95 -91 142 -200 142 -333 0 -166 -96
-325 -240 -399 -256 -131 -554 -16 -652 253 -28 75 -30 215 -5 289 43 124 152
241 267 284 106 40 163 45 261 25z m1042 -1 c169 -36 309 -167 351 -330 50
-191 -24 -386 -186 -495 -206 -137 -475 -92 -625 105 -53 70 -83 151 -90 241
-14 183 91 363 260 443 103 49 182 59 290 36z m3591 -39 c275 -133 346 -496
139 -717 -187 -200 -490 -199 -676 0 -220 235 -123 624 183 737 112 41 243 33
354 -20z m-7841 19 c52 -24 106 -81 133 -139 20 -43 24 -66 23 -146 0 -52 -6
-109 -12 -127 -35 -93 -126 -171 -213 -181 l-44 -5 0 313 0 313 39 -6 c21 -2
54 -12 74 -22z m5217 -289 l0 -314 -41 9 c-62 14 -111 43 -153 89 -59 66 -70
100 -70 220 -1 95 2 110 26 156 43 82 141 153 211 154 l27 0 0 -314z m138 283
c113 -56 157 -133 157 -279 0 -78 -5 -104 -23 -145 -40 -87 -109 -143 -201
-164 l-41 -9 0 314 0 314 23 0 c13 0 51 -14 85 -31z m3461 12 c326 -101 428
-515 187 -757 -147 -146 -379 -176 -558 -71 -61 35 -154 137 -183 198 -114
248 11 539 270 628 79 27 201 28 284 2z m-8269 -156 c0 -2 -9 -19 -20 -37 -28
-45 -60 -152 -60 -199 l0 -39 -149 0 -149 0 9 38 c5 20 9 66 9 102 0 36 -4 82
-9 103 l-9 37 189 0 c104 0 189 -2 189 -5z m1038 -2 c-59 -117 -71 -150 -76
-209 l-5 -64 -33 0 c-32 0 -34 2 -34 33 0 46 -25 133 -55 190 -14 27 -25 51
-25 53 0 2 52 4 116 4 64 0 114 -3 112 -7z m1096 -66 c-24 -50 -36 -94 -41
-140 l-6 -67 -77 0 -76 0 -12 72 c-6 43 -24 99 -45 140 l-33 68 162 0 163 0
-35 -73z m1046 16 c-28 -57 -44 -110 -55 -185 -5 -33 -9 -38 -33 -38 -26 0
-28 3 -39 71 -6 42 -25 100 -45 140 l-34 69 118 0 118 0 -30 -57z m1205 -83
l0 -140 -141 0 -141 0 -12 73 c-7 44 -26 101 -45 140 l-34 67 186 0 187 0 0
-140z m729 58 c4 -46 13 -109 20 -140 l13 -58 -81 0 -81 0 0 140 0 140 61 0
61 0 7 -82z m1576 77 c0 -3 -11 -27 -24 -53 -30 -60 -56 -146 -56 -189 0 -32
-1 -33 -45 -33 -25 0 -45 3 -45 8 1 4 7 34 15 67 8 33 15 90 15 126 0 36 3 69
7 72 8 8 133 9 133 2z m1038 -2 c-57 -113 -69 -147 -75 -206 l-6 -67 -33 0
c-32 0 -34 2 -34 33 0 46 -23 124 -53 184 -15 29 -27 55 -27 58 0 3 52 5 116
5 64 0 114 -3 112 -7z m1062 -133 l0 -140 -84 0 -84 0 -7 52 c-9 61 -38 149
-59 180 -32 45 -24 48 109 48 l125 0 0 -140z"/>
<path d="M900 3850 l0 -460 485 0 485 0 -2 458 -3 457 -482 3 -483 2 0 -460z
m940 -5 l0 -435 -457 2 -458 3 -3 433 -2 432 460 0 460 0 0 -435z"/>
<path d="M2290 3850 l0 -460 485 0 485 0 0 460 0 460 -485 0 -485 0 0 -460z
m940 -5 l0 -435 -457 2 -458 3 -3 433 -2 432 460 0 460 0 0 -435z"/>
<path d="M3680 3850 l0 -460 485 0 485 0 -2 458 -3 457 -482 3 -483 2 0 -460z
m940 -5 l0 -435 -457 2 -458 3 -3 433 -2 432 460 0 460 0 0 -435z"/>
<path d="M770 2895 l0 -145 2005 0 2005 0 0 145 0 145 -2005 0 -2005 0 0 -145z
m3980 5 l0 -120 -1977 2 -1978 3 -3 104 c-1 58 0 111 2 118 4 11 356 13 1981
13 l1975 0 0 -120z"/>
<path d="M6180 3840 l0 -460 483 2 482 3 3 458 2 457 -485 0 -485 0 0 -460z
m940 5 l0 -435 -455 0 -455 0 0 435 0 435 455 0 455 0 0 -435z"/>
<path d="M6494 2151 c-54 -24 -109 -83 -130 -137 -26 -68 -16 -169 22 -230 36
-59 114 -109 184 -119 102 -14 213 45 263 139 30 58 30 174 0 232 -26 49 -80
98 -130 119 -50 21 -158 19 -209 -4z m201 -25 c90 -42 135 -112 135 -208 -1
-173 -178 -280 -331 -200 -140 72 -169 250 -58 360 71 72 166 90 254 48z"/>
<path d="M1092 1843 c-83 -40 -118 -159 -73 -240 112 -199 414 -36 309 167
-41 81 -152 115 -236 73z m145 -23 c61 -27 85 -70 80 -142 -2 -44 -9 -64 -28
-84 -62 -67 -154 -72 -214 -14 -64 62 -67 141 -9 209 42 50 105 62 171 31z"/>
<path d="M2135 1844 c-68 -35 -95 -79 -95 -155 0 -152 166 -231 286 -137 33
26 63 92 64 137 0 55 -36 118 -84 146 -50 29 -125 33 -171 9z m145 -27 c103
-54 107 -195 8 -258 -43 -26 -122 -22 -166 9 -39 28 -67 98 -58 147 13 66 80
121 152 124 11 1 40 -9 64 -22z"/>
<path d="M3307 1859 c-117 -20 -175 -157 -112 -265 43 -73 133 -102 212 -69
50 21 72 42 94 90 60 131 -49 269 -194 244z m99 -38 c107 -48 113 -198 12
-262 -43 -26 -122 -22 -166 9 -39 28 -67 98 -58 147 13 66 80 121 151 124 11
0 38 -8 61 -18z"/>
<path d="M4294 1841 c-123 -75 -118 -249 8 -310 54 -26 100 -26 154 -2 72 33
112 112 99 193 -8 44 -52 101 -96 124 -40 20 -127 18 -165 -5z m165 -29 c69
-51 90 -135 51 -200 -69 -113 -243 -87 -275 41 -16 64 25 144 90 173 38 18
100 11 134 -14z"/>
<path d="M7776 1836 c-97 -59 -115 -187 -38 -270 110 -117 302 -38 302 124 0
131 -151 215 -264 146z m151 -15 c99 -45 117 -164 38 -241 -34 -33 -41 -35
-100 -35 -59 0 -66 2 -100 35 -58 56 -65 127 -20 197 18 26 87 63 120 63 11 0
39 -9 62 -19z"/>
<path d="M8825 1844 c-70 -36 -95 -79 -95 -161 0 -73 30 -121 93 -152 56 -27
102 -27 157 2 105 52 129 177 53 268 -48 57 -144 77 -208 43z m155 -33 c66
-47 87 -123 52 -191 -53 -107 -207 -107 -263 0 -70 131 91 277 211 191z"/>
</g>
</svg>
