<?xml version="1.0" standalone="no"?>
<!DOCTYPE svg PUBLIC "-//W3C//DTD SVG 20010904//EN"
 "http://www.w3.org/TR/2001/REC-SVG-20010904/DTD/svg10.dtd">
<svg version="1.0" xmlns="http://www.w3.org/2000/svg"
 width="1020.000000pt" height="756.000000pt" viewBox="0 0 1020.000000 756.000000"
 preserveAspectRatio="xMidYMid meet">
<metadata>
Created by potrace 1.16, written by Peter Selinger 2001-2019
</metadata>
<g transform="translate(0.000000,756.000000) scale(0.100000,-0.100000)"
fill="#000000" stroke="none">
<path d="M2786 6659 c-150 -16 -292 -51 -544 -135 -333 -110 -462 -177 -679
-349 -117 -93 -328 -299 -425 -415 -365 -435 -588 -1010 -675 -1738 -13 -113
-17 -228 -18 -497 0 -327 2 -358 23 -464 72 -357 236 -657 493 -906 205 -198
415 -326 806 -494 558 -238 1075 -360 2353 -555 1231 -188 1462 -211 2125
-210 927 2 1551 59 2056 188 392 99 685 246 892 445 136 131 250 300 363 536
144 304 198 563 198 960 1 211 -2 252 -21 337 -75 333 -246 665 -487 945 -255
296 -598 543 -1106 798 -102 51 -257 125 -345 165 -88 39 -165 77 -171 83 -6
7 -16 32 -23 57 -53 190 -286 340 -611 394 -191 32 -328 29 -503 -13 l-77 -18
-47 66 c-26 36 -85 104 -132 151 -312 310 -726 398 -1111 236 -101 -43 -225
-125 -318 -211 -75 -69 -207 -236 -242 -305 -11 -22 -24 -40 -28 -40 -11 0
-127 93 -186 149 -26 25 -128 134 -226 241 -208 230 -285 302 -399 377 -276
182 -595 258 -935 222z m384 -34 c257 -41 504 -160 690 -332 40 -37 146 -149
236 -248 89 -99 188 -205 221 -236 57 -55 162 -142 189 -157 12 -7 9 -20 -16
-76 -17 -37 -40 -93 -52 -124 -11 -31 -23 -60 -27 -64 -9 -10 -145 66 -253
142 -89 62 -292 256 -503 481 -363 386 -902 459 -1315 179 -151 -103 -300
-279 -385 -455 -90 -186 -120 -329 -112 -535 6 -151 21 -219 73 -329 198 -420
822 -719 1559 -747 193 -7 303 8 477 66 344 115 751 380 1128 736 123 116 245
213 455 361 403 284 741 443 1059 498 113 19 221 19 353 -1 279 -41 482 -142
582 -288 31 -46 58 -112 49 -121 -3 -4 -41 5 -85 18 -122 39 -216 51 -378 51
-289 -1 -531 -66 -870 -234 -414 -205 -791 -487 -1262 -944 -200 -193 -256
-235 -417 -311 -182 -87 -387 -146 -651 -187 -117 -18 -183 -22 -405 -22 -300
-1 -388 10 -671 83 -339 86 -640 218 -889 389 -129 88 -319 281 -383 388 -107
181 -153 382 -144 628 7 172 27 279 86 456 101 301 254 512 481 662 336 222
811 332 1180 273z m-1113 -198 c-142 -92 -184 -123 -254 -190 -218 -210 -369
-559 -405 -940 -19 -204 9 -406 82 -580 184 -442 818 -828 1587 -966 407 -73
899 -38 1300 94 268 88 390 165 629 395 295 285 544 496 782 661 l95 66 326
-82 c179 -45 389 -101 466 -123 922 -269 1640 -648 2100 -1107 319 -318 521
-677 612 -1090 l18 -80 8 185 c9 223 -6 535 -34 699 -166 975 -916 1595 -2364
1951 -111 28 -211 50 -221 51 -41 1 27 19 138 35 140 21 352 14 478 -15 252
-57 970 -412 1310 -647 361 -250 653 -572 821 -907 165 -328 223 -601 199
-943 -30 -439 -119 -716 -352 -1095 -86 -141 -253 -311 -395 -404 -345 -224
-836 -359 -1540 -424 -385 -36 -626 -45 -1183 -46 -735 0 -884 15 -2195 216
-842 129 -1221 203 -1619 314 -548 154 -1053 379 -1321 590 -282 223 -495 532
-590 860 -57 195 -68 295 -68 610 -1 574 85 1053 269 1513 133 332 308 602
554 856 252 260 469 422 699 522 79 35 99 41 68 21z m1078 -126 c101 -27 261
-105 345 -168 l65 -48 3 -531 2 -531 -57 -7 c-243 -29 -636 -254 -945 -543
-43 -40 -83 -73 -91 -73 -19 0 -172 95 -242 151 -74 58 -170 158 -214 222
-240 352 -158 889 189 1251 147 153 311 247 510 291 97 22 331 14 435 -14z
m2526 -36 c191 -33 374 -126 523 -266 69 -65 190 -212 185 -225 -2 -5 -41 -21
-87 -36 -45 -15 -103 -38 -130 -52 l-47 -24 -35 45 c-43 56 -150 147 -223 191
-97 59 -189 85 -310 90 -131 5 -207 -8 -305 -54 -195 -90 -347 -252 -458 -490
-25 -53 -43 -98 -41 -100 2 -2 161 -14 353 -25 192 -11 357 -24 366 -27 13 -5
-24 -39 -155 -141 l-172 -134 -229 13 c-184 10 -230 10 -236 0 -13 -21 -21
-231 -11 -320 l9 -85 -36 -33 c-37 -33 -205 -142 -221 -142 -4 0 -14 33 -20
74 -89 548 67 1093 409 1437 251 252 558 359 871 304z m-1787 -520 c168 -168
282 -258 425 -336 53 -29 98 -54 100 -55 2 -2 -6 -41 -17 -87 -22 -86 -52
-292 -52 -354 0 -29 -3 -34 -17 -29 -27 11 -497 103 -620 123 l-113 17 0 516
1 515 71 -80 c40 -44 140 -148 222 -230z m1748 210 c147 -31 257 -94 380 -218
43 -43 78 -82 78 -85 0 -4 -35 -25 -77 -46 -43 -21 -136 -72 -207 -114 l-129
-76 -136 12 c-271 24 -671 93 -671 116 0 20 68 113 132 182 181 193 409 276
630 229z m-689 -465 c120 -29 368 -66 532 -81 77 -6 144 -15 148 -19 5 -4 -15
-22 -43 -40 l-52 -33 -371 23 c-205 12 -374 24 -376 26 -5 5 61 144 70 144 4
0 46 -9 92 -20z m1958 -170 c591 -138 1056 -311 1429 -533 512 -305 829 -697
974 -1204 56 -193 77 -358 82 -648 l5 -250 -35 100 c-219 643 -703 1143 -1496
1544 -495 251 -954 412 -1682 592 -141 35 -254 67 -252 71 8 13 217 134 323
188 165 82 412 178 463 180 10 0 95 -18 189 -40z m-1947 -320 c82 -6 151 -12
154 -14 4 -5 -244 -229 -259 -235 -6 -2 -47 7 -91 20 l-80 22 4 102 c3 56 8
106 11 112 5 7 27 10 60 7 28 -2 119 -9 201 -14z m-1223 -25 c158 -27 587
-113 599 -120 4 -2 10 -57 13 -122 3 -65 13 -162 22 -216 20 -117 35 -99 -150
-191 -155 -77 -231 -107 -362 -144 -93 -26 -109 -27 -318 -27 -254 0 -372 15
-613 76 -146 37 -412 132 -412 148 0 13 141 144 240 223 252 200 530 346 740
387 69 14 82 13 241 -14z"/>
<path d="M7166 3730 c-234 -42 -423 -184 -527 -395 -59 -122 -74 -188 -74
-345 0 -154 14 -218 73 -344 104 -223 296 -384 526 -441 90 -22 248 -22 341
-1 141 33 280 120 379 236 56 65 129 209 153 300 24 91 23 291 -1 385 -75 287
-296 515 -571 589 -73 20 -232 28 -299 16z m337 -57 c125 -44 189 -85 297
-193 153 -152 218 -299 227 -515 5 -102 2 -134 -16 -205 -37 -149 -90 -243
-194 -348 -74 -76 -164 -131 -272 -168 -103 -35 -269 -40 -383 -10 -144 37
-282 126 -395 256 -62 71 -140 231 -163 335 -73 334 79 666 371 811 119 59
192 75 330 70 91 -3 125 -9 198 -33z"/>
<path d="M7225 3488 c-149 -17 -311 -130 -381 -263 -56 -107 -69 -159 -69
-280 1 -94 5 -122 29 -190 72 -208 231 -349 441 -392 250 -50 507 97 597 342
26 73 36 243 19 327 -19 90 -82 207 -149 279 -128 137 -299 200 -487 177z
m177 -29 c196 -41 353 -190 424 -399 28 -82 26 -244 -5 -330 -128 -367 -575
-467 -851 -191 -111 112 -170 251 -170 404 0 334 289 582 602 516z"/>
</g>
</svg>
