<?xml version="1.0" encoding="utf-8"?>
<!-- Generator: Adobe Illustrator 19.0.0, SVG Export Plug-In . SVG Version: 6.00 Build 0)  -->
<svg version="1.1" id="圖層_1" xmlns="http://www.w3.org/2000/svg" xmlns:xlink="http://www.w3.org/1999/xlink" x="0px" y="0px"
	 viewBox="0 0 203.9 169.7" style="enable-background:new 0 0 203.9 169.7;" xml:space="preserve">
<style type="text/css">
	.st0{fill:#5D6D91;}
	.st1{fill:#B6B6BE;}
	.st2{fill:#E7251F;}
	.st3{opacity:0.3;fill:#152040;}
	.st4{fill:#FFFFFF;}
	.st5{fill:#8D8CA5;}
	.st6{fill:#E5E5E4;}
	.st7{fill:#738FAE;}
	.st8{fill:#E0D1BF;}
	.st9{fill:url(#XMLID_41_);}
	.st10{fill:url(#XMLID_42_);}
	.st11{fill:#5B6F93;}
	.st12{fill:#99B4C3;}
	.st13{fill:#B8CACB;}
	.st14{fill:#434E82;}
	.st15{fill:url(#XMLID_43_);}
	.st16{fill:url(#XMLID_44_);}
	.st17{fill:#D3684F;}
	.st18{fill:url(#XMLID_45_);}
	.st19{fill:#EEDFA3;stroke:#D9B47C;stroke-width:0.454;stroke-miterlimit:10;}
	.st20{fill:#231815;}
	.st21{fill:#3E210E;}
	.st22{fill:#C28B2F;stroke:#A87127;stroke-width:0.2586;stroke-miterlimit:10;}
	.st23{fill:#E3A290;}
	.st24{fill:#AD5E22;}
	.st25{fill:none;stroke:#AD5E22;stroke-width:0.3;stroke-linecap:round;stroke-miterlimit:10;}
	.st26{fill:#7A7B8D;}
	.st27{fill:#F7DFD2;}
	.st28{fill:#B0B7BB;}
	.st29{fill:#FFFCF3;}
	.st30{fill:#ED7055;}
	.st31{fill:#E3E2E2;}
	.st32{opacity:0.38;fill:url(#XMLID_46_);}
	.st33{fill:url(#XMLID_47_);}
	.st34{fill:url(#XMLID_48_);}
	.st35{fill:url(#XMLID_49_);}
	.st36{fill:url(#XMLID_50_);}
	.st37{opacity:0.39;fill:url(#XMLID_51_);}
	.st38{fill:url(#XMLID_52_);}
	.st39{fill:url(#XMLID_53_);}
	.st40{opacity:0.77;fill:url(#XMLID_54_);}
</style>
<path id="XMLID_281_" class="st0" d="M75.6,81.5c-2.1-4.3-9.6-19.6-15.2-18.2c-3.9,1-9,8.1-10.3,11.6c-1.6,4.4-1.5,9.3-1.2,13.9
	c4.4,1,10,2.6,13.9,4.5C64.1,87.5,70.9,84.1,75.6,81.5z"/>
<polygon id="XMLID_280_" class="st1" points="136.8,110.6 133.3,128.7 123.6,131.2 141,135.4 155.7,111.3 "/>
<path id="XMLID_279_" class="st2" d="M145.4,126.7c-3.6-1.1-7.4-1.9-11.1-2.9l-0.9,4.9l-9.8,2.4l17.5,4.2l5.1-8.4
	C145.9,126.9,145.7,126.8,145.4,126.7z"/>
<path id="XMLID_278_" class="st3" d="M136.8,110.6l-0.8,4.2c1.5,0.8,3,1.8,4.3,3c3,2.8,3.4,7.6,1.4,11.1c-1.2,2-2.4,3.9-3.8,5.8
	l3,0.7l14.7-24.1L136.8,110.6z"/>
<path id="XMLID_277_" class="st4" d="M94.9,95c-0.1-0.4-0.6-0.8-1.1-0.6c-1.6,0.6-2.3,2.3-3.3,3.5c-1.1,1.4-2.5,2.5-4.2,3.1
	c-2.8,0.9-7,0-8.7-2.5c-1.5-2.2-1.1-5.3-0.5-7.7c0.4-1.5,0.9-3,1.5-4.5c0.5-1.4,0.8-2.8,1.2-4.1c0.2-0.7-0.6-1-1.1-0.6
	c-3,2.4-4.7,5.5-5.5,9.3c-0.8,3.5-0.6,7.5,1.7,10.4c2.7,3.3,7.7,4.3,11.8,3.3c2.2-0.5,4.1-1.9,5.5-3.6C93.6,99.4,95.5,97,94.9,95z"
	/>
<path id="XMLID_276_" class="st5" d="M136.5,77.7c-3.6-0.8-7.2-1.7-10.4-3.3c-3.7-1.8-6.5-4.7-10.2-6.8c-5.5-3-9.1-2.5-15.2-0.7
	c-7.4,2.2-24.3,8.9-18.6,19.6c5.9,11,20.7,16.8,31.9,20.5c13.7,4.6,25.8,8.5,40,7.5c0,0-0.1,0.1,0,0.1c0-2.9,3.4-32.8,2.9-32.9
	c-6.1-1.6-12.6-2.4-18.8-3.6C137.4,77.9,136.9,77.8,136.5,77.7z"/>
<polygon id="XMLID_275_" class="st6" points="184.1,62.9 172.2,81.6 163.9,81.8 153.9,114.5 176.7,108.1 188.5,79.2 203.9,81.6 "/>
<path id="XMLID_274_" class="st2" d="M184.8,80.4c0.7,0.8,1.5,1.7,2.2,2.5l1.5-3.7l15.4,2.3l-19.8-18.6l-6.1,9.6
	C180.3,75.1,182.6,77.7,184.8,80.4z"/>
<path id="XMLID_273_" class="st3" d="M189.1,67.6c-1.1,3.2-2.5,6.4-3.9,9.5c-1.2,2.9-2.7,5.7-4.4,8.3c-2.8,4.2-5.9,8.5-9.6,12
	c-2.6,2.5-5.5,4.6-8.4,6.7c-1,0.7-2,1.4-3.2,1.9c-1.2,0.6-2.5,1.1-3.7,1.7l-2.1,6.8l22.8-6.4l11.9-28.9l15.4,2.3L189.1,67.6z"/>
<path id="XMLID_272_" class="st7" d="M164.8,81.6c-0.9,0-8.6-0.6-8.7-0.3c-0.9,5-1.1,7.5-2.7,13.1c-0.4,1.5-7.8,20.2-7.6,20.3
	c1.4,0.7,4.1,0.4,5.7,0.4c1.5,0,3.3-0.3,4.7-0.8c3.1-1.1,4.8-3.8,6-6.7c2.2-5.7,3.2-12.4,3.2-18.5C165.5,86.3,165.2,83.9,164.8,81.6
	z"/>
<path id="XMLID_271_" class="st3" d="M145.1,106c-3.6-0.2-7.1-0.8-10.6-1.5c-5-0.9-9.8-2.5-14.6-4.4c-6.1-2.3-12-5.2-17.9-8.1
	c-7.2-3.6-14.2-7.9-20.4-13.3c-1.1,2.3-1.2,4.9,0.3,7.7c5.9,11,20.7,16.8,31.9,20.5c11.1,3.7,21.1,7,32,7.6c0,0,0,0,0,0
	c1.4,0.7,4.1,0.4,5.7,0.4c1.5,0,3.3-0.3,4.7-0.8c3.1-1.1,4.8-3.8,6-6.7c0.3-0.7,0.5-1.4,0.8-2.1C157.2,106.6,151.1,106.6,145.1,106z
	"/>
<path id="XMLID_270_" class="st0" d="M154.3,64c-6.1-5.4-16-5.4-23.3-7.9c-3.4,5.5-4.1,14.5-6,20.5c4,1,36.3,7.4,36.3,7.4
	C163.4,78.2,158.8,68,154.3,64z"/>
<path id="XMLID_269_" class="st4" d="M140.8,72.1c-2.9-2.9-6.6-5.1-10.6-6c-4.2-1-8.4-0.8-12.6,0.1c-0.5,0.1-0.3,0.8,0.1,0.9
	c7.7,0.9,15.9,2.9,21.2,9.1c4.5,5.3,6.3,12.6,5.8,19.5c-0.4,6.3-3.2,12.5-8.2,16.5c-2.6,2.1-5.8,3.2-9,3.8c-2.2,0.4-4.5-0.4-6.6-1.1
	c-4-1.2-7.8-3-11.2-5.4c-2.5-1.8-2.7-2.5-2.2-5.5c0.4-2,1-3.4-1.6-3.9c-2.1-0.4-4-0.8-4.4,1.6c-0.9,5,4.1,9.6,7.8,12.1
	c4.8,3.2,10.8,5.7,16.6,6.3c3.1,0.3,6.4-0.9,9.1-2.2c3-1.4,5.6-3.5,7.6-6c4.3-5.2,6.2-12,6.2-18.7C148.9,85.5,146.1,77.6,140.8,72.1
	z"/>
<path id="XMLID_268_" class="st1" d="M118.7,84.8c-7.4,2.7-7.4,11.1-10.1,17.3c-5.2,12-16.8,16.9-29.1,16.3
	c-0.2-1.1-1.6-6.7-3.2-6.8c-2.7-0.1-1.6,5.8-1.8,7.3c-4.5-0.1-8.9-3.4-8.9,3.9c0,3.2,1.7,5.8,4.2,7.7c10.1,7.6,26.2,2.6,37-0.8
	c16.3-5.2,28-15.9,27.6-33.7C134.1,89,125.8,82.2,118.7,84.8z"/>
<path id="XMLID_267_" class="st8" d="M92.8,124.7c6.2,0.2,9.6-9.9,0.9-6.5C90.2,119.6,86.7,124.6,92.8,124.7z"/>
<path id="XMLID_266_" class="st2" d="M109.9,126.7c0.5,0.5,1,0.9,1.5,1.3c5-2.1,9.5-4.7,13.1-8.1c-0.1-0.1-0.2-0.2-0.3-0.2
	c-4.1-3.5-8.3-6.9-12.5-10.2c-1.5-1.2-3-2.3-4.5-3.5c-0.2-0.1-0.3-0.1-0.5-0.1c-1.7,2.7-3.7,4.9-6.1,6.6
	C103.6,117.2,106.7,122,109.9,126.7z"/>
<path id="XMLID_265_" class="st4" d="M97.3,94.2c22.9-0.8,38.6-20.4,40.3-42.3c0.5-6.4,0.1-13.2-2.3-19.2
	c-3.9-9.5-11.9-18-21.2-22.4c-10.7-5-23.4-6.4-34.5-1.8c-16.3,6.8-28.2,23.3-29,41.2C49.3,76.3,71.6,95.1,97.3,94.2z"/>
<linearGradient id="XMLID_41_" gradientUnits="userSpaceOnUse" x1="-1692.2555" y1="91.6625" x2="-1699.5935" y2="16.1861" gradientTransform="matrix(1 0 0 1 1783.548 0)">
	<stop  offset="0" style="stop-color:#3D90CD"/>
	<stop  offset="1" style="stop-color:#192549"/>
</linearGradient>
<path id="XMLID_264_" class="st9" d="M122.2,40.8c-3.9-9.5-11.9-18-21.2-22.4C72.3,5,45.6,33.3,50.5,61.9c0.6,3.7,1.7,7.3,3.3,10.7
	c3.5,7.8,9.4,14.1,17,18.1c11.9,6.3,23.4,7.5,35.5,1c8.3-4.4,15.3-12.3,18.4-21.1C127.6,62.2,125.4,48.8,122.2,40.8z"/>
<linearGradient id="XMLID_42_" gradientUnits="userSpaceOnUse" x1="-1692.3917" y1="90.5421" x2="-1700.778" y2="-3.8033" gradientTransform="matrix(1 0 0 1 1783.548 0)">
	<stop  offset="0" style="stop-color:#31648E"/>
	<stop  offset="1" style="stop-color:#192549"/>
</linearGradient>
<path id="XMLID_261_" class="st10" d="M122.2,38c-3.9-9.5-11.9-18-21.2-22.4C72.3,2.2,45.6,30.5,50.5,59.1c0.6,3.7,1.7,7.3,3.3,10.7
	c3.5,7.8,9.4,14.1,17,18.1c11.9,6.3,23.4,7.5,35.5,1c8.3-4.4,15.3-12.3,18.4-21.1C127.6,59.4,125.4,46,122.2,38z M102.4,86.3
	c-9,3.3-19.1,3-27.8-1.2c-14.6-7.1-24-29-18.9-44.4c1.7-5.1,4.3-10.5,9.8-12.2c5.2-1.6,10.9-0.1,16.1-2c6.5-2.3,12.7-5.2,19.6-2.7
	c6.1,2.2,11.7,7.2,14.7,12.9c-6.5,0.5-7.3,8.1-6.7,14.5c0.7,7.3,6.3,10.8,12.6,12.2c0.8,0.2-4.4,11.7-5.1,12.7
	c-2.2,3.1-5.3,5.5-8.6,7.4C106.3,84.6,104.4,85.5,102.4,86.3z"/>
<path id="XMLID_260_" class="st8" d="M113.7,49.6c0.4,4.4,2.9,7.7,7.2,8.9c9.3,2.5,13.5-8.6,9.7-15.8
	C125.6,33.5,112.9,40.5,113.7,49.6z"/>
<path id="XMLID_259_" class="st11" d="M167,107.3c0.8-3.7,4.4-8,6.3-9.5c3.4-2.6,7.9-3.6,10.8,0.1c0,0,0,0,0,0
	c0,5.1-2.3,9.6-6.8,12.1c-1.9,1.1-4,1.9-6.1,2.2C168.2,112.6,166.4,110.2,167,107.3z"/>
<path id="XMLID_258_" class="st12" d="M169.3,108.9c0-0.1,0.1-0.2,0.1-0.3c0.4-1.3,1.1-2.4,1.8-3.4c1.5-2.2,3.6-3.9,5.7-5.4
	c1.1-0.7,2.2-1.3,3.4-2c1-0.6,2.3-1.2,3.5-1c0,0,0,0,0,0c0.6,1.7,0.3,4.3-0.3,6c-0.6,1.8-1.5,3.5-2.9,4.8c-0.8,0.8-1.7,1.5-2.6,2.1
	c-1.9,1.2-4,2-6.2,2.6c-0.8,0.2-1.9,0.6-2.7,0.3C168.5,112.4,169,109.8,169.3,108.9z"/>
<path id="XMLID_257_" class="st13" d="M174.1,107.1c0-0.1,0-0.1,0-0.1c0.2-0.6,0.5-1.1,0.9-1.6c0.7-1,1.7-1.8,2.7-2.6
	c0.5-0.4,1.1-0.6,1.6-0.9c0.5-0.3,1.1-0.6,1.7-0.5c0,0,0,0,0,0c0.3,0.8,0.1,2-0.1,2.9c-0.3,0.8-0.7,1.7-1.4,2.3
	c-0.4,0.4-0.8,0.7-1.3,1c-0.9,0.6-1.9,0.9-3,1.2c-0.4,0.1-0.9,0.3-1.3,0.2C173.7,108.8,174,107.6,174.1,107.1z"/>
<path id="XMLID_256_" class="st11" d="M177.5,101.4c0.8,0.4,3.5-0.9,2.6-1.7C179.3,98.8,176.7,100.9,177.5,101.4z"/>
<path id="XMLID_255_" class="st11" d="M172.8,106.1c0.9,0.1,2.9-2.2,1.7-2.6C173.4,103.1,171.8,106,172.8,106.1z"/>
<path id="XMLID_254_" class="st11" d="M171.4,110.7c0.5-0.4,2-1.9,0.6-2.2c-0.8-0.2-2,1.4-1.8,2.1
	C170.4,111.3,170.9,111.1,171.4,110.7z"/>
<path id="XMLID_253_" class="st11" d="M181.7,100.9c0.6,0.4,1.9-0.9,1.1-1.4C182.2,99.1,181,100.4,181.7,100.9z"/>
<path id="XMLID_252_" class="st14" d="M117.1,102.9c4,8,18.1,0.5,10.7-7.8C122.2,88.8,113.6,95.9,117.1,102.9z"/>
<path id="XMLID_251_" class="st2" d="M131.9,92.1c-1.3,0.8-2.2,2-3.1,3.1c-1.2,1.4-2.4,2.8-3.7,4.2c-1.5,1.6-3,3.1-4.6,4.6
	c0.7-1.6,1.3-3.2,2-4.8c1-2.5,2.5-6.3,1.5-9c-0.1-0.3-0.6-0.5-0.8-0.1c-0.6,1.2-0.8,2.6-1.2,4c-0.4,1.6-1,3.1-1.6,4.6
	c-1.1,3-2.7,5.8-3.6,8.9c-0.3,1,1,1.6,1.7,1c2.7-2.6,5.5-4.9,8.1-7.5c2.2-2.2,5.4-5,6.1-8.2C132.7,92.3,132.3,91.9,131.9,92.1z"/>
<g id="XMLID_198_">
	
		<linearGradient id="XMLID_43_" gradientUnits="userSpaceOnUse" x1="-337.3329" y1="43.9621" x2="-268.8582" y2="43.9621" gradientTransform="matrix(0.9827 -0.1854 0.1854 0.9827 379.0373 -42.664)">
		<stop  offset="0" style="stop-color:#E7D37E"/>
		<stop  offset="0.2082" style="stop-color:#E7D17B"/>
		<stop  offset="0.392" style="stop-color:#E6CE70"/>
		<stop  offset="0.5666" style="stop-color:#E4C85E"/>
		<stop  offset="0.7348" style="stop-color:#E1BF44"/>
		<stop  offset="0.7526" style="stop-color:#E0BE41"/>
		<stop  offset="1" style="stop-color:#DCA921"/>
	</linearGradient>
	<path id="XMLID_250_" class="st15" d="M62.8,44.6c0-0.1,0.1-0.1,0-0.2c0-0.1-0.1-0.1-0.2-0.1c0,0-3.1-0.4-5.1-3.5
		c-1.9-3.1-1.5-8.4,1.9-11.1c3.2-2.4,8-3.7,12,0c0,0,1.8,1.4,2.3,4c0,0.1,0,0.1,0.1,0.1c0,0,0.1,0,0.2,0c0.8-0.2,1.1-0.3,1.9-0.5
		c0,0.1,0,0.1-0.1,0.2c-2.1,7.5,2.6,11.3,2.7,11.3c0,0,0.1,0,0.2,0c0,0,0.1,0,0.1,0c0.1-0.1,0.1-0.2,0.1-0.2c0,0-1-2.2-0.2-3.8
		c0.2,0.6,0.4,1.2,0.7,1.7c1.3,2.5,3.7,4.3,7,5.3c0,0,0.1,0,0.1,0c0,0,0.1,0,0.1,0c0.1,0,0.1-0.1,0.1-0.2c0-0.1-0.1-5.1,3-8.1
		c-0.3,1.2-0.9,3.9-1.4,4.8c0,0.1,0,0.2,0,0.2c0.1,0.1,0.2,0.1,0.2,0c0.1,0,9.2-4.1,7.9-11.5c0.1,0,0.3,0.1,0.5,0.3
		c0.2,1.8,0.8,3.1,0.9,3.1c0.1,0.1,0.2,0.2,0.3,0.1c0.1,0,0.1-0.2,0.1-0.3c-0.1-0.1-0.6-1.3-0.8-3c0,0,0,0,0-0.1c-0.3-2,0-4.6,2-6.5
		c3.8-3.6,9.4-1.6,11.8-0.2c2.9,1.8,5.3,5.4,5.6,9.2c0.1,1.6-0.6,3.5-1.8,4.8c-1.2,1.3-2.9,2-4.5,2.1c-0.4,0-0.9,0-1.3,0
		c-0.1,0-0.2,0.1-0.2,0.2c0,0.1,0.1,0.2,0.2,0.2c0.4,0,0.9,0,1.4,0c0.2,0,0.4,0,0.6-0.1c1.5-0.3,3-1,4.1-2.1
		c8.5,7.3,11.3,19.4,8.4,29.7c-2.4,8.6-10.5,15.8-19,17.4C97.2,89.3,89,90,81.3,89C70,87.5,59.7,81.8,57,69.8
		C55,61.1,57.2,51.2,62.8,44.6z"/>
	
		<linearGradient id="XMLID_44_" gradientUnits="userSpaceOnUse" x1="-337.3188" y1="63.0455" x2="-273.8891" y2="63.0455" gradientTransform="matrix(0.9827 -0.1854 0.1854 0.9827 379.0373 -42.664)">
		<stop  offset="0" style="stop-color:#FBE9D0"/>
		<stop  offset="0.7085" style="stop-color:#F6E6BA"/>
		<stop  offset="1" style="stop-color:#F3E4AF"/>
	</linearGradient>
	<path id="XMLID_249_" class="st16" d="M122.3,73.9c-13.4-6.4-28.9-9-43.5-9.3C67.5,64.5,59.2,68,56.9,69c0,0.3,0.1,0.5,0.1,0.8
		C59.1,82.3,70,87.5,81.3,89c7.8,1,15.8,0.1,23.4-1.1C111.5,86.7,119.4,80.4,122.3,73.9z"/>
	<path id="XMLID_248_" class="st17" d="M88.2,72.4c0.2,0.7,0.8,4.6-1.5,6.8c-1.3,1.2-3.3,1.7-6.1,1.3c-3-0.4-5.2-1.4-6.5-3.1
		c-1.8-2.4-1.5-5.4-1.4-6.1c0.6,0,1.1-0.1,1.6-0.2c2.3-0.4,3.9-1.3,4.4-1.5C80.9,71.2,84.6,72.7,88.2,72.4z"/>
	
		<linearGradient id="XMLID_45_" gradientUnits="userSpaceOnUse" x1="-313.0502" y1="23.776" x2="-292.0436" y2="23.776" gradientTransform="matrix(0.9827 -0.1854 0.1854 0.9827 379.0373 -42.664)">
		<stop  offset="0" style="stop-color:#C09E5E"/>
		<stop  offset="0.2474" style="stop-color:#BD9437"/>
		<stop  offset="0.5014" style="stop-color:#B58E32"/>
		<stop  offset="0.9334" style="stop-color:#9D7D28"/>
		<stop  offset="1" style="stop-color:#997A27"/>
	</linearGradient>
	<path id="XMLID_247_" class="st18" d="M83.1,27.4c0.1,0,0.1,0,0.2,0c0,0,3.3-2,6.6-1.1c1.9,0.5,3.4,1.9,4.5,4.1c-0.1,0-0.2,0-0.3,0
		c-0.1,0-0.2,0.1-0.2,0.2c0,0.1,0.1,0.2,0.2,0.2c1.9,0,2,1.7,2,1.8c1.4,6.4-5.2,10.3-7.1,11.4c0.6-1.5,1.2-4.8,1.3-5
		c0-0.1,0-0.2-0.1-0.2c-0.1,0-0.2,0-0.2,0c-3.3,2.7-3.6,7.4-3.6,8.6c-3.1-1-5.3-2.7-6.5-5c-1.9-3.7-0.6-7.9-0.6-7.9
		c0-0.1,0-0.2-0.1-0.3c-0.1,0-0.2,0-0.3,0.1c0,0.1-0.9,2.9-0.2,6c0,0-0.1,0-0.1,0.1c-0.7,1.2-0.5,2.7-0.2,3.6
		c-1.2-1.3-3.5-4.7-2-10.3C78.3,26.4,82.9,27.4,83.1,27.4z"/>
	<path id="XMLID_246_" class="st19" d="M62.5,36.4c0.3-0.2,0.6-0.4,0.9-0.5c0.3-0.1,0.6,0,0.9,0.1c0.9,0.3,1.6,1.2,2.1,2
		c0.5,0.8,0.8,1.5,0.9,1.7c-1,0.6-1.8,1.3-2.8,2.3c0,0,0,0,0,0c-0.6-0.4-1.3-0.9-1.9-1.4c-0.6-0.6-1-1.3-1.1-1.9
		C61.5,37.9,61.9,36.9,62.5,36.4z"/>
	<path id="XMLID_245_" class="st19" d="M101.3,34.9c0.5-1.2,1.6-2,2.8-1.9c1.2,0.1,2.5,1.1,2.8,2.4c0.2,0.8,0.1,1.9-0.3,2.8
		c-0.2,0.5-0.9,1.4-1.4,1.4c-0.4-0.3-2.9-2.1-4.3-2.9C100.8,36.4,101.1,35.3,101.3,34.9z"/>
	<path id="XMLID_244_" class="st20" d="M87.1,60.4c7.3-3,14,1.3,14,1.4c0,0,0.1,0,0.1,0c0.1,0,0.1,0,0.1-0.1c0-0.1,0-0.2-0.1-0.3
		c-0.7-0.6-4.1-3.1-7.5-3.5c-3.2-0.4-6.8,2-6.9,2.1c-0.1,0.1-0.1,0.2-0.1,0.3C86.9,60.4,87,60.5,87.1,60.4z"/>
	<path id="XMLID_243_" class="st21" d="M93.9,58.4c1.9,0.2,3.8,1.1,5.2,2c-2.1-0.9-5.4-1.9-9.2-1.2c-0.2,0-0.4,0.1-0.6,0.1
		C90.5,58.7,92.3,58.2,93.9,58.4z"/>
	<path id="XMLID_242_" class="st20" d="M65.1,60.4c0,0,4.7-1.7,8.4,0.3c0,0,0.1,0,0.1,0c0,0,0.1,0,0.1-0.1c0.1-0.1,0.1-0.2,0-0.3
		c0,0-3.7-4.2-8.9-0.3c-0.1,0.1-0.1,0.2-0.1,0.3C64.9,60.4,65,60.4,65.1,60.4z"/>
	<path id="XMLID_241_" class="st21" d="M72.6,59.8c-2.4-0.8-4.9-0.5-6.3-0.2C69.2,58,71.4,59,72.6,59.8z"/>
	<path id="XMLID_240_" class="st22" d="M70.2,47.1c1.4-0.3,2.7,0.1,2.9,0.7c0.1,0.7-1,1.5-2.4,1.8c-1.4,0.3-2.7,0-2.9-0.7
		C67.7,48.2,68.8,47.4,70.2,47.1z"/>
	<path id="XMLID_239_" class="st22" d="M91.4,47.8c0.1-0.4,0.6-0.7,1.3-0.8c0.4-0.1,1,0,1.5,0.1c0.7,0.1,1.4,0.4,1.8,0.8
		c0.4,0.3,0.6,0.7,0.6,0.9c-0.1,0.6-1.4,0.9-2.8,0.6C92.5,49.2,91.4,48.5,91.4,47.8z"/>
	<path id="XMLID_238_" class="st23" d="M113.9,58.9c-9.1,1.7-12.6,10.7-11.3,19c0.6,3.7,2.4,6.9,4.9,9.1c7-2.2,14.3-9.4,16.1-16.5
		c0.9-3.5,1-6.7,0.7-10C121.2,58.9,117.6,58.2,113.9,58.9z"/>
	<path id="XMLID_237_" class="st23" d="M65,70.2c-0.8-5.2-4.2-9.4-8.7-11.5c-0.4,3.3,0,7,0.7,11.1c0.9,5.4,3.7,9,6.1,11.8
		C64.7,78.5,65.7,74.6,65,70.2z"/>
	<path id="XMLID_236_" class="st24" d="M99.1,89.3c-7.7,0.9-14.5,0.7-18,0.2c-11.8-1.9-22.7-7.3-24.6-19.5
		c-1.4-9.1-0.7-17.3,5.6-25.3c-0.9-0.2-3.3-0.9-5-3.7c-2-3.3-1.6-8.9,2-11.6c3.1-2.4,8.3-3.8,12.5,0.1c0.1,0,1.8,1.4,2.4,4
		c0.8-0.2,1.2-0.3,2-0.5c0.1,0,0.2,0,0.3,0.1c0,0.1,0,0.2-0.1,0.2c-0.9,0.2-1.3,0.3-2.2,0.6c-0.1,0-0.1,0-0.2,0c0,0-0.1-0.1-0.1-0.1
		c-0.5-2.6-2.3-4-2.3-4c-4-3.7-8.8-2.4-12,0c-3.5,2.6-3.9,8-1.9,11.1c2,3.2,5.1,3.5,5.1,3.5c0.1,0,0.1,0.1,0.2,0.1
		c0,0.1,0,0.2,0,0.2C57.2,51.2,55,61.1,57,69.8C59.7,81.8,70,87.5,81.3,89c7.8,1,16,0.3,23.4-1.1c8.4-1.6,16.6-8.8,19-17.4
		c2.9-10.5,0-22.7-8.5-29.8c-0.1-0.1-0.1-0.2,0-0.3c0.1-0.1,0.2-0.1,0.3,0c8.6,7.2,11.5,19.6,8.5,30.2c-2.4,8.7-10.4,15.4-19.3,17.7
		C102.9,88.7,101,89,99.1,89.3z"/>
	<path id="XMLID_235_" class="st24" d="M111.1,42.8c-0.2,0-0.4,0.1-0.6,0.1c-0.5,0-0.9,0-1.4,0c-0.1,0-0.2-0.1-0.2-0.2
		c0-0.1,0.1-0.2,0.2-0.2c0.4,0,0.9,0,1.3,0c1.6-0.1,3.3-0.9,4.5-2.1c1.2-1.3,1.9-3.2,1.8-4.8c-0.2-3.7-2.6-7.3-5.6-9.2
		c-2.3-1.4-8-3.4-11.8,0.2c-3.7,3.6-1.3,9.4-1.2,9.6c0.1,0.1,0,0.2-0.1,0.3c-0.1,0-0.2,0-0.3-0.1c0-0.1-2.7-6.4,1.3-10.1
		c3.9-3.7,9.8-1.7,12.3-0.2c3.1,1.9,5.5,5.6,5.8,9.5c0.1,1.7-0.6,3.7-1.9,5C114.2,41.8,112.6,42.6,111.1,42.8z"/>
	<path id="XMLID_234_" class="st24" d="M78.7,44.8c-0.1,0-0.1,0-0.2,0c0,0-4.8-3.8-2.7-11.3c2-7.1,6.6-6.6,7.2-6.5
		c0.5-0.3,3.6-2,6.8-1.2c2,0.6,3.7,2,4.9,4.5c0.1,0.1,0,0.2-0.1,0.3c-0.1,0.1-0.2,0-0.3-0.1c-1.2-2.4-2.7-3.8-4.6-4.3
		c-3.3-0.9-6.6,1.1-6.6,1.1c0,0-0.1,0-0.2,0c-0.2,0-4.8-1-6.8,6.2c-1.6,5.6,0.8,9,2,10.3c-0.3-0.9-0.5-2.4,0.2-3.6
		c0.1-0.1,0.2-0.1,0.3-0.1c0.1,0.1,0.1,0.2,0.1,0.3c-1,1.7,0.1,4,0.1,4C78.9,44.7,78.9,44.7,78.7,44.8
		C78.8,44.8,78.7,44.8,78.7,44.8z"/>
	<path id="XMLID_233_" class="st24" d="M86.5,47.8C86.5,47.8,86.4,47.8,86.5,47.8c-3.5-1-5.8-2.8-7.1-5.3c-2-3.9-0.7-8.1-0.6-8.2
		c0-0.1,0.2-0.2,0.3-0.1c0.1,0,0.2,0.2,0.1,0.3c0,0-1.3,4.2,0.6,7.9c1.2,2.3,3.4,4,6.5,5c0-1.2,0.3-5.9,3.6-8.6
		c0.1-0.1,0.2-0.1,0.2,0c0.1,0,0.1,0.1,0.1,0.2c0,0.2-0.7,3.4-1.3,5c2-1,8.5-5,7.1-11.4c0-0.1-0.1-1.8-2-1.8c-0.1,0-0.2-0.1-0.2-0.2
		c0-0.1,0.1-0.2,0.2-0.2c2.2,0.1,2.4,2.2,2.4,2.2c1.7,7.7-7.8,12-7.9,12c-0.1,0-0.2,0-0.2,0c-0.1-0.1-0.1-0.2,0-0.2
		c0.5-0.9,1.1-3.5,1.4-4.8c-3.1,3-3,8-3,8.1C86.7,47.6,86.6,47.7,86.5,47.8C86.6,47.8,86.5,47.8,86.5,47.8z"/>
	<path id="XMLID_230_" class="st24" d="M97.2,33.4c0,0-0.1,0-0.1,0C96.6,33,96.5,33,96.4,33c-0.1,0.1-0.2,0.1-0.2,0
		c-0.1-0.1-0.1-0.2-0.1-0.3c0,0,0.1-0.1,0.2-0.2c0.2-0.1,0.6,0.1,1,0.4c0.1,0.1,0.1,0.2,0.1,0.3C97.3,33.4,97.3,33.4,97.2,33.4z
		 M96.5,33C96.5,33,96.5,33,96.5,33C96.5,33,96.5,33,96.5,33z"/>
	<path id="XMLID_225_" class="st24" d="M64.7,42.5c-0.1,0-0.3,0-0.3-0.1c-0.7-0.4-1.4-0.9-1.9-1.5c-0.7-0.7-1.1-1.4-1.2-2.2
		c-0.2-0.9,0.3-2,1-2.7c0.7-0.6,1.4-0.7,2.2-0.5c1.1,0.3,1.8,1.3,2.3,2.2c1.1,1.8,1,2,1,2.1c0,0.1-0.1,0.1-0.1,0.1
		c-1,0.6-1.9,1.3-2.8,2.3C64.8,42.4,64.8,42.4,64.7,42.5C64.8,42.4,64.8,42.4,64.7,42.5C64.7,42.4,64.7,42.5,64.7,42.5L64.7,42.5z
		 M64.7,42.3C64.7,42.2,64.7,42.2,64.7,42.3C64.7,42.2,64.7,42.2,64.7,42.3z M64.7,42.3C64.7,42.2,64.7,42.2,64.7,42.3
		C64.7,42.2,64.7,42.2,64.7,42.3z M63.4,35.9c-0.3,0.1-0.6,0.2-0.9,0.5c-0.6,0.6-1,1.5-0.9,2.3c0.1,0.7,0.5,1.3,1.1,1.9
		c0.5,0.6,1.2,1,1.9,1.4c0,0,0,0,0,0c0.9-1,1.8-1.7,2.8-2.3c-0.1-0.3-0.5-1-0.9-1.7c-0.5-0.8-1.1-1.7-2.1-2
		C64,35.9,63.7,35.9,63.4,35.9z"/>
	<path id="XMLID_222_" class="st24" d="M105.3,40c-0.1,0-0.1,0-0.2,0c0,0-0.1,0-0.1,0c0,0-2.8-2.1-4.4-2.9c0,0,0,0,0,0
		c-0.1,0-0.1-0.1-0.2-0.2c-0.2-0.5,0.4-2.2,0.4-2.2c0.5-1.4,1.8-2.2,3.1-2.2c1.4,0.1,2.8,1.3,3.2,2.8c0.2,0.9,0.1,2-0.3,3.1
		C106.7,38.9,106,39.9,105.3,40z M105.2,39.6c0.5,0,1.2-0.9,1.4-1.4c0.4-0.9,0.5-2,0.3-2.8c-0.3-1.3-1.6-2.4-2.8-2.4
		c-1.2-0.1-2.3,0.7-2.8,1.9c-0.2,0.5-0.5,1.5-0.5,1.8C102.3,37.4,104.8,39.3,105.2,39.6z"/>
	<path id="XMLID_219_" class="st21" d="M101.3,61.8c0,0-0.1,0-0.1,0c-0.1,0-6.8-4.3-14-1.4c-0.1,0-0.2,0-0.3-0.1
		c-0.1-0.1,0-0.2,0.1-0.3c0.1-0.1,3.7-2.5,6.9-2.1c3.4,0.4,6.8,2.9,7.5,3.5c0.1,0.1,0.1,0.2,0.1,0.3
		C101.4,61.8,101.4,61.8,101.3,61.8z M89.9,59.1c3.7-0.7,7.1,0.3,9.2,1.2c-1.4-0.8-3.3-1.7-5.2-2c-1.6-0.2-3.3,0.3-4.6,0.9
		C89.5,59.2,89.7,59.2,89.9,59.1z"/>
	<path id="XMLID_216_" class="st21" d="M73.7,60.7c0,0-0.1,0-0.1,0c-3.7-1.9-8.4-0.3-8.4-0.3c-0.1,0-0.2,0-0.2-0.1
		c0-0.1,0-0.2,0.1-0.3c5.2-3.9,8.8,0.3,8.9,0.3c0.1,0.1,0.1,0.2,0,0.3C73.7,60.7,73.7,60.7,73.7,60.7z M66.2,59.6
		c1.5-0.3,4-0.6,6.3,0.2C71.4,59,69.2,58,66.2,59.6z"/>
	<path id="XMLID_215_" class="st24" d="M74.4,71.2c-0.6,0.1-1.2,0.2-1.8,0.2c-1.2,0-2-0.2-2.6-0.9c-0.8-0.9-0.7-2.2-0.7-2.3
		c0-0.1,0.1-0.2,0.2-0.2c0.1,0,0.2,0.1,0.2,0.2c0,0-0.1,1.2,0.6,2c0.5,0.5,1.3,0.8,2.3,0.7c3.1-0.1,5.5-1.4,6-1.7
		c0.1-0.8,0.2-2.9,0.2-2.9c0-0.1,0.1-0.2,0.2-0.2c0.1,0,0.2,0.1,0.2,0.2c0,0.1-0.1,2.3-0.2,3c0,0.1,0,0.1-0.1,0.1
		C78.8,69.6,77,70.7,74.4,71.2z"/>
	<path id="XMLID_214_" class="st24" d="M89.5,72.3c-0.1,0-0.2,0-0.4,0.1c-4,0.6-8.2-1-10.5-2.8c-0.1-0.1-0.1-0.2,0-0.3
		c0.1-0.1,0.2-0.1,0.3,0c2.3,1.7,6.3,3.3,10.2,2.7c3.5-0.6,3.5-2.2,3.5-2.2c0-0.1,0.1-0.2,0.2-0.2c0.1,0,0.2,0.1,0.2,0.2
		C92.9,69.8,92.9,71.6,89.5,72.3z"/>
	<path id="XMLID_213_" class="st24" d="M83.7,80.9c-0.9,0.1-2,0.1-3.2,0c-3.1-0.4-5.4-1.5-6.8-3.2c-2.2-2.8-1.4-6.4-1.4-6.6
		c0-0.1,0.1-0.2,0.2-0.2c0.1,0,0.2,0.1,0.2,0.2c0,0-0.7,3.6,1.3,6.3c1.3,1.7,3.5,2.7,6.5,3.1c2.7,0.3,4.8-0.1,6.1-1.3
		c2.5-2.3,1.5-6.8,1.5-6.9c0-0.1,0-0.2,0.1-0.3c0.1,0,0.2,0,0.3,0.2c0.1,0.2,1.1,4.8-1.6,7.2C86.2,80.2,85.1,80.7,83.7,80.9z"/>
	<path id="XMLID_210_" class="st24" d="M70.8,50c-1.7,0.3-3.2-0.1-3.4-1c-0.2-0.9,1-2,2.7-2.3s3.2,0.1,3.3,1.1
		C73.7,48.7,72.5,49.7,70.8,50z M70.2,47.1c-1.4,0.3-2.5,1.1-2.4,1.8c0.1,0.7,1.4,1,2.9,0.7c1.4-0.3,2.5-1.1,2.4-1.8
		C72.9,47.2,71.6,46.8,70.2,47.1z"/>
	<path id="XMLID_207_" class="st24" d="M95.5,49.9c-0.5,0-1,0-1.6-0.1c-1.7-0.3-2.9-1.2-2.8-2c0.1-0.9,1.6-1.4,3.2-1
		c0.8,0.1,1.5,0.4,2,0.8c0.6,0.4,0.8,0.9,0.8,1.3C97,49.5,96.4,49.8,95.5,49.9z M92.8,47.1c-0.7,0.1-1.3,0.4-1.3,0.8
		c-0.1,0.6,1.1,1.3,2.5,1.6c1.4,0.3,2.7,0,2.8-0.6l0,0c0-0.3-0.2-0.6-0.6-0.9c-0.5-0.3-1.1-0.6-1.8-0.8C93.7,47,93.2,47,92.8,47.1z"
		/>
	<path id="XMLID_206_" class="st21" d="M79,63.2c1.5,0.1,2.3,0.4,2.6,0.5c-0.1,0.3-0.4,1.2-2.3,2.5c-0.1,0-0.2,0-0.3,0c0,0,0,0,0,0
		c0,0,0,0,0,0c-0.5-0.1-1.5-0.5-2.3-2.6C76.9,63.4,77.6,63.1,79,63.2z"/>
	<path id="XMLID_203_" class="st21" d="M79.4,66.6c-0.4,0.1-2.1,0.2-3.2-3c0-0.1,0-0.2,0-0.2c0.1-0.1,0.7-0.7,2.8-0.6
		c2.1,0.1,2.9,0.6,2.9,0.6c0.1,0,0.1,0.1,0.1,0.2c0,0.1,0.1,1.2-2.6,3C79.5,66.5,79.5,66.5,79.4,66.6C79.5,66.6,79.4,66.6,79.4,66.6
		z M76.7,63.6c0.9,2.8,2.4,2.7,2.6,2.6c1.9-1.3,2.3-2.2,2.3-2.5c-0.3-0.1-1.1-0.4-2.6-0.5C77.6,63.1,76.9,63.4,76.7,63.6z"/>
	<path id="XMLID_202_" class="st25" d="M82.8,66.4c2.6-0.5,3.9-0.7,6.3-1.3"/>
	<path id="XMLID_201_" class="st25" d="M82.7,68c2.7,0.5,4.1,0.7,6.7,1.2"/>
	<path id="XMLID_200_" class="st25" d="M76.2,66.7c-2.1-0.7-3.2-1.1-5.2-1.8"/>
	<path id="XMLID_199_" class="st25" d="M76.2,68.2c-1.9-0.1-2.8-0.1-4.6-0.1"/>
</g>
<g id="XMLID_192_">
	<path id="XMLID_197_" class="st4" d="M115.4,51.3c0.1,0.7,0.3,1.4,0.5,1.9c1.9,4.8,7.9,5.5,11.9,2.9c5.1-3.3,4.1-9.8-0.2-13.6
		c-3.9-3.5-9.6-1.9-11.6,2.7C115.3,46.7,115.1,49.3,115.4,51.3z"/>
	<path id="XMLID_196_" class="st26" d="M118.8,51.3c0.1,0.4,0.3,0.8,0.5,1.2c1.8,2.9,5.7,2.6,8,0.5c2.9-2.7,1.5-6.7-1.6-8.7
		c-2.9-1.8-6.4-0.1-7.2,3.1C118.2,48.4,118.4,50,118.8,51.3z"/>
	<path id="XMLID_195_" class="st27" d="M119.9,49.9c0,0.3,0.1,0.6,0.2,0.8c0.8,2.1,3.4,2.4,5.1,1.2c2.2-1.4,1.8-4.2-0.1-5.9
		c-1.7-1.5-4.1-0.8-5,1.2C119.9,48,119.8,49,119.9,49.9z"/>
</g>
<path id="XMLID_191_" class="st26" d="M94.7,2.1c-7.8-0.9-16.4,1.6-22.5,6c-2.9,2-8.3,8.5-7,12.4c3.1,4,23.4-0.4,25.8-4.6
	c2.1-3.6,4.5-6,8.7-7.3c2.4-0.7,4.5-0.5,7.9-0.5c-1.6-2-7.2-4.7-7.8-4.9C98.1,2.6,96.4,2.3,94.7,2.1z"/>
<path id="XMLID_189_" class="st28" d="M93.9,0.2c-6.3-0.7-13.1,0.4-18.6,3.5C70.4,6.5,63,14,65.1,20.4c4.7,0.9,22.6-2.3,25-6.5
	c2.1-3.6,4.5-6,8.7-7.3c2.4-0.7,5.4-0.1,8.7,1.4c-1.3-3.3-8-6.5-8.6-6.7C97.3,0.8,95.6,0.4,93.9,0.2z"/>
<path id="XMLID_188_" class="st2" d="M67,100c-0.8,0.9-4,0.1-4.8-0.6c-1.6-1.4-1.9-6.8,0.9-6.8C65.7,92.5,68.8,98,67,100z"/>
<path id="XMLID_185_" class="st2" d="M53.3,87.8c-2.4-0.5-8.2-2.5-9.7-0.4c-1.7,2.4-1.1,9.5,1.1,11.5c2.2,2,7.2,3,10,3.6
	c2.5,0.5,5.6,2,6.7-0.8c0.9-2.3,2.4-7.2,1.8-9.6C62.3,89.1,56.1,88.4,53.3,87.8z"/>
<path id="XMLID_184_" class="st2" d="M86.8,127.6c-1-3.1-2-6.2-3-9.3c-1.4,0.1-2.8,0.1-4.3,0c-0.2-1.1-1.6-6.7-3.2-6.8
	c-2.7-0.1-1.6,5.8-1.8,7.3c-4.5-0.1-8.9-3.4-8.9,3.9c0,3.2,1.7,5.8,4.2,7.7c5.3,4,12.2,4.5,19.1,3.6C88.2,132,87.5,129.8,86.8,127.6
	z"/>
<path id="XMLID_182_" class="st29" d="M124,68.1c-5.2,3.4-10.8,5.7-16.6,8.1c-4.3,1.8-8.7,3.3-13.3,3.9c-4.7,0.7-9.6,1.5-14.4,1.5
	c-4.7,0-9.2-0.7-13.8-1.4c-2.2-0.3-4.3-0.8-6.4-1.3c3.1,3.7,6.9,6.7,11.3,9c11.9,6.3,23.4,7.5,35.5,1c8.3-4.4,15.3-12.3,18.4-21.1
	c0,0,0-0.1,0-0.1C124.5,67.8,124.3,67.9,124,68.1z"/>
<path id="XMLID_181_" class="st3" d="M134.3,96c-0.1-3.1-1.8-6.2-4.4-8.5c-0.3,0.9-0.6,1.8-0.9,2.6c-0.1,0.4-0.1,0.7-0.2,1.1
	c-0.5,3.3-2.3,6.6-3.6,9.6c-0.5,1.1-1,2.1-1.7,3.1c-11.4,16.1-33.9,33-54.9,25c-0.3-0.1-0.7-0.3-1-0.4c0.6,0.7,1.3,1.4,2.1,2
	c10.1,7.6,26.2,2.6,37-0.8C123,124.5,134.7,113.8,134.3,96z"/>
<path id="XMLID_180_" class="st30" d="M106.2,117.1c5.6,1.4,7.5-9.8,0.7-7.4C103.6,111,101.9,116.1,106.2,117.1z"/>
<path id="XMLID_179_" class="st30" d="M77.9,128.1c3.9-0.7,7.8-5.1,2.7-7.6c-2.4-1.2-7.2-0.4-9.4,1c-5.6,3.3,1.7,6.2,5,6.7
	C76.7,128.2,77.3,128.2,77.9,128.1z"/>
<path id="XMLID_178_" class="st30" d="M47,96.3c2.7,2.2,11.1,5.3,13.6,1c2.7-4.8-6.7-8.3-10.2-8.2C46.2,89.3,43.1,93.2,47,96.3z"/>
<path id="XMLID_177_" class="st31" d="M72.2,15.5c3.4,3.4,11.2-0.3,14.4-2.4c5.4-3.6,4.2-8.5-2.8-8.4C79.5,4.7,66.5,9.9,72.2,15.5z"
	/>
<g id="星球1">
	
		<linearGradient id="XMLID_46_" gradientUnits="userSpaceOnUse" x1="573.2477" y1="-241.4851" x2="626.2068" y2="-194.5375" gradientTransform="matrix(0.1993 0.9799 1.0244 -0.2084 138.9536 -502.4952)">
		<stop  offset="3.831420e-003" style="stop-color:#AD97C7"/>
		<stop  offset="0.5326" style="stop-color:#634D9D"/>
		<stop  offset="1" style="stop-color:#755DA6"/>
	</linearGradient>
	<path id="XMLID_176_" class="st32" d="M59.9,159.1c-5.4,1-11,1.1-16.4,2.4c-3.2,0.8-6.4,1.9-9.3,3.5c-3.8,2-7.5,4.7-11.8,4.8
		c-1.9,0-3.8-0.4-5.4-1.2c-5.8-2.8-8.7-9.1-9.8-15.2c-1.1-6.1-0.7-12.5-2-18.6c-0.9-4.1-2.4-8-4-11.8c-1.1-2.8-2.1-6.3,0-8.6
		c1-1.1,2.5-1.6,3.7-2.4c2.7-1.6,4.5-4.3,6.2-6.8c3.7-5.3,8-10.5,13.5-14.1c5.5-3.6,12.6-5.5,19-3.7c8.7,2.4,14,10.6,21.5,15.5
		c3.8,2.5,8.4,4.4,10.4,8.3c1.8,3.6,1,7.9,1.2,12c0.4,7.4,4.5,14.6,2.5,21.8c-1.1,4-4,7.4-7.5,9.7C68.2,156.9,64.1,158.3,59.9,159.1
		z"/>
	
		<linearGradient id="XMLID_47_" gradientUnits="userSpaceOnUse" x1="458.8392" y1="100.7972" x2="511.7964" y2="147.7431" gradientTransform="matrix(-1 0 0 1 522.3248 0)">
		<stop  offset="3.831420e-003" style="stop-color:#AD97C7"/>
		<stop  offset="0.5326" style="stop-color:#634D9D"/>
		<stop  offset="1" style="stop-color:#755DA6"/>
	</linearGradient>
	<path id="XMLID_175_" class="st33" d="M4.2,142c0.1-5.3,1.1-10.6,1-15.9c-0.1-3.2-0.6-6.3-1.6-9.4c-1.2-3.9-3.1-7.9-2.4-11.9
		c0.3-1.8,1.2-3.4,2.3-4.8c3.9-4.9,10.7-6.4,16.9-6.3c6.2,0.2,12.4,1.7,18.6,1.7c4.2,0,8.3-0.8,12.4-1.4c3-0.5,6.6-0.7,8.4,1.7
		c0.9,1.1,1.1,2.6,1.6,3.9c1.1,2.8,3.3,5,5.5,7.2c4.5,4.5,8.7,9.5,11.1,15.4c2.4,5.9,2.9,12.9-0.1,18.5
		c-4.1,7.7-13.2,11.1-19.5,17.2c-3.2,3.1-6,7-10.2,8.2c-3.9,1-8-0.6-12-1.2c-7.3-1.1-15.2,1.4-21.9-1.8c-3.7-1.8-6.5-5.1-8-8.9
		C4.6,150.3,4.1,146.1,4.2,142z"/>
	
		<linearGradient id="XMLID_48_" gradientUnits="userSpaceOnUse" x1="459.3679" y1="109.4068" x2="510.7849" y2="152.1841" gradientTransform="matrix(-1 0 0 1 522.3248 0)">
		<stop  offset="3.831420e-003" style="stop-color:#F6CB78"/>
		<stop  offset="0.5326" style="stop-color:#C0ADD3"/>
		<stop  offset="1" style="stop-color:#D3C5E0"/>
	</linearGradient>
	<circle id="XMLID_174_" class="st34" cx="39.3" cy="129.1" r="31.5"/>
	
		<linearGradient id="XMLID_49_" gradientUnits="userSpaceOnUse" x1="453.0485" y1="102.4352" x2="513.5719" y2="152.4282" gradientTransform="matrix(-1 0 0 1 522.3248 0)">
		<stop  offset="3.831420e-003" style="stop-color:#F1AA23"/>
		<stop  offset="0.5326" style="stop-color:#AD97C7"/>
		<stop  offset="1" style="stop-color:#C3B0D5"/>
	</linearGradient>
	<path id="XMLID_173_" class="st35" d="M12.2,129.5c0,4.6,0.9,15.8,7.9,13.8c1.8-0.5,3.3-1.7,5-2.6c2.5-1.3,5.6-1.8,8.1-0.5
		c1.9,1,3.1,2.8,4.9,4.1c3.1,2.3,7.8,2.1,10.8-0.3c1.6-1.3,2.7-3.1,4.2-4.6c1.5-1.4,3.6-2.5,5.5-1.8c1.9,0.7,3.2,2.9,5.2,2.8
		c1.7-0.1,2.8-1.9,3.4-3.5c0.1-0.3,0.3-0.7,0.4-1c6.4-17.7-9.8-35.6-26.9-35.6C24.9,100.4,12.2,113.4,12.2,129.5z"/>
	<path id="XMLID_166_" class="st4" d="M53.6,117c0,0-0.3,3.1-1.7,4.6c-1.4,1.5-3.7,1.5-3.7,1.5s2.2,0.3,3.6,1.5
		c1.5,1.3,1.8,4.8,1.8,4.8s0.2-3.3,1.6-4.7c1.3-1.3,3.8-1.6,3.8-1.6s-2.6-0.3-3.8-1.6C53.6,119.9,53.6,117,53.6,117z"/>
	
		<linearGradient id="XMLID_50_" gradientUnits="userSpaceOnUse" x1="461.4246" y1="107.5447" x2="509.0597" y2="152.2303" gradientTransform="matrix(-1 0 0 1 522.3248 0)">
		<stop  offset="3.831420e-003" style="stop-color:#F1AA23"/>
		<stop  offset="0.4806" style="stop-color:#AD97C7"/>
		<stop  offset="1" style="stop-color:#A68FC2"/>
	</linearGradient>
	<path id="XMLID_165_" class="st36" d="M34.6,154.7c1.9,0.5,3.9,0.7,5.9,0.2c1-0.2,2.1-1.1,1.8-2c-0.2-0.5-0.7-0.8-1.2-1
		c-7.3-3.5-14.9-7.6-18.5-14.8c-1.3-2.6-2-5.4-2.4-8.3c-0.5-3.8-0.5-7.7,0-11.5c-4.4,6.5-5.4,15.2-2.5,22.5
		C20.4,147.1,26.9,152.8,34.6,154.7z"/>
	
		<linearGradient id="XMLID_51_" gradientUnits="userSpaceOnUse" x1="454.8201" y1="134.424" x2="475.1719" y2="100.1356" gradientTransform="matrix(-1 0 0 1 522.3248 0)">
		<stop  offset="3.831420e-003" style="stop-color:#CCCCCC"/>
		<stop  offset="0.9962" style="stop-color:#FBF9FC"/>
	</linearGradient>
	<path id="XMLID_164_" class="st37" d="M65.2,138.1c0,0,5.6-13.3-3.2-24.9c-9.6-12.6-20.4-10.3-20.4-10.3s10.1,2.3,17.8,13.6
		C66.6,127.2,65.2,138.1,65.2,138.1z"/>
	
		<linearGradient id="XMLID_52_" gradientUnits="userSpaceOnUse" x1="481.9869" y1="119.5105" x2="506.9107" y2="137.9834" gradientTransform="matrix(-1 0 0 1 522.3248 0)">
		<stop  offset="0" style="stop-color:#AF9AC8"/>
		<stop  offset="0.9962" style="stop-color:#CED9A1"/>
	</linearGradient>
	<path id="XMLID_139_" class="st38" d="M21.3,129c1.5,6.3,6.8,10.5,11.9,9.3c5.1-1.2,8-7.3,6.5-13.6c-1.5-6.3-6.8-10.5-11.9-9.3
		C22.8,116.6,19.9,122.6,21.3,129z"/>
	<circle id="XMLID_138_" class="st4" cx="46.8" cy="143.3" r="3.7"/>
	
		<linearGradient id="XMLID_53_" gradientUnits="userSpaceOnUse" x1="493.8075" y1="110.7311" x2="499.5591" y2="113.5332" gradientTransform="matrix(-1 0 0 1 522.3248 0)">
		<stop  offset="0" style="stop-color:#AF9AC8"/>
		<stop  offset="0.9962" style="stop-color:#CED9A1"/>
	</linearGradient>
	<ellipse id="XMLID_137_" class="st39" cx="23.2" cy="113.3" rx="3.7" ry="9"/>
	<circle id="XMLID_102_" class="st4" cx="53.6" cy="149.6" r="1.9"/>
	
		<linearGradient id="XMLID_54_" gradientUnits="userSpaceOnUse" x1="443.9252" y1="91.3615" x2="488.9169" y2="142.5895" gradientTransform="matrix(-1 0 0 1 522.3248 0)">
		<stop  offset="3.831420e-003" style="stop-color:#F1AA23"/>
		<stop  offset="0.4806" style="stop-color:#AD97C7"/>
		<stop  offset="1" style="stop-color:#7F68AC"/>
	</linearGradient>
	<ellipse id="XMLID_101_" class="st40" cx="43.2" cy="131.5" rx="7.6" ry="6.7"/>
</g>
</svg>
