<svg xmlns="http://www.w3.org/2000/svg" viewBox="0 0 1920 1080"><defs><style>.cls-5{fill:#fff}</style></defs><g id="圖層_2" data-name="圖層 2"><g id="圖層_1-2" data-name="圖層 1"><g id="操作圖示"><path style="fill:#637590" d="M0 0h1920v1080H0z"/><rect x="36.45" y="34.22" width="1849.7" height="1011.56" rx="44.91" style="stroke-miterlimit:10;stroke-width:9px;stroke:#d39a85;fill:#fffef2"/><path d="M1841.47 34.22H81.59a44.91 44.91 0 0 0-44.91 44.91v921.74a44.91 44.91 0 0 0 44.91 44.91h1759.88a44.91 44.91 0 0 0 44.91-44.91V79.13a44.91 44.91 0 0 0-44.91-44.91Zm-19.15 887.52A66.3 66.3 0 0 1 1756 988H161.48a66.3 66.3 0 0 1-66.3-66.3V158.26A66.3 66.3 0 0 1 161.48 92h541.63l23.41 30.66a50.74 50.74 0 0 0 40.34 19.95H1145a50.73 50.73 0 0 0 38-17.07L1212.69 92H1756a66.3 66.3 0 0 1 66.3 66.3Z" style="fill:#edd2b7;stroke-miterlimit:10;stroke-width:9px;stroke:#d39a85"/><path id="對話框" d="m1094.09 573.48-67.81-33.31V299.06a42.73 42.73 0 0 0-42.73-42.73H255.88a42.73 42.73 0 0 0-42.73 42.73v531.88a42.73 42.73 0 0 0 42.73 42.73h727.67a42.73 42.73 0 0 0 42.73-42.73v-215l67.57-30a6.87 6.87 0 0 0 .24-12.46Z" style="stroke:#eae0e4;fill:#fff;stroke-miterlimit:10;stroke-width:9px"/><g id="點點點"><circle class="cls-5" cx="1103.67" cy="89.7" r="12.26"/><circle class="cls-5" cx="1031.83" cy="89.7" r="12.26"/><circle class="cls-5" cx="960" cy="89.7" r="12.26"/><circle class="cls-5" cx="888.17" cy="89.7" r="12.26"/><circle class="cls-5" cx="816.33" cy="89.7" r="12.26"/></g></g></g></g></svg>