<?xml version="1.0" encoding="utf-8"?>
<!-- Generator: Adobe Illustrator 24.3.0, SVG Export Plug-In . SVG Version: 6.00 Build 0)  -->
<svg version="1.1" id="圖層_1" xmlns="http://www.w3.org/2000/svg" xmlns:xlink="http://www.w3.org/1999/xlink" x="0px" y="0px"
	 viewBox="0 0 473.3 281.4" style="enable-background:new 0 0 473.3 281.4;" xml:space="preserve">
<style type="text/css">
	.st0{fill:url(#SVGID_1_);stroke:#000000;stroke-miterlimit:10;}
	.st1{fill:none;}
	.st2{opacity:0.3;}
	.st3{opacity:0.25;fill:url(#SVGID_2_);enable-background:new    ;}
</style>
<linearGradient id="SVGID_1_" gradientUnits="userSpaceOnUse" x1="235.375" y1="-5.8936" x2="235.375" y2="280.0638">
	<stop  offset="0" style="stop-color:#EDC798"/>
	<stop  offset="1" style="stop-color:#F3CBA7"/>
</linearGradient>
<rect x="-6.5" y="-6.3" class="st0" width="483.6" height="292.2"/>
<g id="角色資訊">
</g>
<g id="徽章介面">
</g>
<g id="分享介面">
</g>
<g id="衣櫃介面">
</g>
<g id="道具介面">
</g>
<g id="音效音樂icon">
</g>
<g id="通知介面">
</g>
<g id="FAQ介面">
</g>
<g id="全部刪除介面">
</g>
<g id="基本說明內容示意圖">
</g>
<g id="排行榜">
</g>
<g id="搜尋梅克獅_1_">
</g>
<g id="我的好友_1_">
</g>
<rect x="-5.2" y="-4.2" class="st1" width="482.4" height="290.1"/>
<g class="st2">
</g>
<linearGradient id="SVGID_2_" gradientUnits="userSpaceOnUse" x1="418.0883" y1="457.3711" x2="424.2871" y2="84.1974" gradientTransform="matrix(1 0 0 -1 0 363.87)">
	<stop  offset="0" style="stop-color:#CD9D75"/>
	<stop  offset="1" style="stop-color:#EBC399"/>
</linearGradient>
<path class="st3" d="M1239.3,477.6l1.7-1l-176.9-289.9L1218-65.5l-1.7-1L1063,184.8l-9.5-15.6l143.2-234.7l-1.7-1l-142.6,233.8
	l-9.5-15.6l132.5-217.1l-1.7-1l-131.9,216.2L1032,134l121.8-199.6l-1.7-1l-121.2,198.7l-9.5-15.6l111.1-182l-1.7-1l-110.5,181.1
	l-9.5-15.6l100.3-164.5l-1.7-1L1009.4,97l-9.5-15.6l89.6-146.9l-1.7-1l-89.1,146l-9.5-15.6l78.9-129.4l-1.7-1L988,61.9l-9.5-15.6
	l68.2-111.8l-1.7-1L977.3,44.4l-9.5-15.6l57.5-94.3l-1.7-1l-57,93.4L957,11.2l46.8-76.7l-1.7-1L955.9,9.3l-9.5-15.6l36.1-59.2
	l-1.7-1L945.1-8.3l-9.5-15.6L961-65.5l-1.7-1l-24.9,40.7l-9.5-15.6l14.7-24.1l-1.7-1l-14.1,23.2L914.2-59l4-6.5l-1.7-1l-3.4,5.6
	l-2.8-4.6l-1.7,1L912-59l-11,17.7L890.2-59l4-6.5l-1.7-1l-3.4,5.6l-2.8-4.6l-1.7,1L888-59l-11,17.7L866.2-59l4-6.5l-1.7-1l-3.4,5.6
	l-2.8-4.6l-1.7,1L864-59l-11,17.7L842.2-59l4-6.5l-1.7-1l-3.4,5.6l-2.8-4.6l-1.7,1L840-59l-11,17.7L818.2-59l4-6.5l-1.7-1l-3.4,5.6
	l-2.8-4.6l-1.7,1L816-59l-11,17.7L794.2-59l4-6.5l-1.7-1l-3.4,5.6l-2.8-4.6l-1.7,1L792-59l-11,17.7L770.2-59l4-6.5l-1.7-1l-3.4,5.6
	l-2.8-4.6l-1.7,1L768-59l-11,17.7L746.2-59l4-6.5l-1.7-1l-3.4,5.6l-2.8-4.6l-1.7,1L744-59l-10.8,17.7l-11-17.7l4-6.5l-1.7-1
	l-3.4,5.6l-2.8-4.6l-1.7,1L720-59l-10.8,17.7l-11-17.7l4-6.5l-1.7-1l-3.4,5.6l-2.8-4.6l-1.7,1L696-59l-10.8,17.7l-11-17.7l4-6.5
	l-1.7-1l-3.4,5.6l-2.8-4.6l-1.7,1L672-59l-10.8,17.7l-11-17.7l4-6.5l-1.7-1l-3.4,5.6l-2.8-4.6l-1.7,1L648-59l-10.8,17.7l-11-17.7
	l4-6.5l-1.7-1l-3.4,5.6l-2.8-4.6l-1.7,1L624-59l-10.8,17.7l-11-17.7l4-6.5l-1.7-1l-3.4,5.6l-2.8-4.6l-1.7,1L600-59l-10.8,17.7
	l-10.7-17.6l4.1-6.6l-1.7-1v0.1l-0.1-0.1l-3.4,5.6l-2.8-4.6l-1.7,1l3.4,5.5l-9.5,15.6l-9.5-15.5l4.1-6.6l-1.7-1l-3.5,5.8l-2.9-4.8
	l-1.7,1l3.4,5.6l-10,15.7l-9.5-15.6l4.1-6.6l-1.7-1l-3.5,5.8l-2.9-4.8l-1.7,1l3.4,5.6l-9.5,15.6l-9.5-15.6l4.1-6.6l-1.7-1l-3.5,5.8
	l-2.9-4.8l-1.7,1l3.4,5.6l-9.5,15.6l-9.5-15.6l4.1-6.6l-1.7-1l-3.5,5.8l-2.9-4.8l-1.7,1l3.4,5.6l-9.5,15.6l-9.5-15.6l4.1-6.6l-1.7-1
	l-3.5,5.8l-2.9-4.8l-1.7,1l3.4,5.6l-9.5,15.6l-9.5-15.6l4.1-6.6l-1.7-1l-3.5,5.8l-2.9-4.8l-1.7,1l3.4,5.6l-10,15.6l-9.5-15.6
	l4.1-6.6l-1.7-1l-3.5,5.8l-2.9-4.8l-1.7,1l3.4,5.6l-9.5,15.6L407-58.9l4.1-6.6l-1.7-1l-3.5,5.8l-2.9-4.8l-1.7,1l3.4,5.6l-9.5,15.6
	l-9.5-15.6l4.1-6.6l-1.7-1l-3.5,5.8l-2.9-4.8l-1.7,1l3.4,5.6l-9.5,15.6l-9.5-15.6l4.1-6.6l-1.7-1l-3.5,5.8l-2.9-4.8l-1.7,1l3.4,5.6
	l-9.5,15.6l-9.5-15.6l4.1-6.6l-1.7-1l-3.5,5.8l-2.9-4.8l-1.7,1l3.4,5.6l-9.5,15.6l-9.5-15.6l4.1-6.6l-1.7-1l-3.5,5.8l-2.9-4.8
	l-1.7,1l3.4,5.6L310-43.3l-9.5-15.6l4.1-6.6l-1.7-1l-3.5,5.8l-2.9-4.8l-1.7,1l3.4,5.6L288-43.2l-9.5-15.6l4.1-6.6l-1.7-1l-3.5,5.8
	l-2.9-4.8l-1.7,1l3.4,5.6l-9.9,16.3l-10.8-17.7l3.2-5.2l-1.7-1l-2.6,4.3l-2.6-4.3l-1.7,1l3.2,5.2l-10.8,17.7l-10.8-17.7l3.2-5.2
	l-1.7-1l-2.6,4.3l-2.6-4.3l-1.7,1l3.2,5.2l-10.8,17.7l-10.8-17.7l3.2-5.2l-1.7-1l-2.6,4.3l-2.6-4.3l-1.7,1l3.2,5.2l-10.8,17.7
	l-10.8-17.7l3.2-5.2l-1.7-1l-2.6,4.3l-2.6-4.3l-1.7,1l3.2,5.2l-10.8,17.7l-10.8-17.7l3.2-5.2l-1.7-1l-2.6,4.3l-2.6-4.3l-1.7,1
	l3.2,5.2l-10.8,17.7l-10.8-17.7l3.2-5.2l-1.7-1l-2.6,4.3l-2.6-4.3l-1.7,1l3.2,5.2l-10.8,17.7l-10.8-17.7l3.2-5.2l-1.7-1l-2.6,4.3
	l-2.6-4.3l-1.7,1l3.2,5.2L98.2-42.6L87.4-60.3l3.2-5.2l-1.7-1l-2.6,4.3l-2.6-4.3l-1.7,1l3.2,5.2L74.3-42.6L63.4-60.3l3.2-5.2l-1.7-1
	l-2.6,4.3l-2.6-4.3l-1.7,1l3.2,5.2L50.3-42.6L39.4-60.3l3.2-5.2l-1.7-1l-2.6,4.3l-2.6-4.3l-1.7,1l3.2,5.2L26.3-42.6L15.4-60.3
	l3.2-5.2l-1.7-1l-2.6,4.3l-2.6-4.3l-1.7,1l3.2,5.2L2.3-42.6L-8.6-60.3l3.2-5.2l-1.7-1l-2.6,4.3l-2.6-4.3l-1.7,1l3.2,5.2l-10.8,17.7
	l-10.8-17.7l3.2-5.2l-1.7-1l-2.6,4.3l-2.6-4.3l-1.7,1l3.2,5.2l-10.8,17.7l-10.8-17.7l3.2-5.2l-1.7-1l-2.6,4.3l-2.6-4.3l-1.7,1
	l3.2,5.2l-10.8,17.7l-14.6-24l-1.7,1l15.2,24.9L-80.4-25l-25.3-41.5l-1.7,1l25.9,42.4L-91-7.5l-36-59.1l-1.7,1l36.6,60l-9.5,15.6
	l-46.8-76.6l-1.7,1L-103,12l-9.5,15.6L-170-66.6l-1.7,1l58,95.1l-9.5,15.6l-68.2-111.7l-1.7,1L-124.4,47l-9.5,15.6l-78.9-129.3
	l-1.7,1l79.4,130.2l-9.5,15.6l-89.6-146.8l-1.7,1L-145.8,82l-9.5,15.6L-255.7-66.6l-1.7,1l100.8,165.3l-9.5,15.6l-111-181.9l-1.7,1
	l111.5,182.8l-9.5,15.6L-298.5-66.6l-1.7,1L-178,134.8l-9.5,15.6l-132.4-217l-1.7,1l133,217.9l-9.5,15.6L-341.3-66.6l-1.7,1
	l143.7,235.5l-9.5,15.6l-154-252.1l-1.7,1l154.4,253l-9.5,15.6L-384.2-66.6l-1.7,1L-220.8,205l-165.1,270.6l1.7,1L-219.6,207
	l10.8,17.7l-153.1,250.9l1.7,1l152.5-250l10.8,17.7L-338,475.5l1.7,1l140.5-230.4l10.8,17.7l-129.1,211.6l1.7,1L-183.6,266
	l10.8,17.7l-117.1,191.9l1.7,1l116.5-191l10.8,17.7L-266,475.5l1.7,1l104.5-171.4l10.8,17.7l-93.1,152.6l1.7,1l92.6-151.7l10.8,17.7
	l-81.1,132.9l1.7,1l80.6-132L-125,362l-69.1,113.2l1.7,1l68.6-112.4l10.8,17.7l-57.1,93.6l1.7,1l56.6-92.7l10.8,17.7l-45.1,73.9
	l1.7,1l44.6-73l10.8,17.7l-33.1,54.2l1.7,1l32.6-53.4l10.8,17.7l-21.1,34.6l1.7,1l20.6-33.7l10.8,17.7l-9.1,14.9l1.7,1l8.6-14
	l8.6,14l1.7-1l-9.1-14.9l9.5-15.6l10.8,17.7l-7.8,12.8l1.7,1l7.3-11.9l7.3,11.9l1.7-1l-7.8-12.8l9.5-15.6l9.5,15.6l-7.8,12.8l1.7,1
	l7.3-11.9l7.3,11.9l1.7-1l-7.8-12.8l9.5-15.6l9.5,15.6l-7.8,12.8l1.7,1l7.3-11.9L9,475.7l1.7-1L3,462.8l9.5-15.6l9.5,15.6l-7.8,12.8
	l1.7,1l7.3-11.9l7.3,11.9l1.7-1l-7.8-12.8l9.5-15.6l9.5,15.6l-7.8,12.8l1.7,1l7.3-11.9l7.3,11.9l1.7-1l-7.8-12.8l9.5-15.6l9.5,15.6
	L57,475.6l1.7,1l7.3-11.9l7.3,11.9l1.7-1l-7.8-12.8l9.5-15.6l9.5,15.6l-7.8,12.8l1.7,1l7.3-11.9l7.3,11.9l1.7-1l-7.8-12.8l9.5-15.6
	l9.5,15.6l-7.8,12.8l1.7,1l7.3-11.9l7.3,11.9l1.7-1l-7.8-12.8l9.5-15.6l9.5,15.6l-7.8,12.8l1.7,1l7.3-11.9l7.3,11.9l1.7-1l-7.8-12.8
	l9.5-15.6l9.5,15.6l-7.8,12.8l1.7,1l7.3-11.9l7.3,11.9l1.7-1l-7.8-12.8l9.5-15.6l9.5,15.6l-7.8,12.8l1.7,1l7.3-11.9l7.3,11.9l1.7-1
	l-7.8-12.8l9.5-15.6l9.5,15.6l-7.8,12.8l1.7,1l7.3-11.9l7.3,11.9l1.7-1l-7.8-12.8l9.5-15.6l9.5,15.6l-7.8,12.8l1.7,1l7.3-11.9
	l7.3,11.9l1.7-1l-7.8-12.8l9.5-15.6l9.5,15.6l-7.8,12.8l1.7,1l7.3-11.9l7.3,11.9l1.7-1l-7.8-12.8l10.8-17.7l9.5,15.5l-9.2,15l1.7,1
	v-0.1l0.1,0.1l8.6-14l8.6,14l1.7-1l-9.1-14.9l10.8-17.7l10.7,17.6l-9.2,15l1.7,1l8.6-14.2l8.6,14.2l1.7-1l-9.2-15l10.8-17.7
	l10.8,17.7l-9.2,15l1.7,1l8.6-14.2l8.6,14.2l1.7-1l-9.2-15l10.8-17.7l10.8,17.7l-9.2,15l1.7,1l8.6-14.2l8.6,14.2l1.7-1l-9.2-15
	l10.8-17.7l10.8,17.7l-9.2,15l1.7,1l8.6-14.2l8.6,14.2l1.7-1l-9.2-15l10.8-17.7l10.8,17.7l-9.2,15l1.7,1l8.6-14.2l8.6,14.2l1.7-1
	l-9.2-15l10.8-17.7l10.8,17.7l-9.2,15l1.7,1l8.6-14.2l8.6,14.2l1.7-1l-9.2-15l10.8-17.7l10.8,17.7l-9.2,15l1.7,1l8.6-14.2l8.6,14.2
	l1.7-1l-9.2-15l10.8-17.7l10.8,17.7l-9.2,15l1.7,1l8.6-14.2l8.6,14.2l1.7-1l-9.2-15l10.8-17.7l10.8,17.7l-9.2,15l1.7,1l8.6-14.2
	l8.6,14.2l1.7-1l-9.2-15l10.8-17.7l10.8,17.7l-9.2,15l1.7,1l8.6-14.2l8.6,14.2l1.7-1l-9.2-15l10.8-17.7l10.8,17.7l-9.2,15l1.7,1
	l8.6-14.2l8.6,14.2l1.7-1l-9.2-15l10.8-17.7l10.8,17.7l-9.2,15l1.7,1l8.6-14.2l8.6,14.2l1.7-1l-9.2-15l10.8-17.7l10.8,17.7l-9.2,15
	l1.7,1l8.6-14.2l8.6,14.2l1.7-1l-9.2-15l9.9-16.3L594,462l-8.3,13.6l1.7,1l7.8-12.7l8.4,13.7l1.7-1l-8.9-14.6l9.5-15.6l9.5,15.6
	l-8.3,13.6l1.7,1l7.8-12.7l8.4,13.7l1.7-1l-8.9-14.6l9.5-15.6l9.5,15.6l-8.3,13.6l1.7,1l7.8-12.7l8.4,13.7l1.7-1l-8.9-14.6l9.5-15.6
	l9.5,15.6l-8.3,13.6l1.7,1l7.8-12.7l8.4,13.7l1.7-1l-8.9-14.6l9.5-15.6l9.5,15.6l-8.3,13.6l1.7,1l7.8-12.7l8.4,13.7l1.7-1L682,462
	l9.5-15.6L701,462l-8.3,13.6l1.7,1l7.8-12.7l8.4,13.7l1.7-1l-8.9-14.6l9.5-15.6l9.5,15.6l-8.3,13.6l1.7,1l7.8-12.7l8.4,13.7l1.7-1
	l-8.9-14.6l9.5-15.6l9.5,15.6l-8.3,13.6l1.7,1l7.8-12.7l8.4,13.7l1.7-1l-8.9-14.6l9.5-15.6l9.5,15.6l-8.3,13.6l1.7,1l7.8-12.7
	l8.4,13.7l1.7-1l-8.9-14.6l9.5-15.6l9.5,15.6l-8.3,13.6l1.7,1l7.8-12.7l8.4,13.7l1.7-1L789,462l9.5-15.6L808,462l-8.3,13.6l1.7,1
	l7.8-12.7l8.4,13.7l1.7-1l-8.9-14.6l9.5-15.6l9.5,15.6l-8.3,13.6l1.7,1l7.8-12.7l8.4,13.7l1.7-1l-8.9-14.6l9.5-15.6L851,462
	l-8.3,13.6l1.7,1l7.8-12.7l8.4,13.7l1.7-1l-8.9-14.6l9.5-15.6l9.5,15.6l-8.3,13.6l1.7,1l7.8-12.7l8.4,13.7l1.7-1l-8.9-14.6l9.5-15.6
	l9.5,15.6l-8.3,13.6l1.7,1l7.8-12.7l8.4,13.7l1.7-1l-8.9-14.6l10.8-17.7l20.4,33.4l1.7-1l-20.9-34.3l10.8-17.7l32.4,53l1.7-1
	l-32.9-53.9l10.8-17.7l44.4,72.7l1.7-1l-45-73.8l10.8-17.7l56.4,92.4l1.7-1l-56.9-93.3l10.8-17.7l68.4,112l1.7-1l-68.9-112.9
	l10.8-17.7l80.4,131.7l1.7-1L968.1,344l10.8-17.7l92.4,151.4l1.7-1l-92.9-152.3l10.8-17.7l104.4,171l1.7-1l-104.9-172l10.8-17.7
	l116.4,190.7l1.7-1L1004.1,285l10.8-17.7l128.4,210.4l1.7-1l-128.9-211.2l10.8-17.7l140.3,230l1.7-1L1028,245.9l10.8-17.7
	l152.3,249.7l1.7-1L1040.1,226l10.8-17.7l164.3,269.4l1.7-1L1052,206.5l10.8-17.7L1239.3,477.6z M1051.1,169.1l-10.8,17.7l-9.5-15.6
	l10.8-17.7L1051.1,169.1z M894.5,184l10.8-17.7l9.5,15.6L904,199.6L894.5,184z M902.8,201.5L892,219.2l-9.5-15.6l10.8-17.7
	L902.8,201.5z M893.3,182l-9.5-15.6l10.8-17.7l9.5,15.6L893.3,182z M892.1,184l-10.8,17.7l-9.5-15.6l10.8-17.7L892.1,184z
	 M880.1,203.6l-10.8,17.7l-9.5-15.6l10.8-17.7L880.1,203.6z M870.6,184.1l-9.5-15.6l10.8-17.7l9.5,15.6L870.6,184.1z M869.4,186.1
	l-10.8,17.7l-9.5-15.6l10.8-17.7L869.4,186.1z M857.4,205.7l-10.8,17.7l-9.5-15.6l10.8-17.7L857.4,205.7z M847.9,186.3l-9.5-15.6
	l10.8-17.7l9.5,15.6L847.9,186.3z M846.7,188.2l-10.8,17.7l-9.5-15.6l10.8-17.7L846.7,188.2z M834.7,207.8l-10.8,17.7l-9.5-15.6
	l10.8-17.7L834.7,207.8z M825.2,188.4l-9.5-15.6l10.8-17.7l9.5,15.6L825.2,188.4z M824,190.3L813.2,208l-9.5-15.6l10.8-17.7
	L824,190.3z M812,210l-10.8,17.7l-9.5-15.6l10.8-17.7L812,210z M802.5,190.5l-9.5-15.6l10.8-17.7l9.5,15.6L802.5,190.5z
	 M801.3,192.4l-10.8,17.7l-9.5-15.6l10.8-17.7L801.3,192.4z M789.3,212.1l-10.8,17.7l-9.5-15.6l10.8-17.7L789.3,212.1z M779.8,192.6
	l-9.5-15.6l10.8-17.7l9.5,15.6L779.8,192.6z M778.6,194.5l-10.8,17.7l-9.5-15.6l10.8-17.7L778.6,194.5z M766.6,214.2l-10.8,17.7
	l-9.5-15.6l10.8-17.7L766.6,214.2z M757,194.7L746.2,177l10.8-17.7l10.8,17.7L757,194.7z M755.9,196.6l-10.8,17.7l-10.8-17.7
	l10.8-17.7L755.9,196.6z M743.9,216.3l-9.5,15.6l-10.8-17.7l9.5-15.6L743.9,216.3z M733.1,194.7L722.2,177l10.8-17.7l10.8,17.7
	L733.1,194.7z M731.9,196.6l-9.5,15.6l-10.8-17.7l9.5-15.6L731.9,196.6z M721.2,214.2l-9.5,15.6l-10.8-17.7l9.5-15.6L721.2,214.2z
	 M710.3,192.6l-10.8-17.7l9.5-15.6l10.8,17.7L710.3,192.6z M709.2,194.5l-9.5,15.6l-10.8-17.7l9.5-15.6L709.2,194.5z M698.5,212.1
	l-9.5,15.6L678.1,210l9.5-15.6L698.5,212.1z M687.6,190.5l-10.8-17.7l9.5-15.6l10.8,17.7L687.6,190.5z M686.5,192.4L677,208
	l-10.8-17.7l9.5-15.6L686.5,192.4z M675.8,210l-9.5,15.6l-10.8-17.7l9.5-15.6L675.8,210z M664.9,188.4l-10.8-17.7l9.5-15.6
	l10.8,17.7L664.9,188.4z M663.8,190.3l-9.5,15.6l-10.8-17.7l9.5-15.6L663.8,190.3z M653.1,207.8l-9.5,15.6l-10.8-17.7l9.5-15.6
	L653.1,207.8z M642.2,186.3l-10.8-17.7l9.5-15.6l10.8,17.7L642.2,186.3z M641.1,188.2l-9.5,15.6l-10.8-17.7l9.5-15.6L641.1,188.2z
	 M630.3,205.7l-9.5,15.6L610,203.6l9.5-15.6L630.3,205.7z M619.5,184.1l-10.8-17.7l9.5-15.6l10.8,17.7L619.5,184.1z M618.4,186.1
	l-9.5,15.6L598,183.9l9.5-15.6L618.4,186.1z M607.6,203.6l-9.5,15.6l-10.8-17.7l9.5-15.6L607.6,203.6z M596.8,182L586,164.3
	l9.5-15.6l10.8,17.7L596.8,182z M595.6,183.9l-9.5,15.6l-10.8-17.7l9.5-15.6L595.6,183.9z M291.9,200l9.5,15.6l-10.8,17.7l-9.5-15.6
	L291.9,200z M279.9,215.8l-9.5-15.6l10.8-17.7l9.5,15.6L279.9,215.8z M539.4,158.1l-10.8-17.7l9.5-15.6l10.8,17.7L539.4,158.1z
	 M550.1,144.4l10.8,17.7l-9.5,15.6L540.6,160L550.1,144.4z M538.2,160.1l-9.5,15.6L517.9,158l9.5-15.6L538.2,160.1z M516.7,156
	l-10.8-17.7l9.5-15.6l10.8,17.7L516.7,156z M515.5,157.9l-9.5,15.6l-10.8-17.7l9.5-15.6L515.5,157.9z M494,153.9l-10.8-17.7
	l9.5-15.6l10.8,17.7L494,153.9z M492.8,155.8l-9.5,15.6l-10.8-17.7l9.5-15.6L492.8,155.8z M471.3,151.8l-10.7-17.6l9.5-15.6
	l10.7,17.6L471.3,151.8z M470.1,153.7l-9.5,15.6l-10.7-17.6l9.5-15.6L470.1,153.7z M416.1,203l-9.5-15.5l9.9-16.3l9.5,15.5
	L416.1,203z M414.9,204.9l-10.8,17.7l-9.5-15.5l10.8-17.7L414.9,204.9z M393.4,205.2l-9.5-15.6l10.8-17.7l9.5,15.6L393.4,205.2z
	 M392.3,207.2l-10.8,17.7l-9.5-15.6l10.8-17.7L392.3,207.2z M370.7,207.4l-9.5-15.6L372,174l9.5,15.6L370.7,207.4z M369.5,209.3
	L358.7,227l-9.5-15.6l10.8-17.7L369.5,209.3z M348,209.5l-9.5-15.6l10.8-17.7l9.5,15.6L348,209.5z M346.8,211.4L336,229.1l-9.5-15.6
	l10.8-17.7L346.8,211.4z M325.3,211.6l-9.5-15.6l10.8-17.7l9.5,15.6L325.3,211.6z M324.1,213.5l-10.8,17.7l-9.5-15.6l10.8-17.7
	L324.1,213.5z M302.6,213.7l-9.5-15.6l10.8-17.7l9.5,15.6L302.6,213.7z M302.6,217.5l9.5,15.6l-10.8,17.7l-9.5-15.6L302.6,217.5z
	 M313.3,235.1l9.5,15.6L312,268.5l-9.5-15.6L313.3,235.1z M314.5,233.2l10.8-17.7l9.5,15.6L324,248.8L314.5,233.2z M336,233
	l9.5,15.6l-10.8,17.7l-9.5-15.6L336,233z M337.2,231.1l10.8-17.7l9.5,15.6l-10.8,17.7L337.2,231.1z M358.7,230.9l9.5,15.6
	l-10.8,17.7l-9.5-15.6L358.7,230.9z M359.9,228.9l10.8-17.7l9.5,15.6l-10.8,17.7L359.9,228.9z M381.4,228.7l9.5,15.5L380.1,262
	l-9.5-15.5L381.4,228.7z M382.6,226.8l10.8-17.7l9.5,15.5l-10.8,17.7L382.6,226.8z M438,171.2l10.7,17.6l-9.5,15.6l-10.7-17.6
	L438,171.2z M439.1,169.3l9.5-15.6l10.7,17.6l-9.5,15.6L439.1,169.3z M460.6,173.2l10.8,17.7l-9.5,15.6L451,188.8L460.6,173.2z
	 M461.7,171.3l9.5-15.6l10.8,17.7l-9.5,15.6L461.7,171.3z M483.3,175.3l10.8,17.7l-9.5,15.6l-10.8-17.7L483.3,175.3z M484.5,173.4
	l9.5-15.6l10.8,17.7l-9.5,15.6L484.5,173.4z M506,177.4l10.8,17.7l-9.5,15.6L496.5,193L506,177.4z M507.2,175.5l9.5-15.6l10.8,17.7
	l-9.5,15.6L507.2,175.5z M528.7,179.5l10.8,17.7l-9.5,15.6l-10.8-17.7L528.7,179.5z M529.9,177.6l9.5-15.6l10.8,17.7l-9.5,15.6
	L529.9,177.6z M551.4,181.6l10.8,17.7l-9.5,15.6l-10.8-17.7L551.4,181.6z M552.6,179.7l9.5-15.6l10.8,17.7l-9.5,15.6L552.6,179.7z
	 M574.1,183.8l10.8,17.7l-9.5,15.6l-10.8-17.7L574.1,183.8z M574.1,179.9l-10.8-17.7l9.5-15.6l10.8,17.7L574.1,179.9z M562.1,160.2
	l-10.8-17.7l9.5-15.6l10.8,17.7L562.1,160.2z M550.1,140.6l-10.8-17.7l9.5-15.6l10.8,17.7L550.1,140.6z M538.1,120.9l-10.8-17.7
	l9.5-15.6l10.8,17.7L538.1,120.9z M536.9,122.8l-9.5,15.6l-10.8-17.7l9.5-15.6L536.9,122.8z M515.4,118.8l-10.8-17.7l9.5-15.6
	l10.8,17.7L515.4,118.8z M514.2,120.7l-9.5,15.6l-10.8-17.7l9.5-15.6L514.2,120.7z M492.7,116.7L482,99.1l9.5-15.6l10.7,17.6
	L492.7,116.7z M491.5,118.6l-9.5,15.6l-10.7-17.6l9.5-15.6L491.5,118.6z M437.9,167.2l-9.5-15.5l9.5-15.6l9.5,15.5L437.9,167.2z
	 M436.7,169.1l-9.5,15.6l-9.5-15.5l9.5-15.6L436.7,169.1z M416.5,167.4l-9.5-15.6l9.5-15.6l9.5,15.6L416.5,167.4z M415.4,169.3
	l-9.9,16.3L396,170l9.9-16.3L415.4,169.3z M394.7,168l-9.5-15.6l9.9-16.3l9.5,15.6L394.7,168z M393.5,169.9l-10.8,17.7l-9.5-15.6
	l10.8-17.7L393.5,169.9z M372,170.1l-9.5-15.6l10.8-17.7l9.5,15.6L372,170.1z M370.8,172.1L360,189.8l-9.5-15.6l10.8-17.7
	L370.8,172.1z M349.3,172.3l-9.5-15.6l10.8-17.7l9.5,15.6L349.3,172.3z M348.1,174.2l-10.8,17.7l-9.5-15.6l10.8-17.7L348.1,174.2z
	 M326.6,174.4l-9.5-15.6l10.8-17.7l9.5,15.6L326.6,174.4z M325.4,176.3L314.6,194l-9.5-15.6l10.8-17.7L325.4,176.3z M303.9,176.5
	l-9.5-15.6l10.8-17.7l9.5,15.6L303.9,176.5z M302.7,178.4l-10.8,17.7l-9.5-15.6l10.8-17.7L302.7,178.4z M281.2,178.6l-9.5-15.6
	l10.8-17.7l9.5,15.6L281.2,178.6z M280,180.5l-10.8,17.7l-9.5-15.6l10.8-17.7L280,180.5z M268,200.2l-10.8,17.7l-9.5-15.6l10.8-17.7
	L268,200.2z M258.5,180.7l-9.5-15.6l10.8-17.7l9.5,15.6L258.5,180.7z M257.3,182.6l-10.8,17.7l-9.5-15.6l10.8-17.7L257.3,182.6z
	 M245.3,202.3L234.5,220l-9.5-15.6l10.8-17.7L245.3,202.3z M235.8,182.8l-9.5-15.6l10.8-17.7l9.5,15.6L235.8,182.8z M234.6,184.7
	l-10.8,17.7l-9.5-15.6l10.8-17.7L234.6,184.7z M222.6,204.4l-10.8,17.7l-9.5-15.6l10.8-17.7L222.6,204.4z M213.1,184.9l-9.5-15.6
	l10.8-17.7l9.5,15.6L213.1,184.9z M211.9,186.9l-10.8,17.7l-9.5-15.6l10.8-17.7L211.9,186.9z M199.9,206.5l-10.8,17.7l-9.5-15.6
	l10.8-17.7L199.9,206.5z M190.4,187.1l-9.5-15.6l10.8-17.7l9.5,15.6L190.4,187.1z M189.2,189l-10.8,17.7l-9.5-15.6l10.8-17.7
	L189.2,189z M177.2,208.6l-10.8,17.7l-9.5-15.6l10.8-17.7L177.2,208.6z M167.7,189.2l-9.5-15.6l10.8-17.7l9.5,15.6L167.7,189.2z
	 M166.5,191.1l-10.8,17.7l-9.5-15.6l10.8-17.7L166.5,191.1z M154.5,210.8l-10.8,17.7l-9.5-15.6l10.8-17.7L154.5,210.8z M145,191.3
	l-9.5-15.6l10.8-17.7l9.5,15.6L145,191.3z M143.8,193.2L133,210.9l-9.5-15.6l10.8-17.7L143.8,193.2z M131.8,212.9L121,230.6
	l-9.5-15.6l10.8-17.7L131.8,212.9z M122.2,193.4l-10.8-17.7l10.8-17.7l10.8,17.7L122.2,193.4z M121.1,195.3L110.3,213l-10.8-17.7
	l10.8-17.7L121.1,195.3z M109.1,215l-10.8,17.7L87.4,215l10.8-17.7L109.1,215z M98.2,193.4l-10.8-17.7L98.2,158l10.8,17.7
	L98.2,193.4z M97.1,195.3L86.3,213l-10.8-17.7l10.8-17.7L97.1,195.3z M85.1,215l-9.5,15.6l-10.8-17.7l9.5-15.6L85.1,215z
	 M74.3,193.4l-10.8-17.7L74.3,158l10.8,17.7L74.3,193.4z M73.1,195.3L63.5,211l-10.8-17.7l9.5-15.6L73.1,195.3z M62.4,212.9
	l-9.5,15.6L42,210.8l9.5-15.6L62.4,212.9z M51.5,191.3l-10.8-17.7l9.5-15.6L61,175.7L51.5,191.3z M50.4,193.2l-9.5,15.6L30,191.1
	l9.5-15.6L50.4,193.2z M39.7,210.8l-9.5,15.6l-10.8-17.7l9.5-15.6L39.7,210.8z M28.8,189.2L18,171.4l9.5-15.6l10.8,17.7L28.8,189.2z
	 M27.7,191.1l-9.5,15.6L7.3,189l9.5-15.6L27.7,191.1z M17,208.6l-9.5,15.6l-10.8-17.7l9.5-15.6L17,208.6z M6.1,187.1l-10.8-17.7
	l9.5-15.6l10.8,17.7L6.1,187.1z M5,189l-9.5,15.6l-10.8-17.7l9.5-15.6L5,189z M-5.7,206.5l-9.5,15.6L-26,204.4l9.5-15.6L-5.7,206.5z
	 M-16.6,184.9l-10.8-17.7l9.5-15.6L-7,169.3L-16.6,184.9z M-17.7,186.9l-9.5,15.6L-38,184.8l9.5-15.6L-17.7,186.9z M-28.5,204.4
	L-38,220l-10.8-17.7l9.5-15.6L-28.5,204.4z M-39.3,182.8l-10.8-17.7l9.5-15.6l10.8,17.7L-39.3,182.8z M-40.5,184.7l-9.5,15.6
	l-10.8-17.7l9.5-15.6L-40.5,184.7z M-51.2,202.3l-9.5,15.6l-10.8-17.7l9.5-15.6L-51.2,202.3z M-61.9,219.8l-9.5,15.6l-10.8-17.7
	l9.5-15.6L-61.9,219.8z M-60.7,221.8l10.8,17.7l-9.5,15.6l-10.8-17.7L-60.7,221.8z M-59.5,219.8l9.5-15.6l10.8,17.7l-9.5,15.6
	L-59.5,219.8z M-38,223.9l10.8,17.7l-9.5,15.6l-10.8-17.7L-38,223.9z M-36.8,222l9.5-15.6l10.8,17.7l-9.5,15.6L-36.8,222z
	 M-15.3,226l10.8,17.7l-9.5,15.6l-10.8-17.7L-15.3,226z M-14.1,224.1l9.5-15.6l10.8,17.7l-9.5,15.6L-14.1,224.1z M7.4,228.1
	l10.8,17.7l-9.5,15.6l-10.8-17.7L7.4,228.1z M8.6,226.2l9.5-15.6L29,228.3l-9.5,15.6L8.6,226.2z M30.1,230.2L41,248l-9.5,15.6
	l-10.8-17.7L30.1,230.2z M31.3,228.3l9.5-15.6l10.8,17.7L42.1,246L31.3,228.3z M52.8,232.3L63.6,250l-9.5,15.6L43.3,248L52.8,232.3z
	 M54,230.4l9.5-15.6l10.8,17.7l-9.5,15.6L54,230.4z M75.5,234.5l10.8,17.7l-9.5,15.6L66,250.1L75.5,234.5z M76.7,232.5l9.5-15.6
	L97,234.6l-9.5,15.6L76.7,232.5z M98.2,236.6l9.5,15.6l-9.5,15.6l-9.5-15.6L98.2,236.6z M99.4,234.6l10.8-17.7l9.5,15.6L109,250.3
	L99.4,234.6z M121,234.5l9.5,15.6l-10.8,17.7l-9.5-15.6L121,234.5z M122.1,232.5l10.8-17.7l9.5,15.6l-10.8,17.7L122.1,232.5z
	 M143.7,232.3l9.5,15.6l-10.8,17.7l-9.5-15.6L143.7,232.3z M144.8,230.4l10.8-17.7l9.5,15.6L154.3,246L144.8,230.4z M166.4,230.2
	l9.5,15.6l-10.8,17.7l-9.5-15.6L166.4,230.2z M167.5,228.3l10.8-17.7l9.5,15.6L177,243.9L167.5,228.3z M189.1,228.1l9.5,15.6
	l-10.8,17.7l-9.5-15.6L189.1,228.1z M190.2,226.2l10.8-17.7l9.5,15.6l-10.8,17.7L190.2,226.2z M211.8,226l9.5,15.6l-10.8,17.7
	l-9.5-15.6L211.8,226z M213,224.1l10.8-17.7l9.5,15.6l-10.8,17.7L213,224.1z M234.5,223.9l9.5,15.6l-10.8,17.7l-9.5-15.6
	L234.5,223.9z M235.7,222l10.8-17.7l9.5,15.6l-10.8,17.7L235.7,222z M257.2,221.8l9.5,15.6l-10.8,17.7l-9.5-15.6L257.2,221.8z
	 M258.4,219.8l10.8-17.7l9.5,15.6l-10.8,17.7L258.4,219.8z M279.9,219.7l9.5,15.6L278.6,253l-9.5-15.6L279.9,219.7z M290.6,237.2
	l9.5,15.6l-10.8,17.7l-9.5-15.6L290.6,237.2z M301.3,254.8l9.5,15.6L300,288.1l-9.5-15.6L301.3,254.8z M312,272.3l9.5,15.6
	l-10.8,17.7l-9.5-15.6L312,272.3z M313.2,270.4l10.8-17.7l9.5,15.6L322.7,286L313.2,270.4z M334.7,270.2l9.5,15.6l-10.8,17.7
	l-9.5-15.6L334.7,270.2z M335.9,268.3l10.8-17.7l9.5,15.6l-10.8,17.7L335.9,268.3z M357.4,268.1l9.5,15.5l-10.8,17.7l-9.5-15.5
	L357.4,268.1z M358.6,266.2l10.8-17.7l9.5,15.5l-10.8,17.7L358.6,266.2z M416.1,207l10.7,17.6L416,242.3l-10.7-17.6L416.1,207z
	 M417.3,205l9.9-16.3l10.7,17.6l-9.9,16.3L417.3,205z M439.2,208.3L450,226l-9.9,16.3l-10.8-17.7L439.2,208.3z M440.3,206.4
	l9.5-15.6l10.8,17.7l-9.5,15.6L440.3,206.4z M461.9,210.4l10.8,17.7l-9.5,15.6L452.3,226L461.9,210.4z M463,208.5l9.5-15.6
	l10.8,17.7l-9.5,15.6L463,208.5z M484.6,212.5l10.8,17.7l-9.5,15.6L475,228.1L484.6,212.5z M485.7,210.6l9.5-15.6l10.8,17.7
	l-9.5,15.6L485.7,210.6z M507.3,214.6l10.8,17.7l-9.5,15.6l-10.8-17.7L507.3,214.6z M508.5,212.7l9.5-15.6l10.8,17.7l-9.5,15.6
	L508.5,212.7z M530,216.7l10.8,17.7l-9.5,15.6l-10.8-17.7L530,216.7z M531.2,214.8l9.5-15.6l10.8,17.7l-9.5,15.6L531.2,214.8z
	 M552.7,218.9l10.8,17.7l-9.5,15.6l-10.8-17.7L552.7,218.9z M553.9,216.9l9.5-15.6l10.8,17.7l-9.5,15.6L553.9,216.9z M575.4,221
	l10.8,17.7l-9.5,15.6l-10.8-17.7L575.4,221z M576.6,219.1l9.5-15.6l10.8,17.7l-9.5,15.6L576.6,219.1z M598.1,223.1l10.8,17.7
	l-9.5,15.6l-10.8-17.7L598.1,223.1z M599.3,221.2l9.5-15.6l10.8,17.7l-9.5,15.6L599.3,221.2z M620.8,225.2l10.8,17.7l-9.5,15.6
	l-10.8-17.7L620.8,225.2z M622,223.3l9.5-15.6l10.8,17.7l-9.5,15.6L622,223.3z M643.5,227.3l10.8,17.7l-9.5,15.6L634,242.9
	L643.5,227.3z M644.7,225.4l9.5-15.6l10.8,17.7l-9.5,15.6L644.7,225.4z M666.2,229.4l10.8,17.7l-9.5,15.6L656.7,245L666.2,229.4z
	 M667.4,227.5l9.5-15.6l10.8,17.7l-9.5,15.6L667.4,227.5z M688.9,231.5l10.8,17.7l-9.5,15.6l-10.8-17.7L688.9,231.5z M690.1,229.6
	l9.5-15.6l10.8,17.7l-9.5,15.6L690.1,229.6z M711.6,233.7l10.8,17.7l-9.5,15.6l-10.8-17.7L711.6,233.7z M712.8,231.7l9.5-15.6
	l10.8,17.7l-9.5,15.6L712.8,231.7z M734.3,235.8l9.5,15.6l-9.5,15.6l-9.5-15.6L734.3,235.8z M735.5,233.9l9.5-15.6l9.5,15.6
	l-9.5,15.6L735.5,233.9z M755.8,235.8l9.5,15.6l-9.5,15.6l-9.5-15.6L755.8,235.8z M756.9,233.9l10.8-17.7l9.5,15.6l-10.8,17.7
	L756.9,233.9z M778.5,233.7l9.5,15.6L777.2,267l-9.5-15.6L778.5,233.7z M779.6,231.7l10.8-17.7l9.5,15.6l-10.8,17.7L779.6,231.7z
	 M801.2,231.5l9.5,15.6l-10.8,17.7l-9.5-15.6L801.2,231.5z M802.3,229.6l10.8-17.7l9.5,15.6l-10.8,17.7L802.3,229.6z M823.9,229.4
	l9.5,15.6l-10.8,17.7l-9.5-15.6L823.9,229.4z M825,227.5l10.8-17.7l9.5,15.6l-10.8,17.7L825,227.5z M846.6,227.3l9.5,15.6
	l-10.8,17.7l-9.5-15.6L846.6,227.3z M847.8,225.4l10.8-17.7l9.5,15.6L857.3,241L847.8,225.4z M869.3,225.2l9.5,15.6L868,258.6
	l-9.5-15.6L869.3,225.2z M870.5,223.3l10.8-17.7l9.5,15.6L880,238.9L870.5,223.3z M892,223.1l9.5,15.6l-10.8,17.7l-9.5-15.6
	L892,223.1z M893.2,221.2l10.8-17.7l9.5,15.6l-10.8,17.7L893.2,221.2z M905.2,201.5l10.8-17.7l9.5,15.6l-10.8,17.7L905.2,201.5z
	 M917.2,181.8l10.8-17.7l9.5,15.6l-10.8,17.7L917.2,181.8z M916,179.9l-9.5-15.6l10.8-17.7l9.5,15.6L916,179.9z M905.3,162.4
	l-9.5-15.6l10.8-17.7l9.5,15.6L905.3,162.4z M894.6,144.8l-9.5-15.6l10.8-17.7l9.5,15.6L894.6,144.8z M893.4,146.7l-10.8,17.7
	l-9.5-15.6l10.8-17.7L893.4,146.7z M871.9,146.9l-9.5-15.6l10.8-17.7l9.5,15.6L871.9,146.9z M870.7,148.8l-10.8,17.7l-9.5-15.6
	l10.8-17.7L870.7,148.8z M849.2,149l-9.5-15.6l10.8-17.7l9.5,15.6L849.2,149z M848,151l-10.8,17.7l-9.5-15.6l10.8-17.7L848,151z
	 M826.5,151.2l-9.5-15.6l10.8-17.7l9.5,15.6L826.5,151.2z M825.3,153.1l-10.8,17.7l-9.5-15.6l10.8-17.7L825.3,153.1z M803.8,153.3
	l-9.5-15.6l10.8-17.7l9.5,15.6L803.8,153.3z M802.6,155.2l-10.8,17.7l-9.5-15.6l10.8-17.7L802.6,155.2z M781,155.4l-10.8-17.7
	L781,120l10.8,17.7L781,155.4z M779.9,157.3L769,175.1l-10.8-17.7l10.8-17.7L779.9,157.3z M757,155.4l-10.8-17.7L757,120l10.8,17.7
	L757,155.4z M755.9,157.3L745.1,175l-10.8-17.7l10.8-17.7L755.9,157.3z M733.1,155.4l-10.8-17.7l10.8-17.7l10.8,17.7L733.1,155.4z
	 M731.9,157.3L721.1,175l-10.8-17.7l10.8-17.7L731.9,157.3z M709.1,155.4l-10.8-17.7l10.8-17.7l10.8,17.7L709.1,155.4z M707.9,157.3
	l-9.5,15.6l-10.8-17.7l9.5-15.6L707.9,157.3z M686.3,153.3l-10.8-17.7L685,120l10.8,17.7L686.3,153.3z M685.2,155.2l-9.5,15.6
	l-10.8-17.7l9.5-15.6L685.2,155.2z M663.6,151.2l-10.8-17.7l9.5-15.6l10.8,17.7L663.6,151.2z M662.5,153.1l-9.5,15.6L642.1,151
	l9.5-15.6L662.5,153.1z M640.9,149l-10.8-17.7l9.5-15.6l10.8,17.7L640.9,149z M639.8,151l-9.5,15.6l-10.8-17.7l9.5-15.6L639.8,151z
	 M618.2,146.9l-10.8-17.7l9.5-15.6l10.8,17.7L618.2,146.9z M617.1,148.8l-9.5,15.6l-10.8-17.7l9.5-15.6L617.1,148.8z M595.5,144.8
	l-10.8-17.7l9.5-15.6l10.8,17.7L595.5,144.8z M594.4,146.7l-9.5,15.6L574,144.6l9.5-15.6L594.4,146.7z M572.8,142.7L562,125
	l9.5-15.6l10.8,17.7L572.8,142.7z M560.8,123L550,105.3l9.5-15.6l10.8,17.7L560.8,123z M548.8,103.4L538,85.6l9.5-15.6l10.8,17.7
	L548.8,103.4z M536.8,83.7L526,66l9.5-15.6l10.8,17.7L536.8,83.7z M535.7,85.6l-9.5,15.6l-10.8-17.7l9.5-15.6L535.7,85.6z
	 M514.1,81.6L503.4,64l9.5-15.6L523.7,66L514.1,81.6z M512.9,83.5l-9.5,15.6l-10.7-17.6l9.5-15.6L512.9,83.5z M459.3,132.1
	l-9.5-15.5l9.5-15.6l9.5,15.5L459.3,132.1z M458.1,134l-9.5,15.6l-9.5-15.5l9.5-15.6L458.1,134z M438,132.3l-9.5-15.6L438,101
	l9.5,15.6L438,132.3z M436.8,134.2l-9.5,15.6l-9.5-15.6l9.5-15.6L436.8,134.2z M416.5,132.3l-9.5-15.6l9.5-15.6l9.5,15.6
	L416.5,132.3z M415.4,134.2l-9.5,15.6l-9.5-15.6l9.5-15.6L415.4,134.2z M395.1,132.3l-9.5-15.6l9.5-15.6l9.5,15.6L395.1,132.3z
	 M394,134.2l-9.9,16.3l-9.5-15.6l9.9-16.3L394,134.2z M373.3,132.9l-9.5-15.6l9.9-16.3l9.5,15.6L373.3,132.9z M372.1,134.8
	l-10.8,17.7l-9.5-15.6l10.8-17.7L372.1,134.8z M350.6,135l-9.5-15.6l10.8-17.7l9.5,15.6L350.6,135z M349.4,137l-10.8,17.7l-9.5-15.6
	l10.8-17.7L349.4,137z M327.9,137.1l-9.5-15.6l10.8-17.7l9.5,15.6L327.9,137.1z M326.7,139.1l-10.8,17.7l-9.5-15.6l10.8-17.7
	L326.7,139.1z M305.2,139.3l-9.5-15.6l10.8-17.7l9.5,15.6L305.2,139.3z M304,141.2l-10.8,17.7l-9.5-15.6l10.8-17.7L304,141.2z
	 M282.5,141.4l-9.5-15.6l10.8-17.7l9.5,15.6L282.5,141.4z M281.3,143.3L270.5,161l-9.5-15.6l10.8-17.7L281.3,143.3z M259.8,143.5
	l-9.5-15.6l10.8-17.7l9.5,15.6L259.8,143.5z M258.6,145.4l-10.8,17.7l-9.5-15.6l10.8-17.7L258.6,145.4z M237.1,145.6l-9.5-15.6
	l10.8-17.7l9.5,15.6L237.1,145.6z M235.9,147.5l-10.8,17.7l-9.5-15.6l10.8-17.7L235.9,147.5z M214.4,147.7l-9.5-15.6l10.8-17.7
	l9.5,15.6L214.4,147.7z M213.2,149.6l-10.8,17.7l-9.5-15.6l10.8-17.7L213.2,149.6z M191.7,149.8l-9.5-15.6l10.8-17.7l9.5,15.6
	L191.7,149.8z M190.5,151.8l-10.8,17.7l-9.5-15.6l10.8-17.7L190.5,151.8z M168.9,152l-9.5-15.6l10.8-17.7l9.5,15.6L168.9,152z
	 M167.8,153.9L157,171.6l-9.5-15.6l10.8-17.7L167.8,153.9z M146.2,154.1l-10.8-17.7l10.8-17.7l10.8,17.7L146.2,154.1z M145.1,156
	l-10.8,17.7L123.4,156l10.8-17.7L145.1,156z M122.2,154.1l-10.8-17.7l10.8-17.7l10.8,17.7L122.2,154.1z M121.1,156l-10.8,17.7
	L99.4,156l10.8-17.7L121.1,156z M98.2,154.1l-10.8-17.7l10.8-17.7l10.8,17.7L98.2,154.1z M97.1,156l-10.8,17.7L75.4,156l10.8-17.7
	L97.1,156z M74.3,154.1l-10.8-17.7l10.8-17.7l10.8,17.7L74.3,154.1z M73.1,156l-10.8,17.7L51.4,156l10.8-17.7L73.1,156z M50.3,154.1
	l-10.8-17.7l10.8-17.7l10.8,17.7L50.3,154.1z M49.1,156l-9.5,15.6l-10.8-17.7l9.5-15.6L49.1,156z M27.5,152l-10.8-17.7l9.5-15.6
	L37,136.4L27.5,152z M26.4,153.9l-9.5,15.6L6,151.8l9.5-15.6L26.4,153.9z M4.8,149.8L-6,132.1l9.5-15.6l10.8,17.7L4.8,149.8z
	 M3.7,151.8l-9.5,15.6l-10.8-17.7l9.5-15.6L3.7,151.8z M-17.9,147.7L-28.7,130l9.5-15.6l10.8,17.7L-17.9,147.7z M-19,149.6
	l-9.5,15.6l-10.8-17.7l9.5-15.6L-19,149.6z M-40.6,145.6l-10.8-17.7l9.5-15.6L-31,130L-40.6,145.6z M-41.7,147.5l-9.5,15.6
	L-62,145.4l9.5-15.6L-41.7,147.5z M-52.4,165.1l-9.5,15.6L-72.8,163l9.5-15.6L-52.4,165.1z M-63.2,182.6l-9.5,15.6l-10.8-17.7
	l9.5-15.6L-63.2,182.6z M-73.9,200.2l-9.5,15.6l-10.8-17.7l9.5-15.6L-73.9,200.2z M-84.6,217.7l-9.5,15.6l-10.8-17.7l9.5-15.6
	L-84.6,217.7z M-83.4,219.7l10.8,17.7l-9.5,15.6l-10.8-17.7L-83.4,219.7z M-71.4,239.3l10.8,17.7l-9.5,15.6l-10.8-17.7L-71.4,239.3z
	 M-59.4,259l10.8,17.7l-9.5,15.6l-10.8-17.7L-59.4,259z M-58.2,257.1l9.5-15.6l10.8,17.7l-9.5,15.6L-58.2,257.1z M-36.7,261.1
	l10.8,17.7l-9.5,15.6l-10.8-17.7L-36.7,261.1z M-35.5,259.2l9.5-15.6l10.8,17.7l-9.5,15.6L-35.5,259.2z M-14,263.2L-3.2,281
	l-9.5,15.6l-10.8-17.7L-14,263.2z M-12.8,261.3l9.5-15.6l10.8,17.7L-2,279L-12.8,261.3z M8.7,265.3L19.5,283L10,298.7L-0.8,281
	L8.7,265.3z M9.9,263.4l9.5-15.6l10.8,17.7l-9.5,15.6L9.9,263.4z M31.4,267.4l10.8,17.7l-9.5,15.6L21.9,283L31.4,267.4z M32.6,265.5
	l9.5-15.6L53,267.6l-9.5,15.6L32.6,265.5z M54.1,269.6L65,287.3l-9.5,15.6l-10.8-17.7L54.1,269.6z M55.3,267.6l9.5-15.6l10.8,17.7
	l-9.5,15.6L55.3,267.6z M76.8,271.7l9.5,15.6l-9.5,15.6l-9.5-15.6L76.8,271.7z M78,269.8l9.5-15.6l9.5,15.6l-9.5,15.6L78,269.8z
	 M98.2,271.7l9.5,15.6l-9.5,15.6l-9.5-15.6L98.2,271.7z M99.4,269.8l9.5-15.6l9.5,15.6l-9.5,15.6L99.4,269.8z M119.7,271.7l9.5,15.6
	l-9.5,15.6l-9.5-15.6L119.7,271.7z M120.8,269.8l10.8-17.7l9.5,15.6l-10.8,17.7L120.8,269.8z M142.4,269.6l9.5,15.6l-10.8,17.7
	l-9.5-15.6L142.4,269.6z M143.5,267.6l10.8-17.7l9.5,15.6L153,283.2L143.5,267.6z M165.1,267.4l9.5,15.6l-10.8,17.7l-9.5-15.6
	L165.1,267.4z M166.2,265.5l10.8-17.7l9.5,15.6l-10.8,17.7L166.2,265.5z M187.8,265.3l9.5,15.6l-10.8,17.7L177,283L187.8,265.3z
	 M189,263.4l10.8-17.7l9.5,15.6L198.5,279L189,263.4z M210.5,263.2l9.5,15.6l-10.8,17.7l-9.5-15.6L210.5,263.2z M211.7,261.3
	l10.8-17.7l9.5,15.6l-10.8,17.7L211.7,261.3z M233.2,261.1l9.5,15.6l-10.8,17.7l-9.5-15.6L233.2,261.1z M234.4,259.2l10.8-17.7
	l9.5,15.6l-10.8,17.7L234.4,259.2z M255.9,259l9.5,15.6l-10.8,17.7l-9.5-15.6L255.9,259z M257.1,257.1l10.8-17.7l9.5,15.6
	l-10.8,17.7L257.1,257.1z M278.6,256.9l9.5,15.6l-10.8,17.7l-9.5-15.6L278.6,256.9z M289.3,274.4l9.5,15.6L288,307.8l-9.5-15.6
	L289.3,274.4z M300,292l9.5,15.6l-10.8,17.7l-9.5-15.6L300,292z M310.7,309.5l9.5,15.6l-10.8,17.7l-9.5-15.6L310.7,309.5z
	 M311.9,307.6l10.8-17.7l9.5,15.6l-10.8,17.7L311.9,307.6z M333.4,307.4l9.5,15.5l-10.8,17.7l-9.5-15.5L333.4,307.4z M334.6,305.5
	l10.8-17.7l9.5,15.5L344.1,321L334.6,305.5z M392.1,246.3l10.7,17.6L392,281.6L381.3,264L392.1,246.3z M393.3,244.4l10.8-17.7
	l10.7,17.6L404.1,262L393.3,244.4z M416.1,246.2l10.8,17.7l-10.8,17.7l-10.8-17.7L416.1,246.2z M417.2,244.2l10.8-17.7l10.8,17.7
	L428.1,262L417.2,244.2z M440,246.2l10.8,17.7L440,281.7L429.2,264L440,246.2z M441.2,244.2l9.9-16.3l10.8,17.7L452,262L441.2,244.2
	z M463.2,247.6l10.8,17.7l-9.9,16.3l-10.8-17.7L463.2,247.6z M464.3,245.7l9.5-15.6l10.8,17.7l-9.5,15.6L464.3,245.7z M485.9,249.7
	l10.8,17.7l-9.5,15.6l-10.8-17.7L485.9,249.7z M487,247.8l9.5-15.6l10.8,17.7l-9.5,15.6L487,247.8z M508.6,251.8l10.8,17.7
	l-9.5,15.6L499,267.5L508.6,251.8z M509.7,249.9l9.5-15.6L530,252l-9.5,15.6L509.7,249.9z M531.3,254l10.8,17.7l-9.5,15.6
	l-10.8-17.7L531.3,254z M532.4,252l9.5-15.6l10.8,17.7l-9.5,15.6L532.4,252z M554,256.1l10.8,17.7l-9.5,15.6l-10.8-17.7L554,256.1z
	 M555.2,254.2l9.5-15.6l10.8,17.7l-9.5,15.6L555.2,254.2z M576.7,258.2l10.8,17.7l-9.5,15.6l-10.8-17.7L576.7,258.2z M577.9,256.3
	l9.5-15.6l10.8,17.7l-9.5,15.6L577.9,256.3z M599.4,260.3l10.8,17.7l-9.5,15.6l-10.8-17.7L599.4,260.3z M600.6,258.4l9.5-15.6
	l10.8,17.7l-9.5,15.6L600.6,258.4z M622.1,262.4l10.8,17.7l-9.5,15.6L612.6,278L622.1,262.4z M623.3,260.5l9.5-15.6l10.8,17.7
	l-9.5,15.6L623.3,260.5z M644.8,264.5l10.8,17.7l-9.5,15.6l-10.8-17.7L644.8,264.5z M646,262.6l9.5-15.6l10.8,17.7l-9.5,15.6
	L646,262.6z M667.5,266.6l10.8,17.7l-9.5,15.6L658,282.3L667.5,266.6z M668.7,264.7l9.5-15.6l10.8,17.7l-9.5,15.6L668.7,264.7z
	 M690.2,268.8l10.8,17.7l-9.5,15.6l-10.8-17.7L690.2,268.8z M691.4,266.8l9.5-15.6l10.8,17.7l-9.5,15.6L691.4,266.8z M712.9,270.9
	l9.5,15.6l-9.5,15.6l-9.5-15.6L712.9,270.9z M714.1,269l9.5-15.6l9.5,15.6l-9.5,15.6L714.1,269z M734.3,270.9l9.5,15.6l-9.5,15.6
	l-9.5-15.6L734.3,270.9z M735.5,269l9.5-15.6l9.5,15.6l-9.5,15.6L735.5,269z M755.8,270.9l9.5,15.6l-9.5,15.6l-9.5-15.6L755.8,270.9
	z M756.9,269l9.5-15.6L776,269l-9.5,15.6L756.9,269z M777.2,270.9l9.5,15.6l-9.5,15.6l-9.5-15.6L777.2,270.9z M778.3,269l10.8-17.7
	l9.5,15.6l-10.8,17.7L778.3,269z M799.9,268.8l9.5,15.6l-10.8,17.7l-9.5-15.6L799.9,268.8z M801.1,266.8l10.8-17.7l9.5,15.6
	l-10.8,17.7L801.1,266.8z M822.6,266.6l9.5,15.6L821.3,300l-9.5-15.6L822.6,266.6z M823.8,264.7l10.8-17.7l9.5,15.6l-10.8,17.7
	L823.8,264.7z M845.3,264.5l9.5,15.6L844,297.9l-9.5-15.6L845.3,264.5z M846.5,262.6l10.8-17.7l9.5,15.6L856,278.2L846.5,262.6z
	 M868,262.4l9.5,15.6l-10.8,17.7l-9.5-15.6L868,262.4z M869.2,260.5l10.8-17.7l9.5,15.6l-10.8,17.7L869.2,260.5z M890.7,260.3
	l9.5,15.6l-10.8,17.7l-9.5-15.6L890.7,260.3z M891.9,258.4l10.8-17.7l9.5,15.6L901.4,274L891.9,258.4z M903.9,238.7l10.8-17.7
	l9.5,15.6l-10.8,17.7L903.9,238.7z M915.9,219.1l10.8-17.7l9.5,15.6l-10.8,17.7L915.9,219.1z M927.9,199.4l10.8-17.7l9.5,15.6
	L937.4,215L927.9,199.4z M939.9,179.7l10.8-17.7l9.5,15.6l-10.8,17.7L939.9,179.7z M938.7,177.8l-9.5-15.6l10.8-17.7l9.5,15.6
	L938.7,177.8z M928,160.2l-9.5-15.6l10.8-17.7l9.5,15.6L928,160.2z M917.3,142.7l-9.5-15.6l10.8-17.7l9.5,15.6L917.3,142.7z
	 M906.6,125.1l-9.5-15.6l10.8-17.7l9.5,15.6L906.6,125.1z M895.9,107.6L886.3,92l10.8-17.7l9.5,15.6L895.9,107.6z M894.7,109.5
	l-10.8,17.7l-9.5-15.6l10.8-17.7L894.7,109.5z M873.2,109.7l-9.5-15.6l10.8-17.7L884,92L873.2,109.7z M872,111.6l-10.8,17.7
	l-9.5-15.6L862.5,96L872,111.6z M850.5,111.8L841,96.2l10.8-17.7l9.5,15.6L850.5,111.8z M849.3,113.7l-10.8,17.7l-9.5-15.6
	l10.8-17.7L849.3,113.7z M827.7,113.9l-9.5-15.6L829,80.6l9.5,15.6L827.7,113.9z M826.6,115.9l-10.8,17.7l-9.5-15.6l10.8-17.7
	L826.6,115.9z M805,116.1l-10.8-17.7L805,80.6l10.8,17.7L805,116.1z M803.9,118L793,135.7L782.2,118l10.8-17.7L803.9,118z
	 M781,116.1l-10.8-17.7L781,80.6l10.8,17.7L781,116.1z M779.9,118L769,135.7L758.2,118l10.8-17.7L779.9,118z M757,116.1l-10.8-17.7
	L757,80.6l10.8,17.7L757,116.1z M755.9,118l-10.8,17.7L734.2,118l10.8-17.7L755.9,118z M733.1,116.1l-10.8-17.7l10.8-17.7l10.8,17.7
	L733.1,116.1z M731.9,118l-10.8,17.7L710.2,118l10.8-17.7L731.9,118z M709.1,116.1l-10.8-17.7l10.8-17.7l10.8,17.7L709.1,116.1z
	 M707.9,118l-10.8,17.7L686.2,118l10.8-17.7L707.9,118z M685.1,116.1l-10.8-17.7l10.8-17.7l10.8,17.7L685.1,116.1z M683.9,118
	l-9.5,15.6l-10.8-17.7l9.5-15.6L683.9,118z M662.4,113.9l-10.8-17.7l9.5-15.6l10.8,17.7L662.4,113.9z M661.2,115.9l-9.5,15.6
	l-10.8-17.7l9.5-15.6L661.2,115.9z M639.6,111.8l-10.8-17.7l9.5-15.6l10.8,17.7L639.6,111.8z M638.5,113.7l-9.5,15.6l-10.8-17.7
	l9.5-15.6L638.5,113.7z M616.9,109.7L606.1,92l9.5-15.6l10.8,17.7L616.9,109.7z M615.8,111.6l-9.5,15.6l-10.8-17.7l9.5-15.6
	L615.8,111.6z M594.2,107.6l-10.8-17.7l9.5-15.6L603.8,92L594.2,107.6z M593.1,109.5l-9.5,15.6l-10.8-17.7l9.5-15.6L593.1,109.5z
	 M571.5,105.5l-10.8-17.7l9.5-15.6L581,89.9L571.5,105.5z M559.5,85.8l-10.8-17.7l9.5-15.6L569,70.2L559.5,85.8z M547.5,66.2
	l-10.8-17.7l9.5-15.6L557,50.6L547.5,66.2z M535.5,46.5l-10.7-17.6l9.5-15.6L545,30.9L535.5,46.5z M534.4,48.4L524.8,64l-10.7-17.6
	l9.5-15.6L534.4,48.4z M480.7,97l-9.5-15.5l9.5-15.6l9.5,15.5L480.7,97z M479.5,98.9l-9.5,15.6L460.5,99l9.5-15.6L479.5,98.9z
	 M459.4,97.2l-9.5-15.6l9.5-15.6l9.5,15.6L459.4,97.2z M458.2,99.1l-9.5,15.6l-9.5-15.6l9.5-15.6L458.2,99.1z M438,97.2l-9.5-15.6
	L438,66l9.5,15.6L438,97.2z M436.8,99.1l-9.5,15.6l-9.5-15.6l9.5-15.6L436.8,99.1z M416.5,97.2L407,81.5l9.5-15.6l9.5,15.6
	L416.5,97.2z M415.4,99.1l-9.5,15.6l-9.5-15.6l9.5-15.6L415.4,99.1z M395.1,97.2l-9.5-15.6l9.5-15.6l9.5,15.6L395.1,97.2z M394,99.1
	l-9.5,15.6L375,99.1l9.5-15.6L394,99.1z M373.7,97.2l-9.5-15.6l9.5-15.6l9.5,15.6L373.7,97.2z M372.5,99.1l-9.9,16.3l-9.5-15.6
	l9.9-16.3L372.5,99.1z M351.9,97.8l-9.5-15.6l9.9-16.3l9.5,15.6L351.9,97.8z M350.7,99.7l-10.8,17.7l-9.5-15.6l10.8-17.7L350.7,99.7
	z M329.2,99.9l-9.5-15.6l10.8-17.7l9.5,15.6L329.2,99.9z M328,101.9l-10.8,17.7l-9.5-15.6l10.8-17.7L328,101.9z M306.5,102L297,86.4
	l10.8-17.7l9.5,15.6L306.5,102z M305.3,104l-10.8,17.7l-9.5-15.6l10.8-17.7L305.3,104z M283.8,104.2l-9.5-15.6l10.8-17.7l9.5,15.6
	L283.8,104.2z M282.6,106.1l-10.8,17.7l-9.5-15.6l10.8-17.7L282.6,106.1z M261.1,106.3l-9.5-15.6L262.4,73l9.5,15.6L261.1,106.3z
	 M259.9,108.2l-10.8,17.7l-9.5-15.6l10.8-17.7L259.9,108.2z M238.4,108.4l-9.5-15.6L239.6,75l9.5,15.6L238.4,108.4z M237.2,110.3
	L226.4,128l-9.5-15.6l10.8-17.7L237.2,110.3z M215.6,110.5l-9.5-15.6l10.8-17.7l9.5,15.6L215.6,110.5z M214.5,112.4l-10.8,17.7
	l-9.5-15.6L205,96.8L214.5,112.4z M192.9,112.6L183.4,97l10.8-17.7l9.5,15.6L192.9,112.6z M191.8,114.5L181,132.2l-9.5-15.6
	l10.8-17.7L191.8,114.5z M170.2,114.7L159.4,97l10.8-17.7L181.1,97L170.2,114.7z M169.1,116.7l-10.8,17.7l-10.8-17.7L158.3,99
	L169.1,116.7z M146.2,114.7L135.4,97l10.8-17.7L157.1,97L146.2,114.7z M145.1,116.7l-10.8,17.7l-10.8-17.7L134.3,99L145.1,116.7z
	 M122.2,114.7L111.4,97l10.8-17.7L133.1,97L122.2,114.7z M121.1,116.7l-10.8,17.7l-10.8-17.7L110.3,99L121.1,116.7z M98.2,114.7
	L87.4,97l10.8-17.7L109.1,97L98.2,114.7z M97.1,116.7l-10.8,17.7l-10.8-17.7L86.3,99L97.1,116.7z M74.3,114.7L63.4,97l10.8-17.7
	L85.1,97L74.3,114.7z M73.1,116.7l-10.8,17.7l-10.8-17.7L62.3,99L73.1,116.7z M50.3,114.7L39.4,97l10.8-17.7L61.1,97L50.3,114.7z
	 M49.1,116.7l-10.8,17.7l-10.8-17.7L38.3,99L49.1,116.7z M26.3,114.7L15.4,97l10.8-17.7L37.1,97L26.3,114.7z M25.1,116.7l-9.5,15.6
	L4.7,114.5l9.5-15.6L25.1,116.7z M3.6,112.6L-7.3,94.9l9.5-15.6L13.1,97L3.6,112.6z M2.4,114.5l-9.5,15.6L-18,112.4l9.5-15.6
	L2.4,114.5z M-19.2,110.5L-30,92.8l9.5-15.6l10.8,17.7L-19.2,110.5z M-20.3,112.4l-9.5,15.6l-10.8-17.7l9.5-15.6L-20.3,112.4z
	 M-41.9,108.4l-10.8-17.7l9.5-15.6l10.8,17.7L-41.9,108.4z M-43,110.3l-9.5,15.6l-10.8-17.7l9.5-15.6L-43,110.3z M-53.7,127.9
	l-9.5,15.6L-74,125.8l9.5-15.6L-53.7,127.9z M-64.4,145.4L-74,161l-10.8-17.7l9.5-15.6L-64.4,145.4z M-75.2,163l-9.5,15.6
	l-10.8-17.7l9.5-15.6L-75.2,163z M-85.9,180.5l-9.5,15.6l-10.8-17.7l9.5-15.6L-85.9,180.5z M-96.6,198.1l-9.5,15.6l-10.8-17.7
	l9.5-15.6L-96.6,198.1z M-107.3,215.6l-9.5,15.6l-10.8-17.7l9.5-15.6L-107.3,215.6z M-106.1,217.5l10.8,17.7l-9.5,15.6l-10.8-17.7
	L-106.1,217.5z M-94.1,237.2l10.8,17.7l-9.5,15.6l-10.8-17.7L-94.1,237.2z M-82.1,256.9l10.8,17.7l-9.5,15.6l-10.8-17.7L-82.1,256.9
	z M-70.1,276.5l10.8,17.7l-9.5,15.6l-10.8-17.7L-70.1,276.5z M-58.1,296.2l10.8,17.7l-9.5,15.6l-10.8-17.7L-58.1,296.2z
	 M-56.9,294.3l9.5-15.6l10.8,17.7l-9.5,15.6L-56.9,294.3z M-35.4,298.3l10.8,17.7l-9.5,15.6l-10.8-17.7L-35.4,298.3z M-34.2,296.4
	l9.5-15.6l10.8,17.7l-9.5,15.6L-34.2,296.4z M-12.7,300.4l10.8,17.7l-9.5,15.6L-22.2,316L-12.7,300.4z M-11.5,298.5l9.5-15.6
	l10.8,17.7l-9.5,15.6L-11.5,298.5z M10,302.5l10.8,17.7l-9.5,15.6L0.5,318.2L10,302.5z M11.2,300.6l9.5-15.6l10.8,17.7L22,318.4
	L11.2,300.6z M32.7,304.7l10.8,17.7L34,338l-10.8-17.7L32.7,304.7z M33.9,302.7l9.5-15.6l10.8,17.7l-9.5,15.6L33.9,302.7z
	 M55.4,306.8l9.5,15.6L55.4,338l-9.5-15.6L55.4,306.8z M56.6,304.9l9.5-15.6l9.5,15.6l-9.5,15.6L56.6,304.9z M76.8,306.8l9.5,15.6
	L76.8,338l-9.5-15.6L76.8,306.8z M78,304.9l9.5-15.6l9.5,15.6l-9.5,15.6L78,304.9z M98.2,306.8l9.5,15.6L98.2,338l-9.5-15.6
	L98.2,306.8z M99.4,304.9l9.5-15.6l9.5,15.6l-9.5,15.6L99.4,304.9z M119.7,306.8l9.5,15.6l-9.5,15.6l-9.5-15.6L119.7,306.8z
	 M120.8,304.9l9.5-15.6l9.5,15.6l-9.5,15.6L120.8,304.9z M141.1,306.8l9.5,15.6l-9.5,15.6l-9.5-15.6L141.1,306.8z M142.3,304.9
	l10.8-17.7l9.5,15.6l-10.8,17.7L142.3,304.9z M163.8,304.7l9.5,15.6L162.5,338l-9.5-15.6L163.8,304.7z M165,302.7l10.8-17.7
	l9.5,15.6l-10.8,17.7L165,302.7z M186.5,302.5l9.5,15.6l-10.8,17.7l-9.5-15.6L186.5,302.5z M187.7,300.6l10.8-17.7l9.5,15.6
	l-10.8,17.7L187.7,300.6z M209.2,300.4l9.5,15.6l-10.8,17.7l-9.5-15.6L209.2,300.4z M210.4,298.5l10.8-17.7l9.5,15.6l-10.8,17.7
	L210.4,298.5z M231.9,298.3l9.5,15.6l-10.8,17.7l-9.5-15.6L231.9,298.3z M233.1,296.4l10.8-17.7l9.5,15.6L242.6,312L233.1,296.4z
	 M254.6,296.2l9.5,15.6l-10.8,17.7l-9.5-15.6L254.6,296.2z M255.8,294.3l10.8-17.7l9.5,15.6l-10.8,17.7L255.8,294.3z M277.3,294.1
	l9.5,15.6L276,327.5l-9.5-15.6L277.3,294.1z M288,311.6l9.5,15.6L286.7,345l-9.5-15.6L288,311.6z M298.7,329.2l9.5,15.6l-10.8,17.7
	l-9.5-15.6L298.7,329.2z M309.4,346.7l9.5,15.5L308.1,380l-9.5-15.5L309.4,346.7z M310.6,344.8l10.8-17.7l9.5,15.5l-10.8,17.7
	L310.6,344.8z M368.1,285.6l10.7,17.6L368.1,321l-10.7-17.6L368.1,285.6z M369.3,283.7l10.8-17.7l10.7,17.6L380,301.3L369.3,283.7z
	 M392.1,285.5l10.8,17.7L392.1,321l-10.8-17.7L392.1,285.5z M393.2,283.6l10.8-17.7l10.8,17.7L404,301.3L393.2,283.6z M416.1,285.5
	l10.8,17.7L416.1,321l-10.8-17.7L416.1,285.5z M417.2,283.6l10.8-17.7l10.8,17.7L428,301.3L417.2,283.6z M440,285.5l10.8,17.7
	L440,321l-10.8-17.7L440,285.5z M441.2,283.6l10.8-17.7l10.8,17.7L452,301.3L441.2,283.6z M464,285.5l10.8,17.7L464,321l-10.8-17.7
	L464,285.5z M465.2,283.6l9.9-16.3L486,285l-9.9,16.3L465.2,283.6z M487.2,286.9l10.8,17.7L488,321l-10.8-17.7L487.2,286.9z
	 M488.3,285l9.5-15.6l10.8,17.7l-9.5,15.6L488.3,285z M509.9,289.1l10.8,17.7l-9.5,15.6l-10.8-17.7L509.9,289.1z M511,287.1
	l9.5-15.6l10.8,17.7l-9.5,15.6L511,287.1z M532.6,291.2l10.8,17.7l-9.5,15.6L523,306.8L532.6,291.2z M533.7,289.3l9.5-15.6
	l10.8,17.7l-9.5,15.6L533.7,289.3z M555.3,293.3l10.8,17.7l-9.5,15.6l-10.8-17.7L555.3,293.3z M556.4,291.4l9.5-15.6l10.8,17.7
	l-9.5,15.6L556.4,291.4z M578,295.4l10.8,17.7l-9.5,15.6L568.4,311L578,295.4z M579.2,293.5l9.5-15.6l10.8,17.7l-9.5,15.6
	L579.2,293.5z M600.7,297.5l10.8,17.7l-9.5,15.6l-10.8-17.7L600.7,297.5z M601.9,295.6l9.5-15.6l10.8,17.7l-9.5,15.6L601.9,295.6z
	 M623.4,299.6l10.8,17.7l-9.5,15.6l-10.8-17.7L623.4,299.6z M624.6,297.7l9.5-15.6l10.8,17.7l-9.5,15.6L624.6,297.7z M646.1,301.7
	l10.8,17.7l-9.5,15.6l-10.8-17.7L646.1,301.7z M647.3,299.8l9.5-15.6l10.8,17.7l-9.5,15.6L647.3,299.8z M668.8,303.9l10.8,17.7
	l-9.5,15.6l-10.8-17.7L668.8,303.9z M670,301.9l9.5-15.6l10.8,17.7l-9.5,15.6L670,301.9z M691.5,306l9.5,15.6l-9.5,15.6l-9.5-15.6
	L691.5,306z M692.7,304.1l9.5-15.6l9.5,15.6l-9.5,15.6L692.7,304.1z M712.9,306l9.5,15.6l-9.5,15.6l-9.5-15.6L712.9,306z
	 M714.1,304.1l9.5-15.6l9.5,15.6l-9.5,15.6L714.1,304.1z M734.3,306l9.5,15.6l-9.5,15.6l-9.5-15.6L734.3,306z M735.5,304.1l9.5-15.6
	l9.5,15.6l-9.5,15.6L735.5,304.1z M755.8,306l9.5,15.6l-9.5,15.6l-9.5-15.6L755.8,306z M756.9,304.1l9.5-15.6l9.5,15.6l-9.5,15.6
	L756.9,304.1z M777.2,306l9.5,15.6l-9.5,15.6l-9.5-15.6L777.2,306z M778.3,304.1l9.5-15.6l9.5,15.6l-9.5,15.6L778.3,304.1z
	 M798.6,306l9.5,15.6l-9.5,15.6l-9.5-15.6L798.6,306z M799.8,304.1l10.8-17.7l9.5,15.6l-10.8,17.7L799.8,304.1z M821.3,303.9
	l9.5,15.6L820,337.2l-9.5-15.6L821.3,303.9z M822.5,301.9l10.8-17.7l9.5,15.6L832,317.6L822.5,301.9z M844,301.7l9.5,15.6L842.7,335
	l-9.5-15.6L844,301.7z M845.2,299.8l10.8-17.7l9.5,15.6l-10.8,17.7L845.2,299.8z M866.7,299.6l9.5,15.6L865.4,333l-9.5-15.6
	L866.7,299.6z M867.9,297.7l10.8-17.7l9.5,15.6l-10.8,17.7L867.9,297.7z M889.4,297.5l9.5,15.6l-10.8,17.7l-9.5-15.6L889.4,297.5z
	 M890.6,295.6l10.8-17.7l9.5,15.6l-10.8,17.7L890.6,295.6z M902.6,275.9l10.8-17.7l9.5,15.6l-10.8,17.7L902.6,275.9z M914.6,256.3
	l10.8-17.7l9.5,15.6l-10.8,17.7L914.6,256.3z M926.6,236.6l10.8-17.7l9.5,15.6l-10.8,17.7L926.6,236.6z M938.6,216.9l10.8-17.7
	l9.5,15.6l-10.8,17.7L938.6,216.9z M950.6,197.3l10.8-17.7l9.5,15.6l-10.8,17.7L950.6,197.3z M962.6,177.6l10.8-17.7l9.5,15.6
	l-10.8,17.7L962.6,177.6z M961.4,175.7l-9.5-15.6l10.8-17.7l9.5,15.6L961.4,175.7z M950.7,158.1l-9.5-15.6l10.8-17.7l9.5,15.6
	L950.7,158.1z M940,140.6l-9.5-15.6l10.8-17.7l9.5,15.6L940,140.6z M929.3,123l-9.5-15.6l10.8-17.7l9.5,15.6L929.3,123z
	 M918.6,105.5L909,89.9l10.8-17.7l9.5,15.6L918.6,105.5z M907.9,87.9l-9.5-15.6l10.8-17.7l9.5,15.6L907.9,87.9z M897.2,70.4
	l-9.5-15.6L898.4,37l9.5,15.6L897.2,70.4z M896,72.3L885.2,90l-9.5-15.6l10.8-17.7L896,72.3z M874.5,72.5L865,56.9l10.8-17.7
	l9.5,15.6L874.5,72.5z M873.3,74.4l-10.8,17.7L853,76.5l10.8-17.7L873.3,74.4z M851.7,74.6L842.2,59L853,41.2l9.5,15.6L851.7,74.6z
	 M850.6,76.5l-10.8,17.7l-9.5-15.6L841,60.9L850.6,76.5z M829,76.7L818.2,59L829,41.2L839.9,59L829,76.7z M827.9,78.6L817,96.4
	l-10.8-17.7L817,60.9L827.9,78.6z M805,76.7L794.2,59L805,41.2L815.9,59L805,76.7z M803.9,78.6L793,96.4l-10.8-17.7L793,60.9
	L803.9,78.6z M781,76.7L770.2,59L781,41.2L791.9,59L781,76.7z M779.9,78.6L769,96.4l-10.8-17.7L769,60.9L779.9,78.6z M757,76.7
	L746.2,59L757,41.2L767.9,59L757,76.7z M755.9,78.6l-10.8,17.7l-10.8-17.7l10.8-17.7L755.9,78.6z M733.1,76.7L722.2,59L733,41.3
	L743.9,59L733.1,76.7z M731.9,78.6l-10.8,17.7l-10.8-17.7l10.8-17.7L731.9,78.6z M709.1,76.7L698.2,59L709,41.3L719.9,59L709.1,76.7
	z M707.9,78.6l-10.8,17.7l-10.8-17.7l10.8-17.7L707.9,78.6z M685.1,76.7L674.2,59L685,41.3L695.9,59L685.1,76.7z M683.9,78.6
	l-10.8,17.7l-10.8-17.7l10.8-17.7L683.9,78.6z M661.1,76.7L650.2,59L661,41.3L671.9,59L661.1,76.7z M659.9,78.6l-9.5,15.6
	l-10.8-17.7l9.5-15.6L659.9,78.6z M638.4,74.6l-10.8-17.7l9.5-15.6L647.9,59L638.4,74.6z M637.2,76.5l-9.5,15.6l-10.8-17.7l9.5-15.6
	L637.2,76.5z M615.7,72.5l-10.8-17.7l9.5-15.6l10.8,17.7L615.7,72.5z M614.5,74.4L604.9,90l-10.8-17.7l9.5-15.6L614.5,74.4z
	 M592.9,70.4l-10.8-17.7l9.5-15.6l10.8,17.7L592.9,70.4z M591.8,72.3l-9.5,15.6l-10.8-17.7l9.5-15.6L591.8,72.3z M570.2,68.3
	l-10.8-17.7l9.5-15.6l10.8,17.7L570.2,68.3z M558.2,48.6l-10.8-17.7l9.5-15.6L567.8,33L558.2,48.6z M546.2,28.9l-10.7-17.6L545-4.3
	l10.7,17.6L546.2,28.9z M502.1,61.9l-9.5-15.5l9.5-15.6l9.5,15.5L502.1,61.9z M500.9,63.8l-9.5,15.6L482,64l9.5-15.6L500.9,63.8z
	 M480.8,62.1l-9.5-15.6l9.5-15.6l9.5,15.6L480.8,62.1z M479.6,64l-9.5,15.6L460.5,64l9.5-15.6L479.6,64z M459.4,62.1l-9.5-15.6
	l9.5-15.6l9.5,15.6L459.4,62.1z M458.2,64l-9.5,15.6L439.1,64l9.5-15.6L458.2,64z M438,62.1l-9.5-15.6l9.5-15.6l9.5,15.6L438,62.1z
	 M436.8,64l-9.5,15.6L417.7,64l9.5-15.6L436.8,64z M416.5,62.1L407,46.4l9.5-15.6l9.5,15.6L416.5,62.1z M415.4,64l-9.5,15.6
	L396.3,64l9.5-15.6L415.4,64z M395.1,62.1l-9.5-15.6l9.5-15.6l9.5,15.6L395.1,62.1z M394,64l-9.5,15.6L374.9,64l9.5-15.6L394,64z
	 M373.7,62.1l-9.5-15.6l9.5-15.6l9.5,15.6L373.7,62.1z M372.5,64L363,79.6L353.5,64l9.5-15.6L372.5,64z M352.3,62.1l-9.5-15.6
	l9.5-15.6l9.5,15.6L352.3,62.1z M351.1,64l-9.9,16.3l-9.5-15.6l9.9-16.3L351.1,64z M330.5,62.7L321,47.1l9.9-16.3l9.5,15.6
	L330.5,62.7z M329.3,64.6l-10.8,17.7L309,66.7L319.8,49L329.3,64.6z M307.8,64.8l-9.5-15.6l10.8-17.7l9.5,15.6L307.8,64.8z
	 M306.6,66.8l-10.8,17.7l-9.5-15.6l10.8-17.7L306.6,66.8z M285.1,66.9l-9.5-15.6l10.8-17.7l9.5,15.6L285.1,66.9z M283.9,68.9
	l-10.8,17.7L263.5,71l10.8-17.7L283.9,68.9z M262.4,69.1l-9.5-15.6l10.8-17.7l9.5,15.6L262.4,69.1z M261.2,71l-10.8,17.7l-9.5-15.6
	l10.8-17.7L261.2,71z M239.6,71.2l-9.5-15.6l10.8-17.7l9.5,15.6L239.6,71.2z M238.5,73.1l-10.8,17.7l-9.5-15.6L229,57.5L238.5,73.1z
	 M216.9,73.3l-9.5-15.6L218.2,40l9.5,15.6L216.9,73.3z M215.8,75.2L204.9,93l-9.5-15.6l10.8-17.7L215.8,75.2z M194.2,75.4
	l-10.8-17.7L194.2,40L205,57.7L194.2,75.4z M193.1,77.3L182.3,95l-10.8-17.7l10.8-17.7L193.1,77.3z M170.2,75.4l-10.8-17.7L170.2,40
	L181,57.7L170.2,75.4z M169.1,77.3L158.3,95l-10.8-17.7l10.8-17.7L169.1,77.3z M146.2,75.4l-10.8-17.7L146.2,40L157,57.7L146.2,75.4
	z M145.1,77.3L134.3,95l-10.8-17.7l10.8-17.7L145.1,77.3z M122.2,75.4l-10.8-17.7L122.2,40L133,57.7L122.2,75.4z M121.1,77.3
	L110.3,95L99.4,77.3l10.8-17.7L121.1,77.3z M98.2,75.4L87.4,57.7L98.2,40L109,57.7L98.2,75.4z M97.1,77.3L86.2,95.1L75.4,77.3
	l10.8-17.7L97.1,77.3z M74.3,75.4L63.4,57.7L74.2,40L85,57.7L74.3,75.4z M73.1,77.3L62.3,95.1L51.4,77.3l10.8-17.7L73.1,77.3z
	 M50.3,75.4L39.4,57.7L50.2,40L61,57.7L50.3,75.4z M49.1,77.3L38.3,95.1L27.4,77.3l10.8-17.7L49.1,77.3z M26.3,75.4L15.4,57.7
	L26.2,40L37,57.7L26.3,75.4z M25.1,77.3L14.3,95.1L3.4,77.3l10.8-17.7L25.1,77.3z M2.3,75.4L-8.6,57.7L2.3,39.9l10.8,17.7L2.3,75.4z
	 M1.1,77.3L-8.4,93l-10.8-17.7l9.5-15.6L1.1,77.3z M-20.4,73.3l-10.8-17.7l9.5-15.6l10.8,17.7L-20.4,73.3z M-21.6,75.2l-9.5,15.6
	L-42,73.1l9.5-15.6L-21.6,75.2z M-43.1,71.2L-54,53.4l9.5-15.6l10.8,17.7L-43.1,71.2z M-44.3,73.1l-9.5,15.6L-64.7,71l9.5-15.6
	L-44.3,73.1z M-55,90.6l-9.5,15.6l-10.8-17.7l9.5-15.6L-55,90.6z M-65.7,108.2l-9.5,15.6L-86,106.1l9.5-15.6L-65.7,108.2z
	 M-76.4,125.7l-9.5,15.6l-10.8-17.7l9.5-15.6L-76.4,125.7z M-87.2,143.3l-9.5,15.6l-10.8-17.7l9.5-15.6L-87.2,143.3z M-97.9,160.8
	l-9.5,15.6l-10.8-17.7l9.5-15.6L-97.9,160.8z M-108.6,178.4l-9.5,15.6l-10.8-17.7l9.5-15.6L-108.6,178.4z M-119.3,196l-9.5,15.6
	l-10.8-17.7l9.5-15.6L-119.3,196z M-130,213.5l-9.5,15.6l-10.8-17.7l9.5-15.6L-130,213.5z M-128.8,215.4l10.8,17.7l-9.5,15.6
	l-10.8-17.7L-128.8,215.4z M-116.8,235.1l10.8,17.7l-9.5,15.6l-10.8-17.7L-116.8,235.1z M-104.8,254.8l10.8,17.7l-9.5,15.6
	l-10.8-17.7L-104.8,254.8z M-92.8,274.4l10.8,17.7l-9.5,15.6l-10.8-17.7L-92.8,274.4z M-80.8,294.1l10.8,17.7l-9.5,15.6l-10.8-17.7
	L-80.8,294.1z M-68.8,313.7l10.8,17.7l-9.5,15.6l-10.8-17.7L-68.8,313.7z M-56.8,333.4l10.8,17.7l-9.5,15.6L-66.4,349L-56.8,333.4z
	 M-55.7,331.5l9.5-15.6l10.8,17.7l-9.5,15.6L-55.7,331.5z M-34.1,335.5l10.8,17.7l-9.5,15.6l-10.8-17.7L-34.1,335.5z M-32.9,333.6
	l9.5-15.6l10.8,17.7l-9.5,15.6L-32.9,333.6z M-11.4,337.6l10.8,17.7l-9.5,15.6l-10.8-17.7L-11.4,337.6z M-10.2,335.7l9.5-15.6
	l10.8,17.7l-9.5,15.6L-10.2,335.7z M11.3,339.8l10.8,17.7l-9.5,15.6L1.8,355.4L11.3,339.8z M12.5,337.8l9.5-15.6L32.8,340l-9.5,15.6
	L12.5,337.8z M34,341.9l9.5,15.6L34,373.1l-9.5-15.6L34,341.9z M35.2,340l9.5-15.6l9.5,15.6l-9.5,15.6L35.2,340z M55.4,341.9
	l9.5,15.6l-9.5,15.6l-9.5-15.6L55.4,341.9z M56.6,340l9.5-15.6l9.5,15.6l-9.5,15.6L56.6,340z M76.8,341.9l9.5,15.6l-9.5,15.6
	l-9.5-15.6L76.8,341.9z M78,340l9.5-15.6L97,340l-9.5,15.6L78,340z M98.2,341.9l9.5,15.6l-9.5,15.6l-9.5-15.6L98.2,341.9z M99.4,340
	l9.5-15.6l9.5,15.6l-9.5,15.6L99.4,340z M119.7,341.9l9.5,15.6l-9.5,15.6l-9.5-15.6L119.7,341.9z M120.8,340l9.5-15.6l9.5,15.6
	l-9.5,15.6L120.8,340z M141.1,341.9l9.5,15.6l-9.5,15.6l-9.5-15.6L141.1,341.9z M142.3,340l9.5-15.6l9.5,15.6l-9.5,15.6L142.3,340z
	 M162.5,341.9l9.5,15.6l-9.5,15.6l-9.5-15.6L162.5,341.9z M163.7,340l10.8-17.7l9.5,15.6l-10.8,17.7L163.7,340z M185.2,339.8
	l9.5,15.6l-10.8,17.7l-9.5-15.6L185.2,339.8z M186.4,337.8l10.8-17.7l9.5,15.6l-10.8,17.7L186.4,337.8z M207.9,337.6l9.5,15.6
	L206.6,371l-9.5-15.6L207.9,337.6z M209.1,335.7l10.8-17.7l9.5,15.6l-10.8,17.7L209.1,335.7z M230.6,335.5l9.5,15.6l-10.8,17.7
	l-9.5-15.6L230.6,335.5z M231.8,333.6l10.8-17.7l9.5,15.6l-10.8,17.7L231.8,333.6z M253.3,333.4l9.5,15.6L252,366.8l-9.5-15.6
	L253.3,333.4z M254.5,331.5l10.8-17.7l9.5,15.6L264,347.1L254.5,331.5z M276,331.3l9.5,15.6l-10.8,17.7l-9.5-15.6L276,331.3z
	 M286.7,348.8l9.5,15.6l-10.8,17.7l-9.5-15.6L286.7,348.8z M297.4,366.4l9.5,15.5l-10.8,17.7l-9.5-15.5L297.4,366.4z M344.1,325
	l10.7,17.6L344,360.3l-10.7-17.6L344.1,325z M345.3,323l10.8-17.7l10.7,17.6L356,340.6L345.3,323z M368.1,324.8l10.8,17.7
	l-10.8,17.7l-10.8-17.7L368.1,324.8z M369.2,322.9l10.8-17.7l10.8,17.7L380,340.6L369.2,322.9z M392.1,324.8l10.8,17.7l-10.8,17.7
	l-10.8-17.7L392.1,324.8z M393.2,322.9l10.8-17.7l10.8,17.7L404,340.6L393.2,322.9z M416.1,324.8l10.8,17.7l-10.8,17.7l-10.8-17.7
	L416.1,324.8z M417.2,322.9l10.8-17.7l10.8,17.7L428,340.6L417.2,322.9z M440,324.8l10.8,17.7L440,360.3l-10.8-17.7L440,324.8z
	 M441.2,322.9l10.8-17.7l10.8,17.7L452,340.6L441.2,322.9z M464,324.8l10.8,17.7L464,360.3l-10.8-17.7L464,324.8z M465.2,322.9
	l10.8-17.7l10.8,17.7L476,340.6L465.2,322.9z M488,324.8l10.8,17.7L488,360.3l-10.8-17.7L488,324.8z M489.2,322.9l9.9-16.3
	l10.8,17.7l-9.9,16.3L489.2,322.9z M511.2,326.3L522,344l-9.9,16.3l-10.8-17.7L511.2,326.3z M512.3,324.4l9.5-15.6l10.8,17.7
	l-9.5,15.6L512.3,324.4z M533.9,328.4l10.8,17.7l-9.5,15.6L524.3,344L533.9,328.4z M535,326.5l9.5-15.6l10.8,17.7l-9.5,15.6
	L535,326.5z M556.6,330.5l10.8,17.7l-9.5,15.6L547,346.1L556.6,330.5z M557.7,328.6l9.5-15.6l10.8,17.7l-9.5,15.6L557.7,328.6z
	 M579.3,332.6l10.8,17.7l-9.5,15.6l-10.8-17.7L579.3,332.6z M580.4,330.7l9.5-15.6l10.8,17.7l-9.5,15.6L580.4,330.7z M602,334.7
	l10.8,17.7l-9.5,15.6l-10.8-17.7L602,334.7z M603.1,332.8l9.5-15.6l10.8,17.7l-9.5,15.6L603.1,332.8z M624.7,336.8l10.8,17.7
	l-9.5,15.6l-10.8-17.7L624.7,336.8z M625.9,334.9l9.5-15.6l10.8,17.7l-9.5,15.6L625.9,334.9z M647.4,339l10.8,17.7l-9.5,15.6
	l-10.8-17.7L647.4,339z M648.6,337l9.5-15.6l10.8,17.7l-9.5,15.6L648.6,337z M670.1,341.1l9.5,15.6l-9.5,15.6l-9.5-15.6L670.1,341.1
	z M671.3,339.2l9.5-15.6l9.5,15.6l-9.5,15.6L671.3,339.2z M691.5,341.1l9.5,15.6l-9.5,15.6l-9.5-15.6L691.5,341.1z M692.7,339.2
	l9.5-15.6l9.5,15.6l-9.5,15.6L692.7,339.2z M712.9,341.1l9.5,15.6l-9.5,15.6l-9.5-15.6L712.9,341.1z M714.1,339.2l9.5-15.6l9.5,15.6
	l-9.5,15.6L714.1,339.2z M734.3,341.1l9.5,15.6l-9.5,15.6l-9.5-15.6L734.3,341.1z M735.5,339.2l9.5-15.6l9.5,15.6l-9.5,15.6
	L735.5,339.2z M755.8,341.1l9.5,15.6l-9.5,15.6l-9.5-15.6L755.8,341.1z M756.9,339.2l9.5-15.6l9.5,15.6l-9.5,15.6L756.9,339.2z
	 M777.2,341.1l9.5,15.6l-9.5,15.6l-9.5-15.6L777.2,341.1z M778.3,339.2l9.5-15.6l9.5,15.6l-9.5,15.6L778.3,339.2z M798.6,341.1
	l9.5,15.6l-9.5,15.6l-9.5-15.6L798.6,341.1z M799.8,339.2l9.5-15.6l9.5,15.6l-9.5,15.6L799.8,339.2z M820,341.1l9.5,15.6l-9.5,15.6
	l-9.5-15.6L820,341.1z M821.2,339.2l10.8-17.7l9.5,15.6l-10.8,17.7L821.2,339.2z M842.7,339l9.5,15.6l-10.8,17.7l-9.5-15.6
	L842.7,339z M843.9,337l10.8-17.7l9.5,15.6l-10.8,17.7L843.9,337z M865.4,336.8l9.5,15.6l-10.8,17.7l-9.5-15.6L865.4,336.8z
	 M866.6,334.9l10.8-17.7l9.5,15.6l-10.8,17.7L866.6,334.9z M888.1,334.7l9.5,15.6L886.8,368l-9.5-15.6L888.1,334.7z M889.3,332.8
	l10.8-17.7l9.5,15.6l-10.8,17.7L889.3,332.8z M901.3,313.1l10.8-17.7l9.5,15.6l-10.8,17.7L901.3,313.1z M913.3,293.5l10.8-17.7
	l9.5,15.6l-10.8,17.7L913.3,293.5z M925.3,273.8l10.8-17.7l9.5,15.6l-10.8,17.7L925.3,273.8z M937.3,254.2l10.8-17.7l9.5,15.6
	l-10.8,17.7L937.3,254.2z M949.3,234.5l10.8-17.7l9.5,15.6l-10.8,17.7L949.3,234.5z M961.3,214.8l10.8-17.7l9.5,15.6l-10.8,17.7
	L961.3,214.8z M973.3,195.2l10.8-17.7l9.5,15.6l-10.8,17.7L973.3,195.2z M985.3,175.5l10.8-17.7l9.5,15.6l-10.8,17.7L985.3,175.5z
	 M984.1,173.6l-9.5-15.6l10.8-17.7l9.5,15.6L984.1,173.6z M973.4,156l-9.5-15.6l10.8-17.7l9.5,15.6L973.4,156z M962.7,138.5
	l-9.5-15.6l10.8-17.7l9.5,15.6L962.7,138.5z M952,120.9l-9.5-15.6l10.8-17.7l9.5,15.6L952,120.9z M941.3,103.4l-9.5-15.6L942.6,70
	l9.5,15.6L941.3,103.4z M930.6,85.8L921,70.2l10.8-17.7l9.5,15.6L930.6,85.8z M919.9,68.3l-9.5-15.6L921.2,35l9.5,15.6L919.9,68.3z
	 M909.2,50.7l-9.5-15.6l10.8-17.7L920,33L909.2,50.7z M898.4,33.2l-9.5-15.6l10.8-17.7l9.5,15.6L898.4,33.2z M897.3,35.1l-10.8,17.7
	L877,37.2l10.8-17.7L897.3,35.1z M875.7,35.3l-9.5-15.6L877,1.9l9.5,15.6L875.7,35.3z M874.6,37.2l-10.8,17.7l-9.5-15.6L865,21.6
	L874.6,37.2z M853,37.4l-10.8-17.7L853,1.9l10.8,17.7L853,37.4z M851.9,39.3L841,57.1l-10.8-17.7L841,21.6L851.9,39.3z M829,37.4
	l-10.8-17.7L829,1.9l10.8,17.7L829,37.4z M827.9,39.3L817,57.1l-10.8-17.7L817,21.6L827.9,39.3z M805,37.4l-10.8-17.7L805,1.9
	l10.8,17.7L805,37.4z M803.9,39.3L793,57.1l-10.8-17.7L793,21.6L803.9,39.3z M781,37.4l-10.8-17.7L781,1.9l10.8,17.7L781,37.4z
	 M779.9,39.3L769,57.1l-10.8-17.7L769,21.6L779.9,39.3z M757,37.4l-10.8-17.7L757,1.9l10.8,17.7L757,37.4z M755.9,39.3L745.1,57
	l-10.8-17.7l10.8-17.7L755.9,39.3z M733.1,37.4l-10.8-17.7L733.1,2l10.8,17.7L733.1,37.4z M731.9,39.3L721.1,57l-10.8-17.7
	l10.8-17.7L731.9,39.3z M709.1,37.4l-10.8-17.7L709.1,2l10.8,17.7L709.1,37.4z M707.9,39.3L697.1,57l-10.8-17.7l10.8-17.7
	L707.9,39.3z M685.1,37.4l-10.8-17.7L685.1,2l10.8,17.7L685.1,37.4z M683.9,39.3L673.1,57l-10.8-17.7l10.8-17.7L683.9,39.3z
	 M661.1,37.4l-10.8-17.7L661.1,2l10.8,17.7L661.1,37.4z M659.9,39.3L649.1,57l-10.8-17.7l10.8-17.7L659.9,39.3z M637.1,37.4
	l-10.8-17.7L637.1,2l10.8,17.7L637.1,37.4z M635.9,39.3l-9.5,15.6l-10.8-17.7l9.5-15.6L635.9,39.3z M614.4,35.3l-10.8-17.7L613.1,2
	l10.8,17.7L614.4,35.3z M613.2,37.2l-9.5,15.6l-10.8-17.7l9.5-15.6L613.2,37.2z M591.7,33.2l-10.8-17.7l9.5-15.6l10.8,17.7
	L591.7,33.2z M590.5,35.1L581,50.7L570.1,33l9.5-15.6L590.5,35.1z M568.9,31.1l-10.8-17.7l9.5-15.6l10.8,17.7L568.9,31.1z M557,11.4
	L546.2-6.2l9.5-15.6l10.7,17.6L557,11.4z M523.5,26.8L514,11.3l9.5-15.6l9.5,15.5L523.5,26.8z M522.4,28.7l-9.5,15.6l-9.5-15.5
	l9.5-15.6L522.4,28.7z M502.2,27l-9.5-15.6l9.5-15.6l9.5,15.6L502.2,27z M501,28.9l-9.5,15.6L482,28.9l9.5-15.6L501,28.9z M480.8,27
	l-9.5-15.6l9.5-15.6l9.5,15.6L480.8,27z M479.6,28.9l-9.5,15.6l-9.5-15.6l9.5-15.6L479.6,28.9z M459.4,27l-9.5-15.6l9.5-15.6
	l9.5,15.6L459.4,27z M458.2,28.9l-9.5,15.6l-9.5-15.6l9.5-15.6L458.2,28.9z M438,27l-9.5-15.6L438-4.3l9.5,15.6L438,27z M436.8,28.9
	l-9.5,15.6l-9.5-15.6l9.5-15.6L436.8,28.9z M416.5,27L407,11.3l9.5-15.6l9.5,15.6L416.5,27z M415.4,28.9l-9.5,15.6l-9.5-15.6
	l9.5-15.6L415.4,28.9z M395.1,27l-9.5-15.6l9.5-15.6l9.5,15.6L395.1,27z M394,28.9l-9.5,15.6L375,28.9l9.5-15.6L394,28.9z M373.7,27
	l-9.5-15.6l9.5-15.6l9.5,15.6L373.7,27z M372.5,28.9L363,44.5l-9.5-15.6l9.5-15.6L372.5,28.9z M352.3,27l-9.5-15.6l9.5-15.6
	l9.5,15.6L352.3,27z M351.1,28.9l-9.5,15.6L332,28.9l9.5-15.6L351.1,28.9z M330.9,27l-9.5-15.6l9.5-15.6l9.5,15.6L330.9,27z
	 M329.7,28.9l-9.9,16.3l-9.5-15.6l9.9-16.3L329.7,28.9z M309.1,27.6L299.5,12l9.9-16.3l9.5,15.6L309.1,27.6z M307.9,29.5l-10.8,17.7
	l-9.5-15.6l10.8-17.7L307.9,29.5z M286.3,29.7l-9.5-15.6l10.8-17.7l9.5,15.6L286.3,29.7z M285.2,31.7l-10.8,17.7l-9.5-15.6L275.6,16
	L285.2,31.7z M263.6,31.8l-9.5-15.6l10.8-17.7l9.5,15.6L263.6,31.8z M262.5,33.8l-10.8,17.7l-9.5-15.6L253,18.2L262.5,33.8z
	 M240.9,34l-9.5-15.6l10.8-17.7l9.5,15.6L240.9,34z M239.8,35.9L229,53.6L219.4,38l10.8-17.7L239.8,35.9z M218.2,36.1l-10.8-17.7
	l10.8-17.7L229,18.4L218.2,36.1z M217.1,38l-10.8,17.7L195.4,38l10.8-17.7L217.1,38z M194.2,36.1l-10.8-17.7l10.8-17.7L205,18.4
	L194.2,36.1z M193.1,38l-10.8,17.7L171.4,38l10.8-17.7L193.1,38z M170.2,36.1l-10.8-17.7l10.8-17.7L181,18.4L170.2,36.1z M169.1,38
	l-10.8,17.7L147.4,38l10.8-17.7L169.1,38z M146.2,36.1l-10.8-17.7l10.8-17.7L157,18.4L146.2,36.1z M145.1,38l-10.8,17.7L123.4,38
	l10.8-17.7L145.1,38z M122.2,36.1l-10.8-17.7l10.8-17.7L133,18.4L122.2,36.1z M121.1,38l-10.8,17.7L99.4,38l10.8-17.7L121.1,38z
	 M98.2,36.1L87.4,18.3L98.2,0.6L109,18.3L98.2,36.1z M97.1,38L86.2,55.7L75.4,38l10.8-17.7L97.1,38z M74.3,36.1L63.4,18.3L74.3,0.6
	l10.8,17.7L74.3,36.1z M73.1,38L62.3,55.7L51.4,38l10.8-17.7L73.1,38z M50.3,36.1L39.4,18.3L50.3,0.6l10.8,17.7L50.3,36.1z M49.1,38
	L38.3,55.7L27.4,38l10.8-17.7L49.1,38z M26.3,36.1L15.4,18.3L26.3,0.6l10.8,17.7L26.3,36.1z M25.1,38L14.3,55.7L3.4,38l10.8-17.7
	L25.1,38z M2.3,36.1L-8.6,18.3L2.3,0.6l10.8,17.7L2.3,36.1z M1.1,38L-9.7,55.7L-20.6,38l10.8-17.7L1.1,38z M-21.7,36.1l-10.8-17.7
	l10.8-17.7l10.8,17.7L-21.7,36.1z M-22.9,38l-9.5,15.6l-10.8-17.7l9.5-15.6L-22.9,38z M-44.4,34l-10.8-17.7l9.5-15.6l10.8,17.7
	L-44.4,34z M-45.6,35.9l-9.5,15.6L-66,33.8l9.5-15.6L-45.6,35.9z M-56.3,53.4L-65.8,69l-10.8-17.7l9.5-15.6L-56.3,53.4z M-67,71
	l-9.5,15.6l-10.8-17.7l9.5-15.6L-67,71z M-77.7,88.5l-9.5,15.6L-98,86.4l9.5-15.6L-77.7,88.5z M-88.4,106.1l-9.5,15.6l-10.8-17.7
	l9.5-15.6L-88.4,106.1z M-99.2,123.6l-9.5,15.6l-10.8-17.7l9.5-15.6L-99.2,123.6z M-109.9,141.2l-9.5,15.6l-10.8-17.7l9.5-15.6
	L-109.9,141.2z M-120.6,158.7l-9.5,15.6l-10.8-17.7l9.5-15.6L-120.6,158.7z M-131.3,176.3l-9.5,15.6l-10.8-17.7l9.5-15.6
	L-131.3,176.3z M-142,193.8l-9.5,15.6l-10.8-17.7l9.5-15.6L-142,193.8z M-152.7,211.4l-9.5,15.6l-10.8-17.7l9.5-15.6L-152.7,211.4z
	 M-151.5,213.3l10.8,17.7l-9.5,15.6l-10.8-17.7L-151.5,213.3z M-139.5,233l10.8,17.7l-9.5,15.6l-10.8-17.7L-139.5,233z
	 M-127.5,252.6l10.8,17.7l-9.5,15.6l-10.8-17.7L-127.5,252.6z M-115.5,272.3l10.8,17.7l-9.5,15.6l-10.8-17.7L-115.5,272.3z
	 M-103.5,292l10.8,17.7l-9.5,15.6l-10.8-17.7L-103.5,292z M-91.5,311.6l10.8,17.7l-9.5,15.6l-10.8-17.7L-91.5,311.6z M-79.5,331.3
	l10.8,17.7l-9.5,15.6L-89,346.9L-79.5,331.3z M-67.5,351l10.8,17.7l-9.5,15.6L-77,366.6L-67.5,351z M-55.5,370.6l10.8,17.7
	l-9.5,15.6L-65,386.2L-55.5,370.6z M-54.4,368.7l9.5-15.6l10.8,17.7l-9.5,15.6L-54.4,368.7z M-32.8,372.7l10.8,17.7l-9.5,15.6
	l-10.8-17.7L-32.8,372.7z M-31.7,370.8l9.5-15.6l10.8,17.7l-9.5,15.6L-31.7,370.8z M-10.1,374.9l10.8,17.7l-9.5,15.6l-10.8-17.7
	L-10.1,374.9z M-8.9,372.9l9.5-15.6L11.4,375l-9.5,15.6L-8.9,372.9z M12.6,377l9.5,15.6l-9.5,15.6L3,392.6L12.6,377z M13.8,375.1
	l9.5-15.6l9.5,15.6l-9.5,15.6L13.8,375.1z M34,377l9.5,15.6L34,408.2l-9.5-15.6L34,377z M35.2,375.1l9.5-15.6l9.5,15.6l-9.5,15.6
	L35.2,375.1z M55.4,377l9.5,15.6l-9.5,15.6l-9.5-15.6L55.4,377z M56.6,375.1l9.5-15.6l9.5,15.6l-9.5,15.6L56.6,375.1z M76.8,377
	l9.5,15.6l-9.5,15.6l-9.5-15.6L76.8,377z M78,375.1l9.5-15.6l9.5,15.6l-9.5,15.6L78,375.1z M98.2,377l9.5,15.6l-9.5,15.6l-9.5-15.6
	L98.2,377z M99.4,375.1l9.5-15.6l9.5,15.6l-9.5,15.6L99.4,375.1z M119.7,377l9.5,15.6l-9.5,15.6l-9.5-15.6L119.7,377z M120.8,375.1
	l9.5-15.6l9.5,15.6l-9.5,15.6L120.8,375.1z M141.1,377l9.5,15.6l-9.5,15.6l-9.5-15.6L141.1,377z M142.3,375.1l9.5-15.6l9.5,15.6
	l-9.5,15.6L142.3,375.1z M162.5,377l9.5,15.6l-9.5,15.6l-9.5-15.6L162.5,377z M163.7,375.1l9.5-15.6l9.5,15.6l-9.5,15.6L163.7,375.1
	z M183.9,377l9.5,15.6l-9.5,15.6l-9.5-15.6L183.9,377z M185.1,375.1l10.8-17.7l9.5,15.6l-10.8,17.7L185.1,375.1z M206.6,374.9
	l9.5,15.6l-10.8,17.7l-9.5-15.6L206.6,374.9z M207.8,372.9l10.8-17.7l9.5,15.6l-10.8,17.7L207.8,372.9z M229.3,372.7l9.5,15.6
	L228,406.1l-9.5-15.6L229.3,372.7z M230.5,370.8l10.8-17.7l9.5,15.6L240,386.5L230.5,370.8z M252,370.6l9.5,15.6L250.7,404
	l-9.5-15.6L252,370.6z M253.2,368.7L264,351l9.5,15.6l-10.8,17.7L253.2,368.7z M274.7,368.5l9.5,15.6l-10.8,17.7l-9.5-15.6
	L274.7,368.5z M285.4,386.1l9.5,15.5l-10.8,17.7l-9.5-15.5L285.4,386.1z M320.1,364.3l10.7,17.6L320,399.6L309.3,382L320.1,364.3z
	 M321.3,362.4l10.8-17.7l10.7,17.6L332.1,380L321.3,362.4z M344.1,364.2l10.8,17.7l-10.8,17.7l-10.8-17.7L344.1,364.2z M345.2,362.2
	l10.8-17.7l10.8,17.7L356.1,380L345.2,362.2z M368.1,364.2l10.8,17.7l-10.8,17.7l-10.8-17.7L368.1,364.2z M369.2,362.2l10.8-17.7
	l10.8,17.7L380.1,380L369.2,362.2z M392.1,364.2l10.8,17.7l-10.8,17.7l-10.8-17.7L392.1,364.2z M393.2,362.2l10.8-17.7l10.8,17.7
	L404.1,380L393.2,362.2z M416.1,364.2l10.8,17.7l-10.8,17.7l-10.8-17.7L416.1,364.2z M417.2,362.2l10.8-17.7l10.8,17.7L428.1,380
	L417.2,362.2z M440,364.2l10.8,17.7L440,399.6l-10.8-17.7L440,364.2z M441.2,362.2l10.8-17.7l10.8,17.7L452,380L441.2,362.2z
	 M464,364.2l10.8,17.7L464,399.6l-10.8-17.7L464,364.2z M465.2,362.2l10.8-17.7l10.8,17.7L476,380L465.2,362.2z M488,364.2
	l10.8,17.7L488,399.6l-10.8-17.7L488,364.2z M489.2,362.2l10.8-17.7l10.8,17.7L500,380L489.2,362.2z M512,364.2l10.8,17.7L512,399.6
	l-10.8-17.7L512,364.2z M513.2,362.2l9.9-16.3l10.8,17.7L524,380L513.2,362.2z M535.1,365.6l10.8,17.7l-9.9,16.3l-10.8-17.7
	L535.1,365.6z M536.3,363.7l9.5-15.6l10.8,17.7l-9.5,15.6L536.3,363.7z M557.9,367.7l10.8,17.7l-9.5,15.6l-10.8-17.7L557.9,367.7z
	 M559,365.8l9.5-15.6l10.8,17.7l-9.5,15.6L559,365.8z M580.6,369.8l10.8,17.7l-9.5,15.6L571,385.5L580.6,369.8z M581.7,367.9
	l9.5-15.6L602,370l-9.5,15.6L581.7,367.9z M603.3,371.9l10.8,17.7l-9.5,15.6l-10.8-17.7L603.3,371.9z M604.4,370l9.5-15.6l10.8,17.7
	l-9.5,15.6L604.4,370z M626,374.1l10.8,17.7l-9.5,15.6l-10.8-17.7L626,374.1z M627.1,372.1l9.5-15.6l10.8,17.7l-9.5,15.6
	L627.1,372.1z M648.7,376.2l9.5,15.6l-9.5,15.6l-9.5-15.6L648.7,376.2z M649.9,374.3l9.5-15.6l9.5,15.6l-9.5,15.6L649.9,374.3z
	 M670.1,376.2l9.5,15.6l-9.5,15.6l-9.5-15.6L670.1,376.2z M671.3,374.3l9.5-15.6l9.5,15.6l-9.5,15.6L671.3,374.3z M691.5,376.2
	l9.5,15.6l-9.5,15.6l-9.5-15.6L691.5,376.2z M692.7,374.3l9.5-15.6l9.5,15.6l-9.5,15.6L692.7,374.3z M712.9,376.2l9.5,15.6
	l-9.5,15.6l-9.5-15.6L712.9,376.2z M714.1,374.3l9.5-15.6l9.5,15.6l-9.5,15.6L714.1,374.3z M734.3,376.2l9.5,15.6l-9.5,15.6
	l-9.5-15.6L734.3,376.2z M735.5,374.3l9.5-15.6l9.5,15.6l-9.5,15.6L735.5,374.3z M755.8,376.2l9.5,15.6l-9.5,15.6l-9.5-15.6
	L755.8,376.2z M756.9,374.3l9.5-15.6l9.5,15.6l-9.5,15.6L756.9,374.3z M777.2,376.2l9.5,15.6l-9.5,15.6l-9.5-15.6L777.2,376.2z
	 M778.3,374.3l9.5-15.6l9.5,15.6l-9.5,15.6L778.3,374.3z M798.6,376.2l9.5,15.6l-9.5,15.6l-9.5-15.6L798.6,376.2z M799.8,374.3
	l9.5-15.6l9.5,15.6l-9.5,15.6L799.8,374.3z M820,376.2l9.5,15.6l-9.5,15.6l-9.5-15.6L820,376.2z M821.2,374.3l9.5-15.6l9.5,15.6
	l-9.5,15.6L821.2,374.3z M841.4,376.2l9.5,15.6l-9.5,15.6l-9.5-15.6L841.4,376.2z M842.6,374.3l10.8-17.7l9.5,15.6l-10.8,17.7
	L842.6,374.3z M864.1,374.1l9.5,15.6l-10.8,17.7l-9.5-15.6L864.1,374.1z M865.3,372.1l10.8-17.7l9.5,15.6l-10.8,17.7L865.3,372.1z
	 M886.8,371.9l9.5,15.6l-10.8,17.7l-9.5-15.6L886.8,371.9z M888,370l10.8-17.7l9.5,15.6l-10.8,17.7L888,370z M900,350.4l10.8-17.7
	l9.5,15.6L909.5,366L900,350.4z M912,330.7l10.8-17.7l9.5,15.6l-10.8,17.7L912,330.7z M924,311l10.8-17.7l9.5,15.6l-10.8,17.7
	L924,311z M936,291.4l10.8-17.7l9.5,15.6L945.5,307L936,291.4z M948,271.7l10.8-17.7l9.5,15.6l-10.8,17.7L948,271.7z M960,252
	l10.8-17.7l9.5,15.6l-10.8,17.7L960,252z M972,232.4l10.8-17.7l9.5,15.6L981.5,248L972,232.4z M984,212.7l10.8-17.7l9.5,15.6
	l-10.8,17.7L984,212.7z M996,193l10.8-17.7l9.5,15.6l-10.8,17.7L996,193z M1008,173.4l10.8-17.7l9.5,15.6l-10.8,17.7L1008,173.4z
	 M1006.8,171.5l-9.5-15.6l10.8-17.7l9.5,15.6L1006.8,171.5z M996.1,153.9l-9.5-15.6l10.8-17.7l9.5,15.6L996.1,153.9z M985.4,136.4
	l-9.5-15.6l10.8-17.7l9.5,15.6L985.4,136.4z M974.7,118.8l-9.5-15.6L976,85.4l9.5,15.6L974.7,118.8z M964,101.3l-9.5-15.6L965.3,68
	l9.5,15.6L964,101.3z M953.3,83.7l-9.5-15.6l10.8-17.7l9.5,15.6L953.3,83.7z M942.6,66.2L933,50.5l10.8-17.7l9.5,15.6L942.6,66.2z
	 M931.9,48.6L922.3,33l10.8-17.7l9.5,15.6L931.9,48.6z M921.2,31.1l-9.5-15.6l10.8-17.7l9.5,15.6L921.2,31.1z M910.4,13.5l-9.5-15.6
	l10.8-17.7l9.5,15.6L910.4,13.5z M899.7-4l-9.5-15.6L901-37.4l9.5,15.6L899.7-4z M898.6-2.1l-10.8,17.7L878.2,0L889-17.8L898.6-2.1z
	 M877-1.9l-10.8-17.7L877-37.4l10.8,17.7L877-1.9z M875.9,0L865,17.7L854.2,0L865-17.8L875.9,0z M853-1.9l-10.8-17.7L853-37.4
	l10.8,17.7L853-1.9z M851.9,0L841,17.7L830.2,0L841-17.8L851.9,0z M829-1.9l-10.8-17.7L829-37.4l10.8,17.7L829-1.9z M827.9,0
	L817,17.7L806.2,0L817-17.8L827.9,0z M805-1.9l-10.8-17.7L805-37.4l10.8,17.7L805-1.9z M803.9,0L793,17.7L782.2,0L793-17.8L803.9,0z
	 M781-1.9l-10.8-17.7L781-37.4l10.8,17.7L781-1.9z M779.9,0L769,17.7L758.2,0L769-17.8L779.9,0z M757-1.9l-10.8-17.7L757-37.4
	l10.8,17.7L757-1.9z M755.9,0l-10.8,17.7L734.2,0L745-17.7L755.9,0z M733.1-1.9l-10.8-17.7l10.8-17.7l10.8,17.7L733.1-1.9z M731.9,0
	l-10.8,17.7L710.2,0L721-17.7L731.9,0z M709.1-1.9l-10.8-17.7l10.8-17.7l10.8,17.7L709.1-1.9z M707.9,0l-10.8,17.7L686.2,0L697-17.7
	L707.9,0z M685.1-1.9l-10.8-17.7l10.8-17.7l10.8,17.7L685.1-1.9z M683.9,0l-10.8,17.7L662.2,0L673-17.7L683.9,0z M661.1-1.9
	l-10.8-17.7l10.8-17.7l10.8,17.7L661.1-1.9z M659.9,0l-10.8,17.7L638.2,0L649-17.7L659.9,0z M637.1-1.9l-10.8-17.7l10.8-17.7
	l10.8,17.7L637.1-1.9z M635.9,0l-10.8,17.7L614.2,0L625-17.7L635.9,0z M613.1-1.9l-10.8-17.7l10.8-17.7l10.8,17.7L613.1-1.9z
	 M611.9,0l-9.5,15.6L591.5-2.1l9.5-15.6L611.9,0z M590.4-4l-10.8-17.7l9.5-15.6l10.8,17.7L590.4-4z M589.2-2.1l-9.5,15.6L568.8-4.2
	l9.5-15.6L589.2-2.1z M567.7-6.2L557-23.8l9.5-15.6l10.7,17.6L567.7-6.2z M545-8.3l-9.5-15.5l9.5-15.6l9.5,15.5L545-8.3z M543.8-6.4
	l-9.5,15.6l-9.5-15.5l9.5-15.6L543.8-6.4z M523.6-8.1l-9.5-15.6l9.5-15.6l9.5,15.6L523.6-8.1z M522.4-6.2l-9.5,15.6l-9.5-15.6
	l9.5-15.6L522.4-6.2z M502.2-8.1l-9.5-15.6l9.5-15.6l9.5,15.6L502.2-8.1z M501-6.2l-9.5,15.6L482-6.2l9.5-15.6L501-6.2z M480.8-8.1
	l-9.5-15.6l9.5-15.6l9.5,15.6L480.8-8.1z M479.6-6.2l-9.5,15.6l-9.5-15.6l9.5-15.6L479.6-6.2z M459.4-8.1l-9.5-15.6l9.5-15.6
	l9.5,15.6L459.4-8.1z M458.2-6.2l-9.5,15.6l-9.5-15.6l9.5-15.6L458.2-6.2z M438-8.1l-9.5-15.6l9.5-15.6l9.5,15.6L438-8.1z
	 M436.8-6.2l-9.5,15.6l-9.5-15.6l9.5-15.6L436.8-6.2z M416.5-8.1L407-23.8l9.5-15.6l9.5,15.6L416.5-8.1z M415.4-6.2l-9.5,15.6
	l-9.5-15.6l9.5-15.6L415.4-6.2z M395.1-8.1l-9.5-15.6l9.5-15.6l9.5,15.6L395.1-8.1z M394-6.2l-9.5,15.6L375-6.2l9.5-15.6L394-6.2z
	 M373.7-8.1l-9.5-15.6l9.5-15.6l9.5,15.6L373.7-8.1z M372.5-6.2L363,9.4l-9.5-15.6l9.5-15.6L372.5-6.2z M352.3-8.1l-9.5-15.6
	l9.5-15.6l9.5,15.6L352.3-8.1z M351.1-6.2l-9.5,15.6L332-6.2l9.5-15.6L351.1-6.2z M330.9-8.1l-9.5-15.6l9.5-15.6l9.5,15.6L330.9-8.1
	z M329.7-6.2l-9.5,15.6l-9.5-15.6l9.5-15.6L329.7-6.2z M309.5-8.1L300-23.7l9.5-15.6l9.5,15.6L309.5-8.1z M308.3-6.2l-9.9,16.3
	l-9.5-15.6l9.9-16.3L308.3-6.2z M287.6-7.5l-9.5-15.6l9.9-16.3l9.5,15.6L287.6-7.5z M286.5-5.6l-10.8,17.7l-9.5-15.6L277-21.2
	L286.5-5.6z M264.9-5.4L255.4-21l10.8-17.7l9.5,15.6L264.9-5.4z M263.8-3.5L253,14.2l-9.5-15.6l10.8-17.7L263.8-3.5z M242.2-3.3
	L231.4-21l10.8-17.7L253.1-21L242.2-3.3z M241.1-1.3l-10.8,17.7L219.4-1.3L230.2-19L241.1-1.3z M218.2-3.3L207.4-21l10.8-17.7
	L229.1-21L218.2-3.3z M217.1-1.3l-10.8,17.7L195.4-1.3L206.2-19L217.1-1.3z M194.2-3.3L183.4-21l10.8-17.7L205.1-21L194.2-3.3z
	 M193.1-1.3l-10.8,17.7L171.4-1.3L182.2-19L193.1-1.3z M170.2-3.3L159.4-21l10.8-17.7L181.1-21L170.2-3.3z M169.1-1.3l-10.8,17.7
	L147.4-1.3L158.2-19L169.1-1.3z M146.2-3.3L135.4-21l10.8-17.7L157.1-21L146.2-3.3z M145.1-1.3l-10.8,17.7L123.4-1.3L134.2-19
	L145.1-1.3z M122.2-3.3L111.4-21l10.8-17.7L133.1-21L122.2-3.3z M121.1-1.3l-10.8,17.7L99.4-1.3L110.2-19L121.1-1.3z M98.2-3.3
	L87.4-21l10.8-17.7L109.1-21L98.2-3.3z M97.1-1.3L86.3,16.4L75.4-1.3L86.2-19L97.1-1.3z M74.3-3.3L63.4-21l10.8-17.7L85.1-21
	L74.3-3.3z M73.1-1.3L62.3,16.4L51.4-1.3L62.2-19L73.1-1.3z M50.3-3.3L39.4-21l10.8-17.7L61.1-21L50.3-3.3z M49.1-1.3L38.3,16.4
	L27.4-1.3L38.2-19L49.1-1.3z M26.3-3.3L15.4-21l10.8-17.7L37.1-21L26.3-3.3z M25.1-1.3L14.3,16.4L3.4-1.3L14.2-19L25.1-1.3z
	 M2.3-3.3L-8.6-21L2.3-38.7L13.1-21L2.3-3.3z M1.1-1.3L-9.7,16.4L-20.6-1.3L-9.8-19L1.1-1.3z M-21.7-3.3L-32.6-21l10.8-17.7
	L-10.9-21L-21.7-3.3z M-22.9-1.3l-10.8,17.7L-44.6-1.3L-33.8-19L-22.9-1.3z M-45.7-3.3L-56.6-21l10.8-17.7L-34.9-21L-45.7-3.3z
	 M-46.9-1.3l-9.5,15.6L-67.3-3.4l9.5-15.6L-46.9-1.3z M-57.6,16.2l-9.5,15.6L-78,14.1l9.5-15.6L-57.6,16.2z M-68.3,33.8l-9.5,15.6
	l-10.8-17.7l9.5-15.6L-68.3,33.8z M-79,51.3l-9.5,15.6l-10.8-17.7l9.5-15.6L-79,51.3z M-89.7,68.9l-9.5,15.6L-110,66.8l9.5-15.6
	L-89.7,68.9z M-100.4,86.4L-110,102l-10.8-17.7l9.5-15.6L-100.4,86.4z M-111.1,104l-9.5,15.6l-10.8-17.7l9.5-15.6L-111.1,104z
	 M-121.9,121.5l-9.5,15.6l-10.8-17.7l9.5-15.6L-121.9,121.5z M-132.6,139.1l-9.5,15.6l-10.8-17.7l9.5-15.6L-132.6,139.1z
	 M-143.3,156.6l-9.5,15.6l-10.8-17.7l9.5-15.6L-143.3,156.6z M-154,174.2l-9.5,15.6l-10.8-17.7l9.5-15.6L-154,174.2z M-164.7,191.7
	l-9.5,15.6l-10.8-17.7l9.5-15.6L-164.7,191.7z M-175.4,209.3l-9.5,15.6l-10.8-17.7l9.5-15.6L-175.4,209.3z M-174.2,211.2l10.8,17.7
	l-9.5,15.6l-10.8-17.7L-174.2,211.2z M-162.2,230.9l10.8,17.7l-9.5,15.6l-10.8-17.7L-162.2,230.9z M-150.2,250.5l10.8,17.7
	l-9.5,15.6l-10.8-17.7L-150.2,250.5z M-138.2,270.2l10.8,17.7l-9.5,15.6l-10.8-17.7L-138.2,270.2z M-126.2,289.9l10.8,17.7
	l-9.5,15.6l-10.8-17.7L-126.2,289.9z M-114.2,309.5l10.8,17.7l-9.5,15.6l-10.8-17.7L-114.2,309.5z M-102.2,329.2l10.8,17.7
	l-9.5,15.6l-10.8-17.7L-102.2,329.2z M-90.2,348.8l10.8,17.7l-9.5,15.6l-10.8-17.7L-90.2,348.8z M-78.2,368.5l10.8,17.7l-9.5,15.6
	l-10.8-17.7L-78.2,368.5z M-66.2,388.2l10.8,17.7l-9.5,15.6l-10.8-17.7L-66.2,388.2z M-54.2,407.8l10.8,17.7l-9.5,15.6l-10.8-17.7
	L-54.2,407.8z M-53.1,405.9l9.5-15.6l10.8,17.7l-9.5,15.6L-53.1,405.9z M-31.5,410l10.8,17.7l-9.5,15.6L-41,425.6L-31.5,410z
	 M-30.4,408l9.5-15.6l10.8,17.7l-9.5,15.6L-30.4,408z M-8.8,412.1l9.5,15.6l-9.5,15.6l-9.5-15.6L-8.8,412.1z M-7.7,410.2l9.5-15.6
	l9.5,15.6l-9.5,15.6L-7.7,410.2z M12.6,412.1l9.5,15.6l-9.5,15.6L3,427.7L12.6,412.1z M13.8,410.2l9.5-15.6l9.5,15.6l-9.5,15.6
	L13.8,410.2z M34,412.1l9.5,15.6L34,443.3l-9.5-15.6L34,412.1z M35.2,410.2l9.5-15.6l9.5,15.6l-9.5,15.6L35.2,410.2z M55.4,412.1
	l9.5,15.6l-9.5,15.6l-9.5-15.6L55.4,412.1z M56.6,410.2l9.5-15.6l9.5,15.6l-9.5,15.6L56.6,410.2z M76.8,412.1l9.5,15.6l-9.5,15.6
	l-9.5-15.6L76.8,412.1z M78,410.2l9.5-15.6l9.5,15.6l-9.5,15.6L78,410.2z M98.2,412.1l9.5,15.6l-9.5,15.6l-9.5-15.6L98.2,412.1z
	 M99.4,410.2l9.5-15.6l9.5,15.6l-9.5,15.6L99.4,410.2z M119.7,412.1l9.5,15.6l-9.5,15.6l-9.5-15.6L119.7,412.1z M120.8,410.2
	l9.5-15.6l9.5,15.6l-9.5,15.6L120.8,410.2z M141.1,412.1l9.5,15.6l-9.5,15.6l-9.5-15.6L141.1,412.1z M142.3,410.2l9.5-15.6l9.5,15.6
	l-9.5,15.6L142.3,410.2z M162.5,412.1l9.5,15.6l-9.5,15.6l-9.5-15.6L162.5,412.1z M163.7,410.2l9.5-15.6l9.5,15.6l-9.5,15.6
	L163.7,410.2z M183.9,412.1l9.5,15.6l-9.5,15.6l-9.5-15.6L183.9,412.1z M185.1,410.2l9.5-15.6l9.5,15.6l-9.5,15.6L185.1,410.2z
	 M205.3,412.1l9.5,15.6l-9.5,15.6l-9.5-15.6L205.3,412.1z M206.5,410.2l10.8-17.7l9.5,15.6L216,425.8L206.5,410.2z M228,410
	l9.5,15.6l-10.8,17.7l-9.5-15.6L228,410z M229.2,408l10.8-17.7l9.5,15.6l-10.8,17.7L229.2,408z M250.7,407.8l9.5,15.6l-10.8,17.7
	l-9.5-15.6L250.7,407.8z M251.9,405.9l10.8-17.7l9.5,15.6l-10.8,17.7L251.9,405.9z M273.4,405.7l9.5,15.5L272.1,439l-9.5-15.5
	L273.4,405.7z M296.2,403.6l10.7,17.6L296.1,439l-10.7-17.6L296.2,403.6z M297.3,401.7l10.8-17.7l10.7,17.6L308,419.3L297.3,401.7z
	 M320.1,403.5l10.8,17.7L320.1,439l-10.8-17.7L320.1,403.5z M321.2,401.6l10.8-17.7l10.8,17.7L332,419.3L321.2,401.6z M344.1,403.5
	l10.8,17.7L344.1,439l-10.8-17.7L344.1,403.5z M345.2,401.6l10.8-17.7l10.8,17.7L356,419.3L345.2,401.6z M368.1,403.5l10.8,17.7
	L368.1,439l-10.8-17.7L368.1,403.5z M369.2,401.6l10.8-17.7l10.8,17.7L380,419.3L369.2,401.6z M392.1,403.5l10.8,17.7L392.1,439
	l-10.8-17.7L392.1,403.5z M393.2,401.6l10.8-17.7l10.8,17.7L404,419.3L393.2,401.6z M416.1,403.5l10.8,17.7L416.1,439l-10.8-17.7
	L416.1,403.5z M417.2,401.6l10.8-17.7l10.8,17.7L428,419.3L417.2,401.6z M440,403.5l10.8,17.7L440,439l-10.8-17.7L440,403.5z
	 M441.2,401.6l10.8-17.7l10.8,17.7L452,419.3L441.2,401.6z M464,403.5l10.8,17.7L464,439l-10.8-17.7L464,403.5z M465.2,401.6
	l10.8-17.7l10.8,17.7L476,419.3L465.2,401.6z M488,403.5l10.8,17.7L488,439l-10.8-17.7L488,403.5z M489.2,401.6l10.8-17.7l10.8,17.7
	L500,419.3L489.2,401.6z M512,403.5l10.8,17.7L512,439l-10.8-17.7L512,403.5z M513.2,401.6l10.8-17.7l10.8,17.7L524,419.3
	L513.2,401.6z M536,403.5l10.8,17.7L536,439l-10.8-17.7L536,403.5z M537.2,401.6l9.9-16.3L558,403l-9.9,16.3L537.2,401.6z
	 M559.1,404.9l10.8,17.7L560,439l-10.8-17.7L559.1,404.9z M560.3,403l9.5-15.6l10.8,17.7l-9.5,15.6L560.3,403z M581.9,407.1
	l10.8,17.7l-9.5,15.6l-10.8-17.7L581.9,407.1z M583,405.1l9.5-15.6l10.8,17.7l-9.5,15.6L583,405.1z M604.6,409.2l10.8,17.7
	l-9.5,15.6L595,424.8L604.6,409.2z M605.7,407.2l9.5-15.6l10.8,17.7l-9.5,15.6L605.7,407.2z M627.3,411.3l9.5,15.6l-9.5,15.6
	l-9.5-15.6L627.3,411.3z M628.4,409.4l9.5-15.6l9.5,15.6L638,425L628.4,409.4z M648.7,411.3l9.5,15.6l-9.5,15.6l-9.5-15.6
	L648.7,411.3z M649.9,409.4l9.5-15.6l9.5,15.6l-9.5,15.6L649.9,409.4z M670.1,411.3l9.5,15.6l-9.5,15.6l-9.5-15.6L670.1,411.3z
	 M671.3,409.4l9.5-15.6l9.5,15.6l-9.5,15.6L671.3,409.4z M691.5,411.3l9.5,15.6l-9.5,15.6l-9.5-15.6L691.5,411.3z M692.7,409.4
	l9.5-15.6l9.5,15.6l-9.5,15.6L692.7,409.4z M712.9,411.3l9.5,15.6l-9.5,15.6l-9.5-15.6L712.9,411.3z M714.1,409.4l9.5-15.6l9.5,15.6
	l-9.5,15.6L714.1,409.4z M734.3,411.3l9.5,15.6l-9.5,15.6l-9.5-15.6L734.3,411.3z M735.5,409.4l9.5-15.6l9.5,15.6L745,425
	L735.5,409.4z M755.8,411.3l9.5,15.6l-9.5,15.6l-9.5-15.6L755.8,411.3z M756.9,409.4l9.5-15.6l9.5,15.6l-9.5,15.6L756.9,409.4z
	 M777.2,411.3l9.5,15.6l-9.5,15.6l-9.5-15.6L777.2,411.3z M778.3,409.4l9.5-15.6l9.5,15.6l-9.5,15.6L778.3,409.4z M798.6,411.3
	l9.5,15.6l-9.5,15.6l-9.5-15.6L798.6,411.3z M799.8,409.4l9.5-15.6l9.5,15.6l-9.5,15.6L799.8,409.4z M820,411.3l9.5,15.6l-9.5,15.6
	l-9.5-15.6L820,411.3z M821.2,409.4l9.5-15.6l9.5,15.6l-9.5,15.6L821.2,409.4z M841.4,411.3l9.5,15.6l-9.5,15.6l-9.5-15.6
	L841.4,411.3z M842.6,409.4l9.5-15.6l9.5,15.6l-9.5,15.6L842.6,409.4z M862.8,411.3l9.5,15.6l-9.5,15.6l-9.5-15.6L862.8,411.3z
	 M864,409.4l10.8-17.7l9.5,15.6L873.5,425L864,409.4z M885.5,409.2l9.5,15.6l-10.8,17.7l-9.5-15.6L885.5,409.2z M886.7,407.2
	l10.8-17.7l9.5,15.6l-10.8,17.7L886.7,407.2z M898.7,387.6l10.8-17.7l9.5,15.6l-10.8,17.7L898.7,387.6z M910.7,367.9l10.8-17.7
	l9.5,15.6l-10.8,17.7L910.7,367.9z M922.7,348.2l10.8-17.7l9.5,15.6l-10.8,17.7L922.7,348.2z M934.7,328.6l10.8-17.7l9.5,15.6
	l-10.8,17.7L934.7,328.6z M946.7,308.9l10.8-17.7l9.5,15.6l-10.8,17.7L946.7,308.9z M958.7,289.3l10.8-17.7l9.5,15.6l-10.8,17.7
	L958.7,289.3z M970.7,269.6l10.8-17.7l9.5,15.6l-10.8,17.7L970.7,269.6z M982.7,249.9l10.8-17.7l9.5,15.6l-10.8,17.7L982.7,249.9z
	 M994.7,230.3l10.8-17.7l9.5,15.6l-10.8,17.7L994.7,230.3z M1006.7,210.6l10.8-17.7l9.5,15.6l-10.8,17.7L1006.7,210.6z
	 M1018.7,190.9l10.8-17.7l9.5,15.6l-10.8,17.7L1018.7,190.9z M1040.3,151.6l-10.8,17.7l-9.5-15.6l10.8-17.7L1040.3,151.6z
	 M1029.6,134l-10.8,17.7l-9.5-15.6l10.8-17.7L1029.6,134z M1018.9,116.5l-10.8,17.7l-9.5-15.6l10.8-17.7L1018.9,116.5z M1008.2,98.9
	l-10.8,17.7l-9.5-15.6l10.8-17.7L1008.2,98.9z M997.5,81.4l-10.8,17.7l-9.5-15.6L988,65.8L997.5,81.4z M986.8,63.8L976,81.6
	L966.4,66l10.8-17.7L986.8,63.8z M976.1,46.3L965.3,64l-9.5-15.6l10.8-17.7L976.1,46.3z M965.4,28.7l-10.8,17.7L945,30.9l10.8-17.7
	L965.4,28.7z M954.7,11.2l-10.8,17.7l-9.5-15.6l10.8-17.7L954.7,11.2z M944-6.4l-10.8,17.7l-9.5-15.6L934.4-22L944-6.4z M933.3-23.9
	L922.4-6.2l-9.5-15.6l10.8-17.7L933.3-23.9z M913-57.1l9.5,15.6l-10.8,17.7l-9.5-15.6L913-57.1z M889-57.1l10.8,17.7L889-21.6
	l-10.8-17.7L889-57.1z M865-57.1l10.8,17.7L865-21.6l-10.8-17.7L865-57.1z M841-57.1l10.8,17.7L841-21.6l-10.8-17.7L841-57.1z
	 M817-57.1l10.8,17.7L817-21.6l-10.8-17.7L817-57.1z M793-57.1l10.8,17.7L793-21.6l-10.8-17.7L793-57.1z M769-57.1l10.8,17.7
	L769-21.6l-10.8-17.7L769-57.1z M745.1-57.1l10.8,17.7l-10.8,17.7l-10.8-17.7L745.1-57.1z M721.1-57.1l10.8,17.7l-10.8,17.7
	l-10.8-17.7L721.1-57.1z M697.1-57.1l10.8,17.7l-10.8,17.7l-10.8-17.7L697.1-57.1z M673.1-57.1l10.8,17.7l-10.8,17.7l-10.8-17.7
	L673.1-57.1z M649.1-57.1l10.8,17.7l-10.8,17.7l-10.8-17.7L649.1-57.1z M625.1-57.1l10.8,17.7l-10.8,17.7l-10.8-17.7L625.1-57.1z
	 M601.1-57.1l10.8,17.7l-10.8,17.7l-10.8-17.7L601.1-57.1z M587.9-39.3l-9.5,15.6l-10.7-17.6l9.5-15.6L587.9-39.3z M555.7-57
	l9.5,15.5l-9.5,15.6l-9.5-15.5L555.7-57z M534.3-57l9.5,15.6l-9.5,15.6l-9.5-15.6L534.3-57z M512.9-57l9.5,15.6l-9.5,15.6l-9.5-15.6
	L512.9-57z M491.5-57l9.5,15.6l-9.5,15.6L482-41.3L491.5-57z M470.1-57l9.5,15.6l-9.5,15.6l-9.5-15.6L470.1-57z M448.7-57l9.5,15.6
	l-9.5,15.6l-9.5-15.6L448.7-57z M427.2-57l9.5,15.6l-9.5,15.6l-9.5-15.6L427.2-57z M405.8-57l9.5,15.6l-9.5,15.6l-9.5-15.6L405.8-57
	z M384.4-57l9.5,15.6l-9.5,15.6l-9.5-15.6L384.4-57z M363-57l9.5,15.6L363-25.7l-9.5-15.6L363-57z M341.6-57l9.5,15.6l-9.5,15.6
	L332-41.3L341.6-57z M320.2-57l9.5,15.6l-9.5,15.6l-9.5-15.6L320.2-57z M298.8-57l9.5,15.6l-9.5,15.6l-9.5-15.6L298.8-57z M277.3-57
	l9.5,15.6L276.9-25l-9.5-15.6L277.3-57z M254.2-58.4L265-40.7L254.2-23l-10.8-17.7L254.2-58.4z M230.2-58.4L241-40.7L230.2-23
	l-10.8-17.7L230.2-58.4z M206.2-58.4L217-40.7L206.2-23l-10.8-17.7L206.2-58.4z M182.2-58.4L193-40.7L182.2-23l-10.8-17.7
	L182.2-58.4z M158.2-58.4L169-40.7L158.2-23l-10.8-17.7L158.2-58.4z M134.2-58.4L145-40.7L134.2-23l-10.8-17.7L134.2-58.4z
	 M110.2-58.4L121-40.7L110.2-23L99.4-40.7L110.2-58.4z M86.2-58.4L97-40.7L86.2-22.9L75.4-40.7L86.2-58.4z M62.3-58.4l10.8,17.7
	L62.3-22.9L51.4-40.7L62.3-58.4z M38.3-58.4l10.8,17.7L38.3-22.9L27.4-40.7L38.3-58.4z M14.3-58.4l10.8,17.7L14.3-22.9L3.4-40.7
	L14.3-58.4z M-9.7-58.4L1.1-40.7L-9.7-22.9l-10.8-17.7L-9.7-58.4z M-33.7-58.4l10.8,17.7L-33.7-23l-10.8-17.7L-33.7-58.4z
	 M-57.7-58.4l10.8,17.7L-57.7-23l-10.8-17.7L-57.7-58.4z M-69.7-38.7L-58.9-21l-9.5,15.6l-10.8-17.7L-69.7-38.7z M-80.4-21.2
	l10.8,17.7l-9.5,15.6L-90-5.6L-80.4-21.2z M-91.1-3.6l10.8,17.7l-9.5,15.6L-100.7,12L-91.1-3.6z M-101.9,13.9L-91,31.7l-9.5,15.6
	l-10.8-17.7L-101.9,13.9z M-112.6,31.5l10.8,17.7l-9.5,15.6l-10.8-17.7L-112.6,31.5z M-123.3,49l10.8,17.7l-9.5,15.6l-10.8-17.7
	L-123.3,49z M-134,66.6l10.8,17.7l-9.5,15.6l-10.8-17.7L-134,66.6z M-144.7,84.1l10.8,17.7l-9.5,15.6l-10.8-17.7L-144.7,84.1z
	 M-155.4,101.7l10.8,17.7l-9.5,15.6l-10.8-17.7L-155.4,101.7z M-166.1,119.2l10.8,17.7l-9.5,15.6l-10.8-17.7L-166.1,119.2z
	 M-176.8,136.8l10.8,17.7l-9.5,15.6l-10.8-17.7L-176.8,136.8z M-187.5,154.3l10.8,17.7l-9.5,15.6l-10.8-17.7L-187.5,154.3z
	 M-198.2,171.9l10.8,17.7l-9.5,15.6l-10.8-17.7L-198.2,171.9z M-218.5,205l9.5-15.6l10.8,17.7l-9.5,15.6L-218.5,205z M-206.5,224.7
	l9.5-15.6l10.8,17.7l-9.5,15.6L-206.5,224.7z M-194.5,244.4l9.5-15.6l10.8,17.7l-9.5,15.6L-194.5,244.4z M-182.5,264l9.5-15.6
	l10.8,17.7l-9.5,15.6L-182.5,264z M-170.5,283.7l9.5-15.6l10.8,17.7l-9.5,15.6L-170.5,283.7z M-158.5,303.4l9.5-15.6l10.8,17.7
	l-9.5,15.6L-158.5,303.4z M-146.5,323l9.5-15.6l10.8,17.7l-9.5,15.6L-146.5,323z M-134.5,342.7l9.5-15.6l10.8,17.7l-9.5,15.6
	L-134.5,342.7z M-122.5,362.4l9.5-15.6l10.8,17.7l-9.5,15.6L-122.5,362.4z M-110.5,382l9.5-15.6l10.8,17.7l-9.5,15.6L-110.5,382z
	 M-98.5,401.7l9.5-15.6l10.8,17.7l-9.5,15.6L-98.5,401.7z M-86.5,421.4l9.5-15.6l10.8,17.7l-9.5,15.6L-86.5,421.4z M-63.7,458.8
	L-74.5,441l9.5-15.6l10.8,17.7L-63.7,458.8z M-41,460.9l-10.8-17.7l9.5-15.6l10.8,17.7L-41,460.9z M-19.5,460.9l-9.5-15.6l9.5-15.6
	l9.5,15.6L-19.5,460.9z M1.9,460.9l-9.5-15.6l9.5-15.6l9.5,15.6L1.9,460.9z M23.3,460.9l-9.5-15.6l9.5-15.6l9.5,15.6L23.3,460.9z
	 M44.7,460.9l-9.5-15.6l9.5-15.6l9.5,15.6L44.7,460.9z M66.1,460.9l-9.5-15.6l9.5-15.6l9.5,15.6L66.1,460.9z M87.5,460.9L78,445.3
	l9.5-15.6l9.5,15.6L87.5,460.9z M109,460.9l-9.5-15.6l9.5-15.6l9.5,15.6L109,460.9z M130.4,460.9l-9.5-15.6l9.5-15.6l9.5,15.6
	L130.4,460.9z M151.8,460.9l-9.5-15.6l9.5-15.6l9.5,15.6L151.8,460.9z M173.2,460.9l-9.5-15.6l9.5-15.6l9.5,15.6L173.2,460.9z
	 M194.6,460.9l-9.5-15.6l9.5-15.6l9.5,15.6L194.6,460.9z M216,460.9l-9.5-15.6l9.5-15.6l9.5,15.6L216,460.9z M237.5,460.9l-9.5-15.6
	l10.8-17.7l9.5,15.6L237.5,460.9z M250.6,443.1l10.8-17.7l9.5,15.5l-10.8,17.7L250.6,443.1z M284.1,458.6L273.3,441l10.8-17.7
	l10.7,17.6L284.1,458.6z M308.1,458.6l-10.8-17.7l10.8-17.7l10.8,17.7L308.1,458.6z M332.1,458.6l-10.8-17.7l10.8-17.7l10.8,17.7
	L332.1,458.6z M356.1,458.6l-10.8-17.7l10.8-17.7l10.8,17.7L356.1,458.6z M380.1,458.6l-10.8-17.7l10.8-17.7l10.8,17.7L380.1,458.6z
	 M404.1,458.6l-10.8-17.7l10.8-17.7l10.8,17.7L404.1,458.6z M428.1,458.6l-10.8-17.7l10.8-17.7l10.8,17.7L428.1,458.6z M452,458.6
	l-10.8-17.7l10.8-17.7l10.8,17.7L452,458.6z M476,458.6l-10.8-17.7l10.8-17.7l10.8,17.7L476,458.6z M500,458.6l-10.8-17.7l10.8-17.7
	l10.8,17.7L500,458.6z M524,458.6l-10.8-17.7l10.8-17.7l10.8,17.7L524,458.6z M548,458.6l-10.8-17.7l10.8-17.7l10.8,17.7L548,458.6z
	 M572,458.6l-10.8-17.7l9.9-16.3l10.8,17.7L572,458.6z M595.1,460.1l-10.8-17.7l9.5-15.6l10.8,17.7L595.1,460.1z M616.6,460.1
	l-9.5-15.6l9.5-15.6l9.5,15.6L616.6,460.1z M638,460.1l-9.5-15.6l9.5-15.6l9.5,15.6L638,460.1z M659.4,460.1l-9.5-15.6l9.5-15.6
	l9.5,15.6L659.4,460.1z M680.8,460.1l-9.5-15.6l9.5-15.6l9.5,15.6L680.8,460.1z M702.2,460.1l-9.5-15.6l9.5-15.6l9.5,15.6
	L702.2,460.1z M723.6,460.1l-9.5-15.6l9.5-15.6l9.5,15.6L723.6,460.1z M745.1,460.1l-9.5-15.6l9.5-15.6l9.5,15.6L745.1,460.1z
	 M766.5,460.1l-9.5-15.6l9.5-15.6l9.5,15.6L766.5,460.1z M787.9,460.1l-9.5-15.6l9.5-15.6l9.5,15.6L787.9,460.1z M809.3,460.1
	l-9.5-15.6l9.5-15.6l9.5,15.6L809.3,460.1z M830.7,460.1l-9.5-15.6l9.5-15.6l9.5,15.6L830.7,460.1z M852.1,460.1l-9.5-15.6l9.5-15.6
	l9.5,15.6L852.1,460.1z M873.5,460.1l-9.5-15.6l9.5-15.6l9.5,15.6L873.5,460.1z M895,460.1l-9.5-15.6l10.8-17.7l9.5,15.6L895,460.1z
	 M907,440.4l-9.5-15.6l10.8-17.7l9.5,15.6L907,440.4z M919,420.8l-9.5-15.6l10.8-17.7l9.5,15.6L919,420.8z M931,401.1l-9.5-15.6
	l10.8-17.7l9.5,15.6L931,401.1z M943,381.4l-9.5-15.6l10.8-17.7l9.5,15.6L943,381.4z M955,361.8l-9.5-15.6l10.8-17.7l9.5,15.6
	L955,361.8z M967,342.1l-9.5-15.6l10.8-17.7l9.5,15.6L967,342.1z M978.9,322.4l-9.5-15.6l10.8-17.7l9.5,15.6L978.9,322.4z
	 M990.9,302.8l-9.5-15.6l10.8-17.7l9.5,15.6L990.9,302.8z M1002.9,283.1l-9.5-15.6l10.8-17.7l9.5,15.6L1002.9,283.1z M1014.9,263.4
	l-9.5-15.6l10.8-17.7l9.5,15.6L1014.9,263.4z M1026.9,243.8l-9.5-15.6l10.8-17.7l9.5,15.6L1026.9,243.8z M1038.9,224.1l-9.5-15.6
	l10.8-17.7l9.5,15.6L1038.9,224.1z M1050.9,204.4l-9.5-15.6l10.8-17.7l9.5,15.6L1050.9,204.4z"/>
</svg>
