<svg id="圖層_1" xmlns="http://www.w3.org/2000/svg" xmlns:xlink="http://www.w3.org/1999/xlink" viewBox="0 0 203.9 169.7" style="enable-background:new 0 0 203.9 169.7"><style>.st0{fill:#5d6d91}.st1{fill:#b6b6be}.st2{fill:#e7251f}.st3{opacity:.3;fill:#152040}.st4{fill:#fff}.st5{fill:#8d8ca5}.st6{fill:#e5e5e4}.st7{fill:#738fae}.st8{fill:#e0d1bf}.st9{fill:url(#XMLID_41_)}.st10{fill:url(#XMLID_42_)}.st11{fill:#5b6f93}.st12{fill:#99b4c3}.st13{fill:#b8cacb}.st14{fill:#434e82}.st15{fill:url(#XMLID_43_)}.st16{fill:url(#XMLID_44_)}.st17{fill:#d3684f}.st18{fill:url(#XMLID_45_)}.st19{fill:#eedfa3;stroke:#d9b47c;stroke-width:.454;stroke-miterlimit:10}.st20{fill:#231815}.st21{fill:#3e210e}.st22{fill:#c28b2f;stroke:#a87127;stroke-width:.2586;stroke-miterlimit:10}.st23{fill:#e3a290}.st24{fill:#ad5e22}.st25{fill:none;stroke:#ad5e22;stroke-width:.3;stroke-linecap:round;stroke-miterlimit:10}.st26{fill:#7a7b8d}.st27{fill:#f7dfd2}.st28{fill:#b0b7bb}.st29{fill:#fffcf3}.st30{fill:#ed7055}.st31{fill:#e3e2e2}.st32{opacity:.38;fill:url(#XMLID_46_)}.st33{fill:url(#XMLID_47_)}.st34{fill:url(#XMLID_48_)}.st35{fill:url(#XMLID_49_)}.st36{fill:url(#XMLID_50_)}.st37{opacity:.39;fill:url(#XMLID_51_)}.st38{fill:url(#XMLID_52_)}.st39{fill:url(#XMLID_53_)}.st40{opacity:.77;fill:url(#XMLID_54_)}</style><path id="XMLID_281_" class="st0" d="M75.6 81.5c-2.1-4.3-9.6-19.6-15.2-18.2-3.9 1-9 8.1-10.3 11.6-1.6 4.4-1.5 9.3-1.2 13.9 4.4 1 10 2.6 13.9 4.5C64.1 87.5 70.9 84.1 75.6 81.5z"/><path id="XMLID_280_" class="st1" d="M136.8 110.6 133.3 128.7 123.6 131.2 141 135.4 155.7 111.3z"/><path id="XMLID_279_" class="st2" d="M145.4 126.7c-3.6-1.1-7.4-1.9-11.1-2.9l-.9 4.9-9.8 2.4 17.5 4.2 5.1-8.4C145.9 126.9 145.7 126.8 145.4 126.7z"/><path id="XMLID_278_" class="st3" d="M136.8 110.6l-.8 4.2c1.5.8 3 1.8 4.3 3 3 2.8 3.4 7.6 1.4 11.1-1.2 2-2.4 3.9-3.8 5.8l3 .7 14.7-24.1L136.8 110.6z"/><path id="XMLID_277_" class="st4" d="M94.9 95c-.1-.4-.6-.8-1.1-.6-1.6.6-2.3 2.3-3.3 3.5-1.1 1.4-2.5 2.5-4.2 3.1-2.8.9-7 0-8.7-2.5-1.5-2.2-1.1-5.3-.5-7.7.4-1.5.9-3 1.5-4.5.5-1.4.8-2.8 1.2-4.1.2-.7-.6-1-1.1-.6-3 2.4-4.7 5.5-5.5 9.3-.8 3.5-.6 7.5 1.7 10.4 2.7 3.3 7.7 4.3 11.8 3.3 2.2-.5 4.1-1.9 5.5-3.6C93.6 99.4 95.5 97 94.9 95z"
	/><path id="XMLID_276_" class="st5" d="M136.5 77.7c-3.6-.8-7.2-1.7-10.4-3.3-3.7-1.8-6.5-4.7-10.2-6.8-5.5-3-9.1-2.5-15.2-.7-7.4 2.2-24.3 8.9-18.6 19.6 5.9 11 20.7 16.8 31.9 20.5 13.7 4.6 25.8 8.5 40 7.5.0.0-.1.1.0.1.0-2.9 3.4-32.8 2.9-32.9-6.1-1.6-12.6-2.4-18.8-3.6C137.4 77.9 136.9 77.8 136.5 77.7z"/><path id="XMLID_275_" class="st6" d="M184.1 62.9 172.2 81.6 163.9 81.8l-10 32.7L176.7 108.1 188.5 79.2 203.9 81.6z"/><path id="XMLID_274_" class="st2" d="M184.8 80.4c.7.8 1.5 1.7 2.2 2.5l1.5-3.7 15.4 2.3-19.8-18.6-6.1 9.6C180.3 75.1 182.6 77.7 184.8 80.4z"/><path id="XMLID_273_" class="st3" d="M189.1 67.6c-1.1 3.2-2.5 6.4-3.9 9.5-1.2 2.9-2.7 5.7-4.4 8.3-2.8 4.2-5.9 8.5-9.6 12-2.6 2.5-5.5 4.6-8.4 6.7-1 .7-2 1.4-3.2 1.9-1.2.6-2.5 1.1-3.7 1.7l-2.1 6.8 22.8-6.4 11.9-28.9 15.4 2.3L189.1 67.6z"/><path id="XMLID_272_" class="st7" d="M164.8 81.6c-.9.0-8.6-.6-8.7-.3-.9 5-1.1 7.5-2.7 13.1-.4 1.5-7.8 20.2-7.6 20.3 1.4.7 4.1.4 5.7.4 1.5.0 3.3-.3 4.7-.8 3.1-1.1 4.8-3.8 6-6.7 2.2-5.7 3.2-12.4 3.2-18.5C165.5 86.3 165.2 83.9 164.8 81.6z"/><path id="XMLID_271_" class="st3" d="M145.1 106c-3.6-.2-7.1-.8-10.6-1.5-5-.9-9.8-2.5-14.6-4.4-6.1-2.3-12-5.2-17.9-8.1-7.2-3.6-14.2-7.9-20.4-13.3-1.1 2.3-1.2 4.9.3 7.7 5.9 11 20.7 16.8 31.9 20.5 11.1 3.7 21.1 7 32 7.6.0.0.0.0.0.0 1.4.7 4.1.4 5.7.4 1.5.0 3.3-.3 4.7-.8 3.1-1.1 4.8-3.8 6-6.7.3-.7.5-1.4.8-2.1C157.2 106.6 151.1 106.6 145.1 106z"/><path id="XMLID_270_" class="st0" d="M154.3 64c-6.1-5.4-16-5.4-23.3-7.9-3.4 5.5-4.1 14.5-6 20.5 4 1 36.3 7.4 36.3 7.4C163.4 78.2 158.8 68 154.3 64z"/><path id="XMLID_269_" class="st4" d="M140.8 72.1c-2.9-2.9-6.6-5.1-10.6-6-4.2-1-8.4-.8-12.6.1-.5.1-.3.8.1.9 7.7.9 15.9 2.9 21.2 9.1 4.5 5.3 6.3 12.6 5.8 19.5-.4 6.3-3.2 12.5-8.2 16.5-2.6 2.1-5.8 3.2-9 3.8-2.2.4-4.5-.4-6.6-1.1-4-1.2-7.8-3-11.2-5.4-2.5-1.8-2.7-2.5-2.2-5.5.4-2 1-3.4-1.6-3.9-2.1-.4-4-.8-4.4 1.6-.9 5 4.1 9.6 7.8 12.1 4.8 3.2 10.8 5.7 16.6 6.3 3.1.3 6.4-.9 9.1-2.2 3-1.4 5.6-3.5 7.6-6 4.3-5.2 6.2-12 6.2-18.7C148.9 85.5 146.1 77.6 140.8 72.1z"/><path id="XMLID_268_" class="st1" d="M118.7 84.8c-7.4 2.7-7.4 11.1-10.1 17.3-5.2 12-16.8 16.9-29.1 16.3-.2-1.1-1.6-6.7-3.2-6.8-2.7-.1-1.6 5.8-1.8 7.3-4.5-.1-8.9-3.4-8.9 3.9.0 3.2 1.7 5.8 4.2 7.7 10.1 7.6 26.2 2.6 37-.8 16.3-5.2 28-15.9 27.6-33.7C134.1 89 125.8 82.2 118.7 84.8z"/><path id="XMLID_267_" class="st8" d="M92.8 124.7c6.2.2 9.6-9.9.9-6.5C90.2 119.6 86.7 124.6 92.8 124.7z"/><path id="XMLID_266_" class="st2" d="M109.9 126.7c.5.5 1 .9 1.5 1.3 5-2.1 9.5-4.7 13.1-8.1-.1-.1-.2-.2-.3-.2-4.1-3.5-8.3-6.9-12.5-10.2-1.5-1.2-3-2.3-4.5-3.5-.2-.1-.3-.1-.5-.1-1.7 2.7-3.7 4.9-6.1 6.6C103.6 117.2 106.7 122 109.9 126.7z"/><path id="XMLID_265_" class="st4" d="M97.3 94.2c22.9-.8 38.6-20.4 40.3-42.3.5-6.4.1-13.2-2.3-19.2-3.9-9.5-11.9-18-21.2-22.4-10.7-5-23.4-6.4-34.5-1.8-16.3 6.8-28.2 23.3-29 41.2C49.3 76.3 71.6 95.1 97.3 94.2z"/><linearGradient id="XMLID_41_" gradientUnits="userSpaceOnUse" x1="-1692.2555" y1="91.6625" x2="-1699.5935" y2="16.1861" gradientTransform="matrix(1 0 0 1 1783.548 0)"><stop offset="0" style="stop-color:#3d90cd"/><stop offset="1" style="stop-color:#192549"/></linearGradient><path id="XMLID_264_" class="st9" d="M122.2 40.8c-3.9-9.5-11.9-18-21.2-22.4C72.3 5 45.6 33.3 50.5 61.9c.6 3.7 1.7 7.3 3.3 10.7 3.5 7.8 9.4 14.1 17 18.1 11.9 6.3 23.4 7.5 35.5 1 8.3-4.4 15.3-12.3 18.4-21.1C127.6 62.2 125.4 48.8 122.2 40.8z"/><linearGradient id="XMLID_42_" gradientUnits="userSpaceOnUse" x1="-1692.3917" y1="90.5421" x2="-1700.778" y2="-3.8033" gradientTransform="matrix(1 0 0 1 1783.548 0)"><stop offset="0" style="stop-color:#31648e"/><stop offset="1" style="stop-color:#192549"/></linearGradient><path id="XMLID_261_" class="st10" d="M122.2 38c-3.9-9.5-11.9-18-21.2-22.4C72.3 2.2 45.6 30.5 50.5 59.1c.6 3.7 1.7 7.3 3.3 10.7 3.5 7.8 9.4 14.1 17 18.1 11.9 6.3 23.4 7.5 35.5 1 8.3-4.4 15.3-12.3 18.4-21.1C127.6 59.4 125.4 46 122.2 38zM102.4 86.3c-9 3.3-19.1 3-27.8-1.2-14.6-7.1-24-29-18.9-44.4 1.7-5.1 4.3-10.5 9.8-12.2 5.2-1.6 10.9-.1 16.1-2 6.5-2.3 12.7-5.2 19.6-2.7 6.1 2.2 11.7 7.2 14.7 12.9-6.5.5-7.3 8.1-6.7 14.5.7 7.3 6.3 10.8 12.6 12.2.8.2-4.4 11.7-5.1 12.7-2.2 3.1-5.3 5.5-8.6 7.4C106.3 84.6 104.4 85.5 102.4 86.3z"/><path id="XMLID_260_" class="st8" d="M113.7 49.6c.4 4.4 2.9 7.7 7.2 8.9 9.3 2.5 13.5-8.6 9.7-15.8C125.6 33.5 112.9 40.5 113.7 49.6z"/><path id="XMLID_259_" class="st11" d="M167 107.3c.8-3.7 4.4-8 6.3-9.5 3.4-2.6 7.9-3.6 10.8.1.0.0.0.0.0.0.0 5.1-2.3 9.6-6.8 12.1-1.9 1.1-4 1.9-6.1 2.2C168.2 112.6 166.4 110.2 167 107.3z"/><path id="XMLID_258_" class="st12" d="M169.3 108.9c0-.1.1-.2.1-.3.4-1.3 1.1-2.4 1.8-3.4 1.5-2.2 3.6-3.9 5.7-5.4 1.1-.7 2.2-1.3 3.4-2 1-.6 2.3-1.2 3.5-1 0 0 0 0 0 0 .6 1.7.3 4.3-.3 6-.6 1.8-1.5 3.5-2.9 4.8-.8.8-1.7 1.5-2.6 2.1-1.9 1.2-4 2-6.2 2.6-.8.2-1.9.6-2.7.3C168.5 112.4 169 109.8 169.3 108.9z"/><path id="XMLID_257_" class="st13" d="M174.1 107.1c0-.1.0-.1.0-.1.2-.6.5-1.1.9-1.6.7-1 1.7-1.8 2.7-2.6.5-.4 1.1-.6 1.6-.9.5-.3 1.1-.6 1.7-.5.0.0.0.0.0.0.3.8.1 2-.1 2.9-.3.8-.7 1.7-1.4 2.3-.4.4-.8.7-1.3 1-.9.6-1.9.9-3 1.2-.4.1-.9.3-1.3.2C173.7 108.8 174 107.6 174.1 107.1z"/><path id="XMLID_256_" class="st11" d="M177.5 101.4c.8.4 3.5-.9 2.6-1.7C179.3 98.8 176.7 100.9 177.5 101.4z"/><path id="XMLID_255_" class="st11" d="M172.8 106.1c.9.1 2.9-2.2 1.7-2.6C173.4 103.1 171.8 106 172.8 106.1z"/><path id="XMLID_254_" class="st11" d="M171.4 110.7c.5-.4 2-1.9.6-2.2-.8-.2-2 1.4-1.8 2.1C170.4 111.3 170.9 111.1 171.4 110.7z"/><path id="XMLID_253_" class="st11" d="M181.7 100.9c.6.4 1.9-.9 1.1-1.4C182.2 99.1 181 100.4 181.7 100.9z"/><path id="XMLID_252_" class="st14" d="M117.1 102.9c4 8 18.1.5 10.7-7.8C122.2 88.8 113.6 95.9 117.1 102.9z"/><path id="XMLID_251_" class="st2" d="M131.9 92.1c-1.3.8-2.2 2-3.1 3.1-1.2 1.4-2.4 2.8-3.7 4.2-1.5 1.6-3 3.1-4.6 4.6.7-1.6 1.3-3.2 2-4.8 1-2.5 2.5-6.3 1.5-9-.1-.3-.6-.5-.8-.1-.6 1.2-.8 2.6-1.2 4-.4 1.6-1 3.1-1.6 4.6-1.1 3-2.7 5.8-3.6 8.9-.3 1 1 1.6 1.7 1 2.7-2.6 5.5-4.9 8.1-7.5 2.2-2.2 5.4-5 6.1-8.2C132.7 92.3 132.3 91.9 131.9 92.1z"/><g id="XMLID_198_"><linearGradient id="XMLID_43_" gradientUnits="userSpaceOnUse" x1="-337.3329" y1="43.9621" x2="-268.8582" y2="43.9621" gradientTransform="matrix(0.9827 -0.1854 0.1854 0.9827 379.0373 -42.664)"><stop offset="0" style="stop-color:#e7d37e"/><stop offset=".2082" style="stop-color:#e7d17b"/><stop offset=".392" style="stop-color:#e6ce70"/><stop offset=".5666" style="stop-color:#e4c85e"/><stop offset=".7348" style="stop-color:#e1bf44"/><stop offset=".7526" style="stop-color:#e0be41"/><stop offset="1" style="stop-color:#dca921"/></linearGradient><path id="XMLID_250_" class="st15" d="M62.8 44.6c0-.1.1-.1.0-.2.0-.1-.1-.1-.2-.1.0.0-3.1-.4-5.1-3.5-1.9-3.1-1.5-8.4 1.9-11.1 3.2-2.4 8-3.7 12 0 0 0 1.8 1.4 2.3 4 0 .1.0.1.1.1.0.0.1.0.2.0.8-.2 1.1-.3 1.9-.5.0.1.0.1-.1.2-2.1 7.5 2.6 11.3 2.7 11.3.0.0.1.0.2.0.0.0.1.0.1.0.1-.1.1-.2.1-.2.0.0-1-2.2-.2-3.8.2.6.4 1.2.7 1.7 1.3 2.5 3.7 4.3 7 5.3.0.0.1.0.1.0.0.0.1.0.1.0.1.0.1-.1.1-.2.0-.1-.1-5.1 3-8.1-.3 1.2-.9 3.9-1.4 4.8.0.1.0.2.0.2.1.1.2.1.2.0.1.0 9.2-4.1 7.9-11.5.1.0.3.1.5.3.2 1.8.8 3.1.9 3.1.1.1.2.2.3.1.1.0.1-.2.1-.3-.1-.1-.6-1.3-.8-3 0 0 0 0 0-.1-.3-2 0-4.6 2-6.5 3.8-3.6 9.4-1.6 11.8-.2 2.9 1.8 5.3 5.4 5.6 9.2.1 1.6-.6 3.5-1.8 4.8-1.2 1.3-2.9 2-4.5 2.1-.4.0-.9.0-1.3.0-.1.0-.2.1-.2.2.0.1.1.2.2.2.4.0.9.0 1.4.0.2.0.4.0.6-.1 1.5-.3 3-1 4.1-2.1 8.5 7.3 11.3 19.4 8.4 29.7-2.4 8.6-10.5 15.8-19 17.4C97.2 89.3 89 90 81.3 89 70 87.5 59.7 81.8 57 69.8 55 61.1 57.2 51.2 62.8 44.6z"/><linearGradient id="XMLID_44_" gradientUnits="userSpaceOnUse" x1="-337.3188" y1="63.0455" x2="-273.8891" y2="63.0455" gradientTransform="matrix(0.9827 -0.1854 0.1854 0.9827 379.0373 -42.664)"><stop offset="0" style="stop-color:#fbe9d0"/><stop offset=".7085" style="stop-color:#f6e6ba"/><stop offset="1" style="stop-color:#f3e4af"/></linearGradient><path id="XMLID_249_" class="st16" d="M122.3 73.9c-13.4-6.4-28.9-9-43.5-9.3C67.5 64.5 59.2 68 56.9 69c0 .3.1.5.1.8C59.1 82.3 70 87.5 81.3 89c7.8 1 15.8.1 23.4-1.1C111.5 86.7 119.4 80.4 122.3 73.9z"/><path id="XMLID_248_" class="st17" d="M88.2 72.4c.2.7.8 4.6-1.5 6.8-1.3 1.2-3.3 1.7-6.1 1.3-3-.4-5.2-1.4-6.5-3.1-1.8-2.4-1.5-5.4-1.4-6.1.6.0 1.1-.1 1.6-.2 2.3-.4 3.9-1.3 4.4-1.5C80.9 71.2 84.6 72.7 88.2 72.4z"/><linearGradient id="XMLID_45_" gradientUnits="userSpaceOnUse" x1="-313.0502" y1="23.776" x2="-292.0436" y2="23.776" gradientTransform="matrix(0.9827 -0.1854 0.1854 0.9827 379.0373 -42.664)"><stop offset="0" style="stop-color:#c09e5e"/><stop offset=".2474" style="stop-color:#bd9437"/><stop offset=".5014" style="stop-color:#b58e32"/><stop offset=".9334" style="stop-color:#9d7d28"/><stop offset="1" style="stop-color:#997a27"/></linearGradient><path id="XMLID_247_" class="st18" d="M83.1 27.4c.1.0.1.0.2.0.0.0 3.3-2 6.6-1.1 1.9.5 3.4 1.9 4.5 4.1-.1.0-.2.0-.3.0-.1.0-.2.1-.2.2.0.1.1.2.2.2 1.9.0 2 1.7 2 1.8 1.4 6.4-5.2 10.3-7.1 11.4.6-1.5 1.2-4.8 1.3-5 0-.1.0-.2-.1-.2-.1.0-.2.0-.2.0-3.3 2.7-3.6 7.4-3.6 8.6-3.1-1-5.3-2.7-6.5-5-1.9-3.7-.6-7.9-.6-7.9.0-.1.0-.2-.1-.3-.1.0-.2.0-.3.1.0.1-.9 2.9-.2 6 0 0-.1.0-.1.1-.7 1.2-.5 2.7-.2 3.6-1.2-1.3-3.5-4.7-2-10.3C78.3 26.4 82.9 27.4 83.1 27.4z"/><path id="XMLID_246_" class="st19" d="M62.5 36.4c.3-.2.6-.4.9-.5.3-.1.6.0.9.1.9.3 1.6 1.2 2.1 2 .5.8.8 1.5.9 1.7-1 .6-1.8 1.3-2.8 2.3.0.0.0.0.0.0-.6-.4-1.3-.9-1.9-1.4-.6-.6-1-1.3-1.1-1.9C61.5 37.9 61.9 36.9 62.5 36.4z"/><path id="XMLID_245_" class="st19" d="M101.3 34.9c.5-1.2 1.6-2 2.8-1.9 1.2.1 2.5 1.1 2.8 2.4.2.8.1 1.9-.3 2.8-.2.5-.9 1.4-1.4 1.4-.4-.3-2.9-2.1-4.3-2.9C100.8 36.4 101.1 35.3 101.3 34.9z"/><path id="XMLID_244_" class="st20" d="M87.1 60.4c7.3-3 14 1.3 14 1.4.0.0.1.0.1.0.1.0.1.0.1-.1.0-.1.0-.2-.1-.3-.7-.6-4.1-3.1-7.5-3.5-3.2-.4-6.8 2-6.9 2.1-.1.1-.1.2-.1.3C86.9 60.4 87 60.5 87.1 60.4z"/><path id="XMLID_243_" class="st21" d="M93.9 58.4c1.9.2 3.8 1.1 5.2 2-2.1-.9-5.4-1.9-9.2-1.2-.2.0-.4.1-.6.1C90.5 58.7 92.3 58.2 93.9 58.4z"/><path id="XMLID_242_" class="st20" d="M65.1 60.4c0 0 4.7-1.7 8.4.3.0.0.1.0.1.0.0.0.1.0.1-.1.1-.1.1-.2.0-.3.0.0-3.7-4.2-8.9-.3-.1.1-.1.2-.1.3C64.9 60.4 65 60.4 65.1 60.4z"/><path id="XMLID_241_" class="st21" d="M72.6 59.8c-2.4-.8-4.9-.5-6.3-.2C69.2 58 71.4 59 72.6 59.8z"/><path id="XMLID_240_" class="st22" d="M70.2 47.1c1.4-.3 2.7.1 2.9.7.1.7-1 1.5-2.4 1.8-1.4.3-2.7.0-2.9-.7C67.7 48.2 68.8 47.4 70.2 47.1z"/><path id="XMLID_239_" class="st22" d="M91.4 47.8c.1-.4.6-.7 1.3-.8.4-.1 1 0 1.5.1.7.1 1.4.4 1.8.8.4.3.6.7.6.9-.1.6-1.4.9-2.8.6C92.5 49.2 91.4 48.5 91.4 47.8z"/><path id="XMLID_238_" class="st23" d="M113.9 58.9c-9.1 1.7-12.6 10.7-11.3 19 .6 3.7 2.4 6.9 4.9 9.1 7-2.2 14.3-9.4 16.1-16.5.9-3.5 1-6.7.7-10C121.2 58.9 117.6 58.2 113.9 58.9z"/><path id="XMLID_237_" class="st23" d="M65 70.2c-.8-5.2-4.2-9.4-8.7-11.5-.4 3.3.0 7 .7 11.1.9 5.4 3.7 9 6.1 11.8C64.7 78.5 65.7 74.6 65 70.2z"/><path id="XMLID_236_" class="st24" d="M99.1 89.3c-7.7.9-14.5.7-18 .2-11.8-1.9-22.7-7.3-24.6-19.5-1.4-9.1-.7-17.3 5.6-25.3-.9-.2-3.3-.9-5-3.7-2-3.3-1.6-8.9 2-11.6 3.1-2.4 8.3-3.8 12.5.1.1.0 1.8 1.4 2.4 4 .8-.2 1.2-.3 2-.5.1.0.2.0.3.1.0.1.0.2-.1.2-.9.2-1.3.3-2.2.6-.1.0-.1.0-.2.0.0.0-.1-.1-.1-.1-.5-2.6-2.3-4-2.3-4-4-3.7-8.8-2.4-12 0-3.5 2.6-3.9 8-1.9 11.1 2 3.2 5.1 3.5 5.1 3.5.1.0.1.1.2.1.0.1.0.2.0.2C57.2 51.2 55 61.1 57 69.8 59.7 81.8 70 87.5 81.3 89c7.8 1 16 .3 23.4-1.1 8.4-1.6 16.6-8.8 19-17.4 2.9-10.5.0-22.7-8.5-29.8-.1-.1-.1-.2.0-.3.1-.1.2-.1.3.0 8.6 7.2 11.5 19.6 8.5 30.2-2.4 8.7-10.4 15.4-19.3 17.7C102.9 88.7 101 89 99.1 89.3z"/><path id="XMLID_235_" class="st24" d="M111.1 42.8c-.2.0-.4.1-.6.1-.5.0-.9.0-1.4.0-.1.0-.2-.1-.2-.2.0-.1.1-.2.2-.2.4.0.9.0 1.3.0 1.6-.1 3.3-.9 4.5-2.1 1.2-1.3 1.9-3.2 1.8-4.8-.2-3.7-2.6-7.3-5.6-9.2-2.3-1.4-8-3.4-11.8.2-3.7 3.6-1.3 9.4-1.2 9.6.1.1.0.2-.1.3-.1.0-.2.0-.3-.1.0-.1-2.7-6.4 1.3-10.1 3.9-3.7 9.8-1.7 12.3-.2 3.1 1.9 5.5 5.6 5.8 9.5.1 1.7-.6 3.7-1.9 5C114.2 41.8 112.6 42.6 111.1 42.8z"/><path id="XMLID_234_" class="st24" d="M78.7 44.8c-.1.0-.1.0-.2.0.0.0-4.8-3.8-2.7-11.3 2-7.1 6.6-6.6 7.2-6.5.5-.3 3.6-2 6.8-1.2 2 .6 3.7 2 4.9 4.5.1.1.0.2-.1.3-.1.1-.2.0-.3-.1-1.2-2.4-2.7-3.8-4.6-4.3-3.3-.9-6.6 1.1-6.6 1.1.0.0-.1.0-.2.0-.2.0-4.8-1-6.8 6.2-1.6 5.6.8 9 2 10.3-.3-.9-.5-2.4.2-3.6.1-.1.2-.1.3-.1.1.1.1.2.1.3-1 1.7.1 4 .1 4C78.9 44.7 78.9 44.7 78.7 44.8c.09999999999999432.0.0.0.0.0z"/><path id="XMLID_233_" class="st24" d="M86.5 47.8c0 0-.09999999999999432.0.0.0-3.5-1-5.8-2.8-7.1-5.3-2-3.9-.7-8.1-.6-8.2.0-.1.2-.2.3-.1.1.0.2.2.1.3.0.0-1.3 4.2.6 7.9 1.2 2.3 3.4 4 6.5 5 0-1.2.3-5.9 3.6-8.6.1-.1.2-.1.2.0.1.0.1.1.1.2.0.2-.7 3.4-1.3 5 2-1 8.5-5 7.1-11.4.0-.1-.1-1.8-2-1.8-.1.0-.2-.1-.2-.2.0-.1.1-.2.2-.2 2.2.1 2.4 2.2 2.4 2.2 1.7 7.7-7.8 12-7.9 12-.1.0-.2.0-.2.0-.1-.1-.1-.2.0-.2.5-.9 1.1-3.5 1.4-4.8-3.1 3-3 8-3 8.1C86.7 47.6 86.6 47.7 86.5 47.8c.09999999999999432.0.0.0.0.0z"/><path id="XMLID_230_" class="st24" d="M97.2 33.4c0 0-.1.0-.1.0C96.6 33 96.5 33 96.4 33c-.1.1-.2.1-.2.0-.1-.1-.1-.2-.1-.3.0.0.1-.1.2-.2.2-.1.6.1 1 .4.1.1.1.2.1.3C97.3 33.4 97.3 33.4 97.2 33.4zM96.5 33c0 0 0 0 0 0 0 0 0 0 0 0z"/><path id="XMLID_225_" class="st24" d="M64.7 42.5c-.1.0-.3.0-.3-.1-.7-.4-1.4-.9-1.9-1.5-.7-.7-1.1-1.4-1.2-2.2-.2-.9.3-2 1-2.7.7-.6 1.4-.7 2.2-.5 1.1.3 1.8 1.3 2.3 2.2 1.1 1.8 1 2 1 2.1.0.1-.1.1-.1.1-1 .6-1.9 1.3-2.8 2.3C64.8 42.4 64.8 42.4 64.7 42.5 64.8 42.4 64.8 42.4 64.7 42.5c0-.10000000000000142.0.0.0.0v0zM64.7 42.3C64.7 42.2 64.7 42.2 64.7 42.3 64.7 42.2 64.7 42.2 64.7 42.3zm0 0C64.7 42.2 64.7 42.2 64.7 42.3 64.7 42.2 64.7 42.2 64.7 42.3zM63.4 35.9c-.3.1-.6.2-.9.5-.6.6-1 1.5-.9 2.3.1.7.5 1.3 1.1 1.9.5.6 1.2 1 1.9 1.4.0.0.0.0.0.0.9-1 1.8-1.7 2.8-2.3-.1-.3-.5-1-.9-1.7-.5-.8-1.1-1.7-2.1-2C64 35.9 63.7 35.9 63.4 35.9z"/><path id="XMLID_222_" class="st24" d="M105.3 40c-.1.0-.1.0-.2.0.0.0-.1.0-.1.0.0.0-2.8-2.1-4.4-2.9.0.0.0.0.0.0-.1.0-.1-.1-.2-.2-.2-.5.4-2.2.4-2.2.5-1.4 1.8-2.2 3.1-2.2 1.4.1 2.8 1.3 3.2 2.8.2.9.1 2-.3 3.1C106.7 38.9 106 39.9 105.3 40zM105.2 39.6c.5.0 1.2-.9 1.4-1.4.4-.9.5-2 .3-2.8-.3-1.3-1.6-2.4-2.8-2.4-1.2-.1-2.3.7-2.8 1.9-.2.5-.5 1.5-.5 1.8C102.3 37.4 104.8 39.3 105.2 39.6z"/><path id="XMLID_219_" class="st21" d="M101.3 61.8c0 0-.1.0-.1.0-.1.0-6.8-4.3-14-1.4-.1.0-.2.0-.3-.1-.1-.1.0-.2.1-.3.1-.1 3.7-2.5 6.9-2.1 3.4.4 6.8 2.9 7.5 3.5.1.1.1.2.1.3C101.4 61.8 101.4 61.8 101.3 61.8zM89.9 59.1c3.7-.7 7.1.3 9.2 1.2-1.4-.8-3.3-1.7-5.2-2-1.6-.2-3.3.3-4.6.9C89.5 59.2 89.7 59.2 89.9 59.1z"/><path id="XMLID_216_" class="st21" d="M73.7 60.7c0 0-.1.0-.1.0-3.7-1.9-8.4-.3-8.4-.3-.1.0-.2.0-.2-.1.0-.1.0-.2.1-.3 5.2-3.9 8.8.3 8.9.3.1.1.1.2.0.3C73.7 60.7 73.7 60.7 73.7 60.7zM66.2 59.6c1.5-.3 4-.6 6.3.2C71.4 59 69.2 58 66.2 59.6z"/><path id="XMLID_215_" class="st24" d="M74.4 71.2c-.6.1-1.2.2-1.8.2-1.2.0-2-.2-2.6-.9-.8-.9-.7-2.2-.7-2.3.0-.1.1-.2.2-.2.1.0.2.1.2.2.0.0-.1 1.2.6 2 .5.5 1.3.8 2.3.7 3.1-.1 5.5-1.4 6-1.7.1-.8.2-2.9.2-2.9.0-.1.1-.2.2-.2.1.0.2.1.2.2.0.1-.1 2.3-.2 3 0 .1.0.1-.1.1C78.8 69.6 77 70.7 74.4 71.2z"/><path id="XMLID_214_" class="st24" d="M89.5 72.3c-.1.0-.2.0-.4.1-4 .6-8.2-1-10.5-2.8-.1-.1-.1-.2.0-.3.1-.1.2-.1.3.0 2.3 1.7 6.3 3.3 10.2 2.7 3.5-.6 3.5-2.2 3.5-2.2.0-.1.1-.2.2-.2.1.0.2.1.2.2C92.9 69.8 92.9 71.6 89.5 72.3z"/><path id="XMLID_213_" class="st24" d="M83.7 80.9c-.9.1-2 .1-3.2.0-3.1-.4-5.4-1.5-6.8-3.2-2.2-2.8-1.4-6.4-1.4-6.6.0-.1.1-.2.2-.2.1.0.2.1.2.2.0.0-.7 3.6 1.3 6.3 1.3 1.7 3.5 2.7 6.5 3.1 2.7.3 4.8-.1 6.1-1.3 2.5-2.3 1.5-6.8 1.5-6.9.0-.1.0-.2.1-.3.1.0.2.0.3.2.1.2 1.1 4.8-1.6 7.2C86.2 80.2 85.1 80.7 83.7 80.9z"/><path id="XMLID_210_" class="st24" d="M70.8 50c-1.7.3-3.2-.1-3.4-1-.2-.9 1-2 2.7-2.3s3.2.1 3.3 1.1C73.7 48.7 72.5 49.7 70.8 50zM70.2 47.1c-1.4.3-2.5 1.1-2.4 1.8.1.7 1.4 1 2.9.7 1.4-.3 2.5-1.1 2.4-1.8C72.9 47.2 71.6 46.8 70.2 47.1z"/><path id="XMLID_207_" class="st24" d="M95.5 49.9c-.5.0-1 0-1.6-.1-1.7-.3-2.9-1.2-2.8-2 .1-.9 1.6-1.4 3.2-1 .8.1 1.5.4 2 .8.6.4.8.9.8 1.3C97 49.5 96.4 49.8 95.5 49.9zM92.8 47.1c-.7.1-1.3.4-1.3.8-.1.6 1.1 1.3 2.5 1.6 1.4.3 2.7.0 2.8-.6v0c0-.3-.2-.6-.6-.9-.5-.3-1.1-.6-1.8-.8C93.7 47 93.2 47 92.8 47.1z"
		/><path id="XMLID_206_" class="st21" d="M79 63.2c1.5.1 2.3.4 2.6.5-.1.3-.4 1.2-2.3 2.5-.1.0-.2.0-.3.0.0.0.0.0.0.0.0.0.0.0.0.0-.5-.1-1.5-.5-2.3-2.6C76.9 63.4 77.6 63.1 79 63.2z"/><path id="XMLID_203_" class="st21" d="M79.4 66.6c-.4.1-2.1.2-3.2-3 0-.1.0-.2.0-.2.1-.1.7-.7 2.8-.6 2.1.1 2.9.6 2.9.6.1.0.1.1.1.2.0.1.1 1.2-2.6 3C79.5 66.5 79.5 66.5 79.4 66.6c.09999999999999432.0.0.0.0.0zM76.7 63.6c.9 2.8 2.4 2.7 2.6 2.6 1.9-1.3 2.3-2.2 2.3-2.5-.3-.1-1.1-.4-2.6-.5C77.6 63.1 76.9 63.4 76.7 63.6z"/><path id="XMLID_202_" class="st25" d="M82.8 66.4c2.6-.5 3.9-.7 6.3-1.3"/><path id="XMLID_201_" class="st25" d="M82.7 68c2.7.5 4.1.7 6.7 1.2"/><path id="XMLID_200_" class="st25" d="M76.2 66.7c-2.1-.7-3.2-1.1-5.2-1.8"/><path id="XMLID_199_" class="st25" d="M76.2 68.2c-1.9-.1-2.8-.1-4.6-.1"/></g><g id="XMLID_192_"><path id="XMLID_197_" class="st4" d="M115.4 51.3c.1.7.3 1.4.5 1.9 1.9 4.8 7.9 5.5 11.9 2.9 5.1-3.3 4.1-9.8-.2-13.6-3.9-3.5-9.6-1.9-11.6 2.7C115.3 46.7 115.1 49.3 115.4 51.3z"/><path id="XMLID_196_" class="st26" d="M118.8 51.3c.1.4.3.8.5 1.2 1.8 2.9 5.7 2.6 8 .5 2.9-2.7 1.5-6.7-1.6-8.7-2.9-1.8-6.4-.1-7.2 3.1C118.2 48.4 118.4 50 118.8 51.3z"/><path id="XMLID_195_" class="st27" d="M119.9 49.9c0 .3.1.6.2.8.8 2.1 3.4 2.4 5.1 1.2 2.2-1.4 1.8-4.2-.1-5.9-1.7-1.5-4.1-.8-5 1.2C119.9 48 119.8 49 119.9 49.9z"/></g><path id="XMLID_191_" class="st26" d="M94.7 2.1c-7.8-.9-16.4 1.6-22.5 6-2.9 2-8.3 8.5-7 12.4 3.1 4 23.4-.4 25.8-4.6 2.1-3.6 4.5-6 8.7-7.3 2.4-.7 4.5-.5 7.9-.5-1.6-2-7.2-4.7-7.8-4.9C98.1 2.6 96.4 2.3 94.7 2.1z"/><path id="XMLID_189_" class="st28" d="M93.9.2c-6.3-.7-13.1.4-18.6 3.5C70.4 6.5 63 14 65.1 20.4c4.7.9 22.6-2.3 25-6.5 2.1-3.6 4.5-6 8.7-7.3 2.4-.7 5.4-.1 8.7 1.4-1.3-3.3-8-6.5-8.6-6.7C97.3.8 95.6.4 93.9.2z"/><path id="XMLID_188_" class="st2" d="M67 1e2c-.8.9-4 .1-4.8-.6-1.6-1.4-1.9-6.8.9-6.8C65.7 92.5 68.8 98 67 1e2z"/><path id="XMLID_185_" class="st2" d="M53.3 87.8c-2.4-.5-8.2-2.5-9.7-.4-1.7 2.4-1.1 9.5 1.1 11.5 2.2 2 7.2 3 10 3.6 2.5.5 5.6 2 6.7-.8.9-2.3 2.4-7.2 1.8-9.6C62.3 89.1 56.1 88.4 53.3 87.8z"/><path id="XMLID_184_" class="st2" d="M86.8 127.6c-1-3.1-2-6.2-3-9.3-1.4.1-2.8.1-4.3.0-.2-1.1-1.6-6.7-3.2-6.8-2.7-.1-1.6 5.8-1.8 7.3-4.5-.1-8.9-3.4-8.9 3.9.0 3.2 1.7 5.8 4.2 7.7 5.3 4 12.2 4.5 19.1 3.6C88.2 132 87.5 129.8 86.8 127.6z"/><path id="XMLID_182_" class="st29" d="M124 68.1c-5.2 3.4-10.8 5.7-16.6 8.1-4.3 1.8-8.7 3.3-13.3 3.9-4.7.7-9.6 1.5-14.4 1.5-4.7.0-9.2-.7-13.8-1.4-2.2-.3-4.3-.8-6.4-1.3 3.1 3.7 6.9 6.7 11.3 9 11.9 6.3 23.4 7.5 35.5 1 8.3-4.4 15.3-12.3 18.4-21.1.0.0.0-.1.0-.1C124.5 67.8 124.3 67.9 124 68.1z"/><path id="XMLID_181_" class="st3" d="M134.3 96c-.1-3.1-1.8-6.2-4.4-8.5-.3.9-.6 1.8-.9 2.6-.1.4-.1.7-.2 1.1-.5 3.3-2.3 6.6-3.6 9.6-.5 1.1-1 2.1-1.7 3.1-11.4 16.1-33.9 33-54.9 25-.3-.1-.7-.3-1-.4.6.7 1.3 1.4 2.1 2 10.1 7.6 26.2 2.6 37-.8C123 124.5 134.7 113.8 134.3 96z"/><path id="XMLID_180_" class="st30" d="M106.2 117.1c5.6 1.4 7.5-9.8.7-7.4C103.6 111 101.9 116.1 106.2 117.1z"/><path id="XMLID_179_" class="st30" d="M77.9 128.1c3.9-.7 7.8-5.1 2.7-7.6-2.4-1.2-7.2-.4-9.4 1-5.6 3.3 1.7 6.2 5 6.7C76.7 128.2 77.3 128.2 77.9 128.1z"/><path id="XMLID_178_" class="st30" d="M47 96.3c2.7 2.2 11.1 5.3 13.6 1 2.7-4.8-6.7-8.3-10.2-8.2C46.2 89.3 43.1 93.2 47 96.3z"/><path id="XMLID_177_" class="st31" d="M72.2 15.5c3.4 3.4 11.2-.3 14.4-2.4 5.4-3.6 4.2-8.5-2.8-8.4C79.5 4.7 66.5 9.9 72.2 15.5z"
	/><g id="星球1"><linearGradient id="XMLID_46_" gradientUnits="userSpaceOnUse" x1="573.2477" y1="-241.4851" x2="626.2068" y2="-194.5375" gradientTransform="matrix(0.1993 0.9799 1.0244 -0.2084 138.9536 -502.4952)"><stop offset=".00383142" style="stop-color:#ad97c7"/><stop offset=".5326" style="stop-color:#634d9d"/><stop offset="1" style="stop-color:#755da6"/></linearGradient><path id="XMLID_176_" class="st32" d="M59.9 159.1c-5.4 1-11 1.1-16.4 2.4-3.2.8-6.4 1.9-9.3 3.5-3.8 2-7.5 4.7-11.8 4.8-1.9.0-3.8-.4-5.4-1.2-5.8-2.8-8.7-9.1-9.8-15.2-1.1-6.1-.7-12.5-2-18.6-.9-4.1-2.4-8-4-11.8-1.1-2.8-2.1-6.3.0-8.6 1-1.1 2.5-1.6 3.7-2.4 2.7-1.6 4.5-4.3 6.2-6.8 3.7-5.3 8-10.5 13.5-14.1 5.5-3.6 12.6-5.5 19-3.7 8.7 2.4 14 10.6 21.5 15.5 3.8 2.5 8.4 4.4 10.4 8.3 1.8 3.6 1 7.9 1.2 12 .4 7.4 4.5 14.6 2.5 21.8-1.1 4-4 7.4-7.5 9.7C68.2 156.9 64.1 158.3 59.9 159.1z"/><linearGradient id="XMLID_47_" gradientUnits="userSpaceOnUse" x1="458.8392" y1="100.7972" x2="511.7964" y2="147.7431" gradientTransform="matrix(-1 0 0 1 522.3248 0)"><stop offset=".00383142" style="stop-color:#ad97c7"/><stop offset=".5326" style="stop-color:#634d9d"/><stop offset="1" style="stop-color:#755da6"/></linearGradient><path id="XMLID_175_" class="st33" d="M4.2 142c.1-5.3 1.1-10.6 1-15.9-.1-3.2-.6-6.3-1.6-9.4-1.2-3.9-3.1-7.9-2.4-11.9.3-1.8 1.2-3.4 2.3-4.8 3.9-4.9 10.7-6.4 16.9-6.3 6.2.2 12.4 1.7 18.6 1.7 4.2.0 8.3-.8 12.4-1.4 3-.5 6.6-.7 8.4 1.7.9 1.1 1.1 2.6 1.6 3.9 1.1 2.8 3.3 5 5.5 7.2 4.5 4.5 8.7 9.5 11.1 15.4 2.4 5.9 2.9 12.9-.1 18.5-4.1 7.7-13.2 11.1-19.5 17.2-3.2 3.1-6 7-10.2 8.2-3.9 1-8-.6-12-1.2-7.3-1.1-15.2 1.4-21.9-1.8-3.7-1.8-6.5-5.1-8-8.9C4.6 150.3 4.1 146.1 4.2 142z"/><linearGradient id="XMLID_48_" gradientUnits="userSpaceOnUse" x1="459.3679" y1="109.4068" x2="510.7849" y2="152.1841" gradientTransform="matrix(-1 0 0 1 522.3248 0)"><stop offset=".00383142" style="stop-color:#f6cb78"/><stop offset=".5326" style="stop-color:#c0add3"/><stop offset="1" style="stop-color:#d3c5e0"/></linearGradient><circle id="XMLID_174_" class="st34" cx="39.3" cy="129.1" r="31.5"/><linearGradient id="XMLID_49_" gradientUnits="userSpaceOnUse" x1="453.0485" y1="102.4352" x2="513.5719" y2="152.4282" gradientTransform="matrix(-1 0 0 1 522.3248 0)"><stop offset=".00383142" style="stop-color:#f1aa23"/><stop offset=".5326" style="stop-color:#ad97c7"/><stop offset="1" style="stop-color:#c3b0d5"/></linearGradient><path id="XMLID_173_" class="st35" d="M12.2 129.5c0 4.6.9 15.8 7.9 13.8 1.8-.5 3.3-1.7 5-2.6 2.5-1.3 5.6-1.8 8.1-.5 1.9 1 3.1 2.8 4.9 4.1 3.1 2.3 7.8 2.1 10.8-.3 1.6-1.3 2.7-3.1 4.2-4.6 1.5-1.4 3.6-2.5 5.5-1.8 1.9.7 3.2 2.9 5.2 2.8 1.7-.1 2.8-1.9 3.4-3.5.1-.3.3-.7.4-1 6.4-17.7-9.8-35.6-26.9-35.6C24.9 100.4 12.2 113.4 12.2 129.5z"/><path id="XMLID_166_" class="st4" d="M53.6 117c0 0-.3 3.1-1.7 4.6-1.4 1.5-3.7 1.5-3.7 1.5s2.2.3 3.6 1.5c1.5 1.3 1.8 4.8 1.8 4.8s.2-3.3 1.6-4.7c1.3-1.3 3.8-1.6 3.8-1.6s-2.6-.3-3.8-1.6C53.6 119.9 53.6 117 53.6 117z"/><linearGradient id="XMLID_50_" gradientUnits="userSpaceOnUse" x1="461.4246" y1="107.5447" x2="509.0597" y2="152.2303" gradientTransform="matrix(-1 0 0 1 522.3248 0)"><stop offset=".00383142" style="stop-color:#f1aa23"/><stop offset=".4806" style="stop-color:#ad97c7"/><stop offset="1" style="stop-color:#a68fc2"/></linearGradient><path id="XMLID_165_" class="st36" d="M34.6 154.7c1.9.5 3.9.7 5.9.2 1-.2 2.1-1.1 1.8-2-.2-.5-.7-.8-1.2-1-7.3-3.5-14.9-7.6-18.5-14.8-1.3-2.6-2-5.4-2.4-8.3-.5-3.8-.5-7.7.0-11.5-4.4 6.5-5.4 15.2-2.5 22.5C20.4 147.1 26.9 152.8 34.6 154.7z"/><linearGradient id="XMLID_51_" gradientUnits="userSpaceOnUse" x1="454.8201" y1="134.424" x2="475.1719" y2="100.1356" gradientTransform="matrix(-1 0 0 1 522.3248 0)"><stop offset=".00383142" style="stop-color:#ccc"/><stop offset=".9962" style="stop-color:#fbf9fc"/></linearGradient><path id="XMLID_164_" class="st37" d="M65.2 138.1c0 0 5.6-13.3-3.2-24.9-9.6-12.6-20.4-10.3-20.4-10.3s10.1 2.3 17.8 13.6C66.6 127.2 65.2 138.1 65.2 138.1z"/><linearGradient id="XMLID_52_" gradientUnits="userSpaceOnUse" x1="481.9869" y1="119.5105" x2="506.9107" y2="137.9834" gradientTransform="matrix(-1 0 0 1 522.3248 0)"><stop offset="0" style="stop-color:#af9ac8"/><stop offset=".9962" style="stop-color:#ced9a1"/></linearGradient><path id="XMLID_139_" class="st38" d="M21.3 129c1.5 6.3 6.8 10.5 11.9 9.3 5.1-1.2 8-7.3 6.5-13.6-1.5-6.3-6.8-10.5-11.9-9.3C22.8 116.6 19.9 122.6 21.3 129z"/><circle id="XMLID_138_" class="st4" cx="46.8" cy="143.3" r="3.7"/><linearGradient id="XMLID_53_" gradientUnits="userSpaceOnUse" x1="493.8075" y1="110.7311" x2="499.5591" y2="113.5332" gradientTransform="matrix(-1 0 0 1 522.3248 0)"><stop offset="0" style="stop-color:#af9ac8"/><stop offset=".9962" style="stop-color:#ced9a1"/></linearGradient><ellipse id="XMLID_137_" class="st39" cx="23.2" cy="113.3" rx="3.7" ry="9"/><circle id="XMLID_102_" class="st4" cx="53.6" cy="149.6" r="1.9"/><linearGradient id="XMLID_54_" gradientUnits="userSpaceOnUse" x1="443.9252" y1="91.3615" x2="488.9169" y2="142.5895" gradientTransform="matrix(-1 0 0 1 522.3248 0)"><stop offset=".00383142" style="stop-color:#f1aa23"/><stop offset=".4806" style="stop-color:#ad97c7"/><stop offset="1" style="stop-color:#7f68ac"/></linearGradient><ellipse id="XMLID_101_" class="st40" cx="43.2" cy="131.5" rx="7.6" ry="6.7"/></g></svg>