<svg id="圖層_1" xmlns="http://www.w3.org/2000/svg" xmlns:xlink="http://www.w3.org/1999/xlink" viewBox="0 0 109.7 91.7" style="enable-background:new 0 0 109.7 91.7"><style>.st0{fill:#fff}.st1{fill:#fae4ef}</style><path id="XMLID_34_" class="st0" d="M68.6 80c-1-.8-1.2-2.2-.4-3.2.8-1 2.2-1.2 3.2-.4 1 .8 1.2 2.2.4 3.2C71 80.6 69.6 80.8 68.6 80"/><path id="XMLID_33_" class="st0" d="M106 48c-1-.8-1.2-2.2-.4-3.2.8-1 2.2-1.2 3.2-.4 1 .8 1.2 2.2.4 3.2C108.5 48.6 107 48.8 106 48"/><path id="XMLID_32_" class="st0" d="M49.6 4.1c-1-.8-1.2-2.2-.4-3.2.8-1 2.2-1.2 3.2-.4 1 .8 1.2 2.2.4 3.2C52.1 4.7 50.6 4.9 49.6 4.1"/><path id="XMLID_31_" class="st0" d="M35.4 91.2c-1-.8-1.2-2.2-.4-3.2.8-1 2.2-1.2 3.2-.4 1 .8 1.2 2.2.4 3.2C37.8 91.8 36.4 92 35.4 91.2"/><path id="XMLID_30_" class="st1" d="M17.3 58.7c0 0-4.8.4-6.8 2.4-1.7 1.7-1.9 6.2-1.9 6.2S8.4 63.2 6.7 61C5.1 58.9.0 58.6.0 58.6s4.7-.2 6.8-2.1c1.6-1.5 2-6.5 2-6.5s.4 5 1.9 6.5C12.7 58.4 17.3 58.7 17.3 58.7"/><path id="XMLID_29_" class="st1" d="M64.6 35.7c0 0-7.5.7-10.6 3.7-2.6 2.6-3 9.7-3 9.7s-.4-6.5-2.9-9.8c-2.6-3.3-10.5-3.8-10.5-3.8s7.4-.3 10.6-3.3c2.5-2.3 3-10.1 3-10.1s.6 7.8 3 10.2C57.3 35.3 64.6 35.7 64.6 35.7"/></svg>