<svg id="圖層_1" xmlns="http://www.w3.org/2000/svg" xmlns:xlink="http://www.w3.org/1999/xlink" viewBox="0 0 179.4 121.9" style="enable-background:new 0 0 179.4 121.9"><style>.st0{clip-path:url(#SVGID_2_);fill:url(#SVGID_3_)}.st1{clip-path:url(#SVGID_5_);fill:url(#SVGID_6_)}.st2{clip-path:url(#SVGID_8_);fill:url(#SVGID_9_)}.st3{clip-path:url(#SVGID_11_);fill:url(#SVGID_12_)}.st4{clip-path:url(#SVGID_14_);fill:url(#SVGID_15_)}.st5{clip-path:url(#SVGID_17_);fill:url(#SVGID_18_)}.st6{fill:#fff}.st7{fill:url(#SVGID_19_)}.st8{clip-path:url(#SVGID_21_);fill:url(#SVGID_22_)}.st9{fill:none;stroke:#fff;stroke-width:3;stroke-miterlimit:10}.st10{clip-path:url(#SVGID_24_);fill:url(#SVGID_25_)}.st11{clip-path:url(#SVGID_27_);fill:url(#SVGID_28_)}</style><g><defs><path id="SVGID_1_" d="M59.9 33.9h9.5c-1.9 2.9-4 5.7-6.4 8.2C61.8 39.5 60.8 36.8 59.9 33.9M63.7.0l-1.2 6.9h-14l-1.9 10.7h13.9l-1.3 6.9H45.6c.4 5.1 1.3 10 2.7 14.8 1.3 4.4 3 8.7 5.1 12.8-5.7 5.3-11.7 10.3-17.9 15H54c2-1.6 4-3.2 5.9-4.9 1.4 1.7 2.9 3.3 4.6 4.9H82c-4.8-4.3-9.1-9-12.7-14.2 4-4.4 7.7-9.1 11-14 3.1-4.6 5.8-9.4 8.1-14.3H73l1.3-6.9h16l1.9-10.7h-16L77.5.0H63.7zM30.6-.1l-1.8 9.9h-5.9L21 20.4h5.9l-2.3 12.8-6 1.1-2.1 11.5 6.1-1.2c-3.9 15.6-9.9 33.2-22 51.1h15.1c11.7-19.9 14-30.4 15.1-33 1.2-3.5 3.2-10.5 3.9-14.1l1.2-6.4 5.1-1 2.1-11.5-5.1 1 1.9-10.3h4.9l1.9-10.6h-4.9l1.8-9.9H30.6z"
			/></defs><clipPath id="SVGID_2_"><use xlink:href="#SVGID_1_" style="overflow:visible"/></clipPath><linearGradient id="SVGID_3_" gradientUnits="userSpaceOnUse" x1="-840.8203" y1="2815.6028" x2="-839.8203" y2="2815.6028" gradientTransform="matrix(1.4847 95.5212 95.5212 -1.4847 -267655.8438 84496.25)"><stop offset="0" style="stop-color:#00a8e3"/><stop offset=".7882" style="stop-color:#95519b"/><stop offset="1" style="stop-color:#95519b"/></linearGradient><path class="st0" d="M92.2-1.5l1.5 97.2L.5 97.1-1-.1z"/></g><g><defs><path id="SVGID_4_" d="M101.9 44.1h3.9l-1.2 6.6-4 .7L101.9 44.1zM104.8 27.9h3.9l-1.1 6.2h-3.9L104.8 27.9zm3-16.5h3.9l-1.2 6.4h-3.9L107.8 11.4zM98.9 1.4l-1.8 10h1.7L91.2 53l-1.8.3-1.9 10.4 15.1-2.6-1.1 5.8h8.8l1.3-7.4 1.9-.3 1.9-10.4-1.9.4 6.8-37.8h1.6l1.8-10H98.9zM157.9 1.1c0 4.7-.1 9.4-.3 14.1h7.1c.2-4.7.2-9.4.0-14.1H157.9zM129.3.0c0 1.2.1 2.3.1 3.5h-4.9l-1.5 8h22.9l1.5-8h-6.2c-.1-1.2-.2-2.3-.3-3.5H129.3zM125 51.9h5.8l-.6 3.5h-5.8L125 51.9zM127.3 39.2h5.8l-.6 3.5h-5.8L127.3 39.2zM148.1.0c-.6 6-1.2 11.9-1.6 17.9h-3l1.8-5.2h-8.8c-.6 1.8-1.2 3.5-1.8 5.2H133c-.1-1.7-.2-3.4-.3-5.2h-9c0 1.8.0 3.5.0 5.2h-2.9l-1.6 9H146c-.5 7.7-.5 15.4-.2 22.9-2.5 4.1-5.1 8.2-7.8 12.2l5.9-32.5h-23.8l-6.5 35.7h22.2l-1.3 1.9h9.2c1.1-1.6 2.1-3.1 3.2-4.7.2 1.6.4 3.1.8 4.7h8.5c-.9-5.8-1.5-11.8-1.8-17.9 3.4-6.9 6.4-14 9.1-21.2h-7.2c-.7 1.8-1.4 3.6-2.1 5.3l.3-6.4h23.2l1.6-9h-24.3c.4-5.9 1-11.9 1.7-17.9H148.1z"/></defs><clipPath id="SVGID_5_"><use xlink:href="#SVGID_4_" style="overflow:visible"/></clipPath><linearGradient id="SVGID_6_" gradientUnits="userSpaceOnUse" x1="-829.229" y1="2819.0669" x2="-828.229" y2="2819.0669" gradientTransform="matrix(1.0472 67.3744 67.3744 -1.0472 -188931.4844 58820.9141)"><stop offset="0" style="stop-color:#33aee4"/><stop offset="1" style="stop-color:#95519b"/></linearGradient><path class="st1" d="M179.4-1.4 180.5 66.9 87.6 68.4 86.6.0z"/></g><g><defs><path id="SVGID_7_" d="M39.9 70.3c-.5 1.3-.9 2.6-1.4 3.9h-9.3l-.8 4.5h8.2c-1.6 3.5-3.5 6.8-5.6 10.1-1.9 2.8-3.9 5.5-6.2 8h7c1.9-2.3 3.7-4.7 5.2-7.2 1.9-3.1 3.6-6.2 5.1-9.5.3 2.9.7 5.8 1.4 8.6.3 1.5.7 3 1.2 4.5.4 1.2.8 2.4 1.2 3.6h6.3c-2.2-5.8-3.9-11.8-4.9-18.1h8l.8-4.5H44.4c.4-1.3.9-2.5 1.3-3.9H39.9z"/></defs><clipPath id="SVGID_8_"><use xlink:href="#SVGID_7_" style="overflow:visible"/></clipPath><linearGradient id="SVGID_9_" gradientUnits="userSpaceOnUse" x1="-768.8672" y1="2837.1001" x2="-767.8672" y2="2837.1001" gradientTransform="matrix(0.4132 26.5831 26.5831 -0.4132 -75061.1797 21681.457)"><stop offset="0" style="stop-color:#95519b"/><stop offset="1" style="stop-color:#95519b"/><stop offset="1" style="stop-color:#33aee4"/></linearGradient><path class="st2" d="M56 69.8 56.4 96.7l-31.7.5L24.3 70.3z"/></g><g><defs><path id="SVGID_10_" d="M68.1 78.8l-.8 4.6h2.6c-.7 2.6-1.7 5.3-2.8 7.8-.5 1.1-1.1 2.3-1.7 3.4-.4.7-.9 1.4-1.4 2h5.5c.5-.7.9-1.3 1.2-2 .6-1.1 1.1-2.1 1.5-3.2 1-2.6 1.9-5.3 2.6-8h1.1l-2.4 13.2h8.1l.8-4.5h-3l1.6-8.8h2.8l.8-4.6H68.1zM59 71.1l-.7 4h2.4l-1 5.5h-2.2l-.7 4.1H59L57.7 92l-2.5.2-.7 3.9 9.8-.8.7-3.9-2.1.2 1.2-6.8h2.1l.7-4.1h-2.1l1-5.5H68l.7-4H59zM69.9 70.9l-.8 4.5h15.5l.8-4.5H69.9z"/></defs><clipPath id="SVGID_11_"><use xlink:href="#SVGID_10_" style="overflow:visible"/></clipPath><linearGradient id="SVGID_12_" gradientUnits="userSpaceOnUse" x1="-766.6266" y1="2837.7681" x2="-765.6266" y2="2837.7681" gradientTransform="matrix(0.4041 25.9989 25.9989 -0.4041 -73399.1719 21149.0664)"><stop offset="0" style="stop-color:#95519b"/><stop offset=".3695" style="stop-color:#95519b"/><stop offset=".8768" style="stop-color:#93589f"/><stop offset="1" style="stop-color:#93589f"/></linearGradient><path class="st3" d="M85.4 70.4 85.8 96.7 54.5 97.2 54.1 70.9z"/></g><g><defs><path id="SVGID_13_" d="M91.2 70.9l-6.7 33.5c-.3 1.3-.7 2.6-1.3 3.8-.5 1.1-1.2 2-2.2 2.9-1 .8-2.2 1.5-3.4 1.9-1.2.3-5.9 1-7.1 1.2l-1.3 7.7c2.7.0 7.3-.3 9.9-.8 1.5-.3 2.9-.7 4.3-1.2 1.2-.5 2.4-1.1 3.5-1.8 2.1-1.4 3.8-3.1 5.1-5.1 1.3-2.2 2.1-4.4 2.6-6.8l7-35.3H91.2z"/></defs><clipPath id="SVGID_14_"><use xlink:href="#SVGID_13_" style="overflow:visible"/></clipPath><linearGradient id="SVGID_15_" gradientUnits="userSpaceOnUse" x1="-816.2332" y1="2822.948" x2="-815.2332" y2="2822.948" gradientTransform="matrix(0.7872 50.6433 50.6433 -0.7872 -142235.8594 43629.8555)"><stop offset="0" style="stop-color:#95519b"/><stop offset=".3103" style="stop-color:#95519b"/><stop offset="1" style="stop-color:#33aee4"/></linearGradient><path class="st4" d="M101.6 70.4 102.4 121.9l-33.2.5L68.4 70.9z"/></g><g><defs><path id="SVGID_16_" d="M145.7 93.9h6.4c1.4.0 2.6.4 3.6 1.3 1 .9 1.4 2 1.2 3.4-.3 1.4-1.1 2.6-2.4 3.6-1.2.8-2.5 1.2-3.8 1.1h-6.9L145.7 93.9zM148.7 79h5.7c1.3.0 2.4.4 3.3 1.2.7.7.9 1.7.8 2.8-.3 1.2-.9 2.1-1.9 3-1.2.9-2.5 1.3-3.9 1.3h-5.6L148.7 79zM139.9 70.9l-8.1 40.5h18.9c2.1.0 4.2-.3 6.3-.9 1.8-.5 3.5-1.3 5.1-2.4 1.5-1.1 2.7-2.5 3.6-4 .7-1.3 1.2-2.6 1.5-4 .4-2.2.2-4.2-.7-6-.5-.9-1.3-1.8-2.2-2.4-1-.7-2.1-1.2-3.4-1.6v-.2c2-.5 3.7-1.5 5.3-3 1.7-1.7 2.7-3.6 3.2-5.7.5-2.9-.1-5.3-2-7.2-1.2-1.1-2.6-1.9-4.2-2.3-2-.5-4-.8-6.1-.9H139.9z"/></defs><clipPath id="SVGID_17_"><use xlink:href="#SVGID_16_" style="overflow:visible"/></clipPath><linearGradient id="SVGID_18_" gradientUnits="userSpaceOnUse" x1="-803.4411" y1="2826.7756" x2="-802.4411" y2="2826.7756" gradientTransform="matrix(0.6326 40.6958 40.6958 -0.6326 -114379.0938 34555.4453)"><stop offset="0" style="stop-color:#95519b"/><stop offset="1" style="stop-color:#33aee4"/></linearGradient><path class="st5" d="M169.8 70.3 170.4 111.4 131.8 112 131.2 70.9z"/></g><path class="st6" d="M145.1 76.3c1.4 2.6-3.1 7.8-11 13.4-3.8 2.7-8.3 5.4-13.3 7.9-4.5 2.3-8.8 4.2-12.8 5.6-9.9 3.6-17.6 4.4-19.1 1.7-2.1-3.9 8.8-13.4 24.3-21.3C128.8 75.7 143 72.5 145.1 76.3"/><linearGradient id="SVGID_19_" gradientUnits="userSpaceOnUse" x1="-782.9623" y1="2832.8879" x2="-781.9623" y2="2832.8879" gradientTransform="matrix(0.4812 30.9602 30.9602 -0.4812 -87213.2266 25678.9941)"><stop offset="0" style="stop-color:#33aee4"/><stop offset="1" style="stop-color:#95519b"/></linearGradient><path class="st7" d="M142.8 77.4l.9-.5c.2.4.3.8.3 1.2-.4 4.8-10.2 12-23.5 19-10.7 5.5-20.6 8.7-26 8.8-1.8.0-3.4-.3-4.2-1.7-.2-.4-.3-.8-.3-1.2.4-4.8 10.2-12 23.5-19 10.7-5.4 20.6-8.7 26-8.8 1.8.0 3.4.3 4.2 1.7L142.8 77.4l-.9.5c-.1-.2-.8-.7-2.4-.7-4.7.0-14.6 3.2-25.1 8.5-13.1 6.5-22.8 14.8-22.4 17.2.0.1.0.2.1.3.1.2.8.7 2.4.7 4.7.0 14.6-3.2 25.1-8.5 13.1-6.5 22.8-14.8 22.4-17.2.0-.1.0-.2-.1-.3L142.8 77.4z"/><g><defs><path id="SVGID_20_" d="M107.1 75.9c-7.8 5.8-9.8 16.2-4.3 23.2 5.5 7 16.3 7.9 24.1 2.1 7.8-5.8 9.8-16.2 4.3-23.2-3.1-3.9-7.8-5.9-12.7-5.9C114.6 72.1 110.6 73.3 107.1 75.9"/></defs><clipPath id="SVGID_21_"><use xlink:href="#SVGID_20_" style="overflow:visible"/></clipPath><linearGradient id="SVGID_22_" gradientUnits="userSpaceOnUse" x1="-787.9022" y1="2831.4116" x2="-786.9022" y2="2831.4116" gradientTransform="matrix(0.5107 32.8562 32.8562 -0.5107 -92510.2734 27405.5742)"><stop offset="0" style="stop-color:#95519b"/><stop offset="1" style="stop-color:#00a8e3"/></linearGradient><path class="st8" d="M136.7 71.5l.5 35.5L97.4 107.6 96.8 72.1z"/></g><path class="st9" d="M135.5 88.3c-3.8 2.7-9.5 6-14.5 8.6-4.5 2.3-10.7 5.1-14.7 6.6"/><g><defs><path id="SVGID_23_" d="M165.8 55.1c3.1.0 5.7 3.8 5.7 8.4.0-4.6 2.5-8.4 5.7-8.4-3.1.0-5.7-3.8-5.7-8.4C171.5 51.3 169 55.1 165.8 55.1"/></defs><clipPath id="SVGID_24_"><use xlink:href="#SVGID_23_" style="overflow:visible"/></clipPath><linearGradient id="SVGID_25_" gradientUnits="userSpaceOnUse" x1="3967.3245" y1="-12507.3135" x2="3968.3245" y2="-12507.3135" gradientTransform="matrix(0.1723 0 0 -0.1723 -987.983 -2099.3674)"><stop offset="0" style="stop-color:#33aee4"/><stop offset="0" style="stop-color:#95519b"/><stop offset="1" style="stop-color:#95519b"/></linearGradient><path class="st10" d="M165.8 46.7h11.4v16.8H165.8z"/></g><g><defs><path id="SVGID_26_" d="M58.5 108.5c2.5.0 4.5 3 4.5 6.7.0-3.7 2-6.7 4.5-6.7-2.5.0-4.5-3-4.5-6.7C63 105.5 61 108.5 58.5 108.5"
			/></defs><clipPath id="SVGID_27_"><use xlink:href="#SVGID_26_" style="overflow:visible"/></clipPath><linearGradient id="SVGID_28_" gradientUnits="userSpaceOnUse" x1="-776.7158" y1="2516.4355" x2="-775.7159" y2="2516.4355" gradientTransform="matrix(9.0691 0 0 -9.0691 7102.6113 22930.3125)"><stop offset="0" style="stop-color:#00a8e3"/><stop offset="1" style="stop-color:#00a8e3"/><stop offset="1" style="stop-color:#95519b"/></linearGradient><path class="st11" d="M58.5 101.8h9.1v13.4H58.5z"/></g></svg>